<?xml version="1.0" standalone="no"?>
<!DOCTYPE svg PUBLIC "-//W3C//DTD SVG 1.1//EN" "http://www.w3.org/Graphics/SVG/1.1/DTD/svg11.dtd" >
<svg xmlns="http://www.w3.org/2000/svg">
<metadata></metadata>
<defs>
<font id="josefin_sansitalic" horiz-adv-x="614" >
<font-face units-per-em="2048" ascent="1536" descent="-512" />
<missing-glyph horiz-adv-x="500" />
<glyph horiz-adv-x="2048" />
<glyph horiz-adv-x="2048" />
<glyph unicode="&#xd;" />
<glyph unicode=" " />
<glyph unicode="!" horiz-adv-x="411" d="M41 113q2 29 26.5 48t49.5 19t42 -19.5t13 -47.5q-4 -29 -26.5 -48.5t-49.5 -19.5q-25 0 -41 19.5t-14 48.5zM96 340l168 1196h84l-168 -1196h-84z" />
<glyph unicode="&#x22;" horiz-adv-x="634" d="M92 967l72 508h90q-20 -129 -39.5 -254t-40.5 -254h-82zM365 967l71 508h90q-20 -129 -39.5 -254t-40.5 -254h-81z" />
<glyph unicode="#" horiz-adv-x="1169" d="M23 430q6 23 11 42.5t11 41.5h219q20 72 39 144.5t37 146.5h-217q4 20 9 40.5t9 41.5h219q29 109 57.5 215t57.5 215h86q-29 -109 -57.5 -215.5t-57.5 -214.5h291q29 109 57.5 215t57.5 215h86q-29 -109 -57.5 -215.5t-57.5 -214.5h252q-4 -20 -10 -41t-10 -41h-252 q-18 -74 -36.5 -146.5t-39.5 -144.5h250q-4 -23 -10 -42t-11 -42h-251l-111 -430h-86l110 430h-290l-111 -430h-86l111 430h-219zM350 514h291q20 72 38.5 144.5t37.5 146.5h-291q-18 -74 -36.5 -146.5t-39.5 -144.5z" />
<glyph unicode="$" horiz-adv-x="1161" d="M61 182l64 58q23 -27 52.5 -55.5t65.5 -53.5t81 -42t98 -21l92 657q-6 4 -27 12q-37 12 -84 34t-88 58.5t-66.5 93t-17.5 136.5q6 63 32 128.5t74 119t117.5 90.5t161.5 43l17 125h86l-17 -127q66 -4 132.5 -33t132.5 -92q-16 -16 -28.5 -32.5t-29.5 -33.5q-29 29 -83 64 t-136 45l-80 -572q59 -23 124 -52.5t116 -75.5t78.5 -112.5t15.5 -162.5q-12 -86 -53 -155.5t-100.5 -121t-135 -82t-157.5 -36.5l-19 -125h-86l19 127q-72 6 -129.5 27.5t-101.5 50t-73.5 60.5t-46.5 56zM317 1073q-14 -104 35 -156.5t140 -85.5q18 -12 36 -14l76 539 q-63 -6 -112.5 -32t-86 -64.5t-58.5 -87t-30 -99.5zM510 72q61 6 119.5 29.5t106.5 62.5t80 93t42 120q10 74 -9.5 126t-58 88t-90 60.5t-102.5 42.5z" />
<glyph unicode="%" horiz-adv-x="1486" d="M246 797q6 49 31.5 92t62.5 74.5t83 50t95 18.5t90 -18.5t69 -50t41 -74.5t7 -92t-31.5 -93.5t-62.5 -76t-83 -50t-95 -18.5t-90 18.5t-70 50t-42 76t-5 93.5zM324 0q190 258 377.5 512t377.5 512h95q-190 -258 -378 -512t-378 -512h-94zM332 795q-10 -63 28.5 -107.5 t104.5 -44.5t115 44t59 108q10 66 -29 109.5t-104 43.5q-66 0 -115 -43.5t-59 -109.5zM788 229q6 49 32 92.5t63 75t83 50t95 18.5t90 -18.5t69.5 -50t42 -74.5t5.5 -93q-6 -49 -32 -93t-62.5 -75.5t-83 -50t-95.5 -18.5t-90 18.5t-69.5 50t-41 75.5t-6.5 93zM874 229 q-10 -66 29 -109.5t105 -43.5t114.5 44t59.5 109q10 63 -29 108.5t-104 45.5q-66 0 -115.5 -45.5t-59.5 -108.5z" />
<glyph unicode="&#x26;" horiz-adv-x="1433" d="M162 383q10 74 44 140.5t86 118.5t117.5 87t139.5 47q-29 59 -56.5 119.5t-56.5 120.5q-29 61 -34 126.5t13.5 129t63.5 119t119 96.5q63 35 123.5 42t116 -3t103.5 -33t83 -47q-23 -39 -45 -70q-33 20 -73 40t-83 29t-89 5t-91 -31q-121 -70 -147.5 -174t20.5 -205 q84 -174 165 -348t165 -348q20 37 34.5 75t22.5 79l12 86q16 74 42 111.5t56.5 54t64.5 17.5t71 1h84l-12 -84h-107q-31 0 -52.5 -10t-36.5 -36t-26.5 -68t-19.5 -105l-12 -82q-4 -45 -21.5 -85t-40.5 -77q27 -53 52.5 -107.5t50.5 -107.5q-18 -10 -36 -22.5t-36 -22.5 q-23 45 -43.5 90t-42.5 88q-66 -72 -155 -113.5t-187 -41.5q-84 0 -153.5 31.5t-115.5 85t-67.5 126t-9.5 156.5zM246 383q-10 -66 6 -123t53 -100t92.5 -67.5t122.5 -24.5q88 0 165 42t126 109q-55 121 -111.5 240t-113.5 239q-66 -6 -123 -31.5t-102.5 -66.5t-76 -97.5 t-38.5 -119.5z" />
<glyph unicode="'" horiz-adv-x="313" d="M80 967l72 508h90q-20 -129 -40 -254t-40 -254h-82z" />
<glyph unicode="(" horiz-adv-x="831" d="M260.5 305q-9.5 139 13.5 293q20 154 68.5 293t113 258t138.5 216t147 165q14 -12 28.5 -23.5t29.5 -23.5q-68 -68 -137.5 -160t-130 -204.5t-105.5 -244t-66 -276.5q-20 -145 -12 -276.5t37 -244t73 -204.5t93 -160q-16 -12 -34.5 -23.5t-35.5 -23.5q-55 68 -102 165 t-78 216t-40.5 258z" />
<glyph unicode=")" horiz-adv-x="819" d="M72 -291q68 68 137.5 160t129.5 204.5t106.5 244t66.5 276.5t11 276t-37.5 244t-72.5 205t-94 160q16 12 35 23t35 24q55 -68 102.5 -165t78 -216t39.5 -258t-11 -293q-23 -154 -71 -293t-112.5 -258t-138 -216t-147.5 -165q-14 12 -28.5 23.5t-28.5 23.5z" />
<glyph unicode="*" horiz-adv-x="686" d="M53 1075q49 27 99.5 52.5t101.5 52.5q-43 29 -85 55.5t-85 54.5q12 18 25.5 37t23.5 35q45 -29 88 -55.5t86 -55.5l33 224h90q-10 -55 -17 -110.5t-18 -113.5q53 29 104.5 55.5t102.5 53.5q18 -33 31 -72q-51 -29 -102.5 -55t-104.5 -55q45 -27 88 -53.5t86 -55.5 q-12 -18 -26.5 -37.5t-28.5 -40.5l-172 111q-10 -53 -17.5 -106.5t-17.5 -106.5h-82l31 213q-98 -51 -201 -107q-8 20 -16.5 40t-16.5 40z" />
<glyph unicode="+" horiz-adv-x="1112" d="M170 432l12 84h326l45 326h86l-45 -326h326l-13 -84h-325l-47 -328h-86l47 328h-326z" />
<glyph unicode="," horiz-adv-x="409" d="M4 -246q55 106 108.5 211t108.5 211h96q-59 -106 -117.5 -210.5t-117.5 -211.5h-78z" />
<glyph unicode="-" d="M102 346l11 84h376l-10 -84h-377z" />
<glyph unicode="." horiz-adv-x="333" d="M106 68q4 29 28 48t50 19q25 0 43.5 -19.5t14.5 -47.5q-4 -29 -28 -48.5t-48 -19.5q-27 0 -45.5 19.5t-14.5 48.5z" />
<glyph unicode="/" horiz-adv-x="706" d="M-74 -39q199 389 393.5 773t393.5 773h86q-199 -389 -393.5 -773t-393.5 -773h-86z" />
<glyph unicode="0" horiz-adv-x="1261" d="M74 670q18 121 69.5 242.5t134 218t195.5 157t252 60.5q137 0 230.5 -61.5t147.5 -160t70.5 -220.5t-2.5 -242q-23 -147 -85 -272.5t-151 -215.5t-196.5 -140t-216.5 -50t-201 52t-154.5 143t-89 216.5t-3.5 272.5zM162 670q-18 -133 3 -244t73.5 -189.5t130 -123.5 t168.5 -45q88 0 178 43t165.5 120.5t131 187t73.5 243.5q18 121 2 229t-63 191t-126 132.5t-187 49.5q-109 0 -201 -47.5t-164 -129t-120 -190t-64 -227.5z" />
<glyph unicode="1" horiz-adv-x="530" d="M150 1247l12 84h280l-186 -1331h-86l174 1247h-194z" />
<glyph unicode="2" horiz-adv-x="1034" d="M12 0q147 127 286.5 249t250 237.5t183.5 223t87 203.5q14 100 -6 167t-59 108t-89.5 58.5t-95.5 17.5q-92 0 -155.5 -33t-104.5 -80t-61.5 -102.5t-26.5 -100.5q-20 -137 49 -225q-16 -12 -29.5 -24.5t-29.5 -26.5q-47 47 -66.5 121.5t-9.5 154.5q12 82 48 155t92.5 127 t134 86t172.5 32q86 0 152.5 -32t108.5 -87t59.5 -130t4.5 -161q-16 -111 -81.5 -220.5t-160 -216t-208 -211t-224.5 -206.5h641l-12 -84h-850z" />
<glyph unicode="3" horiz-adv-x="1054" d="M86 123q16 16 35.5 31.5t36.5 31.5q37 -53 96 -85.5t135 -32.5q72 0 139.5 27.5t120.5 74.5t90 109.5t47 132.5t-9 132t-60 109t-100.5 74t-131.5 27q-35 0 -68.5 -11.5t-66.5 -31.5q115 135 226.5 268t224.5 268h-508l12 84h662q-109 -127 -216.5 -252t-218.5 -252 q82 -6 150 -39.5t114 -89t67.5 -128t8.5 -158.5q-12 -88 -58 -166t-112.5 -136.5t-149.5 -92t-171 -33.5q-94 0 -169 37.5t-126 101.5z" />
<glyph unicode="4" horiz-adv-x="1054" d="M33 375q223 244 443 486.5t444 486.5l-125 -889h198l-12 -84h-199l-53 -375h-86l53 375h-663zM219 459h490l88 637q-145 -160 -288.5 -319t-289.5 -318z" />
<glyph unicode="5" horiz-adv-x="1112" d="M147 102q18 14 36 28.5t36 29.5q37 -43 92.5 -67.5t122.5 -24.5q72 0 139.5 27.5t121 74.5t90 109.5t46.5 132.5q8 70 -10 131t-59 107t-100.5 73t-131.5 27t-135 -25t-104 -68l96 674h588l-12 -84h-502l-62 -444q35 14 71 22.5t75 8.5q88 0 161.5 -33t125 -90.5t75 -134 t11.5 -164.5t-58.5 -166t-114 -136.5t-150.5 -92t-171 -33.5q-86 0 -156.5 31.5t-120.5 86.5z" />
<glyph unicode="6" horiz-adv-x="1064" d="M66 399q20 147 101 275.5t195.5 240t248.5 207t261 178.5q10 -16 21.5 -34.5t24.5 -34.5q-240 -143 -383.5 -273.5t-210.5 -224.5q45 45 105 73t126 28q88 0 162 -34t124 -91.5t73.5 -135t11.5 -165.5t-57.5 -165t-112 -134.5t-150.5 -91t-172 -33.5q-86 0 -158.5 32.5 t-123 89t-73.5 132t-13 161.5zM154 408q-10 -72 8 -133.5t58 -107.5t97.5 -72.5t128.5 -26.5q70 0 136.5 26.5t121 72.5t91 107.5t47.5 133.5q8 70 -10.5 132t-59.5 109t-100.5 74t-128.5 27q-72 0 -137.5 -27t-117.5 -74t-88 -109t-46 -132z" />
<glyph unicode="7" horiz-adv-x="960" d="M68 0l737 1247h-696l12 84h831q-197 -336 -392 -665.5t-392 -665.5h-100z" />
<glyph unicode="8" horiz-adv-x="1044" d="M57 412q18 135 108.5 238.5t215.5 148.5q-63 33 -96 98.5t-21 146.5q8 61 39 117t79 97.5t106.5 65.5t121.5 24t116.5 -25t89.5 -67t52.5 -97t8.5 -119q-10 -80 -61.5 -143t-123.5 -98q117 -43 179.5 -147.5t43.5 -239.5q-12 -88 -58 -166t-112.5 -136.5t-149.5 -92 t-171 -33.5t-161 33.5t-123 92t-72.5 136.5t-10.5 166zM145 412q-10 -70 7.5 -132.5t56.5 -110.5t96 -75.5t129 -27.5t139.5 27.5t121 75.5t89 110.5t45.5 132.5t-8 130t-59 106t-100.5 74t-129.5 28q-72 0 -137 -27t-117.5 -73t-87.5 -107t-45 -131zM348 1036 q-12 -88 44.5 -145t150.5 -57t164.5 57t83.5 145q6 45 -4.5 86t-35 73t-62.5 50.5t-85 18.5t-90 -18.5t-78 -50.5t-58.5 -73t-29.5 -86z" />
<glyph unicode="9" horiz-adv-x="1075" d="M121 874q12 88 57 165t111.5 134.5t149.5 91t171 33.5t162 -33.5t124 -91t72.5 -134.5t10.5 -165q-20 -145 -101 -272t-197 -237.5t-249 -204.5t-258 -176q-23 33 -45 67q240 145 383 274.5t211 225.5q-47 -47 -106.5 -73.5t-124.5 -26.5q-90 0 -163 32.5t-124 90 t-73.5 135t-10.5 165.5zM205 874q-10 -72 9 -133t59 -108t99.5 -74t131.5 -27q70 0 136.5 27t118.5 74t88 108t46 133q10 70 -8.5 132.5t-58.5 108.5t-98 72.5t-128 26.5q-72 0 -138.5 -26.5t-119.5 -72.5t-90 -108.5t-47 -132.5z" />
<glyph unicode=":" horiz-adv-x="358" d="M70 68q4 29 27.5 48t49.5 19q25 0 42.5 -19.5t13.5 -47.5q-4 -29 -26.5 -48.5t-49.5 -19.5t-44 19.5t-13 48.5zM141 580q4 29 28 48t50 19q25 0 42.5 -19.5t12.5 -47.5q-4 -29 -26.5 -48.5t-48.5 -19.5q-27 0 -44.5 19.5t-13.5 48.5z" />
<glyph unicode=";" horiz-adv-x="411" d="M-57 -246q53 106 106 211t109 211h98q-59 -106 -117.5 -210.5t-118.5 -211.5h-77zM213 580q4 29 26.5 48t49.5 19t44 -19.5t13 -47.5q-4 -29 -26.5 -48.5t-49.5 -19.5t-44 19.5t-13 48.5z" />
<glyph unicode="&#x3c;" horiz-adv-x="1392" d="M236 487q242 129 483.5 259.5t484.5 259.5l-16 -113q-190 -102 -378.5 -202.5t-381.5 -203.5q162 -102 322.5 -202.5t324.5 -202.5l-16 -113q-207 129 -412 259t-411 259z" />
<glyph unicode="=" horiz-adv-x="1449" d="M170 276l12 84h1037l-13 -84h-1036zM225 674l13 84h1036l-12 -84h-1037z" />
<glyph unicode="&#x3e;" horiz-adv-x="1331" d="M162 -31l16 113q190 102 380 202.5t382 202.5q-162 102 -323.5 203t-323.5 203l14 113q207 -129 412 -259.5t414 -259.5q-244 -129 -485.5 -259t-485.5 -259z" />
<glyph unicode="?" horiz-adv-x="925" d="M133 1210q25 53 66 104.5t95 92.5t121.5 66.5t149.5 25.5q84 0 153.5 -31.5t116 -86t68 -127t8.5 -154.5q-16 -111 -81.5 -196t-170.5 -150q-39 -27 -74.5 -47.5t-65.5 -46t-52.5 -64.5t-30.5 -100l-22 -160h-86l28 199q8 63 37 103t69 70.5t90 58.5t105 69 q76 55 116 121.5t50 142.5q8 68 -7 125t-51 100t-90 66.5t-122 23.5q-119 0 -209 -61t-139 -170q-16 8 -35.5 14t-36.5 12zM270 98q4 29 28 48.5t48 19.5q25 0 43.5 -19.5t13.5 -48.5q-4 -29 -27 -48t-48 -19t-43.5 19.5t-14.5 47.5z" />
<glyph unicode="@" horiz-adv-x="2027" d="M168 387q25 172 111 323.5t215 264t290.5 178.5t333.5 66t314.5 -66t238.5 -178.5t140.5 -264t19.5 -325.5q-23 -117 -64 -191.5t-93 -117.5t-109.5 -59.5t-110.5 -16.5h-184l12 82q4 25 7 48.5t7 45.5q-18 -35 -53 -69.5t-81 -61.5t-102 -43t-118 -16q-84 0 -153.5 31.5 t-116.5 85t-68.5 126t-9.5 156.5q12 82 54 154.5t104.5 127t140.5 86t162 31.5q59 0 109 -17t89 -45t63.5 -62.5t35.5 -71.5l16 90t18 90h70l-96 -686h113q100 0 171.5 71.5t100.5 231.5q23 156 -16 293t-126 238.5t-215 160t-282 58.5q-156 0 -300 -58.5t-260 -160 t-194 -238.5t-100 -293q-20 -156 19.5 -291t126.5 -236.5t215 -159.5t282 -58q125 0 240.5 36.5t220.5 102.5l43 -62q-113 -78 -247 -119.5t-269 -41.5q-172 0 -314.5 65.5t-239 178t-141.5 264t-20 323.5zM680 385q-10 -66 6 -123t53 -100t92.5 -67.5t122.5 -24.5 q68 0 128.5 24.5t109.5 67.5t81 100t42 123t-6.5 124t-53 101t-91 67.5t-122.5 24.5t-128 -24.5t-109 -67.5t-82 -101t-43 -124z" />
<glyph unicode="A" horiz-adv-x="1515" d="M16 0q211 377 423 749.5t423 749.5l424 -1499h-86q-43 154 -86 307.5t-88 306.5h-575q-86 -154 -173.5 -307t-173.5 -307h-88zM498 696h503q-37 141 -75.5 278.5t-79.5 276.5q-2 14 -4 28.5t-6 29.5q-4 -10 -13.5 -28.5t-13.5 -29.5q-78 -145 -154.5 -278t-156.5 -277z " />
<glyph unicode="B" horiz-adv-x="1095" d="M49 0l203 1434h328q96 0 171.5 -20.5t126 -63.5t72.5 -112q13 -41 12 -90q0 -34 -6 -73q-16 -127 -92 -223t-211 -131q57 -12 109.5 -41t88.5 -74q35 -44 53 -104q11 -37 12 -79q0 -26 -5 -54q-12 -92 -59 -161t-115.5 -115t-152.5 -69.5t-170 -23.5h-365zM145 82h273 q76 0 145.5 18.5t124.5 55.5t92 91t47 128q4 27 4 51q-1 66 -29 110q-38 60 -98.5 93t-127 42t-109.5 9h-238zM242 762h268q147 0 243.5 85t116.5 222q4 31 4 58q0 107 -64 159q-80 66 -222 66h-262z" />
<glyph unicode="C" horiz-adv-x="1372" d="M125 715q20 152 97 286t190.5 233t255 157.5t293.5 58.5q104 0 193 -26.5t167 -75.5q-16 -16 -29.5 -35t-27.5 -35q-66 43 -146 66.5t-170 23.5q-133 0 -258 -52t-224 -141.5t-168 -208t-87 -253.5q-6 -46 -6 -91q-1 -83 21 -160q34 -118 109 -206t184.5 -139t242.5 -51 q90 0 176 23.5t164 66.5l39 -70q-88 -47 -185.5 -74.5t-201.5 -27.5q-152 0 -277 57t-210 156.5t-124 232.5q-25 86 -25 181q0 51 7 104z" />
<glyph unicode="D" horiz-adv-x="1335" d="M53 0l203 1434h301q147 0 271 -50.5t209 -143.5t124 -226q25 -85 24 -183q0 -55 -7 -114q-18 -129 -76 -257t-165.5 -230.5t-268 -166t-383.5 -63.5h-232zM150 84h178q174 0 309 52t230.5 139t151.5 202t75 240q7 54 7 105q-1 84 -21 158q-34 118 -109.5 201t-185 127 t-240.5 44h-215q-47 -317 -91 -634t-89 -634z" />
<glyph unicode="E" horiz-adv-x="1230" d="M72 0l202 1434h850l-12 -82h-764l-84 -588h686l-12 -82h-686l-84 -600h795l-13 -82h-878z" />
<glyph unicode="F" horiz-adv-x="1202" d="M72 0l202 1434h850l-12 -82h-764l-84 -588h686l-12 -82h-686l-96 -682h-84z" />
<glyph unicode="G" horiz-adv-x="1396" d="M125 715q20 152 97 286t190.5 233t255 157.5t293.5 58.5q104 0 193 -26.5t167 -75.5q-16 -16 -29.5 -35t-27.5 -35q-66 43 -146 66.5t-170 23.5q-133 0 -258 -52t-224 -141.5t-168 -208t-87 -253.5q-6 -46 -6 -91q0 -83 21 -160q34 -118 109 -206t184.5 -139t242.5 -51 q156 0 301 69l35 258l12 86q4 25 -4 39t-43 14h-240l11 82h270q61 0 84 -22q15 -16 15 -49q0 -15 -3 -33l-59 -424q-88 -47 -185.5 -74.5t-201.5 -27.5q-152 0 -277 57t-210 156.5t-124 232.5q-25 86 -25 181q0 51 7 104z" />
<glyph unicode="H" horiz-adv-x="1433" d="M90 0l203 1434h84l-94 -670h878l96 670h91q-53 -360 -104.5 -717t-104.5 -717h-84l96 682h-881l-96 -682h-84z" />
<glyph unicode="I" horiz-adv-x="507" d="M111 0l202 1434h84l-202 -1434h-84z" />
<glyph unicode="J" horiz-adv-x="638" d="M-84 -293l10 82q74 4 139.5 32.5t118 80t88 124t47.5 164.5l177 1244h86l-176 -1250q-16 -115 -61.5 -201.5t-111 -147t-147.5 -93.5t-170 -35z" />
<glyph unicode="K" horiz-adv-x="1228" d="M35 0l203 1434h84l-91 -643q-4 -16 -7 -31t-5 -31q10 12 21.5 22.5t21.5 20.5q197 166 392.5 331t394.5 331h110q-174 -143 -342 -285.5t-340 -286.5q141 -217 279.5 -431t279.5 -431h-104q-131 203 -261 402.5t-261 404.5q-51 -43 -100.5 -85t-100.5 -85 q-23 -160 -45.5 -318.5t-44.5 -318.5h-84z" />
<glyph unicode="L" horiz-adv-x="1214" d="M72 0l202 1434h84l-190 -1352h795l-13 -82h-878z" />
<glyph unicode="M" horiz-adv-x="1918" d="M98 0l211 1499q154 -244 306.5 -486.5t306.5 -486.5q223 244 443 486.5t443 486.5l-211 -1499h-86l129 913l37 265q4 20 8.5 39.5t8.5 42.5q-195 -225 -394.5 -441.5t-398.5 -435.5q-115 184 -227.5 363.5t-227.5 363.5l-69 111q-4 10 -10.5 19t-10.5 20q-2 -23 -3 -42.5 t-3 -39.5l-166 -1178h-86z" />
<glyph unicode="N" horiz-adv-x="1665" d="M102 0l211 1499q240 -334 474.5 -660.5t474.5 -658.5q8 -14 16 -26.5t16 -26.5v32.5t2 33.5l174 1241h86l-210 -1500q-240 330 -475.5 654.5t-475.5 654.5q-6 14 -14 26.5t-16 26.5q-2 -16 -2.5 -32.5t-2.5 -32.5l-172 -1231h-86z" />
<glyph unicode="O" horiz-adv-x="1720" d="M125 715q20 152 97 286t190.5 233t255 157.5t293.5 58.5t276.5 -58.5t210.5 -157.5q86 -100 125 -234q25 -87 25 -181q0 -51 -7 -104q-20 -152 -97 -285t-190.5 -232.5t-256 -156.5t-293.5 -57q-152 0 -277 57t-210 156.5t-123 232.5q-25 88 -26 183q0 50 7 102zM211 713 q-6 -47 -6 -92q-1 -84 21 -161q34 -118 109 -205t184.5 -138t242.5 -51q135 0 261 51t227.5 139t169 206t85.5 253q6 47 6 92q1 83 -21 161q-34 118 -109.5 208t-186.5 141t-244 51t-258 -52t-225 -141.5t-169 -208t-87 -253.5z" />
<glyph unicode="P" horiz-adv-x="950" d="M49 0l203 1434h307q63 0 137 -20.5t133.5 -65.5t95.5 -117q25 -51 25 -116q0 -27 -4 -56q-27 -176 -153.5 -280.5t-337.5 -104.5h-226l-96 -674h-84zM240 758h213q106 0 181 28.5t123 73.5t72.5 97.5t30.5 101.5q2 16 2 32q0 41 -14 79q-20 54 -63.5 94.5t-106 64 t-139.5 23.5h-213z" />
<glyph unicode="Q" horiz-adv-x="1724" d="M125 715q20 152 97 286t190.5 233t255 157.5t293.5 58.5t277.5 -58.5t211.5 -157.5t124 -234q24 -86 24 -180q0 -51 -7 -105q-14 -104 -56 -200.5t-105.5 -177.5t-144.5 -146.5t-173 -108.5h436l-12 -82h-629q-78 -16 -153 -16q-152 0 -277 57t-210 156.5t-123 232.5 q-26 88 -26 183q0 50 7 102zM211 713q-6 -46 -6 -91q0 -83 21 -160q34 -118 109 -206t184.5 -139t242.5 -51t259 51t227.5 139t170 206t86.5 253q6 47 6 92q0 84 -21 161q-34 119 -109.5 208.5t-187.5 140.5t-245 51t-258 -52t-224 -141.5t-168 -208t-87 -253.5z" />
<glyph unicode="R" horiz-adv-x="1034" d="M49 0l203 1434h307q63 0 137 -20.5t133.5 -65.5t95.5 -117q25 -51 25 -116q0 -27 -4 -56q-23 -147 -115 -244.5t-245 -128.5q57 -174 112.5 -344t112.5 -342h-92q-55 172 -111.5 340t-111.5 338q-18 -2 -37 -3t-37 -1h-193l-96 -674h-84zM240 758h213q106 0 181 28.5 t123 73.5t72.5 97.5t30.5 101.5q2 16 2 32q0 41 -14 79q-20 54 -63.5 94.5t-106 64t-139.5 23.5h-213z" />
<glyph unicode="S" horiz-adv-x="1130" d="M61 182l64 58q25 -31 57.5 -63t72.5 -56.5t91 -39.5t113 -15q70 0 136.5 21.5t121.5 62t93 98t48 129.5q3 25 3 48q-1 59 -23 103q-32 60 -88 98t-124.5 61.5t-125.5 43.5q-43 16 -93.5 40t-92.5 60.5t-66 92.5q-18 42 -19 97q0 18 2 38q6 68 35 136.5t82 122.5t130 89 t179 35q78 0 155 -26.5t155 -102.5q-16 -16 -28.5 -31.5t-27.5 -32.5q-16 16 -39.5 36t-56.5 36t-76 27.5t-96 11.5q-72 0 -128 -24.5t-97 -64.5t-66.5 -91.5t-34.5 -106.5q-3 -23 -3 -43q0 -32 8 -57q12 -41 41.5 -70t73.5 -49t100 -41q61 -23 139 -51.5t142 -76.5 q64 -49 102 -121q27 -53 27 -125q0 -27 -3 -58q-12 -90 -57 -164t-111.5 -126t-148.5 -79.5t-170 -27.5q-80 0 -145.5 20.5t-115 51t-83 65.5t-52.5 61z" />
<glyph unicode="T" horiz-adv-x="1132" d="M88 1352l12 82h1133l-12 -82h-523l-192 -1352h-84l190 1352h-524z" />
<glyph unicode="U" horiz-adv-x="1335" d="M154 463l135 971h84l-135 -965q-5 -39 -5 -75q0 -53 11 -98q18 -75 64 -126t116 -77.5t156 -26.5t162.5 26.5t137 77.5t100.5 126t54 173l135 965h86l-135 -971q-16 -117 -66 -207t-124 -150.5t-167.5 -91t-195.5 -30.5q-104 0 -188 30.5t-139.5 91t-79.5 150.5 q-14 52 -13 114q0 44 7 93z" />
<glyph unicode="V" horiz-adv-x="1478" d="M215 1434h86q90 -315 178 -625.5t176 -626.5q4 -14 5.5 -28.5t5.5 -28.5q6 14 13 28.5t13 28.5q178 315 353.5 626t353.5 626h86q-211 -377 -423 -750t-423 -750z" />
<glyph unicode="W" horiz-adv-x="2269" d="M215 1434h86q88 -315 175 -626.5t179 -625.5q4 -14 5.5 -28.5t5.5 -28.5q98 205 219 407.5t233 403.5q-35 127 -70.5 250t-70.5 248h88q86 -315 174 -626.5t180 -625.5q2 -14 4 -28.5t7 -28.5q6 14 12 28.5t14 28.5q178 315 352.5 626t352.5 626h86q-211 -377 -423 -750 t-423 -750l-242 854q-4 14 -6 27.5t-4 28.5q-115 -227 -249 -456.5t-261 -453.5z" />
<glyph unicode="X" horiz-adv-x="1433" d="M88 0q145 186 289 367.5t289 367.5q-88 174 -177.5 349.5t-177.5 349.5h103q154 -297 305 -598q4 -10 8 -18.5t8 -18.5l25 37q117 150 234.5 299t234.5 299h102q-139 -178 -277.5 -354.5t-277.5 -354.5q92 -182 184.5 -362.5t184.5 -362.5h-105l-282 555 q-14 25 -25.5 53.5t-25.5 53.5q-6 -10 -13.5 -19.5t-13.5 -19.5q-123 -156 -244 -310.5t-243 -312.5h-105z" />
<glyph unicode="Y" horiz-adv-x="1306" d="M170 1434h104q86 -193 172 -379.5t172 -378.5q4 -16 9.5 -29.5t9.5 -28.5h2q8 14 14 27.5t15 30.5q141 190 279 377.5t280 380.5h104q-166 -223 -327.5 -445.5t-327.5 -445.5l-76 -543h-102l77 543z" />
<glyph unicode="Z" horiz-adv-x="1433" d="M166 0l10 82q291 319 577.5 635.5t579.5 634.5h-809q-63 0 -96 24q-27 20 -27 62q0 10 2 22l9 45h86l-4 -24q-4 -25 8 -36t47 -11h903l-12 -82q-291 -317 -578 -634t-577 -636h1036l-10 -82h-1145z" />
<glyph unicode="[" horiz-adv-x="692" d="M41 -305l256 1833h358l-12 -84h-270l-234 -1665h271l-11 -84h-358z" />
<glyph unicode="\" horiz-adv-x="708" d="M129 1507h94q88 -389 175 -773t175 -773h-94q-88 389 -175 773t-175 773z" />
<glyph unicode="]" horiz-adv-x="700" d="M29 -305l10 84h270l234 1665h-271l11 84h358l-256 -1833h-356z" />
<glyph unicode="^" horiz-adv-x="962" d="M203 981q74 92 148.5 185.5t148.5 185.5q49 -92 97 -185.5t97 -185.5h-67q-37 61 -73 123.5t-71 124.5q-53 -61 -106 -124t-107 -124h-67z" />
<glyph unicode="_" horiz-adv-x="1228" d="M199 0l10 84h819l-10 -84h-819z" />
<glyph unicode="`" horiz-adv-x="409" d="M-39 1253h86q37 -68 73 -136t73 -136h-68q-41 68 -82 136.5t-82 135.5z" />
<glyph unicode="a" horiz-adv-x="1030" d="M154 385q12 88 54 162t104.5 126t139 81.5t160.5 29.5q59 0 110.5 -17t90.5 -45t64.5 -63.5t33.5 -70.5q6 45 15.5 90t17.5 90h70l-107 -768h-78l13 92q4 23 7 43.5t5 42.5q-18 -35 -52 -69.5t-80 -62.5t-102.5 -44t-119.5 -16q-84 0 -154 31.5t-116 85t-67 125.5 q-13 46 -13 97q0 29 4 60zM240 385q-4 -25 -3 -49q0 -38 9 -74q16 -57 53 -100t91 -67.5t122 -24.5t129 24.5t110.5 67.5t81 100t41.5 123q3 22 3 43q0 42 -11 81q-16 58 -53 101t-91 67.5t-122 24.5t-128 -24.5t-109.5 -67.5t-82 -101t-40.5 -124z" />
<glyph unicode="b" horiz-adv-x="1083" d="M168 0l215 1536h86l-121 -854q-4 -23 -10 -46.5t-10 -45.5q18 35 53 69.5t81 62.5t102.5 45t115.5 17q84 0 153.5 -31.5t116.5 -86.5q46 -54 68 -126q14 -47 15 -97q0 -28 -5 -58q-12 -86 -53 -158.5t-102.5 -126t-139.5 -84t-164 -30.5q-63 0 -115.5 16t-90 44 t-62.5 62.5t-33 69.5l-12 -86l-10 -92h-78zM307 385q-4 -25 -4 -49q1 -39 11 -74q16 -57 52.5 -100t92 -67.5t123.5 -24.5t128 24.5t109 67.5t81 100t42 123q3 22 3 43q0 42 -11 81q-16 58 -53 101t-91.5 67.5t-121.5 24.5q-68 0 -128.5 -24.5t-109.5 -67.5t-82 -101 t-41 -124z" />
<glyph unicode="c" horiz-adv-x="794" d="M127 385q12 90 53 164t102.5 126t139.5 80.5t162 28.5q74 0 136 -23.5t107 -64.5l-31.5 -31.5l-31.5 -31.5q-37 33 -85 51t-106 18q-68 0 -129 -24.5t-109 -67.5t-81 -101t-41 -124q-4 -25 -3 -49q0 -39 10 -74q16 -57 52.5 -100t91 -67.5t121.5 -24.5q59 0 111.5 17 t97.5 50q10 -16 21.5 -31.5t23.5 -31.5q-59 -41 -126.5 -64.5t-139.5 -23.5q-84 0 -152.5 31.5t-115.5 85t-69 125.5q-14 47 -13 98q0 29 4 59z" />
<glyph unicode="d" horiz-adv-x="1073" d="M162 385q12 86 53 158.5t102.5 126t139.5 84t161 30.5q61 0 112.5 -17t90.5 -45t64.5 -62.5t34.5 -69.5q2 23 2 46t2 46l120 854h84l-215 -1536h-75l12 92q2 23 5 43.5t7 42.5q-18 -35 -52 -69.5t-80 -62.5t-102.5 -44t-119.5 -16q-84 0 -153.5 31.5t-115.5 84.5 q-45 54 -67 126q-14 47 -14 98q0 29 4 59zM248 385q-4 -25 -4 -49q0 -38 10 -74q16 -57 53 -100t91.5 -67.5t121.5 -24.5q68 0 129.5 24.5t110.5 67.5t80.5 100t42.5 123q3 22 3 42q0 43 -12 82q-16 58 -53 101t-91 67.5t-122 24.5t-129 -24.5t-109 -67.5t-81 -101t-41 -124 z" />
<glyph unicode="e" horiz-adv-x="923" d="M127 385q12 92 52 166t100.5 126t138.5 79.5t166 27.5q61 0 113.5 -21.5t93 -59t68.5 -90t38 -115.5l-336 -126l-336 -126q25 -78 93.5 -127t166.5 -49q63 0 122 22.5t106 63.5q10 -16 21 -31.5t22 -32.5q-59 -49 -132 -77.5t-151 -28.5q-84 0 -152.5 31.5t-115.5 85 t-69 125.5q-14 47 -13 98q0 29 4 59zM211 326q147 55 292.5 109t291.5 110q-27 70 -85.5 113.5t-136.5 43.5q-66 0 -124 -20t-104 -57t-77.5 -89.5t-44.5 -115.5q-12 -49 -12 -94z" />
<glyph unicode="f" horiz-adv-x="602" d="M141 688l11 84h133l41 289q16 113 61 201t111.5 147t147.5 91t171 36l-12 -82q-70 -2 -135.5 -28.5t-118.5 -78t-90 -123t-49 -161.5l-41 -291h254l-11 -84h-256l-96 -688h-84l94 688h-131z" />
<glyph unicode="g" horiz-adv-x="1060" d="M145 -389q16 16 35 31.5t35 31.5q39 -49 104.5 -73.5t133.5 -24.5q63 0 123.5 25.5t108.5 72.5t82 114t44 146l20 148q6 23 12.5 47.5t10.5 46.5q-20 -37 -55 -70.5t-81 -60.5t-101.5 -43t-116.5 -16q-84 0 -154 31.5t-116 85t-68 125.5q-13 46 -13 95q0 30 5 62 q12 90 53 164t103.5 126t140 80.5t161.5 28.5q59 0 110.5 -17t90.5 -45t64.5 -63.5t33.5 -70.5q6 45 15.5 90t17.5 90h70l-113 -803l-6 -37q-14 -100 -56 -181t-103.5 -138.5t-136.5 -88t-157 -32.5q-86 2 -167.5 32.5t-129.5 90.5zM240 385q-4 -25 -4 -49q0 -39 10 -74 q16 -57 53 -100t91 -67.5t122 -24.5t129 24.5t110.5 67.5t81 100t41.5 123q3 22 3 43q0 42 -11 81q-16 58 -53 101t-91 67.5t-122 24.5t-128 -24.5t-109.5 -67.5t-82 -101t-40.5 -124z" />
<glyph unicode="h" horiz-adv-x="1024" d="M211 0l215 1536h86l-123 -874l-20 -93q57 98 153 154.5t213 60.5q113 0 171 -64q47 -52 47 -129q0 -17 -3 -36l-76 -555h-86l74 532q1 9 1 18q1 55 -31 97q-36 49 -123 53q-63 0 -123 -21.5t-109 -58t-82 -88t-41 -112.5l-57 -420h-86z" />
<glyph unicode="i" horiz-adv-x="382" d="M154 0l106 768h84l-106 -768h-84zM276 1040q4 29 27 48.5t49 19.5t44 -20q14 -16 14 -38v-10q-4 -29 -28 -48t-50 -19t-44 19q-13 14 -14 34q0 7 2 14z" />
<glyph unicode="j" horiz-adv-x="460" d="M41 -307q59 51 99 124.5t55 172.5l110 778h84l-106 -776q-18 -121 -67.5 -211.5t-121.5 -149.5q-12 16 -25.5 30.5t-27.5 31.5zM322 1040q4 29 27.5 48.5t49.5 19.5q25 0 43 -20q14 -15 14 -38q0 -5 -1 -10q-4 -29 -26.5 -48t-49.5 -19t-44 19q-14 15 -14 37q0 5 1 11z " />
<glyph unicode="k" horiz-adv-x="919" d="M158 0l215 1536h86l-162 -1147q125 104 241.5 198.5t239.5 198.5q10 -12 22.5 -25t22.5 -28q-86 -70 -161.5 -134t-159.5 -134q68 -117 135.5 -232.5t138.5 -232.5h-100q-61 102 -122.5 203.5t-123.5 204.5q-37 -31 -74 -63t-73 -60l-39 -285h-86z" />
<glyph unicode="l" horiz-adv-x="382" d="M154 0l215 1536h84l-215 -1536h-84z" />
<glyph unicode="m" horiz-adv-x="1630" d="M211 0l106 768h78l-10 -72q-4 -35 -8 -63.5t-8 -63.5q55 98 152 155.5t214 59.5q103 0 161 -56q56 -54 56 -142v-6q57 92 152.5 147t208.5 57q113 0 170 -64q48 -54 48 -135q0 -14 -1 -30l-78 -555h-84l72 532q1 11 1 22q0 52 -31 93q-38 49 -124 53q-61 0 -120.5 -20.5 t-107.5 -57t-81 -87t-43 -109.5l-60 -426h-86l74 532q1 9 1 18q1 55 -31 97q-36 49 -123 53q-63 0 -123 -21.5t-109 -58t-82 -88t-41 -112.5l-57 -420h-86z" />
<glyph unicode="n" horiz-adv-x="1013" d="M211 0l106 768h78l-10 -72q-4 -35 -8 -63.5t-8 -63.5q55 96 153.5 155.5t212.5 59.5q113 0 171 -64q47 -52 47 -129q0 -17 -3 -36l-76 -555h-86l74 532q1 9 1 18q1 55 -31 97q-36 49 -123 53q-63 0 -123 -21.5t-109 -58t-82 -88t-41 -112.5l-57 -420h-86z" />
<glyph unicode="o" horiz-adv-x="964" d="M127 385q12 92 52 167t101.5 127t139.5 79.5t164 27.5q84 0 153.5 -31.5t117.5 -86.5q47 -54 69 -128q14 -47 15 -97q0 -28 -5 -58q-12 -92 -53 -167t-102.5 -126t-140.5 -78.5t-165 -27.5q-84 0 -152.5 31.5t-115.5 85t-69 125.5q-14 47 -13 98q0 29 4 59zM213 385 q-4 -24 -3 -47q0 -40 10 -76q18 -57 54.5 -100t90 -67.5t118.5 -24.5q66 0 127.5 23.5t110.5 64.5t82 99t43 128q3 22 3 42q1 42 -11 81q-16 57 -53 100t-92.5 68.5t-121.5 25.5q-68 0 -129 -23.5t-109 -65.5t-80 -100t-40 -128z" />
<glyph unicode="p" horiz-adv-x="1075" d="M63 -512l181 1280h73q-6 -47 -12 -92t-10 -92q18 37 53 71.5t82 63.5t103.5 46t115.5 17q84 0 153.5 -31.5t117 -85t68.5 -127.5q13 -46 13 -96q0 -29 -4 -59q-12 -90 -53 -163t-103.5 -126t-141 -81.5t-162.5 -28.5q-63 0 -114.5 16t-89.5 43t-62.5 61.5t-32.5 69.5 q-2 -20 -1 -40.5t-1 -43.5l-86 -602h-87zM276 383q-4 -25 -4 -49q0 -39 10 -75q17 -58 54 -101t91 -67.5t122 -24.5t129 24.5t110.5 67.5t81 101t41.5 124q3 23 3 44q0 43 -11 81q-16 57 -53 99t-91 66.5t-122 24.5t-128 -24.5t-109.5 -66.5t-82 -99t-41.5 -125z" />
<glyph unicode="q" horiz-adv-x="1048" d="M158 383q12 90 53 164t103.5 126t140 80.5t161.5 28.5q59 0 110.5 -17t91.5 -46t65.5 -63.5t34.5 -71.5q6 47 13 92t13 92h74l-180 -1280h-86l86 602q4 23 10 43.5t10 40.5q-18 -37 -52 -70.5t-80 -60.5t-102.5 -43t-119.5 -16q-84 0 -153.5 31.5t-116 86t-67.5 126.5 q-13 47 -13 97q0 28 4 58zM244 383q-4 -25 -4 -50q0 -38 10 -74q16 -58 53 -101t91.5 -67.5t121.5 -24.5q68 0 129.5 24.5t110.5 67.5t81.5 101t43.5 124q3 22 3 43q0 44 -12 82q-16 57 -53 99t-91 66.5t-122 24.5t-129 -24.5t-110.5 -66.5t-82 -99t-40.5 -125z" />
<glyph unicode="r" horiz-adv-x="677" d="M211 0l106 768h78l-10 -72q-4 -35 -8 -63.5t-8 -63.5q31 49 71.5 89t87.5 68t96.5 43t96.5 15l-16 -84q-66 -2 -125.5 -23.5t-106.5 -58t-79 -88t-40 -110.5l-57 -420h-86z" />
<glyph unicode="s" horiz-adv-x="817" d="M172 80q16 16 31.5 30.5t32.5 30.5q29 -35 80 -54t102 -19q18 0 46 7t55.5 24.5t48 44t26.5 65.5q2 13 2 25q0 34 -18 56q-24 28 -62.5 46t-85.5 31.5t-86 36.5q-38 22 -62 59q-16 26 -17 67q0 17 3 37q8 53 34 93t61.5 67t76.5 40t78 13q43 0 103.5 -19.5t97.5 -68.5 l-30.5 -30.5t-29.5 -30.5q-20 29 -62 47t-87 18q-49 0 -98.5 -28.5t-57.5 -98.5q-1 -9 -1 -16q1 -33 21 -55q26 -26 64.5 -43t84.5 -32t84 -40q39 -25 61 -63q17 -28 16 -72q0 -15 -2 -33q-4 -35 -23.5 -75t-53.5 -74.5t-85 -58t-121 -23.5q-61 0 -126.5 22.5t-100.5 73.5z " />
<glyph unicode="t" horiz-adv-x="587" d="M170 682l12 84h178l70 502h86l-70 -502h236l-12 -84h-236l-94 -682h-86l94 682h-178z" />
<glyph unicode="u" horiz-adv-x="1083" d="M240 213l77 555h86l-75 -532q-1 -9 -1 -18q1 -55 33 -97q38 -49 123 -53q61 0 122 21.5t110 58t81.5 88t41.5 112.5l57 420h86l-109 -776h-84l15 114l18 93q-55 -98 -153.5 -156.5t-210.5 -58.5q-113 0 -171 64q-48 53 -48 133q0 16 2 32z" />
<glyph unicode="v" horiz-adv-x="1024" d="M217 768h86q61 -162 126 -328t116 -331q98 166 208.5 330.5t217.5 328.5h86q-133 -205 -266.5 -407.5t-268.5 -407.5q-76 205 -151.5 407.5t-153.5 407.5z" />
<glyph unicode="w" horiz-adv-x="1581" d="M221 768h86q57 -164 117.5 -329t112.5 -330q72 123 149.5 243.5t153.5 243.5l-62 172h86q57 -164 117.5 -329t112.5 -330q98 166 203.5 330.5t209.5 328.5h86q-129 -205 -260 -407.5t-262 -407.5q-49 141 -99 278.5t-100 278.5q-90 -141 -179 -278.5t-179 -278.5 q-72 205 -145.5 407.5t-147.5 407.5z" />
<glyph unicode="x" horiz-adv-x="862" d="M74 0q86 98 170 197.5t170 197.5q-53 94 -109.5 186.5t-111.5 186.5h106q47 -82 96 -163t97 -163q72 82 141 162t139 162h105q-86 -98 -171 -197.5t-171 -197.5q57 -94 111 -186.5t112 -184.5h-107q-49 80 -97 162t-97 162q-70 -80 -138.5 -162t-138.5 -162h-106z" />
<glyph unicode="y" horiz-adv-x="1007" d="M137 -512q82 127 163 253t163 255q-70 193 -139.5 385t-139.5 387h90q18 -53 52 -147.5t70 -196.5t70 -196.5t54 -149.5q35 55 95.5 149.5t125 196.5t124 196.5t93.5 147.5h91q-205 -322 -409 -640t-413 -640h-90z" />
<glyph unicode="z" horiz-adv-x="923" d="M86 0l10 84q88 76 170 150.5t164 149.5t164 149.5t170 152.5h-410q-63 0 -96 24q-25 18 -25 57q0 13 3 28l6 45h86l-4 -25q-2 -25 9 -36t46 -11h514l-12 -84q-88 -76 -170 -150.5t-163 -149.5t-163 -149.5t-170 -150.5h621l-11 -84h-739z" />
<glyph unicode="{" horiz-adv-x="595" d="M53 563l15 94q49 2 84.5 30t59.5 69t37 89t19 89l49 352q12 94 36 143.5t54.5 71t67.5 24.5t78 3h96l-10 -84h-107q-31 0 -53 -11.5t-37.5 -37t-27 -67.5t-19.5 -105l-41 -291q-12 -84 -31.5 -138.5t-44 -90t-51 -56t-51.5 -35.5q20 -14 42 -35.5t35 -58.5t18 -91 t-7 -136l-41 -289q-18 -127 -2.5 -175t78.5 -48h107l-13 -82h-96q-43 0 -80 3t-60.5 28.5t-31.5 84t8 169.5l43 305q6 41 6 89t-12 89t-40 68.5t-77 29.5z" />
<glyph unicode="|" horiz-adv-x="491" d="M61 -475l269 1909h86l-269 -1909h-86z" />
<glyph unicode="}" horiz-adv-x="655" d="M4 -303l12 82h105q31 0 53.5 11t37.5 37t25.5 69t20.5 106l49 336q8 66 28.5 113t45.5 78.5t51.5 51t46.5 31.5q-23 14 -44 35t-34.5 56.5t-18.5 90t7 138.5l41 291q18 127 3 174t-79 47h-106l12 84h96q39 0 76 -2t61.5 -23.5t35 -72t-2.5 -144.5l-43 -307 q-6 -37 -10 -91t5 -104.5t36 -87.5t86 -39l-14 -94q-59 -4 -97 -40t-60.5 -86t-33 -104t-16.5 -91l-43 -303q-12 -96 -36 -145.5t-54.5 -71t-68.5 -23.5t-77 -2h-96z" />
<glyph unicode="~" horiz-adv-x="1001" d="M252 963q16 78 76.5 115.5t120.5 37.5q43 0 74.5 -19.5t60.5 -54.5t51 -46t51 -11q14 0 35.5 4t42 15.5t37 32t24.5 53.5q14 -2 27.5 -2.5t26.5 -2.5q-16 -78 -77 -115.5t-120 -37.5q-43 0 -74.5 19.5t-60.5 54.5t-52.5 46t-52.5 11q-16 0 -36.5 -4t-40 -15.5t-36 -32 t-24.5 -53.5q-14 2 -27.5 2.5t-25.5 2.5z" />
<glyph unicode="&#xa0;" />
<glyph unicode="&#xa1;" horiz-adv-x="409" d="M53 -430l168 1196h86l-168 -1196h-86zM231 993q4 29 27.5 48.5t48.5 19.5t42.5 -19.5t15.5 -48.5q-4 -29 -28 -48t-50 -19q-25 0 -42.5 19.5t-13.5 47.5z" />
<glyph unicode="&#xa2;" horiz-adv-x="788" d="M74 385q10 74 45 141.5t87 119.5t118.5 87t140.5 45l18 119h86l-16 -113q66 -4 123 -26.5t98 -61.5l-31.5 -31.5l-31.5 -31.5q-35 29 -78 46t-92 19l-88 -628q104 6 188 67q10 -16 21.5 -31.5t23.5 -31.5q-111 -82 -244 -86l-18 -127h-86l18 133q-72 10 -128 45t-94 87 t-54.5 118.5t-5.5 140.5zM160 385q-16 -117 43 -201t166 -104l84 608q-55 -8 -105.5 -34.5t-89.5 -67.5t-64.5 -92.5t-33.5 -108.5z" />
<glyph unicode="&#xa3;" horiz-adv-x="1175" d="M-35 0l12 84h89q35 0 57 12.5t37.5 42t27 80.5t21.5 131l37 256h-133l12 84h133l45 334q20 143 131 208.5t285 65.5q68 0 119 -14t87 -39.5t59.5 -60.5t37.5 -76q-18 -10 -35.5 -19.5t-34.5 -19.5q-16 35 -33.5 61.5t-45 45t-67.5 28.5t-99 10q-160 0 -233 -54t-85 -148 l-45 -322h254l-12 -84h-254l-41 -289l-8 -49q-8 -59 -21.5 -107t-48.5 -77h393h51q63 0 106.5 5t70 17.5t41 33t18.5 50.5l16 107h86l-18 -121q-4 -35 -13.5 -66.5t-37 -56t-77.5 -39t-138 -14.5h-746z" />
<glyph unicode="&#xa4;" horiz-adv-x="1024" d="M168 489l80 72q-23 37 -33 82t-2 96q6 47 27.5 91t52.5 79l-55 68l67 59l57 -65q41 29 88.5 45t96.5 16q51 0 93 -17.5t73 -45.5l78 67l51 -61l-74 -64q47 -78 33 -172q-6 -51 -28.5 -95t-57.5 -81l61 -71l-69 -60q-16 16 -32 34.5t-32 35.5q-39 -27 -85 -41.5t-95 -14.5 q-47 0 -88 14.5t-74 39.5l-80 -70zM299 739q-6 -43 5 -82t34.5 -67.5t59.5 -45t79 -16.5t84 16.5t73 45t53.5 67.5t27.5 82t-5.5 81t-35 66.5t-59 45t-78.5 16.5t-83 -16.5t-73 -45t-54.5 -66.5t-27.5 -81z" />
<glyph unicode="&#xa5;" horiz-adv-x="1306" d="M170 1434h104q86 -193 172 -380.5t172 -377.5q4 -16 9.5 -29.5t9.5 -28.5h2q8 14 14 27.5t15 30.5q141 190 279 377.5t280 380.5h104q-150 -205 -299 -406t-299 -405h242l-12 -84h-287l-35 -250h287l-13 -84h-286l-29 -205h-102l28 205h-293l13 84h293l34 250h-292l12 84 h246z" />
<glyph unicode="&#xa6;" horiz-adv-x="440" d="M47 -477l100 717h86l-100 -717h-86zM215 717l100 717h86l-100 -717h-86z" />
<glyph unicode="&#xa7;" horiz-adv-x="1024" d="M272.5 696q-0.5 49 16 97.5t48.5 89.5t77 69q49 29 101 32t99 -13q-23 47 -43 94t-43 96q-25 57 -32 99.5t-1.5 73t19.5 52t37 39.5q31 29 78 52.5t86 44.5q8 -18 15 -37t18 -35q-27 -14 -51.5 -27.5t-49.5 -27.5q-57 -31 -61 -79t39 -145q35 -78 68.5 -154.5 t68.5 -154.5q20 -43 20 -92t-17 -95t-50 -86t-78 -69q-49 -29 -101.5 -33t-97.5 13q20 -47 42 -96.5t44 -96.5q25 -57 32 -99t3 -73t-20.5 -52.5t-36.5 -39.5q-31 -31 -77 -53.5t-85 -42.5q-8 18 -15.5 36.5t-17.5 34.5q27 14 51.5 27.5t51.5 28.5q55 29 57 80t-45 157 q-29 59 -48.5 103.5t-34.5 78t-26.5 60.5t-19.5 51q-20 43 -20.5 92zM360.5 755q-8.5 -40 1.5 -77q10 -55 53.5 -86t102.5 -27q37 2 68.5 18.5t56.5 43t40 58.5t17 67q2 76 -48 118.5t-117 40.5q-47 -4 -83 -26.5t-59.5 -56t-32 -73.5z" />
<glyph unicode="&#xa8;" horiz-adv-x="757" d="M139 1040q4 29 27.5 48.5t50.5 19.5q25 0 43.5 -19.5t13.5 -48.5q-4 -29 -27.5 -48t-47.5 -19q-27 0 -45.5 19t-14.5 48zM479 1040q4 29 26.5 48.5t49.5 19.5t44 -19.5t13 -48.5t-26.5 -48t-48.5 -19q-27 0 -44.5 19t-13.5 48z" />
<glyph unicode="&#xa9;" horiz-adv-x="1624" d="M289 762q16 115 70.5 211t136.5 166.5t183 110.5t212 40t202 -40t152.5 -110.5t89 -166.5t11.5 -211q-16 -113 -69.5 -209t-135.5 -167t-183.5 -110.5t-212.5 -39.5t-201.5 39.5t-153 110.5t-90.5 167t-11 209zM338 760q-14 -102 11.5 -189.5t81.5 -152t138.5 -100 t180.5 -35.5q100 0 192 35.5t166 100t124 151.5t64 190q14 104 -10 192t-80.5 152.5t-138.5 101.5t-182 37q-98 0 -190.5 -37t-166 -101.5t-125 -152.5t-65.5 -192zM500 768q8 70 43 130t86 105.5t115.5 71t132.5 25.5q90 0 161 -45q-6 -8 -12 -16.5t-12 -16.5 q-63 41 -144 41q-59 0 -115.5 -23.5t-101.5 -63.5t-75.5 -94.5t-38.5 -115.5q-8 -59 7 -112.5t49 -93.5t83 -63.5t108 -23.5q41 0 80 11.5t74 29.5l18 -31q-41 -23 -85 -35t-91 -12q-68 0 -125 26.5t-95 72t-55.5 105.5t-6.5 128z" />
<glyph unicode="&#xaa;" horiz-adv-x="1198" d="M197 730q9 63 39 116.5t75.5 91t100.5 58.5t115 21q43 0 80 -12t65.5 -32t46.5 -46t24 -51q5 33 11.5 65t12.5 65h50l-77 -554h-56l9 66q3 17 5.5 32t3.5 30q-13 -25 -37.5 -50t-57.5 -45t-74 -31.5t-86 -11.5q-61 0 -111.5 22.5t-83.5 61.5t-48.5 91t-6.5 113zM259 730 q-7 -48 4.5 -89t38 -72t65.5 -49t88 -18t93 18t80 49t58.5 72t29.5 89q6 47 -5.5 89t-38 73t-65.5 48.5t-88 17.5t-92.5 -17.5t-79 -48.5t-59 -73t-29.5 -89z" />
<glyph unicode="&#xab;" horiz-adv-x="1230" d="M240 489q98 84 197.5 165t197.5 165l-12 -98q-66 -59 -130.5 -115.5t-130.5 -116.5q47 -59 96.5 -116.5t96.5 -116.5l-12 -98zM590 489q98 84 197.5 165t197.5 165l-12 -98q-66 -57 -130.5 -114.5t-129.5 -117.5q47 -59 96 -116.5t96 -116.5l-12 -98z" />
<glyph unicode="&#xac;" horiz-adv-x="1144" d="M209 432l8 68h737l-26 -197h-86l18 129h-651z" />
<glyph unicode="&#xad;" d="M102 346l11 84h376l-10 -84h-377z" />
<glyph unicode="&#xae;" horiz-adv-x="1640" d="M289 762q16 115 70.5 211t136.5 166.5t183 110.5t212 40t202 -40t152.5 -110.5t89 -166.5t11.5 -211q-16 -113 -69.5 -209t-135.5 -167t-183.5 -110.5t-212.5 -39.5t-201.5 39.5t-153 110.5t-90.5 167t-11 209zM338 760q-14 -102 11.5 -189.5t81.5 -152t138.5 -100 t180.5 -35.5q100 0 192 35.5t166 100t124 151.5t64 190q14 104 -10 192t-80.5 152.5t-138.5 101.5t-182 37q-98 0 -190.5 -37t-166 -101.5t-125 -152.5t-65.5 -192zM625 430l96 678h145q31 0 66 -10.5t62.5 -32t44 -55t10.5 -80.5q-10 -68 -54.5 -114t-115.5 -62 q29 -82 54 -163t52 -161h-43q-27 80 -53.5 161t-52.5 161q-8 -2 -16.5 -2h-18.5h-90l-45 -320h-41zM715 788h100q51 0 87 13.5t58.5 35t34 46t15.5 47.5q6 55 -37 97t-117 42h-100z" />
<glyph unicode="&#xaf;" horiz-adv-x="817" d="M170 995l6 62h471l-6 -62h-471z" />
<glyph unicode="&#xb0;" horiz-adv-x="577" d="M102 1145q10 76 68.5 127t136.5 51q72 0 116 -51t34 -127q-10 -74 -68.5 -124t-132.5 -50q-76 0 -120 50t-34 124zM166 1147q-8 -49 21.5 -83t78.5 -34q47 0 86 34t45 83q6 47 -23.5 81t-76.5 34q-49 0 -87 -34t-44 -81z" />
<glyph unicode="&#xb1;" horiz-adv-x="1073" d="M111 250l12 82h737l-12 -82h-737zM182 760l13 84h325l45 325h86l-45 -325h326l-12 -84h-326l-47 -328h-86l47 328h-326z" />
<glyph unicode="&#xb2;" horiz-adv-x="815" d="M84 379q73 63 142 123t123.5 117t90.5 110.5t43 100.5q7 49 -3 82t-29 53.5t-44 29t-48 8.5q-45 0 -76.5 -16t-51.5 -39.5t-30.5 -51t-13.5 -49.5q-10 -67 25 -111q-8 -6 -15 -12t-15 -13q-23 23 -32.5 60t-4.5 76q6 41 23.5 77t45.5 62.5t66.5 42.5t85.5 16q42 0 75 -16 t54 -43t29.5 -64t2.5 -80q-8 -55 -40.5 -109t-79.5 -106.5t-103 -104t-111 -102.5h317l-6 -41h-420z" />
<glyph unicode="&#xb3;" horiz-adv-x="858" d="M89 444q8 7 17.5 15t18.5 16q18 -27 47 -43t66 -16q35 0 68 14t59 37t44.5 53.5t23.5 65.5q5 34 -4.5 64.5t-29.5 54t-49.5 36.5t-64.5 13q-17 0 -33.5 -5.5t-32.5 -15.5q56 67 111 132.5t110 131.5h-249l6 41h324q-53 -62 -106 -123.5t-107 -124.5q40 -3 73.5 -19.5 t56 -43.5t33 -63t4.5 -78q-6 -43 -28.5 -81.5t-55 -67.5t-73.5 -45.5t-84 -16.5q-46 0 -83 18.5t-62 50.5z" />
<glyph unicode="&#xb4;" horiz-adv-x="491" d="M184 981q55 68 111.5 136.5t112.5 135.5h88q-59 -68 -122 -136t-122 -136h-68z" />
<glyph unicode="&#xb5;" horiz-adv-x="1116" d="M127 -412l166 1180h86l-76 -532q-6 -66 32 -115t124 -53q61 0 121.5 21.5t108.5 58t81 88t41 112.5l59 420h86l-108 -776h-86l16 114l19 93q-55 -98 -152.5 -155.5t-214.5 -59.5q-53 0 -92 19.5t-59 53.5l-66 -469h-86z" />
<glyph unicode="&#xb6;" horiz-adv-x="1048" d="M137 1200q10 70 45 131.5t86 106.5t116 71.5t134 26.5h420l-215 -1536h-86l203 1452h-248l-203 -1452h-86l121 866q-70 0 -127 26t-96 71t-56.5 106t-7.5 131z" />
<glyph unicode="&#xb7;" horiz-adv-x="337" d="M106 576q4 29 28 48t50 19q25 0 43.5 -19.5t14.5 -47.5q-4 -29 -28 -48.5t-48 -19.5q-27 0 -45.5 19.5t-14.5 48.5z" />
<glyph unicode="&#xb8;" horiz-adv-x="925" d="M223 -346l62 24q6 -39 34.5 -64.5t75.5 -25.5q57 0 96 39t50 97q6 51 -14.5 78.5t-47 48t-49 42t-16.5 60.5l6 47h59l-2 -12q-4 -29 2 -46.5t16.5 -29.5t25 -20.5t26.5 -16.5q41 -31 54 -71t7 -76q-14 -98 -73.5 -152.5t-143.5 -54.5q-59 0 -106 32.5t-62 100.5z" />
<glyph unicode="&#xb9;" horiz-adv-x="530" d="M115 952l5 38h129l-86 -612h-39l80 574h-89z" />
<glyph unicode="&#xba;" horiz-adv-x="960" d="M188 730q8 66 37 120t73.5 91.5t100.5 57.5t118 20q61 0 111 -23t84.5 -62t50 -92t7.5 -112q-9 -67 -38.5 -121t-74 -90.5t-101.5 -56.5t-119 -20q-60 0 -109.5 22.5t-83.5 61.5t-49.5 91t-6.5 113zM250 730q-8 -48 5 -89t39 -72t64.5 -49t85.5 -18q48 0 92.5 17t79.5 47 t59 71.5t31 92.5q6 47 -6 88.5t-38.5 72.5t-66.5 49t-87 18q-49 0 -93 -17t-78.5 -47t-58 -72t-28.5 -92z" />
<glyph unicode="&#xbb;" horiz-adv-x="1230" d="M193 158l12 98q66 59 131 116.5t131 116.5q-49 59 -98.5 117t-96.5 115l13 98q78 -84 152.5 -165t152.5 -165zM543 158l12 98q66 59 131.5 116.5t130.5 116.5q-49 59 -98 116t-96 116l12 98q78 -84 152.5 -165t152.5 -165z" />
<glyph unicode="&#xbc;" horiz-adv-x="1982" d="M261 1225l9 59h198l-131 -944h-61l123 885h-138zM463 -39q199 389 393.5 772.5t393.5 772.5h86q-199 -389 -393.5 -772.5t-393.5 -772.5h-86zM746 279q165 182 328.5 362.5t330.5 362.5l-93 -662h147l-9 -63h-148l-39 -279h-64l39 279h-492zM884 342h364l65 474 q-108 -119 -214.5 -237.5t-214.5 -236.5z" />
<glyph unicode="&#xbd;" horiz-adv-x="2189" d="M247 1225l9 60h199l-132 -945h-61l123 885h-138zM463 -39q199 389 393.5 772.5t393.5 772.5h86q-199 -389 -393.5 -772.5t-393.5 -772.5h-86zM785 0q104 90 203 176.5t177 168t129.5 157.5t61.5 144q10 71 -4 118.5t-41.5 76.5t-63.5 41.5t-67 12.5q-66 0 -110.5 -23.5 t-73.5 -56.5t-43.5 -72.5t-19.5 -71.5q-14 -97 35 -159q-11 -9 -20.5 -17.5t-21.5 -18.5q-33 33 -47 85.5t-7 109.5q9 58 34.5 109.5t65.5 90t95 61t122 22.5q61 0 108 -22.5t76.5 -61.5t42 -92t3.5 -114q-12 -79 -58 -156.5t-113 -152.5t-147.5 -149t-158.5 -147h453 l-8 -59h-602z" />
<glyph unicode="&#xbe;" horiz-adv-x="2613" d="M202 421q13 12 28 24t28 25q28 -41 73.5 -66t104.5 -25q56 0 108 21t93 57.5t69.5 84.5t35.5 102q8 54 -6.5 102t-46 84.5t-77.5 57.5t-102 21q-27 0 -52.5 -9t-51.5 -25q89 105 175 207.5t173 206.5h-392l9 65h511q-84 -98 -167 -194.5t-169 -194.5q64 -5 116.5 -30.5 t88 -68.5t52 -99t6.5 -123q-9 -68 -44.5 -128t-87 -105.5t-115.5 -71t-132 -25.5q-73 0 -130.5 29t-97.5 78zM821 -39q199 389 393.5 773t393.5 773h86q-199 -389 -393.5 -773t-393.5 -773h-86zM1049 279q166 182 329.5 362.5t330.5 362.5l-93 -662h147l-9 -63h-148 l-39 -279h-64l39 279h-493zM1187 342h365l65 474q-108 -119 -214.5 -237.5t-215.5 -236.5z" />
<glyph unicode="&#xbf;" horiz-adv-x="874" d="M25 4q16 111 81.5 196t170.5 150q39 27 74.5 47.5t65.5 46t52.5 64.5t30.5 100l22 160h86l-28 -199q-8 -63 -37 -103t-69 -70.5t-90 -58.5t-105 -69q-76 -55 -116 -121.5t-50 -142.5q-8 -68 7 -125t51 -100t90 -66.5t122 -23.5q119 0 209 61t139 170q16 -8 35.5 -14 t36.5 -12q-25 -53 -66 -104.5t-95 -92.5t-121.5 -66.5t-149.5 -25.5q-84 0 -153.5 31.5t-116 86t-68 127t-8.5 154.5zM533 1006q4 29 27 48t48 19t43.5 -19.5t14.5 -47.5q-4 -29 -28 -48.5t-48 -19.5q-25 0 -43.5 19.5t-13.5 48.5z" />
<glyph unicode="&#xc0;" horiz-adv-x="1515" d="M16 0q211 377 423 749.5t423 749.5l424 -1499h-86q-43 154 -86 307.5t-88 306.5h-575q-86 -154 -173.5 -307t-173.5 -307h-88zM498 696h503q-37 141 -75.5 278.5t-79.5 276.5q-2 14 -4 28.5t-6 29.5q-4 -10 -13.5 -28.5t-13.5 -29.5q-78 -145 -154.5 -278t-156.5 -277z M668 1808h86q37 -68 73 -136t73 -136h-68q-41 68 -82 136.5t-82 135.5z" />
<glyph unicode="&#xc1;" horiz-adv-x="1515" d="M16 0q211 377 423 749.5t423 749.5l424 -1499h-86q-43 154 -86 307.5t-88 306.5h-575q-86 -154 -173.5 -307t-173.5 -307h-88zM498 696h503q-37 141 -75.5 278.5t-79.5 276.5q-2 14 -4 28.5t-6 29.5q-4 -10 -13.5 -28.5t-13.5 -29.5q-78 -145 -154.5 -278t-156.5 -277z M829 1536q55 68 111.5 136.5t112.5 135.5h88q-59 -68 -122 -136t-122 -136h-68z" />
<glyph unicode="&#xc2;" horiz-adv-x="1515" d="M16 0q211 377 423 749.5t423 749.5l424 -1499h-86q-43 154 -86 307.5t-88 306.5h-575q-86 -154 -173.5 -307t-173.5 -307h-88zM498 696h503q-37 141 -75.5 278.5t-79.5 276.5q-2 14 -4 28.5t-6 29.5q-4 -10 -13.5 -28.5t-13.5 -29.5q-78 -145 -154.5 -278t-156.5 -277z M621 1536q74 92 148.5 185.5t148.5 185.5q49 -92 97 -185.5t97 -185.5h-67q-37 61 -73 123.5t-71 124.5q-53 -61 -106 -124t-107 -124h-67z" />
<glyph unicode="&#xc3;" horiz-adv-x="1515" d="M16 0q211 377 423 749.5t423 749.5l424 -1499h-86q-43 154 -86 307.5t-88 306.5h-575q-86 -154 -173.5 -307t-173.5 -307h-88zM498 696h503q-37 141 -75.5 278.5t-79.5 276.5q-2 14 -4 28.5t-6 29.5q-4 -10 -13.5 -28.5t-13.5 -29.5q-78 -145 -154.5 -278t-156.5 -277z M567 1565q16 78 76.5 115.5t120.5 37.5q43 0 74.5 -19.5t60.5 -54.5t51 -46t51 -11q14 0 35.5 4t42 15.5t37 32t24.5 53.5q14 -2 27.5 -2.5t26.5 -2.5q-16 -78 -77 -115.5t-120 -37.5q-43 0 -74.5 19.5t-60.5 54.5t-52.5 46t-52.5 11q-16 0 -36.5 -4t-40 -15.5t-36 -32 t-24.5 -53.5q-14 2 -27.5 2.5t-25.5 2.5z" />
<glyph unicode="&#xc4;" horiz-adv-x="1515" d="M16 0q211 377 423 749.5t423 749.5l424 -1499h-86q-43 154 -86 307.5t-88 306.5h-575q-86 -154 -173.5 -307t-173.5 -307h-88zM498 696h503q-37 141 -75.5 278.5t-79.5 276.5q-2 14 -4 28.5t-6 29.5q-4 -10 -13.5 -28.5t-13.5 -29.5q-78 -145 -154.5 -278t-156.5 -277z M647 1634q4 29 27.5 48.5t50.5 19.5q25 0 43.5 -19.5t13.5 -48.5q-4 -29 -27.5 -48t-47.5 -19q-27 0 -45.5 19t-14.5 48zM987 1634q4 29 26.5 48.5t49.5 19.5t44 -19.5t13 -48.5t-26.5 -48t-48.5 -19q-27 0 -44.5 19t-13.5 48z" />
<glyph unicode="&#xc5;" horiz-adv-x="1515" d="M16 0q211 377 423 749.5t423 749.5l424 -1499h-86q-43 154 -86 307.5t-88 306.5h-575q-86 -154 -173.5 -307t-173.5 -307h-88zM498 696h503q-37 141 -75.5 278.5t-79.5 276.5q-2 14 -4 28.5t-6 29.5q-4 -10 -13.5 -28.5t-13.5 -29.5q-78 -145 -154.5 -278t-156.5 -277z M752 1712q10 61 58 104.5t112 43.5q61 0 99 -43t30 -105q-10 -63 -59.5 -106t-112.5 -43q-61 0 -99 43t-28 106zM813 1710q-4 -35 18.5 -60.5t57.5 -25.5t64.5 25.5t33.5 60.5t-18.5 61.5t-57.5 26.5t-64.5 -26.5t-33.5 -61.5z" />
<glyph unicode="&#xc6;" horiz-adv-x="1622" d="M20 0q205 360 405 716.5t404 717.5h684l-10 -82h-588l-84 -588h508l-12 -82h-508l-84 -600h617l-13 -82h-700l84 604h-274q-86 -152 -171 -302t-172 -302h-86zM496 686h239l82 582q-72 -147 -157 -292t-164 -290z" />
<glyph unicode="&#xc7;" horiz-adv-x="1372" d="M158 715q20 152 97 286t190.5 233t255 157.5t292.5 58.5q104 0 193.5 -26.5t167.5 -75.5q-16 -16 -29.5 -35t-30.5 -35q-66 43 -144.5 66.5t-168.5 23.5q-133 0 -258 -52t-225.5 -141.5t-169 -208t-86.5 -253.5q-18 -133 15.5 -251t109 -206t185.5 -139t243 -51 q90 0 176 23.5t164 66.5l39 -70q-86 -47 -181.5 -73.5t-195.5 -28.5q-4 -53 21.5 -73t49.5 -36q41 -31 53.5 -71t8.5 -76q-14 -98 -74.5 -152.5t-144.5 -54.5q-59 0 -105.5 32.5t-60.5 100.5q16 6 30.5 12t28.5 12q6 -39 35 -64.5t76 -25.5q59 0 98 39t47 97 q8 51 -12.5 78.5t-47 48t-49 42t-16.5 60.5l4 33q-141 8 -257.5 68.5t-195.5 158.5t-114 227t-14 275z" />
<glyph unicode="&#xc8;" horiz-adv-x="1230" d="M72 0l202 1434h850l-12 -82h-764l-84 -588h686l-12 -82h-686l-84 -600h795l-13 -82h-878zM498 1808h86q37 -68 73 -136t73 -136h-68q-41 68 -82 136.5t-82 135.5z" />
<glyph unicode="&#xc9;" horiz-adv-x="1230" d="M72 0l202 1434h850l-12 -82h-764l-84 -588h686l-12 -82h-686l-84 -600h795l-13 -82h-878zM639 1536q55 68 111.5 136.5t112.5 135.5h88q-59 -68 -122 -136t-122 -136h-68z" />
<glyph unicode="&#xca;" horiz-adv-x="1230" d="M72 0l202 1434h850l-12 -82h-764l-84 -588h686l-12 -82h-686l-84 -600h795l-13 -82h-878zM498 1536q74 92 148.5 185.5t148.5 185.5q49 -92 97 -185.5t97 -185.5h-67q-37 61 -73 123.5t-71 124.5q-53 -61 -106 -124t-107 -124h-67z" />
<glyph unicode="&#xcb;" horiz-adv-x="1230" d="M72 0l202 1434h850l-12 -82h-764l-84 -588h686l-12 -82h-686l-84 -600h795l-13 -82h-878zM497 1634q4 29 27.5 48.5t50.5 19.5q25 0 43.5 -19.5t13.5 -48.5q-4 -29 -27.5 -48t-47.5 -19q-27 0 -45.5 19t-14.5 48zM837 1634q4 29 26.5 48.5t49.5 19.5t44 -19.5t13 -48.5 t-26.5 -48t-48.5 -19q-27 0 -44.5 19t-13.5 48z" />
<glyph unicode="&#xcc;" horiz-adv-x="483" d="M111 0l202 1434h84l-202 -1434h-84zM154 1808h86q37 -68 73 -136t73 -136h-68q-41 68 -82 136.5t-82 135.5z" />
<glyph unicode="&#xcd;" horiz-adv-x="483" d="M111 0l202 1434h84l-202 -1434h-84zM319 1536q55 68 111.5 136.5t112.5 135.5h88q-59 -68 -122 -136t-122 -136h-68z" />
<glyph unicode="&#xce;" horiz-adv-x="524" d="M111 0l202 1434h84l-202 -1434h-84zM131 1536q74 92 148.5 185.5t148.5 185.5q49 -92 97 -185.5t97 -185.5h-67q-37 61 -73 123.5t-71 124.5q-53 -61 -106 -124t-107 -124h-67z" />
<glyph unicode="&#xcf;" horiz-adv-x="483" d="M111 0l202 1434h84l-202 -1434h-84zM123 1634q4 29 27.5 48.5t50.5 19.5q25 0 43.5 -19.5t13.5 -48.5q-4 -29 -27.5 -48t-47.5 -19q-27 0 -45.5 19t-14.5 48zM463 1634q4 29 26.5 48.5t49.5 19.5t44 -19.5t13 -48.5t-26.5 -48t-48.5 -19q-27 0 -44.5 19t-13.5 48z" />
<glyph unicode="&#xd0;" horiz-adv-x="1323" d="M39 678l12 84h109l96 672h293q154 0 283 -50.5t219 -143.5t131 -226t18 -297q-18 -129 -77.5 -257t-171 -230.5t-278.5 -166t-401 -63.5h-219l97 678h-111zM150 82h184q152 0 285 43t236 125t172 199.5t89 267.5q20 145 -14.5 263t-114.5 201t-199.5 127t-273.5 44h-184 l-84 -590h424l-13 -84h-424z" />
<glyph unicode="&#xd1;" horiz-adv-x="1665" d="M102 0l211 1499q240 -334 474.5 -660.5t474.5 -658.5q8 -14 16 -26.5t16 -26.5v32.5t2 33.5l174 1241h86l-210 -1500q-240 330 -475.5 654.5t-475.5 654.5q-6 14 -14 26.5t-16 26.5q-2 -16 -2.5 -32.5t-2.5 -32.5l-172 -1231h-86zM666 1563q16 78 76.5 115.5t120.5 37.5 q43 0 74.5 -19.5t60.5 -54.5t51 -46t51 -11q14 0 35.5 4t42 15.5t37 32t24.5 53.5q14 -2 27.5 -2.5t26.5 -2.5q-16 -78 -77 -115.5t-120 -37.5q-43 0 -74.5 19.5t-60.5 54.5t-52.5 46t-52.5 11q-16 0 -36.5 -4t-40 -15.5t-36 -32t-24.5 -53.5q-14 2 -27.5 2.5t-25.5 2.5z " />
<glyph unicode="&#xd2;" horiz-adv-x="1718" d="M125 715q20 152 97 286t190.5 233t255 157.5t293.5 58.5t276.5 -58.5t210.5 -157.5t125 -233.5t18 -285.5q-20 -152 -97 -285t-190.5 -232.5t-256 -156.5t-293.5 -57q-152 0 -277 57t-210 156.5t-123.5 232.5t-18.5 285zM211 713q-18 -135 15.5 -253t108.5 -205 t184.5 -138t242.5 -51q135 0 261 51t227.5 139t169 206t85.5 253t-15.5 253.5t-109 208t-186.5 140.5t-244 51t-258 -52t-225 -141.5t-169 -208t-87 -253.5zM758 1808h86q37 -68 73 -136t73 -136h-68q-41 68 -82 136.5t-82 135.5z" />
<glyph unicode="&#xd3;" horiz-adv-x="1720" d="M125 715q20 152 97 286t190.5 233t255 157.5t293.5 58.5t276.5 -58.5t210.5 -157.5t125 -233.5t18 -285.5q-20 -152 -97 -285t-190.5 -232.5t-256 -156.5t-293.5 -57q-152 0 -277 57t-210 156.5t-123.5 232.5t-18.5 285zM211 713q-18 -135 15.5 -253t108.5 -205 t184.5 -138t242.5 -51q135 0 261 51t227.5 139t169 206t85.5 253t-15.5 253.5t-109 208t-186.5 140.5t-244 51t-258 -52t-225 -141.5t-169 -208t-87 -253.5zM948 1536q55 68 111.5 136.5t112.5 135.5h88q-59 -68 -122 -136t-122 -136h-68z" />
<glyph unicode="&#xd4;" horiz-adv-x="1718" d="M125 715q20 152 97 286t190.5 233t255 157.5t293.5 58.5t276.5 -58.5t210.5 -157.5t125 -233.5t18 -285.5q-20 -152 -97 -285t-190.5 -232.5t-256 -156.5t-293.5 -57q-152 0 -277 57t-210 156.5t-123.5 232.5t-18.5 285zM211 713q-18 -135 15.5 -253t108.5 -205 t184.5 -138t242.5 -51q135 0 261 51t227.5 139t169 206t85.5 253t-15.5 253.5t-109 208t-186.5 140.5t-244 51t-258 -52t-225 -141.5t-169 -208t-87 -253.5zM733 1536q74 92 148.5 185.5t148.5 185.5q49 -92 97 -185.5t97 -185.5h-67q-37 61 -73 123.5t-71 124.5 q-53 -61 -106 -124t-107 -124h-67z" />
<glyph unicode="&#xd5;" horiz-adv-x="1718" d="M125 715q20 152 97 286t190.5 233t255 157.5t293.5 58.5t276.5 -58.5t210.5 -157.5t125 -233.5t18 -285.5q-20 -152 -97 -285t-190.5 -232.5t-256 -156.5t-293.5 -57q-152 0 -277 57t-210 156.5t-123.5 232.5t-18.5 285zM211 713q-18 -135 15.5 -253t108.5 -205 t184.5 -138t242.5 -51q135 0 261 51t227.5 139t169 206t85.5 253t-15.5 253.5t-109 208t-186.5 140.5t-244 51t-258 -52t-225 -141.5t-169 -208t-87 -253.5zM653 1633q16 78 76.5 115.5t120.5 37.5q43 0 74.5 -19.5t60.5 -54.5t51 -46t51 -11q14 0 35.5 4t42 15.5t37 32 t24.5 53.5q14 -2 27.5 -2.5t26.5 -2.5q-16 -78 -77 -115.5t-120 -37.5q-43 0 -74.5 19.5t-60.5 54.5t-52.5 46t-52.5 11q-16 0 -36.5 -4t-40 -15.5t-36 -32t-24.5 -53.5q-14 2 -27.5 2.5t-25.5 2.5z" />
<glyph unicode="&#xd6;" horiz-adv-x="1718" d="M125 715q20 152 97 286t190.5 233t255 157.5t293.5 58.5t276.5 -58.5t210.5 -157.5t125 -233.5t18 -285.5q-20 -152 -97 -285t-190.5 -232.5t-256 -156.5t-293.5 -57q-152 0 -277 57t-210 156.5t-123.5 232.5t-18.5 285zM211 713q-18 -135 15.5 -253t108.5 -205 t184.5 -138t242.5 -51q135 0 261 51t227.5 139t169 206t85.5 253t-15.5 253.5t-109 208t-186.5 140.5t-244 51t-258 -52t-225 -141.5t-169 -208t-87 -253.5zM727 1634q4 29 27.5 48.5t50.5 19.5q25 0 43.5 -19.5t13.5 -48.5q-4 -29 -27.5 -48t-47.5 -19q-27 0 -45.5 19 t-14.5 48zM1067 1634q4 29 26.5 48.5t49.5 19.5t44 -19.5t13 -48.5t-26.5 -48t-48.5 -19q-27 0 -44.5 19t-13.5 48z" />
<glyph unicode="&#xd7;" horiz-adv-x="1024" d="M217 59q66 59 131.5 115.5t130.5 116.5l-196 229l67 62l199 -230q66 59 131 114.5t131 115.5q14 -14 26.5 -29.5t24.5 -30.5q-66 -57 -131 -114.5t-131 -114.5q49 -59 98.5 -116.5t100.5 -115.5l-70 -61q-49 59 -99 115.5t-102 115.5q-66 -57 -130 -114.5t-130 -116.5 q-14 16 -26.5 30.5t-24.5 28.5z" />
<glyph unicode="&#xd8;" horiz-adv-x="1720" d="M117 29q41 41 78.5 79.5t78.5 79.5q-90 100 -131 235.5t-18 291.5q20 152 97 286t190.5 233t255 157.5t293.5 58.5q123 0 227 -38t188 -107q37 39 75 76.5t75 76.5q12 -12 25.5 -24.5t25.5 -26.5q-37 -39 -74 -76l-76 -76q98 -100 142.5 -240.5t21.5 -299.5 q-20 -152 -97 -285t-190.5 -232.5t-256 -156.5t-293.5 -57q-129 0 -236.5 41t-189.5 112q-41 -41 -80 -81t-80 -81q-12 14 -25.5 26.5t-25.5 27.5zM211 713q-20 -135 14.5 -254t112.5 -207q244 250 486.5 495.5t486.5 493.5q-72 59 -164 93t-199 34q-133 0 -258 -52 t-224 -141.5t-168 -208t-87 -253.5zM389 201q72 -66 166 -100.5t207 -34.5q133 0 259 51t227.5 139t170 206t86.5 253q20 141 -18.5 263t-124.5 212q-246 -248 -487.5 -494.5t-485.5 -494.5z" />
<glyph unicode="&#xd9;" horiz-adv-x="1335" d="M156 463l135 971h84l-135 -965q-12 -98 6 -173t64 -126t116 -77.5t156 -26.5t162.5 26.5t137 77.5t100.5 126t54 173l135 965h86l-135 -971q-16 -117 -66 -207t-124 -150.5t-167.5 -91t-195.5 -30.5q-104 0 -188 30.5t-139.5 91t-79 150.5t-6.5 207zM561 1808h86 q37 -68 73 -136t73 -136h-68q-41 68 -82 136.5t-82 135.5z" />
<glyph unicode="&#xda;" horiz-adv-x="1335" d="M156 463l135 971h84l-135 -965q-12 -98 6 -173t64 -126t116 -77.5t156 -26.5t162.5 26.5t137 77.5t100.5 126t54 173l135 965h86l-135 -971q-16 -117 -66 -207t-124 -150.5t-167.5 -91t-195.5 -30.5q-104 0 -188 30.5t-139.5 91t-79 150.5t-6.5 207zM739 1536 q55 68 111.5 136.5t112.5 135.5h88q-59 -68 -122 -136t-122 -136h-68z" />
<glyph unicode="&#xdb;" horiz-adv-x="1335" d="M156 463l135 971h84l-135 -965q-12 -98 6 -173t64 -126t116 -77.5t156 -26.5t162.5 26.5t137 77.5t100.5 126t54 173l135 965h86l-135 -971q-16 -117 -66 -207t-124 -150.5t-167.5 -91t-195.5 -30.5q-104 0 -188 30.5t-139.5 91t-79 150.5t-6.5 207zM545 1538 q74 92 148.5 185.5t148.5 185.5q49 -92 97 -185.5t97 -185.5h-67q-37 61 -73 123.5t-71 124.5q-53 -61 -106 -124t-107 -124h-67z" />
<glyph unicode="&#xdc;" horiz-adv-x="1335" d="M156 463l135 971h84l-135 -965q-12 -98 6 -173t64 -126t116 -77.5t156 -26.5t162.5 26.5t137 77.5t100.5 126t54 173l135 965h86l-135 -971q-16 -117 -66 -207t-124 -150.5t-167.5 -91t-195.5 -30.5q-104 0 -188 30.5t-139.5 91t-79 150.5t-6.5 207zM573 1634 q4 29 27.5 48.5t50.5 19.5q25 0 43.5 -19.5t13.5 -48.5q-4 -29 -27.5 -48t-47.5 -19q-27 0 -45.5 19t-14.5 48zM913 1634q4 29 26.5 48.5t49.5 19.5t44 -19.5t13 -48.5t-26.5 -48t-48.5 -19q-27 0 -44.5 19t-13.5 48z" />
<glyph unicode="&#xdd;" horiz-adv-x="1306" d="M170 1434h104q86 -193 172 -379.5t172 -378.5q4 -16 9.5 -29.5t9.5 -28.5h2q8 14 14 27.5t15 30.5q141 190 279 377.5t280 380.5h104q-166 -223 -327.5 -445.5t-327.5 -445.5l-76 -543h-102l77 543zM725 1536q55 68 111.5 136.5t112.5 135.5h88q-59 -68 -122 -136 t-122 -136h-68z" />
<glyph unicode="&#xde;" horiz-adv-x="1026" d="M102 0l203 1434h86l-47 -338h221q63 0 137 -20.5t133.5 -65.5t94.5 -117t20 -172q-23 -176 -149.5 -280.5t-337.5 -104.5h-227l-48 -336h-86zM248 420h211q106 0 181 28.5t123 73.5t72.5 97.5t30.5 101.5q8 57 -11 110.5t-62 94.5t-106.5 64.5t-139.5 23.5h-215z" />
<glyph unicode="&#xdf;" horiz-adv-x="1173" d="M53 729l13 82h131l8 59q16 113 61 201t107.5 148.5t140.5 93.5t158 35q63 -2 114.5 -27t87 -67t51 -97t7.5 -119q-10 -78 -61.5 -142.5t-122.5 -98.5q57 -20 103 -58.5t75.5 -88.5t41 -111.5t3.5 -128.5q-12 -88 -58.5 -166t-113 -135.5t-149.5 -91t-171 -33.5 q-108 0 -194 51q12 18 23 36.5t24 37.5q63 -43 157 -43q72 0 139.5 27.5t121 74.5t89 109.5t46.5 132.5q10 70 -8.5 131t-59.5 107t-100.5 73t-130.5 27q2 10 3 20t3 23l4 43q45 0 88 14t77 40.5t56.5 63.5t28.5 82t-4.5 87t-35 74t-61 50.5t-83.5 18.5q-66 -2 -127.5 -30 t-110.5 -78t-85 -122.5t-48 -163.5l-123 -870h-84l102 729h-133z" />
<glyph unicode="&#xe0;" horiz-adv-x="1128" d="M154 385q12 88 54 162t104.5 126t139 81.5t160.5 29.5q59 0 110.5 -17t90.5 -45t64.5 -63.5t33.5 -70.5q6 45 15.5 90t17.5 90h70l-107 -768h-78l13 92q4 23 7 43.5t5 42.5q-18 -35 -52 -69.5t-80 -62.5t-102.5 -44t-119.5 -16q-84 0 -154 31.5t-116 85t-67 126t-9 156.5 zM240 385q-10 -66 6 -123t53 -100t91 -67.5t122 -24.5t129 24.5t110.5 67.5t81 100t41.5 123q8 66 -8 124t-53 101t-91 67.5t-122 24.5t-128 -24.5t-109.5 -67.5t-82 -101t-40.5 -124zM434 1253h86q37 -68 73 -136t73 -136h-68q-41 68 -82 136.5t-82 135.5z" />
<glyph unicode="&#xe1;" horiz-adv-x="1128" d="M154 385q12 88 54 162t104.5 126t139 81.5t160.5 29.5q59 0 110.5 -17t90.5 -45t64.5 -63.5t33.5 -70.5q6 45 15.5 90t17.5 90h70l-107 -768h-78l13 92q4 23 7 43.5t5 42.5q-18 -35 -52 -69.5t-80 -62.5t-102.5 -44t-119.5 -16q-84 0 -154 31.5t-116 85t-67 126t-9 156.5 zM240 385q-10 -66 6 -123t53 -100t91 -67.5t122 -24.5t129 24.5t110.5 67.5t81 100t41.5 123q8 66 -8 124t-53 101t-91 67.5t-122 24.5t-128 -24.5t-109.5 -67.5t-82 -101t-40.5 -124zM612 981q55 68 111.5 136.5t112.5 135.5h88q-59 -68 -122 -136t-122 -136h-68z" />
<glyph unicode="&#xe2;" horiz-adv-x="1128" d="M154 385q12 88 54 162t104.5 126t139 81.5t160.5 29.5q59 0 110.5 -17t90.5 -45t64.5 -63.5t33.5 -70.5q6 45 15.5 90t17.5 90h70l-107 -768h-78l13 92q4 23 7 43.5t5 42.5q-18 -35 -52 -69.5t-80 -62.5t-102.5 -44t-119.5 -16q-84 0 -154 31.5t-116 85t-67 126t-9 156.5 zM240 385q-10 -66 6 -123t53 -100t91 -67.5t122 -24.5t129 24.5t110.5 67.5t81 100t41.5 123q8 66 -8 124t-53 101t-91 67.5t-122 24.5t-128 -24.5t-109.5 -67.5t-82 -101t-40.5 -124zM420 981q74 92 148.5 185.5t148.5 185.5q49 -92 97 -185.5t97 -185.5h-67 q-37 61 -73 123.5t-71 124.5q-53 -61 -106 -124t-107 -124h-67z" />
<glyph unicode="&#xe3;" horiz-adv-x="1128" d="M154 385q12 88 54 162t104.5 126t139 81.5t160.5 29.5q59 0 110.5 -17t90.5 -45t64.5 -63.5t33.5 -70.5q6 45 15.5 90t17.5 90h70l-107 -768h-78l13 92q4 23 7 43.5t5 42.5q-18 -35 -52 -69.5t-80 -62.5t-102.5 -44t-119.5 -16q-84 0 -154 31.5t-116 85t-67 126t-9 156.5 zM240 385q-10 -66 6 -123t53 -100t91 -67.5t122 -24.5t129 24.5t110.5 67.5t81 100t41.5 123q8 66 -8 124t-53 101t-91 67.5t-122 24.5t-128 -24.5t-109.5 -67.5t-82 -101t-40.5 -124zM354 963q16 78 76.5 115.5t120.5 37.5q43 0 74.5 -19.5t60.5 -54.5t51 -46t51 -11 q14 0 35.5 4t42 15.5t37 32t24.5 53.5q14 -2 27.5 -2.5t26.5 -2.5q-16 -78 -77 -115.5t-120 -37.5q-43 0 -74.5 19.5t-60.5 54.5t-52.5 46t-52.5 11q-16 0 -36.5 -4t-40 -15.5t-36 -32t-24.5 -53.5q-14 2 -27.5 2.5t-25.5 2.5z" />
<glyph unicode="&#xe4;" horiz-adv-x="1128" d="M154 385q12 88 54 162t104.5 126t139 81.5t160.5 29.5q59 0 110.5 -17t90.5 -45t64.5 -63.5t33.5 -70.5q6 45 15.5 90t17.5 90h70l-107 -768h-78l13 92q4 23 7 43.5t5 42.5q-18 -35 -52 -69.5t-80 -62.5t-102.5 -44t-119.5 -16q-84 0 -154 31.5t-116 85t-67 126t-9 156.5 zM240 385q-10 -66 6 -123t53 -100t91 -67.5t122 -24.5t129 24.5t110.5 67.5t81 100t41.5 123q8 66 -8 124t-53 101t-91 67.5t-122 24.5t-128 -24.5t-109.5 -67.5t-82 -101t-40.5 -124zM428 1040q4 29 27.5 48.5t50.5 19.5q25 0 43.5 -19.5t13.5 -48.5q-4 -29 -27.5 -48 t-47.5 -19q-27 0 -45.5 19t-14.5 48zM768 1040q4 29 26.5 48.5t49.5 19.5t44 -19.5t13 -48.5t-26.5 -48t-48.5 -19q-27 0 -44.5 19t-13.5 48z" />
<glyph unicode="&#xe5;" horiz-adv-x="1128" d="M154 385q12 88 54 162t104.5 126t139 81.5t160.5 29.5q59 0 110.5 -17t90.5 -45t64.5 -63.5t33.5 -70.5q6 45 15.5 90t17.5 90h70l-107 -768h-78l13 92q4 23 7 43.5t5 42.5q-18 -35 -52 -69.5t-80 -62.5t-102.5 -44t-119.5 -16q-84 0 -154 31.5t-116 85t-67 126t-9 156.5 zM240 385q-10 -66 6 -123t53 -100t91 -67.5t122 -24.5t129 24.5t110.5 67.5t81 100t41.5 123q8 66 -8 124t-53 101t-91 67.5t-122 24.5t-128 -24.5t-109.5 -67.5t-82 -101t-40.5 -124zM516 1106q10 61 59.5 105t112.5 44q61 0 98 -44t29 -105q-10 -61 -58 -105.5t-112 -44.5 q-61 0 -99 44.5t-30 105.5zM580 1106q-4 -35 18.5 -61.5t56.5 -26.5q35 0 65 26.5t34 61.5t-18.5 60.5t-57.5 25.5t-64.5 -25.5t-33.5 -60.5z" />
<glyph unicode="&#xe6;" horiz-adv-x="1288" d="M70 213q8 57 39.5 97t76.5 64.5t101.5 35t113.5 10.5h254l13 82q6 51 3 89t-24.5 62.5t-65.5 36.5t-120 12q-27 0 -59.5 -6t-63.5 -15t-59 -20.5t-46 -23.5q-10 14 -21 28.5t-22 28.5q23 18 58 36t72.5 30t78.5 19t76 7q150 0 215 -38q88 39 180 38q61 0 113.5 -21.5 t92.5 -60t67.5 -91t38.5 -115.5q-113 -41 -226.5 -84t-226.5 -84l-6 -33l-4 -31q-8 -59 -25.5 -99t-52.5 -71q55 -27 129 -26q61 0 120.5 22.5t106.5 63.5l43 -62q-59 -51 -131.5 -79.5t-150.5 -28.5q-102 0 -178 43q-78 -45 -218 -45q-74 0 -132 11t-97 36.5t-56.5 69.5 t-6.5 112zM156 211q-6 -45 12 -72.5t51 -43t75 -21.5t81 -6t81 6t77.5 22.5t61.5 46t32 78.5l16 111h-162h-83t-104 -11.5t-92 -36t-46 -73.5zM731 678q23 -29 27 -73t-6 -107l-11 -78q86 31 169 62.5t169 62.5q-27 72 -85 114.5t-136 42.5q-35 0 -66.5 -7t-60.5 -17z" />
<glyph unicode="&#xe7;" horiz-adv-x="794" d="M106 385q12 82 53.5 155.5t103 127t139 85t161.5 31.5q74 0 135.5 -23.5t108.5 -64.5q-16 -16 -32.5 -31.5t-33.5 -31.5q-35 33 -83 51t-105 18q-68 0 -129.5 -24.5t-110.5 -67.5t-81.5 -101t-41.5 -124q-10 -66 6.5 -123t53.5 -100t91 -67.5t122 -24.5q115 -1 211 67 q10 -16 21.5 -31.5t21.5 -31.5q-113 -82 -254 -88q-4 -29 2 -46.5t17.5 -28.5t24.5 -19.5t25 -16.5q41 -31 54.5 -71t7.5 -76q-12 -92 -64.5 -141.5t-121.5 -59.5q-39 -6 -72 2q-47 8 -82 39t-45 86l61 24q6 -39 35 -64.5t76 -25.5q57 0 96 39t49 97q6 51 -14 78.5t-47 48 t-49.5 42t-16.5 60.5l4 39q-74 8 -133 41t-99 85t-57.5 120.5t-7.5 146.5z" />
<glyph unicode="&#xe8;" horiz-adv-x="923" d="M127 385q12 92 52 166t100.5 126t138.5 79.5t166 27.5q61 0 113.5 -21.5t93 -59t68.5 -90t38 -115.5l-336 -126l-336 -126q25 -78 93.5 -127t166.5 -49q63 0 122 22.5t106 63.5q10 -16 21 -31.5t22 -32.5q-59 -49 -132 -77.5t-151 -28.5q-84 0 -152.5 31.5t-115.5 85 t-68.5 126t-9.5 156.5zM211 326q147 55 292.5 109t291.5 110q-27 70 -85.5 113.5t-136.5 43.5q-66 0 -124 -20t-104 -57t-77.5 -89.5t-44.5 -115.5q-12 -49 -12 -94zM383 1253h86q37 -68 73 -136t73 -136h-68q-41 68 -82 136.5t-82 135.5z" />
<glyph unicode="&#xe9;" horiz-adv-x="923" d="M127 385q12 92 52 166t100.5 126t138.5 79.5t166 27.5q61 0 113.5 -21.5t93 -59t68.5 -90t38 -115.5l-336 -126l-336 -126q25 -78 93.5 -127t166.5 -49q63 0 122 22.5t106 63.5q10 -16 21 -31.5t22 -32.5q-59 -49 -132 -77.5t-151 -28.5q-84 0 -152.5 31.5t-115.5 85 t-68.5 126t-9.5 156.5zM211 326q147 55 292.5 109t291.5 110q-27 70 -85.5 113.5t-136.5 43.5q-66 0 -124 -20t-104 -57t-77.5 -89.5t-44.5 -115.5q-12 -49 -12 -94zM577 981q55 68 111.5 136.5t112.5 135.5h88q-59 -68 -122 -136t-122 -136h-68z" />
<glyph unicode="&#xea;" horiz-adv-x="923" d="M127 385q12 92 52 166t100.5 126t138.5 79.5t166 27.5q61 0 113.5 -21.5t93 -59t68.5 -90t38 -115.5l-336 -126l-336 -126q25 -78 93.5 -127t166.5 -49q63 0 122 22.5t106 63.5q10 -16 21 -31.5t22 -32.5q-59 -49 -132 -77.5t-151 -28.5q-84 0 -152.5 31.5t-115.5 85 t-68.5 126t-9.5 156.5zM211 326q147 55 292.5 109t291.5 110q-27 70 -85.5 113.5t-136.5 43.5q-66 0 -124 -20t-104 -57t-77.5 -89.5t-44.5 -115.5q-12 -49 -12 -94zM367 981q74 92 148.5 185.5t148.5 185.5q49 -92 97 -185.5t97 -185.5h-67q-37 61 -73 123.5t-71 124.5 q-53 -61 -106 -124t-107 -124h-67z" />
<glyph unicode="&#xeb;" horiz-adv-x="923" d="M127 385q12 92 52 166t100.5 126t138.5 79.5t166 27.5q61 0 113.5 -21.5t93 -59t68.5 -90t38 -115.5l-336 -126l-336 -126q25 -78 93.5 -127t166.5 -49q63 0 122 22.5t106 63.5q10 -16 21 -31.5t22 -32.5q-59 -49 -132 -77.5t-151 -28.5q-84 0 -152.5 31.5t-115.5 85 t-68.5 126t-9.5 156.5zM211 326q147 55 292.5 109t291.5 110q-27 70 -85.5 113.5t-136.5 43.5q-66 0 -124 -20t-104 -57t-77.5 -89.5t-44.5 -115.5q-12 -49 -12 -94zM364 1040q4 29 27.5 48.5t50.5 19.5q25 0 43.5 -19.5t13.5 -48.5q-4 -29 -27.5 -48t-47.5 -19 q-27 0 -45.5 19t-14.5 48zM704 1040q4 29 26.5 48.5t49.5 19.5t44 -19.5t13 -48.5t-26.5 -48t-48.5 -19q-27 0 -44.5 19t-13.5 48z" />
<glyph unicode="&#xec;" horiz-adv-x="356" d="M109 1253h86q37 -68 72.5 -136t72.5 -136h-68q-41 68 -81.5 136.5t-81.5 135.5zM154 0l106 768h84l-106 -768h-84z" />
<glyph unicode="&#xed;" horiz-adv-x="405" d="M145 0l107 768h84l-107 -768h-84zM285 981q55 68 111.5 136.5t111.5 135.5h88q-59 -68 -121.5 -136t-122.5 -136h-67z" />
<glyph unicode="&#xee;" horiz-adv-x="489" d="M117 981q74 92 148.5 185.5t148.5 185.5q49 -92 97 -185.5t97 -185.5h-67q-37 61 -73 123.5t-71 124.5q-53 -61 -106 -124t-107 -124h-67zM195 0l106 768h86l-106 -768h-86z" />
<glyph unicode="&#xef;" horiz-adv-x="555" d="M182 1040q4 29 27.5 48.5t50.5 19.5q25 0 43.5 -19.5t13.5 -48.5q-4 -29 -27.5 -48t-47.5 -19q-27 0 -45.5 19t-14.5 48zM252 0l106 768h86l-106 -768h-86zM522 1040q4 29 26.5 48.5t49.5 19.5t44 -19.5t13 -48.5t-26.5 -48t-48.5 -19q-27 0 -44.5 19t-13.5 48z" />
<glyph unicode="&#xf0;" horiz-adv-x="1009" d="M59 383q10 82 51.5 155.5t102.5 128t139 87t162 32.5q78 2 138.5 -29.5t97.5 -84.5q-10 102 -58.5 238.5t-152.5 283.5q-39 -35 -77 -69.5t-75 -69.5q-12 14 -25.5 26.5t-23.5 26.5q41 37 80 75t80 74q-76 102 -166 183q16 14 32.5 28.5t32.5 28.5q88 -78 166 -178 q37 35 73 67.5t71 67.5q12 -12 25 -24.5t24 -24.5q-37 -37 -75 -73t-77 -72q63 -92 116.5 -200t90.5 -220.5t51.5 -226t-0.5 -220.5q-10 -84 -50 -156.5t-100.5 -128t-138 -87t-161.5 -33.5q-84 0 -154 29.5t-117 84t-69.5 126t-12.5 155.5zM141 385q-10 -66 7.5 -123 t54.5 -100t92 -66.5t123 -23.5t128 25.5t109.5 68.5t81 100.5t41.5 122.5q8 68 -9 125t-54 100t-91.5 67t-121.5 24q-68 0 -129.5 -26t-110.5 -69t-81 -101t-40 -124z" />
<glyph unicode="&#xf1;" horiz-adv-x="1071" d="M211 0l106 768h78l-10 -72q-4 -35 -8 -63.5t-8 -63.5q55 96 153.5 155.5t212.5 59.5q113 0 170.5 -63.5t44.5 -165.5l-76 -555h-86l74 532q6 66 -30.5 115t-122.5 53q-63 0 -123 -21.5t-109 -58t-82 -88t-41 -112.5l-57 -420h-86zM393 945q16 78 76.5 115.5t120.5 37.5 q43 0 74.5 -19.5t60.5 -54.5t51 -46t51 -11q14 0 35.5 4t42 15.5t37 32t24.5 53.5q14 -2 27.5 -2.5t26.5 -2.5q-16 -78 -77 -115.5t-120 -37.5q-43 0 -74.5 19.5t-60.5 54.5t-52.5 46t-52.5 11q-16 0 -36.5 -4t-40 -15.5t-36 -32t-24.5 -53.5q-14 2 -27.5 2.5t-25.5 2.5z " />
<glyph unicode="&#xf2;" horiz-adv-x="960" d="M127 385q12 92 52 167t101.5 127t139.5 79.5t164 27.5q84 0 153.5 -31.5t117.5 -86t69.5 -128t9.5 -155.5q-12 -92 -53 -167t-102.5 -126t-140.5 -78.5t-165 -27.5q-84 0 -152.5 31.5t-115.5 85t-68.5 126t-9.5 156.5zM213 385q-10 -66 7.5 -123t54 -100t90 -67.5 t118.5 -24.5q66 0 127.5 23.5t110.5 64.5t82 99t43 128q8 66 -8.5 123t-53 100t-92 68.5t-121.5 25.5q-68 0 -129 -23.5t-109 -65.5t-80 -100t-40 -128zM397 1253h86q37 -68 73 -136t73 -136h-68q-41 68 -82 136.5t-82 135.5z" />
<glyph unicode="&#xf3;" horiz-adv-x="960" d="M127 385q12 92 52 167t101.5 127t139.5 79.5t164 27.5q84 0 153.5 -31.5t117.5 -86t69.5 -128t9.5 -155.5q-12 -92 -53 -167t-102.5 -126t-140.5 -78.5t-165 -27.5q-84 0 -152.5 31.5t-115.5 85t-68.5 126t-9.5 156.5zM213 385q-10 -66 7.5 -123t54 -100t90 -67.5 t118.5 -24.5q66 0 127.5 23.5t110.5 64.5t82 99t43 128q8 66 -8.5 123t-53 100t-92 68.5t-121.5 25.5q-68 0 -129 -23.5t-109 -65.5t-80 -100t-40 -128zM604 981q55 68 111.5 136.5t112.5 135.5h88q-59 -68 -122 -136t-122 -136h-68z" />
<glyph unicode="&#xf4;" horiz-adv-x="960" d="M127 385q12 92 52 167t101.5 127t139.5 79.5t164 27.5q84 0 153.5 -31.5t117.5 -86t69.5 -128t9.5 -155.5q-12 -92 -53 -167t-102.5 -126t-140.5 -78.5t-165 -27.5q-84 0 -152.5 31.5t-115.5 85t-68.5 126t-9.5 156.5zM213 385q-10 -66 7.5 -123t54 -100t90 -67.5 t118.5 -24.5q66 0 127.5 23.5t110.5 64.5t82 99t43 128q8 66 -8.5 123t-53 100t-92 68.5t-121.5 25.5q-68 0 -129 -23.5t-109 -65.5t-80 -100t-40 -128zM357 981q74 92 148.5 185.5t148.5 185.5q49 -92 97 -185.5t97 -185.5h-67q-37 61 -73 123.5t-71 124.5 q-53 -61 -106 -124t-107 -124h-67z" />
<glyph unicode="&#xf5;" horiz-adv-x="960" d="M127 385q12 92 52 167t101.5 127t139.5 79.5t164 27.5q84 0 153.5 -31.5t117.5 -86t69.5 -128t9.5 -155.5q-12 -92 -53 -167t-102.5 -126t-140.5 -78.5t-165 -27.5q-84 0 -152.5 31.5t-115.5 85t-68.5 126t-9.5 156.5zM213 385q-10 -66 7.5 -123t54 -100t90 -67.5 t118.5 -24.5q66 0 127.5 23.5t110.5 64.5t82 99t43 128q8 66 -8.5 123t-53 100t-92 68.5t-121.5 25.5q-68 0 -129 -23.5t-109 -65.5t-80 -100t-40 -128zM291 963q16 78 76.5 115.5t120.5 37.5q43 0 74.5 -19.5t60.5 -54.5t51 -46t51 -11q14 0 35.5 4t42 15.5t37 32 t24.5 53.5q14 -2 27.5 -2.5t26.5 -2.5q-16 -78 -77 -115.5t-120 -37.5q-43 0 -74.5 19.5t-60.5 54.5t-52.5 46t-52.5 11q-16 0 -36.5 -4t-40 -15.5t-36 -32t-24.5 -53.5q-14 2 -27.5 2.5t-25.5 2.5z" />
<glyph unicode="&#xf6;" horiz-adv-x="960" d="M127 385q12 92 52 167t101.5 127t139.5 79.5t164 27.5q84 0 153.5 -31.5t117.5 -86t69.5 -128t9.5 -155.5q-12 -92 -53 -167t-102.5 -126t-140.5 -78.5t-165 -27.5q-84 0 -152.5 31.5t-115.5 85t-68.5 126t-9.5 156.5zM213 385q-10 -66 7.5 -123t54 -100t90 -67.5 t118.5 -24.5q66 0 127.5 23.5t110.5 64.5t82 99t43 128q8 66 -8.5 123t-53 100t-92 68.5t-121.5 25.5q-68 0 -129 -23.5t-109 -65.5t-80 -100t-40 -128zM364 1040q4 29 27.5 48.5t50.5 19.5q25 0 43.5 -19.5t13.5 -48.5q-4 -29 -27.5 -48t-47.5 -19q-27 0 -45.5 19t-14.5 48 zM704 1040q4 29 26.5 48.5t49.5 19.5t44 -19.5t13 -48.5t-26.5 -48t-48.5 -19q-27 0 -44.5 19t-13.5 48z" />
<glyph unicode="&#xf7;" horiz-adv-x="1026" d="M133 426l10 84h738l-11 -84h-737zM410 213q4 29 27.5 48.5t49.5 19.5q25 0 42.5 -19.5t13.5 -48.5t-26.5 -48.5t-49.5 -19.5t-44 19.5t-13 48.5zM481 725q4 29 27.5 48.5t50.5 19.5q25 0 42 -19.5t13 -48.5t-26.5 -48.5t-48.5 -19.5q-27 0 -44.5 19.5t-13.5 48.5z" />
<glyph unicode="&#xf8;" horiz-adv-x="958" d="M47 10q23 25 48.5 49.5t49.5 49.5q-45 53 -64 123.5t-7 152.5t53 155.5t102.5 127t139 85t161.5 31.5q63 0 117.5 -17t97.5 -48q18 20 39 39.5t41 40.5q10 -10 20.5 -21.5t20.5 -21.5q-18 -18 -37.5 -38t-37.5 -40q53 -53 76.5 -130t13.5 -163q-12 -84 -54.5 -156.5 t-105 -126t-141 -85t-162.5 -31.5q-70 0 -127.5 21.5t-104.5 60.5q-25 -25 -48 -49.5t-48 -49.5q-10 10 -21.5 20.5t-21.5 20.5zM160 385q-10 -61 3 -115.5t46 -95.5q119 121 235.5 239.5t235.5 239.5q-33 23 -73 36t-87 13q-68 0 -129 -24.5t-109.5 -67.5t-81 -101 t-40.5 -124zM250 131q74 -61 180 -61q68 0 129.5 24.5t110.5 67.5t81.5 100t43.5 123q8 68 -10.5 127t-59.5 102q-119 -123 -237.5 -242.5t-237.5 -240.5z" />
<glyph unicode="&#xf9;" horiz-adv-x="1083" d="M240 213l77 555h86l-75 -532q-6 -66 31.5 -115t123.5 -53q61 0 122 21.5t110 58t81.5 88t41.5 112.5l57 420h86l-109 -776h-84l15 114l18 93q-55 -98 -153.5 -156.5t-210.5 -58.5q-113 0 -170.5 63.5t-46.5 165.5zM467 1253h86q37 -68 73 -136t73 -136h-68 q-41 68 -82 136.5t-82 135.5z" />
<glyph unicode="&#xfa;" horiz-adv-x="1083" d="M240 213l77 555h86l-75 -532q-6 -66 31.5 -115t123.5 -53q61 0 122 21.5t110 58t81.5 88t41.5 112.5l57 420h86l-109 -776h-84l15 114l18 93q-55 -98 -153.5 -156.5t-210.5 -58.5q-113 0 -170.5 63.5t-46.5 165.5zM602 981q55 68 111.5 136.5t112.5 135.5h88 q-59 -68 -122 -136t-122 -136h-68z" />
<glyph unicode="&#xfb;" horiz-adv-x="1083" d="M240 213l77 555h86l-75 -532q-6 -66 31.5 -115t123.5 -53q61 0 122 21.5t110 58t81.5 88t41.5 112.5l57 420h86l-109 -776h-84l15 114l18 93q-55 -98 -153.5 -156.5t-210.5 -58.5q-113 0 -170.5 63.5t-46.5 165.5zM420 981q74 92 148.5 185.5t148.5 185.5 q49 -92 97 -185.5t97 -185.5h-67q-37 61 -73 123.5t-71 124.5q-53 -61 -106 -124t-107 -124h-67z" />
<glyph unicode="&#xfc;" horiz-adv-x="1083" d="M240 213l77 555h86l-75 -532q-6 -66 31.5 -115t123.5 -53q61 0 122 21.5t110 58t81.5 88t41.5 112.5l57 420h86l-109 -776h-84l15 114l18 93q-55 -98 -153.5 -156.5t-210.5 -58.5q-113 0 -170.5 63.5t-46.5 165.5zM432 1040q4 29 27.5 48.5t50.5 19.5q25 0 43.5 -19.5 t13.5 -48.5q-4 -29 -27.5 -48t-47.5 -19q-27 0 -45.5 19t-14.5 48zM772 1040q4 29 26.5 48.5t49.5 19.5t44 -19.5t13 -48.5t-26.5 -48t-48.5 -19q-27 0 -44.5 19t-13.5 48z" />
<glyph unicode="&#xfd;" horiz-adv-x="999" d="M137 -512q82 127 163 253t163 255q-70 193 -139.5 385t-139.5 387h90q18 -53 52 -147.5t70 -196.5t70 -196.5t54 -149.5q35 55 95.5 149.5t125 196.5t124 196.5t93.5 147.5h91q-205 -322 -409 -640t-413 -640h-90zM604 981q55 68 111.5 136.5t112.5 135.5h88 q-59 -68 -122 -136t-122 -136h-68z" />
<glyph unicode="&#xfe;" horiz-adv-x="1140" d="M-6 -512l287 2048h86l-121 -846q-4 -27 -11.5 -53.5t-13.5 -52.5q18 37 54 71.5t83.5 62t103.5 45t116 17.5q84 0 153.5 -31.5t115.5 -85t67.5 -126t11.5 -154.5q-12 -82 -54.5 -154.5t-104.5 -127t-140 -86t-162 -31.5q-63 0 -114.5 16t-90.5 43t-62.5 61.5t-31.5 69.5 q-2 -20 -2 -40.5v-43.5l-86 -602h-84zM205 383q-10 -66 6 -124t53 -101t91.5 -67.5t121.5 -24.5q68 0 129.5 24.5t110.5 67.5t81 101t42 124q8 68 -8.5 125t-53.5 99t-91 66.5t-122 24.5t-128 -24.5t-109 -66.5t-82 -99t-41 -125z" />
<glyph unicode="&#xff;" horiz-adv-x="999" d="M137 -512q82 127 163 253t163 255q-70 193 -139.5 385t-139.5 387h90q18 -53 52 -147.5t70 -196.5t70 -196.5t54 -149.5q35 55 95.5 149.5t125 196.5t124 196.5t93.5 147.5h91q-205 -322 -409 -640t-413 -640h-90zM407 1040q4 29 27.5 48.5t50.5 19.5q25 0 43.5 -19.5 t13.5 -48.5q-4 -29 -27.5 -48t-47.5 -19q-27 0 -45.5 19t-14.5 48zM747 1040q4 29 26.5 48.5t49.5 19.5t44 -19.5t13 -48.5t-26.5 -48t-48.5 -19q-27 0 -44.5 19t-13.5 48z" />
<glyph unicode="&#x2000;" horiz-adv-x="954" />
<glyph unicode="&#x2001;" horiz-adv-x="1909" />
<glyph unicode="&#x2002;" horiz-adv-x="954" />
<glyph unicode="&#x2003;" horiz-adv-x="1909" />
<glyph unicode="&#x2004;" horiz-adv-x="636" />
<glyph unicode="&#x2005;" horiz-adv-x="477" />
<glyph unicode="&#x2006;" horiz-adv-x="318" />
<glyph unicode="&#x2007;" horiz-adv-x="318" />
<glyph unicode="&#x2008;" horiz-adv-x="238" />
<glyph unicode="&#x2009;" horiz-adv-x="381" />
<glyph unicode="&#x200a;" horiz-adv-x="106" />
<glyph unicode="&#x2010;" d="M102 346l11 84h376l-10 -84h-377z" />
<glyph unicode="&#x2011;" d="M102 346l11 84h376l-10 -84h-377z" />
<glyph unicode="&#x2012;" d="M102 346l11 84h376l-10 -84h-377z" />
<glyph unicode="&#x2013;" horiz-adv-x="1042" d="M199 362l10 84h616l-10 -84h-616z" />
<glyph unicode="&#x2014;" horiz-adv-x="1433" d="M197 362l10 84h1028l-10 -84h-1028z" />
<glyph unicode="&#x2018;" horiz-adv-x="335" d="M80 1296q-14 76 14 160q16 -4 31.5 -7t32.5 -7q-23 -72 -12.5 -132.5t47.5 -101.5q-12 -10 -23.5 -20t-24.5 -21q-51 53 -65 129z" />
<glyph unicode="&#x2019;" horiz-adv-x="335" d="M86 1208q47 41 75.5 101.5t24.5 132.5q16 4 34 7t34 7q6 -84 -29.5 -160t-103.5 -129q-10 10 -17.5 20.5t-17.5 20.5z" />
<glyph unicode="&#x201a;" horiz-adv-x="299" d="M25 -59q49 41 76.5 101t23.5 132q16 4 33.5 7t34.5 7q6 -84 -30 -159.5t-104 -128.5q-10 10 -17 20t-17 21z" />
<glyph unicode="&#x201c;" horiz-adv-x="509" d="M68.5 1296q-15.5 76 13.5 160q16 -4 32.5 -7t32.5 -7q-25 -72 -14.5 -132.5t49.5 -101.5q-12 -10 -23.5 -20t-23.5 -21q-51 53 -66.5 129zM281.5 1296q-15.5 76 13.5 160q16 -4 32.5 -7t32.5 -7q-25 -72 -14.5 -132.5t49.5 -101.5q-12 -10 -23.5 -20t-23.5 -21 q-51 53 -66.5 129z" />
<glyph unicode="&#x201d;" horiz-adv-x="507" d="M47 1208q49 41 77 101.5t23 132.5q16 4 34 7t34 7q6 -84 -29.5 -160t-103.5 -129q-8 10 -16.5 20.5t-18.5 20.5zM260 1208q49 41 77 101.5t23 132.5q16 4 34 7t34 7q6 -84 -29.5 -160t-103.5 -129q-8 10 -16.5 20.5t-18.5 20.5z" />
<glyph unicode="&#x201e;" horiz-adv-x="567" d="M25 -59q49 41 76.5 101t23.5 132q16 4 33.5 7t34.5 7q6 -84 -30 -159.5t-104 -128.5q-10 10 -17 20t-17 21zM238 -59q49 41 76.5 101t23.5 132q16 4 33.5 7t34.5 7q6 -84 -30 -159.5t-104 -128.5q-10 10 -17 20t-17 21z" />
<glyph unicode="&#x2022;" horiz-adv-x="980" d="M305 614q6 39 24.5 73t47.5 59.5t64.5 40t72.5 14.5q78 0 124 -54.5t36 -132.5q-6 -39 -24.5 -71.5t-47.5 -57t-64.5 -39t-74.5 -14.5q-78 0 -123 52t-35 130z" />
<glyph unicode="&#x202f;" horiz-adv-x="381" />
<glyph unicode="&#x2039;" horiz-adv-x="802" d="M240 489q98 84 197.5 165t197.5 165l-12 -98q-66 -59 -130.5 -115.5t-130.5 -116.5q47 -59 96.5 -116.5t96.5 -116.5l-12 -98z" />
<glyph unicode="&#x203a;" horiz-adv-x="802" d="M193 158l12 98q66 59 131 116.5t131 116.5q-49 59 -98.5 116t-96.5 116l13 98q78 -84 152.5 -165t152.5 -165z" />
<glyph unicode="&#x205f;" horiz-adv-x="477" />
<glyph unicode="&#x25fc;" horiz-adv-x="768" d="M0 0v768h768v-768h-768z" />
</font>
</defs>
</svg>
