<?xml version="1.0" standalone="no"?>
<!DOCTYPE svg PUBLIC "-//W3C//DTD SVG 1.1//EN" "http://www.w3.org/Graphics/SVG/1.1/DTD/svg11.dtd" >
<svg xmlns="http://www.w3.org/2000/svg">
<metadata>
This is a custom SVG webfont generated by Font Squirrel.
Copyright   : Copyright 19901998 Bitstream Inc  All rights reserved
</metadata>
<defs>
<font id="AlternateGothic2BTRegular" horiz-adv-x="729" >
<font-face units-per-em="2048" ascent="1556" descent="-492" />
<missing-glyph horiz-adv-x="416" />
<glyph unicode=" "  horiz-adv-x="416" />
<glyph unicode="&#x09;" horiz-adv-x="416" />
<glyph unicode="&#xa0;" horiz-adv-x="416" />
<glyph unicode="!" horiz-adv-x="440" d="M104 1446h230l-47 -1028h-135zM113 0v227h213v-227h-213z" />
<glyph unicode="&#x22;" horiz-adv-x="643" d="M86 879v557h164v-557h-164zM395 879v557h164v-557h-164z" />
<glyph unicode="#" horiz-adv-x="1575" d="M70 428l61 172h297l90 252h-315l61 172h316l155 436h191l-154 -436h250l156 436h190l-154 -436h291l-59 -172h-293l-90 -252h309l-61 -172h-307l-156 -434h-191l156 434h-252l-158 -434h-190l156 434h-299zM618 598h256l91 254h-256z" />
<glyph unicode="$" horiz-adv-x="831" d="M68 184l149 135q21 -54 53 -88.5t80 -56.5v479q-139 102 -204.5 208.5t-65.5 232.5q0 142 76 248t194 131v176h121v-174q78 -11 137 -50t111 -114l-131 -133q-23 40 -51 64t-66 35v-439q162 -119 228.5 -230.5t66.5 -257.5q0 -154 -82 -260.5t-213 -122.5v-172h-121v174 q-102 19 -175 74.5t-107 140.5zM274 1110q0 -49 19 -93t57 -85v338q-41 -26 -58.5 -61.5t-17.5 -98.5zM471 172q42 14 68 68.5t26 128.5q0 58 -24 109.5t-70 92.5v-399z" />
<glyph unicode="%" horiz-adv-x="1061" d="M23 973v260q0 114 59 178t166 64q100 0 158.5 -66t58.5 -180v-260q0 -126 -57.5 -194t-163.5 -68q-109 0 -165 67.5t-56 198.5zM109 0l653 1446h176l-653 -1446h-176zM178 932q0 -39 19 -63.5t47 -24.5q31 0 47 22t16 66v332q0 34 -17 54.5t-46 20.5q-28 0 -47 -21.5 t-19 -53.5v-332zM594 236v260q0 113 60 177t167 64q100 0 157.5 -65.5t57.5 -179.5v-261q0 -126 -57 -194t-164 -68q-108 0 -164.5 68t-56.5 199zM752 195q0 -40 18 -65.5t45 -25.5q32 0 49 23.5t17 67.5v329q0 34 -18.5 56t-47.5 22q-27 0 -45 -21.5t-18 -54.5v-331z" />
<glyph unicode="&#x26;" horiz-adv-x="903" d="M51 313q0 99 41 196t131 210q-52 120 -76 219.5t-24 194.5q0 152 78.5 247t201.5 95q117 0 185.5 -82t68.5 -222q0 -95 -39 -189t-167 -271q31 -68 68 -135.5t81 -137.5q25 47 44 107.5t34 138.5l186 -49q-11 -93 -42.5 -181.5t-88.5 -185.5q23 -32 50 -52.5t61 -31.5 v-217q-69 5 -126 34.5t-108 86.5q-51 -61 -113.5 -91t-138.5 -30q-137 0 -222 96t-85 250zM254 334q0 -63 33.5 -101t87.5 -38q33 0 59 14t45 43q-38 45 -76.5 108.5t-87.5 161.5q-30 -50 -45.5 -97.5t-15.5 -90.5zM303 1145q0 -62 14.5 -123.5t47.5 -132.5q58 86 85 156 t27 135q0 64 -23.5 103.5t-60.5 39.5q-38 0 -64 -49.5t-26 -128.5z" />
<glyph unicode="'" horiz-adv-x="334" d="M86 879v557h164v-557h-164z" />
<glyph unicode="(" horiz-adv-x="563" d="M102 668q0 211 60 415.5t176 391.5h192q-111 -182 -167 -381.5t-56 -415.5q0 -214 58 -419t172 -390l-142 -86q-147 216 -220 436t-73 449z" />
<glyph unicode=")" horiz-adv-x="563" d="M27 -131q114 187 172.5 391.5t58.5 417.5q0 214 -56.5 413.5t-168.5 383.5h194q116 -186 175 -390t59 -417q0 -229 -73 -449t-220 -436z" />
<glyph unicode="*" horiz-adv-x="788" d="M61 1145l50 151l245 -127l-37 277h150l-37 -277l246 127l49 -151l-272 -45l196 -197l-129 -96l-129 248l-127 -248l-129 96l197 197z" />
<glyph unicode="+" horiz-adv-x="1706" d="M254 528v166h514v527h170v-527h514v-166h-514v-528h-170v528h-514z" />
<glyph unicode="," horiz-adv-x="440" d="M115 0v227h213v-227l-115 -256h-98l73 256h-73z" />
<glyph unicode="-" horiz-adv-x="635" d="M80 457v151h475v-151h-475z" />
<glyph unicode="." horiz-adv-x="440" d="M115 0v227h213v-227h-213z" />
<glyph unicode="/" horiz-adv-x="500" d="M-154 -190l586 1665h162l-586 -1665h-162z" />
<glyph unicode="0" horiz-adv-x="831" d="M84 371v741q0 171 89.5 268t248.5 97q151 0 239.5 -100t88.5 -271v-741q0 -190 -87 -293t-247 -103q-162 0 -247 103t-85 299zM301 309q0 -61 32.5 -98t86.5 -37q51 0 81 36t31 99v846q0 51 -32 83t-84 32q-50 0 -82.5 -32t-32.5 -81v-848z" />
<glyph unicode="1" horiz-adv-x="530" d="M-10 1122v146q86 30 147 74t101 104h149v-1446h-221v1122h-176z" />
<glyph unicode="2" horiz-adv-x="809" d="M61 0v209q230 317 342.5 539t112.5 358q0 81 -27 127.5t-73 46.5q-61 0 -88 -45t-29 -155l-2 -54h-217v27q0 201 88.5 311.5t249.5 110.5q139 0 222 -93.5t83 -253.5q0 -157 -84.5 -348.5t-337.5 -570.5h404v-209h-644z" />
<glyph unicode="3" horiz-adv-x="762" d="M57 381v37h211v-60q0 -94 25.5 -138t79.5 -44q62 0 90.5 48.5t28.5 158.5q0 151 -41 208.5t-144 57.5h-28v203q6 0 17.5 1t16.5 1q84 0 121 51.5t37 171.5q0 99 -22.5 144t-71.5 45q-55 0 -80 -37t-25 -121q0 -21 0.5 -32.5t1.5 -22.5h-211v12q0 193 83 300.5t231 107.5 q145 0 218 -102.5t73 -307.5q0 -127 -30 -200t-95 -111q82 -40 116.5 -116.5t34.5 -225.5q0 -214 -79 -326.5t-230 -112.5q-156 0 -242 107.5t-86 302.5z" />
<glyph unicode="4" horiz-adv-x="817" d="M51 352v191l371 903h209v-903h135v-191h-135v-352h-209v352h-371zM242 543h180v528z" />
<glyph unicode="5" horiz-adv-x="786" d="M84 360v43h199v-73q0 -82 29 -123t87 -41q49 0 76 37t27 106v369q0 62 -22.5 90.5t-71.5 28.5q-43 0 -74.5 -30t-48.5 -87l-183 8l25 758h545l8 -209h-377l-18 -340q48 47 98.5 70.5t101.5 23.5q105 0 162.5 -79t57.5 -226v-367q0 -162 -86 -256t-234 -94t-224.5 99.5 t-76.5 291.5z" />
<glyph unicode="6" horiz-adv-x="831" d="M90 371v741q0 171 90.5 268t249.5 97q150 0 239 -100.5t89 -270.5v-45h-219v94q0 51 -32 83t-83 32q-50 0 -82.5 -31.5t-32.5 -81.5v-356q42 44 95 68t110 24q116 0 180 -73.5t64 -207.5v-247q0 -189 -88 -292.5t-248 -103.5q-162 0 -247 103t-85 299zM309 309 q0 -61 33 -98t86 -37q51 0 81 36t30 99v281q0 53 -26 82.5t-71 29.5q-37 0 -71.5 -24.5t-61.5 -69.5v-299z" />
<glyph unicode="7" horiz-adv-x="649" d="M12 1237v209h606v-158l-270 -1288h-215l266 1237h-387z" />
<glyph unicode="8" horiz-adv-x="762" d="M59 408q0 137 35.5 226t108.5 136q-62 44 -91.5 124t-29.5 204q0 184 77 280.5t224 96.5q144 0 220.5 -96.5t76.5 -278.5q0 -127 -28.5 -206t-90.5 -126q69 -36 105 -133t36 -246q0 -204 -82 -312t-237 -108q-161 0 -242.5 110.5t-81.5 328.5zM268 432q0 -146 27 -202 t92 -56q57 0 82 53t25 181q0 134 -24.5 187.5t-82.5 53.5q-65 0 -92 -47.5t-27 -169.5zM281 1090q0 -121 23 -166t81 -45q52 0 74 46.5t22 161.5q0 122 -22 167.5t-78 45.5q-55 0 -77.5 -45t-22.5 -165z" />
<glyph unicode="9" horiz-adv-x="831" d="M63 1010q0 233 86.5 350t258.5 117q161 0 246 -103t85 -299v-741q0 -171 -90 -268t-250 -97q-150 0 -238.5 100t-88.5 271v45h219v-96q0 -52 31.5 -83.5t83.5 -31.5q49 0 81.5 32t32.5 83v356q-40 -42 -82.5 -62t-91.5 -20q-140 0 -211.5 112.5t-71.5 334.5zM291 920 q0 -86 27 -128t83 -42q39 0 69 22t50 66v299q0 62 -32 97.5t-87 35.5q-53 0 -81.5 -38t-28.5 -110v-202z" />
<glyph unicode=":" horiz-adv-x="440" d="M115 0v227h213v-227h-213zM115 408v227h213v-227h-213z" />
<glyph unicode=";" horiz-adv-x="440" d="M115 0v227h213v-227l-115 -256h-98l73 256h-73zM115 408v227h213v-227h-213z" />
<glyph unicode="&#x3c;" horiz-adv-x="1706" d="M264 530v160l1178 486v-185l-934 -381l934 -381v-182z" />
<glyph unicode="=" horiz-adv-x="1706" d="M254 322v165h1198v-165h-1198zM254 733v168h1198v-168h-1198z" />
<glyph unicode="&#x3e;" horiz-adv-x="1706" d="M264 47v182l934 381l-934 381v185l1178 -486v-160z" />
<glyph unicode="?" horiz-adv-x="631" d="M6 1198q40 138 117 207.5t190 69.5q134 0 211.5 -75t77.5 -204q0 -111 -86 -263t-100 -190q-21 -52 -31 -110.5t-10 -132.5q0 -29 0.5 -45t0.5 -29h-173q0 10 -1 29.5t-1 29.5q0 104 15.5 197t47.5 178q23 62 80 170t57 154q0 43 -23 69.5t-61 26.5t-70.5 -36.5 t-66.5 -117.5zM182 0v238h215v-238h-215z" />
<glyph unicode="@" horiz-adv-x="2048" d="M98 522q0 165 52 313.5t153 272.5q147 179 353.5 272t459.5 93q166 0 315 -45.5t255 -127.5q132 -102 198 -235.5t66 -300.5q0 -162 -65 -302t-185 -237q-69 -55 -150 -83.5t-168 -28.5q-106 0 -157 40.5t-51 125.5v4q-55 -87 -128 -127.5t-176 -40.5q-152 0 -232.5 86.5 t-80.5 249.5q0 233 138 395t333 162q89 0 149 -34.5t99 -107.5l55 107h154l-148 -586q-1 -5 -2 -12q-6 -28 -6 -37q0 -38 26.5 -61t69.5 -23q51 0 107.5 30.5t105.5 84.5q72 76 110 177.5t38 215.5q0 253 -187 411t-489 158q-138 0 -256 -31t-215 -94q-181 -113 -279 -291 t-98 -395q0 -312 209.5 -499t558.5 -187q166 0 323.5 49t291.5 142l67 -99q-149 -113 -318.5 -170t-355.5 -57q-192 0 -351 48t-281 142q-155 118 -231.5 275.5t-76.5 357.5zM741 444q0 -98 45.5 -151t128.5 -53q90 0 163.5 66.5t99.5 172.5l55 228q-14 84 -61.5 130 t-122.5 46q-127 0 -217.5 -128.5t-90.5 -310.5z" />
<glyph unicode="A" horiz-adv-x="791" d="M12 0l238 1446h291l237 -1446h-229l-45 313h-225l-48 -313h-219zM307 518h170l-76 604h-14z" />
<glyph unicode="B" horiz-adv-x="868" d="M115 0v1446h295q178 0 275 -98.5t97 -278.5q0 -108 -38 -189.5t-117 -140.5q89 -51 131.5 -136.5t42.5 -215.5q0 -198 -87 -292.5t-270 -94.5h-329zM336 209h96q72 0 105.5 50t33.5 157q0 118 -37.5 168.5t-125.5 50.5h-72v-426zM336 844h90q61 0 95 52t34 146 q0 103 -34.5 149t-112.5 46h-72v-393z" />
<glyph unicode="C" horiz-adv-x="850" d="M88 371v741q0 171 93 268t257 97q155 0 245.5 -99.5t90.5 -271.5v-139h-229v159q0 75 -29 112.5t-86 37.5t-86 -37.5t-29 -112.5v-807q0 -75 29 -113t86 -38t86 38t29 113v197h229v-151q0 -190 -89.5 -293t-254.5 -103q-169 0 -255.5 102t-86.5 300z" />
<glyph unicode="D" horiz-adv-x="881" d="M115 0v1446h317q184 0 272.5 -97t88.5 -300v-646q0 -211 -84 -307t-267 -96h-327zM336 213h113q59 0 87.5 37t28.5 115v696q0 89 -43 130.5t-135 41.5h-51v-1020z" />
<glyph unicode="E" horiz-adv-x="754" d="M115 0v1446h581v-209h-358v-379h258v-209h-258v-432h358v-217h-581z" />
<glyph unicode="F" horiz-adv-x="684" d="M115 0v1446h581v-209h-358v-379h258v-209h-258v-649h-223z" />
<glyph unicode="G" horiz-adv-x="852" d="M88 371v741q0 171 93 268t257 97q158 0 240 -94t82 -277v-133h-215v153q0 75 -29 112.5t-86 37.5t-86 -37.5t-29 -112.5v-807q0 -75 29 -113t86 -38t86 38t29 113v226h-135v184h350v-729h-107l-43 100q-37 -67 -89 -99t-126 -32q-149 0 -228 103t-79 299z" />
<glyph unicode="H" horiz-adv-x="897" d="M115 0v1446h221v-590h223v590h223v-1446h-223v647h-223v-647h-221z" />
<glyph unicode="I" horiz-adv-x="451" d="M115 0v1446h227v-1446h-227z" />
<glyph unicode="J" horiz-adv-x="473" d="M-12 0v223q5 0 17 -2q21 -2 28 -2q56 0 86.5 31t30.5 90v25v1081h223v-1063q0 -195 -64 -289t-196 -94h-125z" />
<glyph unicode="K" horiz-adv-x="840" d="M115 0v1446h223v-610q10 36 17.5 58.5t13.5 35.5l221 516h221l-248 -494l277 -952h-232l-188 727l-82 -164v-563h-223z" />
<glyph unicode="L" horiz-adv-x="692" d="M115 0v1446h221v-1237h346v-209h-567z" />
<glyph unicode="M" horiz-adv-x="1149" d="M115 0v1446h297l145 -801q9 -48 13.5 -103t4.5 -114q0 50 5.5 103t15.5 112l139 803h301v-1446h-209v913q0 39 4.5 105t12.5 147q-5 -29 -13 -80q-16 -97 -22 -125l-182 -960h-111l-174 961q-10 58 -21.5 127t-13.5 77q7 -74 11 -138.5t4 -113.5v-913h-207z" />
<glyph unicode="N" horiz-adv-x="938" d="M115 0v1446h200l283 -864q8 -25 19.5 -66t23.5 -88q-11 63 -18 116.5t-7 78.5v823h209v-1446h-209l-272 799q-2 5 -5 15q-28 82 -42 142q12 -76 18.5 -126.5t6.5 -73.5v-756h-207z" />
<glyph unicode="O" horiz-adv-x="862" d="M88 371v741q0 171 93 268t257 97q155 0 245.5 -99.5t90.5 -271.5v-741q0 -190 -89.5 -293t-254.5 -103q-167 0 -254.5 102.5t-87.5 299.5zM315 319q0 -75 29 -113t86 -38t86 38t29 113v807q0 75 -29 112.5t-86 37.5t-86 -37.5t-29 -112.5v-807z" />
<glyph unicode="P" horiz-adv-x="829" d="M113 0v1446h327q183 0 265.5 -99t82.5 -319q0 -205 -80 -322.5t-219 -117.5h-153v-588h-223zM336 795h88q78 0 107.5 47.5t29.5 181.5q0 123 -31 168t-114 45h-80v-442z" />
<glyph unicode="Q" horiz-adv-x="860" d="M88 371v741q0 171 93 268t257 97q155 0 245.5 -99.5t90.5 -271.5v-741q0 -70 -7 -115t-23 -83q12 -23 31 -33.5t50 -10.5h11v-221h-25q-78 0 -129.5 28t-83.5 88q-43 -25 -87.5 -37t-94.5 -12q-156 0 -242 105t-86 297zM315 319q0 -75 29 -113t86 -38t86 38t29 113v807 q0 75 -29 112.5t-86 37.5t-86 -37.5t-29 -112.5v-807z" />
<glyph unicode="R" horiz-adv-x="854" d="M113 0v1446h327q184 0 266 -99t82 -319q0 -136 -33 -220t-108 -136l164 -672h-231l-138 608h-106v-608h-223zM336 817h88q77 0 107 46.5t30 172.5q0 114 -31.5 157.5t-113.5 43.5h-80v-420z" />
<glyph unicode="S" horiz-adv-x="803" d="M47 367l213 32q6 -110 42 -162.5t106 -52.5q61 0 99 38.5t38 101.5q0 113 -180 292l-21 21q-176 176 -226 270.5t-50 200.5q0 153 100.5 257.5t245.5 104.5q141 0 231 -96.5t103 -261.5l-218 -31q-6 97 -34.5 139t-87.5 42q-54 0 -86.5 -36.5t-32.5 -97.5 q0 -126 210 -329l13 -13q154 -150 202 -245t48 -213q0 -158 -98 -259.5t-248 -101.5q-166 0 -263.5 106t-105.5 294z" />
<glyph unicode="T" horiz-adv-x="662" d="M-12 1237v209h686v-209h-232v-1237h-223v1237h-231z" />
<glyph unicode="U" horiz-adv-x="885" d="M98 371v1075h228v-1120q0 -63 32.5 -100.5t85.5 -37.5t83 37t30 101v1120h227v-1081q0 -191 -88.5 -293.5t-253.5 -102.5q-167 0 -255.5 103t-88.5 299z" />
<glyph unicode="V" horiz-adv-x="786" d="M20 1446h218l133 -856q13 -82 18.5 -154.5t5.5 -146.5v-26q3 95 9.5 178.5t15.5 148.5l129 856h219l-256 -1446h-233z" />
<glyph unicode="W" horiz-adv-x="1126" d="M12 1446h213l99 -857q7 -65 10.5 -120t3.5 -107v-28q1 28 4 79q9 172 14 205l111 828h190l119 -856q7 -50 11 -114t4 -142q0 14 2 42q9 182 16 242l92 828h211l-225 -1446h-187l-122 839q-7 49 -11 115t-4 142q-6 -118 -10.5 -189t-7.5 -95l-119 -812h-186z" />
<glyph unicode="X" horiz-adv-x="764" d="M-4 0l264 735l-260 711h231l136 -426h10l143 426h228l-252 -692l274 -754h-233l-146 471h-8l-158 -471h-229z" />
<glyph unicode="Y" horiz-adv-x="702" d="M-25 1446h226l145 -578h14l138 578h227l-260 -846v-600h-223v573z" />
<glyph unicode="Z" horiz-adv-x="774" d="M63 0v223l400 1000h-367v223h609v-209l-404 -1014h404v-223h-642z" />
<glyph unicode="[" horiz-adv-x="563" d="M141 -186v1661h355v-185h-154v-1290h154v-186h-355z" />
<glyph unicode="\" horiz-adv-x="500" d="M-96 1475h164l585 -1665h-164z" />
<glyph unicode="]" horiz-adv-x="563" d="M70 0h153v1290h-153v185h352v-1661h-352v186z" />
<glyph unicode="^" horiz-adv-x="2048" d="M418 899l497 561h218l495 -561h-207l-397 397l-399 -397h-207z" />
<glyph unicode="_" horiz-adv-x="1024" d="M0 -311h1024v-172h-1024v172z" />
<glyph unicode="`" horiz-adv-x="1024" d="M279 1389h251l99 -222h-162z" />
<glyph unicode="a" d="M47 221q0 148 83.5 251.5t307.5 223.5v115q0 48 -17 73t-50 25q-42 0 -66 -24t-24 -66v-59h-201q0 5 -1 14t-1 14q0 134 85 220t214 86q135 0 200.5 -82t65.5 -252v-455q0 -107 5 -187t14 -118h-199q-8 21 -12.5 49.5t-6.5 70.5q-47 -64 -105 -99t-118 -35 q-83 0 -128.5 61t-45.5 174zM252 272q0 -50 16 -77t45 -27q35 0 69.5 26.5t55.5 71.5v277q-106 -69 -146 -128t-40 -143z" />
<glyph unicode="b" horiz-adv-x="741" d="M96 0v1446h201v-465q40 49 85 74.5t91 25.5q94 0 143.5 -68.5t49.5 -199.5v-592q0 -114 -46.5 -174.5t-134.5 -60.5q-58 0 -103.5 23.5t-84.5 72.5v-82h-201zM297 203q24 -26 46.5 -37.5t47.5 -11.5q36 0 53 22.5t17 73.5v551q0 54 -21 82t-61 28q-21 0 -41.5 -10.5 t-40.5 -32.5v-665z" />
<glyph unicode="c" d="M76 301v471q0 147 82.5 234.5t216.5 87.5q133 0 208.5 -83t75.5 -231v-84h-204v86q0 67 -20.5 96t-65.5 29q-47 0 -67.5 -29t-20.5 -96v-475q0 -84 19.5 -116.5t66.5 -32.5q49 0 68.5 27.5t19.5 121.5v82h204v-88q0 -164 -74.5 -247t-222.5 -83q-132 0 -209 88.5 t-77 241.5z" />
<glyph unicode="d" horiz-adv-x="741" d="M76 221v592q0 131 49 199.5t143 68.5q46 0 91 -25.5t85 -74.5v465h199v-1446h-199v84q-39 -50 -86 -74t-104 -24q-87 0 -132.5 60t-45.5 175zM281 250q0 -50 16.5 -72t52.5 -22q26 0 48.5 11t45.5 36v665q-22 23 -43 34t-41 11q-36 0 -57.5 -29.5t-21.5 -82.5v-551z" />
<glyph unicode="e" d="M76 301v479q0 139 84 226.5t217 87.5q136 0 209 -81t73 -233v-272h-378v-201q0 -84 19.5 -116.5t66.5 -32.5q49 0 68.5 27.5t19.5 121.5v74h204v-80q0 -164 -74.5 -247t-222.5 -83q-133 0 -209.5 88t-76.5 242zM281 674h174v108q0 67 -20.5 96t-65.5 29q-47 0 -67.5 -29 t-20.5 -96v-108z" />
<glyph unicode="f" horiz-adv-x="477" d="M10 901v166h113v125q0 127 58 190.5t173 63.5q31 0 59 -4t56 -12v-174q-21 4 -35 7t-18 3q-50 0 -72 -21t-22 -69v-109h127v-166h-127v-901h-199v901h-113z" />
<glyph unicode="g" horiz-adv-x="707" d="M8 -172q0 25 12 51t33 47q20 20 51.5 38t81.5 38q-59 15 -91 47t-32 76q0 51 28 92.5t102 95.5q-71 44 -100.5 100.5t-29.5 151.5v213q0 151 71.5 233.5t201.5 82.5q69 0 125 -29t106 -90q22 48 59.5 74.5t90.5 31.5v-173q-13 2 -23.5 3.5t-17.5 1.5q-25 0 -44.5 -10.5 t-31.5 -30.5q1 -18 1.5 -36t0.5 -35v-238q0 -139 -66 -213t-190 -74q-17 1 -48 4q-3 0 -5 1q-23 -17 -35 -34.5t-12 -33.5q0 -46 117 -53q70 -4 112 -10q130 -19 191 -77.5t61 -162.5q0 -125 -97.5 -188.5t-287.5 -63.5q-158 0 -246 45t-88 125zM227 -109q0 -34 41 -59 t103 -25q78 0 127 24.5t49 62.5q0 42 -54.5 61t-189.5 20q-39 -18 -57.5 -38.5t-18.5 -45.5zM246 553q0 -56 21 -82.5t65 -26.5t66 27t22 82v248q0 55 -22 81.5t-66 26.5t-65 -26t-21 -82v-248z" />
<glyph unicode="h" horiz-adv-x="756" d="M96 0v1446h201v-496q55 64 113.5 97.5t113.5 33.5q70 0 105 -47t35 -141v-893h-199v805q0 50 -11.5 67t-41.5 17q-22 0 -54.5 -22.5t-60.5 -57.5v-809h-201z" />
<glyph unicode="i" horiz-adv-x="393" d="M96 0v1067h201v-1067h-201zM96 1247v199h201v-199h-201z" />
<glyph unicode="j" horiz-adv-x="403" d="M-41 -147q15 -5 30 -7t29 -2q38 0 62 23t24 55v1145h199v-1149q0 -127 -58 -190.5t-173 -63.5q-31 0 -58 4t-55 13v172zM104 1247v199h199v-199h-199z" />
<glyph unicode="k" horiz-adv-x="711" d="M96 0v1446h201v-770l182 391h213l-198 -358l211 -709h-201l-139 528l-68 -125v-403h-201z" />
<glyph unicode="l" horiz-adv-x="393" d="M96 0v1446h201v-1446h-201z" />
<glyph unicode="m" horiz-adv-x="1122" d="M96 0v1067h201v-111q52 63 107.5 94t115.5 31q57 0 92.5 -31t49.5 -94q47 58 106.5 90.5t114.5 32.5q74 0 110.5 -45t36.5 -135v-899h-201v805q0 50 -11.5 67t-41.5 17q-21 0 -54 -22.5t-60 -57.5v-809h-185v805q0 49 -12.5 66.5t-44.5 17.5q-23 0 -58 -22t-65 -58v-809 h-201z" />
<glyph unicode="n" horiz-adv-x="756" d="M96 0v1067h201v-117q55 64 113.5 97.5t113.5 33.5q70 0 105 -47t35 -141v-893h-199v805q0 50 -11.5 67t-41.5 17q-22 0 -54.5 -22.5t-60.5 -57.5v-809h-201z" />
<glyph unicode="o" horiz-adv-x="727" d="M76 270v553q0 124 80 197.5t215 73.5q123 0 201.5 -77.5t78.5 -199.5v-551q0 -137 -77 -215t-212 -78q-130 0 -208 80.5t-78 216.5zM281 250q0 -44 21 -68t60 -24q40 0 63.5 24.5t23.5 67.5v581q0 35 -24 56.5t-63 21.5q-36 0 -58.5 -21.5t-22.5 -56.5v-581z" />
<glyph unicode="p" horiz-adv-x="741" d="M96 -336v1403h201v-84q39 50 85 74t103 24q87 0 134 -61t47 -176v-590q0 -131 -49.5 -199.5t-143.5 -68.5q-46 0 -91 25.5t-85 74.5v-422h-201zM297 199q21 -23 41.5 -34t40.5 -11q40 0 61 28.5t21 83.5v551q0 50 -16.5 72t-53.5 22q-26 0 -48.5 -11t-45.5 -36v-665z" />
<glyph unicode="q" horiz-adv-x="741" d="M76 254v590q0 115 45.5 176t132.5 61q57 0 104 -24t86 -74v84h199v-1403h-199v422q-40 -49 -85 -74.5t-91 -25.5q-94 0 -143 68.5t-49 199.5zM281 266q0 -55 20 -83.5t59 -28.5q20 0 41 11t43 34v665q-23 25 -45.5 36t-48.5 11q-36 0 -52.5 -22t-16.5 -72v-551z" />
<glyph unicode="r" horiz-adv-x="539" d="M96 0v1067h201v-145q38 78 91 117.5t120 39.5h20v-223q-14 7 -30 10.5t-35 3.5q-77 0 -121.5 -46t-44.5 -126v-698h-201z" />
<glyph unicode="s" horiz-adv-x="686" d="M29 289l192 43q13 -93 44 -133.5t87 -40.5q42 0 67 25.5t25 68.5q0 83 -202 236l-5 4q-101 76 -143.5 148t-42.5 163q0 131 81 211t212 80q123 0 199 -74t85 -203l-188 -45q-11 68 -37 101.5t-69 33.5q-40 0 -63 -25.5t-23 -68.5q0 -70 141 -181q38 -31 59 -48 q111 -93 152 -163.5t41 -158.5q0 -132 -81.5 -211.5t-215.5 -79.5q-128 0 -212 84t-103 234z" />
<glyph unicode="t" horiz-adv-x="545" d="M27 901v166h123v307h198v-307h148v-166h-148v-657q0 -46 22.5 -69t65.5 -23q10 0 24.5 2.5t34.5 7.5l1 -174q-28 -9 -56 -13t-59 -4q-116 0 -173.5 63.5t-57.5 190.5v676h-123z" />
<glyph unicode="u" horiz-adv-x="756" d="M92 174v893h199v-819q0 -38 12.5 -55t40.5 -17q22 0 55.5 22.5t61.5 57.5v811h198v-1067h-198v117q-55 -65 -114.5 -99t-115.5 -34q-69 0 -104 47.5t-35 142.5z" />
<glyph unicode="v" horiz-adv-x="614" d="M0 1067h184l123 -657h10l101 657h196l-206 -1067h-183z" />
<glyph unicode="w" horiz-adv-x="940" d="M0 1067h190l80 -511q8 -52 12.5 -114.5t8.5 -146.5q1 59 7.5 123t18.5 137l80 512h152l88 -512q11 -64 18.5 -129t10.5 -131v43q0 57 3 111t9 106l78 512h184l-182 -1067h-174l-92 520q-7 35 -11.5 95.5t-7.5 147.5q-4 -78 -9.5 -143t-10.5 -101l-78 -519h-176z" />
<glyph unicode="x" horiz-adv-x="621" d="M-4 0l203 557l-189 510h199l96 -287h10l95 287h204l-196 -506l203 -561h-195l-113 328h-8l-115 -328h-194z" />
<glyph unicode="y" horiz-adv-x="653" d="M18 1067h187l123 -684h8l100 684h199l-225 -1141q-28 -141 -95 -201.5t-196 -60.5q-25 0 -43 0.5t-37 2.5v190h37q84 0 120 37.5t42 130.5z" />
<glyph unicode="z" horiz-adv-x="635" d="M53 0v178l326 703h-301v186h508v-176l-312 -701h312v-190h-533z" />
<glyph unicode="{" horiz-adv-x="1024" d="M162 442v179q7 0 21.5 -1.5t21.5 -1.5q126 0 178.5 59t52.5 202v247q0 145 23 206.5t80 94.5q44 27 109 38.5t181 11.5h45v-179q-8 0 -24 1t-23 1q-109 0 -147.5 -41.5t-38.5 -173.5v-241q0 -155 -44 -220.5t-159 -93.5q114 -27 158.5 -92.5t44.5 -220.5v-240 q0 -132 39.5 -174.5t148.5 -42.5q7 0 22 1t23 1v-176h-63q-102 0 -165.5 12t-106.5 37q-57 34 -80 96t-23 203v248q0 144 -52.5 203t-178.5 59q-7 0 -21.5 -1t-21.5 -1z" />
<glyph unicode="|" horiz-adv-x="1024" d="M424 -483v2048h178v-2048h-178z" />
<glyph unicode="}" horiz-adv-x="1024" d="M152 -238q8 0 23 -1t22 -1q109 0 147.5 42t38.5 175v240q0 153 45 219t160 94q-115 28 -160 93.5t-45 220.5v241q0 132 -38 173.5t-146 41.5q-7 0 -23 -1t-24 -1v179h45q115 0 179.5 -11.5t108.5 -38.5q57 -33 80 -95t23 -206v-247q0 -144 52 -202.5t179 -58.5 q6 0 21 1.5t22 1.5v-179q-7 0 -21.5 1t-21.5 1q-126 0 -178.5 -59t-52.5 -203v-248q0 -143 -23 -204t-80 -95q-43 -26 -108 -37.5t-180 -11.5h-45v176z" />
<glyph unicode="~" horiz-adv-x="1706" d="M178 434v187q106 72 202 107.5t185 35.5q62 0 125.5 -12t168.5 -48q13 -4 42 -15q164 -58 250 -58q85 0 177 37t202 116v-184q-103 -71 -197.5 -106t-183.5 -35q-44 0 -92.5 8.5t-98.5 26.5q-25 8 -76 26q-212 74 -319 74q-82 0 -174 -38t-211 -122z" />
<glyph horiz-adv-x="831" d="M-18 788l38 91h86v233q0 171 90.5 268t249.5 97q151 0 238.5 -99.5t87.5 -271.5v-121h-217v170q0 51 -31.5 83t-83.5 32q-49 0 -81.5 -32t-32.5 -81v-278h284l-41 -91h-243v-133h184l-39 -90h-145v-256q0 -60 32.5 -97.5t81.5 -37.5q56 0 85.5 35t29.5 100v160h217v-104 q0 -190 -87 -293t-247 -103q-161 0 -246.5 103t-85.5 299v194h-102l41 90h61v133h-124z" />
<glyph unicode="&#x20ac;" horiz-adv-x="831" d="M-18 788l38 91h86v233q0 171 90.5 268t249.5 97q151 0 238.5 -99.5t87.5 -271.5v-121h-217v170q0 51 -31.5 83t-83.5 32q-49 0 -81.5 -32t-32.5 -81v-278h284l-41 -91h-243v-133h184l-39 -90h-145v-256q0 -60 32.5 -97.5t81.5 -37.5q56 0 85.5 35t29.5 100v160h217v-104 q0 -190 -87 -293t-247 -103q-161 0 -246.5 103t-85.5 299v194h-102l41 90h61v133h-124z" />
<glyph unicode="&#xa1;" horiz-adv-x="440" d="M104 0l48 1028h135l47 -1028h-230zM113 1219v227h213v-227h-213z" />
<glyph unicode="&#xa2;" horiz-adv-x="831" d="M125 492v479q0 120 58.5 198t170.5 107v244h123v-240q122 -29 177 -101.5t55 -207.5v-84h-205v86q0 66 -20.5 95.5t-65.5 29.5q-47 0 -67.5 -29t-20.5 -96v-477q0 -84 19 -116t67 -32q49 0 68.5 27t19.5 121v84h205v-88q0 -147 -56 -224.5t-176 -99.5v-244h-123v242 q-113 30 -171 113t-58 213z" />
<glyph unicode="&#xa3;" horiz-adv-x="831" d="M104 0v193q82 15 132.5 78t50.5 151q0 29 -7 71t-20 95h-139v184h86q-44 109 -65 193t-21 149q0 156 90 258.5t225 102.5q163 0 248.5 -114.5t85.5 -332.5v-29l-221 1q-5 150 -31 209t-84 59q-42 0 -66 -36t-24 -99q0 -53 15.5 -132.5t56.5 -228.5h246v-184h-205v-7 q8 -79 8 -114q0 -74 -19.5 -135.5t-62.5 -122.5h391v-209h-670z" />
<glyph unicode="&#xa4;" horiz-adv-x="831" d="M-18 788l38 91h86v233q0 171 90.5 268t249.5 97q151 0 238.5 -99.5t87.5 -271.5v-121h-217v170q0 51 -31.5 83t-83.5 32q-49 0 -81.5 -32t-32.5 -81v-278h284l-41 -91h-243v-133h184l-39 -90h-145v-256q0 -60 32.5 -97.5t81.5 -37.5q56 0 85.5 35t29.5 100v160h217v-104 q0 -190 -87 -293t-247 -103q-161 0 -246.5 103t-85.5 299v194h-102l41 90h61v133h-124z" />
<glyph unicode="&#xa5;" horiz-adv-x="702" d="M-12 1446h213l141 -590h14l129 590h220l-158 -533h160v-90h-187l-39 -133h226v-90h-252v-600h-213v600h-248v90h221l-39 133h-182v90h153z" />
<glyph unicode="&#xa6;" horiz-adv-x="1024" d="M424 -350v758h178v-758h-178zM424 674v758h178v-758h-178z" />
<glyph unicode="&#xa7;" horiz-adv-x="885" d="M63 799q0 89 55 151t150 78q-53 65 -73.5 110.5t-20.5 96.5q0 105 74 172.5t188 67.5q94 0 166.5 -38t132.5 -118l-129 -98q-52 57 -85.5 78.5t-67.5 21.5q-42 0 -68.5 -27.5t-26.5 -70.5q0 -28 25.5 -65t93.5 -105l172 -172q90 -91 129 -163.5t39 -144.5q0 -93 -50 -148 t-155 -77q52 -54 75.5 -109t23.5 -120q0 -121 -73.5 -190.5t-199.5 -69.5q-89 0 -169.5 44.5t-139.5 127.5l131 104q52 -61 90 -88t74 -27q46 0 74 27.5t28 73.5q0 37 -20.5 74t-89.5 110l-191 201q-93 99 -127.5 163t-34.5 130zM242 819q0 -36 32.5 -84.5t108.5 -124.5 l15 -15q116 -116 169 -116q31 0 51.5 22t20.5 56q0 28 -19.5 61.5t-74.5 94.5q-107 117 -152 151.5t-78 34.5q-31 0 -52 -22.5t-21 -57.5z" />
<glyph unicode="&#xa8;" horiz-adv-x="1024" d="M285 1178v200h182v-200h-182zM555 1178v200h184v-200h-184z" />
<glyph unicode="&#xa9;" horiz-adv-x="1706" d="M113 731q0 145 57 280.5t164 243.5q105 107 235.5 161t282.5 54t286 -55t240 -162q105 -105 160 -238.5t55 -283.5q0 -153 -54.5 -286t-158.5 -234q-108 -107 -244.5 -164t-283.5 -57q-146 0 -280 56.5t-240 162.5q-107 106 -163 240.5t-56 281.5zM223 731 q0 -126 48 -240t139 -204q90 -91 204.5 -139t239.5 -48t240 48.5t209 140.5q89 88 135.5 200.5t46.5 241.5t-47 243.5t-135 203.5q-91 90 -205 137t-244 47t-243 -46.5t-201 -135.5q-90 -92 -138.5 -208t-48.5 -241zM457 725q0 208 109.5 331.5t291.5 123.5q147 0 243 -77 t105 -200h-166q-10 74 -60 114t-130 40q-99 0 -155 -86.5t-56 -239.5q0 -152 57.5 -234.5t163.5 -82.5q80 0 129 43.5t60 124.5h165q-7 -135 -106.5 -217t-253.5 -82q-183 0 -290 119t-107 323z" />
<glyph unicode="&#xaa;" horiz-adv-x="547" d="M35 856q0 103 62.5 175.5t232.5 156.5v80q0 33 -13.5 51t-37.5 18q-32 0 -50 -17t-18 -46v-41h-152v20q0 93 63.5 153t160.5 60q101 0 150.5 -57.5t49.5 -175.5v-320q0 -71 3.5 -128t9.5 -85l-148 1q-5 11 -8.5 29t-5.5 54q-36 -45 -80 -69.5t-88 -24.5q-63 0 -97 43 t-34 123zM188 891q0 -35 13 -54.5t35 -19.5q25 0 50.5 18.5t43.5 51.5v194q-82 -50 -112 -91t-30 -99z" />
<glyph unicode="&#xab;" horiz-adv-x="739" d="M76 530l145 318h172l-139 -318l139 -315h-172zM350 530l142 318h172l-140 -318l140 -315h-172z" />
<glyph unicode="&#xac;" horiz-adv-x="1706" d="M254 696v166h1198v-502h-166v336h-1032z" />
<glyph unicode="&#xad;" horiz-adv-x="635" d="M80 457v151h475v-151h-475z" />
<glyph unicode="&#xae;" horiz-adv-x="1706" d="M113 731q0 147 57.5 284t165.5 245q104 104 234.5 157t281.5 53q153 0 288.5 -56t241.5 -165q103 -104 157 -236.5t54 -281.5q0 -153 -55.5 -287t-161.5 -237q-108 -105 -243 -161t-281 -56q-147 0 -282.5 57.5t-241.5 165.5q-105 106 -160 239t-55 279zM223 731 q0 -125 47 -238.5t136 -203.5q90 -91 204 -140t234 -49q130 0 246.5 47t209.5 138q89 86 137 198.5t48 237.5q0 133 -45.5 247.5t-134.5 205.5q-93 92 -207.5 140t-243.5 48t-240 -45.5t-200 -134.5q-92 -94 -141.5 -210t-49.5 -241zM551 330v829h319q173 0 262 -57t89 -168 q0 -91 -48 -150.5t-137 -78.5l185 -375h-199l-164 346h-129v-346h-178zM729 786h117q100 0 146 30.5t46 96.5q0 69 -48 101.5t-152 32.5h-109v-261z" />
<glyph unicode="&#xaf;" horiz-adv-x="1024" d="M313 1212v131h398v-131h-398z" />
<glyph unicode="&#xb0;" horiz-adv-x="674" d="M43 1163q0 125 86 211t209 86q121 0 208 -87t87 -210q0 -121 -87 -208t-210 -87t-208 85.5t-85 209.5zM152 1165q0 -76 54.5 -131t131.5 -55t130.5 54.5t53.5 131.5t-53.5 131t-130.5 54t-131.5 -54t-54.5 -131z" />
<glyph unicode="&#xb1;" horiz-adv-x="1706" d="M254 14v168h1198v-168h-1198zM254 707v165h514v334h170v-334h514v-165h-514v-334h-170v334h-514z" />
<glyph unicode="&#xb2;" horiz-adv-x="535" d="M41 578v124q151 190 225 323.5t74 215.5q0 49 -17.5 77t-48.5 28q-40 0 -58 -28t-19 -93v-31h-144v14q0 121 58.5 187.5t164.5 66.5q92 0 146.5 -55.5t54.5 -151.5t-57 -213.5t-221 -339.5h266v-124h-424z" />
<glyph unicode="&#xb3;" horiz-adv-x="504" d="M37 807v20h139v-34q0 -57 17 -83t53 -26q42 0 60 28t18 95q0 91 -27 125.5t-94 34.5h-19v123h23q55 0 79.5 31.5t24.5 103.5q0 58 -15 85t-48 27q-36 0 -52 -22t-16 -72v-35h-139v9q0 115 54.5 179t152.5 64q96 0 144 -61t48 -185q0 -76 -19.5 -119.5t-62.5 -66.5 q55 -24 78 -70.5t23 -134.5q0 -127 -53 -194.5t-152 -67.5q-103 0 -160 64t-57 182z" />
<glyph unicode="&#xb4;" horiz-adv-x="1024" d="M397 1167l97 222h254l-189 -222h-162z" />
<glyph unicode="&#xb5;" horiz-adv-x="1208" d="M-92 -430l297 1511h229l-125 -635q-6 -29 -9 -55t-3 -49q0 -96 46.5 -146.5t135.5 -50.5q122 0 193.5 88.5t111.5 292.5l109 555h225l-145 -739q-10 -49 -14.5 -81.5t-4.5 -51.5q0 -36 15.5 -51t52.5 -15q13 0 20.5 0.5t13.5 1.5l-32 -159q-32 -9 -68.5 -13t-81.5 -4 q-74 0 -111.5 31.5t-37.5 93.5v15q-41 -67 -108 -104.5t-146 -37.5q-81 0 -137.5 26t-97.5 83l-99 -506h-229z" />
<glyph unicode="&#xb6;" horiz-adv-x="1024" d="M55 1130q0 158 107 253.5t284 95.5h523v-99h-117v-1380h-129v1380h-168v-1380h-131v784q-168 6 -268.5 101t-100.5 245z" />
<glyph unicode="&#xb7;" horiz-adv-x="440" d="M92 741q0 53 37.5 91t89.5 38q53 0 91 -38t38 -91t-37.5 -91t-91.5 -38q-52 0 -89.5 38.5t-37.5 90.5z" />
<glyph unicode="&#xb8;" horiz-adv-x="1024" d="M299 -240q35 -8 67.5 -12t63.5 -4q37 0 59.5 14t22.5 37q0 30 -28 45t-83 15h-10l62 145h69l-35 -78h17q95 0 148 -33.5t53 -93.5q0 -64 -61.5 -97.5t-178.5 -33.5q-40 0 -81 4.5t-85 14.5v77z" />
<glyph unicode="&#xb9;" horiz-adv-x="350" d="M-6 1251v86q56 18 96 44.5t68 64.5h98v-868h-147v673h-115z" />
<glyph unicode="&#xba;" horiz-adv-x="545" d="M57 889v387q0 87 60.5 138.5t161.5 51.5q92 0 151 -54.5t59 -139.5v-385q0 -96 -57.5 -150.5t-159.5 -54.5q-98 0 -156.5 55.5t-58.5 151.5zM211 874q0 -30 16 -46.5t45 -16.5q30 0 47 17t17 46v408q0 25 -17.5 40t-46.5 15q-26 0 -43.5 -15.5t-17.5 -39.5v-408z" />
<glyph unicode="&#xbb;" horiz-adv-x="739" d="M76 215l139 315l-139 318h172l141 -318l-141 -315h-172zM344 215l139 315l-139 318h174l146 -318l-146 -315h-174z" />
<glyph unicode="&#xbc;" horiz-adv-x="1126" d="M-6 1264v82q53 16 92 40.5t64 57.5h94v-809h-140v629h-110zM57 0l654 1446h176l-654 -1446h-176zM643 197v106l234 506h131v-506h86v-106h-86v-197h-131v197h-234zM762 303h115v297z" />
<glyph unicode="&#xbd;" horiz-adv-x="1120" d="M-6 1264v82q53 16 92 40.5t64 57.5h94v-809h-140v629h-110zM57 0l654 1446h176l-654 -1446h-176zM649 0v117q145 177 216 301.5t71 199.5q0 46 -17 72.5t-47 26.5q-38 0 -54.5 -25t-18.5 -87l-2 -30h-135v15q0 112 55.5 173.5t156.5 61.5q87 0 139 -52t52 -140 t-52 -194.5t-212 -321.5h254v-117h-406z" />
<glyph unicode="&#xbe;" horiz-adv-x="1272" d="M37 848v20h133v-32q0 -54 15.5 -78.5t50.5 -24.5q38 0 55.5 27.5t17.5 89.5q0 84 -25.5 116.5t-88.5 32.5h-19v113q3 0 10.5 1t10.5 1q53 0 76.5 29t23.5 96q0 55 -14.5 79.5t-44.5 24.5q-35 0 -50.5 -20.5t-15.5 -67.5v-30h-131v6q0 108 52 168.5t145 60.5 q91 0 136.5 -57t45.5 -172q0 -72 -18.5 -113t-59.5 -61q52 -23 74 -67t22 -126q0 -120 -50 -183t-146 -63q-97 0 -151 60.5t-54 169.5zM203 0l653 1446h176l-653 -1446h-176zM788 197v106l234 506h131v-506h86v-106h-86v-197h-131v197h-234zM907 303h115v297z" />
<glyph unicode="&#xbf;" horiz-adv-x="631" d="M29 248q0 112 85 264t99 188q22 56 32.5 117t10.5 133q0 28 -0.5 42t-1.5 26h174q0 -10 1 -29.5t1 -30.5q0 -103 -15.5 -196t-47.5 -178q-24 -62 -81 -170t-57 -154q0 -44 23.5 -71t60.5 -27q38 0 71 36t67 117l174 -69q-40 -138 -117.5 -207.5t-192.5 -69.5 q-133 0 -209.5 75t-76.5 204zM233 1206v238h216v-238h-216z" />
<glyph unicode="&#xc0;" horiz-adv-x="791" d="M12 0l238 1446h291l237 -1446h-229l-45 313h-225l-48 -313h-219zM307 518h170l-76 604h-14zM162 1741h251l99 -222h-162z" />
<glyph unicode="&#xc1;" horiz-adv-x="791" d="M12 0l238 1446h291l237 -1446h-229l-45 313h-225l-48 -313h-219zM307 518h170l-76 604h-14zM280 1519l97 222h254l-189 -222h-162z" />
<glyph unicode="&#xc2;" horiz-adv-x="791" d="M12 0l238 1446h291l237 -1446h-229l-45 313h-225l-48 -313h-219zM307 518h170l-76 604h-14zM143 1519l154 222h196l154 -222h-162l-90 109l-90 -109h-162z" />
<glyph unicode="&#xc3;" horiz-adv-x="791" d="M12 0l238 1446h291l237 -1446h-229l-45 313h-225l-48 -313h-219zM307 518h170l-76 604h-14zM141 1528v16q0 86 42 135t116 49q45 0 107.5 -30.5t84.5 -30.5q23 0 37 15.5t14 41.5v8h107v-16q0 -87 -42.5 -136.5t-115.5 -49.5q-45 0 -107.5 30.5t-84.5 30.5 q-24 0 -37.5 -15t-13.5 -40v-8h-107z" />
<glyph unicode="&#xc4;" horiz-adv-x="791" d="M12 0l238 1446h291l237 -1446h-229l-45 313h-225l-48 -313h-219zM307 518h170l-76 604h-14zM168 1530v200h182v-200h-182zM438 1530v200h184v-200h-184z" />
<glyph unicode="&#xc5;" horiz-adv-x="791" d="M12 0l238 1446h291l237 -1446h-229l-45 313h-225l-48 -313h-219zM217 1671q0 74 52.5 126t125.5 52q74 0 126 -52t52 -126t-51.5 -126t-126.5 -52t-126.5 51.5t-51.5 126.5zM307 518h170l-76 604h-14zM328 1671q0 -27 20 -47t47 -20q29 0 48.5 19.5t19.5 47.5 q0 29 -19.5 48.5t-48.5 19.5q-27 0 -47 -20t-20 -48z" />
<glyph unicode="&#xc6;" horiz-adv-x="1143" d="M-61 0l448 1446h694v-209h-364v-379h266v-209h-266v-432h364v-217h-579v346h-232l-94 -346h-237zM324 547h176v608h-15z" />
<glyph unicode="&#xc7;" horiz-adv-x="850" d="M88 371v741q0 171 93 268t257 97q155 0 245.5 -99.5t90.5 -271.5v-139h-229v159q0 75 -29 112.5t-86 37.5t-86 -37.5t-29 -112.5v-807q0 -75 29 -113t86 -38t86 38t29 113v197h229v-151q0 -190 -89.5 -293t-254.5 -103q-169 0 -255.5 102t-86.5 300zM213 -240 q35 -8 67.5 -12t63.5 -4q37 0 59.5 14t22.5 37q0 30 -28 45t-83 15h-10l62 145h69l-35 -78h17q95 0 148 -33.5t53 -93.5q0 -64 -61.5 -97.5t-178.5 -33.5q-40 0 -81 4.5t-85 14.5v77z" />
<glyph unicode="&#xc8;" horiz-adv-x="754" d="M115 0v1446h581v-209h-358v-379h258v-209h-258v-432h358v-217h-581zM177 1741h251l99 -222h-162z" />
<glyph unicode="&#xc9;" horiz-adv-x="754" d="M115 0v1446h581v-209h-358v-379h258v-209h-258v-432h358v-217h-581zM295 1519l97 222h254l-189 -222h-162z" />
<glyph unicode="&#xca;" horiz-adv-x="754" d="M115 0v1446h581v-209h-358v-379h258v-209h-258v-432h358v-217h-581zM158 1519l154 222h196l154 -222h-162l-90 109l-90 -109h-162z" />
<glyph unicode="&#xcb;" horiz-adv-x="754" d="M115 0v1446h581v-209h-358v-379h258v-209h-258v-432h358v-217h-581zM183 1530v200h182v-200h-182zM453 1530v200h184v-200h-184z" />
<glyph unicode="&#xcc;" horiz-adv-x="451" d="M115 0v1446h227v-1446h-227zM-8 1741h251l99 -222h-162z" />
<glyph unicode="&#xcd;" horiz-adv-x="451" d="M115 0v1446h227v-1446h-227zM110 1519l97 222h254l-189 -222h-162z" />
<glyph unicode="&#xce;" horiz-adv-x="451" d="M115 0v1446h227v-1446h-227zM-27 1519l154 222h196l154 -222h-162l-90 109l-90 -109h-162z" />
<glyph unicode="&#xcf;" horiz-adv-x="451" d="M115 0v1446h227v-1446h-227zM-2 1530v200h182v-200h-182zM268 1530v200h184v-200h-184z" />
<glyph unicode="&#xd0;" horiz-adv-x="889" d="M10 670v166h113v610h319q185 0 273 -97t88 -300v-646q0 -210 -84.5 -306.5t-267.5 -96.5h-328v670h-113zM346 213h113q60 0 88 37t28 115v696q0 89 -43 130.5t-135 41.5h-51v-397h115v-166h-115v-457z" />
<glyph unicode="&#xd1;" horiz-adv-x="938" d="M115 0v1446h200l283 -864q8 -25 19.5 -66t23.5 -88q-11 63 -18 116.5t-7 78.5v823h209v-1446h-209l-272 799q-2 5 -5 15q-28 82 -42 142q12 -76 18.5 -126.5t6.5 -73.5v-756h-207zM229 1528v16q0 86 42 135t116 49q45 0 107.5 -30.5t84.5 -30.5q23 0 37 15.5t14 41.5v8 h107v-16q0 -87 -42.5 -136.5t-115.5 -49.5q-45 0 -107.5 30.5t-84.5 30.5q-24 0 -37.5 -15t-13.5 -40v-8h-107z" />
<glyph unicode="&#xd2;" horiz-adv-x="862" d="M88 371v741q0 171 93 268t257 97q155 0 245.5 -99.5t90.5 -271.5v-741q0 -190 -89.5 -293t-254.5 -103q-167 0 -254.5 102.5t-87.5 299.5zM315 319q0 -75 29 -113t86 -38t86 38t29 113v807q0 75 -29 112.5t-86 37.5t-86 -37.5t-29 -112.5v-807zM199 1741h251l99 -222 h-162z" />
<glyph unicode="&#xd3;" horiz-adv-x="862" d="M88 371v741q0 171 93 268t257 97q155 0 245.5 -99.5t90.5 -271.5v-741q0 -190 -89.5 -293t-254.5 -103q-167 0 -254.5 102.5t-87.5 299.5zM315 319q0 -75 29 -113t86 -38t86 38t29 113v807q0 75 -29 112.5t-86 37.5t-86 -37.5t-29 -112.5v-807zM317 1519l97 222h254 l-189 -222h-162z" />
<glyph unicode="&#xd4;" horiz-adv-x="862" d="M88 371v741q0 171 93 268t257 97q155 0 245.5 -99.5t90.5 -271.5v-741q0 -190 -89.5 -293t-254.5 -103q-167 0 -254.5 102.5t-87.5 299.5zM315 319q0 -75 29 -113t86 -38t86 38t29 113v807q0 75 -29 112.5t-86 37.5t-86 -37.5t-29 -112.5v-807zM180 1519l154 222h196 l154 -222h-162l-90 109l-90 -109h-162z" />
<glyph unicode="&#xd5;" horiz-adv-x="862" d="M88 371v741q0 171 93 268t257 97q155 0 245.5 -99.5t90.5 -271.5v-741q0 -190 -89.5 -293t-254.5 -103q-167 0 -254.5 102.5t-87.5 299.5zM315 319q0 -75 29 -113t86 -38t86 38t29 113v807q0 75 -29 112.5t-86 37.5t-86 -37.5t-29 -112.5v-807zM178 1528v16q0 86 42 135 t116 49q45 0 107.5 -30.5t84.5 -30.5q23 0 37 15.5t14 41.5v8h107v-16q0 -87 -42.5 -136.5t-115.5 -49.5q-45 0 -107.5 30.5t-84.5 30.5q-24 0 -37.5 -15t-13.5 -40v-8h-107z" />
<glyph unicode="&#xd6;" horiz-adv-x="862" d="M88 371v741q0 171 93 268t257 97q155 0 245.5 -99.5t90.5 -271.5v-741q0 -190 -89.5 -293t-254.5 -103q-167 0 -254.5 102.5t-87.5 299.5zM315 319q0 -75 29 -113t86 -38t86 38t29 113v807q0 75 -29 112.5t-86 37.5t-86 -37.5t-29 -112.5v-807zM205 1530v200h182v-200 h-182zM475 1530v200h184v-200h-184z" />
<glyph unicode="&#xd7;" horiz-adv-x="1706" d="M287 152l458 458l-458 461l116 117l459 -459l461 459l117 -117l-459 -461l459 -458l-117 -119l-461 461l-459 -461z" />
<glyph unicode="&#xd8;" horiz-adv-x="862" d="M61 -31l66 172q-20 44 -29.5 100t-9.5 130v741q0 171 92.5 268t257.5 97q50 0 95.5 -12.5t87.5 -37.5l16 48h162l-64 -175q20 -46 29.5 -94.5t9.5 -99.5v-741q0 -190 -89.5 -293t-254.5 -103q-57 0 -105 13t-89 38l-15 -51h-160zM307 569l236 652q-16 33 -45 50t-68 17 q-53 0 -88 -32.5t-35 -84.5v-602zM317 227q20 -33 50.5 -51t66.5 -18q55 0 88 37.5t33 101.5v582z" />
<glyph unicode="&#xd9;" horiz-adv-x="885" d="M98 371v1075h228v-1120q0 -63 32.5 -100.5t85.5 -37.5t83 37t30 101v1120h227v-1081q0 -191 -88.5 -293.5t-253.5 -102.5q-167 0 -255.5 103t-88.5 299zM209 1741h251l99 -222h-162z" />
<glyph unicode="&#xda;" horiz-adv-x="885" d="M98 371v1075h228v-1120q0 -63 32.5 -100.5t85.5 -37.5t83 37t30 101v1120h227v-1081q0 -191 -88.5 -293.5t-253.5 -102.5q-167 0 -255.5 103t-88.5 299zM327 1519l97 222h254l-189 -222h-162z" />
<glyph unicode="&#xdb;" horiz-adv-x="885" d="M98 371v1075h228v-1120q0 -63 32.5 -100.5t85.5 -37.5t83 37t30 101v1120h227v-1081q0 -191 -88.5 -293.5t-253.5 -102.5q-167 0 -255.5 103t-88.5 299zM190 1519l154 222h196l154 -222h-162l-90 109l-90 -109h-162z" />
<glyph unicode="&#xdc;" horiz-adv-x="885" d="M98 371v1075h228v-1120q0 -63 32.5 -100.5t85.5 -37.5t83 37t30 101v1120h227v-1081q0 -191 -88.5 -293.5t-253.5 -102.5q-167 0 -255.5 103t-88.5 299zM215 1530v200h182v-200h-182zM485 1530v200h184v-200h-184z" />
<glyph unicode="&#xdd;" horiz-adv-x="702" d="M-25 1446h226l145 -578h14l138 578h227l-260 -846v-600h-223v573zM237 1519l97 222h254l-189 -222h-162z" />
<glyph unicode="&#xde;" horiz-adv-x="834" d="M113 0v1446h223v-289h104q183 0 265.5 -99t82.5 -319q0 -205 -80.5 -323.5t-218.5 -118.5h-153v-297h-223zM336 506h88q78 0 107.5 47.5t29.5 181.5q0 123 -31 168t-114 45h-80v-442z" />
<glyph unicode="&#xdf;" horiz-adv-x="823" d="M-16 883v184h131q0 24 -2 53v8q0 167 71 242.5t226 75.5q134 0 208 -69t74 -193q0 -78 -30 -127t-95 -78q101 -22 142 -81.5t41 -197.5v-366q0 -176 -59.5 -262t-180.5 -86q-37 0 -74 10.5t-76 32.5l1 155q22 -13 40 -19.5t31 -6.5q58 0 88.5 37t30.5 108v436 q0 79 -29 111.5t-98 32.5h-64v184h60q34 0 58 28.5t24 69.5q0 51 -26 80t-70 29q-45 0 -69 -27t-24 -78v-1169h-198v883h-131z" />
<glyph unicode="&#xe0;" d="M47 221q0 148 83.5 251.5t307.5 223.5v115q0 48 -17 73t-50 25q-42 0 -66 -24t-24 -66v-59h-201q0 5 -1 14t-1 14q0 134 85 220t214 86q135 0 200.5 -82t65.5 -252v-455q0 -107 5 -187t14 -118h-199q-8 21 -12.5 49.5t-6.5 70.5q-47 -64 -105 -99t-118 -35 q-83 0 -128.5 61t-45.5 174zM252 272q0 -50 16 -77t45 -27q35 0 69.5 26.5t55.5 71.5v277q-106 -69 -146 -128t-40 -143zM148 1389h251l99 -222h-162z" />
<glyph unicode="&#xe1;" d="M47 221q0 148 83.5 251.5t307.5 223.5v115q0 48 -17 73t-50 25q-42 0 -66 -24t-24 -66v-59h-201q0 5 -1 14t-1 14q0 134 85 220t214 86q135 0 200.5 -82t65.5 -252v-455q0 -107 5 -187t14 -118h-199q-8 21 -12.5 49.5t-6.5 70.5q-47 -64 -105 -99t-118 -35 q-83 0 -128.5 61t-45.5 174zM252 272q0 -50 16 -77t45 -27q35 0 69.5 26.5t55.5 71.5v277q-106 -69 -146 -128t-40 -143zM266 1167l97 222h254l-189 -222h-162z" />
<glyph unicode="&#xe2;" d="M47 221q0 148 83.5 251.5t307.5 223.5v115q0 48 -17 73t-50 25q-42 0 -66 -24t-24 -66v-59h-201q0 5 -1 14t-1 14q0 134 85 220t214 86q135 0 200.5 -82t65.5 -252v-455q0 -107 5 -187t14 -118h-199q-8 21 -12.5 49.5t-6.5 70.5q-47 -64 -105 -99t-118 -35 q-83 0 -128.5 61t-45.5 174zM252 272q0 -50 16 -77t45 -27q35 0 69.5 26.5t55.5 71.5v277q-106 -69 -146 -128t-40 -143zM129 1167l154 222h196l154 -222h-162l-90 109l-90 -109h-162z" />
<glyph unicode="&#xe3;" d="M47 221q0 148 83.5 251.5t307.5 223.5v115q0 48 -17 73t-50 25q-42 0 -66 -24t-24 -66v-59h-201q0 5 -1 14t-1 14q0 134 85 220t214 86q135 0 200.5 -82t65.5 -252v-455q0 -107 5 -187t14 -118h-199q-8 21 -12.5 49.5t-6.5 70.5q-47 -64 -105 -99t-118 -35 q-83 0 -128.5 61t-45.5 174zM252 272q0 -50 16 -77t45 -27q35 0 69.5 26.5t55.5 71.5v277q-106 -69 -146 -128t-40 -143zM127 1176v16q0 86 42 135t116 49q45 0 107.5 -30.5t84.5 -30.5q23 0 37 15.5t14 41.5v8h107v-16q0 -87 -42.5 -136.5t-115.5 -49.5q-45 0 -107.5 30.5 t-84.5 30.5q-24 0 -37.5 -15t-13.5 -40v-8h-107z" />
<glyph unicode="&#xe4;" d="M47 221q0 148 83.5 251.5t307.5 223.5v115q0 48 -17 73t-50 25q-42 0 -66 -24t-24 -66v-59h-201q0 5 -1 14t-1 14q0 134 85 220t214 86q135 0 200.5 -82t65.5 -252v-455q0 -107 5 -187t14 -118h-199q-8 21 -12.5 49.5t-6.5 70.5q-47 -64 -105 -99t-118 -35 q-83 0 -128.5 61t-45.5 174zM252 272q0 -50 16 -77t45 -27q35 0 69.5 26.5t55.5 71.5v277q-106 -69 -146 -128t-40 -143zM154 1178v200h182v-200h-182zM424 1178v200h184v-200h-184z" />
<glyph unicode="&#xe5;" d="M47 221q0 148 83.5 251.5t307.5 223.5v115q0 48 -17 73t-50 25q-42 0 -66 -24t-24 -66v-59h-201q0 5 -1 14t-1 14q0 134 85 220t214 86q135 0 200.5 -82t65.5 -252v-455q0 -107 5 -187t14 -118h-199q-8 21 -12.5 49.5t-6.5 70.5q-47 -64 -105 -99t-118 -35 q-83 0 -128.5 61t-45.5 174zM209 1319q0 74 52 126t126 52t126 -52t52 -126q0 -75 -52 -126.5t-126 -51.5q-75 0 -126.5 51.5t-51.5 126.5zM252 272q0 -50 16 -77t45 -27q35 0 69.5 26.5t55.5 71.5v277q-106 -69 -146 -128t-40 -143zM319 1317q0 -27 20 -46.5t48 -19.5 q29 0 48.5 19t19.5 47q0 29 -19.5 48t-48.5 19q-28 0 -48 -19.5t-20 -47.5z" />
<glyph unicode="&#xe6;" horiz-adv-x="1096" d="M51 221q0 147 83 250.5t310 224.5v115q0 47 -17.5 71.5t-51.5 24.5q-51 0 -72.5 -33.5t-21.5 -113.5h-201v4q0 148 83.5 239t217.5 91q52 0 94.5 -15t83.5 -47q43 32 87.5 47t94.5 15q135 0 210 -82.5t75 -231.5v-272h-379v-201q0 -83 20.5 -116t67.5 -33q50 0 69 27.5 t19 121.5v74h203v-80q0 -162 -73 -246t-214 -84q-88 0 -148.5 37.5t-113.5 124.5q-65 -73 -129 -110t-123 -37q-82 0 -128 61.5t-46 173.5zM256 274q0 -51 15.5 -78.5t43.5 -27.5q40 0 72.5 24.5t56.5 73.5v277q-110 -74 -149 -131t-39 -138zM647 674h176v108q0 66 -21 95.5 t-67 29.5t-67 -29t-21 -96v-108z" />
<glyph unicode="&#xe7;" d="M76 301v471q0 147 82.5 234.5t216.5 87.5q133 0 208.5 -83t75.5 -231v-84h-204v86q0 67 -20.5 96t-65.5 29q-47 0 -67.5 -29t-20.5 -96v-475q0 -84 19.5 -116.5t66.5 -32.5q49 0 68.5 27.5t19.5 121.5v82h204v-88q0 -164 -74.5 -247t-222.5 -83q-132 0 -209 88.5 t-77 241.5zM152 -240q35 -8 67.5 -12t63.5 -4q37 0 59.5 14t22.5 37q0 30 -28 45t-83 15h-10l62 145h69l-35 -78h17q95 0 148 -33.5t53 -93.5q0 -64 -61.5 -97.5t-178.5 -33.5q-40 0 -81 4.5t-85 14.5v77z" />
<glyph unicode="&#xe8;" d="M76 301v479q0 139 84 226.5t217 87.5q136 0 209 -81t73 -233v-272h-378v-201q0 -84 19.5 -116.5t66.5 -32.5q49 0 68.5 27.5t19.5 121.5v74h204v-80q0 -164 -74.5 -247t-222.5 -83q-133 0 -209.5 88t-76.5 242zM281 674h174v108q0 67 -20.5 96t-65.5 29q-47 0 -67.5 -29 t-20.5 -96v-108zM144 1389h251l99 -222h-162z" />
<glyph unicode="&#xe9;" d="M76 301v479q0 139 84 226.5t217 87.5q136 0 209 -81t73 -233v-272h-378v-201q0 -84 19.5 -116.5t66.5 -32.5q49 0 68.5 27.5t19.5 121.5v74h204v-80q0 -164 -74.5 -247t-222.5 -83q-133 0 -209.5 88t-76.5 242zM281 674h174v108q0 67 -20.5 96t-65.5 29q-47 0 -67.5 -29 t-20.5 -96v-108zM262 1167l97 222h254l-189 -222h-162z" />
<glyph unicode="&#xea;" d="M76 301v479q0 139 84 226.5t217 87.5q136 0 209 -81t73 -233v-272h-378v-201q0 -84 19.5 -116.5t66.5 -32.5q49 0 68.5 27.5t19.5 121.5v74h204v-80q0 -164 -74.5 -247t-222.5 -83q-133 0 -209.5 88t-76.5 242zM281 674h174v108q0 67 -20.5 96t-65.5 29q-47 0 -67.5 -29 t-20.5 -96v-108zM125 1167l154 222h196l154 -222h-162l-90 109l-90 -109h-162z" />
<glyph unicode="&#xeb;" d="M76 301v479q0 139 84 226.5t217 87.5q136 0 209 -81t73 -233v-272h-378v-201q0 -84 19.5 -116.5t66.5 -32.5q49 0 68.5 27.5t19.5 121.5v74h204v-80q0 -164 -74.5 -247t-222.5 -83q-133 0 -209.5 88t-76.5 242zM281 674h174v108q0 67 -20.5 96t-65.5 29q-47 0 -67.5 -29 t-20.5 -96v-108zM150 1178v200h182v-200h-182zM420 1178v200h184v-200h-184z" />
<glyph unicode="&#xec;" horiz-adv-x="393" d="M96 0v1067h201v-1067h-201zM-36 1389h251l99 -222h-162z" />
<glyph unicode="&#xed;" horiz-adv-x="393" d="M96 0v1067h201v-1067h-201zM82 1167l97 222h254l-189 -222h-162z" />
<glyph unicode="&#xee;" horiz-adv-x="393" d="M96 0v1067h201v-1067h-201zM-55 1167l154 222h196l154 -222h-162l-90 109l-90 -109h-162z" />
<glyph unicode="&#xef;" horiz-adv-x="393" d="M96 0v1067h201v-1067h-201zM-30 1178v200h182v-200h-182zM240 1178v200h184v-200h-184z" />
<glyph unicode="&#xf0;" horiz-adv-x="727" d="M76 270v504q0 125 80 199t215 74q7 0 16 -1t19 -2q-18 40 -42 76t-57 72l-164 -129l-53 78l154 121q-19 20 -41 43.5t-68 68.5l92 101q32 -25 65.5 -55t69.5 -66l152 121l57 -76l-143 -113q116 -130 169.5 -265t53.5 -298v-457q0 -137 -77 -215t-212 -78 q-130 0 -208 80.5t-78 216.5zM281 250q0 -44 21 -68t60 -24q41 0 64 24t23 68v553q0 35 -24 56.5t-63 21.5q-36 0 -58.5 -22t-22.5 -56v-553z" />
<glyph unicode="&#xf1;" horiz-adv-x="756" d="M96 0v1067h201v-117q55 64 113.5 97.5t113.5 33.5q70 0 105 -47t35 -141v-893h-199v805q0 50 -11.5 67t-41.5 17q-22 0 -54.5 -22.5t-60.5 -57.5v-809h-201zM137 1176v16q0 86 42 135t116 49q45 0 107.5 -30.5t84.5 -30.5q23 0 37 15.5t14 41.5v8h107v-16 q0 -87 -42.5 -136.5t-115.5 -49.5q-45 0 -107.5 30.5t-84.5 30.5q-24 0 -37.5 -15t-13.5 -40v-8h-107z" />
<glyph unicode="&#xf2;" horiz-adv-x="727" d="M76 270v553q0 124 80 197.5t215 73.5q123 0 201.5 -77.5t78.5 -199.5v-551q0 -137 -77 -215t-212 -78q-130 0 -208 80.5t-78 216.5zM281 250q0 -44 21 -68t60 -24q40 0 63.5 24.5t23.5 67.5v581q0 35 -24 56.5t-63 21.5q-36 0 -58.5 -21.5t-22.5 -56.5v-581zM132 1389 h251l99 -222h-162z" />
<glyph unicode="&#xf3;" horiz-adv-x="727" d="M76 270v553q0 124 80 197.5t215 73.5q123 0 201.5 -77.5t78.5 -199.5v-551q0 -137 -77 -215t-212 -78q-130 0 -208 80.5t-78 216.5zM281 250q0 -44 21 -68t60 -24q40 0 63.5 24.5t23.5 67.5v581q0 35 -24 56.5t-63 21.5q-36 0 -58.5 -21.5t-22.5 -56.5v-581zM250 1167 l97 222h254l-189 -222h-162z" />
<glyph unicode="&#xf4;" horiz-adv-x="727" d="M76 270v553q0 124 80 197.5t215 73.5q123 0 201.5 -77.5t78.5 -199.5v-551q0 -137 -77 -215t-212 -78q-130 0 -208 80.5t-78 216.5zM281 250q0 -44 21 -68t60 -24q40 0 63.5 24.5t23.5 67.5v581q0 35 -24 56.5t-63 21.5q-36 0 -58.5 -21.5t-22.5 -56.5v-581zM113 1167 l154 222h196l154 -222h-162l-90 109l-90 -109h-162z" />
<glyph unicode="&#xf5;" horiz-adv-x="727" d="M76 270v553q0 124 80 197.5t215 73.5q123 0 201.5 -77.5t78.5 -199.5v-551q0 -137 -77 -215t-212 -78q-130 0 -208 80.5t-78 216.5zM281 250q0 -44 21 -68t60 -24q40 0 63.5 24.5t23.5 67.5v581q0 35 -24 56.5t-63 21.5q-36 0 -58.5 -21.5t-22.5 -56.5v-581zM111 1176v16 q0 86 42 135t116 49q45 0 107.5 -30.5t84.5 -30.5q23 0 37 15.5t14 41.5v8h107v-16q0 -87 -42.5 -136.5t-115.5 -49.5q-45 0 -107.5 30.5t-84.5 30.5q-24 0 -37.5 -15t-13.5 -40v-8h-107z" />
<glyph unicode="&#xf6;" horiz-adv-x="727" d="M76 270v553q0 124 80 197.5t215 73.5q123 0 201.5 -77.5t78.5 -199.5v-551q0 -137 -77 -215t-212 -78q-130 0 -208 80.5t-78 216.5zM281 250q0 -44 21 -68t60 -24q40 0 63.5 24.5t23.5 67.5v581q0 35 -24 56.5t-63 21.5q-36 0 -58.5 -21.5t-22.5 -56.5v-581zM138 1178 v200h182v-200h-182zM408 1178v200h184v-200h-184z" />
<glyph unicode="&#xf7;" horiz-adv-x="1706" d="M254 528v166h1198v-166h-1198zM717 229q0 57 40.5 97.5t96.5 40.5q57 0 97 -40.5t40 -97.5q0 -56 -39.5 -95.5t-97.5 -39.5t-97.5 39t-39.5 96zM717 989q0 57 40.5 98t96.5 41q57 0 97 -41t40 -98q0 -56 -39.5 -95.5t-97.5 -39.5t-97.5 39t-39.5 96z" />
<glyph unicode="&#xf8;" horiz-adv-x="727" d="M43 -47l68 158q-17 23 -26 59.5t-9 79.5v573q0 124 80 197.5t215 73.5q44 0 79.5 -9t67.5 -28l19 39h139l-60 -140q17 -23 26 -59.5t9 -79.5v-571q0 -124 -79.5 -198.5t-213.5 -74.5q-43 0 -79 9.5t-70 29.5l-27 -59h-139zM274 465l172 401q-7 26 -28.5 40t-52.5 14 q-38 0 -64.5 -24t-26.5 -58v-373zM283 201q7 -25 28.5 -38t53.5 -13q37 0 62.5 22.5t25.5 56.5v373z" />
<glyph unicode="&#xf9;" horiz-adv-x="756" d="M92 174v893h199v-819q0 -38 12.5 -55t40.5 -17q22 0 55.5 22.5t61.5 57.5v811h198v-1067h-198v117q-55 -65 -114.5 -99t-115.5 -34q-69 0 -104 47.5t-35 142.5zM146 1389h251l99 -222h-162z" />
<glyph unicode="&#xfa;" horiz-adv-x="756" d="M92 174v893h199v-819q0 -38 12.5 -55t40.5 -17q22 0 55.5 22.5t61.5 57.5v811h198v-1067h-198v117q-55 -65 -114.5 -99t-115.5 -34q-69 0 -104 47.5t-35 142.5zM264 1167l97 222h254l-189 -222h-162z" />
<glyph unicode="&#xfb;" horiz-adv-x="756" d="M92 174v893h199v-819q0 -38 12.5 -55t40.5 -17q22 0 55.5 22.5t61.5 57.5v811h198v-1067h-198v117q-55 -65 -114.5 -99t-115.5 -34q-69 0 -104 47.5t-35 142.5zM127 1167l154 222h196l154 -222h-162l-90 109l-90 -109h-162z" />
<glyph unicode="&#xfc;" horiz-adv-x="756" d="M92 174v893h199v-819q0 -38 12.5 -55t40.5 -17q22 0 55.5 22.5t61.5 57.5v811h198v-1067h-198v117q-55 -65 -114.5 -99t-115.5 -34q-69 0 -104 47.5t-35 142.5zM152 1178v200h182v-200h-182zM422 1178v200h184v-200h-184z" />
<glyph unicode="&#xfd;" horiz-adv-x="653" d="M18 1067h187l123 -684h8l100 684h199l-225 -1141q-28 -141 -95 -201.5t-196 -60.5q-25 0 -43 0.5t-37 2.5v190h37q84 0 120 37.5t42 130.5zM213 1167l97 222h254l-189 -222h-162z" />
<glyph unicode="&#xfe;" horiz-adv-x="739" d="M96 -336v1782h201v-463q39 50 85 74t103 24q87 0 134 -61t47 -176v-590q0 -131 -49.5 -199.5t-143.5 -68.5q-46 0 -91 25.5t-85 74.5v-422h-201zM297 199q23 -23 43 -34t39 -11q40 0 61 28.5t21 83.5v551q0 50 -16.5 72t-53.5 22q-26 0 -48.5 -11t-45.5 -36v-665z" />
<glyph unicode="&#xff;" horiz-adv-x="653" d="M18 1067h187l123 -684h8l100 684h199l-225 -1141q-28 -141 -95 -201.5t-196 -60.5q-25 0 -43 0.5t-37 2.5v190h37q84 0 120 37.5t42 130.5zM101 1178v200h182v-200h-182zM371 1178v200h184v-200h-184z" />
<glyph unicode="&#x131;" horiz-adv-x="393" d="M96 0v1067h201v-1067h-201z" />
<glyph unicode="&#x152;" horiz-adv-x="1188" d="M88 371v741q0 171 93 268t257 97q34 0 71 -8t75 -23h542v-209h-358v-379h260v-209h-260v-432h358v-217h-542q-41 -15 -80 -23t-74 -8q-166 0 -254 103t-88 299zM315 305q0 -63 33 -100t86 -37q52 0 81.5 35.5t29.5 99.5v858q0 52 -31.5 83.5t-83.5 31.5 q-50 0 -82.5 -32.5t-32.5 -82.5v-856z" />
<glyph unicode="&#x153;" horiz-adv-x="1100" d="M76 270v553q0 124 80 197.5t215 73.5q54 0 100 -16t86 -48q47 32 94 48t97 16q132 0 207 -83t75 -231v-272h-379v-201q0 -83 20.5 -116t67.5 -33q50 0 69 27.5t19 121.5v74h203v-80q0 -162 -73 -246t-214 -84q-55 0 -101.5 16t-84.5 48q-40 -33 -86 -48.5t-109 -15.5 q-130 0 -208 81t-78 218zM281 250q0 -42 22.5 -67t58.5 -25q41 0 64 24t23 68v581q0 35 -24 56.5t-63 21.5q-36 0 -58.5 -21.5t-22.5 -56.5v-581zM651 674h176v108q0 66 -21 96.5t-67 30.5t-67 -29.5t-21 -97.5v-108z" />
<glyph unicode="&#x178;" horiz-adv-x="702" d="M-25 1446h226l145 -578h14l138 578h227l-260 -846v-600h-223v573zM125 1530v200h182v-200h-182zM395 1530v200h184v-200h-184z" />
<glyph unicode="&#x2c6;" horiz-adv-x="1024" d="M260 1167l154 222h196l154 -222h-162l-90 109l-90 -109h-162z" />
<glyph unicode="&#x2dc;" horiz-adv-x="1024" d="M258 1176v16q0 86 42 135t116 49q45 0 107.5 -30.5t84.5 -30.5q23 0 37 15.5t14 41.5v8h107v-16q0 -87 -42.5 -136.5t-115.5 -49.5q-45 0 -107.5 30.5t-84.5 30.5q-24 0 -37.5 -15t-13.5 -40v-8h-107z" />
<glyph unicode="&#x2000;" horiz-adv-x="924" />
<glyph unicode="&#x2001;" horiz-adv-x="1849" />
<glyph unicode="&#x2002;" horiz-adv-x="924" />
<glyph unicode="&#x2003;" horiz-adv-x="1849" />
<glyph unicode="&#x2004;" horiz-adv-x="616" />
<glyph unicode="&#x2005;" horiz-adv-x="462" />
<glyph unicode="&#x2006;" horiz-adv-x="308" />
<glyph unicode="&#x2007;" horiz-adv-x="308" />
<glyph unicode="&#x2008;" horiz-adv-x="231" />
<glyph unicode="&#x2009;" horiz-adv-x="369" />
<glyph unicode="&#x200a;" horiz-adv-x="102" />
<glyph unicode="&#x2010;" horiz-adv-x="635" d="M80 457v151h475v-151h-475z" />
<glyph unicode="&#x2011;" horiz-adv-x="635" d="M80 457v151h475v-151h-475z" />
<glyph unicode="&#x2012;" horiz-adv-x="635" d="M80 457v151h475v-151h-475z" />
<glyph unicode="&#x2013;" horiz-adv-x="1024" d="M0 467v133h1024v-133h-1024z" />
<glyph unicode="&#x2014;" horiz-adv-x="2048" d="M0 467v133h2048v-133h-2048z" />
<glyph unicode="&#x2018;" horiz-adv-x="440" d="M115 963v227l112 256h101l-76 -256h76v-227h-213z" />
<glyph unicode="&#x2019;" horiz-adv-x="440" d="M115 963l73 256h-73v227h213v-227l-115 -256h-98z" />
<glyph unicode="&#x201a;" horiz-adv-x="440" d="M115 0v227h213v-227l-115 -256h-98l73 256h-73z" />
<glyph unicode="&#x201c;" horiz-adv-x="739" d="M115 963v227l112 256h101l-76 -256h76v-227h-213zM412 963v227l114 256h101l-76 -256h76v-227h-215z" />
<glyph unicode="&#x201d;" horiz-adv-x="739" d="M115 963l73 256h-73v227h213v-227l-115 -256h-98zM412 963l75 256h-75v227h215v-227l-115 -256h-100z" />
<glyph unicode="&#x201e;" horiz-adv-x="739" d="M115 0v227h213v-227l-115 -256h-98l73 256h-73zM412 0v227h215v-227l-115 -256h-100l75 256h-75z" />
<glyph unicode="&#x2022;" horiz-adv-x="1208" d="M307 762q0 123 87 209t210 86q122 0 208.5 -86.5t86.5 -208.5t-87.5 -209.5t-209.5 -87.5q-123 0 -209 87t-86 210z" />
<glyph unicode="&#x2026;" horiz-adv-x="2048" d="M236 0v227h213v-227h-213zM918 0v227h213v-227h-213zM1602 0v227h213v-227h-213z" />
<glyph unicode="&#x202f;" horiz-adv-x="369" />
<glyph unicode="&#x2039;" horiz-adv-x="473" d="M76 530l147 318h172l-139 -318l139 -315h-172z" />
<glyph unicode="&#x203a;" horiz-adv-x="473" d="M76 215l139 315l-139 318h172l147 -318l-147 -315h-172z" />
<glyph unicode="&#x205f;" horiz-adv-x="462" />
<glyph unicode="&#x2122;" horiz-adv-x="1706" d="M225 1366v94h467v-94h-168v-448h-129v448h-170zM809 918v542h170l141 -360l133 360h170v-542h-114v428l-160 -428h-59l-166 428v-428h-115z" />
<glyph unicode="&#xe000;" horiz-adv-x="1065" d="M0 1065h1065v-1065h-1065v1065z" />
<glyph unicode="&#xfb01;" horiz-adv-x="870" d="M573 0v1067h201v-1067h-201zM573 1247v199h201v-199h-201zM10 901v166h113v125q0 127 58 190.5t173 63.5q31 0 59 -4t56 -12v-174q-21 4 -35 7t-18 3q-50 0 -72 -21t-22 -69v-109h127v-166h-127v-901h-199v901h-113z" />
<glyph unicode="&#xfb02;" horiz-adv-x="870" d="M573 0v1446h201v-1446h-201zM10 901v166h113v125q0 127 58 190.5t173 63.5q31 0 59 -4t56 -12v-174q-21 4 -35 7t-18 3q-50 0 -72 -21t-22 -69v-109h127v-166h-127v-901h-199v901h-113z" />
<glyph unicode="&#xfb03;" horiz-adv-x="1347" d="M1050 0v1067h201v-1067h-201zM1050 1247v199h201v-199h-201zM487 901v166h113v125q0 127 58 190.5t173 63.5q31 0 59 -4t56 -12v-174q-21 4 -35 7t-18 3q-50 0 -72 -21t-22 -69v-109h127v-166h-127v-901h-199v901h-113zM10 901v166h113v125q0 127 58 190.5t173 63.5 q31 0 59 -4t56 -12v-174q-21 4 -35 7t-18 3q-50 0 -72 -21t-22 -69v-109h127v-166h-127v-901h-199v901h-113z" />
<glyph unicode="&#xfb04;" horiz-adv-x="1347" d="M1050 0v1446h201v-1446h-201zM487 901v166h113v125q0 127 58 190.5t173 63.5q31 0 59 -4t56 -12v-174q-21 4 -35 7t-18 3q-50 0 -72 -21t-22 -69v-109h127v-166h-127v-901h-199v901h-113zM10 901v166h113v125q0 127 58 190.5t173 63.5q31 0 59 -4t56 -12v-174 q-21 4 -35 7t-18 3q-50 0 -72 -21t-22 -69v-109h127v-166h-127v-901h-199v901h-113z" />
</font>
</defs>
</svg>
