<?xml version="1.0" standalone="no"?>
<!DOCTYPE svg PUBLIC "-//W3C//DTD SVG 1.1//EN" "http://www.w3.org/Graphics/SVG/1.1/DTD/svg11.dtd" >
<svg>
<metadata>
Created by FontForge 20090914 at Mon Feb  3 13:04:39 2014
 By www-data
&#194;&#169; 2000 Ray Larabie. This font is freeware. Read attached text file for details. Info &#38; updates visit www.larabiefonts.com. Donations gratefully accepted at www.larabiefonts.com/donation.html. Also visit my commercial type foundry at www.typodermic.com. This font was updated in 2004.
</metadata>
<defs>
<font id="Neuropol" horiz-adv-x="1446" >
  <font-face 
    font-family="Neuropol"
    font-weight="400"
    font-stretch="normal"
    units-per-em="2048"
    panose-1="2 11 5 0 0 0 0 0 0 0"
    ascent="1638"
    descent="-410"
    x-height="919"
    cap-height="1210"
    bbox="-143.538 -442 3078 1693"
    underline-thickness="20"
    underline-position="-113"
    unicode-range="U+0020-U+2122"
  />
<missing-glyph horiz-adv-x="582" 
 />
    <glyph glyph-name=".notdef" horiz-adv-x="582" 
 />
    <glyph glyph-name="space" unicode=" " horiz-adv-x="582" 
 />
    <glyph glyph-name="space" unicode="&#xa0;" horiz-adv-x="582" 
 />
    <glyph glyph-name="exclam" unicode="!" horiz-adv-x="403" 
d="M313 314c0 -38.667 -15.667 -62.668 -47 -72.001c-13.333 -4 -45.333 -6 -96 -6c-52.667 0 -79 26 -79 78v825c0 52.667 26.333 79 79 79c50.667 0 82.667 -2 96 -6c31.333 -9.33301 47 -33.666 47 -72.999v-825zM339 101.999c0 -35.333 -14.668 -63 -44.001 -83
c-25.333 -17.333 -56.666 -26 -93.999 -26c-91.333 0 -137 36.333 -137 109c0 34.667 14.667 61.667 44 81c27.333 17.333 58.333 26 93 26s65.667 -8.66699 93 -26c30 -20 45 -47 45 -81z" />
    <glyph glyph-name="quotedbl" unicode="&#x22;" horiz-adv-x="679" 
d="M616 1127c0 -3.33301 -0.167969 -6.83398 -0.500977 -10.501s-0.833008 -7.5 -1.5 -11.5l-49 -290c-5.33301 -33.333 -23 -53.666 -53 -60.999c-4.66699 -2.66699 -34 -4 -88 -4c-53.333 0 -80 23 -80 69c0 3.33301 0.166992 6.83301 0.5 10.5s0.833008 7.5 1.5 11.5
l47 289c6 33.333 24 54 54 62c4.66699 2.66699 34.334 4 89.001 4c53.333 0 80 -23 80 -69zM333.999 1127c0 -3.33301 -0.167969 -6.83398 -0.500977 -10.501s-0.833008 -7.5 -1.5 -11.5l-49 -290c-5.33301 -33.333 -23 -53.666 -53 -60.999
c-4.66699 -2.66699 -34 -4 -88 -4c-53.333 0 -80 23 -80 69c0 3.33301 0.166992 6.83301 0.5 10.5s0.833008 7.5 1.5 11.5l47 289c6 33.333 24 54 54 62c4.66699 2.66699 34.334 4 89.001 4c53.333 0 80 -23 80 -69z" />
    <glyph glyph-name="numbersign" unicode="#" horiz-adv-x="1464" 
d="M1421 778c0 -26.667 -7.99805 -51.001 -23.998 -73.001c-19.333 -24 -41.666 -36 -66.999 -36h-256l-49 -134h196c54.667 0 82 -24 82 -72c0 -26 -8.33301 -50.333 -25 -73c-19.333 -25.333 -41.333 -38 -66 -38h-255l-102 -276c-9.33301 -26 -28.333 -42 -57 -48
c-9.33301 -2 -36 -3 -80 -3c-54 0 -81 21 -81 63c0 5.33301 2.66699 19.333 8 42l82 222h-175l-101 -276c-9.33301 -26 -28.333 -42 -57 -48c-9.33301 -2 -36 -3 -80 -3c-54.667 0 -82 21 -82 63c0 10.667 3 24.667 9 42l81 222h-195c-56.667 0 -85 22.667 -85 68
c0 26.667 9.33301 52.334 28 77.001c19.333 25.333 41.666 38 66.999 38h254l49 134h-196c-54.667 0 -82 24 -82 72c0 28 8.33301 52.333 25 73c18.667 24.667 40.667 37 66 37h256l101 277c10 26 29 42 57 48c10 2 36.667 3 80 3c54.667 0 82 -21 82 -63
c0 -12 -3 -26.333 -9 -43l-81 -222h173l102 277c10 26.667 29.333 43 58 49c3.33301 0.666992 11.666 1.16699 24.999 1.5s31.666 0.5 54.999 0.5c54 0 81 -21 81 -63c0 -6 -2.66699 -20.333 -8 -43l-82 -222h196c54.667 0 82 -24.333 82 -73zM846.002 668.999h-177
l-48 -134h175z" />
    <glyph glyph-name="dollar" unicode="$" horiz-adv-x="1469" 
d="M1426 292c0 -198 -190.999 -297 -572.999 -297c0 -52 -11.667 -84.667 -35 -98c-20.667 -7.33301 -57 -11 -109 -11c-34.667 0 -57.334 10.333 -68.001 31c-6.66699 12.667 -10 38.667 -10 78l-387 -1c-32 0 -58.5 0.666992 -79.5 2s-37.167 3.33301 -48.5 6
c-48 12.667 -72 42.667 -72 90c0 56.667 27.333 85 82 85h505v338c-330 0 -518.333 74.333 -565 223c-6.66699 14 -10 68 -10 162c0 205.333 191.667 308 575 308c0 47.333 13.333 76.333 40 87c8.66699 4.66699 43 7 103 7c52.667 0 79 -25.667 79 -77v-528
c382 0 573 -98.333 573 -295v-110zM1206 290v105c0 57.333 -47.667 94 -143 110c-26 6.66699 -96 10 -210 10v-338h19h11c9.33301 0 14.333 -0.333008 15 -1s3 -1 7 -1h7h12h19c175.333 0 263 38.333 263 115zM631.001 693l-0.000976562 333.999
c-52.667 0 -96.667 -0.833008 -132 -2.5s-61.666 -4.16699 -78.999 -7.5c-95.333 -17.333 -143 -55.666 -143 -114.999v-90c0 -56 48 -92.333 144 -109c26 -6.66699 96 -10 210 -10z" />
    <glyph glyph-name="percent" unicode="%" horiz-adv-x="1950" 
d="M1911 176c0 -94.667 -62.667 -157.667 -188 -189c-32.667 -7.33301 -74 -13 -124 -17s-109.333 -6 -178 -6c-282 0 -423 68.667 -423 206v157c0 93.333 56 155.666 168 186.999c52 16.667 145.667 25 281 25c136 0 232 -8.33301 288 -25
c117.333 -31.333 176 -93.666 176 -186.999v-151zM1682 1148c0 -24 -12.002 -47.333 -36.002 -70l-1106 -1057c-21.333 -19.333 -78.666 -29 -171.999 -29c-54.667 0 -82 22.333 -82 67c0 24 11.667 47 35 69l1111 1061c16.667 16 71.334 24 164.001 24
c57.333 0 86 -21.667 86 -65zM952.998 835c0 -144 -158.667 -216 -476 -216c-291.333 0 -437 70 -437 210v157c0 92 56 154 168 186c68 17.333 161.667 26 281 26s215.333 -8.66699 288 -26c117.333 -32 176 -94 176 -186v-151zM1646 236v22c0 62.667 -43.667 94 -131 94
h-20h-13c-9.33301 0 -14.333 0.333008 -15 1c-10.667 0.666992 -20 1.16699 -28 1.5s-14.667 0.5 -20 0.5c-122 0 -183 -32.333 -183 -97c0 -52 21 -86.333 63 -103c34 -11.333 77 -17 129 -17c145.333 0 218 32.667 218 98zM688.998 895c0 57.333 -26.333 93.333 -79 108
c-15.333 3.33301 -35.333 6 -60 8s-54 3 -88 3c-122.667 0 -184 -32 -184 -96c0 -80 60.333 -120 181 -120c153.333 0 230 32.333 230 97z" />
    <glyph glyph-name="ampersand" unicode="&#x26;" horiz-adv-x="1706" 
d="M1665 65c0 -48 -30.333 -71.9971 -91 -71.9971h-47h-18c-7.33301 0 -11.333 0.333008 -12 1c-14.667 1.33301 -59.667 24.666 -135 69.999c-90 -48 -216.333 -72 -379 -72h-425c-126 0 -234 20.333 -324 61c-128.667 54 -193 131.333 -193 232v83
c0 78.667 33.667 140.667 101 186c36.667 24.667 105.667 52.667 207 84c-108.667 88.667 -167 153.334 -175 194.001c-2 10 -3 23 -3 39c0 24.667 0.666992 47.667 2 69s3.33301 41 6 59c2 14.667 11.333 34.334 28 59.001c67.333 101.333 199 152 395 152h235
c108 0 199.667 -19 275 -57c96.667 -48.667 145 -121.667 145 -219c0 -23.333 -0.5 -43.333 -1.5 -60s-2.16699 -30.334 -3.5 -41.001c-6.66699 -46 -64.334 -97.667 -173.001 -155c-40 -20.667 -79.167 -39 -117.5 -55s-77.5 -30.333 -117.5 -43l477 -270l1 252
c0 38.667 16 62.667 48 72c12.667 4 44.334 6 95.001 6c52 0 78 -26 78 -78l1 -247c0.666992 8.66699 1.16699 17.5 1.5 26.5s0.833008 18.833 1.5 29.5c-0.666992 -0.666992 -1 -4.33398 -1 -11.001v-10v-19v-16c0 -8.66699 -0.333008 -13.334 -1 -14.001l-1 14
c-5.33301 -50.667 -15 -89.334 -29 -116.001l99 -59c34 -20 51 -45 51 -75zM1034 876.003v59c0 62.667 -67 94 -201 94h-237c-136 0 -204 -30 -204 -90v-65c0 -24 13.333 -44 40 -60l176 -105l274 77c101.333 29.333 152 59.333 152 90zM1151 184.003l-575 327
c-208 -60 -312 -107 -312 -141v-80c0 -40.667 42.667 -71.667 128 -93c52 -14.667 111.667 -22 179 -22h414c80.667 0 136 3 166 9z" />
    <glyph glyph-name="quotesingle" unicode="'" horiz-adv-x="397" 
d="M334 1127c0 -3.33301 -0.167969 -6.83398 -0.500977 -10.501s-0.833008 -7.5 -1.5 -11.5l-49 -290c-5.33301 -33.333 -23 -53.666 -53 -60.999c-4.66699 -2.66699 -34 -4 -88 -4c-53.333 0 -80 23 -80 69c0 3.33301 0.166992 6.83301 0.5 10.5s0.833008 7.5 1.5 11.5
l47 289c6 33.333 24 54 54 62c4.66699 2.66699 34.334 4 89.001 4c53.333 0 80 -23 80 -69z" />
    <glyph glyph-name="parenleft" unicode="(" horiz-adv-x="563" 
d="M499 1143c0 -30 -18.334 -57.333 -55.001 -82l-104 -70c-36.667 -34 -55 -77.667 -55 -131v-516c0 -67.333 52.667 -134.666 158 -201.999c36.667 -22.667 55 -49 55 -79c0 -47.333 -30 -71 -90 -71c-48 0 -79.333 3 -94 9c-167.333 69.333 -251 183.666 -251 342.999
v516c0 165.333 84.667 280 254 344c10.667 4 45.334 6 104.001 6c52 0 78 -22.333 78 -67z" />
    <glyph glyph-name="parenright" unicode=")" horiz-adv-x="559" 
d="M497 344c0 -73.333 -24.666 -142.665 -73.999 -207.998c-46 -61.333 -105 -106.333 -177 -135c-15.333 -6 -47 -9 -95 -9c-58.667 0 -88 23.333 -88 70c0 29.333 18.333 56.333 55 81l102 72c36.667 34.667 55 77.667 55 129v516c0 60 -54.333 128.333 -163 205
c-33.333 23.333 -50 49.666 -50 78.999c0 44 25.333 66 76 66c59.333 0 94.666 -2 105.999 -6c168.667 -64.667 253 -179.334 253 -344.001v-516z" />
    <glyph glyph-name="asterisk" unicode="*" horiz-adv-x="1091" 
d="M1020 1038c0 -32.667 -24.001 -54.3311 -72.001 -64.998l-116 -26l112 -27c47.333 -11.333 71 -33.333 71 -66c0 -23.333 -16 -50.333 -48 -81c-33.333 -31.333 -60.333 -47 -81 -47c-4.66699 0 -16 2.66699 -34 8l-212 96c19.333 -92.667 29 -136.667 29 -132
c0 -46.667 -27 -70 -81 -70c-55.333 0 -89 1 -101 3c-44 6.66699 -66 26 -66 58c0 15.333 9 62.666 27 141.999l-209 -98c-18 -5.33301 -29.667 -8 -35 -8c-21.333 0 -48.666 15.667 -81.999 47c-32.667 32 -49 59 -49 81c0 33.333 23.667 55.666 71 66.999l108 26l-108 25
c-48 10.667 -72 32.667 -72 66c0 22 16 49.667 48 83c32.667 32.667 60.334 49 83.001 49c2.66699 0 13.667 -2.66699 33 -8l212 -97c-18.667 70.667 -28 118.334 -28 143.001c0 30.667 22.667 49.667 68 57c4 0.666992 14.5 1.16699 31.5 1.5s40.833 0.5 71.5 0.5
c54 0 81 -22.333 81 -67c0 -18.667 -10.333 -62.334 -31 -131.001l217 97c18 5.33301 29.667 8 35 8c21.333 0 47.666 -17 78.999 -51c32 -34 48 -62 48 -84z" />
    <glyph glyph-name="plus" unicode="+" horiz-adv-x="791" 
d="M758 600c0 -59.333 -27.333 -88.999 -82 -88.999h-176v-115c0 -52.667 -26.333 -79 -79 -79c-52 0 -85.333 4.33301 -100 13c-23.333 13.333 -35 41.666 -35 84.999v20v13c0 9.33301 0.333008 14.333 1 15s1 5.66699 1 15v13v20h-172c-55.333 0 -83 29.667 -83 89
s27.667 89 83 89h169v108c0 51.333 26.333 77 79 77c72.667 0 115 -11 127 -33c6 -11.333 9 -62 9 -152h176c54.667 0 82 -29.667 82 -89z" />
    <glyph glyph-name="comma" unicode="," horiz-adv-x="387" 
d="M329 223c0 -3.33301 -0.167969 -6.99805 -0.500977 -10.998s-0.833008 -8 -1.5 -12l-48 -290c-4.66699 -32.667 -22.667 -53 -54 -61c-7.33301 -1.33301 -18.333 -2.5 -33 -3.5s-33 -1.5 -55 -1.5c-52.667 0 -79 23 -79 69c0 3.33301 0.166992 6.66602 0.5 9.99902
s0.833008 7.33301 1.5 12l46 291c4.66699 31.333 22.667 51.666 54 60.999c6.66699 1.33301 17.334 2.5 32.001 3.5s33.667 1.5 57 1.5c53.333 0 80 -23 80 -69z" />
    <glyph glyph-name="hyphen" unicode="-" horiz-adv-x="951" 
d="M882 495c0 -52 -26.332 -78 -78.999 -78h-656c-38.667 0 -62.334 6.33301 -71.001 19c-5.33301 9.33301 -8 33.333 -8 72c0 52 26.333 78 79 78h656c37.333 0 60.333 -6.33301 69 -19c6.66699 -8.66699 10 -32.667 10 -72z" />
    <glyph glyph-name="hyphen" unicode="&#xad;" horiz-adv-x="951" 
d="M882 495c0 -52 -26.332 -78 -78.999 -78h-656c-38.667 0 -62.334 6.33301 -71.001 19c-5.33301 9.33301 -8 33.333 -8 72c0 52 26.333 78 79 78h656c37.333 0 60.333 -6.33301 69 -19c6.66699 -8.66699 10 -32.667 10 -72z" />
    <glyph glyph-name="period" unicode="." horiz-adv-x="372" 
d="M324 102c0 -34 -15 -61.333 -45 -82c-26 -18 -57 -27 -93 -27c-37.333 0 -68.666 8.66699 -93.999 26c-29.333 20 -44 47.667 -44 83c0 34.667 14.667 61.667 44 81c27.333 17.333 58.333 26 93 26c35.333 0 66.666 -8.66699 93.999 -26c30 -20 45 -47 45 -81z" />
    <glyph glyph-name="slash" unicode="/" horiz-adv-x="1387" 
d="M1366 1145c0 -24 -11.335 -47 -34.002 -69l-1098 -1061c-17.333 -15.333 -58.666 -23 -123.999 -23c-59.333 0 -89 22 -89 66c0 22.667 11.667 45.667 35 69l1097 1061c14.667 14.667 56.334 22 125.001 22c58.667 0 88 -21.667 88 -65z" />
    <glyph glyph-name="zero" unicode="0" horiz-adv-x="1643" 
d="M1560 319c0 -218 -187.667 -327 -563 -327h-346c-364 0 -552.667 98.667 -566 296c-2 30.667 -3 82 -3 154c0 48.667 1 121.667 3 219c2 96.667 3 169.667 3 219c0 220 187.667 330 563 330h346c375.333 0 563 -109.667 563 -329v-562zM1338 326v549
c0 102.667 -112.333 154 -337 154h-353c-96 0 -166.333 -6 -211 -18c-85.333 -23.333 -128 -69 -128 -137v-550c0 -99.333 113 -149 339 -149h353c105.333 0 175 5.33301 209 16c85.333 22 128 67 128 135z" />
    <glyph glyph-name="one" unicode="1" horiz-adv-x="382" 
d="M302 71c0 -39.333 -15.667 -63.667 -47 -73c-13.333 -4 -45.333 -6 -96 -6c-52.667 0 -79 26.333 -79 79v1061c0 52 26.333 78 79 78c50.667 0 82.667 -2 96 -6c31.333 -9.33301 47 -33.333 47 -72v-1061z" />
    <glyph glyph-name="two" unicode="2" horiz-adv-x="1646" 
d="M1602 912c0 -110.667 -14.001 -189.332 -42.001 -235.999c-68.667 -114.667 -229.667 -172 -483 -172h-505c-205.333 0 -308 -38.333 -308 -115v-214h1255c54 0 81 -30.333 81 -91c0 -61.333 -27 -92 -81 -92h-1397c-52 0 -78 26.333 -78 79v316
c0 136.667 95 228 285 274c36.667 8.66699 75.5 15.167 116.5 19.5s84.833 6.5 131.5 6.5h492c55.333 0 117.333 6.66699 186 20c83.333 20 125 53.333 125 100v104c0 56 -74.333 92.333 -223 109c-54 6 -151 9 -291 9c-32.667 0 -55 10 -67 30
c-7.33301 13.333 -11 37.666 -11 72.999c0 52 26 78 78 78c112.667 0 202.334 -1.16699 269.001 -3.5s114 -5.83301 142 -10.5c87.333 -14.667 160 -44 218 -88c71.333 -54 107 -119.333 107 -196z" />
    <glyph glyph-name="three" unicode="3" horiz-adv-x="1708" 
d="M1634 313c0 -120.667 -59.668 -208 -179.001 -262c-94 -39.333 -206.667 -59 -338 -59h-965c-52 0 -78 26.333 -78 79c0 69.333 26 104 78 104h965c196.667 0 295 43 295 129v115c0 68 -95.333 102 -286 102h-974c-52 0 -78 35 -78 105c0 52 26 78 78 78h975
c190 0 285 36.333 285 109v115c0 48 -40 79 -120 93c-15.333 2.66699 -37.666 4.66699 -66.999 6s-65.333 2 -108 2h-201c-54 0 -81 30.333 -81 91c0 60 27 90 81 90h41h27h15h8c4.66699 0 7.33398 0.333008 8.00098 1c22.667 0.666992 42.167 1.16699 58.5 1.5
s30.166 0.5 41.499 0.5c138 0 250 -14.667 336 -44c122 -45.333 183 -128 183 -248c0 -86.667 -3 -143 -9 -169c-13.333 -55.333 -45 -100.333 -95 -135c50 -37.333 81.333 -82.333 94 -135c6.66699 -20 10 -76.333 10 -169z" />
    <glyph glyph-name="four" unicode="4" horiz-adv-x="1788" 
d="M1718 71c0 -54 -33.667 -81 -101 -81c-53.333 0 -86.333 2 -99 6c-33.333 10 -50 35 -50 75v231h-1286c-74.667 0 -112 42.333 -112 127v702c0 40 16.667 65 50 75c12.667 4 45.667 6 99 6c67.333 0 101 -27 101 -81v-619h1148v619c0 40 16.667 65 50 75
c12.667 4 45.667 6 99 6c67.333 0 101 -27 101 -81v-1060z" />
    <glyph glyph-name="five" unicode="5" horiz-adv-x="1664" 
d="M1625 298c0 -204 -182.668 -306 -548.001 -306h-960c-52 0 -78 26.333 -78 79c0 69.333 26 104 78 104h944c228 0 342 41.333 342 124v178c0 51.333 -35 89 -105 113c-57.333 17.333 -115 26 -173 26h-1008c-52 0 -78 26 -78 78v438c0 52 26 78 78 78h727
c52 0 78 -26 78 -78c0 -35.333 -4 -60 -12 -74c-11.333 -19.333 -33.333 -29 -66 -29h-586v-232h862c128.667 0 237.334 -22.333 326.001 -67c119.333 -57.333 179 -141.333 179 -252v-180z" />
    <glyph glyph-name="six" unicode="6" horiz-adv-x="1705" 
d="M1660 298c0 -110.667 -58.667 -192.665 -176 -245.998c-88 -40 -195 -60 -321 -60h-589c-213.333 0 -358.333 39.333 -435 118c-62.667 62.667 -94 132 -94 208v582c0 208 202.333 312 607 312h47h24h12c7.33301 0 11.333 -0.333008 12 -1
c30 -0.666992 53.5 -1.33398 70.5 -2.00098s27.833 -1.66699 32.5 -3c36.667 -8.66699 55 -33.334 55 -74.001c0 -36 -4 -60.333 -12 -73c-13.333 -20 -35.333 -30 -66 -30h-250c-206.667 0 -310 -42.333 -310 -127v-102h852c147.333 0 263 -18.333 347 -55
c129.333 -52 194 -137.667 194 -257v-190zM1440 301.002v182.999c0 50.667 -41.333 87.334 -124 110.001c-57.333 16 -121.333 24 -192 24h-857v-299c0 -51.333 41 -90 123 -116c52 -18.667 114.667 -28 188 -28h585c60.667 0 117 8 169 24c72 22 108 56 108 102z" />
    <glyph glyph-name="seven" unicode="7" horiz-adv-x="1642" 
d="M1598 1119c0 -30 -14 -61.333 -42 -94l-846 -1004c-17.333 -19.333 -58.333 -29 -123 -29c-54 0 -81 24.667 -81 74c0 20 7 38.667 21 56l768 907h-1172c-52 0 -78 26.333 -78 79c0 68 26 102 78 102h1336c92.667 0 139 -30.333 139 -91z" />
    <glyph glyph-name="eight" unicode="8" horiz-adv-x="1671" 
d="M1596 808c0 -78 -42.3311 -143.335 -126.998 -196.002c59.333 -45.333 96.666 -89.333 111.999 -132c8.66699 -19.333 13 -77.666 13 -174.999c0 -112.667 -61.667 -196.667 -185 -252c-84 -40.667 -195 -61 -333 -61h-475c-121.333 0 -232 20.667 -332 62
c-124 54.667 -186 138 -186 250c0 88 4 146.667 12 176c15.333 53.333 51.666 97.333 108.999 132c-58 28.667 -95.667 68.334 -113 119.001c-10 30 -15 86 -15 168c0 207.333 184.333 311 553 311h419c365.333 0 548 -103.333 548 -310v-92zM1376 810.998l0.000976562 89
c0 86 -109.333 129 -328 129h-419c-220.667 0 -331 -43.333 -331 -130v-88c0 -71.333 103.333 -107 310 -107h461c65.333 0 125.666 6 180.999 18c84 18 126 47.667 126 89zM1374 306.998v103.999c0 39.333 -44.333 69 -133 89c-62 14 -124 21 -186 21h-437
c-77.333 0 -139.333 -6.33301 -186 -19c-86 -19.333 -129 -49.666 -129 -90.999v-106c0 -8 6.33301 -19.333 19 -34c50.667 -64 143.667 -96 279 -96h475c67.333 0 128 8 182 24c77.333 23.333 116 59.333 116 108z" />
    <glyph glyph-name="nine" unicode="9" horiz-adv-x="1671" 
d="M1594 305c0 -142 -91.667 -235.667 -275 -281c-100.667 -21.333 -248.667 -32 -444 -32c-32.667 0 -54.667 9.66699 -66 29c-8 14 -12 39 -12 75c0 52.667 26 79 78 79c8.66699 0 19.167 -0.166992 31.5 -0.5s26.833 -0.833008 43.5 -1.5
c0.666992 -0.666992 4.66699 -1 12 -1h11h20h32c232.667 0 349 50 349 150v82h-756c-360.667 0 -541 103.667 -541 311v192c0 107.333 59 188 177 242c82 40.667 188.333 61 319 61h496c131.333 0 245.333 -20.667 342 -62c122 -56 183 -144.333 183 -265v-578zM1374 585
v297.999c0 53.333 -41 93 -123 119c-57.333 18 -121 27 -191 27h-484c-71.333 0 -128 -7.33301 -170 -22c-72 -21.333 -108 -55.666 -108 -102.999v-185c0 -51.333 41.333 -88.333 124 -111c62.667 -15.333 126.667 -23 192 -23h760z" />
    <glyph glyph-name="colon" unicode=":" horiz-adv-x="374" 
d="M324 575c0 -72.667 -45.668 -109 -137.001 -109c-37.333 0 -68.666 8.66699 -93.999 26c-29.333 20 -44 47.667 -44 83c0 34.667 15 61.667 45 81c25.333 17.333 56 26 92 26c34.667 0 65.667 -8.66699 93 -26c30 -20 45 -47 45 -81zM323.999 108
c0 -34.667 -14.666 -62.001 -43.999 -82.001c-25.333 -17.333 -56.333 -26 -93 -26s-67.667 8.66699 -93 26c-30 18.667 -45 46 -45 82c0 34.667 14.667 62 44 82c27.333 17.333 58.333 26 93 26c37.333 0 68.666 -8.66699 93.999 -26c29.333 -19.333 44 -46.666 44 -81.999
z" />
    <glyph glyph-name="semicolon" unicode=";" horiz-adv-x="413" 
d="M361 572c0 -36 -14.334 -63.332 -43.001 -81.999c-25.333 -17.333 -56.333 -26 -93 -26c-35.333 0 -66.666 8.66699 -93.999 26c-29.333 19.333 -44 46.666 -44 81.999s14.667 62.666 44 81.999c24.667 16.667 55.667 25 93 25s68.333 -8.33301 93 -25
c29.333 -19.333 44 -46.666 44 -81.999zM322.999 223.001c0 -3.33301 -0.168945 -6.99805 -0.501953 -10.998s-0.833008 -8 -1.5 -12l-48 -290c-4.66699 -32.667 -22.667 -53 -54 -61c-6.66699 -1.33301 -17.167 -2.5 -31.5 -3.5s-33.166 -1.5 -56.499 -1.5
c-52.667 0 -79 23 -79 69c0 3.33301 0.166992 6.66602 0.5 9.99902s0.833008 7.33301 1.5 12l46 291c4.66699 31.333 22.667 51.666 54 60.999c7.33301 1.33301 18.333 2.5 33 3.5s33.334 1.5 56.001 1.5c53.333 0 80 -23 80 -69z" />
    <glyph glyph-name="less" unicode="&#x3c;" horiz-adv-x="1060" 
d="M1014 265c0 -38.667 -22.667 -57.999 -68 -57.999c-12.667 0 -33.667 4.66699 -63 14l-813 339c-15.333 7.33301 -23 20 -23 38c0 15.333 8.66699 28.666 26 39.999l27.5 11.5l54.5 22.5l190 80l260 108.5l278 114.5c18.667 8 42 12 70 12c25.333 0 42 -6.33301 50 -19
c5.33301 -9.33301 8 -27.333 8 -54c0 -14 -9.33301 -24.333 -28 -31l-698 -285l698 -285c20.667 -8.66699 31 -24.667 31 -48z" />
    <glyph glyph-name="equal" unicode="=" horiz-adv-x="931" 
d="M873 679c0 -52.667 -26.333 -79 -79 -79h-657c-38 0 -61.333 6.33301 -70 19c-6 8.66699 -9 33 -9 73c0 52 26.333 78 79 78h657c37.333 0 60.333 -6.33301 69 -19c6.66699 -8.66699 10 -32.667 10 -72zM873 383c0 -52.667 -26.333 -79 -79 -79h-657
c-38 0 -61.667 6.66699 -71 20c-5.33301 9.33301 -8 33 -8 71c0 52.667 26.333 79 79 79h657c37.333 0 60.333 -6.33301 69 -19c6.66699 -8.66699 10 -32.667 10 -72z" />
    <glyph glyph-name="greater" unicode="&#x3e;" horiz-adv-x="1038" 
d="M1003 598c0 -18.667 -7.99902 -31.333 -23.999 -38l-813 -339c-29.333 -9.33301 -50.333 -14 -63 -14c-45.333 0 -68 19.333 -68 58c0 23.333 10.333 39.333 31 48l698 285l-698 285c-15.333 6 -24.333 14 -27 24c-0.666992 0.666992 -1 13 -1 37
c0 28.667 19.333 43 58 43c26.667 0 50 -4 70 -12l222.5 -92.5l315.5 -130.5l186 -77c7.33301 -3.33301 16.666 -7.33301 27.999 -12l40 -17c30 -13.333 45 -29.333 45 -48z" />
    <glyph glyph-name="question" unicode="?" horiz-adv-x="1127" 
d="M1079 746c0 -99.333 -61.335 -174.336 -184.002 -225.003c-98 -37.333 -202.333 -56 -313 -56h-235c-36 0 -54 -21.667 -54 -65c0 -4 0.166992 -9.66699 0.5 -17s0.833008 -14.666 1.5 -21.999s1.16699 -14.666 1.5 -21.999s0.5 -13 0.5 -17
c0 -40 -13.333 -65.333 -40 -76c-20 -5.33301 -50.667 -8 -92 -8c-55.333 0 -83 38 -83 114c0 5.33301 0.166992 11.833 0.5 19.5s0.833008 16.5 1.5 26.5c0.666992 10.667 1.16699 19.834 1.5 27.501s0.5 14.167 0.5 19.5c0 132 117.333 198 352 198
c8 0 18 -0.166992 30 -0.5s26 -0.833008 42 -1.5c0.666992 -0.666992 4.33398 -1 11.001 -1h11h20h29c61.333 0 118.666 7 171.999 21c77.333 20 116 50 116 90v136c0 98 -111 147 -333 147c-52.667 0 -79 32.667 -79 98c0 37.333 13.667 61 41 71
c8.66699 4.66699 38.334 7 89.001 7c130.667 0 238.334 -21.333 323.001 -64c112.667 -54.667 169 -140 169 -256v-144zM321.998 107.997c0 -34.667 -14.666 -62.001 -43.999 -82.001c-25.333 -17.333 -56.333 -26 -93 -26s-67.667 8.66699 -93 26c-30 18.667 -45 46 -45 82
c0 34.667 14.667 62 44 82c25.333 17.333 56.333 26 93 26c37.333 0 68.666 -8.66699 93.999 -26c29.333 -19.333 44 -46.666 44 -81.999z" />
    <glyph glyph-name="at" unicode="@" horiz-adv-x="1302" 
d="M1252 494c0 -122 -65.332 -183.001 -195.999 -183.001h-422c-46.667 0 -90.167 5.16699 -130.5 15.5s-75.5 24.833 -105.5 43.5s-53.5 40.334 -70.5 65.001s-25.5 51.667 -25.5 81v46c0 31.333 7.66699 59.833 23 85.5s37.333 47.667 66 66s63 32.5 103 42.5
s85 15 135 15h189c-8 49.333 -57 74 -147 74c-4 0 -9.66699 -0.166992 -17 -0.5s-15 -0.5 -23 -0.5s-15.667 -0.166992 -23 -0.5s-13 -0.5 -17 -0.5c-38.667 0 -58 24.333 -58 73c0 38.667 24.667 58 74 58c68 0 125.333 -4 172 -12s84.167 -20.833 112.5 -38.5
s48.833 -40.334 61.5 -68.001s19 -60.834 19 -99.501v-262c0 -35.333 17.667 -53 53 -53c42 0 63 17.667 63 53v502c0 14 -7 26.5 -21 37.5s-31 20.333 -51 28s-40.667 13.334 -62 17.001s-39.333 5.5 -54 5.5h-465c-148 0 -222 -30.667 -222 -92v-714
c0 -60.667 87.667 -91 263 -91h105c40 0 60 -21.667 60 -65c0 -44.667 -20 -67 -60 -67h-147c-50 0 -98 4.66699 -144 14s-86.833 23.333 -122.5 42s-64.167 41.834 -85.5 69.501s-32 60.167 -32 97.5v715c0 36 8.83301 68 26.5 96s43 51.667 76 71s73 34 120 44
s100.167 15 159.5 15h468c54 0 102.833 -5.33301 146.5 -16s80.667 -25.834 111 -45.501s53.666 -43.667 69.999 -72s24.5 -60.166 24.5 -95.499v-496zM818.001 441.999v198.002h-193c-12.667 0 -28.5 -1.5 -47.5 -4.5s-37.333 -7.83301 -55 -14.5
s-32.834 -14.834 -45.501 -24.501s-19 -20.834 -19 -33.501v-45c0 -11.333 4.66699 -21.5 14 -30.5s22 -17 38 -24s34.333 -12.333 55 -16s42.334 -5.5 65.001 -5.5h188z" />
    <glyph glyph-name="A" unicode="A" horiz-adv-x="1772" 
d="M1746 75c0 -30.667 -10.3301 -56.332 -30.9971 -76.999s-46.334 -31 -77.001 -31c-42.667 0 -77.334 20 -104.001 60l-197 286h-936l-197 -286c-21.333 -31.333 -44.333 -47 -69 -47s-48.334 8 -71.001 24c-25.333 17.333 -38 37.666 -38 60.999c0 7.33301 2 14 6 20
l702 1073c28.667 44 78 66 148 66c52 0 86.667 -14.667 104 -44c1.33301 -2 2.83301 -4.83301 4.5 -8.5s4.16699 -8.16699 7.5 -13.5l744 -1053c2.66699 -4.66699 4 -14.667 4 -30zM1207 497.002l-337 497l-339 -497h676z" />
    <glyph glyph-name="B" unicode="B" horiz-adv-x="1670" 
d="M1589 316c0 -116.667 -55.334 -203.001 -166.001 -259.001c-85.333 -43.333 -192.666 -65 -321.999 -65h-942c-52 0 -78 26.333 -78 79v1061c0 52 26 78 78 78h929c83.333 0 159.333 -6.66699 228 -20c74 -18 136.667 -51 188 -99c56.667 -54 85 -116.667 85 -188
c0 -69.333 -2.66699 -119.333 -8 -150c-1.33301 -6 -5.66602 -16 -12.999 -30s-17.333 -31.667 -30 -53c-24.667 -42.667 -37 -66.334 -37 -71.001c0 -3.33301 12.333 -24.333 37 -63c12.667 -19.333 22.667 -35.666 30 -48.999s11.666 -23.666 12.999 -30.999
c2.66699 -10.667 4.66699 -27.5 6 -50.5s2 -52.833 2 -89.5zM1372 799.999c0 22 -2 56 -6 102c-6.66699 84.667 -102.667 127 -288 127h-770v-342h779c190 0 285 37.667 285 113zM1366 377.999c0 84 -91.667 126 -275 126h-788v-329h773c179.333 0 275.333 38.333 288 115
c0.666992 4 1.16699 13.333 1.5 28s0.5 34.667 0.5 60z" />
    <glyph glyph-name="C" unicode="C" horiz-adv-x="1524" 
d="M1427 1108c0 -52.667 -25.999 -79 -77.999 -79h-791c-192 0 -288 -38.333 -288 -115v-603c0 -90.667 106.333 -136 319 -136h755c54 0 81 -30.333 81 -91c0 -61.333 -27 -92 -81 -92h-755c-102 0 -175.333 4 -220 12c-48.667 9.33301 -99.334 27.333 -152.001 54
c-60 31.333 -102 64 -126 98c-28.667 38.667 -43 89 -43 151v606c0 76.667 35 142 105 196c58.667 44.667 130 74.667 214 90c21.333 3.33301 47.333 6 78 8s67 3 109 3h795c52 0 78 -34 78 -102z" />
    <glyph glyph-name="D" unicode="D" horiz-adv-x="1670" 
d="M1594 321c0 -114.667 -57.667 -201.667 -173 -261c-89.333 -45.333 -198.333 -68 -327 -68h-940c-52 0 -78 26.333 -78 79v1061c0 52 26 78 78 78h945c330 0 495 -103.333 495 -310v-579zM1374 322v577.001c0 47.333 -36 82.666 -108 105.999c-51.333 16 -109 24 -173 24
h-795v-854h791c68.667 0 128 9 178 27c71.333 25.333 107 65.333 107 120z" />
    <glyph glyph-name="E" unicode="E" horiz-adv-x="1459" 
d="M1417 601c0 -64.667 -27.666 -97 -82.999 -97h-1069v-200c0 -86 95 -129 285 -129h784c52 0 78 -26.333 78 -79c0 -69.333 -26 -104 -78 -104h-794c-116 0 -222.333 20.667 -319 62c-118.667 54 -178 134.667 -178 242v604c0 58 19.667 110.667 59 158
c85.333 101.333 237.666 152 456.999 152h217c51.333 0 77 -34 77 -102c0 -52.667 -25.667 -79 -77 -79h-32h-20h-11c-7.33301 0 -11.333 0.333008 -12 1c-16.667 0.666992 -31 1.16699 -43 1.5s-22 0.5 -30 0.5c-243.333 0 -365 -44 -365 -132v-213h1072
c54.667 0 82 -28.667 82 -86z" />
    <glyph glyph-name="F" unicode="F" horiz-adv-x="1453" 
d="M1411 596c0 -61.333 -27.667 -92 -83 -92h-1063v-433c0 -52.667 -26 -79 -78 -79c-55.333 0 -87.333 2.33301 -96 7c-32 10 -48 34 -48 72v855c0 97.333 62.667 172 188 224c96 40 201.333 60 316 60h166c52.667 0 79 -34 79 -102c0 -52.667 -26.333 -79 -79 -79
c-298.667 0 -448 -37 -448 -111v-231h1063c55.333 0 83 -30.333 83 -91z" />
    <glyph glyph-name="G" unicode="G" horiz-adv-x="1585" 
d="M1543 302c0 -110.667 -55 -193.001 -165 -247.001c-85.333 -42 -189.333 -63 -312 -63h-504c-132 0 -243 19 -333 57c-124 52 -186 135 -186 249v610c0 109.333 63.333 190.333 190 243c100 39.333 210.333 59 331 59h200c54 0 81 -30 81 -90c0 -60.667 -27 -91 -81 -91
h-30h-20h-11c-6 0 -9.33301 0.333008 -10 1c-15.333 0.666992 -29 1.16699 -41 1.5s-21.667 0.5 -29 0.5c-238.667 0 -358 -41.333 -358 -124v-609c0 -82.667 100 -124 300 -124h501c48 0 99 9 153 27c68 22.667 102 53.334 102 92.001v315c0 36.667 16 61 48 73
c18.667 3.33301 50.667 5 96 5c52 0 78 -26 78 -78v-307z" />
    <glyph glyph-name="H" unicode="H" horiz-adv-x="1675" 
d="M1596 71c0 -52.667 -26.332 -78.999 -78.999 -78.999c-50.667 0 -82.334 2 -95.001 6c-30.667 8.66699 -46 33 -46 73v433h-1076v-433c0 -52.667 -26 -79 -78 -79c-22.667 0 -42 0.5 -58 1.5s-28.667 2.16699 -38 3.5c-32 10 -48 34.667 -48 74v1061
c0 39.333 15.667 63.666 47 72.999c7.33301 1.33301 19 2.5 35 3.5s36.667 1.5 62 1.5c52 0 78 -26 78 -78v-445h1076v445c0 38 15.667 62 47 72c12.667 4 44 6 94 6c52.667 0 79 -26 79 -78v-1061z" />
    <glyph glyph-name="I" unicode="I" horiz-adv-x="379" 
d="M300 71c0 -52.667 -26 -78.999 -78 -78.999c-22.667 0 -42 0.5 -58 1.5s-28.667 2.16699 -38 3.5c-32 10 -48 34.667 -48 74v1061c0 39.333 15.667 63.666 47 72.999c7.33301 1.33301 19 2.5 35 3.5s36.667 1.5 62 1.5c52 0 78 -26 78 -78v-1061z" />
    <glyph glyph-name="J" unicode="J" horiz-adv-x="774" 
d="M726 341c0 -146 -69 -245.332 -207 -297.999c-88 -34 -218.667 -51 -392 -51c-52.667 0 -79 34.667 -79 104c0 52.667 26.333 79 79 79c112 0 189.667 5 233 15c95.333 23.333 143 72.666 143 147.999v794c0 52 26 78 78 78c50.667 0 82.667 -2 96 -6
c32.667 -8.66699 49 -32.667 49 -72v-791z" />
    <glyph glyph-name="K" unicode="K" horiz-adv-x="1442" 
d="M1400 65c0 -48.667 -29.999 -73.001 -89.999 -73.001c-66 0 -104.333 3.33301 -115 10l-935 493v-424c0 -52.667 -26.333 -79 -79 -79c-53.333 0 -84.333 2.33301 -93 7c-30 10 -45 34 -45 72v1061c0 38.667 15 62.667 45 72c12 4 43 6 93 6c52.667 0 79 -26 79 -78v-409
l900 479c17.333 5.33301 57.666 8 120.999 8c59.333 0 89 -24 89 -72c0 -30.667 -17.667 -55.667 -53 -75l-862 -451l892 -471c35.333 -19.333 53 -44.666 53 -75.999z" />
    <glyph glyph-name="L" unicode="L" horiz-adv-x="1495" 
d="M1425 71c0 -52.667 -26 -79 -78 -79h-712c-162.667 0 -289.667 14.667 -381 44c-140.667 48.667 -211 141 -211 277v819c0 52 26 78 78 78c50 0 82 -2 96 -6c32 -9.33301 48 -33.333 48 -72v-819c0 -63.333 51.333 -105 154 -125c32.667 -8.66699 108.667 -13 228 -13
h700c52 0 78 -34.667 78 -104z" />
    <glyph glyph-name="M" unicode="M" horiz-adv-x="2206" 
d="M2127 71c0 -38.667 -16 -63 -48 -73c-13.333 -4 -45.333 -6 -96 -6c-52 0 -78 26.333 -78 79v788l-655 -808c-34.667 -42.667 -81.667 -64 -141 -64c-60 0 -107.333 21.333 -142 64l-667 812v-792c0 -52.667 -26 -79 -78 -79c-51.333 0 -83.333 2 -96 6
c-32 10 -48 34.333 -48 73v1022c0 75.333 41.333 113 124 113c54 0 97.333 -19.333 130 -58l780 -923l762 924c32 38.667 74 58 126 58c84.667 0 127 -41 127 -123v-1013z" />
    <glyph glyph-name="N" unicode="N" horiz-adv-x="1671" 
d="M1590 123c0 -92.667 -40.668 -139 -122.001 -139c-37.333 0 -79.666 19.667 -126.999 59l-1037 881v-853c0 -39.333 -16 -64 -48 -74c-9.33301 -1.33301 -22 -2.5 -38 -3.5s-35.333 -1.5 -58 -1.5c-52 0 -78 26.333 -78 79v1016c0 88 38 132 114 132
c48 0 97.333 -21.333 148 -64l1023 -871v848c0 38.667 16 63 48 73c9.33301 1.33301 22 2.5 38 3.5s35.333 1.5 58 1.5c52.667 0 79 -26 79 -78v-1009z" />
    <glyph glyph-name="O" unicode="O" horiz-adv-x="1626" 
d="M1550 319c0 -218 -188.333 -327 -565 -327h-346c-152.667 0 -273 19.333 -361 58c-134.667 54.667 -202 144 -202 268v562c0 220 187.667 330 563 330h346c175.333 0 299 -15.333 371 -46c129.333 -50 194 -144.667 194 -284v-561zM1327 324v551
c0 102.667 -112.333 154 -337 154h-352c-226.667 0 -340 -51.333 -340 -154v-551c0 -99.333 113.333 -149 340 -149h353c224 0 336 49.667 336 149z" />
    <glyph glyph-name="P" unicode="P" horiz-adv-x="1600" 
d="M1558 750c0 -122 -60.666 -210 -181.999 -264c-94 -39.333 -207.333 -59 -340 -59h-771v-356c0 -38 -16 -62 -48 -72c-8.66699 -4.66699 -40.667 -7 -96 -7c-52 0 -78 26.333 -78 79v1061c0 52 26 78 78 78h925c125.333 0 231.666 -17.333 318.999 -52
c128.667 -48 193 -121 193 -219v-189zM1338 757v166c0 70.667 -96.667 106 -290 106h-783v-420h784c192.667 0 289 49.333 289 148z" />
    <glyph glyph-name="Q" unicode="Q" horiz-adv-x="1645" 
d="M1577 317c0 -130.667 -66.666 -220.67 -199.999 -270.003l54 -30l24 -14c33.333 -23.333 50 -45.666 50 -66.999c0 -29.333 -12.667 -53 -38 -71c-23.333 -16 -50 -24 -80 -24c-20.667 0 -41.667 5.66699 -63 17l-249 137h-427c-386 0 -579 107.333 -579 322v574
c0 138.667 67.333 231.334 202 278.001c86 27.333 211.333 41 376 41h356c169.333 0 294.666 -12.667 375.999 -38c132 -45.333 198 -138.666 198 -279.999v-575zM1354 310.997l0.000976562 583c0 90 -119.667 135 -359 135h-347c-104.667 0 -176.334 -4 -215.001 -12
c-94.667 -18.667 -142 -59.667 -142 -123v-581c0 -62 44.333 -102.333 133 -121c32 -8.66699 100.333 -13 205 -13h384c227.333 0 341 44 341 132z" />
    <glyph glyph-name="R" unicode="R" horiz-adv-x="1632" 
d="M1568 755c0 -110 -58 -190.333 -174 -241c-92 -37.333 -198 -56 -318 -56h-366l742 -315c39.333 -17.333 59 -43 59 -77c0 -50 -43.667 -75 -131 -75c-34.667 0 -62 2.66699 -82 8l-1013 433v-361c0 -52.667 -26 -79 -78 -79c-55.333 0 -87.333 2.33301 -96 7
c-32 10 -48 34 -48 72v1061c0 52 26 78 78 78h894c138.667 0 252.667 -18 342 -54c127.333 -51.333 191 -136 191 -254v-147zM1346 753v154c0 81.333 -104 122 -312 122h-749v-390h789c181.333 0 272 38 272 114z" />
    <glyph glyph-name="S" unicode="S" horiz-adv-x="1462" 
d="M1422 294c0 -65.333 -10.333 -116.334 -31 -153.001c-55.333 -99.333 -222.666 -149 -501.999 -149h-769c-51.333 0 -77 26.333 -77 79c0 36 4 61 12 75c11.333 19.333 33 29 65 29h769c207.333 0 311 38.333 311 115v105c0 74.667 -100.333 115.334 -301 122.001
l-369 12c-17.333 0.666992 -41.833 1.83398 -73.5 3.50098s-70.5 4.16699 -116.5 7.5c-80 9.33301 -148.667 35.666 -206 78.999c-62.667 48 -94 111 -94 189v92c0 142 78.667 235.667 236 281c75.333 19.333 213.333 29 414 29c52 0 78 -34 78 -102
c0 -39.333 -15.667 -64 -47 -74c-4.66699 -2.66699 -36.334 -4 -95.001 -4c-242.667 0 -364 -42.667 -364 -128v-85c0 -52.667 45.333 -87 136 -103c17.333 -3.33301 42.5 -5.83301 75.5 -7.5s73.5 -2.5 121.5 -2.5h297c142 0 254 -18.333 336 -55
c129.333 -53.333 194 -135.333 194 -246v-109z" />
    <glyph glyph-name="T" unicode="T" horiz-adv-x="1390" 
d="M1375 1108c0 -52.667 -26 -78.999 -78 -78.999h-493v-958c0 -52.667 -25.667 -79 -77 -79c-52 0 -84.333 2 -97 6c-31.333 9.33301 -47 33.666 -47 72.999v958h-489c-52.667 0 -79 26.333 -79 79c0 36 4 60.667 12 74c10.667 18.667 33 28 67 28h1203
c52 0 78 -34 78 -102z" />
    <glyph glyph-name="U" unicode="U" horiz-adv-x="1663" 
d="M1583 335c0 -231.333 -221.668 -347.002 -665.001 -347.002c-13.333 0 -30.166 0.166992 -50.499 0.5s-43.833 0.833008 -70.5 1.5s-50 1.16699 -70 1.5s-36.667 0.5 -50 0.5c-312 0 -499.667 58.667 -563 176c-22 40.667 -33 96.334 -33 167.001v797c0 52 26 78 78 78
c50 0 82 -2 96 -6c32.667 -10 49 -34 49 -72v-782c0 -77.333 47 -129 141 -155c28 -6.66699 61.167 -11.667 99.5 -15s83.5 -5 135.5 -5h306c116.667 0 195 6.33301 235 19c94 24.667 141 76.334 141 155.001v783c0 38.667 15.667 62.667 47 72c12.667 4 44.667 6 96 6
c52 0 78 -26 78 -78v-797z" />
    <glyph glyph-name="V" unicode="V" horiz-adv-x="1777" 
d="M1766 1148c0 -16.667 -7.66699 -36.667 -23 -60l-720 -1024c-35.333 -49.333 -79.666 -74 -132.999 -74c-54.667 0 -99 24.333 -133 73l-722 1025c-15.333 23.333 -23 43.333 -23 60c0 43.333 36.333 65 109 65c55.333 0 91.666 -12 108.999 -36l660 -942l657 942
c16.667 24 53 36 109 36c73.333 0 110 -21.667 110 -65z" />
    <glyph glyph-name="W" unicode="W" horiz-adv-x="2340" 
d="M2318 1137c0 -12.667 -2.99902 -25.332 -8.99902 -37.999l-481 -1017c-29.333 -60 -75.333 -90 -138 -90c-61.333 0 -105 28 -131 84l-384 821l-397 -823c-24 -48.667 -67.333 -73 -130 -73c-67.333 0 -113 26 -137 78l-479 1020c-6 12.667 -9 24 -9 34
c0 26.667 13.667 47.667 41 63c23.333 13.333 49.333 20 78 20c48 0 80 -16.667 96 -50l410 -871l390 837c28 60 72.667 90 134 90c21.333 0 45.666 -8.66699 72.999 -26c26.667 -16.667 45 -35.334 55 -56.001l396 -845l404 870c15.333 33.333 50 50 104 50
c27.333 0 52 -6 74 -18c26.667 -14.667 40 -34.667 40 -60z" />
    <glyph glyph-name="X" unicode="X" horiz-adv-x="1576" 
d="M1556 63c0 -25.333 -16.001 -45 -48.001 -59c-32 -11.333 -59.333 -17 -82 -17c-36 0 -63.333 8 -82 24l-554 468l-560 -468c-17.333 -13.333 -48 -20 -92 -20c-78.667 0 -118 23.333 -118 70c0 24 13.333 47.333 40 70l571 481l-552 461c-26 22 -39 45.333 -39 70
c0 36 19.333 57.333 58 64c10 2 43 3 99 3c20 0 36.667 -5.66699 50 -17l543 -453l538 452c14.667 12 53.334 18 116.001 18c60 0 90 -22.333 90 -67c0 -24.667 -13 -48 -39 -70l-549 -461l568 -481c28 -24 42 -46.667 42 -68z" />
    <glyph glyph-name="Y" unicode="Y" horiz-adv-x="1522" 
d="M1508 1145c0 -23.333 -11.999 -46.333 -35.999 -69l-599 -575l-2 -430c-1.33301 -39.333 -17 -63.333 -47 -72c-8.66699 -4.66699 -40.334 -7 -95.001 -7c-52.667 0 -79 26 -79 78v431l-601 575c-22.667 22 -34 44.667 -34 68c0 44 29.667 66 89 66
c67.333 0 108.333 -7.33301 123 -22l533 -511l535 511c14.667 14.667 55.667 22 123 22c60 0 90 -21.667 90 -65z" />
    <glyph glyph-name="Z" unicode="Z" 
d="M1412 84c0 -61.333 -27.001 -92 -81.001 -92h-1113c-48 0 -88.333 9 -121 27c-41.333 22 -62 54.667 -62 98c0 28 11.667 52 35 72l1131 961c32.667 28.667 67.667 43 105 43c14 0 27.167 -2.16699 39.5 -6.5s23.333 -10.5 33 -18.5s17.334 -17.5 23.001 -28.5
s8.5 -23.167 8.5 -36.5c0 -31.333 -15 -59.333 -45 -84l-998 -844h964c54 0 81 -30.333 81 -91z" />
    <glyph glyph-name="bracketleft" unicode="[" horiz-adv-x="570" 
d="M511 1108c0 -52.667 -26 -79 -78 -79h-151v-854h146c52.667 0 79 -26.333 79 -79c0 -69.333 -26.333 -104 -79 -104h-290c-52 0 -78 26.333 -78 79v1061c0 52 26 78 78 78h295c52 0 78 -34 78 -102z" />
    <glyph glyph-name="backslash" unicode="\" horiz-adv-x="1387" 
d="M1366 58c0 -44 -29.333 -66 -88 -66c-66 0 -107.667 7.66699 -125 23l-1097 1061c-23.333 23.333 -35 46.333 -35 69c0 43.333 29.667 65 89 65c68 0 109.333 -7.33301 124 -22l1098 -1061c22.667 -22 34 -45 34 -69z" />
    <glyph glyph-name="bracketright" unicode="]" horiz-adv-x="561" 
d="M506 71c0 -52.667 -26 -79.001 -78 -79.001h-295c-52.667 0 -79 26.333 -79 79c0 69.333 26.333 104 79 104h151v854h-146c-52.667 0 -79 26.333 -79 79c0 36.667 4.33301 61.334 13 74.001c10.667 18.667 32.667 28 66 28h290c52 0 78 -26 78 -78v-1061z" />
    <glyph glyph-name="asciicircum" unicode="^" horiz-adv-x="781" 
d="M739 1133c0 -38.667 -23 -57.999 -69 -57.999c-23.333 0 -46.333 10.333 -69 31l-24 23.5l-33 32.5l-53 50l-101 94c-46.667 -48 -88.667 -89.333 -126 -124s-70 -63.667 -98 -87c-15.333 -12 -32.333 -18 -51 -18c-48.667 0 -73 19.333 -73 58
c0 11.333 5.33301 22.333 16 33l266 267c19.333 19.333 41.333 29 66 29s46.667 -9.66699 66 -29l267 -267c10.667 -10.667 16 -22.334 16 -35.001z" />
    <glyph glyph-name="underscore" unicode="_" horiz-adv-x="1503" 
d="M1494 -244c0 -52 -25.999 -78 -77.999 -78h-1329c-38.667 0 -62.334 14 -71.001 42c-4.66699 8.66699 -7 38.667 -7 90c0 52.667 26 79 78 79h1329c37.333 0 61 -14.333 71 -43c4.66699 -8.66699 7 -38.667 7 -90z" />
    <glyph glyph-name="grave" unicode="`" horiz-adv-x="764" 
d="M584 1034c0 -37.333 -22.333 -56.001 -67 -56.001c-14.667 0 -29.667 4.66699 -45 14c-14 10 -63.333 57.333 -148 142l-97 98.5c-22.667 23.667 -35.667 38.834 -39 45.501c-6 8.66699 -9 16.667 -9 24c0 16.667 7.83301 30.667 23.5 42s32.5 17 50.5 17
c14 0 25.333 -4.33301 34 -13l279 -276c12 -12 18 -24.667 18 -38z" />
    <glyph glyph-name="a" unicode="a" horiz-adv-x="1539" 
d="M1469 280c0 -192 -144.002 -288 -432.002 -288h-516c-110.667 0 -206.334 20.333 -287.001 61c-108.667 52 -163 124.333 -163 217v122c0 100 51.667 175 155 225c76.667 38.667 172.667 58 288 58h746c-11.333 67.333 -106.666 101 -285.999 101
c-7.33301 0 -16.166 -0.166992 -26.499 -0.5s-22.166 -0.833008 -35.499 -1.5c-0.666992 -0.666992 -4 -1 -10 -1h-9h-16h-25c-52 0 -78 33 -78 99c0 52.667 26 79 78 79c168.667 0 297.667 -11.667 387 -35c153.333 -43.333 230 -130 230 -260v-376zM1262 330
c0 9.33301 -0.166992 21 -0.5 35s-0.833008 30.333 -1.5 49s-1.16699 35 -1.5 49s-0.5 25.667 -0.5 35h-749c-44 0 -89.333 -8 -136 -24c-60.667 -20.667 -91 -47.667 -91 -81v-121c0 -35.333 31.333 -62.333 94 -81c40 -14.667 86.333 -22 139 -22h524
c78.667 0 132.667 7.66699 162 23c40.667 20.667 61 66.667 61 138z" />
    <glyph glyph-name="b" unicode="b" horiz-adv-x="1455" 
d="M1397 294c0 -201.333 -166.333 -302 -499 -302h-324c-118 0 -226.333 21 -325 63c-127.333 54 -191 132 -191 234v841c0 38.667 14 62.667 42 72c8.66699 4.66699 39 7 91 7s78 -26.333 78 -79v-187h629c332.667 0 499 -99 499 -297v-352zM1187 301v341
c0 82.667 -95 124 -285 124h-633v-476c0 -43.333 45.333 -76 136 -98c32.667 -7.33301 65 -13 97 -17s64.333 -6 97 -6h301c46 0 83.833 1 113.5 3s52.167 4.66699 67.5 8c70.667 16.667 106 57 106 121z" />
    <glyph glyph-name="c" unicode="c" horiz-adv-x="1450" 
d="M1412 71c0 -52.667 -32.667 -78.999 -98 -78.999h-781c-150 0 -258 14.333 -324 43c-113.333 45.333 -170 127.666 -170 246.999v378c0 194 150 291 450 291h836c54.667 0 82 -29.667 82 -89s-27.333 -89 -82 -89h-821c-169.333 0 -254 -35.667 -254 -107v-375
c0 -81.333 96.333 -122 289 -122h794c52.667 0 79 -32.667 79 -98z" />
    <glyph glyph-name="d" unicode="d" horiz-adv-x="1504" 
d="M1425 287c0 -102.667 -63.667 -180.667 -191 -234c-90 -40.667 -198.333 -61 -325 -61h-322c-326 0 -494.333 90.333 -505 271c-2 32 -3 74 -3 126c0 104.667 2 190 6 256c12 198.667 178.333 298 499 298h630v187c0 52.667 26 79 78 79c37.333 0 67.333 -2.66699 90 -8
c28.667 -10 43 -33.667 43 -71v-843zM1214 291v475h-635c-188.667 0 -283 -41.667 -283 -125v-340c0 -62 35.667 -102 107 -120c30.667 -8 91 -12 181 -12h304c217.333 0 326 40.667 326 122z" />
    <glyph glyph-name="e" unicode="e" horiz-adv-x="1410" 
d="M1368 455c0 -58 -19.667 -87 -59 -87h-1049v-7c0 -90.667 53.333 -149 160 -175c23.333 -5.33301 57.166 -9.5 101.499 -12.5s100.833 -4.5 169.5 -4.5c52 0 78 -32.667 78 -98c0 -52.667 -26 -79 -78 -79c-70.667 0 -128.5 0.5 -173.5 1.5s-79.167 2.83301 -102.5 5.5
c-116 12 -201.333 39.333 -256 82c-78 60.667 -117 132 -117 214v353c0 110.667 60 192.667 180 246c82 38.667 190.667 58 326 58h394c110.667 0 202.334 -18.333 275.001 -55c100.667 -46.667 151 -117 151 -211v-231zM1162 551l0.000976562 118.001
c0 72 -143 108 -429 108c-168.667 0 -284.334 -6 -347.001 -18c-88.667 -16.667 -133 -49.334 -133 -98.001v-110h909z" />
    <glyph glyph-name="f" unicode="f" horiz-adv-x="710" 
d="M675 865c0 -65.333 -25.999 -98 -77.999 -98h-322v-696c0 -52.667 -26 -79 -78 -79s-82.333 2.33301 -91 7c-28 10 -42 34 -42 72v857c0 188.667 157.667 283 473 283c54 0 87.667 -3 101 -9c24.667 -12 37 -41.667 37 -89c0 -52 -26 -78 -78 -78
c-94.667 0 -156.334 -2 -185.001 -6c-89.333 -13.333 -134 -42 -134 -86h319c52 0 78 -26 78 -78z" />
    <glyph glyph-name="g" unicode="g" horiz-adv-x="1463" 
d="M1394 24c0 -110 -68.666 -190.668 -205.999 -242.001c-91.333 -36.667 -207 -55 -347 -55h-88c-52.667 0 -79 33 -79 99c0 52 26.333 78 79 78h153c26.667 0 76.667 9.66699 150 29c76 22 116.333 44.333 121 67h-579c-136.667 0 -249 17 -337 51
c-128 48.667 -192 130.334 -192 245.001v356c0 201.333 198.667 302 596 302c10.667 0 23.667 -0.166992 39 -0.5s33.666 -0.833008 54.999 -1.5c0.666992 -0.666992 5.66699 -1 15 -1h15h25h39c126 0 240 -18.667 342 -56c132.667 -52 199 -133.667 199 -245v-626z
M1181 175.999v464.999c0 47.333 -39 83 -117 107c-63.333 17.333 -122.333 26 -177 26h-333c-78.667 0 -135 -4 -169 -12c-70 -17.333 -105 -52.666 -105 -105.999v-357c0 -82 104.667 -123 314 -123h587z" />
    <glyph glyph-name="h" unicode="h" horiz-adv-x="1472" 
d="M1420 71c0 -38 -14 -62 -42 -72c-8.66699 -4.66699 -39 -7 -91 -7s-78 26.333 -78 79v565c0 59.333 -35.333 98.333 -106 117c-46.667 9.33301 -105.667 14 -177 14h-620v-696c0 -52.667 -26 -79 -78 -79s-82.333 2.33301 -91 7c-28 10 -42 34 -42 72v1061
c0 38.667 14 62.667 42 72c10.667 4 41 6 91 6c52 0 78 -26 78 -78v-189h570c168.667 0 287 -13.333 355 -40c126 -45.333 189 -133.333 189 -264v-568z" />
    <glyph glyph-name="i" unicode="i" horiz-adv-x="398" 
d="M336 1082c0 -34.667 -14.667 -62 -44 -82c-25.333 -17.333 -56.333 -26 -93 -26s-67.667 8.66699 -93 26c-29.333 20 -44 47.333 -44 82s14.667 62 44 82c25.333 17.333 56.333 26 93 26s67.667 -8.66699 93 -26c29.333 -20 44 -47.333 44 -82zM307 71
c0 -52.667 -26.334 -79 -79.001 -79c-51.333 0 -81.333 2.33301 -90 7c-27.333 10 -41 34 -41 72v805c0 52 26.333 78 79 78c50.667 0 80.334 -2.33301 89.001 -7c28 -10 42 -33.667 42 -71v-805z" />
    <glyph glyph-name="j" unicode="j" horiz-adv-x="692" 
d="M676 1086c0 -35.333 -14.667 -62.666 -44 -81.999c-25.333 -17.333 -56.666 -26 -93.999 -26c-35.333 0 -66.666 8.66699 -93.999 26c-29.333 19.333 -44 46.666 -44 81.999s14.667 62.666 44 81.999c27.333 17.333 58.666 26 93.999 26
c37.333 0 68.666 -8.66699 93.999 -26c29.333 -19.333 44 -46.666 44 -81.999zM645 82c0 -134.667 -63.667 -222.667 -191 -264c-56 -18 -176 -27 -360 -27c-52 0 -78 33 -78 99c0 52.667 26 79 78 79c226.667 0 340 32 340 96v812c0 52 26.333 78 79 78
c51.333 0 81.333 -2.33301 90 -7c28 -10 42 -33.667 42 -71v-795z" />
    <glyph glyph-name="k" unicode="k" horiz-adv-x="1234" 
d="M1192 66c0 -49.333 -29.666 -74 -88.999 -74c-56 0 -90 3 -102 9l-721 361v-291c0 -37.333 -14 -61.333 -42 -72c-8.66699 -4.66699 -38.334 -7 -89.001 -7c-52 0 -78 26.333 -78 79v1061c0 52 26 78 78 78c48.667 0 78.667 -2 90 -6c27.333 -9.33301 41 -33.333 41 -72
v-553h1l711 356c18 5.33301 50 8 96 8c59.333 0 89 -24.333 89 -73c0 -32 -18 -57 -54 -75l-646 -322l661 -331c36 -18 54 -43.333 54 -76z" />
    <glyph glyph-name="l" unicode="l" horiz-adv-x="370" 
d="M291 71c0 -52.667 -26 -79 -78 -79c-51.333 0 -81.333 2.33301 -90 7c-28.667 10.667 -43 34.667 -43 72v1061c0 52 26 78 78 78c48.667 0 79 -2 91 -6c28 -9.33301 42 -33.333 42 -72v-1061z" />
    <glyph glyph-name="m" unicode="m" horiz-adv-x="1956" 
d="M1885 71c0 -52.667 -25.999 -78.998 -77.999 -78.998s-82.333 2.33301 -91 7c-28.667 10 -43 34 -43 72v591c0 76 -89.667 114 -269 114h-28h-13c-7.33301 0 -11.333 -0.333008 -12 -1c-86 -3.33301 -143 -9.33301 -171 -18c-62.667 -18.667 -94 -59.334 -94 -122.001
v-564c0 -38 -14.333 -62 -43 -72c-8.66699 -4.66699 -39 -7 -91 -7c-52.667 0 -79 26.333 -79 79v566c0 56.667 -20.333 95 -61 115c-28 14 -73.667 21 -137 21h-26h-17h-9c-5.33301 0 -8.33301 0.333008 -9 1c-13.333 0.666992 -25 1.16699 -35 1.5s-18.333 0.5 -25 0.5
c-181.333 0 -272 -38.667 -272 -116v-589c0 -38 -14 -62 -42 -72c-8.66699 -4.66699 -39 -7 -91 -7s-78 26.333 -78 79v567c0 208.667 153.333 313 460 313c60.667 0 110.167 -0.5 148.5 -1.5s66.833 -2.83301 85.5 -5.5c79.333 -10 152.666 -35 219.999 -75
c60 37.333 134 61.666 222 72.999c46.667 6 125 9 235 9c295.333 0 443 -104.333 443 -313v-567z" />
    <glyph glyph-name="n" unicode="n" horiz-adv-x="1455" 
d="M1381 71c0 -52.667 -26.333 -79 -79 -79c-52 0 -82.333 2.33301 -91 7c-28.667 10 -43 34 -43 72v610c0 43.333 -36 71.666 -108 84.999c-12.667 2.66699 -32.167 4.5 -58.5 5.5s-59.5 1.5 -99.5 1.5h-364c-36.667 0 -67.5 -0.666992 -92.5 -2s-44.833 -3.33301 -59.5 -6
c-68 -13.333 -102 -41.666 -102 -84.999v-609c0 -52.667 -26 -79 -78 -79s-82.333 2.33301 -91 7c-28 10 -42 34 -42 72v607c0 182 161.333 273 484 273h345c319.333 0 479 -90.333 479 -271v-609z" />
    <glyph glyph-name="o" unicode="o" 
d="M1377 290c0 -109.333 -54 -189.332 -162 -239.999c-76.667 -38.667 -178.667 -58 -306 -58h-351c-116 0 -221 19.667 -315 59c-116 52 -174 131.667 -174 239v353c0 107.333 57.667 188.666 173 243.999c84.667 42.667 189.667 64 315 64h352c312 0 468 -102 468 -306
v-355zM1163 290.001l0.000976562 368.998c0 76 -86.667 114 -260 114h-343c-64 0 -121.333 -8 -172 -24c-72 -23.333 -108 -58.666 -108 -105.999v-353c0 -45.333 36.667 -78.666 110 -99.999c48.667 -14 105.667 -21 171 -21h343c55.333 0 107.666 8 156.999 24
c68 22 102 54.333 102 97z" />
    <glyph glyph-name="p" unicode="p" horiz-adv-x="1460" 
d="M1392 297c0 -198 -152 -297.001 -456 -297.001h-658v-195c0 -37.333 -14.333 -61 -43 -71c-8.66699 -4.66699 -38.667 -7 -90 -7c-52 0 -78 26 -78 78v861c0 116.667 55.333 197.334 166 242.001c64 28.667 169.333 43 316 43h336c338 0 507 -94 507 -282v-372z
M1179 293.999l-0.000976562 372c0 50.667 -39 83.667 -117 99c-31.333 6 -89.666 9 -174.999 9h-329c-186.667 0 -280 -37.667 -280 -113v-485h658c162 0 243 39.333 243 118z" />
    <glyph glyph-name="q" unicode="q" horiz-adv-x="1467" 
d="M1396 -195c0 -37.333 -14.667 -61 -44 -71c-8.66699 -4.66699 -39 -7 -91 -7s-78 26 -78 78v195h-655c-304.667 0 -457 99 -457 297v371c0 188.667 168.667 283 506 283h339c320 0 480 -94.667 480 -284v-862zM1183 176v486c0 74.667 -92.667 112 -278 112h-329
c-196 0 -294 -36 -294 -108v-372c0 -78.667 80.667 -118 242 -118h659z" />
    <glyph glyph-name="r" unicode="r" horiz-adv-x="711" 
d="M667 851c0 -52.667 -31.333 -79 -94 -79c-8.66699 0 -21.167 0.5 -37.5 1.5s-28.833 1.5 -37.5 1.5c-162 0 -243 -40.333 -243 -121v-583c0 -38.667 -14.667 -63 -44 -73c-12 -4 -42.667 -6 -92 -6c-50 0 -75 26.667 -75 80v582c0 125.333 64.333 210.333 193 255
c78.667 28 195.667 42 351 42c52.667 0 79 -33.333 79 -100z" />
    <glyph glyph-name="s" unicode="s" horiz-adv-x="1300" 
d="M1258 266c0 -182.667 -139.333 -274.001 -418 -274.001h-714c-52 0 -78 26.333 -78 79c0 65.333 26 98 78 98h715c132 0 198 32.333 198 97v36c0 58 -60 87 -180 87h-343c-315.333 0 -473 88 -473 264v52c0 116.667 79.333 191.334 238 224.001
c32 7.33301 78.833 12.833 140.5 16.5s139.167 5.5 232.5 5.5c52.667 0 79 -33.333 79 -100c0 -52 -26.333 -78 -79 -78h-152c-79.333 0 -127 -1 -143 -3c-70 -9.33301 -105 -31 -105 -65v-50c0 -57.333 87.667 -86 263 -86h350c260.667 0 391 -86.333 391 -259v-44z" />
    <glyph glyph-name="t" unicode="t" horiz-adv-x="825" 
d="M803 845c0 -52 -26.333 -78 -79 -78h-334v-696c0 -52.667 -26 -79 -78 -79c-51.333 0 -81.333 2.33301 -90 7c-28.667 10.667 -43 34.667 -43 72v696c-28 0 -50.833 0.5 -68.5 1.5s-30.167 2.16699 -37.5 3.5c-33.333 11.333 -50 39 -50 83s16.667 71.667 50 83
c7.33301 1.33301 19.833 2.5 37.5 3.5s40.5 1.5 68.5 1.5v189c0 52 26 78 78 78c51.333 0 81.333 -2.33301 90 -7c28.667 -10 43 -33.667 43 -71v-189h334c52.667 0 79 -32.667 79 -98z" />
    <glyph glyph-name="u" unicode="u" horiz-adv-x="1494" 
d="M1417 278c0 -192.667 -204 -289 -612 -289c-11.333 0 -26 0.166992 -44 0.5s-39 0.833008 -63 1.5c-0.666992 0.666992 -3.33398 1 -8.00098 1h-9h-16h-29h-45c-342.667 0 -514 95.333 -514 286v594c0 52.667 26 79 78 79s82.333 -2.33301 91 -7c28 -10 42 -34 42 -72
v-594c0 -72.667 101 -109 303 -109h315c198 0 297 35.333 297 106v597c0 38 14.333 62 43 72c8.66699 4.66699 39.334 7 92.001 7s79 -26.333 79 -79v-594z" />
    <glyph glyph-name="v" unicode="v" horiz-adv-x="1615" 
d="M1589 886c0 -18.667 -9.66699 -39.667 -29 -63l-672 -812c-23.333 -27.333 -50 -41 -80 -41s-56 13 -78 39l-676 814c-19.333 23.333 -29 44.333 -29 63c0 46 38.333 69 115 69c46 0 78 -11 96 -33l573 -698l570 698c18 22 50 33 96 33c76 0 114 -23 114 -69z" />
    <glyph glyph-name="w" unicode="w" horiz-adv-x="2014" 
d="M1979 887c0 -14.667 -4.99805 -31.333 -14.998 -50l-391 -759c-22.667 -44.667 -65.334 -67 -128.001 -67c-60 0 -101.667 21.667 -125 65l-311 583l-316 -585c-24 -44 -67 -66 -129 -66c-64.667 0 -108.334 23 -131.001 69l-383 760c-9.33301 26 -14 42.667 -14 50
c0 45.333 33 68 99 68c57.333 0 94.666 -15.667 111.999 -47l324 -626l316 583c24.667 46.667 65.334 70 122.001 70c54.667 0 94.667 -23 120 -69l316 -584l323 626c16 31.333 53 47 111 47c66.667 0 100 -22.667 100 -68z" />
    <glyph glyph-name="x" unicode="x" horiz-adv-x="1406" 
d="M1378 62c0 -36 -18.334 -58 -55.001 -66c-5.33301 -2.66699 -38 -4 -98 -4c-16 0 -31.333 5.33301 -46 16l-472 344l-476 -344c-14.667 -10.667 -52 -16 -112 -16s-90 23.333 -90 70c0 27.333 15 51.666 45 72.999l470 336l-465 337c-28.667 20.667 -43 45 -43 73
c0 36.667 19 59 57 67c8.66699 2 42 3 100 3c16.667 0 32 -5 46 -15l469 -344l459 343c12.667 10.667 49.334 16 110.001 16c60 0 90 -23 90 -69c0 -28 -14.333 -52.333 -43 -73l-454 -335l464 -339c29.333 -21.333 44 -45.666 44 -72.999z" />
    <glyph glyph-name="y" unicode="y" horiz-adv-x="1478" 
d="M1398 7c0 -130 -78.667 -215.001 -236 -255.001c-58 -16.667 -187 -25 -387 -25c-32.667 0 -54.667 9.66699 -66 29c-8.66699 12.667 -13 37.334 -13 74.001c0 52.667 26.333 79 79 79h27h17h10c6.66699 0 10.334 -0.333008 11.001 -1
c14.667 -0.666992 27.167 -1.16699 37.5 -1.5s19.166 -0.5 26.499 -0.5c188 0 282 31.333 282 94h-630c-317.333 -0 -476 95.333 -476 286v586c0 38 14 62 42 72c8.66699 4.66699 39 7 91 7s78 -26.333 78 -79v-586c0 -73.333 88.333 -110 265 -110h630v696
c0 52.667 26.333 79 79 79c52 0 82.333 -2.33301 91 -7c28 -10 42 -34 42 -72v-865z" />
    <glyph glyph-name="z" unicode="z" horiz-adv-x="1415" 
d="M1376 81c0 -59.333 -27.334 -89 -82.001 -89h-1109c-35.333 0 -67.666 9.66699 -96.999 29c-32 22.667 -48 51 -48 85s18.667 63 56 87l1083 700c27.333 17.333 53.333 26 78 26c28 0 50.833 -9.16699 68.5 -27.5s26.5 -41.5 26.5 -69.5c0 -25.333 -9.33301 -44 -28 -56
l-911 -594l881 -3c54.667 0 82 -29.333 82 -88z" />
    <glyph glyph-name="braceleft" unicode="{" horiz-adv-x="630" 
d="M584 1287c0 -54.667 -29.667 -82 -89 -82h-106l-2 -494c0 -42.667 -16.333 -79 -49 -109c32.667 -28.667 49 -65 49 -109l2 -501h106c48 0 72 -27 72 -81c0 -51.333 -24 -77 -72 -77c-101.333 0 -170.333 5.33301 -207 16c-87.333 21.333 -131 64 -131 128v517
c0 4.66699 -18.667 16.667 -56 36c-36.667 20 -55 42.667 -55 68c0 24.667 18.333 48.334 55 71.001c37.333 23.333 56 36.666 56 39.999v514c0 66 43.333 109.333 130 130c36 10.667 105.333 16 208 16c59.333 0 89 -27.667 89 -83z" />
    <glyph glyph-name="bar" unicode="|" horiz-adv-x="381" 
d="M302 -195c0 -52.667 -26 -79 -78 -79c-22.667 0 -42 0.5 -58 1.5s-28.667 2.16699 -38 3.5c-32 10 -48 34.667 -48 74v1432c0 38.667 16 62.667 48 72c12.667 4 44.667 6 96 6c52 0 78 -26 78 -78v-1432z" />
    <glyph glyph-name="braceright" unicode="}" horiz-adv-x="643" 
d="M590 600c0 -24.667 -18.667 -47.666 -56 -68.999c-36.667 -20 -55 -32 -55 -36v-517c0 -65.333 -43.333 -108.333 -130 -129c-42 -10 -111.333 -15 -208 -15c-48.667 0 -73 25.667 -73 77c0 54 24.333 81 73 81h106l1 501c0 43.333 16.667 79.666 50 108.999
c-33.333 30 -50 66.333 -50 109l-1 494h-106c-59.333 0 -89 27.333 -89 82c0 55.333 29.667 83 89 83c102.667 0 172 -5.33301 208 -16c86.667 -20.667 130 -64 130 -130v-514c0 -3.33301 18.333 -16.333 55 -39c37.333 -23.333 56 -47 56 -71z" />
    <glyph glyph-name="asciitilde" unicode="~" horiz-adv-x="2896" 
d="M127 600h2.00098v96h137v58h-37v180h37v63h-37v76h899v-94c-10 18 -26.333 27 -49 27c-62.667 0 -94 -52.667 -94 -158c0 -104 32.667 -156 98 -156c19.333 0 40.666 13 63.999 39v-35h49v377h766v-53h70v53h737v-1073h-2642v600zM1921 696v193c0 73.333 -32 110 -96 110
c-32 0 -53.333 -16.333 -64 -49c-12 32.667 -31 49 -57 49c-22.667 0 -41 -16.333 -55 -49v47h-66v-243h-39v-58h144v58h-39v125c0 31.333 13 47 39 47c20 0 30 -15.667 30 -47v-183h105v58h-39v125c0 30 13 45 39 45c20 0 30 -15 30 -45v-183h68zM2019 547h-114v-387h65
v250h6l19 -250h119v387h-66v-250h-6zM983.001 547v-387h162l22 43v127l-16 28v7l16 28v113l-22 41h-162zM1692 506v-303l20 -43h137l25 43v303l-23 41h-139zM555.001 547v-387h78v170h22v-170h84v155l-30 43v7l30 41v100l-22 41h-162zM524.001 600h67.999v115
c10 -16.667 26.333 -25 49 -25c62.667 0 94 52 94 156c0 103.333 -32.667 155 -98 155c-19.333 0 -40.666 -13.333 -63.999 -40v36h-49v-397zM973 844c0 106.667 -37.667 160 -113 160c-73.333 0 -110 -53.333 -110 -160c0 -104 36.667 -156 110 -156
c75.333 0 113 52 113 156zM2425 428h78v78l-21 41h-135l-23 -41v-135l25 -41l76 -19v-78h-21v58h-80v-88l23 -43h133l23 43v147l-27 43l-72 17v67h21v-49zM524 160v141l-53 246h-84l-47 -246v-141h76v73h26v-73h82zM950 160v141l-49 246h-84l-47 -246v-141h78v73h24v-73h78z
M346 600h43c75.333 8 113 56.333 113 145v252h-68v-186c0 -35.333 -13.667 -53 -41 -53c-26 0 -39 17.667 -39 53v186h-65v-174c0 -87.333 31.333 -131 94 -131c19.333 0 36.333 5.66699 51 17c0 -31.333 -19 -47 -57 -47h-31v-62zM1389 326h53v67h-53v72h53v82h-131v-387
h131v86h-53v80zM1610 319h49v68h-49v78h49v82h-129v-387h80v159zM2179 465v-305h80v305h43v82h-166v-82h43zM1403 997l-31 -0.000976562v-47c-14.667 36 -37 54 -67 54c-58.667 0 -88 -29.667 -88 -89c0 -37.333 15 -61.666 45 -72.999c-32 -13.333 -48 -36 -48 -68
c3.33301 -57.333 34.333 -86 93 -86c30 0 53.5 8.83301 70.5 26.5s25.5 45.167 25.5 82.5h-31c-4 -26 -21 -39 -51 -39c-27.333 0 -41 9.33301 -41 28c0 24.667 13.667 37 41 37h20v37h-20c-27.333 0 -41 11.667 -41 35c0 22 13.667 33 41 33
c23.333 0 40.333 -13.667 51 -41h31v110zM2245 992.999h-33v-43c-17.333 36 -38 54 -62 54c-68 0 -102 -53.333 -102 -160c0 -102.667 34.667 -154 104 -154c49.333 0 80.333 39.667 93 119h-33c-4 -31.333 -21 -47 -51 -47c-31.333 0 -47 27.333 -47 82
c0 56 15.667 84 47 84c15.333 0 27.333 -4.66699 36 -14s13.667 -23.333 15 -42h33v121zM309 245.999h-45v301h-78v-387h123v86zM1280 159.999v387h-80v-387h80zM1516 753.999h-29.002v133c0 27.333 9.66699 41 29 41c8 0 16 -4.33301 24 -13l23 68
c-5.33301 4 -10.666 7.33301 -15.999 10s-11.666 4.66699 -18.999 6c-28 0 -49.333 -16.333 -64 -49v47h-39v-301h91v58zM1931 996.999v-63h31v-238h70v301h-101zM585.998 894.999c8 20.667 22.333 31 43 31c28.667 0 43 -26 43 -78c0 -58.667 -15 -88 -45 -88
c-20 0 -33.667 11 -41 33v102zM904.998 843.999c0 -54.667 -15 -82 -45 -82c-28.667 0 -43 27.333 -43 82c0 56 14.333 84 43 84c30 0 45 -28 45 -84zM1133 796.999c-9.33301 -19.333 -23 -29 -41 -29c-28.667 0 -43 26 -43 78c0 58.667 15 88 45 88
c17.333 0 30.333 -11 39 -33v-104zM128.998 753.999v180h39v-180h-39zM1769 232.999v244h23v-244h-23zM128.998 996.999v76h39v-76h-39zM415.998 290.999v39l12 102h4l10 -102v-39h-26zM847.998 290.999v39l10 102h6l8 -102v-39h-24zM1063 329.999h22v-97h-22v97z
M1063 392.999v84h22v-84h-22zM632.998 392.999v84h22v-84h-22z" />
    <glyph glyph-name="exclamdown" unicode="&#xa1;" horiz-adv-x="392" 
d="M326 750c0 -34 -14.999 -61 -44.999 -81c-27.333 -17.333 -58.333 -26 -93 -26c-36 0 -66.667 8.66699 -92 26c-30 20 -45 47 -45 81c0 72.667 45.667 109 137 109c37.333 0 68.666 -8.66699 93.999 -26c29.333 -20 44 -47.667 44 -83zM300.001 -287
c0 -39.333 -15.667 -63.667 -47 -73c-13.333 -4 -45.333 -6 -96 -6c-52.667 0 -79 26.333 -79 79v825c0 52 26.333 78 79 78c50.667 0 82.667 -2 96 -6c31.333 -9.33301 47 -33.333 47 -72v-825z" />
    <glyph glyph-name="cent" unicode="&#xa2;" horiz-adv-x="1545" 
d="M1430 631c0 -52.667 -32.667 -78.999 -98 -78.999h-781c-150 0 -258 14.333 -324 43c-113.333 45.333 -170 127.666 -170 246.999v378c0 194 150 291 450 291h836c54.667 0 82 -29.667 82 -89s-27.333 -89 -82 -89h-821c-169.333 0 -254 -35.667 -254 -107v-375
c0 -81.333 96.333 -122 289 -122h794c52.667 0 79 -32.667 79 -98zM911 471.001c0 -52.667 -26 -79 -78 -79c-51.333 0 -81.333 2.33301 -90 7c-28.667 10.667 -43 34.667 -43 72v1061c0 52 26 78 78 78c48.667 0 79 -2 91 -6c28 -9.33301 42 -33.333 42 -72v-1061z" />
    <glyph glyph-name="sterling" unicode="&#xa3;" horiz-adv-x="1479" 
d="M326 527v-383h1055c46 0 69 -23.333 69 -70c0 -50 -23 -75 -69 -75l-1144 1c-62 -0 -93 27.333 -93 82v824c0 202 157.667 303 473 303h162c47.333 0 71 -23 71 -69c0 -50.667 -23.667 -76 -71 -76h-145c-205.333 0 -308 -52 -308 -156v-238h670c46 0 69 -23 69 -69
c0 -49.333 -23 -74 -69 -74h-670z" />
    <glyph glyph-name="currency" unicode="&#xa4;" horiz-adv-x="1596" 
d="M398 680v-172h599c41.333 0 62 -22.667 62 -68c0 -42.667 -20.667 -64 -62 -64h-599v-69c0 -108 110.333 -162 331 -162h739c44.667 0 67 -24 67 -72c0 -48.667 -22.333 -73 -67 -73h-763c-324 0 -486 101 -486 303v73h-49c-42.667 0 -64 22.333 -64 67
c0 43.333 21.333 65 64 65h49v172h-49c-42.667 0 -64 23.333 -64 70c0 42 21.333 63 64 63h49v111c0 190 158.333 285 475 285h720c43.333 0 65 -24 65 -72c0 -48.667 -21.667 -73 -65 -73h-714c-201.333 0 -302 -46.667 -302 -140v-111h771c46 0 69 -22.667 69 -68
c0 -43.333 -23 -65 -69 -65h-771z" />
    <glyph glyph-name="yen" unicode="&#xa5;" horiz-adv-x="1650" 
d="M1101 188c0 -36.667 -19.333 -54.998 -58 -54.998h-121v-62c0 -38.667 -15.667 -63 -47 -73c-13.333 -4 -45 -6 -95 -6c-52.667 0 -79 26 -79 78v63h-155c-13.333 0 -23.833 0.833008 -31.5 2.5s-13.5 4.66699 -17.5 9s-6.66699 10.666 -8 18.999s-2 19.5 -2 33.5
c0 37.333 19.667 56 59 56h155v89h-155c-27.333 0 -44.333 4.33301 -51 13c-5.33301 7.33301 -8 24.666 -8 51.999c0 36.667 19.667 55 59 55h155v39l-601 575c-22.667 22 -34 44.667 -34 68c0 44 29.667 66 89 66c67.333 0 108.333 -7.33301 123 -22l533 -511l535 511
c14.667 14.667 55.667 22 123 22c60 0 90 -21.667 90 -65c0 -23.333 -12 -46.333 -36 -69l-599 -575v-39h119c26.667 0 43 -3.66699 49 -11s9 -25 9 -53c0 -37.333 -19.333 -56 -58 -56h-120v-89h120c27.333 0 44.333 -4.33301 51 -13c4.66699 -4.66699 7 -22 7 -52z" />
    <glyph glyph-name="brokenbar" unicode="&#xa6;" horiz-adv-x="260" 
d="M179 680h-83v742h83v-742zM179 -442h-83v742h83v-742z" />
    <glyph glyph-name="section" unicode="&#xa7;" horiz-adv-x="1178" 
d="M431 743c-110.667 0 -166 -29 -166 -87v-65c0 -64 65 -96 195 -96h285c100.667 0 151 29.333 151 88v61c0 66 -56.667 99 -170 99h-295zM1071 583c0 -74 -40 -128.334 -120 -163.001c80 -39.333 120 -94.666 120 -165.999c0 -169.333 -118.333 -254 -355 -254h-555
c-48.667 0 -73 22.667 -73 68c0 46.667 24.333 70 73 70h584c100.667 0 151 38.667 151 116c0 66.667 -55 100 -165 100h-242c-259.333 0 -389 78.333 -389 235v68c0 69.333 39.667 122 119 158c-79.333 38 -119 93.667 -119 167c0 150.667 123.667 226 371 226h41
c50.667 0 76 -24 76 -72c0 -45.333 -25.333 -68 -76 -68h-81c-110.667 0 -166 -28.667 -166 -86c0 -65.333 63 -98.333 189 -99h251c244 0 366 -79.667 366 -239v-61z" />
    <glyph glyph-name="dieresis" unicode="&#xa8;" horiz-adv-x="1129" 
d="M908 1219c0 -14 -3.00098 -26.5 -9.00098 -37.5s-13.833 -20.333 -23.5 -28s-21 -13.667 -34 -18s-26.5 -6.5 -40.5 -6.5c-27.333 0 -51.666 7.66699 -72.999 23c-22.667 16.667 -34 39 -34 67s11.333 50.333 34 67c20.667 16 45 24 73 24c14 0 27.5 -2.16699 40.5 -6.5
s24.333 -10.5 34 -18.5s17.5 -17.5 23.5 -28.5s9 -23.5 9 -37.5zM559.999 1219c0 -26.667 -11 -48.333 -33 -65c-20.667 -16.667 -45 -25 -73 -25s-52.667 7.66699 -74 23c-22.667 16.667 -34 39 -34 67s11.333 50.333 34 67c20.667 16 45 24 73 24
c14 0 27.5 -2.16699 40.5 -6.5s24.333 -10.5 34 -18.5s17.5 -17.5 23.5 -28.5s9 -23.5 9 -37.5z" />
    <glyph glyph-name="copyright" unicode="&#xa9;" horiz-adv-x="1333" 
d="M605 935c-65.333 0 -98 -27 -98 -81v-208c0 -54.667 33 -82 99 -82h220c26.667 0 40 -15 40 -45c0 -32 -13.333 -48 -40 -48h-230c-116 0 -174 57.667 -174 173v214c0 113.333 58.667 170 176 170h229c26.667 0 40 -15 40 -45c0 -32 -13.333 -48 -40 -48h-222zM1136 759
c0 130 -45 243.668 -135 341.001c-90 94.667 -198 142 -324 142s-234.333 -47.333 -325 -142c-88.667 -92.667 -133 -206.334 -133 -341.001c0 -136 44.333 -250.333 133 -343c90.667 -94.667 199 -142 325 -142s234 47.333 324 142s135 209 135 343zM1230 759.001
c0 -160 -54.002 -297.334 -162.002 -412.001c-109.333 -111.333 -239.666 -167 -390.999 -167s-280.666 55.667 -387.999 167c-106.667 114.667 -160 252 -160 412c0 158.667 53.333 294.334 160 407.001c106.667 114.667 236 172 388 172s282.333 -57.333 391 -172
c108 -113.333 162 -249 162 -407z" />
    <glyph glyph-name="ordfeminine" unicode="&#xaa;" horiz-adv-x="1144" 
d="M797 912h-483c-72.667 0 -109 -19 -109 -57v-108c0 -36 37.667 -54 113 -54h370c72.667 0 109 31 109 93v126zM943 767c0 -129.333 -91.333 -194 -274 -194h-318c-190.667 0 -286 63 -286 189v77c0 120 94 180 282 180h448c0.666992 56 -36 84 -110 84h-130
c-40 0 -60 18 -60 54c0 34.667 20 52 60 52h114c182.667 0 274 -66 274 -198v-244z" />
    <glyph glyph-name="guillemotleft" unicode="&#xab;" horiz-adv-x="1152" 
d="M436 871c16.667 12.667 32.668 18.999 48.001 18.999c10.667 0 20.834 -2.33301 30.501 -7s18.167 -11 25.5 -19s13 -17 17 -27s6 -20 6 -30c0 -24 -11.667 -45.667 -35 -65l-282 -211l282 -206c13.333 -9.33301 22.666 -20 27.999 -32s8 -24 8 -36
c0 -10 -2.16699 -20 -6.5 -30s-10 -19 -17 -27s-15.5 -14.333 -25.5 -19s-20.333 -7 -31 -7c-8 0 -16.333 1.33301 -25 4s-16.334 7.33398 -23.001 14.001l-356 276c-23.333 18 -35 39.333 -35 64c0 27.333 12 49 36 65zM914.001 870.999
c16.667 12.667 32.6641 19 47.9971 19c10.667 0 20.834 -2.33301 30.501 -7s18.167 -11 25.5 -19s13 -17 17 -27s6 -20 6 -30c0 -24.667 -12 -46.334 -36 -65.001l-281 -211l281 -206c13.333 -9.33301 23 -20 29 -32s9 -24 9 -36c0 -10 -2.16699 -20 -6.5 -30
s-10.166 -19 -17.499 -27s-16 -14.333 -26 -19s-20.333 -7 -31 -7c-7.33301 0 -15.666 1.33301 -24.999 4s-17 7.33398 -23 14.001l-355 276c-23.333 18 -35 39.333 -35 64c0 27.333 11.667 49 35 65z" />
    <glyph glyph-name="registered" unicode="&#xae;" horiz-adv-x="1333" 
d="M849 931c0 40 -36 60 -108 60h-252v-194h265c63.333 0 95 18.667 95 56v78zM938 853c0 -92.667 -64.333 -139.334 -193 -140.001h-93l270 -182c14 -5.33301 21 -15.666 21 -30.999c0 -11.333 -4.5 -21.833 -13.5 -31.5s-20.833 -14.5 -35.5 -14.5
c-1.33301 0 -9.33301 2 -24 6l-381 258v-211c0 -32.667 -16.333 -49 -49 -49c-30 0 -45 16.333 -45 49v542c0 18.667 8.33301 28 25 28h308c140 0 210 -49 210 -147v-77zM1136 759c0 130.667 -45 244.667 -135 342c-89.333 94 -197.333 141 -324 141
c-128 0 -236.333 -47 -325 -141c-88.667 -92.667 -133 -206.667 -133 -342c0 -136 44.333 -250.333 133 -343c90.667 -94.667 199 -142 325 -142s234 47.333 324 142s135 209 135 343zM1230 759c0 -160 -54.002 -297.333 -162.002 -412
c-109.333 -111.333 -239.666 -167 -390.999 -167s-280.666 55.667 -387.999 167c-106.667 114.667 -160 252 -160 412c0 158.667 53.333 294.334 160 407.001c106.667 114.667 236 172 388 172c151.333 0 281.333 -57.333 390 -172
c108.667 -110.667 163 -246.334 163 -407.001z" />
    <glyph glyph-name="macron" unicode="&#xaf;" horiz-adv-x="1138" 
d="M1015 1165c0 -32 -6 -52 -18 -60c-9.33301 -5.33301 -29.666 -8 -60.999 -8h-656c-38.667 0 -61.334 4 -68.001 12c-7.33301 9.33301 -11 32.333 -11 69c0 45.333 26.333 68 79 68h656c36.667 0 59 -4.33301 67 -13c8 -9.33301 12 -32 12 -68z" />
    <glyph glyph-name="macron" unicode="&#x2c9;" horiz-adv-x="1138" 
d="M1015 1165c0 -32 -6 -52 -18 -60c-9.33301 -5.33301 -29.666 -8 -60.999 -8h-656c-38.667 0 -61.334 4 -68.001 12c-7.33301 9.33301 -11 32.333 -11 69c0 45.333 26.333 68 79 68h656c36.667 0 59 -4.33301 67 -13c8 -9.33301 12 -32 12 -68z" />
    <glyph glyph-name="degree" unicode="&#xb0;" horiz-adv-x="771" 
d="M688 1078c0 -86.667 -29.667 -159.667 -89 -219c-58.667 -58.667 -131.667 -88 -219 -88s-160.333 29.333 -219 88s-88 131.667 -88 219s29.333 160.333 88 219c59.333 59.333 132.333 89 219 89s159.667 -29.667 219 -89s89 -132.333 89 -219zM603 1079
c0 63.333 -21.333 116.333 -64 159s-95.667 64 -159 64s-116.333 -21.333 -159 -64s-64 -95.667 -64 -159s21.333 -116.333 64 -159s95.667 -64 159 -64s116.333 21.333 159 64s64 95.667 64 159z" />
    <glyph glyph-name="twosuperior" unicode="&#xb2;" horiz-adv-x="1177" 
d="M1015 919c0 -158.667 -109 -238 -327 -238h-280c-116.667 0 -175 -23 -175 -69v-144h711c47.333 0 71 -25.667 71 -77c0 -49.333 -23.667 -74 -71 -74h-819c-45.333 0 -68 22 -68 66v227c0 149.333 125 224 375 224h272c88.667 0 133 22.667 133 68v88
c0 44.667 -41.333 67 -124 67h-212c-51.333 0 -77 25.333 -77 76s25.667 76 77 76h196c212 0 318 -78.333 318 -235v-55z" />
    <glyph glyph-name="threesuperior" unicode="&#xb3;" horiz-adv-x="1220" 
d="M1024 939c0 -72 -39.332 -126 -117.999 -162c78.667 -36.667 118 -94 118 -172v-48c0 -160 -121.333 -240 -364 -240h-527c-53.333 0 -80 24.667 -80 74c0 51.333 26.667 77 80 77h548c110.667 0 166 27.667 166 83v82c0 16 -12.667 30.667 -38 44l2 -1
c-45.333 11.333 -87 17 -125 17h-553c-53.333 0 -80 25.667 -80 77c0 52.667 26.667 79 80 79h553c21.333 0 41.166 1.66699 59.499 5l52.5 10h-1c33.333 13.333 50 30 50 50v81c0 41.333 -54.333 62 -163 62h-160c-54 0 -81 25.333 -81 76s27 76 81 76h126
c249.333 0 374 -73.667 374 -221v-49z" />
    <glyph glyph-name="acute" unicode="&#xb4;" horiz-adv-x="897" 
d="M621 1302c0 -14 -48.668 -69.667 -146.001 -167l-102 -101.5c-24 -23.667 -38.667 -37.167 -44 -40.5c-15.333 -10 -30.666 -15 -45.999 -15c-44.667 0 -67 18.667 -67 56c0 13.333 6 26 18 38l279 276c8.66699 8.66699 20 13 34 13c18 0 34.833 -5.66699 50.5 -17
s23.5 -25.333 23.5 -42z" />
    <glyph glyph-name="mu" unicode="&#xb5;" horiz-adv-x="1490" 
d="M162 866c0 48 28 72 84 72c55.333 0 83 -24 83 -72v-728h649c160 0 240 43 240 129v599c0 48 28 72 84 72s84 -24 84 -72v-599c0 -178 -146.333 -267 -439 -267h-618v-184c0 -52.667 -28 -79 -84 -79c-55.333 0 -83 26.333 -83 79v1050z" />
    <glyph glyph-name="paragraph" unicode="&#xb6;" horiz-adv-x="1377" 
d="M217 940c0 -92 54.333 -138 163 -138h602v262h-611c-102.667 0 -154 -41.333 -154 -124zM1073 -8c-60.667 0 -91 25.333 -91 76v589h-261v-589c0 -48.667 -30.667 -73 -92 -73c-60 0 -90 24.333 -90 73v589h-135c-242 0 -363 94.333 -363 283
c0 179.333 117.667 269 353 269h710c40 0 60 -20 60 -60v-1081c0 -50.667 -30.333 -76 -91 -76z" />
    <glyph glyph-name="cedilla" unicode="&#xb8;" horiz-adv-x="397" 
d="M357 -107c0 -162.667 -63.667 -244.001 -191 -244.001h-180c-52 0 -78 30.667 -78 92c0 59.333 26 89 78 89h100c31.333 0 51 16.333 59 49c1.33301 15.333 2.5 30.333 3.5 45s2.16699 29.334 3.5 44.001c12 32 46.333 48 103 48c68 0 102 -26 102 -78v-45z" />
    <glyph glyph-name="guillemotright" unicode="&#xbb;" horiz-adv-x="1201" 
d="M708 194c-18 -12 -34.666 -17.999 -49.999 -17.999c-11.333 0 -21.666 2.33301 -30.999 7s-17.5 10.667 -24.5 18s-12.5 16 -16.5 26s-6 20 -6 30c0 25.333 12 47 36 65l280 211l-280 208c-14 8.66699 -23.667 19 -29 31s-8 23.667 -8 35c0 10.667 2 21 6 31
s9.66699 19 17 27s15.666 14.333 24.999 19s19.666 7 30.999 7c8 0 16.5 -1.33301 25.5 -4s17.167 -7 24.5 -13l355 -277c22.667 -16.667 34 -38.334 34 -65.001s-12 -48 -36 -64zM229.001 194.001c-17.333 -12 -33.3369 -18 -48.0039 -18
c-11.333 0 -21.666 2.33301 -30.999 7s-17.666 10.667 -24.999 18s-13 16 -17 26s-6 20 -6 30c0 25.333 11.667 47 35 65l282 211l-282 208c-13.333 8.66699 -22.666 19 -27.999 31s-8 23.667 -8 35c0 10.667 2.16699 21 6.5 31s10 19 17 27s15.333 14.333 25 19
s20.167 7 31.5 7c8 0 16.333 -1.33301 25 -4s16.334 -7 23.001 -13l356 -277c23.333 -17.333 35 -39 35 -65c0 -26.667 -12 -48 -36 -64z" />
    <glyph glyph-name="onequarter" unicode="&#xbc;" horiz-adv-x="2657" 
d="M322 388c0 -51.333 -29.667 -77 -89 -77c-58.667 0 -88 25.667 -88 77v748c0 51.333 29.667 77 89 77c58.667 0 88 -25.667 88 -77v-748zM465 -1c-17.333 -16 -35.333 -24 -54 -24c-52.667 0 -79 27.333 -79 82c0 22 8 41 24 57l1056 1090c19.333 17.333 41.333 26 66 26
c58 0 87 -26.667 87 -80c0 -22 -9.66699 -42.667 -29 -62zM2508 61c0 -51.333 -29.667 -77 -89 -77c-58.667 0 -88 25.667 -88 77v149h-750c-32 0 -55 7.33301 -69 22s-21 39 -21 73v504c0 51.333 28.667 77 86 77c58 0 87 -25.667 87 -77v-427h667v427
c0 51.333 29.333 77 88 77c59.333 0 89 -25.667 89 -77v-748z" />
    <glyph glyph-name="onehalf" unicode="&#xbd;" horiz-adv-x="2351" 
d="M322 388c0 -51.333 -29.667 -77 -89 -77c-58.667 0 -88 25.667 -88 77v748c0 51.333 29.667 77 89 77c58.667 0 88 -25.667 88 -77v-748zM439 -1c-18 -16 -36.333 -24 -55 -24c-52 0 -78 27.333 -78 82c0 22 8 41 24 57l1056 1090c17.333 17.333 39 26 65 26
c58.667 0 88 -26.667 88 -80c0 -22 -9.66699 -42.667 -29 -62zM2236 602c0 -157.333 -109 -236 -327 -236h-281c-116 0 -174 -23.667 -174 -71v-143h710c48 0 72 -25.333 72 -76s-24 -76 -72 -76h-819c-44.667 0 -67 22.667 -67 68v226c0 150 124.667 225 374 225h271
c90 0 135 22.667 135 68v87c0 44.667 -41.333 67 -124 67h-212c-51.333 0 -77 25.667 -77 77c0 49.333 25.667 74 77 74h196c212 0 318 -78.333 318 -235v-55z" />
    <glyph glyph-name="threequarters" unicode="&#xbe;" horiz-adv-x="3240" 
d="M1039 -1c-18 -16 -36.333 -23.999 -55 -23.999c-52 0 -78 27.333 -78 82c0 22 8 41 24 57l1056 1090c17.333 17.333 39 26 65 26c58.667 0 88 -26.667 88 -80c0 -22.667 -10 -43.334 -30 -62.001zM3078 64.001c0 -52.667 -29.667 -79 -89 -79
c-58.667 0 -88 26.333 -88 79v149h-750c-32 0 -55.167 7.16699 -69.5 21.5s-21.5 38.5 -21.5 72.5v504c0 51.333 29 77 87 77c57.333 0 86 -25.667 86 -77v-427h668v427c0 51.333 29.333 77 88 77c59.333 0 89 -25.667 89 -77v-747zM1016 939.001
c0 -71.333 -35 -125.333 -105 -162c70 -37.333 105 -94.666 105 -171.999v-48c0 -160 -121.333 -240 -364 -240h-527c-53.333 0 -80 24.667 -80 74c0 51.333 26.667 77 80 77h549c110 0 165 27.667 165 83v82c0 16 -12.667 30.667 -38 44l2 -1
c-45.333 11.333 -86.333 17 -123 17h-555c-53.333 0 -80 25.667 -80 77c0 52.667 26.667 79 80 79h555c20 0 39.333 1.66699 58 5s36 6.66602 52 9.99902h-1c33.333 13.333 50 30 50 50v81c0 41.333 -54 62 -162 62h-161c-53.333 0 -80 25.333 -80 76s26.667 76 80 76h128
c248 0 372 -73.667 372 -221v-49z" />
    <glyph glyph-name="questiondown" unicode="&#xbf;" horiz-adv-x="1144" 
d="M55 106c0 98.667 61.3359 173.336 184.003 224.003c92 38 196.333 57 313 57h235c36 0 54 21.667 54 65c0 4 -0.166992 9.66699 -0.5 17s-0.833008 14.666 -1.5 21.999s-1.16699 14.666 -1.5 21.999s-0.5 13 -0.5 17c0 40 13.333 65.333 40 76c20 5.33301 50.667 8 92 8
c55.333 0 83 -38 83 -114c0 -5.33301 -0.166992 -11.833 -0.5 -19.5s-0.833008 -16.834 -1.5 -27.501c-0.666992 -10 -1.16699 -18.833 -1.5 -26.5s-0.5 -14.167 -0.5 -19.5c0 -132 -117.333 -198 -352 -198h-30h-20h-11c-6.66699 0 -10.334 0.333008 -11.001 1
c-15.333 0.666992 -29 1.16699 -41 1.5s-22 0.5 -30 0.5c-60.667 0 -118 -7 -172 -21c-77.333 -20 -116 -50 -116 -90v-136c0 -98 111 -147 333 -147c52.667 0 79 -32.667 79 -98c0 -37.333 -13.667 -61 -41 -71c-8.66699 -4.66699 -38.334 -7 -89.001 -7
c-130.667 0 -238.334 21.333 -323.001 64c-112.667 54.667 -169 140 -169 256v144zM812.003 744.002c0 34.667 14.668 61.999 44.001 81.999c25.333 17.333 56.333 26 93 26c35.333 0 66.666 -8.66699 93.999 -26c29.333 -19.333 44 -46.666 44 -81.999
c0 -34.667 -14.667 -62 -44 -82c-25.333 -17.333 -56.333 -26 -93 -26s-67.667 8.66699 -93 26c-30 20 -45 47.333 -45 82z" />
    <glyph glyph-name="Agrave" unicode="&#xc0;" horiz-adv-x="1785" 
d="M1730 75c0 -30.667 -10.3301 -56.332 -30.9971 -76.999s-46.334 -31 -77.001 -31c-42.667 0 -77.334 20 -104.001 60l-197 286h-936l-197 -286c-21.333 -31.333 -44.333 -47 -69 -47s-48.334 8 -71.001 24c-25.333 17.333 -38 37.666 -38 60.999c0 7.33301 2 14 6 20
l702 1073c28.667 44 78 66 148 66c52 0 86.667 -14.667 104 -44c1.33301 -2 2.83301 -4.83301 4.5 -8.5s4.16699 -8.16699 7.5 -13.5l744 -1053c2.66699 -4.66699 4 -14.667 4 -30zM1191 497.002l-337 497l-339 -497h676zM964.003 1323
c0 -37.333 -22.333 -56.001 -67 -56.001c-14.667 0 -29.667 4.66699 -45 14c-14 10 -63.333 57.333 -148 142l-97 98.5c-22.667 23.667 -35.667 38.834 -39 45.501c-6 8.66699 -9 16.667 -9 24c0 16.667 7.83301 30.667 23.5 42s32.5 17 50.5 17
c14 0 25.333 -4.33301 34 -13l279 -276c12 -12 18 -24.667 18 -38z" />
    <glyph glyph-name="Aacute" unicode="&#xc1;" horiz-adv-x="1785" 
d="M1730 75c0 -30.667 -10.3301 -56.332 -30.9971 -76.999s-46.334 -31 -77.001 -31c-42.667 0 -77.334 20 -104.001 60l-197 286h-936l-197 -286c-21.333 -31.333 -44.333 -47 -69 -47s-48.334 8 -71.001 24c-25.333 17.333 -38 37.666 -38 60.999c0 7.33301 2 14 6 20
l702 1073c28.667 44 78 66 148 66c52 0 86.667 -14.667 104 -44c1.33301 -2 2.83301 -4.83301 4.5 -8.5s4.16699 -8.16699 7.5 -13.5l744 -1053c2.66699 -4.66699 4 -14.667 4 -30zM1191 497.002l-337 497l-339 -497h676zM1078 1593c0 -14 -48.668 -69.667 -146.001 -167
l-102 -101.5c-24 -23.667 -38.667 -37.167 -44 -40.5c-15.333 -10 -30.666 -15 -45.999 -15c-44.667 0 -67 18.667 -67 56c0 13.333 6 26 18 38l279 276c8.66699 8.66699 20 13 34 13c18 0 34.833 -5.66699 50.5 -17s23.5 -25.333 23.5 -42z" />
    <glyph glyph-name="Acircumflex" unicode="&#xc2;" horiz-adv-x="1785" 
d="M1730 75c0 -30.667 -10.3301 -56.332 -30.9971 -76.999s-46.334 -31 -77.001 -31c-42.667 0 -77.334 20 -104.001 60l-197 286h-936l-197 -286c-21.333 -31.333 -44.333 -47 -69 -47s-48.334 8 -71.001 24c-25.333 17.333 -38 37.666 -38 60.999c0 7.33301 2 14 6 20
l702 1073c28.667 44 78 66 148 66c52 0 86.667 -14.667 104 -44c1.33301 -2 2.83301 -4.83301 4.5 -8.5s4.16699 -8.16699 7.5 -13.5l744 -1053c2.66699 -4.66699 4 -14.667 4 -30zM1191 497.002l-337 497l-339 -497h676zM1213 1321c0 -38.667 -23 -57.999 -69 -57.999
c-23.333 0 -46.333 10.333 -69 31l-24 23.5l-33 32.5l-53 50l-101 94c-46.667 -48 -88.667 -89.333 -126 -124s-70 -63.667 -98 -87c-15.333 -12 -32.333 -18 -51 -18c-48.667 0 -73 19.333 -73 58c0 11.333 5.33301 22.333 16 33l266 267c19.333 19.333 41.333 29 66 29
s46.667 -9.66699 66 -29l267 -267c10.667 -10.667 16 -22.334 16 -35.001z" />
    <glyph glyph-name="Atilde" unicode="&#xc3;" horiz-adv-x="1785" 
d="M1730 75c0 -30.667 -10.3301 -56.332 -30.9971 -76.999s-46.334 -31 -77.001 -31c-42.667 0 -77.334 20 -104.001 60l-197 286h-936l-197 -286c-21.333 -31.333 -44.333 -47 -69 -47s-48.334 8 -71.001 24c-25.333 17.333 -38 37.666 -38 60.999c0 7.33301 2 14 6 20
l702 1073c28.667 44 78 66 148 66c52 0 86.667 -14.667 104 -44c1.33301 -2 2.83301 -4.83301 4.5 -8.5s4.16699 -8.16699 7.5 -13.5l744 -1053c2.66699 -4.66699 4 -14.667 4 -30zM1191 497.002l-337 497l-339 -497h676zM1252 1489c0 -32 -6 -52 -18 -60
c-9.33301 -5.33301 -29.666 -8 -60.999 -8h-656c-38.667 0 -61.334 4 -68.001 12c-7.33301 9.33301 -11 32.333 -11 69c0 45.333 26.333 68 79 68h656c36.667 0 59 -4.33301 67 -13c8 -9.33301 12 -32 12 -68z" />
    <glyph glyph-name="Adieresis" unicode="&#xc4;" horiz-adv-x="1785" 
d="M1730 75c0 -30.667 -10.3301 -56.332 -30.9971 -76.999s-46.334 -31 -77.001 -31c-42.667 0 -77.334 20 -104.001 60l-197 286h-936l-197 -286c-21.333 -31.333 -44.333 -47 -69 -47s-48.334 8 -71.001 24c-25.333 17.333 -38 37.666 -38 60.999c0 7.33301 2 14 6 20
l702 1073c28.667 44 78 66 148 66c52 0 86.667 -14.667 104 -44c1.33301 -2 2.83301 -4.83301 4.5 -8.5s4.16699 -8.16699 7.5 -13.5l744 -1053c2.66699 -4.66699 4 -14.667 4 -30zM1191 497.002l-337 497l-339 -497h676zM1149 1559c0 -14 -3.00098 -26.5 -9.00098 -37.5
s-13.833 -20.333 -23.5 -28s-21 -13.667 -34 -18s-26.5 -6.5 -40.5 -6.5c-27.333 0 -51.666 7.66699 -72.999 23c-22.667 16.667 -34 39 -34 67s11.333 50.333 34 67c20.667 16 45 24 73 24c14 0 27.5 -2.16699 40.5 -6.5s24.333 -10.5 34 -18.5s17.5 -17.5 23.5 -28.5
s9 -23.5 9 -37.5zM801.002 1559c0 -26.667 -11 -48.333 -33 -65c-20.667 -16.667 -45 -25 -73 -25s-52.667 7.66699 -74 23c-22.667 16.667 -34 39 -34 67s11.333 50.333 34 67c20.667 16 45 24 73 24c14 0 27.5 -2.16699 40.5 -6.5s24.333 -10.5 34 -18.5
s17.5 -17.5 23.5 -28.5s9 -23.5 9 -37.5z" />
    <glyph glyph-name="Aring" unicode="&#xc5;" horiz-adv-x="1785" 
d="M1730 75c0 -30.667 -10.3301 -56.332 -30.9971 -76.999s-46.334 -31 -77.001 -31c-42.667 0 -77.334 20 -104.001 60l-197 286h-936l-197 -286c-21.333 -31.333 -44.333 -47 -69 -47s-48.334 8 -71.001 24c-25.333 17.333 -38 37.666 -38 60.999c0 7.33301 2 14 6 20
l702 1073c28.667 44 78 66 148 66c52 0 86.667 -14.667 104 -44c1.33301 -2 2.83301 -4.83301 4.5 -8.5s4.16699 -8.16699 7.5 -13.5l744 -1053c2.66699 -4.66699 4 -14.667 4 -30zM1191 497.002l-337 497l-339 -497h676zM1059 1483c0 -52.667 -19 -95.333 -57 -128
c-36.667 -32.667 -81.667 -49 -135 -49c-52 0 -96.333 16.333 -133 49c-38.667 34 -58 76.667 -58 128c0 52 19 94.667 57 128c36 32 80.667 48 134 48c52 0 96.667 -16 134 -48c38.667 -34 58 -76.667 58 -128zM989.003 1483c0 32.667 -12 59.667 -36 81
c-25.333 21.333 -54 32 -86 32s-60.667 -10.667 -86 -32c-24 -21.333 -36 -48.333 -36 -81c0 -33.333 12 -60.333 36 -81c25.333 -21.333 54 -32 86 -32s60.667 10.667 86 32c24 20.667 36 47.667 36 81z" />
    <glyph glyph-name="AE" unicode="&#xc6;" horiz-adv-x="1749" 
d="M1665 601c0 -64.667 -27.666 -96.999 -82.999 -96.999h-489v-200c0 -86 95 -129 285 -129h204c52 0 78 -26.333 78 -79c0 -69.333 -26 -104 -78 -104h-214c-138 0 -247.333 20.333 -328 61c-112.667 54 -169 140.667 -169 260h-470l-197 -286
c-21.333 -31.333 -44.333 -47 -69 -47s-48.334 8 -71.001 24c-25.333 17.333 -38 37.666 -38 60.999c0 7.33301 2 14 6 20l702 1073c28.667 44.667 78.667 67 150 67c76 0 114 -35.333 114 -106c88.667 60.667 218.334 91 389.001 91h187c51.333 0 77 -34 77 -102
c0 -52.667 -25.667 -79 -77 -79h-25h-16h-9c-5.33301 0 -8.33301 0.333008 -9 1c-13.333 0.666992 -24.833 1.16699 -34.5 1.5s-17.834 0.5 -24.501 0.5c-243.333 0 -365 -44 -365 -132v-213h492c54.667 0 82 -28.667 82 -86zM870.001 497.001v497l-339 -497h339z" />
    <glyph glyph-name="Ccedilla" unicode="&#xc7;" horiz-adv-x="1565" 
d="M1423 1108c0 -52.667 -25.999 -79 -77.999 -79h-791c-192 0 -288 -38.333 -288 -115v-603c0 -90.667 106.333 -136 319 -136h755c54 0 81 -30.333 81 -91c0 -61.333 -27 -92 -81 -92h-755c-102 0 -175.333 4 -220 12c-48.667 9.33301 -99.334 27.333 -152.001 54
c-60 31.333 -102 64 -126 98c-28.667 38.667 -43 89 -43 151v606c0 76.667 35 142 105 196c58.667 44.667 130 74.667 214 90c21.333 3.33301 47.333 6 78 8s67 3 109 3h795c52 0 78 -34 78 -102zM938.001 -67c0 -162.667 -63.667 -244.001 -191 -244.001h-180
c-52 0 -78 30.667 -78 92c0 59.333 26 89 78 89h100c31.333 0 51 16.333 59 49c1.33301 15.333 2.5 30.333 3.5 45s2.16699 29.334 3.5 44.001c12 32 46.333 48 103 48c68 0 102 -26 102 -78v-45z" />
    <glyph glyph-name="Egrave" unicode="&#xc8;" horiz-adv-x="1479" 
d="M1427 601c0 -64.667 -27.666 -97 -82.999 -97h-1069v-200c0 -86 95 -129 285 -129h784c52 0 78 -26.333 78 -79c0 -69.333 -26 -104 -78 -104h-794c-116 0 -222.333 20.667 -319 62c-118.667 54 -178 134.667 -178 242v604c0 58 19.667 110.667 59 158
c85.333 101.333 237.666 152 456.999 152h217c51.333 0 77 -34 77 -102c0 -52.667 -25.667 -79 -77 -79h-32h-20h-11c-7.33301 0 -11.333 0.333008 -12 1c-16.667 0.666992 -31 1.16699 -43 1.5s-22 0.5 -30 0.5c-243.333 0 -365 -44 -365 -132v-213h1072
c54.667 0 82 -28.667 82 -86zM878.001 1318c0 -37.333 -22.333 -56.001 -67 -56.001c-14.667 0 -29.667 4.66699 -45 14c-14 10 -63.333 57.333 -148 142l-97 98.5c-22.667 23.667 -35.667 38.834 -39 45.501c-6 8.66699 -9 16.667 -9 24c0 16.667 7.83301 30.667 23.5 42
s32.5 17 50.5 17c14 0 25.333 -4.33301 34 -13l279 -276c12 -12 18 -24.667 18 -38z" />
    <glyph glyph-name="Eacute" unicode="&#xc9;" horiz-adv-x="1479" 
d="M1427 601c0 -64.667 -27.666 -97 -82.999 -97h-1069v-200c0 -86 95 -129 285 -129h784c52 0 78 -26.333 78 -79c0 -69.333 -26 -104 -78 -104h-794c-116 0 -222.333 20.667 -319 62c-118.667 54 -178 134.667 -178 242v604c0 58 19.667 110.667 59 158
c85.333 101.333 237.666 152 456.999 152h217c51.333 0 77 -34 77 -102c0 -52.667 -25.667 -79 -77 -79h-32h-20h-11c-7.33301 0 -11.333 0.333008 -12 1c-16.667 0.666992 -31 1.16699 -43 1.5s-22 0.5 -30 0.5c-243.333 0 -365 -44 -365 -132v-213h1072
c54.667 0 82 -28.667 82 -86zM1079 1598c0 -14 -48.668 -69.667 -146.001 -167l-102 -101.5c-24 -23.667 -38.667 -37.167 -44 -40.5c-15.333 -10 -30.666 -15 -45.999 -15c-44.667 0 -67 18.667 -67 56c0 13.333 6 26 18 38l279 276c8.66699 8.66699 20 13 34 13
c18 0 34.833 -5.66699 50.5 -17s23.5 -25.333 23.5 -42z" />
    <glyph glyph-name="Ecircumflex" unicode="&#xca;" horiz-adv-x="1479" 
d="M1427 601c0 -64.667 -27.666 -97 -82.999 -97h-1069v-200c0 -86 95 -129 285 -129h784c52 0 78 -26.333 78 -79c0 -69.333 -26 -104 -78 -104h-794c-116 0 -222.333 20.667 -319 62c-118.667 54 -178 134.667 -178 242v604c0 58 19.667 110.667 59 158
c85.333 101.333 237.666 152 456.999 152h217c51.333 0 77 -34 77 -102c0 -52.667 -25.667 -79 -77 -79h-32h-20h-11c-7.33301 0 -11.333 0.333008 -12 1c-16.667 0.666992 -31 1.16699 -43 1.5s-22 0.5 -30 0.5c-243.333 0 -365 -44 -365 -132v-213h1072
c54.667 0 82 -28.667 82 -86zM995.001 1325c0 -38.667 -23 -57.999 -69 -57.999c-23.333 0 -46.333 10.333 -69 31l-24 23.5l-33 32.5l-53 50l-101 94c-46.667 -48 -88.667 -89.333 -126 -124s-70 -63.667 -98 -87c-15.333 -12 -32.333 -18 -51 -18
c-48.667 0 -73 19.333 -73 58c0 11.333 5.33301 22.333 16 33l266 267c19.333 19.333 41.333 29 66 29s46.667 -9.66699 66 -29l267 -267c10.667 -10.667 16 -22.334 16 -35.001z" />
    <glyph glyph-name="Edieresis" unicode="&#xcb;" horiz-adv-x="1479" 
d="M1427 601c0 -64.667 -27.666 -97 -82.999 -97h-1069v-200c0 -86 95 -129 285 -129h784c52 0 78 -26.333 78 -79c0 -69.333 -26 -104 -78 -104h-794c-116 0 -222.333 20.667 -319 62c-118.667 54 -178 134.667 -178 242v604c0 58 19.667 110.667 59 158
c85.333 101.333 237.666 152 456.999 152h217c51.333 0 77 -34 77 -102c0 -52.667 -25.667 -79 -77 -79h-32h-20h-11c-7.33301 0 -11.333 0.333008 -12 1c-16.667 0.666992 -31 1.16699 -43 1.5s-22 0.5 -30 0.5c-243.333 0 -365 -44 -365 -132v-213h1072
c54.667 0 82 -28.667 82 -86zM908.001 1569c0 -14 -3.00098 -26.5 -9.00098 -37.5s-13.833 -20.333 -23.5 -28s-21 -13.667 -34 -18s-26.5 -6.5 -40.5 -6.5c-27.333 0 -51.666 7.66699 -72.999 23c-22.667 16.667 -34 39 -34 67s11.333 50.333 34 67c20.667 16 45 24 73 24
c14 0 27.5 -2.16699 40.5 -6.5s24.333 -10.5 34 -18.5s17.5 -17.5 23.5 -28.5s9 -23.5 9 -37.5zM560 1569c0 -26.667 -11 -48.333 -33 -65c-20.667 -16.667 -45 -25 -73 -25s-52.667 7.66699 -74 23c-22.667 16.667 -34 39 -34 67s11.333 50.333 34 67
c20.667 16 45 24 73 24c14 0 27.5 -2.16699 40.5 -6.5s24.333 -10.5 34 -18.5s17.5 -17.5 23.5 -28.5s9 -23.5 9 -37.5z" />
    <glyph glyph-name="Igrave" unicode="&#xcc;" horiz-adv-x="394" 
d="M304 71c0 -52.667 -26 -78.999 -78 -78.999c-22.667 0 -42 0.5 -58 1.5s-28.667 2.16699 -38 3.5c-32 10 -48 34.667 -48 74v1061c0 39.333 15.667 63.666 47 72.999c7.33301 1.33301 19 2.5 35 3.5s36.667 1.5 62 1.5c52 0 78 -26 78 -78v-1061zM384 1319
c0 -37.333 -22.333 -56.001 -67 -56.001c-14.667 0 -29.667 4.66699 -45 14c-14 10 -63.333 57.333 -148 142l-97 98.5c-22.667 23.667 -35.667 38.834 -39 45.501c-6 8.66699 -9 16.667 -9 24c0 16.667 7.83301 30.667 23.5 42s32.5 17 50.5 17
c14 0 25.333 -4.33301 34 -13l279 -276c12 -12 18 -24.667 18 -38z" />
    <glyph glyph-name="Iacute" unicode="&#xcd;" horiz-adv-x="388" 
d="M300 71c0 -52.667 -26 -78.999 -78 -78.999c-22.667 0 -42 0.5 -58 1.5s-28.667 2.16699 -38 3.5c-32 10 -48 34.667 -48 74v1061c0 39.333 15.667 63.666 47 72.999c7.33301 1.33301 19 2.5 35 3.5s36.667 1.5 62 1.5c52 0 78 -26 78 -78v-1061zM412 1599
c0 -14 -48.668 -69.667 -146.001 -167l-102 -101.5c-24 -23.667 -38.667 -37.167 -44 -40.5c-15.333 -10 -30.666 -15 -45.999 -15c-44.667 0 -67 18.667 -67 56c0 13.333 6 26 18 38l279 276c8.66699 8.66699 20 13 34 13c18 0 34.833 -5.66699 50.5 -17
s23.5 -25.333 23.5 -42z" />
    <glyph glyph-name="Icircumflex" unicode="&#xce;" horiz-adv-x="585" 
d="M381 71c0 -52.667 -26 -78.999 -78 -78.999c-22.667 0 -42 0.5 -58 1.5s-28.667 2.16699 -38 3.5c-32 10 -48 34.667 -48 74v1061c0 39.333 15.667 63.666 47 72.999c7.33301 1.33301 19 2.5 35 3.5s36.667 1.5 62 1.5c52 0 78 -26 78 -78v-1061zM632 1331
c0 -38.667 -23 -57.999 -69 -57.999c-23.333 0 -46.333 10.333 -69 31l-24 23.5l-33 32.5l-53 50l-101 94c-46.667 -48 -88.667 -89.333 -126 -124s-70 -63.667 -98 -87c-15.333 -12 -32.333 -18 -51 -18c-48.667 0 -73 19.333 -73 58c0 11.333 5.33301 22.333 16 33
l266 267c19.333 19.333 41.333 29 66 29s46.667 -9.66699 66 -29l267 -267c10.667 -10.667 16 -22.334 16 -35.001z" />
    <glyph glyph-name="Idieresis" unicode="&#xcf;" horiz-adv-x="495" 
d="M351 71c0 -52.667 -26 -78.999 -78 -78.999c-22.667 0 -42 0.5 -58 1.5s-28.667 2.16699 -38 3.5c-32 10 -48 34.667 -48 74v1061c0 39.333 15.667 63.666 47 72.999c7.33301 1.33301 19 2.5 35 3.5s36.667 1.5 62 1.5c52 0 78 -26 78 -78v-1061zM538 1570
c0 -14 -3.00098 -26.5 -9.00098 -37.5s-13.833 -20.333 -23.5 -28s-21 -13.667 -34 -18s-26.5 -6.5 -40.5 -6.5c-27.333 0 -51.666 7.66699 -72.999 23c-22.667 16.667 -34 39 -34 67s11.333 50.333 34 67c20.667 16 45 24 73 24c14 0 27.5 -2.16699 40.5 -6.5
s24.333 -10.5 34 -18.5s17.5 -17.5 23.5 -28.5s9 -23.5 9 -37.5zM189.999 1570c0 -26.667 -11 -48.333 -33 -65c-20.667 -16.667 -45 -25 -73 -25s-52.667 7.66699 -74 23c-22.667 16.667 -34 39 -34 67s11.333 50.333 34 67c20.667 16 45 24 73 24
c14 0 27.5 -2.16699 40.5 -6.5s24.333 -10.5 34 -18.5s17.5 -17.5 23.5 -28.5s9 -23.5 9 -37.5z" />
    <glyph glyph-name="Eth" unicode="&#xd0;" horiz-adv-x="1743" 
d="M156 688v444c0 52 26 78 78 78h945c330 0 495 -103.333 495 -310v-579c0 -114.667 -57.667 -201.667 -173 -261c-89.333 -45.333 -198.333 -68 -327 -68h-940c-52 0 -78 26.333 -78 79v449h-136c-29.333 0 -47 8.33301 -53 25c-2 6 -3 27.667 -3 65c0 52 18.667 78 56 78
h136zM543 597c0 -51.333 -18.667 -77 -56 -77h-109v-345h791c67.333 0 126.666 9 177.999 27c71.333 25.333 107 65.333 107 120v577c0 48 -36.333 83.333 -109 106c-51.333 16 -108.666 24 -171.999 24h-795v-341h109c29.333 0 47 -8.66699 53 -26c2 -5.33301 3 -27 3 -65z
" />
    <glyph glyph-name="Ntilde" unicode="&#xd1;" horiz-adv-x="1650" 
d="M1590 123c0 -92.667 -40.668 -139 -122.001 -139c-37.333 0 -79.666 19.667 -126.999 59l-1037 881v-853c0 -39.333 -16 -64 -48 -74c-9.33301 -1.33301 -22 -2.5 -38 -3.5s-35.333 -1.5 -58 -1.5c-52 0 -78 26.333 -78 79v1016c0 88 38 132 114 132
c48 0 97.333 -21.333 148 -64l1023 -871v848c0 38.667 16 63 48 73c9.33301 1.33301 22 2.5 38 3.5s35.333 1.5 58 1.5c52.667 0 79 -26 79 -78v-1009zM1314 1504c0 -32 -6 -52 -18 -60c-9.33301 -5.33301 -29.666 -8 -60.999 -8h-656c-38.667 0 -61.334 4 -68.001 12
c-7.33301 9.33301 -11 32.333 -11 69c0 45.333 26.333 68 79 68h656c36.667 0 59 -4.33301 67 -13c8 -9.33301 12 -32 12 -68z" />
    <glyph glyph-name="Ograve" unicode="&#xd2;" horiz-adv-x="1605" 
d="M1541 319c0 -218 -188.333 -327 -565 -327h-346c-152.667 0 -273 19.333 -361 58c-134.667 54.667 -202 144 -202 268v562c0 220 187.667 330 563 330h346c175.333 0 299 -15.333 371 -46c129.333 -50 194 -144.667 194 -284v-561zM1318 324v551
c0 102.667 -112.333 154 -337 154h-352c-226.667 0 -340 -51.333 -340 -154v-551c0 -99.333 113.333 -149 340 -149h353c224 0 336 49.667 336 149zM914 1323c0 -37.333 -22.333 -56.001 -67 -56.001c-14.667 0 -29.667 4.66699 -45 14c-14 10 -63.333 57.333 -148 142
l-97 98.5c-22.667 23.667 -35.667 38.834 -39 45.501c-6 8.66699 -9 16.667 -9 24c0 16.667 7.83301 30.667 23.5 42s32.5 17 50.5 17c14 0 25.333 -4.33301 34 -13l279 -276c12 -12 18 -24.667 18 -38z" />
    <glyph glyph-name="Oacute" unicode="&#xd3;" horiz-adv-x="1605" 
d="M1541 319c0 -218 -188.333 -327 -565 -327h-346c-152.667 0 -273 19.333 -361 58c-134.667 54.667 -202 144 -202 268v562c0 220 187.667 330 563 330h346c175.333 0 299 -15.333 371 -46c129.333 -50 194 -144.667 194 -284v-561zM1318 324v551
c0 102.667 -112.333 154 -337 154h-352c-226.667 0 -340 -51.333 -340 -154v-551c0 -99.333 113.333 -149 340 -149h353c224 0 336 49.667 336 149zM997 1602c0 -14 -48.668 -69.667 -146.001 -167l-102 -101.5c-24 -23.667 -38.667 -37.167 -44 -40.5
c-15.333 -10 -30.666 -15 -45.999 -15c-44.667 0 -67 18.667 -67 56c0 13.333 6 26 18 38l279 276c8.66699 8.66699 20 13 34 13c18 0 34.833 -5.66699 50.5 -17s23.5 -25.333 23.5 -42z" />
    <glyph glyph-name="Ocircumflex" unicode="&#xd4;" horiz-adv-x="1605" 
d="M1541 319c0 -218 -188.333 -327 -565 -327h-346c-152.667 0 -273 19.333 -361 58c-134.667 54.667 -202 144 -202 268v562c0 220 187.667 330 563 330h346c175.333 0 299 -15.333 371 -46c129.333 -50 194 -144.667 194 -284v-561zM1318 324v551
c0 102.667 -112.333 154 -337 154h-352c-226.667 0 -340 -51.333 -340 -154v-551c0 -99.333 113.333 -149 340 -149h353c224 0 336 49.667 336 149zM1163 1321c0 -38.667 -23 -57.999 -69 -57.999c-23.333 0 -46.333 10.333 -69 31l-24 23.5l-33 32.5l-53 50l-101 94
c-46.667 -48 -88.667 -89.333 -126 -124s-70 -63.667 -98 -87c-15.333 -12 -32.333 -18 -51 -18c-48.667 0 -73 19.333 -73 58c0 11.333 5.33301 22.333 16 33l266 267c19.333 19.333 41.333 29 66 29s46.667 -9.66699 66 -29l267 -267
c10.667 -10.667 16 -22.334 16 -35.001z" />
    <glyph glyph-name="Otilde" unicode="&#xd5;" horiz-adv-x="1605" 
d="M1541 319c0 -218 -188.333 -327 -565 -327h-346c-152.667 0 -273 19.333 -361 58c-134.667 54.667 -202 144 -202 268v562c0 220 187.667 330 563 330h346c175.333 0 299 -15.333 371 -46c129.333 -50 194 -144.667 194 -284v-561zM1318 324v551
c0 102.667 -112.333 154 -337 154h-352c-226.667 0 -340 -51.333 -340 -154v-551c0 -99.333 113.333 -149 340 -149h353c224 0 336 49.667 336 149zM1220 1503c0 -32 -6 -52 -18 -60c-9.33301 -5.33301 -29.666 -8 -60.999 -8h-656c-38.667 0 -61.334 4 -68.001 12
c-7.33301 9.33301 -11 32.333 -11 69c0 45.333 26.333 68 79 68h656c36.667 0 59 -4.33301 67 -13c8 -9.33301 12 -32 12 -68z" />
    <glyph glyph-name="Odieresis" unicode="&#xd6;" horiz-adv-x="1605" 
d="M1541 319c0 -218 -188.333 -327 -565 -327h-346c-152.667 0 -273 19.333 -361 58c-134.667 54.667 -202 144 -202 268v562c0 220 187.667 330 563 330h346c175.333 0 299 -15.333 371 -46c129.333 -50 194 -144.667 194 -284v-561zM1318 324v551
c0 102.667 -112.333 154 -337 154h-352c-226.667 0 -340 -51.333 -340 -154v-551c0 -99.333 113.333 -149 340 -149h353c224 0 336 49.667 336 149zM1092 1572c0 -14 -3.00098 -26.5 -9.00098 -37.5s-13.833 -20.333 -23.5 -28s-21 -13.667 -34 -18s-26.5 -6.5 -40.5 -6.5
c-27.333 0 -51.666 7.66699 -72.999 23c-22.667 16.667 -34 39 -34 67s11.333 50.333 34 67c20.667 16 45 24 73 24c14 0 27.5 -2.16699 40.5 -6.5s24.333 -10.5 34 -18.5s17.5 -17.5 23.5 -28.5s9 -23.5 9 -37.5zM743.999 1572c0 -26.667 -11 -48.333 -33 -65
c-20.667 -16.667 -45 -25 -73 -25s-52.667 7.66699 -74 23c-22.667 16.667 -34 39 -34 67s11.333 50.333 34 67c20.667 16 45 24 73 24c14 0 27.5 -2.16699 40.5 -6.5s24.333 -10.5 34 -18.5s17.5 -17.5 23.5 -28.5s9 -23.5 9 -37.5z" />
    <glyph glyph-name="Oslash" unicode="&#xd8;" horiz-adv-x="1650" 
d="M312 292l770 744c-27.333 2 -56 3 -86 3h-352c-226.667 0 -340 -51.333 -340 -154v-551c0 -8 2.66699 -22 8 -42zM1302 964l-798 -771c20.667 -2.66699 42.5 -4.66699 65.5 -6s47.833 -2 74.5 -2h353c224 0 336 49.667 336 149v551c0 32 -10.333 58.333 -31 79zM1556 890
v-561c0 -218 -188.333 -327 -565 -327h-346c-375.333 0 -563 108.667 -563 326v562c0 220 187.667 330 563 330h346c176.667 0 306 -17 388 -51c118 -50 177 -143 177 -279z" />
    <glyph glyph-name="Ugrave" unicode="&#xd9;" horiz-adv-x="1642" 
d="M1567 335c0 -231.333 -221.668 -347.002 -665.001 -347.002c-13.333 0 -30.166 0.166992 -50.499 0.5s-43.833 0.833008 -70.5 1.5s-50 1.16699 -70 1.5s-36.667 0.5 -50 0.5c-312 0 -499.667 58.667 -563 176c-22 40.667 -33 96.334 -33 167.001v797c0 52 26 78 78 78
c50 0 82 -2 96 -6c32.667 -10 49 -34 49 -72v-782c0 -77.333 47 -129 141 -155c28 -6.66699 61.167 -11.667 99.5 -15s83.5 -5 135.5 -5h306c116.667 0 195 6.33301 235 19c94 24.667 141 76.334 141 155.001v783c0 38.667 15.667 62.667 47 72c12.667 4 44.667 6 96 6
c52 0 78 -26 78 -78v-797zM988.999 1330c0 -37.333 -22.333 -56.001 -67 -56.001c-14.667 0 -29.667 4.66699 -45 14c-14 10 -63.333 57.333 -148 142l-97 98.5c-22.667 23.667 -35.667 38.834 -39 45.501c-6 8.66699 -9 16.667 -9 24c0 16.667 7.83301 30.667 23.5 42
s32.5 17 50.5 17c14 0 25.333 -4.33301 34 -13l279 -276c12 -12 18 -24.667 18 -38z" />
    <glyph glyph-name="Uacute" unicode="&#xda;" horiz-adv-x="1642" 
d="M1567 335c0 -231.333 -221.668 -347.002 -665.001 -347.002c-13.333 0 -30.166 0.166992 -50.499 0.5s-43.833 0.833008 -70.5 1.5s-50 1.16699 -70 1.5s-36.667 0.5 -50 0.5c-312 0 -499.667 58.667 -563 176c-22 40.667 -33 96.334 -33 167.001v797c0 52 26 78 78 78
c50 0 82 -2 96 -6c32.667 -10 49 -34 49 -72v-782c0 -77.333 47 -129 141 -155c28 -6.66699 61.167 -11.667 99.5 -15s83.5 -5 135.5 -5h306c116.667 0 195 6.33301 235 19c94 24.667 141 76.334 141 155.001v783c0 38.667 15.667 62.667 47 72c12.667 4 44.667 6 96 6
c52 0 78 -26 78 -78v-797zM1031 1593c0 -14 -48.668 -69.667 -146.001 -167l-102 -101.5c-24 -23.667 -38.667 -37.167 -44 -40.5c-15.333 -10 -30.666 -15 -45.999 -15c-44.667 0 -67 18.667 -67 56c0 13.333 6 26 18 38l279 276c8.66699 8.66699 20 13 34 13
c18 0 34.833 -5.66699 50.5 -17s23.5 -25.333 23.5 -42z" />
    <glyph glyph-name="Ucircumflex" unicode="&#xdb;" horiz-adv-x="1642" 
d="M1567 335c0 -231.333 -221.668 -347.002 -665.001 -347.002c-13.333 0 -30.166 0.166992 -50.499 0.5s-43.833 0.833008 -70.5 1.5s-50 1.16699 -70 1.5s-36.667 0.5 -50 0.5c-312 0 -499.667 58.667 -563 176c-22 40.667 -33 96.334 -33 167.001v797c0 52 26 78 78 78
c50 0 82 -2 96 -6c32.667 -10 49 -34 49 -72v-782c0 -77.333 47 -129 141 -155c28 -6.66699 61.167 -11.667 99.5 -15s83.5 -5 135.5 -5h306c116.667 0 195 6.33301 235 19c94 24.667 141 76.334 141 155.001v783c0 38.667 15.667 62.667 47 72c12.667 4 44.667 6 96 6
c52 0 78 -26 78 -78v-797zM1162 1320c0 -38.667 -23 -57.999 -69 -57.999c-23.333 0 -46.333 10.333 -69 31l-24 23.5l-33 32.5l-53 50l-101 94c-46.667 -48 -88.667 -89.333 -126 -124s-70 -63.667 -98 -87c-15.333 -12 -32.333 -18 -51 -18c-48.667 0 -73 19.333 -73 58
c0 11.333 5.33301 22.333 16 33l266 267c19.333 19.333 41.333 29 66 29s46.667 -9.66699 66 -29l267 -267c10.667 -10.667 16 -22.334 16 -35.001z" />
    <glyph glyph-name="Udieresis" unicode="&#xdc;" horiz-adv-x="1642" 
d="M1567 335c0 -231.333 -221.668 -347.002 -665.001 -347.002c-13.333 0 -30.166 0.166992 -50.499 0.5s-43.833 0.833008 -70.5 1.5s-50 1.16699 -70 1.5s-36.667 0.5 -50 0.5c-312 0 -499.667 58.667 -563 176c-22 40.667 -33 96.334 -33 167.001v797c0 52 26 78 78 78
c50 0 82 -2 96 -6c32.667 -10 49 -34 49 -72v-782c0 -77.333 47 -129 141 -155c28 -6.66699 61.167 -11.667 99.5 -15s83.5 -5 135.5 -5h306c116.667 0 195 6.33301 235 19c94 24.667 141 76.334 141 155.001v783c0 38.667 15.667 62.667 47 72c12.667 4 44.667 6 96 6
c52 0 78 -26 78 -78v-797zM1100 1566c0 -14 -3.00098 -26.5 -9.00098 -37.5s-13.833 -20.333 -23.5 -28s-21 -13.667 -34 -18s-26.5 -6.5 -40.5 -6.5c-27.333 0 -51.666 7.66699 -72.999 23c-22.667 16.667 -34 39 -34 67s11.333 50.333 34 67c20.667 16 45 24 73 24
c14 0 27.5 -2.16699 40.5 -6.5s24.333 -10.5 34 -18.5s17.5 -17.5 23.5 -28.5s9 -23.5 9 -37.5zM751.998 1566c0 -26.667 -11 -48.333 -33 -65c-20.667 -16.667 -45 -25 -73 -25s-52.667 7.66699 -74 23c-22.667 16.667 -34 39 -34 67s11.333 50.333 34 67
c20.667 16 45 24 73 24c14 0 27.5 -2.16699 40.5 -6.5s24.333 -10.5 34 -18.5s17.5 -17.5 23.5 -28.5s9 -23.5 9 -37.5z" />
    <glyph glyph-name="Yacute" unicode="&#xdd;" horiz-adv-x="1487" 
d="M1493 1145c0 -23.333 -11.999 -46.333 -35.999 -69l-599 -575l-2 -430c-1.33301 -39.333 -17 -63.333 -47 -72c-8.66699 -4.66699 -40.334 -7 -95.001 -7c-52.667 0 -79 26 -79 78v431l-601 575c-22.667 22 -34 44.667 -34 68c0 44 29.667 66 89 66
c67.333 0 108.333 -7.33301 123 -22l533 -511l535 511c14.667 14.667 55.667 22 123 22c60 0 90 -21.667 90 -65zM1011 1600c0 -14 -48.668 -69.667 -146.001 -167l-102 -101.5c-24 -23.667 -38.667 -37.167 -44 -40.5c-15.333 -10 -30.666 -15 -45.999 -15
c-44.667 0 -67 18.667 -67 56c0 13.333 6 26 18 38l279 276c8.66699 8.66699 20 13 34 13c18 0 34.833 -5.66699 50.5 -17s23.5 -25.333 23.5 -42z" />
    <glyph glyph-name="Thorn" unicode="&#xde;" horiz-adv-x="1600" 
d="M1558 570c0 -122 -60.666 -209.999 -181.999 -263.999c-94 -39.333 -207.333 -59 -340 -59h-771v-176c-0.666992 -52.667 -38.667 -79 -114 -79c-72 0 -108.333 26.333 -109 79v1061c0 39.333 15.667 63.666 47 72.999c7.33301 1.33301 19 2.5 35 3.5s36.667 1.5 62 1.5
c52 0 78 -26 78 -78v-102h782c125.333 0 231.666 -17.333 318.999 -52c128.667 -48 193 -121 193 -219v-189zM1338 577.001v166c0 70.667 -96.667 106 -290 106h-783v-420h784c192.667 0 289 49.333 289 148z" />
    <glyph glyph-name="germandbls" unicode="&#xdf;" horiz-adv-x="1686" 
d="M1622 313c0 -120.667 -59.666 -208 -178.999 -262c-94 -39.333 -206.667 -59 -338 -59h-365c-52 0 -78 26.333 -78 79c0 69.333 26 104 78 104h365c196.667 0 295 43 295 129v115c0 68 -95.333 102 -286 102h-374c-52 0 -78 35 -78 105c0 52 26 78 78 78h375
c190 0 285 36.333 285 109v115c0 48 -40 79 -120 93c-15.333 2.66699 -37.333 4.66699 -66 6s-65 2 -109 2h-601c-45.333 0 -83.333 -8.33301 -114 -25c-40.667 -20.667 -61 -51 -61 -91v-853c0 -38 -14.667 -62 -44 -72c-8.66699 -4.66699 -39.334 -7 -92.001 -7
c-52 0 -78 26.667 -78 80v852c0 95.333 33.333 170 100 224c60.667 50.667 140 76 238 76h650c138 0 250 -14.667 336 -44c122 -45.333 183 -128 183 -248c0 -86.667 -3 -143 -9 -169c-13.333 -55.333 -45 -100.333 -95 -135c51.333 -37.333 83 -82.333 95 -135
c6 -26 9 -82.333 9 -169z" />
    <glyph glyph-name="agrave" unicode="&#xe0;" horiz-adv-x="1518" 
d="M1460 280c0 -192 -144.002 -288 -432.002 -288h-516c-110.667 0 -206.334 20.333 -287.001 61c-108.667 52 -163 124.333 -163 217v122c0 100 51.667 175 155 225c76.667 38.667 172.667 58 288 58h746c-11.333 67.333 -106.666 101 -285.999 101
c-7.33301 0 -16.166 -0.166992 -26.499 -0.5s-22.166 -0.833008 -35.499 -1.5c-0.666992 -0.666992 -4 -1 -10 -1h-9h-16h-25c-52 0 -78 33 -78 99c0 52.667 26 79 78 79c168.667 0 297.667 -11.667 387 -35c153.333 -43.333 230 -130 230 -260v-376zM1253 330
c0 9.33301 -0.166992 21 -0.5 35s-0.833008 30.333 -1.5 49s-1.16699 35 -1.5 49s-0.5 25.667 -0.5 35h-749c-44 0 -89.333 -8 -136 -24c-60.667 -20.667 -91 -47.667 -91 -81v-121c0 -35.333 31.333 -62.333 94 -81c40 -14.667 86.333 -22 139 -22h524
c78.667 0 132.667 7.66699 162 23c40.667 20.667 61 66.667 61 138zM945.998 1056c0 -37.333 -22.333 -56.001 -67 -56.001c-14.667 0 -29.667 4.66699 -45 14c-14 10 -63.333 57.333 -148 142l-97 98.5c-22.667 23.667 -35.667 38.834 -39 45.501
c-6 8.66699 -9 16.667 -9 24c0 16.667 7.83301 30.667 23.5 42s32.5 17 50.5 17c14 0 25.333 -4.33301 34 -13l279 -276c12 -12 18 -24.667 18 -38z" />
    <glyph glyph-name="aacute" unicode="&#xe1;" horiz-adv-x="1518" 
d="M1460 280c0 -192 -144.002 -288 -432.002 -288h-516c-110.667 0 -206.334 20.333 -287.001 61c-108.667 52 -163 124.333 -163 217v122c0 100 51.667 175 155 225c76.667 38.667 172.667 58 288 58h746c-11.333 67.333 -106.666 101 -285.999 101
c-7.33301 0 -16.166 -0.166992 -26.499 -0.5s-22.166 -0.833008 -35.499 -1.5c-0.666992 -0.666992 -4 -1 -10 -1h-9h-16h-25c-52 0 -78 33 -78 99c0 52.667 26 79 78 79c168.667 0 297.667 -11.667 387 -35c153.333 -43.333 230 -130 230 -260v-376zM1253 330
c0 9.33301 -0.166992 21 -0.5 35s-0.833008 30.333 -1.5 49s-1.16699 35 -1.5 49s-0.5 25.667 -0.5 35h-749c-44 0 -89.333 -8 -136 -24c-60.667 -20.667 -91 -47.667 -91 -81v-121c0 -35.333 31.333 -62.333 94 -81c40 -14.667 86.333 -22 139 -22h524
c78.667 0 132.667 7.66699 162 23c40.667 20.667 61 66.667 61 138zM1116 1326c0 -14 -48.668 -69.667 -146.001 -167l-102 -101.5c-24 -23.667 -38.667 -37.167 -44 -40.5c-15.333 -10 -30.666 -15 -45.999 -15c-44.667 0 -67 18.667 -67 56c0 13.333 6 26 18 38l279 276
c8.66699 8.66699 20 13 34 13c18 0 34.833 -5.66699 50.5 -17s23.5 -25.333 23.5 -42z" />
    <glyph glyph-name="acircumflex" unicode="&#xe2;" horiz-adv-x="1518" 
d="M1460 280c0 -192 -144.002 -288 -432.002 -288h-516c-110.667 0 -206.334 20.333 -287.001 61c-108.667 52 -163 124.333 -163 217v122c0 100 51.667 175 155 225c76.667 38.667 172.667 58 288 58h746c-11.333 67.333 -106.666 101 -285.999 101
c-7.33301 0 -16.166 -0.166992 -26.499 -0.5s-22.166 -0.833008 -35.499 -1.5c-0.666992 -0.666992 -4 -1 -10 -1h-9h-16h-25c-52 0 -78 33 -78 99c0 52.667 26 79 78 79c168.667 0 297.667 -11.667 387 -35c153.333 -43.333 230 -130 230 -260v-376zM1253 330
c0 9.33301 -0.166992 21 -0.5 35s-0.833008 30.333 -1.5 49s-1.16699 35 -1.5 49s-0.5 25.667 -0.5 35h-749c-44 0 -89.333 -8 -136 -24c-60.667 -20.667 -91 -47.667 -91 -81v-121c0 -35.333 31.333 -62.333 94 -81c40 -14.667 86.333 -22 139 -22h524
c78.667 0 132.667 7.66699 162 23c40.667 20.667 61 66.667 61 138zM1317 1051c0 -38.667 -23 -57.999 -69 -57.999c-23.333 0 -46.333 10.333 -69 31l-24 23.5l-33 32.5l-53 50l-101 94c-46.667 -48 -88.667 -89.333 -126 -124s-70 -63.667 -98 -87
c-15.333 -12 -32.333 -18 -51 -18c-48.667 0 -73 19.333 -73 58c0 11.333 5.33301 22.333 16 33l266 267c19.333 19.333 41.333 29 66 29s46.667 -9.66699 66 -29l267 -267c10.667 -10.667 16 -22.334 16 -35.001z" />
    <glyph glyph-name="atilde" unicode="&#xe3;" horiz-adv-x="1518" 
d="M1460 280c0 -192 -144.002 -288 -432.002 -288h-516c-110.667 0 -206.334 20.333 -287.001 61c-108.667 52 -163 124.333 -163 217v122c0 100 51.667 175 155 225c76.667 38.667 172.667 58 288 58h746c-11.333 67.333 -106.666 101 -285.999 101
c-7.33301 0 -16.166 -0.166992 -26.499 -0.5s-22.166 -0.833008 -35.499 -1.5c-0.666992 -0.666992 -4 -1 -10 -1h-9h-16h-25c-52 0 -78 33 -78 99c0 52.667 26 79 78 79c168.667 0 297.667 -11.667 387 -35c153.333 -43.333 230 -130 230 -260v-376zM1253 330
c0 9.33301 -0.166992 21 -0.5 35s-0.833008 30.333 -1.5 49s-1.16699 35 -1.5 49s-0.5 25.667 -0.5 35h-749c-44 0 -89.333 -8 -136 -24c-60.667 -20.667 -91 -47.667 -91 -81v-121c0 -35.333 31.333 -62.333 94 -81c40 -14.667 86.333 -22 139 -22h524
c78.667 0 132.667 7.66699 162 23c40.667 20.667 61 66.667 61 138zM1420 1209c0 -32 -6 -52 -18 -60c-9.33301 -5.33301 -29.666 -8 -60.999 -8h-656c-38.667 0 -61.334 4 -68.001 12c-7.33301 9.33301 -11 32.333 -11 69c0 45.333 26.333 68 79 68h656
c36.667 0 59 -4.33301 67 -13c8 -9.33301 12 -32 12 -68z" />
    <glyph glyph-name="adieresis" unicode="&#xe4;" horiz-adv-x="1518" 
d="M1460 280c0 -192 -144.002 -288 -432.002 -288h-516c-110.667 0 -206.334 20.333 -287.001 61c-108.667 52 -163 124.333 -163 217v122c0 100 51.667 175 155 225c76.667 38.667 172.667 58 288 58h746c-11.333 67.333 -106.666 101 -285.999 101
c-7.33301 0 -16.166 -0.166992 -26.499 -0.5s-22.166 -0.833008 -35.499 -1.5c-0.666992 -0.666992 -4 -1 -10 -1h-9h-16h-25c-52 0 -78 33 -78 99c0 52.667 26 79 78 79c168.667 0 297.667 -11.667 387 -35c153.333 -43.333 230 -130 230 -260v-376zM1253 330
c0 9.33301 -0.166992 21 -0.5 35s-0.833008 30.333 -1.5 49s-1.16699 35 -1.5 49s-0.5 25.667 -0.5 35h-749c-44 0 -89.333 -8 -136 -24c-60.667 -20.667 -91 -47.667 -91 -81v-121c0 -35.333 31.333 -62.333 94 -81c40 -14.667 86.333 -22 139 -22h524
c78.667 0 132.667 7.66699 162 23c40.667 20.667 61 66.667 61 138zM1225 1269c0 -14 -3.00098 -26.5 -9.00098 -37.5s-13.833 -20.333 -23.5 -28s-21 -13.667 -34 -18s-26.5 -6.5 -40.5 -6.5c-27.333 0 -51.666 7.66699 -72.999 23c-22.667 16.667 -34 39 -34 67
s11.333 50.333 34 67c20.667 16 45 24 73 24c14 0 27.5 -2.16699 40.5 -6.5s24.333 -10.5 34 -18.5s17.5 -17.5 23.5 -28.5s9 -23.5 9 -37.5zM876.997 1269c0 -26.667 -11 -48.333 -33 -65c-20.667 -16.667 -45 -25 -73 -25s-52.667 7.66699 -74 23
c-22.667 16.667 -34 39 -34 67s11.333 50.333 34 67c20.667 16 45 24 73 24c14 0 27.5 -2.16699 40.5 -6.5s24.333 -10.5 34 -18.5s17.5 -17.5 23.5 -28.5s9 -23.5 9 -37.5z" />
    <glyph glyph-name="aring" unicode="&#xe5;" horiz-adv-x="1518" 
d="M1460 280c0 -192 -144.002 -288 -432.002 -288h-516c-110.667 0 -206.334 20.333 -287.001 61c-108.667 52 -163 124.333 -163 217v122c0 100 51.667 175 155 225c76.667 38.667 172.667 58 288 58h746c-11.333 67.333 -106.666 101 -285.999 101
c-7.33301 0 -16.166 -0.166992 -26.499 -0.5s-22.166 -0.833008 -35.499 -1.5c-0.666992 -0.666992 -4 -1 -10 -1h-9h-16h-25c-52 0 -78 33 -78 99c0 52.667 26 79 78 79c168.667 0 297.667 -11.667 387 -35c153.333 -43.333 230 -130 230 -260v-376zM1253 330
c0 9.33301 -0.166992 21 -0.5 35s-0.833008 30.333 -1.5 49s-1.16699 35 -1.5 49s-0.5 25.667 -0.5 35h-749c-44 0 -89.333 -8 -136 -24c-60.667 -20.667 -91 -47.667 -91 -81v-121c0 -35.333 31.333 -62.333 94 -81c40 -14.667 86.333 -22 139 -22h524
c78.667 0 132.667 7.66699 162 23c40.667 20.667 61 66.667 61 138zM1108 1190c0 -52.667 -19 -95.333 -57 -128c-36.667 -32.667 -81.667 -49 -135 -49c-52 0 -96.333 16.333 -133 49c-38.667 34 -58 76.667 -58 128c0 52 19 94.667 57 128c36 32 80.667 48 134 48
c52 0 96.667 -16 134 -48c38.667 -34 58 -76.667 58 -128zM1038 1190c0 32.667 -12 59.667 -36 81c-25.333 21.333 -54 32 -86 32s-60.667 -10.667 -86 -32c-24 -21.333 -36 -48.333 -36 -81c0 -33.333 12 -60.333 36 -81c25.333 -21.333 54 -32 86 -32s60.667 10.667 86 32
c24 20.667 36 47.667 36 81z" />
    <glyph glyph-name="ae" unicode="&#xe6;" horiz-adv-x="2120" 
d="M2026 455c0 -58 -19.668 -87 -59.001 -87h-789v-7c0 -94 53 -153.333 159 -178c19.333 -4.66699 51.333 -8.16699 96 -10.5s103.334 -3.5 176.001 -3.5c52 0 78 -32.667 78 -98c0 -42 -19 -67.333 -57 -76c-9.33301 -2 -45.333 -3 -108 -3
c-220.667 0 -368.334 29.333 -443.001 88c-70.667 -58.667 -186 -88 -346 -88h-196c-97.333 0 -193 20.667 -287 62c-108.667 50.667 -163 122.667 -163 216v122c0 100 51.667 175 155 225c76.667 38.667 172.667 58 288 58h426c-11.333 67.333 -106.666 101 -285.999 101
c-6.66699 0 -15.167 -0.166992 -25.5 -0.5s-22.166 -0.833008 -35.499 -1.5c-0.666992 -0.666992 -4 -1 -10 -1h-9h-17h-25c-52 0 -78 33 -78 99c0 52.667 33.667 79 101 79c245.333 0 411.666 -32.667 498.999 -98c64.667 46.667 149.667 76.334 255 89.001
c26.667 3.33301 62.5 5.83301 107.5 7.5s100.833 2.5 167.5 2.5c106 0 197.667 -18 275 -54c100.667 -46.667 151 -117.334 151 -212.001v-231zM1820 551v118c0 72 -93 108 -279 108c-246.667 0 -370 -38.667 -370 -116v-110h649zM957.999 330
c0 9.33301 -0.166992 21 -0.5 35s-0.833008 30.333 -1.5 49s-1.16699 35 -1.5 49s-0.5 25.667 -0.5 35h-429c-44 0 -89.333 -8 -136 -24c-60.667 -20.667 -91 -47.667 -91 -81v-121c0 -35.333 31.333 -62.333 94 -81c40 -14.667 86.333 -22 139 -22h204
c80 0 133.333 7.33301 160 22c42 22 63 68.333 63 139z" />
    <glyph glyph-name="ccedilla" unicode="&#xe7;" horiz-adv-x="1530" 
d="M1421 71c0 -52.667 -32.667 -78.999 -98 -78.999h-781c-150 0 -258 14.333 -324 43c-113.333 45.333 -170 127.666 -170 246.999v378c0 194 150 291 450 291h836c54.667 0 82 -29.667 82 -89s-27.333 -89 -82 -89h-821c-169.333 0 -254 -35.667 -254 -107v-375
c0 -81.333 96.333 -122 289 -122h794c52.667 0 79 -32.667 79 -98zM975 -96.999c0 -162.667 -63.667 -244.001 -191 -244.001h-180c-52 0 -78 30.667 -78 92c0 59.333 26 89 78 89h100c31.333 0 51 16.333 59 49c1.33301 15.333 2.5 30.333 3.5 45
s2.16699 29.334 3.5 44.001c12 32 46.333 48 103 48c68 0 102 -26 102 -78v-45z" />
    <glyph glyph-name="egrave" unicode="&#xe8;" horiz-adv-x="1429" 
d="M1364 455c0 -58 -19.667 -87 -59 -87h-1049v-7c0 -90.667 53.333 -149 160 -175c23.333 -5.33301 57.166 -9.5 101.499 -12.5s100.833 -4.5 169.5 -4.5c52 0 78 -32.667 78 -98c0 -52.667 -26 -79 -78 -79c-70.667 0 -128.5 0.5 -173.5 1.5s-79.167 2.83301 -102.5 5.5
c-116 12 -201.333 39.333 -256 82c-78 60.667 -117 132 -117 214v353c0 110.667 60 192.667 180 246c82 38.667 190.667 58 326 58h394c110.667 0 202.334 -18.333 275.001 -55c100.667 -46.667 151 -117 151 -211v-231zM1158 551l0.000976562 118.001
c0 72 -143 108 -429 108c-168.667 0 -284.334 -6 -347.001 -18c-88.667 -16.667 -133 -49.334 -133 -98.001v-110h909zM853.001 1051c0 -37.333 -22.333 -56.001 -67 -56.001c-14.667 0 -29.667 4.66699 -45 14c-14 10 -63.333 57.333 -148 142l-97 98.5
c-22.667 23.667 -35.667 38.834 -39 45.501c-6 8.66699 -9 16.667 -9 24c0 16.667 7.83301 30.667 23.5 42s32.5 17 50.5 17c14 0 25.333 -4.33301 34 -13l279 -276c12 -12 18 -24.667 18 -38z" />
    <glyph glyph-name="eacute" unicode="&#xe9;" horiz-adv-x="1429" 
d="M1364 455c0 -58 -19.667 -87 -59 -87h-1049v-7c0 -90.667 53.333 -149 160 -175c23.333 -5.33301 57.166 -9.5 101.499 -12.5s100.833 -4.5 169.5 -4.5c52 0 78 -32.667 78 -98c0 -52.667 -26 -79 -78 -79c-70.667 0 -128.5 0.5 -173.5 1.5s-79.167 2.83301 -102.5 5.5
c-116 12 -201.333 39.333 -256 82c-78 60.667 -117 132 -117 214v353c0 110.667 60 192.667 180 246c82 38.667 190.667 58 326 58h394c110.667 0 202.334 -18.333 275.001 -55c100.667 -46.667 151 -117 151 -211v-231zM1158 551l0.000976562 118.001
c0 72 -143 108 -429 108c-168.667 0 -284.334 -6 -347.001 -18c-88.667 -16.667 -133 -49.334 -133 -98.001v-110h909zM1008 1319c0 -14 -48.668 -69.667 -146.001 -167l-102 -101.5c-24 -23.667 -38.667 -37.167 -44 -40.5c-15.333 -10 -30.666 -15 -45.999 -15
c-44.667 0 -67 18.667 -67 56c0 13.333 6 26 18 38l279 276c8.66699 8.66699 20 13 34 13c18 0 34.833 -5.66699 50.5 -17s23.5 -25.333 23.5 -42z" />
    <glyph glyph-name="ecircumflex" unicode="&#xea;" horiz-adv-x="1429" 
d="M1364 455c0 -58 -19.667 -87 -59 -87h-1049v-7c0 -90.667 53.333 -149 160 -175c23.333 -5.33301 57.166 -9.5 101.499 -12.5s100.833 -4.5 169.5 -4.5c52 0 78 -32.667 78 -98c0 -52.667 -26 -79 -78 -79c-70.667 0 -128.5 0.5 -173.5 1.5s-79.167 2.83301 -102.5 5.5
c-116 12 -201.333 39.333 -256 82c-78 60.667 -117 132 -117 214v353c0 110.667 60 192.667 180 246c82 38.667 190.667 58 326 58h394c110.667 0 202.334 -18.333 275.001 -55c100.667 -46.667 151 -117 151 -211v-231zM1158 551l0.000976562 118.001
c0 72 -143 108 -429 108c-168.667 0 -284.334 -6 -347.001 -18c-88.667 -16.667 -133 -49.334 -133 -98.001v-110h909zM1064 1046c0 -38.667 -23 -57.999 -69 -57.999c-23.333 0 -46.333 10.333 -69 31l-24 23.5l-33 32.5l-53 50l-101 94
c-46.667 -48 -88.667 -89.333 -126 -124s-70 -63.667 -98 -87c-15.333 -12 -32.333 -18 -51 -18c-48.667 0 -73 19.333 -73 58c0 11.333 5.33301 22.333 16 33l266 267c19.333 19.333 41.333 29 66 29s46.667 -9.66699 66 -29l267 -267
c10.667 -10.667 16 -22.334 16 -35.001z" />
    <glyph glyph-name="edieresis" unicode="&#xeb;" horiz-adv-x="1429" 
d="M1364 455c0 -58 -19.667 -87 -59 -87h-1049v-7c0 -90.667 53.333 -149 160 -175c23.333 -5.33301 57.166 -9.5 101.499 -12.5s100.833 -4.5 169.5 -4.5c52 0 78 -32.667 78 -98c0 -52.667 -26 -79 -78 -79c-70.667 0 -128.5 0.5 -173.5 1.5s-79.167 2.83301 -102.5 5.5
c-116 12 -201.333 39.333 -256 82c-78 60.667 -117 132 -117 214v353c0 110.667 60 192.667 180 246c82 38.667 190.667 58 326 58h394c110.667 0 202.334 -18.333 275.001 -55c100.667 -46.667 151 -117 151 -211v-231zM1158 551l0.000976562 118.001
c0 72 -143 108 -429 108c-168.667 0 -284.334 -6 -347.001 -18c-88.667 -16.667 -133 -49.334 -133 -98.001v-110h909zM1012 1275c0 -14 -3.00098 -26.5 -9.00098 -37.5s-13.833 -20.333 -23.5 -28s-21 -13.667 -34 -18s-26.5 -6.5 -40.5 -6.5
c-27.333 0 -51.666 7.66699 -72.999 23c-22.667 16.667 -34 39 -34 67s11.333 50.333 34 67c20.667 16 45 24 73 24c14 0 27.5 -2.16699 40.5 -6.5s24.333 -10.5 34 -18.5s17.5 -17.5 23.5 -28.5s9 -23.5 9 -37.5zM664 1275c0 -26.667 -11 -48.333 -33 -65
c-20.667 -16.667 -45 -25 -73 -25s-52.667 7.66699 -74 23c-22.667 16.667 -34 39 -34 67s11.333 50.333 34 67c20.667 16 45 24 73 24c14 0 27.5 -2.16699 40.5 -6.5s24.333 -10.5 34 -18.5s17.5 -17.5 23.5 -28.5s9 -23.5 9 -37.5z" />
    <glyph glyph-name="igrave" unicode="&#xec;" horiz-adv-x="377" 
d="M310 71c0 -52.667 -26.334 -79 -79.001 -79c-51.333 0 -81.333 2.33301 -90 7c-27.333 10 -41 34 -41 72v725c0 52 26.333 78 79 78c50.667 0 80.334 -2.33301 89.001 -7c28 -10 42 -33.667 42 -71v-725zM346.999 1060c0 -37.333 -22.333 -56.001 -67 -56.001
c-14.667 0 -29.667 4.66699 -45 14c-14 10 -63.333 57.333 -148 142l-97 98.5c-22.667 23.667 -35.667 38.834 -39 45.501c-6 8.66699 -9 16.667 -9 24c0 16.667 7.83301 30.667 23.5 42s32.5 17 50.5 17c14 0 25.333 -4.33301 34 -13l279 -276c12 -12 18 -24.667 18 -38z
" />
    <glyph glyph-name="iacute" unicode="&#xed;" horiz-adv-x="377" 
d="M314 71c0 -52.667 -26.334 -79 -79.001 -79c-51.333 0 -81.333 2.33301 -90 7c-27.333 10 -41 34 -41 72v725c0 52 26.333 78 79 78c50.667 0 80.334 -2.33301 89.001 -7c28 -10 42 -33.667 42 -71v-725zM416.999 1303c0 -14 -48.668 -69.667 -146.001 -167l-102 -101.5
c-24 -23.667 -38.667 -37.167 -44 -40.5c-15.333 -10 -30.666 -15 -45.999 -15c-44.667 0 -67 18.667 -67 56c0 13.333 6 26 18 38l279 276c8.66699 8.66699 20 13 34 13c18 0 34.833 -5.66699 50.5 -17s23.5 -25.333 23.5 -42z" />
    <glyph glyph-name="icircumflex" unicode="&#xee;" horiz-adv-x="534" 
d="M374 71c0 -52.667 -26.334 -79 -79.001 -79c-51.333 0 -81.333 2.33301 -90 7c-27.333 10 -41 34 -41 72v725c0 52 26.333 78 79 78c50.667 0 80.334 -2.33301 89.001 -7c28 -10 42 -33.667 42 -71v-725zM623.999 1040c0 -38.667 -23 -57.999 -69 -57.999
c-23.333 0 -46.333 10.333 -69 31l-24 23.5l-33 32.5l-53 50l-101 94c-46.667 -48 -88.667 -89.333 -126 -124s-70 -63.667 -98 -87c-15.333 -12 -32.333 -18 -51 -18c-48.667 0 -73 19.333 -73 58c0 11.333 5.33301 22.333 16 33l266 267c19.333 19.333 41.333 29 66 29
s46.667 -9.66699 66 -29l267 -267c10.667 -10.667 16 -22.334 16 -35.001z" />
    <glyph glyph-name="idieresis" unicode="&#xef;" horiz-adv-x="434" 
d="M339 71c0 -52.667 -26.334 -79 -79.001 -79c-51.333 0 -81.333 2.33301 -90 7c-27.333 10 -41 34 -41 72v725c0 52 26.333 78 79 78c50.667 0 80.334 -2.33301 89.001 -7c28 -10 42 -33.667 42 -71v-725zM503.999 1280c0 -14 -3.00098 -26.5 -9.00098 -37.5
s-13.833 -20.333 -23.5 -28s-21 -13.667 -34 -18s-26.5 -6.5 -40.5 -6.5c-27.333 0 -51.666 7.66699 -72.999 23c-22.667 16.667 -34 39 -34 67s11.333 50.333 34 67c20.667 16 45 24 73 24c14 0 27.5 -2.16699 40.5 -6.5s24.333 -10.5 34 -18.5s17.5 -17.5 23.5 -28.5
s9 -23.5 9 -37.5zM155.998 1280c0 -26.667 -11 -48.333 -33 -65c-20.667 -16.667 -45 -25 -73 -25s-52.667 7.66699 -74 23c-22.667 16.667 -34 39 -34 67s11.333 50.333 34 67c20.667 16 45 24 73 24c14 0 27.5 -2.16699 40.5 -6.5s24.333 -10.5 34 -18.5
s17.5 -17.5 23.5 -28.5s9 -23.5 9 -37.5z" />
    <glyph glyph-name="eth" unicode="&#xf0;" horiz-adv-x="1504" 
d="M1425 287c0 -102.667 -63.667 -180.667 -191 -234c-90 -40.667 -198.333 -61 -325 -61h-322c-326 0 -494.333 90.333 -505 271c-2 32 -3 74 -3 126c0 104.667 2 190 6 256c12 198.667 178.333 298 499 298h630v101h-180c-52.667 0 -79 30.333 -79 91
c0 52 26.333 78 79 78h259c88 0 132 -27.667 132 -83v-843zM1214 291v475h-635c-188.667 0 -283 -41.667 -283 -125v-340c0 -62 35.667 -102 107 -120c30.667 -8 91 -12 181 -12h304c217.333 0 326 40.667 326 122z" />
    <glyph glyph-name="ntilde" unicode="&#xf1;" horiz-adv-x="1433" 
d="M1381 71c0 -52.667 -26.333 -79 -79 -79c-52 0 -82.333 2.33301 -91 7c-28.667 10 -43 34 -43 72v610c0 43.333 -36 71.666 -108 84.999c-12.667 2.66699 -32.167 4.5 -58.5 5.5s-59.5 1.5 -99.5 1.5h-364c-36.667 0 -67.5 -0.666992 -92.5 -2s-44.833 -3.33301 -59.5 -6
c-68 -13.333 -102 -41.666 -102 -84.999v-609c0 -52.667 -26 -79 -78 -79s-82.333 2.33301 -91 7c-28 10 -42 34 -42 72v607c0 182 161.333 273 484 273h345c319.333 0 479 -90.333 479 -271v-609zM1156 1207c0 -32 -6 -52 -18 -60c-9.33301 -5.33301 -29.666 -8 -60.999 -8
h-656c-38.667 0 -61.334 4 -68.001 12c-7.33301 9.33301 -11 32.333 -11 69c0 45.333 26.333 68 79 68h656c36.667 0 59 -4.33301 67 -13c8 -9.33301 12 -32 12 -68z" />
    <glyph glyph-name="ograve" unicode="&#xf2;" horiz-adv-x="1424" 
d="M1363 290c0 -109.333 -54 -189.332 -162 -239.999c-76.667 -38.667 -178.667 -58 -306 -58h-351c-116 0 -221 19.667 -315 59c-116 52 -174 131.667 -174 239v353c0 107.333 57.667 188.666 173 243.999c84.667 42.667 189.667 64 315 64h352c312 0 468 -102 468 -306
v-355zM1149 290.001l0.000976562 368.998c0 76 -86.667 114 -260 114h-343c-64 0 -121.333 -8 -172 -24c-72 -23.333 -108 -58.666 -108 -105.999v-353c0 -45.333 36.667 -78.666 110 -99.999c48.667 -14 105.667 -21 171 -21h343c55.333 0 107.666 8 156.999 24
c68 22 102 54.333 102 97zM812.001 1051c0 -37.333 -22.333 -56.001 -67 -56.001c-14.667 0 -29.667 4.66699 -45 14c-14 10 -63.333 57.333 -148 142l-97 98.5c-22.667 23.667 -35.667 38.834 -39 45.501c-6 8.66699 -9 16.667 -9 24c0 16.667 7.83301 30.667 23.5 42
s32.5 17 50.5 17c14 0 25.333 -4.33301 34 -13l279 -276c12 -12 18 -24.667 18 -38z" />
    <glyph glyph-name="oacute" unicode="&#xf3;" horiz-adv-x="1424" 
d="M1363 290c0 -109.333 -54 -189.332 -162 -239.999c-76.667 -38.667 -178.667 -58 -306 -58h-351c-116 0 -221 19.667 -315 59c-116 52 -174 131.667 -174 239v353c0 107.333 57.667 188.666 173 243.999c84.667 42.667 189.667 64 315 64h352c312 0 468 -102 468 -306
v-355zM1149 290.001l0.000976562 368.998c0 76 -86.667 114 -260 114h-343c-64 0 -121.333 -8 -172 -24c-72 -23.333 -108 -58.666 -108 -105.999v-353c0 -45.333 36.667 -78.666 110 -99.999c48.667 -14 105.667 -21 171 -21h343c55.333 0 107.666 8 156.999 24
c68 22 102 54.333 102 97zM955.001 1309c0 -14 -48.668 -69.667 -146.001 -167l-102 -101.5c-24 -23.667 -38.667 -37.167 -44 -40.5c-15.333 -10 -30.666 -15 -45.999 -15c-44.667 0 -67 18.667 -67 56c0 13.333 6 26 18 38l279 276c8.66699 8.66699 20 13 34 13
c18 0 34.833 -5.66699 50.5 -17s23.5 -25.333 23.5 -42z" />
    <glyph glyph-name="ocircumflex" unicode="&#xf4;" horiz-adv-x="1424" 
d="M1373 290c0 -109.333 -54 -189.332 -162 -239.999c-76.667 -38.667 -178.667 -58 -306 -58h-351c-116 0 -221 19.667 -315 59c-116 52 -174 131.667 -174 239v353c0 107.333 57.667 188.666 173 243.999c84.667 42.667 189.667 64 315 64h352c312 0 468 -102 468 -306
v-355zM1159 290.001l0.000976562 368.998c0 76 -86.667 114 -260 114h-343c-64 0 -121.333 -8 -172 -24c-72 -23.333 -108 -58.666 -108 -105.999v-353c0 -45.333 36.667 -78.666 110 -99.999c48.667 -14 105.667 -21 171 -21h343c55.333 0 107.666 8 156.999 24
c68 22 102 54.333 102 97zM1093 1044c0 -38.667 -23 -57.999 -69 -57.999c-23.333 0 -46.333 10.333 -69 31l-24 23.5l-33 32.5l-53 50l-101 94c-46.667 -48 -88.667 -89.333 -126 -124s-70 -63.667 -98 -87c-15.333 -12 -32.333 -18 -51 -18c-48.667 0 -73 19.333 -73 58
c0 11.333 5.33301 22.333 16 33l266 267c19.333 19.333 41.333 29 66 29s46.667 -9.66699 66 -29l267 -267c10.667 -10.667 16 -22.334 16 -35.001z" />
    <glyph glyph-name="otilde" unicode="&#xf5;" horiz-adv-x="1424" 
d="M1363 290c0 -109.333 -54 -189.332 -162 -239.999c-76.667 -38.667 -178.667 -58 -306 -58h-351c-116 0 -221 19.667 -315 59c-116 52 -174 131.667 -174 239v353c0 107.333 57.667 188.666 173 243.999c84.667 42.667 189.667 64 315 64h352c312 0 468 -102 468 -306
v-355zM1149 290.001l0.000976562 368.998c0 76 -86.667 114 -260 114h-343c-64 0 -121.333 -8 -172 -24c-72 -23.333 -108 -58.666 -108 -105.999v-353c0 -45.333 36.667 -78.666 110 -99.999c48.667 -14 105.667 -21 171 -21h343c55.333 0 107.666 8 156.999 24
c68 22 102 54.333 102 97zM1138 1209c0 -32 -6 -52 -18 -60c-9.33301 -5.33301 -29.666 -8 -60.999 -8h-656c-38.667 0 -61.334 4 -68.001 12c-7.33301 9.33301 -11 32.333 -11 69c0 45.333 26.333 68 79 68h656c36.667 0 59 -4.33301 67 -13c8 -9.33301 12 -32 12 -68z" />
    <glyph glyph-name="odieresis" unicode="&#xf6;" horiz-adv-x="1424" 
d="M1353 290c0 -109.333 -54 -189.332 -162 -239.999c-76.667 -38.667 -178.667 -58 -306 -58h-351c-116 0 -221 19.667 -315 59c-116 52 -174 131.667 -174 239v353c0 107.333 57.667 188.666 173 243.999c84.667 42.667 189.667 64 315 64h352c312 0 468 -102 468 -306
v-355zM1139 290.001l0.000976562 368.998c0 76 -86.667 114 -260 114h-343c-64 0 -121.333 -8 -172 -24c-72 -23.333 -108 -58.666 -108 -105.999v-353c0 -45.333 36.667 -78.666 110 -99.999c48.667 -14 105.667 -21 171 -21h343c55.333 0 107.666 8 156.999 24
c68 22 102 54.333 102 97zM1014 1274c0 -14 -3.00098 -26.5 -9.00098 -37.5s-13.833 -20.333 -23.5 -28s-21 -13.667 -34 -18s-26.5 -6.5 -40.5 -6.5c-27.333 0 -51.666 7.66699 -72.999 23c-22.667 16.667 -34 39 -34 67s11.333 50.333 34 67c20.667 16 45 24 73 24
c14 0 27.5 -2.16699 40.5 -6.5s24.333 -10.5 34 -18.5s17.5 -17.5 23.5 -28.5s9 -23.5 9 -37.5zM666 1274c0 -26.667 -11 -48.333 -33 -65c-20.667 -16.667 -45 -25 -73 -25s-52.667 7.66699 -74 23c-22.667 16.667 -34 39 -34 67s11.333 50.333 34 67
c20.667 16 45 24 73 24c14 0 27.5 -2.16699 40.5 -6.5s24.333 -10.5 34 -18.5s17.5 -17.5 23.5 -28.5s9 -23.5 9 -37.5z" />
    <glyph glyph-name="oslash" unicode="&#xf8;" horiz-adv-x="1424" 
d="M451 178c34.667 -6 73 -8.99902 115 -8.99902h343c54.667 0 107 8 157 24c68 20.667 102 53 102 97v369c0 21.333 -7 39.666 -21 54.999zM928 773.001l-363 -0.000976562c-64 0 -121.333 -8 -172 -24c-72 -23.333 -108 -58.666 -108 -105.999v-353
c0 -7.33301 0.333008 -11.333 1 -12zM1382 645v-355.001c0 -109.333 -54 -189.333 -162 -240c-76.667 -38.667 -178.667 -58 -306 -58h-351c-168.667 0 -289.667 19.667 -363 59c-84 44.667 -126 124.334 -126 239.001v353c0 107.333 57.667 188.666 173 243.999
c84.667 42.667 189.667 64 315 64h352c149.333 0 256.333 -12.667 321 -38c98 -43.333 147 -132.666 147 -267.999z" />
    <glyph glyph-name="ugrave" unicode="&#xf9;" horiz-adv-x="1474" 
d="M1397 278c0 -192.667 -204 -289 -612 -289c-11.333 0 -26 0.166992 -44 0.5s-39 0.833008 -63 1.5c-0.666992 0.666992 -3.33398 1 -8.00098 1h-9h-16h-29h-45c-342.667 0 -514 95.333 -514 286v594c0 52.667 26 79 78 79s82.333 -2.33301 91 -7c28 -10 42 -34 42 -72
v-594c0 -72.667 101 -109 303 -109h315c198 0 297 35.333 297 106v597c0 38 14.333 62 43 72c8.66699 4.66699 39.334 7 92.001 7s79 -26.333 79 -79v-594zM898 1051c0 -37.333 -22.333 -56.001 -67 -56.001c-14.667 0 -29.667 4.66699 -45 14
c-14 10 -63.333 57.333 -148 142l-97 98.5c-22.667 23.667 -35.667 38.834 -39 45.501c-6 8.66699 -9 16.667 -9 24c0 16.667 7.83301 30.667 23.5 42s32.5 17 50.5 17c14 0 25.333 -4.33301 34 -13l279 -276c12 -12 18 -24.667 18 -38z" />
    <glyph glyph-name="uacute" unicode="&#xfa;" horiz-adv-x="1474" 
d="M1397 278c0 -192.667 -204 -289 -612 -289c-11.333 0 -26 0.166992 -44 0.5s-39 0.833008 -63 1.5c-0.666992 0.666992 -3.33398 1 -8.00098 1h-9h-16h-29h-45c-342.667 0 -514 95.333 -514 286v594c0 52.667 26 79 78 79s82.333 -2.33301 91 -7c28 -10 42 -34 42 -72
v-594c0 -72.667 101 -109 303 -109h315c198 0 297 35.333 297 106v597c0 38 14.333 62 43 72c8.66699 4.66699 39.334 7 92.001 7s79 -26.333 79 -79v-594zM968 1324c0 -14 -48.668 -69.667 -146.001 -167l-102 -101.5c-24 -23.667 -38.667 -37.167 -44 -40.5
c-15.333 -10 -30.666 -15 -45.999 -15c-44.667 0 -67 18.667 -67 56c0 13.333 6 26 18 38l279 276c8.66699 8.66699 20 13 34 13c18 0 34.833 -5.66699 50.5 -17s23.5 -25.333 23.5 -42z" />
    <glyph glyph-name="ucircumflex" unicode="&#xfb;" horiz-adv-x="1474" 
d="M1397 278c0 -192.667 -204 -289 -612 -289c-11.333 0 -26 0.166992 -44 0.5s-39 0.833008 -63 1.5c-0.666992 0.666992 -3.33398 1 -8.00098 1h-9h-16h-29h-45c-342.667 0 -514 95.333 -514 286v594c0 52.667 26 79 78 79s82.333 -2.33301 91 -7c28 -10 42 -34 42 -72
v-594c0 -72.667 101 -109 303 -109h315c198 0 297 35.333 297 106v597c0 38 14.333 62 43 72c8.66699 4.66699 39.334 7 92.001 7s79 -26.333 79 -79v-594zM1079 1050c0 -38.667 -23 -57.999 -69 -57.999c-23.333 0 -46.333 10.333 -69 31l-24 23.5l-33 32.5l-53 50l-101 94
c-46.667 -48 -88.667 -89.333 -126 -124s-70 -63.667 -98 -87c-15.333 -12 -32.333 -18 -51 -18c-48.667 0 -73 19.333 -73 58c0 11.333 5.33301 22.333 16 33l266 267c19.333 19.333 41.333 29 66 29s46.667 -9.66699 66 -29l267 -267
c10.667 -10.667 16 -22.334 16 -35.001z" />
    <glyph glyph-name="udieresis" unicode="&#xfc;" horiz-adv-x="1474" 
d="M1397 278c0 -192.667 -204 -289 -612 -289c-11.333 0 -26 0.166992 -44 0.5s-39 0.833008 -63 1.5c-0.666992 0.666992 -3.33398 1 -8.00098 1h-9h-16h-29h-45c-342.667 0 -514 95.333 -514 286v594c0 52.667 26 79 78 79s82.333 -2.33301 91 -7c28 -10 42 -34 42 -72
v-594c0 -72.667 101 -109 303 -109h315c198 0 297 35.333 297 106v597c0 38 14.333 62 43 72c8.66699 4.66699 39.334 7 92.001 7s79 -26.333 79 -79v-594zM1024 1274c0 -14 -3.00098 -26.5 -9.00098 -37.5s-13.833 -20.333 -23.5 -28s-21 -13.667 -34 -18
s-26.5 -6.5 -40.5 -6.5c-27.333 0 -51.666 7.66699 -72.999 23c-22.667 16.667 -34 39 -34 67s11.333 50.333 34 67c20.667 16 45 24 73 24c14 0 27.5 -2.16699 40.5 -6.5s24.333 -10.5 34 -18.5s17.5 -17.5 23.5 -28.5s9 -23.5 9 -37.5zM675.999 1274
c0 -26.667 -11 -48.333 -33 -65c-20.667 -16.667 -45 -25 -73 -25s-52.667 7.66699 -74 23c-22.667 16.667 -34 39 -34 67s11.333 50.333 34 67c20.667 16 45 24 73 24c14 0 27.5 -2.16699 40.5 -6.5s24.333 -10.5 34 -18.5s17.5 -17.5 23.5 -28.5s9 -23.5 9 -37.5z" />
    <glyph glyph-name="yacute" unicode="&#xfd;" horiz-adv-x="1463" 
d="M1382 7c0 -130 -78.667 -215.001 -236 -255.001c-58 -16.667 -187 -25 -387 -25c-32.667 0 -54.667 9.66699 -66 29c-8.66699 12.667 -13 37.334 -13 74.001c0 52.667 26.333 79 79 79h27h17h10c6.66699 0 10.334 -0.333008 11.001 -1
c14.667 -0.666992 27.167 -1.16699 37.5 -1.5s19.166 -0.5 26.499 -0.5c188 0 282 31.333 282 94h-630c-317.333 -0 -476 95.333 -476 286v586c0 38 14 62 42 72c8.66699 4.66699 39 7 91 7s78 -26.333 78 -79v-586c0 -73.333 88.333 -110 265 -110h630v696
c0 52.667 26.333 79 79 79c52 0 82.333 -2.33301 91 -7c28 -10 42 -34 42 -72v-865zM1021 1314c0 -14 -48.668 -69.667 -146.001 -167l-102 -101.5c-24 -23.667 -38.667 -37.167 -44 -40.5c-15.333 -10 -30.666 -15 -45.999 -15c-44.667 0 -67 18.667 -67 56
c0 13.333 6 26 18 38l279 276c8.66699 8.66699 20 13 34 13c18 0 34.833 -5.66699 50.5 -17s23.5 -25.333 23.5 -42z" />
    <glyph glyph-name="thorn" unicode="&#xfe;" horiz-adv-x="1460" 
d="M1392 297c0 -198 -152 -297 -456 -297h-658v-195c0 -37.333 -14.333 -61 -43 -71c-8.66699 -4.66699 -38.667 -7 -90 -7c-52 0 -78 26 -78 78l1 1327c0 52 26 78 78 78c48.667 0 79 -2 91 -6c28 -9.33301 42 -33.333 42 -72v-209c62 18.667 152 28 270 28h336
c338 0 507 -94 507 -282v-372zM1179 294l-0.000976562 372c0 50.667 -39 83.667 -117 99c-31.333 6 -89.666 9 -174.999 9h-329c-175.333 0 -268.333 -33.333 -279 -100v-498h657c162 0 243 39.333 243 118z" />
    <glyph glyph-name="ydieresis" unicode="&#xff;" horiz-adv-x="1458" 
d="M1382 7c0 -130 -78.667 -215.001 -236 -255.001c-58 -16.667 -187 -25 -387 -25c-32.667 0 -54.667 9.66699 -66 29c-8.66699 12.667 -13 37.334 -13 74.001c0 52.667 26.333 79 79 79h27h17h10c6.66699 0 10.334 -0.333008 11.001 -1
c14.667 -0.666992 27.167 -1.16699 37.5 -1.5s19.166 -0.5 26.499 -0.5c188 0 282 31.333 282 94h-630c-317.333 -0 -476 95.333 -476 286v586c0 38 14 62 42 72c8.66699 4.66699 39 7 91 7s78 -26.333 78 -79v-586c0 -73.333 88.333 -110 265 -110h630v696
c0 52.667 26.333 79 79 79c52 0 82.333 -2.33301 91 -7c28 -10 42 -34 42 -72v-865zM1041 1275c0 -14 -3.00098 -26.5 -9.00098 -37.5s-13.833 -20.333 -23.5 -28s-21 -13.667 -34 -18s-26.5 -6.5 -40.5 -6.5c-27.333 0 -51.666 7.66699 -72.999 23
c-22.667 16.667 -34 39 -34 67s11.333 50.333 34 67c20.667 16 45 24 73 24c14 0 27.5 -2.16699 40.5 -6.5s24.333 -10.5 34 -18.5s17.5 -17.5 23.5 -28.5s9 -23.5 9 -37.5zM692.999 1275c0 -26.667 -11 -48.333 -33 -65c-20.667 -16.667 -45 -25 -73 -25
s-52.667 7.66699 -74 23c-22.667 16.667 -34 39 -34 67s11.333 50.333 34 67c20.667 16 45 24 73 24c14 0 27.5 -2.16699 40.5 -6.5s24.333 -10.5 34 -18.5s17.5 -17.5 23.5 -28.5s9 -23.5 9 -37.5z" />
    <glyph glyph-name="Abreve" unicode="&#x102;" horiz-adv-x="1772" 
d="M1746 75c0 -30.667 -10.3301 -56.332 -30.9971 -76.999s-46.334 -31 -77.001 -31c-42.667 0 -77.334 20 -104.001 60l-197 286h-936l-197 -286c-21.333 -31.333 -44.333 -47 -69 -47s-48.334 8 -71.001 24c-25.333 17.333 -38 37.666 -38 60.999c0 7.33301 2 14 6 20
l702 1073c28.667 44 78 66 148 66c52 0 86.667 -14.667 104 -44c1.33301 -2 2.83301 -4.83301 4.5 -8.5s4.16699 -8.16699 7.5 -13.5l744 -1053c2.66699 -4.66699 4 -14.667 4 -30zM1207 497.002l-337 497l-339 -497h676zM581.003 1563
c-10.667 10.667 -15.999 22.666 -15.999 35.999c0 15.333 7 29.666 21 42.999c14.667 14 29.334 21 44.001 21c18 0 31 -6.66699 39 -20c82.667 -112.667 155.667 -169 219 -169c34 0 67.833 13.833 101.5 41.5s70.834 69.834 111.501 126.501c4.66699 8 11 13.5 19 16.5
s15.333 4.5 22 4.5c8 0 15.833 -1.83301 23.5 -5.5s14.5 -8.66699 20.5 -15s10.833 -13.333 14.5 -21s5.5 -15.5 5.5 -23.5s-1 -14.5 -3 -19.5s-4.33301 -9.5 -7 -13.5c-57.333 -69.333 -110.333 -122 -159 -158s-98.334 -54 -149.001 -54
c-48.667 0 -97.834 16.833 -147.501 50.5s-102.834 86.834 -159.501 159.501z" />
    <glyph glyph-name="abreve" unicode="&#x103;" horiz-adv-x="1539" 
d="M1469 280c0 -192 -144.002 -288 -432.002 -288h-516c-110.667 0 -206.334 20.333 -287.001 61c-108.667 52 -163 124.333 -163 217v122c0 100 51.667 175 155 225c76.667 38.667 172.667 58 288 58h746c-11.333 67.333 -106.666 101 -285.999 101
c-7.33301 0 -16.166 -0.166992 -26.499 -0.5s-22.166 -0.833008 -35.499 -1.5c-0.666992 -0.666992 -4 -1 -10 -1h-9h-16h-25c-52 0 -78 33 -78 99c0 52.667 26 79 78 79c168.667 0 297.667 -11.667 387 -35c153.333 -43.333 230 -130 230 -260v-376zM1262 330
c0 9.33301 -0.166992 21 -0.5 35s-0.833008 30.333 -1.5 49s-1.16699 35 -1.5 49s-0.5 25.667 -0.5 35h-749c-44 0 -89.333 -8 -136 -24c-60.667 -20.667 -91 -47.667 -91 -81v-121c0 -35.333 31.333 -62.333 94 -81c40 -14.667 86.333 -22 139 -22h524
c78.667 0 132.667 7.66699 162 23c40.667 20.667 61 66.667 61 138zM464.998 1308c-10.667 10.667 -15.999 22.666 -15.999 35.999c0 15.333 7 29.666 21 42.999c14.667 14 29.334 21 44.001 21c18 0 31 -6.66699 39 -20c82.667 -112.667 155.667 -169 219 -169
c34 0 67.833 13.833 101.5 41.5s70.834 69.834 111.501 126.501c4.66699 8 11 13.5 19 16.5s15.333 4.5 22 4.5c8 0 15.833 -1.83301 23.5 -5.5s14.5 -8.66699 20.5 -15s10.833 -13.333 14.5 -21s5.5 -15.5 5.5 -23.5s-1 -14.5 -3 -19.5s-4.33301 -9.5 -7 -13.5
c-57.333 -69.333 -110.333 -122 -159 -158s-98.334 -54 -149.001 -54c-48.667 0 -97.834 16.833 -147.501 50.5s-102.834 86.834 -159.501 159.501z" />
    <glyph glyph-name="Aogonek" unicode="&#x104;" horiz-adv-x="1772" 
d="M1746 75c0 -30.667 -10.3301 -56.332 -30.9971 -76.999s-46.334 -31 -77.001 -31c-42.667 0 -77.334 20 -104.001 60l-197 286h-936l-197 -286c-21.333 -31.333 -44.333 -47 -69 -47s-48.334 8 -71.001 24c-25.333 17.333 -38 37.666 -38 60.999c0 7.33301 2 14 6 20
l702 1073c28.667 44 78 66 148 66c52 0 86.667 -14.667 104 -44c1.33301 -2 2.83301 -4.83301 4.5 -8.5s4.16699 -8.16699 7.5 -13.5l744 -1053c2.66699 -4.66699 4 -14.667 4 -30zM1207 497.002l-337 497l-339 -497h676zM661.003 -61.998c0 52 34 78.001 102 78.001
c56.667 0 91 -16 103 -48c1.33301 -14.667 2.5 -29.334 3.5 -44.001s2.16699 -29.667 3.5 -45c8 -32.667 27.667 -49 59 -49h100c52 0 78 -29.667 78 -89c0 -61.333 -26 -92 -78 -92h-180c-127.333 0 -191 81.333 -191 244v45z" />
    <glyph glyph-name="aogonek" unicode="&#x105;" horiz-adv-x="1539" 
d="M1469 280c0 -192 -144.002 -288 -432.002 -288h-516c-110.667 0 -206.334 20.333 -287.001 61c-108.667 52 -163 124.333 -163 217v122c0 100 51.667 175 155 225c76.667 38.667 172.667 58 288 58h746c-11.333 67.333 -106.666 101 -285.999 101
c-7.33301 0 -16.166 -0.166992 -26.499 -0.5s-22.166 -0.833008 -35.499 -1.5c-0.666992 -0.666992 -4 -1 -10 -1h-9h-16h-25c-52 0 -78 33 -78 99c0 52.667 26 79 78 79c168.667 0 297.667 -11.667 387 -35c153.333 -43.333 230 -130 230 -260v-376zM1262 330
c0 9.33301 -0.166992 21 -0.5 35s-0.833008 30.333 -1.5 49s-1.16699 35 -1.5 49s-0.5 25.667 -0.5 35h-749c-44 0 -89.333 -8 -136 -24c-60.667 -20.667 -91 -47.667 -91 -81v-121c0 -35.333 31.333 -62.333 94 -81c40 -14.667 86.333 -22 139 -22h524
c78.667 0 132.667 7.66699 162 23c40.667 20.667 61 66.667 61 138zM544.998 -62c0 52 34 78.001 102 78.001c56.667 0 91 -16 103 -48c1.33301 -14.667 2.5 -29.334 3.5 -44.001s2.16699 -29.667 3.5 -45c8 -32.667 27.667 -49 59 -49h100c52 0 78 -29.667 78 -89
c0 -61.333 -26 -92 -78 -92h-180c-127.333 0 -191 81.333 -191 244v45z" />
    <glyph glyph-name="Cacute" unicode="&#x106;" horiz-adv-x="1524" 
d="M1427 1108c0 -52.667 -25.999 -79 -77.999 -79h-791c-192 0 -288 -38.333 -288 -115v-603c0 -90.667 106.333 -136 319 -136h755c54 0 81 -30.333 81 -91c0 -61.333 -27 -92 -81 -92h-755c-102 0 -175.333 4 -220 12c-48.667 9.33301 -99.334 27.333 -152.001 54
c-60 31.333 -102 64 -126 98c-28.667 38.667 -43 89 -43 151v606c0 76.667 35 142 105 196c58.667 44.667 130 74.667 214 90c21.333 3.33301 47.333 6 78 8s67 3 109 3h795c52 0 78 -34 78 -102zM964.001 1557c0 -14 -48.668 -69.667 -146.001 -167l-102 -101.5
c-24 -23.667 -38.667 -37.167 -44 -40.5c-15.333 -10 -30.666 -15 -45.999 -15c-44.667 0 -67 18.667 -67 56c0 13.333 6 26 18 38l279 276c8.66699 8.66699 20 13 34 13c18 0 34.833 -5.66699 50.5 -17s23.5 -25.333 23.5 -42z" />
    <glyph glyph-name="cacute" unicode="&#x107;" horiz-adv-x="1450" 
d="M1412 71c0 -52.667 -32.667 -78.999 -98 -78.999h-781c-150 0 -258 14.333 -324 43c-113.333 45.333 -170 127.666 -170 246.999v378c0 194 150 291 450 291h836c54.667 0 82 -29.667 82 -89s-27.333 -89 -82 -89h-821c-169.333 0 -254 -35.667 -254 -107v-375
c0 -81.333 96.333 -122 289 -122h794c52.667 0 79 -32.667 79 -98zM927 1302c0 -14 -48.668 -69.667 -146.001 -167l-102 -101.5c-24 -23.667 -38.667 -37.167 -44 -40.5c-15.333 -10 -30.666 -15 -45.999 -15c-44.667 0 -67 18.667 -67 56c0 13.333 6 26 18 38l279 276
c8.66699 8.66699 20 13 34 13c18 0 34.833 -5.66699 50.5 -17s23.5 -25.333 23.5 -42z" />
    <glyph glyph-name="Ccaron" unicode="&#x10c;" horiz-adv-x="1524" 
d="M1427 1108c0 -52.667 -25.999 -79 -77.999 -79h-791c-192 0 -288 -38.333 -288 -115v-603c0 -90.667 106.333 -136 319 -136h755c54 0 81 -30.333 81 -91c0 -61.333 -27 -92 -81 -92h-755c-102 0 -175.333 4 -220 12c-48.667 9.33301 -99.334 27.333 -152.001 54
c-60 31.333 -102 64 -126 98c-28.667 38.667 -43 89 -43 151v606c0 76.667 35 142 105 196c58.667 44.667 130 74.667 214 90c21.333 3.33301 47.333 6 78 8s67 3 109 3h795c52 0 78 -34 78 -102zM413.001 1555c0 38.667 23 57.999 69 57.999
c23.333 0 46.333 -10.333 69 -31l24 -23.5l33 -32.5l53 -50l101 -94c46.667 48 88.667 89.333 126 124s70 63.667 98 87c14.667 12 31.667 18 51 18c48.667 0 73 -19.333 73 -58c0 -11.333 -5.33301 -22.333 -16 -33l-266 -267c-19.333 -19.333 -41.333 -29 -66 -29
s-46.667 9.66699 -66 29l-267 267c-10.667 10.667 -16 22.334 -16 35.001z" />
    <glyph glyph-name="ccaron" unicode="&#x10d;" horiz-adv-x="1450" 
d="M1412 71c0 -52.667 -32.667 -78.999 -98 -78.999h-781c-150 0 -258 14.333 -324 43c-113.333 45.333 -170 127.666 -170 246.999v378c0 194 150 291 450 291h836c54.667 0 82 -29.667 82 -89s-27.333 -89 -82 -89h-821c-169.333 0 -254 -35.667 -254 -107v-375
c0 -81.333 96.333 -122 289 -122h794c52.667 0 79 -32.667 79 -98zM376 1300c0 38.667 23 57.999 69 57.999c23.333 0 46.333 -10.333 69 -31l24 -23.5l33 -32.5l53 -50l101 -94c46.667 48 88.667 89.333 126 124s70 63.667 98 87c14.667 12 31.667 18 51 18
c48.667 0 73 -19.333 73 -58c0 -11.333 -5.33301 -22.333 -16 -33l-266 -267c-19.333 -19.333 -41.333 -29 -66 -29s-46.667 9.66699 -66 29l-267 267c-10.667 10.667 -16 22.334 -16 35.001z" />
    <glyph glyph-name="Dcaron" unicode="&#x10e;" horiz-adv-x="1670" 
d="M1594 321c0 -114.667 -57.667 -201.667 -173 -261c-89.333 -45.333 -198.333 -68 -327 -68h-940c-52 0 -78 26.333 -78 79v1061c0 52 26 78 78 78h945c330 0 495 -103.333 495 -310v-579zM1374 322v577.001c0 47.333 -36 82.666 -108 105.999c-51.333 16 -109 24 -173 24
h-795v-854h791c68.667 0 128 9 178 27c71.333 25.333 107 65.333 107 120zM486 1555c0 38.667 23 57.999 69 57.999c23.333 0 46.333 -10.333 69 -31l24 -23.5l33 -32.5l53 -50l101 -94c46.667 48 88.667 89.333 126 124s70 63.667 98 87c14.667 12 31.667 18 51 18
c48.667 0 73 -19.333 73 -58c0 -11.333 -5.33301 -22.333 -16 -33l-266 -267c-19.333 -19.333 -41.333 -29 -66 -29s-46.667 9.66699 -66 29l-267 267c-10.667 10.667 -16 22.334 -16 35.001z" />
    <glyph glyph-name="dcaron" unicode="&#x10f;" horiz-adv-x="1504" 
d="M1425 287c0 -102.667 -63.667 -180.667 -191 -234c-90 -40.667 -198.333 -61 -325 -61h-322c-326 0 -494.333 90.333 -505 271c-2 32 -3 74 -3 126c0 104.667 2 190 6 256c12 198.667 178.333 298 499 298h630v187c0 52.667 26 79 78 79c37.333 0 67.333 -2.66699 90 -8
c28.667 -10 43 -33.667 43 -71v-843zM1214 291v475h-635c-188.667 0 -283 -41.667 -283 -125v-340c0 -62 35.667 -102 107 -120c30.667 -8 91 -12 181 -12h304c217.333 0 326 40.667 326 122zM403 1300c0 38.667 23 57.999 69 57.999c23.333 0 46.333 -10.333 69 -31
l24 -23.5l33 -32.5l53 -50l101 -94c46.667 48 88.667 89.333 126 124s70 63.667 98 87c14.667 12 31.667 18 51 18c48.667 0 73 -19.333 73 -58c0 -11.333 -5.33301 -22.333 -16 -33l-266 -267c-19.333 -19.333 -41.333 -29 -66 -29s-46.667 9.66699 -66 29l-267 267
c-10.667 10.667 -16 22.334 -16 35.001z" />
    <glyph glyph-name="uni0110" unicode="&#x110;" horiz-adv-x="1743" 
d="M156 688v444c0 52 26 78 78 78h945c330 0 495 -103.333 495 -310v-579c0 -114.667 -57.667 -201.667 -173 -261c-89.333 -45.333 -198.333 -68 -327 -68h-940c-52 0 -78 26.333 -78 79v449h-136c-29.333 0 -47 8.33301 -53 25c-2 6 -3 27.667 -3 65c0 52 18.667 78 56 78
h136zM543 597c0 -51.333 -18.667 -77 -56 -77h-109v-345h791c67.333 0 126.666 9 177.999 27c71.333 25.333 107 65.333 107 120v577c0 48 -36.333 83.333 -109 106c-51.333 16 -108.666 24 -171.999 24h-795v-341h109c29.333 0 47 -8.66699 53 -26c2 -5.33301 3 -27 3 -65z
" />
    <glyph glyph-name="Eogonek" unicode="&#x118;" horiz-adv-x="1459" 
d="M1417 601c0 -64.667 -27.666 -97 -82.999 -97h-1069v-200c0 -86 95 -129 285 -129h784c52 0 78 -26.333 78 -79c0 -69.333 -26 -104 -78 -104h-794c-116 0 -222.333 20.667 -319 62c-118.667 54 -178 134.667 -178 242v604c0 58 19.667 110.667 59 158
c85.333 101.333 237.666 152 456.999 152h217c51.333 0 77 -34 77 -102c0 -52.667 -25.667 -79 -77 -79h-32h-20h-11c-7.33301 0 -11.333 0.333008 -12 1c-16.667 0.666992 -31 1.16699 -43 1.5s-22 0.5 -30 0.5c-243.333 0 -365 -44 -365 -132v-213h1072
c54.667 0 82 -28.667 82 -86zM505.001 -62c0 52 34 78.001 102 78.001c56.667 0 91 -16 103 -48c1.33301 -14.667 2.5 -29.334 3.5 -44.001s2.16699 -29.667 3.5 -45c8 -32.667 27.667 -49 59 -49h100c52 0 78 -29.667 78 -89c0 -61.333 -26 -92 -78 -92h-180
c-127.333 0 -191 81.333 -191 244v45z" />
    <glyph glyph-name="eogonek" unicode="&#x119;" horiz-adv-x="1410" 
d="M1368 455c0 -58 -19.667 -87 -59 -87h-1049v-7c0 -90.667 53.333 -149 160 -175c23.333 -5.33301 57.166 -9.5 101.499 -12.5s100.833 -4.5 169.5 -4.5c52 0 78 -32.667 78 -98c0 -52.667 -26 -79 -78 -79c-70.667 0 -128.5 0.5 -173.5 1.5s-79.167 2.83301 -102.5 5.5
c-116 12 -201.333 39.333 -256 82c-78 60.667 -117 132 -117 214v353c0 110.667 60 192.667 180 246c82 38.667 190.667 58 326 58h394c110.667 0 202.334 -18.333 275.001 -55c100.667 -46.667 151 -117 151 -211v-231zM1162 551l0.000976562 118.001
c0 72 -143 108 -429 108c-168.667 0 -284.334 -6 -347.001 -18c-88.667 -16.667 -133 -49.334 -133 -98.001v-110h909zM518.001 -61.999c0 52 34 78.001 102 78.001c56.667 0 91 -16 103 -48c1.33301 -14.667 2.5 -29.334 3.5 -44.001s2.16699 -29.667 3.5 -45
c8 -32.667 27.667 -49 59 -49h100c52 0 78 -29.667 78 -89c0 -61.333 -26 -92 -78 -92h-180c-127.333 0 -191 81.333 -191 244v45z" />
    <glyph glyph-name="Ecaron" unicode="&#x11a;" horiz-adv-x="1459" 
d="M1417 601c0 -64.667 -27.666 -97 -82.999 -97h-1069v-200c0 -86 95 -129 285 -129h784c52 0 78 -26.333 78 -79c0 -69.333 -26 -104 -78 -104h-794c-116 0 -222.333 20.667 -319 62c-118.667 54 -178 134.667 -178 242v604c0 58 19.667 110.667 59 158
c85.333 101.333 237.666 152 456.999 152h217c51.333 0 77 -34 77 -102c0 -52.667 -25.667 -79 -77 -79h-32h-20h-11c-7.33301 0 -11.333 0.333008 -12 1c-16.667 0.666992 -31 1.16699 -43 1.5s-22 0.5 -30 0.5c-243.333 0 -365 -44 -365 -132v-213h1072
c54.667 0 82 -28.667 82 -86zM381.001 1555c0 38.667 23 57.999 69 57.999c23.333 0 46.333 -10.333 69 -31l24 -23.5l33 -32.5l53 -50l101 -94c46.667 48 88.667 89.333 126 124s70 63.667 98 87c14.667 12 31.667 18 51 18c48.667 0 73 -19.333 73 -58
c0 -11.333 -5.33301 -22.333 -16 -33l-266 -267c-19.333 -19.333 -41.333 -29 -66 -29s-46.667 9.66699 -66 29l-267 267c-10.667 10.667 -16 22.334 -16 35.001z" />
    <glyph glyph-name="ecaron" unicode="&#x11b;" horiz-adv-x="1410" 
d="M1368 455c0 -58 -19.667 -87 -59 -87h-1049v-7c0 -90.667 53.333 -149 160 -175c23.333 -5.33301 57.166 -9.5 101.499 -12.5s100.833 -4.5 169.5 -4.5c52 0 78 -32.667 78 -98c0 -52.667 -26 -79 -78 -79c-70.667 0 -128.5 0.5 -173.5 1.5s-79.167 2.83301 -102.5 5.5
c-116 12 -201.333 39.333 -256 82c-78 60.667 -117 132 -117 214v353c0 110.667 60 192.667 180 246c82 38.667 190.667 58 326 58h394c110.667 0 202.334 -18.333 275.001 -55c100.667 -46.667 151 -117 151 -211v-231zM1162 551l0.000976562 118.001
c0 72 -143 108 -429 108c-168.667 0 -284.334 -6 -347.001 -18c-88.667 -16.667 -133 -49.334 -133 -98.001v-110h909zM356.001 1300c0 38.667 23 57.999 69 57.999c23.333 0 46.333 -10.333 69 -31l24 -23.5l33 -32.5l53 -50l101 -94c46.667 48 88.667 89.333 126 124
s70 63.667 98 87c14.667 12 31.667 18 51 18c48.667 0 73 -19.333 73 -58c0 -11.333 -5.33301 -22.333 -16 -33l-266 -267c-19.333 -19.333 -41.333 -29 -66 -29s-46.667 9.66699 -66 29l-267 267c-10.667 10.667 -16 22.334 -16 35.001z" />
    <glyph glyph-name="dotlessi" unicode="&#x131;" horiz-adv-x="377" 
d="M316 71c0 -52.667 -26.334 -79 -79.001 -79c-51.333 0 -81.333 2.33301 -90 7c-27.333 10 -41 34 -41 72v725c0 52 26.333 78 79 78c50.667 0 80.334 -2.33301 89.001 -7c28 -10 42 -33.667 42 -71v-725z" />
    <glyph glyph-name="Lacute" unicode="&#x139;" horiz-adv-x="1495" 
d="M1425 71c0 -52.667 -26 -79 -78 -79h-712c-162.667 0 -289.667 14.667 -381 44c-140.667 48.667 -211 141 -211 277v819c0 52 26 78 78 78c50 0 82 -2 96 -6c32 -9.33301 48 -33.333 48 -72v-819c0 -63.333 51.333 -105 154 -125c32.667 -8.66699 108.667 -13 228 -13
h700c52 0 78 -34.667 78 -104zM950 1557c0 -14 -48.668 -69.667 -146.001 -167l-102 -101.5c-24 -23.667 -38.667 -37.167 -44 -40.5c-15.333 -10 -30.666 -15 -45.999 -15c-44.667 0 -67 18.667 -67 56c0 13.333 6 26 18 38l279 276c8.66699 8.66699 20 13 34 13
c18 0 34.833 -5.66699 50.5 -17s23.5 -25.333 23.5 -42z" />
    <glyph glyph-name="lacute" unicode="&#x13a;" horiz-adv-x="370" 
d="M291 71c0 -52.667 -26 -79 -78 -79c-51.333 0 -81.333 2.33301 -90 7c-28.667 10.667 -43 34.667 -43 72v1061c0 52 26 78 78 78c48.667 0 79 -2 91 -6c28 -9.33301 42 -33.333 42 -72v-1061zM390 1302c0 -14 -48.668 -69.667 -146.001 -167l-102 -101.5
c-24 -23.667 -38.667 -37.167 -44 -40.5c-15.333 -10 -30.666 -15 -45.999 -15c-44.667 0 -67 18.667 -67 56c0 13.333 6 26 18 38l279 276c8.66699 8.66699 20 13 34 13c18 0 34.833 -5.66699 50.5 -17s23.5 -25.333 23.5 -42z" />
    <glyph glyph-name="Lcaron" unicode="&#x13d;" horiz-adv-x="1495" 
d="M1425 71c0 -52.667 -26 -79 -78 -79h-712c-162.667 0 -289.667 14.667 -381 44c-140.667 48.667 -211 141 -211 277v819c0 52 26 78 78 78c50 0 82 -2 96 -6c32 -9.33301 48 -33.333 48 -72v-819c0 -63.333 51.333 -105 154 -125c32.667 -8.66699 108.667 -13 228 -13
h700c52 0 78 -34.667 78 -104zM657 1222c0 -3.33301 -0.167969 -6.99805 -0.500977 -10.998s-0.833008 -8 -1.5 -12l-48 -290c-4.66699 -32.667 -22.667 -53 -54 -61c-7.33301 -1.33301 -18.333 -2.5 -33 -3.5s-33 -1.5 -55 -1.5c-52.667 0 -79 23 -79 69
c0 3.33301 0.166992 6.66602 0.5 9.99902s0.833008 7.33301 1.5 12l46 291c4.66699 31.333 22.667 51.666 54 60.999c6.66699 1.33301 17.334 2.5 32.001 3.5s33.667 1.5 57 1.5c53.333 0 80 -23 80 -69z" />
    <glyph glyph-name="lcaron" unicode="&#x13e;" horiz-adv-x="597" 
d="M291 71c0 -52.667 -26 -79 -78 -79c-51.333 0 -81.333 2.33301 -90 7c-28.667 10.667 -43 34.667 -43 72v1061c0 52 26 78 78 78c48.667 0 79 -2 91 -6c28 -9.33301 42 -33.333 42 -72v-1061zM620 1270c0 -3.33301 -0.167969 -6.99805 -0.500977 -10.998
s-0.833008 -8 -1.5 -12l-48 -290c-4.66699 -32.667 -22.667 -53 -54 -61c-7.33301 -1.33301 -18.333 -2.5 -33 -3.5s-33 -1.5 -55 -1.5c-52.667 0 -79 23 -79 69c0 3.33301 0.166992 6.66602 0.5 9.99902s0.833008 7.33301 1.5 12l46 291
c4.66699 31.333 22.667 51.666 54 60.999c6.66699 1.33301 17.334 2.5 32.001 3.5s33.667 1.5 57 1.5c53.333 0 80 -23 80 -69z" />
    <glyph glyph-name="Lslash" unicode="&#x141;" horiz-adv-x="1495" 
d="M1425 71c0 -52.667 -26 -79 -78 -79h-712c-162.667 0 -289.667 14.667 -381 44c-140.667 48.667 -211 141 -211 277v819c0 52 26 78 78 78c50 0 82 -2 96 -6c32 -9.33301 48 -33.333 48 -72v-819c0 -63.333 51.333 -105 154 -125c32.667 -8.66699 108.667 -13 228 -13
h700c52 0 78 -34.667 78 -104zM462.467 853.103c0 -10.8174 -5.10742 -21.1846 -15.3193 -31.1016l-494.717 -478.24c-7.80957 -6.91113 -26.4326 -10.3662 -55.8691 -10.3662c-26.7334 0 -40.0996 9.91602 -40.0996 29.749c0 10.2168 5.25684 20.584 15.7695 31.1006
l494.266 478.24c6.6084 6.61133 25.3818 9.91699 56.3203 9.91699c26.4326 0 39.6494 -9.7666 39.6494 -29.2988z" />
    <glyph glyph-name="lslash" unicode="&#x142;" horiz-adv-x="370" 
d="M291 71c0 -52.667 -26 -79 -78 -79c-51.333 0 -81.333 2.33301 -90 7c-28.667 10.667 -43 34.667 -43 72v1061c0 52 26 78 78 78c48.667 0 79 -2 91 -6c28 -9.33301 42 -33.333 42 -72v-1061zM505.982 866.357c0 -11.3887 -5.37598 -22.3037 -16.1279 -32.7441
l-520.853 -503.496c-8.22266 -7.27637 -27.8301 -10.915 -58.8223 -10.915c-28.1455 0 -42.2178 10.4404 -42.2178 31.3203c0 10.7568 5.53418 21.6719 16.6025 32.7451l520.379 503.496c6.95703 6.95996 26.7217 10.4395 59.2949 10.4395
c27.8291 0 41.7441 -10.2822 41.7441 -30.8457z" />
    <glyph glyph-name="Nacute" unicode="&#x143;" horiz-adv-x="1671" 
d="M1590 123c0 -92.667 -40.668 -139 -122.001 -139c-37.333 0 -79.666 19.667 -126.999 59l-1037 881v-853c0 -39.333 -16 -64 -48 -74c-9.33301 -1.33301 -22 -2.5 -38 -3.5s-35.333 -1.5 -58 -1.5c-52 0 -78 26.333 -78 79v1016c0 88 38 132 114 132
c48 0 97.333 -21.333 148 -64l1023 -871v848c0 38.667 16 63 48 73c9.33301 1.33301 22 2.5 38 3.5s35.333 1.5 58 1.5c52.667 0 79 -26 79 -78v-1009zM1038 1557c0 -14 -48.668 -69.667 -146.001 -167l-102 -101.5c-24 -23.667 -38.667 -37.167 -44 -40.5
c-15.333 -10 -30.666 -15 -45.999 -15c-44.667 0 -67 18.667 -67 56c0 13.333 6 26 18 38l279 276c8.66699 8.66699 20 13 34 13c18 0 34.833 -5.66699 50.5 -17s23.5 -25.333 23.5 -42z" />
    <glyph glyph-name="nacute" unicode="&#x144;" horiz-adv-x="1455" 
d="M1381 71c0 -52.667 -26.333 -79 -79 -79c-52 0 -82.333 2.33301 -91 7c-28.667 10 -43 34 -43 72v610c0 43.333 -36 71.666 -108 84.999c-12.667 2.66699 -32.167 4.5 -58.5 5.5s-59.5 1.5 -99.5 1.5h-364c-36.667 0 -67.5 -0.666992 -92.5 -2s-44.833 -3.33301 -59.5 -6
c-68 -13.333 -102 -41.666 -102 -84.999v-609c0 -52.667 -26 -79 -78 -79s-82.333 2.33301 -91 7c-28 10 -42 34 -42 72v607c0 182 161.333 273 484 273h345c319.333 0 479 -90.333 479 -271v-609zM930 1302c0 -14 -48.668 -69.667 -146.001 -167l-102 -101.5
c-24 -23.667 -38.667 -37.167 -44 -40.5c-15.333 -10 -30.666 -15 -45.999 -15c-44.667 0 -67 18.667 -67 56c0 13.333 6 26 18 38l279 276c8.66699 8.66699 20 13 34 13c18 0 34.833 -5.66699 50.5 -17s23.5 -25.333 23.5 -42z" />
    <glyph glyph-name="Ncaron" unicode="&#x147;" horiz-adv-x="1671" 
d="M1590 123c0 -92.667 -40.668 -139 -122.001 -139c-37.333 0 -79.666 19.667 -126.999 59l-1037 881v-853c0 -39.333 -16 -64 -48 -74c-9.33301 -1.33301 -22 -2.5 -38 -3.5s-35.333 -1.5 -58 -1.5c-52 0 -78 26.333 -78 79v1016c0 88 38 132 114 132
c48 0 97.333 -21.333 148 -64l1023 -871v848c0 38.667 16 63 48 73c9.33301 1.33301 22 2.5 38 3.5s35.333 1.5 58 1.5c52.667 0 79 -26 79 -78v-1009zM486.999 1555c0 38.667 23 57.999 69 57.999c23.333 0 46.333 -10.333 69 -31l24 -23.5l33 -32.5l53 -50l101 -94
c46.667 48 88.667 89.333 126 124s70 63.667 98 87c14.667 12 31.667 18 51 18c48.667 0 73 -19.333 73 -58c0 -11.333 -5.33301 -22.333 -16 -33l-266 -267c-19.333 -19.333 -41.333 -29 -66 -29s-46.667 9.66699 -66 29l-267 267c-10.667 10.667 -16 22.334 -16 35.001z
" />
    <glyph glyph-name="ncaron" unicode="&#x148;" horiz-adv-x="1455" 
d="M1381 71c0 -52.667 -26.333 -79 -79 -79c-52 0 -82.333 2.33301 -91 7c-28.667 10 -43 34 -43 72v610c0 43.333 -36 71.666 -108 84.999c-12.667 2.66699 -32.167 4.5 -58.5 5.5s-59.5 1.5 -99.5 1.5h-364c-36.667 0 -67.5 -0.666992 -92.5 -2s-44.833 -3.33301 -59.5 -6
c-68 -13.333 -102 -41.666 -102 -84.999v-609c0 -52.667 -26 -79 -78 -79s-82.333 2.33301 -91 7c-28 10 -42 34 -42 72v607c0 182 161.333 273 484 273h345c319.333 0 479 -90.333 479 -271v-609zM379 1300c0 38.667 23 57.999 69 57.999c23.333 0 46.333 -10.333 69 -31
l24 -23.5l33 -32.5l53 -50l101 -94c46.667 48 88.667 89.333 126 124s70 63.667 98 87c14.667 12 31.667 18 51 18c48.667 0 73 -19.333 73 -58c0 -11.333 -5.33301 -22.333 -16 -33l-266 -267c-19.333 -19.333 -41.333 -29 -66 -29s-46.667 9.66699 -66 29l-267 267
c-10.667 10.667 -16 22.334 -16 35.001z" />
    <glyph glyph-name="Ohungarumlaut" unicode="&#x150;" horiz-adv-x="1626" 
d="M1550 319c0 -218 -188.333 -327 -565 -327h-346c-152.667 0 -273 19.333 -361 58c-134.667 54.667 -202 144 -202 268v562c0 220 187.667 330 563 330h346c175.333 0 299 -15.333 371 -46c129.333 -50 194 -144.667 194 -284v-561zM1327 324v551
c0 102.667 -112.333 154 -337 154h-352c-226.667 0 -340 -51.333 -340 -154v-551c0 -99.333 113.333 -149 340 -149h353c224 0 336 49.667 336 149zM577 1323c-12 -13.333 -26.667 -19.999 -44 -19.999c-36.667 0 -55 19 -55 57c0 16 5.66699 29.667 17 41l255 272
c13.333 13.333 29 20 47 20c38 0 57 -18.333 57 -55c0 -16.667 -5.33301 -31.334 -16 -44.001zM869 1321c-10 -12 -24 -17.999 -42 -17.999c-38 0 -57 19 -57 57c0 16 5.66699 29.667 17 41l256 272c15.333 13.333 31.333 20 48 20c37.333 0 56 -18.333 56 -55
c0 -16.667 -5.33301 -31.334 -16 -44.001z" />
    <glyph glyph-name="ohungarumlaut" unicode="&#x151;" 
d="M1377 290c0 -109.333 -54 -189.332 -162 -239.999c-76.667 -38.667 -178.667 -58 -306 -58h-351c-116 0 -221 19.667 -315 59c-116 52 -174 131.667 -174 239v353c0 107.333 57.667 188.666 173 243.999c84.667 42.667 189.667 64 315 64h352c312 0 468 -102 468 -306
v-355zM1163 290.001l0.000976562 368.998c0 76 -86.667 114 -260 114h-343c-64 0 -121.333 -8 -172 -24c-72 -23.333 -108 -58.666 -108 -105.999v-353c0 -45.333 36.667 -78.666 110 -99.999c48.667 -14 105.667 -21 171 -21h343c55.333 0 107.666 8 156.999 24
c68 22 102 54.333 102 97zM487.001 1068c-12 -13.333 -26.667 -19.999 -44 -19.999c-36.667 0 -55 19 -55 57c0 16 5.66699 29.667 17 41l255 272c13.333 13.333 29 20 47 20c38 0 57 -18.333 57 -55c0 -16.667 -5.33301 -31.334 -16 -44.001zM779.001 1066
c-10 -12 -24 -17.999 -42 -17.999c-38 0 -57 19 -57 57c0 16 5.66699 29.667 17 41l256 272c15.333 13.333 31.333 20 48 20c37.333 0 56 -18.333 56 -55c0 -16.667 -5.33301 -31.334 -16 -44.001z" />
    <glyph glyph-name="OE" unicode="&#x152;" horiz-adv-x="1776" 
d="M1711 601c0 -64.667 -27.666 -97.001 -82.999 -97.001h-399v-200c0 -86.667 101.333 -130 304 -130h60h8c7.33301 0 11.333 0.333008 12 1h15c52 0 78 -26.333 78 -79c0 -69.333 -26 -104 -78 -104h-124c-168 0 -298.333 34.333 -391 103
c-92.667 -68.667 -250.334 -103 -473.001 -103c-152.667 0 -273 19.333 -361 58c-134.667 54.667 -202 144 -202 268v562c0 220 193 330 579 330c230 0 385.667 -33 467 -99c62.667 46.667 144 76.334 244 89.001c25.333 3.33301 59.833 5.83301 103.5 7.5
s96.834 2.5 159.501 2.5c32 0 53.667 -9.66699 65 -29c8 -14 12 -38.333 12 -73c0 -52.667 -25.667 -79 -77 -79c-12.667 0 -19.334 0.333008 -20.001 1l3 1c-0.666992 0.666992 -7.66699 1 -21 1c-243.333 0 -365 -44 -365 -132v-213h402c54.667 0 82 -28.667 82 -86z
M998.001 323.999v551c0 102.667 -119.667 154 -359 154c-226.667 0 -340 -51.333 -340 -154v-551c0 -99.333 121 -149 363 -149c224 0 336 49.667 336 149z" />
    <glyph glyph-name="oe" unicode="&#x153;" horiz-adv-x="1918" 
d="M1839 455c0 -58 -19.667 -86.998 -59 -86.998h-699v-7c0 -92.667 53 -152 159 -178c20.667 -4.66699 53.5 -8.16699 98.5 -10.5s102.833 -3.5 173.5 -3.5c52 0 78 -32.667 78 -98c0 -52.667 -26 -79 -78 -79h-95c-220.667 0 -368.667 31.667 -444 95
c-83.333 -63.333 -219.333 -95 -408 -95c-116 0 -221 19.667 -315 59c-116 52 -174 131.667 -174 239v353c0 107.333 57.667 188.666 173 243.999c84.667 42.667 189.667 64 315 64h42c172 0 296.667 -31 374 -93c92.667 62.667 237 94 433 94c106 0 197.667 -18 275 -54
c100.667 -46.667 151 -117.334 151 -212.001v-231zM1633 551.002v118c0 72 -89.667 108 -269 108c-32 0 -62.167 -1.66699 -90.5 -5s-56.5 -8.33301 -84.5 -15c-76.667 -20 -115 -52 -115 -96v-110h559zM860 290.002l0.000976562 368.999c0 76 -97.667 114 -293 114
c-64 0 -121.333 -8 -172 -24c-72 -23.333 -108 -58.666 -108 -105.999v-353c0 -80.667 104.667 -121 314 -121c55.333 0 107.666 8 156.999 24c68 22 102 54.333 102 97z" />
    <glyph glyph-name="Racute" unicode="&#x154;" horiz-adv-x="1632" 
d="M1568 755c0 -110 -58 -190.333 -174 -241c-92 -37.333 -198 -56 -318 -56h-366l742 -315c39.333 -17.333 59 -43 59 -77c0 -50 -43.667 -75 -131 -75c-34.667 0 -62 2.66699 -82 8l-1013 433v-361c0 -52.667 -26 -79 -78 -79c-55.333 0 -87.333 2.33301 -96 7
c-32 10 -48 34 -48 72v1061c0 52 26 78 78 78h894c138.667 0 252.667 -18 342 -54c127.333 -51.333 191 -136 191 -254v-147zM1346 753v154c0 81.333 -104 122 -312 122h-749v-390h789c181.333 0 272 38 272 114zM1018 1557c0 -14 -48.668 -69.667 -146.001 -167
l-102 -101.5c-24 -23.667 -38.667 -37.167 -44 -40.5c-15.333 -10 -30.666 -15 -45.999 -15c-44.667 0 -67 18.667 -67 56c0 13.333 6 26 18 38l279 276c8.66699 8.66699 20 13 34 13c18 0 34.833 -5.66699 50.5 -17s23.5 -25.333 23.5 -42z" />
    <glyph glyph-name="racute" unicode="&#x155;" horiz-adv-x="711" 
d="M667 851c0 -52.667 -31.333 -79 -94 -79c-8.66699 0 -21.167 0.5 -37.5 1.5s-28.833 1.5 -37.5 1.5c-162 0 -243 -40.333 -243 -121v-583c0 -38.667 -14.667 -63 -44 -73c-12 -4 -42.667 -6 -92 -6c-50 0 -75 26.667 -75 80v582c0 125.333 64.333 210.333 193 255
c78.667 28 195.667 42 351 42c52.667 0 79 -33.333 79 -100zM560 1302c0 -14 -48.668 -69.667 -146.001 -167l-102 -101.5c-24 -23.667 -38.667 -37.167 -44 -40.5c-15.333 -10 -30.666 -15 -45.999 -15c-44.667 0 -67 18.667 -67 56c0 13.333 6 26 18 38l279 276
c8.66699 8.66699 20 13 34 13c18 0 34.833 -5.66699 50.5 -17s23.5 -25.333 23.5 -42z" />
    <glyph glyph-name="Rcaron" unicode="&#x158;" horiz-adv-x="1632" 
d="M1568 755c0 -110 -58 -190.333 -174 -241c-92 -37.333 -198 -56 -318 -56h-366l742 -315c39.333 -17.333 59 -43 59 -77c0 -50 -43.667 -75 -131 -75c-34.667 0 -62 2.66699 -82 8l-1013 433v-361c0 -52.667 -26 -79 -78 -79c-55.333 0 -87.333 2.33301 -96 7
c-32 10 -48 34 -48 72v1061c0 52 26 78 78 78h894c138.667 0 252.667 -18 342 -54c127.333 -51.333 191 -136 191 -254v-147zM1346 753v154c0 81.333 -104 122 -312 122h-749v-390h789c181.333 0 272 38 272 114zM467 1555c0 38.667 23 57.999 69 57.999
c23.333 0 46.333 -10.333 69 -31l24 -23.5l33 -32.5l53 -50l101 -94c46.667 48 88.667 89.333 126 124s70 63.667 98 87c14.667 12 31.667 18 51 18c48.667 0 73 -19.333 73 -58c0 -11.333 -5.33301 -22.333 -16 -33l-266 -267c-19.333 -19.333 -41.333 -29 -66 -29
s-46.667 9.66699 -66 29l-267 267c-10.667 10.667 -16 22.334 -16 35.001z" />
    <glyph glyph-name="rcaron" unicode="&#x159;" horiz-adv-x="711" 
d="M667 851c0 -52.667 -31.333 -79 -94 -79c-8.66699 0 -21.167 0.5 -37.5 1.5s-28.833 1.5 -37.5 1.5c-162 0 -243 -40.333 -243 -121v-583c0 -38.667 -14.667 -63 -44 -73c-12 -4 -42.667 -6 -92 -6c-50 0 -75 26.667 -75 80v582c0 125.333 64.333 210.333 193 255
c78.667 28 195.667 42 351 42c52.667 0 79 -33.333 79 -100zM9 1300c0 38.667 23 57.999 69 57.999c23.333 0 46.333 -10.333 69 -31l24 -23.5l33 -32.5l53 -50l101 -94c46.667 48 88.667 89.333 126 124s70 63.667 98 87c14.667 12 31.667 18 51 18
c48.667 0 73 -19.333 73 -58c0 -11.333 -5.33301 -22.333 -16 -33l-266 -267c-19.333 -19.333 -41.333 -29 -66 -29s-46.667 9.66699 -66 29l-267 267c-10.667 10.667 -16 22.334 -16 35.001z" />
    <glyph glyph-name="Sacute" unicode="&#x15a;" horiz-adv-x="1462" 
d="M1422 294c0 -65.333 -10.333 -116.334 -31 -153.001c-55.333 -99.333 -222.666 -149 -501.999 -149h-769c-51.333 0 -77 26.333 -77 79c0 36 4 61 12 75c11.333 19.333 33 29 65 29h769c207.333 0 311 38.333 311 115v105c0 74.667 -100.333 115.334 -301 122.001
l-369 12c-17.333 0.666992 -41.833 1.83398 -73.5 3.50098s-70.5 4.16699 -116.5 7.5c-80 9.33301 -148.667 35.666 -206 78.999c-62.667 48 -94 111 -94 189v92c0 142 78.667 235.667 236 281c75.333 19.333 213.333 29 414 29c52 0 78 -34 78 -102
c0 -39.333 -15.667 -64 -47 -74c-4.66699 -2.66699 -36.334 -4 -95.001 -4c-242.667 0 -364 -42.667 -364 -128v-85c0 -52.667 45.333 -87 136 -103c17.333 -3.33301 42.5 -5.83301 75.5 -7.5s73.5 -2.5 121.5 -2.5h297c142 0 254 -18.333 336 -55
c129.333 -53.333 194 -135.333 194 -246v-109zM776 1557c0 -14 -48.668 -69.667 -146.001 -167l-102 -101.5c-24 -23.667 -38.667 -37.167 -44 -40.5c-15.333 -10 -30.666 -15 -45.999 -15c-44.667 0 -67 18.667 -67 56c0 13.333 6 26 18 38l279 276
c8.66699 8.66699 20 13 34 13c18 0 34.833 -5.66699 50.5 -17s23.5 -25.333 23.5 -42z" />
    <glyph glyph-name="sacute" unicode="&#x15b;" horiz-adv-x="1300" 
d="M1258 266c0 -182.667 -139.333 -274.001 -418 -274.001h-714c-52 0 -78 26.333 -78 79c0 65.333 26 98 78 98h715c132 0 198 32.333 198 97v36c0 58 -60 87 -180 87h-343c-315.333 0 -473 88 -473 264v52c0 116.667 79.333 191.334 238 224.001
c32 7.33301 78.833 12.833 140.5 16.5s139.167 5.5 232.5 5.5c52.667 0 79 -33.333 79 -100c0 -52 -26.333 -78 -79 -78h-152c-79.333 0 -127 -1 -143 -3c-70 -9.33301 -105 -31 -105 -65v-50c0 -57.333 87.667 -86 263 -86h350c260.667 0 391 -86.333 391 -259v-44z
M716 1268c0 -14 -48.668 -69.667 -146.001 -167l-102 -101.5c-24 -23.667 -38.667 -37.167 -44 -40.5c-15.333 -10 -30.666 -15 -45.999 -15c-44.667 0 -67 18.667 -67 56c0 13.333 6 26 18 38l279 276c8.66699 8.66699 20 13 34 13c18 0 34.833 -5.66699 50.5 -17
s23.5 -25.333 23.5 -42z" />
    <glyph glyph-name="Scedilla" unicode="&#x15e;" horiz-adv-x="1462" 
d="M1422 294c0 -65.333 -10.333 -116.334 -31 -153.001c-55.333 -99.333 -222.666 -149 -501.999 -149h-769c-51.333 0 -77 26.333 -77 79c0 36 4 61 12 75c11.333 19.333 33 29 65 29h769c207.333 0 311 38.333 311 115v105c0 74.667 -100.333 115.334 -301 122.001
l-369 12c-17.333 0.666992 -41.833 1.83398 -73.5 3.50098s-70.5 4.16699 -116.5 7.5c-80 9.33301 -148.667 35.666 -206 78.999c-62.667 48 -94 111 -94 189v92c0 142 78.667 235.667 236 281c75.333 19.333 213.333 29 414 29c52 0 78 -34 78 -102
c0 -39.333 -15.667 -64 -47 -74c-4.66699 -2.66699 -36.334 -4 -95.001 -4c-242.667 0 -364 -42.667 -364 -128v-85c0 -52.667 45.333 -87 136 -103c17.333 -3.33301 42.5 -5.83301 75.5 -7.5s73.5 -2.5 121.5 -2.5h297c142 0 254 -18.333 336 -55
c129.333 -53.333 194 -135.333 194 -246v-109zM955 -107.001c0 -162.667 -63.667 -244.001 -191 -244.001h-180c-52 0 -78 30.667 -78 92c0 59.333 26 89 78 89h100c31.333 0 51 16.333 59 49c1.33301 15.333 2.5 30.333 3.5 45s2.16699 29.334 3.5 44.001
c12 32 46.333 48 103 48c68 0 102 -26 102 -78v-45z" />
    <glyph glyph-name="scedilla" unicode="&#x15f;" horiz-adv-x="1300" 
d="M1258 266c0 -182.667 -139.333 -274.001 -418 -274.001h-714c-52 0 -78 26.333 -78 79c0 65.333 26 98 78 98h715c132 0 198 32.333 198 97v36c0 58 -60 87 -180 87h-343c-315.333 0 -473 88 -473 264v52c0 116.667 79.333 191.334 238 224.001
c32 7.33301 78.833 12.833 140.5 16.5s139.167 5.5 232.5 5.5c52.667 0 79 -33.333 79 -100c0 -52 -26.333 -78 -79 -78h-152c-79.333 0 -127 -1 -143 -3c-70 -9.33301 -105 -31 -105 -65v-50c0 -57.333 87.667 -86 263 -86h350c260.667 0 391 -86.333 391 -259v-44z
M874 -107.001c0 -162.667 -63.667 -244.001 -191 -244.001h-180c-52 0 -78 30.667 -78 92c0 59.333 26 89 78 89h100c31.333 0 51 16.333 59 49c1.33301 15.333 2.5 30.333 3.5 45s2.16699 29.334 3.5 44.001c12 32 46.333 48 103 48c68 0 102 -26 102 -78v-45z" />
    <glyph glyph-name="Scaron" unicode="&#x160;" horiz-adv-x="1462" 
d="M1422 294c0 -65.333 -10.333 -116.334 -31 -153.001c-55.333 -99.333 -222.666 -149 -501.999 -149h-769c-51.333 0 -77 26.333 -77 79c0 36 4 61 12 75c11.333 19.333 33 29 65 29h769c207.333 0 311 38.333 311 115v105c0 74.667 -100.333 115.334 -301 122.001
l-369 12c-17.333 0.666992 -41.833 1.83398 -73.5 3.50098s-70.5 4.16699 -116.5 7.5c-80 9.33301 -148.667 35.666 -206 78.999c-62.667 48 -94 111 -94 189v92c0 142 78.667 235.667 236 281c75.333 19.333 213.333 29 414 29c52 0 78 -34 78 -102
c0 -39.333 -15.667 -64 -47 -74c-4.66699 -2.66699 -36.334 -4 -95.001 -4c-242.667 0 -364 -42.667 -364 -128v-85c0 -52.667 45.333 -87 136 -103c17.333 -3.33301 42.5 -5.83301 75.5 -7.5s73.5 -2.5 121.5 -2.5h297c142 0 254 -18.333 336 -55
c129.333 -53.333 194 -135.333 194 -246v-109zM382 1555c0 38.667 23 57.999 69 57.999c23.333 0 46.333 -10.333 69 -31l24 -23.5l33 -32.5l53 -50l101 -94c46.667 48 88.667 89.333 126 124s70 63.667 98 87c14.667 12 31.667 18 51 18c48.667 0 73 -19.333 73 -58
c0 -11.333 -5.33301 -22.333 -16 -33l-266 -267c-19.333 -19.333 -41.333 -29 -66 -29s-46.667 9.66699 -66 29l-267 267c-10.667 10.667 -16 22.334 -16 35.001z" />
    <glyph glyph-name="scaron" unicode="&#x161;" horiz-adv-x="1300" 
d="M1258 266c0 -182.667 -139.333 -274.001 -418 -274.001h-714c-52 0 -78 26.333 -78 79c0 65.333 26 98 78 98h715c132 0 198 32.333 198 97v36c0 58 -60 87 -180 87h-343c-315.333 0 -473 88 -473 264v52c0 116.667 79.333 191.334 238 224.001
c32 7.33301 78.833 12.833 140.5 16.5s139.167 5.5 232.5 5.5c52.667 0 79 -33.333 79 -100c0 -52 -26.333 -78 -79 -78h-152c-79.333 0 -127 -1 -143 -3c-70 -9.33301 -105 -31 -105 -65v-50c0 -57.333 87.667 -86 263 -86h350c260.667 0 391 -86.333 391 -259v-44z
M301 1300c0 38.667 23 57.999 69 57.999c23.333 0 46.333 -10.333 69 -31l24 -23.5l33 -32.5l53 -50l101 -94c46.667 48 88.667 89.333 126 124s70 63.667 98 87c14.667 12 31.667 18 51 18c48.667 0 73 -19.333 73 -58c0 -11.333 -5.33301 -22.333 -16 -33l-266 -267
c-19.333 -19.333 -41.333 -29 -66 -29s-46.667 9.66699 -66 29l-267 267c-10.667 10.667 -16 22.334 -16 35.001z" />
    <glyph glyph-name="uni0162" unicode="&#x162;" horiz-adv-x="1390" 
d="M1375 1108c0 -52.667 -26 -78.999 -78 -78.999h-493v-958c0 -52.667 -25.667 -79 -77 -79c-52 0 -84.333 2 -97 6c-31.333 9.33301 -47 33.666 -47 72.999v958h-489c-52.667 0 -79 26.333 -79 79c0 36 4 60.667 12 74c10.667 18.667 33 28 67 28h1203
c52 0 78 -34 78 -102zM805 -106.999c0 -162.667 -63.667 -244.001 -191 -244.001h-180c-52 0 -78 30.667 -78 92c0 59.333 26 89 78 89h100c31.333 0 51 16.333 59 49c1.33301 15.333 2.5 30.333 3.5 45s2.16699 29.334 3.5 44.001c12 32 46.333 48 103 48
c68 0 102 -26 102 -78v-45z" />
    <glyph glyph-name="uni0163" unicode="&#x163;" horiz-adv-x="825" 
d="M803 845c0 -52 -26.333 -78 -79 -78h-334v-696c0 -52.667 -26 -79 -78 -79c-51.333 0 -81.333 2.33301 -90 7c-28.667 10.667 -43 34.667 -43 72v696c-28 0 -50.833 0.5 -68.5 1.5s-30.167 2.16699 -37.5 3.5c-33.333 11.333 -50 39 -50 83s16.667 71.667 50 83
c7.33301 1.33301 19.833 2.5 37.5 3.5s40.5 1.5 68.5 1.5v189c0 52 26 78 78 78c51.333 0 81.333 -2.33301 90 -7c28.667 -10 43 -33.667 43 -71v-189h334c52.667 0 79 -32.667 79 -98zM394 -107c0 -162.667 -63.667 -244.001 -191 -244.001h-180c-52 0 -78 30.667 -78 92
c0 59.333 26 89 78 89h100c31.333 0 51 16.333 59 49c1.33301 15.333 2.5 30.333 3.5 45s2.16699 29.334 3.5 44.001c12 32 46.333 48 103 48c68 0 102 -26 102 -78v-45z" />
    <glyph glyph-name="Tcaron" unicode="&#x164;" horiz-adv-x="1390" 
d="M1375 1108c0 -52.667 -26 -78.999 -78 -78.999h-493v-958c0 -52.667 -25.667 -79 -77 -79c-52 0 -84.333 2 -97 6c-31.333 9.33301 -47 33.666 -47 72.999v958h-489c-52.667 0 -79 26.333 -79 79c0 36 4 60.667 12 74c10.667 18.667 33 28 67 28h1203
c52 0 78 -34 78 -102zM346 1555c0 38.667 23 57.999 69 57.999c23.333 0 46.333 -10.333 69 -31l24 -23.5l33 -32.5l53 -50l101 -94c46.667 48 88.667 89.333 126 124s70 63.667 98 87c14.667 12 31.667 18 51 18c48.667 0 73 -19.333 73 -58
c0 -11.333 -5.33301 -22.333 -16 -33l-266 -267c-19.333 -19.333 -41.333 -29 -66 -29s-46.667 9.66699 -66 29l-267 267c-10.667 10.667 -16 22.334 -16 35.001z" />
    <glyph glyph-name="tcaron" unicode="&#x165;" horiz-adv-x="825" 
d="M803 845c0 -52 -26.333 -78 -79 -78h-334v-696c0 -52.667 -26 -79 -78 -79c-51.333 0 -81.333 2.33301 -90 7c-28.667 10.667 -43 34.667 -43 72v696c-28 0 -50.833 0.5 -68.5 1.5s-30.167 2.16699 -37.5 3.5c-33.333 11.333 -50 39 -50 83s16.667 71.667 50 83
c7.33301 1.33301 19.833 2.5 37.5 3.5s40.5 1.5 68.5 1.5v189c0 52 26 78 78 78c51.333 0 81.333 -2.33301 90 -7c28.667 -10 43 -33.667 43 -71v-189h334c52.667 0 79 -32.667 79 -98zM764 1351c0 -3.33301 -0.167969 -6.99805 -0.500977 -10.998s-0.833008 -8 -1.5 -12
l-48 -290c-4.66699 -32.667 -22.667 -53 -54 -61c-7.33301 -1.33301 -18.333 -2.5 -33 -3.5s-33 -1.5 -55 -1.5c-52.667 0 -79 23 -79 69c0 3.33301 0.166992 6.66602 0.5 9.99902s0.833008 7.33301 1.5 12l46 291c4.66699 31.333 22.667 51.666 54 60.999
c6.66699 1.33301 17.334 2.5 32.001 3.5s33.667 1.5 57 1.5c53.333 0 80 -23 80 -69z" />
    <glyph glyph-name="Uring" unicode="&#x16e;" horiz-adv-x="1663" 
d="M1583 335c0 -231.333 -221.668 -347.002 -665.001 -347.002c-13.333 0 -30.166 0.166992 -50.499 0.5s-43.833 0.833008 -70.5 1.5s-50 1.16699 -70 1.5s-36.667 0.5 -50 0.5c-312 0 -499.667 58.667 -563 176c-22 40.667 -33 96.334 -33 167.001v797c0 52 26 78 78 78
c50 0 82 -2 96 -6c32.667 -10 49 -34 49 -72v-782c0 -77.333 47 -129 141 -155c28 -6.66699 61.167 -11.667 99.5 -15s83.5 -5 135.5 -5h306c116.667 0 195 6.33301 235 19c94 24.667 141 76.334 141 155.001v783c0 38.667 15.667 62.667 47 72c12.667 4 44.667 6 96 6
c52 0 78 -26 78 -78v-797zM1023 1466c0 -52.667 -19 -95.333 -57 -128c-36.667 -32.667 -81.667 -49 -135 -49c-52 0 -96.333 16.333 -133 49c-38.667 34 -58 76.667 -58 128c0 52 19 94.667 57 128c36 32 80.667 48 134 48c52 0 96.667 -16 134 -48
c38.667 -34 58 -76.667 58 -128zM952.999 1466c0 32.667 -12 59.667 -36 81c-25.333 21.333 -54 32 -86 32s-60.667 -10.667 -86 -32c-24 -21.333 -36 -48.333 -36 -81c0 -33.333 12 -60.333 36 -81c25.333 -21.333 54 -32 86 -32s60.667 10.667 86 32
c24 20.667 36 47.667 36 81z" />
    <glyph glyph-name="uring" unicode="&#x16f;" horiz-adv-x="1494" 
d="M1417 278c0 -192.667 -204 -289 -612 -289c-11.333 0 -26 0.166992 -44 0.5s-39 0.833008 -63 1.5c-0.666992 0.666992 -3.33398 1 -8.00098 1h-9h-16h-29h-45c-342.667 0 -514 95.333 -514 286v594c0 52.667 26 79 78 79s82.333 -2.33301 91 -7c28 -10 42 -34 42 -72
v-594c0 -72.667 101 -109 303 -109h315c198 0 297 35.333 297 106v597c0 38 14.333 62 43 72c8.66699 4.66699 39.334 7 92.001 7s79 -26.333 79 -79v-594zM938 1211c0 -52.667 -19 -95.333 -57 -128c-36.667 -32.667 -81.667 -49 -135 -49c-52 0 -96.333 16.333 -133 49
c-38.667 34 -58 76.667 -58 128c0 52 19 94.667 57 128c36 32 80.667 48 134 48c52 0 96.667 -16 134 -48c38.667 -34 58 -76.667 58 -128zM868 1211c0 32.667 -12 59.667 -36 81c-25.333 21.333 -54 32 -86 32s-60.667 -10.667 -86 -32c-24 -21.333 -36 -48.333 -36 -81
c0 -33.333 12 -60.333 36 -81c25.333 -21.333 54 -32 86 -32s60.667 10.667 86 32c24 20.667 36 47.667 36 81z" />
    <glyph glyph-name="Uhungarumlaut" unicode="&#x170;" horiz-adv-x="1663" 
d="M1583 335c0 -231.333 -221.668 -347.002 -665.001 -347.002c-13.333 0 -30.166 0.166992 -50.499 0.5s-43.833 0.833008 -70.5 1.5s-50 1.16699 -70 1.5s-36.667 0.5 -50 0.5c-312 0 -499.667 58.667 -563 176c-22 40.667 -33 96.334 -33 167.001v797c0 52 26 78 78 78
c50 0 82 -2 96 -6c32.667 -10 49 -34 49 -72v-782c0 -77.333 47 -129 141 -155c28 -6.66699 61.167 -11.667 99.5 -15s83.5 -5 135.5 -5h306c116.667 0 195 6.33301 235 19c94 24.667 141 76.334 141 155.001v783c0 38.667 15.667 62.667 47 72c12.667 4 44.667 6 96 6
c52 0 78 -26 78 -78v-797zM595.999 1323c-12 -13.333 -26.667 -19.999 -44 -19.999c-36.667 0 -55 19 -55 57c0 16 5.66699 29.667 17 41l255 272c13.333 13.333 29 20 47 20c38 0 57 -18.333 57 -55c0 -16.667 -5.33301 -31.334 -16 -44.001zM887.999 1321
c-10 -12 -24 -17.999 -42 -17.999c-38 0 -57 19 -57 57c0 16 5.66699 29.667 17 41l256 272c15.333 13.333 31.333 20 48 20c37.333 0 56 -18.333 56 -55c0 -16.667 -5.33301 -31.334 -16 -44.001z" />
    <glyph glyph-name="uhungarumlaut" unicode="&#x171;" horiz-adv-x="1494" 
d="M1417 278c0 -192.667 -204 -289 -612 -289c-11.333 0 -26 0.166992 -44 0.5s-39 0.833008 -63 1.5c-0.666992 0.666992 -3.33398 1 -8.00098 1h-9h-16h-29h-45c-342.667 0 -514 95.333 -514 286v594c0 52.667 26 79 78 79s82.333 -2.33301 91 -7c28 -10 42 -34 42 -72
v-594c0 -72.667 101 -109 303 -109h315c198 0 297 35.333 297 106v597c0 38 14.333 62 43 72c8.66699 4.66699 39.334 7 92.001 7s79 -26.333 79 -79v-594zM511 1068c-12 -13.333 -26.667 -19.999 -44 -19.999c-36.667 0 -55 19 -55 57c0 16 5.66699 29.667 17 41l255 272
c13.333 13.333 29 20 47 20c38 0 57 -18.333 57 -55c0 -16.667 -5.33301 -31.334 -16 -44.001zM803 1066c-10 -12 -24 -17.999 -42 -17.999c-38 0 -57 19 -57 57c0 16 5.66699 29.667 17 41l256 272c15.333 13.333 31.333 20 48 20c37.333 0 56 -18.333 56 -55
c0 -16.667 -5.33301 -31.334 -16 -44.001z" />
    <glyph glyph-name="Ydieresis" unicode="&#x178;" horiz-adv-x="1542" 
d="M1503 1145c0 -23.333 -11.999 -46.333 -35.999 -69l-599 -575l-2 -430c-1.33301 -39.333 -17 -63.333 -47 -72c-8.66699 -4.66699 -40.334 -7 -95.001 -7c-52.667 0 -79 26 -79 78v431l-601 575c-22.667 22 -34 44.667 -34 68c0 44 29.667 66 89 66
c67.333 0 108.333 -7.33301 123 -22l533 -511l535 511c14.667 14.667 55.667 22 123 22c60 0 90 -21.667 90 -65zM1059 1560c0 -14 -3.00098 -26.5 -9.00098 -37.5s-13.833 -20.333 -23.5 -28s-21 -13.667 -34 -18s-26.5 -6.5 -40.5 -6.5
c-27.333 0 -51.666 7.66699 -72.999 23c-22.667 16.667 -34 39 -34 67s11.333 50.333 34 67c20.667 16 45 24 73 24c14 0 27.5 -2.16699 40.5 -6.5s24.333 -10.5 34 -18.5s17.5 -17.5 23.5 -28.5s9 -23.5 9 -37.5zM711 1560c0 -26.667 -11 -48.333 -33 -65
c-20.667 -16.667 -45 -25 -73 -25s-52.667 7.66699 -74 23c-22.667 16.667 -34 39 -34 67s11.333 50.333 34 67c20.667 16 45 24 73 24c14 0 27.5 -2.16699 40.5 -6.5s24.333 -10.5 34 -18.5s17.5 -17.5 23.5 -28.5s9 -23.5 9 -37.5z" />
    <glyph glyph-name="Zacute" unicode="&#x179;" 
d="M1412 84c0 -61.333 -27.001 -92 -81.001 -92h-1113c-48 0 -88.333 9 -121 27c-41.333 22 -62 54.667 -62 98c0 28 11.667 52 35 72l1131 961c32.667 28.667 67.667 43 105 43c14 0 27.167 -2.16699 39.5 -6.5s23.333 -10.5 33 -18.5s17.334 -17.5 23.001 -28.5
s8.5 -23.167 8.5 -36.5c0 -31.333 -15 -59.333 -45 -84l-998 -844h964c54 0 81 -30.333 81 -91zM924.999 1557c0 -14 -48.668 -69.667 -146.001 -167l-102 -101.5c-24 -23.667 -38.667 -37.167 -44 -40.5c-15.333 -10 -30.666 -15 -45.999 -15c-44.667 0 -67 18.667 -67 56
c0 13.333 6 26 18 38l279 276c8.66699 8.66699 20 13 34 13c18 0 34.833 -5.66699 50.5 -17s23.5 -25.333 23.5 -42z" />
    <glyph glyph-name="zacute" unicode="&#x17a;" horiz-adv-x="1415" 
d="M1376 81c0 -59.333 -27.334 -89 -82.001 -89h-1109c-35.333 0 -67.666 9.66699 -96.999 29c-32 22.667 -48 51 -48 85s18.667 63 56 87l1083 700c27.333 17.333 53.333 26 78 26c28 0 50.833 -9.16699 68.5 -27.5s26.5 -41.5 26.5 -69.5c0 -25.333 -9.33301 -44 -28 -56
l-911 -594l881 -3c54.667 0 82 -29.333 82 -88zM909.999 1302c0 -14 -48.668 -69.667 -146.001 -167l-102 -101.5c-24 -23.667 -38.667 -37.167 -44 -40.5c-15.333 -10 -30.666 -15 -45.999 -15c-44.667 0 -67 18.667 -67 56c0 13.333 6 26 18 38l279 276
c8.66699 8.66699 20 13 34 13c18 0 34.833 -5.66699 50.5 -17s23.5 -25.333 23.5 -42z" />
    <glyph glyph-name="Zdotaccent" unicode="&#x17b;" 
d="M1412 84c0 -61.333 -27.001 -92 -81.001 -92h-1113c-48 0 -88.333 9 -121 27c-41.333 22 -62 54.667 -62 98c0 28 11.667 52 35 72l1131 961c32.667 28.667 67.667 43 105 43c14 0 27.167 -2.16699 39.5 -6.5s23.333 -10.5 33 -18.5s17.334 -17.5 23.001 -28.5
s8.5 -23.167 8.5 -36.5c0 -31.333 -15 -59.333 -45 -84l-998 -844h964c54 0 81 -30.333 81 -91zM829.999 1474c0 -26.667 -11 -48.333 -33 -65c-20.667 -16.667 -45 -25 -73 -25s-52.667 7.66699 -74 23c-22.667 16.667 -34 39 -34 67s11.333 50.333 34 67
c20.667 16 45 24 73 24c14 0 27.5 -2.16699 40.5 -6.5s24.333 -10.5 34 -18.5s17.5 -17.5 23.5 -28.5s9 -23.5 9 -37.5z" />
    <glyph glyph-name="zdotaccent" unicode="&#x17c;" horiz-adv-x="1415" 
d="M1376 81c0 -59.333 -27.334 -89 -82.001 -89h-1109c-35.333 0 -67.666 9.66699 -96.999 29c-32 22.667 -48 51 -48 85s18.667 63 56 87l1083 700c27.333 17.333 53.333 26 78 26c28 0 50.833 -9.16699 68.5 -27.5s26.5 -41.5 26.5 -69.5c0 -25.333 -9.33301 -44 -28 -56
l-911 -594l881 -3c54.667 0 82 -29.333 82 -88zM813.999 1219c0 -26.667 -11 -48.333 -33 -65c-20.667 -16.667 -45 -25 -73 -25s-52.667 7.66699 -74 23c-22.667 16.667 -34 39 -34 67s11.333 50.333 34 67c20.667 16 45 24 73 24c14 0 27.5 -2.16699 40.5 -6.5
s24.333 -10.5 34 -18.5s17.5 -17.5 23.5 -28.5s9 -23.5 9 -37.5z" />
    <glyph glyph-name="Zcaron" unicode="&#x17d;" 
d="M1412 84c0 -61.333 -27.001 -92 -81.001 -92h-1113c-48 0 -88.333 9 -121 27c-41.333 22 -62 54.667 -62 98c0 28 11.667 52 35 72l1131 961c32.667 28.667 67.667 43 105 43c14 0 27.167 -2.16699 39.5 -6.5s23.333 -10.5 33 -18.5s17.334 -17.5 23.001 -28.5
s8.5 -23.167 8.5 -36.5c0 -31.333 -15 -59.333 -45 -84l-998 -844h964c54 0 81 -30.333 81 -91zM613.999 1555c0 38.667 23 57.999 69 57.999c23.333 0 46.333 -10.333 69 -31l24 -23.5l33 -32.5l53 -50l101 -94c46.667 48 88.667 89.333 126 124s70 63.667 98 87
c14.667 12 31.667 18 51 18c48.667 0 73 -19.333 73 -58c0 -11.333 -5.33301 -22.333 -16 -33l-266 -267c-19.333 -19.333 -41.333 -29 -66 -29s-46.667 9.66699 -66 29l-267 267c-10.667 10.667 -16 22.334 -16 35.001z" />
    <glyph glyph-name="zcaron" unicode="&#x17e;" horiz-adv-x="1415" 
d="M1376 81c0 -59.333 -27.334 -89 -82.001 -89h-1109c-35.333 0 -67.666 9.66699 -96.999 29c-32 22.667 -48 51 -48 85s18.667 63 56 87l1083 700c27.333 17.333 53.333 26 78 26c28 0 50.833 -9.16699 68.5 -27.5s26.5 -41.5 26.5 -69.5c0 -25.333 -9.33301 -44 -28 -56
l-911 -594l881 -3c54.667 0 82 -29.333 82 -88zM560.999 1300c0 38.667 23 57.999 69 57.999c23.333 0 46.333 -10.333 69 -31l24 -23.5l33 -32.5l53 -50l101 -94c46.667 48 88.667 89.333 126 124s70 63.667 98 87c14.667 12 31.667 18 51 18c48.667 0 73 -19.333 73 -58
c0 -11.333 -5.33301 -22.333 -16 -33l-266 -267c-19.333 -19.333 -41.333 -29 -66 -29s-46.667 9.66699 -66 29l-267 267c-10.667 10.667 -16 22.334 -16 35.001z" />
    <glyph glyph-name="circumflex" unicode="&#x2c6;" horiz-adv-x="1188" 
d="M932 1028c0 -38.667 -23 -57.999 -69 -57.999c-23.333 0 -46.333 10.333 -69 31l-24 23.5l-33 32.5l-53 50l-101 94c-46.667 -48 -88.667 -89.333 -126 -124s-70 -63.667 -98 -87c-15.333 -12 -32.333 -18 -51 -18c-48.667 0 -73 19.333 -73 58
c0 11.333 5.33301 22.333 16 33l266 267c19.333 19.333 41.333 29 66 29s46.667 -9.66699 66 -29l267 -267c10.667 -10.667 16 -22.334 16 -35.001z" />
    <glyph glyph-name="caron" unicode="&#x2c7;" horiz-adv-x="1188" 
d="M234 1300c0 38.667 23 57.999 69 57.999c23.333 0 46.333 -10.333 69 -31l24 -23.5l33 -32.5l53 -50l101 -94c46.667 48 88.667 89.333 126 124s70 63.667 98 87c14.667 12 31.667 18 51 18c48.667 0 73 -19.333 73 -58c0 -11.333 -5.33301 -22.333 -16 -33l-266 -267
c-19.333 -19.333 -41.333 -29 -66 -29s-46.667 9.66699 -66 29l-267 267c-10.667 10.667 -16 22.334 -16 35.001z" />
    <glyph glyph-name="breve" unicode="&#x2d8;" horiz-adv-x="851" 
d="M93 1308c-10.667 10.667 -15.999 22.666 -15.999 35.999c0 15.333 7 29.666 21 42.999c14.667 14 29.334 21 44.001 21c18 0 31 -6.66699 39 -20c82.667 -112.667 155.667 -169 219 -169c34 0 67.833 13.833 101.5 41.5s70.834 69.834 111.501 126.501
c4.66699 8 11 13.5 19 16.5s15.333 4.5 22 4.5c8 0 15.833 -1.83301 23.5 -5.5s14.5 -8.66699 20.5 -15s10.833 -13.333 14.5 -21s5.5 -15.5 5.5 -23.5s-1 -14.5 -3 -19.5s-4.33301 -9.5 -7 -13.5c-57.333 -69.333 -110.333 -122 -159 -158s-98.334 -54 -149.001 -54
c-48.667 0 -97.834 16.833 -147.501 50.5s-102.834 86.834 -159.501 159.501z" />
    <glyph glyph-name="dotaccent" unicode="&#x2d9;" horiz-adv-x="630" 
d="M560 1219c0 -26.667 -11 -48.333 -33 -65c-20.667 -16.667 -45 -25 -73 -25s-52.667 7.66699 -74 23c-22.667 16.667 -34 39 -34 67s11.333 50.333 34 67c20.667 16 45 24 73 24c14 0 27.5 -2.16699 40.5 -6.5s24.333 -10.5 34 -18.5s17.5 -17.5 23.5 -28.5
s9 -23.5 9 -37.5z" />
    <glyph glyph-name="ring" unicode="&#x2da;" horiz-adv-x="1155" 
d="M808 1211c0 -52.667 -19 -95.333 -57 -128c-36.667 -32.667 -81.667 -49 -135 -49c-52 0 -96.333 16.333 -133 49c-38.667 34 -58 76.667 -58 128c0 52 19 94.667 57 128c36 32 80.667 48 134 48c52 0 96.667 -16 134 -48c38.667 -34 58 -76.667 58 -128zM738 1211
c0 32.667 -12 59.667 -36 81c-25.333 21.333 -54 32 -86 32s-60.667 -10.667 -86 -32c-24 -21.333 -36 -48.333 -36 -81c0 -33.333 12 -60.333 36 -81c25.333 -21.333 54 -32 86 -32s60.667 10.667 86 32c24 20.667 36 47.667 36 81z" />
    <glyph glyph-name="ogonek" unicode="&#x2db;" horiz-adv-x="397" 
d="M77 -62c0 52 34 78.001 102 78.001c56.667 0 91 -16 103 -48c1.33301 -14.667 2.5 -29.334 3.5 -44.001s2.16699 -29.667 3.5 -45c8 -32.667 27.667 -49 59 -49h100c52 0 78 -29.667 78 -89c0 -61.333 -26 -92 -78 -92h-180c-127.333 0 -191 81.333 -191 244v45z" />
    <glyph glyph-name="tilde" unicode="&#x2dc;" horiz-adv-x="1138" 
d="M1015 1165c0 -32 -6 -52 -18 -60c-9.33301 -5.33301 -29.666 -8 -60.999 -8h-656c-38.667 0 -61.334 4 -68.001 12c-7.33301 9.33301 -11 32.333 -11 69c0 45.333 26.333 68 79 68h656c36.667 0 59 -4.33301 67 -13c8 -9.33301 12 -32 12 -68z" />
    <glyph glyph-name="hungarumlaut" unicode="&#x2dd;" horiz-adv-x="833" 
d="M158 1068c-12 -13.333 -26.667 -19.999 -44 -19.999c-36.667 0 -55 19 -55 57c0 16 5.66699 29.667 17 41l255 272c13.333 13.333 29 20 47 20c38 0 57 -18.333 57 -55c0 -16.667 -5.33301 -31.334 -16 -44.001zM450 1066c-10 -12 -24 -17.999 -42 -17.999
c-38 0 -57 19 -57 57c0 16 5.66699 29.667 17 41l256 272c15.333 13.333 31.333 20 48 20c37.333 0 56 -18.333 56 -55c0 -16.667 -5.33301 -31.334 -16 -44.001z" />
    <glyph glyph-name="endash" unicode="&#x2013;" horiz-adv-x="1310" 
d="M226 438c-45.333 0 -68 21 -68 63c0 44.667 22.667 67 68 67h811c41.333 0 62 -21.333 62 -64c0 -44 -20.667 -66 -62 -66h-811z" />
    <glyph glyph-name="emdash" unicode="&#x2014;" horiz-adv-x="1588" 
d="M227 438c-44.667 0 -67 21 -67 63c0 44.667 22.333 67 67 67h1088c41.333 0 62 -21.333 62 -64c0 -44 -20.667 -66 -62 -66h-1088z" />
    <glyph glyph-name="quoteleft" unicode="&#x2018;" horiz-adv-x="372" 
d="M319 1223c0 -46 -26.666 -69.001 -79.999 -69.001c-54.667 0 -84.334 1.33301 -89.001 4c-30.667 6.66699 -48.667 27.334 -54 62.001l-47 289c-0.666992 4 -1.16699 7.83301 -1.5 11.5s-0.5 7.16699 -0.5 10.5c0 46 26.667 69 80 69s82.333 -1.33301 87 -4
c31.333 -8 49.333 -28.333 54 -61l49 -290c0.666992 -4 1.16699 -7.83301 1.5 -11.5s0.5 -7.16699 0.5 -10.5z" />
    <glyph glyph-name="quoteright" unicode="&#x2019;" horiz-adv-x="343" 
d="M296 1537c0 -3.33301 -0.167969 -6.83398 -0.500977 -10.501s-0.833008 -7.5 -1.5 -11.5l-49 -290c-5.33301 -33.333 -23 -53.666 -53 -60.999c-4.66699 -2.66699 -34 -4 -88 -4c-53.333 0 -80 23 -80 69c0 3.33301 0.166992 6.83301 0.5 10.5s0.833008 7.5 1.5 11.5
l47 289c6 33.333 24 54 54 62c4.66699 2.66699 34.334 4 89.001 4c53.333 0 80 -23 80 -69z" />
    <glyph glyph-name="quotesinglbase" unicode="&#x201a;" horiz-adv-x="387" 
d="M329 223c0 -3.33301 -0.167969 -6.99805 -0.500977 -10.998s-0.833008 -8 -1.5 -12l-48 -290c-4.66699 -32.667 -22.667 -53 -54 -61c-7.33301 -1.33301 -18.333 -2.5 -33 -3.5s-33 -1.5 -55 -1.5c-52.667 0 -79 23 -79 69c0 3.33301 0.166992 6.66602 0.5 9.99902
s0.833008 7.33301 1.5 12l46 291c4.66699 31.333 22.667 51.666 54 60.999c6.66699 1.33301 17.334 2.5 32.001 3.5s33.667 1.5 57 1.5c53.333 0 80 -23 80 -69z" />
    <glyph glyph-name="quotedblleft" unicode="&#x201c;" horiz-adv-x="627" 
d="M301 1227c0 -46 -26.666 -69.001 -79.999 -69.001c-23.333 0 -42.333 0.5 -57 1.5s-25.334 2.16699 -32.001 3.5c-31.333 8 -49.333 28.333 -54 61l-47 289c-0.666992 4 -1.16699 7.83301 -1.5 11.5s-0.5 7.16699 -0.5 10.5c0 46 26.667 69 80 69
c54 0 83.333 -1.33301 88 -4c30 -7.33301 47.667 -27.666 53 -60.999l49 -290c0.666992 -4 1.16699 -7.83301 1.5 -11.5s0.5 -7.16699 0.5 -10.5zM583.001 1227c0 -46 -26.666 -69.001 -79.999 -69.001c-23.333 0 -42.333 0.5 -57 1.5s-25.334 2.16699 -32.001 3.5
c-31.333 8 -49.333 28.333 -54 61l-47 289c-0.666992 4 -1.16699 7.83301 -1.5 11.5s-0.5 7.16699 -0.5 10.5c0 46 26.667 69 80 69c54 0 83.333 -1.33301 88 -4c30 -7.33301 47.667 -27.666 53 -60.999l49 -290c0.666992 -4 1.16699 -7.83301 1.5 -11.5
s0.5 -7.16699 0.5 -10.5z" />
    <glyph glyph-name="quotedblright" unicode="&#x201d;" horiz-adv-x="633" 
d="M582 1531c0 -3.33301 -0.167969 -6.83398 -0.500977 -10.501s-0.833008 -7.5 -1.5 -11.5l-49 -290c-5.33301 -33.333 -23 -53.666 -53 -60.999c-4.66699 -2.66699 -34 -4 -88 -4c-53.333 0 -80 23 -80 69c0 3.33301 0.166992 6.83301 0.5 10.5s0.833008 7.5 1.5 11.5
l47 289c6 33.333 24 54 54 62c4.66699 2.66699 34.334 4 89.001 4c53.333 0 80 -23 80 -69zM299.999 1531c0 -3.33301 -0.167969 -6.83398 -0.500977 -10.501s-0.833008 -7.5 -1.5 -11.5l-49 -290c-5.33301 -33.333 -23 -53.666 -53 -60.999
c-4.66699 -2.66699 -34 -4 -88 -4c-53.333 0 -80 23 -80 69c0 3.33301 0.166992 6.83301 0.5 10.5s0.833008 7.5 1.5 11.5l47 289c6 33.333 24 54 54 62c4.66699 2.66699 34.334 4 89.001 4c53.333 0 80 -23 80 -69z" />
    <glyph glyph-name="quotedblbase" unicode="&#x201e;" horiz-adv-x="707" 
d="M629 223c0 -3.33301 -0.167969 -6.99805 -0.500977 -10.998s-0.833008 -8 -1.5 -12l-48 -290c-4.66699 -32.667 -22.667 -53 -54 -61c-7.33301 -1.33301 -18.333 -2.5 -33 -3.5s-33 -1.5 -55 -1.5c-52.667 0 -79 23 -79 69c0 3.33301 0.166992 6.66602 0.5 9.99902
s0.833008 7.33301 1.5 12l46 291c4.66699 31.333 22.667 51.666 54 60.999c6.66699 1.33301 17.334 2.5 32.001 3.5s33.667 1.5 57 1.5c53.333 0 80 -23 80 -69zM328.999 223.002c0 -3.33301 -0.167969 -6.99805 -0.500977 -10.998s-0.833008 -8 -1.5 -12l-48 -290
c-4.66699 -32.667 -22.667 -53 -54 -61c-7.33301 -1.33301 -18.333 -2.5 -33 -3.5s-33 -1.5 -55 -1.5c-52.667 0 -79 23 -79 69c0 3.33301 0.166992 6.66602 0.5 9.99902s0.833008 7.33301 1.5 12l46 291c4.66699 31.333 22.667 51.666 54 60.999
c6.66699 1.33301 17.334 2.5 32.001 3.5s33.667 1.5 57 1.5c53.333 0 80 -23 80 -69z" />
    <glyph glyph-name="dagger" unicode="&#x2020;" horiz-adv-x="731" 
d="M446 785l-24 -720c-2 -49.333 -29.667 -74 -83 -74c-54.667 0 -82 24.667 -82 74l-27 720h-158c-48.667 0 -73 23.333 -73 70c0 45.333 24.333 68 73 68h146v194c0 66.667 40.667 100 122 100c80 0 120 -33.333 120 -100v-194h152c45.333 0 68 -23 68 -69
s-22.667 -69 -68 -69h-166z" />
    <glyph glyph-name="daggerdbl" unicode="&#x2021;" horiz-adv-x="759" 
d="M249 372l24 209l-26 204h-162c-48 0 -72 23.333 -72 70c0 45.333 24 68 72 68h146v194c0 66.667 41 100 123 100c79.333 0 119 -33.333 119 -100v-194h152c46 0 69 -23 69 -69s-23 -69 -69 -69h-166l-25 -204l25 -209h162c48.667 0 73 -23.333 73 -70
c0 -46 -24.333 -69 -73 -69h-146v-193c0 -66.667 -41 -100 -123 -100c-79.333 0 -119 33.333 -119 100v193h-152c-45.333 0 -68 23.333 -68 70c0 46 22.667 69 68 69h168z" />
    <glyph glyph-name="bullet" unicode="&#x2022;" 
d="M1163 290c0 -42.667 -34.001 -74.998 -102.001 -96.998c-49.333 -16 -101.666 -24 -156.999 -24h-343c-65.333 0 -122.333 7 -171 21c-73.333 21.333 -110 54.666 -110 99.999v353c0 47.333 36 82.666 108 105.999c50.667 16 108 24 172 24h343
c173.333 0 260 -38 260 -114v-369z" />
    <glyph glyph-name="ellipsis" unicode="&#x2026;" horiz-adv-x="1964" 
d="M1079 93c0 -61.333 -39 -92 -117 -92c-77.333 0 -116 30.667 -116 92c0 58.667 38.667 88 116 88c78 0 117 -29.333 117 -88zM1756 93c0 -61.333 -39 -92 -117 -92c-77.333 0 -116 30.667 -116 92c0 58.667 38.667 88 116 88c78 0 117 -29.333 117 -88zM390 93
c0 -61.333 -39 -92 -117 -92c-77.333 0 -116 30.667 -116 92c0 58.667 38.667 88 116 88c78 0 117 -29.333 117 -88z" />
    <glyph glyph-name="guilsinglleft" unicode="&#x2039;" horiz-adv-x="567" 
d="M426 871c16.667 12.667 32.6641 19 47.9971 19c10.667 0 20.834 -2.33301 30.501 -7s18.167 -11 25.5 -19s13 -17 17 -27s6 -20 6 -30c0 -24.667 -12 -46.334 -36 -65.001l-281 -211l281 -206c13.333 -9.33301 23 -20 29 -32s9 -24 9 -36c0 -10 -2.16699 -20 -6.5 -30
s-10.166 -19 -17.499 -27s-16 -14.333 -26 -19s-20.333 -7 -31 -7c-7.33301 0 -15.666 1.33301 -24.999 4s-17 7.33398 -23 14.001l-355 276c-23.333 18 -35 39.333 -35 64c0 27.333 11.667 49 35 65z" />
    <glyph glyph-name="guilsinglright" unicode="&#x203a;" horiz-adv-x="655" 
d="M174 193c-16.667 -12.667 -32.667 -18.999 -48 -18.999c-11.333 0 -21.666 2.33301 -30.999 7s-17.666 11 -24.999 19s-13 17 -17 27s-6 20 -6 30c0 24 12 45.667 36 65l281 211l-281 206c-13.333 9.33301 -23 20 -29 32s-9 24 -9 36c0 10 2.16699 20 6.5 30
s10.166 19 17.499 27s15.833 14.333 25.5 19s20.167 7 31.5 7c7.33301 0 15.666 -1.33301 24.999 -4s17 -7.33398 23 -14.001l355 -276c23.333 -18 35 -39.333 35 -64c0 -27.333 -11.667 -49 -35 -65z" />
    <glyph glyph-name="Euro" unicode="&#x20ac;" horiz-adv-x="1596" 
d="M398 680v-172h599c41.333 0 62 -22.667 62 -68c0 -42.667 -20.667 -64 -62 -64h-599v-69c0 -108 110.333 -162 331 -162h739c44.667 0 67 -24 67 -72c0 -48.667 -22.333 -73 -67 -73h-763c-324 0 -486 101 -486 303v73h-49c-42.667 0 -64 22.333 -64 67
c0 43.333 21.333 65 64 65h49v172h-49c-42.667 0 -64 23.333 -64 70c0 42 21.333 63 64 63h49v111c0 190 158.333 285 475 285h720c43.333 0 65 -24 65 -72c0 -48.667 -21.667 -73 -65 -73h-714c-201.333 0 -302 -46.667 -302 -140v-111h771c46 0 69 -22.667 69 -68
c0 -43.333 -23 -65 -69 -65h-771z" />
    <glyph glyph-name="trademark" unicode="&#x2122;" horiz-adv-x="1512" 
d="M1440 741c0 -33.333 -17.0029 -55.3311 -51.0029 -65.998c-3.33301 -0.666992 -6.16602 -1.16699 -8.49902 -1.5s-4.16602 -0.5 -5.49902 -0.5h-29c-45.333 0 -68 22.667 -68 68v188l-180 -221c-20 -24.667 -47.333 -37 -82 -37s-62.334 12.333 -83.001 37l-185 226v-193
c0 -45.333 -22.667 -68 -68 -68c-12.667 0 -22.667 0.166992 -30 0.5s-12.666 1.16602 -15.999 2.49902c-32 10.667 -48 32.334 -48 65.001v325h-174v-325c0 -23.333 -5.33301 -40.5 -16 -51.5s-27.667 -16.5 -51 -16.5c-13.333 0 -23.333 0.166992 -30 0.5
s-11.667 1.16602 -15 2.49902c-17.333 5.33301 -29.666 13.166 -36.999 23.499s-11 24.166 -11 41.499v325h-147c-45.333 0 -68 22.333 -68 67c0 20.667 3.33301 36.334 10 47.001c10 20.667 29.333 31 58 31l567 -1c32 0 58 -12 78 -36l266 -315l260 316
c10.667 11.333 22.167 20 34.5 26s26.5 9 42.5 9c58 0 87 -28.333 87 -85v-384z" />
    <glyph glyph-name=".null" horiz-adv-x="0" 
 />
    <glyph glyph-name="nonmarkingreturn" horiz-adv-x="582" 
 />
    </font>
</defs>
</svg>
