<?xml version="1.0" standalone="no"?>
<!DOCTYPE svg PUBLIC "-//W3C//DTD SVG 1.1//EN" "http://www.w3.org/Graphics/SVG/1.1/DTD/svg11.dtd" >
<svg xmlns="http://www.w3.org/2000/svg">
<metadata>
This is a custom SVG webfont generated by Font Squirrel.
Copyright   : Fait par un inconnu
</metadata>
<defs>
<font id="BrockScriptRegular" horiz-adv-x="950" >
<font-face units-per-em="2048" ascent="1638" descent="-410" />
<missing-glyph horiz-adv-x="477" />
<glyph unicode=" "  horiz-adv-x="477" />
<glyph unicode="&#x09;" horiz-adv-x="477" />
<glyph unicode="&#xa0;" horiz-adv-x="477" />
<glyph unicode="!" horiz-adv-x="681" d="M209 27q0 111 31 110q8 0 100 -22q31 0 31 -82q0 -41 -68 -41q-94 0 -94 35zM307 240l281 1009q10 35 41 37l123 10q23 2 22 -18q0 8 -6 -23l-438 -1030l-17 2z" />
<glyph unicode="&#x22;" horiz-adv-x="669" d="M90 1366q0 96 82 96t82 -96q0 -20 -6 -43l-60 -455h-30l-62 455q-6 45 -6 43zM418 1366q0 96 82 96q80 0 80 -96q0 -8 -2.5 -22.5t-2.5 -20.5l-63 -455h-29l-61 455q-4 14 -4 43z" />
<glyph unicode="#" horiz-adv-x="1574" d="M115 479l41 96h327l105 299h-357l33 97h359l170 483h114l-172 -483h297l170 483h111l-168 -483h315l-37 -97h-315l-104 -299h339l-34 -96h-340l-170 -479h-113l170 479h-291l-174 -479h-112l170 479h-334zM594 575h299l102 299h-295z" />
<glyph unicode="$" d="M-20 109l2 16l24 37h19q104 -88 258 -119l172 569q-201 195 -201 320q0 113 101.5 191.5t262.5 78.5h17l35 109l65 12l-41 -127q137 -37 187 -80l2 -14l-21 -29h-12q-94 61 -170 80l-133 -442q119 -119 168 -197q59 -92 59 -184q0 -139 -121 -234q-127 -98 -325 -98 l-33 -113l-64 -12l35 127q-202 35 -286 109zM340 37h2q137 0 221 76.5t84 193.5q0 123 -147 264zM377 963q0 -74 123 -207l125 405h-31q-98 0 -157.5 -55t-59.5 -143z" />
<glyph unicode="%" horiz-adv-x="1310" d="M84 934q0 190 113 350q90 129 227 129q90 0 153.5 -69.5t63.5 -176.5q0 -84 -41 -186q20 -12 41 -12q59 0 147 78q98 86 181 227l82 143l12 6h47l4 -10l-907 -1558h-76l-6 8q352 504 719 1175q-123 -123 -215 -123q-23 0 -54 11q-88 -238 -266 -238q-94 0 -159.5 72 t-65.5 174zM188 889q0 -160 125 -160q139 0 211 242q-18 31 -18 73q0 74 69 193q-2 59 -36.5 94t-83.5 35q-90 0 -160 -111q-107 -165 -107 -366zM698 221q0 193 113 350q92 129 227 129q92 0 148.5 -65.5t56.5 -175.5q0 -137 -63 -269q-104 -215 -265 -215q-88 0 -152.5 72 t-64.5 174zM799 182q0 -168 127 -168q113 0 184 164q80 182 80 311q0 74 -35 117t-92 43q-92 0 -160 -108q-35 -57 -69.5 -169t-34.5 -190z" />
<glyph unicode="&#x26;" horiz-adv-x="1554" d="M219 264q0 137 110.5 241.5t286.5 119.5q-70 123 -69 243q0 160 114.5 264.5t290.5 104.5q74 0 146 -23l-27 -69q-88 41 -151 41q-115 0 -179.5 -76t-64.5 -207q0 -139 67 -280q193 -45 365 -205q31 92 31 182q0 47 -4 70l360 12q141 4 193 74l12 2l2 -8 q-31 -113 -121 -152q-78 -37 -256 -37q-18 0 -66.5 2t-74.5 2q-16 -104 -45 -176q190 -242 239 -387l-6 -8q-123 6 -371 196q-217 -211 -460 -210q-141 0 -231.5 80.5t-90.5 203.5zM371 272q0 -104 63.5 -166.5t171.5 -62.5q203 0 363 176q-205 170 -326 346 q-117 -8 -194.5 -94t-77.5 -199zM780 547q74 -160 224 -287q57 57 81 119q-137 135 -305 168zM1038 233q135 -119 224 -159q0 117 -146 268q-21 -35 -78 -109z" />
<glyph unicode="'" horiz-adv-x="346" d="M90 1366q0 96 82 96q80 0 80 -96q0 -29 -4 -43l-60 -455h-30l-62 455q-6 45 -6 43z" />
<glyph unicode="(" horiz-adv-x="851" d="M346 172q0 383 170 780q164 383 506 830h12l25 -10l-2 -13q-584 -1004 -584 -1898q0 -317 68 -498v-12l-29 -13l-8 7q-158 356 -158 827z" />
<glyph unicode=")" horiz-adv-x="851" d="M-12 -649l6 8q586 1028 586 1903q0 289 -70 497v17l25 6l14 -6q158 -365 158 -830q0 -381 -172 -780q-166 -381 -510 -828h-11z" />
<glyph unicode="*" horiz-adv-x="1026" d="M143 1178v43l7 6q137 0 350 -88q-76 109 -228 227v14l17 50l8 2q125 -98 250 -287q39 180 61 235q29 68 78 68q59 0 84 -6v-10q-164 -158 -190 -312q213 129 323 129q25 0 41 -8l76 -39l2 -10q-315 -33 -424 -94q305 -106 305 -170q0 -47 -16 -94h-10q-49 123 -289 229 q129 -207 129 -281q0 -10 -12 -37l-35 -75h-8q-20 244 -109 389q-68 -156 -68 -377l-8 -12h-43l-6 6v12q0 172 82 356q-135 -49 -285 -176h-16l-43 25l-2 10q141 111 352 189q-172 76 -360 75z" />
<glyph unicode="+" horiz-adv-x="1705" d="M254 561v96h551v564h98v-564h551v-96h-551v-561h-98v561h-551z" />
<glyph unicode="," horiz-adv-x="473" d="M57 -209l17 47q164 96 164 170q0 43 -43 43q-12 0 -52 -14l-10 8l25 92q10 41 82 41q96 0 96 -98q0 -148 -279 -289z" />
<glyph unicode="-" horiz-adv-x="882" d="M266 371l29 84l14 10h459l12 -12l-28 -93l-13 -6h-467z" />
<glyph unicode="." horiz-adv-x="473" d="M106 27q0 111 31 110q10 0 101 -22q29 0 28 -82q0 -41 -65 -41q-95 0 -95 35z" />
<glyph unicode="/" horiz-adv-x="686" d="M33 -276l811 1921h65l6 -13l-770 -1923h-106z" />
<glyph unicode="0" d="M70 397q0 143 45 285q82 260 239 410q125 119 250 118q131 0 204 -109.5t73 -314.5q0 -375 -207 -641q-129 -166 -291 -165q-131 0 -222 114.5t-91 302.5zM219 301q0 -131 49 -207t133 -76q147 0 261 261q125 287 124 591q0 143 -46 220t-124 77q-88 0 -167 -100 q-102 -127 -177 -391q-53 -189 -53 -375z" />
<glyph unicode="1" d="M272 12q0 -2 7 19l309 989q-127 -145 -275 -258h-12l-12 18l2 13q170 147 250 241q8 10 71 103q31 45 62 47l65 6q12 0 13 -12q0 -12 -7 -23l-327 -1116q-6 -20 -12.5 -28.5t-22.5 -8.5l-88 -4q-23 0 -23 14z" />
<glyph unicode="2" d="M20 0v12l138 207q12 12 26 12q23 0 31 -6q455 500 455 770q0 143 -127 144q-90 0 -166 -86q-82 -94 -101 -236l-6 -10h-26l-6 12q16 174 118 283q96 102 226 102q106 0 175.5 -68.5t69.5 -170.5q0 -117 -149 -303q-92 -115 -418 -449q80 -37 158 -72q117 -51 162 -51 q90 0 194 150l6 4l19 -11l2 -8q-143 -250 -271 -250q-41 0 -143 39q-170 66 -221 82l-115 -110h-8z" />
<glyph unicode="3" d="M55 27v10l8 14l11 4q80 -35 157 -35q111 0 197 68t137 170t51 201q0 80 -51 129t-135 49q-59 0 -141 -31l-17 10l-6 19l6 8q385 172 385 385q0 49 -29.5 81t-74.5 32q-129 0 -246 -185h-12l-19 13l-4 12q141 227 328 227q92 0 146.5 -51t54.5 -131q0 -197 -377 -344 q160 0 250 -69.5t90 -184.5q0 -168 -184 -332q-133 -117 -316 -116q-141 0 -209 47z" />
<glyph unicode="4" d="M84 397l4 15q276 375 424 651l37 70q18 29 43 34l137 29q16 0 16 -22q0 -31 -143 -216q-168 -219 -446 -530l456 8l70 264q8 29 35 29l82 10q14 0 14 -16q0 -8 -2 -16l-68 -265h52l12 -6l-2 -24l-12 -11h-62l-90 -362q-6 -27 -25 -31l-110 -22h-6q-10 0 -11 12q0 12 5 27 l104 370l-508 -12z" />
<glyph unicode="5" d="M74 12l6 15l10 4q61 -18 123 -19q131 0 252 101q172 143 172 364q0 92 -49 145.5t-129 53.5q-76 0 -159 -58.5t-91 -58.5q-18 0 -19 16q0 6 7 25l170 528q10 33 55 33l336 6q51 0 100 41l10 -4q-16 -111 -104 -145q-63 -25 -252 -25q-82 0 -129 4l-129 -401 q121 94 258 94q121 0 194.5 -69.5t73.5 -184.5q0 -197 -194 -362q-164 -139 -373 -140q-92 0 -137 23z" />
<glyph unicode="6" d="M115 309q0 201 139 439q152 254 422 479l12 2l23 -21l-6 -18q-217 -209 -343 -475q-115 -246 -114 -457q0 -106 47 -169.5t117 -63.5q104 0 187 132t83 322q0 162 -100 162q-70 0 -133 -88q-68 -94 -89 -246l-6 -10l-18 -2l-8 12q8 178 96 291q84 106 194 107 q84 0 142.5 -70t58.5 -176q0 -166 -114 -316q-125 -164 -293 -163q-135 0 -216 87.5t-81 241.5z" />
<glyph unicode="7" d="M84 2q0 33 190 291q225 303 588 741l-321 10q-78 0 -113 -14q-47 -20 -74 -84q-8 -20 -14 -41q-6 -12 -31 -12q-12 0 -12 16q0 49 68 176q35 66 100 82q43 12 172 13q193 0 307 -15l25 21l12 4l10 -16v-15q-47 -74 -194 -280q-154 -217 -250 -367q-145 -227 -275 -469 q-12 -25 -16 -29q-10 -10 -25 -12l-125 -10q-22 -2 -22 10z" />
<glyph unicode="8" d="M96 244q0 98 80 213q70 96 227 241q-84 123 -84 246q0 113 78 188.5t197 75.5q113 0 178.5 -63.5t65.5 -169.5q0 -145 -213 -381q111 -172 110 -303q0 -129 -98 -220t-240 -91q-129 0 -215 74.5t-86 189.5zM195 248q0 -104 53 -166t141 -62q92 0 154.5 68t62.5 172 q0 125 -182 397q-229 -210 -229 -409zM436 985q0 -90 164 -348q158 162 158 348q0 176 -152 176q-72 0 -121 -50t-49 -126z" />
<glyph unicode="9" d="M143 676q0 199 152 381q127 152 264 151q121 0 203 -104q84 -111 84 -285q0 -190 -137 -418q-147 -248 -408 -450h-12l-17 22l7 13q426 360 426 882q0 293 -170 293q-106 0 -195 -117q-96 -127 -96 -286q0 -203 145 -203q74 0 132.5 77t82.5 214l6 6l25 -2l6 -10 q-25 -184 -112 -295t-187 -111q-86 0 -142.5 68t-56.5 174z" />
<glyph unicode=":" horiz-adv-x="522" d="M131 27q0 111 31 110q27 -4 98 -22q31 0 31 -82q0 -41 -66 -41q-94 0 -94 35zM289 575q0 106 30 107q-4 0 99 -18q35 -6 35 -82q0 -45 -68 -45q-96 -1 -96 38z" />
<glyph unicode=";" horiz-adv-x="522" d="M82 -209l12 47q166 96 166 170q0 43 -41 43q-10 0 -53 -14l-8 8l24 92q10 41 82 41q96 0 96 -98q1 -146 -278 -289zM319 575q0 106 29 107q-4 0 101 -18q31 -6 30 -82q0 -45 -67 -45q-93 -1 -93 38z" />
<glyph unicode="&#x3c;" horiz-adv-x="1705" d="M264 571v82l1178 482v-109l-1024 -416l1024 -413v-109z" />
<glyph unicode="=" horiz-adv-x="1705" d="M254 377v96h1200v-96h-1200zM254 745v101h1200v-101h-1200z" />
<glyph unicode="&#x3e;" horiz-adv-x="1705" d="M264 88v109l1022 413l-1022 416v109l1178 -482v-82z" />
<glyph unicode="?" horiz-adv-x="798" d="M207 981q33 188 125 290.5t221 102.5q109 0 181.5 -75.5t72.5 -190.5q0 -127 -96 -291q-31 -53 -228 -332q-109 -156 -147 -272l-8 -6l-25 8v16q16 66 152 334q203 403 202 570q0 184 -145 184q-188 0 -268 -344l-6 -6h-25zM231 27q0 111 29 110q10 0 100 -22 q31 0 31 -82q0 -41 -65 -41q-95 0 -95 35z" />
<glyph unicode="@" horiz-adv-x="2021" d="M150 537q0 410 335 692q264 221 629 221q346 0 552 -187.5t206 -498.5q0 -326 -221 -526q-125 -113 -252 -113q-195 0 -203 217q-121 -215 -319 -215q-115 0 -188 92t-73 240q0 229 185 409q137 135 291 136q176 0 221 -199l59 180h117l-166 -602q-20 -74 -20 -111 q0 -109 104 -108q109 0 223 108q203 193 203 496q0 291 -193.5 467t-517.5 176q-354 0 -598 -225q-276 -256 -276 -682q0 -326 235 -531q244 -211 584 -211q354 0 627 211l24 -34q-291 -217 -651 -218q-375 0 -612 185q-305 238 -305 631zM731 383q0 -102 45 -159.5 t119 -57.5q137 0 254 180q129 199 129 397q0 96 -55.5 162t-132.5 66q-106 0 -197 -133q-162 -242 -162 -455z" />
<glyph unicode="A" horiz-adv-x="2514" d="M150 686q0 -369 231 -626t559 -257q281 0 458 163t290 526q131 31 241 79q-31 -160 -31 -307q0 -279 105.5 -444.5t282.5 -165.5q211 0 211 203h-27q0 -170 -150 -170q-236 0 -235 428q0 266 43 471q80 -14 145 -94l27 14q-53 84 -172 110q45 356 45 549 q0 299 -172 480.5t-451 181.5q-338 0 -518 -256h-67q-332 0 -573.5 -262.5t-241.5 -622.5zM197 649q0 365 235.5 625t575.5 268q-88 -145 -88 -321q0 -211 130 -356.5t318 -145.5q92 0 197 49q-43 -160 -140 -268q-70 8 -120 71l-27 -24q41 -49 127 -80q-180 -178 -379 -178 q-170 0 -290 123t-120 299q0 88 21 151l-27 6q-29 -111 -28 -149q0 -203 135 -338t334 -135q256 0 432 213q23 0 125 18q-119 -340 -274.5 -487.5t-399.5 -147.5q-303 0 -520 238.5t-217 568.5zM950 1221q0 160 101 321q246 -35 392 -198.5t146 -405.5q0 -70 -8 -119 q-109 -70 -213 -69q-174 0 -296 136t-122 335zM1071 1571q172 213 430 213q215 0 356.5 -140.5t163.5 -375.5q-92 -43 -135 -110.5t-139 -319.5l-123 -322q-114 -15 -114 -16h1q70 111 113 305q150 123 229 385h-32q-47 -178 -189 -346v69q0 262 -150.5 440.5t-410.5 217.5z M1696 530q109 365 175 508.5t150 190.5v-49q0 -23 -36 -267l-31 -202q0 -6 -10 -39q-10 -39 -15 -72q-33 -8 -137 -43q-76 -27 -96 -27z" />
<glyph unicode="B" horiz-adv-x="2564" d="M115 649q0 317 191.5 549t512.5 303q113 137 287 215t369 78q330 0 641 -250q102 82 204 82q10 0 101 -14v-35q-51 10 -90 10q-90 0 -193 -67q217 -203 217 -424q0 -131 -55 -212t-184 -134q172 -141 172 -326q0 -57 -9 -98v-41q70 -70 99 -166l-33 -17q-39 88 -82 131 q-57 -217 -183 -348t-280 -131q-193 0 -192 207q0 41 10 82q-264 -297 -655 -297q-354 0 -601 262t-247 641zM164 616q0 -342 226 -589.5t538 -247.5q283 0 463 245.5t356 874.5q80 283 135 381q63 113 191 240q-254 240 -598 239q-354 0 -598 -239h108q240 0 410 -149.5 t213 -399.5q82 162 82 301q0 82 -33 182l24 14q41 -102 41 -188q0 -184 -104 -367v-67q0 -260 -174 -448.5t-416 -188.5q-201 0 -337 133t-136 332q0 76 25 147h32q-25 -96 -24 -147q0 -174 120.5 -298t292.5 -124q219 0 387 175t187 429q-174 -174 -389 -174 q-207 0 -344 141.5t-137 347.5q0 88 18 148q14 51 63 135q-293 -102 -457.5 -321.5t-164.5 -516.5zM737 1161q0 -186 131 -315t318 -129q215 0 389 205q-25 256 -187.5 410.5t-410.5 154.5h3q0 -2 -142 -19q-101 -110 -101 -307zM1640 -39q0 -68 37 -113t88 -45 q98 0 188.5 143.5t151.5 395.5q-76 25 -100 25q-150 0 -257.5 -119t-107.5 -287zM1757 309q113 92 248 92q57 0 111 -18q14 119 14 166q0 117 -68 190q-10 0 -27.5 -4t-29.5 -4q-76 0 -76 43q0 33 51 33q33 0 82 -25q135 109 136 379q0 188 -93 326q-86 -94 -133 -236.5 t-100 -476.5q-37 -225 -115 -465z" />
<glyph unicode="C" horiz-adv-x="2009" d="M188 1026q0 340 244 579.5t584 239.5q342 0 547 -231q129 121 247 121q86 0 136.5 -86t50.5 -236q0 -287 -187 -582q43 -68 58 -108q18 -55 18 -141q0 -215 -127 -447.5t-299 -341.5q59 -104 113.5 -164.5t159.5 -134.5l-25 -35q-113 84 -164 142q-61 68 -119 178 q-37 -12 -75 -12q-150 0 -258.5 151.5t-116.5 366.5q-35 -6 -76 -6q-303 0 -507 211.5t-204 535.5zM238 991q0 -281 191.5 -479.5t459.5 -198.5h86q33 715 557 1270q-166 221 -488 221q-324 0 -565 -242.5t-241 -570.5zM1149 152q0 -352 199 -353q37 0 75 19 q-49 117 -67 198q-18 90 -19 228q0 37 6.5 82t6.5 77l-197 -90q-4 -69 -4 -161zM1171 371q113 27 189 75q96 455 321 455q51 0 76 -31q184 377 185 629q0 90 -37 152.5t-90 62.5q-96 0 -209 -160q39 -41 102 -176l-37 -18q-31 72 -41 90q-23 41 -53 80q-295 -438 -397 -1106 zM1384 215q0 -221 66 -393q147 102 250.5 347t103.5 499q0 82 -22 133q-158 -213 -387 -377q-11 -98 -11 -209zM1399 479q231 154 342 365q-27 20 -60 20q-186 0 -282 -385z" />
<glyph unicode="D" horiz-adv-x="2545" d="M127 707q0 -387 249 -659.5t601 -272.5q358 0 612 270q0 -23 -3 -43t-3 -33q0 -88 50 -141t130 -53q315 0 543 567q45 -39 57 -94l39 10q-16 57 -78 127l9 25q70 209 69 440q0 414 -227 670q100 76 213 75q39 0 70 -8v33q-31 10 -82 10q-96 0 -228 -76q-283 268 -680 269 q-350 0 -600 -236q-344 -72 -542.5 -306t-198.5 -574zM170 674q0 303 181 540.5t474 321.5q-119 -186 -118 -338q0 -209 146 -354.5t351 -145.5q102 0 188.5 40t196.5 139q-25 -236 -194.5 -406t-378.5 -170q-164 0 -288 127t-124 303q0 68 27 146l-39 6q-33 -121 -33 -160 q0 -195 143.5 -330t344.5 -135q256 0 413.5 181.5t177.5 494.5q113 209 113 383q0 80 -37 184l-26 -8l8 -33q18 -68 18 -137q0 -133 -76 -322q-41 287 -220 440.5t-472 153.5h-8q227 205 539 205q186 0 356 -72.5t289 -201.5q-154 -135 -240 -295q-92 -172 -211 -557 q-145 -471 -307 -663.5t-412 -192.5q-322 0 -552 253t-230 603zM743 1190q0 164 144 364h104q258 0 423 -167.5t175 -442.5q-176 -213 -385 -213q-190 0 -325.5 134.5t-135.5 324.5zM1626 -31q0 90 53.5 190.5t143.5 174.5q102 102 250 102q59 0 178 -41 q-123 -326 -229.5 -455.5t-249.5 -129.5q-63 0 -104.5 44.5t-41.5 114.5zM1776 342q35 102 100 422q68 332 117 475q55 158 145 254q106 -152 146 -277.5t40 -306.5q0 -225 -73 -473q-94 43 -172 43q-145 0 -303 -137z" />
<glyph unicode="E" horiz-adv-x="2664" d="M139 700q0 383 246 648.5t604 265.5q176 190 512 190q135 0 385 -78l164 -51q334 -104 492 -104q127 0 181 35.5t54 119.5q0 18 -10 46l33 6q10 -33 10 -66q0 -131 -105.5 -222t-253.5 -91q-84 0 -247 43l-47 6q-92 -88 -141.5 -221t-106.5 -453q94 27 159 27 q74 0 137.5 -39t63.5 -82q0 -39 -33 -39q-20 0 -32 45q-27 76 -136 76q-63 0 -170 -31q-53 -283 -113.5 -432t-160.5 -256q199 -127 512 -127q139 0 250 82t111 186q0 23 -13.5 39.5t-27.5 16.5q-23 -10 -47.5 -21.5t-53.5 -11.5q-37 0 -65.5 33.5t-28.5 78.5t33 77t80 32 q68 0 109.5 -62.5t41.5 -158.5q0 -193 -129 -324t-311 -131q-121 0 -236.5 49t-292.5 172q-274 -201 -575 -200q-346 0 -594 274t-248 653zM190 680q0 -350 228.5 -606t544.5 -256q270 0 462 245q-160 111 -250 148t-194 37h-49q-18 -8 -51 -8q-35 0 -35 32q0 35 43 35 q25 0 49 -6q16 0 39.5 -5t36.5 -5q180 0 338.5 123t228.5 317q-41 12 -94 74q-104 -104 -252 -105q-180 0 -301 143.5t-121 358.5q0 203 137 381l-43 -12q-303 -45 -510 -304t-207 -587zM856 1202q0 -199 107.5 -332t271.5 -133q147 0 233 103v61q0 68 45 68q31 0 31 -54 q0 -45 -31 -75q23 -47 76 -78q35 111 35 201q0 258 -169 439t-404 181h-56q-139 -178 -139 -381zM1038 1614q279 -10 452 -198.5t173 -471.5q0 -61 -25 -199q6 0 27 -4t35 -4h22q16 59 17 68l49 139q74 209 137.5 312.5t192.5 216.5q-117 31 -209 71l-158 70 q-274 121 -397 121q-187 0 -316 -121zM1133 260q20 -2 39 -7l20 -5q39 -18 113 -64l96 -51q23 0 59 -24q84 117 240 544q0 18 12 47h-29q-31 0 -59 11q-59 -186 -173.5 -291t-317.5 -160z" />
<glyph unicode="F" horiz-adv-x="2123" d="M139 707q0 -383 254 -657.5t608 -274.5q385 0 598 213t316 700q0 -8 14 68l37 8q47 10 109 10q10 0 112 -24l17 32q-90 25 -144 25q-51 0 -131 -14q61 303 125 445t184 237q94 -18 181 -19q147 0 283.5 73t219.5 200l-28 18q-72 -90 -137.5 -127t-159.5 -37 q-115 0 -234 33q-76 20 -405 131q-225 76 -393 76q-377 0 -582 -230q-371 -27 -607.5 -274t-236.5 -612zM190 670q0 338 217.5 590.5t542.5 298.5q-119 -174 -119 -357q0 -205 127 -350t308 -145q84 0 134 22.5t113 87.5q27 -37 86 -78q-92 -211 -237 -326.5t-318 -115.5 q-168 0 -293.5 130t-125.5 304q0 53 28 146l-37 16q-25 -68 -24 -162q0 -199 140 -335t345 -136q420 0 574 463q14 0 32.5 -5t24.5 -5q18 0 27 10q-4 -16 -17 -43q-184 -483 -332 -664q-164 -199 -411 -198q-319 0 -552 253t-233 599zM864 1202q0 223 137 357 q283 0 457 -168t174 -439q0 -102 -24 -178q-53 33 -70 84q18 43 18 80q0 47 -26 47q-43 0 -43 -76q0 -33 8 -51q-92 -119 -229 -119q-162 0 -282 136.5t-120 326.5zM1034 1593q152 164 367 164q117 0 317 -88l230 -100q39 -16 239 -80l-33 -33q-164 -135 -226 -235.5 t-150 -376.5q-8 -25 -33 -88q-10 -6 -27 -6q-6 0 -26.5 3t-34.5 3q27 88 26 153q0 295 -180 485.5t-469 198.5z" />
<glyph unicode="G" horiz-adv-x="2279" d="M82 -96q0 553 561 788q-160 174 -160 449q0 305 231.5 527t559.5 222q309 0 553 -245q190 197 323 196q72 0 114 -50t42 -138q0 -145 -108.5 -358.5t-286.5 -420.5q-90 -104 -147.5 -153t-164.5 -115q25 -70 95 -69q61 0 129 67q98 98 180 135q76 35 176 35q57 0 57 -35 q0 -27 -63 -28q-190 -6 -315 -572l-68 -303q-96 -430 -297 -625.5t-549 -195.5q-371 0 -616.5 254t-245.5 635zM133 -115q0 -346 218 -590.5t532 -244.5q307 0 497 288q41 63 115 201q29 66 154 430.5t204.5 501.5t225.5 240q4 0 14 10t18 14q-109 -20 -200 -98l-84 -72 q-76 -66 -133 -65q-88 0 -152 82q-23 -14 -104 -52q150 -172 149 -391q0 -283 -173 -475t-423 -192q-201 0 -335 133t-134 332q0 59 33 143l25 -17q-14 -51 -15 -120q0 -182 113 -305t278 -123q231 0 405.5 190.5t174.5 437.5q0 223 -145 381q-152 -45 -252 -45 q-252 0 -459 174q-260 -96 -403.5 -301t-143.5 -467zM522 1104q0 -201 158 -393q162 39 254 39q141 0 270 -50.5t201 -134.5l31 10q41 12 88 31q-55 100 -56 240q0 373 336 778q-240 227 -526 227q-307 0 -531.5 -221t-224.5 -526zM717 670q203 -145 422 -146q154 0 229 29 q-162 158 -424 158q-108 0 -227 -41zM1593 647q260 174 459 490.5t199 558.5q0 113 -101 112q-104 0 -247 -239q43 -55 112 -207l-35 -19l-20 43q-16 35 -76 146q-113 -195 -202 -455t-89 -397v-33z" />
<glyph unicode="H" horiz-adv-x="2641" d="M125 698q0 -391 251 -658t615 -267q739 0 881 874l12 76l225 51l-18 -61q-106 -354 -106 -604q0 -182 82.5 -309.5t201.5 -127.5q82 0 145.5 69t92.5 183l-37 8q-63 -227 -209 -227q-129 0 -129 270q0 164 72 428q51 188 51 220q12 51 33 122q0 4 14 48h18q86 0 164 -95 l37 25q-96 100 -209 111l15 49q94 326 204.5 503t214.5 177q63 0 64 -74v-33q0 -33 21.5 -60.5t50.5 -27.5q33 0 59.5 27.5t26.5 60.5q0 68 -56.5 113t-138.5 45q-186 0 -368.5 -224.5t-286.5 -572.5l-226 -61l6 69q90 422 191.5 593t271.5 171h17v35h-17q-63 0 -168 -43 q-164 -68 -251 -68q-125 0 -271 82l-135 76q-125 70 -240 70q-117 0 -200.5 -39t-173.5 -131q-365 -49 -581 -286t-216 -587zM176 655q0 330 201 571.5t522 303.5q-111 -143 -111 -344q0 -203 125 -350.5t295 -147.5q162 0 260 105q39 -53 95 -80q-63 -178 -219 -298 t-318 -120q-176 0 -299 126t-123 302q0 -12 14 145l-24 6q-23 -57 -23 -143q0 -207 136.5 -343t343.5 -136q201 0 350 117.5t213 328.5h82l-33 -86q-166 -436 -313 -608q-162 -188 -404 -188q-313 0 -541.5 247.5t-228.5 591.5zM821 1186q0 190 119 352h61q256 0 430.5 -173 t174.5 -431q0 -109 -25 -189q-70 35 -86 80q25 37 25 68q0 57 -33 57q-43 0 -43 -76q0 -25 10 -49q-88 -102 -246 -102q-156 0 -271.5 137.5t-115.5 325.5zM975 1571q115 129 311 129q111 0 252 -87t214 -113.5t175 -26.5q47 0 182 32q-115 -94 -182 -202 q-72 -115 -104 -218q-4 -25 -84 -260q-8 -25 -33 -94h-82q23 76 23 184q0 276 -183.5 466t-447.5 190h-41z" />
<glyph unicode="I" horiz-adv-x="2062" d="M115 686q0 -385 248.5 -648t611.5 -263q203 0 380 84t296 237q76 98 125 228q45 123 102 381q92 35 150.5 92t115.5 168l-22 16q-98 -184 -238 -238q94 496 222 739.5t319 307.5v33q-670 -49 -969 -437q-197 190 -481 191q-352 0 -606 -265.5t-254 -625.5zM158 662 q0 348 250.5 615t582.5 267q250 0 439 -184q-76 -141 -76 -244q0 -229 211 -379q-70 -195 -224.5 -321.5t-324.5 -126.5q-176 0 -299 123t-123 299q0 84 18 151l-24 8q-35 -88 -35 -159q0 -190 140.5 -326.5t340.5 -136.5q412 0 574 463q14 -8 75 -25l-8 -33 q-115 -457 -301 -653q-172 -182 -442 -182q-311 0 -542.5 252t-231.5 592zM1473 981q0 104 59 236q68 -137 67 -279q0 -51 -24 -168q-102 64 -102 211zM1556 1249q121 233 299.5 356.5t450.5 166.5q-188 -141 -319 -367q-117 -203 -269 -625l-18 -51q-49 0 -86 14 q27 109 26 160q0 186 -84 346z" />
<glyph unicode="J" horiz-adv-x="2179" d="M-49 -55q0 -362 232.5 -607t574.5 -245q326 0 572.5 196.5t371.5 558.5q129 375 213 820q102 47 157.5 99t108.5 153l-31 14q-94 -166 -217 -217l6 51q100 473 219 696.5t291 257.5v35q-469 -51 -752.5 -243.5t-283.5 -462.5q0 -154 96.5 -267.5t243.5 -130.5 q-162 -563 -278 -862q-137 -352 -311.5 -508.5t-426.5 -156.5q-303 0 -517 232t-214 558q0 340 243 599t562 259q246 0 414 -173t168 -419t-173 -438.5t-401 -192.5q-160 0 -281.5 122t-121.5 288q0 37 24 152l-30 6q-25 -127 -25 -158q0 -188 135 -319t330 -131 q246 0 416 188t170 459q0 274 -182.5 461.5t-448.5 187.5q-352 0 -603 -254t-251 -608zM1542 934q0 268 228.5 495.5t547.5 278.5q-180 -141 -333 -418q-59 -109 -87 -182.5t-104 -319.5q-8 -29 -31 -106q-221 25 -221 252z" />
<glyph unicode="K" horiz-adv-x="2621" d="M119 700q0 352 225 599t576 278q10 16 24 25q172 186 436 186q215 0 416 -162l172 -139q18 -12 62 -33q92 98 157.5 135t143.5 37q41 0 70.5 -22.5t29.5 -59.5q0 -68 -72.5 -117t-173.5 -49q-63 0 -117 17q-70 -113 -102 -221q-37 -119 -113 -482q-96 -463 -309 -681 t-573 -218q-358 0 -605 262t-247 645zM170 676q0 -344 222 -592t534 -248q250 0 414.5 177t304.5 597q121 365 143 426q33 92 72 174q23 49 145 215l-27 11q-152 82 -272.5 158.5t-179.5 101.5q-90 39 -197 39q-213 0 -358 -148h24q248 0 418 -159.5t217 -426.5 q33 66 82 195l23 -10q-16 -102 -105 -260q-18 -299 -177 -479.5t-409 -180.5q-205 0 -344 131t-139 320q0 23 25 170l32 -10q-25 -109 -24 -160q0 -170 121 -287t295 -117q203 0 367.5 159t199.5 390q-158 -145 -324 -145q-188 0 -323 148.5t-135 355.5q0 164 92 315 q-295 -31 -506 -286t-211 -574zM825 1221q0 -193 126 -331t302 -138q182 0 334 174q0 276 -165 447t-427 171h-61q-63 -94 -86 -161.5t-23 -161.5zM1911 852q0 35 43 35q57 0 114 -49q164 49 234 258l68 200q55 164 160.5 256.5t230.5 92.5q70 0 109.5 -28t39.5 -73 q0 -43 -27.5 -71.5t-64.5 -28.5t-90 57q-31 61 -68 62q-158 0 -282 -367q-63 -188 -116.5 -262t-158.5 -123q88 -84 120 -151.5t32 -174.5q0 -125 -10 -184l-35 -199q0 -25 -3 -77t-3 -82q0 -201 133 -201q33 0 94 18l6 -32q-117 -53 -192 -54q-100 0 -167 85t-67 208 q0 102 49 346q43 213 43 287q0 121 -49 201q-25 -6 -43 -6q-100 0 -100 57zM2085 1425q45 -14 100 -14q86 0 147.5 38t61.5 87q0 59 -63 59q-140 0 -246 -170z" />
<glyph unicode="L" horiz-adv-x="2179" d="M203 45q0 -106 99 -183t241 -77q324 0 549 217q176 -135 286 -186q104 -49 209 -49q176 0 319.5 154.5t143.5 344.5q0 63 -27.5 103.5t-70.5 40.5q-41 0 -73 -33t-32 -76q0 -84 70 -119q41 -20 49 -29.5t8 -39.5q0 -96 -110.5 -167t-270.5 -71q-213 0 -477 145 q123 139 189 299q324 119 553 451t229 678q0 145 -55.5 233t-149.5 88q-121 0 -237 -122q-221 188 -506 188q-358 0 -607 -237.5t-249 -577.5q0 -317 205.5 -539.5t502.5 -222.5h86q-14 -37 -76 -145q-297 188 -473 188q-141 0 -233 -73.5t-92 -182.5zM240 45q0 94 83 157.5 t205 63.5q92 0 177.5 -34.5t277.5 -151.5q-174 -256 -430 -256q-135 0 -224 63.5t-89 157.5zM340 963q0 338 242.5 588.5t572.5 250.5q258 0 457 -178q-119 -145 -178 -266q-66 -137 -144 -412q-137 -483 -207 -645q-39 -6 -92 -6q-272 0 -461.5 193.5t-189.5 474.5z M1323 360q41 139 109 439q123 537 237 757q41 -47 121 -188l18 -33l33 15q-86 164 -153 239q113 145 194 146q135 0 135 -246q0 -362 -199.5 -684t-494.5 -445z" />
<glyph unicode="M" horiz-adv-x="2785" d="M121 735q0 -377 244.5 -644t584.5 -267q305 0 489.5 202.5t282.5 647.5q27 117 62 291q55 215 114 325q35 -141 35 -473v-344q16 29 41 68q51 98 158 290q203 358 358 482q-143 -215 -245.5 -543t-102.5 -569q0 -197 90 -318t234 -121q139 0 200 119l-26 10 q-55 -82 -139 -81q-195 0 -195 290q0 178 68.5 481.5t167.5 567.5q72 188 144.5 267t213.5 116v24q-256 -51 -445.5 -226t-388.5 -548v107q0 504 -150.5 724t-502.5 220q-301 0 -487 -225q-340 -25 -572.5 -276t-232.5 -597zM164 698q0 326 208 572t527 295 q-59 -96 -78 -156q-23 -66 -22 -168q0 -207 131 -349t319 -142q182 0 334 149q-31 -238 -195.5 -398.5t-371.5 -160.5q-180 0 -299 122t-119 306q0 72 18 131l-34 8q-23 -106 -23 -149q0 -199 136 -334t337 -135q256 0 422 187.5t170 479.5q72 104 115 252l-33 9 q-20 -78 -31 -103q-16 -39 -51 -88q-31 256 -203 419t-413 163h-33q168 182 399 182q186 0 323.5 -117t192.5 -323q-78 -162 -131 -336l-112 -365q-246 -793 -715 -792q-307 0 -537.5 251.5t-230.5 589.5zM834 1241q0 178 106 324q35 10 76 10q244 0 405.5 -174t161.5 -436 q-145 -182 -334 -183q-174 0 -294.5 134.5t-120.5 324.5z" />
<glyph unicode="N" horiz-adv-x="2785" d="M127 707q0 -379 247 -635t617 -256q352 0 563 227q51 55 117 166q43 72 76 194q20 53 61 228q70 295 125.5 439t141.5 247q16 -63 16 -219q0 -113 -16 -342q-18 -258 -19 -367q0 -336 121 -522t336 -186q137 0 221 100l-37 18q-76 -78 -151 -78q-139 0 -217 146.5 t-78 411.5v49q47 72 88 196q35 121 69 240q104 344 225.5 556t215.5 212q10 0 27.5 -16.5t21.5 -20.5q33 -33 78 -33q33 0 57.5 23.5t24.5 62.5q0 31 -33 56.5t-74 25.5q-322 0 -590 -891q-47 -156 -110 -317v266l-6 211q-6 201 -25 303q-20 115 -70 193q72 59 129.5 84.5 t184.5 52.5l-8 31q-174 -27 -320 -133q-223 360 -616 360q-293 0 -480 -209q-25 6 -49 6q-358 0 -611 -257.5t-253 -622.5zM176 664q0 360 246 622t586 262l-17 -28q-63 -113 -84 -174q-25 -70 -24 -162q0 -207 130 -346.5t322 -139.5q117 0 242 66q-61 -201 -220 -331 t-341 -130q-174 0 -293 123t-119 305q0 80 25 143l-31 9q-27 -66 -27 -160q0 -205 133.5 -334t346.5 -129q225 0 379.5 146.5t207.5 400.5q76 90 112 155.5t73 190.5l-35 6q-35 -154 -141 -285v66q0 246 -156 425t-408 216q203 170 437 170q201 0 340 -97.5t196 -275.5 l10 -16q-88 -94 -145 -215t-149 -416q-121 -379 -195 -536q-57 -119 -158 -201q-180 -145 -436 -146q-342 0 -574.5 235t-232.5 581zM915 1184q0 190 142 372q260 -45 404.5 -207.5t144.5 -408.5q0 -66 -17 -115q-125 -94 -264 -94q-168 0 -289 133.5t-121 319.5z" />
<glyph unicode="O" horiz-adv-x="2127" d="M201 1040q0 -313 203.5 -529t498.5 -216h60q16 -250 112 -388t254 -138q39 0 90 24q49 -111 111 -176q55 -59 164 -123l14 23q-170 106 -252 293q92 72 138 127t126 194q342 596 342 1040q0 125 -12 170t-65 107v65q0 96 -50.5 156t-130.5 60q-88 0 -227 -105 q-227 227 -539 227q-348 0 -592.5 -237.5t-244.5 -573.5zM248 1008q0 317 244.5 558.5t570.5 241.5q291 0 491 -206q-246 -209 -410.5 -563.5t-180.5 -710.5h-54q-274 0 -467.5 198.5t-193.5 481.5zM1139 121q0 86 22 219q74 23 176 72q-8 -47 -8 -97q0 -281 76 -487 q-43 -25 -88 -25q-178 1 -178 318zM1161 383q2 4 17 47q72 346 184 641q115 307 244 479q0 -2 44 -75.5t44 -83.5q-293 -358 -357 -938q-88 -47 -176 -70zM1372 295v141q487 330 613 971q31 -82 30 -133q0 -180 -92 -496q-88 -307 -209 -559q-76 -160 -133 -237.5 t-143 -137.5q-66 191 -66 451zM1372 479q31 270 120 505t216 376q39 -133 55 -219l37 6q-33 166 -67 244q63 66 137 65q41 0 76 -26q-97 -629 -574 -951zM1624 1583q90 119 191 119q53 0 92 -56.5t39 -138.5v-32q-35 14 -76 14q-70 0 -150 -64q-37 74 -96 158z" />
<glyph unicode="P" horiz-adv-x="2377" d="M119 676q0 -387 251 -658.5t613 -271.5q727 0 881 813l14 76q53 -111 162 -111q145 0 249.5 142.5t104.5 341.5q0 133 -42 239.5t-142 233.5q86 76 211 75q35 0 67 -8l9 33q-33 8 -84 8q-113 0 -238 -76q-293 281 -676 281q-369 0 -618 -238q-356 -78 -559 -311 t-203 -569zM170 635q0 311 180 545.5t488 324.5q-76 -100 -101.5 -168.5t-25.5 -169.5q0 -209 144 -354t347 -145q231 0 397 178q-27 -240 -194.5 -408t-378.5 -168q-174 0 -300 126t-126 296q0 76 29 154h-37q-25 -59 -25 -146q0 -203 140.5 -338t343.5 -135 q258 0 424.5 188.5t175.5 487.5q119 168 118 375q0 55 -24 184l-33 -8q23 -129 23 -186q0 -166 -84 -303q-33 266 -212 433t-442 167q-23 0 -57 -9q211 203 549 203q401 0 653 -264q-154 -154 -231.5 -289t-175.5 -430q-123 -369 -152 -440q-37 -98 -102 -209 q-92 -158 -239.5 -249t-309.5 -91q-305 0 -533.5 255t-228.5 593zM752 1159q0 201 147 354q41 10 98 11q266 0 433 -170t178 -451q-182 -203 -398 -203q-190 0 -324 133t-134 326zM1905 735q0 184 194 236v37q-84 -12 -160 -86q74 254 115 352q45 106 113 180 q94 -143 94 -346q0 -170 -86 -365q-76 -170 -160 -170q-110 0 -110 162z" />
<glyph unicode="Q" horiz-adv-x="2220" d="M195 1044q0 -313 206.5 -530t507.5 -217h62q14 -236 111.5 -376t248.5 -140q170 0 338 256q25 -47 66 -152l49 -186q39 -147 141.5 -238.5t235.5 -91.5q158 0 255 99.5t97 261.5q0 72 -28.5 116.5t-78.5 44.5q-41 0 -69.5 -34.5t-28.5 -83.5q0 -82 86 -107q45 -23 45 -63 q0 -66 -50 -112t-122 -46q-199 0 -338 311l-78 174q-41 68 -59 95q-29 39 -72 84q352 602 353 1062q0 199 -82 295q8 27 8 64q0 94 -50.5 157.5t-125.5 63.5q-117 0 -236 -106q-242 227 -559 227q-340 0 -586.5 -243t-246.5 -585zM238 1004q0 334 241.5 581.5t573.5 247.5 q145 0 270 -53q104 -47 231 -150l-28 -35q-252 -305 -383 -585q-152 -322 -180 -674h-60q-279 0 -472 196t-193 472zM1141 133q0 98 24 203q31 10 176 76q0 -14 -2 -39t-2 -35q0 -18 4 -25h33q0 78 10 127q262 178 406 412q135 221 201 561q31 -57 30 -127q0 -274 -217 -874 q-55 -154 -127 -279q-100 68 -215 68q-160 0 -254 -158l23 -18q92 141 225 141q121 0 189 -90q-57 -119 -142.5 -189.5t-171.5 -70.5q-190 0 -190 317zM1178 379q53 336 170 657q115 315 254 527q6 -6 47 -73t47 -83q-156 -195 -237 -410t-118 -536q-36 -25 -163 -82z M1384 489q57 553 328 879q33 -100 47 -213l37 10q-8 72 -25.5 127.5t-35.5 106.5q76 76 137 76q35 0 86 -27q-63 -348 -202 -577.5t-372 -381.5zM1620 1595q115 123 203 123q55 0 95 -54t40 -134v-47q-47 25 -74 24q-80 0 -164 -75q-28 54 -100 163z" />
<glyph unicode="R" horiz-adv-x="2541" d="M115 700q0 334 219 583t549 286q231 233 604 233q362 0 667 -258q100 68 207 68q51 0 95 -17v-32q-100 14 -95 14q-98 0 -182 -64q182 -188 182 -403q0 -281 -250 -367q109 -100 109 -251q0 -115 -51 -316q-47 -184 -47 -270q0 -133 108 -133q80 0 144 94l22 -19 q-86 -133 -217 -133q-102 0 -163.5 73t-61.5 187q0 143 74 373l59 187q16 43 16 83q0 70 -61 117h-49q-18 0 -38 10.5t-20 22.5q0 33 52 33q27 0 86 -33q158 147 157 410q0 182 -94 305q-84 -86 -154 -260q-72 -182 -106 -406l-31 -199q-61 -393 -294.5 -615t-573.5 -222 q-358 0 -610 268t-252 651zM164 668q0 -340 227 -592t535 -252q250 0 415.5 184.5t311.5 616.5l82 243q84 250 158.5 376t217.5 269q-268 256 -624 256q-309 0 -555 -192h59q258 0 430 -162t205 -432q82 145 82 309q0 109 -31 176l31 15q45 -88 45 -197q0 -182 -127 -366 q-4 -285 -173 -473.5t-419 -188.5q-203 0 -339 132t-136 327q0 57 23 157l34 -6q-25 -90 -24 -151q0 -170 124 -293t294 -123q199 0 370.5 168t202.5 399q-180 -168 -381 -168q-207 0 -346 143.5t-139 348.5q0 150 117 338q-279 -57 -474.5 -307t-195.5 -555zM750 1184 q0 -186 130 -317.5t312 -131.5q223 0 403 193q-10 274 -182 445t-448 171q-39 0 -72 -6q-143 -174 -143 -354z" />
<glyph unicode="S" horiz-adv-x="2086" d="M125 686q0 340 224 590t566 293q213 285 484 284q246 0 473 -235l-27 -25q-225 227 -440 228q-133 0 -252 -71t-188 -191q16 10 39 10q264 0 450 -192.5t186 -463.5q0 -61 -4 -120q4 0 58 18q6 0 6 8q125 817 432 817q61 0 101 -53t40 -135q0 -293 -401 -596v-76 q0 -483 -223.5 -748.5t-626.5 -265.5q-387 0 -642 263.5t-255 660.5zM172 653q0 -348 230.5 -598t553.5 -250q309 0 482.5 226.5t261.5 744.5q-20 -6 -74 -24q-135 -506 -579 -506q-209 0 -345.5 131t-136.5 328q0 88 39 159l25 -12q-25 -98 -25 -147q0 -172 122 -296 t288 -124q188 0 335.5 121.5t227.5 336.5q-70 -8 -139 -8q-256 0 -430 161t-174 394q0 111 53 230q-303 -53 -509 -301.5t-206 -565.5zM877 1290q0 -225 162.5 -373.5t408.5 -148.5q78 0 135 18q18 66 19 146q0 250 -176.5 422t-428.5 172h-57q-63 -123 -63 -236zM1872 899 q342 279 342 588q0 115 -82 115q-115 0 -182.5 -182.5t-77.5 -520.5z" />
<glyph unicode="T" horiz-adv-x="2127" d="M139 705q0 -387 253 -658.5t609 -271.5q387 0 602.5 238.5t317.5 781.5q53 287 110.5 420t159.5 223q121 -27 176 -27q348 0 531 289l-29 14q-74 -98 -144.5 -137t-178.5 -39q-172 0 -654 162q-250 84 -385 84q-332 0 -524 -203q-369 -33 -606.5 -277.5t-237.5 -598.5z M190 662q0 334 215.5 584.5t544.5 301.5q-119 -154 -119 -362q0 -215 132.5 -362.5t322.5 -147.5q170 0 332 137q-59 -227 -222 -374.5t-352 -147.5q-178 0 -299.5 126t-121.5 306q0 33 24 151l-35 9q-25 -78 -24 -160q0 -197 138 -331t341 -134q242 0 408.5 167t193.5 439 q78 127 125 303l-35 11q-37 -145 -90 -240q-14 285 -182 454t-453 189q133 133 332 133q139 0 375 -108l205 -95q55 -18 198 -63q-133 -121 -196.5 -206t-102.5 -181q-33 -82 -119 -356q-150 -481 -324.5 -684t-436.5 -203q-315 0 -545 251t-230 593zM864 1192 q0 211 137 356q276 0 450.5 -170t174.5 -440v-55q-94 -98 -167 -134t-173 -36q-176 0 -299 138t-123 341z" />
<glyph unicode="U" horiz-adv-x="2607" d="M188 963q0 367 288 647t669 280q334 0 559 -201.5t225 -498.5q0 -119 -26 -207q-29 -102 -150 -371l-135 -303l-92 -221q-51 -86 -51 -158q0 -92 81 -92q86 0 197 201q100 180 252 573l123 322q109 283 282 450q182 174 381 175q76 0 127.5 -39t51.5 -97q0 -92 -84 -92 q-61 0 -62 53v54q0 80 -84 80q-152 0 -278.5 -230.5t-286.5 -798.5q-43 -143 -86 -288q-49 -184 -49 -297q0 -92 33.5 -146.5t89.5 -54.5q139 0 215 201l35 -19q-102 -227 -250 -227q-119 0 -198 123t-79 301q0 25 6 63q8 53 11 88q-111 -244 -190 -340t-163 -96 q-78 0 -133 79t-55 198q0 147 145 436l133 264q162 322 162 516q0 244 -184 406t-463 162q-369 0 -638 -270.5t-269 -635.5q0 -285 183 -485.5t443 -200.5q168 0 318.5 85t245.5 237l37 -17q-98 -158 -258 -248t-343 -90q-287 0 -486.5 212.5t-199.5 517.5z" />
<glyph unicode="V" horiz-adv-x="2363" d="M207 903q0 369 286.5 644.5t673.5 275.5q315 0 513 -194.5t198 -506.5q0 -145 -25 -241q0 -25 -57 -269v1q-3 0 -57 -277q-33 -168 -33 -336q0 -90 23 -139q76 348 237.5 705.5t372.5 637.5q170 227 358.5 361.5t335.5 134.5q51 0 84 -23.5t33 -62.5q0 -43 -31 -76 t-70 -33q-57 0 -92 51l-22 33q-27 25 -53 25q-82 0 -250 -148.5t-301 -337.5q-418 -594 -559 -1286l-19 -57l-24 -10q-158 244 -158 495q0 139 67 443q82 369 82 549q0 246 -150.5 387t-408.5 141q-367 0 -631 -262t-264 -633q0 -293 181.5 -492.5t445.5 -199.5t462.5 194.5 t198.5 454.5q0 184 -129 327.5t-297 143.5q-156 0 -303 -133l-14 33q160 133 317 133q188 0 323.5 -149.5t135.5 -360.5q0 -276 -204.5 -478t-481.5 -202q-293 0 -493.5 212t-200.5 525z" />
<glyph unicode="W" horiz-adv-x="2842" d="M221 899q0 -305 191.5 -519t464.5 -214q268 0 466.5 198.5t198.5 466.5q0 213 -129 366t-305 153q-174 0 -309 -133l14 -27q162 127 295 127q162 0 277.5 -141.5t115.5 -335.5q0 -262 -183 -450.5t-441 -188.5t-428 195.5t-170 496.5q0 369 247.5 633t589.5 264 q258 0 409.5 -145.5t151.5 -389.5q0 -119 -69 -448l-60 -283q-25 -131 -24 -241q0 -264 153 -508l23 10q78 498 336 983q8 16 32 57l-26 -57q-84 -291 -84 -485q0 -268 158 -508l16 10q35 242 149.5 553t266.5 577q158 276 358.5 480t312.5 204q33 0 56 -43q39 -57 92 -57 q43 0 77 30t34 70q0 35 -36 58.5t-89 23.5q-219 0 -476 -262q-248 -252 -454 -669q-215 -430 -318 -900q-31 84 -30 168q0 133 43 381q35 186 69 375q16 113 58 352l-33 15l-33 -58q-399 -698 -502 -1233q-25 68 -24 150q0 133 80 541l53 274q35 195 35 326 q0 295 -200 488.5t-505 193.5q-358 0 -626.5 -277.5t-268.5 -646.5z" />
<glyph unicode="X" horiz-adv-x="2660" d="M133 670q0 -375 239.5 -626t598.5 -251q264 0 424.5 128t345.5 482q84 162 168 295q-33 -385 -33 -479q0 -238 114.5 -386t303.5 -148q147 0 243 133l-24 16q-104 -111 -205 -110q-131 0 -185.5 96t-54.5 323q0 33 7 217q4 66 10 170l8 240l10 170v76q20 35 39 49l84 145 q76 131 213 235.5t221 104.5q43 0 43 -32q0 -8 -3 -32t-3 -26q0 -100 90 -100q39 0 70 36t31 87q0 49 -47.5 87t-104.5 38q-281 0 -594 -459q-12 -16 -39 -70v29q0 307 -179 496.5t-468 189.5q-303 0 -500 -244q-330 -4 -576.5 -266t-246.5 -614zM176 637q0 328 220 582 t536 288q-94 -180 -94 -317q0 -207 128 -349.5t314 -142.5q92 0 160.5 29t158.5 104q-43 -244 -205.5 -404.5t-361.5 -160.5q-178 0 -303 123t-125 299q0 82 25 152l-35 6q-27 -76 -27 -158q0 -190 137.5 -325.5t333.5 -135.5q256 0 429 185.5t184 468.5q90 106 139 284h-31 q-55 -152 -108 -225q-29 270 -200 444.5t-419 174.5q-18 0 -28 -9q197 209 446 209q225 0 358.5 -149.5t133.5 -399.5q0 -244 -25 -422q-25 -41 -66 -108q-61 -102 -137 -234q-43 -76 -149 -227q-55 -84 -160 -217q-168 -174 -449 -174q-322 0 -551 236.5t-229 572.5z M870 1180q0 174 111 338h51q233 0 403.5 -170t170.5 -408v-51q-123 -150 -316 -150q-174 0 -297 130.5t-123 310.5z" />
<glyph unicode="Y" horiz-adv-x="2056" d="M127 705q0 291 151.5 504.5t438.5 328.5q164 276 475 277q211 0 351 -116t140 -286t-145 -397q-41 -57 -90 -133q0 -4 -10.5 -24.5t-14.5 -33.5q113 41 260 183l25 -17q-113 -145 -309 -217q-37 -111 -37 -156q0 -66 34 -106.5t85 -40.5q129 0 237 309l72 203 q88 246 267 422t349 176q94 0 155.5 -45t61.5 -117q0 -33 -23.5 -58.5t-59.5 -25.5q-68 0 -68 78q0 2 10 68q0 63 -94 63q-158 0 -283 -165t-178 -447l-43 -227q-174 -918 -901 -918q-356 0 -606 269.5t-250 648.5zM176 662q0 -332 227.5 -586t528.5 -254q475 0 700 690 q-78 -76 -151 -76q-115 0 -184.5 82t-69.5 213h-49q-231 0 -386 150.5t-155 378.5q0 96 43 221q-227 -111 -365.5 -333t-138.5 -486zM674 1260q0 -215 144.5 -359.5t359.5 -144.5l17 4q17 4 32 4q20 156 145 338l109 158q100 145 100 260t-106.5 189.5t-272.5 74.5 q-289 0 -438 -230q106 33 227 33t211 -28.5t211 -102.5l-14 -37q-209 135 -408 135q-115 0 -260 -55q-57 -116 -57 -239z" />
<glyph unicode="Z" horiz-adv-x="2670" d="M139 653q0 379 252 641t619 262q123 0 227 -43q199 289 535 289q102 0 219 -39q41 -14 209 -86q264 -113 407 -112q150 0 260 194l37 -8q-59 -137 -191.5 -228t-267.5 -91q-106 -100 -165.5 -188.5t-112.5 -227.5l-86 -223q-111 -287 -207 -453t-223 -285 q283 -125 491 -125q145 0 253 84t108 193q0 41 -33 41q-12 0 -51 -16.5t-56 -16.5q-94 0 -94 92q0 53 34 90t81 37q66 0 115 -65.5t49 -153.5q0 -172 -141.5 -306t-325.5 -134t-506 211q-287 -211 -600 -211q-354 0 -595 253.5t-241 624.5zM190 629q0 -336 222.5 -577.5 t537.5 -241.5q238 0 500 260q-203 152 -354 178q-76 -14 -95 -15q-70 0 -69 31q0 33 84 33q47 0 80 -14q236 78 371 253t135 414q0 358 -349 523q-25 -61 -24 -93q0 -57 51 -57h43q33 0 58.5 -27.5t25.5 -66.5q0 -37 -32 -63.5t-70 -26.5q-51 0 -89 49t-38 125q0 90 43 168 l-15 6q-94 37 -190 37q-334 0 -580 -264t-246 -631zM1153 264q92 -20 170 -63l137 -62q0 -4 29 -18q188 242 375 610q127 252 237.5 397.5t292.5 303.5q-168 25 -465 161q-162 74 -211 90q-55 18 -125 19q-176 0 -321 -195q379 -176 379 -575q0 -236 -129 -410t-369 -258z " />
<glyph unicode="[" horiz-adv-x="851" d="M18 -643l820 2361h366l4 -16l-10 -39l-14 -10h-221l-779 -2247h228l6 -16l-17 -37l-16 -10h-365z" />
<glyph unicode="\" horiz-adv-x="686" d="M401 1636l15 9h63l10 -13l60 -1908l-19 -15h-106l-6 15z" />
<glyph unicode="]" horiz-adv-x="851" d="M-164 -643l12 39l13 10h223l774 2245h-223l-10 18l18 37l14 12h365v-16l-815 -2364h-369z" />
<glyph unicode="^" horiz-adv-x="2048" d="M412 899l528 563h168l524 -563h-88l-522 449l-524 -449h-86z" />
<glyph unicode="_" horiz-adv-x="1026" d="M0 -383h1026v-100h-1026v100z" />
<glyph unicode="`" horiz-adv-x="1026" d="M477 1010q0 49 53 49q33 0 62 -55l119 -224h-56l-149 172q-29 33 -29 58z" />
<glyph unicode="a" horiz-adv-x="839" d="M-12 201q0 197 202 381q135 123 304 123q98 0 180 -41l8 -11v-6q0 -27 -41 -164l-94 -317q-12 -41 -12 -70q0 -41 38 -41q88 0 435 498q6 -37 6 -31q0 -35 -74 -133q-176 -236 -235 -299q-102 -109 -187 -108q-100 0 -100 102q0 59 59 229q-186 -328 -321 -327 q-76 0 -122 57.5t-46 157.5zM119 143q0 -92 63 -92q68 0 170 144q111 156 223 434q-33 29 -90 28q-102 0 -213 -157q-153 -218 -153 -357z" />
<glyph unicode="b" horiz-adv-x="864" d="M113 258q0 330 282 827q143 254 258 332l11 -4q18 -27 18 -100q0 -270 -109 -512q-98 -219 -325 -494v-41q-2 -20 -2 -22q0 -195 119 -195q98 0 184 141q-31 61 -31 136q0 219 135 350h9q27 -39 26 -105q0 -213 -88 -376q25 -49 64 -50q55 0 147 105q72 86 221 305 q6 -8 6 -31q0 -33 -63 -129q-199 -299 -311 -299q-57 0 -93 47q-119 -162 -252 -161q-96 0 -151 72.5t-55 203.5zM258 395q313 373 313 709q0 74 -18 137q-186 -242 -295 -846z" />
<glyph unicode="c" horiz-adv-x="729" d="M18 231q0 160 132 310q150 170 311 170q78 0 123 -38t45 -98q0 -51 -38 -86.5t-93 -35.5q-39 0 -62 30q76 35 76 105q0 76 -66 76q-72 0 -145 -91q-61 -76 -99 -177t-38 -183q0 -180 162 -180q262 0 583 522q4 -8 4 -25q0 -49 -67 -147q-281 -408 -576 -408 q-111 0 -181.5 71.5t-70.5 184.5z" />
<glyph unicode="d" horiz-adv-x="831" d="M-8 190q0 193 164 363q145 152 297 152q35 0 106 -29l148 573q6 25 12 34t24 13l82 9q18 0 19 -19q0 -2 -2 -10t-2 -14l-291 -1080q-14 -53 -14 -80q0 -53 32 -53q45 0 150 127q88 102 278 371q6 -18 6 -29q0 -41 -124 -211q-129 -176 -199 -244q-88 -84 -166 -83 q-45 0 -72.5 26.5t-27.5 67.5q0 59 47 205q-168 -297 -297 -297q-78 0 -124 56t-46 152zM121 143q0 -94 69 -94q70 0 166 141q106 156 187 416q-35 49 -78 49q-66 0 -164 -118q-180 -218 -180 -394z" />
<glyph unicode="e" horiz-adv-x="724" d="M20 231q0 164 142 328q131 152 280 152q76 0 123 -40t47 -100q0 -96 -114 -194q-125 -104 -336 -170q0 -174 151 -174q123 0 273 131q160 139 315 395q6 -18 6 -24q0 -59 -88 -181q-274 -379 -559 -379q-109 0 -174.5 69.5t-65.5 186.5zM162 254q147 35 241 131 q88 92 89 197q0 80 -68 80q-78 0 -152 -105q-83 -119 -110 -303z" />
<glyph unicode="f" horiz-adv-x="593" d="M-37 244q2 8 10 16l29 43q8 12 16 12q12 0 25 -8l53 -35q215 948 416 1160h10q43 -53 43 -224q0 -428 -313 -753q-12 -117 -55 -246q66 -51 151 -51q100 0 201 106q70 74 231 316q0 -4 2 -15v-12q0 -53 -84 -168q-117 -160 -188 -219q-94 -78 -207 -78q-78 0 -141 43 q63 -190 63 -307q0 -279 -205 -416l-8 4q-27 35 -26 217q0 193 90 535q-113 57 -113 80zM33 -440v-39q145 106 145 315q0 92 -28 184q-117 -280 -117 -460zM276 553q209 225 209 491q0 106 -36 205q-33 -80 -76 -286q-62 -279 -97 -410z" />
<glyph unicode="g" horiz-adv-x="843" d="M-14 203q0 188 170 350q160 152 344 152q182 0 182 -58q0 -45 -66 -262l-122 -405q203 141 520 575q2 -8 2 -27q0 -43 -70 -133q-274 -354 -463 -479q-88 -383 -387 -508l-12 4q-14 23 -14 64q0 133 73 239q70 100 228 201q8 135 108 406q-178 -324 -329 -324 q-72 0 -118 56.5t-46 148.5zM115 156q0 -88 67 -88q70 0 170 137q111 150 221 420q-27 33 -84 32q-88 0 -198 -133q-176 -210 -176 -368zM164 -442q0 -27 8 -58q156 80 199 357q-207 -125 -207 -299z" />
<glyph unicode="h" horiz-adv-x="933" d="M18 12q0 8 7 31l118 430q109 393 242 649q121 236 231 297h7q45 -51 45 -151q0 -307 -371 -703l-84 -313q295 446 436 446q51 0 83 -33.5t32 -84.5q0 -39 -45 -172l-70 -205q-20 -59 -20 -101q0 -35 41 -34q111 0 434 479q4 -16 4 -35q0 -51 -150 -236 q-238 -291 -342 -290q-117 0 -116 123q0 45 71 251q66 188 66 220q0 43 -37 43q-86 0 -293 -310q-66 -98 -127 -225q-37 -76 -59 -80l-78 -14q-2 0 -4 -2h-6q-15 0 -15 20zM322 657q238 254 237 504q0 82 -24 125q-63 -74 -115 -237q-41 -124 -98 -392z" />
<glyph unicode="i" horiz-adv-x="505" d="M37 113q0 35 31 131l129 403q14 33 41 35l75 16h6q14 0 15 -16q0 -2 -4 -12l-140 -430q-29 -88 -28 -134q0 -57 51 -57q119 0 469 512q0 -4 2 -12t2 -14q0 -49 -111 -199q-258 -348 -419 -348q-119 0 -119 125zM254 934q0 16 24.5 58t34.5 42t27 -12q27 -18 39 -24.5 t25.5 -13.5t13.5 -21q0 -92 -41 -93q-41 0 -82 23t-41 41z" />
<glyph unicode="j" horiz-adv-x="497" d="M-76 -442q0 313 115 448q10 119 45 252l106 395q8 35 37 39l80 15h8q18 0 19 -19q-4 -14 -4 -18l-221 -746q184 117 573 629q6 -14 6 -25q0 -49 -113 -186q-305 -373 -481 -481l-94 -316q-33 -109 -45 -127l-6 2q-25 50 -25 138zM270 934q0 16 22.5 58t33.5 42 q10 0 26 -12q29 -20 40 -25.5t24.5 -12.5t13.5 -21q0 -92 -39 -93q-41 0 -81 23t-40 41z" />
<glyph unicode="k" horiz-adv-x="937" d="M8 2q0 2 6 25l183 647q84 299 198 500q106 188 215 251l13 -2q41 -39 41 -143q0 -315 -367 -709l-84 -323q272 457 475 457q57 0 95 -35t38 -88q0 -139 -315 -281q70 -225 158 -225q113 0 444 483q6 -10 6 -29q0 -39 -86 -157q-145 -201 -233 -285q-100 -96 -177 -96 q-78 0 -147 104q-76 115 -76 174q0 20 66 52q231 106 231 213q0 72 -80 71q-129 0 -352 -354q-68 -106 -104 -209q-12 -33 -50 -41l-69 -14q-2 0 -4 -2h-6q-19 0 -19 16zM322 664q238 250 237 477q0 90 -24 162q-63 -57 -113 -224q-28 -91 -100 -415z" />
<glyph unicode="l" horiz-adv-x="647" d="M109 231q0 102 73 416q55 240 178 492q111 227 199 284l14 2q33 -33 33 -147q0 -434 -342 -875q-20 -92 -20 -172q0 -176 98 -176q76 0 195 127q104 115 282 379l6 -37q0 -39 -108 -188q-258 -356 -420 -356q-86 0 -137 65t-51 186zM272 485q225 293 226 572 q0 80 -19 186q-154 -297 -207 -758z" />
<glyph unicode="m" horiz-adv-x="1335" d="M0 2q0 18 2 29l188 616q6 23 31 29l82 18h10q16 0 17 -18q0 -6 -2 -12l-127 -416q135 238 223 342q98 115 182 115q111 0 111 -99q0 -53 -92 -362q276 455 432 454q102 0 102 -116q0 -47 -31 -136q-61 -178 -63 -182q-37 -119 -37 -151q0 -45 45 -45q51 0 158 122 q90 102 274 363q2 -6 2 -29q0 -47 -102 -184q-147 -197 -217 -262q-96 -92 -184 -92q-45 0 -75 31.5t-30 78.5q0 82 69.5 270.5t69.5 215.5q0 41 -43 41q-92 0 -321 -379q-35 -57 -92 -176q-31 -63 -54 -68l-69 -12h-6q-23 0 -23 10q0 16 6 29l135 491q14 51 15 70 q0 41 -33 41q-88 0 -299 -363q-45 -78 -98 -194q-31 -68 -47 -70l-89 -14h-6q-14 0 -14 14z" />
<glyph unicode="n" horiz-adv-x="927" d="M0 8q0 18 2 25l182 596q20 47 49 53l70 16q4 2 16 2q14 0 15 -18q0 -2 -4 -12l-140 -443q309 477 459 478q47 0 80 -34t33 -83q0 -57 -51 -203q-86 -246 -86 -279t39 -32q92 0 432 479q6 -31 6 -29q0 -41 -150 -235q-233 -303 -346 -303q-49 0 -83 35.5t-34 91.5 q0 51 86 305q53 158 54 170q0 31 -35 30q-78 0 -287 -292q-106 -152 -145 -244q-10 -27 -21.5 -50.5t-38.5 -29.5l-75 -10h-9q-18 0 -18 16z" />
<glyph unicode="o" horiz-adv-x="858" d="M12 233q0 166 145.5 322t309.5 156q96 0 163.5 -74t67.5 -188q0 -109 -80 -252q10 -41 52 -41q45 0 135 106q68 78 233 309q6 -31 6 -24q0 -43 -88 -162q-123 -166 -188 -229q-80 -80 -137 -80q-43 0 -78 37q-139 -139 -283 -140q-117 0 -187.5 70.5t-70.5 189.5z M162 197q0 -178 129 -179q102 0 215 172q-12 35 -12 76q0 127 98 258q-29 143 -133 144q-63 0 -123 -58q-78 -76 -126 -191.5t-48 -221.5z" />
<glyph unicode="p" horiz-adv-x="894" d="M-63 -354q0 274 159 563l66 352q27 119 65 127l88 19q14 0 15 -21v-10l-58 -236q199 270 346 271q74 0 118 -48.5t44 -127.5q0 -227 -327 -408q37 -59 114 -59q100 0 228 129q115 117 284 378q6 -8 6 -26q0 -57 -116 -209q-141 -182 -236 -258q-111 -88 -221 -88 q-84 0 -150.5 39t-66.5 69q0 18 33 35q41 20 80 41q223 131 223 322q0 106 -94 106q-121 0 -291 -287q-174 -774 -271 -919h-8q-30 99 -30 246zM-18 -334q0 -59 16 -102q49 96 82 516q-98 -160 -98 -414z" />
<glyph unicode="q" horiz-adv-x="825" d="M-20 207q0 158 135 311q164 186 362 187q184 0 185 -58q0 -25 -82 -289l-74 -237q29 -18 59 -19q63 0 168 115q90 100 258 342q10 -16 10 -31q0 -45 -102 -176q-127 -164 -184 -219q-82 -76 -148 -76q-31 0 -49 6v-24q0 -336 -305 -631l-10 4q-6 16 -6 64q0 125 67 334 q43 141 172 469q-164 -285 -293 -285q-74 0 -118.5 57.5t-44.5 155.5zM100 156q0 -94 72 -95q143 0 381 568q-27 29 -80 28q-92 0 -178 -98q-195 -219 -195 -403zM231 -498q111 96 178.5 242.5t67.5 298.5v12q-230 -430 -246 -553z" />
<glyph unicode="r" horiz-adv-x="661" d="M139 565q0 61 37 110.5t88 53.5l2 -6q-23 -49 -22 -66q0 -51 59 -51q45 0 244 70l8 -6q-227 -481 -227 -555q0 -57 55 -58q55 0 166 131q72 86 285 383q6 -8 6 -24q0 -35 -31 -84q-6 -10 -80 -111q-154 -211 -219 -278q-96 -94 -180 -94q-133 0 -133 129q0 145 215 464 q-125 -80 -193 -79q-80 -1 -80 71z" />
<glyph unicode="s" horiz-adv-x="737" d="M2 94q0 39 33 64.5t84 25.5q29 0 57 -12v-6q-39 -25 -39 -70q0 -70 107 -69q78 0 126 36.5t48 92.5q0 47 -33 86q-23 27 -90 77q-86 68 -109 89q-43 45 -43 92q0 80 90.5 145.5t219.5 65.5q141 0 141 -95q0 -37 -39 -68.5t-102 -35.5l-7 12q39 35 39 76q0 61 -84 62 q-59 0 -98 -29t-39 -72q0 -45 47 -88l119 -90q106 -86 107 -164q0 -59 -60 -125q162 23 436 481q8 -6 9 -22q0 -63 -112 -214t-200 -220q-102 -80 -215 -92q-111 -47 -192 -47q-90 0 -145.5 32.5t-55.5 81.5z" />
<glyph unicode="t" horiz-adv-x="518" d="M49 109q0 66 41 204l86 293h-113l-2 12l7 29l12 10h115l84 265q12 41 40 47l72 16h10q10 0 11 -14v-15l-84 -299h106l2 -10l-6 -31l-8 -10h-109l-123 -418q-14 -49 -14 -92q0 -47 49 -47q131 0 457 510q6 -10 6 -29q0 -49 -96 -182q-266 -369 -410 -368q-133 0 -133 129z " />
<glyph unicode="u" horiz-adv-x="921" d="M20 90q0 37 29 125l139 428q6 20 12.5 27.5t24.5 11.5l84 16h10q14 0 15 -16q-4 -14 -4 -18l-164 -474q-16 -66 -16 -88q0 -41 38 -41q45 0 148 109q113 123 246 330q18 31 63 125q25 51 53 57l76 18h6q18 0 19 -18l-6 -18l-158 -467q-18 -55 -19 -91q0 -43 39 -43 q98 0 437 510q10 -14 10 -26q0 -47 -121 -217q-248 -348 -383 -348q-109 0 -109 120q0 68 99 340q-309 -461 -463 -460q-105 -1 -105 108z" />
<glyph unicode="v" horiz-adv-x="862" d="M137 240q0 98 29 346q6 61 10 67q6 16 31 23l76 18q2 2 6 4q18 0 18 -28q0 -23 -23.5 -168.5t-23.5 -263.5q0 -176 86 -177q98 0 184 170q-12 53 -12 95q0 90 59.5 189t161.5 173l13 -2q6 -12 6 -33q0 -195 -172 -428q18 -82 82 -82q55 0 145 105q53 66 219 299 q6 -6 6 -29q0 -39 -110 -188q-172 -233 -271 -234q-63 0 -104 82q-137 -199 -270 -198q-146 0 -146 260z" />
<glyph unicode="w" horiz-adv-x="1325" d="M57 121q0 47 23 131l108 401q2 25 31 29l82 12q4 0 7 2t5 2q12 0 13 -12q0 14 -7 -22l-116 -416q-25 -88 -25 -121q0 -66 60 -66q109 0 309 355q29 51 86 188q31 70 65 76l78 14h10q8 0 9 -12q0 -12 -2 -25l-107 -362q-29 -98 -29 -162q0 -84 72 -84q94 0 260 203 q-8 74 -8 90q0 106 43 201.5t111 148.5l10 -4q23 -29 22 -96q0 -152 -129 -344q10 -104 88 -105q59 0 150 103q78 88 217 303q2 -8 2 -27q0 -53 -104 -196q-166 -229 -269 -230q-90 0 -125 105q-203 -221 -329 -221q-131 0 -131 151q0 57 57 281q-250 -430 -418 -430 q-119 0 -119 139z" />
<glyph unicode="x" horiz-adv-x="892" d="M-90 -25q0 86 84 144l6 -4q-6 -55 -6 -39q0 -51 49 -51q39 0 96 71l144 183l-168 374q-2 4 -2 11q0 16 18 18l76 12q2 0 4 2t4 2q12 0 23 -24l122 -273l162 193q88 104 154 104q35 0 60.5 -29.5t25.5 -74.5q0 -68 -52.5 -144.5t-138.5 -123.5l-6 8q109 117 109 213 q0 53 -56 53q-45 0 -157 -141l-78 -99l76 -163q59 -129 135 -129q72 0 184 122q96 104 279 363q6 -10 6 -29q0 -39 -113 -188q-268 -354 -397 -354q-78 0 -135 63q-51 55 -111 193l-164 -205q-102 -129 -168 -129q-65 -1 -65 71z" />
<glyph unicode="y" horiz-adv-x="921" d="M33 119q0 29 28 121l129 413q8 25 43 29l86 10q10 0 11 -10q0 2 -4 -18l-148 -467q-12 -39 -12 -84q0 -39 41 -39q113 0 334 348q47 74 104 192q31 66 53 68l88 12q14 0 15 -12q0 2 -70 -197q-88 -246 -156 -522q215 176 515 586q6 -25 6 -27q0 -49 -121 -196 q-262 -319 -416 -432q-106 -393 -383 -494l-12 2q-14 47 -14 86q0 221 305 442q10 82 120 473q-248 -403 -438 -403q-104 0 -104 119zM240 -440q0 -31 14 -72q156 80 199 381q-213 -143 -213 -309z" />
<glyph unicode="z" horiz-adv-x="729" d="M0 -8q0 4 2 16l68 129q12 25 32 25h23l348 379q-154 35 -188 34q-43 0 -71 -49t-44 -49q-33 0 -33 21q0 14 10 39q14 37 19 49q23 80 31 90q16 29 61 29q18 0 109 -17q115 -23 208 -35q51 57 74 58q25 0 25 -11q0 -14 -37 -53l-465 -497q240 -66 289 -66q74 0 178 121 q78 88 254 348q6 -18 6 -43q0 -33 -147 -227q-123 -162 -197 -228q-86 -80 -160 -80q-29 0 -119 23q-111 25 -186 35q-39 -51 -76 -51q-14 0 -14 10z" />
<glyph unicode="{" horiz-adv-x="1230" d="M213 668v69q203 14 271.5 86t68.5 260v258q0 236 95 327t353 91h15v-59q-184 0 -244.5 -67.5t-60.5 -252.5v-172q0 -254 -64 -352q-74 -115 -295 -156q221 -39 295 -153q63 -100 64 -352v-177q0 -182 57 -243q61 -68 248 -70v-57h-15q-258 0 -353 90t-95 325v259 q0 184 -70.5 258t-269.5 88z" />
<glyph unicode="|" horiz-adv-x="1230" d="M549 -641v2458h131v-2458h-131z" />
<glyph unicode="}" horiz-adv-x="1230" d="M215 -295q186 2 248 70q59 61 59 243v177q0 252 62 352q72 115 290 153q-219 41 -290 156q-61 98 -62 352v172q0 182 -63.5 251t-243.5 69v59h10q262 0 356.5 -90t94.5 -328v-258q0 -188 69.5 -259.5t270.5 -86.5v-69q-201 -14 -270.5 -88t-69.5 -258v-259 q0 -238 -94.5 -326.5t-356.5 -88.5h-10v57z" />
<glyph unicode="~" horiz-adv-x="1705" d="M178 471v111q213 147 387 147q92 0 287 -67q211 -74 293 -74q158 0 385 162v-113q-201 -143 -385 -143q-94 0 -293 67q-205 70 -287 70q-158 0 -387 -160z" />
<glyph unicode="&#xa1;" horiz-adv-x="681" d="M209 8q0 2 2 9.5t2 13.5l436 1032l21 -4l4 -12l-283 -1014q-10 -33 -39 -35l-127 -6q-16 0 -16 16zM610 1249q0 47 66 47q94 0 94 -41q0 -106 -25 -106q-6 0 -104 18q-10 0 -20.5 24.5t-10.5 57.5z" />
<glyph unicode="&#xa2;" d="M170 535q0 219 184 380q104 92 250 99l53 227l66 27l-61 -258q117 -18 163 -66v-16l-26 -35h-13q-80 70 -133 72l-164 -676q141 10 263 176h12l43 -49v-8q-115 -152 -330 -164l-59 -246l-64 -23l64 265q-248 39 -248 295zM297 492q0 -166 133 -201l162 678 q-84 -6 -150 -88q-145 -180 -145 -389z" />
<glyph unicode="&#xa6;" horiz-adv-x="1026" d="M459 -348v756h108v-756h-108zM459 674v758h108v-758h-108z" />
<glyph unicode="&#xa8;" horiz-adv-x="1026" d="M395 858q0 111 29 111q14 0 106 -19q35 -6 35 -86q0 -45 -76 -45q-94 0 -94 39zM723 858q0 111 29 111q14 0 106 -19q31 -6 31 -86q0 -45 -72 -45q-94 0 -94 39z" />
<glyph unicode="&#xaa;" horiz-adv-x="839" d="M-12 201q0 197 202 381q135 123 304 123q98 0 180 -41l8 -11v-6q0 -27 -41 -164l-94 -317q-12 -41 -12 -70q0 -41 38 -41q88 0 435 498q6 -37 6 -31q0 -35 -74 -133q-176 -236 -235 -299q-102 -109 -187 -108q-100 0 -100 102q0 59 59 229q-186 -328 -321 -327 q-76 0 -122 57.5t-46 157.5zM119 143q0 -92 63 -92q68 0 170 144q111 156 223 434q-33 29 -90 28q-102 0 -213 -157q-153 -218 -153 -357z" />
<glyph unicode="&#xab;" horiz-adv-x="1705" d="M254 51v99h1200v-99h-1200zM254 723v98h551v346h98v-346h551v-98h-551v-346h-98v346h-551z" />
<glyph unicode="&#xad;" horiz-adv-x="1705" d="M254 561v96h1200v-96h-1200z" />
<glyph unicode="&#x2212;" horiz-adv-x="1705" d="M254 561v96h1200v-96h-1200z" />
<glyph unicode="&#xb1;" horiz-adv-x="1705" d="M254 51v99h1200v-99h-1200zM254 723v98h551v346h98v-346h551v-98h-551v-346h-98v346h-551z" />
<glyph unicode="&#xb2;" d="M20 0v12l138 207q12 12 26 12q23 0 31 -6q455 500 455 770q0 143 -127 144q-90 0 -166 -86q-82 -94 -101 -236l-6 -10h-26l-6 12q16 174 118 283q96 102 226 102q106 0 175.5 -68.5t69.5 -170.5q0 -117 -149 -303q-92 -115 -418 -449q80 -37 158 -72q117 -51 162 -51 q90 0 194 150l6 4l19 -11l2 -8q-143 -250 -271 -250q-41 0 -143 39q-170 66 -221 82l-115 -110h-8z" />
<glyph unicode="&#xb3;" d="M55 27v10l8 14l11 4q80 -35 157 -35q111 0 197 68t137 170t51 201q0 80 -51 129t-135 49q-59 0 -141 -31l-17 10l-6 19l6 8q385 172 385 385q0 49 -29.5 81t-74.5 32q-129 0 -246 -185h-12l-19 13l-4 12q141 227 328 227q92 0 146.5 -51t54.5 -131q0 -197 -377 -344 q160 0 250 -69.5t90 -184.5q0 -168 -184 -332q-133 -117 -316 -116q-141 0 -209 47z" />
<glyph unicode="&#xb4;" horiz-adv-x="1026" d="M485 780l279 246q37 33 63 33q47 0 47 -51q0 -33 -53 -64l-280 -164h-56z" />
<glyph unicode="&#xb8;" horiz-adv-x="1026" d="M74 -313l14 34q123 -61 213 -61q117 0 117 92q0 84 -117 84q-37 0 -76 -8l60 172h51l-33 -109h27q18 2 24 3q170 0 170 -146q0 -143 -188 -143q-151 0 -262 82z" />
<glyph unicode="&#xb9;" d="M272 12q0 -2 7 19l309 989q-127 -145 -275 -258h-12l-12 18l2 13q170 147 250 241q8 10 71 103q31 45 62 47l65 6q12 0 13 -12q0 -12 -7 -23l-327 -1116q-6 -20 -12.5 -28.5t-22.5 -8.5l-88 -4q-23 0 -23 14z" />
<glyph unicode="&#xba;" horiz-adv-x="858" d="M12 233q0 166 145.5 322t309.5 156q96 0 163.5 -74t67.5 -188q0 -109 -80 -252q10 -41 52 -41q45 0 135 106q68 78 233 309q6 -31 6 -24q0 -43 -88 -162q-123 -166 -188 -229q-80 -80 -137 -80q-43 0 -78 37q-139 -139 -283 -140q-117 0 -187.5 70.5t-70.5 189.5z M162 197q0 -178 129 -179q102 0 215 172q-12 35 -12 76q0 127 98 258q-29 143 -133 144q-63 0 -123 -58q-78 -76 -126 -191.5t-48 -221.5z" />
<glyph unicode="&#xbb;" horiz-adv-x="952" d="M131 68q0 12 25 34l247 228l-63 256q-6 25 -6 30q0 25 18 25q23 0 39 -35l139 -293l-340 -252q-25 -18 -38 -18q-21 0 -21 25zM434 68q0 10 27 34l250 228l-64 256q-6 14 -6 30q0 25 16 25q18 0 41 -35l136 -293l-340 -252q-18 -18 -35 -18q-25 0 -25 25z" />
<glyph unicode="&#xbf;" horiz-adv-x="933" d="M240 248q0 127 96 291q29 49 229 331q109 154 146 275l8 4l24 -8v-13q-23 -78 -151 -335q-203 -406 -203 -568q0 -186 146 -186q186 0 270 344l6 8l23 -2l6 -10q-33 -188 -125 -290.5t-221 -102.5q-109 0 -181.5 74.5t-72.5 187.5zM655 1319q0 33 19 41q12 6 49 6 q94 0 94 -41q0 -104 -29 -104q2 0 -102 16q-31 8 -31 82z" />
<glyph unicode="&#xc0;" horiz-adv-x="2514" d="M150 686q0 -369 231 -626t559 -257q281 0 458 163t290 526q131 31 241 79q-31 -160 -31 -307q0 -279 105.5 -444.5t282.5 -165.5q211 0 211 203h-27q0 -170 -150 -170q-236 0 -235 428q0 266 43 471q80 -14 145 -94l27 14q-53 84 -172 110q45 356 45 549 q0 299 -172 480.5t-451 181.5q-338 0 -518 -256h-67q-332 0 -573.5 -262.5t-241.5 -622.5zM197 649q0 365 235.5 625t575.5 268q-88 -145 -88 -321q0 -211 130 -356.5t318 -145.5q92 0 197 49q-43 -160 -140 -268q-70 8 -120 71l-27 -24q41 -49 127 -80q-180 -178 -379 -178 q-170 0 -290 123t-120 299q0 88 21 151l-27 6q-29 -111 -28 -149q0 -203 135 -338t334 -135q256 0 432 213q23 0 125 18q-119 -340 -274.5 -487.5t-399.5 -147.5q-303 0 -520 238.5t-217 568.5zM950 1221q0 160 101 321q246 -35 392 -198.5t146 -405.5q0 -70 -8 -119 q-109 -70 -213 -69q-174 0 -296 136t-122 335zM1071 1571q172 213 430 213q215 0 356.5 -140.5t163.5 -375.5q-92 -43 -135 -110.5t-139 -319.5l-123 -322q-114 -15 -114 -16h1q70 111 113 305q150 123 229 385h-32q-47 -178 -189 -346v69q0 262 -150.5 440.5t-410.5 217.5z M1696 530q109 365 175 508.5t150 190.5v-49q0 -23 -36 -267l-31 -202q0 -6 -10 -39q-10 -39 -15 -72q-33 -8 -137 -43q-76 -27 -96 -27zM1521 2136q0 49 53 49q33 0 62 -55l119 -224h-56l-149 172q-29 33 -29 58z" />
<glyph unicode="&#xc1;" horiz-adv-x="2514" d="M150 686q0 -369 231 -626t559 -257q281 0 458 163t290 526q131 31 241 79q-31 -160 -31 -307q0 -279 105.5 -444.5t282.5 -165.5q211 0 211 203h-27q0 -170 -150 -170q-236 0 -235 428q0 266 43 471q80 -14 145 -94l27 14q-53 84 -172 110q45 356 45 549 q0 299 -172 480.5t-451 181.5q-338 0 -518 -256h-67q-332 0 -573.5 -262.5t-241.5 -622.5zM197 649q0 365 235.5 625t575.5 268q-88 -145 -88 -321q0 -211 130 -356.5t318 -145.5q92 0 197 49q-43 -160 -140 -268q-70 8 -120 71l-27 -24q41 -49 127 -80q-180 -178 -379 -178 q-170 0 -290 123t-120 299q0 88 21 151l-27 6q-29 -111 -28 -149q0 -203 135 -338t334 -135q256 0 432 213q23 0 125 18q-119 -340 -274.5 -487.5t-399.5 -147.5q-303 0 -520 238.5t-217 568.5zM950 1221q0 160 101 321q246 -35 392 -198.5t146 -405.5q0 -70 -8 -119 q-109 -70 -213 -69q-174 0 -296 136t-122 335zM1071 1571q172 213 430 213q215 0 356.5 -140.5t163.5 -375.5q-92 -43 -135 -110.5t-139 -319.5l-123 -322q-114 -15 -114 -16h1q70 111 113 305q150 123 229 385h-32q-47 -178 -189 -346v69q0 262 -150.5 440.5t-410.5 217.5z M1696 530q109 365 175 508.5t150 190.5v-49q0 -23 -36 -267l-31 -202q0 -6 -10 -39q-10 -39 -15 -72q-33 -8 -137 -43q-76 -27 -96 -27zM1058 1886l279 246q37 33 63 33q47 0 47 -51q0 -33 -53 -64l-280 -164h-56z" />
<glyph unicode="&#xc2;" horiz-adv-x="2514" d="M150 686q0 -369 231 -626t559 -257q281 0 458 163t290 526q131 31 241 79q-31 -160 -31 -307q0 -279 105.5 -444.5t282.5 -165.5q211 0 211 203h-27q0 -170 -150 -170q-236 0 -235 428q0 266 43 471q80 -14 145 -94l27 14q-53 84 -172 110q45 356 45 549 q0 299 -172 480.5t-451 181.5q-338 0 -518 -256h-67q-332 0 -573.5 -262.5t-241.5 -622.5zM197 649q0 365 235.5 625t575.5 268q-88 -145 -88 -321q0 -211 130 -356.5t318 -145.5q92 0 197 49q-43 -160 -140 -268q-70 8 -120 71l-27 -24q41 -49 127 -80q-180 -178 -379 -178 q-170 0 -290 123t-120 299q0 88 21 151l-27 6q-29 -111 -28 -149q0 -203 135 -338t334 -135q256 0 432 213q23 0 125 18q-119 -340 -274.5 -487.5t-399.5 -147.5q-303 0 -520 238.5t-217 568.5zM950 1221q0 160 101 321q246 -35 392 -198.5t146 -405.5q0 -70 -8 -119 q-109 -70 -213 -69q-174 0 -296 136t-122 335zM1071 1571q172 213 430 213q215 0 356.5 -140.5t163.5 -375.5q-92 -43 -135 -110.5t-139 -319.5l-123 -322q-114 -15 -114 -16h1q70 111 113 305q150 123 229 385h-32q-47 -178 -189 -346v69q0 262 -150.5 440.5t-410.5 217.5z M1696 530q109 365 175 508.5t150 190.5v-49q0 -23 -36 -267l-31 -202q0 -6 -10 -39q-10 -39 -15 -72q-33 -8 -137 -43q-76 -27 -96 -27zM1243 1845l315 271h101l160 -271h-52l-163 183l-297 -183h-64z" />
<glyph unicode="&#xc3;" horiz-adv-x="2514" d="M150 686q0 -369 231 -626t559 -257q281 0 458 163t290 526q131 31 241 79q-31 -160 -31 -307q0 -279 105.5 -444.5t282.5 -165.5q211 0 211 203h-27q0 -170 -150 -170q-236 0 -235 428q0 266 43 471q80 -14 145 -94l27 14q-53 84 -172 110q45 356 45 549 q0 299 -172 480.5t-451 181.5q-338 0 -518 -256h-67q-332 0 -573.5 -262.5t-241.5 -622.5zM197 649q0 365 235.5 625t575.5 268q-88 -145 -88 -321q0 -211 130 -356.5t318 -145.5q92 0 197 49q-43 -160 -140 -268q-70 8 -120 71l-27 -24q41 -49 127 -80q-180 -178 -379 -178 q-170 0 -290 123t-120 299q0 88 21 151l-27 6q-29 -111 -28 -149q0 -203 135 -338t334 -135q256 0 432 213q23 0 125 18q-119 -340 -274.5 -487.5t-399.5 -147.5q-303 0 -520 238.5t-217 568.5zM950 1221q0 160 101 321q246 -35 392 -198.5t146 -405.5q0 -70 -8 -119 q-109 -70 -213 -69q-174 0 -296 136t-122 335zM1071 1571q172 213 430 213q215 0 356.5 -140.5t163.5 -375.5q-92 -43 -135 -110.5t-139 -319.5l-123 -322q-114 -15 -114 -16h1q70 111 113 305q150 123 229 385h-32q-47 -178 -189 -346v69q0 262 -150.5 440.5t-410.5 217.5z M1696 530q109 365 175 508.5t150 190.5v-49q0 -23 -36 -267l-31 -202q0 -6 -10 -39q-10 -39 -15 -72q-33 -8 -137 -43q-76 -27 -96 -27zM1241 1892q51 176 170 176q41 0 70 -8l145 -41q23 -6 48 -6q76 0 94 82h45q-45 -182 -170 -183q-18 0 -55 11l-142 39q-37 10 -61 10 q-76 0 -94 -80h-50z" />
<glyph unicode="&#xc4;" horiz-adv-x="2514" d="M150 686q0 -369 231 -626t559 -257q281 0 458 163t290 526q131 31 241 79q-31 -160 -31 -307q0 -279 105.5 -444.5t282.5 -165.5q211 0 211 203h-27q0 -170 -150 -170q-236 0 -235 428q0 266 43 471q80 -14 145 -94l27 14q-53 84 -172 110q45 356 45 549 q0 299 -172 480.5t-451 181.5q-338 0 -518 -256h-67q-332 0 -573.5 -262.5t-241.5 -622.5zM197 649q0 365 235.5 625t575.5 268q-88 -145 -88 -321q0 -211 130 -356.5t318 -145.5q92 0 197 49q-43 -160 -140 -268q-70 8 -120 71l-27 -24q41 -49 127 -80q-180 -178 -379 -178 q-170 0 -290 123t-120 299q0 88 21 151l-27 6q-29 -111 -28 -149q0 -203 135 -338t334 -135q256 0 432 213q23 0 125 18q-119 -340 -274.5 -487.5t-399.5 -147.5q-303 0 -520 238.5t-217 568.5zM950 1221q0 160 101 321q246 -35 392 -198.5t146 -405.5q0 -70 -8 -119 q-109 -70 -213 -69q-174 0 -296 136t-122 335zM1071 1571q172 213 430 213q215 0 356.5 -140.5t163.5 -375.5q-92 -43 -135 -110.5t-139 -319.5l-123 -322q-114 -15 -114 -16h1q70 111 113 305q150 123 229 385h-32q-47 -178 -189 -346v69q0 262 -150.5 440.5t-410.5 217.5z M1696 530q109 365 175 508.5t150 190.5v-49q0 -23 -36 -267l-31 -202q0 -6 -10 -39q-10 -39 -15 -72q-33 -8 -137 -43q-76 -27 -96 -27zM1255 1943q0 111 29 111q14 0 106 -19q35 -6 35 -86q0 -45 -76 -45q-94 0 -94 39zM1583 1943q0 111 29 111q14 0 106 -19q31 -6 31 -86 q0 -45 -72 -45q-94 0 -94 39z" />
<glyph unicode="&#xc5;" horiz-adv-x="2514" d="M150 686q0 -369 231 -626t559 -257q281 0 458 163t290 526q131 31 241 79q-31 -160 -31 -307q0 -279 105.5 -444.5t282.5 -165.5q211 0 211 203h-27q0 -170 -150 -170q-236 0 -235 428q0 266 43 471q80 -14 145 -94l27 14q-53 84 -172 110q45 356 45 549 q0 299 -172 480.5t-451 181.5q-338 0 -518 -256h-67q-332 0 -573.5 -262.5t-241.5 -622.5zM197 649q0 365 235.5 625t575.5 268q-88 -145 -88 -321q0 -211 130 -356.5t318 -145.5q92 0 197 49q-43 -160 -140 -268q-70 8 -120 71l-27 -24q41 -49 127 -80q-180 -178 -379 -178 q-170 0 -290 123t-120 299q0 88 21 151l-27 6q-29 -111 -28 -149q0 -203 135 -338t334 -135q256 0 432 213q23 0 125 18q-119 -340 -274.5 -487.5t-399.5 -147.5q-303 0 -520 238.5t-217 568.5zM950 1221q0 160 101 321q246 -35 392 -198.5t146 -405.5q0 -70 -8 -119 q-109 -70 -213 -69q-174 0 -296 136t-122 335zM1071 1571q172 213 430 213q215 0 356.5 -140.5t163.5 -375.5q-92 -43 -135 -110.5t-139 -319.5l-123 -322q-114 -15 -114 -16h1q70 111 113 305q150 123 229 385h-32q-47 -178 -189 -346v69q0 262 -150.5 440.5t-410.5 217.5z M1696 530q109 365 175 508.5t150 190.5v-49q0 -23 -36 -267l-31 -202q0 -6 -10 -39q-10 -39 -15 -72q-33 -8 -137 -43q-76 -27 -96 -27z" />
<glyph unicode="&#xc7;" horiz-adv-x="2009" d="M188 1026q0 340 244 579.5t584 239.5q342 0 547 -231q129 121 247 121q86 0 136.5 -86t50.5 -236q0 -287 -187 -582q43 -68 58 -108q18 -55 18 -141q0 -215 -127 -447.5t-299 -341.5q59 -104 113.5 -164.5t159.5 -134.5l-25 -35q-113 84 -164 142q-61 68 -119 178 q-37 -12 -75 -12q-23 0 -47 4l-29 -93h26q18 2 25 3q170 0 170 -146q0 -141 -186 -141q-154 0 -265 82l15 32q129 -61 213 -61q119 0 119 92q0 84 -119 84q-35 0 -76 -8l59 170q-119 45 -196.5 183t-83.5 317q-35 -6 -76 -6q-303 0 -507 211.5t-204 535.5zM238 991 q0 -281 191.5 -479.5t459.5 -198.5h86q33 715 557 1270q-166 221 -488 221q-324 0 -565 -242.5t-241 -570.5zM1149 152q0 -352 199 -353q37 0 75 19q-49 117 -67 198q-18 90 -19 228q0 37 6.5 82t6.5 77l-197 -90q-4 -69 -4 -161zM1171 371q113 27 189 75q96 455 321 455 q51 0 76 -31q184 377 185 629q0 90 -37 152.5t-90 62.5q-96 0 -209 -160q39 -41 102 -176l-37 -18q-31 72 -41 90q-23 41 -53 80q-295 -438 -397 -1106zM1384 215q0 -221 66 -393q147 102 250.5 347t103.5 499q0 82 -22 133q-158 -213 -387 -377q-11 -98 -11 -209zM1399 479 q231 154 342 365q-27 20 -60 20q-186 0 -282 -385z" />
<glyph unicode="&#xc8;" horiz-adv-x="2664" d="M139 700q0 383 246 648.5t604 265.5q176 190 512 190q135 0 385 -78l164 -51q334 -104 492 -104q127 0 181 35.5t54 119.5q0 18 -10 46l33 6q10 -33 10 -66q0 -131 -105.5 -222t-253.5 -91q-84 0 -247 43l-47 6q-92 -88 -141.5 -221t-106.5 -453q94 27 159 27 q74 0 137.5 -39t63.5 -82q0 -39 -33 -39q-20 0 -32 45q-27 76 -136 76q-63 0 -170 -31q-53 -283 -113.5 -432t-160.5 -256q199 -127 512 -127q139 0 250 82t111 186q0 23 -13.5 39.5t-27.5 16.5q-23 -10 -47.5 -21.5t-53.5 -11.5q-37 0 -65.5 33.5t-28.5 78.5t33 77t80 32 q68 0 109.5 -62.5t41.5 -158.5q0 -193 -129 -324t-311 -131q-121 0 -236.5 49t-292.5 172q-274 -201 -575 -200q-346 0 -594 274t-248 653zM190 680q0 -350 228.5 -606t544.5 -256q270 0 462 245q-160 111 -250 148t-194 37h-49q-18 -8 -51 -8q-35 0 -35 32q0 35 43 35 q25 0 49 -6q16 0 39.5 -5t36.5 -5q180 0 338.5 123t228.5 317q-41 12 -94 74q-104 -104 -252 -105q-180 0 -301 143.5t-121 358.5q0 203 137 381l-43 -12q-303 -45 -510 -304t-207 -587zM856 1202q0 -199 107.5 -332t271.5 -133q147 0 233 103v61q0 68 45 68q31 0 31 -54 q0 -45 -31 -75q23 -47 76 -78q35 111 35 201q0 258 -169 439t-404 181h-56q-139 -178 -139 -381zM1038 1614q279 -10 452 -198.5t173 -471.5q0 -61 -25 -199q6 0 27 -4t35 -4h22q16 59 17 68l49 139q74 209 137.5 312.5t192.5 216.5q-117 31 -209 71l-158 70 q-274 121 -397 121q-187 0 -316 -121zM1133 260q20 -2 39 -7l20 -5q39 -18 113 -64l96 -51q23 0 59 -24q84 117 240 544q0 18 12 47h-29q-31 0 -59 11q-59 -186 -173.5 -291t-317.5 -160zM2013 2095q0 49 53 49q33 0 62 -55l119 -224h-56l-149 172q-29 33 -29 58z" />
<glyph unicode="&#xc9;" horiz-adv-x="2664" d="M139 700q0 383 246 648.5t604 265.5q176 190 512 190q135 0 385 -78l164 -51q334 -104 492 -104q127 0 181 35.5t54 119.5q0 18 -10 46l33 6q10 -33 10 -66q0 -131 -105.5 -222t-253.5 -91q-84 0 -247 43l-47 6q-92 -88 -141.5 -221t-106.5 -453q94 27 159 27 q74 0 137.5 -39t63.5 -82q0 -39 -33 -39q-20 0 -32 45q-27 76 -136 76q-63 0 -170 -31q-53 -283 -113.5 -432t-160.5 -256q199 -127 512 -127q139 0 250 82t111 186q0 23 -13.5 39.5t-27.5 16.5q-23 -10 -47.5 -21.5t-53.5 -11.5q-37 0 -65.5 33.5t-28.5 78.5t33 77t80 32 q68 0 109.5 -62.5t41.5 -158.5q0 -193 -129 -324t-311 -131q-121 0 -236.5 49t-292.5 172q-274 -201 -575 -200q-346 0 -594 274t-248 653zM190 680q0 -350 228.5 -606t544.5 -256q270 0 462 245q-160 111 -250 148t-194 37h-49q-18 -8 -51 -8q-35 0 -35 32q0 35 43 35 q25 0 49 -6q16 0 39.5 -5t36.5 -5q180 0 338.5 123t228.5 317q-41 12 -94 74q-104 -104 -252 -105q-180 0 -301 143.5t-121 358.5q0 203 137 381l-43 -12q-303 -45 -510 -304t-207 -587zM856 1202q0 -199 107.5 -332t271.5 -133q147 0 233 103v61q0 68 45 68q31 0 31 -54 q0 -45 -31 -75q23 -47 76 -78q35 111 35 201q0 258 -169 439t-404 181h-56q-139 -178 -139 -381zM1038 1614q279 -10 452 -198.5t173 -471.5q0 -61 -25 -199q6 0 27 -4t35 -4h22q16 59 17 68l49 139q74 209 137.5 312.5t192.5 216.5q-117 31 -209 71l-158 70 q-274 121 -397 121q-187 0 -316 -121zM1133 260q20 -2 39 -7l20 -5q39 -18 113 -64l96 -51q23 0 59 -24q84 117 240 544q0 18 12 47h-29q-31 0 -59 11q-59 -186 -173.5 -291t-317.5 -160zM1857 1824l279 246q37 33 63 33q47 0 47 -51q0 -33 -53 -64l-280 -164h-56z" />
<glyph unicode="&#xca;" horiz-adv-x="2664" d="M139 700q0 383 246 648.5t604 265.5q176 190 512 190q135 0 385 -78l164 -51q334 -104 492 -104q127 0 181 35.5t54 119.5q0 18 -10 46l33 6q10 -33 10 -66q0 -131 -105.5 -222t-253.5 -91q-84 0 -247 43l-47 6q-92 -88 -141.5 -221t-106.5 -453q94 27 159 27 q74 0 137.5 -39t63.5 -82q0 -39 -33 -39q-20 0 -32 45q-27 76 -136 76q-63 0 -170 -31q-53 -283 -113.5 -432t-160.5 -256q199 -127 512 -127q139 0 250 82t111 186q0 23 -13.5 39.5t-27.5 16.5q-23 -10 -47.5 -21.5t-53.5 -11.5q-37 0 -65.5 33.5t-28.5 78.5t33 77t80 32 q68 0 109.5 -62.5t41.5 -158.5q0 -193 -129 -324t-311 -131q-121 0 -236.5 49t-292.5 172q-274 -201 -575 -200q-346 0 -594 274t-248 653zM190 680q0 -350 228.5 -606t544.5 -256q270 0 462 245q-160 111 -250 148t-194 37h-49q-18 -8 -51 -8q-35 0 -35 32q0 35 43 35 q25 0 49 -6q16 0 39.5 -5t36.5 -5q180 0 338.5 123t228.5 317q-41 12 -94 74q-104 -104 -252 -105q-180 0 -301 143.5t-121 358.5q0 203 137 381l-43 -12q-303 -45 -510 -304t-207 -587zM856 1202q0 -199 107.5 -332t271.5 -133q147 0 233 103v61q0 68 45 68q31 0 31 -54 q0 -45 -31 -75q23 -47 76 -78q35 111 35 201q0 258 -169 439t-404 181h-56q-139 -178 -139 -381zM1038 1614q279 -10 452 -198.5t173 -471.5q0 -61 -25 -199q6 0 27 -4t35 -4h22q16 59 17 68l49 139q74 209 137.5 312.5t192.5 216.5q-117 31 -209 71l-158 70 q-274 121 -397 121q-187 0 -316 -121zM1133 260q20 -2 39 -7l20 -5q39 -18 113 -64l96 -51q23 0 59 -24q84 117 240 544q0 18 12 47h-29q-31 0 -59 11q-59 -186 -173.5 -291t-317.5 -160zM1755 1865l315 271h101l160 -271h-52l-163 183l-297 -183h-64z" />
<glyph unicode="&#xcb;" horiz-adv-x="2664" d="M139 700q0 383 246 648.5t604 265.5q176 190 512 190q135 0 385 -78l164 -51q334 -104 492 -104q127 0 181 35.5t54 119.5q0 18 -10 46l33 6q10 -33 10 -66q0 -131 -105.5 -222t-253.5 -91q-84 0 -247 43l-47 6q-92 -88 -141.5 -221t-106.5 -453q94 27 159 27 q74 0 137.5 -39t63.5 -82q0 -39 -33 -39q-20 0 -32 45q-27 76 -136 76q-63 0 -170 -31q-53 -283 -113.5 -432t-160.5 -256q199 -127 512 -127q139 0 250 82t111 186q0 23 -13.5 39.5t-27.5 16.5q-23 -10 -47.5 -21.5t-53.5 -11.5q-37 0 -65.5 33.5t-28.5 78.5t33 77t80 32 q68 0 109.5 -62.5t41.5 -158.5q0 -193 -129 -324t-311 -131q-121 0 -236.5 49t-292.5 172q-274 -201 -575 -200q-346 0 -594 274t-248 653zM190 680q0 -350 228.5 -606t544.5 -256q270 0 462 245q-160 111 -250 148t-194 37h-49q-18 -8 -51 -8q-35 0 -35 32q0 35 43 35 q25 0 49 -6q16 0 39.5 -5t36.5 -5q180 0 338.5 123t228.5 317q-41 12 -94 74q-104 -104 -252 -105q-180 0 -301 143.5t-121 358.5q0 203 137 381l-43 -12q-303 -45 -510 -304t-207 -587zM856 1202q0 -199 107.5 -332t271.5 -133q147 0 233 103v61q0 68 45 68q31 0 31 -54 q0 -45 -31 -75q23 -47 76 -78q35 111 35 201q0 258 -169 439t-404 181h-56q-139 -178 -139 -381zM1038 1614q279 -10 452 -198.5t173 -471.5q0 -61 -25 -199q6 0 27 -4t35 -4h22q16 59 17 68l49 139q74 209 137.5 312.5t192.5 216.5q-117 31 -209 71l-158 70 q-274 121 -397 121q-187 0 -316 -121zM1133 260q20 -2 39 -7l20 -5q39 -18 113 -64l96 -51q23 0 59 -24q84 117 240 544q0 18 12 47h-29q-31 0 -59 11q-59 -186 -173.5 -291t-317.5 -160zM1870 1902q0 111 29 111q14 0 106 -19q35 -6 35 -86q0 -45 -76 -45q-94 0 -94 39z M2198 1902q0 111 29 111q14 0 106 -19q31 -6 31 -86q0 -45 -72 -45q-94 0 -94 39z" />
<glyph unicode="&#xcc;" horiz-adv-x="2062" d="M115 686q0 -385 248.5 -648t611.5 -263q203 0 380 84t296 237q76 98 125 228q45 123 102 381q92 35 150.5 92t115.5 168l-22 16q-98 -184 -238 -238q94 496 222 739.5t319 307.5v33q-670 -49 -969 -437q-197 190 -481 191q-352 0 -606 -265.5t-254 -625.5zM158 662 q0 348 250.5 615t582.5 267q250 0 439 -184q-76 -141 -76 -244q0 -229 211 -379q-70 -195 -224.5 -321.5t-324.5 -126.5q-176 0 -299 123t-123 299q0 84 18 151l-24 8q-35 -88 -35 -159q0 -190 140.5 -326.5t340.5 -136.5q412 0 574 463q14 -8 75 -25l-8 -33 q-115 -457 -301 -653q-172 -182 -442 -182q-311 0 -542.5 252t-231.5 592zM1473 981q0 104 59 236q68 -137 67 -279q0 -51 -24 -168q-102 64 -102 211zM1556 1249q121 233 299.5 356.5t450.5 166.5q-188 -141 -319 -367q-117 -203 -269 -625l-18 -51q-49 0 -86 14 q27 109 26 160q0 186 -84 346zM1521 2034q0 49 53 49q33 0 62 -55l119 -224h-56l-149 172q-29 33 -29 58z" />
<glyph unicode="&#xcd;" horiz-adv-x="2062" d="M115 686q0 -385 248.5 -648t611.5 -263q203 0 380 84t296 237q76 98 125 228q45 123 102 381q92 35 150.5 92t115.5 168l-22 16q-98 -184 -238 -238q94 496 222 739.5t319 307.5v33q-670 -49 -969 -437q-197 190 -481 191q-352 0 -606 -265.5t-254 -625.5zM158 662 q0 348 250.5 615t582.5 267q250 0 439 -184q-76 -141 -76 -244q0 -229 211 -379q-70 -195 -224.5 -321.5t-324.5 -126.5q-176 0 -299 123t-123 299q0 84 18 151l-24 8q-35 -88 -35 -159q0 -190 140.5 -326.5t340.5 -136.5q412 0 574 463q14 -8 75 -25l-8 -33 q-115 -457 -301 -653q-172 -182 -442 -182q-311 0 -542.5 252t-231.5 592zM1473 981q0 104 59 236q68 -137 67 -279q0 -51 -24 -168q-102 64 -102 211zM1556 1249q121 233 299.5 356.5t450.5 166.5q-188 -141 -319 -367q-117 -203 -269 -625l-18 -51q-49 0 -86 14 q27 109 26 160q0 186 -84 346zM1529 1824l279 246q37 33 63 33q47 0 47 -51q0 -33 -53 -64l-280 -164h-56z" />
<glyph unicode="&#xce;" horiz-adv-x="2062" d="M115 686q0 -385 248.5 -648t611.5 -263q203 0 380 84t296 237q76 98 125 228q45 123 102 381q92 35 150.5 92t115.5 168l-22 16q-98 -184 -238 -238q94 496 222 739.5t319 307.5v33q-670 -49 -969 -437q-197 190 -481 191q-352 0 -606 -265.5t-254 -625.5zM158 662 q0 348 250.5 615t582.5 267q250 0 439 -184q-76 -141 -76 -244q0 -229 211 -379q-70 -195 -224.5 -321.5t-324.5 -126.5q-176 0 -299 123t-123 299q0 84 18 151l-24 8q-35 -88 -35 -159q0 -190 140.5 -326.5t340.5 -136.5q412 0 574 463q14 -8 75 -25l-8 -33 q-115 -457 -301 -653q-172 -182 -442 -182q-311 0 -542.5 252t-231.5 592zM1473 981q0 104 59 236q68 -137 67 -279q0 -51 -24 -168q-102 64 -102 211zM1556 1249q121 233 299.5 356.5t450.5 166.5q-188 -141 -319 -367q-117 -203 -269 -625l-18 -51q-49 0 -86 14 q27 109 26 160q0 186 -84 346zM1407 1845l315 271h101l160 -271h-52l-163 183l-297 -183h-64z" />
<glyph unicode="&#xcf;" horiz-adv-x="2062" d="M115 686q0 -385 248.5 -648t611.5 -263q203 0 380 84t296 237q76 98 125 228q45 123 102 381q92 35 150.5 92t115.5 168l-22 16q-98 -184 -238 -238q94 496 222 739.5t319 307.5v33q-670 -49 -969 -437q-197 190 -481 191q-352 0 -606 -265.5t-254 -625.5zM158 662 q0 348 250.5 615t582.5 267q250 0 439 -184q-76 -141 -76 -244q0 -229 211 -379q-70 -195 -224.5 -321.5t-324.5 -126.5q-176 0 -299 123t-123 299q0 84 18 151l-24 8q-35 -88 -35 -159q0 -190 140.5 -326.5t340.5 -136.5q412 0 574 463q14 -8 75 -25l-8 -33 q-115 -457 -301 -653q-172 -182 -442 -182q-311 0 -542.5 252t-231.5 592zM1473 981q0 104 59 236q68 -137 67 -279q0 -51 -24 -168q-102 64 -102 211zM1556 1249q121 233 299.5 356.5t450.5 166.5q-188 -141 -319 -367q-117 -203 -269 -625l-18 -51q-49 0 -86 14 q27 109 26 160q0 186 -84 346zM1460 1902q0 111 29 111q14 0 106 -19q35 -6 35 -86q0 -45 -76 -45q-94 0 -94 39zM1788 1902q0 111 29 111q14 0 106 -19q31 -6 31 -86q0 -45 -72 -45q-94 0 -94 39z" />
<glyph unicode="&#xd1;" horiz-adv-x="2785" d="M127 707q0 -379 247 -635t617 -256q352 0 563 227q51 55 117 166q43 72 76 194q20 53 61 228q70 295 125.5 439t141.5 247q16 -63 16 -219q0 -113 -16 -342q-18 -258 -19 -367q0 -336 121 -522t336 -186q137 0 221 100l-37 18q-76 -78 -151 -78q-139 0 -217 146.5 t-78 411.5v49q47 72 88 196q35 121 69 240q104 344 225.5 556t215.5 212q10 0 27.5 -16.5t21.5 -20.5q33 -33 78 -33q33 0 57.5 23.5t24.5 62.5q0 31 -33 56.5t-74 25.5q-322 0 -590 -891q-47 -156 -110 -317v266l-6 211q-6 201 -25 303q-20 115 -70 193q72 59 129.5 84.5 t184.5 52.5l-8 31q-174 -27 -320 -133q-223 360 -616 360q-293 0 -480 -209q-25 6 -49 6q-358 0 -611 -257.5t-253 -622.5zM176 664q0 360 246 622t586 262l-17 -28q-63 -113 -84 -174q-25 -70 -24 -162q0 -207 130 -346.5t322 -139.5q117 0 242 66q-61 -201 -220 -331 t-341 -130q-174 0 -293 123t-119 305q0 80 25 143l-31 9q-27 -66 -27 -160q0 -205 133.5 -334t346.5 -129q225 0 379.5 146.5t207.5 400.5q76 90 112 155.5t73 190.5l-35 6q-35 -154 -141 -285v66q0 246 -156 425t-408 216q203 170 437 170q201 0 340 -97.5t196 -275.5 l10 -16q-88 -94 -145 -215t-149 -416q-121 -379 -195 -536q-57 -119 -158 -201q-180 -145 -436 -146q-342 0 -574.5 235t-232.5 581zM915 1184q0 190 142 372q260 -45 404.5 -207.5t144.5 -408.5q0 -66 -17 -115q-125 -94 -264 -94q-168 0 -289 133.5t-121 319.5zM2203 1831 q51 176 170 176q41 0 70 -8l145 -41q23 -6 48 -6q76 0 94 82h45q-45 -182 -170 -183q-18 0 -55 11l-142 39q-37 10 -61 10q-76 0 -94 -80h-50z" />
<glyph unicode="&#xd2;" horiz-adv-x="2127" d="M201 1040q0 -313 203.5 -529t498.5 -216h60q16 -250 112 -388t254 -138q39 0 90 24q49 -111 111 -176q55 -59 164 -123l14 23q-170 106 -252 293q92 72 138 127t126 194q342 596 342 1040q0 125 -12 170t-65 107v65q0 96 -50.5 156t-130.5 60q-88 0 -227 -105 q-227 227 -539 227q-348 0 -592.5 -237.5t-244.5 -573.5zM248 1008q0 317 244.5 558.5t570.5 241.5q291 0 491 -206q-246 -209 -410.5 -563.5t-180.5 -710.5h-54q-274 0 -467.5 198.5t-193.5 481.5zM1139 121q0 86 22 219q74 23 176 72q-8 -47 -8 -97q0 -281 76 -487 q-43 -25 -88 -25q-178 1 -178 318zM1161 383q2 4 17 47q72 346 184 641q115 307 244 479q0 -2 44 -75.5t44 -83.5q-293 -358 -357 -938q-88 -47 -176 -70zM1372 295v141q487 330 613 971q31 -82 30 -133q0 -180 -92 -496q-88 -307 -209 -559q-76 -160 -133 -237.5 t-143 -137.5q-66 191 -66 451zM1372 479q31 270 120 505t216 376q39 -133 55 -219l37 6q-33 166 -67 244q63 66 137 65q41 0 76 -26q-97 -629 -574 -951zM1624 1583q90 119 191 119q53 0 92 -56.5t39 -138.5v-32q-35 14 -76 14q-70 0 -150 -64q-37 74 -96 158zM1685 2054 q0 49 53 49q33 0 62 -55l119 -224h-56l-149 172q-29 33 -29 58z" />
<glyph unicode="&#xd3;" horiz-adv-x="2127" d="M201 1040q0 -313 203.5 -529t498.5 -216h60q16 -250 112 -388t254 -138q39 0 90 24q49 -111 111 -176q55 -59 164 -123l14 23q-170 106 -252 293q92 72 138 127t126 194q342 596 342 1040q0 125 -12 170t-65 107v65q0 96 -50.5 156t-130.5 60q-88 0 -227 -105 q-227 227 -539 227q-348 0 -592.5 -237.5t-244.5 -573.5zM248 1008q0 317 244.5 558.5t570.5 241.5q291 0 491 -206q-246 -209 -410.5 -563.5t-180.5 -710.5h-54q-274 0 -467.5 198.5t-193.5 481.5zM1139 121q0 86 22 219q74 23 176 72q-8 -47 -8 -97q0 -281 76 -487 q-43 -25 -88 -25q-178 1 -178 318zM1161 383q2 4 17 47q72 346 184 641q115 307 244 479q0 -2 44 -75.5t44 -83.5q-293 -358 -357 -938q-88 -47 -176 -70zM1372 295v141q487 330 613 971q31 -82 30 -133q0 -180 -92 -496q-88 -307 -209 -559q-76 -160 -133 -237.5 t-143 -137.5q-66 191 -66 451zM1372 479q31 270 120 505t216 376q39 -133 55 -219l37 6q-33 166 -67 244q63 66 137 65q41 0 76 -26q-97 -629 -574 -951zM1624 1583q90 119 191 119q53 0 92 -56.5t39 -138.5v-32q-35 14 -76 14q-70 0 -150 -64q-37 74 -96 158zM1611 1804 l279 246q37 33 63 33q47 0 47 -51q0 -33 -53 -64l-280 -164h-56z" />
<glyph unicode="&#xd4;" horiz-adv-x="2127" d="M201 1040q0 -313 203.5 -529t498.5 -216h60q16 -250 112 -388t254 -138q39 0 90 24q49 -111 111 -176q55 -59 164 -123l14 23q-170 106 -252 293q92 72 138 127t126 194q342 596 342 1040q0 125 -12 170t-65 107v65q0 96 -50.5 156t-130.5 60q-88 0 -227 -105 q-227 227 -539 227q-348 0 -592.5 -237.5t-244.5 -573.5zM248 1008q0 317 244.5 558.5t570.5 241.5q291 0 491 -206q-246 -209 -410.5 -563.5t-180.5 -710.5h-54q-274 0 -467.5 198.5t-193.5 481.5zM1139 121q0 86 22 219q74 23 176 72q-8 -47 -8 -97q0 -281 76 -487 q-43 -25 -88 -25q-178 1 -178 318zM1161 383q2 4 17 47q72 346 184 641q115 307 244 479q0 -2 44 -75.5t44 -83.5q-293 -358 -357 -938q-88 -47 -176 -70zM1372 295v141q487 330 613 971q31 -82 30 -133q0 -180 -92 -496q-88 -307 -209 -559q-76 -160 -133 -237.5 t-143 -137.5q-66 191 -66 451zM1372 479q31 270 120 505t216 376q39 -133 55 -219l37 6q-33 166 -67 244q63 66 137 65q41 0 76 -26q-97 -629 -574 -951zM1624 1583q90 119 191 119q53 0 92 -56.5t39 -138.5v-32q-35 14 -76 14q-70 0 -150 -64q-37 74 -96 158zM1530 1804 l315 271h101l160 -271h-52l-163 183l-297 -183h-64z" />
<glyph unicode="&#xd5;" horiz-adv-x="2127" d="M201 1040q0 -313 203.5 -529t498.5 -216h60q16 -250 112 -388t254 -138q39 0 90 24q49 -111 111 -176q55 -59 164 -123l14 23q-170 106 -252 293q92 72 138 127t126 194q342 596 342 1040q0 125 -12 170t-65 107v65q0 96 -50.5 156t-130.5 60q-88 0 -227 -105 q-227 227 -539 227q-348 0 -592.5 -237.5t-244.5 -573.5zM248 1008q0 317 244.5 558.5t570.5 241.5q291 0 491 -206q-246 -209 -410.5 -563.5t-180.5 -710.5h-54q-274 0 -467.5 198.5t-193.5 481.5zM1139 121q0 86 22 219q74 23 176 72q-8 -47 -8 -97q0 -281 76 -487 q-43 -25 -88 -25q-178 1 -178 318zM1161 383q2 4 17 47q72 346 184 641q115 307 244 479q0 -2 44 -75.5t44 -83.5q-293 -358 -357 -938q-88 -47 -176 -70zM1372 295v141q487 330 613 971q31 -82 30 -133q0 -180 -92 -496q-88 -307 -209 -559q-76 -160 -133 -237.5 t-143 -137.5q-66 191 -66 451zM1372 479q31 270 120 505t216 376q39 -133 55 -219l37 6q-33 166 -67 244q63 66 137 65q41 0 76 -26q-97 -629 -574 -951zM1624 1583q90 119 191 119q53 0 92 -56.5t39 -138.5v-32q-35 14 -76 14q-70 0 -150 -64q-37 74 -96 158zM1548 1831 q51 176 170 176q41 0 70 -8l145 -41q23 -6 48 -6q76 0 94 82h45q-45 -182 -170 -183q-18 0 -55 11l-142 39q-37 10 -61 10q-76 0 -94 -80h-50z" />
<glyph unicode="&#xd6;" horiz-adv-x="2127" d="M201 1040q0 -313 203.5 -529t498.5 -216h60q16 -250 112 -388t254 -138q39 0 90 24q49 -111 111 -176q55 -59 164 -123l14 23q-170 106 -252 293q92 72 138 127t126 194q342 596 342 1040q0 125 -12 170t-65 107v65q0 96 -50.5 156t-130.5 60q-88 0 -227 -105 q-227 227 -539 227q-348 0 -592.5 -237.5t-244.5 -573.5zM248 1008q0 317 244.5 558.5t570.5 241.5q291 0 491 -206q-246 -209 -410.5 -563.5t-180.5 -710.5h-54q-274 0 -467.5 198.5t-193.5 481.5zM1139 121q0 86 22 219q74 23 176 72q-8 -47 -8 -97q0 -281 76 -487 q-43 -25 -88 -25q-178 1 -178 318zM1161 383q2 4 17 47q72 346 184 641q115 307 244 479q0 -2 44 -75.5t44 -83.5q-293 -358 -357 -938q-88 -47 -176 -70zM1372 295v141q487 330 613 971q31 -82 30 -133q0 -180 -92 -496q-88 -307 -209 -559q-76 -160 -133 -237.5 t-143 -137.5q-66 191 -66 451zM1372 479q31 270 120 505t216 376q39 -133 55 -219l37 6q-33 166 -67 244q63 66 137 65q41 0 76 -26q-97 -629 -574 -951zM1624 1583q90 119 191 119q53 0 92 -56.5t39 -138.5v-32q-35 14 -76 14q-70 0 -150 -64q-37 74 -96 158zM1583 1841 q0 111 29 111q14 0 106 -19q35 -6 35 -86q0 -45 -76 -45q-94 0 -94 39zM1911 1841q0 111 29 111q14 0 106 -19q31 -6 31 -86q0 -45 -72 -45q-94 0 -94 39z" />
<glyph unicode="&#xd7;" horiz-adv-x="1705" d="M307 131l479 479l-479 482l70 69l479 -481l481 481l70 -69l-481 -482l481 -479l-70 -70l-481 482l-479 -482z" />
<glyph unicode="&#xd9;" horiz-adv-x="2607" d="M188 963q0 367 288 647t669 280q334 0 559 -201.5t225 -498.5q0 -119 -26 -207q-29 -102 -150 -371l-135 -303l-92 -221q-51 -86 -51 -158q0 -92 81 -92q86 0 197 201q100 180 252 573l123 322q109 283 282 450q182 174 381 175q76 0 127.5 -39t51.5 -97q0 -92 -84 -92 q-61 0 -62 53v54q0 80 -84 80q-152 0 -278.5 -230.5t-286.5 -798.5q-43 -143 -86 -288q-49 -184 -49 -297q0 -92 33.5 -146.5t89.5 -54.5q139 0 215 201l35 -19q-102 -227 -250 -227q-119 0 -198 123t-79 301q0 25 6 63q8 53 11 88q-111 -244 -190 -340t-163 -96 q-78 0 -133 79t-55 198q0 147 145 436l133 264q162 322 162 516q0 244 -184 406t-463 162q-369 0 -638 -270.5t-269 -635.5q0 -285 183 -485.5t443 -200.5q168 0 318.5 85t245.5 237l37 -17q-98 -158 -258 -248t-343 -90q-287 0 -486.5 212.5t-199.5 517.5zM2033 1993 q0 49 53 49q33 0 62 -55l119 -224h-56l-149 172q-29 33 -29 58z" />
<glyph unicode="&#xda;" horiz-adv-x="2607" d="M188 963q0 367 288 647t669 280q334 0 559 -201.5t225 -498.5q0 -119 -26 -207q-29 -102 -150 -371l-135 -303l-92 -221q-51 -86 -51 -158q0 -92 81 -92q86 0 197 201q100 180 252 573l123 322q109 283 282 450q182 174 381 175q76 0 127.5 -39t51.5 -97q0 -92 -84 -92 q-61 0 -62 53v54q0 80 -84 80q-152 0 -278.5 -230.5t-286.5 -798.5q-43 -143 -86 -288q-49 -184 -49 -297q0 -92 33.5 -146.5t89.5 -54.5q139 0 215 201l35 -19q-102 -227 -250 -227q-119 0 -198 123t-79 301q0 25 6 63q8 53 11 88q-111 -244 -190 -340t-163 -96 q-78 0 -133 79t-55 198q0 147 145 436l133 264q162 322 162 516q0 244 -184 406t-463 162q-369 0 -638 -270.5t-269 -635.5q0 -285 183 -485.5t443 -200.5q168 0 318.5 85t245.5 237l37 -17q-98 -158 -258 -248t-343 -90q-287 0 -486.5 212.5t-199.5 517.5zM2021 1804 l279 246q37 33 63 33q47 0 47 -51q0 -33 -53 -64l-280 -164h-56z" />
<glyph unicode="&#xdb;" horiz-adv-x="2607" d="M188 963q0 367 288 647t669 280q334 0 559 -201.5t225 -498.5q0 -119 -26 -207q-29 -102 -150 -371l-135 -303l-92 -221q-51 -86 -51 -158q0 -92 81 -92q86 0 197 201q100 180 252 573l123 322q109 283 282 450q182 174 381 175q76 0 127.5 -39t51.5 -97q0 -92 -84 -92 q-61 0 -62 53v54q0 80 -84 80q-152 0 -278.5 -230.5t-286.5 -798.5q-43 -143 -86 -288q-49 -184 -49 -297q0 -92 33.5 -146.5t89.5 -54.5q139 0 215 201l35 -19q-102 -227 -250 -227q-119 0 -198 123t-79 301q0 25 6 63q8 53 11 88q-111 -244 -190 -340t-163 -96 q-78 0 -133 79t-55 198q0 147 145 436l133 264q162 322 162 516q0 244 -184 406t-463 162q-369 0 -638 -270.5t-269 -635.5q0 -285 183 -485.5t443 -200.5q168 0 318.5 85t245.5 237l37 -17q-98 -158 -258 -248t-343 -90q-287 0 -486.5 212.5t-199.5 517.5zM1980 1824 l315 271h101l160 -271h-52l-163 183l-297 -183h-64z" />
<glyph unicode="&#xdc;" horiz-adv-x="2607" d="M188 963q0 367 288 647t669 280q334 0 559 -201.5t225 -498.5q0 -119 -26 -207q-29 -102 -150 -371l-135 -303l-92 -221q-51 -86 -51 -158q0 -92 81 -92q86 0 197 201q100 180 252 573l123 322q109 283 282 450q182 174 381 175q76 0 127.5 -39t51.5 -97q0 -92 -84 -92 q-61 0 -62 53v54q0 80 -84 80q-152 0 -278.5 -230.5t-286.5 -798.5q-43 -143 -86 -288q-49 -184 -49 -297q0 -92 33.5 -146.5t89.5 -54.5q139 0 215 201l35 -19q-102 -227 -250 -227q-119 0 -198 123t-79 301q0 25 6 63q8 53 11 88q-111 -244 -190 -340t-163 -96 q-78 0 -133 79t-55 198q0 147 145 436l133 264q162 322 162 516q0 244 -184 406t-463 162q-369 0 -638 -270.5t-269 -635.5q0 -285 183 -485.5t443 -200.5q168 0 318.5 85t245.5 237l37 -17q-98 -158 -258 -248t-343 -90q-287 0 -486.5 212.5t-199.5 517.5zM2074 1862 q0 111 29 111q14 0 106 -19q35 -6 35 -86q0 -45 -76 -45q-94 0 -94 39zM2402 1862q0 111 29 111q14 0 106 -19q31 -6 31 -86q0 -45 -72 -45q-94 0 -94 39z" />
<glyph unicode="&#xdd;" horiz-adv-x="2056" d="M1187 1974l279 246q37 33 63 33q47 0 47 -51q0 -33 -53 -64l-280 -164h-56zM127 705q0 291 151.5 504.5t438.5 328.5q164 276 475 277q211 0 351 -116t140 -286t-145 -397q-41 -57 -90 -133q0 -4 -10.5 -24.5t-14.5 -33.5q113 41 260 183l25 -17q-113 -145 -309 -217 q-37 -111 -37 -156q0 -66 34 -106.5t85 -40.5q129 0 237 309l72 203q88 246 267 422t349 176q94 0 155.5 -45t61.5 -117q0 -33 -23.5 -58.5t-59.5 -25.5q-68 0 -68 78q0 2 10 68q0 63 -94 63q-158 0 -283 -165t-178 -447l-43 -227q-174 -918 -901 -918q-356 0 -606 269.5 t-250 648.5zM176 662q0 -332 227.5 -586t528.5 -254q475 0 700 690q-78 -76 -151 -76q-115 0 -184.5 82t-69.5 213h-49q-231 0 -386 150.5t-155 378.5q0 96 43 221q-227 -111 -365.5 -333t-138.5 -486zM674 1260q0 -215 144.5 -359.5t359.5 -144.5l17 4q17 4 32 4 q20 156 145 338l109 158q100 145 100 260t-106.5 189.5t-272.5 74.5q-289 0 -438 -230q106 33 227 33t211 -28.5t211 -102.5l-14 -37q-209 135 -408 135q-115 0 -260 -55q-57 -116 -57 -239z" />
<glyph unicode="&#xe0;" horiz-adv-x="839" d="M-12 201q0 197 202 381q135 123 304 123q98 0 180 -41l8 -11v-6q0 -27 -41 -164l-94 -317q-12 -41 -12 -70q0 -41 38 -41q88 0 435 498q6 -37 6 -31q0 -35 -74 -133q-176 -236 -235 -299q-102 -109 -187 -108q-100 0 -100 102q0 59 59 229q-186 -328 -321 -327 q-76 0 -122 57.5t-46 157.5zM119 143q0 -92 63 -92q68 0 170 144q111 156 223 434q-33 29 -90 28q-102 0 -213 -157q-153 -218 -153 -357zM340 1010q0 49 53 49q33 0 62 -55l118 -224h-55l-149 172q-29 33 -29 58z" />
<glyph unicode="&#xe1;" horiz-adv-x="839" d="M-12 201q0 197 202 381q135 123 304 123q98 0 180 -41l8 -11v-6q0 -27 -41 -164l-94 -317q-12 -41 -12 -70q0 -41 38 -41q88 0 435 498q6 -37 6 -31q0 -35 -74 -133q-176 -236 -235 -299q-102 -109 -187 -108q-100 0 -100 102q0 59 59 229q-186 -328 -321 -327 q-76 0 -122 57.5t-46 157.5zM119 143q0 -92 63 -92q68 0 170 144q111 156 223 434q-33 29 -90 28q-102 0 -213 -157q-153 -218 -153 -357zM348 780l279 246q37 33 63 33q47 0 47 -51q0 -33 -53 -64l-281 -164h-55z" />
<glyph unicode="&#xe2;" horiz-adv-x="839" d="M-12 201q0 197 202 381q135 123 304 123q98 0 180 -41l8 -11v-6q0 -27 -41 -164l-94 -317q-12 -41 -12 -70q0 -41 38 -41q88 0 435 498q6 -37 6 -31q0 -35 -74 -133q-176 -236 -235 -299q-102 -109 -187 -108q-100 0 -100 102q0 59 59 229q-186 -328 -321 -327 q-76 0 -122 57.5t-46 157.5zM119 143q0 -92 63 -92q68 0 170 144q111 156 223 434q-33 29 -90 28q-102 0 -213 -157q-153 -218 -153 -357zM164 780l315 271h101l159 -271h-51l-164 183l-297 -183h-63z" />
<glyph unicode="&#xe3;" horiz-adv-x="839" d="M-12 201q0 197 202 381q135 123 304 123q98 0 180 -41l8 -11v-6q0 -27 -41 -164l-94 -317q-12 -41 -12 -70q0 -41 38 -41q88 0 435 498q6 -37 6 -31q0 -35 -74 -133q-176 -236 -235 -299q-102 -109 -187 -108q-100 0 -100 102q0 59 59 229q-186 -328 -321 -327 q-76 0 -122 57.5t-46 157.5zM119 143q0 -92 63 -92q68 0 170 144q111 156 223 434q-33 29 -90 28q-102 0 -213 -157q-153 -218 -153 -357zM223 807q51 176 170 176q41 0 70 -8l145 -41q23 -6 47 -6q76 0 95 82h45q-45 -182 -170 -183q-18 0 -56 11l-141 39q-37 10 -61 10 q-76 0 -95 -80h-49z" />
<glyph unicode="&#xe4;" horiz-adv-x="839" d="M-12 201q0 197 202 381q135 123 304 123q98 0 180 -41l8 -11v-6q0 -27 -41 -164l-94 -317q-12 -41 -12 -70q0 -41 38 -41q88 0 435 498q6 -37 6 -31q0 -35 -74 -133q-176 -236 -235 -299q-102 -109 -187 -108q-100 0 -100 102q0 59 59 229q-186 -328 -321 -327 q-76 0 -122 57.5t-46 157.5zM119 143q0 -92 63 -92q68 0 170 144q111 156 223 434q-33 29 -90 28q-102 0 -213 -157q-153 -218 -153 -357zM258 858q0 111 29 111q14 0 106 -19q35 -6 35 -86q0 -45 -76 -45q-94 0 -94 39zM586 858q0 111 28 111q14 0 107 -19q31 -6 31 -86 q0 -45 -72 -45q-94 0 -94 39z" />
<glyph unicode="&#xe5;" horiz-adv-x="839" d="M-12 201q0 197 202 381q135 123 304 123q98 0 180 -41l8 -11v-6q0 -27 -41 -164l-94 -317q-12 -41 -12 -70q0 -41 38 -41q88 0 435 498q6 -37 6 -31q0 -35 -74 -133q-176 -236 -235 -299q-102 -109 -187 -108q-100 0 -100 102q0 59 59 229q-186 -328 -321 -327 q-76 0 -122 57.5t-46 157.5zM119 143q0 -92 63 -92q68 0 170 144q111 156 223 434q-33 29 -90 28q-102 0 -213 -157q-153 -218 -153 -357zM367 944q0 80 54 134.5t132 54.5t132 -54.5t54 -134.5q0 -78 -54 -132t-132 -54t-132 54t-54 132zM434 946q0 -49 36 -85t83 -36 q51 0 84 35t33 86q0 47 -34 82t-83 35t-84 -34t-35 -83z" />
<glyph unicode="&#xe6;" horiz-adv-x="1144" d="M-12 201q0 197 202 381q141 129 302 129q113 0 176 -76q96 76 196 76q74 0 121 -40t47 -100q0 -96 -114 -194q-125 -104 -338 -170q0 -174 155 -174q123 0 273 131q158 139 311 395q6 -8 6 -24q0 -57 -88 -181q-272 -379 -555 -379q-111 0 -175.5 70t-64.5 193v20 q-160 -272 -286 -272q-76 0 -122 57.5t-46 157.5zM119 143q0 -92 63 -92q68 0 170 144q111 156 223 434q-39 35 -90 35q-96 0 -213 -164q-153 -218 -153 -357zM580 254q152 37 241 131q88 88 88 197q0 82 -59 82q-80 0 -156 -107q-83 -117 -114 -303z" />
<glyph unicode="&#xe7;" horiz-adv-x="729" d="M-53 -313l14 34q123 -61 213 -61q117 0 117 92q0 84 -117 84q-37 0 -76 -8l60 172h51l-33 -109h27q18 2 24 3q170 0 170 -146q0 -143 -188 -143q-151 0 -262 82zM18 231q0 160 132 310q150 170 311 170q78 0 123 -38t45 -98q0 -51 -38 -86.5t-93 -35.5q-39 0 -62 30 q76 35 76 105q0 76 -66 76q-72 0 -145 -91q-61 -76 -99 -177t-38 -183q0 -180 162 -180q262 0 583 522q4 -8 4 -25q0 -49 -67 -147q-281 -408 -576 -408q-111 0 -181.5 71.5t-70.5 184.5z" />
<glyph unicode="&#xe8;" horiz-adv-x="724" d="M20 231q0 164 142 328q131 152 280 152q76 0 123 -40t47 -100q0 -96 -114 -194q-125 -104 -336 -170q0 -174 151 -174q123 0 273 131q160 139 315 395q6 -18 6 -24q0 -59 -88 -181q-274 -379 -559 -379q-109 0 -174.5 69.5t-65.5 186.5zM162 254q147 35 241 131 q88 92 89 197q0 80 -68 80q-78 0 -152 -105q-83 -119 -110 -303zM256 1010q0 49 53 49q33 0 62 -55l118 -224h-55l-149 172q-29 33 -29 58z" />
<glyph unicode="&#xe9;" horiz-adv-x="724" d="M20 231q0 164 142 328q131 152 280 152q76 0 123 -40t47 -100q0 -96 -114 -194q-125 -104 -336 -170q0 -174 151 -174q123 0 273 131q160 139 315 395q6 -18 6 -24q0 -59 -88 -181q-274 -379 -559 -379q-109 0 -174.5 69.5t-65.5 186.5zM162 254q147 35 241 131 q88 92 89 197q0 80 -68 80q-78 0 -152 -105q-83 -119 -110 -303zM264 780l279 246q37 33 63 33q47 0 47 -51q0 -33 -53 -64l-281 -164h-55z" />
<glyph unicode="&#xea;" horiz-adv-x="724" d="M20 231q0 164 142 328q131 152 280 152q76 0 123 -40t47 -100q0 -96 -114 -194q-125 -104 -336 -170q0 -174 151 -174q123 0 273 131q160 139 315 395q6 -18 6 -24q0 -59 -88 -181q-274 -379 -559 -379q-109 0 -174.5 69.5t-65.5 186.5zM80 780l315 271h101l159 -271h-51 l-164 183l-297 -183h-63zM162 254q147 35 241 131q88 92 89 197q0 80 -68 80q-78 0 -152 -105q-83 -119 -110 -303z" />
<glyph unicode="&#xeb;" horiz-adv-x="724" d="M20 231q0 164 142 328q131 152 280 152q76 0 123 -40t47 -100q0 -96 -114 -194q-125 -104 -336 -170q0 -174 151 -174q123 0 273 131q160 139 315 395q6 -18 6 -24q0 -59 -88 -181q-274 -379 -559 -379q-109 0 -174.5 69.5t-65.5 186.5zM162 254q147 35 241 131 q88 92 89 197q0 80 -68 80q-78 0 -152 -105q-83 -119 -110 -303zM174 858q0 111 29 111q14 0 106 -19q35 -6 35 -86q0 -45 -76 -45q-94 0 -94 39zM502 858q0 111 28 111q14 0 107 -19q31 -6 31 -86q0 -45 -72 -45q-94 0 -94 39z" />
<glyph unicode="&#xec;" horiz-adv-x="505" d="M37 113q0 35 31 131l129 403q14 33 41 35l75 16h6q14 0 15 -16q0 -2 -4 -12l-140 -430q-29 -88 -28 -134q0 -57 51 -57q119 0 469 512q0 -4 2 -12t2 -14q0 -49 -111 -199q-258 -348 -419 -348q-119 0 -119 125zM61 1010q0 49 54 49q33 0 61 -55l119 -224h-55l-150 172 q-29 33 -29 58z" />
<glyph unicode="&#xed;" horiz-adv-x="505" d="M37 113q0 35 31 131l129 403q14 33 41 35l75 16h6q14 0 15 -16q0 -2 -4 -12l-140 -430q-29 -88 -28 -134q0 -57 51 -57q119 0 469 512q0 -4 2 -12t2 -14q0 -49 -111 -199q-258 -348 -419 -348q-119 0 -119 125zM70 780l278 246q37 33 64 33q47 0 47 -51q0 -33 -53 -64 l-281 -164h-55z" />
<glyph unicode="&#xee;" horiz-adv-x="505" d="M-115 780l316 271h100l160 -271h-51l-164 183l-297 -183h-64zM37 113q0 35 31 131l129 403q14 33 41 35l75 16h6q14 0 15 -16q0 -2 -4 -12l-140 -430q-29 -88 -28 -134q0 -57 51 -57q119 0 469 512q0 -4 2 -12t2 -14q0 -49 -111 -199q-258 -348 -419 -348 q-119 0 -119 125z" />
<glyph unicode="&#xef;" horiz-adv-x="505" d="M-20 858q0 111 28 111q14 0 107 -19q35 -6 35 -86q0 -45 -76 -45q-94 0 -94 39zM37 113q0 35 31 131l129 403q14 33 41 35l75 16h6q14 0 15 -16q0 -2 -4 -12l-140 -430q-29 -88 -28 -134q0 -57 51 -57q119 0 469 512q0 -4 2 -12t2 -14q0 -49 -111 -199 q-258 -348 -419 -348q-119 0 -119 125zM307 858q0 111 29 111q14 0 106 -19q31 -6 31 -86q0 -45 -72 -45q-94 0 -94 39z" />
<glyph unicode="&#xf0;" horiz-adv-x="858" d="M12 233q0 162 143.5 320t311.5 158q72 0 133 -47q0 143 -33 307l-237 -84l-4 2l-13 24l9 13l237 84q-23 113 -76 270l6 16l39 13l15 -11q74 -168 106 -254l238 89l8 -7l8 -22l-4 -12l-235 -84q66 -201 65 -392q0 -215 -111 -419q10 -41 52 -41q45 0 135 106 q68 78 233 309q6 -31 6 -24q0 -43 -88 -162q-123 -166 -188 -229q-80 -80 -137 -80q-43 0 -78 37q-139 -139 -283 -140q-117 0 -187.5 70.5t-70.5 189.5zM162 197q0 -176 129 -177q92 0 186 125q115 152 115 349q0 78 -38 126t-95 48q-63 0 -123 -58q-78 -76 -126 -191.5 t-48 -221.5z" />
<glyph unicode="&#xf1;" horiz-adv-x="927" d="M0 8q0 18 2 25l182 596q20 47 49 53l70 16q4 2 16 2q14 0 15 -18q0 -2 -4 -12l-140 -443q309 477 459 478q47 0 80 -34t33 -83q0 -57 -51 -203q-86 -246 -86 -279t39 -32q92 0 432 479q6 -31 6 -29q0 -41 -150 -235q-233 -303 -346 -303q-49 0 -83 35.5t-34 91.5 q0 51 86 305q53 158 54 170q0 31 -35 30q-78 0 -287 -292q-106 -152 -145 -244q-10 -27 -21.5 -50.5t-38.5 -29.5l-75 -10h-9q-18 0 -18 16zM291 807q51 176 170 176q41 0 69 -8l146 -41q23 -6 47 -6q76 0 94 82h45q-45 -182 -170 -183q-18 0 -55 11l-141 39q-37 10 -62 10 q-76 0 -94 -80h-49z" />
<glyph unicode="&#xf2;" horiz-adv-x="858" d="M12 233q0 166 145.5 322t309.5 156q96 0 163.5 -74t67.5 -188q0 -109 -80 -252q10 -41 52 -41q45 0 135 106q68 78 233 309q6 -31 6 -24q0 -43 -88 -162q-123 -166 -188 -229q-80 -80 -137 -80q-43 0 -78 37q-139 -139 -283 -140q-117 0 -187.5 70.5t-70.5 189.5z M162 197q0 -178 129 -179q102 0 215 172q-12 35 -12 76q0 127 98 258q-29 143 -133 144q-63 0 -123 -58q-78 -76 -126 -191.5t-48 -221.5zM356 1010q0 49 54 49q33 0 61 -55l119 -224h-55l-150 172q-29 33 -29 58z" />
<glyph unicode="&#xf3;" horiz-adv-x="858" d="M12 233q0 166 145.5 322t309.5 156q96 0 163.5 -74t67.5 -188q0 -109 -80 -252q10 -41 52 -41q45 0 135 106q68 78 233 309q6 -31 6 -24q0 -43 -88 -162q-123 -166 -188 -229q-80 -80 -137 -80q-43 0 -78 37q-139 -139 -283 -140q-117 0 -187.5 70.5t-70.5 189.5z M162 197q0 -178 129 -179q102 0 215 172q-12 35 -12 76q0 127 98 258q-29 143 -133 144q-63 0 -123 -58q-78 -76 -126 -191.5t-48 -221.5zM365 780l278 246q37 33 64 33q47 0 47 -51q0 -33 -54 -64l-280 -164h-55z" />
<glyph unicode="&#xf4;" horiz-adv-x="858" d="M12 233q0 166 145.5 322t309.5 156q96 0 163.5 -74t67.5 -188q0 -109 -80 -252q10 -41 52 -41q45 0 135 106q68 78 233 309q6 -31 6 -24q0 -43 -88 -162q-123 -166 -188 -229q-80 -80 -137 -80q-43 0 -78 37q-139 -139 -283 -140q-117 0 -187.5 70.5t-70.5 189.5z M162 197q0 -178 129 -179q102 0 215 172q-12 35 -12 76q0 127 98 258q-29 143 -133 144q-63 0 -123 -58q-78 -76 -126 -191.5t-48 -221.5zM180 780l316 271h100l160 -271h-51l-164 183l-297 -183h-64z" />
<glyph unicode="&#xf5;" horiz-adv-x="858" d="M12 233q0 166 145.5 322t309.5 156q96 0 163.5 -74t67.5 -188q0 -109 -80 -252q10 -41 52 -41q45 0 135 106q68 78 233 309q6 -31 6 -24q0 -43 -88 -162q-123 -166 -188 -229q-80 -80 -137 -80q-43 0 -78 37q-139 -139 -283 -140q-117 0 -187.5 70.5t-70.5 189.5z M162 197q0 -178 129 -179q102 0 215 172q-12 35 -12 76q0 127 98 258q-29 143 -133 144q-63 0 -123 -58q-78 -76 -126 -191.5t-48 -221.5zM240 807q51 176 170 176q41 0 69 -8l146 -41q23 -6 47 -6q76 0 94 82h45q-45 -182 -170 -183q-18 0 -55 11l-142 39q-37 10 -61 10 q-76 0 -94 -80h-49z" />
<glyph unicode="&#xf6;" horiz-adv-x="858" d="M12 233q0 166 145.5 322t309.5 156q96 0 163.5 -74t67.5 -188q0 -109 -80 -252q10 -41 52 -41q45 0 135 106q68 78 233 309q6 -31 6 -24q0 -43 -88 -162q-123 -166 -188 -229q-80 -80 -137 -80q-43 0 -78 37q-139 -139 -283 -140q-117 0 -187.5 70.5t-70.5 189.5z M162 197q0 -178 129 -179q102 0 215 172q-12 35 -12 76q0 127 98 258q-29 143 -133 144q-63 0 -123 -58q-78 -76 -126 -191.5t-48 -221.5zM274 858q0 111 29 111q14 0 107 -19q35 -6 34 -86q0 -45 -75 -45q-95 0 -95 39zM602 858q0 111 29 111q14 0 106 -19q31 -6 31 -86 q0 -45 -72 -45q-94 0 -94 39z" />
<glyph unicode="&#xf7;" horiz-adv-x="1705" d="M254 561v96h1200v-96h-1200zM745 258q0 45 33 76t74 31q47 0 79 -31t32 -76q0 -43 -32 -74.5t-79 -31.5q-43 0 -75 30.5t-32 75.5zM745 963q0 43 33 75.5t74 32.5q45 0 78 -31.5t33 -76.5t-32 -76t-79 -31q-45 0 -76 31t-31 76z" />
<glyph unicode="&#xf8;" horiz-adv-x="858" d="M6 -162l115 176q-109 74 -109 219q0 162 143.5 320t309.5 158q61 0 106 -29l105 164h16l25 -15l6 -14l-111 -162q86 -76 86 -206q0 -109 -80 -252q10 -41 52 -41q45 0 135 106q68 78 233 309q6 -31 6 -24q0 -43 -88 -162q-123 -166 -188 -229q-80 -80 -137 -80 q-43 0 -78 37q-137 -139 -299 -140q-37 0 -84 21l-125 -184l-12 -5l-27 19v14zM162 197q0 -66 14 -103l365 543q-37 31 -82 31q-63 0 -123 -58q-78 -76 -126 -191.5t-48 -221.5zM207 55q31 -37 82 -37q104 0 217 172q-12 35 -12 76q0 127 98 258q-4 29 -21 68z" />
<glyph unicode="&#xf9;" horiz-adv-x="921" d="M20 90q0 37 29 125l139 428q6 20 12.5 27.5t24.5 11.5l84 16h10q14 0 15 -16q-4 -14 -4 -18l-164 -474q-16 -66 -16 -88q0 -41 38 -41q45 0 148 109q113 123 246 330q18 31 63 125q25 51 53 57l76 18h6q18 0 19 -18l-6 -18l-158 -467q-18 -55 -19 -91q0 -43 39 -43 q98 0 437 510q10 -14 10 -26q0 -47 -121 -217q-248 -348 -383 -348q-109 0 -109 120q0 68 99 340q-309 -461 -463 -460q-105 -1 -105 108zM401 1010q0 49 54 49q33 0 61 -55l119 -224h-55l-150 172q-29 33 -29 58z" />
<glyph unicode="&#xfa;" horiz-adv-x="921" d="M20 90q0 37 29 125l139 428q6 20 12.5 27.5t24.5 11.5l84 16h10q14 0 15 -16q-4 -14 -4 -18l-164 -474q-16 -66 -16 -88q0 -41 38 -41q45 0 148 109q113 123 246 330q18 31 63 125q25 51 53 57l76 18h6q18 0 19 -18l-6 -18l-158 -467q-18 -55 -19 -91q0 -43 39 -43 q98 0 437 510q10 -14 10 -26q0 -47 -121 -217q-248 -348 -383 -348q-109 0 -109 120q0 68 99 340q-309 -461 -463 -460q-105 -1 -105 108zM410 780l278 246q37 33 64 33q47 0 47 -51q0 -33 -54 -64l-280 -164h-55z" />
<glyph unicode="&#xfb;" horiz-adv-x="921" d="M20 90q0 37 29 125l139 428q6 20 12.5 27.5t24.5 11.5l84 16h10q14 0 15 -16q-4 -14 -4 -18l-164 -474q-16 -66 -16 -88q0 -41 38 -41q45 0 148 109q113 123 246 330q18 31 63 125q25 51 53 57l76 18h6q18 0 19 -18l-6 -18l-158 -467q-18 -55 -19 -91q0 -43 39 -43 q98 0 437 510q10 -14 10 -26q0 -47 -121 -217q-248 -348 -383 -348q-109 0 -109 120q0 68 99 340q-309 -461 -463 -460q-105 -1 -105 108zM225 780l316 271h100l160 -271h-51l-164 183l-297 -183h-64z" />
<glyph unicode="&#xfc;" horiz-adv-x="921" d="M20 90q0 37 29 125l139 428q6 20 12.5 27.5t24.5 11.5l84 16h10q14 0 15 -16q-4 -14 -4 -18l-164 -474q-16 -66 -16 -88q0 -41 38 -41q45 0 148 109q113 123 246 330q18 31 63 125q25 51 53 57l76 18h6q18 0 19 -18l-6 -18l-158 -467q-18 -55 -19 -91q0 -43 39 -43 q98 0 437 510q10 -14 10 -26q0 -47 -121 -217q-248 -348 -383 -348q-109 0 -109 120q0 68 99 340q-309 -461 -463 -460q-105 -1 -105 108zM319 858q0 111 29 111q14 0 107 -19q35 -6 34 -86q0 -45 -75 -45q-95 0 -95 39zM647 858q0 111 29 111q14 0 106 -19q31 -6 31 -86 q0 -45 -72 -45q-94 0 -94 39z" />
<glyph unicode="&#xfd;" horiz-adv-x="921" d="M33 119q0 29 28 121l129 413q8 25 43 29l86 10q10 0 11 -10q0 2 -4 -18l-148 -467q-12 -39 -12 -84q0 -39 41 -39q113 0 334 348q47 74 104 192q31 66 53 68l88 12q14 0 15 -12q0 2 -70 -197q-88 -246 -156 -522q215 176 515 586q6 -25 6 -27q0 -49 -121 -196 q-262 -319 -416 -432q-106 -393 -383 -494l-12 2q-14 47 -14 86q0 221 305 442q10 82 120 473q-248 -403 -438 -403q-104 0 -104 119zM240 -440q0 -31 14 -72q156 80 199 381q-213 -143 -213 -309zM410 780l278 246q37 33 64 33q47 0 47 -51q0 -33 -54 -64l-280 -164h-55z " />
<glyph unicode="&#xfe;" horiz-adv-x="886" d="M-74 -354q0 279 164 563l229 1034q8 41 41 47l86 15q18 0 19 -21v-10l-205 -834q205 270 346 271q76 0 120 -48.5t44 -127.5q0 -227 -328 -408q37 -59 117 -59q100 0 225 129q115 115 287 378q6 -25 6 -28q0 -57 -114 -207q-139 -180 -238 -258q-111 -88 -221 -88 q-84 0 -156 41q-63 37 -63 67q0 16 37.5 36t78.5 40q221 129 222 322q0 106 -99 106q-53 0 -127 -71q-80 -78 -159 -216q-172 -762 -271 -919h-10q-31 99 -31 246zM-27 -334q0 -45 15 -102q51 100 82 516q-97 -158 -97 -414z" />
<glyph unicode="&#xff;" horiz-adv-x="921" d="M33 119q0 29 28 121l129 413q8 25 43 29l86 10q10 0 11 -10q0 2 -4 -18l-148 -467q-12 -39 -12 -84q0 -39 41 -39q113 0 334 348q47 74 104 192q31 66 53 68l88 12q14 0 15 -12q0 2 -70 -197q-88 -246 -156 -522q215 176 515 586q6 -25 6 -27q0 -49 -121 -196 q-262 -319 -416 -432q-106 -393 -383 -494l-12 2q-14 47 -14 86q0 221 305 442q10 82 120 473q-248 -403 -438 -403q-104 0 -104 119zM240 -440q0 -31 14 -72q156 80 199 381q-213 -143 -213 -309zM319 858q0 111 29 111q14 0 107 -19q35 -6 34 -86q0 -45 -75 -45 q-95 0 -95 39zM647 858q0 111 29 111q14 0 106 -19q31 -6 31 -86q0 -45 -72 -45q-94 0 -94 39z" />
<glyph unicode="&#x152;" horiz-adv-x="4792" d="M2267 700q0 383 246 648.5t604 265.5q176 190 512 190q135 0 385 -78l164 -51q334 -104 492 -104q127 0 181 35.5t54 119.5q0 18 -10 46l33 6q10 -33 10 -66q0 -131 -105.5 -222t-253.5 -91q-84 0 -247 43l-47 6q-92 -88 -141.5 -221t-106.5 -453q94 27 159 27 q74 0 137.5 -39t63.5 -82q0 -39 -33 -39q-20 0 -32 45q-27 76 -136 76q-63 0 -170 -31q-53 -283 -113.5 -432t-160.5 -256q199 -127 512 -127q139 0 250 82t111 186q0 23 -13.5 39.5t-27.5 16.5q-23 -10 -47.5 -21.5t-53.5 -11.5q-37 0 -65.5 33.5t-28.5 78.5t33 77t80 32 q68 0 109.5 -62.5t41.5 -158.5q0 -193 -129 -324t-311 -131q-121 0 -236.5 49t-292.5 172q-274 -201 -575 -200q-346 0 -594 274t-248 653zM2318 680q0 -350 228.5 -606t544.5 -256q270 0 462 245q-160 111 -250 148t-194 37h-49q-18 -8 -51 -8q-35 0 -35 32q0 35 43 35 q25 0 49 -6q16 0 39.5 -5t36.5 -5q180 0 338.5 123t228.5 317q-41 12 -94 74q-104 -104 -252 -105q-180 0 -301 143.5t-121 358.5q0 203 137 381l-43 -12q-303 -45 -510 -304t-207 -587zM2984 1202q0 -199 107.5 -332t271.5 -133q147 0 233 103v61q0 68 45 68q31 0 31 -54 q0 -45 -31 -75q23 -47 76 -78q35 111 35 201q0 258 -169 439t-404 181h-56q-139 -178 -139 -381zM3166 1614q279 -10 452 -198.5t173 -471.5q0 -61 -25 -199q6 0 27 -4t35 -4h22q16 59 17 68l49 139q74 209 137.5 312.5t192.5 216.5q-117 31 -209 71l-158 70 q-274 121 -397 121q-187 0 -316 -121zM3261 260q20 -2 39 -7l20 -5q39 -18 113 -64l96 -51q23 0 59 -24q84 117 240 544q0 18 12 47h-29q-31 0 -59 11q-59 -186 -173.5 -291t-317.5 -160zM201 1040q0 -313 203.5 -529t498.5 -216h60q16 -250 112 -388t254 -138q39 0 90 24 q49 -111 111 -176q55 -59 164 -123l14 23q-170 106 -252 293q92 72 138 127t126 194q342 596 342 1040q0 125 -12 170t-65 107v65q0 96 -50.5 156t-130.5 60q-88 0 -227 -105q-227 227 -539 227q-348 0 -592.5 -237.5t-244.5 -573.5zM248 1008q0 317 244.5 558.5 t570.5 241.5q291 0 491 -206q-246 -209 -410.5 -563.5t-180.5 -710.5h-54q-274 0 -467.5 198.5t-193.5 481.5zM1139 121q0 86 22 219q74 23 176 72q-8 -47 -8 -97q0 -281 76 -487q-43 -25 -88 -25q-178 1 -178 318zM1161 383q2 4 17 47q72 346 184 641q115 307 244 479 q0 -2 44 -75.5t44 -83.5q-293 -358 -357 -938q-88 -47 -176 -70zM1372 295v141q487 330 613 971q31 -82 30 -133q0 -180 -92 -496q-88 -307 -209 -559q-76 -160 -133 -237.5t-143 -137.5q-66 191 -66 451zM1372 479q31 270 120 505t216 376q39 -133 55 -219l37 6 q-33 166 -67 244q63 66 137 65q41 0 76 -26q-97 -629 -574 -951zM1624 1583q90 119 191 119q53 0 92 -56.5t39 -138.5v-32q-35 14 -76 14q-70 0 -150 -64q-37 74 -96 158z" />
<glyph unicode="&#x153;" horiz-adv-x="1583" d="M878 231q0 164 142 328q131 152 280 152q76 0 123 -40t47 -100q0 -96 -114 -194q-125 -104 -336 -170q0 -174 151 -174q123 0 273 131q160 139 315 395q6 -18 6 -24q0 -59 -88 -181q-274 -379 -559 -379q-109 0 -174.5 69.5t-65.5 186.5zM1020 254q147 35 241 131 q88 92 89 197q0 80 -68 80q-78 0 -152 -105q-83 -119 -110 -303zM12 233q0 166 145.5 322t309.5 156q96 0 163.5 -74t67.5 -188q0 -109 -80 -252q10 -41 52 -41q45 0 135 106q68 78 233 309q6 -31 6 -24q0 -43 -88 -162q-123 -166 -188 -229q-80 -80 -137 -80q-43 0 -78 37 q-139 -139 -283 -140q-117 0 -187.5 70.5t-70.5 189.5zM162 197q0 -178 129 -179q102 0 215 172q-12 35 -12 76q0 127 98 258q-29 143 -133 144q-63 0 -123 -58q-78 -76 -126 -191.5t-48 -221.5z" />
<glyph unicode="&#x178;" horiz-adv-x="2056" d="M975 2013q0 111 29 111q14 0 106 -19q35 -6 35 -86q0 -45 -76 -45q-94 0 -94 39zM1303 2013q0 111 29 111q14 0 106 -19q31 -6 31 -86q0 -45 -72 -45q-94 0 -94 39zM127 705q0 291 151.5 504.5t438.5 328.5q164 276 475 277q211 0 351 -116t140 -286t-145 -397 q-41 -57 -90 -133q0 -4 -10.5 -24.5t-14.5 -33.5q113 41 260 183l25 -17q-113 -145 -309 -217q-37 -111 -37 -156q0 -66 34 -106.5t85 -40.5q129 0 237 309l72 203q88 246 267 422t349 176q94 0 155.5 -45t61.5 -117q0 -33 -23.5 -58.5t-59.5 -25.5q-68 0 -68 78q0 2 10 68 q0 63 -94 63q-158 0 -283 -165t-178 -447l-43 -227q-174 -918 -901 -918q-356 0 -606 269.5t-250 648.5zM176 662q0 -332 227.5 -586t528.5 -254q475 0 700 690q-78 -76 -151 -76q-115 0 -184.5 82t-69.5 213h-49q-231 0 -386 150.5t-155 378.5q0 96 43 221 q-227 -111 -365.5 -333t-138.5 -486zM674 1260q0 -215 144.5 -359.5t359.5 -144.5l17 4q17 4 32 4q20 156 145 338l109 158q100 145 100 260t-106.5 189.5t-272.5 74.5q-289 0 -438 -230q106 33 227 33t211 -28.5t211 -102.5l-14 -37q-209 135 -408 135q-115 0 -260 -55 q-57 -116 -57 -239z" />
<glyph unicode="&#x2c6;" horiz-adv-x="1026" d="M301 780l315 271h101l160 -271h-52l-163 183l-297 -183h-64z" />
<glyph unicode="&#x2dc;" horiz-adv-x="1026" d="M360 807q51 176 170 176q41 0 70 -8l145 -41q23 -6 48 -6q76 0 94 82h45q-45 -182 -170 -183q-18 0 -55 11l-142 39q-37 10 -61 10q-76 0 -94 -80h-50z" />
<glyph unicode="&#x2000;" horiz-adv-x="1126" />
<glyph unicode="&#x2001;" horiz-adv-x="2252" />
<glyph unicode="&#x2002;" horiz-adv-x="1126" />
<glyph unicode="&#x2003;" horiz-adv-x="2252" />
<glyph unicode="&#x2004;" horiz-adv-x="749" />
<glyph unicode="&#x2005;" horiz-adv-x="563" />
<glyph unicode="&#x2006;" horiz-adv-x="374" />
<glyph unicode="&#x2007;" horiz-adv-x="374" />
<glyph unicode="&#x2008;" horiz-adv-x="280" />
<glyph unicode="&#x2009;" horiz-adv-x="450" />
<glyph unicode="&#x200a;" horiz-adv-x="124" />
<glyph unicode="&#x2010;" horiz-adv-x="882" d="M266 371l29 84l14 10h459l12 -12l-28 -93l-13 -6h-467z" />
<glyph unicode="&#x2011;" horiz-adv-x="882" d="M266 371l29 84l14 10h459l12 -12l-28 -93l-13 -6h-467z" />
<glyph unicode="&#x2012;" horiz-adv-x="882" d="M266 371l29 84l14 10h459l12 -12l-28 -93l-13 -6h-467z" />
<glyph unicode="&#x2013;" horiz-adv-x="1026" d="M-74 379l23 63l14 7l987 -9l-22 -63l-8 -6h-988z" />
<glyph unicode="&#x2014;" horiz-adv-x="2048" d="M49 371l25 78h2044l-21 -78h-2048z" />
<glyph unicode="&#x2018;" horiz-adv-x="473" d="M219 1167q0 152 281 293l-11 -49q-170 -96 -170 -174q0 -39 46 -39q16 0 53 16l6 -10l-23 -88q-12 -49 -82 -49q-100 0 -100 100z" />
<glyph unicode="&#x2019;" horiz-adv-x="473" d="M221 1057l12 47q168 94 168 174q0 39 -43 39q-12 0 -51 -14l-10 8l25 88q14 49 81 49q96 0 97 -105q0 -149 -279 -286z" />
<glyph unicode="&#x201a;" horiz-adv-x="473" d="M57 -209l17 47q164 96 164 170q0 43 -43 43q-12 0 -52 -14l-10 8l25 92q10 41 82 41q96 0 96 -98q0 -148 -279 -289z" />
<glyph unicode="&#x201c;" horiz-adv-x="782" d="M219 1167q0 152 281 293l-11 -49q-170 -96 -170 -174q0 -39 46 -39q16 0 53 16l6 -10l-23 -88q-12 -49 -82 -49q-100 0 -100 100zM528 1167q0 152 283 293l-16 -49q-166 -94 -166 -174q0 -39 41 -39q23 0 55 16l10 -10l-24 -88q-14 -49 -82 -49q-101 0 -101 100z" />
<glyph unicode="&#x201d;" horiz-adv-x="782" d="M221 1057l12 47q168 94 168 174q0 39 -43 39q-12 0 -51 -14l-10 8l25 88q14 49 81 49q96 0 97 -105q0 -149 -279 -286zM530 1057l13 47q168 94 168 174q0 39 -47 39q-8 0 -52 -14l-8 8l25 88q14 49 82 49q43 0 71.5 -29.5t28.5 -75.5q0 -147 -281 -286z" />
<glyph unicode="&#x201e;" horiz-adv-x="782" d="M57 -209l17 47q164 96 164 170q0 43 -43 43q-12 0 -52 -14l-10 8l25 92q10 41 82 41q96 0 96 -98q0 -148 -279 -289zM367 -209l12 47q168 98 168 170q0 43 -47 43q-8 0 -51 -14l-7 8l25 92q16 41 82 41q98 0 98 -98q1 -148 -280 -289z" />
<glyph unicode="&#x2026;" horiz-adv-x="2048" d="M213 27q0 111 31 110q27 -4 98 -22q31 0 31 -82q0 -41 -66 -41q-94 0 -94 35zM893 27q0 111 29 110q12 0 104 -22q31 0 31 -82q0 -41 -72 -41q-92 0 -92 35zM1577 27q0 111 31 110q8 0 100 -22q31 0 31 -82q0 -41 -68 -41q-94 0 -94 35z" />
<glyph unicode="&#x202f;" horiz-adv-x="450" />
<glyph unicode="&#x2039;" horiz-adv-x="647" d="M231 373l340 252q23 16 39 16q25 0 25 -18q0 -14 -29 -41l-246 -228l62 -254q2 -10 4 -19t2 -11q0 -27 -18 -27t-37 37z" />
<glyph unicode="&#x203a;" horiz-adv-x="647" d="M131 68q0 12 25 34l247 228l-63 256q-6 25 -6 30q0 25 18 25q23 0 39 -35l139 -293l-340 -252q-25 -18 -38 -18q-21 0 -21 25z" />
<glyph unicode="&#x205f;" horiz-adv-x="563" />
<glyph unicode="&#x2122;" horiz-adv-x="4913" d="M2249 735q0 -377 244.5 -644t584.5 -267q305 0 489.5 202.5t282.5 647.5q27 117 62 291q55 215 114 325q35 -141 35 -473v-344q16 29 41 68q51 98 158 290q203 358 358 482q-143 -215 -245.5 -543t-102.5 -569q0 -197 90 -318t234 -121q139 0 200 119l-26 10 q-55 -82 -139 -81q-195 0 -195 290q0 178 68.5 481.5t167.5 567.5q72 188 144.5 267t213.5 116v24q-256 -51 -445.5 -226t-388.5 -548v107q0 504 -150.5 724t-502.5 220q-301 0 -487 -225q-340 -25 -572.5 -276t-232.5 -597zM2292 698q0 326 208 572t527 295 q-59 -96 -78 -156q-23 -66 -22 -168q0 -207 131 -349t319 -142q182 0 334 149q-31 -238 -195.5 -398.5t-371.5 -160.5q-180 0 -299 122t-119 306q0 72 18 131l-34 8q-23 -106 -23 -149q0 -199 136 -334t337 -135q256 0 422 187.5t170 479.5q72 104 115 252l-33 9 q-20 -78 -31 -103q-16 -39 -51 -88q-31 256 -203 419t-413 163h-33q168 182 399 182q186 0 323.5 -117t192.5 -323q-78 -162 -131 -336l-112 -365q-246 -793 -715 -792q-307 0 -537.5 251.5t-230.5 589.5zM2962 1241q0 178 106 324q35 10 76 10q244 0 405.5 -174t161.5 -436 q-145 -182 -334 -183q-174 0 -294.5 134.5t-120.5 324.5zM139 705q0 -387 253 -658.5t609 -271.5q387 0 602.5 238.5t317.5 781.5q53 287 110.5 420t159.5 223q121 -27 176 -27q348 0 531 289l-29 14q-74 -98 -144.5 -137t-178.5 -39q-172 0 -654 162q-250 84 -385 84 q-332 0 -524 -203q-369 -33 -606.5 -277.5t-237.5 -598.5zM190 662q0 334 215.5 584.5t544.5 301.5q-119 -154 -119 -362q0 -215 132.5 -362.5t322.5 -147.5q170 0 332 137q-59 -227 -222 -374.5t-352 -147.5q-178 0 -299.5 126t-121.5 306q0 33 24 151l-35 9 q-25 -78 -24 -160q0 -197 138 -331t341 -134q242 0 408.5 167t193.5 439q78 127 125 303l-35 11q-37 -145 -90 -240q-14 285 -182 454t-453 189q133 133 332 133q139 0 375 -108l205 -95q55 -18 198 -63q-133 -121 -196.5 -206t-102.5 -181q-33 -82 -119 -356 q-150 -481 -324.5 -684t-436.5 -203q-315 0 -545 251t-230 593zM864 1192q0 211 137 356q276 0 450.5 -170t174.5 -440v-55q-94 -98 -167 -134t-173 -36q-176 0 -299 138t-123 341z" />
<glyph unicode="&#xe000;" horiz-adv-x="700" d="M0 700h700v-700h-700v700z" />
<glyph unicode="&#xfb01;" horiz-adv-x="1099" d="M631 113q0 35 31 131l129 403q14 33 41 35l75 16h6q14 0 15 -16q0 -2 -4 -12l-140 -430q-29 -88 -28 -134q0 -57 51 -57q119 0 469 512q0 -4 2 -12t2 -14q0 -49 -111 -199q-258 -348 -419 -348q-119 0 -119 125zM848 934q0 16 24.5 58t34.5 42t27 -12q27 -18 39 -24.5 t25.5 -13.5t13.5 -21q0 -92 -41 -93q-41 0 -82 23t-41 41zM-37 244q2 8 10 16l29 43q8 12 16 12q12 0 25 -8l53 -35q215 948 416 1160h10q43 -53 43 -224q0 -428 -313 -753q-12 -117 -55 -246q66 -51 151 -51q100 0 201 106q70 74 231 316q0 -4 2 -15v-12q0 -53 -84 -168 q-117 -160 -188 -219q-94 -78 -207 -78q-78 0 -141 43q63 -190 63 -307q0 -279 -205 -416l-8 4q-27 35 -26 217q0 193 90 535q-113 57 -113 80zM33 -440v-39q145 106 145 315q0 92 -28 184q-117 -280 -117 -460zM276 553q209 225 209 491q0 106 -36 205q-33 -80 -76 -286 q-62 -279 -97 -410z" />
<glyph unicode="&#xfb02;" horiz-adv-x="1241" d="M703 231q0 102 73 416q55 240 178 492q111 227 199 284l14 2q33 -33 33 -147q0 -434 -342 -875q-20 -92 -20 -172q0 -176 98 -176q76 0 195 127q104 115 282 379l6 -37q0 -39 -108 -188q-258 -356 -420 -356q-86 0 -137 65t-51 186zM866 485q225 293 226 572 q0 80 -19 186q-154 -297 -207 -758zM-37 244q2 8 10 16l29 43q8 12 16 12q12 0 25 -8l53 -35q215 948 416 1160h10q43 -53 43 -224q0 -428 -313 -753q-12 -117 -55 -246q66 -51 151 -51q100 0 201 106q70 74 231 316q0 -4 2 -15v-12q0 -53 -84 -168q-117 -160 -188 -219 q-94 -78 -207 -78q-78 0 -141 43q63 -190 63 -307q0 -279 -205 -416l-8 4q-27 35 -26 217q0 193 90 535q-113 57 -113 80zM33 -440v-39q145 106 145 315q0 92 -28 184q-117 -280 -117 -460zM276 553q209 225 209 491q0 106 -36 205q-33 -80 -76 -286q-62 -279 -97 -410z" />
<glyph unicode="&#xfb03;" horiz-adv-x="1693" d="M1225 113q0 35 31 131l129 403q14 33 41 35l75 16h6q14 0 15 -16q0 -2 -4 -12l-140 -430q-29 -88 -28 -134q0 -57 51 -57q119 0 469 512q0 -4 2 -12t2 -14q0 -49 -111 -199q-258 -348 -419 -348q-119 0 -119 125zM1442 934q0 16 24.5 58t34.5 42t27 -12q27 -18 39 -24.5 t25.5 -13.5t13.5 -21q0 -92 -41 -93q-41 0 -82 23t-41 41zM557 244q2 8 10 16l29 43q8 12 16 12q12 0 25 -8l53 -35q215 948 416 1160h10q43 -53 43 -224q0 -428 -313 -753q-12 -117 -55 -246q66 -51 151 -51q100 0 201 106q70 74 231 316q0 -4 2 -15v-12q0 -53 -84 -168 q-117 -160 -188 -219q-94 -78 -207 -78q-78 0 -141 43q63 -190 63 -307q0 -279 -205 -416l-8 4q-27 35 -26 217q0 193 90 535q-113 57 -113 80zM627 -440v-39q145 106 145 315q0 92 -28 184q-117 -280 -117 -460zM870 553q209 225 209 491q0 106 -36 205q-33 -80 -76 -286 q-62 -279 -97 -410zM-37 244q2 8 10 16l29 43q8 12 16 12q12 0 25 -8l53 -35q215 948 416 1160h10q43 -53 43 -224q0 -428 -313 -753q-12 -117 -55 -246q66 -51 151 -51q100 0 201 106q70 74 231 316q0 -4 2 -15v-12q0 -53 -84 -168q-117 -160 -188 -219q-94 -78 -207 -78 q-78 0 -141 43q63 -190 63 -307q0 -279 -205 -416l-8 4q-27 35 -26 217q0 193 90 535q-113 57 -113 80zM33 -440v-39q145 106 145 315q0 92 -28 184q-117 -280 -117 -460zM276 553q209 225 209 491q0 106 -36 205q-33 -80 -76 -286q-62 -279 -97 -410z" />
<glyph unicode="&#xfb04;" horiz-adv-x="1835" d="M1297 231q0 102 73 416q55 240 178 492q111 227 199 284l14 2q33 -33 33 -147q0 -434 -342 -875q-20 -92 -20 -172q0 -176 98 -176q76 0 195 127q104 115 282 379l6 -37q0 -39 -108 -188q-258 -356 -420 -356q-86 0 -137 65t-51 186zM1460 485q225 293 226 572 q0 80 -19 186q-154 -297 -207 -758zM557 244q2 8 10 16l29 43q8 12 16 12q12 0 25 -8l53 -35q215 948 416 1160h10q43 -53 43 -224q0 -428 -313 -753q-12 -117 -55 -246q66 -51 151 -51q100 0 201 106q70 74 231 316q0 -4 2 -15v-12q0 -53 -84 -168q-117 -160 -188 -219 q-94 -78 -207 -78q-78 0 -141 43q63 -190 63 -307q0 -279 -205 -416l-8 4q-27 35 -26 217q0 193 90 535q-113 57 -113 80zM627 -440v-39q145 106 145 315q0 92 -28 184q-117 -280 -117 -460zM870 553q209 225 209 491q0 106 -36 205q-33 -80 -76 -286q-62 -279 -97 -410z M-37 244q2 8 10 16l29 43q8 12 16 12q12 0 25 -8l53 -35q215 948 416 1160h10q43 -53 43 -224q0 -428 -313 -753q-12 -117 -55 -246q66 -51 151 -51q100 0 201 106q70 74 231 316q0 -4 2 -15v-12q0 -53 -84 -168q-117 -160 -188 -219q-94 -78 -207 -78q-78 0 -141 43 q63 -190 63 -307q0 -279 -205 -416l-8 4q-27 35 -26 217q0 193 90 535q-113 57 -113 80zM33 -440v-39q145 106 145 315q0 92 -28 184q-117 -280 -117 -460zM276 553q209 225 209 491q0 106 -36 205q-33 -80 -76 -286q-62 -279 -97 -410z" />
</font>
</defs>
</svg>
