<?xml version="1.0" standalone="no"?> <!DOCTYPE svg PUBLIC "-//W3C//DTD SVG 1.0//EN" "http://www.w3.org/TR/2001/REC-SVG-20010904/DTD/svg10.dtd" > <svg xmlns="http://www.w3.org/2000/svg" width="100%" height="100%">
<defs >
<font id="franklingothicbold" horiz-adv-x="1060" ><font-face
    font-family="Franklin Gothic"
    units-per-em="1914"
    panose-1="0 0 0 0 0 0 0 0 0 0"
    ascent="2102"
    descent="-481"
    alphabetic="0" />
<missing-glyph horiz-adv-x="1538" d="M96 0V1538H1442V0H96ZM1346 96V1442H192V96H1346Z" />
<glyph unicode=" " glyph-name="space" horiz-adv-x="699" />
<glyph unicode="!" glyph-name="exclam" horiz-adv-x="629" d="M532 1532L423 457H219L113 1532H532ZM492 -3H153V346H492V-3Z" />
<glyph unicode="&quot;" glyph-name="quotedbl" horiz-adv-x="920" d="M931 1250L838 962H719L627 1244V1538H931V1250ZM414 1250L321 962H202L110 1244V1538H414V1250Z" />
<glyph unicode="#" glyph-name="numbersign" horiz-adv-x="1434" d="M1334 881H1114L1063 614H1271V373H1010L936 -1H695L765 373H552L475 -2H235L309 368H107V614H359L409 879H197V1122H458L538 1536H778L696 1121H918L1001 1540H1235L1155 1122H1334V881ZM873
882H650L597 615H820L873 882Z" />
<glyph unicode="$" glyph-name="dollar" horiz-adv-x="1375" d="M1275 562Q1275 368 1131 232Q995 103 786 77V-131H600V77Q520 77 412 124Q286 179 209 267Q170 312 147 360T108 472L416 541Q443 448 517 395T692 341Q832 341 887 384Q934 421 934 493Q934 589
741 642Q447 723 381 760Q187 868 187 1096Q187 1256 270 1364T529 1523Q566 1533 597 1533V1651H782V1539Q822 1539 907 1514Q1019 1481 1080 1431T1175 1331T1232 1204L956 1112Q927 1195 887 1227Q838 1267 730 1278Q721 1279 713 1279T693 1280Q623 1280 576
1255Q520 1225 513 1168Q512 1162 512 1150Q512 1054 709 1008Q1007 939 1077 902Q1275 798 1275 562Z" />
<glyph unicode="%" glyph-name="percent" horiz-adv-x="1650" d="M737 1143Q737 972 674 872Q595 748 425 748Q267 748 178 872Q99 982 99 1146Q99 1304 176 1412Q263 1534 413 1534Q582 1534 666 1413Q737 1311 737 1143ZM1338 1533L487 1H313L1164 1533H1338ZM1557
403Q1557 232 1494 132Q1415 8 1245 8Q1087 8 998 132Q919 242 919 405Q919 563 996 670Q1082 790 1233 790Q1401 790 1486 670Q1557 569 1557 403ZM526 1165Q526 1278 515 1317Q493 1395 419 1395Q334 1395 316 1267Q309 1217 309 1137Q309 1019 322 975Q347 891
429 891Q490 891 512 956Q527 1000 527 1096Q527 1113 527 1130T526 1165ZM1351 419Q1351 527 1337 572Q1313 650 1239 650Q1154 650 1136 522Q1129 472 1129 391Q1129 274 1142 230Q1167 147 1249 147Q1314 147 1336 219Q1351 267 1351 371V419Z" />
<glyph unicode="&amp;" glyph-name="ampersand" horiz-adv-x="1749" d="M1643 41Q1602 28 1568 23T1488 18Q1382 18 1306 50T1153 161Q1064 82 949 40T695 -3Q437 -3 277 121T96 464Q95 472 95 481T95 495Q95 652 235 782Q353 891 479 915Q428 954 385 1041Q335
1141 335 1233Q335 1392 485 1490Q620 1578 805 1578Q1022 1578 1148 1467Q1266 1363 1266 1197Q1266 1053 1150 938Q1063 852 984 831L1190 605Q1222 644 1242 676T1281 753T1309 827T1326 903L1643 856Q1629 798 1617 762T1579 665Q1539 574 1498 510T1392 369Q1412
349 1431 337T1480 312Q1485 310 1517 306T1575 301Q1601 301 1613 302T1643 310V41ZM985 1196Q985 1244 939 1292Q888 1345 822 1345Q796 1345 773 1338T722 1312Q701 1297 689 1272T676 1218Q676 1168 709 1133L827 1015Q860 1015 916 1064Q985 1124 985 1196ZM971
369L658 709Q587 695 542 649T482 531Q478 514 478 492Q478 404 553 343T738 282Q785 282 832 295T909 323T971 369Z" />
<glyph unicode="&apos;" glyph-name="quotesingle" horiz-adv-x="500" d="M418 1226L320 964H201L108 1245V1538L416 1539L418 1226Z" />
<glyph unicode="(" glyph-name="parenleft" horiz-adv-x="756" d="M650 1698Q504 1446 447 1232T390 725Q390 444 444 238T639 -218H404Q290 -72 211 111Q143 268 106 447Q73 606 73 739Q73 859 105 1015Q143 1198 210 1360Q290 1552 404 1698H650Z" />
<glyph unicode=")" glyph-name="parenright" horiz-adv-x="774" d="M673 739Q673 603 641 448Q604 271 536 112Q458 -69 342 -218H107Q247 32 301 237T356 725Q356 1021 300 1231T96 1698H342Q454 1554 535 1361Q602 1200 640 1016Q673 856 673 739Z" />
<glyph unicode="*" glyph-name="asterisk" horiz-adv-x="1094" d="M996 1373L671 1272L884 1007L736 896L538 1177L352 893L203 1000L410 1269L77 1365L133 1534L452 1426L438 1766H624L617 1426L938 1545L996 1373Z" />
<glyph unicode="+" glyph-name="plus" horiz-adv-x="1291" d="M1203 408H793V-3H520V407H105V684H517V1096H795V685H1203V408Z" />
<glyph unicode="," glyph-name="comma" horiz-adv-x="527" d="M441 29L225 -356H94L265 1H102V349H441V29Z" />
<glyph unicode="-" glyph-name="hyphen" horiz-adv-x="775" d="M687 465H104V738H687V465Z" />
<glyph unicode="." glyph-name="period" horiz-adv-x="547" d="M455 -1H110V347H455V-1Z" />
<glyph unicode="/" glyph-name="slash" horiz-adv-x="1516" d="M1390 1599L436 -74H207L1166 1599H1390Z" />
<glyph unicode="0" glyph-name="zero" horiz-adv-x="1388" d="M1284 756Q1284 417 1126 205Q962 -15 684 -15Q402 -15 239 233Q94 453 94 766Q94 975 149 1143Q212 1335 334 1440Q475 1561 683 1561Q979 1561 1142 1305Q1284 1083 1284 756ZM914 783Q914 933 903
1018Q886 1150 839 1221Q782 1308 678 1308Q578 1308 526 1223Q484 1154 470 1024Q462 948 462 794Q462 629 471 550Q487 413 534 338Q591 247 698 247Q801 247 853 336Q896 409 908 544Q914 611 914 783Z" />
<glyph unicode="1" glyph-name="one" horiz-adv-x="1441" d="M1347 -7L98 -8V281H554V1139L126 911V1221Q188 1237 226 1251T332 1297Q441 1349 462 1363Q538 1413 650 1534L916 1533V289H1347V-7Z" />
<glyph unicode="2" glyph-name="two" horiz-adv-x="1358" d="M1259 -1H90V296L650 725Q748 800 808 882Q880 981 880 1069Q880 1105 868 1138T827 1203Q794 1240 754 1258T671 1277Q570 1277 488 1188T406 979L96 1055Q141 1289 277 1413Q429 1551 690 1551Q848
1551 952 1508Q1068 1460 1151 1347Q1198 1283 1220 1214T1243 1074Q1243 933 1159 798Q1082 674 958 591L534 309H1259V-1Z" />
<glyph unicode="3" glyph-name="three" horiz-adv-x="1397" d="M1293 436Q1269 187 1091 74Q944 -20 696 -20Q448 -20 296 107Q157 224 101 447L428 494Q426 484 426 478Q426 409 496 336Q577 251 686 251Q723 251 756 259T831 289Q883 316 909 361T935 457Q935
536 883 594Q827 656 741 656H503V930H739Q801 930 846 984T892 1110Q892 1143 882 1172T847 1228Q814 1264 775 1281T694 1298Q616 1298 550 1247T471 1136L465 1102L144 1153Q202 1343 350 1450T699 1558Q919 1558 1071 1456Q1243 1341 1243 1139Q1243 999 1173
919Q1117 855 989 805Q1123 763 1204 678Q1294 584 1294 464Q1294 453 1294 447Q1293 440 1293 436Z" />
<glyph unicode="4" glyph-name="four" horiz-adv-x="1428" d="M1332 347H1118V-2H760V349H92V623L709 1534H1120L1121 613H1332V347ZM778 615V1251L367 615H778Z" />
<glyph unicode="5" glyph-name="five" horiz-adv-x="1376" d="M1297 520Q1297 276 1164 135Q1016 -22 730 -22Q477 -22 323 87T105 416L436 467Q436 380 518 319Q596 261 697 261Q791 261 855 315Q928 377 939 497Q940 503 940 516Q940 602 876 667T720 733Q640
733 577 703T479 616L187 668L248 1534H1212L1171 1221H503L479 886Q556 957 635 985T823 1014Q1020 1014 1158 869T1297 520Z" />
<glyph unicode="6" glyph-name="six" horiz-adv-x="1390" d="M1289 494Q1289 285 1124 133T736 -20Q433 -20 273 170Q104 370 104 768Q104 974 171 1146Q244 1334 378 1439Q527 1556 734 1556Q907 1556 1016 1503Q1113 1456 1177 1359Q1223 1289 1273 1151L964
1066Q964 1147 910 1213T786 1293Q756 1299 728 1299Q601 1299 528 1177Q464 1070 464 924V796Q543 893 602 925Q676 965 809 965Q1022 965 1157 828Q1289 694 1289 494ZM931 484Q931 584 875 650Q814 721 709 721Q612 721 545 651T477 481Q477 379 537 311Q601
238 707 238Q810 238 870 306T931 484Z" />
<glyph unicode="7" glyph-name="seven" horiz-adv-x="1278" d="M1178 1254Q1105 1171 1048 1086Q1000 1014 951 921Q914 850 864 743Q819 646 789 520Q764 417 753 316T742 142L743 -3H332Q332 143 356 263Q375 359 430 521Q506 744 596 892T849 1212H86L111 1532L1178
1534V1254Z" />
<glyph unicode="8" glyph-name="eight" horiz-adv-x="1415" d="M1307 464Q1307 231 1154 108Q996 -19 685 -19Q444 -19 283 80Q93 197 93 413Q93 547 168 634Q233 710 362 758Q264 816 205 904T145 1085Q145 1103 146 1112Q170 1322 318 1441T693 1560Q827 1560
941 1526Q1080 1484 1157 1402Q1248 1304 1248 1154Q1248 1033 1187 954Q1135 887 1024 834Q1163 778 1228 703Q1307 612 1307 464ZM829 951Q878 971 909 1022T940 1131Q940 1214 882 1266Q814 1327 683 1327Q608 1327 563 1298Q509 1263 487 1173Q484 1158 484
1145Q484 1067 597 1006Q650 978 723 956L789 934L829 951ZM967 395Q960 471 896 525Q849 565 773 591Q730 603 688 616L611 644L526 609Q506 601 481 575Q418 511 418 430Q418 410 420 399Q433 313 518 265Q593 223 701 223Q808 223 885 265Q968 310 968 383Q967
391 967 395Z" />
<glyph unicode="9" glyph-name="nine" horiz-adv-x="1363" d="M1270 791Q1270 595 1211 423Q1143 224 1012 111Q860 -20 639 -20Q434 -20 301 85Q195 169 156 299L140 355L453 411Q484 329 521 297Q571 254 668 254Q786 254 852 359Q909 450 909 583L914 736Q841
655 760 619T570 582Q372 582 235 713Q95 847 95 1047Q95 1317 265 1447Q410 1558 657 1558Q880 1558 1025 1444Q1152 1344 1215 1160Q1270 998 1270 791ZM896 1070Q896 1168 830 1236T663 1304Q563 1304 502 1239T440 1070Q440 969 512 905Q580 845 679 845Q769
845 832 911T896 1070Z" />
<glyph unicode=":" glyph-name="colon" horiz-adv-x="540" d="M451 797H105V1144H451V797ZM445 8H99V355H445V8Z" />
<glyph unicode=";" glyph-name="semicolon" horiz-adv-x="533" d="M448 785H102V1133H448V785ZM444 31L228 -354H96L268 2H105V350H444V31Z" />
<glyph unicode="&lt;" glyph-name="less" horiz-adv-x="1272" d="M1181 804L486 557L1176 304V15L94 422V693L1181 1096V804Z" />
<glyph unicode="=" glyph-name="equal" horiz-adv-x="1351" d="M1255 759H97V1037H1255V759ZM1261 185H103V463H1261V185Z" />
<glyph unicode="&gt;" glyph-name="greater" horiz-adv-x="1277" d="M1187 411L105 4V294L794 547L100 793V1085L1187 682V411Z" />
<glyph unicode="?" glyph-name="question" horiz-adv-x="1246" d="M1150 1106Q1150 950 1048 827Q1005 775 857 658Q754 576 754 523V431H465V495Q465 644 492 709Q497 722 558 804Q578 831 645 878Q719 930 745 960Q793 1015 793 1081Q793 1155 763 1202T667
1272Q637 1282 608 1282Q520 1282 454 1190Q403 1119 398 1067L392 1005L87 1042Q87 1257 244 1402T634 1547Q857 1547 991 1451Q1150 1337 1150 1106ZM787 -1H440L439 347H787V-1Z" />
<glyph unicode="@" glyph-name="at" horiz-adv-x="1493" d="M1440 835Q1440 621 1304 454Q1165 283 980 283Q901 283 862 361Q850 387 839 440L781 375Q743 332 699 312T597 291Q484 291 412 381T339 591Q339 769 489 902Q624 1022 766 1022Q821 1022 860 1001T915
934L934 880L973 999L1137 1003L988 452Q981 426 981 400Q981 372 990 355T1018 337Q1136 337 1236 492T1336 819Q1336 1041 1163 1173Q1005 1294 777 1294Q532 1294 358 1120T184 701Q184 445 361 263T793 80Q978 80 1110 151Q1205 202 1265 284Q1285 320 1306
356H1432Q1404 308 1376 260Q1295 149 1176 80Q1009 -17 789 -17Q495 -17 288 191T81 693Q81 981 285 1187T777 1393Q1041 1393 1235 1240Q1440 1078 1440 835ZM898 804Q898 879 869 925T785 972Q691 972 601 814T511 505Q511 440 540 397Q574 346 641 346Q736
346 821 520Q898 678 898 804Z" />
<glyph unicode="A" glyph-name="A" horiz-adv-x="1488" d="M1448 0H1055L965 308H472L375 0H58L555 1538H972L1448 0ZM880 600L723 1127L562 600H880Z" />
<glyph unicode="B" glyph-name="B" horiz-adv-x="1441" d="M1391 421Q1391 231 1248 113Q1110 -1 902 -1L130 0V1538H964Q1112 1538 1231 1418Q1354 1294 1354 1129Q1354 997 1280 912Q1214 836 1088 797Q1228 760 1309 662T1391 421ZM986 1099Q986 1178 941 1217Q892
1260 784 1260H491V927H802Q888 927 937 975T986 1099ZM1014 474Q1014 543 971 592Q919 651 828 651H489V286H812Q908 286 961 335T1014 474Z" />
<glyph unicode="C" glyph-name="C" horiz-adv-x="1499" d="M1409 539Q1369 281 1236 142Q1082 -19 803 -19Q497 -19 298 197T99 758Q99 1084 284 1315Q478 1557 775 1557Q1084 1557 1244 1384Q1384 1234 1409 957L1039 938Q1039 1074 983 1162Q917 1266 789 1266Q628
1266 563 1133Q506 1016 506 752Q506 539 569 415Q642 270 792 270Q908 270 983 354T1059 556L1409 539Z" />
<glyph unicode="D" glyph-name="D" horiz-adv-x="1448" d="M1411 757Q1411 428 1211 214T693 0H149V1538H665Q1026 1538 1225 1314Q1411 1104 1411 757ZM1047 771Q1047 959 956 1088Q856 1230 688 1230H517V308H691Q856 308 956 452Q1047 583 1047 771Z" />
<glyph unicode="E" glyph-name="E" horiz-adv-x="1299" d="M1255 0H160V1538H1255V1230H520V924H1094V628H514V308H1255V0Z" />
<glyph unicode="F" glyph-name="F" horiz-adv-x="1277" d="M1226 1230H488L487 924L1075 923V628H487V-1L131 0V1538L1226 1537V1230Z" />
<glyph unicode="G" glyph-name="G" horiz-adv-x="1456" d="M1370 1039L1021 992Q1008 1110 963 1177Q907 1259 797 1276Q787 1278 775 1279T751 1280Q604 1280 529 1116Q467 981 467 778Q467 747 468 730T472 677Q491 474 556 379Q627 275 768 275Q868 275 941
330Q1025 394 1025 505V543H729V829H1368L1366 0H1200L1147 173Q1055 72 968 26Q870 -26 747 -26Q521 -26 366 89Q228 192 157 378Q93 546 93 756Q93 970 165 1149Q242 1342 386 1451Q544 1571 761 1571Q1033 1571 1187 1421Q1323 1289 1370 1039Z" />
<glyph unicode="H" glyph-name="H" horiz-adv-x="1396" d="M1310 0H943V628H470V0H108L109 1538H474V924H945V1538H1310V0Z" />
<glyph unicode="I" glyph-name="I" horiz-adv-x="615" d="M496 0H133V1538H496V0Z" />
<glyph unicode="J" glyph-name="J" horiz-adv-x="929" d="M793 429Q793 180 647 65Q530 -27 334 -27Q287 -27 182 -16T59 2V298L118 291Q153 286 185 283T241 280Q251 280 261 280Q270 282 273 282Q369 292 398 348T427 570V1538H791L793 429Z" />
<glyph unicode="K" glyph-name="K" horiz-adv-x="1466" d="M1422 0H1013L725 653L510 358V0H162V1538H515V823L986 1538H1336L968 984L1422 0Z" />
<glyph unicode="L" glyph-name="L" horiz-adv-x="1185" d="M1132 0H155V1538H517V308H1132V0Z" />
<glyph unicode="M" glyph-name="M" horiz-adv-x="1829" d="M1749 0H1396L1393 1233L1015 0H777L413 1225L415 0H117L120 1538H664L922 616L1198 1538H1749V0Z" />
<glyph unicode="N" glyph-name="N" horiz-adv-x="1342" d="M1249 0H945L362 1026V0H77V1538H464L971 639V1538H1249V0Z" />
<glyph unicode="O" glyph-name="O" horiz-adv-x="1505" d="M1416 769Q1416 559 1350 388Q1277 198 1140 93Q988 -24 771 -24Q451 -24 268 225Q104 448 104 779Q104 1095 286 1317Q480 1554 788 1554Q1000 1554 1148 1438Q1282 1333 1352 1146Q1416 976 1416 769ZM1040
782Q1040 910 1022 1000Q998 1119 944 1182Q879 1258 769 1258Q657 1258 587 1173Q530 1103 503 978Q482 879 482 760Q482 641 505 542Q534 418 592 349Q663 265 772 265Q882 265 946 348Q999 416 1022 547Q1040 648 1040 782Z" />
<glyph unicode="P" glyph-name="P" horiz-adv-x="1368" d="M1325 1050Q1325 852 1184 710T845 568H492V0H136L138 1538H844Q1043 1538 1184 1394T1325 1050ZM963 1047Q963 1139 905 1194Q844 1252 736 1252H495V848H764Q845 848 904 907T963 1047Z" />
<glyph unicode="Q" glyph-name="Q" horiz-adv-x="1514" d="M1416 773Q1416 541 1349 379Q1277 206 1110 65Q1108 47 1108 41Q1108 21 1122 -4Q1139 -29 1165 -39T1224 -50Q1231 -50 1239 -49T1253 -48L1375 -37V-310Q1342 -318 1311 -322T1245 -326Q1152 -326
1110 -317Q1047 -303 996 -260T912 -126Q888 -58 888 -19L831 -22Q632 -22 489 38Q314 112 220 275Q111 465 111 777Q111 1093 292 1314Q486 1551 794 1551Q1005 1551 1153 1435Q1284 1332 1353 1146Q1416 976 1416 773ZM1048 779Q1048 906 1030 996Q1006 1114
952 1177Q887 1253 777 1253Q658 1253 589 1169Q533 1101 508 973Q490 879 490 757Q490 638 513 538Q542 414 600 345Q670 262 780 262Q889 262 954 346Q1007 415 1030 544Q1048 645 1048 779Z" />
<glyph unicode="R" glyph-name="R" horiz-adv-x="1451" d="M1362 0H954L722 628H462V0H101V1538L832 1537Q1079 1537 1215 1407Q1342 1286 1342 1087Q1342 946 1275 842T1078 678L1362 0ZM966 1079Q966 1172 902 1224T720 1277H462V876H739Q840 876 903 931T966 1079Z" />
<glyph unicode="S" glyph-name="S" horiz-adv-x="1476" d="M1372 496Q1372 266 1182 118Q998 -25 724 -25Q470 -25 314 88Q174 189 112 380L103 405L438 488L450 449Q467 393 524 342Q588 285 662 275Q710 269 753 269Q868 269 934 311T1000 420Q1000 468 963
520Q934 560 844 586Q802 598 678 620T503 663Q372 717 309 770Q225 841 199 950Q181 1025 181 1091Q181 1310 347 1445Q505 1574 740 1574Q972 1574 1107 1497T1317 1240L1328 1214L1017 1109L1007 1138Q982 1211 903 1254Q831 1293 744 1293Q669 1293 612 1264T538
1180Q532 1159 532 1140Q532 1075 613 1033Q672 1002 772 984Q827 976 882 968Q1027 939 1118 895Q1238 838 1300 750Q1372 648 1372 496Z" />
<glyph unicode="T" glyph-name="T" horiz-adv-x="1307" d="M1206 1230H824V0H463V1230H84V1538H1206V1230Z" />
<glyph unicode="U" glyph-name="U" horiz-adv-x="1403" d="M1318 585Q1318 398 1283 290Q1235 143 1114 69Q973 -17 717 -17Q376 -17 226 147Q97 288 97 565V1538H487L486 690Q486 424 533 349T740 273Q914 273 960 345T1007 679L1008 1538H1318V585Z" />
<glyph unicode="V" glyph-name="V" horiz-adv-x="1424" d="M1386 1538L916 0H520L52 1538H443L756 453L1073 1538H1386Z" />
<glyph unicode="W" glyph-name="W" horiz-adv-x="2087" d="M2034 1538L1660 0H1298L1046 1014L799 0H445L49 1538H417L655 501L901 1538H1244L1507 504L1733 1538H2034Z" />
<glyph unicode="X" glyph-name="X" horiz-adv-x="1460" d="M1415 0H1001L695 549L386 0H37L514 815L98 1538H517L764 1072L1020 1538H1361L945 818L1415 0Z" />
<glyph unicode="Y" glyph-name="Y" horiz-adv-x="1414" d="M1349 1538L865 649V0H503V642L37 1538H449L735 951L1026 1538H1349Z" />
<glyph unicode="Z" glyph-name="Z" horiz-adv-x="1430" d="M1337 0H97V275L869 1230H155V1538H1322V1258L546 308H1337V0Z" />
<glyph unicode="[" glyph-name="bracketleft" horiz-adv-x="666" d="M571 1540H345V-94L569 -95V-233H88L91 1683H571V1540Z" />
<glyph unicode="\" glyph-name="backslash" horiz-adv-x="912" d="M817 -3H592L87 1539H317L817 -3Z" />
<glyph unicode="]" glyph-name="bracketright" horiz-adv-x="685" d="M589 -238H106V-100H326V1535H104V1678H589V-238Z" />
<glyph unicode="^" glyph-name="asciicircum" horiz-adv-x="1030" d="M949 1181H708L528 1303L349 1183H111L525 1517L949 1181Z" />
<glyph unicode="_" glyph-name="underscore" horiz-adv-x="1326" d="M1336 -247H0V-121H1336V-247Z" />
<glyph unicode="`" glyph-name="grave" horiz-adv-x="748" d="M648 1345L594 1213L91 1397L158 1584L648 1345Z" />
<glyph unicode="a" glyph-name="a" horiz-adv-x="1246" d="M1150 0H823L809 91Q807 109 806 123T804 163Q787 135 754 102Q700 49 637 18Q550 -24 450 -24Q297 -24 199 54Q89 142 89 304Q89 441 175 530Q249 607 386 650Q495 684 648 699L790 713V833Q790 878
741 909T634 940Q547 940 497 897T437 779L123 806L126 826Q154 997 327 1086Q472 1161 668 1161Q835 1161 944 1113Q1034 1073 1080 1005Q1116 952 1121 893L1130 798V129Q1130 105 1131 91T1139 47L1150 0ZM794 541L691 532Q600 525 525 473Q440 415 440 337Q440
287 479 232Q495 209 520 198T576 187Q655 187 720 248Q792 315 792 413L794 541Z" />
<glyph unicode="b" glyph-name="b" horiz-adv-x="1245" d="M1176 571Q1176 283 1057 129Q942 -20 734 -20Q608 -20 528 21T374 159L285 0H123V1560H461V1028L471 1050Q499 1107 557 1141Q628 1182 738 1182Q897 1182 1001 1089Q1092 1008 1137 859Q1176 731 1176
571ZM820 568Q820 753 787 839Q748 941 654 941Q637 941 619 938Q551 926 503 864T454 736V388Q454 323 497 270Q546 209 619 209Q627 209 637 210T654 213Q758 234 793 326Q820 397 820 568Z" />
<glyph unicode="c" glyph-name="c" horiz-adv-x="1253" d="M1165 725L845 712Q835 817 814 851Q777 912 668 912Q563 912 512 804Q471 717 471 584Q471 569 472 551T475 509Q486 387 511 339Q552 259 658 259Q737 259 789 311T841 452L1159 432Q1122 224 1009
115Q880 -10 649 -10Q412 -10 258 133Q94 285 94 537Q94 793 241 973Q399 1166 650 1166Q827 1166 941 1100Q1039 1043 1096 936Q1141 851 1165 725Z" />
<glyph unicode="d" glyph-name="d" horiz-adv-x="1259" d="M1122 0H802V177Q743 75 678 27Q602 -30 498 -30Q485 -30 473 -30Q462 -28 457 -28Q254 -7 161 151Q74 298 74 576Q74 718 114 846Q161 996 247 1080Q348 1178 495 1178Q586 1178 661 1144Q727 1114 771
1063L790 1035V1560H1121L1122 0ZM787 411V769Q787 821 743 878Q692 943 630 943Q527 943 473 820Q429 719 429 575Q429 427 464 338Q511 218 617 218Q689 218 738 276T787 411Z" />
<glyph unicode="e" glyph-name="e" horiz-adv-x="1271" d="M1187 520H459V422Q459 340 525 279T679 217Q757 217 819 274Q871 322 871 361V399L1184 379L1175 353Q1119 183 996 88Q858 -19 651 -19Q413 -19 254 151Q100 316 100 551Q100 803 235 981Q388 1182
647 1182Q882 1182 1034 1019T1186 606L1187 520ZM848 720Q852 739 852 763Q852 843 803 899Q750 959 665 959Q583 959 518 897T453 754Q453 737 456 720H848Z" />
<glyph unicode="f" glyph-name="f" horiz-adv-x="847" d="M788 1306H678Q660 1306 637 1305T590 1285Q571 1269 564 1247T556 1194V1124H757V864H559V0H229V865H97V1124H227L229 1266Q229 1297 247 1352Q270 1422 307 1464Q368 1534 474 1555Q534 1567 664 1567L788
1560V1306Z" />
<glyph unicode="g" glyph-name="g" horiz-adv-x="1442" d="M1330 1100Q1311 1107 1294 1109T1252 1112Q1243 1112 1239 1112Q1181 1112 1148 1087T1114 1030L1113 1017Q1163 959 1181 912T1199 797Q1199 633 1049 535Q913 446 719 446Q692 446 635 453T552 460Q510
460 484 445T450 390Q448 376 448 370Q448 317 507 293Q558 272 659 272Q690 272 721 272T786 273Q949 273 1038 258Q1171 236 1238 175Q1320 101 1320 -34Q1320 -171 1216 -260Q1126 -337 964 -374Q829 -405 661 -405Q492 -405 399 -393Q254 -374 178 -323Q86
-261 86 -146Q86 -70 141 -15Q187 31 273 65Q212 92 175 145T138 269Q138 331 176 387T278 479L353 520Q260 567 213 632Q161 704 161 803Q161 975 327 1069Q471 1151 687 1151Q766 1151 854 1136T981 1105Q981 1165 1009 1219Q1042 1282 1100 1306Q1115 1312 1165
1318T1259 1324Q1310 1324 1330 1315V1100ZM872 801Q872 880 828 922Q780 968 677 968Q590 968 543 921T496 800Q496 725 542 678T677 630Q769 630 820 677T872 801ZM1012 -101Q1003 -45 948 -24Q906 -8 827 -8Q810 -8 774 -9T721 -10Q694 -10 651 -7Q550 0 523
0Q453 0 420 -14Q377 -32 377 -78Q377 -88 378 -93Q387 -160 460 -184Q510 -200 614 -200H674Q816 -200 892 -187Q1013 -166 1013 -111Q1013 -104 1012 -101Z" />
<glyph unicode="h" glyph-name="h" horiz-adv-x="1174" d="M1092 0H758L757 746Q757 807 717 852T615 909Q601 911 594 911Q522 911 476 831Q435 759 435 667L440 0H104V1560H435V999Q535 1181 739 1181Q894 1181 996 1049Q1092 925 1092 756V0Z" />
<glyph unicode="i" glyph-name="i" horiz-adv-x="716" d="M531 1251H195V1560H531V1251ZM532 0H195V1155H532V0Z" />
<glyph unicode="j" glyph-name="j" horiz-adv-x="718" d="M529 1252H197V1560H529V1252ZM529 37Q529 18 529 -1T530 -39Q530 -163 505 -222Q484 -272 437 -311Q384 -356 324 -376T192 -396Q160 -396 144 -395T77 -387L-15 -375V-109Q14 -122 48 -122Q93 -122 131
-102T183 -51Q193 -26 195 3T198 42Q198 64 198 76L197 1155H529V37Z" />
<glyph unicode="k" glyph-name="k" horiz-adv-x="1344" d="M1304 0H927L687 516L506 297V0H168L167 1560H508V637L926 1155H1259L933 757L1304 0Z" />
<glyph unicode="l" glyph-name="l" horiz-adv-x="664" d="M489 0H164V1560H489V0Z" />
<glyph unicode="m" glyph-name="m" horiz-adv-x="1802" d="M1699 0H1367V722Q1367 801 1344 838Q1312 890 1225 890Q1147 890 1100 834Q1057 782 1057 706L1058 0H728V748Q728 809 692 848Q653 890 585 890Q509 890 465 845T420 729V0L92 1V1155H402L403 966Q498
1159 719 1159Q933 1159 1028 966Q1079 1062 1161 1108T1356 1155Q1510 1155 1594 1085Q1698 999 1698 806L1699 0Z" />
<glyph unicode="n" glyph-name="n" horiz-adv-x="1181" d="M1094 0H763L764 729Q764 803 732 847Q693 900 614 900Q527 900 479 810Q439 734 439 625V0H109L110 1155H424V943Q469 1049 549 1103T751 1157Q896 1157 976 1095Q1045 1042 1073 938Q1094 860 1094 734V0Z" />
<glyph unicode="o" glyph-name="o" horiz-adv-x="1277" d="M1201 588Q1201 315 1048 142T656 -31Q383 -31 236 155Q106 320 106 581Q106 836 237 999Q384 1182 652 1182Q920 1182 1068 1003Q1201 842 1201 588ZM845 549Q845 665 836 733Q822 839 785 894Q739 962
654 962Q537 962 492 858Q459 782 459 625Q459 503 468 434Q482 324 520 267Q566 197 651 197Q772 197 816 314Q845 391 845 549Z" />
<glyph unicode="p" glyph-name="p" horiz-adv-x="1213" d="M1124 577Q1124 420 1089 298Q1047 153 962 75Q862 -17 707 -17Q602 -17 538 20Q493 46 454 102L435 129V-378H106L105 1155H413V973Q477 1073 531 1110Q602 1159 721 1159Q1124 1159 1124 577ZM785 581Q785
720 756 807Q716 927 628 927Q616 927 609 926Q538 917 486 870T434 760V379Q434 317 481 272Q524 230 588 218Q603 215 617 215Q706 215 750 341Q785 441 785 581Z" />
<glyph unicode="q" glyph-name="q" horiz-adv-x="1234" d="M1152 -379H818V136L808 114Q781 59 724 26Q653 -15 546 -15Q321 -15 209 177Q117 335 117 584Q117 866 234 1018Q348 1165 551 1165Q675 1165 756 1123Q831 1084 904 989L991 1155H1152V-379ZM825 423V764Q825
829 784 881Q737 940 665 940Q657 940 647 939T630 936Q529 915 494 824Q467 753 467 588Q467 405 499 321Q537 221 629 221Q646 221 664 224Q733 236 779 296T825 423Z" />
<glyph unicode="r" glyph-name="r" horiz-adv-x="796" d="M748 824Q673 824 647 819Q599 810 562 773Q512 724 490 636T467 433V0H142V1155H450V927Q455 949 466 976T483 1013Q549 1111 592 1144T685 1178H748V824Z" />
<glyph unicode="s" glyph-name="s" horiz-adv-x="1207" d="M1117 421Q1123 388 1123 357Q1123 195 975 88T616 -19Q525 -19 436 1Q318 28 244 79Q150 144 123 246L104 320L377 358L391 317Q408 266 475 238T625 210Q711 210 768 237Q831 267 831 318Q831 327 830
331Q821 384 720 405Q622 420 525 436Q396 462 352 479Q269 511 214 582Q175 633 158 681T140 792Q140 979 288 1078Q416 1164 611 1164Q811 1164 914 1088Q999 1025 1067 865L830 800L815 843Q797 895 735 923T599 952Q529 952 481 927T432 854Q432 843 437 826Q451
784 551 759Q583 751 756 723Q888 702 942 674Q1018 635 1060 572Q1099 513 1117 421Z" />
<glyph unicode="t" glyph-name="t" horiz-adv-x="959" d="M864 0Q853 -6 811 -10T715 -14Q650 -14 587 -9T482 6Q392 27 336 94T279 254V886H91V1155H287L313 1483L602 1507V1155H847V887H602V367Q602 332 616 307T661 267Q670 262 681 260T704 258Q725 259 737
259L864 249V0Z" />
<glyph unicode="u" glyph-name="u" horiz-adv-x="1175" d="M1075 0H762V194Q672 -20 417 -20Q283 -20 187 70T91 291V1155H426V403Q426 327 450 292Q479 249 552 249Q646 249 698 321Q740 379 740 455V1155H1075V0Z" />
<glyph unicode="v" glyph-name="v" horiz-adv-x="1012" d="M966 1155L682 0H382L33 1155H353L540 481L700 1155H966Z" />
<glyph unicode="w" glyph-name="w" horiz-adv-x="1769" d="M1720 1155L1369 0H1054L885 719L697 0H397L34 1155H394L590 430L771 1155H1080L1254 426L1453 1155H1720Z" />
<glyph unicode="x" glyph-name="x" horiz-adv-x="1189" d="M1135 0H762L535 383L311 0H39L388 606L77 1155H451L627 833L799 1155H1081L767 609L1135 0Z" />
<glyph unicode="y" glyph-name="y" horiz-adv-x="1090" d="M1042 1155L655 -49Q614 -177 572 -234Q537 -282 477 -320Q431 -348 359 -360Q304 -369 242 -369Q235 -369 231 -369Q214 -369 200 -369T174 -368L96 -360V-106L140 -108Q169 -108 218 -113T289 -118Q299
-118 307 -118T321 -116Q369 -110 403 -71T437 14Q437 32 431 50L26 1155H380L593 486L796 1155H1042Z" />
<glyph unicode="z" glyph-name="z" horiz-adv-x="1097" d="M1014 0H104V243L607 924H146V1155H988V939L483 249H1014V0Z" />
<glyph unicode="{" glyph-name="braceleft" horiz-adv-x="809" d="M725 -206H565Q502 -206 459 -187T365 -123Q328 -91 309 -49Q283 8 283 93L282 555Q282 595 256 628Q221 673 158 673H103V862H133Q145 862 150 862Q198 862 215 868T250 890T277 921T287 953V1441Q287
1532 342 1605Q376 1650 429 1680T520 1710H725V1511H622Q591 1511 569 1493T541 1443V942Q541 892 501 846Q478 818 428 791T345 764Q378 764 421 748T479 712Q509 672 523 636T538 553L542 54Q546 32 564 17Q574 7 590 2T617 -4H725V-206Z" />
<glyph unicode="|" glyph-name="bar" horiz-adv-x="408" d="M333 -378H98V1534H332L333 -378Z" />
<glyph unicode="}" glyph-name="braceright" horiz-adv-x="815" d="M732 681H677Q614 681 579 636Q565 618 559 602T553 563V101Q553 16 527 -40Q508 -81 470 -115Q421 -158 377 -178T270 -198H110V5H218Q231 5 245 9T270 24T285 42T293 62V559Q293 607 309 645Q322
675 356 720Q371 740 413 756T490 772Q458 772 408 798T333 854Q294 902 294 950V1452Q288 1481 266 1500T213 1519H110V1719H314Q353 1719 405 1689T493 1613Q548 1540 548 1450V962Q548 943 557 929T585 897T630 875T701 871H732V681Z" />
<glyph unicode="~" glyph-name="asciitilde" horiz-adv-x="1013" d="M928 1486Q928 1366 893 1303Q845 1216 727 1216Q684 1216 607 1256T457 1337Q375 1380 340 1380Q310 1380 293 1363T275 1302V1267H117Q127 1383 167 1449Q219 1535 318 1535Q390 1535 468
1490Q532 1448 596 1407Q672 1361 734 1361Q759 1361 771 1407Q779 1436 779 1458L778 1486H928Z" />
</font>
</defs>
</svg>
