<?xml version="1.0" standalone="no"?>
<!DOCTYPE svg PUBLIC "-//W3C//DTD SVG 1.1//EN" "http://www.w3.org/Graphics/SVG/1.1/DTD/svg11.dtd" >
<svg xmlns="http://www.w3.org/2000/svg">
<metadata></metadata>
<defs>
<font id="franklin_gothic_demiregular" horiz-adv-x="1201" >
<font-face units-per-em="2048" ascent="1638" descent="-410" />
<missing-glyph horiz-adv-x="512" />
<glyph horiz-adv-x="2048" />
<glyph horiz-adv-x="2048" />
<glyph unicode="&#xd;" horiz-adv-x="512" />
<glyph unicode=" "  horiz-adv-x="512" />
<glyph unicode="&#x09;" horiz-adv-x="512" />
<glyph unicode="&#xa0;" horiz-adv-x="512" />
<glyph unicode="!" horiz-adv-x="602" d="M109 1365h383l-99 -957h-184zM144 0v315h315v-315h-315z" />
<glyph unicode="&#x22;" horiz-adv-x="759" d="M77 1365h242l-36 -568h-171zM439 1365h242l-35 -568h-171z" />
<glyph unicode="#" d="M70 421l35 199h218l27 154h-214l34 198h215l69 393h199l-69 -393h157l69 393h201l-69 -393h190l-35 -198h-190l-27 -154h193l-35 -199h-193l-74 -421h-202l74 421h-156l-75 -421h-198l74 421h-218zM522 620h157l27 154h-157z" />
<glyph unicode="$" d="M48 387l275 63q47 -177 258 -177q102 0 152.5 39t50.5 94q0 56 -45 87t-176 57q-284 59 -366.5 158.5t-82.5 232.5q0 156 104 266.5t269 130.5v158h161v-156q308 -29 403 -295l-252 -84q-51 150 -217 150q-176 0 -176 -114q0 -46 33 -77.5t149 -54.5q194 -39 284.5 -79 t152 -129t61.5 -199q0 -152 -109 -274.5t-329 -143.5v-190h-161v189q-361 38 -439 348z" />
<glyph unicode="%" horiz-adv-x="1412" d="M58 1023q0 149 72.5 250.5t209.5 101.5q136 0 209.5 -101t73.5 -249q0 -151 -74 -251.5t-210 -100.5q-135 0 -208 101.5t-73 248.5zM241 1026q0 -125 22 -175.5t77 -50.5q54 0 77 50t23 169q0 133 -22 183t-77 50q-56 0 -78 -49.5t-22 -176.5zM249 0l756 1365h152 l-757 -1365h-151zM788 341q0 149 72.5 250t210.5 101q136 0 209.5 -101.5t73.5 -248.5q0 -151 -74 -251.5t-210 -100.5t-209 101.5t-73 249.5zM971 343q0 -126 23 -176t77 -50t77 50.5t23 167.5q0 133 -22 183.5t-77 50.5q-51 0 -76 -43.5t-25 -182.5z" />
<glyph unicode="&#x26;" horiz-adv-x="1470" d="M58 403q0 272 338 395q-79 100 -102.5 155.5t-23.5 118.5q0 144 115 232.5t306 88.5q193 0 299.5 -96.5t106.5 -242.5q0 -225 -257 -331l192 -209q83 90 121 270l283 -39q-47 -229 -223 -434q62 -64 140 -64q28 0 83 6v-243q-74 -19 -137 -19q-183 0 -295 131 q-187 -149 -427 -149q-262 0 -390.5 131t-128.5 299zM399 426q0 -80 57.5 -140.5t154.5 -60.5q124 0 227 82l-279 310q-160 -55 -160 -191zM571 1081q0 -56 75 -132l57 -58q146 54 146 158q0 56 -39.5 96t-109.5 40q-56 0 -92.5 -29t-36.5 -75z" />
<glyph unicode="'" horiz-adv-x="397" d="M77 1365h242l-36 -568h-171z" />
<glyph unicode="(" horiz-adv-x="601" d="M45 508q0 465 291 857h217q-235 -388 -235 -851q0 -474 230 -855h-218q-285 407 -285 849z" />
<glyph unicode=")" horiz-adv-x="601" d="M47 -341q235 385 235 851q0 474 -230 855h218q286 -409 286 -849q0 -467 -291 -857h-218z" />
<glyph unicode="*" d="M148 962l79 219l278 -121l-26 305h239l-30 -305l293 121l72 -219l-300 -71l199 -225l-199 -139l-156 262l-155 -262l-201 139l201 225z" />
<glyph unicode="+" d="M95 580v219h397v412h218v-412h397v-219h-397v-411h-218v411h-397z" />
<glyph unicode="," horiz-adv-x="527" d="M108 0v310h310v-280l-200 -349h-110l155 319h-155z" />
<glyph unicode="-" horiz-adv-x="527" d="M24 411v217h478v-217h-478z" />
<glyph unicode="." horiz-adv-x="527" d="M109 0v309h309v-309h-309z" />
<glyph unicode="/" horiz-adv-x="1096" d="M-134 -341l975 1706h201l-973 -1706h-203z" />
<glyph unicode="0" d="M68 681q0 298 136 501.5t396 203.5q258 0 396 -203.5t138 -497.5q0 -301 -138.5 -503.5t-397.5 -202.5q-251 0 -390.5 199t-139.5 503zM400 686q0 -264 46.5 -367t154.5 -103q107 0 155 101t48 356q0 280 -47 382t-155 102q-113 0 -157.5 -104.5t-44.5 -366.5z" />
<glyph unicode="1" d="M90 0v250h414v781q-244 -148 -380 -204v281q354 104 462 278h232v-1136h378v-250h-1106z" />
<glyph unicode="2" d="M65 0v265q50 38 165 119q281 200 409 329.5t128 237.5q0 79 -51 130.5t-137 51.5q-200 0 -232 -261l-282 63q95 451 527 451q242 0 371.5 -127t129.5 -303q0 -182 -135.5 -325t-498.5 -359h653l-23 -272h-1024z" />
<glyph unicode="3" d="M36 395l290 42q42 -212 244 -212q94 0 152.5 50t58.5 134q0 89 -53.5 133t-204.5 44h-125v239h144q123 0 167 51t44 109q0 65 -48.5 115.5t-135.5 50.5q-166 0 -209 -175l-283 45q35 158 169.5 261.5t331.5 103.5q206 0 346.5 -98t140.5 -268q0 -223 -234 -305 q275 -73 275 -324q0 -180 -140.5 -296t-387.5 -116q-237 0 -375.5 119.5t-166.5 296.5z" />
<glyph unicode="4" d="M47 315v239l551 832h365v-832h191v-239h-191v-315h-319v315h-597zM288 554h371v462q0 27 2 65l2 56z" />
<glyph unicode="5" d="M76 367l300 45q46 -180 228 -180q100 0 159 62t59 146q0 88 -62 151t-153 63q-127 0 -196 -106l-261 43l54 774h860l-35 -280h-596l-22 -304q110 117 291 117q185 0 314 -121.5t129 -313.5q0 -213 -139.5 -348.5t-390.5 -135.5q-436 0 -539 388z" />
<glyph unicode="6" d="M80 664q0 314 141.5 518t419.5 204q201 0 323 -105.5t152 -259.5l-275 -74q-39 210 -204 210q-240 0 -240 -456q97 156 306 156q191 0 312 -124.5t121 -294.5q0 -181 -133.5 -320t-356.5 -139q-220 0 -347.5 113t-173 269t-45.5 303zM413 421q0 -91 58 -152t147 -61 q87 0 145 58.5t58 165.5q0 95 -62.5 150.5t-139.5 55.5q-81 0 -143.5 -60t-62.5 -157z" />
<glyph unicode="7" d="M117 1083l24 282h955v-243q-93 -98 -203.5 -304.5t-147 -403.5t-36.5 -313q0 -35 4 -101h-366q3 161 30 293.5t104 303t155 281t173 205.5h-692z" />
<glyph unicode="8" d="M59 368q0 215 244 304q-198 110 -198 311q0 167 131.5 285t367.5 118q226 0 358.5 -102t132.5 -258q0 -199 -206 -289q253 -105 253 -336q0 -184 -145 -303t-418 -119q-252 0 -386 109.5t-134 279.5zM347 380q0 -85 66 -133.5t186 -48.5q104 0 169 37.5t65 110.5 q0 57 -46.5 104t-269.5 120q-170 -50 -170 -190zM410 1032q0 -61 48 -104.5t221 -101.5q138 42 138 174q0 80 -57.5 130t-164.5 50q-87 0 -136 -41.5t-49 -106.5z" />
<glyph unicode="9" d="M73 931q0 203 135.5 329t365.5 126q165 0 287.5 -75t188 -239.5t65.5 -369.5q0 -307 -141 -515t-422 -208q-361 0 -448 332l281 51q42 -144 181 -144q94 0 161.5 77t71.5 359q-117 -141 -305 -141q-182 0 -301.5 116t-119.5 302zM376 951q0 -82 54.5 -144t145.5 -62 t149 64t58 144q0 81 -57.5 143.5t-145.5 62.5q-89 0 -146.5 -63.5t-57.5 -144.5z" />
<glyph unicode=":" horiz-adv-x="527" d="M109 1v308h309v-308h-309zM109 707v303h309v-303h-309z" />
<glyph unicode=";" horiz-adv-x="527" d="M108 -4v310h310v-280l-200 -350h-110l155 320h-155zM108 709v301h310v-301h-310z" />
<glyph unicode="&#x3c;" d="M137 567v236l887 458v-280l-589 -297l589 -297v-278z" />
<glyph unicode="=" d="M95 382v219h1012v-219h-1012zM95 758v218h1012v-218h-1012z" />
<glyph unicode="&#x3e;" d="M177 109v280l589 296l-589 298v278l887 -458v-237z" />
<glyph unicode="?" horiz-adv-x="1045" d="M27 932q31 226 165.5 342t328.5 116q198 0 332 -114t134 -289q0 -217 -223 -363q-97 -64 -117.5 -100t-20.5 -133h-258v38q0 182 28.5 229.5t150.5 137.5q64 47 89 87.5t25 100.5q0 74 -47 116.5t-114 42.5q-177 0 -199 -250zM362 0v302h314v-302h-314z" />
<glyph unicode="@" horiz-adv-x="1591" d="M79 678q0 310 217 519t526 209q295 0 492 -184.5t197 -443.5q0 -205 -120.5 -350t-286.5 -145q-113 0 -171 87q-76 -91 -185 -91q-120 0 -206 103t-86 271q0 172 96.5 281t232.5 109q87 0 158 -59l12 43h189l-55 -451q-5 -45 -5 -78q0 -44 39 -44q70 0 138 91t68 229 q0 202 -146 334.5t-358 132.5q-229 0 -387 -162t-158 -402q0 -222 147.5 -387t415.5 -165q73 0 168.5 16.5t259.5 99.5l66 -165q-240 -125 -494 -125q-223 0 -391.5 89.5t-270.5 261.5t-102 376zM656 646q0 -74 28.5 -124t77.5 -50q63 0 115 64.5t52 169.5q0 56 -38.5 100 t-93.5 44q-61 0 -101 -56t-40 -148z" />
<glyph unicode="A" horiz-adv-x="1245" d="M0 0l437 1365h371l427 -1365h-344l-83 281h-442l-86 -281h-280zM443 533h290l-145 479z" />
<glyph unicode="B" horiz-adv-x="1334" d="M137 0v1365h636q171 0 257 -42t142 -120t56 -190q0 -227 -246 -303q142 -32 213 -127t71 -207q0 -153 -116 -264.5t-377 -111.5h-636zM456 253h246q126 0 178 44t52 123q0 66 -50 114t-166 48h-260v-329zM456 825h242q133 0 167.5 52.5t34.5 100.5q0 52 -28.5 89.5 t-62.5 47t-134 9.5h-219v-299z" />
<glyph unicode="C" horiz-adv-x="1285" d="M72 683q0 309 164 506t448 197q492 0 554 -529l-335 -21q-7 289 -225 289q-250 0 -250 -445q0 -257 68 -348.5t190 -91.5q198 0 242 258l310 -19q-30 -245 -182.5 -372.5t-373.5 -127.5q-271 0 -440.5 187t-169.5 517z" />
<glyph unicode="D" horiz-adv-x="1328" d="M137 0v1365h417q255 0 380 -70.5t224 -223t99 -385.5q0 -293 -173 -489.5t-477 -196.5h-470zM451 257h132q175 0 260 130.5t85 306.5q0 124 -48.5 229.5t-120.5 148t-173 42.5h-135v-857z" />
<glyph unicode="E" horiz-adv-x="1167" d="M136 0v1365h976v-260h-651v-280h512v-257h-512v-298h651v-270h-976z" />
<glyph unicode="F" horiz-adv-x="1135" d="M137 0v1365h971v-270h-639v-306h505v-255h-505v-534h-332z" />
<glyph unicode="G" horiz-adv-x="1315" d="M72 664q0 326 158.5 524t430.5 198q228 0 368 -128t171 -341l-304 -40q-37 248 -235 248q-130 0 -196.5 -117.5t-66.5 -335.5q0 -210 72 -321t205 -111q86 0 153.5 56t67.5 179h-257v255h561v-730h-146q-16 77 -46 157q-146 -178 -372 -178q-267 0 -415.5 191t-148.5 494 z" />
<glyph unicode="H" horiz-adv-x="1328" d="M137 0v1365h314v-532h427v532h314v-1365h-314v563h-427v-563h-314z" />
<glyph unicode="I" horiz-adv-x="593" d="M137 0v1365h319v-1365h-319z" />
<glyph unicode="J" horiz-adv-x="780" d="M14 0v265q95 -16 163 -16q60 0 94.5 21.5t50.5 52.5t16 108v934h319v-974q0 -208 -99.5 -310t-327.5 -102q-100 0 -216 21z" />
<glyph unicode="K" horiz-adv-x="1291" d="M137 0v1365h314v-642l428 642h306l-328 -487l410 -878h-353l-271 592l-192 -279v-313h-314z" />
<glyph unicode="L" horiz-adv-x="1031" d="M137 0v1365h324v-1095h543v-270h-867z" />
<glyph unicode="M" horiz-adv-x="1761" d="M136 0v1365h498l239 -817l252 817h499v-1365h-322v1113l-343 -1113h-219l-336 1113v-1113h-268z" />
<glyph unicode="N" horiz-adv-x="1324" d="M137 0v1365h345l465 -805q-6 60 -6 91v714h247v-1365h-273l-535 922q1 -35 2 -46q4 -35 4 -59v-817h-249z" />
<glyph unicode="O" horiz-adv-x="1309" d="M72 687q0 299 153 499t436 200q286 0 431.5 -213.5t145.5 -488.5q0 -297 -150 -501t-438 -204q-276 0 -427 207t-151 501zM407 683q0 -443 252 -443q244 0 244 442q0 443 -244 443q-252 0 -252 -442z" />
<glyph unicode="P" horiz-adv-x="1236" d="M136 0v1365h538q180 0 275.5 -38.5t170.5 -137.5t75 -243q0 -101 -40 -197t-113 -151t-141.5 -73t-214.5 -18h-225v-507h-325zM450 755h208q119 0 167 55t48 126q0 83 -53.5 132t-162.5 49h-207v-362z" />
<glyph unicode="Q" horiz-adv-x="1318" d="M72 683q0 286 149 494.5t439 208.5q286 0 436 -207.5t150 -498.5q0 -234 -85.5 -389.5t-201.5 -222.5q0 -105 120 -105q35 0 121 10v-242q-58 -13 -114 -13q-183 0 -245 78.5t-72 197.5q-77 -9 -129 -9q-259 0 -413.5 202.5t-154.5 495.5zM407 683q0 -444 251 -444 q254 0 254 438q0 448 -253 448q-252 0 -252 -442z" />
<glyph unicode="R" horiz-adv-x="1346" d="M137 0v1365h600q166 0 266.5 -38.5t166.5 -141.5t66 -229q0 -246 -237 -353l252 -603h-353l-210 541h-229v-541h-322zM459 774h196q96 0 139.5 13.5t77.5 60t34 106.5q0 57 -34 102t-74 55.5t-150 10.5h-189v-348z" />
<glyph unicode="S" horiz-adv-x="1189" d="M0 358l296 67q50 -191 278 -191q110 0 164 42.5t54 101.5q0 60 -49 93t-189 62q-261 54 -372 147.5t-111 273.5q0 182 132.5 307t359.5 125q402 0 517 -321l-272 -91q-55 162 -233 162q-190 0 -190 -123q0 -49 35.5 -83t160.5 -59q209 -42 306 -85t163.5 -138.5 t66.5 -213.5q0 -185 -142.5 -320t-422.5 -135q-210 0 -357.5 95.5t-194.5 283.5z" />
<glyph unicode="T" horiz-adv-x="1002" d="M0 1095v270h1002v-270h-338v-1095h-324v1095h-340z" />
<glyph unicode="U" horiz-adv-x="1330" d="M123 515v850h347v-850q0 -110 18.5 -162t74 -82.5t136.5 -30.5q90 0 146.5 30t75 79.5t18.5 165.5v850h274v-850q0 -206 -47 -306.5t-173.5 -165t-323.5 -64.5t-313.5 58t-174.5 165t-58 313z" />
<glyph unicode="V" horiz-adv-x="1138" d="M-14 1365h340l273 -976l283 976h269l-411 -1365h-344z" />
<glyph unicode="W" horiz-adv-x="1788" d="M14 1365h326l188 -833q1 -6 11 -44q4 -14 11 -42l223 919h295l230 -919q7 26 20 86l194 833h263l-344 -1365h-313l-225 903l-216 -903h-312z" />
<glyph unicode="X" horiz-adv-x="1228" d="M3 0l422 726l-374 639h372l221 -415l232 415h299l-373 -634l422 -731h-370l-274 496l-274 -496h-303z" />
<glyph unicode="Y" horiz-adv-x="1068" d="M-55 1365h371l261 -518l259 518h287l-429 -790v-575h-320v575z" />
<glyph unicode="Z" horiz-adv-x="1184" d="M41 0v232l688 875h-642v258h1034v-235l-690 -869h712v-261h-1102z" />
<glyph unicode="[" horiz-adv-x="601" d="M109 -341v1706h430v-128h-198v-1454h198v-124h-430z" />
<glyph unicode="\" horiz-adv-x="1096" d="M55 1365h201l975 -1706h-203z" />
<glyph unicode="]" horiz-adv-x="601" d="M62 -213h198v1454h-198v124h430v-1706h-430v128z" />
<glyph unicode="^" horiz-adv-x="1024" d="M9 685l323 689h360l323 -689h-287l-216 470l-216 -470h-287z" />
<glyph unicode="_" horiz-adv-x="1024" d="M0 -94h1024v-239h-1024v239z" />
<glyph unicode="`" horiz-adv-x="1024" d="M233 1348l76 168l414 -243l-50 -112z" />
<glyph unicode="a" horiz-adv-x="1109" d="M62 263q0 95 51 175t164 125.5t412 67.5v58q0 147 -147 147q-157 0 -175 -147l-275 26q27 172 163 244t308 72q103 0 194 -24t142 -72t69 -101.5t18 -186.5v-458q0 -132 19 -189h-289q-14 60 -14 158q-76 -108 -151.5 -143.5t-171.5 -35.5q-142 0 -229.5 77t-87.5 207z M376 295q0 -53 33 -91.5t94 -38.5q79 0 132.5 65.5t53.5 161.5v92q-313 -31 -313 -189z" />
<glyph unicode="b" horiz-adv-x="1115" d="M123 0v1365h298v-482q80 148 250 148q174 0 275 -140.5t101 -385.5q0 -236 -104 -381t-300 -145q-102 0 -166 35t-129 141q-28 -29 -66 -155h-159zM421 400q0 -106 44.5 -160t106.5 -54q74 0 122 65.5t48 254.5q0 215 -49.5 270t-112.5 55q-73 0 -116 -62t-43 -176v-193z " />
<glyph unicode="c" horiz-adv-x="1048" d="M65 499q0 237 137.5 384.5t367.5 147.5q185 0 306.5 -111t134.5 -278l-278 -16q-14 182 -158 182q-177 0 -177 -290q0 -193 49.5 -245t120.5 -52q138 0 165 175l278 -17q-17 -179 -141.5 -289.5t-321.5 -110.5q-214 0 -348.5 141.5t-134.5 378.5z" />
<glyph unicode="d" horiz-adv-x="1105" d="M68 494q0 252 96.5 394.5t279.5 142.5q161 0 248 -127v461h289v-1365h-275v158q-102 -179 -278 -179q-167 0 -263.5 136.5t-96.5 378.5zM376 489q0 -299 161 -299q62 0 108.5 54t46.5 154v189q0 238 -144 238q-172 0 -172 -336z" />
<glyph unicode="e" horiz-adv-x="1095" d="M65 494q0 241 137.5 389t353.5 148q195 0 334.5 -137.5t139.5 -438.5h-650q-1 -27 -1 -47q0 -108 57.5 -163t137.5 -55q149 0 179 159l270 -20q-113 -350 -459 -350q-151 0 -256.5 60.5t-174 176.5t-68.5 278zM379 628h359q-14 208 -171 208q-168 0 -188 -208z" />
<glyph unicode="f" horiz-adv-x="655" d="M27 778v232h117q2 156 22.5 227.5t105.5 127t231 55.5q60 0 138 -11v-230q-64 5 -106 5q-61 0 -81 -32t-20 -104v-38h183v-232h-183v-778h-290v778h-117z" />
<glyph unicode="g" horiz-adv-x="1133" d="M21 -121q0 135 173 182q-128 64 -128 180q0 145 202 226q-179 74 -179 247q0 141 123.5 229t341.5 88q138 0 267 -44q9 86 50.5 141.5t176.5 55.5q44 0 84 -8v-189q-47 10 -79 10q-99 0 -116 -88q81 -85 81 -192q0 -143 -119.5 -228t-344.5 -85q-80 0 -156 15 q-51 -30 -51 -77q0 -52 43 -69t207 -25q233 -12 321 -29t148 -82t60 -162q0 -139 -128.5 -235t-455.5 -96q-307 0 -414 66.5t-107 168.5zM280 -75q0 -68 87 -85t204 -17q153 0 214.5 23t61.5 74q0 39 -51.5 60t-274.5 21l-60 -1q-55 0 -74 3q-21 4 -34 4q-18 0 -45.5 -24 t-27.5 -58zM388 719q0 -154 165 -154q80 0 125.5 45t45.5 109q0 60 -43 105.5t-129 45.5q-77 0 -120.5 -41.5t-43.5 -109.5z" />
<glyph unicode="h" horiz-adv-x="1114" d="M123 0v1365h289v-493q82 159 273 159q102 0 174.5 -44.5t102 -114.5t29.5 -205v-667h-297v569q0 102 -8 140t-36.5 63.5t-71.5 25.5q-56 0 -111 -43.5t-55 -185.5v-569h-289z" />
<glyph unicode="i" horiz-adv-x="543" d="M123 0v1010h298v-1010h-298zM123 1095v298h298v-298h-298z" />
<glyph unicode="j" horiz-adv-x="550" d="M-62 -114q47 -5 69 -5q60 0 87.5 35.5t27.5 138.5v955h305v-955q0 -80 -2 -146.5t-36 -134.5t-107.5 -103.5t-180.5 -35.5q-61 0 -163 17v234zM122 1092v301h305v-301h-305z" />
<glyph unicode="k" horiz-adv-x="1112" d="M123 0v1365h281v-818l44 55q28 38 47 61l295 347h290l-290 -342l329 -668h-329l-211 458l-175 -200v-258h-281z" />
<glyph unicode="l" horiz-adv-x="543" d="M123 0v1365h298v-1365h-298z" />
<glyph unicode="m" horiz-adv-x="1688" d="M123 0v1010h280v-154q71 175 284 175q193 0 279 -175q84 175 293 175q100 0 172 -41t103 -107t31 -227v-656h-298v559q0 118 -7 153.5t-36.5 59t-81.5 23.5q-49 0 -100 -35t-51 -201v-559h-297v559q0 121 -11 156.5t-41.5 57.5t-77.5 22q-77 0 -114.5 -48.5t-37.5 -187.5 v-559h-289z" />
<glyph unicode="n" horiz-adv-x="1124" d="M123 0v1010h277v-171q69 122 136 157t145 35q144 0 232 -77.5t88 -304.5v-649h-298v567q0 103 -8 141t-39 64.5t-78 26.5q-157 0 -157 -232v-567h-298z" />
<glyph unicode="o" horiz-adv-x="1096" d="M65 507q0 161 58.5 273.5t160.5 181.5t258 69q231 0 360.5 -151t129.5 -378q0 -224 -134.5 -373.5t-357.5 -149.5q-216 0 -345.5 148t-129.5 380zM379 510q0 -179 41 -257t128 -78q76 0 123 66.5t47 253.5q0 199 -41.5 270t-126.5 71t-128 -65.5t-43 -260.5z" />
<glyph unicode="p" horiz-adv-x="1105" d="M123 -341v1351h274v-148q76 169 266 169q164 0 268.5 -131.5t104.5 -382.5q0 -267 -105.5 -402.5t-274.5 -135.5q-171 0 -244 133v-453h-289zM412 442q0 -107 13 -148t55 -73.5t91 -32.5q61 0 109 62.5t48 275.5q0 299 -158 299q-60 0 -109 -53t-49 -180v-150z" />
<glyph unicode="q" horiz-adv-x="1114" d="M68 504q0 246 109.5 386.5t305.5 140.5q193 0 285 -160q49 66 75 139h162q-14 -90 -14 -139v-1212h-290v446q-93 -126 -240 -126q-187 0 -290 140t-103 385zM382 500q0 -185 42.5 -249t113.5 -64q65 0 114 64t49 165v203q0 98 -45 154t-107 56q-68 0 -117.5 -57 t-49.5 -272z" />
<glyph unicode="r" horiz-adv-x="711" d="M123 0v1010h273v-188q63 210 218 210q22 0 54 -3v-294q-91 0 -141.5 -28t-82.5 -100.5t-32 -195.5v-411h-289z" />
<glyph unicode="s" horiz-adv-x="969" d="M11 278l251 37q31 -136 224 -136q74 0 125 26.5t51 71.5q0 70 -113 83q-306 38 -402.5 117.5t-96.5 221.5q0 144 112 238t314 94q160 0 256 -63t147 -202l-217 -58q-38 137 -197 137q-150 0 -150 -91q0 -36 27.5 -57.5t143.5 -36.5q173 -23 256 -53t131.5 -101t48.5 -175 q0 -156 -118.5 -254t-331.5 -98q-386 0 -461 299z" />
<glyph unicode="t" horiz-adv-x="720" d="M1 778v232h177l24 298l256 20v-318h218v-232h-218v-427q0 -80 24 -107t113 -27q41 0 95 4v-221q-130 -22 -187 -22q-186 0 -264 71.5t-78 258.5v470h-160z" />
<glyph unicode="u" horiz-adv-x="1109" d="M123 350v660h289v-660q0 -136 112 -136q57 0 99 32.5t53.5 69.5t11.5 127v567h298v-1010h-276v172q-78 -193 -298 -193q-114 0 -175 42.5t-87.5 116t-26.5 212.5z" />
<glyph unicode="v" horiz-adv-x="924" d="M-7 1010h310l194 -640l199 640h221l-346 -1010h-232z" />
<glyph unicode="w" horiz-adv-x="1477" d="M11 1010h311l164 -617l154 617h270l148 -621l171 621h230l-304 -1010h-263l-160 650l-159 -650h-251z" />
<glyph unicode="x" horiz-adv-x="1011" d="M0 0l333 543l-287 467h340l161 -273l160 273h255l-291 -467l340 -543h-340l-210 348l-206 -348h-255z" />
<glyph unicode="y" horiz-adv-x="912" d="M-7 1010h315l194 -601l186 601h217l-316 -969q-53 -162 -90.5 -234.5t-108 -116t-196.5 -43.5q-63 0 -143 12v229q79 -14 146 -14q88 0 118 33t45 93z" />
<glyph unicode="z" horiz-adv-x="877" d="M41 0v217l445 590h-408v203h738v-186l-450 -607h470v-217h-795z" />
<glyph unicode="{" horiz-adv-x="601" d="M83 467v109q113 16 113 144v373q0 150 56 211.5t179 61.5q8 0 42 -2q48 -2 93 -3v-118l-30 1q-60 0 -75.5 -20.5t-15.5 -111.5v-362q0 -60 -18.5 -124t-104.5 -114q123 -64 123 -239v-361q0 -84 12.5 -108t71.5 -24l37 1v-118q-32 0 -93 -3q-34 -2 -42 -2 q-123 0 -179 61.5t-56 211.5v372q0 84 -27.5 118.5t-85.5 45.5z" />
<glyph unicode="|" horiz-adv-x="1024" d="M371 -341v1706h283v-1706h-283z" />
<glyph unicode="}" horiz-adv-x="601" d="M83 -219l31 -1q60 0 75 20.5t15 111.5v362q0 61 19 125t104 113q-123 64 -123 239v361q0 84 -12.5 108t-71.5 24l-37 -1v118q30 0 93 3q34 2 43 2q132 0 183 -66t51 -207v-372q0 -97 36.5 -128t76.5 -36v-109q-113 -16 -113 -144v-373q0 -150 -56 -211.5t-179 -61.5 q-8 0 -42 2q-47 2 -93 3v118z" />
<glyph unicode="~" d="M102 578q65 165 137 226.5t175 61.5q68 0 214 -54q128 -47 173 -47q87 0 142 105l156 -96q-117 -278 -326 -278q-52 0 -204 54q-134 47 -171 47q-88 0 -144 -123z" />
<glyph unicode="&#xa1;" horiz-adv-x="602" d="M110 -341l99 957h184l100 -957h-383zM143 710v314h316v-314h-316z" />
<glyph unicode="&#xa2;" d="M167 695q0 211 107.5 345t283.5 149v212h161v-212q306 -43 357 -364l-264 -16q-23 178 -165 178q-182 0 -182 -305q0 -121 45.5 -194t136.5 -73q148 0 165 175l259 -20q-43 -309 -352 -365v-260h-161v260q-134 20 -220.5 93t-128.5 174.5t-42 222.5z" />
<glyph unicode="&#xa3;" d="M14 0v255h89q109 0 160.5 67.5t51.5 160.5q0 51 -16 140h-188v210h158q-15 92 -15 144q0 194 119 301.5t314 107.5q301 0 395 -259l-256 -102q-32 131 -136 131q-49 0 -88.5 -36t-39.5 -122q0 -43 19 -165h224v-210h-200q0 -133 -32.5 -209.5t-124.5 -158.5h205 q177 0 232 191l277 -83q-96 -363 -497 -363h-651z" />
<glyph unicode="&#xa4;" horiz-adv-x="1365" d="M60 1254l127 127l208 -207q134 94 294 94q147 0 280 -92l205 204l127 -126l-205 -205q97 -141 97 -287q0 -149 -94 -282l207 -207l-125 -127l-207 206q-136 -96 -291 -96q-147 0 -289 95l-206 -204l-125 126l205 205q-94 133 -94 284q0 153 94 284zM400 762 q0 -118 83.5 -201.5t199.5 -83.5q117 0 200.5 83.5t83.5 201.5q0 117 -82.5 201t-201.5 84q-116 0 -199.5 -83.5t-83.5 -201.5z" />
<glyph unicode="&#xa5;" horiz-adv-x="1202" d="M39 1365h344l261 -519l259 519h260l-267 -491h224v-178h-321l-66 -136h387v-178h-387v-382h-265v382h-386v178h386l-65 136h-321v178h224z" />
<glyph unicode="&#xa6;" horiz-adv-x="1024" d="M371 314h283v-655h-283v655zM371 652v713h283v-713h-283z" />
<glyph unicode="&#xa7;" d="M118 -59l251 46q99 -151 260 -151q91 0 143.5 34t52.5 85q0 53 -50 97t-253 117q-145 53 -212.5 92t-110.5 107.5t-43 158.5q0 174 136 301q-99 80 -99 216q0 146 113 244t317 98q319 0 434 -251l-213 -59q-51 124 -221 124q-85 0 -127 -30.5t-42 -73.5q0 -49 46 -77.5 t250 -106.5q112 -44 172 -82t98.5 -103.5t38.5 -153.5q0 -156 -127 -276q151 -95 151 -272q0 -176 -128 -281.5t-339 -105.5q-172 0 -307.5 73.5t-190.5 229.5zM405 613q0 -54 55.5 -98.5t276.5 -123.5q75 54 75 114q0 38 -33.5 77.5t-170.5 92.5l-123 50q-80 -44 -80 -112z " />
<glyph unicode="&#xa8;" horiz-adv-x="1024" d="M225 1306q0 46 33 81.5t85 35.5q47 0 84 -30.5t37 -85.5q0 -53 -35.5 -84.5t-85.5 -31.5q-54 0 -86 35t-32 80zM559 1306q0 46 33.5 81.5t85.5 35.5q48 0 84 -31t36 -85q0 -53 -35.5 -84.5t-85.5 -31.5q-54 0 -86 35t-32 80z" />
<glyph unicode="&#xa9;" horiz-adv-x="1584" d="M88 682q0 288 206 496t499 208q296 0 499.5 -210t203.5 -494q0 -282 -203 -493t-500 -211q-294 0 -499.5 208t-205.5 496zM219 683q0 -241 169.5 -412.5t404.5 -171.5t403.5 171t168.5 412q0 240 -166.5 412t-402.5 172q-239 0 -408 -171t-169 -412zM419 683 q0 186 105.5 304t286.5 118q316 0 354 -318l-214 -12q-5 174 -144 174q-160 0 -160 -276q0 -143 42.5 -200t120.5 -57q131 0 157 156l198 -12q-18 -146 -115.5 -222.5t-239.5 -76.5q-178 0 -284.5 113.5t-106.5 308.5z" />
<glyph unicode="&#xaa;" horiz-adv-x="728" d="M48 932q0 87 71.5 148t317.5 76v28q0 80 -82 80q-90 0 -97 -88l-193 18q30 199 311 199q101 0 165.5 -32.5t83 -73.5t18.5 -128v-270q0 -77 14 -118h-202q-9 50 -10 71q-68 -83 -190 -83q-91 0 -149 47t-58 126zM265 953q0 -71 67 -71q45 0 75 36.5t30 90.5v46 q-172 -19 -172 -102z" />
<glyph unicode="&#xab;" horiz-adv-x="698" d="M68 526l170 292h101l-101 -292l101 -287h-101zM339 526l172 292h105l-105 -292l105 -287h-105z" />
<glyph unicode="&#xac;" d="M157 301v253h887v-554h-281v301h-606z" />
<glyph unicode="&#xad;" horiz-adv-x="527" d="M24 411v217h478v-217h-478z" />
<glyph unicode="&#xae;" horiz-adv-x="1584" d="M88 682q0 288 206 496t499 208q296 0 499.5 -210t203.5 -494q0 -282 -203 -493t-500 -211q-294 0 -499.5 208t-205.5 496zM219 683q0 -241 169.5 -412.5t404.5 -171.5t403.5 171t168.5 412q0 240 -166.5 412t-402.5 172q-239 0 -408 -171t-169 -412zM456 273v819h368 q164 0 242 -68t78 -180q0 -147 -145 -211l158 -360h-235l-132 326h-121v-326h-213zM669 743h111q84 0 115.5 26.5t31.5 76.5q0 33 -19 58.5t-42 31.5t-90 6h-107v-199z" />
<glyph unicode="&#xaf;" horiz-adv-x="1024" d="M0 1591v239h1024v-239h-1024z" />
<glyph unicode="&#xb0;" d="M316 1106q0 118 83 202.5t200 84.5q119 0 202.5 -86t83.5 -204q0 -120 -83 -203.5t-199 -83.5q-118 0 -202.5 85t-84.5 205zM463 1106q0 -59 41.5 -100t97.5 -41t96 41t40 98q0 58 -40 99.5t-97 41.5t-97.5 -41t-40.5 -98z" />
<glyph unicode="&#xb1;" d="M95 -102v218h1012v-218h-1012zM95 580v219h397v412h218v-412h397v-219h-397v-370h-218v370h-397z" />
<glyph unicode="&#xb2;" horiz-adv-x="792" d="M45 1099q62 279 346 279q158 0 242.5 -76t84.5 -185q0 -112 -90.5 -198t-296.5 -198h400l-16 -175h-669v167q35 25 109 73q180 118 260.5 193t80.5 135q0 45 -31 73t-83 28q-128 0 -143 -155z" />
<glyph unicode="&#xb3;" horiz-adv-x="792" d="M26 792l199 26q25 -126 151 -126q58 0 93.5 27.5t35.5 74.5q0 51 -33.5 74.5t-125.5 23.5h-87v154h99q128 0 128 89q0 35 -29.5 63t-81.5 28q-103 0 -129 -105l-194 29q23 100 111.5 164t217.5 64q135 0 227 -60t92 -164q0 -128 -133 -178q159 -46 159 -193 q0 -109 -91.5 -179t-253.5 -70q-156 0 -246.5 73.5t-108.5 184.5z" />
<glyph unicode="&#xb4;" horiz-adv-x="1024" d="M301 1273l414 243l76 -168l-440 -187z" />
<glyph unicode="&#xb5;" d="M143 -341v1351h298v-528q0 -117 11.5 -173.5t51.5 -93t94 -36.5q79 0 121 60.5t42 242.5v528h297v-1010h-240l-6 152q-56 -173 -200 -173q-66 0 -117.5 43.5t-53.5 93.5v-457h-298z" />
<glyph unicode="&#xb6;" d="M1 1016q0 107 38.5 182t103.5 114.5t120.5 45.5t283.5 7h623v-127h-164v-1579h-120v1579h-122v-1579h-127v1007h-195q-160 0 -243.5 25.5t-140.5 109.5t-57 215zM282 1013q0 -95 34.5 -145t88 -64.5t175.5 -14.5h57v452h-53q-124 0 -179 -13.5t-89 -67t-34 -147.5z" />
<glyph unicode="&#xb7;" horiz-adv-x="309" d="M0 367v303h309v-303h-309z" />
<glyph unicode="&#xb8;" horiz-adv-x="1024" d="M309 -354l33 86q82 -46 136 -46q72 0 72 65q0 35 -32 54t-76 19q-18 0 -53 -4l64 180h99l-35 -100q19 3 29 3q76 0 125 -44t49 -107q0 -75 -55 -120t-148 -45q-104 0 -208 59z" />
<glyph unicode="&#xb9;" horiz-adv-x="792" d="M37 1031v181q231 62 299 166h158v-671h215v-161h-667v161h238v442q-143 -80 -243 -118z" />
<glyph unicode="&#xba;" horiz-adv-x="721" d="M50 1078q0 151 89.5 233.5t217.5 82.5q147 0 230.5 -90.5t83.5 -228.5q0 -135 -86.5 -225t-229.5 -90q-131 0 -218 86t-87 232zM267 1080q0 -191 93 -191q95 0 95 184q0 115 -24.5 153.5t-68.5 38.5q-53 0 -74 -42t-21 -143z" />
<glyph unicode="&#xbb;" horiz-adv-x="698" d="M82 239l105 287l-105 292h105l172 -292l-172 -287h-105zM359 239l101 287l-101 292h101l170 -292l-170 -287h-101z" />
<glyph unicode="&#xbc;" horiz-adv-x="1802" d="M21 1031v181q231 62 299 166h158v-671h215v-161h-667v161h238v442q-143 -80 -243 -118zM448 0l756 1365h159l-757 -1365h-158zM1083 185v150l356 495h245v-491h123v-154h-123v-187h-208v187h-393zM1248 330h235v337z" />
<glyph unicode="&#xbd;" horiz-adv-x="1802" d="M25 1031v181q231 62 299 166h158v-671h215v-161h-667v161h238v442q-143 -80 -243 -118zM444 0l756 1365h159l-757 -1365h-158zM1093 551q62 279 346 279q158 0 242.5 -76t84.5 -185q0 -112 -90.5 -198t-296.5 -198h400l-16 -175h-669v167q35 25 109 73q180 118 260.5 193 t80.5 135q0 45 -31 73t-83 28q-128 0 -143 -155z" />
<glyph unicode="&#xbe;" horiz-adv-x="1802" d="M26 792l199 26q25 -126 151 -126q58 0 93.5 27.5t35.5 74.5q0 51 -33.5 74.5t-125.5 23.5h-87v154h99q128 0 128 89q0 35 -29.5 63t-81.5 28q-103 0 -129 -105l-194 29q23 100 111.5 164t217.5 64q135 0 227 -60t92 -164q0 -128 -133 -178q159 -46 159 -193 q0 -109 -91.5 -179t-253.5 -70q-156 0 -246.5 73.5t-108.5 184.5zM484 0l756 1365h159l-757 -1365h-158zM1039 185v150l356 495h245v-491h123v-154h-123v-187h-208v187h-393zM1204 330h235v337z" />
<glyph unicode="&#xbf;" horiz-adv-x="1044" d="M58 55q0 218 222 364q94 62 116.5 97.5t22.5 115.5h256l1 -31q0 -160 -30 -213t-149 -142q-64 -47 -88.5 -87.5t-24.5 -100.5q0 -74 46.5 -116.5t113.5 -42.5q176 0 198 250l274 -38q-32 -228 -166 -343.5t-326 -115.5q-198 0 -332 114t-134 289zM390 722v302h312v-302 h-312z" />
<glyph unicode="&#xc0;" horiz-adv-x="1245" d="M0 0l437 1365h371l427 -1365h-344l-83 281h-442l-86 -281h-280zM293 1668l76 168l414 -243l-50 -112zM443 533h290l-145 479z" />
<glyph unicode="&#xc1;" horiz-adv-x="1245" d="M0 0l437 1365h371l427 -1365h-344l-83 281h-442l-86 -281h-280zM443 533h290l-145 479zM461 1593l414 243l76 -168l-440 -187z" />
<glyph unicode="&#xc2;" horiz-adv-x="1245" d="M0 0l437 1365h371l427 -1365h-344l-83 281h-442l-86 -281h-280zM254 1508l366 314l367 -314l-203 -21l-164 138l-164 -138zM443 533h290l-145 479z" />
<glyph unicode="&#xc3;" horiz-adv-x="1245" d="M0 0l437 1365h371l427 -1365h-344l-83 281h-442l-86 -281h-280zM282 1634q100 109 212 109q64 0 148 -40q60 -29 91 -29q69 0 141 83l84 -111q-98 -129 -222 -129q-60 0 -160 47q-49 22 -80 22q-62 0 -129 -65zM443 533h290l-145 479z" />
<glyph unicode="&#xc4;" horiz-adv-x="1245" d="M0 0l437 1365h371l427 -1365h-344l-83 281h-442l-86 -281h-280zM313 1594q0 46 33 81.5t85 35.5q47 0 84 -30.5t37 -85.5q0 -53 -35.5 -84.5t-85.5 -31.5q-54 0 -86 35t-32 80zM443 533h290l-145 479zM647 1594q0 46 33.5 81.5t85.5 35.5q48 0 84 -31t36 -85 q0 -53 -35.5 -84.5t-85.5 -31.5q-54 0 -86 35t-32 80z" />
<glyph unicode="&#xc5;" horiz-adv-x="1245" d="M0 0l437 1365h371l427 -1365h-344l-83 281h-442l-86 -281h-280zM428 1637q0 72 53.5 130t136.5 58t139 -55t56 -131q0 -77 -56.5 -133.5t-139.5 -56.5q-82 0 -135.5 58.5t-53.5 129.5zM443 533h290l-145 479zM540 1637q0 -31 23.5 -53.5t56.5 -22.5t57 22.5t24 53.5 t-23.5 53.5t-56.5 22.5q-35 0 -58 -23t-23 -53z" />
<glyph unicode="&#xc6;" horiz-adv-x="1726" d="M-14 0l625 1365h1060v-258h-626v-280h500v-256h-500v-301h626v-270h-946v315h-319l-144 -315h-276zM501 543h224v492z" />
<glyph unicode="&#xc7;" horiz-adv-x="1285" d="M72 683q0 309 164 506t448 197q492 0 554 -529l-335 -21q-7 289 -225 289q-250 0 -250 -445q0 -257 68 -348.5t190 -91.5q198 0 242 258l310 -19q-71 -487 -563 -500l-27 -82q32 5 55 5q78 0 133.5 -47.5t55.5 -119.5q0 -84 -67 -132t-157 -48q-132 0 -250 68l35 85 q102 -48 159 -48q45 0 70.5 22t25.5 54q0 38 -33 60t-84 22q-25 0 -79 -9l54 180q-238 46 -366 230t-128 464z" />
<glyph unicode="&#xc8;" horiz-adv-x="1167" d="M136 0v1365h976v-260h-651v-280h512v-257h-512v-298h651v-270h-976zM297 1668l76 168l414 -243l-50 -112z" />
<glyph unicode="&#xc9;" horiz-adv-x="1167" d="M136 0v1365h976v-260h-651v-280h512v-257h-512v-298h651v-270h-976zM465 1589l414 243l76 -168l-440 -187z" />
<glyph unicode="&#xca;" horiz-adv-x="1167" d="M136 0v1365h976v-260h-651v-280h512v-257h-512v-298h651v-270h-976zM254 1508l366 314l367 -314l-203 -21l-164 138l-164 -138z" />
<glyph unicode="&#xcb;" horiz-adv-x="1167" d="M136 0v1365h976v-260h-651v-280h512v-257h-512v-298h651v-270h-976zM337 1630q0 46 33 81.5t85 35.5q47 0 84 -30.5t37 -85.5q0 -53 -35.5 -84.5t-85.5 -31.5q-54 0 -86 35t-32 80zM671 1630q0 46 33.5 81.5t85.5 35.5q48 0 84 -31t36 -85q0 -53 -35.5 -84.5t-85.5 -31.5 q-54 0 -86 35t-32 80z" />
<glyph unicode="&#xcc;" horiz-adv-x="593" d="M-27 1668l76 168l414 -243l-50 -112zM137 0v1365h319v-1365h-319z" />
<glyph unicode="&#xcd;" horiz-adv-x="593" d="M129 1593l414 243l76 -168l-440 -187zM137 0v1365h319v-1365h-319z" />
<glyph unicode="&#xce;" horiz-adv-x="592" d="M-74 1512l366 314l367 -314l-203 -21l-164 138l-164 -138zM137 0v1365h319v-1365h-319z" />
<glyph unicode="&#xcf;" horiz-adv-x="593" d="M17 1627q0 46 33 81.5t85 35.5q47 0 84 -30.5t37 -85.5q0 -53 -35.5 -84.5t-85.5 -31.5q-54 0 -86 35t-32 80zM134 0v1365h319v-1365h-319zM351 1627q0 46 33.5 81.5t85.5 35.5q48 0 84 -31t36 -85q0 -53 -35.5 -84.5t-85.5 -31.5q-54 0 -86 35t-32 80z" />
<glyph unicode="&#xd0;" horiz-adv-x="1328" d="M14 598v205h123v562h416q255 0 380 -70t224 -222.5t99 -386.5q0 -292 -172 -489t-478 -197h-469v598h-123zM451 257h131q176 0 260.5 131t84.5 306q0 157 -79.5 288.5t-262.5 131.5h-134v-311h238v-205h-238v-341z" />
<glyph unicode="&#xd1;" horiz-adv-x="1324" d="M137 0v1365h345l465 -805q-6 60 -6 91v714h247v-1365h-273l-535 922q1 -35 2 -46q4 -35 4 -59v-817h-249zM342 1634q100 109 212 109q64 0 148 -40q60 -29 91 -29q69 0 141 83l84 -111q-98 -129 -222 -129q-60 0 -160 47q-49 22 -80 22q-62 0 -129 -65z" />
<glyph unicode="&#xd2;" horiz-adv-x="1309" d="M72 687q0 299 153 499t436 200q286 0 431.5 -213.5t145.5 -488.5q0 -297 -150 -501t-438 -204q-276 0 -427 207t-151 501zM365 1664l76 168l414 -243l-50 -112zM407 683q0 -443 252 -443q244 0 244 442q0 443 -244 443q-252 0 -252 -442z" />
<glyph unicode="&#xd3;" horiz-adv-x="1309" d="M72 687q0 299 153 499t436 200q286 0 431.5 -213.5t145.5 -488.5q0 -297 -150 -501t-438 -204q-276 0 -427 207t-151 501zM407 683q0 -443 252 -443q244 0 244 442q0 443 -244 443q-252 0 -252 -442zM497 1593l414 243l76 -168l-440 -187z" />
<glyph unicode="&#xd4;" horiz-adv-x="1309" d="M72 687q0 299 153 499t436 200q286 0 431.5 -213.5t145.5 -488.5q0 -297 -150 -501t-438 -204q-276 0 -427 207t-151 501zM302 1508l366 314l367 -314l-203 -21l-164 138l-164 -138zM407 683q0 -443 252 -443q244 0 244 442q0 443 -244 443q-252 0 -252 -442z" />
<glyph unicode="&#xd5;" horiz-adv-x="1309" d="M72 687q0 299 153 499t436 200q286 0 431.5 -213.5t145.5 -488.5q0 -297 -150 -501t-438 -204q-276 0 -427 207t-151 501zM334 1634q100 109 212 109q64 0 148 -40q60 -29 91 -29q69 0 141 83l84 -111q-98 -129 -222 -129q-60 0 -160 47q-49 22 -80 22q-62 0 -129 -65z M407 683q0 -443 252 -443q244 0 244 442q0 443 -244 443q-252 0 -252 -442z" />
<glyph unicode="&#xd6;" horiz-adv-x="1309" d="M72 687q0 299 153 499t436 200q286 0 431.5 -213.5t145.5 -488.5q0 -297 -150 -501t-438 -204q-276 0 -427 207t-151 501zM381 1626q0 46 33 81.5t85 35.5q47 0 84 -30.5t37 -85.5q0 -53 -35.5 -84.5t-85.5 -31.5q-54 0 -86 35t-32 80zM407 683q0 -443 252 -443 q244 0 244 442q0 443 -244 443q-252 0 -252 -442zM715 1626q0 46 33.5 81.5t85.5 35.5q48 0 84 -31t36 -85q0 -53 -35.5 -84.5t-85.5 -31.5q-54 0 -86 35t-32 80z" />
<glyph unicode="&#xd7;" d="M156 982l153 153l292 -291l281 281l155 -155l-282 -281l291 -290l-153 -154l-291 291l-281 -281l-154 154l280 281z" />
<glyph unicode="&#xd8;" horiz-adv-x="1309" d="M72 678q0 293 147 500.5t445 207.5q141 0 255 -55l85 145h182l-134 -248q186 -227 186 -546q0 -295 -150.5 -499t-448.5 -204q-139 0 -253 56l-81 -146h-181l137 251q-189 216 -189 538zM406 658q0 -119 29 -205l354 633q-56 39 -132 39q-146 0 -198.5 -136t-52.5 -331z M521 283q49 -43 145 -43q237 0 237 438q0 137 -25 244z" />
<glyph unicode="&#xd9;" horiz-adv-x="1330" d="M123 515v850h347v-850q0 -110 18.5 -162t74 -82.5t136.5 -30.5q90 0 146.5 30t75 79.5t18.5 165.5v850h274v-850q0 -206 -47 -306.5t-173.5 -165t-323.5 -64.5t-313.5 58t-174.5 165t-58 313zM357 1664l76 168l414 -243l-50 -112z" />
<glyph unicode="&#xda;" horiz-adv-x="1330" d="M123 515v850h347v-850q0 -110 18.5 -162t74 -82.5t136.5 -30.5q90 0 146.5 30t75 79.5t18.5 165.5v850h274v-850q0 -206 -47 -306.5t-173.5 -165t-323.5 -64.5t-313.5 58t-174.5 165t-58 313zM521 1593l414 243l76 -168l-440 -187z" />
<glyph unicode="&#xdb;" horiz-adv-x="1330" d="M123 515v850h347v-850q0 -110 18.5 -162t74 -82.5t136.5 -30.5q90 0 146.5 30t75 79.5t18.5 165.5v850h274v-850q0 -206 -47 -306.5t-173.5 -165t-323.5 -64.5t-313.5 58t-174.5 165t-58 313zM318 1508l366 314l367 -314l-203 -21l-164 138l-164 -138z" />
<glyph unicode="&#xdc;" horiz-adv-x="1330" d="M123 515v850h347v-850q0 -110 18.5 -162t74 -82.5t136.5 -30.5q90 0 146.5 30t75 79.5t18.5 165.5v850h274v-850q0 -206 -47 -306.5t-173.5 -165t-323.5 -64.5t-313.5 58t-174.5 165t-58 313zM397 1630q0 46 33 81.5t85 35.5q47 0 84 -30.5t37 -85.5q0 -53 -35.5 -84.5 t-85.5 -31.5q-54 0 -86 35t-32 80zM731 1630q0 46 33.5 81.5t85.5 35.5q48 0 84 -31t36 -85q0 -53 -35.5 -84.5t-85.5 -31.5q-54 0 -86 35t-32 80z" />
<glyph unicode="&#xdd;" horiz-adv-x="1068" d="M-55 1365h371l261 -518l259 518h287l-429 -790v-575h-320v575zM385 1589l414 243l76 -168l-440 -187z" />
<glyph unicode="&#xde;" horiz-adv-x="1249" d="M136 0v1365h325v-184h213q180 0 275.5 -39t170.5 -138t75 -242q0 -142 -64 -246.5t-162.5 -149t-282.5 -44.5h-225v-322h-325zM450 571h208q120 0 167.5 55.5t47.5 125.5t-46 125.5t-170 55.5h-207v-362z" />
<glyph unicode="&#xdf;" horiz-adv-x="1279" d="M26 710v224h104q0 263 153 402.5t395 139.5q190 0 303.5 -94.5t113.5 -222.5q0 -102 -74 -178t-169 -99q-102 -25 -116.5 -31t-14.5 -14q0 -12 109 -50q109 -39 165.5 -67.5t118 -86t90 -121.5t28.5 -138q0 -164 -129 -279.5t-346 -115.5q-111 0 -230 42l78 202 q110 -38 180 -38q75 0 121 37t46 90q0 59 -47.5 97t-198.5 103q-77 33 -117 60.5t-67.5 75t-27.5 106.5q0 119 111 226q190 43 190 151q0 58 -48 92t-110 34q-70 0 -117 -37.5t-63 -93t-16 -175.5v-1071h-311v830h-104z" />
<glyph unicode="&#xe0;" horiz-adv-x="1109" d="M62 263q0 95 51 175t164 125.5t412 67.5v58q0 147 -147 147q-157 0 -175 -147l-275 26q27 172 163 244t308 72q103 0 194 -24t142 -72t69 -101.5t18 -186.5v-458q0 -132 19 -189h-289q-14 60 -14 158q-76 -108 -151.5 -143.5t-171.5 -35.5q-142 0 -229.5 77t-87.5 207z M241 1348l76 168l414 -243l-50 -112zM376 295q0 -53 33 -91.5t94 -38.5q79 0 132.5 65.5t53.5 161.5v92q-313 -31 -313 -189z" />
<glyph unicode="&#xe1;" horiz-adv-x="1109" d="M62 263q0 95 51 175t164 125.5t412 67.5v58q0 147 -147 147q-157 0 -175 -147l-275 26q27 172 163 244t308 72q103 0 194 -24t142 -72t69 -101.5t18 -186.5v-458q0 -132 19 -189h-289q-14 60 -14 158q-76 -108 -151.5 -143.5t-171.5 -35.5q-142 0 -229.5 77t-87.5 207z M376 295q0 -53 33 -91.5t94 -38.5q79 0 132.5 65.5t53.5 161.5v92q-313 -31 -313 -189zM405 1273l414 243l76 -168l-440 -187z" />
<glyph unicode="&#xe2;" horiz-adv-x="1109" d="M62 263q0 95 51 175t164 125.5t412 67.5v58q0 147 -147 147q-157 0 -175 -147l-275 26q27 172 163 244t308 72q103 0 194 -24t142 -72t69 -101.5t18 -186.5v-458q0 -132 19 -189h-289q-14 60 -14 158q-76 -108 -151.5 -143.5t-171.5 -35.5q-142 0 -229.5 77t-87.5 207z M195 1188l366 314l367 -314l-203 -21l-164 138l-164 -138zM376 295q0 -53 33 -91.5t94 -38.5q79 0 132.5 65.5t53.5 161.5v92q-313 -31 -313 -189z" />
<glyph unicode="&#xe3;" horiz-adv-x="1109" d="M62 263q0 95 51 175t164 125.5t412 67.5v58q0 147 -147 147q-157 0 -175 -147l-275 26q27 172 163 244t308 72q103 0 194 -24t142 -72t69 -101.5t18 -186.5v-458q0 -132 19 -189h-289q-14 60 -14 158q-76 -108 -151.5 -143.5t-171.5 -35.5q-142 0 -229.5 77t-87.5 207z M230 1306q100 109 212 109q64 0 148 -40q60 -29 91 -29q69 0 141 83l84 -111q-98 -129 -222 -129q-60 0 -160 47q-49 22 -80 22q-62 0 -129 -65zM376 295q0 -53 33 -91.5t94 -38.5q79 0 132.5 65.5t53.5 161.5v92q-313 -31 -313 -189z" />
<glyph unicode="&#xe4;" horiz-adv-x="1109" d="M62 263q0 95 51 175t164 125.5t412 67.5v58q0 147 -147 147q-157 0 -175 -147l-275 26q27 172 163 244t308 72q103 0 194 -24t142 -72t69 -101.5t18 -186.5v-458q0 -132 19 -189h-289q-14 60 -14 158q-76 -108 -151.5 -143.5t-171.5 -35.5q-142 0 -229.5 77t-87.5 207z M274 1306q0 46 33 81.5t85 35.5q47 0 84 -30.5t37 -85.5q0 -53 -35.5 -84.5t-85.5 -31.5q-54 0 -86 35t-32 80zM376 295q0 -53 33 -91.5t94 -38.5q79 0 132.5 65.5t53.5 161.5v92q-313 -31 -313 -189zM608 1306q0 46 33.5 81.5t85.5 35.5q48 0 84 -31t36 -85 q0 -53 -35.5 -84.5t-85.5 -31.5q-54 0 -86 35t-32 80z" />
<glyph unicode="&#xe5;" horiz-adv-x="1109" d="M62 263q0 95 51 175t164 125.5t412 67.5v58q0 147 -147 147q-157 0 -175 -147l-275 26q27 172 163 244t308 72q103 0 194 -24t142 -72t69 -101.5t18 -186.5v-458q0 -132 19 -189h-289q-14 60 -14 158q-76 -108 -151.5 -143.5t-171.5 -35.5q-142 0 -229.5 77t-87.5 207z M369 1325q0 72 53.5 130t136.5 58t139 -55t56 -131q0 -77 -56.5 -133.5t-139.5 -56.5q-82 0 -135.5 58.5t-53.5 129.5zM376 295q0 -53 33 -91.5t94 -38.5q79 0 132.5 65.5t53.5 161.5v92q-313 -31 -313 -189zM481 1325q0 -31 23.5 -53.5t56.5 -22.5t57 22.5t24 53.5 t-23.5 53.5t-56.5 22.5q-35 0 -58 -23t-23 -53z" />
<glyph unicode="&#xe6;" horiz-adv-x="1639" d="M61 261q0 149 111.5 245.5t508.5 124.5v78q0 127 -147 127q-153 0 -170 -152l-270 25q25 171 159 246.5t296 75.5q176 0 296 -93q120 93 274 93q189 0 322 -129t133 -447h-625q0 -158 54 -210.5t131 -52.5q147 0 178 156l262 -22q-92 -347 -446 -347q-242 0 -384 181 q-143 -181 -374 -181q-142 0 -225.5 81.5t-83.5 200.5zM367 296q0 -52 34 -90.5t91 -38.5q78 0 133.5 63t55.5 158v95q-314 -16 -314 -187zM950 631h348q-10 118 -50.5 161.5t-115.5 43.5q-158 0 -182 -205z" />
<glyph unicode="&#xe7;" horiz-adv-x="1048" d="M65 499q0 237 137.5 384.5t367.5 147.5q185 0 306.5 -111t134.5 -278l-278 -16q-14 182 -158 182q-177 0 -177 -290q0 -193 49.5 -245t120.5 -52q138 0 165 175l278 -17q-49 -373 -443 -399l-28 -80q19 3 29 3q76 0 125.5 -44t49.5 -107q0 -75 -55.5 -120t-148.5 -45 q-104 0 -208 59l33 86q83 -46 136 -46q72 0 72 65q0 35 -31.5 54t-75.5 19q-19 0 -53 -4l58 164q-180 23 -293 161t-113 354z" />
<glyph unicode="&#xe8;" horiz-adv-x="1095" d="M65 494q0 241 137.5 389t353.5 148q195 0 334.5 -137.5t139.5 -438.5h-650q-1 -27 -1 -47q0 -108 57.5 -163t137.5 -55q149 0 179 159l270 -20q-113 -350 -459 -350q-151 0 -256.5 60.5t-174 176.5t-68.5 278zM262 1348l76 168l414 -243l-50 -112zM379 628h359 q-14 208 -171 208q-168 0 -188 -208z" />
<glyph unicode="&#xe9;" horiz-adv-x="1095" d="M65 494q0 241 137.5 389t353.5 148q195 0 334.5 -137.5t139.5 -438.5h-650q-1 -27 -1 -47q0 -108 57.5 -163t137.5 -55q149 0 179 159l270 -20q-113 -350 -459 -350q-151 0 -256.5 60.5t-174 176.5t-68.5 278zM379 628h359q-14 208 -171 208q-168 0 -188 -208zM405 1273 l414 243l76 -168l-440 -187z" />
<glyph unicode="&#xea;" horiz-adv-x="1095" d="M65 494q0 241 137.5 389t353.5 148q195 0 334.5 -137.5t139.5 -438.5h-650q-1 -27 -1 -47q0 -108 57.5 -163t137.5 -55q149 0 179 159l270 -20q-113 -350 -459 -350q-151 0 -256.5 60.5t-174 176.5t-68.5 278zM208 1188l366 314l367 -314l-203 -21l-164 138l-164 -138z M379 628h359q-14 208 -171 208q-168 0 -188 -208z" />
<glyph unicode="&#xeb;" horiz-adv-x="1095" d="M65 494q0 241 137.5 389t353.5 148q195 0 334.5 -137.5t139.5 -438.5h-650q-1 -27 -1 -47q0 -108 57.5 -163t137.5 -55q149 0 179 159l270 -20q-113 -350 -459 -350q-151 0 -256.5 60.5t-174 176.5t-68.5 278zM288 1306q0 46 33 81.5t85 35.5q47 0 84 -30.5t37 -85.5 q0 -53 -35.5 -84.5t-85.5 -31.5q-54 0 -86 35t-32 80zM379 628h359q-14 208 -171 208q-168 0 -188 -208zM622 1306q0 46 33.5 81.5t85.5 35.5q48 0 84 -31t36 -85q0 -53 -35.5 -84.5t-85.5 -31.5q-54 0 -86 35t-32 80z" />
<glyph unicode="&#xec;" horiz-adv-x="543" d="M-35 1348l76 168l414 -243l-50 -112zM123 0v1010h298v-1010h-298z" />
<glyph unicode="&#xed;" horiz-adv-x="543" d="M89 1273l414 243l76 -168l-440 -187zM123 0v1010h298v-1010h-298z" />
<glyph unicode="&#xee;" horiz-adv-x="543" d="M-94 1188l366 314l367 -314l-203 -21l-164 138l-164 -138zM123 0v1010h298v-1010h-298z" />
<glyph unicode="&#xef;" horiz-adv-x="543" d="M6 1307q0 46 33 81.5t85 35.5q47 0 84 -30.5t37 -85.5q0 -53 -35.5 -84.5t-85.5 -31.5q-54 0 -86 35t-32 80zM126 0v1010h298v-1010h-298zM340 1307q0 46 33.5 81.5t85.5 35.5q48 0 84 -31t36 -85q0 -53 -35.5 -84.5t-85.5 -31.5q-54 0 -86 35t-32 80z" />
<glyph unicode="&#xf0;" horiz-adv-x="1096" d="M65 493q0 214 131.5 364.5t306.5 150.5q119 0 196 -107q-34 182 -126 271l-181 -90l-64 92l161 84q-53 35 -176 75l48 109q157 -32 283 -109l185 91l75 -88l-162 -82q110 -99 200.5 -289t90.5 -402q0 -294 -135.5 -439t-344.5 -145q-232 0 -360 152t-128 362zM380 516 q0 -213 49.5 -277t124.5 -64q70 0 116 62.5t46 265.5q0 310 -162 310q-174 0 -174 -297z" />
<glyph unicode="&#xf1;" horiz-adv-x="1124" d="M123 0v1010h277v-171q69 122 136 157t145 35q144 0 232 -77.5t88 -304.5v-649h-298v567q0 103 -8 141t-39 64.5t-78 26.5q-157 0 -157 -232v-567h-298zM210 1306q100 109 212 109q64 0 148 -40q60 -29 91 -29q69 0 141 83l84 -111q-98 -129 -222 -129q-60 0 -160 47 q-49 22 -80 22q-62 0 -129 -65z" />
<glyph unicode="&#xf2;" horiz-adv-x="1096" d="M65 507q0 161 58.5 273.5t160.5 181.5t258 69q231 0 360.5 -151t129.5 -378q0 -224 -134.5 -373.5t-357.5 -149.5q-216 0 -345.5 148t-129.5 380zM249 1348l76 168l414 -243l-50 -112zM379 510q0 -179 41 -257t128 -78q76 0 123 66.5t47 253.5q0 199 -41.5 270t-126.5 71 t-128 -65.5t-43 -260.5z" />
<glyph unicode="&#xf3;" horiz-adv-x="1096" d="M65 507q0 161 58.5 273.5t160.5 181.5t258 69q231 0 360.5 -151t129.5 -378q0 -224 -134.5 -373.5t-357.5 -149.5q-216 0 -345.5 148t-129.5 380zM379 510q0 -179 41 -257t128 -78q76 0 123 66.5t47 253.5q0 199 -41.5 270t-126.5 71t-128 -65.5t-43 -260.5zM385 1273 l414 243l76 -168l-440 -187z" />
<glyph unicode="&#xf4;" horiz-adv-x="1096" d="M65 507q0 161 58.5 273.5t160.5 181.5t258 69q231 0 360.5 -151t129.5 -378q0 -224 -134.5 -373.5t-357.5 -149.5q-216 0 -345.5 148t-129.5 380zM189 1188l366 314l367 -314l-203 -21l-164 138l-164 -138zM379 510q0 -179 41 -257t128 -78q76 0 123 66.5t47 253.5 q0 199 -41.5 270t-126.5 71t-128 -65.5t-43 -260.5z" />
<glyph unicode="&#xf5;" horiz-adv-x="1096" d="M65 507q0 161 58.5 273.5t160.5 181.5t258 69q231 0 360.5 -151t129.5 -378q0 -224 -134.5 -373.5t-357.5 -149.5q-216 0 -345.5 148t-129.5 380zM224 1306q100 109 212 109q64 0 148 -40q60 -29 91 -29q69 0 141 83l84 -111q-98 -129 -222 -129q-60 0 -160 47 q-49 22 -80 22q-62 0 -129 -65zM379 510q0 -179 41 -257t128 -78q76 0 123 66.5t47 253.5q0 199 -41.5 270t-126.5 71t-128 -65.5t-43 -260.5z" />
<glyph unicode="&#xf6;" horiz-adv-x="1096" d="M65 507q0 161 58.5 273.5t160.5 181.5t258 69q231 0 360.5 -151t129.5 -378q0 -224 -134.5 -373.5t-357.5 -149.5q-216 0 -345.5 148t-129.5 380zM268 1306q0 46 33 81.5t85 35.5q47 0 84 -30.5t37 -85.5q0 -53 -35.5 -84.5t-85.5 -31.5q-54 0 -86 35t-32 80zM379 510 q0 -179 41 -257t128 -78q76 0 123 66.5t47 253.5q0 199 -41.5 270t-126.5 71t-128 -65.5t-43 -260.5zM602 1306q0 46 33.5 81.5t85.5 35.5q48 0 84 -31t36 -85q0 -53 -35.5 -84.5t-85.5 -31.5q-54 0 -86 35t-32 80z" />
<glyph unicode="&#xf7;" d="M95 580v219h1012v-219h-1012zM463 334q0 56 40 96t97 40q56 0 96 -40t40 -96q0 -57 -40.5 -97t-96.5 -40t-96 40t-40 97zM463 1042q0 56 40 96.5t97 40.5q56 0 96 -40t40 -97q0 -56 -40.5 -96t-96.5 -40t-96 40t-40 96z" />
<glyph unicode="&#xf8;" horiz-adv-x="1096" d="M65 502q0 220 122 374.5t356 154.5q128 0 199 -36l71 120h161l-109 -198q167 -150 167 -415q0 -223 -133 -373t-353 -150q-88 0 -191 32l-74 -116h-162l110 198q-164 153 -164 409zM378 549q0 -75 10 -179l244 440q-22 26 -84 26q-83 0 -126.5 -63.5t-43.5 -223.5z M460 204q40 -30 85 -30q171 0 171 313q0 88 -9 164z" />
<glyph unicode="&#xf9;" horiz-adv-x="1109" d="M123 350v660h289v-660q0 -136 112 -136q57 0 99 32.5t53.5 69.5t11.5 127v567h298v-1010h-276v172q-78 -193 -298 -193q-114 0 -175 42.5t-87.5 116t-26.5 212.5zM221 1348l76 168l414 -243l-50 -112z" />
<glyph unicode="&#xfa;" horiz-adv-x="1109" d="M123 350v660h289v-660q0 -136 112 -136q57 0 99 32.5t53.5 69.5t11.5 127v567h298v-1010h-276v172q-78 -193 -298 -193q-114 0 -175 42.5t-87.5 116t-26.5 212.5zM398 1273l414 243l76 -168l-440 -187z" />
<glyph unicode="&#xfb;" horiz-adv-x="1109" d="M123 350v660h289v-660q0 -136 112 -136q57 0 99 32.5t53.5 69.5t11.5 127v567h298v-1010h-276v172q-78 -193 -298 -193q-114 0 -175 42.5t-87.5 116t-26.5 212.5zM185 1188l366 314l367 -314l-203 -21l-164 138l-164 -138z" />
<glyph unicode="&#xfc;" horiz-adv-x="1109" d="M123 350v660h289v-660q0 -136 112 -136q57 0 99 32.5t53.5 69.5t11.5 127v567h298v-1010h-276v172q-78 -193 -298 -193q-114 0 -175 42.5t-87.5 116t-26.5 212.5zM265 1306q0 46 33 81.5t85 35.5q47 0 84 -30.5t37 -85.5q0 -53 -35.5 -84.5t-85.5 -31.5q-54 0 -86 35 t-32 80zM599 1306q0 46 33.5 81.5t85.5 35.5q48 0 84 -31t36 -85q0 -53 -35.5 -84.5t-85.5 -31.5q-54 0 -86 35t-32 80z" />
<glyph unicode="&#xfd;" horiz-adv-x="912" d="M-7 1010h315l194 -601l186 601h217l-316 -969q-53 -162 -90.5 -234.5t-108 -116t-196.5 -43.5q-63 0 -143 12v229q79 -14 146 -14q88 0 118 33t45 93zM314 1273l414 243l76 -168l-440 -187z" />
<glyph unicode="&#xfe;" horiz-adv-x="1105" d="M123 -341v1706h289v-482q86 148 254 148q169 0 269.5 -137t100.5 -377q0 -267 -105.5 -402.5t-274.5 -135.5q-171 0 -244 133v-453h-289zM412 442q0 -107 13 -148t55 -73.5t91 -32.5q61 0 109 62.5t48 275.5q0 299 -158 299q-60 0 -109 -53t-49 -180v-150z" />
<glyph unicode="&#xff;" horiz-adv-x="912" d="M-7 1010h315l194 -601l186 601h217l-316 -969q-53 -162 -90.5 -234.5t-108 -116t-196.5 -43.5q-63 0 -143 12v229q79 -14 146 -14q88 0 118 33t45 93zM176 1306q0 46 33 81.5t85 35.5q47 0 84 -30.5t37 -85.5q0 -53 -35.5 -84.5t-85.5 -31.5q-54 0 -86 35t-32 80z M510 1306q0 46 33.5 81.5t85.5 35.5q48 0 84 -31t36 -85q0 -53 -35.5 -84.5t-85.5 -31.5q-54 0 -86 35t-32 80z" />
<glyph unicode="&#x152;" horiz-adv-x="1904" d="M72 679q0 286 158 496.5t471 210.5q86 0 177 -21h972v-258h-645v-281h514v-255h-514v-301h645v-270h-972q-92 -21 -181 -21q-318 0 -471.5 212t-153.5 488zM427 683q0 -443 256 -443q129 0 195 105v681q-62 99 -185 99q-152 0 -209 -124.5t-57 -317.5z" />
<glyph unicode="&#x153;" horiz-adv-x="1720" d="M65 508q0 241 139.5 382t356.5 141q180 0 318 -105q153 105 309 105q155 0 270.5 -79.5t156.5 -194.5t41 -301h-645q0 -262 193 -262q155 0 180 155l272 -22q-32 -157 -152.5 -252.5t-304.5 -95.5q-178 0 -320 102q-140 -102 -321 -102q-224 0 -358.5 147.5t-134.5 381.5 zM386 507q0 -186 46 -259t133 -73q85 0 128.5 73.5t43.5 251.5q0 180 -41.5 258t-132.5 78q-94 0 -135.5 -78.5t-41.5 -250.5zM1013 631h358q-15 210 -173 210q-165 0 -185 -210z" />
<glyph unicode="&#x178;" horiz-adv-x="1068" d="M-55 1365h371l261 -518l259 518h287l-429 -790v-575h-320v575zM261 1626q0 46 33 81.5t85 35.5q47 0 84 -30.5t37 -85.5q0 -53 -35.5 -84.5t-85.5 -31.5q-54 0 -86 35t-32 80zM595 1626q0 46 33.5 81.5t85.5 35.5q48 0 84 -31t36 -85q0 -53 -35.5 -84.5t-85.5 -31.5 q-54 0 -86 35t-32 80z" />
<glyph unicode="&#x2c6;" horiz-adv-x="1024" d="M146 1188l366 314l367 -314l-203 -21l-164 138l-164 -138z" />
<glyph unicode="&#x2dc;" horiz-adv-x="1024" d="M174 1306q100 109 212 109q64 0 148 -40q60 -29 91 -29q69 0 141 83l84 -111q-98 -129 -222 -129q-60 0 -160 47q-49 22 -80 22q-62 0 -129 -65z" />
<glyph unicode="&#x2000;" horiz-adv-x="918" />
<glyph unicode="&#x2001;" horiz-adv-x="1836" />
<glyph unicode="&#x2002;" horiz-adv-x="918" />
<glyph unicode="&#x2003;" horiz-adv-x="1836" />
<glyph unicode="&#x2004;" horiz-adv-x="612" />
<glyph unicode="&#x2005;" horiz-adv-x="459" />
<glyph unicode="&#x2006;" horiz-adv-x="306" />
<glyph unicode="&#x2007;" horiz-adv-x="306" />
<glyph unicode="&#x2008;" horiz-adv-x="229" />
<glyph unicode="&#x2009;" horiz-adv-x="367" />
<glyph unicode="&#x200a;" horiz-adv-x="102" />
<glyph unicode="&#x2010;" horiz-adv-x="527" d="M24 411v217h478v-217h-478z" />
<glyph unicode="&#x2011;" horiz-adv-x="527" d="M24 411v217h478v-217h-478z" />
<glyph unicode="&#x2012;" horiz-adv-x="527" d="M24 411v217h478v-217h-478z" />
<glyph unicode="&#x2013;" d="M162 411v217h877v-217h-877z" />
<glyph unicode="&#x2014;" horiz-adv-x="1365" d="M-41 410v218h1447v-218h-1447z" />
<glyph unicode="&#x2018;" horiz-adv-x="527" d="M118 808v250l180 307h111l-139 -271h139v-286h-291z" />
<glyph unicode="&#x2019;" horiz-adv-x="527" d="M118 808l139 272h-139v285h291v-249l-180 -308h-111z" />
<glyph unicode="&#x201a;" horiz-adv-x="527" d="M118 0v285h291v-249l-180 -308h-111l139 272h-139z" />
<glyph unicode="&#x201c;" horiz-adv-x="897" d="M116 807v281l169 277h107l-137 -277h137v-281h-276zM511 807v281l164 277h106l-142 -277h142v-281h-270z" />
<glyph unicode="&#x201d;" horiz-adv-x="897" d="M116 807l142 277h-142v281h270v-281l-164 -277h-106zM505 807l137 277h-137v281h276v-281l-170 -277h-106z" />
<glyph unicode="&#x201e;" horiz-adv-x="897" d="M116 0v281h270v-281l-164 -277h-106l142 277h-142zM505 0v281h276v-281l-170 -277h-106l137 277h-137z" />
<glyph unicode="&#x2022;" horiz-adv-x="1365" d="M401 696q0 118 82.5 202t199.5 84q116 0 198.5 -84t82.5 -202q0 -117 -82.5 -201.5t-198.5 -84.5q-119 0 -200.5 84.5t-81.5 201.5z" />
<glyph unicode="&#x2026;" horiz-adv-x="1623" d="M116 0v309h309v-309h-309zM657 0v309h310v-309h-310zM1199 0v309h308v-309h-308z" />
<glyph unicode="&#x202f;" horiz-adv-x="367" />
<glyph unicode="&#x2039;" horiz-adv-x="422" d="M68 526l170 292h101l-101 -292l101 -287h-101z" />
<glyph unicode="&#x203a;" horiz-adv-x="422" d="M82 239l101 287l-101 292h101l170 -292l-170 -287h-101z" />
<glyph unicode="&#x205f;" horiz-adv-x="459" />
<glyph unicode="&#x20ac;" horiz-adv-x="1200" d="M31 463v153h75l-2 66q0 38 2 53h-75v156h92q44 241 185.5 368t365.5 127q190 0 333.5 -114t174.5 -307l-336 -23q-9 78 -57.5 130t-120.5 52q-176 0 -215 -233h229v-156h-244v-55q0 -45 2 -64h242v-153h-223q49 -223 217 -223q138 0 180 204l330 -18 q-46 -232 -164.5 -339t-349.5 -107q-451 0 -547 483h-94z" />
<glyph unicode="&#x2122;" horiz-adv-x="1768" d="M-7 1201v164h655v-164h-219v-614h-218v614h-218zM722 587v778h330l148 -443l157 443h330v-778h-219v591l-208 -591h-150l-200 581v-581h-188z" />
<glyph unicode="&#x25fc;" horiz-adv-x="1010" d="M0 0v1010h1010v-1010h-1010z" />
<glyph unicode="&#xfb01;" horiz-adv-x="1149" d="M27 778v232h117q2 156 22.5 227.5t105.5 127t231 55.5q60 0 138 -11v-230q-64 5 -106 5q-61 0 -81 -32t-20 -104v-38h183v-232h-183v-778h-290v778h-117zM727 0v1010h298v-1010h-298zM727 1095v298h298v-298h-298z" />
<glyph unicode="&#xfb02;" horiz-adv-x="1149" d="M27 778v232h117q2 156 22.5 227.5t105.5 127t231 55.5q60 0 138 -11v-230q-64 5 -106 5q-61 0 -81 -32t-20 -104v-38h183v-232h-183v-778h-290v778h-117zM727 0v1365h298v-1365h-298z" />
</font>
</defs>
</svg>
