<?xml version="1.0" standalone="no"?>
<!DOCTYPE svg PUBLIC "-//W3C//DTD SVG 1.1//EN" "http://www.w3.org/Graphics/SVG/1.1/DTD/svg11.dtd" >
<svg>
<metadata>
Created by FontForge 20090914 at Mon Jul 22 10:46:48 2013
 By www-data
Copyright 1990-1998 Bitstream Inc.  All rights reserved.
</metadata>
<defs>
<font id="CenturyOldstyleBT-Roman" horiz-adv-x="1024" >
  <font-face 
    font-family="CenturyOldst BT"
    font-weight="400"
    font-stretch="normal"
    units-per-em="2048"
    panose-1="2 5 6 3 5 7 5 2 2 4"
    ascent="1556"
    descent="-492"
    x-height="976.999"
    cap-height="1475"
    bbox="-342 -483 2363 1964"
    underline-thickness="117"
    underline-position="-137"
    unicode-range="U+0020-U+F002"
  />
<missing-glyph horiz-adv-x="1229" 
d="M102 -362v1806h1024v-1806h-1024zM217 -248h795v1577h-795v-1577z" />
    <glyph glyph-name=".notdef" horiz-adv-x="1229" 
d="M102 -362v1806h1024v-1806h-1024zM217 -248h795v1577h-795v-1577z" />
    <glyph glyph-name="space" unicode=" " horiz-adv-x="516" 
 />
    <glyph glyph-name="exclam" unicode="!" horiz-adv-x="682" 
d="M383 443l-67 -1.00098c-2.66699 114 -6.5 215 -11.5 303s-11.5 163.667 -19.5 227c-3.33301 22.667 -13.5 75.5 -30.5 158.5s-25.5 151.167 -25.5 204.5c0 54 10.333 95.5 31 124.5s50 43.5 88 43.5c39.333 0 69.333 -14.333 90 -43s31 -70.334 31 -125.001
c0 -53.333 -8.5 -121.666 -25.5 -204.999s-26.833 -135.666 -29.5 -156.999c-8.66699 -64 -15.5 -140.167 -20.5 -228.5s-8.5 -188.833 -10.5 -301.5zM213 103.999c0 36 12.168 66.167 36.501 90.5s54.5 36.5 90.5 36.5c35.333 0 65.666 -12.333 90.999 -37
s38 -54.667 38 -90c0 -36.667 -12.5 -67.667 -37.5 -93s-55.5 -38 -91.5 -38s-66.167 12.5 -90.5 37.5s-36.5 56.167 -36.5 93.5z" />
    <glyph glyph-name="quotedbl" unicode="&#x22;" horiz-adv-x="678" 
d="M518 864l-31.001 -0.000976562l-65 457c0 1.33301 -0.333008 3.33301 -1 6c-2 14.667 -3 25.667 -3 33c0 32.667 7.5 57.834 22.5 75.501s36.167 26.5 63.5 26.5c26.667 0 47.334 -8.66699 62.001 -26s22 -42 22 -74c0 -9.33301 -0.166992 -17 -0.5 -23
s-0.833008 -12 -1.5 -18zM189.999 863.999l-32.001 -0.000976562l-64 457l-3 26c-0.666992 6 -1 11 -1 15c0 32 7.33301 56.667 22 74s35.334 26 62.001 26c27.333 0 48.5 -8.66699 63.5 -26s22.5 -42 22.5 -74c0 -6 -1 -17.333 -3 -34
c-0.666992 -3.33301 -1 -5.66602 -1 -6.99902z" />
    <glyph glyph-name="numbersign" unicode="#" horiz-adv-x="1575" 
d="M700 868l-100 -286h289l102 286h-291zM778 1456h133l-168 -471h287l168 471h131l-166 -471h307l-40 -117h-310l-100 -286h332l-43 -115h-330l-166 -469h-133l166 469h-287l-166 -469h-131l166 469h-324l43 115h322l100 286h-348l43 117h348z" />
    <glyph glyph-name="dollar" unicode="$" horiz-adv-x="1034" 
d="M469 852v536.998c-76.667 -11.333 -137.5 -41.166 -182.5 -89.499s-67.5 -108.166 -67.5 -179.499c0 -68 20.333 -123.667 61 -167s103.667 -77 189 -101zM557 54.998c89.333 14.667 157.833 45.6689 205.5 93.002s71.5 108 71.5 182
c0 67.333 -22.833 124.666 -68.5 171.999s-115.167 84.666 -208.5 111.999v-559zM557 -262l-88.002 0.00390625v239c-122 5.33301 -221.167 39.666 -297.5 102.999s-114.5 141.666 -114.5 234.999c0 42 10.5 75.5 31.5 100.5s49.5 37.5 85.5 37.5
c30.667 0 55.334 -10.167 74.001 -30.5s28 -46.5 28 -78.5c0 -26.667 -8.83301 -56.834 -26.5 -90.501s-26.5 -53.834 -26.5 -60.501c0 -38.667 23.333 -72.167 70 -100.5s105.334 -43.166 176.001 -44.499v597c-122.667 40 -215.167 94.667 -277.5 164
s-93.5 152.666 -93.5 249.999c0 104 33.333 190.5 100 259.5s157 109.5 271 121.5v139h88v-141c107.333 -4 196 -34.167 266 -90.5s105 -123.833 105 -202.5c0 -32 -9.66699 -57.5 -29 -76.5s-45.333 -28.5 -78 -28.5c-29.333 0 -53.666 9.16699 -72.999 27.5
s-29 41.5 -29 69.5c0 14 3.66699 33.333 11 58s11 42 11 52c0 33.333 -17.167 62.833 -51.5 88.5s-78.5 41.167 -132.5 46.5v-561c137.333 -44 239.666 -102.167 306.999 -174.5s101 -160.833 101 -265.5c0 -111.333 -36.5 -203.5 -109.5 -276.5
s-172.5 -116.833 -298.5 -131.5v-235z" />
    <glyph glyph-name="percent" unicode="%" horiz-adv-x="1706" 
d="M369 -35l745.002 1321c-38 -21.333 -75.833 -37.5 -113.5 -48.5s-74.167 -16.5 -109.5 -16.5c-22.667 0 -43.5 1.83301 -62.5 5.5s-36.5 9.16699 -52.5 16.5c2.66699 -15.333 4.66699 -30.166 6 -44.499s2 -27.5 2 -39.5c0 -54 -12.667 -113.667 -38 -179
s-60.333 -127 -105 -185c-42 -55.333 -87.833 -97.5 -137.5 -126.5s-100.834 -43.5 -153.501 -43.5c-82 0 -147.167 24.667 -195.5 74s-72.5 116 -72.5 200c0 56.667 12 114 36 172s59 114 105 168c50 58.667 101.333 103.334 154 134.001s103.667 46 153 46
c51.333 0 94.166 -7.66699 128.499 -23s62.5 -39.666 84.5 -72.999c28 -16.667 53.667 -28.667 77 -36s47 -11 71 -11c62 0 124 15.667 186 47s110 71.666 144 120.999h90l-842 -1479h-100zM715.002 1262c-28.667 6.66699 -54.1689 17.6641 -76.502 32.9971
s-41.166 34.333 -56.499 57h-4c-30.667 0 -61.667 -13.5 -93 -40.5s-66 -69.5 -104 -127.5c-42.667 -66 -75.167 -129.333 -97.5 -190s-33.5 -115.667 -33.5 -165c0 -42.667 11.833 -76.5 35.5 -101.5s55.5 -37.5 95.5 -37.5c40.667 0 80.834 13.333 120.501 40
s77.167 65.334 112.5 116.001c38 54.667 67 109.334 87 164.001s30 106.334 30 155.001c0 17.333 -1.33301 33.833 -4 49.5s-6.66699 31.5 -12 47.5zM1337 792.995c83.333 0 146.499 -21.168 189.499 -63.501s64.5 -103.833 64.5 -184.5
c0 -59.333 -12.5 -121.666 -37.5 -186.999s-60.833 -129.333 -107.5 -192c-40.667 -54 -85.5 -95.167 -134.5 -123.5s-99.833 -42.5 -152.5 -42.5c-83.333 0 -149.166 24.5 -197.499 73.5s-72.5 115.833 -72.5 200.5c0 56.667 12 114 36 172s59 114 105 168
c49.333 58 100.333 102.333 153 133s104 46 154 46zM1538 548.994c0 52 -13.5 94.998 -40.5 128.998s-60.5 51 -100.5 51c-32.667 0 -66.167 -13.667 -100.5 -41s-70.5 -69.666 -108.5 -126.999c-43.333 -66 -76 -128 -98 -186s-33 -111.333 -33 -160
c0 -45.333 12 -81.166 36 -107.499s56.333 -39.5 97 -39.5c39.333 0 78.5 13.167 117.5 39.5s76.167 64.833 111.5 115.5c38 56 67.333 112.167 88 168.5s31 108.833 31 157.5z" />
    <glyph glyph-name="ampersand" unicode="&#x26;" horiz-adv-x="1593" 
d="M647 940c90 37.333 156.832 80.5 200.499 129.5s65.5 105.5 65.5 169.5c0 60 -16.333 107.833 -49 143.5s-77 53.5 -133 53.5c-51.333 0 -93.166 -18 -125.499 -54s-48.5 -83 -48.5 -141c0 -35.333 7 -76.5 21 -123.5s37 -106.167 69 -177.5zM902.999 160
c-67.333 74 -131.332 159.332 -191.999 255.999s-127 220 -199 370c-76.667 -37.333 -133.667 -81.166 -171 -131.499s-56 -108.833 -56 -175.5c0 -109.333 37 -204.833 111 -286.5s159 -122.5 255 -122.5c45.333 0 89.166 7.5 131.499 22.5s82.5 37.5 120.5 67.5z
M996 806.999l-0.998047 65h523l-1 -65c-66 -2 -113.5 -13.667 -142.5 -35s-55.167 -66.333 -78.5 -135l-18 -60c-45.333 -152 -105.333 -272 -180 -360c30.667 -32.667 63.5 -57.5 98.5 -74.5s71.167 -25.5 108.5 -25.5c35.333 0 70.5 8.33301 105.5 25s67.833 41 98.5 73
l41 -45c-44.667 -62.667 -94.5 -110.5 -149.5 -143.5s-112.833 -49.5 -173.5 -49.5c-46 0 -91.167 9.5 -135.5 28.5s-87.833 47.167 -130.5 84.5c-63.333 -41.333 -126.5 -71.833 -189.5 -91.5s-129.833 -29.5 -200.5 -29.5c-138.667 0 -253.834 39.5 -345.501 118.5
s-137.5 176.167 -137.5 291.5c0 90 32.333 174.667 97 254s162 153.666 292 222.999c-31.333 72 -53.5 131.667 -66.5 179s-19.5 90.666 -19.5 129.999c0 102 31.667 183.833 95 245.5s147 92.5 251 92.5c92 0 167 -25.5 225 -76.5s87 -116.167 87 -195.5
c0 -72.667 -29.167 -137.167 -87.5 -193.5s-153.5 -112.166 -285.5 -167.499c40 -88 90.5 -180.667 151.5 -278s132.5 -199.666 214.5 -306.999c50 66.667 87.833 130.5 113.5 191.5s38.5 117.167 38.5 168.5c0 56.667 -15.333 97.5 -46 122.5s-81.334 38.167 -152.001 39.5
z" />
    <glyph glyph-name="quotesingle" unicode="'" horiz-adv-x="348" 
d="M190 864l-31.999 0.000976562l-66 457c-0.666992 5.33301 -1.16699 10.666 -1.5 15.999s-0.5 13 -0.5 23c0 33.333 7.16699 58.666 21.5 75.999s35.166 26 62.499 26s48.5 -8.66699 63.5 -26s22.5 -42 22.5 -74c0 -6 -1 -17.333 -3 -34
c-0.666992 -3.33301 -1 -5.66602 -1 -6.99902z" />
    <glyph glyph-name="parenleft" unicode="(" horiz-adv-x="682" 
d="M627 -311c-168 99.333 -296.833 227.002 -386.5 383.002s-134.5 330.667 -134.5 524s44.833 368 134.5 524s218.5 283.667 386.5 383v-61c-124 -106.667 -214.833 -227.834 -272.5 -363.501s-86.5 -296.5 -86.5 -482.5s28.833 -346.833 86.5 -482.5
s148.5 -256.834 272.5 -363.501v-61z" />
    <glyph glyph-name="parenright" unicode=")" horiz-adv-x="682" 
d="M57 1503c167.333 -98.667 295.5 -226.001 384.5 -382.001s133.5 -331 133.5 -525s-44.5 -369 -133.5 -525s-217.167 -283.333 -384.5 -382v61c123.333 106 213.666 226.833 270.999 362.5s86 296.834 86 483.501c0 186 -28.667 346.5 -86 481.5
s-147.666 255.833 -270.999 362.5v63z" />
    <glyph glyph-name="asterisk" unicode="*" 
d="M500 1114l0.000976562 16c0 48.667 -11.667 102.834 -35 162.501s-35 97.834 -35 114.501c0 28.667 7.5 51.834 22.5 69.501s34.833 26.5 59.5 26.5c23.333 0 42.833 -8.16699 58.5 -24.5s23.5 -37.5 23.5 -63.5c0 -18.667 -11.667 -58.834 -35 -120.501
s-35 -117.834 -35 -168.501v-12c52 26.667 102 72.334 150 137.001l23 30c15.333 18 31.666 31.5 48.999 40.5s36.333 13.5 57 13.5c21.333 0 39.333 -7.33301 54 -22s22 -33.334 22 -56.001c0 -21.333 -7.33301 -40 -22 -56s-35.334 -28 -62.001 -36
c-10 -2.66699 -27 -5.33398 -51 -8.00098c-82 -10 -151 -31.667 -207 -65c46 -28.667 100 -47.834 162 -57.501s95.333 -15.167 100 -16.5c23.333 -8 42.5 -20.667 57.5 -38s22.5 -35.333 22.5 -54c0 -22 -8 -40.833 -24 -56.5s-35.333 -23.5 -58 -23.5
c-17.333 0 -34.666 5.33301 -51.999 16s-35 26.667 -53 48c-3.33301 4 -8.66602 11 -15.999 21c-43.333 61.333 -94 108 -152 140v-16c0 -48.667 11.667 -103.167 35 -163.5s35 -98.833 35 -115.5c0 -28.667 -7.5 -51.834 -22.5 -69.501s-34.833 -26.5 -59.5 -26.5
c-23.333 0 -42.833 8.5 -58.5 25.5s-23.5 38.5 -23.5 64.5c0 18.667 11.667 58.834 35 120.501s35 117.834 35 168.501v12c-52 -26.667 -102 -72.334 -150 -137.001c-10.667 -14 -18 -23.333 -22 -28c-16.667 -20 -33.667 -34.667 -51 -44s-36 -14 -56 -14
c-21.333 0 -39.333 7.66699 -54 23s-22 34.333 -22 57c0 22 7.33301 40.833 22 56.5s35.334 27.5 62.001 35.5c9.33301 2.66699 26.666 5.33398 51.999 8.00098c82 9.33301 150.667 30.666 206 63.999c-47.333 28.667 -102 48 -164 58s-94 15 -96 15
c-26 8 -46.167 20.167 -60.5 36.5s-21.5 34.833 -21.5 55.5c0 23.333 7.83301 42.5 23.5 57.5s35.167 22.5 58.5 22.5c17.333 0 34.666 -5.16699 51.999 -15.5s35 -26.166 53 -47.499l15 -21c43.333 -60 94.333 -106.333 153 -139z" />
    <glyph glyph-name="plus" unicode="+" horiz-adv-x="1706" 
d="M795 1221h118v-551h539v-117h-539v-553h-118v553h-541v117h541v551z" />
    <glyph glyph-name="comma" unicode="," horiz-adv-x="516" 
d="M141 -322l-45 43.0029c56 58.667 94.667 103.667 116 135s32 57.333 32 78c0 17.333 -18.333 40.333 -55 69c-11.333 8.66699 -20.333 16 -27 22c-11.333 9.33301 -20.333 22.166 -27 38.499s-10 34.166 -10 53.499c0 34 11.5 62.667 34.5 86s51.833 35 86.5 35
c43.333 0 77 -14.333 101 -43s36 -68.334 36 -119.001c0 -66 -20.833 -133.333 -62.5 -202s-101.5 -134 -179.5 -196z" />
    <glyph glyph-name="hyphen" unicode="-" horiz-adv-x="684" 
d="M86 410v141h512v-141h-512z" />
    <glyph glyph-name="period" unicode="." horiz-adv-x="516" 
d="M121 123c0 37.333 13.333 69.166 40 95.499s59 39.5 97 39.5s70.333 -13.167 97 -39.5s40 -58.166 40 -95.499c0 -38.667 -13.333 -71.5 -40 -98.5s-59 -40.5 -97 -40.5s-70.333 13.5 -97 40.5s-40 59.833 -40 98.5z" />
    <glyph glyph-name="slash" unicode="/" horiz-adv-x="569" 
d="M627 1503l-637 -1693h-96l636 1693h97z" />
    <glyph glyph-name="zero" unicode="0" horiz-adv-x="1034" 
d="M61 690c0 100.667 11.999 196.67 35.999 288.003s58.667 172.333 104 243c44.667 70.667 93.834 123.5 147.501 158.5s112.167 52.5 175.5 52.5c130 0 237.333 -69.833 322 -209.5s127 -319.167 127 -538.5c0 -95.333 -10.667 -183.833 -32 -265.5
s-53.666 -157.834 -96.999 -228.501c-46 -74.667 -94.333 -129.834 -145 -165.501s-106.334 -53.5 -167.001 -53.5c-58.667 0 -113.167 14.167 -163.5 42.5s-96.833 70.833 -139.5 127.5c-54 72 -95.5 155.167 -124.5 249.5s-43.5 194.166 -43.5 299.499zM263.999 682.003
c0 -216 21.5 -377.833 64.5 -485.5s107.5 -161.5 193.5 -161.5c85.333 0 149.333 57.333 192 172s64 286.667 64 516c0 218.667 -21.167 382.5 -63.5 491.5s-105.833 163.5 -190.5 163.5c-87.333 0 -152.5 -57.5 -195.5 -172.5s-64.5 -289.5 -64.5 -523.5z" />
    <glyph glyph-name="one" unicode="1" horiz-adv-x="1034" 
d="M180 0l0.000976562 78.001c124 7.33301 199.333 21.666 226 42.999s40 70.333 40 147v791c0 58 -3.33301 97.5 -10 118.5s-18.334 37.5 -35.001 49.5c-12 8 -35.333 14 -70 18s-80.667 6 -138 6h-41v66c58.667 7.33301 126 22 202 44s167.667 53.667 275 95v-1188
c0 -76 15 -125.333 45 -148s107.667 -36.667 233 -42v-78h-727z" />
    <glyph glyph-name="two" unicode="2" horiz-adv-x="1034" 
d="M29 0l-0.000976562 79.998c72 105.333 139.5 199 202.5 281s127.833 160.333 194.5 235l56 62c152.667 166.667 229 309 229 427c0 89.333 -22 159.166 -66 209.499s-104.667 75.5 -182 75.5c-58 0 -107.667 -14.667 -149 -44s-62 -63.666 -62 -102.999
c0 -19.333 7.83301 -47.5 23.5 -84.5s23.5 -65.5 23.5 -85.5c0 -29.333 -9.16699 -53.833 -27.5 -73.5s-40.5 -29.5 -66.5 -29.5c-38 0 -68.333 12.333 -91 37s-34 57.334 -34 98.001c0 98 40.167 180.333 120.5 247s182.166 100 305.499 100
c122.667 0 220.834 -33.667 294.501 -101s110.5 -156.666 110.5 -267.999c0 -70.667 -19.833 -138.167 -59.5 -202.5s-120.167 -150.5 -241.5 -258.5l-60 -52c-168.667 -144.667 -294.667 -279 -378 -403h354c68.667 0 115.834 2.5 141.501 7.5s47.5 13.5 65.5 25.5
c32.667 22 74 91 124 207l1 2l70 -18l-97 -371h-802z" />
    <glyph glyph-name="three" unicode="3" horiz-adv-x="1034" 
d="M604 752c106.667 -32.667 188.332 -81.9971 244.999 -147.997s85 -144.333 85 -235c0 -116.667 -44.333 -212.5 -133 -287.5s-202 -112.5 -340 -112.5c-126 0 -231.333 27.833 -316 83.5s-127 122.834 -127 201.501c0 35.333 10.333 63.666 31 84.999s48 32 82 32
c36.667 0 65.667 -9.5 87 -28.5s32 -44.5 32 -76.5c0 -4.66699 -1.66699 -17.334 -5 -38.001s-5 -38.667 -5 -54c0 -38.667 17.5 -70.167 52.5 -94.5s80.833 -36.5 137.5 -36.5c90.667 0 162.834 29.167 216.501 87.5s80.5 137.166 80.5 236.499
c0 117.333 -26.333 205 -79 263s-132 87 -238 87c-12.667 0 -27.667 -0.666992 -45 -2s-28.333 -2 -33 -2c-14.667 0 -25.167 3.5 -31.5 10.5s-9.5 19.167 -9.5 36.5c0 14.667 4.33301 25.167 13 31.5s23.334 9.5 44.001 9.5c8.66699 0 22.167 -1.66699 40.5 -5
s32.833 -5 43.5 -5c83.333 0 149.166 27.667 197.499 83s72.5 131.333 72.5 228c0 86 -20.5 152.833 -61.5 200.5s-98.167 71.5 -171.5 71.5c-56 0 -99.667 -12.5 -131 -37.5s-47 -59.5 -47 -103.5c0 -10 1 -22.333 3 -37s3 -24.334 3 -29.001c0 -34 -9 -60.5 -27 -79.5
s-43 -28.5 -75 -28.5c-33.333 0 -59.833 10 -79.5 30s-29.5 46.667 -29.5 80c0 71.333 37.333 133 112 185s167.667 78 279 78c130.667 0 232.667 -30 306 -90s110 -142.667 110 -248c0 -74.667 -22.667 -139 -68 -193s-119 -103.667 -221 -149z" />
    <glyph glyph-name="four" unicode="4" horiz-adv-x="1034" 
d="M579 438c2 127.333 6.83301 254 14.5 380s18.167 251.333 31.5 376l-467 -756h421zM580 348h-529v90l625 1000h76v-1000h243v-90h-243v-125c0 -60 10 -99.167 30 -117.5s58.333 -27.5 115 -27.5h10v-78h-497v78h22c58.667 0 98 9.16699 118 27.5s30 57.5 30 117.5v125z
" />
    <glyph glyph-name="five" unicode="5" horiz-adv-x="1034" 
d="M197 657l-62.0039 21.002c10.667 164.667 18.834 302 24.501 412s10.5 214.333 14.5 313h715l-39 -141h-594l-23 -465c44 34 90.333 59.5 139 76.5s100.667 25.5 156 25.5c122.667 0 224.334 -41.5 305.001 -124.5s121 -188.167 121 -315.5
c0 -140 -47.167 -256.333 -141.5 -349s-212.166 -139 -353.499 -139c-110 0 -202.667 28 -278 84s-113 121.667 -113 197c0 37.333 10.167 66.5 30.5 87.5s48.833 31.5 85.5 31.5c32 0 56.833 -9.83301 74.5 -29.5s26.5 -46.834 26.5 -81.501
c0 -9.33301 -1.5 -23.333 -4.5 -42s-4.5 -32.667 -4.5 -42c0 -40 15.833 -72.5 47.5 -97.5s73.5 -37.5 125.5 -37.5c96 0 170.167 35.333 222.5 106s78.5 172 78.5 304c0 113.333 -23 200.666 -69 261.999s-111.333 92 -196 92c-48 0 -93.167 -10.5 -135.5 -31.5
s-93.166 -59.833 -152.499 -116.5z" />
    <glyph glyph-name="six" unicode="6" horiz-adv-x="1034" 
d="M270 711c50 61.333 102.498 107.001 157.498 137.001s113.167 45 174.5 45c105.333 0 192.5 -39.5 261.5 -118.5s103.5 -179.5 103.5 -301.5c0 -143.333 -41.833 -262.166 -125.5 -356.499s-188.167 -141.5 -313.5 -141.5c-138.667 0 -251.167 60.333 -337.5 181
s-129.5 279 -129.5 475c0 109.333 15 212.666 45 309.999s74.667 188.333 134 273c51.333 74.667 107.833 130 169.5 166s129.834 54 204.501 54c86 0 157.333 -19 214 -57s85 -85.333 85 -142c0 -31.333 -9.5 -55.833 -28.5 -73.5s-45.5 -26.5 -79.5 -26.5
c-30.667 0 -54.667 8.5 -72 25.5s-31.666 47.167 -42.999 90.5c-11.333 44 -25.333 73.5 -42 88.5s-41 22.5 -73 22.5c-85.333 0 -157.5 -57.333 -216.5 -172s-88.5 -261.334 -88.5 -440.001v-39zM261.998 594.001l0.00195312 -54.998c0 -158.667 23 -281.334 69 -368.001
s110.333 -130 193 -130c77.333 0 137.666 35.833 180.999 107.5s65 172.5 65 302.5c0 107.333 -18.833 189.666 -56.5 246.999s-91.834 86 -162.501 86c-50 0 -99.667 -16.167 -149 -48.5s-96 -79.5 -140 -141.5z" />
    <glyph glyph-name="seven" unicode="7" horiz-adv-x="1034" 
d="M164 983l-69.999 14.001l103 406h784v-98c-132.667 -226 -234.167 -426.333 -304.5 -601s-112.833 -331.667 -127.5 -471c-2.66699 -27.333 -4.5 -65.833 -5.5 -115.5s-4.83301 -82.167 -11.5 -97.5c-8.66699 -23.333 -21 -40.333 -37 -51s-37 -16 -63 -16
c-34.667 0 -61.334 11.5 -80.001 34.5s-28 55.833 -28 98.5c0 79.333 33.5 194.666 100.5 345.999s212.833 426.333 437.5 825h-436c-64 0 -112.5 -15.833 -145.5 -47.5s-71.833 -107.167 -116.5 -226.5z" />
    <glyph glyph-name="eight" unicode="8" horiz-adv-x="1034" 
d="M588 827c49.333 30.667 87.833 70.666 115.5 119.999s41.5 103 41.5 161c0 78.667 -21.333 141 -64 187s-100.334 69 -173.001 69c-77.333 0 -139.666 -21.833 -186.999 -65.5s-71 -100.5 -71 -170.5c0 -67.333 27.667 -125.666 83 -174.999s140.333 -91.333 255 -126z
M657 792.999c102 -42 178.5 -96.333 229.5 -163s76.5 -145.667 76.5 -237c0 -124 -43.5 -225.333 -130.5 -304s-199.833 -118 -338.5 -118c-124.667 0 -228.667 33.833 -312 101.5s-125 150.834 -125 249.501c0 70.667 24.333 136.667 73 198s127.667 125 237 191
c-86 46 -148.167 95.833 -186.5 149.5s-57.5 117.834 -57.5 192.501c0 111.333 36.333 202.666 109 273.999s166 107 280 107c113.333 0 204.833 -29.833 274.5 -89.5s104.5 -137.834 104.5 -234.501c0 -62 -18.5 -118.167 -55.5 -168.5s-96.5 -99.833 -178.5 -148.5z
M428 673.999c-63.333 -44 -110.5 -94.167 -141.5 -150.5s-46.5 -119.5 -46.5 -189.5c0 -90 23.5 -160.667 70.5 -212s112.167 -77 195.5 -77c90 0 165.333 27.667 226 83s91 124 91 206c0 76.667 -29 140.5 -87 191.5s-160.667 100.5 -308 148.5z" />
    <glyph glyph-name="nine" unicode="9" horiz-adv-x="1034" 
d="M764 813v54.999c0 158.667 -22.833 281 -68.5 367s-110.167 129 -193.5 129c-77.333 0 -137.333 -35.667 -180 -107s-64 -172.333 -64 -303c0 -108 18.5 -190.5 55.5 -247.5s90.833 -85.5 161.5 -85.5c50 0 99.5 16.333 148.5 49s95.833 80.334 140.5 143.001z
M756 693.999c-49.333 -60.667 -101.5 -105.833 -156.5 -135.5s-113.5 -44.5 -175.5 -44.5c-105.333 0 -192.5 39.167 -261.5 117.5s-103.5 178.5 -103.5 300.5c0 144 42.167 263.333 126.5 358s189.166 142 314.499 142c74 0 138.167 -15.833 192.5 -47.5
s105.5 -82.834 153.5 -153.501c38.667 -58 68.5 -124.333 89.5 -199s31.5 -153 31.5 -235c0 -118.667 -14.667 -227.167 -44 -325.5s-75 -191.166 -137 -278.499c-51.333 -74.667 -107.666 -130 -168.999 -166s-129.666 -54 -204.999 -54c-86 0 -157.333 19 -214 57
s-85 85.333 -85 142c0 31.333 9.5 55.833 28.5 73.5s45.5 26.5 79.5 26.5c30.667 0 54.667 -8.5 72 -25.5s31.666 -47.167 42.999 -90.5c12 -44 26.167 -73.5 42.5 -88.5s40.5 -22.5 72.5 -22.5c85.333 0 157.5 57 216.5 171s88.5 260.333 88.5 439v39z" />
    <glyph glyph-name="colon" unicode=":" horiz-adv-x="569" 
d="M147 123c0 37.333 13.499 69.167 40.499 95.5s59.5 39.5 97.5 39.5s70 -13 96 -39s39 -58 39 -96c0 -39.333 -13.167 -72.333 -39.5 -99s-58.166 -40 -95.499 -40c-38 0 -70.5 13.5 -97.5 40.5s-40.5 59.833 -40.5 98.5zM146.999 850.001
c0 37.333 13.499 69.167 40.499 95.5s59.5 39.5 97.5 39.5s70 -13 96 -39s39 -58 39 -96c0 -38.667 -13.167 -71.5 -39.5 -98.5s-58.166 -40.5 -95.499 -40.5c-38 0 -70.5 13.5 -97.5 40.5s-40.5 59.833 -40.5 98.5z" />
    <glyph glyph-name="semicolon" unicode=";" horiz-adv-x="569" 
d="M176 -322l-45.001 43.0029c54 56.667 91.667 101 113 133s32 58.667 32 80c0 18 -18.333 41.667 -55 71l-25 20c-11.333 9.33301 -20.166 22.166 -26.499 38.499s-9.5 34.166 -9.5 53.499c0 34 11.5 62.667 34.5 86s51.833 35 86.5 35c42.667 0 76.167 -14.333 100.5 -43
s36.5 -68.334 36.5 -119.001c0 -66 -20.833 -133.333 -62.5 -202s-101.5 -134 -179.5 -196zM159.999 850.003c0 37.333 13.333 69.167 40 95.5s59 39.5 97 39.5s70 -13 96 -39s39 -58 39 -96c0 -38.667 -13 -71.5 -39 -98.5s-58 -40.5 -96 -40.5s-70.333 13.5 -97 40.5
s-40 59.833 -40 98.5z" />
    <glyph glyph-name="less" unicode="&#x3c;" horiz-adv-x="1706" 
d="M1442 1145v-127l-1000 -408l1000 -405v-129l-1178 483v103z" />
    <glyph glyph-name="equal" unicode="=" horiz-adv-x="1706" 
d="M254 477h1198v-117h-1198v117zM254 860h1198v-117h-1198v117z" />
    <glyph glyph-name="greater" unicode="&#x3e;" horiz-adv-x="1706" 
d="M264 1145l1178 -483v-103l-1178 -483v129l1000 405l-1000 408v127z" />
    <glyph glyph-name="question" unicode="?" horiz-adv-x="909" 
d="M348 440h-68.999v402c96.667 10 173 43.667 229 101s84 130 84 218c0 71.333 -15.833 129.166 -47.5 173.499s-72.5 66.5 -122.5 66.5c-18 0 -33.833 -3.16699 -47.5 -9.5s-29.167 -18.166 -46.5 -35.499l-16 -16c-26.667 -28 -56.334 -42 -89.001 -42
c-24 0 -44 8 -60 24s-24 36 -24 60c0 41.333 14.833 72.5 44.5 93.5s73.5 31.5 131.5 31.5c114 0 211.167 -40.667 291.5 -122s120.5 -179.666 120.5 -294.999c0 -116 -33 -208.833 -99 -278.5s-159.333 -110.834 -280 -123.501v-248zM182.001 104
c0 36 12.5 66.167 37.5 90.5s55.5 36.5 91.5 36.5s66.5 -12.333 91.5 -37s37.5 -54.667 37.5 -90c0 -36.667 -12.5 -67.667 -37.5 -93s-55.5 -38 -91.5 -38s-66.5 12.5 -91.5 37.5s-37.5 56.167 -37.5 93.5z" />
    <glyph glyph-name="at" unicode="@" horiz-adv-x="2019" 
d="M1190 336c-41.333 -70.667 -87.667 -123.501 -139 -158.501s-108 -52.5 -170 -52.5c-83.333 0 -150.333 30.667 -201 92s-76 142.666 -76 243.999c0 72 16.333 144 49 216s78.667 136.333 138 193c43.333 42.667 91.333 76 144 100s104.334 36 155.001 36
c58 0 105.667 -16.5 143 -49.5s63.333 -81.5 78 -145.5l53 180h143l-170 -610c0 -1.33301 -0.333008 -3 -1 -5c-11.333 -39.333 -17 -74 -17 -104c0 -31.333 8.5 -56.166 25.5 -74.499s39.833 -27.5 68.5 -27.5c22.667 0 49 5.83301 79 17.5s58.333 27.834 85 48.501
c81.333 60 143.666 137 186.999 231s65 199 65 315c0 93.333 -16.667 177.333 -50 252s-84.333 142.334 -153 203.001c-60 52.667 -132 93.5 -216 122.5s-173 43.5 -267 43.5c-124.667 0 -238.5 -19.5 -341.5 -58.5s-194.833 -97.5 -275.5 -175.5
c-86.667 -84 -152.334 -181.833 -197.001 -293.5s-67 -234.834 -67 -369.501c0 -116.667 19 -218.167 57 -304.5s98.333 -164.5 181 -234.5c76 -64.667 163 -113.5 261 -146.5s204.667 -49.5 320 -49.5c108.667 0 214.5 17.333 317.5 52s201.5 86 295.5 154l30 -36
c-98.667 -73.333 -203 -128.666 -313 -165.999s-224 -56 -342 -56c-124.667 0 -238.667 15.5 -342 46.5s-194.666 77.167 -273.999 138.5c-100.667 75.333 -177.167 166.833 -229.5 274.5s-78.5 227.167 -78.5 358.5c0 136 28.667 263 86 381s140.666 222.333 249.999 313
c87.333 73.333 184.333 128.5 291 165.5s221.334 55.5 344.001 55.5c231.333 0 415.833 -62.333 553.5 -187s206.5 -291 206.5 -499c0 -104.667 -19.333 -203.667 -58 -297s-93 -172 -163 -236c-38 -34.667 -79.167 -61.334 -123.5 -80.001s-89.166 -28 -134.499 -28
c-64.667 0 -114.334 17.5 -149.001 52.5s-54 87.833 -58 158.5zM1098 964.999c-36 0 -68.999 -10.332 -98.999 -30.999s-60.667 -54 -92 -100c-48 -72 -86.167 -150 -114.5 -234s-42.5 -159 -42.5 -225c0 -62 13.5 -111 40.5 -147s63.167 -54 108.5 -54
c44 0 86 14.833 126 44.5s78.667 74.167 116 133.5c38 62.667 68.333 130.167 91 202.5s34 138.166 34 197.499c0 62 -15.833 113 -47.5 153s-71.834 60 -120.501 60z" />
    <glyph glyph-name="A" unicode="A" horiz-adv-x="1366" 
d="M387 606h451l-224 699zM0 0l-0.00195312 71.9971c48.667 2.66699 86.167 16.5 112.5 41.5s51.5 73.833 75.5 146.5l390 1198l161 53l435 -1296c9.33301 -29.333 19.833 -53.666 31.5 -72.999s24.834 -34.666 39.501 -45.999c10 -7.33301 23 -12.833 39 -16.5
s40 -6.16699 72 -7.5v-72h-543v72h14c57.333 0 97.666 7 120.999 21s35 37.667 35 71c0 6 -1.66699 15.333 -5 28s-7.66602 27.334 -12.999 44.001l-93 276h-516l-69 -229c-4 -12 -7.16699 -25 -9.5 -39s-3.5 -28.333 -3.5 -43c0 -44 11.333 -76.5 34 -97.5
s57.334 -31.5 104.001 -31.5h20v-72h-432z" />
    <glyph glyph-name="B" unicode="B" horiz-adv-x="1374" 
d="M63 0v71.998h29c66.667 0 110.667 11 132 33s32 86 32 192v12v899c0 88.667 -9.83301 143 -29.5 163s-60.5 30 -122.5 30h-41v74h519c108 0 191.167 -3.66699 249.5 -11s107.5 -19.666 147.5 -36.999c71.333 -30 125.333 -69.333 162 -118s55 -104.667 55 -168
c0 -75.333 -28 -141.666 -84 -198.999s-138.667 -104.333 -248 -141c132 -29.333 233.333 -78.666 304 -147.999s106 -154 106 -254c0 -128.667 -50.667 -227.334 -152 -296.001s-247.333 -103 -438 -103h-621zM455 826.998l190.001 0.000976562
c105.333 0 188 27.167 248 81.5s90 129.166 90 224.499c0 98 -25.5 169.5 -76.5 214.5s-132.5 67.5 -244.5 67.5c-80.667 0 -135.334 -10.5 -164.001 -31.5s-43 -61.5 -43 -121.5v-435zM455.001 753.999v-477.998c0 -90 11.833 -145.833 35.5 -167.5
s77.167 -32.5 160.5 -32.5c135.333 0 236.5 26.667 303.5 80s100.5 133.666 100.5 240.999c0 117.333 -32.667 206.166 -98 266.499s-161 90.5 -287 90.5h-215z" />
    <glyph glyph-name="C" unicode="C" horiz-adv-x="1366" 
d="M1223 434l59.0029 -43.0029c-59.333 -142 -135.166 -248.167 -227.499 -318.5s-202.166 -105.5 -329.499 -105.5c-188.667 0 -340.334 67.333 -455.001 202s-172 313.334 -172 536.001c0 108 16.667 212.167 50 312.5s81.666 191.833 144.999 274.5
c52 68 113.333 119.833 184 155.5s145.667 53.5 225 53.5c31.333 0 66.166 -3.66699 104.499 -11s82.166 -18.666 131.499 -33.999l170 45l141 -366l-53 -33c-89.333 113.333 -171.5 195.833 -246.5 247.5s-149.167 77.5 -222.5 77.5
c-126.667 0 -229.334 -57.667 -308.001 -173s-118 -268.333 -118 -459c0 -206 44.833 -371.167 134.5 -495.5s207.167 -186.5 352.5 -186.5c92.667 0 174.5 26.333 245.5 79s134.167 133.334 189.5 242.001z" />
    <glyph glyph-name="D" unicode="D" horiz-adv-x="1489" 
d="M455 274c0 -85.333 12.168 -140 36.501 -164s72.166 -36 143.499 -36c182 0 315.5 52.667 400.5 158s127.5 270.333 127.5 495c0 239.333 -40.333 412.833 -121 520.5s-211 161.5 -391 161.5c-80 0 -132.667 -13.5 -158 -40.5s-38 -84.5 -38 -172.5v-922zM63.001 0
l0.000976562 72.001h33c65.333 0 108.333 11.167 129 33.5s31 78.5 31 168.5v932c0 90 -10 145 -30 165s-62 30 -126 30h-37v74h437c154.667 0 266.667 -5.5 336 -16.5s130.666 -29.5 183.999 -55.5c118.667 -58 210.5 -145 275.5 -261s97.5 -251.667 97.5 -407
c0 -118.667 -22 -228.167 -66 -328.5s-106.667 -183.833 -188 -250.5c-69.333 -56.667 -147.833 -96.834 -235.5 -120.501s-219.5 -35.5 -395.5 -35.5h-445z" />
    <glyph glyph-name="E" unicode="E" horiz-adv-x="1366" 
d="M66 0v72h34c65.333 0 108.333 11 129 33s31 73 31 153v961c0 82 -10.167 132.833 -30.5 152.5s-65.5 29.5 -135.5 29.5h-28v74h1028l145 -347l-57 -22c-90 116.667 -172 196.667 -246 240s-163.333 65 -268 65c-84.667 0 -140.667 -11.167 -168 -33.5
s-41 -67.833 -41 -136.5v-434h102c94 0 163.667 18.667 209 56s74.666 99.333 87.999 186h70v-570h-70c-11.333 90 -39.833 154.5 -85.5 193.5s-116.167 58.5 -211.5 58.5h-102v-506c0 -56 12.333 -94.5 37 -115.5s69 -31.5 133 -31.5c126.667 0 238.834 26.5 336.501 79.5
s186.167 135.833 265.5 248.5l59 -21l-141 -385h-1083z" />
    <glyph glyph-name="F" unicode="F" horiz-adv-x="1251" 
d="M66 0v72c80 0 132 10.167 156 30.5s36 70.833 36 151.5v963c0 84 -10 135.667 -30 155s-64.667 29 -134 29h-28v74h1028l145 -338l-57 -23c-90 117.333 -172 197.5 -246 240.5s-163.333 64.5 -268 64.5c-84 0 -139.833 -11.333 -167.5 -34s-41.5 -68.667 -41.5 -138v-440
h98c95.333 0 165.833 18.333 211.5 55s75.5 99 89.5 187h70v-570h-70c-10 89.333 -38.5 153.666 -85.5 192.999s-118.833 59 -215.5 59h-98v-506c0 -60 12.333 -99.667 37 -119s81.667 -30.666 171 -33.999l1 -72h-602z" />
    <glyph glyph-name="G" unicode="G" horiz-adv-x="1479" 
d="M858 664l575.999 -0.00195312v-76c-72.667 -5.33301 -119.167 -16.666 -139.5 -33.999s-30.5 -66.666 -30.5 -147.999v-355h-35c-72 0 -150.333 -14.667 -235 -44c-20 -6.66699 -33.667 -11 -41 -13c-36.667 -10 -71.834 -17.333 -105.501 -22s-68.5 -7 -104.5 -7
c-89.333 0 -169.166 14.5 -239.499 43.5s-135.166 73.833 -194.499 134.5c-68.667 70.667 -121 155 -157 253s-54 205 -54 321c0 231.333 60.667 420.166 182 566.499s276.333 219.5 465 219.5c34 0 70.5 -3.16699 109.5 -9.5s79.833 -16.166 122.5 -29.499l168 45l143 -370
l-55 -33c-88.667 114 -170.667 197.167 -246 249.5s-151 78.5 -227 78.5c-140 0 -248.833 -59.667 -326.5 -179s-116.5 -287.666 -116.5 -504.999c0 -228.667 39 -404.334 117 -527.001s189.333 -184 334 -184c91.333 0 163.333 26.333 216 79s79 124.667 79 216v84
c0 68.667 -13.5 114.167 -40.5 136.5s-81.833 33.5 -164.5 33.5v76z" />
    <glyph glyph-name="H" unicode="H" horiz-adv-x="1561" 
d="M63 0l-0.00195312 71.999h31c64.667 0 108.167 11.667 130.5 35s33.5 71 33.5 143v973c0 76.667 -10.167 125.5 -30.5 146.5s-62.833 31.5 -127.5 31.5h-37v74h570v-72h-12c-66.667 0 -110.667 -11 -132 -33s-32 -68.333 -32 -139v-430h643v430
c0 74 -10.667 121.167 -32 141.5s-68.666 30.5 -141.999 30.5v72h569v-74c-6 0 -13.667 0.333008 -23 1s-16 1 -20 1c-62 0 -103.167 -11.5 -123.5 -34.5s-30.5 -74.5 -30.5 -154.5v-966c0 -73.333 11.333 -121 34 -143s68.667 -33 138 -33h25v-72h-569v70
c72.667 0 119.834 10.333 141.501 31s32.5 68.334 32.5 143.001v473h-643v-473c0 -72.667 10 -119.5 30 -140.5s61 -31.5 123 -31.5h23v-72h-570z" />
    <glyph glyph-name="I" unicode="I" horiz-adv-x="682" 
d="M635 1475l0.000976562 -74h-39c-65.333 0 -108 -10.833 -128 -32.5s-30 -72.167 -30 -151.5v-955c0 -80.667 10.667 -132.5 32 -155.5s64.666 -34.5 129.999 -34.5h35v-72h-588v72h25c68 0 113 10.5 135 31.5s33 71.167 33 150.5v963c0 83.333 -10.333 134.833 -31 154.5
s-65 29.5 -133 29.5h-29v74h588z" />
    <glyph glyph-name="J" unicode="J" horiz-adv-x="707" 
d="M668 1475l-0.00195312 -73.999h-39c-64.667 0 -106.834 -10.667 -126.501 -32s-29.5 -71.333 -29.5 -150v-1012c0 -175.333 -35.833 -313.333 -107.5 -414s-168.167 -151 -289.5 -151c-60.667 0 -111 15.167 -151 45.5s-60 68.166 -60 113.499
c0 34.667 11.333 63.5 34 86.5s51 34.5 85 34.5c19.333 0 38.833 -5.66699 58.5 -17s36.834 -26.666 51.501 -45.999c5.33301 -7.33301 12.333 -18 21 -32c24 -38.667 47 -58 69 -58c30.667 0 53.334 14.667 68.001 44s22 74.666 22 135.999v1272
c0 80 -10.167 130 -30.5 150s-65.166 30 -134.499 30h-29v74h588z" />
    <glyph glyph-name="K" unicode="K" horiz-adv-x="1479" 
d="M66 0l-0.000976562 72.002h36c64 0 106.333 10.833 127 32.5s31 69.5 31 143.5v975c0 79.333 -10.333 128.833 -31 148.5s-65.667 29.5 -135 29.5h-28v74h569v-72c-73.333 0 -121 -10 -143 -30s-33 -67.333 -33 -142v-531l510 529c24.667 25.333 41.667 45.833 51 61.5
s14 31.167 14 46.5c0 22 -11 38.167 -33 48.5s-58 16.166 -108 17.499v72h485v-78c-95.333 -11.333 -193.666 -68.333 -294.999 -171l-20 -20l-281 -278l447 -697c36 -56 71.333 -95.833 106 -119.5s75.667 -36.834 123 -39.501v-72h-565v72c56 0 96.333 5 121 15
s37 26 37 48c0 10 -3 22 -9 36s-16 32 -30 54l-367 561l-186 -186v-356c0 -74 9.33301 -121.167 28 -141.5s57 -30.5 115 -30.5h33v-72h-569z" />
    <glyph glyph-name="L" unicode="L" horiz-adv-x="1251" 
d="M66 0l-0.000976562 71.999h36c63.333 0 105.5 10.833 126.5 32.5s31.5 68.167 31.5 139.5v975c0 82 -10.167 132.833 -30.5 152.5s-65.5 29.5 -135.5 29.5h-28v74h585v-74h-28c-69.333 0 -114 -9.83301 -134 -29.5s-30 -70.5 -30 -152.5v-994
c0 -55.333 11.833 -93.666 35.5 -114.999s65.834 -32 126.501 -32c108 0 209.833 27.667 305.5 83s181.5 137 257.5 245l57 -21l-139 -385h-1036z" />
    <glyph glyph-name="M" unicode="M" horiz-adv-x="1817" 
d="M1368 1376l-496 -1376h-55l-504 1360v-1018c0 -91.333 15 -156.666 45 -195.999s79.667 -61.333 149 -66l1 -80h-479v80c70.667 5.33301 120.667 27.5 150 66.5s44 104.167 44 195.5v856c0 94.667 -10 152.167 -30 172.5s-61 30.5 -123 30.5h-41v74h422l438 -1176
l430 1176h440v-74h-37c-64.667 0 -106.667 -10.833 -126 -32.5s-29 -75.167 -29 -160.5v-956c0 -76 10 -125 30 -147s61.667 -33 125 -33h37v-72h-583v72h34c64.667 0 107.167 10.667 127.5 32s30.5 70.666 30.5 147.999v1124z" />
    <glyph glyph-name="N" unicode="N" horiz-adv-x="1479" 
d="M362 1475l803.001 -1147v805c0 95.333 -16.167 162.5 -48.5 201.5s-87.166 59.167 -164.499 60.5v80h516v-80c-76.667 -1.33301 -131.334 -21.5 -164.001 -60.5s-49 -106.167 -49 -201.5v-1166h-71l-871 1254v-879c0 -95.333 16.167 -162.5 48.5 -201.5
s87.166 -59.167 164.499 -60.5v-80h-516l1 80c77.333 1.33301 132 21.5 164 60.5s48 106.167 48 201.5v973c-24 26.667 -53.167 47 -87.5 61s-75.833 22.333 -124.5 25l-1 74h352z" />
    <glyph glyph-name="O" unicode="O" horiz-adv-x="1473" 
d="M319 721c0 -215.333 36.333 -383.167 109 -503.5s173 -180.5 301 -180.5c133.333 0 237.333 61.5 312 184.5s112 294.833 112 515.5c0 216.667 -36.667 387 -110 511s-174 186 -302 186c-134.667 0 -238.667 -61.667 -312 -185s-110 -299.333 -110 -528zM98 724.999
c0 120 18.332 229.667 54.999 329s90.667 186.333 162 261c58 60.667 123.333 107.167 196 139.5s148 48.5 226 48.5c80 0 156.5 -17.167 229.5 -51.5s142.167 -85.5 207.5 -153.5c62.667 -66 111.334 -149 146.001 -249s52 -208 52 -324
c0 -117.333 -19 -224.833 -57 -322.5s-94.667 -184.167 -170 -259.5c-56.667 -57.333 -119.334 -101 -188.001 -131s-140.667 -45 -216 -45c-78 0 -150.167 13.167 -216.5 39.5s-128.5 66.5 -186.5 120.5c-81.333 75.333 -141.666 161.833 -180.999 259.5
s-59 210.5 -59 338.5z" />
    <glyph glyph-name="P" unicode="P" horiz-adv-x="1251" 
d="M66 0v71.999h36c64 0 106.333 10.667 127 32s31 69.333 31 144v973c0 80 -10.333 130 -31 150s-65.667 30 -135 30h-28v74h585c176.667 0 313.667 -36.167 411 -108.5s146 -173.5 146 -303.5c0 -123.333 -44.833 -218.333 -134.5 -285s-217.5 -100 -383.5 -100h-231v-426
c0 -77.333 10.167 -126.666 30.5 -147.999s62.5 -32 126.5 -32h37v-72h-587zM459 755.999h221.001c98.667 0 175.167 27.333 229.5 82s81.5 131.667 81.5 231c0 110.667 -26.333 194 -79 250s-131.334 84 -236.001 84c-85.333 0 -142.833 -11 -172.5 -33
s-44.5 -71.667 -44.5 -149v-465z" />
    <glyph glyph-name="Q" unicode="Q" horiz-adv-x="1473" 
d="M993 170c54.667 58 95 133.334 121 226.001s39 206.334 39 341.001c0 216.667 -36.667 387 -110 511s-174 186 -302 186c-134.667 0 -238.667 -61.667 -312 -185s-110 -299.333 -110 -528c0 -110 7.66699 -204.167 23 -282.5s37.333 -137.833 66 -178.5
c8.66699 51.333 31.5 92.166 68.5 122.499s81.5 45.5 133.5 45.5c66.667 0 130.167 -20.333 190.5 -61s124.5 -106.334 192.5 -197.001zM1376 -75.999l33.002 -39c-36.667 -46 -76.834 -80.667 -120.501 -104s-89.5 -35 -137.5 -35c-61.333 0 -113.333 21 -156 63
s-75.334 104.333 -98.001 187c-21.333 -10 -44.666 -17.333 -69.999 -22s-54 -7 -86 -7c-76.667 0 -148.334 13.167 -215.001 39.5s-129.334 66.5 -188.001 120.5c-81.333 75.333 -141.666 161.833 -180.999 259.5s-59 210.5 -59 338.5c0 120 18.333 229.333 55 328
s91.334 186 164.001 262c58.667 61.333 123.834 108 195.501 140s146.5 48 224.5 48c80 0 156.5 -17.167 229.5 -51.5s142.167 -85.5 207.5 -153.5c62.667 -66 111.334 -149 146.001 -249s52 -208 52 -324c0 -139.333 -26.833 -265 -80.5 -377
s-129.834 -201.333 -228.501 -268c37.333 -67.333 72.666 -116.333 105.999 -147s68.333 -46 105 -46c15.333 0 31.666 3.16699 48.999 9.5s35 15.5 53 27.5zM872.002 70.001c-17.333 82.667 -50.333 149 -99 199s-103.667 75 -165 75c-39.333 0 -72 -12 -98 -36
s-39 -53.667 -39 -89c0 -49.333 25.167 -92.333 75.5 -129s112.5 -55 186.5 -55c28 0 53.333 2.83301 76 8.5s43.667 14.5 63 26.5z" />
    <glyph glyph-name="R" unicode="R" horiz-adv-x="1366" 
d="M1004 0l-394 717.001h-151v-473c0 -71.333 10.5 -117.833 31.5 -139.5s63.5 -32.5 127.5 -32.5h35v-72h-587v72h34c65.333 0 108.333 11.167 129 33.5s31 75.166 31 158.499v965c0 74 -10.167 121.167 -30.5 141.5s-64.833 30.5 -133.5 30.5h-30v74h585
c182.667 0 321.167 -33.167 415.5 -99.5s141.5 -163.833 141.5 -292.5c0 -97.333 -32.5 -175 -97.5 -233s-165.5 -98.333 -301.5 -121l270 -475c43.333 -76 82.5 -125.333 117.5 -148s81.833 -34 140.5 -34h15v-72h-348zM459 793.001l163.999 -0.000976562
c128.667 0 221.834 23.5 279.501 70.5s86.5 122.5 86.5 226.5c0 108.667 -26.833 188.667 -80.5 240s-138.167 77 -253.5 77c-81.333 0 -134.333 -10.667 -159 -32s-37 -68.666 -37 -141.999v-440z" />
    <glyph glyph-name="S" unicode="S" horiz-adv-x="1139" 
d="M184 -29l-147 394.001l69 26c82 -110 168.167 -194.833 258.5 -254.5s177.833 -89.5 262.5 -89.5c80 0 147 27.167 201 81.5s81 122.166 81 203.499c0 82.667 -24.833 147.834 -74.5 195.501s-151.834 94.5 -306.501 140.5l-43 12
c-123.333 33.333 -212.666 77.666 -267.999 132.999c-40 40 -70.5 85.167 -91.5 135.5s-31.5 103.5 -31.5 159.5c0 113.333 37.333 207.5 112 282.5s168.334 112.5 281.001 112.5c44 0 92.667 -8.16699 146 -24.5s85.333 -24.5 96 -24.5c18.667 0 39.667 3.66699 63 11
s49.333 18 78 32l138 -373l-58 -32c-80.667 116 -159 202.333 -235 259s-151.333 85 -226 85c-72.667 0 -132.667 -24.833 -180 -74.5s-71 -112.167 -71 -187.5c0 -42 7.66699 -79.333 23 -112s39.666 -63 72.999 -91c44.667 -37.333 136 -74.333 274 -111l76 -20
c124 -34.667 216.833 -88.5 278.5 -161.5s92.5 -164.833 92.5 -275.5c0 -122 -39.333 -225.167 -118 -309.5s-174.667 -126.5 -288 -126.5c-66 0 -133.333 12 -202 36s-105 36 -109 36c-15.333 0 -34.833 -5.16699 -58.5 -15.5s-55.5 -27.833 -95.5 -52.5z" />
    <glyph glyph-name="T" unicode="T" horiz-adv-x="1366" 
d="M1231 1475l121 -355l-64 -24c-103.333 132 -183 217.167 -239 255.5s-117.667 57.5 -185 57.5c-30.667 0 -52 -5.33301 -64 -16s-18 -30.667 -18 -60v-1083c0 -74 10.5 -122.167 31.5 -144.5s63.833 -33.5 128.5 -33.5h37v-72h-590v72h37c64 0 106.333 10.833 127 32.5
s31 69.5 31 143.5v1085c0 29.333 -6 49.333 -18 60s-33.333 16 -64 16c-67.333 0 -129 -19.167 -185 -57.5s-135.667 -123.5 -239 -255.5l-64 24l121 355h1096z" />
    <glyph glyph-name="U" unicode="U" horiz-adv-x="1479" 
d="M975 1395l0.000976562 77.999h477v-78c-70 -4 -119.5 -25.5 -148.5 -64.5s-43.5 -104.833 -43.5 -197.5v-584c0 -199.333 -41.5 -346.166 -124.5 -440.499s-211.5 -141.5 -385.5 -141.5c-172 0 -301.833 44.167 -389.5 132.5s-131.5 219.833 -131.5 394.5v731
c0 72 -10.667 119.333 -32 142s-64.333 34 -129 34h-35v72h590v-72h-37c-64.667 0 -107.167 -10.833 -127.5 -32.5s-30.5 -71.5 -30.5 -149.5v-758c0 -135.333 30 -236.5 90 -303.5s151 -100.5 273 -100.5c126.667 0 221 38.167 283 114.5s93 191.833 93 346.5v615
c0 93.333 -14.333 159.333 -43 198s-78.334 60 -149.001 64z" />
    <glyph glyph-name="V" unicode="V" horiz-adv-x="1366" 
d="M657 -51l-420.999 1225l-4 11c-48 136 -121.333 208.667 -220 218v72h545v-72c-62.667 -3.33301 -106.334 -10.666 -131.001 -21.999s-37 -28.666 -37 -51.999c0 -7.33301 2.16699 -20 6.5 -38s10.5 -38.333 18.5 -61l325 -937l305 907c6 18 10.333 34.5 13 49.5
s4 29.167 4 42.5c0 36.667 -12.167 63.5 -36.5 80.5s-65.5 27.167 -123.5 30.5v72h442v-72c-49.333 -4 -87.333 -17.833 -114 -41.5s-50.667 -66.5 -72 -128.5l-444 -1284h-56z" />
    <glyph glyph-name="W" unicode="W" horiz-adv-x="1821" 
d="M594 -51l-53 -0.00195312l-369 1302c-18.667 66.667 -37.834 108.667 -57.501 126s-50.167 26 -91.5 26h-9v72h512v-72h-30c-48 0 -84 -4.66699 -108 -14s-36 -23 -36 -41c0 -14 1.16699 -28.167 3.5 -42.5s6.16602 -29.833 11.499 -46.5l182 -655
c14 -50 26.333 -100.667 37 -152s20 -104.333 28 -159c9.33301 46.667 18.5 90 27.5 130s17.833 75 26.5 105l200 674l-20 84c-10.667 42 -30.334 71.167 -59.001 87.5s-78 26.166 -148 29.499v72h561v-72c-65.333 -1.33301 -109.666 -7.16602 -132.999 -17.499
s-35 -28.5 -35 -54.5c0 -19.333 6.33301 -48.666 19 -87.999l2 -6l184 -666c13.333 -46.667 24.833 -93 34.5 -139s17.834 -92.333 24.501 -139c8 44.667 16.667 87.167 26 127.5s19.333 79.166 30 116.499l194 675c6 22.667 10.333 40.834 13 54.501s4 24.834 4 33.501
c0 33.333 -12.333 57.666 -37 72.999s-67 25.333 -127 30v72h409v-72c-41.333 -8 -73.166 -24.167 -95.499 -48.5s-43.5 -70.166 -63.5 -137.499l-373 -1268h-55l-308 1098z" />
    <glyph glyph-name="X" unicode="X" horiz-adv-x="1366" 
d="M18 0l1.00195 72.0049c60 1.33301 111.167 16.166 153.5 44.499s94.833 92.5 157.5 192.5l256 404l-305 512c-42 70 -80.833 116.5 -116.5 139.5s-82.834 35.833 -141.501 38.5v72h567l-1 -72c-46.667 -1.33301 -82.167 -7.5 -106.5 -18.5s-36.5 -26.833 -36.5 -47.5
c0 -16.667 11 -42.334 33 -77.001l10 -16l218 -353l219 344c10 16.667 17.833 33.167 23.5 49.5s8.5 29.833 8.5 40.5c0 23.333 -12.5 41.666 -37.5 54.999s-60.833 21 -107.5 23v72h479v-72c-61.333 -8 -110.5 -23.333 -147.5 -46s-71.167 -58.667 -102.5 -108l-280 -444
l330 -557c23.333 -39.333 45.333 -71 66 -95s41 -41.667 61 -53c15.333 -8.66699 33.166 -15.334 53.499 -20.001s43.833 -7.33398 70.5 -8.00098v-72h-575v72h25c50 0 84.667 4.33301 104 13s29 24 29 46c0 6.66699 -2.83301 16.334 -8.5 29.001s-16.5 33 -32.5 61
l-244 406l-235 -367l-11 -16c-22 -32.667 -33 -61.334 -33 -86.001c0 -27.333 14 -48.5 42 -63.5s66.667 -22.5 116 -22.5h8v-72h-510z" />
    <glyph glyph-name="Y" unicode="Y" horiz-adv-x="1251" 
d="M522 602l-355.999 702.999c-20 38 -41 63.333 -63 76s-55.667 20 -101 22l2 72h508v-72h-18c-47.333 0 -81.833 -4.16699 -103.5 -12.5s-32.5 -21.166 -32.5 -38.499c0 -7.33301 2 -16.333 6 -27s12.333 -27.667 25 -51l289 -553l254 506c8 16 14 31.167 18 45.5
s6 27.833 6 40.5c0 30 -12.667 52.5 -38 67.5s-64.333 22.5 -117 22.5l2 72h426v-72c-74.667 -8.66699 -134.334 -56 -179.001 -142c-4 -8.66699 -7 -15 -9 -19l-320 -613v-385c0 -70 10.5 -116.167 31.5 -138.5s63.833 -33.5 128.5 -33.5h37v-72h-588v72h37
c62.667 0 104.167 10.5 124.5 31.5s30.5 68.5 30.5 142.5v356z" />
    <glyph glyph-name="Z" unicode="Z" horiz-adv-x="1139" 
d="M39 0l-28.998 42.999l838 1358h-221c-92 0 -175.167 -21.667 -249.5 -65s-160.5 -122.666 -258.5 -237.999l-56 30l136 347h856l28 -50l-825 -1345h236c105.333 0 198.166 22.5 278.499 67.5s173.166 128.833 278.499 251.5l53 -30l-139 -369h-926z" />
    <glyph glyph-name="bracketleft" unicode="[" horiz-adv-x="682" 
d="M631 -276h-473v1751h473v-76h-309v-1600h309v-75z" />
    <glyph glyph-name="backslash" unicode="\" horiz-adv-x="569" 
d="M580 -190l-639 1693h98l637 -1693h-96z" />
    <glyph glyph-name="bracketright" unicode="]" horiz-adv-x="682" 
d="M51 1475h473v-1754h-473v76h309v1602h-309v76z" />
    <glyph glyph-name="asciicircum" unicode="^" horiz-adv-x="2048" 
d="M934 1462h178l520 -565h-92l-518 436l-520 -436h-90z" />
    <glyph glyph-name="underscore" unicode="_" 
d="M0 -365h1024v-118h-1024v118z" />
    <glyph glyph-name="grave" unicode="`" 
d="M678 1073l-73.999 0.000976562l-301 174c-32 19.333 -54 36 -66 50s-18 29.333 -18 46c0 20.667 7.5 38.167 22.5 52.5s32.833 21.5 53.5 21.5c16.667 0 34.167 -4.83301 52.5 -14.5s36.166 -23.834 53.499 -42.501z" />
    <glyph glyph-name="a" unicode="a" horiz-adv-x="909" 
d="M588 172l0.000976562 354c-116.667 -33.333 -206.334 -77.666 -269.001 -132.999s-94 -117.333 -94 -186c0 -44 13.333 -79.333 40 -106s62.667 -40 108 -40c28 0 59.5 9.16699 94.5 27.5s75.167 46.166 120.5 83.499zM848.001 106l40.999 -40
c-22.667 -32 -47.667 -55.833 -75 -71.5s-57.666 -23.5 -90.999 -23.5c-36.667 0 -65.667 10.167 -87 30.5s-36 51.833 -44 94.5c-41.333 -40 -87.5 -70.5 -138.5 -91.5s-105.167 -31.5 -162.5 -31.5c-74.667 0 -135 21.167 -181 63.5s-69 97.833 -69 166.5
c0 86.667 44.5 162.167 133.5 226.5s226.833 120.5 413.5 168.5v109c0 72 -12.667 125.5 -38 160.5s-64 52.5 -116 52.5c-38 0 -67.167 -7.16699 -87.5 -21.5s-40.166 -45.5 -59.499 -93.5c-18.667 -44.667 -36 -73.334 -52 -86.001s-37.667 -19 -65 -19
c-28 0 -51 8.5 -69 25.5s-27 38.833 -27 65.5c0 52.667 34.667 98.834 104 138.501s154.666 59.5 255.999 59.5c116 0 196.833 -22 242.5 -66s68.5 -122.333 68.5 -235v-547c0 -28.667 2.66699 -48 8 -58s14.333 -15 27 -15c8 0 17 2.83301 27 8.5s23.667 15.5 41 29.5z" />
    <glyph glyph-name="b" unicode="b" horiz-adv-x="1014" 
d="M283 92l-98.999 -121h-45v1200c0 64 -9.33301 106.5 -28 127.5s-55.667 34.167 -111 39.5v53l291 98v-625c43.333 41.333 86.666 71.833 129.999 91.5s88.666 29.5 135.999 29.5c108.667 0 200.334 -48 275.001 -144s112 -215.333 112 -358
c0 -148 -36.5 -271 -109.5 -369s-164.167 -147 -273.5 -147c-44.667 0 -89.667 10.167 -135 30.5s-93 51.833 -143 94.5zM295.001 784v-622c37.333 -33.333 73.333 -58.5 108 -75.5s67.667 -25.5 99 -25.5c81.333 0 145 35.833 191 107.5s69 171.167 69 298.5
c0 136 -21.833 241 -65.5 315s-105.167 111 -184.5 111c-36 0 -71.5 -8.66699 -106.5 -26s-71.833 -45 -110.5 -83z" />
    <glyph glyph-name="c" unicode="c" horiz-adv-x="909" 
d="M825 256l58.002 -38.998c-54.667 -82 -115.167 -143.833 -181.5 -185.5s-138.5 -62.5 -216.5 -62.5c-61.333 0 -114.333 9.16699 -159 27.5s-87 48.166 -127 89.499c-48 48.667 -84.667 104 -110 166s-38 126.667 -38 194c0 66 10.667 130 32 192s52.333 119 93 171
c49.333 62.667 102.833 109.667 160.5 141s119.5 47 185.5 47c86.667 0 162.334 -20.833 227.001 -62.5s97 -88.167 97 -139.5c0 -28 -8.33301 -50.5 -25 -67.5s-38.334 -25.5 -65.001 -25.5c-26 0 -47.333 6.33301 -64 19s-33.667 37.334 -51 74.001
c-26.667 54 -51.834 89 -75.501 105s-54.5 24 -92.5 24c-69.333 0 -125.833 -37.333 -169.5 -112s-65.5 -173.334 -65.5 -296.001c0 -138.667 25.833 -246.667 77.5 -324s123.167 -116 214.5 -116c52.667 0 103.167 14.667 151.5 44s96.166 74.666 143.499 135.999z" />
    <glyph glyph-name="d" unicode="d" 
d="M989 73l0.00390625 -72.999h-94c-18.667 0 -40.334 -0.666992 -65.001 -2s-58.334 -4 -101.001 -8l-14 116c-37.333 -44 -78.833 -77.5 -124.5 -100.5s-93.834 -34.5 -144.501 -34.5c-104.667 0 -195 49.333 -271 148s-114 218.667 -114 360
c0 148 36.667 271.333 110 370s163.666 148 270.999 148c46.667 0 92.667 -10 138 -30s90.333 -50 135 -90v294c0 71.333 -10 116.166 -30 134.499s-62 28.833 -126 31.5v54l311 98v-1256c0 -68.667 8 -111.5 24 -128.5s47.667 -27.5 95 -31.5zM715.004 182.001
l0.00195312 610.999c-31.333 34 -65.5 60.5 -102.5 79.5s-72.5 28.5 -106.5 28.5c-81.333 0 -145 -35.667 -191 -107s-69 -170.666 -69 -297.999c0 -136 21.5 -240.667 64.5 -314s104.167 -110 183.5 -110c37.333 0 74.166 9 110.499 27s73.166 45.667 110.499 83z" />
    <glyph glyph-name="e" unicode="e" 
d="M758 615c-2.66699 99.333 -24.5 176 -65.5 230s-98.5 81 -172.5 81c-65.333 0 -119.5 -27 -162.5 -81s-71.5 -131 -85.5 -231zM918 250l46.998 -49c-55.333 -76 -118.166 -133 -188.499 -171s-147.5 -57 -231.5 -57c-140 0 -254.5 46.833 -343.5 140.5
s-133.5 212.834 -133.5 357.501c0 60.667 11.5 122 34.5 184s55.167 118.667 96.5 170c46 58 95.667 100.5 149 127.5s113.333 40.5 180 40.5c120 0 218 -41.833 294 -125.5s116 -193.834 120 -330.501l-676 -1c-0.666992 -6.66699 -1.16699 -13.667 -1.5 -21
s-0.5 -18 -0.5 -32c0 -123.333 30.167 -221.333 90.5 -294s141.5 -109 243.5 -109c49.333 0 100.333 14 153 42s108.334 70.667 167.001 128z" />
    <glyph glyph-name="f" unicode="f" horiz-adv-x="569" 
d="M27 0l0.00390625 72c64 2 106.5 12.667 127.5 32s31.5 67.333 31.5 144v631h-161v98h161c5.33301 160 39.666 286.333 102.999 379s146.666 139 249.999 139c39.333 0 69.666 -8.33301 90.999 -25s32 -41 32 -73c0 -29.333 -7.83301 -52 -23.5 -68s-38.167 -24 -67.5 -24
c-30.667 0 -61.834 11.833 -93.501 35.5s-52.167 35.5 -61.5 35.5c-26.667 0 -46 -23.333 -58 -70s-18 -121.667 -18 -225v-104h217v-98h-217v-629c0 -84.667 10.167 -135.5 30.5 -152.5s63.5 -25.5 129.5 -25.5h28v-72h-501z" />
    <glyph glyph-name="g" unicode="g" 
d="M426 6c-77.333 -22 -136.668 -49.168 -178.001 -81.501s-62 -67.833 -62 -106.5c0 -47.333 26.5 -84.166 79.5 -110.499s126.833 -39.5 221.5 -39.5c106.667 0 188.334 12.667 245.001 38s85 62 85 110c0 38.667 -16.667 70.167 -50 94.5s-87 43.833 -161 58.5z
M282.998 622.999c0 -90 17.334 -159.335 52.001 -208.002s84 -73 148 -73c69.333 0 122.166 23.833 158.499 71.5s54.5 116.834 54.5 207.501c0 88.667 -19.167 158.834 -57.5 210.501s-89.5 77.5 -153.5 77.5c-58 0 -106.167 -26.833 -144.5 -80.5
s-57.5 -122.167 -57.5 -205.5zM355.999 290.997c-34 -11.333 -55.834 -20.834 -65.501 -28.501s-14.5 -17.5 -14.5 -29.5c0 -15.333 8.33301 -28.166 25 -38.499s44 -19.166 82 -26.499l270 -55c104.667 -22 182.5 -53.833 233.5 -95.5s76.5 -93.834 76.5 -156.501
c0 -84.667 -42.167 -150.334 -126.5 -197.001s-203.5 -70 -357.5 -70c-134.667 0 -244.834 20 -330.501 60s-128.5 89.667 -128.5 149c0 48 26.667 92.5 80 133.5s124.333 71.167 213 90.5v14c-62 10.667 -110.5 28.167 -145.5 52.5s-52.5 51.833 -52.5 82.5
c0 24.667 11.333 47.5 34 68.5s68 48.167 136 81.5c-60 44 -103 89.333 -129 136s-39 101 -39 163c0 100.667 34.833 184.167 104.5 250.5s158.834 99.5 267.501 99.5c42 0 82.333 -6.16699 121 -18.5s78.334 -31.5 119.001 -57.5c37.333 31.333 70.166 53.833 98.499 67.5
s54.833 20.5 79.5 20.5c30 0 53.167 -8.33301 69.5 -25s24.5 -39.667 24.5 -69c0 -26 -6.16699 -46.167 -18.5 -60.5s-29.833 -21.5 -52.5 -21.5c-24 0 -47.167 9.5 -69.5 28.5s-34.166 28.5 -35.499 28.5c-2.66699 0 -7 -1.33301 -13 -4s-16 -8 -30 -16
c31.333 -36 53.833 -70.833 67.5 -104.5s20.5 -69.167 20.5 -106.5c0 -103.333 -35.833 -190.666 -107.5 -261.999s-159.167 -107 -262.5 -107c-21.333 0 -43.833 1.83301 -67.5 5.5s-49.167 9.5 -76.5 17.5z" />
    <glyph glyph-name="h" unicode="h" horiz-adv-x="1081" 
d="M49 0l0.000976562 70.999c54 4 90.333 15.667 109 35s28 66.666 28 141.999v923c0 66 -9.83301 109 -29.5 129s-60.167 32.667 -121.5 38v53l301 98v-660c67.333 58.667 125.5 100 174.5 124s97.167 36 144.5 36c88 0 152 -30.5 192 -91.5s60 -159.5 60 -295.5v-387
c0 -61.333 8.16699 -100.166 24.5 -116.499s51.166 -25.5 104.499 -27.5v-71h-420l1 72c53.333 3.33301 88.833 14.666 106.5 33.999s26.5 64 26.5 134v403c0 82 -12.5 141 -37.5 177s-65.167 54 -120.5 54c-36 0 -74.5 -10.167 -115.5 -30.5s-86.5 -51.5 -136.5 -93.5v-527
c0 -69.333 8 -111.666 24 -126.999s49 -23.666 99 -24.999v-71h-414z" />
    <glyph glyph-name="i" unicode="i" horiz-adv-x="537" 
d="M166 1403c0 30.667 10.5 56.334 31.5 77.001s47.167 31 78.5 31s57.666 -10.333 78.999 -31s32 -46.334 32 -77.001c0 -32 -10.667 -59.167 -32 -81.5s-47.666 -33.5 -78.999 -33.5s-57.5 11 -78.5 33s-31.5 49.333 -31.5 82zM356 985v-740.998
c0 -78 8.33301 -126 25 -144s49.334 -27.667 98.001 -29v-71h-422l1 72c53.333 3.33301 89.5 14.666 108.5 33.999s28.5 66.666 28.5 141.999v422c0 65.333 -9.83301 108.333 -29.5 129s-59.834 33 -120.501 37v53z" />
    <glyph glyph-name="j" unicode="j" horiz-adv-x="502" 
d="M154 1403c0 30.667 10.5 56.333 31.5 77s47.167 31 78.5 31s58 -10.5 80 -31.5s33 -46.5 33 -76.5c0 -31.333 -11 -58.333 -33 -81s-48.667 -34 -80 -34s-57.5 11 -78.5 33s-31.5 49.333 -31.5 82zM31 835.999v53l315 96v-969c0 -126 -28.833 -228.167 -86.5 -306.5
s-130.5 -117.5 -218.5 -117.5c-44.667 0 -80 10 -106 30s-39 46.333 -39 79c0 24.667 9 45.834 27 63.501s39.667 26.5 65 26.5c30.667 0 60 -15.333 88 -46s45 -46 51 -46c20 0 33.833 14 41.5 42s11.5 85.667 11.5 173v756c0 66.667 -9.66699 109.667 -29 129
s-59.333 31.666 -120 36.999z" />
    <glyph glyph-name="k" unicode="k" horiz-adv-x="1081" 
d="M469 72l0.00195312 -71.998h-426v71c54 3.33301 90.333 14.666 109 33.999s28 67 28 143v923c0 66 -9.83301 109 -29.5 129s-59.5 32.667 -119.5 38v53l315 98v-1018l236 238l10 10c65.333 65.333 98 109.666 98 132.999c0 16 -9 29 -27 39s-46.333 17.333 -85 22v64h417
v-63c-40.667 -2.66699 -88.334 -22.167 -143.001 -58.5s-113.334 -88.166 -176.001 -155.499l-88 -92l266 -420v0c32.667 -50 63.334 -82.667 92.001 -98c10.667 -5.33301 22.667 -9.33301 36 -12s30.666 -5 51.999 -7v-71h-430v72h19c26.667 0 47 4.16699 61 12.5
s21 20.5 21 36.5c0 9.33301 -2.66699 20.166 -8 32.499s-12.333 24.5 -21 36.5l-209 306l-121 -119v-146c0 -74 7.66699 -119 23 -135s46 -24 92 -24h8z" />
    <glyph glyph-name="l" unicode="l" horiz-adv-x="537" 
d="M57 0l1 72.002c53.333 3.33301 89.5 14.666 108.5 33.999s28.5 66.666 28.5 141.999v923c0 64 -10.167 106.5 -30.5 127.5s-60.833 34.167 -121.5 39.5v53l311 98v-1245c0 -77.333 8.5 -125 25.5 -143s49.5 -28 97.5 -30v-71h-420z" />
    <glyph glyph-name="m" unicode="m" horiz-adv-x="1651" 
d="M340 750l0.000976562 -523.002c0 -72 8.16699 -115.667 24.5 -131s49.166 -23.666 98.499 -24.999v-71h-414v71c54 4 90.333 15.667 109 35s28 66.666 28 141.999v434c0 65.333 -10 108.333 -30 129s-60.333 33 -121 37v53l301 96v-168
c66.667 58 124.834 99.167 174.501 123.5s97.834 36.5 144.501 36.5c55.333 0 102.666 -14 141.999 -42s68.666 -69.333 87.999 -124c77.333 62 141.333 105.167 192 129.5s99.334 36.5 146.001 36.5c87.333 0 151.166 -30.5 191.499 -91.5s60.5 -159.5 60.5 -295.5v-387
c0 -63.333 8.16699 -102.5 24.5 -117.5s50.833 -23.5 103.5 -25.5l1 -72h-420v71c54 4.66699 89.667 16.5 107 35.5s26 63.5 26 133.5v403c0 80.667 -12.5 139.334 -37.5 176.001s-65.167 55 -120.5 55c-37.333 0 -77 -10.333 -119 -31s-86.333 -51.667 -133 -93v-535
c0 -63.333 8.5 -102.666 25.5 -117.999s51.5 -24 103.5 -26v-71h-420l1 72c52.667 4 88 15.5 106 34.5s27 63.5 27 133.5v403c0 82 -12.5 141 -37.5 177s-65.167 54 -120.5 54c-36 0 -74.5 -10.167 -115.5 -30.5s-86.5 -51.5 -136.5 -93.5z" />
    <glyph glyph-name="n" unicode="n" horiz-adv-x="1081" 
d="M49 0l0.000976562 71.002c54 4 90.333 15.667 109 35s28 66.666 28 141.999v434c0 67.333 -10 110.666 -30 129.999s-60.333 31.333 -121 36v53l301 96v-168c67.333 58.667 125.5 100 174.5 124s97.167 36 144.5 36c88 0 152 -30.5 192 -91.5s60 -159.5 60 -295.5v-387
c0 -63.333 8.5 -102.833 25.5 -118.5s51.5 -24.167 103.5 -25.5v-71h-420l1 72c55.333 4.66699 91.333 15.5 108 32.5s25 53.167 25 108.5v430c0 82 -12.5 141 -37.5 177s-65.167 54 -120.5 54c-36 0 -74.5 -10.167 -115.5 -30.5s-86.5 -51.5 -136.5 -93.5v-500
c0 -84 8.16699 -134.5 24.5 -151.5s49.166 -26.167 98.499 -27.5v-71h-414z" />
    <glyph glyph-name="o" unicode="o" horiz-adv-x="1022" 
d="M518 924c-82.667 0 -149.333 -41.502 -200 -124.502s-76 -193.833 -76 -332.5c0 -133.333 24.167 -238.666 72.5 -315.999s113.5 -116 195.5 -116c80.667 0 144.5 41.333 191.5 124s70.5 196.334 70.5 341.001c0 134 -22.333 238.167 -67 312.5s-107 111.5 -187 111.5z
M61.001 480.998c0 146.667 43.499 268 130.499 364s196.5 144 328.5 144c124.667 0 229.334 -49.167 314.001 -147.5s127 -219.833 127 -364.5c0 -143.333 -44.5 -263.5 -133.5 -360.5s-198.833 -145.5 -329.5 -145.5c-124 0 -227.833 48.5 -311.5 145.5
s-125.5 218.5 -125.5 364.5z" />
    <glyph glyph-name="p" unicode="p" horiz-adv-x="1028" 
d="M457 -389l-429.999 0.00195312v74c49.333 4.66699 82.833 16.667 100.5 36s26.5 66 26.5 140v821c0 64 -9.33301 106.167 -28 126.5s-56.667 33.5 -114 39.5v53l293 96l-4 -133c47.333 42 92.666 72.667 135.999 92s88 29 134 29c110 0 202 -47.833 276 -143.5
s111 -215.167 111 -358.5c0 -146.667 -36.667 -269.334 -110 -368.001s-164.333 -148 -273 -148c-42 0 -83.833 8.5 -125.5 25.5s-88.5 44.833 -140.5 83.5v-217c0 -80.667 9 -129.834 27 -147.501s54.667 -26.5 110 -26.5h11v-74zM311.001 784.002l0.000976562 -622.001
c34.667 -32.667 69.5 -57.667 104.5 -75s68.5 -26 100.5 -26c81.333 0 144.666 35.667 189.999 107s68 171 68 299c0 136.667 -21.5 241.834 -64.5 315.501s-104.167 110.5 -183.5 110.5c-36 0 -71.5 -8.83301 -106.5 -26.5s-71.167 -45.167 -108.5 -82.5z" />
    <glyph glyph-name="q" unicode="q" horiz-adv-x="1014" 
d="M721 784c-38.667 38 -75.5 65.667 -110.5 83s-70.5 26 -106.5 26c-79.333 0 -140.833 -37 -184.5 -111s-65.5 -179 -65.5 -315c0 -127.333 23 -226.833 69 -298.5s109.667 -107.5 191 -107.5c31.333 0 64.333 8.5 99 25.5s70.667 42.167 108 75.5v622zM1003 -315
l0.999023 -74h-433v74h11c56 0 93.167 9.16699 111.5 27.5s27.5 64.166 27.5 137.499v226c-53.333 -39.333 -100.666 -67.666 -141.999 -84.999s-82.666 -26 -123.999 -26c-110 0 -201.333 49 -274 147s-109 221.667 -109 371c0 143.333 37 262.833 111 358.5
s166 143.5 276 143.5c46 0 90.667 -9.66699 134 -29s88.666 -50 135.999 -92l107 127l41 -10v-1120c0 -74 8.5 -120.5 25.5 -139.5s50.5 -31.167 100.5 -36.5z" />
    <glyph glyph-name="r" unicode="r" horiz-adv-x="797" 
d="M25 848v52.9971l311 96v-217c60.667 80.667 117 140.167 169 178.5s102.667 57.5 152 57.5c42 0 74 -9.5 96 -28.5s33 -46.5 33 -82.5c0 -27.333 -8.16699 -48.833 -24.5 -64.5s-38.833 -23.5 -67.5 -23.5c-20 0 -46.167 6.16699 -78.5 18.5s-55.166 18.5 -68.499 18.5
c-36 0 -70.333 -13.167 -103 -39.5s-67.334 -69.166 -104.001 -128.499v-440c0 -83.333 11.5 -133.166 34.5 -149.499s75.5 -24.5 157.5 -24.5h23v-72h-526v72c62 1.33301 103.667 11.833 125 31.5s32 67.834 32 144.501v434c0 65.333 -10.667 108.5 -32 129.5
s-64.333 33.167 -129 36.5z" />
    <glyph glyph-name="s" unicode="s" horiz-adv-x="909" 
d="M196 -28l-125.997 320.999l57 29c82 -102.667 151.167 -173.5 207.5 -212.5s114.166 -58.5 173.499 -58.5c57.333 0 102.333 14.5 135 43.5s49 68.5 49 118.5c0 82 -84.667 147.333 -254 196l-51 15c-99.333 28.667 -171.333 67.334 -216 116.001
s-67 112.334 -67 191.001c0 74.667 26 137 78 187s116.333 75 193 75c36 0 75.833 -6.83301 119.5 -20.5s69.167 -20.5 76.5 -20.5c10 0 30.333 8.66699 61 26c14.667 8 26.667 14.333 36 19l118 -292l-63 -29c-56 78 -114.333 138.833 -175 182.5s-117 65.5 -169 65.5
c-46.667 0 -85 -13.833 -115 -41.5s-45 -63.167 -45 -106.5c0 -46.667 15.167 -83 45.5 -109s94.5 -51.667 192.5 -77c140 -36 235.667 -78.333 287 -127s77 -116.334 77 -203.001c0 -84 -27 -153.5 -81 -208.5s-122.333 -82.5 -205 -82.5
c-42.667 0 -88.834 6.83301 -138.501 20.5s-78.834 20.5 -87.501 20.5c-10 0 -31.667 -6.66699 -65 -20c-20 -8 -36 -14 -48 -18z" />
    <glyph glyph-name="t" unicode="t" horiz-adv-x="682" 
d="M172 895l-145 0.000976562v63c61.333 14 112.333 50.5 153 109.5s69.334 138.167 86.001 237.5h58v-320h278v-90h-278v-623c0 -62.667 10.5 -110 31.5 -142s52.833 -48 95.5 -48c23.333 0 48.166 7.33301 74.499 22s56.5 38.667 90.5 72l50 -43
c-34 -52.667 -74 -92.834 -120 -120.501s-96.333 -41.5 -151 -41.5c-78 0 -134.667 22.667 -170 68s-53 119 -53 221v635z" />
    <glyph glyph-name="u" unicode="u" horiz-adv-x="1081" 
d="M1047 61v-52.999l-302 -18v137c-64 -55.333 -121.333 -95.5 -172 -120.5s-99.667 -37.5 -147 -37.5c-88.667 0 -153.167 30.167 -193.5 90.5s-60.5 157.833 -60.5 292.5v383c0 63.333 -8.33301 102.666 -25 117.999s-50.667 24 -102 26v53l287 65v-686
c0 -80 12.5 -138.167 37.5 -174.5s64.833 -54.5 119.5 -54.5c35.333 0 72.833 9.83301 112.5 29.5s85.5 51.5 137.5 95.5v512c0 75.333 -8.33301 120.833 -25 136.5s-54 23.5 -112 23.5v53l293 65v-772c0 -64 10 -106.333 30 -127s60.667 -33 122 -37z" />
    <glyph glyph-name="v" unicode="v" 
d="M532 -29l-53.001 0.000976562l-295 777c-26 67.333 -51 110.166 -75 128.499s-59 28.166 -105 29.499v71h426v-71c-42.667 -4 -72.167 -10.167 -88.5 -18.5s-24.5 -21.5 -24.5 -39.5c0 -16 7.66699 -44.333 23 -85l2 -5l205 -522l186 481
c8.66699 22 15.334 41.833 20.001 59.5s7 31.834 7 42.501c0 30 -10.5 51.5 -31.5 64.5s-56.833 20.167 -107.5 21.5v72h374v-72c-72.667 -8.66699 -128.667 -64.667 -168 -168c-2.66699 -7.33301 -4.66699 -13 -6 -17z" />
    <glyph glyph-name="w" unicode="w" horiz-adv-x="1479" 
d="M506 -29l-52.999 -0.00195312l-275 781c-24 67.333 -46.833 109 -68.5 125s-53.834 24.667 -96.501 26l-1 74h402v-74h-17c-26.667 0 -47.334 -4.66699 -62.001 -14s-22 -23 -22 -41c0 -8.66699 2.16699 -21.5 6.5 -38.5s9.83301 -34.833 16.5 -53.5l182 -506l176 493
l-22 80c-9.33301 30 -23.333 50.833 -42 62.5s-47 17.5 -85 17.5v74h397v-73c-38.667 -1.33301 -65.334 -7.16602 -80.001 -17.499s-22 -27.833 -22 -52.5c0 -10.667 1.66699 -23.667 5 -39s8.33301 -32.666 15 -51.999l180 -497l166 467
c7.33301 19.333 12.333 35.5 15 48.5s4 25.5 4 37.5c0 32 -11.333 56.833 -34 74.5s-55 27.5 -97 29.5v74h372v-74c-41.333 -2 -73.166 -13.667 -95.499 -35s-47.166 -70.333 -74.499 -147l-266 -750h-55l-240 645z" />
    <glyph glyph-name="x" unicode="x" 
d="M10 0l-0.000976562 74c50.667 0 93.834 10.333 129.501 31s78.5 65 128.5 133l172 229l-211 289c-46.667 65.333 -83.834 106.5 -111.501 123.5s-61.5 25.5 -101.5 25.5h-6v72h436v-72h-18c-25.333 0 -44.666 -3.83301 -57.999 -11.5s-20 -18.834 -20 -33.501
c0 -16 14.667 -43 44 -81c4 -6 7.33301 -10.667 10 -14l131 -173l139 188c10 14 18 27.5 24 40.5s9 23.5 9 31.5c0 15.333 -9.5 28 -28.5 38s-43.833 15 -74.5 15v72h375v-71c-46 -5.33301 -86.167 -19.333 -120.5 -42s-70.5 -60.667 -108.5 -114l-164 -228l245 -340
c28 -37.333 53.833 -63.5 77.5 -78.5s52.5 -24.833 86.5 -29.5v-74h-403v74h12c27.333 0 47.833 3.33301 61.5 10s20.5 17 20.5 31c0 4.66699 -3 12.334 -9 23.001s-17.333 27.334 -34 50.001l-154 209l-153 -200l-2 -3c-20.667 -27.333 -31 -48.333 -31 -63
c0 -18.667 7.83301 -32.334 23.5 -41.001s43.167 -14 82.5 -16l1 -74h-400z" />
    <glyph glyph-name="y" unicode="y" 
d="M547 203l186.001 513.998c9.33301 24 16.166 44.333 20.499 61s6.5 30.334 6.5 41.001c0 30 -10.5 51.5 -31.5 64.5s-56.833 20.167 -107.5 21.5v72h374v-72c-74 -8.66699 -130 -65 -168 -169c-2.66699 -6.66699 -4.66699 -12 -6 -16l-293 -796
c-40.667 -110 -88 -192.833 -142 -248.5s-114.333 -83.5 -181 -83.5c-40 0 -71.833 10.833 -95.5 32.5s-35.5 49.834 -35.5 84.501c0 28 9 50.333 27 67s42.333 25 73 25c24 0 50.5 -9.16699 79.5 -27.5s49.5 -27.5 61.5 -27.5c26 0 49.5 16.5 70.5 49.5
s45.5 92.833 73.5 179.5l-285 773c-22.667 63.333 -45.667 104.666 -69 123.999s-57 30.333 -101 33v72h418v-71c-39.333 -1.33301 -68 -6.33301 -86 -15s-27 -21.667 -27 -39c0 -9.33301 2.16699 -22.166 6.5 -38.499s10.5 -34.833 18.5 -55.5z" />
    <glyph glyph-name="z" unicode="z" horiz-adv-x="909" 
d="M41 0l0.00195312 57l575 848h-159c-60 0 -115.833 -19.5 -167.5 -58.5s-105.834 -103.5 -162.501 -193.5l-55 27l114 297h625v-57l-561 -848h145c73.333 0 140.666 21.667 201.999 65s122.333 112.333 183 207l54 -27l-115 -317h-678z" />
    <glyph glyph-name="braceleft" unicode="{" 
d="M846 1516l0.00195312 -51c-94.667 -1.33301 -159.334 -19.833 -194.001 -55.5s-52 -105.5 -52 -209.5v-143c0 -150.667 -20.333 -253.5 -61 -308.5s-116 -92.833 -226 -113.5c110 -20.667 185.333 -58.5 226 -113.5s61 -157.833 61 -308.5v-143
c0 -104 17.167 -173.5 51.5 -208.5s99.166 -53.167 194.499 -54.5v-51h-10c-144.667 0 -244 24.5 -298 73.5s-81 139.833 -81 272.5v213c0 105.333 -19.667 178 -59 218s-113.333 64.333 -222 73v60c110 10 184.333 34.667 223 74s58 111.333 58 216v213
c0 133.333 27 224.5 81 273.5s153.333 73.5 298 73.5h10z" />
    <glyph glyph-name="bar" unicode="|" 
d="M449 1565h126v-2048h-126v2048z" />
    <glyph glyph-name="braceright" unicode="}" 
d="M178 1516h10.002c144 0 243.167 -24.667 297.5 -74s81.5 -140.333 81.5 -273v-213c0 -104.667 19.333 -176.667 58 -216s113 -64 223 -74v-60c-108.667 -8.66699 -182.667 -33 -222 -73s-59 -112.667 -59 -218v-213c0 -132 -27.167 -222.667 -81.5 -272
s-153.5 -74 -297.5 -74h-10v51c95.333 1.33301 160.166 19.5 194.499 54.5s51.5 104.5 51.5 208.5v143c0 150.667 20.333 253.5 61 308.5s116 92.833 226 113.5c-110 20.667 -185.333 58.5 -226 113.5s-61 157.833 -61 308.5v143c0 104 -17.333 173.833 -52 209.5
s-99.334 54.167 -194.001 55.5v51z" />
    <glyph glyph-name="asciitilde" unicode="~" horiz-adv-x="1706" 
d="M1530 758l-0.00195312 -130.999c-67.333 -48 -133.166 -84 -197.499 -108s-127.5 -36 -189.5 -36c-28.667 0 -58.834 3 -90.501 9s-65.167 14.667 -100.5 26c-20 6.66699 -49 17 -87 31c-134.667 48 -235.334 72 -302.001 72c-55.333 0 -113.166 -12.5 -173.499 -37.5
s-130.833 -65.833 -211.5 -122.5v133c70 48.667 137.333 85 202 109s126.334 36 185.001 36c37.333 0 76.166 -4.16699 116.499 -12.5s98.5 -25.833 174.5 -52.5c8 -2.66699 19.667 -7 35 -13c109.333 -39.333 194 -59 254 -59c56.667 0 115.334 12.167 176.001 36.5
s130.334 64.166 209.001 119.499z" />
    <glyph glyph-name="euro" horiz-adv-x="1034" 
d="M997 330c-49.333 -126.667 -104.664 -218.166 -165.997 -274.499s-136.333 -84.5 -225 -84.5c-120.667 0 -220.5 49.833 -299.5 149.5s-127.167 236.167 -144.5 409.5h-174l18 70h151c0 8.66699 -0.166992 18 -0.5 28s-0.5 25.333 -0.5 46
c0 25.333 0.666992 49.666 2 72.999s3.33301 46 6 68h-170l18 70h162c27.333 168 78.166 301.167 152.499 399.5s164.833 147.5 271.5 147.5c22 0 44 -2.83301 66 -8.5s49 -15.167 81 -28.5l138 37l100 -330l-51 -31c-67.333 110 -125.833 188.333 -175.5 235
s-99.167 70 -148.5 70c-74 0 -132.5 -42 -175.5 -126s-69.167 -205.667 -78.5 -365h525l-19 -70h-510v-55c0 -28 0.5 -55.5 1.5 -82.5s2.83301 -52.833 5.5 -77.5h450l-19 -70h-426c17.333 -140.667 50.666 -247.167 99.999 -319.5s113.666 -108.5 192.999 -108.5
c58.667 0 110.5 20.833 155.5 62.5s89.5 110.5 133.5 206.5z" />
    <glyph glyph-name="euro" unicode="&#x20ac;" horiz-adv-x="1034" 
d="M997 330c-49.333 -126.667 -104.664 -218.166 -165.997 -274.499s-136.333 -84.5 -225 -84.5c-120.667 0 -220.5 49.833 -299.5 149.5s-127.167 236.167 -144.5 409.5h-174l18 70h151c0 8.66699 -0.166992 18 -0.5 28s-0.5 25.333 -0.5 46
c0 25.333 0.666992 49.666 2 72.999s3.33301 46 6 68h-170l18 70h162c27.333 168 78.166 301.167 152.499 399.5s164.833 147.5 271.5 147.5c22 0 44 -2.83301 66 -8.5s49 -15.167 81 -28.5l138 37l100 -330l-51 -31c-67.333 110 -125.833 188.333 -175.5 235
s-99.167 70 -148.5 70c-74 0 -132.5 -42 -175.5 -126s-69.167 -205.667 -78.5 -365h525l-19 -70h-510v-55c0 -28 0.5 -55.5 1.5 -82.5s2.83301 -52.833 5.5 -77.5h450l-19 -70h-426c17.333 -140.667 50.666 -247.167 99.999 -319.5s113.666 -108.5 192.999 -108.5
c58.667 0 110.5 20.833 155.5 62.5s89.5 110.5 133.5 206.5z" />
    <glyph glyph-name="nonbreakingspace" unicode="&#xa0;" horiz-adv-x="1034" 
 />
    <glyph glyph-name="exclamdown" unicode="&#xa1;" horiz-adv-x="682" 
d="M299 1034l67 0.000976562c2.66699 -114 6.5 -215 11.5 -303s11.5 -163.667 19.5 -227c3.33301 -22 13.5 -74.5 30.5 -157.5s25.5 -151.5 25.5 -205.5s-10.333 -95.5 -31 -124.5s-50 -43.5 -88 -43.5c-39.333 0 -69.333 14.5 -90 43.5s-31 70.5 -31 124.5
s8.5 122.5 25.5 205.5s26.833 135.167 29.5 156.5c8.66699 64 15.5 140.167 20.5 228.5s8.5 189.166 10.5 302.499zM469 1370c0 -35.333 -12.501 -65.333 -37.501 -90s-55.5 -37 -91.5 -37c-35.333 0 -65.333 12.333 -90 37s-37 54.667 -37 90
c0 36.667 12.167 67.667 36.5 93s54.5 38 90.5 38c36.667 0 67.334 -12.5 92.001 -37.5s37 -56.167 37 -93.5z" />
    <glyph glyph-name="cent" unicode="&#xa2;" horiz-adv-x="1034" 
d="M362 158l273.001 693.998c-10.667 22 -28.334 39.5 -53.001 52.5s-52.667 19.5 -84 19.5c-70 0 -127.167 -37.667 -171.5 -113s-66.5 -174.333 -66.5 -297c0 -77.333 8.5 -145.666 25.5 -204.999s42.5 -109.666 76.5 -150.999zM848.001 253.998l56.999 -39.001
c-55.333 -84 -116.5 -146.333 -183.5 -187s-142.833 -61 -227.5 -61c-21.333 0 -41.833 1.5 -61.5 4.5s-38.834 7.83301 -57.501 14.5l-107 -271h-82l121 301c-75.333 49.333 -133 111 -173 185s-60 155.667 -60 245c0 66 10.667 130 32 192s52.333 119 93 171
c48.667 62 102.167 108.5 160.5 139.5s121.5 46.5 189.5 46.5c23.333 0 46 -1.66699 68 -5s44.333 -8.33301 67 -15l96 244h80l-106 -275c38 -20.667 66.5 -43.667 85.5 -69s28.5 -52.666 28.5 -81.999c0 -28 -8.33301 -50.5 -25 -67.5s-38.334 -25.5 -65.001 -25.5
c-19.333 0 -37.166 5 -53.499 15s-31.166 25 -44.499 45l-256 -654c16 -11.333 33.833 -19.5 53.5 -24.5s42.834 -7.5 69.501 -7.5c54.667 0 106.5 14.5 155.5 43.5s97.5 74.5 145.5 136.5z" />
    <glyph glyph-name="sterling" unicode="&#xa3;" horiz-adv-x="1034" 
d="M393 129c-26.667 40 -55.499 70.501 -86.499 91.501s-62.833 31.5 -95.5 31.5c-30.667 0 -55 -9.33301 -73 -28s-27 -43.334 -27 -74.001c0 -34.667 11.667 -62.167 35 -82.5s54.666 -30.5 93.999 -30.5c28.667 0 55.667 7.66699 81 23s49.333 38.333 72 69z
M141.001 586.001v86.002h201c-69.333 116 -114.333 199.667 -135 251s-31 98 -31 140c0 106 37.167 194 111.5 264s169.5 105 285.5 105c111.333 0 204.166 -33.667 278.499 -101s111.5 -149.333 111.5 -246c0 -47.333 -10.5 -85 -31.5 -113s-49.5 -42 -85.5 -42
c-28.667 0 -52.167 8.5 -70.5 25.5s-27.5 38.5 -27.5 64.5c0 24.667 10.833 57.5 32.5 98.5s32.5 69.5 32.5 85.5c0 40.667 -20 75.5 -60 104.5s-89.667 43.5 -149 43.5c-74 0 -135.5 -24.5 -184.5 -73.5s-73.5 -110.5 -73.5 -184.5c0 -52 25.833 -124.167 77.5 -216.5
s86.5 -160.833 104.5 -205.5h267v-86h-238c5.33301 -46 9 -82.167 11 -108.5s3 -48.833 3 -67.5c0 -33.333 -3.33301 -66.333 -10 -99s-17 -66 -31 -100c26.667 -17.333 54.5 -30.833 83.5 -40.5s55.833 -14.5 80.5 -14.5c54 0 100.333 15.667 139 47
s71.667 79.666 99 144.999l47 -29c-23.333 -110 -62.5 -196.833 -117.5 -260.5s-117.5 -95.5 -187.5 -95.5c-33.333 0 -68.166 9 -104.499 27s-76.5 46 -120.5 84c-34.667 -36.667 -69.334 -63.667 -104.001 -81s-71 -26 -109 -26c-59.333 0 -107.666 16.833 -144.999 50.5
s-56 76.834 -56 129.501c0 54 19.333 99.333 58 136s87 55 145 55c34.667 0 70.5 -7.83301 107.5 -23.5s74.833 -39.167 113.5 -70.5c2.66699 12 4.66699 24.167 6 36.5s2 26.166 2 41.499c0 38 -6 78.667 -18 122s-30.667 90.666 -56 141.999h-252z" />
    <glyph glyph-name="currency" unicode="&#xa4;" horiz-adv-x="1034" 
d="M997 330c-49.333 -126.667 -104.664 -218.166 -165.997 -274.499s-136.333 -84.5 -225 -84.5c-120.667 0 -220.5 49.833 -299.5 149.5s-127.167 236.167 -144.5 409.5h-174l18 70h151c0 8.66699 -0.166992 18 -0.5 28s-0.5 25.333 -0.5 46
c0 25.333 0.666992 49.666 2 72.999s3.33301 46 6 68h-170l18 70h162c27.333 168 78.166 301.167 152.499 399.5s164.833 147.5 271.5 147.5c22 0 44 -2.83301 66 -8.5s49 -15.167 81 -28.5l138 37l100 -330l-51 -31c-67.333 110 -125.833 188.333 -175.5 235
s-99.167 70 -148.5 70c-74 0 -132.5 -42 -175.5 -126s-69.167 -205.667 -78.5 -365h525l-19 -70h-510v-55c0 -28 0.5 -55.5 1.5 -82.5s2.83301 -52.833 5.5 -77.5h450l-19 -70h-426c17.333 -140.667 50.666 -247.167 99.999 -319.5s113.666 -108.5 192.999 -108.5
c58.667 0 110.5 20.833 155.5 62.5s89.5 110.5 133.5 206.5z" />
    <glyph glyph-name="yen" unicode="&#xa5;" horiz-adv-x="1229" 
d="M336 0v69.9951h39c63.333 0 105 10.167 125 30.5s30 64.5 30 132.5v340h-481v70h445l-115 215h-330v70h291l-168 315c-18.667 36 -38.5 59.833 -59.5 71.5s-55.167 18.834 -102.5 21.501l2 67h492l2 -68h-19c-45.333 0 -79.166 -3.66699 -101.499 -11
s-33.5 -18.666 -33.5 -33.999c0 -13.333 9 -36.666 27 -69.999c1.33301 -2.66699 2.66602 -5 3.99902 -7l289 -527l252 481c8 14.667 14 29.334 18 44.001s6 29.334 6 44.001c0 26.667 -13 46.667 -39 60s-64 20 -114 20v68h426l-1 -68c-74 -8.66699 -133 -54 -177 -136
l-11 -20l-137 -251h287v-70h-326l-115 -215h441v-70h-467v-340c0 -66 10.5 -109.667 31.5 -131s62.833 -32 125.5 -32h37v-70h-573z" />
    <glyph glyph-name="brokenbar" unicode="&#xa6;" 
d="M449 408h126v-758h-126v758zM449 1432h126v-758h-126v758z" />
    <glyph glyph-name="section" unicode="&#xa7;" 
d="M575 362c74 -55.333 126.999 -106.996 158.999 -154.996s48 -99.333 48 -154c0 -78.667 -26.167 -142.334 -78.5 -191.001s-120.833 -73 -205.5 -73c-79.333 0 -147 21.167 -203 63.5s-84 90.833 -84 145.5c0 33.333 9.5 60.166 28.5 80.499s43.5 30.5 73.5 30.5
c28.667 0 51.334 -7.33301 68.001 -22s25 -34.667 25 -60c0 -24.667 -12 -49.5 -36 -74.5s-36 -39.167 -36 -42.5c0 -18.667 16.167 -36 48.5 -52s70.166 -24 113.499 -24c55.333 0 99.5 14.833 132.5 44.5s49.5 69.5 49.5 119.5c0 36 -12.667 71.333 -38 106
s-79 86 -161 154l-147 123c-56.667 46.667 -100.834 98 -132.501 154s-47.5 109.667 -47.5 161c0 72 21.833 130.667 65.5 176s100.167 68 169.5 68c8.66699 0 17.834 -0.5 27.501 -1.5s18.834 -2.5 27.501 -4.5c-78 64 -131.833 119.167 -161.5 165.5
s-44.5 95.5 -44.5 147.5c0 77.333 25.333 139.333 76 186s118 70 202 70c77.333 0 140.666 -18.833 189.999 -56.5s74 -84.834 74 -141.501c0 -33.333 -9.16699 -59.5 -27.5 -78.5s-43.833 -28.5 -76.5 -28.5c-25.333 0 -45.666 7.33301 -60.999 22s-23 34 -23 58
c0 22.667 10.833 46.5 32.5 71.5s32.5 42.167 32.5 51.5c0 15.333 -13.833 28.666 -41.5 39.999s-62.167 17 -103.5 17c-50.667 0 -91.667 -14.167 -123 -42.5s-47 -65.166 -47 -110.499c0 -35.333 9.83301 -68.333 29.5 -99s66.5 -76.334 140.5 -137.001l141 -117
c85.333 -71.333 143.833 -131.333 175.5 -180s47.5 -99 47.5 -151c0 -81.333 -22 -145.5 -66 -192.5s-104.333 -70.5 -181 -70.5c-10 0 -25.667 1.33301 -47 4h-5zM243.999 756.004c0 -30 7.49902 -59.832 22.499 -89.499s38.833 -61.5 71.5 -95.5
c56 -57.333 107.333 -101 154 -131s87.334 -45 122.001 -45c46 0 84.5 14 115.5 42s46.5 62.667 46.5 104c0 29.333 -7.66699 58.333 -23 87s-42.333 63 -81 103c-58.667 60 -110 103.667 -154 131s-84.333 41 -121 41c-44 0 -80.5 -13.833 -109.5 -41.5
s-43.5 -62.834 -43.5 -105.501z" />
    <glyph glyph-name="dieresis" unicode="&#xa8;" 
d="M582 1260c0 30 11.167 56.167 33.5 78.5s48.5 33.5 78.5 33.5c30.667 0 57.167 -11 79.5 -33s33.5 -48.333 33.5 -79c0 -33.333 -10.667 -60.5 -32 -81.5s-48.333 -31.5 -81 -31.5c-32 0 -58.667 10.667 -80 32s-32 48.333 -32 81zM197 1260
c0 29.333 11.333 55.333 34 78s49.334 34 80.001 34s56.834 -11 78.501 -33s32.5 -48.333 32.5 -79c0 -33.333 -10.333 -60.5 -31 -81.5s-47.334 -31.5 -80.001 -31.5s-59.834 10.667 -81.501 32s-32.5 48.333 -32.5 81z" />
    <glyph glyph-name="copyright" unicode="&#xa9;" horiz-adv-x="1683" 
d="M1120 1096l35.0049 -0.000976562l2 -314h-41c-22.667 91.333 -57.334 160 -104.001 206s-105.334 69 -176.001 69c-82 0 -143.833 -31.5 -185.5 -94.5s-62.5 -155.833 -62.5 -278.5c0 -126 22.333 -221 67 -285s111 -96 199 -96c57.333 0 109.333 14.333 156 43
s89 72.334 127 131.001l34 -24c-38.667 -70 -86.334 -122.333 -143.001 -157s-123 -52 -199 -52c-111.333 0 -206.333 41 -285 123s-118 181 -118 297c0 124 38.667 228 116 312s172.333 126 285 126c49.333 0 98.666 -11.333 147.999 -34s76.666 -34 81.999 -34
c18 0 32 4.83301 42 14.5s17 25.5 21 47.5zM844.005 1303c-82 0 -161.169 -16.167 -237.502 -48.5s-143.166 -77.833 -200.499 -136.5c-58.667 -59.333 -103.5 -126.833 -134.5 -202.5s-46.5 -154.834 -46.5 -237.501c0 -83.333 15.667 -162.833 47 -238.5
s76.666 -142.834 135.999 -201.501c58.667 -59.333 124.834 -104.333 198.501 -135s152.167 -46 235.5 -46c84 0 162.833 15.333 236.5 46s139.5 75.667 197.5 135c58.667 60 103.667 127.667 135 203s47 154.333 47 237s-15.833 162.834 -47.5 240.501
s-75.834 144.834 -132.501 201.501c-57.333 58 -124.166 103 -200.499 135s-154.166 48 -233.499 48zM844.003 1382c91.333 0 180.165 -17.833 266.498 -53.5s161.833 -85.834 226.5 -150.501c65.333 -64.667 116.166 -140.834 152.499 -228.501s54.5 -178.167 54.5 -271.5
s-17.667 -182.666 -53 -267.999s-86.666 -162 -153.999 -230c-65.333 -66.667 -140.333 -117.5 -225 -152.5s-174.667 -52.5 -270 -52.5s-185 17.5 -269 52.5s-159.667 85.833 -227 152.5s-118.666 142.334 -153.999 227.001s-53 175 -53 271
c0 93.333 17.667 182.833 53 268.5s86 162.167 152 229.5c65.333 66 141.333 116.833 228 152.5s177.334 53.5 272.001 53.5z" />
    <glyph glyph-name="ordfeminine" unicode="&#xaa;" horiz-adv-x="682" 
d="M70 645h559v-113h-559v113zM432 1161c-80.667 -22.667 -143.167 -52.501 -187.5 -89.501s-66.5 -78.167 -66.5 -123.5c0 -28 9.16699 -50.667 27.5 -68s42.833 -26 73.5 -26c20 0 42.5 5.83301 67.5 17.5s53.5 29.834 85.5 54.501v235zM569 1284l-0.00195312 -380.998
c0.666992 -18.667 2.16699 -30.834 4.5 -36.501s6.5 -8.5 12.5 -8.5c8 0 24 9 48 27l2 1l42 -34c-21.333 -27.333 -42.333 -46.833 -63 -58.5s-44.667 -17.5 -72 -17.5c-28 0 -50.5 6.5 -67.5 19.5s-29.5 33.167 -37.5 60.5c-27.333 -25.333 -60.166 -45 -98.499 -59
s-79.166 -21 -122.499 -21c-58.667 0 -106.167 15.667 -142.5 47s-54.5 71.666 -54.5 120.999c0 62.667 33.833 117.167 101.5 163.5s171.167 86.166 310.5 119.499v71c0 48 -8.66699 83.667 -26 107s-44 35 -80 35c-28 0 -49.833 -5.83301 -65.5 -17.5
s-28.167 -31.834 -37.5 -60.501c-9.33301 -28 -21.333 -47.667 -36 -59s-34.667 -17 -60 -17c-23.333 0 -42.5 6.5 -57.5 19.5s-22.5 29.833 -22.5 50.5c0 38.667 26.833 72.834 80.5 102.501s119.834 44.5 198.501 44.5c89.333 0 152.166 -16.167 188.499 -48.5
s54.5 -89.166 54.5 -170.499z" />
    <glyph glyph-name="guillemotleft" unicode="&#xab;" 
d="M473 483c80 59.333 159.667 128.166 239 206.499s127.333 117.5 144 117.5c6 0 11 -1.33301 15 -4s6 -6 6 -10c0 -29.333 -65 -118.666 -195 -267.999l-37 -42l37 -42c130 -149.333 195 -238.333 195 -267c0 -4 -2 -7.33301 -6 -10s-9 -4 -15 -4
c-16.667 0 -64.667 39 -144 117s-159 146.667 -239 206zM133 483c80 59.333 159.667 128.166 239 206.499s127.333 117.5 144 117.5c6 0 11 -1.33301 15 -4s6 -6 6 -10c0 -29.333 -65 -118.666 -195 -267.999l-37 -42l37 -42c130 -149.333 195 -238.333 195 -267
c0 -4 -2 -7.33301 -6 -10s-9 -4 -15 -4c-16.667 0 -64.667 39 -144 117s-159 146.667 -239 206z" />
    <glyph glyph-name="logicalnot" unicode="&#xac;" horiz-adv-x="1706" 
d="M254 858h1198v-502h-115v385h-1083v117z" />
    <glyph glyph-name="sfthyphen" unicode="&#xad;" horiz-adv-x="684" 
d="M86 410v141h512v-141h-512z" />
    <glyph glyph-name="registered" unicode="&#xae;" horiz-adv-x="1683" 
d="M729 719c10.667 -0.666992 21.334 -1.16797 32.001 -1.50098s22 -0.5 34 -0.5c74.667 0 132.5 15.167 173.5 45.5s61.5 73.166 61.5 128.499c0 48.667 -17.667 87.834 -53 117.501s-83 44.5 -143 44.5c-34.667 0 -60.834 -6.16699 -78.501 -18.5
s-26.5 -30.166 -26.5 -53.499v-262zM469 1092l393 -0.000976562c98 0 175.5 -18.167 232.5 -54.5s85.5 -85.166 85.5 -146.499c0 -50.667 -23.167 -92 -69.5 -124s-118.833 -57 -217.5 -75c62 -19.333 109.333 -45.166 142 -77.499s56.334 -76.833 71.001 -133.5
c4 -14.667 7.66699 -35.667 11 -63c8.66699 -58.667 28.334 -88 59.001 -88c21.333 0 37.833 11.333 49.5 34s17.5 55.667 17.5 99h43v-12c0 -58.667 -13.5 -103.167 -40.5 -133.5s-66.833 -45.5 -119.5 -45.5c-30.667 0 -56.834 5.66699 -78.501 17
s-37.834 27.666 -48.501 48.999c-12 26.667 -19 64.5 -21 113.5s-5 80.833 -9 95.5c-13.333 45.333 -36.833 78.833 -70.5 100.5s-79.167 32.5 -136.5 32.5h-33v-248c0 -36 8.83301 -61.167 26.5 -75.5s50.5 -22.833 98.5 -25.5v-40h-385v40c48 2 81.167 10.167 99.5 24.5
s27.5 39.833 27.5 76.5v516c0 36.667 -8.66699 62 -26 76s-51 22.333 -101 25v43zM844 1303c-81.333 0 -160.002 -15.9971 -236.002 -47.9971s-143.333 -77.667 -202 -137s-103.5 -126.833 -134.5 -202.5s-46.5 -154.834 -46.5 -237.501
c0 -84.667 15.5 -164.334 46.5 -239.001s76.5 -141.667 136.5 -201c58.667 -59.333 124.834 -104.333 198.501 -135s152.167 -46 235.5 -46c84 0 162.833 15.333 236.5 46s139.5 75.667 197.5 135c58.667 60 103.667 127.667 135 203s47 154.333 47 237
s-15.833 163.167 -47.5 241.5s-75.834 145.166 -132.501 200.499c-57.333 58 -124.166 103 -200.499 135s-154.166 48 -233.499 48zM843.998 1382c92 0 181.499 -18.001 268.499 -54.001s163.167 -86.667 228.5 -152c64.667 -64.667 114.667 -140.667 150 -228
s53 -178 53 -272c0 -91.333 -18.5 -180.5 -55.5 -267.5s-89.5 -164.5 -157.5 -232.5c-66 -66 -140.833 -116 -224.5 -150s-173.834 -51 -270.501 -51c-91.333 0 -179 17.5 -263 52.5s-159.667 85.833 -227 152.5s-118.666 142.334 -153.999 227.001s-53 175 -53 271
c0 93.333 17.667 182.833 53 268.5s86 162.167 152 229.5c65.333 66 141.333 116.833 228 152.5s177.334 53.5 272.001 53.5z" />
    <glyph glyph-name="macron" unicode="&#xaf;" 
d="M233 1190v133h539v-133h-539z" />
    <glyph glyph-name="degree" unicode="&#xb0;" horiz-adv-x="674" 
d="M338 1372c-56 0 -103.833 -19.5 -143.5 -58.5s-59.5 -86.5 -59.5 -142.5s19.833 -103.667 59.5 -143s87.5 -59 143.5 -59s103.5 19.667 142.5 59s58.5 87 58.5 143s-19.5 103.5 -58.5 142.5s-86.5 58.5 -142.5 58.5zM338 1454c78 0 144.668 -27.6689 200.001 -83.002
s83 -122 83 -200c0 -77.333 -27.833 -143.666 -83.5 -198.999s-122.834 -83 -201.501 -83s-145.167 27.333 -199.5 82s-81.5 121.334 -81.5 200.001c0 79.333 27.5 146.333 82.5 201s121.833 82 200.5 82z" />
    <glyph glyph-name="plusminus" unicode="&#xb1;" horiz-adv-x="1706" 
d="M254 158h1198v-117h-1198v117zM795 1180h118v-344h539v-117h-539v-344h-118v344h-541v117h541v344z" />
    <glyph glyph-name="twosuperior" unicode="&#xb2;" horiz-adv-x="682" 
d="M18 561l0.000976562 47c46.667 62.667 91 118.667 133 168s85.333 97.333 130 144l33 32c103.333 102 155 188.667 155 260c0 53.333 -14.5 95 -43.5 125s-69.167 45 -120.5 45c-38 0 -70.667 -8.66699 -98 -26s-41 -38 -41 -62c0 -11.333 5.16699 -28 15.5 -50
s15.5 -39.333 15.5 -52c0 -17.333 -6 -32 -18 -44s-26.667 -18 -44 -18c-24.667 0 -44.5 7.66699 -59.5 23s-22.5 35 -22.5 59c0 58.667 26.5 107.834 79.5 147.501s120.167 59.5 201.5 59.5c82 0 147.167 -20 195.5 -60s72.5 -93.667 72.5 -161
c0 -40.667 -12.333 -79.667 -37 -117s-78.667 -90.333 -162 -159c-5.33301 -4.66699 -14.333 -12 -27 -22c-117.333 -89.333 -205 -173 -263 -251h235c44 0 74.667 1.66699 92 5s32 8.66602 44 15.999c21.333 12 48.666 52.667 81.999 122l1 2l45 -10l-63 -223h-531z" />
    <glyph glyph-name="threesuperior" unicode="&#xb3;" horiz-adv-x="682" 
d="M399 1012c70 -19.333 123.667 -48.8359 161 -88.5029s56 -86.834 56 -141.501c0 -69.333 -29.167 -126.5 -87.5 -171.5s-132.833 -67.5 -223.5 -67.5c-83.333 0 -153 16.5 -209 49.5s-84 73.167 -84 120.5c0 21.333 6.83301 38.5 20.5 51.5s31.5 19.5 53.5 19.5
c24.667 0 44.167 -5.66699 58.5 -17s21.5 -26.666 21.5 -45.999c0 -3.33301 -1.33301 -11.166 -4 -23.499s-4 -22.833 -4 -31.5c0 -23.333 11.5 -42.166 34.5 -56.499s53.833 -21.5 92.5 -21.5c58.667 0 105.667 17.333 141 52s53 81.334 53 140.001
c0 71.333 -17.167 124.333 -51.5 159s-86.833 52 -157.5 52c-8 0 -17.667 -0.333008 -29 -1s-18.666 -1 -21.999 -1c-9.33301 0 -16 2.16699 -20 6.5s-6 11.833 -6 22.5c0 8.66699 2.66699 14.834 8 18.501s14.666 5.5 27.999 5.5c6 0 15 -1 27 -3s21.667 -3 29 -3
c54.667 0 98 16.667 130 50s48 79 48 137c0 51.333 -13.5 91.333 -40.5 120s-64.833 43 -113.5 43c-36.667 0 -65.167 -7.5 -85.5 -22.5s-30.5 -36.167 -30.5 -63.5c0 -5.33301 0.666992 -12.333 2 -21s2 -14.334 2 -17.001c0 -20.667 -6.16699 -36.834 -18.5 -48.501
s-28.833 -17.5 -49.5 -17.5c-21.333 0 -38.666 6.16699 -51.999 18.5s-20 28.833 -20 49.5c0 42 24.667 78.333 74 109s110.666 46 183.999 46c86.667 0 154.167 -17.833 202.5 -53.5s72.5 -85.167 72.5 -148.5c0 -44.667 -15 -83.167 -45 -115.5
s-78.667 -62.166 -146 -89.499z" />
    <glyph glyph-name="acute" unicode="&#xb4;" 
d="M326 1075l276 284.999c17.333 18.667 35.5 32.834 54.5 42.501s37.167 14.5 54.5 14.5c20.667 0 38 -7 52 -21s21 -31.667 21 -53c0 -16 -5.5 -30.667 -16.5 -44s-33.5 -30 -67.5 -50l-299 -174h-75z" />
    <glyph glyph-name="mu" unicode="&#xb5;" horiz-adv-x="1120" 
d="M164 193c-18 -90.667 -35.3301 -203.666 -51.9971 -338.999c-22.667 -181.333 -60 -272 -112 -272c-24.667 0 -44.167 7.83301 -58.5 23.5s-21.5 37.167 -21.5 64.5c0 26.667 21.5 117.834 64.5 273.501s78.167 298.167 105.5 427.5l109 514h147l-104 -492
c-4 -20 -7.16699 -39.5 -9.5 -58.5s-3.5 -36.833 -3.5 -53.5c0 -55.333 14 -98.333 42 -129s67.333 -46 118 -46c65.333 0 119.833 22.833 163.5 68.5s75.167 112.5 94.5 200.5l111 510h149l-114 -531c-8.66699 -39.333 -14.334 -68.5 -17.001 -87.5s-4 -35.5 -4 -49.5
c0 -32 8.66699 -58 26 -78s39.333 -30 66 -30c23.333 0 45.166 6 65.499 18s37.5 29 51.5 51s27.667 53.167 41 93.5s26.333 60.5 39 60.5c8 0 14.333 -3.33301 19 -10s7 -15.667 7 -27c0 -16.667 -3.66699 -38.834 -11 -66.501s-17 -55.5 -29 -83.5
c-25.333 -54.667 -57 -95.5 -95 -122.5s-83 -40.5 -135 -40.5c-45.333 0 -81.5 17 -108.5 51s-40.5 80.333 -40.5 139v23c-30.667 -73.333 -69.334 -128 -116.001 -164s-101.667 -54 -165 -54c-64 0 -114.833 18.167 -152.5 54.5s-61.167 90.166 -70.5 161.499z" />
    <glyph glyph-name="paragraph" unicode="&#xb6;" 
d="M948 1479l-0.00195312 -78h-125v-1401h-94v1401h-182v-1401h-96v782c-115.333 5.33301 -206.666 39.5 -273.999 102.5s-101 144.833 -101 245.5c0 104.667 35.833 189 107.5 253s166.834 96 285.501 96h479z" />
    <glyph glyph-name="periodcentered" unicode="&#xb7;" horiz-adv-x="516" 
d="M258 848c38 0 70.333 -13.5 97 -40.5s40 -59.167 40 -96.5c0 -38 -13.333 -70.5 -40 -97.5s-59 -40.5 -97 -40.5s-70.333 13.5 -97 40.5s-40 59.5 -40 97.5c0 37.333 13.333 69.5 40 96.5s59 40.5 97 40.5z" />
    <glyph glyph-name="cedilla" unicode="&#xb8;" 
d="M238 -379l36.0029 89.999c40 -25.333 80 -44.666 120 -57.999s77.333 -20 112 -20c38 0 66.167 7.5 84.5 22.5s27.5 37.833 27.5 68.5c0 28.667 -9.16699 50.167 -27.5 64.5s-45.833 21.5 -82.5 21.5c-8.66699 0 -18.334 -0.666992 -29.001 -2l-33 -4v196h66v-115
c7.33301 1.33301 15.166 2.33301 23.499 3s20.833 1 37.5 1c58.667 0 104.5 -14.5 137.5 -43.5s49.5 -69.5 49.5 -121.5c0 -56 -19.833 -99.833 -59.5 -131.5s-94.834 -47.5 -165.501 -47.5c-39.333 0 -83 6.16699 -131 18.5s-103.333 31.5 -166 57.5z" />
    <glyph glyph-name="onesuperior" unicode="&#xb9;" horiz-adv-x="682" 
d="M119 561v46.9971c81.333 4.66699 131 13.334 149 26.001s27 42.334 27 89.001v473c0 34 -2.33301 57.333 -7 70s-12.667 22.667 -24 30c-8.66699 5.33301 -24.667 9.5 -48 12.5s-53 4.5 -89 4.5h-27l1 39c39.333 4.66699 84.5 13.834 135.5 27.501
s110.167 32.5 177.5 56.5v-713c0 -45.333 10 -75 30 -89s71.333 -22.667 154 -26v-47h-479z" />
    <glyph glyph-name="ordmasculine" unicode="&#xba;" horiz-adv-x="766" 
d="M88 645h590v-113h-590v113zM381 1442c-55.333 0 -100.999 -28.6689 -136.999 -86.002s-54 -131.666 -54 -222.999c0 -92 17.5 -164.5 52.5 -217.5s81.833 -79.5 140.5 -79.5c57.333 0 102.666 28 135.999 84s50 133 50 231c0 94.667 -16.167 166.834 -48.5 216.501
s-78.833 74.5 -139.5 74.5zM383.001 1503c100 0 182.666 -34.833 247.999 -104.5s98 -154.167 98 -253.5c0 -106.667 -33.833 -195.167 -101.5 -265.5s-152.5 -105.5 -254.5 -105.5c-95.333 0 -175.166 34.833 -239.499 104.5s-96.5 156.5 -96.5 260.5
c0 102.667 33.167 189 99.5 259s148.5 105 246.5 105z" />
    <glyph glyph-name="guillemotright" unicode="&#xbb;" 
d="M889 483c-80.667 -59.333 -160.167 -127.999 -238.5 -205.999s-125.833 -117 -142.5 -117c-6 0 -11 1.33301 -15 4s-6 6 -6 10c0 28.667 65 117.667 195 267l37 42l-37 42c-130 149.333 -195 238.666 -195 267.999c0 4 2 7.33301 6 10s9 4 15 4
c16.667 0 64.167 -39 142.5 -117s157.833 -147 238.5 -207zM551 483.001c-80 -59.333 -159.667 -128 -239 -206s-127.333 -117 -144 -117c-6 0 -11 1.33301 -15 4s-6 6 -6 10c0 28.667 65 117.667 195 267l37 42l-37 42c-130 149.333 -195 238.666 -195 267.999
c0 4 2 7.33301 6 10s9 4 15 4c16.667 0 64.667 -39.167 144 -117.5s159 -147.166 239 -206.499z" />
    <glyph glyph-name="onequarter" unicode="&#xbc;" horiz-adv-x="1645" 
d="M1358 246c2 72 5.33301 143.167 10 213.5s10.667 139.5 18 207.5l-292 -421h264zM1358 195h-332v51l393 559h47v-559h154v-51h-154v-70c0 -33.333 6.5 -55.333 19.5 -66s37.5 -16 73.5 -16h6v-43h-314v43h15c36 0 60.333 5.16699 73 15.5s19 32.5 19 66.5v70zM309 -29
l920 1461h104l-919 -1461h-105zM115 616l0.000976562 42.999c76 4.66699 122.667 13 140 25s26 39.333 26 82v444c0 34 -2 56.333 -6 67s-11 19.334 -21 26.001c-8 4.66699 -22.667 8.16699 -44 10.5s-51 3.5 -89 3.5h-25l1 37c36.667 4.66699 79.5 13.334 128.5 26.001
s106.167 30 171.5 52v-666c0 -42.667 9.66699 -70.334 29 -83.001s67.666 -20.667 144.999 -24v-43h-456z" />
    <glyph glyph-name="onehalf" unicode="&#xbd;" horiz-adv-x="1645" 
d="M1012 0v45.001c48 62 91.5 115.5 130.5 160.5s78.833 87.833 119.5 128.5l38 37c94.667 92 142 171 142 237c0 50 -14 89.167 -42 117.5s-66.667 42.5 -116 42.5c-36 0 -67.167 -8.5 -93.5 -25.5s-39.5 -36.5 -39.5 -58.5c0 -10 5.16699 -25.5 15.5 -46.5
s15.5 -36.833 15.5 -47.5c0 -16 -5.83301 -29.667 -17.5 -41s-25.834 -17 -42.501 -17c-23.333 0 -42.166 6.83301 -56.499 20.5s-21.5 32.167 -21.5 55.5c0 54.667 25.167 100.5 75.5 137.5s114.833 55.5 193.5 55.5c76.667 0 138.167 -18.667 184.5 -56
s69.5 -87 69.5 -149c0 -40 -12.333 -77.833 -37 -113.5s-75.334 -83.834 -152.001 -144.501c-8 -6.66699 -21 -16.667 -39 -30c-106.667 -82 -185.667 -157.333 -237 -226h223c42.667 0 72.167 1.33301 88.5 4s30.5 7.33398 42.5 14.001
c18.667 11.333 42.334 45.666 71.001 102.999l7 14l43 -10l-59 -207h-506zM309 -28.999l920 1461h104l-919 -1461h-105zM115 616.001l0.000976562 42.999c76 4.66699 122.667 13 140 25s26 39.333 26 82v444c0 34 -2 56.333 -6 67s-11 19.334 -21 26.001
c-8 4.66699 -22.667 8.16699 -44 10.5s-51 3.5 -89 3.5h-25l1 37c36.667 4.66699 79.5 13.334 128.5 26.001s106.167 30 171.5 52v-666c0 -42.667 9.66699 -70.334 29 -83.001s67.666 -20.667 144.999 -24v-43h-456z" />
    <glyph glyph-name="threequarters" unicode="&#xbe;" horiz-adv-x="1645" 
d="M1358 246c2 72 5.33301 143.167 10 213.5s10.667 139.5 18 207.5l-292 -421h264zM1358 195h-332v51l393 559h47v-559h154v-51h-154v-70c0 -33.333 6.5 -55.333 19.5 -66s37.5 -16 73.5 -16h6v-43h-314v43h15c36 0 60.333 5.16699 73 15.5s19 32.5 19 66.5v70zM309 -29
l920 1461h104l-919 -1461h-105zM381 1038c66.667 -18 117.832 -45.5039 153.499 -82.5039s53.5 -81.167 53.5 -132.5c0 -64.667 -27.667 -118 -83 -160s-126.666 -63 -213.999 -63c-79.333 0 -145.666 15.333 -198.999 46s-80 68 -80 112c0 20 6.33301 35.833 19 47.5
s29.667 17.5 51 17.5c23.333 0 41.833 -5.16699 55.5 -15.5s20.5 -24.166 20.5 -41.499c0 -3.33301 -1 -10.666 -3 -21.999s-3 -21 -3 -29c0 -22 10.667 -39.833 32 -53.5s50 -20.5 86 -20.5c57.333 0 103.166 16.167 137.499 48.5s51.5 76.166 51.5 131.499
c0 66.667 -16.5 116.167 -49.5 148.5s-83.5 48.5 -151.5 48.5c-7.33301 0 -16.5 -0.333008 -27.5 -1s-18.167 -1 -21.5 -1c-10 0 -17 2 -21 6s-6 10.667 -6 20c0 8 3 13.833 9 17.5s15.333 5.5 28 5.5c5.33301 0 13.833 -1 25.5 -3s20.834 -3 27.501 -3
c52.667 0 94.167 15.5 124.5 46.5s45.5 73.5 45.5 127.5c0 48.667 -12.833 86.334 -38.5 113.001s-61.834 40 -108.501 40c-34.667 0 -62.167 -7 -82.5 -21s-30.5 -33.333 -30.5 -58c0 -5.33301 0.666992 -12.166 2 -20.499s2 -13.833 2 -16.5
c0 -19.333 -5.5 -34.166 -16.5 -44.499s-26.5 -15.5 -46.5 -15.5c-21.333 0 -38.333 5.66699 -51 17s-19 26.333 -19 45c0 39.333 23.667 73.333 71 102s106.333 43 177 43c82.667 0 147 -16.5 193 -49.5s69 -79.167 69 -138.5c0 -41.333 -14.333 -77 -43 -107
s-75 -58 -139 -84z" />
    <glyph glyph-name="questiondown" unicode="&#xbf;" horiz-adv-x="909" 
d="M520 1040l69.999 0.000976562v-403c-96.667 -10 -172.667 -43.333 -228 -100s-83 -129.334 -83 -218.001c0 -71.333 15.833 -129.333 47.5 -174s72.5 -67 122.5 -67c17.333 0 32.333 2.83301 45 8.5s28.334 17.834 47.001 36.501l16 16c26.667 28.667 56 43 88 43
c24 0 44 -8 60 -24s24 -36 24 -60c0 -40.667 -14.833 -71.667 -44.5 -93s-73.5 -32 -131.5 -32c-114 0 -211.167 40.833 -291.5 122.5s-120.5 180.167 -120.5 295.5c0 116 32.667 208.667 98 278s159 110.666 281 123.999v247zM685.999 1376
c0 -35.333 -12.502 -65.333 -37.502 -90s-55.5 -37 -91.5 -37c-35.333 0 -65.666 12.5 -90.999 37.5s-38 54.833 -38 89.5c0 36.667 12.5 67.667 37.5 93s55.5 38 91.5 38c36.667 0 67.334 -12.5 92.001 -37.5s37 -56.167 37 -93.5z" />
    <glyph glyph-name="Agrave" unicode="&#xc0;" horiz-adv-x="1366" 
d="M387 606h451l-224 699zM0 0l-0.00195312 71.9971c48.667 2.66699 86.167 16.5 112.5 41.5s51.5 73.833 75.5 146.5l390 1198l161 53l435 -1296c9.33301 -29.333 19.833 -53.666 31.5 -72.999s24.834 -34.666 39.501 -45.999c10 -7.33301 23 -12.833 39 -16.5
s40 -6.16699 72 -7.5v-72h-543v72h14c57.333 0 97.666 7 120.999 21s35 37.667 35 71c0 6 -1.66699 15.333 -5 28s-7.66602 27.334 -12.999 44.001l-93 276h-516l-69 -229c-4 -12 -7.16699 -25 -9.5 -39s-3.5 -28.333 -3.5 -43c0 -44 11.333 -76.5 34 -97.5
s57.334 -31.5 104.001 -31.5h20v-72h-432zM849.998 1585l-73.999 0.000976562l-301 174c-32 19.333 -54 36 -66 50s-18 29.333 -18 46c0 20.667 7.5 38.167 22.5 52.5s32.833 21.5 53.5 21.5c16.667 0 34.167 -4.83301 52.5 -14.5s36.166 -23.834 53.499 -42.501z" />
    <glyph glyph-name="Aacute" unicode="&#xc1;" horiz-adv-x="1366" 
d="M387 606h451l-224 699zM0 0l-0.00195312 71.9971c48.667 2.66699 86.167 16.5 112.5 41.5s51.5 73.833 75.5 146.5l390 1198l161 53l435 -1296c9.33301 -29.333 19.833 -53.666 31.5 -72.999s24.834 -34.666 39.501 -45.999c10 -7.33301 23 -12.833 39 -16.5
s40 -6.16699 72 -7.5v-72h-543v72h14c57.333 0 97.666 7 120.999 21s35 37.667 35 71c0 6 -1.66699 15.333 -5 28s-7.66602 27.334 -12.999 44.001l-93 276h-516l-69 -229c-4 -12 -7.16699 -25 -9.5 -39s-3.5 -28.333 -3.5 -43c0 -44 11.333 -76.5 34 -97.5
s57.334 -31.5 104.001 -31.5h20v-72h-432zM497.998 1587l276 284.999c17.333 18.667 35.5 32.834 54.5 42.501s37.167 14.5 54.5 14.5c20.667 0 38 -7 52 -21s21 -31.667 21 -53c0 -16 -5.5 -30.667 -16.5 -44s-33.5 -30 -67.5 -50l-299 -174h-75z" />
    <glyph glyph-name="Acircumflex" unicode="&#xc2;" horiz-adv-x="1366" 
d="M387 606h451l-224 699zM0 0l-0.00195312 71.9971c48.667 2.66699 86.167 16.5 112.5 41.5s51.5 73.833 75.5 146.5l390 1198l161 53l435 -1296c9.33301 -29.333 19.833 -53.666 31.5 -72.999s24.834 -34.666 39.501 -45.999c10 -7.33301 23 -12.833 39 -16.5
s40 -6.16699 72 -7.5v-72h-543v72h14c57.333 0 97.666 7 120.999 21s35 37.667 35 71c0 6 -1.66699 15.333 -5 28s-7.66602 27.334 -12.999 44.001l-93 276h-516l-69 -229c-4 -12 -7.16699 -25 -9.5 -39s-3.5 -28.333 -3.5 -43c0 -44 11.333 -76.5 34 -97.5
s57.334 -31.5 104.001 -31.5h20v-72h-432zM380.998 1589l227 332h133l228 -332h-74l-221 187l-221 -187h-72z" />
    <glyph glyph-name="Atilde" unicode="&#xc3;" horiz-adv-x="1366" 
d="M387 606h451l-224 699zM0 0l-0.00195312 71.9971c48.667 2.66699 86.167 16.5 112.5 41.5s51.5 73.833 75.5 146.5l390 1198l161 53l435 -1296c9.33301 -29.333 19.833 -53.666 31.5 -72.999s24.834 -34.666 39.501 -45.999c10 -7.33301 23 -12.833 39 -16.5
s40 -6.16699 72 -7.5v-72h-543v72h14c57.333 0 97.666 7 120.999 21s35 37.667 35 71c0 6 -1.66699 15.333 -5 28s-7.66602 27.334 -12.999 44.001l-93 276h-516l-69 -229c-4 -12 -7.16699 -25 -9.5 -39s-3.5 -28.333 -3.5 -43c0 -44 11.333 -76.5 34 -97.5
s57.334 -31.5 104.001 -31.5h20v-72h-432zM955.998 1911c-14 -71.333 -37.1699 -125.332 -69.5029 -161.999s-73.166 -55 -122.499 -55c-8.66699 0 -17.5 0.5 -26.5 1.5s-18.167 2.5 -27.5 4.5l-105 24c-14 4 -25.833 6.83301 -35.5 8.5s-17.834 2.5 -24.501 2.5
c-24.667 0 -44.667 -6.83301 -60 -20.5s-27.666 -35.5 -36.999 -65.5h-57c14.667 73.333 38.334 128.166 71.001 164.499s75.334 54.5 128.001 54.5c10.667 0 21.334 -0.666992 32.001 -2s21 -3.33301 31 -6l106 -25c8.66699 -2 17.167 -3.5 25.5 -4.5
s17.166 -1.5 26.499 -1.5c22 0 40.5 6.83301 55.5 20.5s25.833 34.167 32.5 61.5h57z" />
    <glyph glyph-name="Adieresis" unicode="&#xc4;" horiz-adv-x="1366" 
d="M387 606h451l-224 699zM0 0l-0.00195312 71.9971c48.667 2.66699 86.167 16.5 112.5 41.5s51.5 73.833 75.5 146.5l390 1198l161 53l435 -1296c9.33301 -29.333 19.833 -53.666 31.5 -72.999s24.834 -34.666 39.501 -45.999c10 -7.33301 23 -12.833 39 -16.5
s40 -6.16699 72 -7.5v-72h-543v72h14c57.333 0 97.666 7 120.999 21s35 37.667 35 71c0 6 -1.66699 15.333 -5 28s-7.66602 27.334 -12.999 44.001l-93 276h-516l-69 -229c-4 -12 -7.16699 -25 -9.5 -39s-3.5 -28.333 -3.5 -43c0 -44 11.333 -76.5 34 -97.5
s57.334 -31.5 104.001 -31.5h20v-72h-432zM753.998 1772c0 30 11.167 56.167 33.5 78.5s48.5 33.5 78.5 33.5c30.667 0 57.167 -11 79.5 -33s33.5 -48.333 33.5 -79c0 -33.333 -10.667 -60.5 -32 -81.5s-48.333 -31.5 -81 -31.5c-32 0 -58.667 10.667 -80 32
s-32 48.333 -32 81zM368.998 1772c0 29.333 11.333 55.333 34 78s49.334 34 80.001 34s56.834 -11 78.501 -33s32.5 -48.333 32.5 -79c0 -33.333 -10.333 -60.5 -31 -81.5s-47.334 -31.5 -80.001 -31.5s-59.834 10.667 -81.501 32s-32.5 48.333 -32.5 81z" />
    <glyph glyph-name="Aring" unicode="&#xc5;" horiz-adv-x="1366" 
d="M514 1724c0 -39.333 13.833 -72.667 41.5 -100s61.5 -41 101.5 -41s73.667 13.667 101 41s41 60.666 41 99.999c0 40.667 -13.667 74.834 -41 102.501s-61 41.5 -101 41.5c-39.333 0 -73 -14 -101 -42s-42 -62 -42 -102zM420 1726c0 66.667 23.167 123 69.5 169
s102.166 69 167.499 69c66.667 0 123 -23 169 -69s69 -102.333 69 -169c0 -65.333 -23 -121.166 -69 -167.499s-102.333 -69.5 -169 -69.5c-65.333 0 -121.166 23.167 -167.499 69.5s-69.5 102.166 -69.5 167.499zM387 605.999h451l-211 662l-27 -11zM0 -0.000976562
l-0.000976562 71c48.667 2.66699 86.167 16.5 112.5 41.5s51.5 74.167 75.5 147.5l367 1122l207 66l412 -1233c10 -31.333 20.667 -56.333 32 -75s24.333 -33.334 39 -44.001c10 -7.33301 23 -12.833 39 -16.5s40 -6.16699 72 -7.5v-72h-543v72h14
c57.333 0 97.666 7 120.999 21s35 37.667 35 71c0 6 -1.66699 15.333 -5 28s-7.66602 27.334 -12.999 44.001l-93 276h-516l-69 -229c-4 -12 -7.16699 -25 -9.5 -39s-3.5 -28.333 -3.5 -43c0 -44 11.333 -76.5 34 -97.5s57.334 -31.5 104.001 -31.5h20v-72h-432z" />
    <glyph glyph-name="AE" unicode="&#xc6;" horiz-adv-x="2009" 
d="M702 0l-0.00488281 72h37c64 0 106 10.5 126 31.5s30 69.833 30 146.5v264h-471l-113 -221c-11.333 -22.667 -20.333 -45 -27 -67s-10 -41.333 -10 -58c0 -31.333 11.333 -54.333 34 -69s61.334 -24 116.001 -28v-71h-442v72c48 5.33301 89.333 24.333 124 57
s76.334 98.334 125.001 197.001l453 888c14.667 30 25.167 53.5 31.5 70.5s9.5 30.5 9.5 40.5c0 28 -13.333 48.5 -40 61.5s-70 20.833 -130 23.5v65h1178l143 -347l-57 -22c-90 116.667 -172 196.667 -246 240s-163.333 65 -268 65c-84.667 0 -140.667 -11.167 -168 -33.5
s-41 -67.833 -41 -136.5v-434h129c80 0 141.833 19.5 185.5 58.5s71.834 100.167 84.501 183.5h70v-570h-70c-9.33301 85.333 -36.166 148.666 -80.499 189.999s-107.5 62 -189.5 62h-129v-506c0 -56 12.333 -94.5 37 -115.5s69 -31.5 133 -31.5
c126.667 0 238.834 26.5 336.501 79.5s186.167 135.833 265.5 248.5l59 -21l-141 -385h-1084zM470.995 604h424v807h-12z" />
    <glyph glyph-name="Ccedilla" unicode="&#xc7;" horiz-adv-x="1366" 
d="M1223 434l59.0029 -43.0029c-59.333 -142 -135.166 -248.167 -227.499 -318.5s-202.166 -105.5 -329.499 -105.5c-188.667 0 -340.334 67.333 -455.001 202s-172 313.334 -172 536.001c0 108 16.667 212.167 50 312.5s81.666 191.833 144.999 274.5
c52 68 113.333 119.833 184 155.5s145.667 53.5 225 53.5c31.333 0 66.166 -3.66699 104.499 -11s82.166 -18.666 131.499 -33.999l170 45l141 -366l-53 -33c-89.333 113.333 -171.5 195.833 -246.5 247.5s-149.167 77.5 -222.5 77.5
c-126.667 0 -229.334 -57.667 -308.001 -173s-118 -268.333 -118 -459c0 -206 44.833 -371.167 134.5 -495.5s207.167 -186.5 352.5 -186.5c92.667 0 174.5 26.333 245.5 79s134.167 133.334 189.5 242.001zM433.003 -379.003l36.0029 89.999
c40 -25.333 80 -44.666 120 -57.999s77.333 -20 112 -20c38 0 66.167 7.5 84.5 22.5s27.5 37.833 27.5 68.5c0 28.667 -9.16699 50.167 -27.5 64.5s-45.833 21.5 -82.5 21.5c-8.66699 0 -18.334 -0.666992 -29.001 -2l-33 -4v196h66v-115
c7.33301 1.33301 15.166 2.33301 23.499 3s20.833 1 37.5 1c58.667 0 104.5 -14.5 137.5 -43.5s49.5 -69.5 49.5 -121.5c0 -56 -19.833 -99.833 -59.5 -131.5s-94.834 -47.5 -165.501 -47.5c-39.333 0 -83 6.16699 -131 18.5s-103.333 31.5 -166 57.5z" />
    <glyph glyph-name="Egrave" unicode="&#xc8;" horiz-adv-x="1366" 
d="M66 0v72h34c65.333 0 108.333 11 129 33s31 73 31 153v961c0 82 -10.167 132.833 -30.5 152.5s-65.5 29.5 -135.5 29.5h-28v74h1028l145 -347l-57 -22c-90 116.667 -172 196.667 -246 240s-163.333 65 -268 65c-84.667 0 -140.667 -11.167 -168 -33.5
s-41 -67.833 -41 -136.5v-434h102c94 0 163.667 18.667 209 56s74.666 99.333 87.999 186h70v-570h-70c-11.333 90 -39.833 154.5 -85.5 193.5s-116.167 58.5 -211.5 58.5h-102v-506c0 -56 12.333 -94.5 37 -115.5s69 -31.5 133 -31.5c126.667 0 238.834 26.5 336.501 79.5
s186.167 135.833 265.5 248.5l59 -21l-141 -385h-1083zM850 1585l-73.999 0.000976562l-301 174c-32 19.333 -54 36 -66 50s-18 29.333 -18 46c0 20.667 7.5 38.167 22.5 52.5s32.833 21.5 53.5 21.5c16.667 0 34.167 -4.83301 52.5 -14.5s36.166 -23.834 53.499 -42.501z
" />
    <glyph glyph-name="Eacute" unicode="&#xc9;" horiz-adv-x="1366" 
d="M66 0v72h34c65.333 0 108.333 11 129 33s31 73 31 153v961c0 82 -10.167 132.833 -30.5 152.5s-65.5 29.5 -135.5 29.5h-28v74h1028l145 -347l-57 -22c-90 116.667 -172 196.667 -246 240s-163.333 65 -268 65c-84.667 0 -140.667 -11.167 -168 -33.5
s-41 -67.833 -41 -136.5v-434h102c94 0 163.667 18.667 209 56s74.666 99.333 87.999 186h70v-570h-70c-11.333 90 -39.833 154.5 -85.5 193.5s-116.167 58.5 -211.5 58.5h-102v-506c0 -56 12.333 -94.5 37 -115.5s69 -31.5 133 -31.5c126.667 0 238.834 26.5 336.501 79.5
s186.167 135.833 265.5 248.5l59 -21l-141 -385h-1083zM498 1587l276 284.999c17.333 18.667 35.5 32.834 54.5 42.501s37.167 14.5 54.5 14.5c20.667 0 38 -7 52 -21s21 -31.667 21 -53c0 -16 -5.5 -30.667 -16.5 -44s-33.5 -30 -67.5 -50l-299 -174h-75z" />
    <glyph glyph-name="Ecircumflex" unicode="&#xca;" horiz-adv-x="1366" 
d="M66 0v72h34c65.333 0 108.333 11 129 33s31 73 31 153v961c0 82 -10.167 132.833 -30.5 152.5s-65.5 29.5 -135.5 29.5h-28v74h1028l145 -347l-57 -22c-90 116.667 -172 196.667 -246 240s-163.333 65 -268 65c-84.667 0 -140.667 -11.167 -168 -33.5
s-41 -67.833 -41 -136.5v-434h102c94 0 163.667 18.667 209 56s74.666 99.333 87.999 186h70v-570h-70c-11.333 90 -39.833 154.5 -85.5 193.5s-116.167 58.5 -211.5 58.5h-102v-506c0 -56 12.333 -94.5 37 -115.5s69 -31.5 133 -31.5c126.667 0 238.834 26.5 336.501 79.5
s186.167 135.833 265.5 248.5l59 -21l-141 -385h-1083zM381 1589l227 332h133l228 -332h-74l-221 187l-221 -187h-72z" />
    <glyph glyph-name="Edieresis" unicode="&#xcb;" horiz-adv-x="1366" 
d="M66 0v72h34c65.333 0 108.333 11 129 33s31 73 31 153v961c0 82 -10.167 132.833 -30.5 152.5s-65.5 29.5 -135.5 29.5h-28v74h1028l145 -347l-57 -22c-90 116.667 -172 196.667 -246 240s-163.333 65 -268 65c-84.667 0 -140.667 -11.167 -168 -33.5
s-41 -67.833 -41 -136.5v-434h102c94 0 163.667 18.667 209 56s74.666 99.333 87.999 186h70v-570h-70c-11.333 90 -39.833 154.5 -85.5 193.5s-116.167 58.5 -211.5 58.5h-102v-506c0 -56 12.333 -94.5 37 -115.5s69 -31.5 133 -31.5c126.667 0 238.834 26.5 336.501 79.5
s186.167 135.833 265.5 248.5l59 -21l-141 -385h-1083zM754 1772c0 30 11.167 56.167 33.5 78.5s48.5 33.5 78.5 33.5c30.667 0 57.167 -11 79.5 -33s33.5 -48.333 33.5 -79c0 -33.333 -10.667 -60.5 -32 -81.5s-48.333 -31.5 -81 -31.5c-32 0 -58.667 10.667 -80 32
s-32 48.333 -32 81zM369 1772c0 29.333 11.333 55.333 34 78s49.334 34 80.001 34s56.834 -11 78.501 -33s32.5 -48.333 32.5 -79c0 -33.333 -10.333 -60.5 -31 -81.5s-47.334 -31.5 -80.001 -31.5s-59.834 10.667 -81.501 32s-32.5 48.333 -32.5 81z" />
    <glyph glyph-name="Igrave" unicode="&#xcc;" horiz-adv-x="682" 
d="M635 1475l0.000976562 -74h-39c-65.333 0 -108 -10.833 -128 -32.5s-30 -72.167 -30 -151.5v-955c0 -80.667 10.667 -132.5 32 -155.5s64.666 -34.5 129.999 -34.5h35v-72h-588v72h25c68 0 113 10.5 135 31.5s33 71.167 33 150.5v963c0 83.333 -10.333 134.833 -31 154.5
s-65 29.5 -133 29.5h-29v74h588zM508.001 1585l-73.999 0.000976562l-301 174c-32 19.333 -54 36 -66 50s-18 29.333 -18 46c0 20.667 7.5 38.167 22.5 52.5s32.833 21.5 53.5 21.5c16.667 0 34.167 -4.83301 52.5 -14.5s36.166 -23.834 53.499 -42.501z" />
    <glyph glyph-name="Iacute" unicode="&#xcd;" horiz-adv-x="682" 
d="M635 1475l0.000976562 -74h-39c-65.333 0 -108 -10.833 -128 -32.5s-30 -72.167 -30 -151.5v-955c0 -80.667 10.667 -132.5 32 -155.5s64.666 -34.5 129.999 -34.5h35v-72h-588v72h25c68 0 113 10.5 135 31.5s33 71.167 33 150.5v963c0 83.333 -10.333 134.833 -31 154.5
s-65 29.5 -133 29.5h-29v74h588zM156.001 1587l276 284.999c17.333 18.667 35.5 32.834 54.5 42.501s37.167 14.5 54.5 14.5c20.667 0 38 -7 52 -21s21 -31.667 21 -53c0 -16 -5.5 -30.667 -16.5 -44s-33.5 -30 -67.5 -50l-299 -174h-75z" />
    <glyph glyph-name="Icircumflex" unicode="&#xce;" horiz-adv-x="682" 
d="M635 1475l0.000976562 -74h-39c-65.333 0 -108 -10.833 -128 -32.5s-30 -72.167 -30 -151.5v-955c0 -80.667 10.667 -132.5 32 -155.5s64.666 -34.5 129.999 -34.5h35v-72h-588v72h25c68 0 113 10.5 135 31.5s33 71.167 33 150.5v963c0 83.333 -10.333 134.833 -31 154.5
s-65 29.5 -133 29.5h-29v74h588zM39.001 1589l227 332h133l228 -332h-74l-221 187l-221 -187h-72z" />
    <glyph glyph-name="Idieresis" unicode="&#xcf;" horiz-adv-x="682" 
d="M635 1475l0.000976562 -74h-39c-65.333 0 -108 -10.833 -128 -32.5s-30 -72.167 -30 -151.5v-955c0 -80.667 10.667 -132.5 32 -155.5s64.666 -34.5 129.999 -34.5h35v-72h-588v72h25c68 0 113 10.5 135 31.5s33 71.167 33 150.5v963c0 83.333 -10.333 134.833 -31 154.5
s-65 29.5 -133 29.5h-29v74h588zM412.001 1772c0 30 11.167 56.167 33.5 78.5s48.5 33.5 78.5 33.5c30.667 0 57.167 -11 79.5 -33s33.5 -48.333 33.5 -79c0 -33.333 -10.667 -60.5 -32 -81.5s-48.333 -31.5 -81 -31.5c-32 0 -58.667 10.667 -80 32s-32 48.333 -32 81z
M27.001 1772c0 29.333 11.333 55.333 34 78s49.334 34 80.001 34s56.834 -11 78.501 -33s32.5 -48.333 32.5 -79c0 -33.333 -10.333 -60.5 -31 -81.5s-47.334 -31.5 -80.001 -31.5s-59.834 10.667 -81.501 32s-32.5 48.333 -32.5 81z" />
    <glyph glyph-name="Eth" unicode="&#xd0;" horiz-adv-x="1497" 
d="M463 274c0 -84.667 12.5 -139.168 37.5 -163.501s73.167 -36.5 144.5 -36.5c182 0 315.667 52.667 401 158s128 270.333 128 495c0 239.333 -40.5 412.833 -121.5 520.5s-211.167 161.5 -390.5 161.5c-81.333 0 -134.833 -13.667 -160.5 -41
s-38.5 -84.666 -38.5 -171.999v-393h336v-86h-336v-443zM74 -0.000976562l-0.00195312 72h32c66 0 109.167 11.167 129.5 33.5s30.5 78.5 30.5 168.5v443h-256v86h256v403c0 90 -10 145 -30 165s-61.667 30 -125 30h-37v74h436c154.667 0 266.834 -5.5 336.501 -16.5
s130.834 -29.5 183.501 -55.5c118.667 -58 210.167 -144.833 274.5 -260.5s96.5 -251.5 96.5 -407.5c0 -119.333 -21.833 -229.166 -65.5 -329.499s-105.834 -183.5 -186.501 -249.5c-69.333 -56.667 -147.666 -96.834 -234.999 -120.501s-219.333 -35.5 -396 -35.5h-444z
" />
    <glyph glyph-name="Ntilde" unicode="&#xd1;" horiz-adv-x="1479" 
d="M362 1475l803.001 -1147v805c0 95.333 -16.167 162.5 -48.5 201.5s-87.166 59.167 -164.499 60.5v80h516v-80c-76.667 -1.33301 -131.334 -21.5 -164.001 -60.5s-49 -106.167 -49 -201.5v-1166h-71l-871 1254v-879c0 -95.333 16.167 -162.5 48.5 -201.5
s87.166 -59.167 164.499 -60.5v-80h-516l1 80c77.333 1.33301 132 21.5 164 60.5s48 106.167 48 201.5v973c-24 26.667 -53.167 47 -87.5 61s-75.833 22.333 -124.5 25l-1 74h352zM1042 1911c-14 -71.333 -37.1699 -125.332 -69.5029 -161.999s-73.166 -55 -122.499 -55
c-8.66699 0 -17.5 0.5 -26.5 1.5s-18.167 2.5 -27.5 4.5l-105 24c-14 4 -25.833 6.83301 -35.5 8.5s-17.834 2.5 -24.501 2.5c-24.667 0 -44.667 -6.83301 -60 -20.5s-27.666 -35.5 -36.999 -65.5h-57c14.667 73.333 38.334 128.166 71.001 164.499
s75.334 54.5 128.001 54.5c10.667 0 21.334 -0.666992 32.001 -2s21 -3.33301 31 -6l106 -25c8.66699 -2 17.167 -3.5 25.5 -4.5s17.166 -1.5 26.499 -1.5c22 0 40.5 6.83301 55.5 20.5s25.833 34.167 32.5 61.5h57z" />
    <glyph glyph-name="Ograve" unicode="&#xd2;" horiz-adv-x="1473" 
d="M319 721c0 -215.333 36.333 -383.167 109 -503.5s173 -180.5 301 -180.5c133.333 0 237.333 61.5 312 184.5s112 294.833 112 515.5c0 216.667 -36.667 387 -110 511s-174 186 -302 186c-134.667 0 -238.667 -61.667 -312 -185s-110 -299.333 -110 -528zM98 724.999
c0 120 18.332 229.667 54.999 329s90.667 186.333 162 261c58 60.667 123.333 107.167 196 139.5s148 48.5 226 48.5c80 0 156.5 -17.167 229.5 -51.5s142.167 -85.5 207.5 -153.5c62.667 -66 111.334 -149 146.001 -249s52 -208 52 -324
c0 -117.333 -19 -224.833 -57 -322.5s-94.667 -184.167 -170 -259.5c-56.667 -57.333 -119.334 -101 -188.001 -131s-140.667 -45 -216 -45c-78 0 -150.167 13.167 -216.5 39.5s-128.5 66.5 -186.5 120.5c-81.333 75.333 -141.666 161.833 -180.999 259.5
s-59 210.5 -59 338.5zM902.999 1585l-73.999 0.000976562l-301 174c-32 19.333 -54 36 -66 50s-18 29.333 -18 46c0 20.667 7.5 38.167 22.5 52.5s32.833 21.5 53.5 21.5c16.667 0 34.167 -4.83301 52.5 -14.5s36.166 -23.834 53.499 -42.501z" />
    <glyph glyph-name="Oacute" unicode="&#xd3;" horiz-adv-x="1473" 
d="M319 721c0 -215.333 36.333 -383.167 109 -503.5s173 -180.5 301 -180.5c133.333 0 237.333 61.5 312 184.5s112 294.833 112 515.5c0 216.667 -36.667 387 -110 511s-174 186 -302 186c-134.667 0 -238.667 -61.667 -312 -185s-110 -299.333 -110 -528zM98 724.999
c0 120 18.332 229.667 54.999 329s90.667 186.333 162 261c58 60.667 123.333 107.167 196 139.5s148 48.5 226 48.5c80 0 156.5 -17.167 229.5 -51.5s142.167 -85.5 207.5 -153.5c62.667 -66 111.334 -149 146.001 -249s52 -208 52 -324
c0 -117.333 -19 -224.833 -57 -322.5s-94.667 -184.167 -170 -259.5c-56.667 -57.333 -119.334 -101 -188.001 -131s-140.667 -45 -216 -45c-78 0 -150.167 13.167 -216.5 39.5s-128.5 66.5 -186.5 120.5c-81.333 75.333 -141.666 161.833 -180.999 259.5
s-59 210.5 -59 338.5zM550.999 1587l276 284.999c17.333 18.667 35.5 32.834 54.5 42.501s37.167 14.5 54.5 14.5c20.667 0 38 -7 52 -21s21 -31.667 21 -53c0 -16 -5.5 -30.667 -16.5 -44s-33.5 -30 -67.5 -50l-299 -174h-75z" />
    <glyph glyph-name="Ocircumflex" unicode="&#xd4;" horiz-adv-x="1473" 
d="M319 721c0 -215.333 36.333 -383.167 109 -503.5s173 -180.5 301 -180.5c133.333 0 237.333 61.5 312 184.5s112 294.833 112 515.5c0 216.667 -36.667 387 -110 511s-174 186 -302 186c-134.667 0 -238.667 -61.667 -312 -185s-110 -299.333 -110 -528zM98 724.999
c0 120 18.332 229.667 54.999 329s90.667 186.333 162 261c58 60.667 123.333 107.167 196 139.5s148 48.5 226 48.5c80 0 156.5 -17.167 229.5 -51.5s142.167 -85.5 207.5 -153.5c62.667 -66 111.334 -149 146.001 -249s52 -208 52 -324
c0 -117.333 -19 -224.833 -57 -322.5s-94.667 -184.167 -170 -259.5c-56.667 -57.333 -119.334 -101 -188.001 -131s-140.667 -45 -216 -45c-78 0 -150.167 13.167 -216.5 39.5s-128.5 66.5 -186.5 120.5c-81.333 75.333 -141.666 161.833 -180.999 259.5
s-59 210.5 -59 338.5zM433.999 1589l227 332h133l228 -332h-74l-221 187l-221 -187h-72z" />
    <glyph glyph-name="Otilde" unicode="&#xd5;" horiz-adv-x="1473" 
d="M319 721c0 -215.333 36.333 -383.167 109 -503.5s173 -180.5 301 -180.5c133.333 0 237.333 61.5 312 184.5s112 294.833 112 515.5c0 216.667 -36.667 387 -110 511s-174 186 -302 186c-134.667 0 -238.667 -61.667 -312 -185s-110 -299.333 -110 -528zM98 724.999
c0 120 18.332 229.667 54.999 329s90.667 186.333 162 261c58 60.667 123.333 107.167 196 139.5s148 48.5 226 48.5c80 0 156.5 -17.167 229.5 -51.5s142.167 -85.5 207.5 -153.5c62.667 -66 111.334 -149 146.001 -249s52 -208 52 -324
c0 -117.333 -19 -224.833 -57 -322.5s-94.667 -184.167 -170 -259.5c-56.667 -57.333 -119.334 -101 -188.001 -131s-140.667 -45 -216 -45c-78 0 -150.167 13.167 -216.5 39.5s-128.5 66.5 -186.5 120.5c-81.333 75.333 -141.666 161.833 -180.999 259.5
s-59 210.5 -59 338.5zM1009 1911c-14 -71.333 -37.1699 -125.332 -69.5029 -161.999s-73.166 -55 -122.499 -55c-8.66699 0 -17.5 0.5 -26.5 1.5s-18.167 2.5 -27.5 4.5l-105 24c-14 4 -25.833 6.83301 -35.5 8.5s-17.834 2.5 -24.501 2.5
c-24.667 0 -44.667 -6.83301 -60 -20.5s-27.666 -35.5 -36.999 -65.5h-57c14.667 73.333 38.334 128.166 71.001 164.499s75.334 54.5 128.001 54.5c10.667 0 21.334 -0.666992 32.001 -2s21 -3.33301 31 -6l106 -25c8.66699 -2 17.167 -3.5 25.5 -4.5
s17.166 -1.5 26.499 -1.5c22 0 40.5 6.83301 55.5 20.5s25.833 34.167 32.5 61.5h57z" />
    <glyph glyph-name="Odieresis" unicode="&#xd6;" horiz-adv-x="1473" 
d="M319 721c0 -215.333 36.333 -383.167 109 -503.5s173 -180.5 301 -180.5c133.333 0 237.333 61.5 312 184.5s112 294.833 112 515.5c0 216.667 -36.667 387 -110 511s-174 186 -302 186c-134.667 0 -238.667 -61.667 -312 -185s-110 -299.333 -110 -528zM98 724.999
c0 120 18.332 229.667 54.999 329s90.667 186.333 162 261c58 60.667 123.333 107.167 196 139.5s148 48.5 226 48.5c80 0 156.5 -17.167 229.5 -51.5s142.167 -85.5 207.5 -153.5c62.667 -66 111.334 -149 146.001 -249s52 -208 52 -324
c0 -117.333 -19 -224.833 -57 -322.5s-94.667 -184.167 -170 -259.5c-56.667 -57.333 -119.334 -101 -188.001 -131s-140.667 -45 -216 -45c-78 0 -150.167 13.167 -216.5 39.5s-128.5 66.5 -186.5 120.5c-81.333 75.333 -141.666 161.833 -180.999 259.5
s-59 210.5 -59 338.5zM806.999 1772c0 30 11.167 56.167 33.5 78.5s48.5 33.5 78.5 33.5c30.667 0 57.167 -11 79.5 -33s33.5 -48.333 33.5 -79c0 -33.333 -10.667 -60.5 -32 -81.5s-48.333 -31.5 -81 -31.5c-32 0 -58.667 10.667 -80 32s-32 48.333 -32 81zM421.999 1772
c0 29.333 11.333 55.333 34 78s49.334 34 80.001 34s56.834 -11 78.501 -33s32.5 -48.333 32.5 -79c0 -33.333 -10.333 -60.5 -31 -81.5s-47.334 -31.5 -80.001 -31.5s-59.834 10.667 -81.501 32s-32.5 48.333 -32.5 81z" />
    <glyph glyph-name="multiply" unicode="&#xd7;" horiz-adv-x="1706" 
d="M381 1169l477 -477l475 477l82 -82l-475 -477l475 -475l-82 -82l-475 475l-477 -475l-80 82l475 475l-475 477z" />
    <glyph glyph-name="Oslash" unicode="&#xd8;" horiz-adv-x="1473" 
d="M436 215c36 -59.333 78.5 -103.832 127.5 -133.499s104.167 -44.5 165.5 -44.5c133.333 0 237.333 61.5 312 184.5s112 294.833 112 515.5c0 84 -7.5 165.667 -22.5 245s-37.5 156.666 -67.5 231.999zM393 303.001l625 993c-38 46 -80 80.5 -126 103.5
s-96.333 34.5 -151 34.5c-134.667 0 -238.667 -61.667 -312 -185s-110 -299.333 -110 -528c0 -101.333 6.33301 -187.333 19 -258s31 -124 55 -160zM369 100.001l-150 -236.999h-98l182 295c-69.333 72 -120.833 154.667 -154.5 248s-50.5 199.666 -50.5 318.999
c0 120 18.333 229.333 55 328s91.334 186 164.001 262c58.667 61.333 123.834 108 195.501 140s146.5 48 224.5 48c63.333 0 123.833 -10 181.5 -30s110.5 -49.667 158.5 -89l115 189h96l-149 -236c76 -74 133.833 -163 173.5 -267s59.5 -219 59.5 -345
c0 -117.333 -19 -224.833 -57 -322.5s-94.667 -184.167 -170 -259.5c-56.667 -57.333 -119.334 -101 -188.001 -131s-140.667 -45 -216 -45c-70 0 -135.333 10.833 -196 32.5s-119.334 55.167 -176.001 100.5z" />
    <glyph glyph-name="Ugrave" unicode="&#xd9;" horiz-adv-x="1479" 
d="M975 1395l0.000976562 77.999h477v-78c-70 -4 -119.5 -25.5 -148.5 -64.5s-43.5 -104.833 -43.5 -197.5v-584c0 -199.333 -41.5 -346.166 -124.5 -440.499s-211.5 -141.5 -385.5 -141.5c-172 0 -301.833 44.167 -389.5 132.5s-131.5 219.833 -131.5 394.5v731
c0 72 -10.667 119.333 -32 142s-64.333 34 -129 34h-35v72h590v-72h-37c-64.667 0 -107.167 -10.833 -127.5 -32.5s-30.5 -71.5 -30.5 -149.5v-758c0 -135.333 30 -236.5 90 -303.5s151 -100.5 273 -100.5c126.667 0 221 38.167 283 114.5s93 191.833 93 346.5v615
c0 93.333 -14.333 159.333 -43 198s-78.334 60 -149.001 64zM950.001 1585l-73.999 0.000976562l-301 174c-32 19.333 -54 36 -66 50s-18 29.333 -18 46c0 20.667 7.5 38.167 22.5 52.5s32.833 21.5 53.5 21.5c16.667 0 34.167 -4.83301 52.5 -14.5
s36.166 -23.834 53.499 -42.501z" />
    <glyph glyph-name="Uacute" unicode="&#xda;" horiz-adv-x="1479" 
d="M975 1395l0.000976562 77.999h477v-78c-70 -4 -119.5 -25.5 -148.5 -64.5s-43.5 -104.833 -43.5 -197.5v-584c0 -199.333 -41.5 -346.166 -124.5 -440.499s-211.5 -141.5 -385.5 -141.5c-172 0 -301.833 44.167 -389.5 132.5s-131.5 219.833 -131.5 394.5v731
c0 72 -10.667 119.333 -32 142s-64.333 34 -129 34h-35v72h590v-72h-37c-64.667 0 -107.167 -10.833 -127.5 -32.5s-30.5 -71.5 -30.5 -149.5v-758c0 -135.333 30 -236.5 90 -303.5s151 -100.5 273 -100.5c126.667 0 221 38.167 283 114.5s93 191.833 93 346.5v615
c0 93.333 -14.333 159.333 -43 198s-78.334 60 -149.001 64zM598.001 1587l276 284.999c17.333 18.667 35.5 32.834 54.5 42.501s37.167 14.5 54.5 14.5c20.667 0 38 -7 52 -21s21 -31.667 21 -53c0 -16 -5.5 -30.667 -16.5 -44s-33.5 -30 -67.5 -50l-299 -174h-75z" />
    <glyph glyph-name="Ucircumflex" unicode="&#xdb;" horiz-adv-x="1479" 
d="M975 1395l0.000976562 77.999h477v-78c-70 -4 -119.5 -25.5 -148.5 -64.5s-43.5 -104.833 -43.5 -197.5v-584c0 -199.333 -41.5 -346.166 -124.5 -440.499s-211.5 -141.5 -385.5 -141.5c-172 0 -301.833 44.167 -389.5 132.5s-131.5 219.833 -131.5 394.5v731
c0 72 -10.667 119.333 -32 142s-64.333 34 -129 34h-35v72h590v-72h-37c-64.667 0 -107.167 -10.833 -127.5 -32.5s-30.5 -71.5 -30.5 -149.5v-758c0 -135.333 30 -236.5 90 -303.5s151 -100.5 273 -100.5c126.667 0 221 38.167 283 114.5s93 191.833 93 346.5v615
c0 93.333 -14.333 159.333 -43 198s-78.334 60 -149.001 64zM481.001 1589l227 332h133l228 -332h-74l-221 187l-221 -187h-72z" />
    <glyph glyph-name="Udieresis" unicode="&#xdc;" horiz-adv-x="1479" 
d="M975 1395l0.000976562 77.999h477v-78c-70 -4 -119.5 -25.5 -148.5 -64.5s-43.5 -104.833 -43.5 -197.5v-584c0 -199.333 -41.5 -346.166 -124.5 -440.499s-211.5 -141.5 -385.5 -141.5c-172 0 -301.833 44.167 -389.5 132.5s-131.5 219.833 -131.5 394.5v731
c0 72 -10.667 119.333 -32 142s-64.333 34 -129 34h-35v72h590v-72h-37c-64.667 0 -107.167 -10.833 -127.5 -32.5s-30.5 -71.5 -30.5 -149.5v-758c0 -135.333 30 -236.5 90 -303.5s151 -100.5 273 -100.5c126.667 0 221 38.167 283 114.5s93 191.833 93 346.5v615
c0 93.333 -14.333 159.333 -43 198s-78.334 60 -149.001 64zM854.001 1772c0 30 11.167 56.167 33.5 78.5s48.5 33.5 78.5 33.5c30.667 0 57.167 -11 79.5 -33s33.5 -48.333 33.5 -79c0 -33.333 -10.667 -60.5 -32 -81.5s-48.333 -31.5 -81 -31.5
c-32 0 -58.667 10.667 -80 32s-32 48.333 -32 81zM469.001 1772c0 29.333 11.333 55.333 34 78s49.334 34 80.001 34s56.834 -11 78.501 -33s32.5 -48.333 32.5 -79c0 -33.333 -10.333 -60.5 -31 -81.5s-47.334 -31.5 -80.001 -31.5s-59.834 10.667 -81.501 32
s-32.5 48.333 -32.5 81z" />
    <glyph glyph-name="Yacute" unicode="&#xdd;" horiz-adv-x="1251" 
d="M522 602l-355.999 702.999c-20 38 -41 63.333 -63 76s-55.667 20 -101 22l2 72h508v-72h-18c-47.333 0 -81.833 -4.16699 -103.5 -12.5s-32.5 -21.166 -32.5 -38.499c0 -7.33301 2 -16.333 6 -27s12.333 -27.667 25 -51l289 -553l254 506c8 16 14 31.167 18 45.5
s6 27.833 6 40.5c0 30 -12.667 52.5 -38 67.5s-64.333 22.5 -117 22.5l2 72h426v-72c-74.667 -8.66699 -134.334 -56 -179.001 -142c-4 -8.66699 -7 -15 -9 -19l-320 -613v-385c0 -70 10.5 -116.167 31.5 -138.5s63.833 -33.5 128.5 -33.5h37v-72h-588v72h37
c62.667 0 104.167 10.5 124.5 31.5s30.5 68.5 30.5 142.5v356zM441.001 1587l276 284.999c17.333 18.667 35.5 32.834 54.5 42.501s37.167 14.5 54.5 14.5c20.667 0 38 -7 52 -21s21 -31.667 21 -53c0 -16 -5.5 -30.667 -16.5 -44s-33.5 -30 -67.5 -50l-299 -174h-75z" />
    <glyph glyph-name="Thorn" unicode="&#xde;" horiz-adv-x="1251" 
d="M459 930v-465h221c98.667 0 175.167 27.333 229.5 82s81.5 131.667 81.5 231c0 110 -26.5 193.167 -79.5 249.5s-131.5 84.5 -235.5 84.5c-85.333 0 -142.833 -11 -172.5 -33s-44.5 -71.667 -44.5 -149zM66 72l36.001 -0.00195312c63.333 0 105.166 10.333 125.499 31
s30.5 69 30.5 145v973c0 81.333 -10.167 131.666 -30.5 150.999s-64.833 29 -133.5 29h-28v74h585v-74h-28c-69.333 0 -114 -9.66699 -134 -29s-30 -69.666 -30 -150.999v-37h192c176.667 0 313.667 -36.167 411 -108.5s146 -173.5 146 -303.5
c0 -123.333 -44.833 -218.666 -134.5 -285.999s-217.5 -101 -383.5 -101h-231v-133c0 -77.333 10.167 -126.666 30.5 -147.999s62.5 -32 126.5 -32h37v-72h-587v72z" />
    <glyph glyph-name="germandbls" unicode="&#xdf;" horiz-adv-x="1063" 
d="M29 0l-0.00488281 72.002c54 3.33301 90.333 14.666 109 33.999s28 66.666 28 141.999v723c0 184 30.5 318.667 91.5 404s156.833 128 287.5 128c114.667 0 206.167 -31.833 274.5 -95.5s102.5 -149.167 102.5 -256.5c0 -80.667 -22.167 -147.5 -66.5 -200.5
s-108.166 -89.167 -191.499 -108.5c108 -28 188.5 -80.333 241.5 -157s79.5 -179.334 79.5 -308.001c0 -126.667 -29 -226.334 -87 -299.001s-137.667 -109 -239 -109c-68 0 -123.167 17 -165.5 51s-63.5 78 -63.5 132c0 36.667 9.83301 65.5 29.5 86.5
s46.834 31.5 81.501 31.5c30.667 0 54.667 -9.33301 72 -28s26 -44.667 26 -78c0 -22.667 -8.16699 -43.667 -24.5 -63s-24.5 -30.333 -24.5 -33c0 -7.33301 5.83301 -14.666 17.5 -21.999s24.834 -11 39.501 -11c51.333 0 89.5 29.167 114.5 87.5s37.5 147.833 37.5 268.5
c0 141.333 -20.667 246.666 -62 315.999s-104 104 -188 104c-0.666992 0 -3 -0.333008 -7 -1s-7.33301 -1 -10 -1c-17.333 0 -30.166 2.83301 -38.499 8.5s-12.5 14.5 -12.5 26.5s4.16699 20.5 12.5 25.5s23.5 7.5 45.5 7.5c77.333 0 132.833 20.833 166.5 62.5
s50.5 110.834 50.5 207.501c0 96 -19.333 170.833 -58 224.5s-91.667 80.5 -159 80.5c-71.333 0 -123.666 -30.167 -156.999 -90.5s-50 -155.166 -50 -284.499v-1077h-303z" />
    <glyph glyph-name="agrave" unicode="&#xe0;" horiz-adv-x="909" 
d="M588 172l0.000976562 354c-116.667 -33.333 -206.334 -77.666 -269.001 -132.999s-94 -117.333 -94 -186c0 -44 13.333 -79.333 40 -106s62.667 -40 108 -40c28 0 59.5 9.16699 94.5 27.5s75.167 46.166 120.5 83.499zM848.001 106l40.999 -40
c-22.667 -32 -47.667 -55.833 -75 -71.5s-57.666 -23.5 -90.999 -23.5c-36.667 0 -65.667 10.167 -87 30.5s-36 51.833 -44 94.5c-41.333 -40 -87.5 -70.5 -138.5 -91.5s-105.167 -31.5 -162.5 -31.5c-74.667 0 -135 21.167 -181 63.5s-69 97.833 -69 166.5
c0 86.667 44.5 162.167 133.5 226.5s226.833 120.5 413.5 168.5v109c0 72 -12.667 125.5 -38 160.5s-64 52.5 -116 52.5c-38 0 -67.167 -7.16699 -87.5 -21.5s-40.166 -45.5 -59.499 -93.5c-18.667 -44.667 -36 -73.334 -52 -86.001s-37.667 -19 -65 -19
c-28 0 -51 8.5 -69 25.5s-27 38.833 -27 65.5c0 52.667 34.667 98.834 104 138.501s154.666 59.5 255.999 59.5c116 0 196.833 -22 242.5 -66s68.5 -122.333 68.5 -235v-547c0 -28.667 2.66699 -48 8 -58s14.333 -15 27 -15c8 0 17 2.83301 27 8.5s23.667 15.5 41 29.5z
M610 1073l-73.999 0.000976562l-301 174c-32 19.333 -54 36 -66 50s-18 29.333 -18 46c0 20.667 7.5 38.167 22.5 52.5s32.833 21.5 53.5 21.5c16.667 0 34.167 -4.83301 52.5 -14.5s36.166 -23.834 53.499 -42.501z" />
    <glyph glyph-name="aacute" unicode="&#xe1;" horiz-adv-x="909" 
d="M588 172l0.000976562 354c-116.667 -33.333 -206.334 -77.666 -269.001 -132.999s-94 -117.333 -94 -186c0 -44 13.333 -79.333 40 -106s62.667 -40 108 -40c28 0 59.5 9.16699 94.5 27.5s75.167 46.166 120.5 83.499zM848.001 106l40.999 -40
c-22.667 -32 -47.667 -55.833 -75 -71.5s-57.666 -23.5 -90.999 -23.5c-36.667 0 -65.667 10.167 -87 30.5s-36 51.833 -44 94.5c-41.333 -40 -87.5 -70.5 -138.5 -91.5s-105.167 -31.5 -162.5 -31.5c-74.667 0 -135 21.167 -181 63.5s-69 97.833 -69 166.5
c0 86.667 44.5 162.167 133.5 226.5s226.833 120.5 413.5 168.5v109c0 72 -12.667 125.5 -38 160.5s-64 52.5 -116 52.5c-38 0 -67.167 -7.16699 -87.5 -21.5s-40.166 -45.5 -59.499 -93.5c-18.667 -44.667 -36 -73.334 -52 -86.001s-37.667 -19 -65 -19
c-28 0 -51 8.5 -69 25.5s-27 38.833 -27 65.5c0 52.667 34.667 98.834 104 138.501s154.666 59.5 255.999 59.5c116 0 196.833 -22 242.5 -66s68.5 -122.333 68.5 -235v-547c0 -28.667 2.66699 -48 8 -58s14.333 -15 27 -15c8 0 17 2.83301 27 8.5s23.667 15.5 41 29.5z
M258 1075l276 284.999c17.333 18.667 35.5 32.834 54.5 42.501s37.167 14.5 54.5 14.5c20.667 0 38 -7 52 -21s21 -31.667 21 -53c0 -16 -5.5 -30.667 -16.5 -44s-33.5 -30 -67.5 -50l-299 -174h-75z" />
    <glyph glyph-name="acircumflex" unicode="&#xe2;" horiz-adv-x="909" 
d="M588 172l0.000976562 354c-116.667 -33.333 -206.334 -77.666 -269.001 -132.999s-94 -117.333 -94 -186c0 -44 13.333 -79.333 40 -106s62.667 -40 108 -40c28 0 59.5 9.16699 94.5 27.5s75.167 46.166 120.5 83.499zM848.001 106l40.999 -40
c-22.667 -32 -47.667 -55.833 -75 -71.5s-57.666 -23.5 -90.999 -23.5c-36.667 0 -65.667 10.167 -87 30.5s-36 51.833 -44 94.5c-41.333 -40 -87.5 -70.5 -138.5 -91.5s-105.167 -31.5 -162.5 -31.5c-74.667 0 -135 21.167 -181 63.5s-69 97.833 -69 166.5
c0 86.667 44.5 162.167 133.5 226.5s226.833 120.5 413.5 168.5v109c0 72 -12.667 125.5 -38 160.5s-64 52.5 -116 52.5c-38 0 -67.167 -7.16699 -87.5 -21.5s-40.166 -45.5 -59.499 -93.5c-18.667 -44.667 -36 -73.334 -52 -86.001s-37.667 -19 -65 -19
c-28 0 -51 8.5 -69 25.5s-27 38.833 -27 65.5c0 52.667 34.667 98.834 104 138.501s154.666 59.5 255.999 59.5c116 0 196.833 -22 242.5 -66s68.5 -122.333 68.5 -235v-547c0 -28.667 2.66699 -48 8 -58s14.333 -15 27 -15c8 0 17 2.83301 27 8.5s23.667 15.5 41 29.5z
M141 1077l227 332h133l228 -332h-74l-221 187l-221 -187h-72z" />
    <glyph glyph-name="atilde" unicode="&#xe3;" horiz-adv-x="909" 
d="M588 172l0.000976562 354c-116.667 -33.333 -206.334 -77.666 -269.001 -132.999s-94 -117.333 -94 -186c0 -44 13.333 -79.333 40 -106s62.667 -40 108 -40c28 0 59.5 9.16699 94.5 27.5s75.167 46.166 120.5 83.499zM848.001 106l40.999 -40
c-22.667 -32 -47.667 -55.833 -75 -71.5s-57.666 -23.5 -90.999 -23.5c-36.667 0 -65.667 10.167 -87 30.5s-36 51.833 -44 94.5c-41.333 -40 -87.5 -70.5 -138.5 -91.5s-105.167 -31.5 -162.5 -31.5c-74.667 0 -135 21.167 -181 63.5s-69 97.833 -69 166.5
c0 86.667 44.5 162.167 133.5 226.5s226.833 120.5 413.5 168.5v109c0 72 -12.667 125.5 -38 160.5s-64 52.5 -116 52.5c-38 0 -67.167 -7.16699 -87.5 -21.5s-40.166 -45.5 -59.499 -93.5c-18.667 -44.667 -36 -73.334 -52 -86.001s-37.667 -19 -65 -19
c-28 0 -51 8.5 -69 25.5s-27 38.833 -27 65.5c0 52.667 34.667 98.834 104 138.501s154.666 59.5 255.999 59.5c116 0 196.833 -22 242.5 -66s68.5 -122.333 68.5 -235v-547c0 -28.667 2.66699 -48 8 -58s14.333 -15 27 -15c8 0 17 2.83301 27 8.5s23.667 15.5 41 29.5z
M716 1399c-14 -71.333 -37.1699 -125.332 -69.5029 -161.999s-73.166 -55 -122.499 -55c-8.66699 0 -17.5 0.5 -26.5 1.5s-18.167 2.5 -27.5 4.5l-105 24c-14 4 -25.833 6.83301 -35.5 8.5s-17.834 2.5 -24.501 2.5c-24.667 0 -44.667 -6.83301 -60 -20.5
s-27.666 -35.5 -36.999 -65.5h-57c14.667 73.333 38.334 128.166 71.001 164.499s75.334 54.5 128.001 54.5c10.667 0 21.334 -0.666992 32.001 -2s21 -3.33301 31 -6l106 -25c8.66699 -2 17.167 -3.5 25.5 -4.5s17.166 -1.5 26.499 -1.5c22 0 40.5 6.83301 55.5 20.5
s25.833 34.167 32.5 61.5h57z" />
    <glyph glyph-name="adieresis" unicode="&#xe4;" horiz-adv-x="909" 
d="M588 172l0.000976562 354c-116.667 -33.333 -206.334 -77.666 -269.001 -132.999s-94 -117.333 -94 -186c0 -44 13.333 -79.333 40 -106s62.667 -40 108 -40c28 0 59.5 9.16699 94.5 27.5s75.167 46.166 120.5 83.499zM848.001 106l40.999 -40
c-22.667 -32 -47.667 -55.833 -75 -71.5s-57.666 -23.5 -90.999 -23.5c-36.667 0 -65.667 10.167 -87 30.5s-36 51.833 -44 94.5c-41.333 -40 -87.5 -70.5 -138.5 -91.5s-105.167 -31.5 -162.5 -31.5c-74.667 0 -135 21.167 -181 63.5s-69 97.833 -69 166.5
c0 86.667 44.5 162.167 133.5 226.5s226.833 120.5 413.5 168.5v109c0 72 -12.667 125.5 -38 160.5s-64 52.5 -116 52.5c-38 0 -67.167 -7.16699 -87.5 -21.5s-40.166 -45.5 -59.499 -93.5c-18.667 -44.667 -36 -73.334 -52 -86.001s-37.667 -19 -65 -19
c-28 0 -51 8.5 -69 25.5s-27 38.833 -27 65.5c0 52.667 34.667 98.834 104 138.501s154.666 59.5 255.999 59.5c116 0 196.833 -22 242.5 -66s68.5 -122.333 68.5 -235v-547c0 -28.667 2.66699 -48 8 -58s14.333 -15 27 -15c8 0 17 2.83301 27 8.5s23.667 15.5 41 29.5z
M514 1260c0 30 11.167 56.167 33.5 78.5s48.5 33.5 78.5 33.5c30.667 0 57.167 -11 79.5 -33s33.5 -48.333 33.5 -79c0 -33.333 -10.667 -60.5 -32 -81.5s-48.333 -31.5 -81 -31.5c-32 0 -58.667 10.667 -80 32s-32 48.333 -32 81zM129 1260c0 29.333 11.333 55.333 34 78
s49.334 34 80.001 34s56.834 -11 78.501 -33s32.5 -48.333 32.5 -79c0 -33.333 -10.333 -60.5 -31 -81.5s-47.334 -31.5 -80.001 -31.5s-59.834 10.667 -81.501 32s-32.5 48.333 -32.5 81z" />
    <glyph glyph-name="aring" unicode="&#xe5;" horiz-adv-x="909" 
d="M289 1300c0 -40 13.5 -73.833 40.5 -101.5s60.5 -41.5 100.5 -41.5s73.5 13.833 100.5 41.5s40.5 61.5 40.5 101.5s-13.5 73.667 -40.5 101s-60.5 41 -100.5 41s-73.5 -13.667 -100.5 -41s-40.5 -61 -40.5 -101zM193 1300c0 66.667 22.833 123 68.5 169
s101.834 69 168.501 69s123 -23 169 -69s69 -102.333 69 -169c0 -66 -23 -122 -69 -168s-102.333 -69 -169 -69s-122.834 23 -168.501 69s-68.5 102 -68.5 168zM588 172l0.000976562 354c-116.667 -33.333 -206.334 -77.666 -269.001 -132.999s-94 -117.333 -94 -186
c0 -44 13.333 -79.333 40 -106s62.667 -40 108 -40c28 0 59.5 9.16699 94.5 27.5s75.167 46.166 120.5 83.499zM848.001 106l40.999 -40c-22.667 -32 -47.667 -55.833 -75 -71.5s-57.666 -23.5 -90.999 -23.5c-36.667 0 -65.667 10.167 -87 30.5s-36 51.833 -44 94.5
c-41.333 -40 -87.5 -70.5 -138.5 -91.5s-105.167 -31.5 -162.5 -31.5c-74.667 0 -135 21.167 -181 63.5s-69 97.833 -69 166.5c0 86.667 44.5 162.167 133.5 226.5s226.833 120.5 413.5 168.5v109c0 72 -12.667 125.5 -38 160.5s-64 52.5 -116 52.5
c-38 0 -67.167 -7.16699 -87.5 -21.5s-40.166 -45.5 -59.499 -93.5c-18.667 -44.667 -36 -73.334 -52 -86.001s-37.667 -19 -65 -19c-28 0 -51 8.5 -69 25.5s-27 38.833 -27 65.5c0 52.667 34.667 98.834 104 138.501s154.666 59.5 255.999 59.5
c116 0 196.833 -22 242.5 -66s68.5 -122.333 68.5 -235v-547c0 -28.667 2.66699 -48 8 -58s14.333 -15 27 -15c8 0 17 2.83301 27 8.5s23.667 15.5 41 29.5z" />
    <glyph glyph-name="ae" unicode="&#xe6;" horiz-adv-x="1554" 
d="M1450 250l46.9971 -49.0029c-56.667 -76.667 -120.167 -133.834 -190.5 -171.501s-148.166 -56.5 -233.499 -56.5c-79.333 0 -149.166 13.5 -209.499 40.5s-120.166 70.833 -179.499 131.5c-63.333 -60 -125.166 -103.667 -185.499 -131s-125.5 -41 -195.5 -41
c-78.667 0 -142 21.167 -190 63.5s-72 97.833 -72 166.5c0 86.667 46.667 162.167 140 226.5s237.666 120.5 432.999 168.5v109c0 72.667 -13 126.334 -39 161.001s-66 52 -120 52c-41.333 0 -72.833 -7.33301 -94.5 -22s-42.167 -45.667 -61.5 -93
c-18 -45.333 -35.5 -74.166 -52.5 -86.499s-40.5 -18.5 -70.5 -18.5c-29.333 0 -53.333 8.5 -72 25.5s-28 38.833 -28 65.5c0 52.667 36.5 98.834 109.5 138.501s162.833 59.5 269.5 59.5c82 0 147.5 -10.5 196.5 -31.5s85.833 -54.167 110.5 -99.5
c42.667 46.667 87 80.834 133 102.501s97.333 32.5 154 32.5c126.667 0 228.667 -41 306 -123s118 -193 122 -333l-676 -1c-0.666992 -6 -1.16699 -12.833 -1.5 -20.5s-0.5 -19.167 -0.5 -34.5c0 -123.333 29.833 -221 89.5 -293s140.167 -108 241.5 -108
c50 0 101.333 14 154 42s108 70.667 166 128zM1290 614.997c-2 98.667 -23.6689 175.168 -65.002 229.501s-98.666 81.5 -171.999 81.5c-65.333 0 -119.166 -26.833 -161.499 -80.5s-70.5 -130.834 -84.5 -231.501zM613.995 171.998l-0.00195312 354.001
c-121.333 -33.333 -215.166 -77.833 -281.499 -133.5s-99.5 -117.5 -99.5 -185.5c0 -43.333 14.333 -78.5 43 -105.5s66.334 -40.5 113.001 -40.5c29.333 0 62.5 9.16699 99.5 27.5s78.833 46.166 125.5 83.499z" />
    <glyph glyph-name="ccedilla" unicode="&#xe7;" horiz-adv-x="909" 
d="M825 256l58.002 -38.998c-54.667 -82 -115.167 -143.833 -181.5 -185.5s-138.5 -62.5 -216.5 -62.5c-61.333 0 -114.333 9.16699 -159 27.5s-87 48.166 -127 89.499c-48 48.667 -84.667 104 -110 166s-38 126.667 -38 194c0 66 10.667 130 32 192s52.333 119 93 171
c49.333 62.667 102.833 109.667 160.5 141s119.5 47 185.5 47c86.667 0 162.334 -20.833 227.001 -62.5s97 -88.167 97 -139.5c0 -28 -8.33301 -50.5 -25 -67.5s-38.334 -25.5 -65.001 -25.5c-26 0 -47.333 6.33301 -64 19s-33.667 37.334 -51 74.001
c-26.667 54 -51.834 89 -75.501 105s-54.5 24 -92.5 24c-69.333 0 -125.833 -37.333 -169.5 -112s-65.5 -173.334 -65.5 -296.001c0 -138.667 25.833 -246.667 77.5 -324s123.167 -116 214.5 -116c52.667 0 103.167 14.667 151.5 44s96.166 74.666 143.499 135.999z
M195.002 -378.998l36.0029 89.999c40 -25.333 80 -44.666 120 -57.999s77.333 -20 112 -20c38 0 66.167 7.5 84.5 22.5s27.5 37.833 27.5 68.5c0 28.667 -9.16699 50.167 -27.5 64.5s-45.833 21.5 -82.5 21.5c-8.66699 0 -18.334 -0.666992 -29.001 -2l-33 -4v196h66v-115
c7.33301 1.33301 15.166 2.33301 23.499 3s20.833 1 37.5 1c58.667 0 104.5 -14.5 137.5 -43.5s49.5 -69.5 49.5 -121.5c0 -56 -19.833 -99.833 -59.5 -131.5s-94.834 -47.5 -165.501 -47.5c-39.333 0 -83 6.16699 -131 18.5s-103.333 31.5 -166 57.5z" />
    <glyph glyph-name="egrave" unicode="&#xe8;" 
d="M758 615c-2.66699 99.333 -24.5 176 -65.5 230s-98.5 81 -172.5 81c-65.333 0 -119.5 -27 -162.5 -81s-71.5 -131 -85.5 -231zM918 250l46.998 -49c-55.333 -76 -118.166 -133 -188.499 -171s-147.5 -57 -231.5 -57c-140 0 -254.5 46.833 -343.5 140.5
s-133.5 212.834 -133.5 357.501c0 60.667 11.5 122 34.5 184s55.167 118.667 96.5 170c46 58 95.667 100.5 149 127.5s113.333 40.5 180 40.5c120 0 218 -41.833 294 -125.5s116 -193.834 120 -330.501l-676 -1c-0.666992 -6.66699 -1.16699 -13.667 -1.5 -21
s-0.5 -18 -0.5 -32c0 -123.333 30.167 -221.333 90.5 -294s141.5 -109 243.5 -109c49.333 0 100.333 14 153 42s108.334 70.667 167.001 128zM712.998 1073l-73.999 0.000976562l-301 174c-32 19.333 -54 36 -66 50s-18 29.333 -18 46c0 20.667 7.5 38.167 22.5 52.5
s32.833 21.5 53.5 21.5c16.667 0 34.167 -4.83301 52.5 -14.5s36.166 -23.834 53.499 -42.501z" />
    <glyph glyph-name="eacute" unicode="&#xe9;" 
d="M758 615c-2.66699 99.333 -24.5 176 -65.5 230s-98.5 81 -172.5 81c-65.333 0 -119.5 -27 -162.5 -81s-71.5 -131 -85.5 -231zM918 250l46.998 -49c-55.333 -76 -118.166 -133 -188.499 -171s-147.5 -57 -231.5 -57c-140 0 -254.5 46.833 -343.5 140.5
s-133.5 212.834 -133.5 357.501c0 60.667 11.5 122 34.5 184s55.167 118.667 96.5 170c46 58 95.667 100.5 149 127.5s113.333 40.5 180 40.5c120 0 218 -41.833 294 -125.5s116 -193.834 120 -330.501l-676 -1c-0.666992 -6.66699 -1.16699 -13.667 -1.5 -21
s-0.5 -18 -0.5 -32c0 -123.333 30.167 -221.333 90.5 -294s141.5 -109 243.5 -109c49.333 0 100.333 14 153 42s108.334 70.667 167.001 128zM360.998 1075l276 284.999c17.333 18.667 35.5 32.834 54.5 42.501s37.167 14.5 54.5 14.5c20.667 0 38 -7 52 -21
s21 -31.667 21 -53c0 -16 -5.5 -30.667 -16.5 -44s-33.5 -30 -67.5 -50l-299 -174h-75z" />
    <glyph glyph-name="ecircumflex" unicode="&#xea;" 
d="M758 615c-2.66699 99.333 -24.5 176 -65.5 230s-98.5 81 -172.5 81c-65.333 0 -119.5 -27 -162.5 -81s-71.5 -131 -85.5 -231zM918 250l46.998 -49c-55.333 -76 -118.166 -133 -188.499 -171s-147.5 -57 -231.5 -57c-140 0 -254.5 46.833 -343.5 140.5
s-133.5 212.834 -133.5 357.501c0 60.667 11.5 122 34.5 184s55.167 118.667 96.5 170c46 58 95.667 100.5 149 127.5s113.333 40.5 180 40.5c120 0 218 -41.833 294 -125.5s116 -193.834 120 -330.501l-676 -1c-0.666992 -6.66699 -1.16699 -13.667 -1.5 -21
s-0.5 -18 -0.5 -32c0 -123.333 30.167 -221.333 90.5 -294s141.5 -109 243.5 -109c49.333 0 100.333 14 153 42s108.334 70.667 167.001 128zM243.998 1077l227 332h133l228 -332h-74l-221 187l-221 -187h-72z" />
    <glyph glyph-name="edieresis" unicode="&#xeb;" 
d="M758 615c-2.66699 99.333 -24.5 176 -65.5 230s-98.5 81 -172.5 81c-65.333 0 -119.5 -27 -162.5 -81s-71.5 -131 -85.5 -231zM918 250l46.998 -49c-55.333 -76 -118.166 -133 -188.499 -171s-147.5 -57 -231.5 -57c-140 0 -254.5 46.833 -343.5 140.5
s-133.5 212.834 -133.5 357.501c0 60.667 11.5 122 34.5 184s55.167 118.667 96.5 170c46 58 95.667 100.5 149 127.5s113.333 40.5 180 40.5c120 0 218 -41.833 294 -125.5s116 -193.834 120 -330.501l-676 -1c-0.666992 -6.66699 -1.16699 -13.667 -1.5 -21
s-0.5 -18 -0.5 -32c0 -123.333 30.167 -221.333 90.5 -294s141.5 -109 243.5 -109c49.333 0 100.333 14 153 42s108.334 70.667 167.001 128zM616.998 1260c0 30 11.167 56.167 33.5 78.5s48.5 33.5 78.5 33.5c30.667 0 57.167 -11 79.5 -33s33.5 -48.333 33.5 -79
c0 -33.333 -10.667 -60.5 -32 -81.5s-48.333 -31.5 -81 -31.5c-32 0 -58.667 10.667 -80 32s-32 48.333 -32 81zM231.998 1260c0 29.333 11.333 55.333 34 78s49.334 34 80.001 34s56.834 -11 78.501 -33s32.5 -48.333 32.5 -79c0 -33.333 -10.333 -60.5 -31 -81.5
s-47.334 -31.5 -80.001 -31.5s-59.834 10.667 -81.501 32s-32.5 48.333 -32.5 81z" />
    <glyph glyph-name="igrave" unicode="&#xec;" horiz-adv-x="537" 
d="M356 985v-740.998c0 -78 8.33301 -126 25 -144s49.334 -27.667 98.001 -29v-71h-422l1 72c53.333 3.33301 89.5 14.666 108.5 33.999s28.5 66.666 28.5 141.999v422c0 65.333 -9.83301 108.333 -29.5 129s-59.834 33 -120.501 37v53zM434 1073l-73.999 0.000976562
l-301 174c-32 19.333 -54 36 -66 50s-18 29.333 -18 46c0 20.667 7.5 38.167 22.5 52.5s32.833 21.5 53.5 21.5c16.667 0 34.167 -4.83301 52.5 -14.5s36.166 -23.834 53.499 -42.501z" />
    <glyph glyph-name="iacute" unicode="&#xed;" horiz-adv-x="537" 
d="M356 985v-740.998c0 -78 8.33301 -126 25 -144s49.334 -27.667 98.001 -29v-71h-422l1 72c53.333 3.33301 89.5 14.666 108.5 33.999s28.5 66.666 28.5 141.999v422c0 65.333 -9.83301 108.333 -29.5 129s-59.834 33 -120.501 37v53zM82 1075l276 284.999
c17.333 18.667 35.5 32.834 54.5 42.501s37.167 14.5 54.5 14.5c20.667 0 38 -7 52 -21s21 -31.667 21 -53c0 -16 -5.5 -30.667 -16.5 -44s-33.5 -30 -67.5 -50l-299 -174h-75z" />
    <glyph glyph-name="icircumflex" unicode="&#xee;" horiz-adv-x="537" 
d="M356 985v-740.998c0 -78 8.33301 -126 25 -144s49.334 -27.667 98.001 -29v-71h-422l1 72c53.333 3.33301 89.5 14.666 108.5 33.999s28.5 66.666 28.5 141.999v422c0 65.333 -9.83301 108.333 -29.5 129s-59.834 33 -120.501 37v53zM-35 1077l227 332h133l228 -332h-74
l-221 187l-221 -187h-72z" />
    <glyph glyph-name="idieresis" unicode="&#xef;" horiz-adv-x="537" 
d="M356 985v-740.998c0 -78 8.33301 -126 25 -144s49.334 -27.667 98.001 -29v-71h-422l1 72c53.333 3.33301 89.5 14.666 108.5 33.999s28.5 66.666 28.5 141.999v422c0 65.333 -9.83301 108.333 -29.5 129s-59.834 33 -120.501 37v53zM338 1260
c0 30 11.167 56.167 33.5 78.5s48.5 33.5 78.5 33.5c30.667 0 57.167 -11 79.5 -33s33.5 -48.333 33.5 -79c0 -33.333 -10.667 -60.5 -32 -81.5s-48.333 -31.5 -81 -31.5c-32 0 -58.667 10.667 -80 32s-32 48.333 -32 81zM-47 1260c0 29.333 11.333 55.333 34 78
s49.334 34 80.001 34s56.834 -11 78.501 -33s32.5 -48.333 32.5 -79c0 -33.333 -10.333 -60.5 -31 -81.5s-47.334 -31.5 -80.001 -31.5s-59.834 10.667 -81.501 32s-32.5 48.333 -32.5 81z" />
    <glyph glyph-name="eth" unicode="&#xf0;" horiz-adv-x="1051" 
d="M532 885c-82 0 -148.499 -39.667 -199.499 -119s-76.5 -184.333 -76.5 -315s23.833 -233 71.5 -307s113.167 -111 196.5 -111c81.333 0 145.666 39.5 192.999 118.5s71 187.5 71 325.5c0 128 -22.667 228 -68 300s-108 108 -188 108zM673.001 916
c-22 48.667 -44.333 93.999 -67 135.999s-45.667 81 -69 117l-324 -131l-20 52l315 129c-25.333 39.333 -52.166 78.333 -80.499 117s-58.166 76 -89.499 112l45 41c33.333 -28.667 68.333 -61 105 -97l128 -132l289 116l23 -49l-275 -113
c108 -139.333 187.667 -271.166 239 -395.499s77 -246.833 77 -367.5c0 -140 -43.167 -255 -129.5 -345s-195.5 -135 -327.5 -135c-122 0 -225.167 46.5 -309.5 139.5s-126.5 207.833 -126.5 344.5c0 140.667 42.833 257.667 128.5 351s192.167 140 319.5 140
c31.333 0 59.166 -2.5 83.499 -7.5s46.166 -12.5 65.499 -22.5z" />
    <glyph glyph-name="ntilde" unicode="&#xf1;" horiz-adv-x="1081" 
d="M49 0l0.000976562 71.002c54 4 90.333 15.667 109 35s28 66.666 28 141.999v434c0 67.333 -10 110.666 -30 129.999s-60.333 31.333 -121 36v53l301 96v-168c67.333 58.667 125.5 100 174.5 124s97.167 36 144.5 36c88 0 152 -30.5 192 -91.5s60 -159.5 60 -295.5v-387
c0 -63.333 8.5 -102.833 25.5 -118.5s51.5 -24.167 103.5 -25.5v-71h-420l1 72c55.333 4.66699 91.333 15.5 108 32.5s25 53.167 25 108.5v430c0 82 -12.5 141 -37.5 177s-65.167 54 -120.5 54c-36 0 -74.5 -10.167 -115.5 -30.5s-86.5 -51.5 -136.5 -93.5v-500
c0 -84 8.16699 -134.5 24.5 -151.5s49.166 -26.167 98.499 -27.5v-71h-414zM825.001 1399c-14 -71.333 -37.1699 -125.332 -69.5029 -161.999s-73.166 -55 -122.499 -55c-8.66699 0 -17.5 0.5 -26.5 1.5s-18.167 2.5 -27.5 4.5l-105 24c-14 4 -25.833 6.83301 -35.5 8.5
s-17.834 2.5 -24.501 2.5c-24.667 0 -44.667 -6.83301 -60 -20.5s-27.666 -35.5 -36.999 -65.5h-57c14.667 73.333 38.334 128.166 71.001 164.499s75.334 54.5 128.001 54.5c10.667 0 21.334 -0.666992 32.001 -2s21 -3.33301 31 -6l106 -25
c8.66699 -2 17.167 -3.5 25.5 -4.5s17.166 -1.5 26.499 -1.5c22 0 40.5 6.83301 55.5 20.5s25.833 34.167 32.5 61.5h57z" />
    <glyph glyph-name="ograve" unicode="&#xf2;" horiz-adv-x="1022" 
d="M518 924c-82.667 0 -149.333 -41.502 -200 -124.502s-76 -193.833 -76 -332.5c0 -133.333 24.167 -238.666 72.5 -315.999s113.5 -116 195.5 -116c80.667 0 144.5 41.333 191.5 124s70.5 196.334 70.5 341.001c0 134 -22.333 238.167 -67 312.5s-107 111.5 -187 111.5z
M61.001 480.998c0 146.667 43.499 268 130.499 364s196.5 144 328.5 144c124.667 0 229.334 -49.167 314.001 -147.5s127 -219.833 127 -364.5c0 -143.333 -44.5 -263.5 -133.5 -360.5s-198.833 -145.5 -329.5 -145.5c-124 0 -227.833 48.5 -311.5 145.5
s-125.5 218.5 -125.5 364.5zM678 1073l-73.999 0.000976562l-301 174c-32 19.333 -54 36 -66 50s-18 29.333 -18 46c0 20.667 7.5 38.167 22.5 52.5s32.833 21.5 53.5 21.5c16.667 0 34.167 -4.83301 52.5 -14.5s36.166 -23.834 53.499 -42.501z" />
    <glyph glyph-name="oacute" unicode="&#xf3;" horiz-adv-x="1022" 
d="M518 924c-82.667 0 -149.333 -41.502 -200 -124.502s-76 -193.833 -76 -332.5c0 -133.333 24.167 -238.666 72.5 -315.999s113.5 -116 195.5 -116c80.667 0 144.5 41.333 191.5 124s70.5 196.334 70.5 341.001c0 134 -22.333 238.167 -67 312.5s-107 111.5 -187 111.5z
M61.001 480.998c0 146.667 43.499 268 130.499 364s196.5 144 328.5 144c124.667 0 229.334 -49.167 314.001 -147.5s127 -219.833 127 -364.5c0 -143.333 -44.5 -263.5 -133.5 -360.5s-198.833 -145.5 -329.5 -145.5c-124 0 -227.833 48.5 -311.5 145.5
s-125.5 218.5 -125.5 364.5zM326 1075l276 284.999c17.333 18.667 35.5 32.834 54.5 42.501s37.167 14.5 54.5 14.5c20.667 0 38 -7 52 -21s21 -31.667 21 -53c0 -16 -5.5 -30.667 -16.5 -44s-33.5 -30 -67.5 -50l-299 -174h-75z" />
    <glyph glyph-name="ocircumflex" unicode="&#xf4;" horiz-adv-x="1022" 
d="M518 924c-82.667 0 -149.333 -41.502 -200 -124.502s-76 -193.833 -76 -332.5c0 -133.333 24.167 -238.666 72.5 -315.999s113.5 -116 195.5 -116c80.667 0 144.5 41.333 191.5 124s70.5 196.334 70.5 341.001c0 134 -22.333 238.167 -67 312.5s-107 111.5 -187 111.5z
M61.001 480.998c0 146.667 43.499 268 130.499 364s196.5 144 328.5 144c124.667 0 229.334 -49.167 314.001 -147.5s127 -219.833 127 -364.5c0 -143.333 -44.5 -263.5 -133.5 -360.5s-198.833 -145.5 -329.5 -145.5c-124 0 -227.833 48.5 -311.5 145.5
s-125.5 218.5 -125.5 364.5zM209 1077l227 332h133l228 -332h-74l-221 187l-221 -187h-72z" />
    <glyph glyph-name="otilde" unicode="&#xf5;" horiz-adv-x="1022" 
d="M518 924c-82.667 0 -149.333 -41.502 -200 -124.502s-76 -193.833 -76 -332.5c0 -133.333 24.167 -238.666 72.5 -315.999s113.5 -116 195.5 -116c80.667 0 144.5 41.333 191.5 124s70.5 196.334 70.5 341.001c0 134 -22.333 238.167 -67 312.5s-107 111.5 -187 111.5z
M61.001 480.998c0 146.667 43.499 268 130.499 364s196.5 144 328.5 144c124.667 0 229.334 -49.167 314.001 -147.5s127 -219.833 127 -364.5c0 -143.333 -44.5 -263.5 -133.5 -360.5s-198.833 -145.5 -329.5 -145.5c-124 0 -227.833 48.5 -311.5 145.5
s-125.5 218.5 -125.5 364.5zM784 1399c-14 -71.333 -37.1699 -125.332 -69.5029 -161.999s-73.166 -55 -122.499 -55c-8.66699 0 -17.5 0.5 -26.5 1.5s-18.167 2.5 -27.5 4.5l-105 24c-14 4 -25.833 6.83301 -35.5 8.5s-17.834 2.5 -24.501 2.5
c-24.667 0 -44.667 -6.83301 -60 -20.5s-27.666 -35.5 -36.999 -65.5h-57c14.667 73.333 38.334 128.166 71.001 164.499s75.334 54.5 128.001 54.5c10.667 0 21.334 -0.666992 32.001 -2s21 -3.33301 31 -6l106 -25c8.66699 -2 17.167 -3.5 25.5 -4.5
s17.166 -1.5 26.499 -1.5c22 0 40.5 6.83301 55.5 20.5s25.833 34.167 32.5 61.5h57z" />
    <glyph glyph-name="odieresis" unicode="&#xf6;" horiz-adv-x="1022" 
d="M518 924c-82.667 0 -149.333 -41.502 -200 -124.502s-76 -193.833 -76 -332.5c0 -133.333 24.167 -238.666 72.5 -315.999s113.5 -116 195.5 -116c80.667 0 144.5 41.333 191.5 124s70.5 196.334 70.5 341.001c0 134 -22.333 238.167 -67 312.5s-107 111.5 -187 111.5z
M61.001 480.998c0 146.667 43.499 268 130.499 364s196.5 144 328.5 144c124.667 0 229.334 -49.167 314.001 -147.5s127 -219.833 127 -364.5c0 -143.333 -44.5 -263.5 -133.5 -360.5s-198.833 -145.5 -329.5 -145.5c-124 0 -227.833 48.5 -311.5 145.5
s-125.5 218.5 -125.5 364.5zM582 1260c0 30 11.167 56.167 33.5 78.5s48.5 33.5 78.5 33.5c30.667 0 57.167 -11 79.5 -33s33.5 -48.333 33.5 -79c0 -33.333 -10.667 -60.5 -32 -81.5s-48.333 -31.5 -81 -31.5c-32 0 -58.667 10.667 -80 32s-32 48.333 -32 81zM197 1260
c0 29.333 11.333 55.333 34 78s49.334 34 80.001 34s56.834 -11 78.501 -33s32.5 -48.333 32.5 -79c0 -33.333 -10.333 -60.5 -31 -81.5s-47.334 -31.5 -80.001 -31.5s-59.834 10.667 -81.501 32s-32.5 48.333 -32.5 81z" />
    <glyph glyph-name="divide" unicode="&#xf7;" horiz-adv-x="1706" 
d="M854 365c31.333 0 58.333 -11.333 81 -34s34 -49.667 34 -81s-11.167 -58.333 -33.5 -81s-49.5 -34 -81.5 -34s-59.167 11.167 -81.5 33.5s-33.5 49.5 -33.5 81.5s11.333 59.167 34 81.5s49.667 33.5 81 33.5zM254 670h1198v-117h-1198v117zM854 1085
c32 0 59.167 -11.167 81.5 -33.5s33.5 -49.166 33.5 -80.499c0 -32 -11.167 -59.167 -33.5 -81.5s-49.5 -33.5 -81.5 -33.5c-32.667 0 -60 11.167 -82 33.5s-33 49.5 -33 81.5c0 31.333 11.333 58.166 34 80.499s49.667 33.5 81 33.5z" />
    <glyph glyph-name="oslash" unicode="&#xf8;" horiz-adv-x="1022" 
d="M358 102c20.667 -23.333 43.001 -40.334 67.001 -51.001s52.333 -16 85 -16c81.333 0 145.666 41.5 192.999 124.5s71 197.167 71 342.5c0 50.667 -4.83301 100.334 -14.5 149.001s-24.5 96.667 -44.5 144zM307.001 163.999l359 693.999
c-23.333 22 -47.333 38.167 -72 48.5s-52.667 15.5 -84 15.5c-80 0 -144.667 -42.333 -194 -127s-74 -196.667 -74 -336c0 -49.333 5.33301 -98.166 16 -146.499s27 -97.833 49 -148.5zM176.001 -252.002h-77.9971l158 307c-64.667 50.667 -113.334 111.667 -146.001 183
s-49 152.333 -49 243c0 144.667 43.167 265.5 129.5 362.5s192.833 145.5 319.5 145.5c33.333 0 66.5 -3.5 99.5 -10.5s66.833 -17.833 101.5 -32.5l127 252h77l-149 -291c63.333 -57.333 111.666 -122.5 144.999 -195.5s50 -151.167 50 -234.5
c0 -142.667 -44 -262.667 -132 -360s-195.667 -146 -323 -146c-30 0 -61.333 3.5 -94 10.5s-66.334 17.167 -101.001 30.5z" />
    <glyph glyph-name="ugrave" unicode="&#xf9;" horiz-adv-x="1081" 
d="M1047 61v-52.999l-302 -18v137c-64 -55.333 -121.333 -95.5 -172 -120.5s-99.667 -37.5 -147 -37.5c-88.667 0 -153.167 30.167 -193.5 90.5s-60.5 157.833 -60.5 292.5v383c0 63.333 -8.33301 102.666 -25 117.999s-50.667 24 -102 26v53l287 65v-686
c0 -80 12.5 -138.167 37.5 -174.5s64.833 -54.5 119.5 -54.5c35.333 0 72.833 9.83301 112.5 29.5s85.5 51.5 137.5 95.5v512c0 75.333 -8.33301 120.833 -25 136.5s-54 23.5 -112 23.5v53l293 65v-772c0 -64 10 -106.333 30 -127s60.667 -33 122 -37zM707 1073
l-73.999 0.000976562l-301 174c-32 19.333 -54 36 -66 50s-18 29.333 -18 46c0 20.667 7.5 38.167 22.5 52.5s32.833 21.5 53.5 21.5c16.667 0 34.167 -4.83301 52.5 -14.5s36.166 -23.834 53.499 -42.501z" />
    <glyph glyph-name="uacute" unicode="&#xfa;" horiz-adv-x="1081" 
d="M1047 61v-52.999l-302 -18v137c-64 -55.333 -121.333 -95.5 -172 -120.5s-99.667 -37.5 -147 -37.5c-88.667 0 -153.167 30.167 -193.5 90.5s-60.5 157.833 -60.5 292.5v383c0 63.333 -8.33301 102.666 -25 117.999s-50.667 24 -102 26v53l287 65v-686
c0 -80 12.5 -138.167 37.5 -174.5s64.833 -54.5 119.5 -54.5c35.333 0 72.833 9.83301 112.5 29.5s85.5 51.5 137.5 95.5v512c0 75.333 -8.33301 120.833 -25 136.5s-54 23.5 -112 23.5v53l293 65v-772c0 -64 10 -106.333 30 -127s60.667 -33 122 -37zM355 1075l276 284.999
c17.333 18.667 35.5 32.834 54.5 42.501s37.167 14.5 54.5 14.5c20.667 0 38 -7 52 -21s21 -31.667 21 -53c0 -16 -5.5 -30.667 -16.5 -44s-33.5 -30 -67.5 -50l-299 -174h-75z" />
    <glyph glyph-name="ucircumflex" unicode="&#xfb;" horiz-adv-x="1081" 
d="M1047 61v-52.999l-302 -18v137c-64 -55.333 -121.333 -95.5 -172 -120.5s-99.667 -37.5 -147 -37.5c-88.667 0 -153.167 30.167 -193.5 90.5s-60.5 157.833 -60.5 292.5v383c0 63.333 -8.33301 102.666 -25 117.999s-50.667 24 -102 26v53l287 65v-686
c0 -80 12.5 -138.167 37.5 -174.5s64.833 -54.5 119.5 -54.5c35.333 0 72.833 9.83301 112.5 29.5s85.5 51.5 137.5 95.5v512c0 75.333 -8.33301 120.833 -25 136.5s-54 23.5 -112 23.5v53l293 65v-772c0 -64 10 -106.333 30 -127s60.667 -33 122 -37zM238 1077l227 332h133
l228 -332h-74l-221 187l-221 -187h-72z" />
    <glyph glyph-name="udieresis" unicode="&#xfc;" horiz-adv-x="1081" 
d="M1047 61v-52.999l-302 -18v137c-64 -55.333 -121.333 -95.5 -172 -120.5s-99.667 -37.5 -147 -37.5c-88.667 0 -153.167 30.167 -193.5 90.5s-60.5 157.833 -60.5 292.5v383c0 63.333 -8.33301 102.666 -25 117.999s-50.667 24 -102 26v53l287 65v-686
c0 -80 12.5 -138.167 37.5 -174.5s64.833 -54.5 119.5 -54.5c35.333 0 72.833 9.83301 112.5 29.5s85.5 51.5 137.5 95.5v512c0 75.333 -8.33301 120.833 -25 136.5s-54 23.5 -112 23.5v53l293 65v-772c0 -64 10 -106.333 30 -127s60.667 -33 122 -37zM611 1260
c0 30 11.167 56.167 33.5 78.5s48.5 33.5 78.5 33.5c30.667 0 57.167 -11 79.5 -33s33.5 -48.333 33.5 -79c0 -33.333 -10.667 -60.5 -32 -81.5s-48.333 -31.5 -81 -31.5c-32 0 -58.667 10.667 -80 32s-32 48.333 -32 81zM226 1260c0 29.333 11.333 55.333 34 78
s49.334 34 80.001 34s56.834 -11 78.501 -33s32.5 -48.333 32.5 -79c0 -33.333 -10.333 -60.5 -31 -81.5s-47.334 -31.5 -80.001 -31.5s-59.834 10.667 -81.501 32s-32.5 48.333 -32.5 81z" />
    <glyph glyph-name="yacute" unicode="&#xfd;" 
d="M547 203l186.001 513.998c9.33301 24 16.166 44.333 20.499 61s6.5 30.334 6.5 41.001c0 30 -10.5 51.5 -31.5 64.5s-56.833 20.167 -107.5 21.5v72h374v-72c-74 -8.66699 -130 -65 -168 -169c-2.66699 -6.66699 -4.66699 -12 -6 -16l-293 -796
c-40.667 -110 -88 -192.833 -142 -248.5s-114.333 -83.5 -181 -83.5c-40 0 -71.833 10.833 -95.5 32.5s-35.5 49.834 -35.5 84.501c0 28 9 50.333 27 67s42.333 25 73 25c24 0 50.5 -9.16699 79.5 -27.5s49.5 -27.5 61.5 -27.5c26 0 49.5 16.5 70.5 49.5
s45.5 92.833 73.5 179.5l-285 773c-22.667 63.333 -45.667 104.666 -69 123.999s-57 30.333 -101 33v72h418v-71c-39.333 -1.33301 -68 -6.33301 -86 -15s-27 -21.667 -27 -39c0 -9.33301 2.16699 -22.166 6.5 -38.499s10.5 -34.833 18.5 -55.5zM326.001 1075l276 284.999
c17.333 18.667 35.5 32.834 54.5 42.501s37.167 14.5 54.5 14.5c20.667 0 38 -7 52 -21s21 -31.667 21 -53c0 -16 -5.5 -30.667 -16.5 -44s-33.5 -30 -67.5 -50l-299 -174h-75z" />
    <glyph glyph-name="thorn" unicode="&#xfe;" horiz-adv-x="1018" 
d="M299 162c35.333 -33.333 70.5 -58.499 105.5 -75.499s69.5 -25.5 103.5 -25.5c78 0 140.167 36.333 186.5 109s69.5 171.667 69.5 297c0 135.333 -21.833 240.166 -65.5 314.499s-105.167 111.5 -184.5 111.5c-36 0 -71 -8.66699 -105 -26s-70.667 -45 -110 -83v-622z
M14 -388.999l1.00195 74.002c49.333 4.66699 82.666 16.667 99.999 36s26 66 26 140v1310c0 65.333 -9.83301 108.166 -29.5 128.499s-59.5 33.166 -119.5 38.499v53l307 98v-625c38.667 40.667 79.667 71 123 91s89.666 30 138.999 30c108.667 0 200 -48 274 -144
s111 -215.333 111 -358c0 -147.333 -36.5 -270.166 -109.5 -368.499s-163.5 -147.5 -271.5 -147.5c-42 0 -84.5 8.66699 -127.5 26s-89.833 45 -140.5 83v-217c0 -80.667 9.16699 -129.834 27.5 -147.501s55.5 -26.5 111.5 -26.5h10v-74h-432z" />
    <glyph glyph-name="ydieresis" unicode="&#xff;" 
d="M547 203l186.001 513.998c9.33301 24 16.166 44.333 20.499 61s6.5 30.334 6.5 41.001c0 30 -10.5 51.5 -31.5 64.5s-56.833 20.167 -107.5 21.5v72h374v-72c-74 -8.66699 -130 -65 -168 -169c-2.66699 -6.66699 -4.66699 -12 -6 -16l-293 -796
c-40.667 -110 -88 -192.833 -142 -248.5s-114.333 -83.5 -181 -83.5c-40 0 -71.833 10.833 -95.5 32.5s-35.5 49.834 -35.5 84.501c0 28 9 50.333 27 67s42.333 25 73 25c24 0 50.5 -9.16699 79.5 -27.5s49.5 -27.5 61.5 -27.5c26 0 49.5 16.5 70.5 49.5
s45.5 92.833 73.5 179.5l-285 773c-22.667 63.333 -45.667 104.666 -69 123.999s-57 30.333 -101 33v72h418v-71c-39.333 -1.33301 -68 -6.33301 -86 -15s-27 -21.667 -27 -39c0 -9.33301 2.16699 -22.166 6.5 -38.499s10.5 -34.833 18.5 -55.5zM582.001 1260
c0 30 11.167 56.167 33.5 78.5s48.5 33.5 78.5 33.5c30.667 0 57.167 -11 79.5 -33s33.5 -48.333 33.5 -79c0 -33.333 -10.667 -60.5 -32 -81.5s-48.333 -31.5 -81 -31.5c-32 0 -58.667 10.667 -80 32s-32 48.333 -32 81zM197.001 1260c0 29.333 11.333 55.333 34 78
s49.334 34 80.001 34s56.834 -11 78.501 -33s32.5 -48.333 32.5 -79c0 -33.333 -10.333 -60.5 -31 -81.5s-47.334 -31.5 -80.001 -31.5s-59.834 10.667 -81.501 32s-32.5 48.333 -32.5 81z" />
    <glyph glyph-name="Cacute" unicode="&#x106;" horiz-adv-x="1366" 
d="M1223 434l59.0029 -43.0029c-59.333 -142 -135.166 -248.167 -227.499 -318.5s-202.166 -105.5 -329.499 -105.5c-188.667 0 -340.334 67.333 -455.001 202s-172 313.334 -172 536.001c0 108 16.667 212.167 50 312.5s81.666 191.833 144.999 274.5
c52 68 113.333 119.833 184 155.5s145.667 53.5 225 53.5c31.333 0 66.166 -3.66699 104.499 -11s82.166 -18.666 131.499 -33.999l170 45l141 -366l-53 -33c-89.333 113.333 -171.5 195.833 -246.5 247.5s-149.167 77.5 -222.5 77.5
c-126.667 0 -229.334 -57.667 -308.001 -173s-118 -268.333 -118 -459c0 -206 44.833 -371.167 134.5 -495.5s207.167 -186.5 352.5 -186.5c92.667 0 174.5 26.333 245.5 79s134.167 133.334 189.5 242.001zM537.003 1587l276 284.999
c17.333 18.667 35.5 32.834 54.5 42.501s37.167 14.5 54.5 14.5c20.667 0 38 -7 52 -21s21 -31.667 21 -53c0 -16 -5.5 -30.667 -16.5 -44s-33.5 -30 -67.5 -50l-299 -174h-75z" />
    <glyph glyph-name="cacute" unicode="&#x107;" horiz-adv-x="909" 
d="M825 256l58.002 -38.998c-54.667 -82 -115.167 -143.833 -181.5 -185.5s-138.5 -62.5 -216.5 -62.5c-61.333 0 -114.333 9.16699 -159 27.5s-87 48.166 -127 89.499c-48 48.667 -84.667 104 -110 166s-38 126.667 -38 194c0 66 10.667 130 32 192s52.333 119 93 171
c49.333 62.667 102.833 109.667 160.5 141s119.5 47 185.5 47c86.667 0 162.334 -20.833 227.001 -62.5s97 -88.167 97 -139.5c0 -28 -8.33301 -50.5 -25 -67.5s-38.334 -25.5 -65.001 -25.5c-26 0 -47.333 6.33301 -64 19s-33.667 37.334 -51 74.001
c-26.667 54 -51.834 89 -75.501 105s-54.5 24 -92.5 24c-69.333 0 -125.833 -37.333 -169.5 -112s-65.5 -173.334 -65.5 -296.001c0 -138.667 25.833 -246.667 77.5 -324s123.167 -116 214.5 -116c52.667 0 103.167 14.667 151.5 44s96.166 74.666 143.499 135.999z
M328.002 1075l276 284.999c17.333 18.667 35.5 32.834 54.5 42.501s37.167 14.5 54.5 14.5c20.667 0 38 -7 52 -21s21 -31.667 21 -53c0 -16 -5.5 -30.667 -16.5 -44s-33.5 -30 -67.5 -50l-299 -174h-75z" />
    <glyph glyph-name="Ccaron" unicode="&#x10c;" horiz-adv-x="1366" 
d="M1223 434l59.0029 -43.0029c-59.333 -142 -135.166 -248.167 -227.499 -318.5s-202.166 -105.5 -329.499 -105.5c-188.667 0 -340.334 67.333 -455.001 202s-172 313.334 -172 536.001c0 108 16.667 212.167 50 312.5s81.666 191.833 144.999 274.5
c52 68 113.333 119.833 184 155.5s145.667 53.5 225 53.5c31.333 0 66.166 -3.66699 104.499 -11s82.166 -18.666 131.499 -33.999l170 45l141 -366l-53 -33c-89.333 113.333 -171.5 195.833 -246.5 247.5s-149.167 77.5 -222.5 77.5
c-126.667 0 -229.334 -57.667 -308.001 -173s-118 -268.333 -118 -459c0 -206 44.833 -371.167 134.5 -495.5s207.167 -186.5 352.5 -186.5c92.667 0 174.5 26.333 245.5 79s134.167 133.334 189.5 242.001zM418.003 1927h72l221 -184l223 184h72l-228 -332h-133z" />
    <glyph glyph-name="ccaron" unicode="&#x10d;" horiz-adv-x="909" 
d="M825 256l58.002 -38.998c-54.667 -82 -115.167 -143.833 -181.5 -185.5s-138.5 -62.5 -216.5 -62.5c-61.333 0 -114.333 9.16699 -159 27.5s-87 48.166 -127 89.499c-48 48.667 -84.667 104 -110 166s-38 126.667 -38 194c0 66 10.667 130 32 192s52.333 119 93 171
c49.333 62.667 102.833 109.667 160.5 141s119.5 47 185.5 47c86.667 0 162.334 -20.833 227.001 -62.5s97 -88.167 97 -139.5c0 -28 -8.33301 -50.5 -25 -67.5s-38.334 -25.5 -65.001 -25.5c-26 0 -47.333 6.33301 -64 19s-33.667 37.334 -51 74.001
c-26.667 54 -51.834 89 -75.501 105s-54.5 24 -92.5 24c-69.333 0 -125.833 -37.333 -169.5 -112s-65.5 -173.334 -65.5 -296.001c0 -138.667 25.833 -246.667 77.5 -324s123.167 -116 214.5 -116c52.667 0 103.167 14.667 151.5 44s96.166 74.666 143.499 135.999z
M209.002 1415h72l221 -184l223 184h72l-228 -332h-133z" />
    <glyph glyph-name="dcroat" unicode="&#x111;" horiz-adv-x="1034" 
d="M989 74l0.000976562 -73.999h-94c-18 0 -40.167 -0.833008 -66.5 -2.5s-59.5 -4.16699 -99.5 -7.5l-14 116c-35.333 -42.667 -76.333 -75.834 -123 -99.501s-95.334 -35.5 -146.001 -35.5c-104 0 -194.167 49.667 -270.5 149s-114.5 219 -114.5 359
c0 146.667 36.5 269.667 109.5 369s163.5 149 271.5 149c46.667 0 92.167 -9.66699 136.5 -29s89.833 -49.666 136.5 -90.999v245h-289v72h289c0 2.66699 -0.333008 7.16699 -1 13.5s-1 10.833 -1 13.5c0 41.333 -10.333 70.166 -31 86.499s-61.667 26.5 -123 30.5v53
l311 98v-295h154v-72h-154v-889c0 -70 8.16699 -113 24.5 -129s47.833 -26 94.5 -30zM715.001 182.001l0.000976562 611c-30.667 33.333 -64.834 59.666 -102.501 78.999s-73.167 29 -106.5 29c-82 0 -145.833 -35.667 -191.5 -107s-68.5 -170.666 -68.5 -297.999
c0 -137.333 21.333 -242.333 64 -315s104 -109 184 -109c36.667 0 72.667 8.66699 108 26s73 45.333 113 84z" />
    <glyph glyph-name="Gbreve" unicode="&#x11e;" horiz-adv-x="1479" 
d="M858 664l575.999 -0.00195312v-76c-72.667 -5.33301 -119.167 -16.666 -139.5 -33.999s-30.5 -66.666 -30.5 -147.999v-355h-35c-72 0 -150.333 -14.667 -235 -44c-20 -6.66699 -33.667 -11 -41 -13c-36.667 -10 -71.834 -17.333 -105.501 -22s-68.5 -7 -104.5 -7
c-89.333 0 -169.166 14.5 -239.499 43.5s-135.166 73.833 -194.499 134.5c-68.667 70.667 -121 155 -157 253s-54 205 -54 321c0 231.333 60.667 420.166 182 566.499s276.333 219.5 465 219.5c34 0 70.5 -3.16699 109.5 -9.5s79.833 -16.166 122.5 -29.499l168 45l143 -370
l-55 -33c-88.667 114 -170.667 197.167 -246 249.5s-151 78.5 -227 78.5c-140 0 -248.833 -59.667 -326.5 -179s-116.5 -287.666 -116.5 -504.999c0 -228.667 39 -404.334 117 -527.001s189.333 -184 334 -184c91.333 0 163.333 26.333 216 79s79 124.667 79 216v84
c0 68.667 -13.5 114.167 -40.5 136.5s-81.833 33.5 -164.5 33.5v76zM427.999 1901h64.999c12 -44.667 36.5 -77 73.5 -97s91.167 -30 162.5 -30s125.333 9.83301 162 29.5s60.334 52.167 71.001 97.5h66c-14.667 -88 -47 -154.167 -97 -198.5s-117.333 -66.5 -202 -66.5
s-152.5 22.5 -203.5 67.5s-83.5 110.833 -97.5 197.5z" />
    <glyph glyph-name="gbreve" unicode="&#x11f;" 
d="M426 6c-77.333 -22 -136.668 -49.168 -178.001 -81.501s-62 -67.833 -62 -106.5c0 -47.333 26.5 -84.166 79.5 -110.499s126.833 -39.5 221.5 -39.5c106.667 0 188.334 12.667 245.001 38s85 62 85 110c0 38.667 -16.667 70.167 -50 94.5s-87 43.833 -161 58.5z
M282.998 622.999c0 -90 17.334 -159.335 52.001 -208.002s84 -73 148 -73c69.333 0 122.166 23.833 158.499 71.5s54.5 116.834 54.5 207.501c0 88.667 -19.167 158.834 -57.5 210.501s-89.5 77.5 -153.5 77.5c-58 0 -106.167 -26.833 -144.5 -80.5
s-57.5 -122.167 -57.5 -205.5zM355.999 290.997c-34 -11.333 -55.834 -20.834 -65.501 -28.501s-14.5 -17.5 -14.5 -29.5c0 -15.333 8.33301 -28.166 25 -38.499s44 -19.166 82 -26.499l270 -55c104.667 -22 182.5 -53.833 233.5 -95.5s76.5 -93.834 76.5 -156.501
c0 -84.667 -42.167 -150.334 -126.5 -197.001s-203.5 -70 -357.5 -70c-134.667 0 -244.834 20 -330.501 60s-128.5 89.667 -128.5 149c0 48 26.667 92.5 80 133.5s124.333 71.167 213 90.5v14c-62 10.667 -110.5 28.167 -145.5 52.5s-52.5 51.833 -52.5 82.5
c0 24.667 11.333 47.5 34 68.5s68 48.167 136 81.5c-60 44 -103 89.333 -129 136s-39 101 -39 163c0 100.667 34.833 184.167 104.5 250.5s158.834 99.5 267.501 99.5c42 0 82.333 -6.16699 121 -18.5s78.334 -31.5 119.001 -57.5c37.333 31.333 70.166 53.833 98.499 67.5
s54.833 20.5 79.5 20.5c30 0 53.167 -8.33301 69.5 -25s24.5 -39.667 24.5 -69c0 -26 -6.16699 -46.167 -18.5 -60.5s-29.833 -21.5 -52.5 -21.5c-24 0 -47.167 9.5 -69.5 28.5s-34.166 28.5 -35.499 28.5c-2.66699 0 -7 -1.33301 -13 -4s-16 -8 -30 -16
c31.333 -36 53.833 -70.833 67.5 -104.5s20.5 -69.167 20.5 -106.5c0 -103.333 -35.833 -190.666 -107.5 -261.999s-159.167 -107 -262.5 -107c-21.333 0 -43.833 1.83301 -67.5 5.5s-49.167 9.5 -76.5 17.5zM200.998 1389h64.999c12 -44.667 36.5 -77 73.5 -97
s91.167 -30 162.5 -30s125.333 9.83301 162 29.5s60.334 52.167 71.001 97.5h66c-14.667 -88 -47 -154.167 -97 -198.5s-117.333 -66.5 -202 -66.5s-152.5 22.5 -203.5 67.5s-83.5 110.833 -97.5 197.5z" />
    <glyph glyph-name="Idotaccent" unicode="&#x130;" horiz-adv-x="682" 
d="M635 1475l0.000976562 -74h-39c-65.333 0 -108 -10.833 -128 -32.5s-30 -72.167 -30 -151.5v-955c0 -80.667 10.667 -132.5 32 -155.5s64.666 -34.5 129.999 -34.5h35v-72h-588v72h25c68 0 113 10.5 135 31.5s33 71.167 33 150.5v963c0 83.333 -10.333 134.833 -31 154.5
s-65 29.5 -133 29.5h-29v74h588zM219.001 1778c0 32.667 12.332 61.667 36.999 87s53.334 38 86.001 38c34 0 63.333 -12.5 88 -37.5s37 -54.167 37 -87.5c0 -36 -11.833 -65.5 -35.5 -88.5s-53.5 -34.5 -89.5 -34.5s-65.5 11.5 -88.5 34.5s-34.5 52.5 -34.5 88.5z" />
    <glyph glyph-name="dotlessi" unicode="&#x131;" horiz-adv-x="537" 
d="M356 985v-740.998c0 -78 8.33301 -126 25 -144s49.334 -27.667 98.001 -29v-71h-422l1 72c53.333 3.33301 89.5 14.666 108.5 33.999s28.5 66.666 28.5 141.999v422c0 65.333 -9.83301 108.333 -29.5 129s-59.834 33 -120.501 37v53z" />
    <glyph glyph-name="Lslash" unicode="&#x141;" horiz-adv-x="1262" 
d="M76 0v71.999h37c62.667 0 104.167 10.667 124.5 32s30.5 68 30.5 140v409l-258 -182v104l258 181v463c0 82.667 -10 133.667 -30 153s-64.667 29 -134 29h-28v74h586v-74h-29c-69.333 0 -114.333 -10 -135 -30s-31 -70.667 -31 -152v-361l344 242v-105l-344 -239v-531
c0 -55.333 12 -93.666 36 -114.999s66 -32 126 -32c108.667 0 211 27.833 307 83.5s182 137.167 258 244.5l57 -21l-141 -385h-1034z" />
    <glyph glyph-name="lslash" unicode="&#x142;" horiz-adv-x="555" 
d="M66 0l0.000976562 72.0039c54 3.33301 90.333 14.666 109 33.999s28 66.666 28 141.999v428l-193 -137v88l193 135v409c0 65.333 -9.83301 108.166 -29.5 128.499s-59.834 33.166 -120.501 38.499v53l312 98v-639l194 135v-88l-194 -135v-518
c0 -77.333 8.16699 -124.833 24.5 -142.5s48.833 -27.5 97.5 -29.5v-72h-421z" />
    <glyph glyph-name="OE" unicode="&#x152;" horiz-adv-x="2124" 
d="M1903 1475l142.996 -346.997l-57 -22c-90.667 117.333 -172.667 197.5 -246 240.5s-162 64.5 -266 64.5c-84.667 0 -141 -11.333 -169 -34s-42 -68 -42 -136v-434h129c80 0 141.833 19.5 185.5 58.5s71.834 100.167 84.501 183.5h72v-570h-72
c-9.33301 85.333 -36.166 148.666 -80.499 189.999s-107.5 62 -189.5 62h-129v-506c0 -56 12.333 -94.5 37 -115.5s69 -31.5 133 -31.5c127.333 0 240 26.5 338 79.5s186.667 135.833 266 248.5l57 -21l-141 -385h-1036c-143.333 0 -251 8.5 -323 25.5
s-135.667 45.5 -191 85.5c-96.667 70 -172.167 160.333 -226.5 271s-81.5 229 -81.5 355c0 125.333 27.333 243.666 82 354.999s129 200.666 223 267.999c58.667 40.667 124.834 70 198.501 88s181.834 27 324.501 27h102h875zM1067 354.003v764
c0 99.333 -20.667 170 -62 212s-110 63 -206 63c-159.333 0 -278.333 -54.333 -357 -163s-118 -273 -118 -493s39.167 -384.5 117.5 -493.5s197.5 -163.5 357.5 -163.5c96 0 164.667 20.833 206 62.5s62 112.167 62 211.5z" />
    <glyph glyph-name="oe" unicode="&#x153;" horiz-adv-x="1706" 
d="M1602 250l48.9971 -49.002c-55.333 -74.667 -118.666 -131.334 -189.999 -170.001s-148.666 -58 -231.999 -58s-155.666 14.667 -216.999 44s-114 74.333 -158 135c-46 -61.333 -98 -106.833 -156 -136.5s-124 -44.5 -198 -44.5c-125.333 0 -229.833 48.333 -313.5 145
s-125.5 218.334 -125.5 365.001c0 144.667 43.167 265.5 129.5 362.5s192.833 145.5 319.5 145.5c79.333 0 147 -15.333 203 -46s106.333 -80 151 -148c45.333 68 96.166 118 152.499 150s120.833 48 193.5 48c121.333 0 220.333 -41.667 297 -125
s117 -193.666 121 -330.999l-676 -1c-0.666992 -6.66699 -1.16699 -13.667 -1.5 -21s-0.5 -18.666 -0.5 -33.999c0 -123.333 30 -221 90 -293s140.667 -108 242 -108c49.333 0 100.333 14 153 42s108.334 70.667 167.001 128zM1442 614.998
c-2.66699 99.333 -24.5 176.001 -65.5 230.001s-98.5 81 -172.5 81c-64.667 0 -118.167 -26.833 -160.5 -80.5s-70.833 -130.834 -85.5 -231.501zM517.997 923.999c-82.667 0 -149.333 -41.502 -200 -124.502s-76 -193.833 -76 -332.5
c0 -133.333 24.167 -238.666 72.5 -315.999s113.5 -116 195.5 -116c80.667 0 144.5 41.333 191.5 124s70.5 196.334 70.5 341.001c0 134 -22.333 238.167 -67 312.5s-107 111.5 -187 111.5z" />
    <glyph glyph-name="Scedilla" unicode="&#x15e;" horiz-adv-x="1139" 
d="M184 -29l-147 394.001l69 26c82 -110 168.167 -194.833 258.5 -254.5s177.833 -89.5 262.5 -89.5c80 0 147 27.167 201 81.5s81 122.166 81 203.499c0 82.667 -24.833 147.834 -74.5 195.501s-151.834 94.5 -306.501 140.5l-43 12
c-123.333 33.333 -212.666 77.666 -267.999 132.999c-40 40 -70.5 85.167 -91.5 135.5s-31.5 103.5 -31.5 159.5c0 113.333 37.333 207.5 112 282.5s168.334 112.5 281.001 112.5c44 0 92.667 -8.16699 146 -24.5s85.333 -24.5 96 -24.5c18.667 0 39.667 3.66699 63 11
s49.333 18 78 32l138 -373l-58 -32c-80.667 116 -159 202.333 -235 259s-151.333 85 -226 85c-72.667 0 -132.667 -24.833 -180 -74.5s-71 -112.167 -71 -187.5c0 -42 7.66699 -79.333 23 -112s39.666 -63 72.999 -91c44.667 -37.333 136 -74.333 274 -111l76 -20
c124 -34.667 216.833 -88.5 278.5 -161.5s92.5 -164.833 92.5 -275.5c0 -122 -39.333 -225.167 -118 -309.5s-174.667 -126.5 -288 -126.5c-66 0 -133.333 12 -202 36s-105 36 -109 36c-15.333 0 -34.833 -5.16699 -58.5 -15.5s-55.5 -27.833 -95.5 -52.5zM295 -378.999
l36.0029 89.999c40 -25.333 80 -44.666 120 -57.999s77.333 -20 112 -20c38 0 66.167 7.5 84.5 22.5s27.5 37.833 27.5 68.5c0 28.667 -9.16699 50.167 -27.5 64.5s-45.833 21.5 -82.5 21.5c-8.66699 0 -18.334 -0.666992 -29.001 -2l-33 -4v196h66v-115
c7.33301 1.33301 15.166 2.33301 23.499 3s20.833 1 37.5 1c58.667 0 104.5 -14.5 137.5 -43.5s49.5 -69.5 49.5 -121.5c0 -56 -19.833 -99.833 -59.5 -131.5s-94.834 -47.5 -165.501 -47.5c-39.333 0 -83 6.16699 -131 18.5s-103.333 31.5 -166 57.5z" />
    <glyph glyph-name="scedilla" unicode="&#x15f;" horiz-adv-x="909" 
d="M196 -28l-125.997 320.999l57 29c82 -102.667 151.167 -173.5 207.5 -212.5s114.166 -58.5 173.499 -58.5c57.333 0 102.333 14.5 135 43.5s49 68.5 49 118.5c0 82 -84.667 147.333 -254 196l-51 15c-99.333 28.667 -171.333 67.334 -216 116.001
s-67 112.334 -67 191.001c0 74.667 26 137 78 187s116.333 75 193 75c36 0 75.833 -6.83301 119.5 -20.5s69.167 -20.5 76.5 -20.5c10 0 30.333 8.66699 61 26c14.667 8 26.667 14.333 36 19l118 -292l-63 -29c-56 78 -114.333 138.833 -175 182.5s-117 65.5 -169 65.5
c-46.667 0 -85 -13.833 -115 -41.5s-45 -63.167 -45 -106.5c0 -46.667 15.167 -83 45.5 -109s94.5 -51.667 192.5 -77c140 -36 235.667 -78.333 287 -127s77 -116.334 77 -203.001c0 -84 -27 -153.5 -81 -208.5s-122.333 -82.5 -205 -82.5
c-42.667 0 -88.834 6.83301 -138.501 20.5s-78.834 20.5 -87.501 20.5c-10 0 -31.667 -6.66699 -65 -20c-20 -8 -36 -14 -48 -18zM181.003 -379.001l36.0029 89.999c40 -25.333 80 -44.666 120 -57.999s77.333 -20 112 -20c38 0 66.167 7.5 84.5 22.5s27.5 37.833 27.5 68.5
c0 28.667 -9.16699 50.167 -27.5 64.5s-45.833 21.5 -82.5 21.5c-8.66699 0 -18.334 -0.666992 -29.001 -2l-33 -4v196h66v-115c7.33301 1.33301 15.166 2.33301 23.499 3s20.833 1 37.5 1c58.667 0 104.5 -14.5 137.5 -43.5s49.5 -69.5 49.5 -121.5
c0 -56 -19.833 -99.833 -59.5 -131.5s-94.834 -47.5 -165.501 -47.5c-39.333 0 -83 6.16699 -131 18.5s-103.333 31.5 -166 57.5z" />
    <glyph glyph-name="Scaron" unicode="&#x160;" horiz-adv-x="1139" 
d="M184 -29l-147 394.001l69 26c82 -110 168.167 -194.833 258.5 -254.5s177.833 -89.5 262.5 -89.5c80 0 147 27.167 201 81.5s81 122.166 81 203.499c0 82.667 -24.833 147.834 -74.5 195.501s-151.834 94.5 -306.501 140.5l-43 12
c-123.333 33.333 -212.666 77.666 -267.999 132.999c-40 40 -70.5 85.167 -91.5 135.5s-31.5 103.5 -31.5 159.5c0 113.333 37.333 207.5 112 282.5s168.334 112.5 281.001 112.5c44 0 92.667 -8.16699 146 -24.5s85.333 -24.5 96 -24.5c18.667 0 39.667 3.66699 63 11
s49.333 18 78 32l138 -373l-58 -32c-80.667 116 -159 202.333 -235 259s-151.333 85 -226 85c-72.667 0 -132.667 -24.833 -180 -74.5s-71 -112.167 -71 -187.5c0 -42 7.66699 -79.333 23 -112s39.666 -63 72.999 -91c44.667 -37.333 136 -74.333 274 -111l76 -20
c124 -34.667 216.833 -88.5 278.5 -161.5s92.5 -164.833 92.5 -275.5c0 -122 -39.333 -225.167 -118 -309.5s-174.667 -126.5 -288 -126.5c-66 0 -133.333 12 -202 36s-105 36 -109 36c-15.333 0 -34.833 -5.16699 -58.5 -15.5s-55.5 -27.833 -95.5 -52.5zM264 1927h72
l221 -184l223 184h72l-228 -332h-133z" />
    <glyph glyph-name="scaron" unicode="&#x161;" horiz-adv-x="909" 
d="M196 -28l-125.997 320.999l57 29c82 -102.667 151.167 -173.5 207.5 -212.5s114.166 -58.5 173.499 -58.5c57.333 0 102.333 14.5 135 43.5s49 68.5 49 118.5c0 82 -84.667 147.333 -254 196l-51 15c-99.333 28.667 -171.333 67.334 -216 116.001
s-67 112.334 -67 191.001c0 74.667 26 137 78 187s116.333 75 193 75c36 0 75.833 -6.83301 119.5 -20.5s69.167 -20.5 76.5 -20.5c10 0 30.333 8.66699 61 26c14.667 8 26.667 14.333 36 19l118 -292l-63 -29c-56 78 -114.333 138.833 -175 182.5s-117 65.5 -169 65.5
c-46.667 0 -85 -13.833 -115 -41.5s-45 -63.167 -45 -106.5c0 -46.667 15.167 -83 45.5 -109s94.5 -51.667 192.5 -77c140 -36 235.667 -78.333 287 -127s77 -116.334 77 -203.001c0 -84 -27 -153.5 -81 -208.5s-122.333 -82.5 -205 -82.5
c-42.667 0 -88.834 6.83301 -138.501 20.5s-78.834 20.5 -87.501 20.5c-10 0 -31.667 -6.66699 -65 -20c-20 -8 -36 -14 -48 -18zM150.003 1415h72l221 -184l223 184h72l-228 -332h-133z" />
    <glyph glyph-name="Ydieresis" unicode="&#x178;" horiz-adv-x="1251" 
d="M522 602l-355.999 702.999c-20 38 -41 63.333 -63 76s-55.667 20 -101 22l2 72h508v-72h-18c-47.333 0 -81.833 -4.16699 -103.5 -12.5s-32.5 -21.166 -32.5 -38.499c0 -7.33301 2 -16.333 6 -27s12.333 -27.667 25 -51l289 -553l254 506c8 16 14 31.167 18 45.5
s6 27.833 6 40.5c0 30 -12.667 52.5 -38 67.5s-64.333 22.5 -117 22.5l2 72h426v-72c-74.667 -8.66699 -134.334 -56 -179.001 -142c-4 -8.66699 -7 -15 -9 -19l-320 -613v-385c0 -70 10.5 -116.167 31.5 -138.5s63.833 -33.5 128.5 -33.5h37v-72h-588v72h37
c62.667 0 104.167 10.5 124.5 31.5s30.5 68.5 30.5 142.5v356zM697.001 1772c0 30 11.167 56.167 33.5 78.5s48.5 33.5 78.5 33.5c30.667 0 57.167 -11 79.5 -33s33.5 -48.333 33.5 -79c0 -33.333 -10.667 -60.5 -32 -81.5s-48.333 -31.5 -81 -31.5
c-32 0 -58.667 10.667 -80 32s-32 48.333 -32 81zM312.001 1772c0 29.333 11.333 55.333 34 78s49.334 34 80.001 34s56.834 -11 78.501 -33s32.5 -48.333 32.5 -79c0 -33.333 -10.333 -60.5 -31 -81.5s-47.334 -31.5 -80.001 -31.5s-59.834 10.667 -81.501 32
s-32.5 48.333 -32.5 81z" />
    <glyph glyph-name="Zcaron" unicode="&#x17d;" horiz-adv-x="1139" 
d="M39 0l-28.998 42.999l838 1358h-221c-92 0 -175.167 -21.667 -249.5 -65s-160.5 -122.666 -258.5 -237.999l-56 30l136 347h856l28 -50l-825 -1345h236c105.333 0 198.166 22.5 278.499 67.5s173.166 128.833 278.499 251.5l53 -30l-139 -369h-926zM264.002 1927h72
l221 -184l223 184h72l-228 -332h-133z" />
    <glyph glyph-name="zcaron" unicode="&#x17e;" horiz-adv-x="909" 
d="M41 0l0.00195312 57l575 848h-159c-60 0 -115.833 -19.5 -167.5 -58.5s-105.834 -103.5 -162.501 -193.5l-55 27l114 297h625v-57l-561 -848h145c73.333 0 140.666 21.667 201.999 65s122.333 112.333 183 207l54 -27l-115 -317h-678zM150.002 1415h72l221 -184l223 184
h72l-228 -332h-133z" />
    <glyph glyph-name="florin" unicode="&#x192;" horiz-adv-x="1034" 
d="M225 866l6.00195 94.999h232c22.667 164.667 67.334 293.834 134.001 387.501s147 140.5 241 140.5c47.333 0 85.333 -10.667 114 -32s43 -49.666 43 -84.999c0 -26 -8.16699 -46.833 -24.5 -62.5s-38.166 -23.5 -65.499 -23.5c-28.667 0 -59.834 13.667 -93.501 41
s-57.834 41 -72.501 41c-36.667 0 -63.334 -25.333 -80.001 -76s-30.334 -161 -41.001 -331h259l-9 -95h-256l-1 -15c-30 -499.333 -70.667 -817 -122 -953c-34.667 -91.333 -79.834 -162 -135.501 -212s-116.167 -75 -181.5 -75c-47.333 0 -85.5 10.667 -114.5 32
s-43.5 49.666 -43.5 84.999c0 26 8.33301 46.833 25 62.5s38.334 23.5 65.001 23.5c30 0 61.333 -13.667 94 -41s56.667 -41 72 -41c65.333 0 108.333 175 129 525c14 244.667 29 447.667 45 609h-219z" />
    <glyph glyph-name="circumflex" unicode="&#x2c6;" 
d="M209 1077l227 332h133l228 -332h-74l-221 187l-221 -187h-72z" />
    <glyph glyph-name="caron" unicode="&#x2c7;" 
d="M207 1415h72l221 -184l223 184h72l-228 -332h-133z" />
    <glyph glyph-name="breve" unicode="&#x2d8;" 
d="M201 1389h64.999c12 -44.667 36.5 -77 73.5 -97s91.167 -30 162.5 -30s125.333 9.83301 162 29.5s60.334 52.167 71.001 97.5h66c-14.667 -88 -47 -154.167 -97 -198.5s-117.333 -66.5 -202 -66.5s-152.5 22.5 -203.5 67.5s-83.5 110.833 -97.5 197.5z" />
    <glyph glyph-name="dotaccent" unicode="&#x2d9;" 
d="M389 1266c0 32.667 12.332 61.667 36.999 87s53.334 38 86.001 38c34 0 63.333 -12.5 88 -37.5s37 -54.167 37 -87.5c0 -36 -11.833 -65.5 -35.5 -88.5s-53.5 -34.5 -89.5 -34.5s-65.5 11.5 -88.5 34.5s-34.5 52.5 -34.5 88.5z" />
    <glyph glyph-name="ring" unicode="&#x2da;" 
d="M371 1331c0 -40 13.5 -73.833 40.5 -101.5s60.5 -41.5 100.5 -41.5s73.5 13.833 100.5 41.5s40.5 61.5 40.5 101.5s-13.5 73.667 -40.5 101s-60.5 41 -100.5 41s-73.5 -13.667 -100.5 -41s-40.5 -61 -40.5 -101zM274 1331c0 66.667 23 123 69 169s102.333 69 169 69
s123 -23 169 -69s69 -102.333 69 -169s-23 -122.834 -69 -168.501s-102.333 -68.5 -169 -68.5s-123 22.833 -169 68.5s-69 101.834 -69 168.501z" />
    <glyph glyph-name="ogonek" unicode="&#x2db;" 
d="M676 35c-56 -43.333 -99.001 -87.166 -129.001 -131.499s-45 -85.833 -45 -124.5c0 -39.333 8 -70 24 -92s38.667 -33 68 -33c24 0 45.833 5.66699 65.5 17s38.834 29.666 57.501 54.999l28 -17c-24 -50 -55 -88.833 -93 -116.5s-80 -41.5 -126 -41.5
c-47.333 0 -85.333 14 -114 42s-43 65.333 -43 112c0 56 21.333 111 64 165s108 109 196 165h47z" />
    <glyph glyph-name="tilde" unicode="&#x2dc;" 
d="M784 1399c-14 -71.333 -37.1699 -125.332 -69.5029 -161.999s-73.166 -55 -122.499 -55c-8.66699 0 -17.5 0.5 -26.5 1.5s-18.167 2.5 -27.5 4.5l-105 24c-14 4 -25.833 6.83301 -35.5 8.5s-17.834 2.5 -24.501 2.5c-24.667 0 -44.667 -6.83301 -60 -20.5
s-27.666 -35.5 -36.999 -65.5h-57c14.667 73.333 38.334 128.166 71.001 164.499s75.334 54.5 128.001 54.5c10.667 0 21.334 -0.666992 32.001 -2s21 -3.33301 31 -6l106 -25c8.66699 -2 17.167 -3.5 25.5 -4.5s17.166 -1.5 26.499 -1.5c22 0 40.5 6.83301 55.5 20.5
s25.833 34.167 32.5 61.5h57z" />
    <glyph glyph-name="hungarumlaut" unicode="&#x2dd;" 
d="M567 1102l173.999 284.001c15.333 26 31 44.833 47 56.5s33.333 17.5 52 17.5c20.667 0 37.667 -6.83301 51 -20.5s20 -31.5 20 -53.5c0 -14 -5.16699 -28.833 -15.5 -44.5s-26.166 -32.834 -47.499 -51.501l-221 -188h-60zM321.999 1102l132.999 274.001
c13.333 29.333 27.833 51 43.5 65s33.167 21 52.5 21c18.667 0 35.334 -7.16699 50.001 -21.5s22 -30.833 22 -49.5c0 -13.333 -4 -26.833 -12 -40.5s-22.667 -31.834 -44 -54.501l-184 -194h-61z" />
    <glyph glyph-name="Omega" unicode="&#x3a9;" horiz-adv-x="1567" 
d="M1100 188l0.00195312 -25.999h313l66 203h61l-108 -365h-500c89.333 155.333 156.666 305.666 201.999 450.999s68 283 68 413c0 180.667 -35.833 319.334 -107.5 416.001s-174.5 145 -308.5 145s-237 -48.333 -309 -145s-108 -235.334 -108 -416.001
c0 -130 22.667 -267 68 -411s113.333 -295 204 -453h-500l-110 365h61l68 -203h311v26c-110 135.333 -188 255.833 -234 361.5s-69 214.834 -69 327.501c0 181.333 58.167 330 174.5 446s264.166 174 443.499 174s327 -58.167 443 -174.5s174 -264.833 174 -445.5
c0 -112.667 -23 -221.834 -69 -327.501s-124 -226.167 -234 -361.5z" />
    <glyph glyph-name="pi" unicode="&#x3c0;" horiz-adv-x="1354" 
d="M1329 885l-35.002 -162h-329c-22.667 -119.333 -40.667 -270 -54 -452c-15.333 -209.333 -55.333 -314 -120 -314c-25.333 0 -44.666 8.16699 -57.999 24.5s-20 39.5 -20 69.5c0 38.667 25.667 132.167 77 280.5s90.333 278.833 117 391.5h-375
c-22 -118 -39.667 -267.333 -53 -448c-16.667 -212 -57.667 -318 -123 -318c-24.667 0 -43.667 8.33301 -57 25s-20 40.334 -20 71.001c0 37.333 25.833 129.666 77.5 276.999s91.167 278.333 118.5 393h-133c-90.667 0 -150.667 -14.5 -180 -43.5
s-53.333 -86.167 -72 -171.5h-59c24.667 138 63.834 235.333 117.501 292s133.167 85 238.5 85h942z" />
    <glyph glyph-name="endash" unicode="&#x2013;" 
d="M0 422v117h1024v-117h-1024z" />
    <glyph glyph-name="emdash" unicode="&#x2014;" horiz-adv-x="2048" 
d="M0 539h2048v-117h-2048v117z" />
    <glyph glyph-name="quoteleft" unicode="&#x2018;" horiz-adv-x="516" 
d="M356 1503l45 -45.002c-54.667 -57.333 -92.5 -101.5 -113.5 -132.5s-31.5 -57.167 -31.5 -78.5c0 -18.667 19.667 -43.667 59 -75c9.33301 -7.33301 16.333 -13 21 -17c11.333 -9.33301 20.333 -22.166 27 -38.499s10 -34.166 10 -53.499c0 -34 -11.5 -62.333 -34.5 -85
s-51.833 -34 -86.5 -34c-43.333 0 -77 14 -101 42s-36 67.333 -36 118c0 66.667 20.833 134.5 62.5 203.5s101.167 134.167 178.5 195.5z" />
    <glyph glyph-name="quoteright" unicode="&#x2019;" horiz-adv-x="516" 
d="M141 944l-45 42.999c56 58 94.667 102.667 116 134s32 57.666 32 78.999c0 17.333 -18.333 40 -55 68l-27 22c-11.333 9.33301 -20.333 22.333 -27 39s-10 34.334 -10 53.001c0 34.667 11.5 63.5 34.5 86.5s51.833 34.5 86.5 34.5c43.333 0 77 -14.167 101 -42.5
s36 -68.166 36 -119.499c0 -66 -20.833 -133.167 -62.5 -201.5s-101.5 -133.5 -179.5 -195.5z" />
    <glyph glyph-name="quotesinglbase" unicode="&#x201a;" horiz-adv-x="516" 
d="M141 -322l-45 43.0029c56 58.667 94.667 103.667 116 135s32 57.333 32 78c0 17.333 -18.333 40.333 -55 69c-11.333 8.66699 -20.333 16 -27 22c-11.333 9.33301 -20.333 22.166 -27 38.499s-10 34.166 -10 53.499c0 34 11.5 62.667 34.5 86s51.833 35 86.5 35
c43.333 0 77 -14.333 101 -43s36 -68.334 36 -119.001c0 -66 -20.833 -133.333 -62.5 -202s-101.5 -134 -179.5 -196z" />
    <glyph glyph-name="quotedblleft" unicode="&#x201c;" horiz-adv-x="948" 
d="M350 1503l44.999 -45.002c-54.667 -57.333 -92.5 -101.5 -113.5 -132.5s-31.5 -57.167 -31.5 -78.5c0 -18.667 20 -44 60 -76c8.66699 -6.66699 15.334 -12 20.001 -16c11.333 -9.33301 20.333 -22.166 27 -38.499s10 -34.166 10 -53.499c0 -34 -11.5 -62.333 -34.5 -85
s-51.833 -34 -86.5 -34c-43.333 0 -77 14 -101 42s-36 67.333 -36 118c0 66.667 20.833 134.5 62.5 203.5s101.167 134.167 178.5 195.5zM790.999 1503l45 -45.002c-55.333 -57.333 -93.5 -101.5 -114.5 -132.5s-31.5 -57.167 -31.5 -78.5c0 -18.667 19.667 -43.667 59 -75
c9.33301 -7.33301 16.333 -13 21 -17c11.333 -9.33301 20.333 -22.166 27 -38.499s10 -34.166 10 -53.499c0 -34 -11.5 -62.333 -34.5 -85s-51.833 -34 -86.5 -34c-43.333 0 -77 14 -101 42s-36 67.333 -36 118c0 66.667 20.833 134.5 62.5 203.5s101.5 134.167 179.5 195.5
z" />
    <glyph glyph-name="quotedblright" unicode="&#x201d;" horiz-adv-x="948" 
d="M152 944l-46 42.999c56 58 94.667 102.667 116 134s32 57.666 32 78.999c0 17.333 -18 40 -54 68l-28 22c-11.333 9.33301 -20.333 22.333 -27 39s-10 34.334 -10 53.001c0 34.667 11.5 63.5 34.5 86.5s51.833 34.5 86.5 34.5c43.333 0 77 -14.167 101 -42.5
s36 -68.166 36 -119.499c0 -66 -20.667 -133.167 -62 -201.5s-101 -133.5 -179 -195.5zM592 943.999l-44.999 42.998c53.333 56 90.833 100 112.5 132s32.5 59 32.5 81c0 18 -18.333 41.667 -55 71c-10.667 8 -18.667 14.333 -24 19c-12 9.33301 -21.333 22.333 -28 39
s-10 34.334 -10 53.001c0 34.667 11.667 63.5 35 86.5s52 34.5 86 34.5c43.333 0 77.166 -14.167 101.499 -42.5s36.5 -68.166 36.5 -119.499c0 -66 -20.833 -133.167 -62.5 -201.5s-101.5 -133.5 -179.5 -195.5z" />
    <glyph glyph-name="quotedblbase" unicode="&#x201e;" horiz-adv-x="948" 
d="M152 -322l-46 43.0029c56 58.667 94.667 103.667 116 135s32 57.333 32 78c0 17.333 -18 40.333 -54 69c-12 8.66699 -21.333 16 -28 22c-11.333 9.33301 -20.333 22.166 -27 38.499s-10 34.166 -10 53.499c0 34 11.5 62.667 34.5 86s51.833 35 86.5 35
c43.333 0 77 -14.333 101 -43s36 -68.334 36 -119.001c0 -66 -20.667 -133.333 -62 -202s-101 -134 -179 -196zM592 -321.997l-44.999 43.002c53.333 56.667 90.833 101 112.5 133s32.5 58.667 32.5 80c0 18 -18.333 41.667 -55 71c-10.667 8 -18.667 14.333 -24 19
c-12 10 -21.333 23.167 -28 39.5s-10 34.166 -10 53.499c0 34 11.667 62.667 35 86s52 35 86 35c43.333 0 77.166 -14.333 101.499 -43s36.5 -68.334 36.5 -119.001c0 -66 -20.833 -133.333 -62.5 -202s-101.5 -134 -179.5 -196z" />
    <glyph glyph-name="dagger" unicode="&#x2020;" 
d="M406 641c29.333 42 51.335 90.665 66.002 145.998s22 119.333 22 192l-1 31c-52.667 -1.33301 -110 -13.666 -172 -36.999s-100.667 -35 -116 -35c-29.333 0 -53.5 8.16699 -72.5 24.5s-28.5 36.833 -28.5 61.5c0 26.667 9.5 48.667 28.5 66s43.167 26 72.5 26
c16 0 51.833 -10.833 107.5 -32.5s106.5 -32.5 152.5 -32.5h26c1.33301 6 2.16602 12.333 2.49902 19s0.5 16.667 0.5 30c0 64.667 -12.333 129.834 -37 195.501s-37 102.834 -37 111.501c0 28 8.66699 51 26 69s40 27 68 27c26 0 47.167 -8.66699 63.5 -26
s24.5 -40 24.5 -68c0 -20 -10 -52.667 -30 -98c-10.667 -24 -18.334 -42.333 -23.001 -55c-5.33301 -17.333 -9.5 -43.333 -12.5 -78s-4.5 -77 -4.5 -127h23c48 0 101 10.833 159 32.5s93 32.5 105 32.5c29.333 0 53.5 -8.33301 72.5 -25s28.5 -37.667 28.5 -63
c0 -26.667 -8.66699 -48 -26 -64s-40.333 -24 -69 -24c-19.333 0 -57.5 11.667 -114.5 35s-108.833 35 -155.5 35h-25c0 -93.333 7.33301 -169.833 22 -229.5s37.667 -106.834 69 -141.501c-27.333 -112.667 -47.5 -232.834 -60.5 -360.501s-19.5 -263.5 -19.5 -407.5v-94
h-49c0 160 -7.16699 311.333 -21.5 454s-35.833 279.334 -64.5 410.001z" />
    <glyph glyph-name="daggerdbl" unicode="&#x2021;" 
d="M406 641c29.333 42 51.335 90.6689 66.002 146.002s22 119.333 22 192l-1 31c-52.667 -1.33301 -110 -13.666 -172 -36.999s-100.667 -35 -116 -35c-29.333 0 -53.5 8.16699 -72.5 24.5s-28.5 36.833 -28.5 61.5c0 26.667 9.5 48.667 28.5 66s43.167 26 72.5 26
c16 0 51.833 -10.833 107.5 -32.5s106.5 -32.5 152.5 -32.5h26c1.33301 6 2.16602 12.333 2.49902 19s0.5 16.667 0.5 30c0 64.667 -12.333 129.834 -37 195.501s-37 102.834 -37 111.501c0 28 8.66699 51 26 69s40 27 68 27c26 0 47.167 -8.66699 63.5 -26
s24.5 -40 24.5 -68c0 -20 -10 -52.667 -30 -98c-10.667 -24 -18.334 -42.333 -23.001 -55c-5.33301 -17.333 -9.5 -43.333 -12.5 -78s-4.5 -77 -4.5 -127h23c48 0 101 10.833 159 32.5s93 32.5 105 32.5c29.333 0 53.5 -8.33301 72.5 -25s28.5 -37.667 28.5 -63
c0 -26.667 -8.66699 -48 -26 -64s-40.333 -24 -69 -24c-19.333 0 -57.5 11.667 -114.5 35s-108.833 35 -155.5 35h-25c0 -93.333 7.33301 -169.833 22 -229.5s37.667 -106.834 69 -141.501c-30 -42.667 -52.333 -91.667 -67 -147s-22 -117 -22 -185l1 -39
c52.667 1.33301 109.667 13.666 171 36.999s99.666 35 114.999 35c30 0 54.333 -7.83301 73 -23.5s28 -35.834 28 -60.501c0 -27.333 -9.5 -49.833 -28.5 -67.5s-43.167 -26.5 -72.5 -26.5c-16 0 -52 11.167 -108 33.5s-107.333 33.5 -154 33.5h-24
c-1.33301 -6 -2.16602 -12.333 -2.49902 -19s-0.5 -16.667 -0.5 -30c0 -64.667 12.333 -130.167 37 -196.5s37 -103.833 37 -112.5c0 -28 -8.5 -50.667 -25.5 -68s-39.833 -26 -68.5 -26c-26 0 -47.167 8.66699 -63.5 26s-24.5 40 -24.5 68c0 20 10 52.667 30 98
c10.667 24 18.334 42.333 23.001 55c5.33301 18 9.5 44 12.5 78s4.5 75.667 4.5 125h-23c-48 0 -101 -10.833 -159 -32.5s-93 -32.5 -105 -32.5c-29.333 0 -53.5 8.33301 -72.5 25s-28.5 37.667 -28.5 63c0 27.333 8.66699 49.166 26 65.499s40.333 24.5 69 24.5
c19.333 0 57.666 -12 114.999 -36s109 -36 155 -36h25c0 91.333 -7.16699 167.166 -21.5 227.499s-36.5 108.833 -66.5 145.5z" />
    <glyph glyph-name="bullet" unicode="&#x2022;" horiz-adv-x="1208" 
d="M307 762c0 82 28.999 151.666 86.999 208.999s128 86 210 86c81.333 0 150.833 -28.833 208.5 -86.5s86.5 -127.167 86.5 -208.5s-29.167 -151.166 -87.5 -209.499s-128.166 -87.5 -209.499 -87.5c-82 0 -151.667 29 -209 87s-86 128 -86 210z" />
    <glyph glyph-name="ellipsis" unicode="&#x2026;" horiz-adv-x="2048" 
d="M205 123c0 37.333 13.333 69.166 40 95.499s59 39.5 97 39.5s70.333 -13.167 97 -39.5s40 -58.166 40 -95.499c0 -38.667 -13.333 -71.5 -40 -98.5s-59 -40.5 -97 -40.5s-70.333 13.5 -97 40.5s-40 59.833 -40 98.5zM887 123c0 37.333 13.333 69.166 40 95.499
s59 39.5 97 39.5s70.333 -13.167 97 -39.5s40 -58.166 40 -95.499c0 -38.667 -13.333 -71.5 -40 -98.5s-59 -40.5 -97 -40.5s-70.333 13.5 -97 40.5s-40 59.833 -40 98.5zM1571 123c0 37.333 13.333 69.166 40 95.499s59 39.5 97 39.5s70.333 -13.167 97 -39.5
s40 -58.166 40 -95.499c0 -38.667 -13.333 -71.5 -40 -98.5s-59 -40.5 -97 -40.5s-70.333 13.5 -97 40.5s-40 59.833 -40 98.5z" />
    <glyph glyph-name="perthousand" unicode="&#x2030;" horiz-adv-x="2466" 
d="M2312 549c0 51.333 -13.833 94.165 -41.5 128.498s-61.5 51.5 -101.5 51.5c-32.667 0 -66.167 -13.667 -100.5 -41s-70.5 -69.666 -108.5 -126.999c-43.333 -66 -76 -128 -98 -186s-33 -111.333 -33 -160c0 -45.333 12 -81.166 36 -107.499s56.333 -39.5 97 -39.5
c39.333 0 78.5 13.167 117.5 39.5s76.167 64.833 111.5 115.5c38.667 56.667 68.5 113.167 89.5 169.5s31.5 108.5 31.5 156.5zM2109 792.999c83.333 0 146.499 -21.168 189.499 -63.501s64.5 -103.833 64.5 -184.5c0 -59.333 -12.5 -121.666 -37.5 -186.999
s-60.833 -129.333 -107.5 -192c-40.667 -54 -85.667 -95.167 -135 -123.5s-100.666 -42.5 -153.999 -42.5c-82.667 0 -148 24.5 -196 73.5s-72 115.833 -72 200.5c0 56.667 12 114 36 172s59 114 105 168c49.333 58 100.333 102.333 153 133s104 46 154 46zM1538 548.998
c0 52 -13.5 94.998 -40.5 128.998s-60.5 51 -100.5 51c-32.667 0 -66.167 -13.667 -100.5 -41s-70.5 -69.666 -108.5 -126.999c-43.333 -66 -76 -128 -98 -186s-33 -111.333 -33 -160c0 -45.333 12 -81.166 36 -107.499s56.333 -39.5 97 -39.5
c39.333 0 78.5 13.167 117.5 39.5s76.167 64.833 111.5 115.5c38 56 67.333 112.167 88 168.5s31 108.833 31 157.5zM1337 792.996c83.333 0 146.499 -21.168 189.499 -63.501s64.5 -103.833 64.5 -184.5c0 -59.333 -12.5 -121.666 -37.5 -186.999
s-60.833 -129.333 -107.5 -192c-40.667 -54 -85.5 -95.167 -134.5 -123.5s-99.833 -42.5 -152.5 -42.5c-83.333 0 -149.166 24.5 -197.499 73.5s-72.5 115.833 -72.5 200.5c0 56.667 12 114 36 172s59 114 105 168c49.333 58 100.333 102.333 153 133s104 46 154 46z
M714.998 1262c-28.667 6.66699 -54.1689 17.6641 -76.502 32.9971s-41.166 34.333 -56.499 57h-4c-30.667 0 -61.667 -13.5 -93 -40.5s-66 -69.5 -104 -127.5c-42.667 -66 -75.167 -129.333 -97.5 -190s-33.5 -115.667 -33.5 -165c0 -42.667 11.833 -76.5 35.5 -101.5
s55.5 -37.5 95.5 -37.5c40.667 0 80.834 13.333 120.501 40s77.167 65.334 112.5 116.001c38 54.667 67 109.334 87 164.001s30 106.334 30 155.001c0 17.333 -1.33301 33.833 -4 49.5s-6.66699 31.5 -12 47.5zM368.996 -35.0078l745.002 1321
c-38 -21.333 -75.833 -37.5 -113.5 -48.5s-74.167 -16.5 -109.5 -16.5c-22.667 0 -43.5 1.83301 -62.5 5.5s-36.5 9.16699 -52.5 16.5c2.66699 -15.333 4.66699 -30.166 6 -44.499s2 -27.5 2 -39.5c0 -54 -12.667 -113.667 -38 -179s-60.333 -127 -105 -185
c-42 -55.333 -87.833 -97.5 -137.5 -126.5s-100.834 -43.5 -153.501 -43.5c-82 0 -147.167 24.667 -195.5 74s-72.5 116 -72.5 200c0 56.667 12 114 36 172s59 114 105 168c50 58.667 101.333 103.334 154 134.001s103.667 46 153 46c51.333 0 94.166 -7.66699 128.499 -23
s62.5 -39.666 84.5 -72.999c28 -16.667 53.667 -28.667 77 -36s47 -11 71 -11c62 0 124 15.667 186 47s110 71.666 144 120.999h90l-842 -1479h-100z" />
    <glyph glyph-name="guilsinglleft" unicode="&#x2039;" horiz-adv-x="682" 
d="M133 483c80 59.333 159.667 128.166 239 206.499s127.333 117.5 144 117.5c6 0 11 -1.33301 15 -4s6 -6 6 -10c0 -29.333 -65 -118.666 -195 -267.999l-37 -42l37 -42c130 -149.333 195 -238.333 195 -267c0 -4 -2 -7.33301 -6 -10s-9 -4 -15 -4
c-16.667 0 -64.667 39 -144 117s-159 146.667 -239 206z" />
    <glyph glyph-name="guilsinglright" unicode="&#x203a;" horiz-adv-x="682" 
d="M549 483c-80 -59.333 -159.667 -128.001 -239 -206.001s-127.333 -117 -144 -117c-6 0 -10.667 1.16699 -14 3.5s-5 5.83301 -5 10.5c0 30 70 125.667 210 287l20 22l-20 23c-140 161.333 -210 257 -210 287c0 4 1.66699 7.33301 5 10s8 4 14 4
c16.667 0 64.667 -39.167 144 -117.5s159 -147.166 239 -206.499z" />
    <glyph glyph-name="franc" unicode="&#x20a3;" horiz-adv-x="2048" 
d="M66 0v72c80 0 132 10.167 156 30.5s36 70.833 36 151.5v963c0 84 -10 135.667 -30 155s-64.667 29 -134 29h-28v74h1028l145 -338l-57 -23c-90 117.333 -172 197.5 -246 240.5s-163.333 64.5 -268 64.5c-84 0 -139.833 -11.333 -167.5 -34s-41.5 -68.667 -41.5 -138v-440
h98c95.333 0 165.833 18.333 211.5 55s75.5 99 89.5 187h70v-570h-70c-10 89.333 -38.5 153.666 -85.5 192.999s-118.833 59 -215.5 59h-98v-506c0 -60 12.333 -99.667 37 -119s81.667 -30.666 171 -33.999l1 -72h-602zM1276 848v52.9971l311 96v-217
c60.667 80.667 117 140.167 169 178.5s102.667 57.5 152 57.5c42 0 74 -9.5 96 -28.5s33 -46.5 33 -82.5c0 -27.333 -8.16699 -48.833 -24.5 -64.5s-38.833 -23.5 -67.5 -23.5c-20 0 -46.167 6.16699 -78.5 18.5s-55.166 18.5 -68.499 18.5
c-36 0 -70.333 -13.167 -103 -39.5s-67.334 -69.166 -104.001 -128.499v-440c0 -83.333 11.5 -133.166 34.5 -149.499s75.5 -24.5 157.5 -24.5h23v-72h-526v72c62 1.33301 103.667 11.833 125 31.5s32 67.834 32 144.501v434c0 65.333 -10.667 108.5 -32 129.5
s-64.333 33.167 -129 36.5z" />
    <glyph glyph-name="trademark" unicode="&#x2122;" horiz-adv-x="1683" 
d="M788 1438l183 0.00390625l141 -400l148 400h174v-25l-30 -2c-14.667 -1.33301 -26 -6.5 -34 -15.5s-12 -21.5 -12 -37.5v-373c0 -16 4 -28.5 12 -37.5s19.333 -14.167 34 -15.5l30 -2v-27h-236v27l31 2c14 1.33301 25 6.66602 33 15.999s12 21.666 12 36.999v395
l-178 -479h-15l-174 479v-395c0 -15.333 4.16699 -27.666 12.5 -36.999s19.833 -14.666 34.5 -15.999l31 -2v-27h-197v27l34 2c14 1.33301 24.833 6.66602 32.5 15.999s11.5 21.666 11.5 36.999v371c0 15.333 -4.16699 27.666 -12.5 36.999s-19.833 14.666 -34.5 15.999
l-31 2v27zM256 1438l440.001 -0.00292969l11 -178h-25c-5.33301 52.667 -18.833 91 -40.5 115s-53.834 36 -96.501 36h-21v-426c0 -15.333 4 -27.666 12 -36.999s19 -14.666 33 -15.999l31 -2v-27h-248v27l31 2c14 0.666992 25 5.83398 33 15.501s12 22.167 12 37.5v426h-20
c-42.667 0 -75 -12 -97 -36s-35.667 -62.333 -41 -115h-26z" />
    <glyph glyph-name="partialdiff" unicode="&#x2202;" horiz-adv-x="1044" 
d="M754 604c8.66699 54 15.1699 107.833 19.5029 161.5s6.5 106.5 6.5 158.5c0 93.333 -13.167 165.5 -39.5 216.5s-63.5 76.5 -111.5 76.5c-35.333 0 -74.333 -21.167 -117 -63.5s-79 -63.5 -109 -63.5c-19.333 0 -36.333 7.16699 -51 21.5s-22 31.5 -22 51.5
c0 39.333 22.667 74.5 68 105.5s99.666 46.5 162.999 46.5c114 0 205 -50.833 273 -152.5s102 -239.167 102 -412.5c0 -223.333 -46.333 -408.333 -139 -555s-207.334 -220 -344.001 -220c-98 0 -178.5 35.5 -241.5 106.5s-94.5 161.833 -94.5 272.5
c0 126 36.167 231.333 108.5 316s161.166 127 266.499 127c66 0 120.167 -15.667 162.5 -47s75.5 -80 99.5 -146zM709.003 483c0 78 -15 138.168 -45 180.501s-72.333 63.5 -127 63.5c-75.333 0 -136.833 -42.5 -184.5 -127.5s-71.5 -196.167 -71.5 -333.5
c0 -78 14.667 -137.333 44 -178s72 -61 128 -61c74 0 135.167 42.667 183.5 128s72.5 194.666 72.5 327.999z" />
    <glyph glyph-name="Delta" unicode="&#x2206;" horiz-adv-x="1208" 
d="M555 1212l-389 -1042h768zM596 1497h29l555 -1497h-1151z" />
    <glyph glyph-name="product" unicode="&#x220f;" horiz-adv-x="1595" 
d="M57 1473h1479v-70h-186v-1727h186v-69h-555v69h197v1727h-762v-1727h196v-69h-555v69h187v1727h-187v70z" />
    <glyph glyph-name="summation" unicode="&#x2211;" horiz-adv-x="1434" 
d="M12 1473h1135l98 -340h-74l-67 219c-5.33301 18 -16 31 -32 39s-40.333 12 -73 12h-741l864 -850v-37l-858 -756h893c40 0 65.833 4.33301 77.5 13s21.5 25.667 29.5 51l71 229h74l-135 -446h-1260v28l959 838l-961 950v50z" />
    <glyph glyph-name="minus" unicode="&#x2212;" horiz-adv-x="1706" 
d="M254 670h1198v-119h-1198v119z" />
    <glyph glyph-name="fraction" unicode="&#x2215;" horiz-adv-x="342" 
d="M-342 -29l920 1461h104l-920 -1461h-104z" />
    <glyph glyph-name="periodcentered" unicode="&#x2219;" horiz-adv-x="516" 
d="M258 848c38 0 70.333 -13.5 97 -40.5s40 -59.167 40 -96.5c0 -38 -13.333 -70.5 -40 -97.5s-59 -40.5 -97 -40.5s-70.333 13.5 -97 40.5s-40 59.5 -40 97.5c0 37.333 13.333 69.5 40 96.5s59 40.5 97 40.5z" />
    <glyph glyph-name="radical" unicode="&#x221a;" horiz-adv-x="1288" 
d="M1106 1647h182v-82h-119l-594 -1606h-53l-323 893l-119 -43l-23 68l262 92l265 -729z" />
    <glyph glyph-name="infinity" unicode="&#x221e;" horiz-adv-x="1706" 
d="M905 559c34 -63.333 73.6689 -110.5 119.002 -141.5s97.333 -46.5 156 -46.5c68 0 124.167 23.667 168.5 71s66.5 107.666 66.5 180.999c0 72 -20.333 131.833 -61 179.5s-91.334 71.5 -152.001 71.5c-56.667 0 -107.834 -24.167 -153.501 -72.5
s-93.5 -129.166 -143.5 -242.499zM803.002 666c-34 63.333 -73.6699 110.833 -119.003 142.5s-96.666 47.5 -153.999 47.5c-70 0 -127 -23.667 -171 -71s-66 -108.333 -66 -183c0 -72 20.333 -131.667 61 -179s91.334 -71 152.001 -71c56.667 0 107.334 23 152.001 69
s93 127.667 145 245zM865.999 494c-47.333 -92 -96.667 -159.169 -148 -201.502s-109 -63.5 -173 -63.5c-89.333 0 -164.666 36.333 -225.999 109s-92 163.334 -92 272.001c0 114.667 27.5 207.167 82.5 277.5s126.5 105.5 214.5 105.5c64.667 0 122 -21 172 -63
s98 -109.667 144 -203c44.667 92 93.334 160 146.001 204s111 66 175 66c89.333 0 164.666 -36.167 225.999 -108.5s92 -163.166 92 -272.499c0 -114 -27.333 -206.333 -82 -277s-125.667 -106 -213 -106c-64 0 -120.333 20 -169 60s-98.334 107 -149.001 201z" />
    <glyph glyph-name="integral" unicode="&#x222b;" horiz-adv-x="1020" 
d="M301 -268c68.667 0 107.33 221.335 115.997 664.002c2 94 3.66699 166 5 216c8 335.333 42 575.166 102 719.499s153.667 216.5 281 216.5c50.667 0 91.334 -13 122.001 -39s46 -60.667 46 -104c0 -32 -10.333 -57.833 -31 -77.5s-48 -29.5 -82 -29.5
c-35.333 0 -63.666 11.667 -84.999 35s-32 54 -32 92c0 5.33301 -2 10.5 -6 15.5s-8.66699 7.5 -14 7.5c-70 0 -109.667 -211.333 -119 -634c-2 -104.667 -4 -186.334 -6 -245.001c-6.66699 -205.333 -17.167 -359 -31.5 -461s-35.166 -184.333 -62.499 -247
c-32.667 -76 -73.667 -133.667 -123 -173s-105.333 -59 -168 -59c-48.667 0 -88.5 12.667 -119.5 38s-46.5 57.666 -46.5 96.999c0 35.333 10.5 63.333 31.5 84s48.833 31 83.5 31c31.333 0 57.833 -9.66699 79.5 -29s32.5 -41.666 32.5 -66.999c0 -16 2.5 -28.5 7.5 -37.5
s11.5 -13.5 19.5 -13.5z" />
    <glyph glyph-name="approxequal" unicode="&#x2248;" horiz-adv-x="1706" 
d="M1530 584l-0.00292969 -130.998c-71.333 -50 -138.666 -86.833 -201.999 -110.5s-125.666 -35.5 -186.999 -35.5c-65.333 0 -161.333 23.167 -288 69.5s-223.334 69.5 -290.001 69.5c-54.667 0 -111.167 -11.833 -169.5 -35.5s-130.166 -64.834 -215.499 -123.501v131
c72 49.333 139.833 86.166 203.5 110.499s124.834 36.5 183.501 36.5c74 0 174.5 -23.167 301.5 -69.5s219.167 -69.5 276.5 -69.5c56.667 0 114.5 11.833 173.5 35.5s130.167 64.5 213.5 122.5zM1530 934.002l0.000976562 -130.998
c-69.333 -48.667 -136 -84.834 -200 -108.501s-126.333 -35.5 -187 -35.5c-66.667 0 -163.334 23 -290.001 69s-223.334 69 -290.001 69c-55.333 0 -112.5 -12 -171.5 -36s-130.167 -64.667 -213.5 -122v131c70.667 48.667 138 85 202 109s125.667 36 185 36
c74 0 174.167 -22.833 300.5 -68.5s218.833 -68.5 277.5 -68.5c58 0 116.333 11.667 175 35s129.334 63.666 212.001 120.999z" />
    <glyph glyph-name="notequal" unicode="&#x2260;" horiz-adv-x="1706" 
d="M1210 1180l88 -70l-196 -250h350v-115h-424l-211 -270h635v-115h-709l-251 -319l-89 70l197 249h-346v115h420l211 270h-631v115h704z" />
    <glyph glyph-name="lessequal" unicode="&#x2264;" horiz-adv-x="1706" 
d="M262 150h1182v-117h-1182v117zM1444 1192v-125l-977 -324l977 -323v-125l-1182 399v101z" />
    <glyph glyph-name="greaterequal" unicode="&#x2265;" horiz-adv-x="1706" 
d="M262 150h1182v-117h-1182v117zM262 1192l1182 -397v-101l-1182 -399v125l979 323l-979 324v125z" />
    <glyph glyph-name="lozenge" unicode="&#x25ca;" horiz-adv-x="1012" 
d="M506 1409l-385 -817l385 -825l385 825zM506 1653l500 -1061l-500 -1069l-500 1069z" />
    <glyph glyph-name="apple" unicode="&#xf000;" horiz-adv-x="1618" 
d="M836 1216c-0.666992 4 -1.16699 8.66895 -1.5 14.002s-0.5 13 -0.5 23c0 82.667 31.667 159.167 95 229.5s142 114.166 236 131.499c0.666992 -6.66699 1.16699 -14.334 1.5 -23.001s0.5 -21.667 0.5 -39c0 -87.333 -34.5 -165.5 -103.5 -234.5
s-136.833 -103.5 -203.5 -103.5h-8c-2 0 -4.5 0.333008 -7.5 1s-5.83301 1 -8.5 1zM1505 403.002c-76 -164.667 -144.336 -278.834 -205.003 -342.501s-128.667 -95.5 -204 -95.5c-33.333 0 -77.166 11 -131.499 33s-95.166 33 -122.499 33c-30 0 -73.667 -11 -131 -33
s-99.666 -33 -126.999 -33c-42.667 0 -85.5 14.667 -128.5 44s-86.167 73.333 -129.5 132c-68 93.333 -120.5 191.833 -157.5 295.5s-55.5 203.834 -55.5 300.501c0 146 41.667 264.833 125 356.5s191 137.5 323 137.5c45.333 0 97 -11.333 155 -34s99.333 -34 124 -34
c22.667 0 63.167 11.667 121.5 35s109.166 35 152.499 35c73.333 0 139.333 -13.333 198 -40s112.334 -68 161.001 -124c-68 -43.333 -118.5 -91.833 -151.5 -145.5s-49.5 -114.5 -49.5 -182.5c0 -75.333 20 -142 60 -200s97.667 -104 173 -138z" />
    <glyph glyph-name="fi" unicode="&#xf001;" horiz-adv-x="1098" 
d="M49 0l-0.000976562 71.0029c54 4 90.333 15.667 109 35s28 66.666 28 141.999v631h-161v98h161c6.66699 158 51.834 283.5 135.501 376.5s192.167 139.5 325.5 139.5c66.667 0 121.167 -13.167 163.5 -39.5s63.5 -59.5 63.5 -99.5c0 -26.667 -7.83301 -48 -23.5 -64
s-36.5 -24 -62.5 -24c-15.333 0 -30 3.5 -44 10.5s-25 16.167 -33 27.5c-4 5.33301 -9.33301 13 -16 23c-38.667 56 -82 84 -130 84c-68 0 -121.5 -33 -160.5 -99s-58.5 -158 -58.5 -276v-59h250c79.333 0 142.5 2.66699 189.5 8s91.167 14.333 132.5 27v-770
c0 -76 8.16699 -123.167 24.5 -141.5s48.833 -27.833 97.5 -28.5v-72h-419v72c54 3.33301 90.333 14.666 109 33.999s28 66.666 28 141.999v504c0 58 -6.33301 93.667 -19 107s-55.667 20 -129 20h-264v-643c0 -76.667 8 -123 24 -139s49 -24.667 99 -26v-71h-420z" />
    <glyph glyph-name="fl" unicode="&#xf002;" horiz-adv-x="1100" 
d="M49 0l0.000976562 71.0029c54 4 90.333 15.667 109 35s28 66.666 28 141.999v631h-161v98h161c7.33301 158.667 52.833 284.334 136.5 377.001s193.167 139 328.5 139c29.333 0 61.166 -3.83301 95.499 -11.5s54.5 -11.5 60.5 -11.5c8 0 31.333 7 70 21l40 14l1 -1265
c0 -78.667 7.5 -126.334 22.5 -143.001s45.5 -25 91.5 -25h8v-72h-419v72c54 3.33301 90.333 14.666 109 33.999s28 66.666 28 141.999v631h-412v-631c0 -83.333 7.66699 -133.5 23 -150.5s46 -25.5 92 -25.5h8v-72h-420zM346.001 977.003h416.001v291
c-23.333 11.333 -45.333 32 -66 62l-8 12c-20.667 28 -39.334 46.5 -56.001 55.5s-37.667 13.5 -63 13.5c-71.333 0 -126.333 -32.5 -165 -97.5s-58 -157.5 -58 -277.5v-59z" />
    <glyph glyph-name=".null" horiz-adv-x="0" 
 />
    <glyph glyph-name="nonmarkingreturn" horiz-adv-x="516" 
 />
    </font>
</defs>
</svg>
