<?xml version="1.0" standalone="no"?>
<!DOCTYPE svg PUBLIC "-//W3C//DTD SVG 1.1//EN" "http://www.w3.org/Graphics/SVG/1.1/DTD/svg11.dtd" >
<svg xmlns="http://www.w3.org/2000/svg">
<metadata>
This is a custom SVG webfont generated by Font Squirrel.
Copyright   : Copyright c 1992 Corel Corporation All Rights Reserved
</metadata>
<defs>
<font id="FuturaMdCnBTItalic" horiz-adv-x="839" >
<font-face units-per-em="2048" ascent="1638" descent="-410" />
<missing-glyph horiz-adv-x="420" />
<glyph unicode=" "  horiz-adv-x="420" />
<glyph unicode="&#x09;" horiz-adv-x="420" />
<glyph unicode="&#xa0;" horiz-adv-x="420" />
<glyph unicode="!" horiz-adv-x="516" d="M148 80q-2 59 42 102.5t94 45.5q46 2 82 -25t34 -74q-2 -60 -45 -102q-43 -41 -95 -43q-35 -1 -72.5 25t-39.5 71zM215 372l185 1172h208l-184 -1172h-209z" />
<glyph unicode="&#x22;" horiz-adv-x="512" d="M232 1084l48 460h176l-96 -460h-128zM500 1084l49 460h176l-97 -460h-128z" />
<glyph unicode="#" d="M-24 0l247 528h-219l52 119h224l116 256h-220l52 121h224l244 520h113l-246 -520h185l235 520h117l-240 -520h228l-56 -121h-227l-121 -256h232l-52 -119h-236l-243 -528h-113l244 528h-180l-248 -528h-112zM391 647h181l120 256h-180z" />
<glyph unicode="$" d="M108 232l185 84q6 -136 143 -144q112 10 170 100q50 78 50 197q0 51 -15 86q-22 39 -105 105q-62 46 -123 93q-85 65 -131 143q-52 86 -46 184q12 216 120 335q102 113 260 129l25 136h90l-23 -132q240 -24 265 -231l-172 -93q0 66 -47 108q-45 40 -113 40 q-81 0 -139 -61q-60 -63 -62 -183q-2 -90 50 -142q42 -44 161 -128q108 -76 155 -135q54 -69 54 -183q0 -206 -98 -356q-105 -163 -297 -184l-21 -135h-92l20 135q-232 14 -264 232z" />
<glyph unicode="%" horiz-adv-x="1132" d="M121 0l1007 1544h128l-1008 -1544h-127zM260 1048q1 101 39 265q60 255 264 251q84 -2 126 -60q38 -54 38 -160q-1 -82 -15 -168q-59 -348 -288 -348q-86 8 -124 64q-40 62 -40 156zM396 1061q6 -109 56 -109q94 0 132 300q0 14 2 44t2 44q0 100 -52 100q-88 0 -128 -268 q0 -2 -6 -52zM647 215q8 115 29 213q30 138 97 214t163 75q95 -2 135.5 -58.5t40.5 -162.5q0 -294 -120 -436q-69 -80 -187 -80q-150 0 -158 235zM780 209q8 -105 60 -105q94 0 133 296q0 14 2 44t2 44q1 106 -61 104q-44 -2 -68 -56q-26 -58 -47 -172q-16 -88 -21 -155z " />
<glyph unicode="&#x26;" horiz-adv-x="1011" d="M104 307q0 123 77 243q72 112 206 230q-69 160 -71 287q-2 95 48 187q101 186 312 186q114 0 178 -68q66 -70 66 -176q-2 -66 -38 -144q-70 -148 -258 -304l148 -332l156 180l116 -108l-200 -228l120 -260h-229l-51 121q-124 -141 -293 -141q-170 0 -248 153 q-39 74 -39 174zM303 324q0 -68 36 -117q39 -51 105 -55q96 7 176 112l-155 356q-162 -144 -162 -296zM508 1108q3 -42 33 -142l18 -63q189 154 189 301q0 76 -92 76q-62 0 -105 -56q-39 -52 -43 -116z" />
<glyph unicode="'" horiz-adv-x="436" d="M236 1004l229 565l155 -53l-284 -543z" />
<glyph unicode="(" horiz-adv-x="563" d="M160 312q0 646 356 1257l180 -49q-230 -444 -296 -770q-40 -195 -40 -369q2 -231 68 -565l-200 -48q-68 302 -68 544z" />
<glyph unicode=")" horiz-adv-x="563" d="M80 -184q172 336 249 592q83 276 83 556q0 262 -64 556l201 49q67 -291 67 -545q0 -622 -352 -1256z" />
<glyph unicode="*" horiz-adv-x="731" d="M228 1080l256 132l-212 124l48 73l212 -137l31 272h80l-39 -272l248 143l32 -67l-256 -136l216 -132l-56 -68l-204 137l-35 -265h-88l51 271l-244 -143z" />
<glyph unicode="+" horiz-adv-x="1024" d="M160 452l24 144h352l68 444h144l-68 -444h352l-24 -144h-352l-72 -448h-144l72 448h-352z" />
<glyph unicode="," horiz-adv-x="420" d="M-37 -348l229 563l156 -51l-284 -541z" />
<glyph unicode="-" horiz-adv-x="495" d="M135 452l25 156h368l-24 -156h-369z" />
<glyph unicode="." horiz-adv-x="420" d="M104 96q2 53 45 91.5t95 40.5q41 2 74 -24q32 -26 34 -73q2 -58 -44 -102.5t-103 -44.5q-45 0 -73 32q-30 34 -28 80z" />
<glyph unicode="/" horiz-adv-x="831" d="M-92 -213l1096 1913h160l-1092 -1913h-164z" />
<glyph unicode="0" d="M146 336q0 26 2 49q46 525 134 795q56 172 152 279q98 107 238 105q146 -2 208 -114q60 -110 60 -254v-47q-28 -275 -44 -383q-32 -214 -82 -378q-54 -178 -156 -293q-102 -117 -258 -115q-72 0 -132 47q-122 97 -122 309zM344 344q6 -173 100 -176q88 -4 152 168 q62 168 95 396q44 308 44 427v41q0 180 -98 180q-25 0 -49 -12q-134 -69 -208 -666q-29 -232 -32 -315q-2 -32 -4 -43z" />
<glyph unicode="1" d="M320 0l220 1368h-153l29 176h352l-244 -1544h-204z" />
<glyph unicode="2" d="M76 0l504 805q176 282 176 438q0 133 -109 133q-99 0 -137 -116q-20 -60 -39 -216h-207q46 366 206 466q90 56 230 54q264 -4 264 -264q0 -137 -76 -327q-66 -165 -157 -301l-331 -492h384l-28 -180h-680z" />
<glyph unicode="3" d="M129 240q1 65 15 147h200q-8 -28 -16 -90q0 -53 29 -91q31 -39 83 -42q60 4 112 62t64 161q16 134 17 176q-1 94 -59 126q-42 23 -146 23l28 185q14 -2 42 -2q112 1 166 63q24 28 48 90q28 102 28 189q0 143 -99 143q-73 0 -116 -92q-33 -70 -37 -156h-195 q42 316 200 396q75 36 171 36q276 0 276 -268q0 -246 -92 -384q-54 -80 -144 -111l-4 -5q144 -32 144 -233q0 -331 -198 -497q-108 -88 -259 -86q-126 2 -192.5 66t-65.5 194z" />
<glyph unicode="4" d="M129 424l23 176l569 944h199l-152 -968h100l-24 -152h-100l-68 -424h-201l70 424h-416zM312 576h256l104 657h-8z" />
<glyph unicode="5" d="M92 43l84 185q96 -60 172 -68q180 16 254 232q32 94 31 184q-1 54 -5 88q-20 148 -216 147q-82 -1 -128 -15l208 748h491l-27 -176h-332l-112 -391q298 0 336 -250q4 -26 4 -86q0 -161 -60 -307q-65 -156 -184 -253q-120 -97 -280 -97q-126 0 -236 59z" />
<glyph unicode="6" d="M144 284q2 8 4 40q8 138 37 276q48 234 155 440q50 96 112 197l191 307h225l-407 -660l4 -4q74 68 178 68q205 0 205 -276q0 -388 -154 -572q-96 -114 -250 -120q-150 -6 -226 84q-70 84 -74 220zM356 303q0 -51 21 -90q25 -49 71 -49q122 0 170 279q20 115 19 213 q-1 46 -25 78q-28 34 -72 34q-18 0 -40 -8q-80 -28 -124 -254q-20 -100 -20 -203z" />
<glyph unicode="7" d="M76 0l649 1368h-428l23 176h692l-713 -1544h-223z" />
<glyph unicode="8" d="M144 284q14 148 17 170q13 96 35 168q54 174 208 214v4q-120 32 -128 227q7 86 17 137q30 162 110 261q82 101 273 99q150 -2 208 -72q56 -68 56 -175q0 -14 -2 -43.5t-2 -44.5q-22 -209 -121 -321q-49 -54 -107 -68v-4q132 -26 132 -240q0 -236 -92 -411 q-108 -205 -320 -205q-151 0 -219 78q-63 72 -65 226zM352 297q8 -129 96 -129q164 0 180 395q6 164 -92 164h-4q-82 -1 -122 -113q-38 -109 -54 -278q0 -25 -4 -39zM484 1065q0 -137 96 -137q62 9 100 99q48 109 47 197v23q0 135 -90 133q-51 -2 -87 -54q-66 -97 -66 -261z " />
<glyph unicode="9" d="M209 0l411 643l-4 9q-68 -58 -172 -64q-206 8 -206 262q0 30 2 53q32 366 144 520q55 75 128 109q75 34 164 32q146 -2 206 -80q58 -78 58 -216q0 -332 -132 -636q-38 -88 -100 -188l-276 -444h-223zM448 912q6 -140 105 -140q108 10 148 215q26 136 26 217v33 q-1 139 -103 139q-80 -10 -119 -148q-18 -60 -28 -126l-21 -129q0 -12 -8 -61z" />
<glyph unicode=":" horiz-adv-x="420" d="M104 96q2 53 45 91.5t95 40.5q41 2 74 -24q32 -26 34 -73q2 -58 -44 -102.5t-103 -44.5q-45 0 -73 32q-30 34 -28 80zM236 916q2 54 45 94q42 38 96 38q39 0 71 -25q34 -27 36 -71q2 -62 -43 -98t-105 -49q-46 3 -73 32q-29 31 -27 79z" />
<glyph unicode=";" horiz-adv-x="420" d="M-37 -348l229 563l160 -51l-284 -541zM232 916q6 54 48 93t97 39q39 0 71 -25q34 -27 36 -71q2 -64 -39.5 -97t-112.5 -54q-100 7 -100 115z" />
<glyph unicode="&#x3c;" horiz-adv-x="1024" d="M160 456l24 132l920 473l-24 -149l-748 -392l624 -391l-24 -149z" />
<glyph unicode="=" horiz-adv-x="1024" d="M131 252l21 144h848l-23 -144h-846zM192 643l23 145h846l-21 -145h-848z" />
<glyph unicode="&#x3e;" horiz-adv-x="1024" d="M88 -20l24 149l748 391l-628 392l28 149l768 -473l-20 -132z" />
<glyph unicode="?" horiz-adv-x="700" d="M232 100q2 46 46 88q42 40 94 40q106 0 107 -103q0 -55 -42.5 -98t-96.5 -43q-56 0 -82 34q-28 36 -26 82zM252 1164q38 256 150 344q70 56 194 56q140 0 204 -86q44 -60 44 -178q0 -58 -12 -136q-24 -154 -42 -216q-34 -132 -94 -195q-56 -59 -151 -61l-57 -328h-181 l78 468q33 -4 47 -4q124 0 164 128q21 68 37 180q8 56 8 120q0 138 -78 136q-43 0 -67 -40q-34 -54 -48 -188h-196z" />
<glyph unicode="@" horiz-adv-x="1640" d="M172 668q2 175 80 341q158 336 506 485q164 70 338 70q282 0 460 -159q176 -157 176 -401q0 -86 -28 -189q-30 -110 -102 -214q-130 -189 -318 -269q-94 -40 -160 -39q-132 3 -160 111q-62 -46 -117 -74q-63 -30 -151 -31q-102 -3 -172 69q-74 74 -72 187q3 147 98 316 q88 158 230 263q146 108 300 113q72 3 140 -43q65 -44 68 -108l52 108h140l-340 -684q-12 -22 -20 -72q0 -38 56 -44q12 4 28 4q226 58 337 329q51 122 51 246q0 257 -194 377q-100 62 -258 76q-22 2 -54 2q-199 0 -381 -104q-177 -102 -287 -272q-118 -180 -119 -406 q-1 -158 76 -286q77 -126 219 -196q140 -70 295 -70q94 0 205 33q218 63 374 235h128q-164 -230 -446 -334q-143 -54 -294 -54q-390 0 -584 299q-102 157 -100 385zM624 572q6 -140 132 -140q142 0 282 220q58 91 102 200q36 88 36 148q0 110 -101 112q-86 2 -166 -50 q-76 -50 -134 -126q-54 -72 -99 -168q-45 -94 -52 -196z" />
<glyph unicode="A" horiz-adv-x="848" d="M8 0l580 1544h164l88 -1544h-207l-13 299h-308l-103 -299h-201zM372 461h244l4 786h-4z" />
<glyph unicode="B" horiz-adv-x="856" d="M125 0l243 1544h252q155 0 225 -54q79 -61 79 -210q0 -422 -256 -492v-4q168 -50 168 -248q0 -48 -12 -118l-13 -74q-60 -344 -434 -344h-252zM348 176q112 0 169.5 46t82.5 155q20 89 20 147q0 176 -168 176h-20zM456 864q136 0 208 108q61 92 61 236q1 164 -141 164 h-48z" />
<glyph unicode="C" horiz-adv-x="755" d="M180 471v14q0 148 40 354q82 431 245 589q141 136 315 136q100 0 184 -44l-28 -189q-61 45 -131 45q-152 0 -256 -172q-69 -116 -122 -408q-28 -153 -28 -255q1 -9 1 -17q4 -150 50 -256q42 -95 178 -100q76 7 128 37l-29 -181q-70 -44 -178 -44q-98 0 -183 44 q-88 46 -126 116q-56 106 -60 331z" />
<glyph unicode="D" horiz-adv-x="956" d="M125 0l243 1544h324q155 0 240 -98q88 -101 88 -293v-47q0 -350 -102 -671q-112 -352 -341 -405q-128 -30 -280 -30h-172zM356 176q270 0 352 260q46 148 84 432q17 132 17 224q-1 126 -67 200q-70 80 -193 80z" />
<glyph unicode="E" horiz-adv-x="712" d="M125 0l243 1544h552l-27 -176h-344l-80 -488h311l-28 -176h-312l-80 -524h344l-28 -180h-551z" />
<glyph unicode="F" horiz-adv-x="700" d="M125 0l243 1544h556l-27 -176h-348l-80 -488h315l-28 -176h-316l-112 -704h-203z" />
<glyph unicode="G" horiz-adv-x="944" d="M168 385q2 175 51 451q37 212 83 350q88 270 249 342q81 36 193 36q280 0 313 -317l-213 -75q0 204 -140 204q-112 0 -172 -137q-46 -106 -94 -401q-22 -140 -34 -268q-13 -130 -13 -200v-18q3 -70 21 -114q16 -38 40 -51q28 -14 68 -15h3q65 0 111 54q76 90 107 290 l19 121h-172l28 178h375l-31 -227q-17 -125 -59 -256q-77 -230 -225 -310q-78 -42 -184 -42q-224 0 -290 180q-35 96 -34 215v10z" />
<glyph unicode="H" horiz-adv-x="968" d="M125 0l243 1544h204l-93 -600h309l96 600h204l-244 -1544h-203l119 764h-308l-124 -764h-203z" />
<glyph unicode="I" horiz-adv-x="456" d="M125 0l243 1544h204l-244 -1544h-203z" />
<glyph unicode="J" horiz-adv-x="620" d="M20 20l31 208q61 -46 133 -52q116 16 144 111q8 28 28 149l180 1108h204l-185 -1159q-38 -233 -131 -325q-82 -80 -232 -80q-114 0 -172 40z" />
<glyph unicode="K" horiz-adv-x="868" d="M125 0l243 1544h204l-116 -752l-128 -792h-203zM461 792l407 752h212l-424 -748l204 -796h-236z" />
<glyph unicode="L" horiz-adv-x="676" d="M125 0l243 1544h204l-212 -1364h344l-28 -180h-551z" />
<glyph unicode="M" horiz-adv-x="1149" d="M47 0l373 1544h176l45 -1112h2q118 384 377 1112h180l-100 -1544h-201q3 28 27 262l34 336q28 272 56 467h-4q-52 -171 -176 -523l-102 -290q-42 -117 -87 -252h-139l-33 1065h-4l-227 -1065h-197z" />
<glyph unicode="N" horiz-adv-x="968" d="M125 0l243 1544h195l181 -1172l4 5l22 310q20 262 54 498q22 152 56 359h208l-244 -1544h-192l-173 1192l-4 -4q-21 -368 -82 -781q-29 -199 -65 -407h-203z" />
<glyph unicode="O" horiz-adv-x="977" d="M166 385q0 33 2 55q28 302 58 456q50 252 146 434q98 186 269 222q37 8 103 8q160 0 239 -120q67 -102 67 -272q0 -12 -2 -48q-30 -516 -150 -805q-140 -335 -423 -335q-206 0 -277 204q-32 91 -32 201zM387 377q6 -205 140 -205h1q92 1 156 155t98 352q36 209 46 357 q0 16 2 57q2 38 2 56q0 102 -20 149q-30 74 -116 74q-146 0 -226 -354q-34 -150 -52 -292q-22 -178 -27 -282q0 -26 -4 -67z" />
<glyph unicode="P" horiz-adv-x="796" d="M125 0l243 1544h275q223 0 285 -119q32 -61 32 -165q0 -53 -8 -115q-24 -180 -95 -284q-122 -177 -421 -177l-108 -684h-203zM465 860q119 0 181 55t81 185q8 56 8 92q-1 98 -47 140q-44 40 -143 40z" />
<glyph unicode="Q" horiz-adv-x="981" d="M164 396q8 74 8 100q68 703 272 939q116 134 296 134q308 0 308 -420v-69q0 -92 -37 -322q-67 -408 -187 -590l108 -192l-148 -97l-84 164q-118 -63 -231 -63q-187 0 -264 186q-39 94 -41 230zM385 400q0 -82 23 -143q32 -86 100 -89q46 6 96 37l-100 186l139 97l61 -107 h4q124 469 124 755q0 224 -115 240q-121 0 -205 -220q-50 -134 -80 -324q-32 -214 -45 -392q-2 -28 -2 -40z" />
<glyph unicode="R" horiz-adv-x="852" d="M125 0l243 1544h284q148 0 216 -62q72 -64 72 -210q0 -266 -114 -421q-64 -85 -166 -99l168 -752h-216l-160 756h-4l-120 -756h-203zM469 860q252 0 252 364q0 92 -42 122q-34 26 -130 26z" />
<glyph unicode="S" horiz-adv-x="725" d="M96 51l33 209q89 -77 191 -84q92 3 153 72.5t63 171.5q0 3 1 6q0 87 -40 154q-33 54 -123 162q-84 101 -118 164q-41 76 -41 182q0 288 212 420q97 60 210 61q108 1 207 -53l-35 -212q-70 68 -166 68q-89 0 -149 -68q-54 -60 -70 -151q0 -72 52 -156q12 -20 100 -135 q168 -222 168 -383q0 -283 -207 -429q-100 -70 -230 -70q-133 0 -211 71z" />
<glyph unicode="T" horiz-adv-x="659" d="M209 1368l27 176h680l-27 -176h-233l-216 -1368h-208l220 1368h-243z" />
<glyph unicode="U" horiz-adv-x="956" d="M180 264q6 72 16 176l172 1104h208l-172 -1079q-18 -116 -19 -166q1 -60 27 -94q26 -33 84 -33q129 0 166 101q18 48 34 155l176 1116h208l-177 -1104q-21 -136 -47 -209q-59 -169 -199 -221q-78 -28 -182 -30q-5 0 -9 -1q-94 0 -158 30q-124 56 -128 255z" />
<glyph unicode="V" horiz-adv-x="792" d="M260 1544h205l-9 -1159h5q53 205 171 561q51 156 115 344l85 254h192l-549 -1544h-163z" />
<glyph unicode="W" horiz-adv-x="1212" d="M248 1544h200q0 -36 -2 -242l-6 -369q-5 -319 -20 -548h4q168 613 352 1159h160l-16 -1153h4q68 257 164 581l86 292q34 116 82 280h200l-516 -1544h-164v352q0 30 1 114q2 100 2 158q1 348 13 525h-4q-56 -235 -153 -545q-39 -124 -93 -292l-102 -312h-168z" />
<glyph unicode="X" horiz-adv-x="876" d="M47 0l422 784l-157 760h204q26 -128 74 -384q14 -90 18 -173h4q96 241 252 557h207l-403 -760l160 -784h-212q-26 136 -71 408q-13 86 -13 168h-4q-29 -107 -171 -396l-89 -180h-221z" />
<glyph unicode="Y" horiz-adv-x="805" d="M248 1544h221l76 -712h4q41 140 135 366l144 346h216l-424 -876l-104 -668h-209l109 664z" />
<glyph unicode="Z" horiz-adv-x="805" d="M33 0l684 1368h-414l25 176h684l-680 -1364h440l-28 -180h-711z" />
<glyph unicode="[" horiz-adv-x="616" d="M43 -213l277 1757h452l-20 -135h-277l-235 -1481h276l-24 -141h-449z" />
<glyph unicode="\" horiz-adv-x="512" d="M164 1700h160l292 -1700h-160z" />
<glyph unicode="]" horiz-adv-x="616" d="M56 -213l20 141h272l236 1481h-272l20 135h448l-276 -1757h-448z" />
<glyph unicode="^" horiz-adv-x="1024" d="M200 692l504 852h101l239 -852h-136l-183 664l-393 -664h-132z" />
<glyph unicode="_" horiz-adv-x="1024" d="M-60 -385l23 157h1024l-23 -157h-1024z" />
<glyph unicode="`" horiz-adv-x="571" d="M364 1440l152 88l121 -304l-113 -60z" />
<glyph unicode="a" horiz-adv-x="780" d="M116 252q4 152 32 320q34 200 88 304q91 176 229 176q59 0 113 -36q59 -40 63 -96h2l17 116h196l-164 -1036h-192l20 131h-4q-78 -147 -213 -147q-133 0 -163 127q-12 49 -24 141zM312 299l14 -71q14 -70 78 -76q44 3 84 46q42 46 57 114q63 268 63 436q0 128 -92 128 q-32 0 -64 -24q-34 -26 -52 -72q-26 -60 -56 -226q-29 -160 -32 -255z" />
<glyph unicode="b" horiz-adv-x="780" d="M88 0l268 1700h193l-121 -780h4q72 132 211 132q81 0 133 -72q51 -73 52 -215v-13q-2 -78 -21 -200q-32 -206 -86 -347q-84 -221 -250 -221q-64 0 -112.5 42t-55.5 105h-4l-19 -131h-192zM336 307q0 -147 84 -155q60 4 106 72q38 56 50 124q42 248 52 348q0 184 -92 184 q-84 0 -132 -149q-26 -77 -46 -207q-22 -142 -22 -217z" />
<glyph unicode="c" horiz-adv-x="567" d="M116 307v15q0 80 27 214q53 266 133 380q96 136 252 136q75 0 152 -36l-28 -197h-5q-17 49 -92 49q-97 0 -151 -112q-22 -44 -52 -174q-26 -116 -28 -214q10 -88 12 -100q12 -60 45 -86q23 -20 63 -22q57 6 109 45l-29 -181q-94 -40 -168 -40q-228 0 -240 323z" />
<glyph unicode="d" horiz-adv-x="780" d="M116 276q3 122 32 282q30 170 71 274q87 220 250 220q139 0 172 -132h2l125 780h192l-268 -1700h-196l24 131h-4q-27 -66 -89.5 -106.5t-133.5 -40.5q-132 0 -159 143q-11 55 -18 149zM312 299q12 -83 16 -95q18 -52 68 -56q90 6 136 128q28 74 52 235q24 164 25 236 q-1 5 -1 9q-1 56 -27 92q-25 32 -65 32q-82 0 -125 -124q-71 -208 -79 -457z" />
<glyph unicode="e" horiz-adv-x="739" d="M116 303q4 35 9 93q9 134 51 292q40 149 128 257t222 108q2 -1 6 -1q137 -2 194 -91q54 -86 54 -234q0 -59 -10 -159l-10 -89h-428q-12 -63 -20 -172q6 -151 92 -151q122 0 149 192h178q-35 -196 -133 -278q-102 -86 -226 -86q-2 0 -3 -1q-247 0 -253 320zM356 616h228 q12 70 12 124q0 140 -88 140q-122 0 -152 -264z" />
<glyph unicode="f" horiz-adv-x="508" d="M140 0l140 884h-96l25 152h94l65 396q26 160 96 223q70 65 164 65q58 0 144 -32l-37 -199q-35 23 -79 23q-43 0 -71 -29q-24 -24 -32 -78l-57 -369h160l-23 -152h-162l-139 -884h-192z" />
<glyph unicode="g" horiz-adv-x="784" d="M43 -205l6 41q5 28 7 52h188q0 -16 -8 -48q5 -108 108 -108q108 0 135 156l41 237h-4q-78 -142 -217 -142q-3 1 -6 1q-56 0 -97 34q-38 30 -58 92q-22 68 -22 144v10q2 92 24 260q24 191 82 321q52 117 115 161q64 46 134 46q1 0 3 1q121 1 167 -141l2 4l21 120h196 l-172 -1083q-42 -263 -173 -347q-72 -46 -175 -46q-3 0 -5 -1q-136 0 -212 54q-77 54 -80 182zM316 320q8 -162 88 -164q2 0 3 -1q63 0 102 74q41 75 67 223q24 140 24 240q0 174 -76 188q-58 0 -104 -73q-50 -79 -68 -187q-30 -182 -36 -300z" />
<glyph unicode="h" horiz-adv-x="796" d="M92 0l268 1700h193l-125 -784h4q88 132 228 132h57q115 -16 115 -184q0 -66 -13 -147l-111 -717h-192l112 725q0 8 2.5 25.5t2.5 25.5q0 104 -88 104q-126 0 -154 -184l-107 -696h-192z" />
<glyph unicode="i" horiz-adv-x="368" d="M88 0l164 1036h192l-164 -1036h-192zM268 1336q6 58 50 98t98 42q1 0 2 1q36 0 71 -25q33 -24 39 -72q0 -116 -151 -160q-109 8 -109 116z" />
<glyph unicode="j" horiz-adv-x="368" d="M20 -424l232 1460h192l-231 -1460h-193zM268 1336q2 50 48 94t96 46q2 0 4 1q38 1 72 -25t40 -76q0 -122 -151 -156q-47 3 -77 35q-31 32 -32 76v5z" />
<glyph unicode="k" horiz-adv-x="809" d="M92 0l268 1700h193l-176 -1124h4l311 460h211l-335 -460l208 -576h-223l-181 549h-4l-84 -549h-192z" />
<glyph unicode="l" horiz-adv-x="368" d="M88 0l268 1700h193l-269 -1700h-192z" />
<glyph unicode="m" horiz-adv-x="1208" d="M88 0l164 1036h196l-20 -128h4q89 145 224 145q2 -1 4 -1q66 -1 112 -40q44 -38 47 -104h5q54 84 114 114q61 30 134 31q4 -1 8 -1q172 -4 172 -172q0 -42 -5 -71l-127 -809h-192l116 727q0 9 2 27t2 26q0 100 -84 100q-66 0 -101 -40q-39 -44 -52 -128l-111 -712h-192 l116 740q0 8 2 22t2 22q0 96 -88 96q-80 0 -117 -78q-22 -46 -36 -134l-107 -668h-192z" />
<glyph unicode="n" horiz-adv-x="796" d="M92 0l160 1036h196l-20 -120h4q88 136 228 136q92 0 132 -41t40 -135q0 -68 -8 -120l-116 -756h-192l112 727q0 8 2.5 24.5t2.5 24.5q0 104 -88 104q-68 0 -102 -44q-38 -50 -56 -168l-103 -668h-192z" />
<glyph unicode="o" horiz-adv-x="768" d="M121 312q1 108 39 316q38 214 146 320q106 104 239 104q2 0 4 1q262 -1 262 -345q-1 -106 -27 -252q-86 -472 -397 -472q-131 0 -197 79q-69 83 -69 244v5zM312 312q6 -152 116 -152q130 28 168 364q8 42 20 127q4 41 4 74q0 151 -96 151q-88 0 -134 -126 q-27 -75 -54 -234q-18 -104 -24 -204z" />
<glyph unicode="p" horiz-adv-x="780" d="M20 -424l232 1460h192l-20 -137h4q66 153 209 153q182 0 182 -292q0 -343 -102 -584q-82 -192 -248 -192q-63 0 -109 34q-48 36 -57 98h-4l-86 -540h-193zM332 307q6 -151 92 -151q87 0 130 137q24 75 42 168q28 143 28 251q0 168 -83 169l-1 -1q-56 -2 -92 -58 q-54 -82 -88 -298q-24 -158 -28 -217z" />
<glyph unicode="q" horiz-adv-x="780" d="M112 256q8 273 101 559q31 95 93 161q74 76 165 76q142 0 166 -149h4l23 133h192l-232 -1460h-192l84 540h-4q-64 -136 -205 -136q-135 0 -169 132q-14 52 -26 144zM312 303q6 -148 94 -148l2 1q74 2 115 99q38 91 65 273q20 140 20 197q0 156 -89 156q-2 -1 -3 -1 q-76 -2 -114 -98q-40 -100 -70 -298q-14 -102 -20 -181z" />
<glyph unicode="r" horiz-adv-x="553" d="M92 0l160 1036h196l-20 -128h4q90 144 240 144l-29 -192q-14 2 -43 2q-98 0 -146 -50q-52 -54 -67 -148l-103 -664h-192z" />
<glyph unicode="s" horiz-adv-x="563" d="M68 33l32 186q55 -61 152 -67q108 8 139 104q9 27 9 53q0 52 -42 98q-14 17 -81 73q-131 110 -133 237q2 9 4 31q10 140 106 222q95 82 217 82q97 0 170 -48l-29 -180q-48 52 -141 52q-108 0 -139 -84q-8 -24 -8 -44q0 -46 39 -88q3 -3 76 -65q137 -118 137 -255 q0 -205 -166 -308q-78 -48 -174 -48q-88 0 -168 49z" />
<glyph unicode="t" horiz-adv-x="452" d="M129 0l139 884h-104l24 152h105l47 291h192l-48 -291h104l-25 -152h-102l-141 -884h-191z" />
<glyph unicode="u" horiz-adv-x="796" d="M140 328l112 708h196l-116 -716q0 -12 -8 -56q7 -104 104 -104q112 0 135 147l117 729h192l-116 -739q-28 -181 -150 -264q-70 -47 -166 -49q-7 0 -13 -1q-146 -1 -221 51q-77 53 -77 187q0 42 11 107z" />
<glyph unicode="v" horiz-adv-x="731" d="M192 1036h204l12 -784h8q68 226 180 539l88 245h188l-436 -1036h-129z" />
<glyph unicode="w" horiz-adv-x="995" d="M156 1036h204l-4 -743h4q102 351 240 743h135v-743h9q86 307 141 471q37 108 96 272h187l-408 -1036h-132q-3 170 -12 366q-8 142 -8 164q0 81 16 230h-4q-84 -322 -239 -760h-137z" />
<glyph unicode="x" horiz-adv-x="809" d="M28 0l344 549l-180 487h228l88 -356q56 130 188 356h201l-309 -487l196 -549h-229l-59 197q-44 146 -44 223h-4q-13 -68 -82 -188q-46 -77 -138 -232h-200z" />
<glyph unicode="y" horiz-adv-x="764" d="M56 -424l241 508l-125 952h215l37 -724h4l289 724h195l-652 -1460h-204z" />
<glyph unicode="z" horiz-adv-x="688" d="M28 0l496 864h-332l27 172h600l-483 -864h328l-23 -172h-613z" />
<glyph unicode="{" horiz-adv-x="528" d="M104 616l17 109q116 10 158 58t53 120l55 353q15 94 35 139q30 65 94 107q70 44 203 44q32 0 49 -2l-20 -116q-110 -8 -144 -56q-38 -52 -49 -129l-51 -344q-28 -191 -228 -227v-4q156 -30 156 -176q0 -12 -2 -38t-2 -38l-47 -300q-1 -4 -13 -96q7 -99 140 -108l-20 -117 h-72q-220 1 -228 181q2 22 10 66l7 50l51 332q0 8 2 25t2 26q0 125 -156 141z" />
<glyph unicode="|" horiz-adv-x="512" d="M184 0l268 1700h144l-268 -1700h-144z" />
<glyph unicode="}" horiz-adv-x="528" d="M-28 -205l20 117q138 10 170 102q10 28 18 82l56 344q31 194 233 228v4q-158 31 -166 176q9 60 9 76l52 305q8 46 8 84q0 105 -140 115l16 116h76q226 0 225 -200q-1 -52 -9 -101l-56 -327q0 -8 -9 -60q8 -118 166 -131l-17 -109q-116 -10 -157 -56q-45 -50 -55 -116 l-56 -352q-10 -62 -24 -114q-34 -111 -147 -158q-67 -27 -169 -27q-8 0 -22 1t-22 1z" />
<glyph unicode="~" horiz-adv-x="1024" d="M160 436q126 219 260 240q74 0 206 -73q72 -39 74 -41q46 -24 80 -26q12 4 29 4q74 16 168 164l55 -96q-117 -190 -268 -227q-65 2 -190 74q-122 69 -166 69q-72 0 -141 -102q-30 -46 -54 -82z" />
<glyph d="M131 616l32 104h143q4 38 16 100q6 36 20 100h-146l31 104h141q78 286 200 404q140 136 292 136q104 0 184 -44l-28 -189q-66 49 -131 49q-165 0 -248 -176q-36 -76 -67 -180h326l-32 -104h-320q-10 -48 -20 -100q-8 -32 -18 -100h296l-32 -104h-276q-18 -172 6 -276 q24 -106 70 -142q40 -30 138 -30q64 0 128 37l-29 -181q-70 -44 -178 -44q-187 0 -277 166q-64 120 -65 328q0 67 7 142h-163z" />
<glyph unicode="&#x20ac;" d="M131 616l32 104h143q4 38 16 100q6 36 20 100h-146l31 104h141q78 286 200 404q140 136 292 136q104 0 184 -44l-28 -189q-66 49 -131 49q-165 0 -248 -176q-36 -76 -67 -180h326l-32 -104h-320q-10 -48 -20 -100q-8 -32 -18 -100h296l-32 -104h-276q-18 -172 6 -276 q24 -106 70 -142q40 -30 138 -30q64 0 128 37l-29 -181q-70 -44 -178 -44q-187 0 -277 166q-64 120 -65 328q0 67 7 142h-163z" />
<glyph unicode="&#xa1;" horiz-adv-x="516" d="M92 -420l184 1172h203l-182 -1172h-205zM293 991q4 5 4 9q0 60 43.5 102t95.5 43q36 1 73 -28t36 -77q-2 -56 -42.5 -97t-86.5 -46q-116 0 -123 94z" />
<glyph unicode="&#xa2;" d="M293 540q0 96 20 236q37 264 165 410q70 80 178 114l24 144h96l-24 -148q64 -9 92 -20l-33 -184q-40 24 -86 24q-125 0 -171 -226q-18 -83 -18 -114q-2 -19 -10 -80q-5 -38 -10 -104q-2 -176 108 -180q54 8 88 24l-28 -172q-50 -28 -104 -28l-21 -132h-90l19 128 q-92 26 -142 96q-54 76 -53 212z" />
<glyph unicode="&#xa3;" d="M51 76q66 176 252 176q69 93 69 217q0 67 -16 119h-180l16 80h152l-47 160q-36 120 -37 233q-2 154 72 285q124 218 385 218q125 0 197 -62q74 -66 75 -192q0 -32 -2 -50l-172 -76q9 54 9 68q0 140 -140 140q-114 0 -174 -95q-50 -77 -54 -201q10 -134 32 -212l57 -216 h199l-17 -80h-187q4 -20 5 -72q-1 -162 -89 -301q90 -55 128 -59q54 6 88 72l160 -56q-94 -194 -248 -192q-50 0 -149 48t-151 48q-55 0 -79 -64z" />
<glyph unicode="&#xa4;" d="M131 616l32 104h143q4 38 16 100q6 36 20 100h-146l31 104h141q78 286 200 404q140 136 292 136q104 0 184 -44l-28 -189q-66 49 -131 49q-165 0 -248 -176q-36 -76 -67 -180h326l-32 -104h-320q-10 -48 -20 -100q-8 -32 -18 -100h296l-32 -104h-276q-18 -172 6 -276 q24 -106 70 -142q40 -30 138 -30q64 0 128 37l-29 -181q-70 -44 -178 -44q-187 0 -277 166q-64 120 -65 328q0 67 7 142h-163z" />
<glyph unicode="&#xa5;" d="M188 540l17 103h243v21l-28 147h-188l16 105h152l-132 628h220l88 -712h4l264 712h221l-293 -628h164l-16 -105h-195l-73 -147v-21h241l-17 -103h-239l-88 -540h-205l88 540h-244z" />
<glyph unicode="&#xa7;" horiz-adv-x="848" d="M104 -24q8 69 17 112h211q-8 -44 -12 -76q0 -116 104 -116q82 0 132 78q26 42 28 90q2 90 -50 143q-42 43 -154 115q-106 68 -150 121q-54 61 -54 169t59 202t156 142q-86 54 -88 203q-2 83 43 183q40 90 118 153q84 65 183 69q161 5 235 -73q70 -74 70 -207v-55h-208 q4 14 4 43q0 49 -26 81q-28 35 -75 35q-71 0 -107 -76q-28 -60 -28 -136q0 -78 60 -127q28 -23 129 -69t157 -104q60 -62 62 -172q4 -228 -216 -388q80 -56 80 -204q0 -220 -170 -338q-86 -58 -206 -58q-298 0 -304 260zM381 660q4 -8 4 -19q8 -84 100 -146q43 -29 95 -63 q142 96 141 220q-1 90 -101 150q-36 20 -116 62q-115 -72 -123 -204z" />
<glyph unicode="&#xa8;" horiz-adv-x="571" d="M219 1348q10 55 49 89q38 33 84 35q36 2 68 -25t32 -63q2 -66 -34 -96q-34 -30 -98 -51q-45 2 -73 33.5t-28 77.5zM549 1344q2 53 43 90q42 36 92 38q38 1 70 -28q30 -28 30 -64q0 -116 -137 -143q-45 1 -71 31q-30 32 -27 76z" />
<glyph unicode="&#xa9;" horiz-adv-x="1640" d="M140 656q0 352 276 626q266 264 580 282q36 2 50 2q316 0 508 -183q194 -186 195 -486q2 -364 -290 -644q-283 -273 -635 -273h-60q-364 35 -535 317q-89 149 -89 359zM268 692q-3 -112 37 -222q56 -161 188 -257q127 -95 299 -105q32 -2 44 -2q294 0 526 212 q110 100 178 236q72 144 76 286q4 156 -65 302q-141 294 -499 294q-198 0 -378 -104q-176 -102 -286 -272q-114 -176 -120 -368zM530 698q0 14 2 42q14 206 159 347q135 133 317 150q20 2 40 2q190 1 277 -129q45 -68 47 -174h-133q-1 92 -63 144q-58 48 -152 48 q-182 0 -290 -170q-54 -86 -66 -210q-2 -20 -2 -46q0 -134 72 -204q76 -74 178 -74q92 0 176 58q79 56 100 146h131q-43 -184 -235 -272q-94 -44 -185 -40q-136 4 -223 63q-150 101 -150 319z" />
<glyph unicode="&#xaa;" horiz-adv-x="469" d="M160 740l20 104h388l-15 -104h-393zM205 1108q5 208 71 344q54 112 156 112q92 0 113 -75l10 67h125l-100 -620h-124l13 80h-4q-43 -90 -137 -96q-88 10 -109 96q-9 36 -14 92zM332 1120q6 -87 59 -92q51 0 79 65q29 69 42 167q8 58 8 100q0 104 -51 104q-53 0 -77 -52 q-28 -58 -44 -160q-2 -21 -8 -73z" />
<glyph unicode="&#xab;" horiz-adv-x="731" d="M135 532l336 455l84 -55l-295 -400l148 -407l-101 -53zM381 532l336 455l84 -55l-297 -400l148 -407l-99 -53z" />
<glyph unicode="&#xac;" horiz-adv-x="1024" d="M192 643l23 145h846l-84 -548h-145l65 403h-705z" />
<glyph unicode="&#xad;" horiz-adv-x="495" d="M135 452l25 156h368l-24 -156h-369z" />
<glyph unicode="&#xae;" horiz-adv-x="1640" d="M140 656q0 352 276 626q266 264 580 282q36 2 50 2q316 0 508 -183q194 -186 195 -486q2 -364 -290 -644q-283 -273 -635 -273h-60q-364 35 -535 317q-89 149 -89 359zM268 692q-3 -112 37 -222q56 -161 188 -257q127 -95 299 -105q32 -2 44 -2q294 0 526 212 q110 100 178 236q72 144 76 286q4 156 -65 302q-141 294 -499 294q-198 0 -378 -104q-176 -102 -286 -272q-114 -176 -120 -368zM555 328l141 892h420q156 0 218 -100q34 -54 34 -139q-18 -124 -108 -189q-84 -61 -212 -61l199 -403h-143l-184 403h-172l-68 -403h-125z M760 828h236q244 0 243 188q0 108 -172 108h-258z" />
<glyph unicode="&#xb1;" horiz-adv-x="1024" d="M92 4l20 144h848l-24 -144h-844zM184 576l21 145h350l49 319h144l-48 -319h352l-24 -145h-352l-52 -328h-145l53 328h-348z" />
<glyph unicode="&#xb2;" horiz-adv-x="504" d="M129 624q19 48 219 342l104 154q100 150 101 256q1 72 -57 72q-86 0 -111 -196h-149q29 222 124 277q59 33 148 35q200 2 200 -163q0 -122 -106 -304q-41 -69 -123 -181l-131 -176h248l-20 -116h-447z" />
<glyph unicode="&#xb3;" horiz-adv-x="504" d="M148 768q2 18 12 88h139q-5 -50 -6 -55q-1 -66 67 -74q12 4 27 4q45 14 69 96q18 61 19 125q-1 100 -111 100h-28l20 112q144 0 164 83q20 86 20 121q0 80 -61 80q-80 0 -88 -144h-131q5 260 244 260q180 0 180 -172q0 -236 -160 -288v-4q100 -22 100 -144 q0 -148 -76 -246q-80 -102 -228 -98q-166 4 -172 156z" />
<glyph unicode="&#xb4;" horiz-adv-x="571" d="M328 1224l217 304l123 -88l-244 -276z" />
<glyph unicode="&#xb5;" horiz-adv-x="796" d="M24 -420l228 1456h196l-116 -712q0 -6 -8 -60q7 -108 104 -108q110 0 135 156l117 724h192l-116 -724q-25 -156 -72 -238q-52 -90 -192 -90q-144 -2 -189 137h-4l-84 -541h-191z" />
<glyph unicode="&#x3bc;" horiz-adv-x="796" d="M24 -420l228 1456h196l-116 -712q0 -6 -8 -60q7 -108 104 -108q110 0 135 156l117 724h192l-116 -724q-25 -156 -72 -238q-52 -90 -192 -90q-144 -2 -189 137h-4l-84 -541h-191z" />
<glyph unicode="&#xb6;" horiz-adv-x="899" d="M172 1084q28 270 212 396q92 64 216 64h444l-280 -1772h-160l260 1637h-156l-260 -1637h-164l156 984q-156 0 -230 164q-36 76 -38 164z" />
<glyph unicode="&#xb7;" horiz-adv-x="420" d="M172 500q0 60 44 102q44 41 104 41q38 0 69.5 -30.5t30.5 -67.5q-2 -52 -42 -98q-42 -47 -94 -47q-112 0 -112 100z" />
<glyph unicode="&#x2219;" horiz-adv-x="420" d="M172 500q0 60 44 102q44 41 104 41q38 0 69.5 -30.5t30.5 -67.5q-2 -52 -42 -98q-42 -47 -94 -47q-112 0 -112 100z" />
<glyph unicode="&#xb8;" horiz-adv-x="571" d="M92 -396l176 292l123 -64l-215 -276z" />
<glyph unicode="&#xb9;" horiz-adv-x="504" d="M289 624l131 820h-100l16 108h244l-144 -928h-147z" />
<glyph unicode="&#xba;" horiz-adv-x="469" d="M156 740l16 104h387l-14 -104h-389zM209 1149q9 193 77 309q62 106 183 106q103 0 143 -54q36 -48 35 -154q-1 -168 -51 -281q-68 -151 -215 -151q-103 0 -137 61q-38 70 -35 164zM336 1128q6 -96 60 -96q84 0 116 211q12 83 12 125q0 82 -49 88q-54 0 -82 -55 q-32 -63 -45 -158q-5 -51 -12 -115z" />
<glyph unicode="&#xbb;" horiz-adv-x="731" d="M121 125l275 407l-173 400l101 55l196 -455l-315 -460zM364 125l277 407l-172 400l99 55l196 -455l-316 -460z" />
<glyph unicode="&#xbc;" horiz-adv-x="1259" d="M188 0l1008 1544h127l-1011 -1544h-124zM289 624l131 820h-100l16 108h244l-144 -928h-147zM760 248l16 112l360 568h160l-92 -580h64l-16 -100h-64l-39 -248h-141l36 248h-284zM897 348h164l63 387h-4z" />
<glyph unicode="&#xbd;" horiz-adv-x="1259" d="M121 0l1011 1544h128l-1012 -1544h-127zM264 624l127 812h-98l19 116h243l-147 -928h-144zM740 0q16 44 204 320l100 149q114 163 115 279q0 76 -55 76q-90 0 -113 -200h-147q29 224 126 279q57 32 146 33q197 2 197 -168q0 -90 -58 -216q-55 -118 -163 -259l-136 -177 h248l-16 -116h-448z" />
<glyph unicode="&#xbe;" horiz-adv-x="1259" d="M168 772l12 84h140q-2 -18 -8 -55q0 -65 65 -74q11 4 23 4q50 10 76 91q20 61 20 126q0 104 -109 104h-27l17 112q143 0 163 83q18 78 19 121q1 80 -59 80q-82 0 -88 -144h-132q4 260 244 260q180 0 180 -168q0 -240 -159 -292v-4q98 -22 98 -144q0 -206 -132 -296 q-70 -48 -167 -48q-84 2 -130 41q-44 37 -46 119zM228 0l1011 1544h125l-1008 -1544h-128zM752 248l16 112l360 568h160l-92 -580h64l-17 -100h-63l-40 -248h-140l36 248h-284zM889 348h163l64 387h-4z" />
<glyph unicode="&#xbf;" horiz-adv-x="700" d="M47 -176l3 28l6 60q2 16 4 41q26 143 32 173q22 98 55 165q63 133 205 133l48 332h180l-72 -467q-156 0 -210 -138q-28 -72 -50 -276q8 -139 80 -143q64 -2 87 64q21 64 33 163h193q-39 -253 -149 -343q-70 -56 -193 -56q-139 0 -205 85q-44 59 -47 179zM412 1008 q2 46 44 90q42 42 99 42q53 0 79 -34q26 -36 26 -82q-2 -48 -49 -88t-95 -39q-56 1 -81 35t-23 76z" />
<glyph unicode="&#xc0;" horiz-adv-x="848" d="M8 0l580 1544h164l88 -1544h-207l-13 299h-308l-103 -299h-201zM372 461h244l4 786h-4zM579 1952l152 88l121 -304l-113 -60z" />
<glyph unicode="&#xc1;" horiz-adv-x="848" d="M8 0l580 1544h164l88 -1544h-207l-13 299h-308l-103 -299h-201zM372 461h244l4 786h-4zM547 1732l217 304l123 -88l-244 -276z" />
<glyph unicode="&#xc2;" horiz-adv-x="848" d="M8 0l580 1544h164l88 -1544h-207l-13 299h-308l-103 -299h-201zM372 461h244l4 786h-4zM447 1764l304 284l208 -284l-111 -80l-133 172l-176 -172z" />
<glyph unicode="&#xc3;" horiz-adv-x="848" d="M8 0l580 1544h164l88 -1544h-207l-13 299h-308l-103 -299h-201zM372 461h244l4 786h-4zM447 1784q14 80 58 137q52 67 126 67q54 0 122 -38q52 -30 78 -31q32 -1 48 57h116q-11 -80 -52 -135q-49 -65 -124 -65q-50 0 -124 40q-38 20 -56 23q-56 0 -64 -55h-128z" />
<glyph unicode="&#xc4;" horiz-adv-x="848" d="M8 0l580 1544h164l88 -1544h-207l-13 299h-308l-103 -299h-201zM372 461h244l4 786h-4zM434 1856q10 55 49 89q38 33 84 35q36 2 68 -25t32 -63q2 -66 -34 -96q-34 -30 -98 -51q-45 2 -73 33.5t-28 77.5zM764 1852q2 53 43 90q42 36 92 38q38 1 70 -28q30 -28 30 -64 q0 -116 -137 -143q-45 1 -71 31q-30 32 -27 76z" />
<glyph unicode="&#xc5;" horiz-adv-x="848" d="M8 0l580 1544h164l88 -1544h-207l-13 299h-308l-103 -299h-201zM372 461h244l4 786h-4zM551 1860q12 79 67 126.5t125 49.5q56 2 98 -36q40 -36 46 -96q0 -165 -197 -204q-65 4 -103 50q-36 44 -36 110zM647 1864q0 -60 64 -68q38 20 41 22q24 15 32 33q7 13 7 33 q-7 56 -64 56q-73 0 -80 -76z" />
<glyph unicode="&#xc6;" horiz-adv-x="1159" d="M0 0l572 1544h512l12 -176h-336l28 -492h308l8 -176h-303l35 -520h332l12 -180h-539l-13 299h-325l-103 -299h-200zM364 461h260l-8 791h-4z" />
<glyph unicode="&#xc7;" horiz-adv-x="755" d="M180 471v14q0 148 40 354q82 431 245 589q141 136 315 136q100 0 184 -44l-28 -189q-61 45 -131 45q-152 0 -256 -172q-69 -116 -122 -408q-28 -153 -28 -255q1 -9 1 -17q4 -150 50 -256q42 -95 178 -100q76 7 128 37l-29 -181q-70 -44 -178 -44q-98 0 -183 44 q-88 46 -126 116q-56 106 -60 331zM180 -396l176 292l123 -64l-215 -276z" />
<glyph unicode="&#xc8;" horiz-adv-x="712" d="M125 0l243 1544h552l-27 -176h-344l-80 -488h311l-28 -176h-312l-80 -524h344l-28 -180h-551zM512 1952l152 88l121 -304l-113 -60z" />
<glyph unicode="&#xc9;" horiz-adv-x="712" d="M125 0l243 1544h552l-27 -176h-344l-80 -488h311l-28 -176h-312l-80 -524h344l-28 -180h-551zM476 1732l217 304l123 -88l-244 -276z" />
<glyph unicode="&#xca;" horiz-adv-x="712" d="M125 0l243 1544h552l-27 -176h-344l-80 -488h311l-28 -176h-312l-80 -524h344l-28 -180h-551zM380 1764l304 284l208 -284l-111 -80l-133 172l-176 -172z" />
<glyph unicode="&#xcb;" horiz-adv-x="712" d="M125 0l243 1544h552l-27 -176h-344l-80 -488h311l-28 -176h-312l-80 -524h344l-28 -180h-551zM367 1860q10 55 49 89q38 33 84 35q36 2 68 -25t32 -63q2 -66 -34 -96q-34 -30 -98 -51q-45 2 -73 33.5t-28 77.5zM697 1856q2 53 43 90q42 36 92 38q38 1 70 -28 q30 -28 30 -64q0 -116 -137 -143q-45 1 -71 31q-30 32 -27 76z" />
<glyph unicode="&#xcc;" horiz-adv-x="456" d="M125 0l243 1544h204l-244 -1544h-203zM384 1952l152 88l121 -304l-113 -60z" />
<glyph unicode="&#xcd;" horiz-adv-x="456" d="M125 0l243 1544h204l-244 -1544h-203zM348 1736l217 304l123 -88l-244 -276z" />
<glyph unicode="&#xce;" horiz-adv-x="456" d="M125 0l243 1544h204l-244 -1544h-203zM252 1760l304 284l208 -284l-111 -80l-133 172l-176 -172z" />
<glyph unicode="&#xcf;" horiz-adv-x="456" d="M125 0l243 1544h204l-244 -1544h-203zM239 1856q10 55 49 89q38 33 84 35q36 2 68 -25t32 -63q2 -66 -34 -96q-34 -30 -98 -51q-45 2 -73 33.5t-28 77.5zM569 1852q2 53 43 90q42 36 92 38q38 1 70 -28q30 -28 30 -64q0 -116 -137 -143q-45 1 -71 31q-30 32 -27 76z" />
<glyph unicode="&#xd0;" horiz-adv-x="956" d="M92 704l29 176h143l104 664h324q155 0 240 -98q88 -101 88 -293v-47q0 -350 -102 -671q-112 -352 -341 -405q-128 -30 -280 -30h-172l111 704h-144zM356 176q270 0 352 260q47 150 84 426q17 130 17 222q0 68 -4 88q-38 200 -256 200l-78 -492h141l-28 -176h-144z" />
<glyph unicode="&#xd1;" horiz-adv-x="968" d="M125 0l243 1544h195l181 -1172l4 5l22 310q20 262 54 498q22 152 56 359h208l-244 -1544h-192l-173 1192l-4 -4q-21 -368 -82 -781q-29 -199 -65 -407h-203zM508 1784q14 80 58 137q52 67 126 67q54 0 122 -38q52 -30 78 -31q32 -1 48 57h116q-11 -80 -52 -135 q-49 -65 -124 -65q-50 0 -124 40q-38 20 -56 23q-56 0 -64 -55h-128z" />
<glyph unicode="&#xd2;" horiz-adv-x="977" d="M166 385q0 33 2 55q28 302 58 456q50 252 146 434q98 186 269 222q37 8 103 8q160 0 239 -120q67 -102 67 -272q0 -12 -2 -48q-30 -516 -150 -805q-140 -335 -423 -335q-206 0 -277 204q-32 91 -32 201zM387 377q6 -205 140 -205h1q92 1 156 155t98 352q36 209 46 357 q0 16 2 57q2 38 2 56q0 102 -20 149q-30 74 -116 74q-146 0 -226 -354q-34 -150 -52 -292q-22 -178 -27 -282q0 -26 -4 -67zM644 1952l152 88l121 -304l-113 -60z" />
<glyph unicode="&#xd3;" horiz-adv-x="977" d="M166 385q0 33 2 55q28 302 58 456q50 252 146 434q98 186 269 222q37 8 103 8q160 0 239 -120q67 -102 67 -272q0 -12 -2 -48q-30 -516 -150 -805q-140 -335 -423 -335q-206 0 -277 204q-32 91 -32 201zM387 377q6 -205 140 -205h1q92 1 156 155t98 352q36 209 46 357 q0 16 2 57q2 38 2 56q0 102 -20 149q-30 74 -116 74q-146 0 -226 -354q-34 -150 -52 -292q-22 -178 -27 -282q0 -26 -4 -67zM608 1736l217 304l123 -88l-244 -276z" />
<glyph unicode="&#xd4;" horiz-adv-x="977" d="M166 385q0 33 2 55q28 302 58 456q50 252 146 434q98 186 269 222q37 8 103 8q160 0 239 -120q67 -102 67 -272q0 -12 -2 -48q-30 -516 -150 -805q-140 -335 -423 -335q-206 0 -277 204q-32 91 -32 201zM387 377q6 -205 140 -205h1q92 1 156 155t98 352q36 209 46 357 q0 16 2 57q2 38 2 56q0 102 -20 149q-30 74 -116 74q-146 0 -226 -354q-34 -150 -52 -292q-22 -178 -27 -282q0 -26 -4 -67zM512 1760l304 284l208 -284l-111 -80l-133 172l-176 -172z" />
<glyph unicode="&#xd5;" horiz-adv-x="977" d="M166 385q0 33 2 55q28 302 58 456q50 252 146 434q98 186 269 222q37 8 103 8q160 0 239 -120q67 -102 67 -272q0 -12 -2 -48q-30 -516 -150 -805q-140 -335 -423 -335q-206 0 -277 204q-32 91 -32 201zM387 377q6 -205 140 -205h1q92 1 156 155t98 352q36 209 46 357 q0 16 2 57q2 38 2 56q0 102 -20 149q-30 74 -116 74q-146 0 -226 -354q-34 -150 -52 -292q-22 -178 -27 -282q0 -26 -4 -67zM512 1784q14 80 58 137q52 67 126 67q54 0 122 -38q52 -30 78 -31q32 -1 48 57h116q-11 -80 -52 -135q-49 -65 -124 -65q-50 0 -124 40 q-38 20 -56 23q-56 0 -64 -55h-128z" />
<glyph unicode="&#xd6;" horiz-adv-x="977" d="M166 385q0 33 2 55q28 302 58 456q50 252 146 434q98 186 269 222q37 8 103 8q160 0 239 -120q67 -102 67 -272q0 -12 -2 -48q-30 -516 -150 -805q-140 -335 -423 -335q-206 0 -277 204q-32 91 -32 201zM387 377q6 -205 140 -205h1q92 1 156 155t98 352q36 209 46 357 q0 16 2 57q2 38 2 56q0 102 -20 149q-30 74 -116 74q-146 0 -226 -354q-34 -150 -52 -292q-22 -178 -27 -282q0 -26 -4 -67zM499 1860q10 55 49 89q38 33 84 35q36 2 68 -25t32 -63q2 -66 -34 -96q-34 -30 -98 -51q-45 2 -73 33.5t-28 77.5zM829 1856q2 53 43 90 q42 36 92 38q38 1 70 -28q30 -28 30 -64q0 -116 -137 -143q-45 1 -71 31q-30 32 -27 76z" />
<glyph unicode="&#xd8;" horiz-adv-x="977" d="M43 -12l145 221q-14 104 -16 219q-2 120 24 308q48 344 162 572q54 108 117 160q117 96 265 96q192 0 251 -120l93 139l80 -43l-136 -200q20 -70 20 -187q0 -283 -98 -657q-44 -166 -90 -264q-120 -252 -364 -252q-78 0 -151 32q-79 34 -117 96l-103 -164zM391 520h5 l428 684q0 64 -30 112q-34 56 -94 56q-68 0 -124 -80q-38 -52 -72 -159q-56 -181 -113 -613zM396 348q0 -64 26 -114q32 -62 90 -66q62 6 112 68q68 82 122 287q54 201 82 517h-9z" />
<glyph unicode="&#xd9;" horiz-adv-x="956" d="M180 264q6 72 16 176l172 1104h208l-172 -1079q-18 -116 -19 -166q1 -60 27 -94q26 -33 84 -33q129 0 166 101q18 48 34 155l176 1116h208l-177 -1104q-21 -136 -47 -209q-59 -169 -199 -221q-78 -28 -182 -30q-5 0 -9 -1q-94 0 -158 30q-124 56 -128 255zM632 1952 l152 88l121 -304l-113 -60z" />
<glyph unicode="&#xda;" horiz-adv-x="956" d="M180 264q6 72 16 176l172 1104h208l-172 -1079q-18 -116 -19 -166q1 -60 27 -94q26 -33 84 -33q129 0 166 101q18 48 34 155l176 1116h208l-177 -1104q-21 -136 -47 -209q-59 -169 -199 -221q-78 -28 -182 -30q-5 0 -9 -1q-94 0 -158 30q-124 56 -128 255zM604 1736 l217 304l123 -88l-244 -276z" />
<glyph unicode="&#xdb;" horiz-adv-x="956" d="M180 264q6 72 16 176l172 1104h208l-172 -1079q-18 -116 -19 -166q1 -60 27 -94q26 -33 84 -33q129 0 166 101q18 48 34 155l176 1116h208l-177 -1104q-21 -136 -47 -209q-59 -169 -199 -221q-78 -28 -182 -30q-5 0 -9 -1q-94 0 -158 30q-124 56 -128 255zM504 1764 l304 284l208 -284l-111 -80l-133 172l-176 -172z" />
<glyph unicode="&#xdc;" horiz-adv-x="956" d="M180 264q6 72 16 176l172 1104h208l-172 -1079q-18 -116 -19 -166q1 -60 27 -94q26 -33 84 -33q129 0 166 101q18 48 34 155l176 1116h208l-177 -1104q-21 -136 -47 -209q-59 -169 -199 -221q-78 -28 -182 -30q-5 0 -9 -1q-94 0 -158 30q-124 56 -128 255zM487 1860 q10 55 49 89q38 33 84 35q36 2 68 -25t32 -63q2 -66 -34 -96q-34 -30 -98 -51q-45 2 -73 33.5t-28 77.5zM817 1856q2 53 43 90q42 36 92 38q38 1 70 -28q30 -28 30 -64q0 -116 -137 -143q-45 1 -71 31q-30 32 -27 76z" />
<glyph unicode="&#xdd;" horiz-adv-x="805" d="M248 1544h221l76 -712h4q41 140 135 366l144 346h216l-424 -876l-104 -668h-209l109 664zM524 1732l217 304l123 -88l-244 -276z" />
<glyph unicode="&#xde;" horiz-adv-x="811" d="M125 0l243 1544h204l-44 -307q276 -1 347 -119q37 -62 37 -162q0 -54 -9 -120q-33 -256 -157 -360q-122 -102 -308 -101q-8 0 -23.5 1t-23.5 1l-59 -377h-207zM420 553q138 0 208 103q60 88 60 233q0 176 -188 176z" />
<glyph unicode="&#xdf;" horiz-adv-x="872" d="M131 0l141 884h-88l25 152h84l47 295q16 97 40 171q27 80 104.5 146.5t211.5 67.5q158 1 222.5 -59.5t64.5 -184.5q-1 -346 -195 -411v-4q124 -31 124 -248q0 -73 -4 -105q-24 -197 -38 -269q-30 -160 -78 -259q-88 -178 -313 -178q-39 0 -63 2l24 172q139 0 193 126 q23 54 36 126l23 129q20 117 20 203q0 212 -163 212l23 172q212 0 212 265q0 143 -108 143q-100 -17 -127 -148q-10 -51 -41 -241l-184 -1159h-193z" />
<glyph unicode="&#xe0;" horiz-adv-x="780" d="M116 252q4 152 32 320q34 200 88 304q91 176 229 176q59 0 113 -36q59 -40 63 -96h2l17 116h196l-164 -1036h-192l20 131h-4q-78 -147 -213 -147q-133 0 -163 127q-12 49 -24 141zM312 299l14 -71q14 -70 78 -76q44 3 84 46q42 46 57 114q63 268 63 436q0 128 -92 128 q-32 0 -64 -24q-34 -26 -52 -72q-26 -60 -56 -226q-29 -160 -32 -255zM464 1444l152 88l121 -304l-113 -60z" />
<glyph unicode="&#xe1;" horiz-adv-x="780" d="M116 252q4 152 32 320q34 200 88 304q91 176 229 176q59 0 113 -36q59 -40 63 -96h2l17 116h196l-164 -1036h-192l20 131h-4q-78 -147 -213 -147q-133 0 -163 127q-12 49 -24 141zM312 299l14 -71q14 -70 78 -76q44 3 84 46q42 46 57 114q63 268 63 436q0 128 -92 128 q-32 0 -64 -24q-34 -26 -52 -72q-26 -60 -56 -226q-29 -160 -32 -255zM432 1228l217 304l123 -88l-244 -276z" />
<glyph unicode="&#xe2;" horiz-adv-x="780" d="M116 252q4 152 32 320q34 200 88 304q91 176 229 176q59 0 113 -36q59 -40 63 -96h2l17 116h196l-164 -1036h-192l20 131h-4q-78 -147 -213 -147q-133 0 -163 127q-12 49 -24 141zM312 299l14 -71q14 -70 78 -76q44 3 84 46q42 46 57 114q63 268 63 436q0 128 -92 128 q-32 0 -64 -24q-34 -26 -52 -72q-26 -60 -56 -226q-29 -160 -32 -255zM336 1256l304 284l208 -284l-111 -80l-133 172l-176 -172z" />
<glyph unicode="&#xe3;" horiz-adv-x="780" d="M116 252q4 152 32 320q34 200 88 304q91 176 229 176q59 0 113 -36q59 -40 63 -96h2l17 116h196l-164 -1036h-192l20 131h-4q-78 -147 -213 -147q-133 0 -163 127q-12 49 -24 141zM312 299l14 -71q14 -70 78 -76q44 3 84 46q42 46 57 114q63 268 63 436q0 128 -92 128 q-32 0 -64 -24q-34 -26 -52 -72q-26 -60 -56 -226q-29 -160 -32 -255zM336 1276q14 80 58 137q52 67 126 67q54 0 122 -38q52 -30 78 -31q32 -1 48 57h116q-11 -80 -52 -135q-49 -65 -124 -65q-50 0 -124 40q-38 20 -56 23q-56 0 -64 -55h-128z" />
<glyph unicode="&#xe4;" horiz-adv-x="780" d="M116 252q4 152 32 320q34 200 88 304q91 176 229 176q59 0 113 -36q59 -40 63 -96h2l17 116h196l-164 -1036h-192l20 131h-4q-78 -147 -213 -147q-133 0 -163 127q-12 49 -24 141zM312 299l14 -71q14 -70 78 -76q44 3 84 46q42 46 57 114q63 268 63 436q0 128 -92 128 q-32 0 -64 -24q-34 -26 -52 -72q-26 -60 -56 -226q-29 -160 -32 -255zM319 1348q10 55 49 89q38 33 84 35q36 2 68 -25t32 -63q2 -66 -34 -96q-34 -30 -98 -51q-45 2 -73 33.5t-28 77.5zM649 1344q2 53 43 90q42 36 92 38q38 1 70 -28q30 -28 30 -64q0 -116 -137 -143 q-45 1 -71 31q-30 32 -27 76z" />
<glyph unicode="&#xe5;" horiz-adv-x="780" d="M116 252q4 152 32 320q34 200 88 304q91 176 229 176q59 0 113 -36q59 -40 63 -96h2l17 116h196l-164 -1036h-192l20 131h-4q-78 -147 -213 -147q-133 0 -163 127q-12 49 -24 141zM312 299l14 -71q14 -70 78 -76q44 3 84 46q42 46 57 114q63 268 63 436q0 128 -92 128 q-32 0 -64 -24q-34 -26 -52 -72q-26 -60 -56 -226q-29 -160 -32 -255zM440 1352q12 79 67 126.5t125 49.5q56 2 98 -36q40 -36 46 -96q0 -165 -197 -204q-65 4 -103 50q-36 44 -36 110zM536 1356q0 -60 64 -68q38 20 41 22q24 15 32 33q7 13 7 33q-7 56 -64 56 q-73 0 -80 -76z" />
<glyph unicode="&#xe6;" horiz-adv-x="1149" d="M100 223q28 201 79 299q75 146 233 146q112 0 156 -68l4 4q16 71 16 127q0 133 -148 133q-108 0 -204 -55l32 191q102 52 220 52q188 0 220 -132q88 132 244 132q124 0 188 -105q52 -86 52 -220q0 -104 -24 -252h-428q-15 -80 -23 -178q6 -149 98 -149q133 0 149 208h185 q-48 -260 -202 -338q-68 -34 -138 -34q-199 0 -241 160q-24 -72 -110 -118q-77 -42 -159 -42q-193 0 -199 239zM299 276q0 -64 17 -100q18 -40 75 -41q83 -3 119 81q36 82 35 180q-1 120 -97 120q-76 0 -116 -86q-32 -68 -33 -154zM764 616h236q12 70 12 132q0 142 -80 141 q-142 -1 -168 -273z" />
<glyph unicode="&#xe7;" horiz-adv-x="567" d="M116 307v15q0 80 27 214q53 266 133 380q96 136 252 136q75 0 152 -36l-28 -197h-5q-17 49 -92 49q-97 0 -151 -112q-22 -44 -52 -174q-26 -116 -28 -214q10 -88 12 -100q12 -60 45 -86q23 -20 63 -22q57 6 109 45l-29 -181q-94 -40 -168 -40q-228 0 -240 323zM88 -396 l176 292l123 -64l-215 -276z" />
<glyph unicode="&#xe8;" horiz-adv-x="739" d="M116 303q4 35 9 93q9 134 51 292q40 149 128 257t222 108q2 -1 6 -1q137 -2 194 -91q54 -86 54 -234q0 -59 -10 -159l-10 -89h-428q-12 -63 -20 -172q6 -151 92 -151q122 0 149 192h178q-35 -196 -133 -278q-102 -86 -226 -86q-2 0 -3 -1q-247 0 -253 320zM356 616h228 q12 70 12 124q0 140 -88 140q-122 0 -152 -264zM448 1444l152 88l121 -304l-113 -60z" />
<glyph unicode="&#xe9;" horiz-adv-x="739" d="M116 303q4 35 9 93q9 134 51 292q40 149 128 257t222 108q2 -1 6 -1q137 -2 194 -91q54 -86 54 -234q0 -59 -10 -159l-10 -89h-428q-12 -63 -20 -172q6 -151 92 -151q122 0 149 192h178q-35 -196 -133 -278q-102 -86 -226 -86q-2 0 -3 -1q-247 0 -253 320zM356 616h228 q12 70 12 124q0 140 -88 140q-122 0 -152 -264zM416 1228l217 304l123 -88l-244 -276z" />
<glyph unicode="&#xea;" horiz-adv-x="739" d="M116 303q4 35 9 93q9 134 51 292q40 149 128 257t222 108q2 -1 6 -1q137 -2 194 -91q54 -86 54 -234q0 -59 -10 -159l-10 -89h-428q-12 -63 -20 -172q6 -151 92 -151q122 0 149 192h178q-35 -196 -133 -278q-102 -86 -226 -86q-2 0 -3 -1q-247 0 -253 320zM356 616h228 q12 70 12 124q0 140 -88 140q-122 0 -152 -264zM316 1256l304 284l208 -284l-111 -80l-133 172l-176 -172z" />
<glyph unicode="&#xeb;" horiz-adv-x="739" d="M116 303q4 35 9 93q9 134 51 292q40 149 128 257t222 108q2 -1 6 -1q137 -2 194 -91q54 -86 54 -234q0 -59 -10 -159l-10 -89h-428q-12 -63 -20 -172q6 -151 92 -151q122 0 149 192h178q-35 -196 -133 -278q-102 -86 -226 -86q-2 0 -3 -1q-247 0 -253 320zM356 616h228 q12 70 12 124q0 140 -88 140q-122 0 -152 -264zM299 1348q10 55 49 89q38 33 84 35q36 2 68 -25t32 -63q2 -66 -34 -96q-34 -30 -98 -51q-45 2 -73 33.5t-28 77.5zM629 1344q2 53 43 90q42 36 92 38q38 1 70 -28q30 -28 30 -64q0 -116 -137 -143q-45 1 -71 31q-30 32 -27 76 z" />
<glyph unicode="&#xec;" horiz-adv-x="368" d="M88 0l164 1036h192l-164 -1036h-192zM260 1444l152 88l121 -304l-113 -60z" />
<glyph unicode="&#xed;" horiz-adv-x="368" d="M88 0l164 1036h192l-164 -1036h-192zM228 1228l217 304l123 -88l-244 -276z" />
<glyph unicode="&#xee;" horiz-adv-x="368" d="M88 0l164 1036h192l-164 -1036h-192zM128 1256l304 284l208 -284l-111 -80l-133 172l-176 -172z" />
<glyph unicode="&#xef;" horiz-adv-x="368" d="M88 0l164 1036h192l-164 -1036h-192zM115 1348q10 55 49 89q38 33 84 35q36 2 68 -25t32 -63q2 -66 -34 -96q-34 -30 -98 -51q-45 2 -73 33.5t-28 77.5zM445 1344q2 53 43 90q42 36 92 38q38 1 70 -28q30 -28 30 -64q0 -116 -137 -143q-45 1 -71 31q-30 32 -27 76z" />
<glyph unicode="&#xf0;" horiz-adv-x="768" d="M121 307q0 132 47 334q86 371 377 371q59 0 88 -4q-12 94 -84 276l-164 -76l-49 105l168 71q-32 83 -144 277l164 55q90 -148 144 -256l164 76l48 -100l-168 -80q102 -236 103 -545q-1 -163 -31 -327q-25 -132 -59 -222q-73 -189 -199 -249q-62 -29 -139 -29 q-266 0 -266 323zM312 312q6 -152 116 -152q128 28 168 364q6 42 17 126q3 35 3 67q0 165 -96 163q-44 -1 -80 -41q-54 -62 -82 -204q-8 -40 -22 -119q-18 -106 -24 -204z" />
<glyph unicode="&#xf1;" horiz-adv-x="796" d="M92 0l160 1036h196l-20 -120h4q88 136 228 136q92 0 132 -41t40 -135q0 -68 -8 -120l-116 -756h-192l112 727q0 8 2.5 24.5t2.5 24.5q0 104 -88 104q-68 0 -102 -44q-38 -50 -56 -168l-103 -668h-192zM344 1276q14 80 58 137q52 67 126 67q54 0 122 -38q52 -30 78 -31 q32 -1 48 57h116q-11 -80 -52 -135q-49 -65 -124 -65q-50 0 -124 40q-38 20 -56 23q-56 0 -64 -55h-128z" />
<glyph unicode="&#xf2;" horiz-adv-x="768" d="M121 312q1 108 39 316q38 214 146 320q106 104 239 104q2 0 4 1q262 -1 262 -345q-1 -106 -27 -252q-86 -472 -397 -472q-131 0 -197 79q-69 83 -69 244v5zM312 312q6 -152 116 -152q130 28 168 364q8 42 20 127q4 41 4 74q0 151 -96 151q-88 0 -134 -126 q-27 -75 -54 -234q-18 -104 -24 -204zM460 1444l152 88l121 -304l-113 -60z" />
<glyph unicode="&#xf3;" horiz-adv-x="768" d="M121 312q1 108 39 316q38 214 146 320q106 104 239 104q2 0 4 1q262 -1 262 -345q-1 -106 -27 -252q-86 -472 -397 -472q-131 0 -197 79q-69 83 -69 244v5zM312 312q6 -152 116 -152q130 28 168 364q8 42 20 127q4 41 4 74q0 151 -96 151q-88 0 -134 -126 q-27 -75 -54 -234q-18 -104 -24 -204zM428 1228l217 304l123 -88l-244 -276z" />
<glyph unicode="&#xf4;" horiz-adv-x="768" d="M121 312q1 108 39 316q38 214 146 320q106 104 239 104q2 0 4 1q262 -1 262 -345q-1 -106 -27 -252q-86 -472 -397 -472q-131 0 -197 79q-69 83 -69 244v5zM312 312q6 -152 116 -152q130 28 168 364q8 42 20 127q4 41 4 74q0 151 -96 151q-88 0 -134 -126 q-27 -75 -54 -234q-18 -104 -24 -204zM332 1256l304 284l208 -284l-111 -80l-133 172l-176 -172z" />
<glyph unicode="&#xf5;" horiz-adv-x="768" d="M121 312q1 108 39 316q38 214 146 320q106 104 239 104q2 0 4 1q262 -1 262 -345q-1 -106 -27 -252q-86 -472 -397 -472q-131 0 -197 79q-69 83 -69 244v5zM312 312q6 -152 116 -152q130 28 168 364q8 42 20 127q4 41 4 74q0 151 -96 151q-88 0 -134 -126 q-27 -75 -54 -234q-18 -104 -24 -204zM332 1276q14 80 58 137q52 67 126 67q54 0 122 -38q52 -30 78 -31q32 -1 48 57h116q-11 -80 -52 -135q-49 -65 -124 -65q-50 0 -124 40q-38 20 -56 23q-56 0 -64 -55h-128z" />
<glyph unicode="&#xf6;" horiz-adv-x="768" d="M121 312q1 108 39 316q38 214 146 320q106 104 239 104q2 0 4 1q262 -1 262 -345q-1 -106 -27 -252q-86 -472 -397 -472q-131 0 -197 79q-69 83 -69 244v5zM312 312q6 -152 116 -152q130 28 168 364q8 42 20 127q4 41 4 74q0 151 -96 151q-88 0 -134 -126 q-27 -75 -54 -234q-18 -104 -24 -204zM315 1348q10 55 49 89q38 33 84 35q36 2 68 -25t32 -63q2 -66 -34 -96q-34 -30 -98 -51q-45 2 -73 33.5t-28 77.5zM645 1344q2 53 43 90q42 36 92 38q38 1 70 -28q30 -28 30 -64q0 -116 -137 -143q-45 1 -71 31q-30 32 -27 76z" />
<glyph unicode="&#xf8;" horiz-adv-x="768" d="M43 33l101 127q-22 84 -23 168q-3 136 47 324q42 162 100 247q54 81 124 117q73 36 153 36q58 0 114 -19q69 -25 93 -65l84 103l72 -47l-112 -148q12 -78 13 -172q-1 -232 -77 -438q-34 -94 -72 -145q-103 -137 -273 -137q-55 0 -113 20q-68 24 -94 64l-64 -88zM324 244 q6 -88 92 -96q50 6 84 44q68 80 112 441h-4zM324 404h4l284 388q-12 88 -88 88q-42 0 -70 -22q-42 -34 -72 -123q-34 -104 -58 -331z" />
<glyph unicode="&#xf9;" horiz-adv-x="796" d="M140 328l112 708h196l-116 -716q0 -12 -8 -56q7 -104 104 -104q112 0 135 147l117 729h192l-116 -739q-28 -181 -150 -264q-70 -47 -166 -49q-7 0 -13 -1q-146 -1 -221 51q-77 53 -77 187q0 42 11 107zM476 1444l152 88l121 -304l-113 -60z" />
<glyph unicode="&#xfa;" horiz-adv-x="796" d="M140 328l112 708h196l-116 -716q0 -12 -8 -56q7 -104 104 -104q112 0 135 147l117 729h192l-116 -739q-28 -181 -150 -264q-70 -47 -166 -49q-7 0 -13 -1q-146 -1 -221 51q-77 53 -77 187q0 42 11 107zM440 1228l217 304l123 -88l-244 -276z" />
<glyph unicode="&#xfb;" horiz-adv-x="796" d="M140 328l112 708h196l-116 -716q0 -12 -8 -56q7 -104 104 -104q112 0 135 147l117 729h192l-116 -739q-28 -181 -150 -264q-70 -47 -166 -49q-7 0 -13 -1q-146 -1 -221 51q-77 53 -77 187q0 42 11 107zM344 1256l304 284l208 -284l-111 -80l-133 172l-176 -172z" />
<glyph unicode="&#xfc;" horiz-adv-x="796" d="M140 328l112 708h196l-116 -716q0 -12 -8 -56q7 -104 104 -104q112 0 135 147l117 729h192l-116 -739q-28 -181 -150 -264q-70 -47 -166 -49q-7 0 -13 -1q-146 -1 -221 51q-77 53 -77 187q0 42 11 107zM331 1348q10 55 49 89q38 33 84 35q36 2 68 -25t32 -63 q2 -66 -34 -96q-34 -30 -98 -51q-45 2 -73 33.5t-28 77.5zM661 1344q2 53 43 90q42 36 92 38q38 1 70 -28q30 -28 30 -64q0 -116 -137 -143q-45 1 -71 31q-30 32 -27 76z" />
<glyph unicode="&#xfd;" horiz-adv-x="764" d="M56 -424l241 508l-125 952h215l37 -724h4l289 724h195l-652 -1460h-204zM428 1228l217 304l123 -88l-244 -276z" />
<glyph unicode="&#xfe;" horiz-adv-x="780" d="M20 -424l296 1848h192l-84 -525h4q28 66 82 108q58 45 127 45q83 0 133 -64q43 -56 49 -144q2 -32 2 -70q0 -352 -104 -598q-52 -124 -158 -172q-47 -20 -94 -20q-135 0 -162 132h-4l-86 -540h-193zM332 307q6 -151 92 -151q67 0 107 82q38 78 69 262q24 142 24 225 q0 151 -84 155q-56 2 -94 -56q-52 -82 -86 -300q-24 -158 -28 -217z" />
<glyph unicode="&#xff;" horiz-adv-x="764" d="M56 -424l241 508l-125 952h215l37 -724h4l289 724h195l-652 -1460h-204zM315 1348q10 55 49 89q38 33 84 35q36 2 68 -25t32 -63q2 -66 -34 -96q-34 -30 -98 -51q-45 2 -73 33.5t-28 77.5zM645 1344q2 53 43 90q42 36 92 38q38 1 70 -28q30 -28 30 -64q0 -116 -137 -143 q-45 1 -71 31q-30 32 -27 76z" />
<glyph unicode="&#x131;" horiz-adv-x="368" d="M88 0l164 1036h192l-164 -1036h-192z" />
<glyph unicode="&#x152;" horiz-adv-x="1224" d="M172 324q-2 124 22 338q52 458 178 694q50 92 132 148q88 60 188 60q78 0 132 -32q64 -38 73 -108l19 120h536l-24 -176h-344l-76 -484h315l-31 -180h-315l-80 -524h350l-27 -180h-536l20 125h-4q-88 -145 -256 -145q-110 0 -188 86q-81 90 -84 258zM387 404 q-1 -102 34 -172q29 -60 103 -60q130 0 194 226q30 106 58 272l56 338q12 81 12 151q0 217 -136 221q-108 2 -173 -147q-62 -142 -115 -508q-32 -225 -33 -321z" />
<glyph unicode="&#x153;" horiz-adv-x="1188" d="M123 307q0 286 100 511q49 112 129 169q92 65 193 65q175 0 199 -159h4q32 70 101 114.5t147 44.5q126 0 187 -104q50 -86 50 -221q-1 -100 -25 -248h-432q-6 -53 -16 -159q6 -160 96 -160q126 0 152 192h176q-22 -174 -130 -274q-100 -94 -222 -94q-78 0 -135 43 q-59 45 -73 121q-27 -74 -102 -120q-72 -44 -154 -44q-138 0 -204 118q-35 62 -39 150q-2 40 -2 55zM316 324q3 -84 27 -124q26 -42 77 -40q72 4 116 116q43 110 60 273q0 28 8 85.5t8 86.5q0 157 -96 155q-50 -2 -95 -72q-43 -66 -69 -208q-30 -167 -36 -272zM801 612h231 q12 70 12 136q0 142 -88 141q-126 -1 -155 -277z" />
<glyph unicode="&#x178;" horiz-adv-x="805" d="M415 1794q10 55 49 89q38 33 84 35q36 2 68 -25t32 -63q2 -66 -34 -96q-34 -30 -98 -51q-45 2 -73 33.5t-28 77.5zM745 1790q2 53 43 90q42 36 92 38q38 1 70 -28q30 -28 30 -64q0 -116 -137 -143q-45 1 -71 31q-30 32 -27 76zM248 1544h221l76 -712h4q41 140 135 366 l144 346h216l-424 -876l-104 -668h-209l109 664z" />
<glyph unicode="&#x2c6;" horiz-adv-x="571" d="M232 1252l304 284l208 -284l-111 -80l-133 172l-176 -172z" />
<glyph unicode="&#x2da;" horiz-adv-x="571" d="M336 1352q12 79 67 126.5t125 49.5q56 2 98 -36q40 -36 46 -96q0 -165 -197 -204q-65 4 -103 50q-36 44 -36 110zM432 1356q0 -60 64 -68q38 20 41 22q24 15 32 33q7 13 7 33q-7 56 -64 56q-73 0 -80 -76z" />
<glyph unicode="&#x2dc;" horiz-adv-x="571" d="M232 1276q14 80 58 137q52 67 126 67q54 0 122 -38q52 -30 78 -31q32 -1 48 57h116q-11 -80 -52 -135q-49 -65 -124 -65q-50 0 -124 40q-38 20 -56 23q-56 0 -64 -55h-128z" />
<glyph unicode="&#x2000;" horiz-adv-x="1024" />
<glyph unicode="&#x2001;" horiz-adv-x="2048" />
<glyph unicode="&#x2002;" horiz-adv-x="1024" />
<glyph unicode="&#x2003;" horiz-adv-x="2048" />
<glyph unicode="&#x2004;" horiz-adv-x="682" />
<glyph unicode="&#x2005;" horiz-adv-x="512" />
<glyph unicode="&#x2006;" horiz-adv-x="341" />
<glyph unicode="&#x2007;" horiz-adv-x="341" />
<glyph unicode="&#x2008;" horiz-adv-x="256" />
<glyph unicode="&#x2009;" horiz-adv-x="409" />
<glyph unicode="&#x200a;" horiz-adv-x="113" />
<glyph unicode="&#x2010;" horiz-adv-x="495" d="M135 452l25 156h368l-24 -156h-369z" />
<glyph unicode="&#x2011;" horiz-adv-x="495" d="M135 452l25 156h368l-24 -156h-369z" />
<glyph unicode="&#x2012;" horiz-adv-x="495" d="M135 452l25 156h368l-24 -156h-369z" />
<glyph unicode="&#x2013;" horiz-adv-x="2048" d="M72 456l24 152h2052l-28 -152h-2048z" />
<glyph unicode="&#x2014;" horiz-adv-x="1024" d="M72 456l24 152h1024l-24 -152h-1024z" />
<glyph unicode="&#x2018;" horiz-adv-x="436" d="M215 1020l285 549l104 -33l-227 -563z" />
<glyph unicode="&#x2019;" horiz-adv-x="436" d="M236 1004l229 565l155 -53l-284 -543z" />
<glyph unicode="&#x201c;" horiz-adv-x="704" d="M205 1020l283 549l104 -33l-228 -563zM484 1020l284 549l104 -33l-229 -563z" />
<glyph unicode="&#x201d;" horiz-adv-x="704" d="M236 1004l229 565l155 -53l-284 -543zM516 1004l228 565l155 -53l-283 -543z" />
<glyph unicode="&#x201e;" horiz-adv-x="704" d="M24 -348l224 563l160 -51l-283 -541zM303 -348l229 563l156 -51l-284 -541z" />
<glyph unicode="&#x2022;" horiz-adv-x="819" d="M144 717q-2 105 62 211q61 101 158 164q104 67 216 67q194 1 294 -157q48 -76 50 -166q1 -108 -61.5 -214t-166.5 -169q-107 -66 -225 -66q-203 1 -287 167q-40 78 -40 163z" />
<glyph unicode="&#x2026;" horiz-adv-x="2048" d="M236 92q2 54 44.5 92t96.5 39q39 1 72 -24t35 -70q2 -57 -45 -103t-103 -46q-44 0 -72 32q-30 34 -28 80zM916 92q6 56 47 93t94 38q37 1 73 -25q34 -26 34 -73q0 -60 -44 -102.5t-104 -42.5q-46 0 -74 34q-26 32 -26 78zM1600 92q6 56 47 93t94 38q39 1 72 -24t35 -70 q2 -60 -44.5 -104.5t-103.5 -44.5q-46 0 -74 34q-26 32 -26 78z" />
<glyph unicode="&#x202f;" horiz-adv-x="409" />
<glyph unicode="&#x2039;" horiz-adv-x="487" d="M135 532l336 455l84 -55l-295 -400l148 -407l-101 -53z" />
<glyph unicode="&#x203a;" horiz-adv-x="487" d="M121 125l275 407l-173 400l101 55l196 -455l-315 -460z" />
<glyph unicode="&#x205f;" horiz-adv-x="512" />
<glyph unicode="&#x2122;" horiz-adv-x="1536" d="M223 1424l21 120h571l-14 -120h-225l-115 -740h-129l120 740h-229zM805 684l135 860h184l105 -608h4l303 608h180l-133 -860h-115l119 740h-4l-359 -740h-65l-119 740h-4l-116 -740h-115z" />
<glyph unicode="&#xe000;" horiz-adv-x="1035" d="M0 1035h1035v-1035h-1035v1035z" />
<glyph unicode="&#xfb01;" horiz-adv-x="876" d="M596 0l164 1036h192l-164 -1036h-192zM776 1336q6 58 50 98t98 42q1 0 2 1q36 0 71 -25q33 -24 39 -72q0 -116 -151 -160q-109 8 -109 116zM140 0l140 884h-96l25 152h94l65 396q26 160 96 223q70 65 164 65q58 0 144 -32l-37 -199q-35 23 -79 23q-43 0 -71 -29 q-24 -24 -32 -78l-57 -369h160l-23 -152h-162l-139 -884h-192z" />
<glyph unicode="&#xfb02;" horiz-adv-x="876" d="M596 0l268 1700h193l-269 -1700h-192zM140 0l140 884h-96l25 152h94l65 396q26 160 96 223q70 65 164 65q58 0 144 -32l-37 -199q-35 23 -79 23q-43 0 -71 -29q-24 -24 -32 -78l-57 -369h160l-23 -152h-162l-139 -884h-192z" />
<glyph unicode="&#xfb03;" horiz-adv-x="1384" d="M1104 0l164 1036h192l-164 -1036h-192zM1284 1336q6 58 50 98t98 42q1 0 2 1q36 0 71 -25q33 -24 39 -72q0 -116 -151 -160q-109 8 -109 116zM648 0l140 884h-96l25 152h94l65 396q26 160 96 223q70 65 164 65q58 0 144 -32l-37 -199q-35 23 -79 23q-43 0 -71 -29 q-24 -24 -32 -78l-57 -369h160l-23 -152h-162l-139 -884h-192zM140 0l140 884h-96l25 152h94l65 396q26 160 96 223q70 65 164 65q58 0 144 -32l-37 -199q-35 23 -79 23q-43 0 -71 -29q-24 -24 -32 -78l-57 -369h160l-23 -152h-162l-139 -884h-192z" />
<glyph unicode="&#xfb04;" horiz-adv-x="1384" d="M1104 0l268 1700h193l-269 -1700h-192zM648 0l140 884h-96l25 152h94l65 396q26 160 96 223q70 65 164 65q58 0 144 -32l-37 -199q-35 23 -79 23q-43 0 -71 -29q-24 -24 -32 -78l-57 -369h160l-23 -152h-162l-139 -884h-192zM140 0l140 884h-96l25 152h94l65 396 q26 160 96 223q70 65 164 65q58 0 144 -32l-37 -199q-35 23 -79 23q-43 0 -71 -29q-24 -24 -32 -78l-57 -369h160l-23 -152h-162l-139 -884h-192z" />
</font>
</defs>
</svg>
