<?xml version="1.0" standalone="no"?>
<!DOCTYPE svg PUBLIC "-//W3C//DTD SVG 1.1//EN" "http://www.w3.org/Graphics/SVG/1.1/DTD/svg11.dtd" >
<svg>
<metadata>
Created by FontForge 20110222 at Mon Mar  7 08:04:10 2011
 By www-data
Copyright (c) ere, 2003. All rights reserved.
</metadata>
<defs>
<font id="nu-century-gothic-Bold" horiz-adv-x="500" >
  <font-face 
    font-family="nu-century-gothic"
    font-weight="700"
    font-stretch="normal"
    units-per-em="1000"
    panose-1="2 0 5 0 0 0 0 2 0 4"
    ascent="800"
    descent="-200"
    x-height="534"
    cap-height="673"
    bbox="-55 -222 1079.57 849.125"
    underline-thickness="50"
    underline-position="-50"
    unicode-range="U+0020-2122"
  />
    <missing-glyph />
    <glyph glyph-name="space" unicode=" " 
 />
    <glyph glyph-name="space" unicode="&#xa0;" 
 />
    <glyph glyph-name="bar" unicode="|" horiz-adv-x="269" 
d="M177 747q4 -11 3.5 -22.5t-1 -22.5t0.5 -22t7 -20l-10 -4v-72q8 -2 11 -6.5t3 -9.5t-0.5 -10t1.5 -8q-4 0 -5.5 -2.5t-9.5 -2.5v-112q0 -4 3.5 -6l7 -4t5.5 -4t-1 -5q-17 -13 -15 -32.5t10 -39.5q5 -1 4 -3t-4 -4t-6.5 -4t-3.5 -4q4 -5 3.5 -12t-0.5 -14t2 -12.5t10 -8.5
q0 -6 -3.5 -7.5t-11.5 -5.5v-173q11 -3 13 -10t2 -11l-15 -9v-126l15 -4q-11 -5 -13 -12t-2 -14q8 0 9.5 -3.5t5.5 -3.5q0 -5 -3.5 -7.5t-7 -4.5t-5.5 -4.5t1 -8.5q-14 0 -31 -2.5t-31 -2.5l-6 -2q-4 -1 -11 2q-14 4 -16.5 14t-2.5 23q-8 14 -8 35q0 20 8 34v122
q-6 8 -4.5 16t4 17t4 17.5t-3.5 15.5v162q7 8 5 15.5t-5 15t-3.5 15.5t10.5 15q3 12 0 22.5t-7.5 21.5t-8 22t-1.5 24l17 12q-3 13 -3.5 26.5t-1.5 27.5t-3.5 27t-8.5 25q-2 9 2 17t7 14.5t2.5 13.5t-11.5 15q-2 14 1.5 25.5t8 22.5t7.5 21.5t0 21.5q22 -3 43 0.5t48 -0.5z
M122 -159v-5h-24q0 4 1 7t6 3q7 3 12 -1q3 -2 5 -4zM170 -154q0 -8 -3 -9q-2 -1 -4 -1h-5q-5 4 -2.5 5t2.5 5h12zM163 -193q0 -5 -7 -6t-15 -1l17 16q0 -3 2.5 -4t2.5 -5z" />
    <glyph glyph-name="exclamdown" unicode="&#xa1;" 
d="M375 435q21 -15 26 -35t-2 -41v-14q3 1 5 0q4 -2 4 -4q-4 0 -5 -2.5t-4 -2.5v5q-14 -25 -42 -31.5t-52 -6.5q-20 13 -34 27q-7 8 -16 13.5t-2 15.5q0 4 2 5t2 5q-3 -4 -9.5 -1t0.5 10q0 -1 3 -4q1 -1 2 -1q3 11 7 24t11 24q11 14 27.5 19.5t34.5 12.5v5q11 -4 21 -13.5
t21 -9.5zM333 453h9h-9zM257 425q-7 4 -1 7.5t6 6.5l5 5q3 -4 -1.5 -9.5t-8.5 -9.5zM394 321l5 9v-9h-5zM262 247q4 -8 1.5 -14.5t-6.5 -9.5q2 5 1 11t-2 12.5t0 12.5t6 11q0 -7 -2 -13.5t2 -9.5zM365 251q8 0 16.5 0.5t12.5 -10.5q-7 -11 -7.5 -23t2.5 -23q4 -8 4 -17
t-4 -16l-4 -6v-183q7 -7 7.5 -14t-1 -14.5t-4 -15t-2.5 -16.5q0 -11 4.5 -21.5t4.5 -21.5q-4 0 -5 -0.5t-4 -4.5q3 -3 3 -7q0 -5 -1 -9t-1 -8q0 -5 3 -8q0 -8 -2.5 -19t7.5 -15q-22 0 -45 1.5t-44 -5.5q-4 3 -9 3t-10 -0.5t-9 0.5t-6 6q-3 3 -4.5 8t-9.5 1q-3 4 -1.5 10
t1.5 10q1 -2 3 -4q5 -5 7 -1l4 5v65l-6 6t-3 -2h-5v29l10 -4l4 4v316q11 0 21 2t19 3.5t18 2t18 -3.5q3 4 3.5 5t0.5 5l-4 4q3 4 4 2t5 -2q0 -3 3 -6.5t6 -7.5zM262 77l-5 28l5 -4v-24zM262 44q0 -4 -0.5 -5t-4.5 -4v14q2 0 3 -1q2 -2 2 -4z" />
    <glyph glyph-name="trademark" unicode="&#x2122;" horiz-adv-x="752" 
d="M810 659h-11q19 -8 11 -25q-12 0 -11.5 -11.5t0.5 -19.5q8 0 11.5 1.5t-0.5 -6.5l-11 -9q0 -31 -1.5 -56t6.5 -52h6q-11 0 -11 -10q-4 -11 -1.5 -20t5.5 -17t3.5 -16t-7.5 -17q0 -8 1.5 -17t9.5 -9v-25q-11 0 -11 -11q-2 -12 -0.5 -23t2.5 -22t0 -21.5t-7 -19.5h-10
l10 10q-8 0 -12.5 1.5t-12.5 -6.5q0 -1 1 -2t1 -2t2 -1h-30q-5 0 -2 3l2 2q0 8 -5.5 7t-9.5 3l-5 21q4 72 0.5 143.5t-0.5 140.5l-4 6q-8 -8 -11 -17t-5 -19t-5 -19t-11 -17q-4 -11 -8 -23.5t-12 -27.5q-6 -6 -6 -15q0 -8 -0.5 -17t-4 -17t-14.5 -12q0 -4 -4 -10t4 -10
q0 -8 -3.5 -12.5t-7 -8.5l-7 -8t-3.5 -12q-8 -15 -13 -32.5t-13 -33.5q11 -7 0 -15q-9 0 -19.5 -2t-18.5 -1.5t-12 5.5t0 18q-11 12 -12 25.5t-8 25.5l5 5q0 5 -10 5q-4 12 -7.5 20.5t-3.5 20.5h-5q-11 46 -28.5 91.5t-37.5 91.5q-4 0 -3 5t-7 5l-5 -5l5 -290
q-8 -4 -15 -6.5t-15 1.5q-16 0 -28 1.5t-23 -6.5q-8 4 -4 10t4 11v386q4 -5 5.5 -10t8.5 -1q5 0 5.5 0.5t0.5 4.5h5v-5q0 -4 5.5 -2t9.5 2q5 0 2 3l-2 2q4 0 12.5 1.5t8.5 -6.5q0 -5 3 -2l2 2l10 5q0 -5 3 -2l2 2l-5 -5q15 -7 31 0q0 3 -3 4q-2 1 -3 1q5 0 6 5t5 1l-5 -11
h10v5q7 0 11 -11t9 -19q4 -23 13.5 -43t17.5 -43q11 -15 14 -30t10 -26q5 -19 13.5 -35.5t12.5 -36.5q5 -7 11 -3t10 8q12 42 26.5 79t34.5 75q0 8 0.5 11.5t4.5 7.5v11l10 5q-4 4 -2 7t4.5 6.5t4.5 7.5t-2 10h5q0 3 3 5l6 4t4 4t-3 6q-4 0 -5 -0.5t-5 -4.5q4 4 4 9
q0 6 11 2q2 -4 6 -4q5 0 9.5 0.5t9 -0.5t7.5 -7q3 0 6.5 0.5t7.5 4.5q10 4 18.5 3.5l17 -1t16 1.5t14.5 12q8 -4 9.5 -10.5t1.5 -10.5zM153 659q5 -4 6 -1.5t5 6.5q14 0 29.5 1.5t31.5 -6.5q3 4 8.5 5t11.5 1t12.5 0.5t12.5 4.5q5 -5 0.5 -8t-0.5 -3q5 -4 8.5 -1.5t7.5 6.5
q7 -18 6 -34.5t-1 -36.5l-117 -4l-5 -10q0 -74 -0.5 -154.5t-4.5 -156.5q-8 8 -16 0q-11 -4 -20 -2t-20 2q-4 -4 -1.5 -7.5t6.5 -7.5h4q-3 0 -9 -1.5t-13 -1.5q-6 0 -11 2.5t-7 10.5q-4 4 -4 10t4 11q4 0 5 3t5 6q4 10 1.5 18.5t-5.5 16.5t-3.5 16t7.5 15q0 32 1.5 64
t-6.5 58q0 27 4.5 53.5t0.5 49.5l-10 5h-107q-4 19 -4 40t4 35q4 0 2.5 -2.5t2.5 -2.5q4 -3 5 -2t1 2v5h30q-5 -4 -2 -6.5t7 1.5q5 -3 7 -2t3 2v5q4 -4 10 -3.5t11.5 1.5t9.5 1t4 -4q4 -4 5 -2t6 2q0 4 5.5 7t9.5 -2l5 -5q12 12 28.5 8t27.5 -8h5zM591 263q-4 0 -5 -2t-5 2
q1 1 3 2q4 2 7 -2zM764 258v5h5zM159 247q-5 0 -6 0.5t-5 5.5l16 5q4 0 1.5 -5.5t-6.5 -5.5zM347 253v5l9 -5h-9zM423 258q0 -4 -3.5 -4.5t-6.5 -0.5h-5q0 8 5 6.5t10 -1.5z" />
    <glyph glyph-name="sterling" unicode="&#xa3;" 
d="M465 638q5 -1 9 -6l8 -10t9 -9t12 -4q4 -3 9.5 -6.5t8.5 -6.5q-7 -15 0.5 -31t15.5 -27q-4 -14 -0.5 -23t0.5 -19q-4 0 -7 -2l-6 -4t-6 -2t-6 3h-100q0 4 -2 7t-2 7l-9 -5l-5 14l9 -9q2 6 0 10.5t-5 9l-6 9t-3 9.5q-8 8 -20 13t-24 2q-3 -6 -8.5 -9t-10.5 -6t-8 -6t-1 -8
q-7 -4 -7.5 -10.5t2.5 -13.5q4 0 7 -5t-2 -9q-7 11 -15.5 7t-12.5 -12q4 -21 10 -40t13 -37l11 -9h138l4 -5l-4 -100q-4 2 -7 -0.5t-6 -4.5t-6 -2q-2 0 -6 7q-7 -1 -16.5 0t-18.5 1.5t-16.5 -1t-10.5 -9.5q-7 0 -11.5 2t-12.5 -2q-4 -7 -1.5 -16.5t7.5 -16.5q3 3 6 2t4.5 -4
t2.5 -6.5t1 -5.5q-4 0 -5.5 2t-8.5 -2q-5 -3 -5.5 -12t-0.5 -17q0 -6 -3 -12.5t-5.5 -13t-1.5 -12t10 -9.5q1 -1 2 -3q2 -4 -2 -7q-4 3 -5.5 8.5t-8.5 1.5q0 -4 -2.5 -8.5t-5 -9.5t-2.5 -10t6 -11q22 -4 43 -6.5t42 -2.5q6 0 15 9q-4 8 -9.5 7.5t-5.5 3.5q4 3 9 2l10 -2
t9 0.5t5 8.5q2 -1 3 -2q2 -2 2 2l-5 9l15 10h105q3 -23 -2.5 -44.5t-17.5 -39.5t-29.5 -33t-37.5 -25q-28 -11 -59 -14.5t-63 3.5q-24 2 -48.5 5.5t-49 5t-48.5 -1t-45 -13.5h-5q-14 25 -23 49.5t-19 50.5q5 5 11.5 6.5t12.5 2t11 2.5t7 7q4 -7 10.5 -3.5t13.5 3.5
q26 40 35 83t-1 88q-4 0 -7.5 -2.5t-8.5 -6.5q-10 4 -22.5 1.5t-19.5 7.5q-5 2 -10.5 -0.5t-10.5 -4.5t-10 -2q-4 0 -7 7v105q11 0 23.5 -1.5t23.5 6.5h6q7 8 0.5 17t-6.5 16q-7 51 2.5 98t46.5 82q23 22 54.5 33t65 13t65.5 -5t57 -21zM270 848l-5 -2q2 5 5 2zM276 764
l-1 -1l-1 1h2z" />
    <glyph glyph-name="cent" unicode="&#xa2;" horiz-adv-x="526" 
d="M464 468q4 -4 7.5 -5t3.5 -5q-5 0 -6 0.5t-5 4.5v5v0zM449 484q4 0 2 3t-2 7h-6q-4 -2 -4.5 -0.5t0 4.5l1 6t-1.5 5q2 -4 7.5 -8t10.5 -8t7 -9t-4 -11q-4 0 -5 3t-5 8zM438 117q4 -4 7.5 -3t3.5 -7zM485 452q8 0 10 -2.5t1.5 -6.5t-1.5 -8.5t1 -8.5q-10 -4 -18.5 -10
t-16 -12t-15.5 -11t-18 -7q-7 -4 -15.5 -9.5t-17.5 -9.5t-17.5 -5t-16.5 3q0 -4 4 -7.5t12 -3.5q0 -8 -5.5 -9.5t-5.5 -5.5l-5 5q-13 -2 -15.5 -8t-2 -13t-0.5 -14t-13 -11l-5 25q-8 -4 -9.5 -10.5t-5.5 -14.5l10 -5q-4 -12 -9 -18.5t-1 -18.5q-1 0 -2 -1t-2 -1.5t-1 -2.5
q0 -7 3 -4t7 -1q4 -8 1 -15t-11 -11q-12 0 -17 -8.5t-10 -16.5q9 -24 0 -47q-10 4 -13 1t-4.5 -8t-3.5 -9.5t-10 -4.5q-4 4 -1.5 7.5t5.5 7t3.5 6.5t-7.5 5q-4 -8 -7.5 -15.5t-6.5 -14.5q7 3 11 1t7.5 -5l7 -6t9.5 -1q18 -4 33.5 -1.5t29.5 8.5t26.5 15t24.5 19q11 -4 19 -4
q9 0 17 -12v-10l36 -36q4 4 2.5 5t2.5 6q0 -8 8.5 -7.5t12.5 -3.5q4 -11 -4.5 -20.5t-16.5 -20.5q-4 0 -6 5t-10 5q0 -8 -4.5 -7t-0.5 -3l5 -11q-4 -4 -7.5 -10t-7.5 -10q-4 6 -8.5 4.5t-9 -4.5t-9.5 -4.5t-9 4.5q-8 0 -13.5 -5.5t-17.5 -9.5q-4 0 -10.5 3t-10.5 -9
q-35 0 -67 0.5t-67 5.5q-20 -16 -31 -41.5t-16 -51.5q-4 -5 -9.5 -6.5t-5.5 -9.5q-36 7 -77 31q-4 9 -2 17t7 15.5t11 14.5t10 15q4 20 13 34t13 33q-24 16 -39.5 37.5t-23.5 44.5q-19 35 -26 76t-2.5 82.5t19.5 79.5t40 67q35 42 82.5 63.5t98.5 29.5q12 0 32 -1.5t35 6.5
q11 20 20.5 44t21.5 44q14 7 36 0q8 -8 15 -10t15 -6q5 4 8.5 7t7.5 -2q4 -11 0.5 -21t-8.5 -19.5t-8.5 -19.5t0.5 -22v-11l-10 6q-8 0 -9.5 -8.5t-5.5 -12.5l10 -11q-4 0 -5 -2t-5 -2q8 -6 14.5 -14t14 -15t15.5 -11t18 -2l5 -5q5 0 2 3l-2 2v0zM438 607q0 -4 3 -7.5
t8 -3.5q0 5 -3.5 8.5l-7.5 7.5v-5zM433 566v-5v5zM428 551q-4 0 -6.5 -3.5t1.5 -7.5h5q4 4 2.5 5t2.5 6q-4 0 -4.5 2t-0.5 -2zM159 303q-1 -2 -2 -5q-2 -5 2 -5q0 4 2.5 7t-2.5 3zM149 -68q4 4 7 7.5t3 11.5q-4 -4 -7 -8t-3 -11zM170 189q-2 2 -1.5 6t1 7.5t0 7t-4.5 5.5
v-20zM252 360q5 15 12.5 27.5t3.5 23.5q-8 4 -15.5 -1t-15.5 -5q-7 -5 -15.5 -11t-14.5 -12.5t-9.5 -14.5t-1.5 -18q-8 -4 -13 -7t-13 -3v-6q5 0 5 -10q-6 -6 -5.5 -14l1 -16t-2 -15t-14.5 -11q0 -8 -1.5 -21t6.5 -21q0 4 3 7l3 3q4 6 6 5t4.5 -4t6 -7t9.5 -4q20 32 31 66
t30 69zM284 215q0 4 2 7t-2 3q-5 0 -7.5 -6t1.5 -14l6 10v0zM335 344q-4 -4 -6.5 -8t1.5 -8zM350 365q5 4 5.5 7.5t0.5 7.5q-8 0 -9.5 -3t-1.5 -7q0 -5 5 -5zM480 426q4 0 4.5 0.5t0.5 5.5q0 4 -1 9.5t-9 5.5q-5 -4 -2 -10t7 -11zM170 277q0 4 5.5 6.5t10.5 -1.5
q0 -4 -3 -7.5t-3 -7.5q-4 0 -7 1t-3 9z" />
    <glyph glyph-name="section" unicode="&#xa7;" horiz-adv-x="492" 
d="M306 491q8 -4 12 -10t8 -14q-8 4 -10 10.5t-10 13.5zM306 491l-5 5zM455 171q0 -4 -2 -8.5t-3.5 -9.5t-1 -9.5t6.5 -8.5q-4 -7 -10.5 -16t-15.5 -17.5t-20 -14t-24 -5.5q0 8 6.5 15t3.5 14q-8 -7 -18 -12t-16 -12q0 -8 7.5 -6.5t11.5 1.5q-2 -7 1 -13.5t8 -13.5
t10.5 -13.5t9.5 -14.5q8 -15 17 -28t9 -31q-3 3 -5 0q-1 -2 -1 -5v-9h6q-5 -8 -7 -15.5t1 -15.5q8 0 7.5 2.5t3.5 7.5q2 -6 0.5 -11.5t-3.5 -11t-3 -11t1 -11.5l20 -4q-4 -19 -19 -29t-27 -26q-18 -19 -40 -28t-48 -17q-4 -3 -12 0t-8 -4h-25q0 1 2.5 2t4.5 2.5t3 4t-1 6.5
q-9 3 -17 3q-7 0 -14.5 -1.5t-16.5 -2.5t-20 1q-3 7 -7.5 4t-12.5 0q-4 -3 -6 -6.5t1 -8.5q-11 8 -22 8q-10 0 -17 7l9 10q-4 4 -7.5 9t-11.5 1q-5 0 -5.5 -3t-0.5 -7l-5 5l5 10q0 8 -8 10t-16 5q-8 -3 -11.5 7t-7.5 13q-11 22 -17 47t-9 48l-4 4l4 5q17 -3 38 0t40 3
t33.5 -7.5t17.5 -31.5q15 -14 35.5 -18.5t39.5 -0.5q10 8 24.5 19t14.5 27l-31 29v9q0 4 -2 2l-2 -2q-22 11 -41.5 25t-37.5 25q-3 8 -11 11t-15.5 5t-12 5.5t-1.5 12.5q0 5 -0.5 5.5t-3.5 0.5l-5 -6l-24 16q0 3 3.5 4t0.5 6q0 4 -9 4l-6 5q-2 -6 -4 -5.5t-4 2.5l-5 5t-6 3
q-11 14 -22 27.5t-19 32.5q-9 22 -14 46.5t-3.5 48.5t10 46.5t26.5 41.5q13 11 26 19.5t21 19.5q-30 30 -44 69t-7 84q4 20 15.5 39t27.5 34.5t36 26t41 13.5q25 8 53.5 4t54.5 -4q30 -6 55 -23.5t48 -40.5q8 -15 17 -26.5t9 -27.5h-5q0 -5 3 -7.5t6.5 -5t5.5 -6t0 -11.5
q4 0 7.5 -2.5t7.5 -2.5l5 5q2 -5 -0.5 -7.5t-6 -4t-7.5 -3t-6 -5.5q-5 0 -6 -0.5t-4 -4.5v-9l-5 4q0 8 2.5 9.5t2.5 6.5q-8 0 -18 1t-17 -7q-2 -2 -2.5 -0.5t-1 3.5t-1.5 3.5t-5 -0.5q0 -3 -1 -5q-1 -3 -4 -1q-5 5 -10 0t-9 -5q-6 -7 -10 -5.5t-8 5t-7.5 6.5t-9.5 -1
q-6 6 -10 15t-9 17t-12 12.5t-18 1.5q0 11 -9 15t-16 -1q-4 -4 -7 -3.5t-5 2t-4 2.5t-4 -1q0 -5 2 -12t2.5 -14t-2.5 -12t-12 -7h-4v16h4q-1 0 -1 3v6t-1.5 5.5t-6.5 0.5q0 -8 -4 -9.5t-12 -5.5q4 -2 4 -4t-1 -4.5t-1 -5.5t3 -6q12 -30 37 -45.5t51 -34.5q25 -15 50.5 -31.5
t48 -36.5t41.5 -43.5t30 -51.5q0 -4 3 -10.5t-8 -13.5q0 -15 -0.5 -32.5t-4.5 -31.5zM301 -205q2 0 4 2q1 1 1 2q-5 0 -5 -4zM183 324q0 6 -5 4q-3 -1 -6 -4v-5q4 0 5 2.5t6 2.5zM336 -201q0 8 -8 6t-12 -6h20zM336 181q3 11 1.5 22t-1.5 21q-30 30 -63.5 55.5t-69.5 39.5
q-6 -2 -5 -4.5t2.5 -6t2 -7t-5.5 -6.5q-5 2 -8 -1t-5.5 -7t-5 -7t-6.5 -1q8 12 1 20.5t-11 19.5q-11 -8 -10.5 -14.5t-3.5 -14.5q3 -4 2 -8.5l-2 -9t0.5 -8t8.5 -5.5q0 -4 -2 -8t-2 -11q23 -30 56.5 -49t66.5 -45q15 -5 32 7t28 28zM361 -181q-10 0 -10 -10q0 -4 3 -2t7 2
q3 0 2 5t2 5q6 -2 11.5 0.5t10.5 7t9.5 9.5t7.5 8q12 5 17 16t8 19q-3 4 -4 4.5t-5 0.5q-12 -19 -26 -34.5t-29 -30.5h-4zM415 111q4 8 9 12.5t5 11.5q-11 0 -16 -10t-9 -14h11v0z" />
    <glyph glyph-name="quoteleft" unicode="&#x2018;" 
d="M366 644l11 -16q-6 2 -10 2t-7.5 -1t-3.5 -6q0 -6 -3 -11t-5.5 -9.5t-3 -8.5t5.5 -8l16 11l-16 -26q-4 4 -12.5 3t-8.5 -9q-4 -4 -1.5 -7.5t7.5 -7.5q2 4 5.5 3t7.5 -2t7.5 0t5.5 9q12 -8 12.5 -16t8.5 -16q-4 -4 -4.5 -11t-0.5 -15q6 -2 7.5 -8.5t1.5 -14.5t-0.5 -17.5
t1.5 -17.5q-4 5 -10 2t-6 -7t3 -7.5t3 -8.5l-11 -5l5 -10l-21 -6q0 5 3 6t3 5l-6 5q-23 0 -47 0.5t-47 4.5q-4 10 -4 21q0 12 1 24.5t1.5 25t-3.5 24.5q8 12 7 24t3 23q8 32 21 59.5t37 51.5q12 0 27.5 -8t19.5 -24z" />
    <glyph glyph-name="asciitilde" unicode="~" 
d="M220 388q4 8 14 6t18 -6q6 -4 14 -4.5t16.5 -1t16.5 -2.5t14 -8q29 -17 57.5 -27.5t56.5 -27.5q4 4 7.5 2t7.5 -5.5t8.5 -6t10.5 -0.5q36 0 68 14.5t56 39.5q9 0 13.5 -3t9.5 -3q-5 -25 -3 -58t-3 -62q5 -4 6 -7t4 -3q-1 -12 -8.5 -20t-17.5 -13t-21.5 -9t-22.5 -8
q-5 -5 -2 -8t7 -3q13 0 21.5 6t16.5 11q-6 -4 -13 -10t-14.5 -10t-15.5 -5t-16 3l5 10q-4 5 -10 4.5t-12.5 -2t-13.5 -3t-13 0.5q-24 0 -47 5.5t-44.5 13t-42 16.5t-40.5 15q-13 8 -28 12.5t-28 8.5q-16 5 -32 9t-33 -9q-8 5 -16 0t-16 -5q0 -8 -3.5 -12t-8 -6.5t-9 -5.5
t-6.5 -9q-9 4 -13 2t-6.5 -6.5t-5 -9.5t-8.5 -7q-5 16 -3 38.5t-3 43.5q6 6 5.5 14t-2.5 16t-2.5 15.5t5.5 13.5q2 8 -0.5 14.5t-3.5 11.5t1.5 9.5t12.5 8.5q13 0 16.5 6t11.5 6q0 -5 5.5 -5.5t10.5 -0.5q-2 8 1 10t8 2.5t10.5 1.5t7.5 7q8 -11 20 -8t24 3zM313 198
q-8 3 -15.5 5t-12.5 10q4 2 7.5 0.5t6.5 -4.5t6.5 -6t7.5 -5zM362 169l-22 17l11 -5zM482 148h-11h11z" />
    <glyph glyph-name="tilde" unicode="&#x2dc;" 
d="M176 627q28 6 54.5 0.5t51 -12t48.5 -8t48 13.5l35 6q7 -9 15 -16.5t14.5 -15t10 -15.5t1.5 -17q-6 -24 -26 -35.5t-46 -14.5t-55 1.5t-53 13.5q-13 5 -29.5 8.5t-33.5 4.5t-32 -3t-26 -15q-9 0 -14 5.5t-8.5 11.5t-7.5 10t-11 2q-11 6 -14 12.5t-1.5 13t6.5 13t9 12.5
q9 -2 15.5 3t13.5 11t13.5 10t15.5 0h6z" />
    <glyph glyph-name="paragraph" unicode="&#xb6;" horiz-adv-x="496" 
d="M333 660q9 2 19 1.5t20 -0.5q11 0 21.5 2t19.5 8q4 0 8.5 -2.5t9.5 -4.5t9.5 -2.5t8.5 3.5l5 -50q-6 -4 -12 -4h-12t-10.5 -2t-6.5 -10q0 -15 -1.5 -32t6.5 -33l-5 -10v-268q4 -8 7.5 -4t8.5 4q4 -4 2.5 -8t2.5 -8q-4 -2 -9.5 -3.5t-9 -3.5t-5 -6t2.5 -12q0 -5 10 -5v-10
q-4 0 -7 1.5t-3 -6.5q-4 -10 -0.5 -11.5t7.5 -1.5q5 0 7 -1.5t-4 -11.5l-2 2q-3 3 -3 -2q-16 -24 0 -50q4 4 8 1.5t8 -6.5q0 -10 -11 -10q-4 0 -7.5 -3t-7.5 -7q4 -23 2.5 -49t2.5 -53q4 0 5 2.5t5 2.5q0 4 0.5 7t5.5 3q4 -4 2.5 -7t-4 -5.5t-4.5 -5.5t0 -7q-4 0 -5 4.5
t-5 0.5q2 -9 0.5 -18t-3 -17.5l-3 -17t0.5 -17.5q2 -6 5 -6q4 0 7.5 0.5t6 -1t2.5 -8.5q-6 2 -9 -0.5t-4.5 -6.5t-2 -8t-0.5 -6v-76l-5 -5h-55l-5 804l-10 11l-51 -6l-5 -10v-166q0 -2 1 -4l2 -4t2 -3q4 0 9 -1t1 -9v-5q-4 0 -9.5 -1t-5.5 -9t-3 -20.5t8 -19.5q8 2 10.5 0.5
t3 -4.5t0 -6t1.5 -5q-2 -4 -1.5 -9t0.5 -9t-1.5 -6.5t-7.5 -0.5q-11 -12 -12.5 -29t2.5 -32q4 -4 7.5 -2.5t7.5 -2.5v-11q-4 4 -9.5 1t-5.5 -11q0 -23 -2 -43t2 -42l-5 -10q4 -38 3.5 -73t-1 -69t-1 -67.5t3.5 -69.5q2 -1 3 -3q2 -4 2 -7h10q6 -10 3 -15t-8 -8.5t-9.5 -8.5
t-0.5 -14q-11 4 -28.5 2t-32.5 -2q0 126 0.5 245t4.5 241q-11 11 -28 11t-33 4q-18 8 -39.5 17t-40.5 24q-2 4 -6 7.5t-8 7.5t-6 9t0 11q-12 15 -16.5 32.5t-5.5 36.5t0 39t1 39q8 42 32.5 74.5t59.5 51.5q1 2 2 3q2 2 -2 2q7 -4 11.5 -4.5t12.5 -0.5q2 2 2.5 5.5t1.5 6.5
t3 4t8 -1q0 -1 -1 -2t-1.5 -2t-2.5 -1q2 -6 5 -6.5t6 1t5.5 3.5t4.5 2q11 4 24.5 3.5l27 -1t25.5 1.5t19 12q6 -4 12 -4h13t11.5 -2t9.5 -10zM297 574v-9q-4 -4 -5 1t-5 8q0 4 2.5 2.5t2.5 2.5q4 0 6.5 -2.5t-1.5 -2.5zM287 342v10q1 -1 2 -3q2 -3 -2 -7zM297 291q-1 0 -3 1
q-4 2 -7 4l10 16q4 -5 2 -11t-2 -10zM297 184v16q4 -4 2 -8t-2 -8zM297 149v-9v9zM297 -13q-4 0 -5 2.5t-5 2.5q0 5 10 5v-10z" />
    <glyph glyph-name="bullet" unicode="&#x2022;" horiz-adv-x="393" 
d="M250 408q34 -21 55 -52t17 -65q0 -3 1.5 -3.5t2.5 -1t2 -2.5t-1 -7q-5 0 -6.5 -2.5t-2 -7t-1.5 -10t-4 -11.5q-3 -7 -8 -17t-5 -19q-7 3 -11.5 -1t-7.5 -7q7 -10 0 -10q-3 -2 -7 -2.5t-8 -1.5t-7 -4t-5 -10q-15 -2 -32 -4t-34 -1.5t-34 4.5t-31 14q-9 7 -17.5 19.5
t-22.5 15.5q-1 3 0 5.5t2.5 5t1.5 4.5q0 3 -4 4q-10 2 -10.5 5.5t1.5 7.5l4 8t-3 7q-5 23 -1 45t14 39q4 8 1.5 11.5t-6.5 3.5q2 6 6 7.5t8 1.5t7 1t3 7q15 9 31.5 16.5t33.5 12t34.5 3.5t34.5 -9h9zM254 412q-1 0 -2 1q-2 2 -2 5q3 0 4 -3q1 -2 0 -3zM309 376v-4l-9 13
l3 -3zM322 349q-3 0 -7.5 0.5t-1.5 3.5q4 0 5 -0.5t4 -3.5zM111 183q-3 0 -8 0.5t-1 3.5q4 4 5 0t4 -4zM119 183q0 -5 -4 -5l-4 5h8z" />
    <glyph glyph-name="ordfeminine" unicode="&#xaa;" 
d="M455 656q-7 -68 -4 -141t-1 -141h-80q-3 0 -2 4.5t-2 4.5q-11 4 -21.5 -3t-20.5 -11q-29 -11 -53 0t-42 28q-16 18 -24 39.5t-11 44.5t-0.5 47.5t7.5 47.5q-10 11 -4.5 18.5t9.5 14.5q14 11 24 25.5t27 21.5q25 14 56 8.5t53 -22.5q3 0 2 5t2 9q21 0 42.5 1.5t42.5 -1.5z
M333 581h4q0 5 -4 5v-5zM333 440q18 14 27 33.5t6 40.5q-5 6 -5.5 13t0 14t-0.5 13.5t-8 11.5q-7 -1 -11.5 3t-8.5 9t-9 8t-14 0q-10 -8 -19 -18t-9 -21q-2 -3 -1 -6.5l2 -7t0 -7t-6 -6.5q-3 -14 1 -32.5t19 -29.5q3 -2 6.5 -1t7 2.5t7 2t7.5 -3.5q0 -5 -2.5 -6.5t-5.5 -1.5
t-6 0.5t-5 -1.5l4 -9q7 -4 13.5 -2t10.5 2zM300 505q4 0 6.5 -5.5t2.5 -13.5q0 -3 -2.5 -1.5t-6.5 1.5q4 5 0.5 10.5t-0.5 8.5zM229 379q2 0 4 -2q1 -1 1 -3v-5q-2 1 -4 3q-4 4 -1 7z" />
    <glyph glyph-name="degree" unicode="&#xb0;" 
d="M404 654l-5 4h5v-4zM451 517q-2 -8 -2 -16v-16q0 -7 -1.5 -14t-6.5 -14q-4 -3 -2.5 -9.5t-2.5 -13.5q-28 -35 -69 -53.5t-89 -7.5q-16 3 -31.5 12.5t-28 23t-22 29.5t-12.5 34q-7 31 -2.5 61.5t11.5 59.5q0 4 3 5t7 4v5q24 35 60.5 51.5t78.5 9.5q53 -16 81 -57q7 0 15 1
t8 -10h-10q4 -21 9.5 -40t5.5 -45zM357 472q11 12 12 25t-2 26t-8 26t-7 25q-3 4 -8.5 1t-5.5 4q-1 5 -5 7.5t-9 3l-10 1t-8 2.5q-11 -8 -22 -17.5t-11 -20.5q5 -5 3.5 -8t-4.5 -5.5t-5 -4.5t1 -5q4 -9 2.5 -16.5l-3 -15t0 -14.5t10.5 -14q3 0 4 -7.5t5 -7.5q3 0 3.5 -1.5
t0.5 1.5q9 -14 24 -14q14 0 24.5 9t17.5 20zM423 639q0 -3 -5 2t-5 8l10 -10v0z" />
    <glyph glyph-name="endash" unicode="&#x2013;" horiz-adv-x="599" 
d="M242 304q0 -11 11 -11h270q8 4 11 10t11 6q0 -4 2.5 -5t2.5 -6q4 5 5 2t5 -7q-10 -9 -12.5 -20t-2.5 -22t1 -23t-1 -24l10 -10l-10 -10h-496q-4 4 -4 10t4 10q0 9 1.5 24t-6.5 23q-2 6 0 10.5t4.5 9t3.5 10t-3 12.5q14 4 27.5 2.5l27 -3t26 0t23.5 11.5v5q0 -4 3.5 -8
t7.5 -8q8 0 15 1.5t11 9.5t9.5 7.5t11.5 -3t11.5 -4t9.5 4.5q4 4 7 1.5t3 -6.5z" />
    <glyph glyph-name="guillemotright" unicode="&#xbb;" horiz-adv-x="490" 
d="M82 1h-32q10 45 27.5 90.5t31.5 86.5q11 21 16 46t-12 45q-17 45 -33 92t-30 96q3 0 8.5 -2t9.5 6v9q7 0 10.5 -5t3.5 -8q10 -2 20 -1t20 1.5t19.5 0t18.5 -6.5q7 -21 13.5 -44t12.5 -47q11 0 17.5 -5.5t9.5 -12.5q0 -3 -1 -8t-8 -5q7 -29 18 -54.5t15 -59.5q3 -7 -1 -14
t-4 -18q-7 -10 -15 -19t-8 -22q0 -7 -1 -13t-8 -10q5 -12 1.5 -19.5t-9.5 -14t-11 -13t-3 -16.5q-7 -11 -10.5 -26t-3.5 -25q-5 -5 -13.5 -4.5t-17.5 1t-15.5 -2t-8.5 -12.5q-20 -6 -27 14zM336 -13q0 7 -2.5 8.5t-6.5 5.5h-82q14 34 30 70.5t26 70.5q-2 9 0.5 16t7 13t9 11
t5.5 11q8 19 6 35t-8 31t-14 30t-11 30q-11 34 -22.5 67.5t-28.5 64.5q32 5 61 5.5t54 0.5q10 -11 12.5 -24t9.5 -23q3 -26 13.5 -48.5t13.5 -46.5q22 -13 28 -33q0 -3 -3 0.5t-10 -0.5q-5 -6 2.5 -12.5t10.5 -13.5h5v9q5 -8 4 -16t-3.5 -16t-4.5 -17t-1 -19
q-14 -17 -19.5 -34.5t-12.5 -34.5q0 -13 -5.5 -23.5t1.5 -21.5q-7 -14 -10 -26.5t-14 -19.5q-10 -14 -14 -26.5t-18 -23.5h-9z" />
    <glyph glyph-name="onequarter" unicode="&#xbc;" horiz-adv-x="640" 
d="M594 115q1 7 -1.5 9t-6.5 2q-3 0 -7.5 -1t-7.5 0q-6 6 -7 13.5t-1 15.5q2 8 3 13.5t-1 15.5q-4 4 -3 7.5t2.5 7t2 7t-3.5 7.5q0 23 1 49t1 50q-4 5 0 14t-2 14h-60l-10 -10q-34 -51 -69 -100.5t-70 -100.5l3 -57h15q6 -6 13.5 -7t13.5 1v3q4 0 10 1.5t10 -4.5q4 0 9 -1.5
t10 4.5q2 0 5 1t5 -4q2 2 6 0.5t4 2.5h39q6 -14 6 -32v-33l2 -5q5 -2 8 -1t3 3h44q0 14 3.5 25t-0.5 22q2 2 5 4t3 6q-3 3 -8 3q0 6 3 7.5t7 1.5q5 0 9.5 -1t8.5 0v8q5 8 4 18.5t-1 20.5zM500 232q1 -1 1 -3q0 -3 -1 -4l-7 -5q-3 2 0 6t7 6zM500 130l-57 -2q-2 2 -5.5 3
t-5.5 -1h-2q-2 2 0.5 5.5t4.5 5.5q5 -3 7.5 -0.5t4 6t4 6t7.5 -0.5q6 8 12 17t4 19q-2 -2 -4 -6.5t-6 -9.5q-2 -2 -4.5 -5t-6.5 -3q4 8 8 14.5t8 12.5q4 3 5 2l3 -2l20 26q5 2 4.5 -3.5t1.5 -9.5zM563 60l2 -3h-2v3zM597 113q1 7 -1.5 9t-6.5 2q-3 0 -7.5 -1t-7.5 0
q-6 6 -7 13.5t-1 15.5q2 8 3 13.5t-1 15.5q-4 4 -3 7.5t2.5 7t2 7t-3.5 7.5q0 23 1 49t1 50q-4 5 0 14t-2 14h-60l-10 -10q-34 -51 -69 -100.5t-70 -100.5l3 -57h15q6 -6 13.5 -7t13.5 1v3q4 0 10 1.5t10 -4.5q4 0 9 -1.5t10 4.5q2 0 5 1t5 -4q2 2 6 0.5t4 2.5h39
q6 -14 6 -32v-33l2 -5q5 -2 8 -1t3 3h44q0 14 3.5 25t-0.5 22q2 2 5 4t3 6q-3 3 -8 3q0 6 3 7.5t7 1.5q5 0 9.5 -1t8.5 0v8q5 8 4 18.5t-1 20.5zM503 230q1 -1 1 -3q0 -3 -1 -4l-7 -5q-3 2 0 6t7 6zM503 128l-57 -2q-2 2 -5.5 3t-5.5 -1h-2q-2 2 0.5 5.5t4.5 5.5
q5 -3 7.5 -0.5t4 6t4 6t7.5 -0.5q6 8 12 17t4 19q-2 -2 -4 -6.5t-6 -9.5q-2 -2 -4.5 -5t-6.5 -3q4 8 8 14.5t8 12.5q4 3 5 2l3 -2l20 26q5 2 4.5 -3.5t1.5 -9.5zM566 58l2 -3h-2v3zM162 667q0 -5 5 -5l-5 -6v-56q2 -2 4 -3t4 1v-11q-5 0 -8 -2q2 -4 1 -9t-1.5 -9.5t1 -8
t7.5 -5.5q2 -4 0.5 -5t-3.5 -1.5l-4 -1t-1 -3.5q0 -6 -0.5 -11t3.5 -10h5v-19q-2 0 -4 1t-4 -4q0 -5 -0.5 -14t3.5 -15l5 3v-8q-8 -5 -8 -8q0 -4 -0.5 -7.5t3.5 -5.5h5q2 -3 -0.5 -4.5t-4.5 -3t-2 -3.5q0 -1 7 -2q0 -2 -1 -5.5t1 -5.5q-2 0 -4 1t-4 -3v-77q2 -2 6 -2t2 -6
q-1 -3 -4 -3.5t-6.5 -1t-6 -2.5t-2.5 -7q0 -4 2.5 -7.5t0.5 -8.5q0 7 -5 12.5t2 11.5v2q0 2 -2 4q-4 2 -7.5 0.5l-7 -3t-6.5 -1.5t-6 4h-21v267q-4 5 -8 4.5t-8 4.5q-2 -5 -8 -5t-10 2q-5 4 -10 3t-11 -3q-5 0 -7.5 2.5t-6.5 0.5v2l35 56h95zM165 669q0 -5 5 -5l-5 -6v-56
q2 -2 4 -3t4 1v-11q-5 0 -8 -2q2 -4 1 -9t-1.5 -9.5t1 -8t7.5 -5.5q2 -4 0.5 -5t-3.5 -1.5l-4 -1t-1 -3.5q0 -6 -0.5 -11t3.5 -10h5v-19q-2 0 -4 1t-4 -4q0 -5 -0.5 -14t3.5 -15l5 3v-8q-8 -5 -8 -8q0 -4 -0.5 -7.5t3.5 -5.5h5q2 -3 -0.5 -4.5t-4.5 -3t-2 -3.5q0 -1 7 -2
q0 -2 -1 -5.5t1 -5.5q-2 0 -4 1t-4 -3v-77q2 -2 6 -2t2 -6q-1 -3 -4 -3.5t-6.5 -1t-6 -2.5t-2.5 -7q0 -4 2.5 -7.5t0.5 -8.5q0 7 -5 12.5t2 11.5v2q0 2 -2 4q-4 2 -7.5 0.5l-7 -3t-6.5 -1.5t-6 4h-21v267q-4 5 -8 4.5t-8 4.5q-2 -5 -8 -5t-10 2q-5 4 -10 3t-11 -3
q-5 0 -7.5 2.5t-6.5 0.5v2l35 56h95zM468 693h17q-4 -19 -11 -35.5t-9 -31.5q2 -7 7 -9t-4 -9q-8 3 -11.5 1t-5 -7t-2 -11.5t-2.5 -11.5q-16 -42 -33.5 -85.5t-34.5 -88.5q0 -8 4 -8h8q3 -4 1 -7.5t-5 -5.5q-1 -2 -2 -1l-2.5 2.5t-3 2t-4.5 -1.5q-14 -18 -19.5 -38
t-15.5 -40q-6 -20 -14.5 -39.5t-14.5 -41.5q2 -3 5 -3.5t6 -1.5t3.5 -3.5t-2.5 -8.5h-4q0 3 -2.5 6t-5.5 3q-26 -49 -41.5 -99t-38.5 -102q-9 -6 -23.5 -3.5t-27.5 0.5q-4 -4 -8.5 -1.5t-9.5 4.5q-2 3 -2 10q0 8 -6 8q-3 3 -2 4t2 0h5v-4q10 6 12.5 15t8.5 19q0 9 5 15.5
t0 14.5q9 9 13.5 21t10.5 25q-9 9 -4 18.5t8 20.5l6 -4l3 7q-7 0 -7.5 5t4.5 8q5 7 12 14t7 17q-4 5 -2 8t6 6.5t8 7.5t2 10q-12 9 -21 9q0 3 1 10t6 7q4 0 7.5 -2.5t6.5 -4t6.5 -0.5t6.5 7q4 20 11 36.5t11 35.5q9 13 14.5 28t9.5 32q16 38 30 78.5t28 78.5q-9 4 -9.5 8
t6.5 14q2 -7 8 -3l9 6q3 20 11 37t10 37q-5 0 -5.5 2t0.5 4.5t3 5t2 3.5q6 6 13.5 6.5t15 -1t15.5 -2.5t17 2zM303 435h-4q0 2 2.5 3t4.5 5q4 -4 1.5 -6t-4.5 -2zM357 311v-7v7zM231 252q0 -6 -5 -7.5t-7 -5.5q-5 4 -2 9t5 8q3 0 4 -0.5t5 -3.5zM168 116h-6l6 9v-9zM154 -11
q4 0 6.5 1t7.5 -1q0 -3 -3 -4q-2 -1 -3 0q-3 3 -7.5 2.5l-9 -1t-9 0t-7.5 5.5l17 18q0 -5 2 -12t6 -9zM462 687h17q-4 -19 -11 -35.5t-9 -31.5q2 -7 7 -9t-4 -9q-8 3 -11.5 1t-5 -7t-2 -11.5t-2.5 -11.5q-16 -42 -33.5 -85.5t-34.5 -88.5q0 -8 4 -8h8q3 -4 1 -7.5t-5 -5.5
q-1 -2 -2 -1l-2.5 2.5t-3 2t-4.5 -1.5q-14 -18 -19.5 -38t-15.5 -40q-6 -20 -14.5 -39.5t-14.5 -41.5q2 -3 5 -3.5t6 -1.5t3.5 -3.5t-2.5 -8.5h-4q0 3 -2.5 6t-5.5 3q-26 -49 -41.5 -99t-38.5 -102q-9 -6 -23.5 -3.5t-27.5 0.5q-4 -4 -8.5 -1.5t-9.5 4.5q-2 3 -2 10
q0 8 -6 8q-3 3 -2 4t2 0h5v-4q10 6 12.5 15t8.5 19q0 9 5 15.5t0 14.5q9 9 13.5 21t10.5 25q-9 9 -4 18.5t8 20.5l6 -4l3 7q-7 0 -7.5 5t4.5 8q5 7 12 14t7 17q-4 5 -2 8t6 6.5t8 7.5t2 10q-12 9 -21 9q0 3 1 10t6 7q4 0 7.5 -2.5t6.5 -4t6.5 -0.5t6.5 7q4 20 11 36.5
t11 35.5q9 13 14.5 28t9.5 32q16 38 30 78.5t28 78.5q-9 4 -9.5 8t6.5 14q2 -7 8 -3l9 6q3 20 11 37t10 37q-5 0 -5.5 2t0.5 4.5t3 5t2 3.5q6 6 13.5 6.5t15 -1t15.5 -2.5t17 2z" />
    <glyph glyph-name="guillemotleft" unicode="&#xab;" 
d="M494 456h32q-10 -45 -27.5 -90.5t-31.5 -86.5q-11 -21 -16 -46t12 -45q17 -45 33 -92t30 -96q-3 0 -8.5 2t-9.5 -6v-9q-7 0 -10.5 5t-3.5 8q-10 2 -20 1t-20 -1.5t-19.5 0t-18.5 6.5q-7 21 -13.5 44t-12.5 47q-11 0 -17.5 5.5t-9.5 12.5q0 3 1 8t8 5q-7 29 -18 54.5
t-15 59.5q-3 7 1 14t4 18q7 10 15 19t8 22q0 7 1 13t8 10q-5 12 -1.5 19.5t9.5 14t11 13t3 16.5q7 11 10.5 26t3.5 25q5 5 13.5 4.5t17.5 -1t16 2t8 12.5q20 6 27 -14zM240 470q0 -7 2.5 -8.5t6.5 -5.5h82q-14 -34 -30 -70.5t-26 -70.5q2 -9 -0.5 -15.5t-7 -12.5t-8.5 -11.5
t-6 -11.5q-8 -19 -6 -35t8 -31t14 -30t11 -30q11 -34 22.5 -67.5t28.5 -64.5q-32 -5 -61 -5.5t-54 -0.5q-10 11 -12.5 24t-9.5 23q-3 26 -13.5 48.5t-13.5 46.5q-22 13 -28 33q0 3 3 -0.5t10 0.5q5 6 -2.5 12.5t-10.5 13.5h-5v-9q-5 8 -4 16t3.5 16t5 17t0.5 19
q14 17 19.5 34.5t12.5 34.5q0 13 5.5 23.5t-1.5 21.5q7 14 10 26.5t14 19.5q10 14 14 26.5t18 23.5h9z" />
    <glyph glyph-name="at" unicode="@" horiz-adv-x="1024" 
d="M483 768q0 -5 -5 -5q-4 0 -9 5l-6 7q2 2 6.5 3t8.5 0.5t6 -3t-1 -7.5zM157 644q0 -5 -0.5 -8t-5.5 1q0 3 1 6q2 5 5 1zM809 672q-5 0 -9 4t-4 9q5 0 6.5 -3t6.5 -3v-7v0zM443 637q0 2 1 3q2 2 5 -3h-6v0zM239 544q0 5 7.5 6t13.5 1q-2 -1 -5 -3q-6 -4 -10 -4h-6zM972 399
q5 -14 10 -31.5t-10 -34.5l-15 15q-5 -21 -7 -43.5t-5 -44t-9 -41.5t-19 -35q0 -8 -3.5 -12.5t-7 -8t-7 -6.5t-3.5 -9q-51 -69 -126.5 -111t-156.5 -42q-16 5 -30 14t-24 19q0 5 2.5 10t-2.5 10q-42 -30 -94.5 -43t-103.5 3q-7 5 -17 7t-19.5 5.5t-18 9.5t-13.5 18
q-10 16 -23.5 23.5t-24.5 17.5q0 1 1 4q2 6 6 10q-12 20 -18.5 44.5t-8 50.5t2.5 52.5t11 49.5q0 5 -1 10t-6 10q-5 -5 -9 -3.5t-4 -3.5q0 5 0.5 10t5.5 10q5 -10 12.5 -4t7.5 11q3 15 9 27t13.5 22.5t16.5 21.5t16 24q23 28 52.5 46t63 27t68.5 9t68 -8q25 -10 46 -27.5
t41 -33.5q5 5 5.5 10.5t0.5 10.5l-20 14q18 12 36 16t35.5 3t35.5 -3.5t36 -2.5q-3 -39 -9.5 -77t-14 -76t-14.5 -76t-10 -76l-13 -95q11 -7 20 -5t18 8t17.5 12t18.5 6q8 3 11 9t5 11.5t5.5 8t13.5 -1.5q15 14 22 30.5t12 36.5q-3 2 -7.5 2.5t-8 2t-5.5 5t0 11.5l21 13
q0 -3 4 -5q2 -1 3 -1q9 5 8 16.5t-1 16.5t-5 9t-16 -2q5 6 3.5 14.5t3.5 13.5q11 -5 13 1.5t6 11.5q0 15 0.5 33.5t-2 36.5t-9.5 35t-22 30q0 -5 -1 -7t-6 -7h-6q10 11 5 25.5t-5 29.5q-3 3 -5.5 1t-6.5 -4.5t-9 -4t-13 0.5q-6 11 -11 17.5t-10 17.5q5 5 13 10.5t8 16.5
q-11 10 -21 18t-20 8q0 -5 2.5 -13t-2.5 -13q-10 0 -17.5 4.5t-13 10.5t-11 13t-13.5 13q5 10 -2 20t-18 20q-5 4 -14 4.5t-14 0.5v-5q-5 14 -20 17.5t-26 8.5q-51 10 -101 7.5t-96.5 -16t-88 -38.5t-74.5 -60q-11 0 -17 -7.5t-17 -12.5l14 -22q-21 5 -32 -6.5t-16 -26.5
q0 -5 2 -9.5t3 -8t0.5 -8t-5.5 -9.5q-5 0 -16 -1.5t-11 -11.5q-9 -26 -16.5 -54t-2.5 -54q-10 -15 -11.5 -30.5t1 -31.5t6.5 -32.5t4 -34.5q5 -27 10 -49.5t29 -38.5q0 -20 9 -40t26 -35q8 -5 13 -12l10 -14t10.5 -13t12.5 -9q0 -5 4.5 -9t10.5 -4q10 5 20 -2.5t20 -17.5
q3 -11 12 -15.5t21 -8t24 -7.5t20 -12q7 -4 17.5 -8t21.5 -6.5t22 -2t18 5.5q8 -5 16.5 -4t16.5 2t15.5 -0.5t12.5 -10.5q16 7 35 7t38 1t35.5 8t26.5 30q8 5 18 5q11 0 22 1t20.5 4.5t15.5 16.5q0 5 -4 10t-4 10q8 3 17.5 2.5t18.5 0.5t16 4.5t9 14.5q13 -3 25 -1.5
t22.5 2.5t20.5 0t20 -9q5 0 11 -1t16 -6q-27 -33 -60 -62.5t-69 -52.5t-75 -39t-79 -22q-15 -8 -33.5 -10t-38.5 -2q-19 0 -37.5 0.5t-34.5 -1.5q-61 7 -120.5 29.5t-112 58t-96 83.5t-71.5 107q-12 32 -21.5 68t-14 73.5t-2.5 74t12 70.5q0 39 12.5 75.5t28.5 72.5
q-5 5 -14 3t-14 3q18 -2 30.5 6.5t22.5 22t20 29t22 25.5q51 56 115.5 92.5t135.5 53t145.5 12.5t145.5 -30l20 -13l22 -8q46 -25 86.5 -61t70.5 -79t47.5 -91.5t17.5 -99.5q8 3 8.5 8t-0.5 10t-1 9t8 4zM524 148q21 22 41 43.5t20 47.5q-5 20 -5.5 44t-0.5 44q-5 0 -10 4
t-10 9q-6 15 -15.5 20t-22 5.5t-26 1.5t-26.5 8q-5 -5 -10 -8.5t-10 1.5q-36 -31 -54 -67.5t-18 -83.5q8 -30 28 -53t51 -33q10 -5 19 -4.5t17.5 4t16.5 8.5t15 9z" />
    <glyph glyph-name="bracketleft" unicode="[" horiz-adv-x="356" 
d="M283 781q5 -8 6.5 -15t9.5 -12h5v-4q-4 0 -8 1.5t-7 -1.5q0 -9 1 -13t9 -9q-4 -8 -4 -17v-17q0 -8 -2 -16t-10 -14q-10 -1 -20 0t-18.5 1.5t-16 -1.5t-13.5 -10t-3 -15t6.5 -14t4.5 -14t-8 -15q0 -8 -1.5 -18.5t-1.5 -20.5t2.5 -18t10.5 -12q-5 -4 -0.5 -11.5t0.5 -15.5
h-10q-2 -4 -0.5 -8.5t3.5 -9.5t2.5 -10t-5.5 -9v-94v-6q3 5 4 5.5t6 0.5q4 -4 3 -8.5t-3 -9t-3 -9t3 -10.5q-8 -6 -10.5 -14t-2.5 -17q0 -8 1.5 -16.5t1.5 -16.5q0 -4 3.5 -7.5l6.5 -6.5t2.5 -6t-8.5 -7q0 -6 2.5 -12t4.5 -12t2.5 -12t-3.5 -12q-5 0 -7.5 2.5t-2.5 -2.5v-11
h10q0 -8 -3.5 -13t-6.5 -13q-4 -20 -0.5 -42t0.5 -42l4 -11q-1 0 -3 -3q-1 -2 -1 -3q-4 -2 0 -6l4 -4q5 -16 4 -28.5t7 -24.5h59q2 -4 0.5 -9t-2.5 -10t-0.5 -9.5t6.5 -8.5h11q0 -28 -5 -52.5t0 -52.5q0 -12 -7 -13.5t-19 2.5q-8 4 -8 8t3.5 8t8 8t6.5 8q-25 4 -50 4.5
t-50 0l-50 -1t-51 1.5v905h201zM162 -150q-8 0 -16.5 -6t-16.5 -10q-3 0 -6.5 0.5t-3.5 4.5q-5 4 -1.5 10t11.5 11q4 -2 9 -2h9q5 0 9 -1t6 -7zM225 -146v-4q-8 3 -19 4t-23 6q12 4 21 -1t21 -5z" />
    <glyph glyph-name="bracketright" unicode="]" horiz-adv-x="390" 
d="M237 779q6 -2 14 -1t15 1q8 0 13 -3t5 -13q-2 -8 0 -12.5t4.5 -8.5t4 -8.5t-2.5 -12.5q0 -4 -2.5 -7t-4.5 -6t-2.5 -6.5t3.5 -7.5q5 -8 7.5 -16t-1.5 -16q-8 -6 -10 -13.5t-1 -16t3 -17t2 -16.5q5 0 5 -3t-5 -7l-5 -5q0 -25 -1.5 -42.5t6.5 -37.5q5 -16 5.5 -34t0.5 -35
l-11 -11l5 -242q8 -5 4 -8.5t-4 -8.5q-4 -16 -5 -31t11 -26q4 -6 1.5 -10t-5.5 -7.5t-3.5 -7t7.5 -7.5q0 -8 -1.5 -16t-9.5 -16l5 -153q0 -8 3 -10t3 -6q-16 4 -31.5 0t-32.5 0h-153q-2 10 -0.5 20.5t2 21t-2.5 20.5t-15 18q-4 0 -7.5 -2.5t-3.5 2.5v5q5 -4 12 1t15 9v21
q10 0 20.5 -1t20.5 -1q11 0 20.5 2.5t17.5 10.5v217q-4 4 -7.5 6.5t-7.5 -1.5q-5 4 -2 7.5t7 8.5q-4 6 -4 12v13t-2 12t-10 10q0 8 3 9.5t8 6.5q4 0 7.5 2.5t7.5 2.5q0 32 -0.5 63t-4.5 58q-4 0 -10.5 -1t-10.5 7q8 4 10 10.5t3 13.5t3 13.5t10 10.5q0 4 -0.5 7.5t-4.5 8.5
q-4 -5 -7 -8.5t-3 -7.5q-6 4 -6.5 8t1.5 7.5t5 7.5t5 8l10 11l-5 74q0 4 -5 5t-5 6q4 4 7.5 3t7.5 7q0 6 0.5 15t-1.5 16.5t-7.5 11t-17.5 -0.5h-53q0 8 -0.5 15t-5.5 11q-8 5 -12 0t-9 -5q-4 4 -4 10q0 7 4 12q0 -5 1.5 -10.5t9.5 -0.5q2 4 5.5 6.5t6.5 5t4.5 6t-0.5 9.5
q-5 4 -6 2t-5 -2q0 -8 -5.5 -7t-10.5 -4q-4 5 -7 11t-3 10q4 8 8.5 14t12.5 2h5q4 12 1.5 20.5t-6.5 16.5q-8 0 -12 -3.5t-4 8.5q8 -4 20.5 -3t16.5 -7q29 0 59 -1.5t57 6.5q12 4 23.5 3.5t19.5 -8.5zM137 636q0 -4 -3.5 -5t-7.5 -6v11h11zM142 584q0 -8 -6 -9.5t-10 -1.5
q-8 8 -3.5 12.5l8.5 8.5q5 0 6 -3t5 -7zM147 440v-5q-2 3 -4 7q-1 2 -1 4l5 5q4 -3 2 -7zM52 -82q0 -1 -1 -3q-1 -3 -5 -3h-5v27q8 -4 9.5 -8.5t1.5 -12.5zM46 -115q-4 0 -6.5 3.5t1.5 7.5h5v-11zM168 -141q-4 -8 -10.5 -8.5t-10.5 3.5q-2 0 -4 2q-1 1 -1 3q8 8 15 8t11 -8z
M94 -141v-5h-16q-2 4 -0.5 5t4.5 1t6.5 -0.5t5.5 -0.5z" />
    <glyph glyph-name="quotesinglbase" unicode="&#x201a;" horiz-adv-x="310" 
d="M185 129q-4 -8 5 -10t17 -6v11v5q13 0 22.5 -5.5t17.5 -5.5q0 -7 -11 -16q8 -11 19.5 -16.5t19.5 -13.5q0 -8 -3.5 -14t-7.5 -14l-11 11q-17 -17 -17 -33q8 0 9 -6t-3 -10q-7 0 -9 -6t-3.5 -12t-4.5 -9t-12 3q-13 -17 -25 -36t-26 -36l18 -6q-2 -7 -7.5 -10t-12 -5.5
t-12 -6.5t-8.5 -12q-9 6 -18 9.5t-18 6.5t-17 7t-14 11q25 59 48.5 112t40.5 113q0 5 -2 6t-2 5q8 5 15.5 1t11.5 -12zM224 0q0 -2 -1 -4l-2 -4t-3 -4q-4 4 -1.5 8t7.5 4z" />
    <glyph glyph-name="period" unicode="." horiz-adv-x="250" 
d="M105 134q15 -3 29 -2t31 -2q17 -15 26 -37.5t1 -48.5q-4 -20 -21 -28.5t-32 -15.5q-20 -5 -36.5 3.5t-30.5 19.5q0 8 -3 12t-7 9q-2 20 1 40t14 37q-1 1 -2 1q-3 0 -3 -1q0 7 6 13.5t13 9.5t12 1t2 -11zM67 110q-7 -2 -8 -6.5t-1 -9.5t-1 -9t-8 -4q0 17 10 34z" />
    <glyph glyph-name="slash" unicode="/" 
d="M435 697h26q-2 -20 -10.5 -36.5t-8.5 -31.5q2 -4 6 -6t7 -4t2.5 -4t-7.5 -6q-12 4 -17 1.5t-6.5 -7.5t-1 -11.5t-1.5 -11.5q-17 -43 -37 -88t-35 -90q2 -9 7 -9h13q4 -4 1 -7.5t-7 -5.5q-2 -2 -3.5 -1t-3.5 2.5t-4.5 2t-7.5 -1.5q-17 -19 -23.5 -39.5t-17.5 -40.5
q-5 -20 -14.5 -40.5t-14.5 -43.5q4 -3 9 -3.5t9 -1.5t5.5 -3.5t-1.5 -8.5h-6q-2 3 -5 6t-8 3q-16 -25 -27.5 -50t-20.5 -51t-18.5 -52t-21.5 -52q-14 -6 -36 -3.5t-42 0.5q-5 -4 -12.5 -1.5t-12.5 4.5q-5 3 -7 10.5t-12 7.5q-4 2 -2 4q1 1 3 0h9v-4q7 3 10 6.5t5 8t3.5 10
t5.5 10.5q0 5 2 8.5l4 7t2 6.5q0 4 -6 8q14 10 19 22.5t10 25.5q-7 5 -8.5 9.5t0 9t4.5 10t4 11.5l9 -4l4 7q-11 0 -12.5 5t3.5 8q8 7 18 14t7 17q-8 5 -5.5 9t8 7.5t11 7.5t2.5 10q-11 5 -18.5 7t-16.5 2q1 3 1 10t8 7q6 0 11.5 -2.5t10.5 -4t9.5 -0.5t8.5 7
q3 21 11.5 37.5t11.5 36.5q12 14 17 29t9 32q17 39 32 80l30 82q-15 4 -16.5 8t6.5 14q6 -7 14 -3t13 6q2 21 9 38t8 37q-7 0 -8 2t0.5 5t3.5 6t2 4q9 6 20 6.5t23 -1t25 -2.5t25 2zM226 432h-4q1 2 4 3t6 5q7 -4 2.5 -6t-8.5 -2zM333 305q0 -1 0.5 -2.5t0.5 -2.5v-2z
M150 245q-1 -6 -8 -7.5t-8 -5.5q-8 4 -4.5 9t5.5 8q5 0 7 -0.5t8 -3.5zM79 105h-8l6 10q1 -2 1 -6q0 -2 1 -4zM79 -25q7 0 11 1t12 -1q0 -2 -5 -4q-3 -1 -6 0q-5 3 -11 2.5t-13 -1t-13.5 0t-11.5 5.5l22 19q2 -6 5.5 -13t9.5 -9z" />
    <glyph glyph-name="underscore" unicode="_" horiz-adv-x="554" 
d="M511 -51q-11 -14 -9 -36.5t-1 -47.5q-7 -4 -17.5 -0.5t-20.5 4.5t-18 -5.5t-12 -30.5l-15 32q-13 0 -25.5 1.5t-25.5 1.5t-25.5 -3t-26.5 -11q-25 16 -50.5 12t-51.5 -12q4 -4 7 -4.5t6 -0.5t6 -0.5t7 -4.5h-26v10q0 8 -3 9.5t-6 1.5l-6 -11l6 -10q-5 -8 -8.5 -5.5
t-11.5 -5.5q-1 12 1 14t5 1t5.5 -1.5t2.5 7.5q-16 8 -31 11t-31 3q-15 0 -30.5 -1.5t-32.5 -1.5v-11q0 -8 3 -9t8 -1q-6 -4 -11.5 -3t-11 5t-11 9.5t-11.5 9.5v84q15 8 29 4t28 -4q4 4 5.5 9.5t2.5 9.5t2.5 5t5.5 -3v-10l151 -11q4 4 9 3t10.5 -2t10 0.5t8.5 9.5v10l10 -21
h180q4 0 8.5 6.5t1.5 14.5q8 0 9 -6.5t1 -14.5z" />
    <glyph glyph-name="grave" unicode="`" 
d="M172 680q0 -10 16 -10h115q3 -2 4.5 -7t9.5 -2l6 -4q0 -5 -3 -6t-3 -5h11l-5 -15q8 0 12 -3t8 -7q-1 0 -2 -1t-2 -1.5t-1 -2.5q0 -5 2.5 -6t2.5 -4q0 3 1.5 4t1.5 6q8 -4 8 -10q0 -5 -1.5 -10t-1 -7t9.5 1q12 -14 21.5 -34.5t24.5 -34.5q-4 -4 -4 -10t4 -10
q-14 -14 -36 0h-54q-42 41 -79.5 84.5t-75.5 81.5v3q0 1 1 2q2 2 4 2l-5 6h10zM167 641q0 -4 -4.5 -7.5t-0.5 -7.5q-2 1 -5 3q-2 2 -5 3.5t-5 3.5q6 2 6.5 5.5t0 7t-0.5 5.5q0 3 4 3q0 -5 3 -8.5t7 -7.5zM192 606q0 -3 -2 -5q-1 -1 -2 -1l-6 6l4 2q3 1 6 -2zM392 470h-11v6
h11v-6z" />
    <glyph glyph-name="braceleft" unicode="{" horiz-adv-x="456" 
d="M399 780q-2 -8 0.5 -15t5.5 -13.5t5 -12t0 -11.5l5 -11q-8 -2 -10.5 -7t-3 -11.5t-0.5 -13.5t-2 -13q5 -5 10 -8.5t1 -7.5l-5 -5q-5 4 -4 10t-7 11q-16 0 -30 0.5t-22 -11.5q-7 -4 -14.5 -8.5t-10.5 -12.5q-4 -16 -6.5 -34.5t1.5 -38.5l-11 -10q0 -35 1.5 -72.5
t-6.5 -72.5q0 -8 -3 -13t-7 -13q-12 -8 -24 -21.5t-28 -25.5q-8 0 -9 -4.5t4 -4.5q15 -12 29.5 -26.5t22.5 -30.5q8 -20 14 -36.5t6 -36.5v-5q4 -23 5 -44t1 -42q0 -20 0.5 -41t4.5 -44q8 -11 17.5 -16.5t20.5 -8t23.5 -3.5t25.5 -2q0 -5 3.5 -10.5t7.5 -5.5h5
q-10 0 -12.5 -6t-2 -14t2.5 -17t2 -15q8 -4 9 -11t1 -15q-8 0 -12.5 -8.5t-8.5 -12.5q0 -4 2 -7t-2 -3l-5 5q-27 -4 -53.5 -1t-49.5 11q-16 -4 -31 5.5t-26 20.5l5 5q-4 5 -8 6t-8 5v-11q-8 5 -12 15t-9 22q-4 4 -9.5 8.5t-5.5 -3.5q-8 12 -6.5 28.5t1.5 27.5q-5 -4 0 -5
t5 -5q8 8 6.5 21t-1.5 21q-10 4 -12.5 10.5t-2.5 13.5q0 8 0.5 16.5t-1.5 16.5q5 0 8 -2t3 2q4 4 2 5t-2 5q-2 0 -4 -2q-1 -1 -1 -3q-5 4 -5.5 10.5t-0.5 10.5q12 4 13.5 13.5t-2.5 16.5q-4 0 -5 2t-6 -2q-8 4 -6.5 11t1.5 15q4 0 5 -1.5t1.5 -3.5t2 -3.5t7.5 -1.5
q4 4 -0.5 10t-4.5 11q-12 -2 -19.5 3.5t-13.5 13t-12.5 15t-16.5 9.5q14 4 20 -3t10.5 -15.5t9.5 -13t16 5.5q0 8 -2.5 13t-2.5 13q-4 0 -5 2.5t-4 2.5q-9 -4 -2.5 -7.5t6.5 -7.5q-3 4 -10 10t1 11l-16 15v-10q-8 8 -21 11t-21 15h-10q-2 -2 -1.5 -5.5t0.5 -6.5t-2 -4.5
t-8 0.5q-4 6 -2.5 11t4 10t4.5 10t0 11q8 4 6.5 10.5t-1.5 10.5q-4 4 -5 7t-6 3q5 12 10 23.5t1 27.5q18 0 31.5 7t24 18.5t18.5 25.5t13 27q8 10 8.5 20.5t-1.5 22t-3.5 23t2.5 22.5h5q4 0 4 5q0 6 -4 10q-8 0 -6.5 6t1.5 10l8.5 8.5t-3.5 12.5q-2 21 0.5 43.5t10 43.5
t21.5 38.5t35 29.5q18 10 35.5 14.5t36 6t38 1t40.5 -0.5zM218 -69q-4 -4 -7 -1.5t-3 6.5zM192 -79l5 -6zM249 -126q-6 -2 -9 -0.5t-5.5 3.5t-5 4.5t-6.5 2.5q-4 8 -12 11.5t-8 14.5q11 -8 21 -20t25 -16zM291 -116h-10v5q4 0 5 -0.5t5 -4.5zM270 -142l-10 11l10 -6v-5z
M389 -147l10 10l6 -10h-16z" />
    <glyph glyph-name="plus" unicode="+" horiz-adv-x="642" 
d="M322 610q5 2 9 0.5l8 -3t7 -1.5t5 4l-6 11l29 6q-4 -9 0.5 -16.5t9.5 -14t6 -11.5t-10 -10q-5 -39 -5 -81q0 -41 5 -76l6 -6h192q0 -5 1.5 -11t10.5 -6h11l6 -116q-11 0 -14 3.5t-2.5 8.5t2.5 10t2 7q-4 17 -3.5 37.5t-7.5 37.5l-6 -6v-98l12 -17h-18q5 6 2.5 9t-7.5 4
t-10.5 1.5t-7.5 2.5l-5 6l-158 -6q0 -5 -6 -9.5t-6 -13.5q9 -5 10.5 -9.5t1.5 -13.5q-2 -1 -4 -3q-3 -3 -8 -3q0 -8 3.5 -12.5t8.5 -4.5l-12 -14v-121q5 -4 6 -4.5t6 -0.5q-5 -5 -11.5 -5.5t-11.5 -0.5q5 8 6 16t-12 13q-26 0 -55 -4.5t-55 4.5q5 21 4.5 42t-1.5 42t-1 42
t4 43q-6 4 -12 9.5t-11 9.5t-11 4t-12 -6q-41 5 -73 7t-67 -7q4 -13 -3 -15t-20 -2v52q4 0 7 3q2 2 4 3q2 6 0 10t-5.5 7t-5.5 7t0 10q9 5 11 11t1 13t-2 14.5t1 13.5q52 5 97.5 4t89.5 8q8 26 9 58.5t-4 58.5q5 11 4.5 22.5t-1.5 23.5t-1 23q0 12 4 23q0 -8 3.5 -12.5
t8.5 -4.5q4 0 13.5 -1.5t9.5 7.5v11q5 -5 11.5 0t11.5 0q0 -8 3.5 -12.5t7.5 -4.5zM299 64h-46v11q9 -8 16.5 -5t12.5 11q5 0 6.5 -2.5t2.5 -6t2.5 -6t5.5 -2.5zM334 64q-5 -5 -10 -5.5t-13 -0.5q5 5 9.5 8t13.5 -2z" />
    <glyph glyph-name="asterisk" unicode="*" horiz-adv-x="525" 
d="M320 709q0 -32 -10 -65.5t-20 -65.5l7 -7q23 18 39 41.5t39 42.5q-5 9 1 11t10 7q16 -4 26 -14.5t17 -24t12.5 -28.5t12.5 -28q8 -5 12 -11t4 -20q-26 -4 -49 -12.5t-46 -16.5q-14 5 -26.5 -1.5t-21.5 -11.5q9 -13 25 -13h29q10 -4 23 -4q14 0 19 -12l5 5q0 -9 4 -12
t10 -4t12.5 -2t10.5 -5q4 4 4.5 8.5t0.5 9.5h-5q4 0 10.5 -1t2.5 -6q-6 -22 -23 -41.5t-27 -42.5v-13q-7 0 -10 -5t-5.5 -10.5t-6 -8.5t-12.5 1q-23 23 -45.5 42t-45.5 41q-5 5 -9 -0.5t-4 -10.5q0 -9 4 -21t9 -20q0 -12 3.5 -21.5t7.5 -18.5t6.5 -18.5t-0.5 -20.5
q5 -4 10 -7.5t9 2.5l6 5q-2 -7 -7.5 -8t-11.5 -0.5t-12 0.5t-11 -5q-5 7 -10.5 8t-10.5 0t-10.5 -2t-10.5 2q-5 -10 -10.5 -8t-13.5 8l-42 5q0 16 4.5 31.5t9 32t7 33t-1.5 34.5q-20 -12 -34.5 -29.5t-33.5 -36.5l-5 6q-5 -2 -6.5 -5t-2 -6t-1.5 -6t-4 -6q0 4 -2 6
q-1 1 -3 1l-5 -7l37 -6q0 -4 -4.5 -8.5t-8.5 -9.5q-14 0 -23.5 10.5t-18.5 20.5q-5 4 -8 10l-6 12t-7 11.5t-11 8.5q-8 17 -16 28.5t-12 31.5q14 7 28 11t28 7t27 6.5t24 9.5q3 3 9 2.5t12 0.5t10.5 4t4.5 12q-8 5 -17 3.5t-19 3.5q-14 0 -29.5 4t-23.5 12q-5 0 -9 4.5
t-9 8.5q-6 -4 -11 -8.5t-13 -4.5q-9 6 -10 13.5t3 17.5l60 97h13q18 -17 36.5 -35.5t41.5 -31.5q5 6 2.5 13t-6.5 14t-7.5 15.5t-1.5 17.5q5 -5 6.5 -8t6.5 -3q5 4 8 8.5t-2 9.5q-5 2 -5 6t0.5 9t-0.5 11t-8 11q3 9 10.5 11t17 1t20 -2.5t19.5 0.5h65zM177 691v-18
q-2 0 -5 4t-4 8t0.5 6.5t8.5 -0.5zM381 644q0 2 1 6q1 3 1.5 6.5t2.5 5.5l8 -7zM207 620v-13q0 10 -3.5 15.5t-8.5 16.5q9 0 10.5 -7.5t1.5 -11.5zM224 565q-4 0 -5 3t-5 3v18q7 0 8.5 -3t1.5 -7t-1 -8t1 -6zM62 511l31 -6q-14 0 -26.5 3t-22.5 3l7 18q0 -4 1.5 -8.5
t9.5 -9.5zM320 380h-5v5zM334 343q-5 -4 -6 2t-1 11q5 0 3.5 -6.5t3.5 -6.5z" />
    <glyph glyph-name="braceright" unicode="}" horiz-adv-x="475" 
d="M281 700q4 -4 0 -5t0 -5q4 0 5 -0.5t5 -5.5q-8 -4 -8.5 -11t3.5 -15q0 -8 5.5 -14t5.5 -18h-6q-4 -6 -3.5 -11.5t1.5 -12t1 -13.5t-4 -15q4 0 5 -3t6 -3q4 -6 2 -9.5t-5 -6.5t-5 -6t2 -9q8 -2 9 -7t-0.5 -11t-3 -12.5t0.5 -12.5q-5 0 -5.5 -5.5t-0.5 -9.5q8 -4 11 -10.5
t5 -13.5t5 -13.5t11 -10.5v-5q0 5 -11 5q-4 -4 1 -7.5t5 -8.5q8 -4 13 -9.5t13 -0.5q8 0 19.5 -6t22.5 -10l6 -11q0 -23 -0.5 -55t-5.5 -56q-6 6 -11.5 5t-12 -4.5t-13.5 -8.5t-15 -7q4 -5 -0.5 -6t0.5 -5q2 -4 4 -4t4.5 1.5t5.5 3t7 -0.5q-4 -8 -10.5 -9.5t-13 -2t-12 -2.5
t-7.5 -12q2 -8 0 -14t-5 -12t-5 -12.5t0 -14.5l-5 -5q0 -20 1 -39t-7 -35q8 -8 3.5 -13.5t-8.5 -13.5l-5 -68q8 -8 5.5 -21.5t-10.5 -21.5q-5 -4 -8.5 -7.5l-7.5 -7.5l5 -11q0 -4 -6 -4.5t-10 -0.5q-20 -18 -42.5 -26t-46.5 -11t-50 -3q-25 0 -51 -2l-2 -2q-3 -3 -3 2
q-4 11 -6 25t6 22t3.5 12.5l-8.5 8.5q2 4 1.5 9l-1 10t0 9.5t4.5 8.5v16q10 4 19 1.5t18 -6t18 -5t19 4.5q4 0 10.5 5.5t10.5 10.5q-4 4 -3 7t4 6l6 6t3 7q4 24 5 48.5t1.5 49.5t2 51t7.5 51q8 20 18.5 44.5t34.5 40.5q2 4 0.5 6t-4 3.5l-5 3t-2.5 3.5q2 4 6.5 2l9 -4
t8 -1.5t3.5 8.5q-28 14 -43 35.5t-22.5 47.5t-9.5 53.5t-4 53.5q4 8 3 16t-3 16.5t-3 17.5t3 19q4 4 -1 7.5t-5 8.5v-6q-8 12 -24.5 20.5t-27.5 16.5q8 4 15.5 1.5t15.5 -6.5q5 -4 8.5 -7.5t7.5 -3.5q4 4 2 8q-1 2 -2 3q-12 8 -13 17.5t-13 14.5q-16 0 -31 4.5t-27 0.5
q0 16 -2 30.5t-14 22.5q-6 10 -3 14t7.5 6t6.5 5.5t-6 11.5q8 8 9.5 17t17.5 9q27 -2 56 -5t55 -12t48 -26t36 -47zM196 362v-5l-10 11q4 0 5 -3t5 -3zM407 257q0 -5 -10 -5v5h10zM318 230h-6l11 11q-1 -1 -2 -3l-2 -4t-1 -4zM64 -39l-5 -5q-2 0 -4 2q-1 1 -1 3h10zM59 -113
q-4 0 -4.5 0.5t-0.5 5.5q4 0 4.5 -0.5t0.5 -5.5zM196 -134q-8 0 -9.5 -4.5t-5.5 -0.5q0 4 3.5 7t11.5 -2z" />
    <glyph glyph-name="less" unicode="&#x3c;" horiz-adv-x="566" 
d="M519 567q8 -4 6.5 -13.5t-1.5 -17.5q-4 0 -5 2.5t-5 2.5q0 4 2 7.5t-2 7.5l-11 -5v-86q-4 -4 -12 -4t-8 -11l10 -11q-38 -23 -87 -43t-96 -43q0 4 -5.5 8.5t-9.5 -3.5q-4 -4 -7 -7.5t-3 -7.5q-8 4 -17.5 1.5t-17.5 -6.5q-2 -8 -6.5 -11.5t-9 -6l-9 -5t-6.5 -8.5
q7 -16 20 -16q-6 -4 -11.5 2.5t-11.5 13t-13 8t-15 -12.5q4 -12 17 -17.5t24 -13.5q31 -7 58.5 -24.5t58.5 -25.5q8 0 6.5 5.5t-1.5 9.5q8 -8 18.5 -12t21.5 -9q0 -8 -3 -9.5t-7 -5.5q8 -8 19 -16.5t22 -4.5q4 0 9 -2t10 -3.5t8.5 -0.5t3.5 6q-1 0 -3 1q-4 2 -7 5
q8 -5 13.5 -9t1.5 -11q16 -4 28.5 -12t32.5 -8q-4 0 -5 0.5t-6 4.5l-5 -5q2 -13 1 -26t-2 -25t-0.5 -23.5t6.5 -22.5h6q4 -11 -2 -17l-14 -14q-115 57 -229.5 118.5t-232.5 115.5q2 0 5 1q5 2 5 5q0 8 1.5 14.5t-6.5 14.5q-4 0 -5 -4t-5 4q0 4 7.5 11t7.5 15l6 41l-16 5
q2 4 5.5 3.5t7 -1.5t6 0t2.5 9q8 -5 12 -2t7 5q1 0 0 -1q-2 -2 -4 -2q26 2 52.5 16t49.5 34q-16 0 -28.5 -11t-28.5 -15q16 8 29 19.5t32 11.5v-5q19 4 36 12t25 24q12 4 20.5 12t19.5 12q4 -11 9 -11q6 0 12.5 4.5l13 9t12.5 2.5q19 12 37.5 21t32.5 21l11 5l-11 10l26 15
q2 0 0.5 -1.5t-3 -4l-3 -5t0.5 -4.5q8 -2 15 0.5t13.5 6t13.5 8t15 6.5q4 4 9.5 7t9.5 7v10q8 -4 11 -11.5t15 -7.5zM483 581q-3 0 -4 -2.5t-5 -2.5q4 0 5 4.5t4 0.5zM453 567l10 4zM381 531h-4h4zM315 500l16 5l-10 -5h-6zM519 455l-11 -11zM219 450q-4 -8 -15.5 -10.5
t-15.5 -10.5h-5q8 4 18 10t18 11zM453 434v-5h-5q-4 4 -1.5 4.5t6.5 0.5zM407 414q3 -3 -1 -5q-2 -1 -4 -1zM372 393q-4 -4 -8.5 -7.5t-12.5 -7.5q0 8 8.5 9.5t12.5 5.5zM102 388q-4 -8 -10.5 -9t-10.5 -1q4 4 8.5 7t12.5 3zM331 372q2 -1 1.5 -2t-2.5 -1h-4h-11q8 0 10 4
t6 -1zM377 210h-10q0 4 2.5 5t2.5 6q0 -5 2.5 -6t2.5 -5zM458 155q-8 4 -12 7.5t-8 6.5q2 -1 5.5 -1.5t6.5 -1.5t5.5 -3.5t2.5 -7.5z" />
    <glyph glyph-name="asciicircum" unicode="^" 
d="M320 669q26 -69 49.5 -135t49.5 -135q5 -15 10 -28.5t10 -29.5q-9 -2 -19 -0.5t-19.5 2.5t-18 -1t-15.5 -11q-3 -3 -4 -3h-2l-7 7q5 2 8.5 7t1.5 10q-5 2 -5 8t-5 9q-2 0 -3 -2t-3 -2q-3 3 -3.5 7t-0.5 7l2 2q1 1 2.5 2t2.5 2l-27 71q0 3 -3.5 5.5t-3.5 4.5q5 3 1.5 9.5
t-8.5 8.5q3 15 -2.5 30t-13.5 30q-9 0 -14 -4.5t-8 -11t-4.5 -14.5t-4.5 -14q2 -5 0.5 -12t-3.5 -15q-10 -4 -12 -12.5t-2 -17.5t-1.5 -16t-12.5 -8q-5 -5 0 -7.5t7 -2.5q-4 -17 -20 -27q-2 -8 -6 -17t6 -17q0 -5 -2 -8.5t-4 -8.5h-11q0 5 -4 7.5t-6 2.5h-54q18 69 43 135
t48 133q5 15 12 30t12 30q34 6 67 0z" />
    <glyph glyph-name="backslash" unicode="\" 
d="M123 697h22q14 -20 21 -36.5t18 -31.5q10 -8 19 -10t4 -10q-13 4 -16 1.5t0 -7.5t8.5 -11.5t8.5 -11.5q21 -43 40.5 -88t42.5 -90q8 -9 14 -9h11q7 -4 7.5 -7.5t-1.5 -5.5q0 -2 -2 -1l-5 2.5t-6 2t-5 -1.5q1 -19 13 -39.5t17 -40.5q13 -20 21 -40.5t22 -43.5
q6 -3 11 -3.5t9 -1.5t7 -3.5t5 -8.5h-4q-4 3 -9 6t-10 3q5 -21 6 -42t12 -43q7 -15 17 -30t20.5 -30t20 -30t15.5 -30q-3 -3 -10.5 -3.5t-17 0l-19 1t-16.5 -0.5q-1 -4 -9 -1.5t-16 4.5q-6 3 -13.5 10.5t-15.5 7.5q-6 3 -5 4t2 0h7l4 -4q4 3 3.5 6.5t-2.5 8t-5 10t-4 10.5
q-4 5 -5 8.5t-2.5 7t-4.5 7t-11 7.5q4 10 -2.5 22.5t-11.5 25.5q-10 5 -15 9.5t-7.5 9t-4 10t-4.5 11.5l8 -4l-1 7q-8 0 -13 5t-5 8q2 7 4.5 14t-8.5 17q-11 5 -12 9t1 7.5t3.5 7.5t-5.5 10q-14 5 -22 7t-16 2q-1 2 -3 4.5t-4 5.5t-2 5t3 2q5 0 11.5 -2.5t12.5 -4t9.5 -0.5
t1.5 7q-15 21 -21 38t-20 36q-1 14 -9.5 29t-18.5 32q-17 39 -38 80l-42 82q-15 4 -19.5 8t-4.5 14q9 -7 13.5 -3t6.5 6q-17 21 -24.5 38t-22.5 37q-12 0 -12.5 7.5t-2.5 9.5q2 6 11 6.5t20 -1t23 -2.5t20 2zM161 432h-4q-2 2 0.5 3t0.5 5q9 -4 7.5 -6t-4.5 -2zM355 305
q1 -1 2 -2.5t2 -2.5l2 -2zM247 245q5 -6 0.5 -7.5t-3.5 -5.5q-9 4 -11 9t-2 8q5 0 6.5 -0.5t9.5 -3.5zM300 105h-7l-2 10l6 -6q2 -2 3 -4z" />
    <glyph glyph-name="exclam" unicode="!" horiz-adv-x="290" 
d="M208 667q-8 -22 -6.5 -43t1.5 -41l9 -10q-1 -9 0.5 -18.5t2.5 -18.5t-1 -17t-11 -14q0 -8 5 -10t9 -6q-4 -10 -3.5 -20t-10.5 -14q2 -9 1 -18.5t-1.5 -18.5t1 -17t8.5 -14q-7 0 -8 -5.5t-1 -9.5q9 -7 9 -14q-7 -6 -9.5 -13t-2.5 -14t1.5 -14t1.5 -13q7 -8 10 -14.5
t-1 -14.5q-7 -6 -9.5 -15t-2.5 -19t1.5 -20.5t1.5 -19.5q-8 0 -15.5 -7t-15.5 -3q-2 4 -3 5l-5 5q-4 2 -5.5 0t-2.5 -5t-2.5 -5t-5.5 0q-9 4 -18.5 2.5t-19 -2.5t-17.5 1.5t-13 13.5q0 107 0.5 226.5t4.5 234.5q7 4 17 2t18 -2h88zM203 118q7 -12 16 -25.5t-2 -29.5
q0 -4 2 -7l4 -6t2.5 -7t-3.5 -9q-7 5 -13 2t-11.5 -9.5t-11.5 -13.5t-14 -9q-14 -11 -35.5 -6t-37.5 16q-18 11 -24 25.5t-10 34.5q0 44 44 68q11 4 24 5.5t26 -1t25 -9t19 -19.5z" />
    <glyph glyph-name="quotedblright" unicode="&#x201d;" 
d="M263 664q2 -22 1 -42t-4 -38.5t-6.5 -37.5t-5.5 -40q-9 -24 -19.5 -50.5t-30.5 -47.5q-8 -4 -13.5 -1.5t-10 5.5t-9.5 3.5t-11 -7.5q0 5 5.5 8.5t0.5 8.5q-5 8 -12 8q-6 0 -6 8q18 8 23.5 23t5.5 31q11 4 11 13q0 10 4 15q-4 8 -7 8.5t-8 -2.5q-4 -5 -12 -0.5t-17 4.5
q3 8 0.5 15.5l-5 15t-2.5 14.5q0 8 7 16q0 15 -1.5 32.5t1.5 37.5q29 0 60.5 4.5t60.5 -4.5zM459 658q0 -22 0.5 -45t0 -45.5t-4 -43.5t-11.5 -39q-9 -25 -23.5 -43.5t-25.5 -38.5q-7 0 -13 5.5t-11.5 10t-10.5 5t-9 -9.5q-9 0 -10.5 7t-1.5 15q9 2 13 7.5t6.5 12.5t5 15
t8.5 14q-4 6 -1 10t7 9t7 10.5t-2 14.5q-5 3 -18 3q-12 0 -20 -3q-5 -5 -9 -5.5t-7 -0.5q-2 6 0 10.5t4.5 8.5t3.5 8.5t-4 10.5q0 4 -2 5t-2 6q-2 4 -0.5 5.5t3.5 2.5t4.5 2.5t2.5 5.5q-5 16 -3 32.5t-3 32.5l12 17h114v-12z" />
    <glyph glyph-name="numbersign" unicode="#" horiz-adv-x="606" 
d="M563 404q-14 -6 -34.5 -3t-38.5 3t-30 -9t-8 -39q-5 -8 -3 -21t-3 -21l91 -5v-85q-14 -6 -32.5 -4.5t-35.5 1.5t-29 -6t-14 -28q2 -6 0.5 -12t-2.5 -11.5t0 -10.5t7 -9q-17 -20 -20 -42t-7 -42q0 -17 -3 -29.5t-8 -29.5h-84q4 32 6 64t10 64q-4 4 -8 1.5t-8 -7.5
q-5 12 0 21t5 22q5 0 8.5 -2.5t7.5 2.5q2 6 -0.5 9.5t-6 6.5t-5.5 6t2 9q4 -4 10.5 -3.5t9.5 8.5q0 17 -10 17h-80q-8 -8 -9 -19.5t-1 -23.5q0 -2 3 -4t6 -4.5t4 -5.5t-3 -7q-12 -2 -16 -10t-5 -18.5t-1 -21.5t-4 -19q-4 -20 -7.5 -41t-8.5 -44h-84q2 6 0.5 12t-2.5 12
t-0.5 12t6.5 12q-6 2 -6.5 5t1 6.5t3.5 7.5t2 8q-1 12 2 22t6.5 20t5 20t-2.5 22q8 12 7 26.5t4 26.5l-6 6h-95l-5 5v85q27 4 55 2.5t56 2.5q10 4 12.5 11.5t2.5 15.5t0.5 16.5t6.5 14.5q0 8 -7 16t-15 16q-17 0 -31.5 -4t-26.5 4q-5 4 -8.5 1.5t-8.5 -6.5l-5 96l5 5
q14 2 30 0.5t31 -3t28 0.5t23 12q12 48 21 95.5t17 95.5q41 10 84 0q0 -35 -6.5 -74t-14.5 -79q2 -6 0 -13.5t-3.5 -15t-0.5 -14t9 -10.5q12 2 24 1.5t23 -0.5t20.5 2t17.5 8q-2 6 0.5 12.5t4.5 12.5t1 12t-11 10q10 4 13.5 13t5 20.5t2.5 23.5t5 22q4 8 4 17t-0.5 18.5
t0.5 19.5t7 20h90l11 15q-4 -6 -4.5 -13.5t-0.5 -15.5q0 -7 -1 -14.5t-5 -13.5q-8 -2 -10 -8t-2 -13v-15q0 -7 -3 -13q-5 -23 -8.5 -44t-8.5 -46q8 -4 8 -8t-2.5 -7.5t-4 -7.5t4.5 -8h84q0 -20 4 -45.5t-4 -45.5zM356 336q5 4 2 7t-7 3q-8 -4 -9 -11.5t4 -15.5l10 17v0z
M351 351q4 4 7.5 11.5t3.5 15.5h-16q-5 4 -3 10.5t-3 10.5q-15 4 -31 2t-32 -2q-4 -16 -10 -36t-6 -44q17 -8 29.5 -6.5t29.5 1.5q10 2 13 7.5t4 12t2 12.5t7 10l5 -5v0zM362 389q0 4 2 5t-2 5q0 4 -3.5 2t-7.5 -2q-1 0 -2 -1t-2 -1.5t-1 -2.5q4 0 7.5 -2.5t8.5 -2.5z" />
    <glyph glyph-name="dollar" unicode="$" 
d="M330 701q-8 0 -11.5 5.5t-7.5 9.5q7 0 11 -5.5t8 -9.5zM297 706q0 -10 5.5 -22.5t13.5 -19.5q14 4 22.5 -2.5t19.5 -6.5q17 -7 31.5 -17t28.5 -21q-3 -4 -6 -1.5t-3 6.5h-4q2 -5 6 -9.5t9 -9.5t8.5 -10.5t3.5 -13.5l1 -1q1 -1 5 1q-15 -17 -34 -36t-37 -33q-17 0 -27 12
t-24 20q-12 7 -27.5 13.5t-31 9t-31 0t-27.5 -12.5q-30 -21 -24 -57q9 -17 22.5 -28t29.5 -19.5t33 -15.5t33 -16q7 2 13.5 -3t13.5 -8.5t13 -3.5t11 10q3 -10 10.5 -16.5t16 -11t18 -9.5t16.5 -14q7 -4 13 -12.5t10 -15.5q-2 -5 0.5 -10.5t6.5 -10.5t7.5 -10.5t3.5 -11.5
q5 -14 8.5 -27.5t10.5 -27.5h5q4 0 2 -5.5t-2 -8.5q-4 3 -7.5 -2t-6.5 -8q0 -5 9 -14l5 5v-34q-2 -1 -4.5 0.5t-5 3.5t-4.5 2t-4 -6q0 -6 0.5 -7.5t3.5 -5.5q-14 -11 -21 -31t-21 -34l-43 -38q8 -4 12 0t12 4v-4q-11 -4 -19 -5t-18 -4q1 0 2 1q2 2 2 3q0 4 -2.5 2t-6.5 -2
v-9q-4 4 -10 1.5t-9 -6.5q-7 -3 -16 -5t-17 -13q4 -18 -1.5 -37.5t-2.5 -33.5q7 -3 4 -8.5t0 -10.5q-9 0 -19.5 -0.5t-21.5 -1t-21 -0.5t-17 2q-4 25 -2.5 51.5t-2.5 46.5q-21 11 -41.5 12.5t-37.5 11.5q-29 17 -58 34.5t-50 45.5v9q21 21 42 39t38 32q11 -4 18.5 -15
t18.5 -18q21 -11 37 -22.5t38 -15.5q8 0 13.5 -2t10.5 2q14 -7 30 -2.5t30 12.5q4 5 10 10.5t11.5 10.5t8 10.5t-1.5 10.5q-3 0 -6.5 -2.5t-7.5 -2.5q0 9 5 15.5t10.5 12.5t8.5 12.5t0 15.5q-12 28 -33.5 45.5t-47 29.5t-52.5 22.5t-50 24.5q-32 17 -59.5 49.5t-38.5 67.5
q-4 35 -1 70.5t25 60.5q24 29 55 45t66 16q9 2 12.5 6.5t4 10.5t0.5 13t1 12q18 0 37.5 1.5t33.5 -6.5zM432 603l-4 5zM446 589v-4h-4v9q2 0 4 -2q1 -1 0 -3zM418 566q-3 -4 -4 -7t-5 -3q0 4 3 5t6 5zM311 449q-4 0 -12 7.5t-16 10.5q8 -3 16 -5t12 -13zM460 281
q0 6 -4.5 12.5t-9.5 10.5q8 -4 11 -10.5t3 -12.5zM311 173q0 -11 -10 -13.5t-18 -10.5h-10q8 11 19 15t19 9zM418 75q8 6 15 17.5t13 19.5q-6 -11 -13 -21t-15 -16z" />
    <glyph glyph-name="percent" unicode="%" horiz-adv-x="765" 
d="M639 686q-4 -3 -5 -8.5t-4 -9.5q0 11 9 18zM498 446q-10 -17 -22 -34t-22 -34q-69 -96 -139 -192t-138 -189q-17 7 -34 4t-34 1q-7 -4 -6.5 -11t-6.5 -7q-3 12 1 22t11 20t15 20t13 20l-13 9q2 5 5 5.5t6 0.5h8q5 0 8 3q85 119 173.5 235t170.5 240q-2 5 -5 6t-7 -0.5
t-8 -3.5t-7 -2q-38 0 -77.5 -4t-77.5 0q11 -42 2.5 -84.5t-42.5 -69.5q-24 -31 -60 -36.5t-67 4.5q-3 -4 -8.5 -4.5t-9.5 -0.5q-3 7 -8.5 6.5t-9.5 2.5q-10 7 -21.5 12t-15.5 16h5q0 2 -2 6q-1 2 -3 3q-10 -3 -17 8.5t-14 18.5q-10 20 -7.5 45.5t2.5 49.5q7 3 6 8t-3 10
t-2 10t8 8q14 34 45 56t69 22t72.5 -5.5t71.5 -13.5q38 -7 77.5 -7.5t77.5 2.5q11 4 20.5 5t19.5 4q31 11 60 21t63 3q7 3 15.5 -0.5t15.5 0.5q-37 -55 -76.5 -106.5t-77.5 -102.5zM227 464q7 14 12 28t1 31q-6 17 -21.5 31.5t-32.5 18.5q-36 0 -54 -18q-17 -14 -21 -35
t3 -38q0 -10 6 -13t13 -5t11 -5t1 -13q14 -7 25 -7.5t24 2.5q4 5 8.5 7t9 3t8.5 3.5t7 9.5zM725 166q0 3 3 1.5t6 -1.5q1 -1 0 -3q-1 -3 -4 -3l-5 6v0zM521 192q-4 0 0.5 4.5t8.5 4.5q0 -3 -3 -4t-6 -5zM621 297q34 -14 61.5 -43t38.5 -66l-2 2q-3 3 -3 -2q-1 -12 -2 -25
t-2.5 -25.5t-5.5 -25t-12 -24.5q0 -3 0.5 -6t3.5 -3h9q-3 -14 -11.5 -20t-15.5 -17q-3 0 -2 5.5t-2 9.5q-11 3 -20.5 -7t-16.5 -17q-11 0 -22.5 -1.5t-18.5 -11.5l9 -9q-3 -4 -6 -2.5t-3 -2.5q-3 7 -2.5 11t-6.5 7q-10 -3 -21.5 0t-19.5 -4l4 -14q-17 4 -31.5 10.5
t-31.5 16.5q7 -1 13.5 -5.5t13 -8t12.5 -4t11 4.5q-7 10 -18.5 12.5t-22.5 9.5q-2 3 -6 5q-2 1 -3 1q-3 -5 -6 -5q-2 0 -2 5q-4 3 -8.5 4.5t-0.5 8.5q-7 -3 -11 4t-7 14q-4 11 -9.5 23t-9.5 22q-11 38 1 73.5t36 62.5q20 24 49 35t64 11q5 5 9 4.5t8.5 -3t9 -5.5t9.5 -5z
M612 106q14 14 22 30.5t5 38.5q0 17 -13.5 27t-27.5 17q-7 -1 -11.5 1t-8 5t-7.5 5.5t-9 2.5q-5 -2 -6.5 -4.5t-1.5 -5.5v-4t-2 -4q-3 -4 -11 -5.5t-11 5.5q-7 -4 -11 -10t-7 -13q10 -3 4.5 -11t-9.5 -15q-6 -22 9 -37q11 -7 18.5 -11t17.5 -7q5 -4 0.5 -5t-4.5 -4
q3 -4 9 -4.5t10 -0.5q5 7 10.5 6.5t11.5 -2t12 -2t11 6.5zM639 20q0 -2 -2 -4q-1 -1 -3 -1l5 5v0zM643 33q7 -3 11.5 -5t11.5 5q-7 -7 -13.5 -8.5t-13.5 -4.5q3 3 3.5 6.5t0.5 6.5z" />
    <glyph glyph-name="ampersand" unicode="&#x26;" horiz-adv-x="675" 
d="M58 57q-5 5 -5.5 8.5t-0.5 6.5q0 -3 3 -6.5t3 -8.5zM635 41q-2 -3 -5 -4t-6 -1.5t-4.5 -2t-0.5 -7.5l16 -27q-6 -2 -11 1.5t-9.5 6.5t-8 2.5t-7.5 -10.5q-4 -2 -6 0t-3.5 5.5t-4 7t-8.5 3.5h-94q-4 -4 -3 -10t-7 -6q-8 12 -19 20.5t-23 15.5q5 0 5.5 0.5t0.5 5.5
q3 5 -1.5 6t-4.5 4q-8 0 -15.5 -3.5t-10.5 -12.5q0 -3 2 -3h2q-8 -9 -15 -13.5t-15 -8.5q0 4 1 10t-7 6q-5 0 -9 -3.5t-12 -7.5q-2 -2 -1.5 -4.5t0.5 -5.5q0 -2 -2 -4t-8 -2q-4 0 -7.5 -0.5t-7.5 -5.5q0 9 -9 12.5t-17 -0.5q-20 -5 -42.5 -9.5t-47.5 -2.5q-6 -9 -15 -11
t-19.5 0t-20.5 5t-18 3v3q0 5 5 6t0 6q-8 8 -18 15t-18 12q-9 -5 -10.5 -9t-1.5 -8q-12 8 -20 19t-16 23l15.5 -15.5t16.5 -9.5q6 6 4 10.5t-7 9.5t-10.5 9.5t-7.5 10.5q-17 42 -17 80q-9 6 -11 13.5t-0.5 15.5t4.5 15t3 13q16 39 47 74.5t63 67.5v6q5 0 8.5 0.5t3.5 3.5
q0 8 -7 16t-15 17q-10 -10 0 -16q-8 3 -9.5 10t-1.5 9q6 6 5 11.5t-4.5 10t-7.5 9t-4 8.5h-4q-5 -5 -2 -9.5t6 -12.5q-15 17 -22 46t2 49q-6 18 -1.5 33.5t14.5 30t22.5 28.5t22.5 28q17 16 40.5 25t49.5 11.5t53 -1.5t51 -15q23 -11 39.5 -30.5t33.5 -42.5
q12 -32 11.5 -70.5t-17.5 -69.5q-15 -29 -37.5 -53.5t-46.5 -47.5v-11q24 -27 45.5 -54t50.5 -50q23 8 40 22t33 31q23 -12 38 -32.5t35 -36.5q3 -3 7 1t9 4q-5 -7 -7 -17.5t7 -19.5q-12 -15 -29.5 -28t-34.5 -30q12 -23 30.5 -37t38.5 -30q4 -2 7 -1t6 2.5t6 2t7 -3.5l5 -6
v0zM583 178q-5 -8 -10 -10.5t-5 -11.5q7 -3 12 4.5t13 7.5q0 3 -3.5 6.5t-6.5 3.5zM237 519q-5 -24 4.5 -44t26.5 -39q8 1 13 6t9.5 11.5l9 13t10.5 10.5q8 12 9.5 26t-15.5 22q-17 15 -42 15q-8 0 -13 -8t-12 -13zM200 120q16 -8 32.5 -8.5t32.5 3.5t31.5 11t29.5 15
q-5 11 -17 21.5t-21 25.5l6 6q-5 8 -8 12t-7 9q-2 -4 -1 -6.5t3 -4.5t3.5 -4t-0.5 -6q-12 11 -23 25.5t-18 25.5h-12q-20 -15 -36.5 -34t-21.5 -43q0 -32 27 -48z" />
    <glyph glyph-name="six" unicode="6" horiz-adv-x="466" 
d="M221 235h10h-10zM260 259q-8 0 -14.5 2.5t-14.5 6.5q8 0 14.5 -3.5t14.5 3.5v-9v0zM211 235h10q-1 0 -3 -1q-4 -2 -7 -5v6zM416 278q9 -25 12.5 -53.5t-0.5 -57t-15 -55t-31 -48.5q-36 -41 -87.5 -55t-102.5 -3q-27 0 -52 12.5t-45.5 32t-35.5 43.5t-23 48q-9 54 3 101
t33.5 90t47 85.5t43.5 87.5q18 41 39.5 81t42.5 80q26 -11 50.5 -25t47.5 -28q2 -7 -1 -13t-7 -11.5t-6.5 -11.5t-0.5 -14l-9 -4q-15 -26 -29 -48.5t-25 -48.5q4 -4 4.5 -9.5t0.5 -10.5q-4 -6 -10.5 -10.5t-11.5 -9.5t-8 -10.5t1 -12.5q59 0 105.5 -35.5t69.5 -86.5z
M304 196q-7 7 -3 13.5t7 14.5q-3 8 -10 17t-18 12q-2 11 -9 17t-16 8.5t-19 2t-19 -2.5q-4 0 -4.5 -2.5t-0.5 -5.5q0 -2 -0.5 -4.5t-4.5 -2.5q-8 0 -5.5 6t-5.5 9q-7 -3 -17.5 -10.5t-10.5 -18.5q4 -5 2 -8t-6.5 -5.5l-9 -5t-6.5 -6.5q3 -9 2.5 -17t-2 -16.5t-1 -16.5
t5.5 -17q14 -26 38.5 -37t53.5 -8q19 5 35.5 18t23.5 36q0 7 3.5 14.5t-3.5 15.5zM280 244q3 -4 3.5 -7t0.5 -8q-7 -6 -13.5 -5.5t-13 3t-13 5.5t-13.5 3q11 3 24.5 4t24.5 5zM178 210q0 -4 1.5 -4.5t-1.5 -0.5v5v0z" />
    <glyph glyph-name="seven" unicode="7" 
d="M468 667q8 -28 2 -51t-16.5 -43.5t-22.5 -40t-18 -39.5q-60 -125 -120 -247t-124 -243q-4 0 -10 2t-11 -2v-9q-11 -2 -18 4t-13.5 13.5t-14 13.5t-18.5 4q0 4 -1.5 10t-9.5 10q-9 0 -9 -5v-5q-4 0 -7.5 0.5t-7.5 4.5q-4 11 1 15t12 6.5t13 5.5t4 12q2 4 0.5 6t-3.5 4
t-3.5 4.5t0.5 6.5q8 8 17 10t9 10q0 7 -2 13.5t2 10.5q4 0 9.5 1t5.5 9v5q6 2 9 7t5.5 11.5t4.5 12.5t5 9q20 38 38 74.5t32 70.5q-8 11 -3 19t13 15l10 5q8 16 17.5 31.5t13.5 33.5q0 2 -2 3l-4 2t-2.5 2t3.5 3q0 8 3 4t7 -4q7 8 11 18t8 18l-5 10q11 0 18.5 14t12.5 25
l-11 10h-254h-5v110l5 5z" />
    <glyph glyph-name="eight" unicode="8" 
d="M472 256q-6 -7 -6 -14q0 -6 2 -13t2.5 -13.5t-4.5 -14.5q0 -54 -23 -97t-65 -76q-6 0 -10.5 -3t-11.5 -11q-16 0 -34 -3t-36.5 -5.5t-37.5 -3t-37 3.5q-5 0 -7.5 -3t-6.5 -8q-5 8 -11 11.5t-14 7.5q-6 0 -11.5 -3.5t-13.5 -1.5v7q0 4 -2 4q-13 2 -24 8.5t-20 15t-17 18
t-16 16.5q-16 21 -25.5 47t-12 53.5t2 54.5t15.5 51q15 23 31 40.5t30 36.5q-2 11 -12 26t-21 26q-9 24 -13.5 51t-1.5 54t13.5 51t31.5 42q22 22 49 35t57 17.5t60.5 1t59.5 -14.5q20 -11 44 -26t38 -40q11 -19 16 -38t12 -39q-5 -42 -17 -77t-41 -64q4 -14 18 -24.5
t20 -24.5q30 -12 39 -33q-5 -6 -7 -16t12 -12h6v0zM186 487q0 -4 -2 -7.5t-6 -3.5q0 -20 14.5 -37.5t31.5 -25.5q19 -6 39.5 -2t35.5 19q5 5 6 11.5t1 13.5q0 8 0.5 15t5.5 12q5 19 -1.5 31t-17.5 27q-8 0 -14 1t-11 7q-14 4 -30.5 0.5t-26.5 -14.5q-3 -3 -5.5 -8.5l-5 -11
t-6.5 -9.5t-11 -4q-4 -2 -3.5 -3t2.5 -2.5t4 -3.5t0 -5zM337 212q8 2 8.5 6.5t-2 10t-5.5 11.5t-1 11q-4 6 -13.5 15.5t-22.5 11.5q-2 -2 -2 -6v-7q-6 -3 -7.5 -10t-1.5 -14q0 -6 -1.5 -12t-9.5 -8q0 8 -1.5 17.5t4.5 20.5q5 8 1 14t-4 11q-4 4 -6 8.5t-10 2.5
q-3 -4 -6.5 -3.5t-7 2.5t-7.5 4t-7 0q-5 -1 -5.5 -3.5t-0.5 -5.5t-0.5 -6t-4.5 -5q-6 0 -4.5 3.5t-3.5 7.5q-14 -4 -27.5 -11t-24.5 -22q0 -4 4.5 -6t9.5 -10q0 -2 -3.5 -5.5t-7.5 -8.5q-2 -4 -6 0.5t-8 -0.5q0 -4 -3 -7.5t-3 -11.5h17q1 -1 1 -3q0 -3 -1 -3q0 -2 -5 -5
q-3 -2 -6 -3q-2 -5 -0.5 -10t4 -9.5l5 -9t2.5 -9.5q20 -29 53.5 -35t64.5 2q13 10 27.5 14t22.5 19q4 10 -0.5 20.5t0.5 23.5q0 2 -1.5 7.5t6.5 5.5zM428 45q6 0 10 -3.5t4 -7.5q0 -5 -5 -2t-9 7v6v0z" />
    <glyph glyph-name="nine" unicode="9" horiz-adv-x="494" 
d="M452 504q4 -11 3 -19t7 -19q-2 -2 -6 -1l-8 2t-7 0t-3 -7q-2 -27 -9.5 -52t-18.5 -48.5t-24.5 -46t-26.5 -44.5q4 -5 2.5 -8t-4.5 -6t-5 -6t2 -9q-7 -3 -9.5 -10t-2.5 -16q0 -8 1 -16.5t1 -16.5q-7 4 -11.5 7t-12.5 3q-9 -7 -9.5 -17t0 -20t-2.5 -17.5t-18 -9.5
q-4 -7 -3 -17t-6 -18q3 -14 -7 -19.5t-17 -8.5l-35 -64q-26 4 -51 16.5t-47 27.5q2 6 -2 10t-8.5 8t-5.5 9t6 12l15 -10q11 11 18 28.5t11 35.5q-1 2 -3 3q-4 2 -6 2q0 3 1 5q2 4 3 4q4 -7 12.5 -4.5t11.5 9.5q0 6 4.5 12.5t7.5 12t3 9.5t-9 6q0 11 3.5 24.5t11.5 24.5
l9 -14q8 7 14 14t6 14q-8 8 -17 7t-17 3q-33 4 -57.5 20t-50.5 34q0 11 -7.5 17t-15.5 11t-12.5 11.5t0.5 19.5q-9 5 -10.5 12.5t-0.5 15t1.5 14.5t-4.5 12v64q7 23 13 44t21 39q41 52 94.5 71t116.5 8q48 -8 84 -42.5t59 -75.5q3 -11 7 -24t12 -20q4 0 5 2t4 2zM315 446
q6 9 3 15.5t-9 11t-13 8.5t-11 9q4 4 10 4.5t11 0.5q4 0 4.5 3t0.5 6q-8 4 -11.5 12.5t-14.5 8.5q-2 -2 -2 -4t-1 -4t-1 -3q-8 -4 -12 1l-8 10q-3 7 4 7t11 7q-4 6 -7 5.5t-5.5 -2.5t-5.5 -5t-6 -3l-5 15q-26 8 -45 -4t-34 -31q-11 -14 -14.5 -34t-0.5 -39q8 -8 13.5 -19
t16.5 -15q4 -11 13.5 -16t20.5 -9q11 -5 19 -2t15 7.5t14 7.5t16 -3q28 22 34 54zM188 519q4 0 2.5 -3t2.5 -7h-5v10v0z" />
    <glyph glyph-name="zero" unicode="0" horiz-adv-x="515" 
d="M15 222v-5v5zM320 371l5 -5zM131 33v-5q-1 0 -4 3q-1 1 -1 2h5zM320 347q-4 4 -3.5 6t2.5 4l4 4t2 5q0 -4 -0.5 -9.5t-4.5 -9.5zM320 396q10 0 10 -10l-10 -10q-4 4 -4 10t4 10zM484 429q0 -58 -1 -116.5t-9 -110.5q-5 -29 -15.5 -57t-26 -53t-37.5 -44t-51 -30
q-5 -9 -14 -10t-19.5 -0.5t-20.5 -1t-18 -12.5q0 -4 -9 -4q-8 0 -15 4q-4 8 -8 3.5t-12 -8.5q-11 4 -22.5 7t-25.5 3q5 11 2 15.5t-10 7.5t-14.5 6t-11.5 10q-6 -2 -10 2t-7 7.5t-6 4t-7 -8.5q-9 0 -12.5 4.5t-6.5 10t-7 11t-13 7.5q-3 8 -5.5 13t-2.5 16q0 5 8 5q0 5 -4 11
q-2 3 -4 4q-8 0 -9.5 2.5t-5.5 2.5q0 4 2 7t4 5.5t2.5 5.5t-3.5 6q-7 3 -7.5 8.5t0 12t0.5 13.5t-8 14q6 6 4 10t-6 7.5t-6 7.5t3 9q-7 47 -1 94t6 94q4 18 5.5 36.5t9.5 36.5q4 24 14.5 49t26.5 47t37.5 39.5t47.5 24.5q36 11 76 11.5t76.5 -11.5t66.5 -37t46 -65
q11 -29 18.5 -61t15.5 -65zM228 -1q4 8 1.5 9t-6.5 1q-4 -4 -4 -7t4 -3q2 -1 3 -2q2 -2 2 2zM349 299q4 9 3.5 19.5t-2 22t-2.5 23t1 22.5q7 0 9.5 4.5t2.5 11.5t-1 14t-1 13q-4 4 -2.5 12t-2.5 12h-5q-5 -2 -7.5 0.5t-3.5 6t-1 7.5t-2 6q-4 4 -3 7t3 5.5t4 5.5t0 6
q-10 26 -33 44t-49 14q-7 2 -11 -2t-8 -8.5t-8 -7t-12 2.5q-16 -12 -25.5 -27t-15 -31.5t-8 -33.5t-4.5 -34v-158q4 -29 8 -57t26 -50q14 -22 38 -29.5t50 0.5q23 13 37.5 31.5t22 40.5t10 47t2.5 50q0 4 -5 3t-5 7z" />
    <glyph glyph-name="oe" unicode="&#x153;" horiz-adv-x="900" 
d="M673 329q-8 -8 -16 0q0 8 8 11t8 -5v-6v0zM712 178q0 5 10 5q0 -1 -1 -2t-1.5 -2t-2.5 -1h-5zM527 172v11h6v-11h-6zM755 128q8 -6 18.5 -9.5t21 -7.5t20 -9.5t15.5 -15.5q-20 -25 -43 -40.5t-43 -35.5q-37 -8 -76 -9t-76 3q-6 -8 -12 -9t-12 1t-12 5t-12 3
q-5 5 -12 10.5t-15 0.5q-17 8 -30 19.5t-24 23.5q0 5 -0.5 8.5t-5.5 8.5q-8 0 -11 -6t-11 -11l11 -5l-11 -11q0 4 -1 7q-1 2 -1.5 4t-2.5 0q-4 -4 -9.5 -6.5t-10.5 -5t-7.5 -6.5t-0.5 -10q5 -3 2.5 -4t-2.5 -6q-10 6 -19 5t-17.5 -4.5t-17 -7.5t-16.5 -4q-16 -4 -32 -4.5
t-32 -0.5q-4 -6 -8 -4.5t-8.5 4.5t-8.5 4.5t-8 -4.5q-6 4 -13.5 5t-15 1.5t-14.5 2t-11 7.5q-8 -4 -14 -3t-11 4l-10 6t-13 3q-2 2 -2 6v7q0 4 -1.5 6.5t-7.5 2.5l-6 -5q2 6 -1 12t-9 12t-12.5 11t-10.5 9q-19 0 -26 16l6.5 13t-1.5 13q-14 2 -20 9.5t-8.5 18t-2.5 21.5
q0 12 -2 22q8 6 10.5 15.5t2.5 20.5v23q0 12 4 22q4 25 16.5 44t20.5 42q0 5 -5.5 6t-5.5 5q8 8 16.5 5t16.5 1q21 25 50.5 39t58.5 26q0 4 0.5 8t4.5 8l16 -5q0 -1 1 -3q2 -3 4 -3q4 0 6.5 3.5t4.5 6.5t4.5 4t6.5 -3q4 -8 10.5 -9.5t14 -1t13.5 0.5q7 0 11 -6
q20 8 37.5 3.5t33 -15t30 -24t29.5 -24.5q8 5 18.5 5.5t18.5 0.5q13 12 25 21t24 17l-10 5q-2 2 -0.5 3t4.5 2t6.5 2.5t5.5 3.5q4 -5 5 -8t6 -3q11 4 12.5 13t8.5 9q9 -11 16 -11q8 8 16.5 12.5t16.5 9.5q6 -10 16 -14.5t21 -5.5t22.5 -0.5t21.5 -1.5q37 0 65 -20t48 -45
q29 -41 44.5 -85.5t10.5 -98.5l-162 -6q-6 0 -8 -3.5t-2.5 -7t-1.5 -7t-5 -3.5q-4 8 -6 15t-10 12q-8 -5 -13 -4t-9 -7q-6 6 -14.5 7.5t-18 1t-19.5 -2t-18 -1.5q-5 0 -7 -4.5t-10 -0.5q-3 8 -16.5 9t-25.5 -4q-4 -6 -3 -12.5t4.5 -14t8 -16t6.5 -16.5q28 -28 64 -36.5
t76 -0.5q11 0 20 6.5t19 13t20.5 11t22.5 0.5zM533 313q-5 -8 -6.5 -15.5t6.5 -12.5q24 -4 54 -6t54 6q49 -17 97 0q8 0 7 6t-1 11q-8 8 -15 20.5t-23 12.5q0 8 -9.5 12.5t-17.5 7.5q-10 -6 -22 -4.5t-23.5 4t-22.5 2t-19 -10.5q-20 4 -33.5 -8.5t-25.5 -24.5zM382 161
q10 12 11 24.5t-1 25.5t-4.5 28t-0.5 31q-4 2 -5.5 6t-3.5 8t-6 6.5t-12 0.5q-6 4 -6.5 6.5t2 4.5t4.5 4.5t0 6.5q-14 -8 -28 0q0 8 3.5 9.5t7.5 1.5q0 4 -3 5t-8 6q-4 4 -8.5 9.5t-12.5 1.5v-17q-6 -6 -11 -5t-10.5 5.5t-10.5 11t-11 10.5q-17 3 -32.5 -3t-32.5 -19
q-16 -10 -26 -24.5t-15.5 -32t-7 -36.5t-1.5 -37q8 -4 11 -10t4 -12.5t2 -13.5t5 -13q21 -29 49 -42.5t65 -5.5q14 -2 26.5 4t24 15.5t22 20.5t20.5 19zM760 178v5h6v-5h-6z" />
    <glyph glyph-name="acute" unicode="&#xb4;" 
d="M464 663q-6 -6 -8.5 -13t-4 -14.5t-4.5 -15t-11 -14.5q0 -3 -6 -3t-11 3q-5 0 -5.5 -2.5t-0.5 -7.5l6 -6l-6 -6q0 5 -0.5 8.5t-5.5 3.5q-6 -2 -6 -7t0.5 -10t-1 -8.5t-9.5 -3.5q-4 4 -9.5 2.5t-10.5 -5.5t-9 -9.5t-6 -9.5q0 -5 4.5 -5.5t12.5 -0.5q-8 -9 -16.5 -17
t-16.5 0q-5 0 -10 -6t-13 -11q-8 -2 -17 -1t-17.5 1.5t-15.5 -1.5t-12 -10q-4 -2 -5 -0.5t-1.5 4.5t-2.5 7t-8 6q0 8 9 16.5t14 17.5q17 29 34.5 62t38.5 62q34 0 65 -0.5t65 -5.5z" />
    <glyph glyph-name="registered" unicode="&#xae;" horiz-adv-x="738" 
d="M521 239q0 -9 -1.5 -20t-1.5 -23q0 -11 3 -21.5t12 -17.5l6 -16q-9 0 -18.5 2t-23.5 2q-6 0 -17.5 -1t-22 1t-16.5 8.5t-2 21.5q-4 11 -3 25.5t1 29.5t-4 28t-17 22q-11 5 -21 4.5t-20 -1.5t-20 -1t-21 4q-18 -6 -21 -17.5t-1.5 -24.5t3.5 -26.5t-5 -24.5q0 -7 2.5 -12.5
t5 -11.5t3 -11.5t-4.5 -12.5q-9 2 -19.5 1t-21.5 -2t-21.5 0t-18.5 7v346l6 6q33 -7 71.5 -2t75.5 6t69.5 -9.5t51.5 -47.5q0 -6 4.5 -12t9 -11.5t7 -11t-2.5 -12.5q-9 -11 -8 -23.5t2 -24.5t-2.5 -22.5t-21.5 -16.5q-2 -4 -0.5 -8t4.5 -7t5.5 -6.5t2.5 -8.5
q0 -13 1.5 -25.5t10.5 -21.5zM422 362q17 5 17 22v31q-11 13 -25.5 16.5t-31 3t-33.5 -2t-33 0.5q-4 -7 -3.5 -14.5t2 -14.5t2.5 -13t-1 -11q-10 -20 0 -30q27 -5 53 1t53 11zM680 199q8 -7 8 -13q0 -5 -3.5 -11t-9 -11.5t-7.5 -12.5q-2 0 -3.5 -2.5t-3 -4.5t-4 -2.5
t-7.5 3.5q-2 -4 -6 -8t-7.5 -9t-5 -10.5t0.5 -12.5q0 -5 -3.5 0.5t-8.5 5.5q-11 -4 -13 -13.5t-3 -18t-5.5 -12.5t-19.5 3q-17 -14 -35 -26.5t-41 -21.5q-4 -6 -11 -7.5t-14.5 -2t-14.5 -1t-12 -5.5l-18 -6h-88q-42 0 -82 18q-43 11 -81.5 36.5t-68.5 61t-50 78t-27 86.5
q-9 97 28 178t113 138q39 31 87.5 45.5t99 15t99 -12t88.5 -36.5q39 -22 66.5 -58t50.5 -71q15 -31 23.5 -67t10 -73.5t-3.5 -73.5t-18 -66zM591 187q18 24 28 55.5t12 65t-3.5 66t-18.5 59.5q-14 26 -31.5 50.5t-38.5 41.5q-26 24 -62 39.5t-75 20.5t-78 -0.5t-72 -23.5
q0 -13 -4.5 -15.5t-11.5 -2.5t-13.5 -2t-11.5 -16q2 -13 -4 -15.5t-14.5 -3.5t-17 -4t-10.5 -17q5 -9 2 -17t-8 -12q-13 2 -17 -3.5t-5.5 -13l-3 -15t-10.5 -9.5q-4 -5 -4 -13t4 -16q0 -9 -4 -17t-13 -13q2 -10 2 -22v-24q0 -11 1.5 -21.5t8.5 -19.5q6 -33 23 -64t41 -57
t54 -44.5t63 -27.5q84 -18 161.5 9t130.5 102z" />
    <glyph glyph-name="dagger" unicode="&#x2020;" horiz-adv-x="607" 
d="M371 668v-30q-9 -48 -11 -97t-6 -103q13 -9 29.5 -4.5t34.5 4.5q32 5 62.5 6t62.5 5l5 -5v-101q-9 -8 -21.5 -6.5t-26.5 1.5q-30 9 -55 11t-56 6q-9 5 -18 4t-17 -9q0 -32 0.5 -62t4.5 -56q0 -102 7 -194.5t11 -189.5l-6 -6q-32 0 -62 1.5t-56 -7.5l-5 -5q0 6 3.5 11.5
t6 11.5t2.5 14q0 7 -7 16q-7 4 -7 9q0 4 2.5 9t6 10.5t3.5 11.5q5 36 4.5 76.5t-9.5 72.5q5 0 8 5q2 3 4 5q-5 14 -2 23.5t8 19.5q0 17 1 33.5t-7 30.5q7 18 8.5 35.5t1.5 35.5t-0.5 35.5t1.5 35.5q-7 15 -16.5 19t-21 3t-24.5 -4t-26 0q-27 -5 -56 -10t-56 3q4 5 5.5 12
t1.5 15t-0.5 15t-0.5 11q-5 5 -11 12.5t-1 12.5q5 4 9.5 11t-3.5 12q14 6 28 7t28 -1.5t28.5 -6t27.5 -5.5q9 2 21.5 0.5t24.5 -2t22 3t15 16.5q6 11 6 21q0 11 -2.5 22t-6 22.5t-3.5 22.5q-5 5 -10.5 13t-1.5 17q0 8 6 14.5t6 14.5q-13 5 -17 12.5t5 17.5q9 9 8 17.5
t4 17.5h106z" />
    <glyph glyph-name="yen" unicode="&#xa5;" 
d="M552 671l7 12q5 -14 4 -25t-11 -25q-2 -4 -7 -8t-9.5 -9t-7.5 -11t0 -15q-5 -9 -4 -21.5t-9 -22.5q0 -7 -4 -11t-9 -7.5t-10.5 -7.5t-7.5 -11q-4 -4 -3.5 -11.5l1 -15t-2 -14t-13.5 -8.5q-10 -20 -20 -39t-5 -42q0 -5 -3 -6t-3 -6l6 -12h99q2 -10 1 -19.5t-2.5 -18.5
t-0.5 -18.5t8 -18.5q-9 0 -18.5 -3.5t-18 -6t-16.5 -1t-15 10.5q-23 0 -48 -2t-39 -16q0 -10 -5.5 -16.5t-0.5 -15.5q5 -7 11.5 -8.5t13.5 -1t13.5 2t11.5 1.5q5 9 13 13t18 -1q0 -5 2.5 -6t-2.5 -6q19 -9 49 0l2 4q2 4 -2 8h25q5 -23 3 -49t3 -50q-4 -4 -8 -2l-4 2
q-10 7 -18.5 4.5t-16.5 -6t-16 -4t-17 11.5q-9 0 -20.5 1.5t-22.5 0.5t-21 -6.5t-17 -19.5q0 -10 -1.5 -25t7.5 -25l-6 -68h-130q-9 32 -7.5 65.5t1.5 70.5q-5 5 -13 5q-7 0 -12 -5q-5 0 -9.5 -3t-9.5 -3q-9 14 -25 12.5t-30 -6.5q-5 -7 -11 -7q-5 0 -11 2.5t-11.5 4.5
t-10.5 0q-7 7 -10 17t-3.5 21t0 22.5t0.5 20.5q21 2 39.5 2.5t35.5 0.5t35.5 0.5t39.5 2.5q9 9 7.5 25t-1.5 25q-9 9 -22 7.5t-22 -1.5q-12 -12 -22.5 -10.5t-21 6t-21 8t-22.5 -3.5q-5 -5 -12.5 -2.5t-12.5 2.5q3 12 1 26t-2 27t5 22.5t21 11.5q3 -7 7.5 -9t9.5 -2
t10.5 0.5t10.5 -1.5l12 12q2 -7 6.5 -9t9.5 -2q6 0 11.5 0.5t9.5 -1.5l6 12q-23 51 -46.5 102t-52.5 102q-2 14 -7.5 26t-11 23.5t-11 24t-7.5 26.5h93q9 5 15 11t16 1q12 -16 20 -33.5t15.5 -35t16.5 -34.5t22 -34h13l12 -37q-5 5 -6 8.5t-6 3.5q-5 -9 -2 -16.5t8 -7.5
q5 -5 6 -2.5t6 2.5q2 0 3.5 -5t4 -10.5t6.5 -10.5t11 -5q28 51 49.5 102t50.5 103q5 0 9 4.5t9 -4.5q9 2 19 1t18.5 -2t15 1.5t8.5 11.5q8 2 12 -1.5t8.5 -7.5t9.5 -6t14 3z" />
    <glyph glyph-name="dieresis" unicode="&#xa8;" 
d="M201 632q9 -9 23 -16t14 -21q5 -7 4.5 -15.5t-0.5 -16.5q0 -7 2.5 -12t12.5 -5q4 -10 -2.5 -14.5t-11.5 -4.5q-18 -5 -30 -14.5t-31 -9.5t-39 11.5t-29 31.5q2 14 0 26.5t-1.5 24.5t7 22.5t24.5 19.5q10 -5 26.5 -6t30.5 -1zM462 576q0 -4 5.5 -9.5t1.5 -14.5h-7
q0 5 -1 5.5t-6 0.5l-6 -6q0 -2 2 -5.5t3 -7t0.5 -7t-5.5 -5.5q-12 -3 -22.5 -9.5t-21.5 -12.5t-22.5 -7.5t-25.5 5.5q-39 18 -39 68q0 14 9 30t23 26q14 4 31 2.5t32 2.5q9 -4 14.5 -11.5t10 -15.5t10 -16t14.5 -13z" />
    <glyph glyph-name="Oslash" unicode="&#xd8;" horiz-adv-x="793" 
d="M695 690q-6 -6 -15.5 -2t-15.5 10l8 23q6 0 11.5 -5t11.5 -11v-15v0zM726 479q6 0 8 -5t8 -11q0 -5 -4 -7q-2 -1 -4 -1zM750 377q6 -5 7 -10q1 -3 1 -5q-3 -6 -8.5 -7t-11.5 -2t-11 -3.5t-8 -11.5q0 -15 -4.5 -30.5t-8.5 -32t-4 -32.5q0 -15 9 -30q-3 -12 -8.5 -20
t-12 -15t-13.5 -15t-13 -20q-53 -54 -117 -90.5t-141 -42.5q-12 6 -23.5 2.5t-22.5 -8t-21 -5.5t-19 11q-12 -9 -18.5 -6.5t-11.5 8.5t-10.5 11.5t-14.5 2.5q-5 5 -15 10t-16 5q-6 -6 -10.5 -12.5t-9.5 -11.5t-11.5 -7.5t-15.5 0.5q6 6 16 16.5t16 22.5q-9 6 -15.5 3
t-11.5 -9.5t-9.5 -14t-10.5 -10.5q-9 -6 -17 -15.5t-16.5 -18t-19 -15t-25.5 -6.5q3 6 6.5 8t6.5 3.5t4 3.5t-2 8q-11 18 -24 23t-31 17q-3 0 -3.5 -2.5t-1 -5.5t-2.5 -5.5t-8 -2.5t-3 5t3 11q9 15 24 26t27 21.5t15.5 23t-11.5 30.5q-6 6 -11 12t-5 12q12 -12 19.5 -26
t19.5 -14q6 18 -3 31t-20 24q-3 18 -11.5 32l-17 28t-13 29.5t1.5 35.5q-5 6 -11 7t-12 1v16q6 0 12 4.5t11 10.5q3 15 0.5 32t-4 33.5t1.5 32t18 27.5q-6 21 2 35t22 27t29.5 25.5t24.5 30.5q48 47 104 67t115 26q35 0 68.5 -3t56.5 -20q12 11 14 19t2 20q11 0 14 -4t9 -4
q0 -6 -3.5 -9.5t-8 -6.5t-8 -6t-3.5 -9q17 -12 31 -19t31 -12q12 6 21 16.5t19 21.5t20.5 20t25.5 12q12 -6 20 -19.5t19 -19.5q0 9 4 11.5t9 3t10 1.5t8 7q3 -6 1 -10.5t-5.5 -9.5t-7 -11.5t-3.5 -15.5q-6 -9 -15.5 -17.5t-19 -19t-17.5 -22.5t-11 -27q24 -35 43.5 -74.5
t19.5 -81.5q6 -11 15.5 -9.5t15.5 1.5q0 6 4 4t4 4zM297 307q29 42 67 77.5t73 70.5q0 12 2 25.5t14 13.5q0 9 -6.5 13t-15 5.5t-18 2t-15.5 3.5q-6 -12 -20.5 -9t-26.5 9q-23 0 -41.5 -14t-36.5 -25q6 -12 3 -17.5t-9.5 -8.5t-14 -5t-10.5 -8l-12.5 -25t-10 -27t-3 -28.5
t9.5 -29.5q6 0 12 4t12 4q6 -12 9.5 -23.5t-1.5 -23.5q-12 0 -16 9t-16 15q-9 -3 -10 -9.5t1.5 -15t5.5 -16.5t3 -14q12 -6 21 -1.5t17.5 13t16 19t16.5 16.5zM539 260q3 15 0 29.5t-7.5 28t-8 26.5t-0.5 25q6 6 8 11t8 5v16h-8v-16q-9 6 -16 3t-14 -9.5t-13 -14t-12 -10.5
q0 -15 -6.5 -25.5t-17 -19.5t-22.5 -16.5t-24 -16.5q3 0 3.5 -2.5t0.5 -5.5t0.5 -5.5t3.5 -2.5q-3 -3 -7 -8t-8.5 -8.5t-8.5 -4.5t-7 5q-18 -17 -37.5 -36t-25.5 -42q18 -11 44.5 -13t49.5 -2q21 6 40.5 17t36.5 25.5t29.5 31.5t18.5 35zM547 346v8v-8z" />
    <glyph glyph-name="ae" unicode="&#xe6;" horiz-adv-x="893" 
d="M854 281q0 -20 2.5 -40.5t-2.5 -45.5q-8 -2 -17.5 -1t-19 1.5t-18.5 -1.5t-15 -11q-29 13 -54.5 12.5t-54.5 -0.5h-163q-6 -4 -5.5 -10t3.5 -12.5t7 -13t6 -12.5q6 -9 13.5 -17.5t15.5 -15.5t17 -10t19 -1l12 -11q3 8 11 9.5t16 1.5q5 -5 8.5 -8t12.5 -3q8 17 22.5 20
t27.5 6q0 -4 9 -4q4 2 8.5 6t9 7.5t10 5t11.5 -2.5q17 -9 32.5 -13t32.5 -20q8 5 13.5 -1.5t13.5 -15.5q-8 0 -12 -1t-4 -9q0 -5 -3 -12t-8 -15l-16 -5q-5 0 -6 2.5t-5 2.5q-41 -33 -93 -40.5t-114 -3.5q-16 8 -32 14t-33 19q-3 0 -7 -2q-2 -1 -3 -3q2 -8 -1 -11t-7 -4
t-8 -0.5t-6 -1.5l-82 5q0 5 -1.5 11t-9.5 6q-4 0 -7 -1.5t-3 -9.5q-29 0 -54 -9.5t-50 -17.5q-10 6 -21 6.5t-22 0t-22.5 0.5t-22.5 9q-28 8 -53 25t-45.5 40t-34 50.5t-17.5 57.5q-9 74 18.5 136.5t89.5 103.5q27 18 59 26t65 5.5t64.5 -16t55.5 -37.5q5 0 8 3.5t3 8.5
q0 4 -0.5 10t0.5 11.5t5 9t12 1.5q12 -2 25 -1t25 1q13 0 25 -3t22 -13q20 4 42 15t46 11q69 5 126.5 -20t95.5 -83q10 -6 13.5 -14.5t5 -18.5t3.5 -19.5t10 -18.5zM371 141q24 32 25.5 71t-14.5 75q-8 24 -32.5 42.5t-48.5 22.5q-8 6 -15.5 4.5t-14 -4.5t-12.5 -4.5
t-12 4.5q-5 -4 -8.5 -7.5t-3.5 -8.5q-13 -5 -21.5 -15t-16.5 -8q0 5 2 8.5t-2 3.5q-20 -9 -33.5 -32.5t-10.5 -47.5q5 2 11 2t6 -2q0 -13 -2 -23.5t-15 -15.5q-3 -17 3 -29t14 -20q8 -4 13.5 -12t12 -16t14.5 -14t20 -6l5 15q9 0 11.5 -5t9.5 -5q5 0 5.5 -4t0.5 -13
q33 -4 58.5 11.5t50.5 32.5zM740 287q0 28 -27 38q-5 17 -21 22.5t-33 10.5q-9 2 -18 0t-18.5 -4.5t-19.5 -4t-20 2.5q-20 -4 -35.5 -18t-24.5 -30q-4 -8 -2.5 -10t-2.5 -7q0 -2 3 -5q1 -1 2 -1q0 9 3 14.5t3 14.5q8 -2 8.5 -7t-1 -10t-2.5 -8.5t5 -3.5h179zM185 163
q5 0 8.5 -3.5t3.5 -8.5q-4 -2 -8 2l-4 4v6v0z" />
    <glyph glyph-name="ellipsis" unicode="&#x2026;" horiz-adv-x="857" 
d="M801 130q-9 -2 -9.5 -6.5t3 -10.5t8 -13t4.5 -14q9 -2 11 -6.5t1 -9.5t-3.5 -10t-2.5 -10q-9 -23 -23.5 -36.5t-37.5 -18.5q-19 0 -36 5.5t-31 19.5q-10 14 -14.5 33.5t8.5 32.5q0 23 18.5 32t36.5 17q5 -4 13 -2t18 2q2 9 7 11t11 0t11 -7t7 -9zM61 124h-11v6q5 4 8 1.5
t3 -7.5zM171 117q9 -7 13 -17.5t5 -22.5t-1 -24.5t-4 -21.5q-14 -23 -38.5 -29.5t-47.5 -6.5q-12 4 -19.5 12t-13.5 16.5t-12.5 17t-15.5 15.5q0 10 -2.5 17.5t2.5 12.5t6.5 2.5t6.5 -2.5l17 31q9 7 23 11t29 4.5t29 -3t23 -12.5zM477 130q7 -12 13.5 -26t9.5 -29t1 -29.5
t-11 -25.5q-19 -14 -38 -19.5t-42 -5.5q-14 9 -26 19t-17 24q0 9 -2.5 18t-4 18t-1 18.5t7.5 18.5q9 2 20 8t24 10t26 4q14 0 28 -9q5 5 6 7.5t6 -1.5z" />
    <glyph glyph-name="oslash" unicode="&#xf8;" horiz-adv-x="575" 
d="M505 477q-5 -5 -11.5 -2t-9.5 5l4 18q5 0 8.5 -3.5l8.5 -8.5v-9v0zM526 329q4 0 5.5 -3t6.5 -8q0 -3 -3 -3h-4zM543 259q3 -3 5 -7q1 -2 1 -3q-2 -4 -6 -5t-8.5 -1.5t-8.5 -2.5t-6 -8q0 -10 -3 -21t-5 -22t-2 -22t7 -21q-5 -17 -15 -24.5t-18 -25.5q-38 -35 -82 -61
t-98 -31q-7 5 -15 2.5t-16 -5.5t-15 -4t-13 7q-8 -5 -12.5 -3t-8 6t-7.5 7.5t-11 1.5q-4 5 -9.5 7.5t-10.5 2.5q-9 -8 -15 -17t-18 -5q5 5 11 12.5t10 14.5q-5 5 -9 3t-8 -6.5t-7.5 -9.5t-7.5 -7q-6 -4 -11.5 -11t-11.5 -13t-13 -10.5t-17 -4.5q4 8 8.5 8.5t0.5 9.5
q-7 11 -16 14t-20 12q-5 0 -4 -6t-8 -6q-5 0 -2.5 4t2.5 8q6 10 16.5 18t19 15.5t11 16.5t-7.5 21q-5 3 -8.5 6.5t-3.5 8.5q9 -8 14 -17.5t12 -9.5q5 12 -1 21t-13 18q-2 12 -8.5 21.5t-12 19t-8 20.5t1.5 25q-5 4 -9 4.5t-9 0.5v12q5 0 9 2.5t9 6.5q2 10 -0.5 22t-3.5 24
t1 23t12 20q-3 14 2.5 23.5t15.5 18t20.5 17.5t16.5 21q32 33 71.5 46.5t79.5 17.5q26 0 48.5 -1.5t38.5 -12.5q8 7 9.5 12t1.5 14q9 0 11 -2.5t5 -2.5q0 -9 -8 -11.5t-8 -9.5q12 -9 21.5 -14t22.5 -9q8 4 14.5 11.5l13 15t14 14t17.5 8.5q8 -4 13.5 -14t13.5 -12
q0 5 2.5 6.5t5.5 1.5q4 0 7.5 1t5.5 5q2 -4 1 -7t-3.5 -6.5t-4.5 -7.5t-2 -11q-9 -12 -24.5 -25.5t-19.5 -33.5q16 -25 30 -52.5t14 -56.5q2 -8 9 -7t12 1q0 5 2.5 3t2.5 3zM228 212q21 28 47 53t50 50q0 7 1.5 16.5t10.5 9.5q0 6 -4 8t-10 3t-12.5 1.5t-11.5 2.5
q-5 -7 -15 -5.5t-18 5.5q-16 0 -29 -9t-24 -18q4 -8 1.5 -11.5t-7 -5t-9.5 -3t-6 -6.5q-4 -8 -9 -17t-8 -19t-2 -20.5t7 -20.5q5 0 9 3t6 3q5 -8 7.5 -15.5t-1.5 -16.5q-7 0 -9.5 6.5t-11.5 10.5q-6 -2 -7 -6.5t0.5 -10.5t4 -12t2.5 -10q8 -4 14.5 -1t12 9.5t10.5 14
t11 11.5zM396 178q2 10 0 20t-5 19.5t-5 18.5t1 17q3 5 4 8.5t5 3.5v11h-5v-11q-6 4 -11 2t-9.5 -6.5t-8.5 -9.5t-8 -7q0 -20 -17 -31.5t-33 -23.5q5 0 3.5 -5.5t3.5 -5.5q-3 -2 -6 -5.5t-6 -6.5t-6 -3q-2 0 -4 4q-13 -11 -26 -24.5t-18 -28.5q12 -9 30.5 -10.5t35.5 -1.5
q28 9 53 30.5t32 45.5zM402 238v6v-6z" />
    <glyph glyph-name="logicalnot" unicode="&#xac;" 
d="M518 476l11 -11l-5 -268q-4 -8 -10.5 -7.5t-12.5 2t-12 0.5t-11 -12q-4 0 -11 -2t-12 2q-28 -8 -56 0q13 5 16.5 13t2.5 18t-2.5 21.5t0.5 21.5q0 5 -2.5 5.5t-5.5 0.5t-4.5 1t0.5 5q11 2 13.5 6.5t1.5 10.5t-3 12t0 10q-5 9 -9 10.5t-8 1.5q0 4 3.5 5.5l7 3t6 4.5
t0.5 10l-12 11l8.5 8.5t3.5 8.5l-6 6h-119q-5 -9 -12.5 -11t-16.5 -6q-4 2 -4 5q0 4 0.5 7t-0.5 5t-7 0q-2 -6 -6 -8t-8.5 -2.5t-8.5 -1.5t-6 -5h-17q-2 4 -0.5 5.5t4.5 2.5t5.5 3t2.5 6q-30 4 -57 2t-57 -2v102h57h358z" />
    <glyph glyph-name="ordmasculine" unicode="&#xba;" horiz-adv-x="390" 
d="M357 468q0 -5 -4 -11q-2 -3 -5 -6q-7 0 -9 4.5t-9 4.5l-9 -18q14 -7 10.5 -18t-10.5 -18q-10 -13 -20 -15t-19.5 -1.5t-19.5 0.5t-20 -10q-34 -7 -66 -6t-58 15q-40 33 -58 77t-4 91q7 33 35.5 62.5t61.5 43.5q23 3 44.5 0.5t41.5 -9.5t38.5 -16t34.5 -19
q20 -9 27.5 -20.5t8 -24.5t-3 -27t-5 -28t1.5 -27t16 -24zM224 477q14 14 19 28t-1 34q-3 14 -11 21t-18 10.5t-21 4t-21 0.5q-14 -7 -17 -19t-10 -26q17 -3 18 -9.5t-1.5 -14t-2.5 -15.5q0 -7 13 -14q3 -10 9.5 -11t14 1.5t15 6t14.5 3.5z" />
    <glyph glyph-name="periodcentered" unicode="&#xb7;" 
d="M373 426q21 -20 31 -50.5t-3 -57.5q-8 -7 -9 -14t-1 -12q0 -4 4 -4.5t8.5 -1.5t6.5 -3.5t-1 -9.5q-6 -7 -9.5 -11.5t-17.5 2.5q0 7 -9.5 11.5t-16.5 -2.5q-14 -13 -37.5 -11t-44.5 2q-27 14 -41.5 38.5t-21.5 51.5q7 28 21.5 52.5t41.5 38.5q27 6 53 3.5t46 -22.5z" />
    <glyph glyph-name="periodcentered" unicode="&#x2219;" 
d="M373 426q21 -20 31 -50.5t-3 -57.5q-8 -7 -9 -14t-1 -12q0 -4 4 -4.5t8.5 -1.5t6.5 -3.5t-1 -9.5q-6 -7 -9.5 -11.5t-17.5 2.5q0 7 -9.5 11.5t-16.5 -2.5q-14 -13 -37.5 -11t-44.5 2q-27 14 -41.5 38.5t-21.5 51.5q7 28 21.5 52.5t41.5 38.5q27 6 53 3.5t46 -22.5z" />
    <glyph glyph-name="copyright" unicode="&#xa9;" horiz-adv-x="740" 
d="M445 230q-5 0 -5.5 0.5t-0.5 4.5zM345 454q-11 3 -18.5 -2.5t-14 -14.5t-12.5 -19t-15 -17q-9 -27 -12 -57t6 -62q14 -26 38 -49.5t50 -32.5q5 0 11.5 -1t12 -0.5t9.5 3.5t4 10q4 2 10 1.5t12 -0.5t11.5 2t7.5 8v7q4 0 8.5 6t9.5 11t2.5 13t-2.5 16q13 -4 32 -1.5t33 7.5
q4 -5 8.5 -8.5t9.5 -8.5q-3 -18 -11.5 -36t-21 -34t-29 -27t-34.5 -16q-26 -9 -53 -11t-52.5 2.5t-48 15.5t-40.5 29q-22 22 -35 49.5t-18.5 57.5t-5 61.5t4.5 62.5q9 2 13 7t6.5 10.5t4.5 10.5t6 7q26 32 61 54.5t74 22.5q14 -2 28.5 -1t28 0.5t26.5 -5t24 -18.5
q32 -13 49.5 -41t22.5 -59q-9 -4 -18 -5t-18 -0.5l-18 1t-18 -1.5l-13 19.5t-14.5 20t-17 16.5t-20.5 9q-9 0 -18.5 1.5t-18.5 1.5q-8 0 -15.5 -3t-11.5 -12zM569 608q81 -63 117.5 -151.5t18.5 -191.5q-6 -42 -28 -83t-54.5 -75.5t-72 -60t-81.5 -36.5q-54 -13 -106.5 -11
t-100.5 18t-90.5 45.5t-75.5 71.5q-41 59 -54.5 130t-5.5 143q5 2 6.5 6.5t2.5 9.5t3 10t7 9q8 23 18 45t28 44v12q14 0 20.5 10.5t15.5 19.5l65 47q-2 9 1 13t8 6.5t11 4t10 5.5q5 -4 12 -7t12 2q5 14 18.5 17t22.5 7q0 -10 10.5 -8t18.5 2q7 4 14.5 3.5t15.5 -1.5t15 -1
q8 0 15 5q26 -5 49.5 -6.5t51.5 -6.5q9 -9 19.5 -14.5t21.5 -10.5t21.5 -10t19.5 -12zM616 217q-2 9 0.5 15t6 12t6 12t0.5 15q6 13 8 26.5t1.5 27t-2 27t-1.5 26.5q-5 17 -9.5 32t-9.5 32q-4 14 -11.5 22.5t-15.5 15.5t-16.5 14.5t-15.5 18.5q-4 5 -6 11t-12 1
q-8 5 -9.5 10t-1.5 14q-9 0 -18 5.5t-18 0.5q-4 14 -18.5 22t-28.5 8q-23 4 -48.5 7.5t-51.5 3.5q-9 0 -14.5 -4.5t-10.5 -9.5t-11.5 -8.5t-17.5 -0.5q-7 6 -13.5 3.5t-13.5 -7.5t-15 -8.5t-17 0.5l-21 -21t-21 -20q-23 -14 -34 -34t-25 -38q7 -9 6 -13t-5 -6.5t-8.5 -5.5
t-4.5 -10q0 -14 -4.5 -23.5t4.5 -17.5q-13 -13 -12.5 -27.5t0.5 -32.5q3 -6 6.5 -12t6 -11.5t1.5 -11.5t-7 -12q8 -23 17.5 -44t23.5 -39q5 -4 9.5 -10t9.5 -11t10.5 -8t12.5 -1q15 -27 37.5 -43t49.5 -25t56 -12t58 -3q6 0 12 4t12 8.5t13 8t15 3.5q9 9 20 10.5t21.5 2
t20 3.5t16.5 14q0 9 4 15t9.5 11t11.5 10t10 12q11 -3 17.5 2.5t11.5 14l10 17t14 12.5zM202 525q0 -8 -12 -18q-2 5 -0.5 6.5t4.5 2.5t5.5 3t2.5 6z" />
    <glyph glyph-name="glyph67" unicode="&#xdf;" horiz-adv-x="558" 
d="M347 702q5 0 12.5 -1t12.5 -6q-5 -9 0.5 -17t10.5 -8q14 5 21.5 8.5t21.5 -1.5q2 -9 8 -15.5t13 -13t13 -14t9 -18.5q-5 0 -8.5 -4t1.5 -8q0 -7 5.5 -10t10 -5.5t5 -5.5t-8.5 -10q-4 -9 5 -17.5t13 -18.5q-4 -9 -8.5 -21.5t-9.5 -26.5q7 -7 7 -14t-3.5 -14t-8 -13.5
t-7.5 -13.5q-18 -23 -40 -35t-45 -26q0 -7 4 -10t9.5 -4t12 -1.5t10.5 -2.5q28 -13 47.5 -34.5t32 -47t18.5 -54.5t6 -59q-14 -10 -13.5 -22.5t-4.5 -26.5q5 -4 5.5 -8.5t0.5 -9.5q-2 -4 -6 -6t-8 -3.5t-7 -4.5t-3 -10q4 0 2 -3q-1 -2 -2 -3q-23 -19 -47 -34.5t-50.5 -25
t-55 -12.5t-60.5 4q-23 -2 -30 11t-6 32t4.5 41t1.5 38q4 0 12.5 -3.5t17.5 -7.5q14 0 28 0.5t27 4t24 11t18 20.5q5 7 10.5 13.5t9 13.5t2.5 13.5t-10 13.5q5 9 10 24.5t-4 24.5q-5 5 -9 11t-9 1q3 9 -1 15t-10.5 11.5t-13.5 10.5t-11 12q-5 0 -9.5 -3.5t-8.5 -8.5
q0 9 -3 13.5t-8 6t-10.5 2t-10.5 3.5q-4 0 -5 -3.5t-6 -3.5l-12 12q0 23 0.5 48.5t4.5 48.5q9 9 19.5 11t20.5 3t20 5t19 17q14 14 19 35.5t0 44.5q-14 18 -31.5 30.5t-35.5 12.5t-32.5 -5t-28.5 -14q0 -4 2.5 -8.5t4 -8.5t1 -7.5t-7.5 -6.5l-11 13q-28 -20 -34 -45.5
t-3.5 -53t5.5 -55t-6 -52.5q0 -28 -1 -58t7 -53q-8 -46 -7 -100t1 -100q0 -5 3 -9.5t3 -8.5h-133q2 66 0 135t-2.5 138t3.5 137t17 132q14 36 42 65.5t55 61.5q14 -9 22 -5t14.5 10.5t13 11t18.5 -4.5q7 2 16.5 1t18.5 -1t16 3.5t9 14.5q5 -4 10.5 0.5t13.5 -0.5
q0 -9 10 -14t15 9zM438 641q-5 0 -6.5 2.5t-5.5 2.5l5 6q5 0 6 -3.5t1 -7.5z" />
    <glyph glyph-name="aring" unicode="&#xe5;" horiz-adv-x="531" 
d="M235 518q-32 17 -40.5 45t-2.5 56q8 21 21.5 32t33.5 19q22 0 39.5 -2t31.5 -16q14 -17 21.5 -40t-3.5 -44q-11 -20 -24 -35t-27 -29q-3 -3 -7 -1t-11 5q2 5 0 7.5t-6 3t-9 0t-8 -0.5q-2 5 -6 3q-2 -1 -3 -3zM244 601q-5 -6 -4.5 -9.5t4 -7t8 -7.5t6.5 -9q7 0 13 1t10 9
q7 6 9.5 15.5t-5.5 16.5q-1 5 -6 9t-10.5 5.5t-11.5 -0.5t-10 -9q0 -8 7.5 -9.5t7.5 -4.5q-1 -6 -4 -6.5t-5.5 1t-5 3.5t-3.5 2zM500 61q0 -8 -5.5 -10.5t-10.5 -10.5q0 -9 2 -18.5t-7 -14.5h-98q-6 2 -8 6t-2.5 8t-1.5 7.5t-5 6.5q-20 -8 -38 -21.5t-43 -17.5q-4 -2 -4 -5
v-7t-0.5 -6.5t-6.5 -2.5h-12q0 4 1.5 10.5t-6.5 6.5q-20 3 -37 2.5t-34 6.5q-6 2 -10 1t-8 -2.5t-7 -1.5t-8 3q-4 5 -6 12t-11 11q-12 0 -20 6t-14 14t-11.5 16t-13.5 12q-21 23 -32.5 53t-15 62t0.5 65t14 61q8 27 25.5 51t40.5 42.5t49.5 30t53.5 13.5q46 5 83.5 -9.5
t75.5 -34.5q4 4 4 9q0 6 -0.5 11.5t0.5 9t7 3.5h98l5 -6v-136q9 -5 10.5 -12t1.5 -16l-12 -5v-88q12 -4 15 -9.5t1.5 -12t-4 -13.5t-0.5 -13q3 -9 -2 -12t-10 -11q3 -6 2.5 -12t0 -12t3 -11t10.5 -9zM375 188q0 14 0.5 28t-0.5 28t-4.5 27.5t-11.5 25.5q-17 20 -40 35
t-47 20q-5 -5 -2.5 -8.5t2.5 -8.5q-2 -4 -5 -4q-2 0 -4.5 1t-5.5 1.5t-7 -4.5q0 4 -3 5q-2 1 -4 1q0 13 -9 12t-18 -1q-24 -8 -44 -32.5t-32 -49.5q0 -17 -1 -38.5t12 -37.5q-4 -15 -0.5 -25.5t11 -20t18 -18t20.5 -19.5q21 -8 47.5 -10.5t51.5 6.5q14 4 26 13.5t22 21.5
t17 26t11 26zM168 264l-5 -5v5h5z" />
    <glyph glyph-name="ccedilla" unicode="&#xe7;" horiz-adv-x="538" 
d="M499 364q0 -3 -4 -4.5t-7 -6.5q0 -8 7 -13t4 -13h-7q0 4 -3 10.5t-8 11.5q-8 -5 -15 -7t-12 -10q0 -8 6 -13.5t11 -8.5q-2 -1 -4 -3q-4 -4 -7 -4q0 14 -7 16.5t-15 7.5q-8 0 -13.5 -7t-13.5 -10v-17q-8 0 -12.5 3.5t-4.5 6.5v18q-3 5 -8.5 11t-13.5 6q-8 -5 -4 -8.5
t4 -8.5q-8 5 -14.5 4t-6.5 7q0 5 3 6t3 4q-15 8 -32.5 12.5t-35.5 4.5t-35 -4.5t-29 -12.5q-4 -3 -7 -7t-3 -8q-8 4 -18.5 -6t-15.5 -18q-10 -13 -16.5 -31.5t-8.5 -38.5t1 -39.5t13 -35.5q29 -38 69 -50t86 -4q24 3 43.5 14.5t36.5 28.5q21 -13 41.5 -25.5t41.5 -28.5
q0 -13 -8 -22t-19 -16.5l-22 -15t-17 -17.5q4 0 8 -3.5t8 -3.5q5 -3 -0.5 -3.5t-10.5 -0.5h-5q0 3 -3.5 7t-7.5 4q-8 -7 -18.5 -9.5t-22 -4t-22.5 -3t-19 -5.5q5 -8 15 -17.5t18 -21.5q8 -17 5 -35.5t-16 -34.5q-20 -25 -52 -30.5t-57 2.5q-20 0 -39 2.5t-33 18.5q4 4 6 13
t5.5 16.5t9.5 11.5t18 -2q8 -5 23 -5.5t32 -0.5q8 5 12.5 11.5t9.5 10.5q0 8 -1.5 15.5t-9.5 11.5t-22 3.5t-22 7.5q8 9 3.5 16.5t-9.5 10.5q-15 -6 -33 0q-24 21 -47.5 34t-43.5 38q-29 32 -42.5 69.5t-17.5 82.5q4 38 16.5 74t37.5 68q27 30 60 49.5t69.5 29t76 9
t78.5 -10.5q32 -13 63 -31.5t57 -51.5zM297 332q0 -4 -3.5 -4.5t-7.5 -0.5h-6q0 8 6 10.5t11 -5.5zM215 288v5q8 10 16 10zM181 234h-4l4 11v-11zM383 -7h-11q0 5 4 2.5t7 -2.5z" />
    <glyph glyph-name="uni00B5" unicode="&#xb5;" 
d="M398 465q-1 0 -3 -1q-4 -2 -4 -6h-6v7h13zM488 465q7 2 12 0.5t9 -4.5l8 -6t8 -3v-479h-121l-25 23q-7 -11 -16.5 -17t-21 -10t-23.5 -7t-24 -8t-20 0t-15 10t-13 6t-13 -10q-4 0 -9 3.5t-9.5 7t-9 5t-9.5 -2.5q-2 -23 -1.5 -45t1.5 -44t1.5 -43.5t-1.5 -44.5l-121 -6
q-4 9 -3.5 21l1 24t-2 22.5t-13.5 17.5q-3 9 0.5 17.5t7.5 17t6.5 17.5t-2.5 21q-14 5 -13 20t1 28q0 5 6 6.5t6 6.5q5 12 0 22l-9.5 19t-4.5 17t14 15q5 9 2 16.5t-6.5 14t-4 13.5t8.5 16q-2 12 -1 25t1.5 26t-1.5 25.5t-11 21.5q-5 9 0 16.5t10 14t6.5 13.5t-10.5 16
q-4 5 1 6.5t5 6.5v103q-5 5 -8 10.5t2 13.5l12 18q9 0 21.5 -0.5t25.5 -0.5t26 1.5t25 6.5q5 -10 11.5 -9t11.5 -4l6 -316q5 -23 24.5 -45.5t42.5 -27.5q12 0 24 -0.5t23.5 1.5t21 7t16.5 17q19 0 26 14.5t11 28.5q10 45 8.5 93.5t-1.5 94.5q0 5 -3 7.5t-6 4.5t-4.5 5t0.5 7
l13 13q5 27 3 51t3 51q4 3 10.5 1.5t12.5 -2.5t11.5 0t7.5 8q7 5 12.5 2.5t11 -5.5t10 -3.5t8.5 6.5z" />
    <glyph glyph-name="divide" unicode="&#xf7;" horiz-adv-x="510" 
d="M319 476v-6h-150q-5 5 -2.5 6t2.5 5q5 4 9 3t8 7q0 11 1.5 18.5t-6.5 12.5q-5 3 -6 0.5t-6 -7.5v24q2 -1 4 -3q3 -3 8 -3q8 17 6.5 35t-1.5 35q35 5 66 5q32 0 67 -5v-127zM470 308q-10 -22 -30 -13l-5 6q-9 -2 -17.5 -1t-16.5 1.5t-15 -1.5t-13 -11q-10 2 -18 5.5
t-15.5 6t-15 1.5t-15.5 -7q-11 6 -23 7t-25 1h-25t-25 5q-11 -9 -21.5 -10t-21 1.5t-22 5.5t-23.5 3q-7 0 -15 -3t-15.5 -5.5t-14.5 -1.5t-13 10h-19l-5 74l-5 7l10 16h418zM319 232v-122l-122 -7v-22h-16q4 22 6 46.5t-6 47.5q-9 2 -14.5 10t-10.5 12q-3 11 2 14.5t11.5 5
t12.5 4t4 11.5l5 4h128v-4z" />
    <glyph glyph-name="hyphen" unicode="-" horiz-adv-x="475" 
d="M189 417q0 -5 3 -7.5t6 -2.5h205q6 2 8 9.5t8 7.5q0 -5 2.5 -7t2.5 -7q3 5 4 2t3 -5q-7 -12 -9.5 -24t-2.5 -25t1 -25.5t-1 -25.5l9 -14l-9 -10h-375q-9 12 0 24q0 4 0.5 11t0.5 14q0 8 -1.5 15.5t-4.5 11.5q-1 6 0.5 11t3 10.5t2.5 11.5t-1 15q10 4 20.5 2t20 -3.5t19 0
t18.5 11.5v7q0 -12 9 -17q5 0 10 1t9 9q3 9 7 9t8.5 -2.5t9 -4t7.5 4.5q4 5 5.5 1.5t1.5 -8.5z" />
    <glyph glyph-name="hyphen" unicode="&#xad;" horiz-adv-x="475" 
d="M189 417q0 -5 3 -7.5t6 -2.5h205q6 2 8 9.5t8 7.5q0 -5 2.5 -7t2.5 -7q3 5 4 2t3 -5q-7 -12 -9.5 -24t-2.5 -25t1 -25.5t-1 -25.5l9 -14l-9 -10h-375q-9 12 0 24q0 4 0.5 11t0.5 14q0 8 -1.5 15.5t-4.5 11.5q-1 6 0.5 11t3 10.5t2.5 11.5t-1 15q10 4 20.5 2t20 -3.5t19 0
t18.5 11.5v7q0 -12 9 -17q5 0 10 1t9 9q3 9 7 9t8.5 -2.5t9 -4t7.5 4.5q4 5 5.5 1.5t1.5 -8.5z" />
    <glyph glyph-name="quotesingle" unicode="'" horiz-adv-x="415" 
d="M234 654q-1 -5 1.5 -7t7 -3t10 -0.5t10.5 -0.5q-2 4 -2 5q0 2 -2 7l-2 6q14 4 25 0.5t18 -1.5q2 -5 -0.5 -9t-4.5 -9q10 -8 23.5 -10t24.5 -8q3 -9 1 -15.5t-4 -17.5l-15 9q-7 -12 -8 -21t2 -18q7 2 9.5 -4t-0.5 -13q-6 -1 -5.5 -7.5t0.5 -13.5q0 -6 -2.5 -9.5
t-13.5 -0.5q-8 -20 -15 -44t-14 -46l17 1q0 -7 -4.5 -12t-10 -9.5t-9.5 -10.5t-4 -15q-11 4 -21.5 5t-20.5 1.5t-19.5 2t-18.5 6.5q8 67 17 128.5t8 127.5q-2 4 -4.5 4.5t-4.5 4.5q8 8 16 6.5t15 -9.5zM314 534v-4q0 -6 -3 -10q-5 3 -3.5 7.5t6.5 6.5z" />
    <glyph glyph-name="A" unicode="A" horiz-adv-x="723" 
d="M581 4h-6h6zM692 25q8 -5 11.5 -11t3.5 -10l-21 -6q0 -2 -2 -4q-1 -1 -3 -1h-48q-4 4 -1.5 7.5t6.5 3.5l-106 5q-11 32 -21.5 63t-30.5 58q-10 0 -21.5 -1t-23.5 -1t-23.5 3t-21.5 11q-8 -2 -15 -4.5t-13.5 -3.5t-13.5 0.5t-15 7.5q0 -4 -5.5 -2.5t-5.5 -2.5l6 -7
q-8 -4 -15 -3t-12 10q-11 0 -26 1t-27 -8h5q-8 -4 -19 -2t-23 2q-15 -32 -27 -63.5t-21 -68.5q-4 -4 -8.5 -6.5t-12.5 1.5q0 4 1.5 8t-6.5 8q-10 -2 -22.5 -1.5t-25.5 0.5q-12 0 -24.5 -2t-22.5 -8q-2 2 -4 1t-4 -3t-4 -3.5t-4 0.5q-2 6 -0.5 10.5t3.5 8t3 8t-1 10.5
q8 4 11 11t4.5 14.5t3.5 14.5t8 13q4 20 15.5 37t11.5 38q16 20 23 44.5t19 45.5q-4 10 -0.5 17t8 13.5t8 12.5t-0.5 14q8 16 14 31t19 26q8 28 14.5 55.5t21.5 50.5q6 8 7 16.5t2 16.5t4.5 14.5t13.5 10.5q4 12 2.5 20.5t2.5 16.5q6 2 7.5 6t1.5 7q0 4 -0.5 7.5t1.5 5.5
q8 6 10.5 13.5t3.5 15t3.5 14.5t10.5 11q4 4 4.5 8.5t0.5 8.5q0 5 0.5 8.5t4.5 5.5t11 3.5t13.5 1t10.5 -3.5t2 -11q16 -4 36 -4q21 0 37 4q0 4 -2.5 10t2.5 11q11 0 14.5 -6t11.5 -10q0 -4 -3.5 -6t-6.5 -4t-3 -5q0 -2 8 -6q4 0 9.5 -3t5.5 -7q4 -5 -0.5 -9.5t-4.5 -12.5
q8 2 11.5 -1.5t6 -8.5t5.5 -11.5t9 -10.5q9 -54 42 -95q5 -12 5.5 -23.5t0.5 -23.5q15 -8 21 -25t10 -28q4 -8 -0.5 -10t-4.5 -6q-8 4 -10.5 13t-10.5 13h-5q8 -16 13.5 -33t17.5 -28q6 1 11 -2.5t9.5 -8.5l9 -10t8.5 -7q4 -4 1.5 -11t-7.5 -15q-4 2 -4.5 7t-2 9.5t-4.5 6.5
t-11 -2q0 -12 8.5 -21.5t8.5 -25.5q0 -9 11 0q14 -4 21 -13t11.5 -20.5t7.5 -24t7 -22.5l-6 -5q0 2 -4 3.5t-7.5 3.5t-5.5 6.5t2 12.5h-11q8 -39 25 -78t33 -74q5 0 8 6.5t3 14.5q-4 0 -5 4.5t-6 0.5v5q5 4 11 4q7 0 11 -4q-2 -8 1 -14t7 -12t7 -12.5t1 -14.5zM296 664
q4 0 8 -2t8 2q0 8 -6 6.5t-10 -1.5v-5zM432 263q-4 20 -11 39t-15 36q-8 26 -18.5 50t-18.5 49q-7 8 -7 16t-8 15q-8 -4 -10.5 -13t-10.5 -13q-16 -48 -32.5 -91.5t-36.5 -87.5h168zM453 563q0 5 2 8.5t-2 7.5q-4 -4 -2 -10l2 -6v0zM480 520h-10l5 -10zM496 458v5v-5z
M586 231q4 0 2 3.5t-2 7.5l-5 6l5 -17v0zM692 9q0 4 -3.5 7t-7.5 3q-4 8 -5 16.5t-5 16.5q0 -13 -1.5 -23.5t6.5 -14.5q2 0 3 -2.5t2.5 -4.5t3.5 -2q3 0 7 4zM559 4v-6v6z" />
    <glyph glyph-name="B" unicode="B" horiz-adv-x="472" 
d="M272 -17q4 8 13.5 7t17.5 -1q0 -8 -9 -8.5t-17 -7.5l-5 10v0zM442 180q-4 -16 -7.5 -33.5t7.5 -30.5q6 -12 3 -17.5t-8 -9t-8 -9t3 -17.5q-8 -11 -16.5 -19t-21.5 -8h-5q-5 4 0.5 8.5t9.5 8.5q4 0 11 1t11 9h-22q0 5 -2.5 6t-2.5 5q-20 -25 -43.5 -40t-52.5 -19
q-4 -10 -13 -13t-21 -3q-11 0 -23 1t-23 -1l-10 11h-101q-4 -8 -8.5 -9.5t-12.5 -1.5q-4 4 -10.5 3.5t-13 -2.5t-12.5 -2q-5 0 -7 6l-16 6v649l5 6q29 4 59 3t58 7q14 -6 31 -6.5t33 -0.5q17 0 32 -2t27 -12l21 -7t21 -3v-12q5 -4 10.5 -5t11.5 -1.5t11.5 -2t9.5 -7.5
q-4 -8 -2 -13.5t6.5 -10t9.5 -10t7 -13.5l5 5q0 -11 8 -18.5t8 -19.5q0 -4 2 -11t-2 -15q-5 0 -5 -10q2 -6 0.5 -13t-3 -13.5t-1.5 -12.5t4 -10q-12 -12 -19.5 -27t-12.5 -30q-8 -9 -17.5 -12.5t-13.5 -15.5q4 -4 8.5 -4.5t12.5 -0.5q8 8 12.5 13t8.5 14q4 -9 -2 -18.5
t-14 -13.5q35 -24 56 -58t29 -70q2 -2 3 -3.5t2 -3.5t1 -3q-6 -3 -8 -6.5t-2 -8.5q0 -4 0.5 -9t-1.5 -9l16 -5l-5 -5l-6 5v0zM155 420q16 -12 39.5 -9.5t39.5 14.5q5 16 10.5 32.5t1.5 36.5q4 8 9 10.5t1 10.5q-17 16 -39.5 23.5t-50.5 3.5q-8 0 -12 -4t1 -12
q8 -12 9.5 -32.5t1.5 -37.5l-5 -5l-6 5v-36zM155 473v-11v11zM161 175h-6v-11h6v11zM288 154q11 4 16.5 12t9.5 19q-4 12 -5 24t-3.5 23t-8.5 20.5t-20 17.5q0 -8 -2.5 -12t-2.5 -9q4 -2 7.5 -1.5l7 1t6.5 0t5 -4.5q-4 -8 -10.5 -7t-10.5 -3l11 -6q0 -13 0.5 -19.5
t4.5 -18.5q-4 -4 -5 -4.5t-6 -0.5q-4 16 -6.5 29t-14.5 25q5 8 -1 15.5t-14 15.5q-4 5 -0.5 8.5t-4.5 7.5q-17 0 -33.5 5t-36.5 0q-10 2 -13 -2.5t-3 -12.5q0 -7 1 -15t-1 -12q14 -14 15 -28t-2 -28.5t-5.5 -29t3.5 -30.5q23 -5 47 -2t48 7q5 8 8.5 18.5t7.5 18.5
q4 -2 5 -5.5t1 -7.5q0 -3 0.5 -5.5t4.5 -2.5zM416 95q2 2 3.5 2.5t3.5 1.5t4 1q0 8 2 12.5t-2 8.5q0 -4 -2.5 -7l-5 -6t-4 -6t0.5 -7zM86 -17h-5h5zM161 270q4 -4 5 -2.5t5 -2.5q-4 0 -5 -0.5t-5 -4.5v10v0zM448 170q0 -5 4.5 -11t0.5 -10q-4 -5 -5 -5.5t-6 -0.5q-4 8 1 15
t5 12zM394 420q0 4 -1.5 12.5t6.5 8.5q0 -8 2 -10.5t-2 -10.5h-5z" />
    <glyph glyph-name="C" unicode="C" horiz-adv-x="688" 
d="M435 661q42 -11 83.5 -28t76.5 -48q4 0 7 3t3 6v5q2 -3 6.5 -4.5t9.5 -3.5t8 -5.5t1 -10.5l-16 -11l16 -16q8 5 11 10t10 1q4 0 4 -6t-4 -10q-2 -7 -7 -9t-10.5 -4t-9.5 -6.5t-4 -15.5q-15 -16 -31 -29.5t-36 -21.5l-35 35q-8 -13 -16 -5q-5 2 -5 5t0.5 6t0 5.5t-6.5 4.5
h-14q0 5 5 5q-10 9 -20 13t-20.5 6.5t-21 5.5t-20.5 10q-82 9 -153 -30q-2 -8 -8 -11t-12 -4.5t-10 -4.5t-2 -11q-2 -7 -6 -9.5t-8.5 -3t-7.5 -2.5t-3 -10q-4 0 -9.5 -5.5t-5.5 -10.5v-15h-5q-12 -19 -20.5 -42.5t-0.5 -49.5q0 -12 -3 -29t8 -32h10q-4 -12 -5 -22.5
t11 -18.5l5 5q0 -8 4 -13t7.5 -9.5t5.5 -9t-2 -10.5q6 -5 11 -11t10 -11t11 -7.5t14 -0.5q5 -11 15 -16t21 -5q-5 12 -13 15t-12 11q11 -8 27 -13.5t24 -17.5l-21 5q-2 -4 -0.5 -6t4.5 -4t6.5 -4t5.5 -5q6 2 11.5 0t10.5 -3.5t9.5 -0.5t8.5 8h32l-6 -10q23 -4 48 0t44 15v10
q-1 -2 -1 -5q0 -5 6 -5q4 4 4 7q0 4 -0.5 7.5t0.5 6.5t7 5t8.5 0.5t4 -3.5t4 -4.5t7.5 -2.5q12 8 23 18.5t19 21.5q-2 4 -4 4t-4.5 -1.5t-5.5 -2.5t-7 0q-2 6 -0.5 8.5t4.5 3.5t6.5 1.5t5.5 2.5q6 -9 11.5 -8.5t11 3t10 2t8.5 -12.5q8 4 12 1.5t9 -5.5v-5q-5 0 -5.5 -0.5
t-0.5 -4.5q4 -2 8 -7t8.5 -9.5t9 -6.5t10.5 2q4 -4 4 -10t-4 -6q4 -4 7.5 -4.5t7.5 -0.5q0 -4 -4 -7t4 -8q5 5 11 4t10 -9q-8 -11 -24 -24.5t-27 -21.5q-4 3 -0.5 7t0.5 8q-6 2 -10.5 -0.5t-9 -6.5t-8.5 -9t-8 -9q10 0 10 -5q4 -8 -1 -10t-9 -6h-6v16q-7 0 -14 -4t-14 -9
t-15 -9t-18 -4v-15q-8 0 -12.5 6t-12.5 -2q-4 0 -6.5 -4.5t1.5 -4.5q-4 -4 -11 -7.5t-15 -3.5q-4 8 -11 8q-6 0 -13.5 -1.5t-16 -3t-16.5 2.5q-4 -5 -5 -7.5t-5 1.5q-7 8 -17 4t-18 -4q-4 -4 -9.5 -3.5t-11.5 2t-11 2.5t-9 -1q-8 6 -17 8.5t-19 4.5t-19 4.5t-17 7.5
q-23 0 -45 13.5t-41 33.5q-39 27 -65.5 65t-40.5 81.5t-17 90.5t5 91q8 46 29.5 87.5t53 75t71 57.5t81.5 35q31 4 57 9t60 1q4 8 11 9.5t15 1.5q4 -12 13 -12q10 0 17 -4zM512 647h11h-11zM558 626h5h-5zM421 518v6v-6zM303 518h5v6h-5v-6zM287 508q-4 0 -5 -2.5t-5 -2.5
q0 4 3 6.5t7 -1.5zM507 476q2 -3 6 -6t7.5 -5.5t5 -5.5t-2.5 -7q-4 0 -7.5 0.5t-3.5 4.5q0 10 -10 10q-11 0 -20 11t-21 19l6 6q8 2 12.5 -2t8.5 -9.5t8 -10.5t11 -5zM257 487h-5l10 10q3 -4 1 -5t-6 -5zM533 462v5v-5zM231 462q0 -8 -5.5 -12t-10.5 -4h-5q0 5 6.5 10.5
t14.5 5.5zM201 411q-6 2 -6 4t2.5 4t5.5 5t3 7q0 -5 -0.5 -10.5t-4.5 -9.5zM196 272q-2 -9 1.5 -18t9 -17.5t10 -17.5t4.5 -19q-8 5 -12 14.5t-8 17.5q-4 11 -10 22.5t-6 23.5q4 0 7.5 -0.5t3.5 -5.5zM620 104v-6v6z" />
    <glyph glyph-name="D" unicode="D" horiz-adv-x="648" 
d="M55 219q-8 4 -6 10.5t6 10.5v-21v0zM55 332q4 0 2 -3t-2 -7v10zM55 391v6v-6zM60 607q0 -5 -5 -5v5h5v0zM599 278q4 -4 7.5 -5t8.5 -5q0 -8 -4 -11t-9.5 -4.5t-9.5 -4t-4 -8.5q-5 -20 -7.5 -39t-14.5 -30q0 -8 6.5 -12.5t-1.5 -8.5l-10 -11h5q4 -4 1.5 -5.5t-6.5 -6.5
q-2 -2 -4 2q-1 2 -1 5q-12 -13 -22 -27.5t-27 -26.5q8 -4 5.5 -10.5t-10.5 -6.5q-6 5 -8 2t-3.5 -7t-4.5 -7t-11 1q-8 -8 -15 -11t-7 -15q-4 0 -5 0.5t-5 4.5q-8 2 -14.5 -3t-13 -10.5t-14.5 -8t-18 6.5q-20 -13 -43 -19t-43 2l-6 5q-16 -4 -33 -4q-16 0 -33 1t-34 1.5
t-34 -3.5q-16 4 -34.5 4.5t-34.5 0.5q-4 -4 -8 -4.5t-8 -0.5q-4 4 -4.5 10t-0.5 11q0 6 -2 8t-10 -2q0 4 -2.5 8t-2.5 8h16q-2 6 -1 15t1 18t-3 15t-13 6q4 16 0 32t0 32q2 4 1.5 9.5t0.5 10t3.5 7t10.5 -0.5v92q-5 0 -6 -2.5t-5 -2.5q0 -4 2 -7t-2 -3h-5q-4 4 -2 7.5t2 7.5
q16 10 16 16q-2 18 -1 35.5t2.5 34t2 33t-3.5 32.5l-11 -5q-8 12 -4 17.5t10 10t9.5 11t-4.5 20.5q5 36 2.5 72t-2.5 73q0 8 -3.5 4t-7.5 -4q2 6 1 13t-2.5 13t-2 10.5t3.5 6.5q57 -4 110 -2.5t105 -2.5q4 -4 9 -3t10 2.5t10 1.5q6 0 10 -6q32 0 65 -4t58 -29q12 4 21 -3.5
t22 -7.5q4 -2 5 -5.5t1.5 -7t2 -6t7.5 -2.5q2 -10 9 -14.5t14 -7.5t12 -7t3 -14q4 -4 6.5 -11t5.5 -14t7.5 -11t12.5 -2q4 -8 10 -16t6 -16l-6 -5q5 -13 7.5 -26t15.5 -17q2 -2 1 -2.5t-3 -0.5q-1 0 -2.5 -0.5t-1.5 -2.5q-2 -6 -1 -10.5t3.5 -8.5t4 -8.5t-0.5 -10.5
q8 0 10.5 -3.5t2.5 -8.5t-1.5 -10.5t-1.5 -10.5q-6 -2 -7.5 -6.5t-1 -9.5t2 -10.5t1.5 -9.5q4 -4 7 -2q2 1 3 2q5 -5 5.5 -11.5t0.5 -11.5q-12 0 -16 -6.5t0 -14.5zM60 122q2 0 5 3q1 1 1 2h-6v-5v0zM404 483q0 -4 3.5 -8t8.5 -4l6 7q-5 0 -9 5t-9 0zM389 499q-9 16 -32 16
h5q6 0 8.5 -4l5 -8t5 -6t8.5 2zM255 537q-5 4 -12.5 1.5t-15.5 -7.5q8 0 18 0.5t10 5.5zM201 531q2 2 4.5 1.5l5 -1t4.5 0.5t2 5q-5 4 -8.5 2t-7.5 -2v-6zM464 252q4 16 2 34.5t-2 35.5q6 6 6 11q0 6 -2 13l-4 14t0 16l-6 -6q0 8 -2.5 7.5t-6 -2.5t-7 -2.5t-5.5 8.5
q-4 4 -1.5 7.5t7.5 8.5q2 2 2.5 1.5t1.5 -2.5t1 -5q4 -4 7.5 -2t8.5 2q-9 42 -32 65q0 -8 2.5 -12.5t2.5 -8.5q-8 -6 -14.5 -4t-12 7t-10.5 12t-11 11q-8 2 -10.5 9.5t-4.5 15t-6.5 11t-16.5 -2.5q-5 0 -10 3t-1 7q-4 8 1 12t10 4q-20 8 -38 14.5t-43 2.5q6 -16 1.5 -20.5
t-13.5 -4.5h-20q-10 0 -16 -8q-2 -2 -6 -4t-8 -5t-6.5 -7t-0.5 -10h5q4 -5 4.5 -9t0.5 -8q-4 -4 -5 -7.5t-5 -3.5q-2 -6 0 -9t5 -7t5 -8.5t0 -13.5q-4 -4 -5 -7t-5 -3q0 -6 -1.5 -12.5t-1.5 -13.5t2.5 -12.5t10.5 -10.5q5 -32 0.5 -67t-0.5 -72q-8 -4 -10.5 -11t-2.5 -15
t1.5 -16.5t1.5 -16.5h5q5 0 5 -5h-10v-23q32 0 66.5 -1t67.5 8q16 4 32.5 11t31.5 17t26.5 23t17.5 29q6 4 7 9.5t1.5 11.5t2.5 10.5t10 6.5zM309 520q1 1 3 2q4 2 7 -2v-5q-4 -4 -7 -1.5t-3 6.5zM448 316q2 -1 3 -3q2 -4 2 -7l-5 -7v17v0zM443 257q0 -4 -0.5 -7t-5.5 -3
q-4 0 -1.5 5t7.5 5z" />
    <glyph glyph-name="E" unicode="E" horiz-adv-x="439" 
d="M391 626h6v-21h-6l-6 -58q-12 6 -17 2t-8.5 -9.5t-7.5 -8.5t-14 5v5q-5 5 -12 5.5t-15 0.5q0 -6 -3.5 -8t-8 -2.5t-8.5 -1.5t-6 -5q-13 -5 -22 -2t-21 8q-2 6 -7.5 7.5t-12.5 1.5h-15q-7 0 -13 2q-2 -9 -7.5 -12.5t-12 -5t-13 -2.5t-10.5 -3v-89l6 -11h228q2 -2 2 -7v-9
q0 -4 2 -7.5t8 -3.5v-5h-6q-5 -16 -5 -35q0 -18 5 -33v5q11 -8 10 -20t-4 -23q-9 0 -12 7.5t-11 7.5q-8 6 -13 5.5t-9.5 -4.5t-9 -9t-10.5 -7q-4 4 -11 2t-15 -2q-8 -8 -17 0q-11 0 -14.5 6t-11.5 9q-4 2 -6 1t-3.5 -4t-3 -6.5t-3.5 -5.5q-6 4 -11.5 3t-11.5 -3t-11 -3t-9 3
q-11 0 -25 1t-22 -7q-8 -18 -9 -35t0.5 -34t3 -35.5t-0.5 -38.5l6 -5h228q2 -4 1 -10.5t-1.5 -12.5t1.5 -10t11 -4q6 -39 0 -85h-81q0 -5 -0.5 -8.5t-4.5 -3.5q-8 0 -14 6t-18 6q5 -12 0.5 -17t-16.5 -10q-4 0 -6.5 6.5t1.5 14.5h5q-16 5 -31 3t-28 3q-1 -2 0 -5.5l2 -7
t0.5 -6t-6.5 -2.5q-5 4 -3 5t-3 4l6 6q-12 0 -25.5 1.5t-27 1t-24.5 -4t-19 -13.5q-8 0 -18 -1.5t-15 6.5q0 10 -5 12t-12.5 1.5t-15.5 -1t-14 3.5v653q93 0 183 4t178 -4z" />
    <glyph glyph-name="G" unicode="G" horiz-adv-x="725" 
d="M375 660q5 7 14 5.5t17 -1.5l-5 -4q4 -5 10 -5.5t10 -0.5q5 8 11.5 9t14.5 1l4 -4q0 -5 -1.5 -8t1.5 -3q4 0 8.5 -1.5t8.5 -2t6.5 1t2.5 7.5q4 5 8 2.5t8 -2.5v-5q-2 0 -4 -2q-1 -1 -1 -2q4 -5 11 -8t14 -3q5 3 3.5 8.5t6.5 2.5l5 -7l-5 -9q8 -5 15.5 -9.5t15.5 -0.5
q0 3 -3 4t-3 6q5 4 10.5 -1.5t10.5 -8.5q3 -2 -1 -4q-2 -1 -5 -1q5 -8 11.5 -13t14.5 -13v4q-5 9 0 16q4 0 5 -4.5t6 -4.5q3 -5 -1.5 -8.5t-4.5 -7.5q5 0 6.5 -3t8.5 -3q0 5 1.5 7.5t9.5 -1.5q8 -8 17.5 -19t12.5 -22q-22 -11 -35.5 -31t-36.5 -35q0 -3 -5 -9t-10 -6
q-7 -4 -12 1t-12 10q-2 -4 -5 -5t-6 -1.5t-4.5 -2t-0.5 -7.5q-3 -5 -5 -7.5t-10 -2.5q-3 11 6.5 16t13.5 10q-7 15 -21 23.5t-25 15.5l-5 -4q4 -4 10.5 -5.5t9.5 -9.5q-1 -2 0 -5.5t1.5 -7t-1 -7.5t-9.5 -6q-16 9 -30 26q0 3 -2 9t6 6q4 0 7.5 0.5t3.5 3.5q0 8 -6 8.5
t-9 7.5q-20 3 -42.5 9t-45.5 6q-4 -4 -3.5 -7t2.5 -5l4 -4t2 -4q-11 -8 -23 -4t-23 4q0 3 4.5 4t9.5 1.5t8 2t-1 7.5q-20 4 -33 -1.5t-28 -8.5q-4 -7 -2 -9t5.5 -2.5t6 -1.5t-0.5 -7q-26 -11 -47.5 -32.5t-33.5 -44.5q-10 0 -12.5 -3.5t-2.5 -8.5t1 -11t-1 -12
q-11 -23 -13 -46.5t-2 -51.5q-4 0 -5 -4.5t-4 -4.5l-16 15q-8 -8 -8 -15t3 -13.5t6.5 -13t3.5 -14.5q8 -8 7.5 -18t7.5 -17q4 0 8 -5t12 -2q4 5 2.5 0.5t2.5 -4.5q-8 -8 0 -16q8 -3 15 -3.5t11 -11.5h-5q2 -9 7.5 -12t12.5 -5t12.5 -5t7.5 -13q17 -7 37.5 -13t42.5 -8
t43.5 -1t40.5 7q8 3 9.5 7t5.5 8q-4 4 -9.5 2.5t-5.5 2.5q8 5 15.5 14t19.5 1l-5 -20q20 0 33.5 12.5t17.5 27.5q8 0 13 4t8.5 10t5.5 12.5t3 10.5q-7 0 -17 -1.5t-18 -9.5q0 -1 1 -2q3 -3 4 -3q4 -6 3 -10t-4.5 -7.5t-7.5 -6.5t-7 -6h-4q-4 7 -1 14.5t-4 15.5q0 4 4.5 7.5
t4.5 8.5q-35 7 -65.5 4t-65.5 0q-5 11 -5.5 25t-0.5 26q5 8 7 18t-1 18q-8 4 -7 10.5t1 9.5l6 5l315 6q4 -5 5.5 -12.5t9.5 -2.5q8 -8 4 -18.5t-4 -18.5v-5l-10 16v-20l10 -6q-3 -4 -2.5 -12.5t-7.5 -12.5h-5q-4 -11 -11 -22.5t0 -23.5h6q4 -5 1.5 -10.5t-7.5 -10.5
q-3 0 -2 3.5t-2 6.5q-12 -18 -23.5 -37t-22.5 -39q8 -4 11 -8t-1 -12q-5 0 -8 -1.5t-7 1.5l-6 5q-4 -4 -6.5 -5t-2.5 -4l9 -7q0 -7 -4 -11t-9.5 -5.5t-11.5 -2t-10 -0.5q-11 -8 -25 -15.5t-26 -15.5q4 -4 10 -5.5t6 -9.5q-8 0 -14.5 -4t-11.5 4q5 0 2 2.5t-7 7.5
q-8 -5 -14.5 -6.5t-11.5 -8.5q0 -5 3 -4t3 -7q-8 8 -19 9t-22 -4q-58 -7 -116 -4t-109 15q-4 11 -11.5 15t-19.5 4q-42 29 -76.5 67.5t-57 84t-29.5 96.5t6 104q2 36 15.5 70t35 64t49 54.5t57.5 41.5q35 18 74 29.5t85 16.5l5 4q0 -8 6.5 -6t13.5 2zM442 518q0 -8 -3.5 -12
t-6.5 -4q-4 4 -7 8t2 12q4 0 7 -2t8 -2zM253 496q-12 0 -18 -7.5t-18 -7.5q8 8 15.5 13t15.5 13zM217 466q-10 0 -13 -4t-4 -10l-2 -12t-7 -10q0 -15 -9 -15q-7 6 -6.5 11.5t5 11.5t11 11.5t10.5 11.5l11 15q2 0 4 -5q1 -3 0 -5zM167 384q-4 0 -2 6t2 10v-16zM171 349h-9
q0 2 -2 4.5t-4 5.5t-2.5 6t2.5 4q8 0 11.5 -6.5t3.5 -13.5zM162 328v-9v9zM197 251q4 -3 1.5 -6t-7.5 -3q-3 0 -7 5t3 10q3 0 6.5 -0.5t3.5 -5.5zM248 170q-11 11 -24.5 23.5t-21.5 27.5q15 -4 26.5 -20t19.5 -31zM259 166l-6 4h6v-4zM661 150v16h5zM406 135v-5h-10v5
q4 0 7 2t3 -2zM650 135q0 -4 -0.5 -7.5t-3.5 -3.5v11h4zM585 54q0 -5 -1 -5.5t-6 -0.5q0 5 1 5.5t6 0.5zM569 39q0 -5 -5.5 -6.5t-9.5 -4.5h-6q0 3 3.5 7.5t7.5 7.5q3 0 6.5 -0.5t3.5 -3.5zM370 -13q0 -4 -2.5 -2t-7.5 2v6q5 0 7.5 -0.5t2.5 -5.5z" />
    <glyph glyph-name="F" unicode="F" horiz-adv-x="402" 
d="M360 666q6 -9 7.5 -20.5t1.5 -23.5q0 -11 1 -21.5t7 -16.5q-5 -11 -7.5 -23.5t1.5 -23.5q-8 0 -16 -2.5t-15.5 -3.5t-14.5 1t-13 10q-6 -2 -11.5 -1.5t-10.5 1t-9 0t-6 -4.5q-25 -5 -55 -3t-58 -3q8 -14 0 -27q0 -20 -1 -42t7 -39h192q5 -20 9.5 -39.5t-3.5 -36.5
q0 -16 0.5 -31.5t4.5 -31.5q-4 0 -4.5 -3.5t-0.5 -7.5q-32 -5 -67 0t-68 5q8 0 7.5 5.5t3.5 10.5l-5 6l-65 -6q0 -8 -1 -15t-9 -12v-269h-123q-8 24 -7 51t1 51q0 13 1.5 31t-6.5 34q4 4 4.5 9t0.5 13q4 16 3 32.5t-3 33t-3 31.5t3 27q0 89 0.5 174.5t5.5 174.5
q81 5 163 5.5t158 0.5zM360 525q0 -4 -2.5 -2.5t-7.5 -2.5l6 5h4zM269 520q-3 -5 -10 -5.5t-11 -0.5q-5 5 -7.5 6t1.5 5q8 -4 16 -2.5t11 -2.5zM345 520q-15 -9 -33 0q5 4 15 2t18 -2zM216 520h-6q0 4 0.5 2t5.5 -2zM297 294h-28q4 2 8 1.5t8 -1.5t7 -1.5t5 1.5zM345 284
q-6 -2 -8 -1.5t-2 1.5q0 2 1 5t-1 5h10q1 -2 2 -5q2 -5 -2 -5z" />
    <glyph glyph-name="H" unicode="H" horiz-adv-x="589" 
d="M518 679q0 -8 6 -10t11 -6q2 -2 1.5 -6.5t-0.5 -9.5q0 -4 2 -7.5t8 -3.5q5 -6 4.5 -12.5t-2 -13t-3 -14t0.5 -15.5h-11v-82q10 -2 12 -8.5t1 -15t-2.5 -18.5t0.5 -18q-6 -2 -8 -6t-2 -9q0 -4 0.5 -9t-1.5 -9q8 -4 9.5 -14t1.5 -18q-6 -4 -8 -10t-2 -13t0.5 -14t-1.5 -14
q8 0 9.5 -6t1.5 -9q-5 0 -6 -2.5t-5 -2.5q4 -5 2.5 -8.5t2.5 -8.5q3 0 5 -2q1 -1 1 -3q4 -8 -2 -8q-5 0 -9 -3q2 -4 1.5 -10t-0.5 -12q0 -5 2 -9.5t8 -6.5v-29q-6 -1 -8 -5t-2 -9t0.5 -10t-1.5 -9l16 -5l-16 -4q4 -25 2.5 -52t2.5 -53h6v-11l-6 5q-4 -8 -3 -18t9 -13
q0 -5 -5.5 -7.5t-5.5 -10.5h-88q-4 -8 -3.5 -15t-7.5 -7l-5 6l5 11q0 4 -3 2.5t-8 2.5q0 -4 -2.5 -5t-2.5 -6q-4 0 -5 5.5t-6 5.5q4 7 3 10.5t-3.5 6t-4.5 5t0 5.5q12 25 8.5 55t-3.5 56q-8 0 -6.5 7t1.5 15q6 2 7.5 6.5t1 10t-2 11.5t-1.5 10q0 3 -5 4.5t0 6.5q2 0 3 1
q2 2 2 3q0 9 2.5 16.5t-2.5 10.5h-93q-8 0 -6.5 6.5t1.5 11.5q8 6 17 5.5t19 -2t20 -2.5t20 3q5 0 8.5 -2t8.5 -2q4 3 4.5 4.5t0.5 6.5q-25 3 -54 3.5t-50 0.5q-4 5 -1.5 6t7.5 1q8 4 12.5 1t9.5 -8q6 3 13.5 2t14.5 -2t13 1t8 11l-6 6h-180l-5 -6q4 0 2.5 -6.5t2.5 -9.5
q-4 0 -7.5 -1t-3.5 -6q-2 -28 -1.5 -54t1 -51.5t0 -52t-4.5 -55.5q6 -4 5.5 -7t-3 -6t-3 -6.5t5.5 -7.5q0 -12 -4.5 -19t-18.5 -3h-109q-22 0 -25 18t2 43.5t13 53.5t6 49q-7 5 -7.5 10t1 10.5t4 11.5t2.5 13q4 8 2 15.5t-4.5 14t-3.5 12t6 11.5q3 71 1.5 141.5t-1.5 132.5
q0 5 -4 9.5t4 12.5q0 17 -4 35.5t4 35.5q2 6 -0.5 11.5t-4.5 11t-2 10.5t7 11q0 -5 6.5 -5.5t13.5 -0.5q5 0 4 5.5t7 5.5v-11q11 -4 24 -3t26 2.5t26 1.5t24 -6l5 -213q6 -4 5 -10.5t-2.5 -12t0.5 -9t14 -1.5q-5 8 1.5 13.5t14.5 -2.5q4 0 7 -3t-2 -8h99q-2 6 -0.5 9t5 4
t8.5 1.5t9 2.5q4 -5 5 -5.5t5 -0.5q2 -8 8 -11t13 -3t15 1.5t14 1.5q8 8 6.5 24.5t-1.5 24.5q-8 8 -6.5 19.5t1.5 19.5q6 0 7.5 3.5t1 8.5t-2 10.5t-1.5 9.5q-4 5 -4.5 6t-0.5 5q0 5 2.5 3t2.5 3v87q0 2 -2.5 3.5l-5 3t-4 4t0.5 6.5l11 5l93 5q0 11 5 11h11zM558 554v38
l4 -38h-4zM558 428v49l4 -49h-4zM398 439v11l6 -5zM305 423h-16q0 4 0.5 5t4.5 6q5 0 8 -3.5t3 -7.5zM558 417v-5l-7 5h7zM562 341h-4v38zM558 241v56l4 -56h-4zM218 259q-8 -5 -8.5 -14t-7.5 -13q0 4 -2.5 13t2.5 14q4 0 7.5 1.5t8.5 -1.5zM558 161v49l4 -45zM562 132
q-3 0 -3.5 4t-0.5 7h4v-11zM202 72v-11q-8 5 -7 12t1 10q5 0 5.5 -3t0.5 -8zM562 -48q-8 0 -12.5 3t-9.5 8q0 4 3 8t3 8q-2 0 -6 1q-8 2 -11 5q5 8 12.5 7t16.5 4q0 8 -2.5 16.5t2.5 15.5q7 -16 4 -36t0 -40zM202 -21h-6q-4 8 0.5 20.5t-0.5 28.5h6v-49zM162 -15v-6
q-3 0 -4.5 3t-6.5 3q0 4 5.5 6t5.5 -6zM458 -37q0 -5 -3 -6t-8 -5h-5q-5 4 -2 10.5t7 11.5zM180 -43q-1 -1 -3 -2q-3 -2 -3 2q-4 0 -8 3.5t-4 7.5q5 5 13.5 1t4.5 -12z" />
    <glyph glyph-name="I" unicode="I" horiz-adv-x="229" 
d="M166 667l4 -98q8 -4 10 -10.5t7 -11.5q-8 -20 -7.5 -41.5t-2.5 -45.5v6q-8 -17 -7.5 -36t0.5 -36l11 -4q0 -25 -1.5 -49t1.5 -45l-4 -11v7q-8 -21 -5 -41.5t-2 -41.5q6 0 8 -2t2 -4t-1.5 -4.5t-1.5 -4.5q0 1 -1 2q-2 2 -6 2q-3 -3 -1.5 -10t1.5 -12q12 0 7 -15v-11v16
q-5 -4 -6 -8t-1 -8q13 -13 12 -31t-1 -34q0 -8 -3 -5t-8 -2q-8 -10 -4.5 -18t9 -16t6.5 -15.5t-11 -15.5l-4 -16h-94q0 -6 -3.5 -10t-8 -6.5t-8.5 -5t-6 -6.5v7q8 -5 8.5 3.5t-4.5 11.5l-4 6l-6 142v528q0 5 6 3t11 3q28 -5 54 -3t55 -3zM177 510v-18v18zM177 340v-16v16z
M177 275h4v-11h-4v11zM177 237h4v-11h-4v11z" />
    <glyph glyph-name="J" unicode="J" horiz-adv-x="419" 
d="M373 636l-4 -442q-1 -17 -2 -34.5t-4 -34t-9.5 -31t-17.5 -26.5q1 -6 -1 -8t-4.5 -3t-5 -1.5t-2.5 -3.5q-2 3 -7 -2.5t-8 -8.5l-4 -4q-28 -23 -61.5 -32t-70.5 -6q-1 5 -6 5.5t-10 0.5t-9.5 1t-5.5 5q-26 3 -49.5 17.5t-46.5 31.5q-8 11 -15.5 21t0.5 25q26 20 45 42
t47 42q7 0 11.5 -4t8.5 -9l8 -10t10 -8q9 -4 17.5 -9t17 -8t17 -3.5t16.5 5.5q3 3 2.5 8.5t0 11.5t4 10.5t13.5 4.5l-12 56v370q6 8 13 13t-1 14q-7 3 -6.5 6.5t4.5 7.5t8.5 9t4.5 11h114v-30zM252 15q0 -1 -2 -3q-1 -1 -2 -1v4h4z" />
    <glyph glyph-name="K" unicode="K" horiz-adv-x="560" 
d="M185 671q5 -4 4 -9.5l-2 -11t0.5 -10.5t9.5 -7q-2 -6 -2 -14v-15t-2 -15.5t-8 -13.5q5 -12 9.5 -24t-3.5 -24q-5 4 -9 13.5t-12 12.5q0 -28 -1.5 -56.5t6.5 -60.5q8 4 10 10t1.5 13t-1.5 15t0 16q-3 4 -3.5 7.5t-0.5 8.5l4 10q9 -8 8 -16t4 -16q-5 -4 -2 -8t7 -7
q22 24 41.5 50t39 52.5t40 52t44.5 47.5q4 -2 10 -1t11.5 1.5t9 -1t1.5 -9.5q8 -5 14.5 -1.5t6.5 11.5h75q8 -5 4 -11t-4 -11q-52 -63 -103.5 -132t-104.5 -134q-2 -4 -0.5 -7t4 -6l5 -6t2.5 -7q6 -12 15 -24.5t18.5 -25t18 -25.5t12.5 -27h-11q5 -8 6.5 -14.5t9.5 -6.5
q8 4 4 7.5t-4 8.5q17 -24 37 -49.5t32 -57.5q25 -28 44.5 -58.5t35.5 -58.5l-5 -11q8 -8 14.5 -19t6.5 -23q-8 -2 -10.5 1t-4 8t-3.5 10t-8 7h-133q-16 20 -28.5 43t-36.5 43q-20 44 -51.5 85t-59.5 85l-6 6v-6q-5 5 -8 7.5t-8 2.5q-4 -8 -4 -13t4 -13l10 11q2 -2 3.5 -5.5
t3 -6.5t4 -4.5t6.5 0.5q-4 -12 -4 -25v-25q0 -12 -2.5 -24t-10.5 -22q6 -8 6 -16t-1.5 -15.5t-1 -14.5t8.5 -13q-4 -8 -3 -16.5t2 -16.5t-1 -14.5t-14 -11.5q-5 5 -4 10.5t-7 5.5v-37h-128v650q2 6 7.5 7t12 1.5t13 3t10.5 10.5h4h96zM185 649q0 -4 -5 -7.5t-5 -8.5l-5 28
q4 0 9.5 -1.5t5.5 -10.5zM185 596q-6 -2 -7 -6.5t-1 -10.5v-11q0 -5 -2 -9v53q10 0 10 -16zM394 484q0 -4 2 -4.5t-2 -0.5h-5v5h5zM298 357v-17q-8 0 -13 9t-8 12q4 2 6 2t4 -1.5t4.5 -3t6.5 -1.5zM185 212q-3 0 -9 0.5t-6 5.5l5 6q5 0 7.5 -1.5t2.5 -10.5zM185 116
q-3 -4 -4 -5t-6 -5h-5l5 91q6 -6 7 -15.5t0.5 -21l-1 -23t3.5 -21.5zM426 148q-5 0 -6 6t-5 11q4 0 5 -6t6 -11zM452 106l-5 10l5 -5v-5zM185 79q-3 -5 -4 -6t-6 -4v16q5 0 6 -0.5t4 -5.5zM500 36h6v6h-6v-6zM191 -17q0 -5 -3 -2t-3 8q0 1 1 3q2 4 5 7h6z" />
    <glyph glyph-name="L" unicode="L" horiz-adv-x="416" 
d="M195 122l6 -6h178v-119q-6 5 -10.5 0t-7.5 -9.5t-5 -4.5t-4 14h-98q-5 0 -5 -10q-4 0 -5 3t-6 7q-12 0 -24.5 1.5t-24.5 -6.5q0 -4 -0.5 -5t-4.5 -6q-2 0 -4 3q-1 2 -1 3v10h-76q-4 -4 -6 -7t-10 -3q0 8 -6 9t-10 1t-6 -1.5t-2.5 -3.5t-1 -3.5t-2.5 -1.5l-10 -6
q0 -4 2.5 -8t-2.5 -8l-6 -5q-8 4 -7 11.5t1 15.5q8 -2 11 1t4 9t1 12t2 10q0 2 -4 3.5t-8 3.5t-5 5.5t5 9.5h6q0 4 2 10.5t2.5 12t-2.5 9t-14 1.5v64q11 -2 13 2.5t2 11.5t-0.5 15t3.5 14q0 9 -0.5 22.5t-5.5 21.5h-6l-6 5v92l6 5q0 -2 3 -4q2 -1 3 -1q0 8 2.5 15.5t4 14
t0.5 13t-7 12.5q-2 -2 -1.5 -6t1 -7.5t0 -6t-5.5 -2.5l-6 6v91q5 0 8.5 -0.5t3.5 -5.5l6 55q-5 5 -8.5 2t-3.5 -8q-5 12 -5 27t5 27h6q0 13 4.5 25.5t1.5 29.5q0 5 2.5 2.5t7.5 -2.5q8 0 7 9.5t-1 17.5q0 4 -6.5 2.5t-9.5 2.5q13 8 21 33h119v-547zM71 571q-5 -4 -3 -7.5
t-3 -3.5v11h6zM65 517v38l6 -32zM65 295v184l6 -184h-6zM71 258h-6v26q5 -4 5.5 -11t0.5 -15zM55 230l-6 16l6 -5v-11zM71 203h-6v16q5 -4 3 -7.5t3 -8.5zM49 181q0 -1 -1 -2q-2 -2 -5 -2h-6l6 4h6zM65 165v12v-12zM65 149q-5 -8 0 -16t0 -17v33zM55 100l-6 16l6 -4v-12z
M71 57h-6v11q5 0 3 -3.5t3 -7.5zM71 13l-6 -4v10q5 0 3 -3t3 -3z" />
    <glyph glyph-name="M" unicode="M" horiz-adv-x="837" 
d="M264 668l10 -24q5 6 10.5 7t5.5 -7q-10 0 -11 -4t0.5 -10l3 -12t-2.5 -11q5 -2 7.5 -1t2.5 -1q4 2 4.5 6t0.5 8q8 -4 9 -11.5t0.5 -15.5t-0.5 -15t6 -11q0 -5 2.5 -8.5t-2.5 -3.5l-11 6q-3 -2 -2.5 -4t2.5 -3.5t4 -3.5t2 -4q4 -8 2.5 -18.5t2.5 -12.5q8 0 9.5 5.5
t1.5 11.5q-4 3 -4.5 4t-0.5 5q5 -2 6.5 -6t2 -9t1.5 -11t4 -11q5 -5 7 -14t-1 -14h-11q4 -3 8 -9.5t7 -6.5q-7 -11 0 -25.5t11 -27.5q-4 -15 2 -28t13 -24q7 -14 8 -26t13 -16q3 -23 9.5 -41t11.5 -38q2 -2 1 -5t-1 -6q0 -2 1.5 -4t7.5 -2q5 15 8.5 31t11.5 27q24 81 50 157
t54 157q5 10 6.5 23.5t5 26t10.5 21.5t22 9q23 0 51.5 1t50.5 -7q9 -16 9 -34t7 -29q7 6 4.5 14.5t2.5 16.5q0 -12 5 -26t-3 -22q-2 0 -1 3.5t-1 6.5q-8 -11 -4 -20.5t4 -20.5q2 -8 3 -4t6 4l7 -35t10 -41l-13 6q-3 0 -3.5 -5.5t-0.5 -10.5h-7q3 8 2 17t-1.5 17.5t1.5 17
t9 14.5q0 7 -3 8.5t-8 5.5q-2 0 -2 -10q0 -2 -3 -1q-2 1 -4 1q0 -16 1 -36t8 -40q0 -3 -1 -5.5t1 -2.5q5 -5 6.5 -2.5t4.5 2.5v4q4 -17 6 -38t10 -35q0 -5 0.5 -2.5t5.5 2.5q2 11 -3 16.5t-3 13.5q6 -2 7 -6.5t1 -9.5q0 -4 1 -8t7 -6v-50q0 10 -5.5 17.5t-10.5 18.5v-14
q-2 0 -6.5 -0.5t-4.5 -5.5q0 -1 4 -7q2 -3 4 -5q2 0 2.5 5t0.5 7q5 -12 6.5 -25.5t9.5 -22.5h5q3 -12 4 -26.5t6 -30.5q-5 3 -6 10.5t-4 15.5q0 9 3 17.5t-8 8.5l-7 -21q-3 0 -3 -10q2 -8 8 -16.5t2 -20.5q7 -8 8 -16t1 -15q-6 0 -7.5 -3t-0.5 -7t2.5 -9t1.5 -9
q10 0 10.5 -8.5t2.5 -14.5l-3 -2v5q0 5 -6 5q0 -6 -0.5 -15.5t9.5 -5.5q0 -5 1 -5.5t6 -0.5q-5 7 -3.5 22.5t-3.5 19.5q0 4 -1 8t1 6q10 -11 9 -22.5t4 -27.5q-2 -2 -1 -4.5t2.5 -5.5t3 -6.5t-0.5 -7.5l-10 7q-5 -14 2.5 -34.5t7.5 -44.5q0 -13 3.5 -28t-3.5 -31
q-3 3 0 11.5t-4 16.5h-16q-4 -5 -4 -14q0 -10 -11 -10q-6 -2 -8.5 2t-5 7.5t-6.5 4t-12 -6.5v7l13 3q-13 5 -27 6.5t-25 -6.5q-5 0 -8.5 4.5t-7.5 2.5q-3 28 -10 52.5t-10 50.5q-12 62 -18 121t-19 116q-6 3 -10 1t-8 -5.5t-8 -5.5t-9 1q0 -3 -3.5 -7t-3.5 -12q4 -2 8.5 2
t8.5 7t6.5 2.5t2.5 -11.5q-6 -10 -8.5 -22t-4.5 -24t-5.5 -23t-10.5 -21q-5 -23 -15 -45t-10 -47q-5 -2 -7 -6.5t-10 -9.5q-2 2 -4 2t-3.5 -0.5t-1.5 -5.5q-3 -4 -0.5 -5.5t6 -3t5.5 -3t-2 -5.5q-7 0 -10.5 -3t-5 -7.5t-2 -8.5t-2.5 -6q3 -9 8 -13t3 -15q-5 -16 -13.5 -29
t-12.5 -28q-5 -5 -8.5 2t-7.5 5q-1 1 1 4.5t3.5 7t1.5 6.5q0 4 -6 6q0 -12 -5.5 -13.5t-12.5 -1t-12.5 0t-5.5 -9.5q-4 -5 -4.5 -2t-0.5 5t-1 4q-1 3 -4 3q-14 0 -29 0.5t-27 -7.5l-1 -2q-1 -2 -1.5 -4t-2.5 -4q0 13 -10 21.5t-10 21.5q-12 38 -26 75.5t-25 75.5
q-16 54 -31 105.5t-35 103.5q-5 0 -6 -5.5t-4 -10.5q7 -34 -11 -58q-2 -4 -0.5 -9t2.5 -10t0 -9.5t-7 -7.5h9l7 8q7 -8 0 -25q-5 0 -3.5 -6t-3.5 -11q-3 5 -2.5 11t-6.5 6q-3 -4 -2.5 -9t0.5 -10t-1.5 -10t-7.5 -8q2 -4 0.5 -9l-3 -10t-1.5 -10t4 -8q-5 -6 -7.5 -10
t-2.5 -12q2 -4 5 -6.5l6 -5t4.5 -5.5t-1.5 -8q-4 -4 -4.5 -2.5t-0.5 4.5q0 4 -0.5 7t-4.5 1q-3 -16 -5 -35t-10 -36q0 -5 -1 -11.5t-1 -12.5t3 -10.5t10 -5.5q-5 -5 -3 -12t-3 -11q0 4 -5 8.5t-9 8.5q0 -9 -1.5 -21t6.5 -20l4 10q0 -5 1.5 -11t-5.5 -6q-8 -4 -12 0.5
t-6.5 10t-5 7.5t-7.5 -8v-3q-8 -5 -9.5 -2t-1.5 5l-4 7q-20 0 -38 0.5t-33 -7.5h3l-3 -3q-5 0 -6 5t-3 5q-5 7 -2.5 18t4.5 19q3 34 8.5 67.5t12 67t12.5 67.5t9 68q8 8 6.5 15.5t3.5 17.5q7 51 15.5 104.5t19.5 104.5q0 26 8 46.5t8 43.5q0 9 3.5 13t9 5.5t11.5 2.5t12 3
q10 -5 19 -5q10 0 20.5 1.5t21 3.5t21.5 0zM694 588q-5 8 -6 15t-1 16q-1 -4 2 -8l6 -8t4 -7.5t-5 -7.5zM286 599h4h-4zM305 560q-8 0 -9.5 6t-5.5 11v5h9zM321 503q-2 0 -4 2q-1 1 -1 2h5v-4zM325 491v-10v10zM739 451v-7l-3 7q3 3 3 2v-2zM351 444l-5 7h5v-7zM723 386v15
q4 0 4 -6q0 -5 -4 -9zM606 360q-2 -2 -3.5 -3t-3.5 -2t-4 -1q0 8 2.5 19t-2.5 18q8 -4 8 -15q0 -10 3 -16zM375 360q-3 0 -6 5t-3 10q4 5 6.5 -3.5t2.5 -11.5zM728 364v4v-4zM397 312v-6l-6 6h6zM219 312h4v-12h-4v12zM576 284q-5 -8 -6.5 -15.5t-3.5 -15.5q-5 8 -1.5 19
t11.5 17v-5zM745 284v5v-5zM554 243q0 -8 -2 -9.5t-2 -6.5h-9q2 5 3.5 12t9.5 4zM208 220v13v-6v-7zM770 227h3v6h-3v-6zM208 199q-1 -1 -2 -1q-3 0 -3 1v17q4 -5 4.5 -8.5t0.5 -8.5zM541 196h-7v13q0 -3 3.5 -7t3.5 -6zM530 190h4v-8h-4v8zM203 168l-11 5l4 9q5 0 6 -5
t1 -9zM515 132v11v-11zM192 132v-17v17zM482 45q5 21 12 40.5t14 40.5q0 -23 -10.5 -41.5t-15.5 -39.5zM192 98q-4 -3 -4.5 -7.5t-0.5 -9.5q0 -4 -0.5 -7.5t-4.5 -5.5q-5 0 -2.5 3t2.5 7q2 2 1.5 5t-0.5 6q0 4 1.5 6.5t7.5 2.5zM773 82v14v-7v-7zM795 45v14q3 0 1.5 -5
t-1.5 -9zM806 -5l-7 -7q0 5 -1.5 6t1.5 1h7z" />
    <glyph glyph-name="N" unicode="N" horiz-adv-x="628" 
d="M61 662q31 0 61 0.5t58 -7.5q66 -101 132 -198.5t137 -199.5v7v391l6 7h123l6 -13v-151q-5 -17 -5 -42q0 -24 5 -42v-122q-7 -6 -7.5 -11.5t1 -11t3 -11.5t-2.5 -14q0 -10 -1.5 -21t-2.5 -22t1 -21.5t9 -21.5q-5 -20 -5 -41q0 -20 1 -41t1.5 -42t-3.5 -41q-9 -4 -15 0.5
t-11 9t-10 4.5t-12 -14q-7 0 -14 -0.5t-3 13.5q-19 -10 -34 0q-5 0 -6.5 3t-6.5 3q0 -10 -4.5 -16.5t-12.5 -2.5q-8 14 -17.5 30t-17.5 30q-5 3 -8 7.5t2 9.5q-6 3 -10 7.5t-7 10.5t-7 12t-11 11q-14 21 -30 43t-30 45q3 0 4 1l2 2t1 2q-9 0 -14 5t-8.5 12t-6 15.5
t-6.5 14.5q-5 0 -6.5 2t-2 5l-1 6t-3.5 4q-13 18 -27 36.5t-14 41.5q-13 0 -23 10q0 13 -2 25.5t-16 15.5l-6 -4v-370q-6 -3 -10 -8t-6.5 -10t-5 -8.5t-6.5 -3.5q-4 4 -2 9q1 3 2 4q-5 -3 -13 -1t-15.5 3t-13 -1.5t-5.5 -13.5h-24l-6 19q-4 0 -13.5 -0.5t-14.5 -5.5l-7 -13
q-8 5 -7 9.5t1 9.5q9 4 9.5 8t-2 8.5t-4 9t2.5 9.5q3 6 2.5 15t0 17.5t3 15.5t11.5 10q0 5 -2.5 9t-7.5 4q2 10 0 21t-5 22t-4.5 22t2.5 21q5 9 2.5 17.5t-2.5 18.5q-6 4 -7 10.5t0 13.5t2 14.5t-1 13.5q10 13 10 32t-10 32v95l6 4q-6 8 -5 15.5t3.5 15.5t4.5 15.5t-3 13.5
q5 4 3.5 8.5t3.5 9.5l-13 10q2 12 2 24v26t2 24.5t9 20.5q-10 5 -11 12t4 12q5 0 9.5 -2.5t7.5 2.5zM537 23h17h-17z" />
    <glyph glyph-name="O" unicode="O" horiz-adv-x="730" 
d="M697 372v-92q-2 -2 -6 -4t-6.5 -4.5t-2.5 -4.5t5 -4q-5 -23 -8 -43.5t-16 -38.5q-5 -22 -18 -41.5t-29.5 -37t-35 -32.5t-33.5 -28q-23 -13 -47.5 -22t-50.5 -19q0 5 -1 6.5t-6 6.5q-4 2 -11 -5q-4 -4 -6 -8q-10 -5 -18 -7t-16 1q-7 7 -15 9t-16 1t-16.5 -2.5t-17.5 -1.5
q-43 -6 -82 7t-73 38.5t-62.5 58.5t-50.5 66q-3 16 -10 33.5t-7 34.5l-4 7q-11 56 -7 111t23.5 104.5t54.5 91t86 70.5q26 13 54.5 23.5t54.5 10.5q38 8 74 6t72 -12q30 -4 56.5 -16.5t50 -29.5t44 -38t39.5 -43l11 -23q18 -26 29 -59t8 -63zM449 512h10q-5 5 -6 5.5t-4 0.5
v-6zM286 524h6l4 5h-10v-5zM541 239q0 15 2.5 30.5t5 31.5t4 32.5t-0.5 34.5q-4 16 -7.5 32.5t-20.5 29.5q0 5 -2 8.5t-3 6.5t-0.5 6.5t5.5 8.5q-10 5 -17.5 4t-12.5 7q-14 13 -27.5 22t-30.5 14q-4 8 -12.5 10.5t-16.5 3.5t-13.5 3t-2.5 11h-24l11 -6q0 -1 -1 -2l-2 -2
t-4 -1t-12 -1.5t-9 6.5q-5 5 0.5 3t10.5 3q-13 5 -29 4.5t-29 -10.5q0 -4 3 -5t3 -6q-35 -18 -67 -44.5t-48 -64.5q-1 0 -3 1q-4 2 -4 3q8 31 28.5 54.5t46.5 44.5h11q5 5 5.5 6t0.5 6q-17 0 -28.5 -13t-29.5 -23q-4 -6 -9.5 -11.5t-11 -11.5t-9.5 -13t-4 -16
q-18 -20 -24 -49t-6 -60q0 -30 9.5 -59t27 -53.5t41 -43.5t51.5 -30q5 -5 14.5 -6.5t13.5 -4.5q5 -5 13.5 -4.5t5.5 8.5h4v-4l7 -7q38 0 70 17t62 35q10 0 14 1.5t4 11.5q6 4 11 11t10 14.5t11 14.5t15 11zM174 368q5 8 3.5 16t3.5 18q0 -23 -3.5 -47t-3.5 -45h-4
q0 13 0.5 28.5t3.5 29.5zM211 211q17 -14 28.5 -28.5t29.5 -24.5h-7l-51 41v12v0zM292 147q3 0 7 -0.5t4 -5.5l-11 6v0z" />
    <glyph glyph-name="P" unicode="P" horiz-adv-x="476" 
d="M440 506q5 -32 -1.5 -64.5t-11.5 -64.5q-19 -33 -53 -61.5t-76 -37.5l-6 6q-6 -10 -15 -9t-23 -4q-5 5 -9 4t-9 9q-7 -5 -17.5 -4t-21.5 1q-10 0 -18 -4t-10 -18v-260q0 -4 -4.5 -4.5t-8.5 -0.5q-14 4 -34 7t-34 -7l6 -18q-5 -5 -9.5 -2.5t-9.5 2.5q0 9 -6.5 14t-11.5 9
q-5 0 -12 -1t-7 9q0 166 -2 330t2 336h6l7 -6q23 0 43 3t44 3q5 -10 19.5 -7.5t23.5 7.5q5 5 13.5 2.5t16.5 -2.5q-4 0 -2 -0.5t2 -5.5l87 -7q7 7 14 7q8 0 16 -3.5t16.5 -8.5t15.5 -7q37 -23 58.5 -59.5t21.5 -82.5zM292 494q4 9 8 5q2 -2 4 -5q0 5 -0.5 11t-5.5 6
q-2 5 -4.5 5.5t-5 -0.5t-5 -3t-4.5 -2q-7 10 -17 13t-21 4t-21.5 0.5t-19.5 1.5q-5 10 -13 4.5t-13 -10.5v-111q14 0 31 2.5t31 -2.5q14 5 27 11.5t21 19.5q6 14 9.5 25t-1.5 25zM298 433q5 8 11 20.5t1 21.5q-9 -9 -10.5 -19t-1.5 -23z" />
    <glyph glyph-name="Q" unicode="Q" horiz-adv-x="738" 
d="M637 66q14 -21 34 -42.5t29 -43.5q-4 0 -7.5 -4t-7 -7.5t-6.5 -3.5t-8 9q-4 4 -9 4t-9.5 -1.5l-9 -3t-6.5 0.5q-6 -6 -13.5 -8t-16.5 -2q-8 0 -16.5 0.5t-17.5 -1.5q0 6 -2.5 8t-6 2.5t-6 1t-2.5 5.5q-9 -5 -4.5 -6t4.5 -6h-6l-53 59q-17 -11 -35 -13.5t-37.5 -2t-40 1.5
t-42.5 -4q0 -6 -3 -8t-8 -2q-4 0 -9 0.5t-10 -1.5v11q-15 -6 -28.5 -5t-27 5.5t-27 10t-26.5 7.5q-53 25 -93.5 69.5t-62.5 97.5q-6 7 -8 14t-2.5 14.5t-1.5 15t-5 13.5q-2 33 -3.5 68t2.5 69t14.5 66t32.5 58q26 41 62 72.5t79.5 52t92.5 27.5t101 -2q37 -4 71.5 -20.5
t65 -40t56.5 -53t45 -59.5q5 -26 16.5 -46t11.5 -40q4 -7 4 -13q0 -5 -1 -10.5t-1 -11.5q0 -5 4 -12q4 -61 -15 -119.5t-54 -106.5q0 -8 -0.5 -13t-5.5 -10q5 -9 10 -15t14 -14q4 0 4.5 3.5t0.5 7.5l28 -40q-6 0 -8.5 4.5t-4.5 8.5t-5 6.5t-10 -2.5zM53 206h-6l6 -6v6z
M100 119q6 -4 12.5 -12t13 -16.5t14 -15.5t16.5 -9q-17 14 -30.5 27.5t-25.5 30.5v-5v0zM423 154h-6q0 -1 1 -3q2 -3 5 -3v6zM480 280q-3 -8 2 -12.5t10 -4.5q-5 5 -6 9t-6 8zM538 -2q-5 -5 0.5 -8t5.5 2q0 1 -1 3q-1 3 -5 3zM538 251q0 11 4.5 21t8 20t4.5 20t-5 21
q0 13 -0.5 20t-5.5 21q-6 23 -18 47t-29 44t-38.5 34.5t-47.5 18.5l-23 6q-11 -4 -20 -2.5t-17 3.5t-16 2t-17 -9q-43 -9 -76.5 -39.5t-55.5 -65.5q-4 0 -1 6.5t-5 10.5q0 5 3.5 5.5t7.5 0.5q18 26 37.5 50t50.5 38q-35 -9 -64.5 -36t-46.5 -58q-9 -30 -13.5 -62.5t-1 -64.5
t16.5 -61.5t39 -52.5q5 4 6 8t6 9q8 -5 17 -10.5t18 -18.5q-4 -2 -7 -0.5t-4.5 4.5t-3 5.5t-3.5 2.5q-5 4 -9 2t-8 -2q2 -9 7 -14t11 -8.5t12 -6t10 -6.5q30 -23 67 -25t72 7h-6q5 5 5.5 9t0.5 9q-22 26 -43.5 55t-44.5 60q9 0 8 6t4 11l156 6q9 -13 19.5 -22.5t15.5 -18.5
q-2 -6 -5 -6t-6 2t-5 4t-2 0l12 -17q5 0 5.5 3.5t0.5 7.5l17 -11l6 17v0zM406 165l-6 6zM336 251q0 -4 3.5 -8t8 -8t8 -6.5t3.5 -4.5zM694 15q0 -5 -5.5 -1t-5.5 13q2 -2 3.5 -4t3.5 -4l4 -4v0zM209 224q-2 2 -7 5.5t-8.5 7.5t-5 8t2.5 6q9 -5 11 -12t7 -15zM180 368
q0 8 -2.5 19t2.5 16q5 -9 2.5 -18t-2.5 -17zM180 356v-29v29zM291 159q3 0 4 -2.5t6 -2.5q-10 0 -10 5z" />
    <glyph glyph-name="R" unicode="R" horiz-adv-x="531" 
d="M502 2q0 -9 -3.5 -12t-8.5 -13h-6q5 5 7 9.5t-7 9.5q-7 5 -13.5 3.5t-11.5 -3.5t-9.5 -3.5t-9.5 3.5q-28 9 -38 -13q5 5 -1.5 9t-11.5 4q-4 -2 -2 -4.5t5 -5t3.5 -5t-6.5 -4.5q-4 2 -12.5 1t-17.5 -1q-8 0 -14 3.5t-6 15.5q5 5 4.5 9.5t-3 9t-5 9.5t-2.5 9l-18 6
q7 2 6.5 8.5t-3.5 15t-8 17t-7 15.5q-11 0 -18.5 5.5t-7.5 20.5q0 5 -3.5 12.5t-8.5 12.5q-5 0 -12 1.5t-7 10.5q2 5 1.5 9t-2 7.5t-3.5 7.5t-2 8q-11 9 -20.5 21t-23.5 23q-4 -2 -5 -6.5t-0.5 -10l1 -11t-1.5 -10.5q9 -5 7 -10t-7 -15v-169q-10 0 -14.5 -6.5l-9 -13
t-10 -9.5t-16.5 4q-2 14 -10.5 18t-20.5 4q-11 0 -23 -1t-21 4l-26 -25q-4 7 -4 16t1 18.5t1.5 18t-4.5 15.5q0 8 6.5 12t12.5 8.5t7.5 9.5t-8.5 14q-5 0 -11 1.5t-1 10.5q-2 8 0.5 10t7 3t8.5 2t4 5q0 19 -6 36t-20 27q-5 5 1 11.5t11 6.5q11 -4 12.5 6t1.5 20
q0 5 -2.5 5.5t-5.5 0t-6.5 -1t-5.5 1.5v36q-4 3 -3 6.5t3 7.5t3.5 9t-3.5 9q10 -4 14 -0.5t5.5 10t1 15t-0.5 12.5q5 6 1.5 10.5t-9.5 9.5h-12v12q5 0 12.5 -1.5t7.5 7.5q0 5 1.5 11.5t-9.5 6.5q-5 0 -9 0.5t-9 5.5q2 5 2.5 11.5t2 12t4 8t9.5 0.5q11 5 9.5 13.5t-1.5 18.5
q-5 2 -8 1.5t-5.5 -2t-5 -2t-7.5 2.5q2 5 2.5 10l1 10t2.5 8t6 3q11 -5 12.5 -2t1.5 8t-1 9t-7 9q-4 -2 -7 -1t-4.5 3.5t-3 6t-3.5 5.5q0 5 0.5 8.5t5.5 3.5t9.5 0.5t10.5 5.5l6 119q42 -2 85 -1.5t84.5 -1t80.5 -9t74 -26.5q10 5 12 -1t7 -11q7 -7 12.5 -16t10.5 -17.5
t11.5 -15t15.5 -8.5v-12q-2 -12 3 -20.5t9.5 -16t5 -15t-11.5 -16.5q2 -19 -1 -37t-7.5 -35t-8 -33t-1.5 -32q-5 -7 -9.5 -8.5t-9.5 -1t-10 0.5q-4 0 -9 -5q-14 -14 -31.5 -21.5t-37.5 -21.5q9 -15 17.5 -31t26.5 -25q-4 -7 -3 -14.5t5 -14.5t9 -13.5t8 -13.5q9 0 11.5 -5
t3 -11t2 -11t8.5 -5q0 -19 11 -37t20 -32q5 -2 6.5 -6.5t2 -9l1 -9t2.5 -7.5q12 -2 15 -8t4 -13t2.5 -13t10.5 -9zM51 252q6 5 2.5 11.5t-8.5 6.5l6 -18v0zM321 433q9 9 13 19.5t-1 24.5q-5 5 -11.5 10.5t-6.5 14.5q-9 0 -15.5 3.5t-16.5 8.5q5 14 0.5 19t-13.5 6t-19.5 0
t-17.5 1q-5 -5 -2.5 -6t2.5 -6q-3 -5 -6 -6t-7 -1q-3 0 -6.5 -1t-5.5 -6q-18 -23 -13.5 -50.5t13.5 -54.5q29 0 59 3t54 21zM45 315l-6 6h6v-6zM33 139q0 5 3.5 11.5t8.5 1.5v-13h-12z" />
    <glyph glyph-name="S" unicode="S" horiz-adv-x="489" 
d="M411 590q5 0 8 -3q2 -2 4 -3q5 -14 8 -23.5t3 -23.5q-2 -4 -9 -4h-14q-6 0 -9 -2.5t3 -11.5q0 -4 -1.5 -10t-10.5 -1h-5v6q-7 -4 -13.5 -10t-13 -10.5t-13 -6t-13.5 2.5q-7 11 -16.5 17t-20 11t-20.5 10.5t-19 14.5q-2 -4 -7 -4q-4 0 -9 1.5t-10.5 3t-10.5 -0.5
q-8 -9 -16 -12.5t-13 -16.5q-4 -13 1 -22.5t13.5 -18t18.5 -17t14 -19.5q14 -6 25.5 -16t23 -20.5t24.5 -19.5t28 -14q2 -13 11.5 -19t19 -10t16.5 -10t5 -19q5 -4 9 -7t7 -6t3.5 -6.5t-1.5 -10.5q5 -6 11 -7.5t11 -2t9 -2.5t4 -11q9 -14 7.5 -30t-1.5 -30q-5 0 -5.5 -0.5
t-0.5 -5.5q-4 -4 -2 -8l2 -4q5 5 6 2.5t6 -2.5q-2 -4 -2.5 -12t-2 -16t-4 -15t-9.5 -9q-13 -40 -48.5 -75t-79.5 -48l-44 -4t-43.5 -1t-41 6t-37.5 16q-31 18 -55.5 43t-38.5 51q-8 5 -13 13l-10 16q5 5 6 8.5t6 3.5q6 5 11 4.5t9.5 -1.5t8.5 -1q5 0 12 4q4 2 5 5t1.5 6.5
t2.5 6.5t8 5q7 -4 12.5 -2.5t11 4.5t11.5 6.5t12 3.5q7 -13 16.5 -26.5t21.5 -24.5t26.5 -18t29.5 -7q14 -9 30 -3t30 15q9 8 16 20.5t7 25.5q-13 37 -41 64t-60 49q-26 18 -45.5 41.5t-42.5 40.5q-8 0 -16 3.5t-13 8.5q0 11 -5.5 18t-10.5 13t-8 12t1 15q-15 7 -16 15.5
t1.5 17t3 17t-12.5 15.5q5 9 6.5 17.5t4 17t6.5 16t13 13.5q4 15 14 27.5t23.5 23t28 18.5t27.5 15q63 17 124 0.5t100 -66.5h6zM440 91h-6q0 1 1 3l2 4t3 4q4 -4 2 -8q-1 -2 -2 -3z" />
    <glyph glyph-name="T" unicode="T" horiz-adv-x="452" 
d="M418 675h6v-138l-112 -4q-5 -5 -8 -20t2 -24q9 -5 7.5 -9.5t-1.5 -9.5q-5 -60 -5.5 -119.5t0 -118t1 -115.5t-1.5 -113q-37 -5 -77 -5t-72 5v13q2 0 4 1q3 2 3 5q0 5 -2 15t8 15q0 1 -1 3q-1 3 -5 3q-5 -2 -7.5 -0.5t-4.5 5.5t-3.5 8t-3.5 6q14 24 12.5 47t-6.5 46l6 81
q0 5 6 9.5t1 9.5q4 2 7 5q2 2 3 5.5t-4 8.5h-6q6 9 8 21.5t2 26.5t-0.5 29t0.5 29q-8 5 -5.5 9.5t5.5 9.5q-3 14 -2 26.5t-2 21.5h-13q-2 7 -1.5 15.5t1 16.5t0 16.5t-5.5 15.5h6q3 -3 3.5 -7t1 -8.5t2 -7.5t6.5 -3q3 10 2.5 21.5t-8.5 14.5h-100q-7 0 -9 4.5t-3.5 9
t-3.5 5.5t-9 -6q5 0 4 -6.5t-10 -6.5q-5 3 -6.5 10.5t-1 17t2.5 19.5t5 17q9 -5 11.5 2t7.5 17q-5 5 -9.5 5.5t-9.5 0.5v17q9 5 11.5 -1t7.5 -9q5 8 3 16t3 13l167 7q0 9 4 4.5t9 -4.5h93q5 9 16 8.5t16 3.5q9 3 16 -1.5t13 -8.5t12.5 -5t13.5 9zM52 569h-13l13 25
q-3 -4 -2.5 -8t2 -7t2 -5.5t-1.5 -4.5z" />
    <glyph glyph-name="U" unicode="U" horiz-adv-x="531" 
d="M393 701q5 -6 -1 -10t-10 -9q-5 0 -5.5 3.5t-0.5 7.5q0 6 0.5 10t5.5 4q4 0 7.5 -0.5t3.5 -5.5zM125 701q0 -6 -3.5 -7t-8.5 -1v8h12zM180 189q10 -23 31.5 -42t48.5 -19q26 -5 49 3.5t43 27.5q-10 14 -9.5 25.5t3.5 22.5t6.5 23t-0.5 26l17 -6q5 8 4.5 24.5t-11.5 30.5
q0 9 6 17.5t1 18.5q-5 5 -11 12.5t-6 18.5q-4 5 -0.5 9.5t0.5 14.5q-7 5 -9 10.5t-1.5 11t2.5 11.5t2 10q0 3 3 4q2 1 3 0q8 -3 6 -10.5t-2 -13.5q-1 0 -3 -3q-1 -2 -1 -3l17 -17v6v139q-5 10 -11.5 8.5t-11.5 -1.5q-3 5 -1.5 7.5t4.5 4.5t7 3.5t6 3.5q5 -5 8.5 -2t-1.5 6
q5 11 -2 13t-15 7q6 9 7 16.5t0 15t-2.5 16t-0.5 19.5l20 12h122v-501q-11 -8 -9.5 -17.5t1.5 -17.5q-2 -4 -7 -9t-8.5 -10.5t-4.5 -11t4 -11.5q-7 2 -11.5 -0.5t-7 -7.5t-4 -10t-3.5 -7q0 -2 2 -2.5t4 -1.5t4 -3t2 -7q-5 0 -6 -3t-6 -3l-5 20q-46 -46 -109.5 -61t-129.5 0
q-31 13 -55 28t-47 33h-14q0 -11 -4 -12.5t-9 -1.5q-12 8 -15.5 20t-4.5 26l-2 28t-9 25q-1 14 1.5 27.5t3.5 27t-1.5 26t-13.5 23.5q7 4 9 11.5t2 15.5q0 9 -1 18t0 16q-8 3 -11.5 15t1.5 20q0 5 8 10t2 10q-2 5 -5 8t2 8q8 15 8 35t-8 34q8 17 4.5 42t-11.5 42
q4 14 4.5 27t0.5 25t0.5 23.5t4.5 23.5q0 9 -4 15t4 15l14 6l116 -6zM285 -30l-8 -14q0 5 -2.5 6.5t2.5 7.5h8z" />
    <glyph glyph-name="V" unicode="V" horiz-adv-x="662" 
d="M163 665q14 -28 24 -56.5t19 -61.5q33 -84 62 -166.5t62 -167.5q9 5 11.5 13t7.5 18q-3 7 0 13t6 11t3 10t-9 9q0 20 6 37.5t6 36.5q5 -4 7 -14.5t11 -10.5q28 71 55 140.5t50 143.5q-2 33 13 41.5t37.5 7t48 -6t44.5 2.5q5 0 2.5 -7t-2.5 -12q-14 -37 -28.5 -77.5
t-34.5 -77.5q-36 -125 -81 -246t-91 -242q-12 -9 -25.5 -8t-27 4t-26.5 3q-12 0 -21 -12q-4 7 -11 7.5t-14 0t-12 1t-5 10.5q4 0 5 3q1 2 1 3q0 5 -0.5 13t-5.5 13q-4 -5 -7 -4.5t-5.5 3.5t-5.5 7t-8 6q0 23 -10.5 50t-19.5 55q9 22 -0.5 44.5t-18.5 41.5q-9 0 -13 7.5
t-4 16.5q-6 14 -5 25.5t-10 25.5q-11 11 -11 31q4 13 -1.5 27t-10.5 28q-2 2 -4.5 1.5l-5 -1t-5 0.5t-4.5 5q-4 12 -4 21q0 10 0.5 19t-0.5 18.5t-8 21.5q-14 5 -20 20t-11 29q5 5 8 6.5t-2 6.5q-10 0 -14.5 11t-4.5 21q0 7 -4.5 13.5t-8.5 13t-5.5 13.5t5.5 14q5 5 -0.5 13
t-5.5 13q33 5 69 2.5t68 -2.5z" />
    <glyph glyph-name="W" unicode="W" horiz-adv-x="847" 
d="M64 672l7 -6q7 -2 12.5 1t10.5 6t9.5 2.5t8.5 -9.5q5 7 11.5 8.5t14 1t15 -2t14.5 -1.5q5 -9 6 -21.5t6 -26.5h-12q0 5 -0.5 6t-4.5 6q4 -9 6.5 -23.5t16.5 -18.5q5 -41 15.5 -74.5t14.5 -70.5q5 -28 11.5 -48.5t6.5 -47.5q-3 -2 -5 -4q-4 -4 0 -8q9 5 11 1.5t2 -10.5
v-13q0 -6 4 -8q2 -5 0.5 -8.5l-3 -7t-1.5 -7.5q0 -3 4 -8q12 18 18.5 37.5t11.5 38.5l10 38t14 37q14 60 31.5 114.5t35.5 114.5q9 5 21 5h24t24 2t21 11q16 0 22.5 -8t9.5 -19t4.5 -23.5t5.5 -21.5l25 -55q-4 -7 -4 -14q0 -6 3 -13t6.5 -13.5t5.5 -12.5q7 -9 8.5 -20.5
t2 -23.5t3 -24t11.5 -23q-2 -11 1.5 -20.5t8 -19t7.5 -20t1 -24.5q5 -5 6 -12t6 -7q9 16 13.5 33t8 34.5t6.5 35.5t8 36q14 54 25.5 111.5t34.5 111.5q3 7 5.5 6t4.5 -3t4 -3t4 6q11 7 22.5 5.5t22.5 -4.5t21 -3.5t19 8.5q5 -9 13 -16t17 -2q5 -23 -2 -42t-17 -42
q-8 4 -10.5 -4.5t-7.5 -13.5q0 -5 4 -9l9 -9q-5 0 -5.5 -1t-0.5 -6l-12 7q-5 0 -3 -7t-3 -12q0 -3 3 -5q2 -1 3 -1l5 6q5 0 8.5 -4.5t-1.5 -13.5q-5 -4 -9 -5.5t-9 -6.5q2 -7 5 -14.5t4 -15t-0.5 -13.5t-8.5 -11q-5 0 -12 1.5t-7 -7.5q0 -5 -2 -8.5t2 -3.5l19 6
q0 -10 -3 -15.5t-3 -14.5l-18 -6q9 -22 6.5 -42t-9 -40t-12.5 -41t-3 -46q-5 -5 -9.5 -5.5t-8.5 -0.5q-7 -7 -5.5 -14.5t4 -14t1.5 -12t-12 -7.5q-2 -4 -1 -9.5t2.5 -11t0.5 -9.5t-8 -7q-7 -13 -10 -26.5t-4.5 -27t-3.5 -27t-7 -27.5q5 -5 6.5 -9t6.5 -9q-7 -7 -15.5 -4.5
t-17.5 6t-18 4t-17 -11.5q-13 0 -26 3t-27 3q-5 0 -6.5 6t-6.5 6h-12q-27 96 -53.5 186.5t-53.5 181.5l-7 6q-9 -11 -11.5 -26t-4 -30.5t-5.5 -29.5t-15 -23q0 -11 -3.5 -19.5t-7.5 -16.5t-6.5 -16.5t-0.5 -19.5q2 -9 -2 -15.5t-9.5 -12t-8.5 -11.5t1 -15q-4 -23 -11 -42
t-7 -36q-8 -19 -11 -36.5t-12 -36.5q-3 -2 -6 -1.5t-7 2t-8 2t-9 -2.5h-36q4 5 1 6.5t-8 5.5q-4 0 -12.5 1.5t-17.5 -6.5q5 0 3.5 -3.5t3.5 -3.5q-5 0 -10.5 -3t-14.5 -3q-14 27 -17.5 54t-12.5 55q-32 141 -63.5 279.5t-63.5 274.5q5 9 12 9q8 0 13 9zM812 649h-6q1 3 3 4
l2 1q1 0 1 -5zM728 311v5h5z" />
    <glyph glyph-name="X" unicode="X" horiz-adv-x="648" 
d="M192 669q32 -51 64 -100.5t64 -100.5q23 9 36.5 31.5t18.5 41.5q7 0 10.5 3t6 7.5t4 10t4.5 9.5q0 5 -2.5 9t2.5 9l12 -6q5 10 12 19.5t12 23.5l-13 6q5 3 7 6t3 6.5t3 7t7 5.5q4 -10 11.5 -3.5t11.5 15.5h141q-5 -4 -3 -11.5t3.5 -14t0 -10t-13.5 -1.5q-8 -8 -15.5 -15
t-7.5 -21l5 -7q0 -4 -2 -4.5t-5 0t-6 0.5t-5 -2q0 -4 -4.5 -9l-9 -10t-6.5 -10.5t2 -12.5q-5 -5 -4 -12.5t-8 -12.5q-5 0 -8.5 2.5t-3.5 -2.5q-4 0 -3 -3q1 -2 3 -3h5q-4 5 -11.5 -1t-11.5 -11q0 -4 2.5 -7t5 -4.5t2.5 -3.5q0 -1 -5 -3q-9 0 -16.5 -5t-7.5 -14
q2 -7 0.5 -12.5t-4.5 -11t-6 -10t-3 -9.5q-11 0 -17.5 -6t-11 -14.5t-8.5 -17.5t-11 -16q9 0 4.5 -7t-4.5 -12q-7 -7 -5.5 -13t6 -11.5t10 -11.5t7.5 -13q47 -73 92 -143t91 -144q-7 -4 -15.5 -2.5t-16.5 3t-14 0t-9 -12.5h-66l2 4q2 4 -2 8q-5 0 -6.5 -3t-6.5 -3l6 -6h-25
q7 9 5.5 14.5t-5.5 9.5t-7 8t2 11q-19 14 -27 30.5t-22 30.5q-5 18 -17 35.5t-26 31.5q-5 0 -5.5 -4t-0.5 -8q5 -5 7.5 -11.5t6 -12.5t9 -11.5t14.5 -7.5q0 -9 4.5 -15.5t9.5 -12t8.5 -12t0.5 -15.5q10 -10 19.5 -22.5t0.5 -26.5q-15 18 -24.5 33.5t-18.5 33.5
q-14 23 -27 42t-23 38q-4 9 -8 18.5t-4 18.5q3 2 5 4q5 5 2 7q-5 10 -12.5 9t-12.5 4q-12 -2 -12 -8t1.5 -12t0.5 -11t-15 -5q-2 -7 -7 -12.5t-9 -10t-5 -9t3 -11.5q-9 -3 -12.5 -9t-5 -13t-3.5 -13t-9 -8q-10 -9 -12 -17.5t-6 -12.5q-10 -15 -19.5 -30t-23.5 -20
q2 -7 0.5 -9.5t-5 -4t-7.5 -2t-7 -2.5q-13 -3 -26 -2.5t-25 2t-23.5 2t-22.5 -1.5q-3 2 -7 1t-8 -2.5t-7 -0.5t-3 8q-5 5 -8 7t2 12q51 73 101 152.5t101 157.5q0 19 -11 37.5t-20 37.5q-41 60 -75.5 118.5t-76.5 118.5l-13 19q41 5 73 5.5t74 0.5zM357 181q-5 0 -6 0.5
t-1 4.5q4 0 6 -2q1 -1 1 -3z" />
    <glyph glyph-name="Y" unicode="Y" horiz-adv-x="567" 
d="M159 679q24 -38 42 -77.5t45 -76.5h7q5 -24 11.5 -44.5t24.5 -30.5q14 19 26.5 41t17.5 45q9 2 13 9.5t7 16.5t6.5 17.5t10.5 13.5q-9 9 -8 19t6 20.5t12 20.5t9 19q0 -3 1 -7q1 -5 10 -10q5 4 7.5 14t11.5 10q10 -10 25 -8.5t25 1.5q0 5 3.5 6t8.5 1q14 -10 31 -11.5
t31 -1.5q-5 -14 -12.5 -27.5t-12.5 -27.5q-4 -12 -11.5 -23.5t-14.5 -23.5t-12 -25t-5 -27q5 0 6 -2.5t6 2.5q7 0 10.5 4t5.5 9t5 10t10 7q2 -13 -4 -21t-14.5 -14.5t-14.5 -13t-4 -18.5q0 3 -0.5 8.5t-2 11t-5.5 7.5t-11 -3q-5 -13 -11.5 -23t-6.5 -20q3 5 6 4.5t6.5 -2.5
t6.5 -5t6 -3q5 -5 2.5 -6t-2.5 -6q-10 0 -15.5 4.5t-15.5 13.5q0 -9 -6 -12t-6 -13q5 -5 8 -7t-2 -11q-9 0 -15.5 -5t-11 -12.5t-8.5 -16.5t-8 -16q0 -4 -2.5 -8.5t2.5 -9.5h11q0 -4 -2 -4q-1 0 -3.5 1.5t-4.5 1.5q-1 0 -1 -5t-3 -10.5t-3 -14.5q-6 0 -9 -3q-2 -2 -4 -3
q0 -5 0.5 -9t5.5 -9h13q0 -10 -4 -16t-9 -16l-12 7q-5 -5 -9 -13t-4 -18q5 -5 9 -9.5t4 -9.5q-14 -9 -13.5 -19t0.5 -24q10 0 9 -7t4 -12q-14 -9 -13.5 -25t0.5 -30q5 -5 10.5 -13.5t-4.5 -18.5q-1 0 -3 -1q-3 -1 -3 -4q0 -5 6.5 -9.5t6.5 -9.5q-7 -4 -7 -10t1.5 -11.5
t2.5 -11t-4 -10.5q-18 -9 -37 -7.5t-42 1.5q-5 5 -6 6.5t-1 6.5q-5 0 -8 -3l-4 -4v-6q0 -5 -4 -5.5t-9 -0.5q-2 2 -1.5 3.5t2.5 2.5t4 2.5t2 3.5q-3 5 -8 4.5t-10.5 -1t-9.5 0.5t-4 8q0 33 1 69.5t1 73.5q0 38 -1.5 75.5t-5.5 71.5q0 9 -5 14.5t-11 10.5t-11 10.5t-5 15.5
q-4 4 -6 9.5t-4 11.5t-5 11.5t-10 10.5q-4 5 -5.5 12t-4 14.5t-7 14t-13.5 8.5q0 14 -9.5 25t-9.5 24q-7 5 -10 12.5t-5.5 15.5t-5.5 15.5t-9 12.5q-10 14 -14 27.5t-18 27.5q2 9 -1.5 17t-8.5 15.5t-9.5 16t-4.5 19.5q14 0 33 -1.5t29 8.5q9 -5 18 -4.5t18.5 2t18.5 3
t18 -0.5zM389 636q0 -5 -0.5 -6t-5.5 -1v7h6zM394 308q0 5 0.5 6t5.5 6v-12h-6zM340 -38q0 -5 -3.5 -6.5t-3.5 -5.5l-6 12h13z" />
    <glyph glyph-name="Z" unicode="Z" horiz-adv-x="525" 
d="M194 664h133q5 14 20.5 13.5t28.5 -0.5q3 -7 7.5 -9t9.5 -2q6 0 12.5 0.5t13.5 -2.5q5 14 16 16t20 -3q5 -10 16 -8t16 2q0 4 6 2l6 -2q0 -10 -5.5 -21t-18.5 -15q-7 -14 -11.5 -28.5t-9 -29.5t-9.5 -29.5t-14 -28.5q-23 -33 -36 -72t-31 -76q-10 -8 -13 -20t-12 -22
q-17 -45 -38.5 -95t-40.5 -100v-6h207q6 -5 13 -6t7 -6l-12 -6v-98q-10 -5 -13 -9t-12 -9q-52 2 -104 1.5t-103.5 -1t-103 0t-104.5 5.5q4 9 9.5 17.5t14.5 13.5q10 0 15 3.5t10 8.5q0 5 -3 8q-2 2 -3 4q-5 0 -8.5 0.5t-3.5 5.5q-3 14 2.5 15t13 0t14 0.5t6.5 15.5h-18
q5 9 7 24t11 24q9 14 19.5 25.5t10.5 29.5q0 4 6 5.5t6 7.5q5 14 7.5 26.5t11.5 21.5q12 3 13 11t1 17q0 10 3.5 19t19.5 13q0 20 6.5 32t11.5 31q14 11 20 26t10.5 31t11 31.5t19.5 27.5q0 13 3.5 26t-10.5 22q-16 2 -32.5 -0.5t-34.5 -4.5t-36 -2t-37 7q-18 -5 -39 -0.5
t-40 0.5q5 14 9 33.5t4 34.5h-13q5 4 3 8t3 4q5 4 6.5 -1.5t6.5 -5.5q0 3 2.5 4.5t5.5 4t4.5 6t-0.5 9.5l-4 2q-4 2 -8 -2l-19 24q19 0 36 1.5t31 11.5q9 -2 19 0t20 3t19 -1.5t16 -14.5zM84 591v-5h-6v17q5 0 5.5 -3.5t0.5 -8.5z" />
    <glyph glyph-name="a" unicode="a" horiz-adv-x="592" 
d="M558 516q8 -128 4 -253t-4 -256h-12q-32 0 -61 -0.5t-58 -3.5q-5 3 -5.5 4.5t-0.5 6.5q-11 12 -20 10t-17.5 -8t-17 -10.5t-19.5 1.5q-4 -10 -13 -12t-19 -2h-20t-17 -6q-56 0 -111 26t-92 83q-29 51 -44 106t2 120q8 52 34 97t69 75q28 17 61 27t67 11t67 -8t61 -30
q3 2 9 4q3 1 5 0q3 -3 5 -12.5t10 -9.5q11 8 11 17v23h126v0zM238 391q-17 0 -29 -10t-17 -24q18 8 35 23q4 5 7.5 6.5t3.5 4.5zM421 28q0 8 2.5 13t-2.5 8q-11 -3 -7.5 -12t7.5 -9zM406 164q20 25 22.5 59.5t-1.5 64.5q-5 5 -6 5.5t-5 0.5q-4 -13 -1 -32t-5 -36
q-7 10 -7 23q0 14 0.5 27.5t-1 25.5t-10.5 20q0 5 -5.5 9.5t-5.5 9.5q-10 16 -22 31t-29 15q-44 8 -75 -6.5t-57 -46.5q-13 -12 -19 -28t-8 -33t-0.5 -35.5t2.5 -35.5q11 -34 40 -55.5t59 -29.5q78 -6 134 47z" />
    <glyph glyph-name="b" unicode="b" horiz-adv-x="596" 
d="M510 443q48 -64 58.5 -143.5t-18.5 -156.5q-13 -30 -33.5 -57t-47 -47.5t-58 -32t-66.5 -11.5q-25 -5 -47.5 0t-48.5 5q-9 9 -20 16t-19 7v-11q-5 8 -14 8.5t-9 8.5q5 0 8 -2.5t3 2.5q-4 5 -8 10.5t-9 5.5q-6 -4 -7 -8t0 -9t2 -10.5t-1 -11.5h-113q-5 0 -3 -5.5t-3 -5.5
q-8 0 -9.5 3t-1.5 8q-9 13 -8 22t-4 17v426q9 9 4.5 20.5t-4.5 20.5q7 21 7 41q0 21 -2 41.5t-4.5 42t-0.5 44.5q5 2 4.5 6t-1.5 8.5t-1 8.5t4 6q30 0 68 1.5t68 -7.5l6 -23l-6 -192l6 -6q25 17 51.5 29t56.5 17q13 0 30.5 -4.5t31.5 4.5q43 -13 86 -30.5t73 -55.5zM420 199
q4 6 5 14.5t1.5 16.5t2.5 15t8 11q0 9 -1.5 16t-10.5 7q5 17 0.5 30t-13 24.5t-19 21.5t-19.5 20l5 6q-17 17 -34 17q-20 0 -44.5 4.5t-46.5 -4.5q-33 -13 -56.5 -43.5t-27.5 -65.5q-9 -51 8 -91.5t59 -66.5q11 -2 22 -6.5t21.5 -8t21.5 -3.5t21 7q34 4 57 29t40 50z" />
    <glyph glyph-name="c" unicode="c" horiz-adv-x="581" 
d="M566 442q2 -9 -2 -14t-11 -9t-14.5 -8.5t-12.5 -12.5q-13 -2 -24 -10t-21.5 -15.5t-21.5 -11t-24 3.5q-17 20 -37 27t-43 11q-9 8 -22.5 9.5t-21.5 1.5q-17 -8 -36 -11.5t-32 -16.5q-17 -12 -27.5 -29t-15 -36t-5 -40t1.5 -42q4 -21 18.5 -38.5t27.5 -30.5
q-13 0 -21.5 6.5t-15 16t-12 19.5t-13.5 16q0 -20 14 -44t37 -41q19 -13 41.5 -18t45.5 -4t46 8.5t42 19.5q9 8 17 13.5t16 13.5q10 -5 21 -9t20 -13q16 -8 30.5 -20t31.5 -25q-8 -17 -23.5 -30t-32.5 -26q-28 -21 -60.5 -33.5t-67.5 -16.5t-71.5 -1.5t-72.5 11.5
q-34 8 -64.5 27.5t-54.5 46t-40.5 58.5t-23.5 66q-8 41 -4 80.5t19 76t40 67.5t60 53q26 16 56 26t62 14.5t64 4t62 -5.5q47 -7 84.5 -34.5t72.5 -67.5q5 0 8.5 6.5t3.5 10.5h6v0zM145 257q-8 -31 0 -53v53zM155 273q4 4 6 9t-1 5q-4 0 -9 -3t-1 -11h5v0zM487 109q1 2 2 3
q2 2 -2 2v-5z" />
    <glyph glyph-name="d" unicode="d" horiz-adv-x="588" 
d="M476 704h-28v12q8 -5 13.5 -5.5t14.5 -0.5v-6zM550 704q2 -4 6.5 -4.5t8.5 -1t6.5 -2.5t0.5 -8q-5 0 -8.5 -0.5t-3.5 -5.5l-5 -646l-5 -35h-119q0 8 -6.5 17t-11.5 18q-24 -19 -53.5 -31.5t-61.5 -17.5t-64 -2t-59 16q-32 17 -59 42t-46.5 55.5t-30.5 65t-11 70.5
q-5 12 -7 33.5t7 33.5q-4 35 8.5 62t24.5 52q22 38 55 66.5t71 41.5q6 -2 14 0.5t15.5 4.5t13.5 1t8 -12q12 0 27.5 -2.5t29.5 2.5l-6 12q34 0 66 -18t58 -39l6 12v187q9 4 8 11.5t4 15.5q-5 5 -8 9t2 9q6 0 8 -2t2 -5t-0.5 -6t1.5 -5q11 5 21 5q11 0 21 -1t19.5 -1.5
t17.5 3.5q-2 2 -5 1.5t-5.5 -1t-4 0.5t-1.5 5q6 0 14 1.5t15.5 2t13.5 -1t8 -8.5zM323 109q4 0 11 1.5t12 9.5q-5 -5 -12 -4t-11 -7zM407 193q9 7 11.5 15.5t3 17t1.5 16.5t8 14q-5 17 -7.5 40t-16.5 40q-12 21 -31 34.5t-36 21.5q-26 0 -51 3.5t-45 -8.5q-15 -4 -29 -14
t-24.5 -24t-18 -30.5t-9.5 -33.5q-2 -19 -2 -40q0 -20 4 -39.5t14.5 -36t29.5 -27.5q4 -8 11.5 -11t15.5 -4.5t15 -3.5t9 -9q13 -4 26 -7t25 2q0 4 0.5 8t5.5 9q29 5 53.5 23.5t36.5 43.5z" />
    <glyph glyph-name="e" unicode="e" horiz-adv-x="607" 
d="M171 225q0 -5 -5 -6t-5 -6q6 0 7.5 -2.5t2 -6.5t1 -8.5t4.5 -8.5q14 -35 46 -51t66 -16q38 0 68.5 11.5t60.5 32.5q24 -8 49 -17.5t50 -21.5l22 -26q-8 -3 -13 -9.5t-9 -15t-9 -16t-13 -11.5q-26 -21 -53.5 -26.5t-53.5 -17.5q-22 -4 -43 -4t-41 1.5t-40.5 3t-41.5 -0.5
q-10 4 -22 7.5t-22.5 8t-19.5 11.5t-13 17q-17 0 -26.5 9t-17.5 14q-10 13 -22 24.5t-22 24.5t-16.5 27t-6.5 31q3 -5 2 -9.5t2 -9.5q14 -17 24 -34t22 -25q0 8 -5.5 16t-10.5 16q-15 23 -23.5 50t-12 56t-2 58.5t7.5 56.5v5q-3 -4 -2.5 -8.5t-6.5 -1.5q11 35 32.5 65.5
t50.5 55t63 41t69 22.5q49 6 92.5 -1.5t82 -27t70 -49t56.5 -66.5q4 -14 13.5 -29.5t9.5 -32.5q11 -21 8 -48t-3 -52h-211q-6 5 -12.5 4.5t-13 -2l-13 -3t-12.5 0.5q-32 -5 -68 -5t-71 5zM267 398q-30 0 -53 -19t-31 -42h238q-11 29 -38 50.5t-62 21.5q-4 4 -9.5 3t-5.5 7
q-9 4 -13.5 2t-8.5 -6.5t-7.5 -9.5t-9.5 -7zM28 197v-6v-4v10z" />
    <glyph glyph-name="f" unicode="f" horiz-adv-x="333" 
d="M253 698q6 0 14 -0.5t15.5 -2.5t13 -6.5t7.5 -12.5q-4 -5 -7.5 -7t-3.5 -10q6 0 8 -3t2 -8q0 -4 -0.5 -9t1.5 -10q-13 -3 -11.5 -13.5t6.5 -18.5q0 -5 2.5 -3.5t2.5 -3.5q-8 -4 -15.5 -1.5t-15 6t-15.5 6.5t-17 0q-4 -1 -4.5 -6t-1 -9.5t-2.5 -8.5t-8 -4h-11
q-8 -13 -6 -31.5t2 -34.5q16 -10 35.5 -8t41.5 2q0 -4 1.5 -6.5t3 -4.5t1 -5t-5.5 -8q5 -3 6 -6.5t6 -3.5q-9 -9 -10.5 -19.5t-1.5 -15.5q9 -8 10.5 -19t1.5 -19q-12 -8 -31 -8q-18 0 -31 8q0 -7 -4 -9.5t-9 -4.5t-8 -5t-2 -9v-186q-7 -7 -5.5 -13.5t5 -13.5t5 -14.5
t-4.5 -16.5q-7 -7 -4 -21t0 -24q8 -8 6 -19.5t-2 -24.5q-4 -2 -4.5 -5.5t0 -8t1.5 -8.5t-1 -7q-5 -4 -12 -3.5t-14 0.5t-12 -2.5t-7 -11.5q-5 -2 -7.5 -1.5t-4 3t-2.5 5t-3 4.5q-9 5 -18 4t-17.5 -3.5t-16.5 -3.5t-17 3q0 94 2.5 195t-2.5 195q-8 8 -17 0q-4 -4 0.5 -8.5
t-0.5 -9.5q-2 9 -10 9q-7 0 -13.5 -1t-10.5 1t0 15l12 4v79q-5 0 -8.5 4t-3.5 9q5 8 12 9t14 1q8 0 14.5 0.5t10.5 6.5q0 37 1.5 76.5t9.5 68.5l8.5 8.5t3.5 8.5q-12 0 -18 -12.5t-11 -20.5q0 19 10 30.5t25 18.5t31.5 12t29.5 11q10 -1 21.5 -0.5t22.5 0.5t21.5 -2t19.5 -8
z" />
    <glyph glyph-name="g" unicode="g" horiz-adv-x="609" 
d="M561 219q5 -13 4.5 -26t-1.5 -26t-1.5 -25t3.5 -23q-4 -31 -5 -60.5t-5 -55.5q8 -5 6.5 -13t-1.5 -17q-4 -2 -5.5 -6t-2.5 -8t-2.5 -8t-6.5 -6q5 -9 3 -18t-7 -18.5t-12 -18t-13 -15.5q-5 7 -8.5 6t-6.5 -5.5t-6 -10t-7 -6.5q2 0 3 -1q2 -2 2 -5q4 5 8 10.5t10 5.5
q-23 -22 -45 -37.5t-48 -20.5q-5 -5 -12.5 -8t-10.5 1q-14 5 -30 0t-30 -5q-4 -3 -12 -3.5t-17 -0.5q-6 3 -13 2t-14 -2.5t-13.5 0t-10.5 9.5q-23 -7 -39 -2.5t-38 9.5q-26 8 -50.5 23t-44.5 35t-34 43.5t-20 48.5q0 4 4 5l8 2t6 3t-3 9h7l-7 -13q20 -6 42.5 -3.5t43.5 4.5
t39.5 -1.5t30.5 -21.5q42 -17 86.5 -20t84.5 14q14 9 27 18t13 23q-9 -5 -17 -14.5t-17 -14.5q-11 0 -16 -0.5t-14 -5.5q0 5 6.5 3t9.5 3l32.5 26t22.5 33q8 4 9 11.5t1 16.5q-11 0 -20 -5.5t-18 -11.5t-19 -10t-24 -1h-6q-82 -19 -151 7t-117 90q-19 24 -29 52t-14 58
t-2 61.5t6 62.5q4 35 22 67.5t44.5 59t59 45t65.5 24.5q11 -4 23 -5t25 0t26 1.5t26 -1.5q4 10 11.5 5t16.5 -5q10 -12 30 -12q9 -8 20.5 -16t24.5 -13q5 5 3 13t3 16q10 9 25 9.5t29 -4.5q4 -9 15.5 -7t23.5 2q5 9 17 7t23 -2q3 -19 2.5 -37.5t-1.5 -37.5t-2 -39t1 -42
q-2 -19 -1.5 -38.5t1.5 -38.5t0.5 -37.5t-5.5 -35.5zM422 229q9 13 10.5 28t-1.5 31t-9 31t-12 28q-17 21 -38.5 37t-47.5 21q-31 8 -57 1t-49 -25q-17 -30 -30 -65.5t-4 -74.5q4 -35 27.5 -61.5t58.5 -35.5q5 -5 12 -4t7 -9h35q2 0 5 1q5 2 5 5q32 14 55.5 37.5t32.5 54.5z
M218 -43q-14 -5 -25.5 4t-20.5 19q13 0 25 -7.5t21 -15.5z" />
    <glyph glyph-name="h" unicode="h" horiz-adv-x="535" 
d="M174 708q0 -8 -2.5 -13.5t2.5 -13.5q3 -30 2 -59t2 -54q10 0 20 0.5t10 -7.5q0 -4 -3.5 -8t-7.5 -4q-2 0 -4 -1q-4 -2 -8 1q-5 0 -5 -6t5 -9q2 -4 6.5 -4.5l9 -1t7 -2.5t0.5 -11q0 -3 -3.5 -7t-7.5 -4q-5 0 -9.5 3.5t-9.5 3.5q-3 -8 -0.5 -17t7.5 -17q2 -3 4.5 -1.5
t5 4.5t6 5.5t7.5 2.5q17 9 33 14t29 13l91 7q9 6 18 5.5t18 -3.5t17.5 -7t14.5 -6q26 -17 47 -42t21 -54q5 -7 5.5 -15t0 -16t-1 -16.5t2.5 -17.5q0 -4 -4 -8t-7 -4v-236v-6l11 11v-62q-5 -5 -9 -4t-9 -8v-29q-15 -6 -30 -7t-30.5 0t-31.5 2.5t-33 -0.5v301q-3 11 -5.5 24
t-7.5 25.5t-14.5 24t-24.5 18.5q-9 8 -26 6t-30 -2q-10 -6 -16.5 -17.5t-12.5 -22.5t-13 -19.5t-20 -8.5q-5 -8 -9 -20t-4 -25q14 -8 23 -18t1 -27l-17 -6q0 -5 5.5 -9t0.5 -13q0 -5 3.5 -2.5t7.5 2.5v-56q-9 4 -14.5 1.5t-8.5 -9t-4 -14.5t-1 -14q0 -5 2 -6t2 -5
q7 0 9.5 4.5t3.5 9t3 8.5t8 2q6 -9 5 -15t-6 -11.5t-13 -11t-14 -14.5v-68q-5 0 -6 -4t-5 -8h-125v693q4 6 10 7t12 1q7 0 14.5 1t14.5 7q20 0 42 2.5t43 -2.5zM185 192l-7 11h7v-11zM497 90q1 -1 0 -3q-1 -3 -4 -3v6h4z" />
    <glyph glyph-name="j" unicode="j" horiz-adv-x="311" 
d="M163 705q6 0 14.5 1.5t16.5 2.5t16.5 0.5t14.5 -4.5q35 -22 47.5 -55.5t3.5 -71.5q-4 -17 -18.5 -29.5t-32.5 -21.5q-7 -3 -7 4q0 4 2 8q-35 -9 -60.5 8t-42.5 43q0 4 -3.5 5.5t-3.5 6.5q-8 -5 -6.5 -12t1.5 -12q13 -17 30.5 -34t37.5 -17q-13 -2 -24.5 3.5t-22 14.5
t-19 20t-14.5 20q-8 38 9.5 70.5t48.5 54.5h12v-5zM139 688h-5v5h5v-5zM242 544q-4 -4 -7 -2q-2 1 -3 2h10zM180 504q8 -2 17.5 -1.5t20 1t21 0t20.5 -5.5v-572q-4 -43 -22 -78t-57 -52q-35 -9 -66.5 -4.5t-65.5 4.5q-9 4 -21 3t-25 7l17 7q-6 8 -5.5 17.5t3.5 19.5t5 20.5
t-3 21.5q-8 -4 -10 -12t-2 -16v-17t-5 -12q-6 6 -5.5 11.5t3 10.5t3 9t-5.5 8v30q4 4 11 3.5t11 8.5q13 -5 26.5 -14t30.5 -4q13 5 19 18t10 22q2 4 1.5 10t0 11.5t2.5 9t8 3.5q4 5 1 11t-8 6q5 57 2.5 118.5t-2.5 121.5q-4 11 -2.5 22.5t3.5 23.5t3 23.5t-4 22.5
q-4 22 0.5 42.5t-0.5 38.5q3 2 5 0.5t4 -4t4 -4t4 0.5q0 5 -0.5 9t-4.5 8q-4 0 -8.5 -2t-8.5 2q18 35 0 68q0 5 4.5 6.5t8.5 3t6.5 3t-2.5 5.5q4 5 12 8t17 -2q5 -6 8 -7t6.5 0.5t7 4t7.5 2.5z" />
    <glyph glyph-name="i" unicode="i" horiz-adv-x="220" 
d="M192 618q8 -4 9 -9.5t-1 -12t-5 -13.5t-3 -16q-3 -22 -25 -31.5t-43 -12.5q-8 8 -19 7t-22 -2.5t-21 0.5t-17 17q-15 4 -19.5 14t-4.5 22t2 25t0 23q6 13 12.5 26.5t15 24.5t19.5 19t26 10q17 4 34 0.5t34 -11.5q13 -17 24.5 -36t3.5 -44zM90 545q2 -7 6 -9t9 -1.5t10 2
t9 1.5zM181 426q0 -49 -1 -103t-1.5 -109.5t0 -110.5t2.5 -106q-4 -7 -7 -7t-6 2.5t-5.5 5.5t-4.5 3h-102q-8 -3 -8.5 -6.5t-8.5 -3.5q-4 21 -3.5 41.5t3 40.5t3.5 40t-3 42v282q2 4 1.5 10t-1.5 12.5t-1.5 13t1.5 11.5q0 12 5.5 16t14 4.5t17 -0.5t14.5 1l85 -6q5 -8 5 -18
q0 -9 -1 -18.5t-1.5 -19t3.5 -17.5z" />
    <glyph glyph-name="k" unicode="k" horiz-adv-x="596" 
d="M148 709q2 -7 6 -7t9 1.5t11.5 2.5t12.5 -3q0 -87 -2.5 -184.5t-2.5 -192.5q11 0 18.5 5.5t14.5 13.5t14 17t15 15q35 30 63.5 60.5t62.5 65.5q9 2 18.5 0.5t19 -2.5t19 0t17.5 7q11 2 23.5 1.5t25 -1.5t23.5 -1.5t20 1.5q2 -9 -1.5 -14.5t-8.5 -10.5t-10.5 -9.5
t-7.5 -11.5l-57 -68q-4 2 -8 0.5t-7 -4.5t-6.5 -7t-7.5 -6q0 -24 -17 -35l-6 7q-5 -9 -14 -17.5t-9 -17.5q5 4 11.5 10.5t11.5 6.5q-5 -7 -10 -13q-5 -5 -9.5 -11t-9.5 -11q-5 9 -8.5 7t-8.5 -7l-23 -28q8 -4 14.5 4.5t14.5 12.5q0 -4 -2.5 -7.5t-5.5 -6.5t-4.5 -6.5
t1.5 -7.5q23 -34 51 -66t56.5 -63t55.5 -62.5t48 -65.5q-24 2 -53 -3t-57.5 -5.5t-52.5 8.5t-37 39q-21 21 -40 42t-38.5 41t-40.5 39.5t-47 38.5q0 4 -0.5 9.5t-5.5 1.5q-4 -7 -3 -13t2.5 -12t1.5 -11t-6 -10v-91l11 -6q-8 -5 -9.5 -15.5t-1.5 -18.5q4 0 5 -2.5t6 2.5
q5 -8 3 -17t3 -17q-38 -9 -80 -4.5t-81 4.5v68q5 0 11.5 -1.5t6.5 7.5q0 8 -0.5 10t-5.5 7q-5 0 -6 -3.5t-6 -7.5q-4 8 -2 13.5t2 14.5q2 2 4.5 0t4.5 -4t4 -2q3 0 5 6v177l-6 6q0 -5 -3.5 -8t-8.5 -3q-4 4 -2 11.5t2 16.5l18 6q0 9 1 17.5t-7 17.5l-12 -7q-4 5 -2 10t2 13
q0 5 3.5 2.5t8.5 -2.5q8 14 7 36t-1 39l-18 -6v46q9 -7 18 0v211l-18 -5v23h110zM222 691h-6l-6 6q5 0 6 -0.5t6 -5.5zM205 577h-12v11h12v-11zM216 480h6v-18h-6v18zM341 245h-5v6q4 0 4.5 -0.5t0.5 -5.5zM364 223q-4 -5 -7.5 0.5t-3.5 10.5zM387 193q-8 -4 -10 4.5
t-7 13.5q5 0 9 -6.5t8 -11.5zM216 119q-5 0 -11.5 4t-11.5 8q5 0 11.5 0.5t11.5 5.5v-18zM216 74l2 -4q2 -4 -2 -8q-5 5 -6.5 11t6.5 1z" />
    <glyph glyph-name="l" unicode="l" horiz-adv-x="220" 
d="M139 709q0 -1 1 -3q2 -4 4 -4q9 9 20 4t20 -9v-698l-132 -5v143h-16v34q8 -8 16 0q-4 17 -2.5 40t-2.5 40q-5 0 -6 -0.5t-5 -4.5v28q4 -4 8 -2t8 2q0 9 -2 18.5t-14 9.5v24q4 0 8 0.5t8 4.5v68q-8 11 -16 0v23q4 -4 8 -2t8 2q-4 9 -2.5 20.5t-2.5 19.5l-11 -5v29l11 -7
q4 17 4 36q0 20 -4 34q-9 0 -10 6.5t0 15.5t2 19t-3 16h11l5 5v91l7 7h80z" />
    <glyph glyph-name="m" unicode="m" horiz-adv-x="898" 
d="M411 524q13 0 25 -6.5t23.5 -16t21 -19.5t18.5 -17q22 18 48 39t57 26q0 -2 3 -5q1 -1 2 -1l18 6q30 2 60 1t57.5 -8.5t52.5 -23.5t45 -45q0 -5 5 -10t0 -14h-5q-2 -13 -0.5 -25t4.5 -24.5t5.5 -26t2.5 -29.5q2 2 1.5 5t-1.5 5.5t0 4.5t5 2v-23q-9 0 -11 -5t-1 -12t2 -15
t-2 -15q11 -4 14.5 -12t3 -18t-3 -20.5t-2.5 -19.5h-5q-5 -29 -6 -56t-1 -59q5 -5 8.5 -3t3.5 -3v-29q-11 0 -12.5 -5.5t0 -14t3.5 -17.5t-3 -16q-6 -2 -13.5 -1.5t-14.5 0.5t-13 -1.5t-11 -8.5q-11 -2 -20 1t-18 6.5t-19.5 6t-23.5 -2.5q4 9 0.5 16t-7.5 12t-4 10t11 9
q0 7 1.5 15t2 16t-1.5 14t-9 8q-4 9 1.5 12t5.5 11v139q-5 5 -6 13t-1 16q2 0 4 1q3 2 3 5q0 17 -5 37t-13 34q-9 -5 -13 3.5t-4 13.5q-5 14 -15.5 16.5t-24.5 6.5q-23 5 -41 -5.5t-35 -23.5q-5 -14 -10 -23t-14 -18l-5 5q-9 0 -8 -9t-4 -14q5 -4 10.5 -8.5t1.5 -8.5
q0 -9 -6.5 -8t-11.5 -4q-4 -61 -2 -128t2 -133q0 -5 5.5 -10t0.5 -13q-4 -4 -10 -5t-12 -1.5t-11.5 -2.5t-7.5 -9q-4 8 -11 4t-12 -4q-18 5 -38.5 10.5t-38.5 0.5q-4 75 -2.5 154t-2.5 149q-4 -2 -6 -0.5t-2.5 5l-1 7t-2.5 5.5q6 2 8 6t1.5 8.5t-2 8.5t-1.5 7
q-11 4 -16.5 13t-10 18.5t-9.5 17t-16 9.5q-52 9 -87 -29q-17 -22 -29 -45.5t-12 -53.5q-6 -3 -8 -8t-1 -11t2.5 -12t1.5 -11q7 -10 4.5 -20.5t-6.5 -21t-5.5 -20t7.5 -18.5q7 -22 4.5 -42t-6.5 -39.5t-5.5 -39.5t7.5 -42q0 4 -3 4t-7 -1t-8 -1.5t-6 3.5q-13 3 -28 0
t-30 -6.5t-30 -4.5t-28 6q0 4 -2.5 7t-5.5 5t-4.5 4.5t0.5 6.5h12v203q-7 0 -9 4t-1.5 9t2 9.5t1.5 6.5l7 6q-14 5 -12.5 18.5t5.5 22.5q0 -5 3.5 -2t3.5 8v140q-7 -2 -9.5 1t-2.5 8t1.5 11t3.5 10l7 -7q4 5 2 12t-2 12t-3.5 3t-3.5 3q-4 9 -2.5 19t14.5 10q35 -5 67.5 -3
t67.5 -3q4 -2 3 -5.5t-3.5 -7t-3 -8t3.5 -8.5q11 0 21 6.5t20.5 14t21.5 14t23 6.5q4 0 5.5 -3t6.5 -3l5 6q15 -2 31.5 -1t32.5 2.5t31 0.5t28 -8z" />
    <glyph glyph-name="n" unicode="n" horiz-adv-x="541" 
d="M293 527q18 0 35 2.5t34 2.5q0 -6 3 -9t6.5 -4t7.5 -1.5t6 -2.5h7l-7 12q18 -4 36 -14.5t33.5 -25t28 -31t18.5 -34.5q2 -9 1 -18.5t-2.5 -18.5t-0.5 -17.5t8 -14.5q5 -9 2.5 -15t-6.5 -11t-7 -11t-1 -15q2 -2 2 -8v-12t1.5 -10.5t8.5 -4.5v-86q-9 -13 -10 -27t0.5 -28
t3.5 -28t0 -27q9 -4 9 -10q0 -5 -1.5 -11t-2 -12.5t5.5 -12.5q-4 -5 -2.5 -12t-2.5 -11q-9 -2 -21 -1t-25.5 1.5t-25.5 -1.5t-21 -11q-4 0 -8.5 3.5t-8.5 5.5t-8 1t-9 -10q0 5 -3 6t-3 6h-6l-6 323q-4 26 -19.5 44t-37.5 31q-17 9 -35 0q2 -6 -1.5 -9.5t-9.5 -6t-12.5 -4
t-11.5 -3.5q-15 -11 -22.5 -24.5t-12.5 -28t-9.5 -29.5t-12.5 -28q-5 -8 -1 -16t12 -12q-8 -9 -11 -23.5t-12 -23.5q5 -8 10 -13t13 -5q0 -48 1.5 -91t-7.5 -87q-2 -5 -4 -4.5t-4 3t-4.5 5t-4.5 2.5h-93l-11 -12q-5 9 -12 10.5t-12 1.5l-5 57l5 451q5 0 6 6.5t1 11.5h52
q0 -5 0.5 -9t5.5 -9q6 2 15 2q10 0 19 0.5t17 3.5t12 12q6 -3 11 -10t10 -13t10.5 -8t14.5 7q17 13 35 19t40 10zM212 376q0 -8 -2.5 -10t-2.5 -7q-5 5 -2 8.5t7 8.5z" />
    <glyph glyph-name="o" unicode="o" horiz-adv-x="613" 
d="M415 518q37 -18 67.5 -45t52.5 -60.5t34 -72.5t12 -80q-2 -39 -14.5 -77t-34 -71t-51 -59t-66.5 -41q-22 -8 -43.5 -11t-44 -3.5t-45 0t-45.5 -2.5q-4 11 -10.5 12.5t-13 1t-12.5 0.5t-11 10q-21 0 -41.5 14t-38.5 32q-21 21 -43.5 50t-30.5 64q4 0 5 3.5t6 8.5
q-1 0 -3 1q-3 2 -3 4h-5q-5 5 -5 12t5 11q-9 5 -7.5 15t1.5 14q8 22 7.5 42.5t3.5 37.5q10 10 0 18h-5q-4 6 -1.5 11t6.5 9t7 9t-1 11q8 22 24.5 39.5t33.5 35.5q0 -4 -2 -6t-4.5 -3t-4.5 -2.5t-2 -5.5h8q4 4 10.5 6t6.5 11l-7 5q5 11 12 17.5t15.5 11t18 8.5t17.5 10
q9 2 16.5 6.5t16 8.5t17.5 6.5t20 0.5l5 -5q19 0 40 2t42.5 2.5t43 -2.5t41.5 -14zM421 214q0 6 4 12t8.5 11t6.5 11t-2 12q4 38 -14.5 69t-48.5 57q-14 9 -33 12t-36 11q-11 -6 -23.5 -10t-25 -9t-24 -12t-20.5 -20q-2 -2 -4 -7t-5.5 -9.5t-8 -7t-10.5 -0.5v-6h5
q0 -8 -0.5 -13t-4.5 -9q-5 0 -6 5t-6 0q-4 -8 -2 -14.5t5 -12.5t5 -12t-2 -12q-9 -2 -11 -7t-1 -11t3.5 -12t2.5 -11q5 -4 7 -13.5t10 -9.5q22 -35 52.5 -57t68.5 -17t69.5 29t40.5 63z" />
    <glyph glyph-name="p" unicode="p" horiz-adv-x="601" 
d="M525 426q23 -33 35 -74.5t14 -84.5t-7 -85t-28 -77q-16 -27 -38 -51t-49 -41.5t-58 -27.5t-64 -10q-26 -2 -47 3t-40.5 14t-37.5 21.5t-38 26.5q-8 -4 -6 -9.5t6 -11.5t6 -13.5t-6 -16.5q0 -7 1.5 -15.5t2 -16.5t-1 -15.5t-6.5 -11.5q5 -9 6.5 -19.5t1.5 -21.5v-21
q0 -11 2 -21q-8 -8 -9 -12t-1 -9l10 -8l-14 -18h-126l-4 4v705q4 3 9 3h10q5 0 8 2t1 10q14 -5 22.5 -2t22.5 6h65q-3 -3 -3.5 -4t-0.5 -6q0 -11 5.5 -17t8.5 -20q9 -1 13.5 1.5t8 6.5t7 8.5t8.5 5.5q14 16 34 22.5t41 6.5q6 0 10.5 -2t7.5 -2q2 7 6 8.5t9 1t11 -1.5t11 0
q14 -3 30 -3t25 -9q11 6 18.5 -1t13.5 -14q29 -11 51 -37t43 -46zM431 221q9 11 12 22.5t1.5 24t-5.5 24.5t-8 22q-1 4 -2.5 3.5t-3 -2.5t-3 -5.5t-3.5 -5.5q-5 8 -8.5 17t2.5 16q5 -3 6 -6.5t4 -6.5q0 27 -28 55q-25 14 -54.5 23t-61.5 6q-38 -8 -66.5 -34t-39.5 -64
q-9 -2 -10 -7t0.5 -11t3.5 -12.5t0 -11.5q0 -7 1.5 -16t2.5 -19t0.5 -19t-4.5 -16q0 -3 0.5 -6.5t5.5 -3.5h15q3 -3 6 -13t6 -13q21 -25 46.5 -43t60.5 -18q22 8 41.5 20.5t38.5 26.5q6 6 10 5t8 9q-8 11 -2.5 24t16.5 27q6 -8 7.5 -16.5t4.5 -8.5v33v0zM173 524
q-5 0 -5.5 0.5t-0.5 3.5zM423 249h4v-18h-4v18z" />
    <glyph glyph-name="q" unicode="q" horiz-adv-x="616" 
d="M192 241v14v-14zM197 194q-2 6 -6 12t-7 12t-2 12t10 11q0 -11 2.5 -23.5t2.5 -23.5zM197 194v-9v9zM197 297q0 14 5.5 25.5t12.5 15.5q-4 -14 -11 -22.5t-7 -18.5zM576 121q5 0 6 -3t0.5 -7.5t-1.5 -9t-1 -8.5l-9 -10v-129q7 -2 9 -5.5t2 -7.5q0 -5 -1 -10t-1 -9
q-11 -10 -10 -25t1 -26q7 -2 8.5 -5t1 -6.5t-1 -8t0.5 -7.5q-7 -5 -6.5 -11t1.5 -12.5t0.5 -12.5t-9.5 -11q0 -4 -0.5 -6t-3.5 1q-7 -2 -13 2.5t-11 8.5t-10.5 5t-12.5 -6v-10q-9 7 -20 4.5t-22 -4.5t-20 1.5t-12 22.5q-2 24 -1 47.5t2.5 47.5t1.5 49q0 24 -3 50q-4 4 -7 6
t-7 -1q-7 -14 -14.5 -15t-14.5 1t-14 2t-12 -12l5 -9h-28v4q-2 7 -6 8t-9 -0.5t-11 -4.5t-11 -3q-2 0 -4 -1t-4 -1q-1 0 -1 -2q0 -5 2.5 -6t5.5 0l6 2t4 -1l-27 -9q2 3 2.5 5.5t1.5 4.5t0 4q-3 3 -14 3.5t-18 0.5q-4 -4 -4 -9q0 4 -8.5 6.5t-15.5 2.5q-5 -3 -9.5 -2
t-8.5 3.5t-7.5 5.5t-6.5 3q-35 11 -64.5 32t-52 49.5t-37.5 61t-22 65.5q-7 80 13 150.5t80 126.5q45 38 102 48t119 3q21 -10 44 -17.5t44 -28.5q11 0 12.5 6.5t2 13t3.5 11t15 1.5h106h9q0 -7 1 -15.5t1 -17.5t-2 -18.5t-9 -17.5v-75q7 -1 9 -5t2 -9t-1 -11t-1 -11l-9 -5
v-101q9 -7 10 -15.5t-0.5 -17.5t-2.5 -17t2 -15q-10 -7 -7 -19.5t3 -26.5zM359 -9q0 1 -1 2q-3 3 -5 3v-10h6v5zM414 158q27 35 34 77.5t-7 84.5q-5 8 -9 17.5t-9.5 18t-14 15t-22.5 8.5q-1 9 -7 14t-14 8.5t-17 7t-18 8.5q-38 7 -69 -10t-55 -42q-3 -7 -8 -11.5t-9.5 -9.5
t-7.5 -10.5t-3 -13.5q-10 -4 -11 -9t1.5 -11.5t4 -14.5t-3.5 -17q-7 -3 -8 -9t0.5 -12t3.5 -12.5t0 -11.5q9 -4 12 -10.5t4.5 -14t3.5 -15t7 -12.5q5 0 6.5 1.5t2 3t1.5 3t4 1.5q3 -3 5.5 -9.5t-1.5 -17.5q9 -3 15.5 -10t13 -13.5t14 -10.5t18.5 -3q42 -17 78.5 -1.5
t64.5 43.5zM224 347q0 14 6 23t17 9q-4 -7 -13.5 -14t-9.5 -18z" />
    <glyph glyph-name="r" unicode="r" horiz-adv-x="329" 
d="M281 532q10 4 22.5 -1t24.5 -8q-9 -32 -18.5 -56t-20.5 -50q-9 0 -23.5 2t-30.5 2q-25 -16 -36 -39t-14.5 -49.5t-3 -55.5t-2.5 -56v-221h-127q-3 6 -3.5 13.5t-0.5 15.5t-1.5 15t-8.5 11q0 10 0.5 20t4.5 10q0 5 2 11.5t2.5 13.5t-1 13t-8.5 9q0 5 -1.5 10.5t-2.5 10.5
t1 8.5t8 3.5q5 7 2.5 14.5t-4.5 14t-1 12.5t12 11q-7 13 -8 25t-1 18v123q-3 2 -3.5 5.5t-0.5 7.5t0.5 8t-1.5 5q14 9 13 23.5t-8 27.5q-7 6 -5.5 11.5t5.5 9.5q3 3 1.5 7.5l-3 9t-0.5 8t11 4.5q-3 6 -2.5 10t3 6.5t5 4.5t2.5 6q9 0 21.5 -0.5t25.5 -4.5q0 -4 6 -10t19 1
q2 5 5.5 4.5t8 -3.5t9.5 -6.5t8 -3.5q3 -3 2.5 -8.5t5.5 0.5q-3 -9 -5.5 -14t-2.5 -16l8 -4q6 3 9.5 11.5t6.5 14.5q-3 6 -4.5 12t4.5 13q7 -3 13.5 0t11.5 6.5t9 3.5t5 -10q8 2 14 8t11.5 11t11.5 5.5t14 -10.5z" />
    <glyph glyph-name="s" unicode="s" horiz-adv-x="440" 
d="M368 470q8 -4 10 1.5t6 9.5q5 -8 4 -25.5t-9 -29.5q0 4 -1.5 7.5t-9.5 3.5q0 -5 0.5 -8.5t5.5 -7.5l-38 -38q-5 4 -8 6t-3 -6q4 -5 -4 -11t-13 -11q-2 2 -4.5 6t-5 7t-5.5 4t-7 -1q0 5 2.5 6t-2.5 5q-2 2 -5 2t-6.5 -0.5t-7.5 0t-8 4.5q5 4 8.5 -0.5t7.5 0.5
q-8 8 -16.5 14.5t-20.5 6.5q-2 -2 -2 -5v-4t-1.5 -3t-7.5 1q-2 4 -7 4.5t-10.5 0t-11.5 -0.5q-5 0 -9 2q-4 -8 -11.5 -17t0.5 -21q26 -22 61 -38.5t67 -36t56 -46t28 -69.5q12 0 13.5 -9.5t-2.5 -17.5q0 -6 -3.5 -11.5t-6.5 -11.5t-4 -13.5t3 -17.5q-6 -2 -7 -5t-0.5 -6.5
t0.5 -7.5t-4 -8l-11 -23q0 5 -6 5t-10 -5q-1 -1 -2 -3t-2 -3.5t-1 -3.5q3 0 4 -3q1 -2 1 -3q-17 -12 -31 -22.5t-35 -15.5q-4 8 -8.5 9t-12.5 -3q-29 -5 -62.5 -5.5t-62.5 16.5q-6 -6 -14 -3.5t-14.5 5.5t-8.5 2t4 -15q-12 4 -21 11.5t-17 15.5q5 -5 8.5 -9.5t7.5 3.5v6
q-16 8 -26.5 25t-27.5 30l-5 -6q4 4 5 10.5t2 12t4 9t11 1.5l59 54q13 -5 22.5 -15t21.5 -18q10 -6 23 -11.5t26.5 -8t27.5 -0.5t26 10q8 8 17 14t4 18q-2 4 -6 7.5t-8 6.5t-5 6t3 7q-14 14 -30 24t-32 17.5t-32 14t-30 14.5q-5 0 -5 -11q-14 8 -25.5 17.5t-19.5 21.5
q5 0 5.5 0.5t0.5 5.5q-5 8 -11 16.5t-11 20.5q-16 25 -16 54q-12 13 -11 28t6 32q20 37 57.5 61.5t78.5 36.5q53 8 100.5 -10t83.5 -55z" />
    <glyph glyph-name="t" unicode="t" horiz-adv-x="359" 
d="M184 735h51q-2 -15 1 -27.5t6 -23.5t2.5 -22.5t-9.5 -23.5q-4 -12 -1 -29.5t11 -22.5q-11 -8 -10.5 -22.5t0.5 -27.5q6 -4 13.5 -4.5t15.5 0t16 0.5t17 -2q5 8 13 7t17 -1q-2 -8 -1 -18.5t1 -20.5t-2 -19.5t-10 -15.5q-4 -6 -1.5 -11.5t5.5 -11t3.5 -11t-7.5 -11.5
q-5 0 -12 -0.5t-12 -4.5q-5 8 -18 8.5t-21 -3.5l-17 -17v-113q8 -4 8.5 -12.5t-3.5 -16.5q-4 4 -4.5 1.5t-0.5 -7.5q-2 -4 -0.5 -7l3 -6t3 -7t-0.5 -9q-2 0 -4 -2q-1 -1 -1 -3q-4 -8 -1 -15t11 -12q-4 -5 -4.5 -6.5t-0.5 -5.5q-2 4 -4 2q-1 -1 -1 -2l-5 -177q0 -3 -6 -2.5
t-11 -7.5q-13 6 -26 8t-26 2t-26.5 -0.5t-28.5 0.5q0 100 -1 208.5t-6 206.5q-13 4 -29 2t-33 -2v90q-9 5 -10 8.5t1.5 6t5.5 4.5t3 4q8 0 13.5 4t14.5 -4q6 2 12 2h12q6 0 10 1.5t7 7.5q0 52 -2 99t7 95q6 4 12.5 2.5t12.5 -3.5t12.5 -2.5t12.5 3.5h23z" />
    <glyph glyph-name="u" unicode="u" horiz-adv-x="539" 
d="M107 553q-5 -5 -13 -4t-8 -7q4 -6 9 -7t10.5 0t11.5 2t12 -1q13 8 25.5 7t24.5 -1v-23q0 5 -3 5.5t-8 0.5q-4 -13 -2 -31.5t2 -34.5q0 -8 -1 -21t7 -18h5v-16q-4 0 -7 -3q-2 -2 -4 -3q2 -33 -0.5 -71.5t0 -75.5t15.5 -68.5t47 -49.5q17 -13 38 -10.5t38 10.5q9 8 22 13.5
t17 18.5l-16 11q0 11 5 11t8.5 -5t8.5 0l11 11q5 84 5.5 169t0.5 169q8 6 16 6.5t15 0.5t12 2.5t7 12.5q6 0 13.5 1.5t14.5 1.5q8 0 15 -3t11 -11q2 -4 7 -5t9.5 -1.5t8 -2.5t3.5 -8q0 -4 -3.5 -11t9.5 -11h5q-8 0 -10 -3.5t-6 -7.5v-72q2 -4 5.5 -6.5t6.5 -5t4.5 -6.5
t-0.5 -10q-12 -4 -13.5 -14.5t2.5 -18.5q0 -5 3 -3t3 -3q-8 -4 -10 -12.5t-1.5 -19t1.5 -21t-1 -18.5q12 -4 14 -12.5t2 -20.5q-4 -5 -9.5 -4t-1.5 -7q8 0 9.5 -6.5t1.5 -10.5q-15 0 -19.5 -9t-5.5 -21.5t-1.5 -25.5t-6.5 -21q5 -5 12 -7t-1 -10q-21 -35 -50.5 -61
t-64.5 -41.5t-74.5 -20.5t-81.5 1q-25 4 -50 14t-46.5 26t-38.5 36.5t-25 45.5q-15 46 -19.5 96t-4.5 102t2 104t0 102q2 2 6.5 2.5t8.5 1.5t6.5 3.5t0.5 8.5q-5 5 -11.5 3t-10.5 3h71zM456 542q-5 -5 -8.5 -7.5t-8.5 1.5q-5 5 -2 6t8 5q4 0 7.5 -0.5t3.5 -4.5z" />
    <glyph glyph-name="v" unicode="v" horiz-adv-x="616" 
d="M160 538q39 -75 68.5 -145.5t59.5 -143.5q6 0 10 5t8 10.5t9 8.5t14 -1q3 3 1 10.5t-7 12.5q4 2 4 8t0.5 11t4 8.5t13.5 1.5q18 26 32 56t25 59l24 58q-5 5 -6 8.5t-6 3.5q2 2 6 2.5t7.5 1t5 2t-0.5 5.5l13 18h132q-14 -40 -32 -79t-32 -78q-38 -95 -81.5 -187
t-86.5 -189l-6 -4h-73q-7 -5 -7.5 -9t1 -8t4 -7.5t2.5 -5.5q-2 0 -5.5 3.5l-7.5 7.5t-8 6.5t-9 0.5q-4 6 -6 14t-3 16.5t-2.5 16t-6.5 11.5q5 5 5 12t-5 11q-5 0 -3 5.5t-3 10.5q-8 9 -18 15.5t-15 20.5q2 11 0.5 19.5t-4.5 16.5t-5.5 16t-2.5 17q-10 30 -23.5 60t-34.5 56
q5 9 2.5 16.5t-6.5 14.5t-8.5 14.5t-4.5 16.5q-14 32 -26 61t-32 55q5 14 -0.5 26.5t-5.5 26.5h132zM357 388h6h-6zM333 301q4 -3 2 -5q-1 -1 -2 -1h-4q0 5 2 8t2 -2zM496 295v-7v7zM201 116q1 -1 0 -2q-3 -3 -4 -3v5h4z" />
    <glyph glyph-name="w" unicode="w" horiz-adv-x="808" 
d="M167 543q6 -9 6.5 -19t0 -21t0.5 -21t10 -19q-2 -10 1 -19t8 -17t9.5 -15.5t4.5 -16.5q0 -13 6 -24t13 -22t12 -23t3 -27q8 -13 13.5 -25t13.5 -21q22 42 37 84.5t32 85.5q0 13 9 24t14 28q4 17 9.5 34t18.5 34q22 -5 45.5 -3.5t40.5 -3.5q-6 -10 -3 -18.5t9 -16.5
t10.5 -15.5t0.5 -16.5q4 -13 10.5 -25t12.5 -24.5t9.5 -25.5t0.5 -28q9 -13 14.5 -27.5t11.5 -29.5t13 -29.5t18 -26.5q4 0 5.5 4t3 9t3 10.5t5.5 9.5q17 39 29 83t34 83q-2 6 0 11.5t5.5 11.5t5.5 12.5t0 15.5q5 4 6.5 9l3 10t4.5 9t9 5q30 0 62 2t62 -6q-4 -9 -5.5 -18.5
t-4 -18.5t-6 -17.5t-12.5 -14.5q-2 -10 -6.5 -21t-8.5 -22t-5 -23t4 -25q-5 -8 -14.5 -11t-9.5 -12q4 -10 2 -18t-6 -15l-8 -14t-4 -16q-23 -33 -33.5 -73.5t-23.5 -78.5q0 -5 2.5 -12t-2.5 -11q-22 -17 -32.5 -44.5t-1.5 -57.5q-9 5 -13 -1.5t-4 -9.5q-9 -2 -19 -1
t-19.5 1.5t-17.5 -1.5t-13 -11q-6 -2 -10 0.5t-6.5 7t-4.5 10.5t-6 11q0 5 -6.5 11.5t-6.5 11.5q-3 20 -11 41t-16 37q-5 26 -17.5 48.5t-16.5 48.5q-9 17 -15 34.5t-14 34.5q-8 0 -13 -6.5t-10 -6.5q-2 -8 -0.5 -17t1.5 -18q0 -8 -3.5 -15t-14.5 -11q6 -11 3 -19t-9 -16
t-10.5 -17t-0.5 -22q-5 4 -11 0.5t-6 -12.5q-2 -6 -1 -14t1 -15q0 -6 -3 -10.5t-14 -4.5q-5 -22 -10 -45.5t-13 -40.5q-8 -5 -18.5 -2t-15.5 8q-9 1 -20.5 -0.5t-23.5 -1.5q-11 0 -19 5t-10 20q-22 68 -46.5 135.5t-50.5 135.5q-9 17 -13.5 37t-9.5 37q-13 43 -31 83t-26 83
v11h137z" />
    <glyph glyph-name="x" unicode="x" horiz-adv-x="633" 
d="M69 529h131l5 11q15 -15 26.5 -31.5t23 -34t24 -34t29.5 -31.5q-1 -2 -1 -6q0 -7 8 -11q9 9 16.5 18t12.5 22q13 5 15.5 12.5t6.5 16.5q0 2 -2 4q-1 1 -3 1q-3 0 -2 3q1 2 2 3q9 -4 14 -1t8.5 9t7.5 12t10 8l22 29h125l12 17q13 -15 9 -25.5t-13.5 -20t-19.5 -20
t-10 -25.5q-35 -43 -66 -85.5t-65 -85.5q5 -8 9.5 -17.5t13.5 -18.5q43 -56 85 -116.5t85 -116.5q-4 -8 1 -10t5 -7h-91q-8 -13 -17 -9t-17 9q-13 0 -23 0.5t-23 5.5q-2 15 -8.5 27t-15.5 24t-19 24t-19 27q-9 5 -14 12.5t-10.5 15t-13 13t-21.5 5.5q-26 -39 -57 -77.5
t-57 -76.5q-19 2 -39 1.5t-40.5 -1.5t-40.5 -1.5t-39 1.5q0 8 3.5 16t7.5 13l6 -6q4 6 9 11l9 9t5.5 9t-0.5 11h-6q0 4 2.5 4.5t6 0t6 -1t2.5 1.5q26 35 48.5 66t48.5 65q5 5 11 11.5t6 11.5q8 17 21.5 28.5t18.5 30.5q-9 4 -10.5 12t-1.5 16q-10 9 -18 20t-16 22.5
t-17.5 21.5t-22.5 16q-8 11 -14 23t-12.5 23.5t-14.5 22t-21 16.5q-2 11 -9.5 19t-14.5 16t-10.5 17t0.5 22q8 0 8 -6t9 -11zM332 427l12 17q-5 -5 -6 -11t-6 -6z" />
    <glyph glyph-name="y" unicode="y" horiz-adv-x="641" 
d="M168 534q0 -4 3 -7.5t8 -3.5t12 -0.5t7 -4.5q0 -9 -6 -14t-2 -14q10 -15 13.5 -30t17.5 -29q0 -8 3 -6.5t6 1.5q3 -6 6.5 -12.5t5.5 -12.5t1.5 -12t-6.5 -11q4 -8 6.5 -18t16.5 -14h5q-4 -17 -1 -32.5t10.5 -29.5t16.5 -28.5t15 -30.5h6q-9 -7 0 -16q4 -4 10.5 1.5
t6.5 9.5q0 9 -5 11t0 5q1 0 3 -1q3 -2 6 1q-6 5 -5.5 10.5t3 10.5t6 10t3.5 8q4 0 7.5 1t3.5 7q-5 10 -5 15t5 14l17 27q2 1 3 0q2 -2 2 -4q9 3 10.5 13.5t1.5 18.5q-3 -4 -4.5 -4.5t-7.5 -0.5l24 41l7 -4q16 24 27 55.5t28 56.5q-2 7 0 10t5 4.5l6 3t3 5.5h130q0 -4 2.5 -5
t-2.5 -6q-9 -12 -16 -27t-13.5 -30t-13 -29.5t-14.5 -26.5q6 -7 5.5 -10.5t-4.5 -6.5t-8 -6.5t-4 -8.5q-9 -16 -14.5 -30.5t-13.5 -31.5q4 -3 8.5 -7t-3.5 -9q-18 -3 -24.5 -21t-14.5 -36q0 -5 4.5 -9t-1.5 -9q-2 -4 -10 -6t-12 -10q4 -4 4.5 -9.5t0.5 -15.5q-12 -9 -19 -14
t-15 -14q0 -4 2.5 -6.5t5.5 -4.5t4.5 -4.5t-1.5 -7.5q-8 3 -12.5 0.5t-7.5 -7t-5.5 -10.5t-6.5 -10q-4 -7 -1.5 -10t6.5 -5.5t7 -5t-1 -8.5q-4 -11 -12.5 -18.5t-16.5 -14t-13.5 -15t-4.5 -20.5h13q-3 -4 -4 -11t-2.5 -12.5t-5.5 -8t-13 0.5q-8 -12 -16 -24.5t-11 -26.5
l11 -9q-17 -5 -26 -17.5t-13 -30.5q4 -4 6 -7.5t10 -3.5q0 -4 -1.5 -11t-9.5 -12q-4 0 -10.5 -4t-6.5 -13q0 -3 1.5 -10.5t-1.5 -12.5q-18 -14 -39 -14q-20 0 -41 -4q-5 14 -16 15.5t-20 -2.5q-4 -6 -14 -7t-14 -1q0 6 -3.5 12.5t-7.5 6.5h-12q0 13 9 25.5t14 26.5
q21 34 35 71t41 72q-7 11 -1.5 17.5t12 11t8 8.5t-13.5 8q-8 29 -23 50q2 5 0.5 9t-3 7.5t-2 6.5t4.5 7q0 3 -1 6q-2 5 -4 5l-8 -4q3 8 0 13t-7.5 9t-8 8.5t-1.5 12.5q-8 6 -7 14t-4 18q0 4 3 6t3 10q-2 2 -5 1.5l-6 -1t-5 0t-2 4.5q0 5 -2 9t2 9q-12 15 -20 32t-14.5 34.5
l-13 35t-15.5 33.5q-13 40 -28.5 78t-27.5 78h5h132zM415 449l5 21q4 -4 -0.5 -10.5t-4.5 -10.5z" />
    <glyph glyph-name="z" unicode="z" horiz-adv-x="497" 
d="M466 536q-5 -18 -12 -35t-16 -34q0 -2 2.5 -3.5t4.5 -3t2.5 -4t-3.5 -7.5q-5 -5 -9 -2.5t-9 2.5q-26 -40 -49.5 -75t-37.5 -74q5 -5 5 -13q0 -7 -5 -10q0 -4 -1.5 -5t-4 -0.5t-5.5 1t-5 -1.5q-19 -23 -29 -43.5t-24 -37.5q9 -4 10 -8.5t-1 -9t-5.5 -8.5t-3.5 -8
q-12 -5 -18.5 -15.5t-15.5 -18.5q5 -4 7 -4q3 0 4.5 1.5t3 4t3.5 2.5q3 -3 1.5 -4t-1.5 -6l4 -6h192q8 -9 9.5 -20t0 -21.5t-2.5 -21t3 -18.5q-2 -4 -1 -11t1 -13t-2.5 -9.5t-13.5 -1.5q-4 -2 -5 -7.5t-2.5 -11t-5 -8.5t-12.5 -1q-5 -9 -9 -13t-13 1q0 3 -3 5q-2 1 -3 1
q9 4 20 4t21 12l-19 18h-159q-9 -5 -15 -8t-15 2l-5 6h-105l-12 -12q-6 9 -16 12t-22 3q-11 0 -23.5 -1.5t-23.5 -1.5l-12 -6q31 48 55 99.5t54 102.5q5 -5 9.5 -2t9.5 8l-6 5q5 9 6 14t6 10l4 -6q5 0 8.5 4.5t3.5 13.5h-6q0 8 3 12.5t3 9.5q5 -5 6 -5.5t6 -0.5
q21 35 42.5 72.5t44.5 70.5q-5 5 -9 6t-9 1l-6 -7q-4 9 -13 11.5t-19 3.5l-20 2t-17 8q-15 8 -23 3t-14.5 -12t-14.5 -10.5t-23 7.5q-4 7 -11 6.5t-14 -1.5t-13 2t-8 17q5 -2 9 -2q9 0 9 6v99h374q5 0 7 5.5t11 0.5q3 -5 7 -8t9 2zM219 374l-6 -12zM201 346l-6 -18zM86 -40
q5 0 2.5 -0.5t-2.5 -5.5q-9 0 -13.5 0.5t-4.5 5.5q5 8 9 4t9 -4zM230 -34v-6q-8 0 -19 -1.5t-16 7.5q9 -5 18 -7t17 7z" />
    <glyph glyph-name="one" unicode="1" horiz-adv-x="353" 
d="M291 667q0 -5 3.5 -7.5t7.5 -2.5l-11 -12v-111q5 -3 8.5 -6t7.5 2v-22q-4 0 -7.5 -0.5t-8.5 -4.5q4 -8 2.5 -17.5t-2.5 -18.5t1.5 -16.5t14.5 -11.5q4 -8 1.5 -10t-7 -2.5t-8 -1.5t-2.5 -7q0 -12 -1 -23t7 -19h10v-37q-4 0 -7.5 1.5t-8.5 -7.5q0 -11 -1 -28.5t7 -29.5
l10 6v-16q-16 -10 -16 -17q0 -8 -1 -15t7 -11h10q4 -5 -1 -9t-9.5 -7t-4 -5t14.5 -4q0 -5 -2 -11t2 -11q-4 0 -7.5 1.5t-8.5 -6.5v-153q2 -2 5.5 -2.5t6.5 -1.5t4.5 -3.5t-0.5 -8.5t-8 -7t-12.5 -2t-11.5 -4.5t-5 -13.5q0 -8 5 -16t0 -16q0 6 -3.5 12t-6.5 12t-3 12t8 12
q0 2 -1 4t-1.5 3.5t-2.5 3.5q-8 4 -15 1.5t-13.5 -5.5t-12.5 -3.5t-12 7.5h-43v533q-8 8 -16 8.5t-16 8.5q-4 -8 -16 -9t-20 3q-8 8 -19 6.5t-23 -6.5q-8 0 -13.5 5t-13.5 1v5l69 111h190z" />
    <glyph glyph-name="two" unicode="2" horiz-adv-x="526" 
d="M476 566q0 -7 4 -14t7.5 -14t5.5 -13.5t-2 -13.5q5 -11 7 -21t-1 -18q-5 -15 -8.5 -29.5t8.5 -25.5q-5 -5 -10.5 -6.5t-5.5 -9.5q0 -6 3 -10t5.5 -7t2.5 -7q0 -3 -5 -9q-8 -3 -10 -9.5t-6 -9.5q0 2 -2 4q-1 1 -3 0q-10 0 -10 -10q-5 -8 -12.5 -15t1.5 -15l15 20
q2 -7 -1 -14t-9 -13.5t-12 -14t-10 -15.5q-6 -2 -10 -8t-8.5 -11.5t-9.5 -8.5t-13 1q-5 0 -5 -10q2 0 4 -2q1 -1 1 -3l-5 -10l-5 10q-9 -4 -11.5 -10t-3.5 -13t-3.5 -13t-11.5 -9q-5 -5 -9 -10.5t-13 -5.5v6q-8 0 -12 -6t-4 -10q7 -10 0 -17q-8 -5 -11 -12.5t-14 -3.5
q-5 -4 -3 -7.5t-3 -7.5h6l213 -5q3 -4 3 -14q0 -9 -3 -17q0 -15 0.5 -36.5t3.5 -41.5q-7 2 -14 0t-13 -4t-12 -2t-12 6h-172q-8 -8 -25 0q-20 0 -42.5 1.5t-41.5 -6.5q-13 4 -29 5t-33 1.5t-34.5 1t-32.5 2.5v53q37 41 76.5 80.5t78 78.5t75 78t67.5 78q11 17 16.5 32.5
t14.5 30.5q13 46 -16 89q-11 11 -24.5 16.5t-28.5 13.5q-6 -2 -14 -1t-15.5 1.5t-14 -1t-8.5 -9.5q-4 0 -7.5 -2.5t-7.5 -4.5t-7.5 -2.5t-7.5 3.5q0 -3 -5 -4.5t-2 -9.5h7l-17 -29q4 4 2 5q-1 1 -2 1q-5 0 -7.5 -0.5t-2.5 -5.5q0 -1 1 -2q2 -2 9 -2q-8 0 -14.5 -6.5
t-6.5 -14.5v-25q-26 -8 -56.5 -4t-62.5 4q0 51 17.5 98.5t61.5 84.5q15 8 31.5 18.5t39.5 10.5q40 20 86.5 17.5t85.5 -21.5q15 -4 29 -14t26 -22.5t22 -26.5t17 -26z" />
    <glyph glyph-name="three" unicode="3" 
d="M308 672q-4 0 -4 -4q-3 0 -2 -3q1 -2 2 -3q6 -2 11 1q3 2 4 5q19 -5 36.5 -12t32.5 -19q-2 4 -6 0q-2 -2 -3 -5q-5 -3 -0.5 -7t4.5 -7q10 0 10 4v6q15 -12 26.5 -26t18.5 -30q-9 0 -9 -4q-5 -8 -2 -12t6 -9q8 0 9 3q1 2 1 3q0 4 2.5 -1.5t2.5 -8.5q-4 -5 -7 -6t-3 -4
q9 2 12.5 -2t4 -10t-0.5 -13t-1 -11q-4 0 -7.5 -0.5t-7.5 -3.5q0 -11 1 -16t9 -9q0 -9 -4 -15.5t-8.5 -11.5t-8.5 -10.5t-4 -12.5q-6 -11 -13.5 -17.5t-16 -11t-16.5 -9t-14 -12.5q15 -8 27 -10t23 -10l20 -20l-4 -5q26 -33 37.5 -78t-3.5 -87q4 -8 2.5 -11.5t2.5 -8.5l10 6
q0 -5 -3 -13.5t-7 -11.5q0 3 1.5 7t-6.5 7q-8 -8 -12.5 -19.5t-12.5 -19.5l-20 -31q11 0 5 -5t-10 -10q-49 -37 -107 -44.5t-122 0.5q-27 6 -51.5 20.5t-44.5 35.5t-34 46.5t-20 51.5q0 11 2 25t-2 25h70l5 11q4 -8 12.5 -9l17 -2t13.5 -5.5t2 -19.5q7 -22 27 -42t42 -28
q38 -11 70 4t51 41q4 11 7 24t3 26q0 14 -3.5 26.5t-12.5 23.5q-26 26 -58.5 40.5t-70.5 14.5v95q8 3 18 6.5t21 3.5q23 0 41.5 16t29.5 39q4 5 3.5 10.5t-2.5 11.5t-4.5 11.5t-2.5 11.5q-11 8 -17 17t-17 12q-19 5 -39 5.5t-31 -15.5q-11 -7 -21 -18.5t-15 -25.5l-114 4
q4 23 9.5 47t19.5 43q19 26 44.5 46.5t51.5 23.5q4 8 7.5 7.5t7.5 -2t7.5 -2t6.5 7.5q16 -5 36 -2.5t39 2.5q10 0 6 4l-11 10q8 0 12.5 -2.5t12.5 -7.5z" />
    <glyph glyph-name="four" unicode="4" horiz-adv-x="543" 
d="M507 226q0 -19 1 -40t-7 -37v-15q-8 -2 -18 -0.5t-18.5 2t-14.5 -2.5t-6 -15q4 0 8 -0.5t8 -4.5q0 -8 -6 -12t-10 -8q4 -12 4 -23q0 -10 -2 -21.5l-4 -23t-2 -25.5h-88q0 -4 -6.5 -6.5t-14.5 1.5l-5 10q0 31 0.5 66.5t-11.5 62.5h-77q0 -4 -2.5 -4.5t-5.5 0t-6 0.5t-5 -2
q-5 8 -11.5 7t-9.5 -1q-8 -12 -18.5 -9t-17.5 3q-8 12 -20.5 9t-20.5 -3v-6q-11 -3 -25.5 -1.5t-26.5 12.5h-31l-5 114q69 100 138 197t135 198l20 21h118q6 -6 6.5 -13.5t-1 -15t-2.5 -15t2 -13.5q0 -47 -2.5 -97.5t-2.5 -97.5q8 -8 7 -15t-4 -13.5t-4 -13.5t6 -15
q5 -19 2 -30t-7 -26q0 -16 2 -31t14 -26q6 -2 14.5 -0.5t16.5 1.5t13 -4t3 -18zM321 458q-8 -4 -14 -13t-1 -12l15 10q4 4 2 9l-2 6v0zM326 401q-2 4 -2.5 9.5t-1 10t-2 6.5t-5.5 0l-40 -51l-6 5q-3 3 -4 1t-6 -6q-8 -12 -15.5 -24t-14.5 -28q7 0 11.5 6t8.5 9q8 8 12.5 18
t7.5 13q5 -19 -7 -37t-24 -34q-9 6 -13.5 1t-8.5 -12t-9 -11.5t-15 1.5q-4 -5 -9 -11t-1 -10h5q4 4 10 1.5t11 -5.5l113 4zM444 118l5 -5h-5v5z" />
    <glyph glyph-name="five" unicode="5" horiz-adv-x="543" 
d="M477 671q0 -8 -3 -18t9 -18q0 -19 -5 -38t-1 -39h-205q-8 -15 -16.5 -28t-4.5 -29q-16 -32 0 -56q16 4 31 -1t31 -9q4 4 7.5 7t7.5 3q4 -6 7 -7.5t6 -1.5t6 0.5t7 -1.5q8 4 18 -1.5t18 -9.5q-2 0 -4 -2q-1 -1 -1 -3q8 -11 19.5 -20.5t26.5 -9.5q10 -6 16.5 -14.5
t12 -17.5t12 -17t16.5 -14q4 -11 10.5 -22.5t9.5 -23.5q-7 0 -7 8t-8 8q-8 -8 -13 -16.5t3 -19.5q6 -10 6 -20q0 -9 -1.5 -19.5t-2.5 -21t3 -22.5q-4 -23 -15.5 -45.5t-31.5 -41.5q-8 -11 -21 -23t-25 -23q-25 -19 -56 -30t-63.5 -13.5t-65.5 3.5t-62 19q-39 27 -72 67.5
t-41 86.5q17 6 34.5 5.5t35 -2.5t35 -2.5t34.5 5.5q11 -13 20.5 -26t25.5 -21q-4 0 -6.5 -0.5t1.5 -4.5q4 0 7 -3l6 -6t6 -4t7 3q4 0 15 3t16 -9l16 10t20 1q35 19 45.5 54t5.5 70q-4 23 -17.5 41.5t-33.5 29.5q-16 8 -32 7.5t-31.5 -5.5t-29.5 -14t-26 -19q-27 0 -51 6.5
t-51 14.5q23 89 41 180t41 180q11 8 19.5 4t16.5 -4q36 2 70.5 1.5t67.5 -1.5t66.5 -1.5t67.5 1.5zM477 316v-5q-4 0 -5.5 2.5t-2 6t-2 7t-5.5 5.5l5 5q4 0 4 -4q0 -3 -0.5 -6.5t0 -7t6.5 -3.5zM235 126l-4 5h4v-5z" />
    <glyph glyph-name="colon" unicode=":" horiz-adv-x="222" 
d="M177 468q11 -18 8.5 -41t-17.5 -37q-29 -29 -75 -20q0 -3 -2 -5q-1 -1 -3 -1q-3 8 -11.5 14t-16 12.5t-11.5 14.5t1 19q-4 4 -2 9.5t2 10.5l-14 5q-4 7 -0.5 9.5t8 4.5t7 5t-5.5 10q0 2 1 2.5t2 1.5t2 1q7 -4 13.5 -1.5t13.5 7t13.5 9t13.5 4.5q22 5 42.5 -5.5
t30.5 -28.5zM177 100q8 -19 7.5 -42t-12.5 -38q-14 -14 -34 -20t-38 1q-11 0 -23 7.5t-23 3.5q-5 6 -4.5 14t0.5 15q0 8 -3.5 13.5t-16.5 5.5q0 8 6.5 13t-0.5 12q3 0 7 1t7 3.5t3.5 6t-3.5 8.5l-5 5q4 5 5 5.5t4 0.5v-6q8 5 15.5 10.5t15.5 9.5q26 11 51.5 2t40.5 -31z" />
    <glyph glyph-name="semicolon" unicode=";" horiz-adv-x="269" 
d="M199 469q8 -19 12 -38t-12 -38q-11 -17 -26 -26t-36 -5l-8 -5q3 -15 15 -15.5t21 -0.5q2 0 0 -4.5t-7 -4.5q-6 2 -13 2h-14t-13 1t-10 6q-12 -3 -17 4.5t-9 11.5q10 0 10 5q0 8 -4 15l-8 14t-7 14.5t-2 17.5q-15 5 -12 13.5t8 11.5q11 24 29.5 38t40.5 14q41 0 62 -31z
M216 72q-5 -23 -21 -46.5t-30 -45.5q-17 -27 -30.5 -56t-37.5 -51q-4 0 -2.5 4.5t-2.5 4.5l-14 -4q7 8 -3.5 11t-18.5 3q-4 2 -6.5 -0.5t-4.5 -5t-4 -3.5t-5 5q0 23 13.5 43t21.5 43q6 6 8 13.5t3.5 15.5t4.5 15t10 12q6 6 7 13.5t1.5 15t2.5 13.5t10 10q4 27 15.5 29.5
t25.5 -6t29.5 -20t27.5 -13.5zM236 46q-1 0 -4 3q-1 1 -1 2q0 4 4 1.5t1 -6.5z" />
    <glyph glyph-name="semicolon" unicode="&#x37e;" horiz-adv-x="269" 
d="M199 469q8 -19 12 -38t-12 -38q-11 -17 -26 -26t-36 -5l-8 -5q3 -15 15 -15.5t21 -0.5q2 0 0 -4.5t-7 -4.5q-6 2 -13 2h-14t-13 1t-10 6q-12 -3 -17 4.5t-9 11.5q10 0 10 5q0 8 -4 15l-8 14t-7 14.5t-2 17.5q-15 5 -12 13.5t8 11.5q11 24 29.5 38t40.5 14q41 0 62 -31z
M216 72q-5 -23 -21 -46.5t-30 -45.5q-17 -27 -30.5 -56t-37.5 -51q-4 0 -2.5 4.5t-2.5 4.5l-14 -4q7 8 -3.5 11t-18.5 3q-4 2 -6.5 -0.5t-4.5 -5t-4 -3.5t-5 5q0 23 13.5 43t21.5 43q6 6 8 13.5t3.5 15.5t4.5 15t10 12q6 6 7 13.5t1.5 15t2.5 13.5t10 10q4 27 15.5 29.5
t25.5 -6t29.5 -20t27.5 -13.5zM236 46q-1 0 -4 3q-1 1 -1 2q0 4 4 1.5t1 -6.5z" />
    <glyph glyph-name="quotedbl" unicode="&#x22;" 
d="M209 658q-2 -10 6.5 -8.5t16.5 1.5q-1 4 -1.5 5t-2.5 6l-1 4q11 5 20 3.5t17 2.5q0 -5 -0.5 -10.5t-4.5 -10.5q11 -8 22 -9t22 -6q2 -8 1.5 -15t-0.5 -17l-14 6q-8 -26 -2 -41q8 3 10.5 -3t0.5 -11q-6 -3 -5.5 -10t1 -13.5t-0.5 -11t-10 -1.5q-5 -23 -8.5 -47t-8.5 -47
l16 1q1 -8 -2.5 -13.5t-8 -10.5t-8 -11.5t-2.5 -15.5q-18 6 -35 2.5t-32 5.5q0 71 1 134.5t-7 131.5q-2 5 -3.5 4.5t-3.5 4.5q5 8 12 8q8 0 15 -8zM286 542q1 -2 1 -5q0 -7 -2 -11q-4 4 -3.5 9t4.5 7zM209 658q-2 -10 6.5 -8.5t16.5 1.5q-1 4 -1.5 5t-2.5 6l-1 4
q11 5 20 3.5t17 2.5q0 -5 -0.5 -10.5t-4.5 -10.5q11 -8 22 -9t22 -6q2 -8 1.5 -15t-0.5 -17l-14 6q-8 -26 -2 -41q8 3 10.5 -3t0.5 -11q-6 -3 -5.5 -10t1 -13.5t-0.5 -11t-10 -1.5q-5 -23 -8.5 -47t-8.5 -47l16 1q1 -8 -2.5 -13.5t-8 -10.5t-8 -11.5t-2.5 -15.5
q-18 6 -35 2.5t-32 5.5q0 71 1 134.5t-7 131.5q-2 5 -3.5 4.5t-3.5 4.5q5 8 12 8q8 0 15 -8zM286 542q1 -2 1 -5q0 -7 -2 -11q-4 4 -3.5 9t4.5 7zM209 658q-2 -10 6.5 -8.5t16.5 1.5q-1 4 -1.5 5t-2.5 6l-1 4q11 5 20 3.5t17 2.5q0 -5 -0.5 -10.5t-4.5 -10.5q11 -8 22 -9
t22 -6q2 -8 1.5 -15t-0.5 -17l-14 6q-8 -26 -2 -41q8 3 10.5 -3t0.5 -11q-6 -3 -5.5 -10t1 -13.5t-0.5 -11t-10 -1.5q-5 -23 -8.5 -47t-8.5 -47l16 1q1 -8 -2.5 -13.5t-8 -10.5t-8 -11.5t-2.5 -15.5q-18 6 -35 2.5t-32 5.5q0 71 1 134.5t-7 131.5q-2 5 -3.5 4.5t-3.5 4.5
q5 8 12 8q8 0 15 -8zM286 542q1 -2 1 -5q0 -7 -2 -11q-4 4 -3.5 9t4.5 7zM209 658q-2 -10 6.5 -8.5t16.5 1.5q-1 4 -1.5 5t-2.5 6l-1 4q11 5 20 3.5t17 2.5q0 -5 -0.5 -10.5t-4.5 -10.5q11 -8 22 -9t22 -6q2 -8 1.5 -15t-0.5 -17l-14 6q-8 -26 -2 -41q8 3 10.5 -3t0.5 -11
q-6 -3 -5.5 -10t1 -13.5t-0.5 -11t-10 -1.5q-5 -23 -8.5 -47t-8.5 -47l16 1q1 -8 -2.5 -13.5t-8 -10.5t-8 -11.5t-2.5 -15.5q-18 6 -35 2.5t-32 5.5q0 71 1 134.5t-7 131.5q-2 5 -3.5 4.5t-3.5 4.5q5 8 12 8q8 0 15 -8zM286 542q1 -2 1 -5q0 -7 -2 -11q-4 4 -3.5 9t4.5 7z
M209 658q-2 -10 6.5 -8.5t16.5 1.5q-1 4 -1.5 5t-2.5 6l-1 4q11 5 20 3.5t17 2.5q0 -5 -0.5 -10.5t-4.5 -10.5q11 -8 22 -9t22 -6q2 -8 1.5 -15t-0.5 -17l-14 6q-8 -26 -2 -41q8 3 10.5 -3t0.5 -11q-6 -3 -5.5 -10t1 -13.5t-0.5 -11t-10 -1.5q-5 -23 -8.5 -47t-8.5 -47l16 1
q1 -8 -2.5 -13.5t-8 -10.5t-8 -11.5t-2.5 -15.5q-18 6 -35 2.5t-32 5.5q0 71 1 134.5t-7 131.5q-2 5 -3.5 4.5t-3.5 4.5q5 8 12 8q8 0 15 -8zM286 542q1 -2 1 -5q0 -7 -2 -11q-4 4 -3.5 9t4.5 7zM209 658q-2 -10 6.5 -8.5t16.5 1.5q-1 4 -1.5 5t-2.5 6l-1 4q11 5 20 3.5
t17 2.5q0 -5 -0.5 -10.5t-4.5 -10.5q11 -8 22 -9t22 -6q2 -8 1.5 -15t-0.5 -17l-14 6q-8 -26 -2 -41q8 3 10.5 -3t0.5 -11q-6 -3 -5.5 -10t1 -13.5t-0.5 -11t-10 -1.5q-5 -23 -8.5 -47t-8.5 -47l16 1q1 -8 -2.5 -13.5t-8 -10.5t-8 -11.5t-2.5 -15.5q-18 6 -35 2.5t-32 5.5
q0 71 1 134.5t-7 131.5q-2 5 -3.5 4.5t-3.5 4.5q5 8 12 8q8 0 15 -8zM286 542q1 -2 1 -5q0 -7 -2 -11q-4 4 -3.5 9t4.5 7zM369 660q0 -10 8 -8.5t16 1.5q-2 5 -2.5 6t-2.5 6l-2 5q11 6 20 4.5t16 2.5q2 -4 0.5 -10t-3.5 -11q11 -7 21.5 -7.5t20.5 -5.5q3 -8 2 -15.5
t-1 -18.5l-12 6q-8 -25 -2 -41q7 4 9.5 -2t0.5 -12q-5 -3 -4.5 -10t1.5 -14t-0.5 -11.5t-10.5 -2.5q-4 -24 -7 -48.5t-8 -48.5l16 3q1 -8 -2.5 -14l-7 -12t-7 -12.5t-2.5 -15.5q-9 2 -17.5 1.5t-17 -1.5t-16 -0.5t-14.5 4.5q-1 71 -1.5 136.5t-8.5 134.5q-2 5 -4 5
q-1 0 -3 5q5 8 12 8t13 -7zM446 545q1 -1 1 -4q0 -6 -2 -10q-4 2 -3.5 7t4.5 7z" />
    <glyph glyph-name="comma" unicode="," 
d="M270 -101l-12 17q7 -2 12 -2q11 0 11 8q0 6 3 11.5t6 10t3 9.5q0 4 -6 8l-17 -11l17 27q5 -4 14 -3t9 10q4 4 1 8t-8 8q-2 -4 -5.5 -3t-8 2t-8.5 0t-6 -10q-6 4 -8.5 8.5t-4 9l-3 9t-6.5 8.5q4 4 4.5 11.5t0.5 16.5q-6 2 -8 8.5t-2 15.5t0.5 19t-1.5 19q5 -5 11.5 -2
t6.5 7q0 5 -3.5 8.5t-3.5 8.5l12 6l-5 11l22 6q0 -5 -3 -6t-3 -6l6 -5q26 0 51 -0.5t50 -5.5q5 -11 4.5 -23.5t-1.5 -25.5t-1 -27q0 -13 4 -26q-8 -13 -7.5 -25.5t-3.5 -24.5q-9 -34 -22.5 -63.5t-39.5 -55.5q-14 0 -30.5 8.5t-20.5 25.5zM272 -104l-12 17q7 -2 12 -2
q11 0 11 8q0 6 3 11.5t6 10t3 9.5q0 4 -6 8l-17 -11l17 27q5 -4 14 -3t9 10q4 4 1 8t-8 8q-2 -4 -5.5 -3t-8 2t-8.5 0t-6 -10q-6 4 -8.5 8.5t-4 9l-3 9t-6.5 8.5q4 4 4.5 11.5t0.5 16.5q-6 2 -8 8.5t-2 15.5t0.5 19t-1.5 19q5 -5 11.5 -2t6.5 7q0 5 -3.5 8.5t-3.5 8.5l12 6
l-5 11l22 6q0 -5 -3 -6t-3 -6l6 -5q26 0 51 -0.5t50 -5.5q5 -11 4.5 -23.5t-1.5 -25.5t-1 -27q0 -13 4 -26q-8 -13 -7.5 -25.5t-3.5 -24.5q-9 -34 -22.5 -63.5t-39.5 -55.5q-14 0 -30.5 8.5t-20.5 25.5z" />
    <glyph glyph-name="plusminus" unicode="&#xb1;" horiz-adv-x="610" 
d="M305 615q4 2 8 1t7.5 -2.5t6.5 -2t5 3.5l-6 11l27 5q-4 -8 0.5 -15t9 -13t5.5 -11t-9 -9q-5 -37 -5 -76t5 -71l5 -6h180q0 -4 1.5 -9.5t9.5 -5.5h10l6 -109q-10 0 -13 3.5t-2.5 8t2.5 9t2 6.5q-4 17 -3.5 35.5t-7.5 34.5l-5 -5v-92l11 -16h-17q4 6 2 8.5t-6.5 3.5
t-9.5 1.5t-7 2.5l-5 6l-148 -6q0 -5 -5.5 -9t-5.5 -12q8 -5 9.5 -9.5t1.5 -12.5l-3 -3q-3 -3 -8 -3q0 -8 3.5 -11.5t7.5 -3.5l-11 -14v-113q5 -3 6 -3.5t5 -0.5q-4 -5 -10.5 -5.5t-10.5 -0.5q4 8 5 15.5t-11 11.5q-24 0 -51 -4t-52 4q5 20 5 39q0 20 -1 39.5t-1.5 39.5
t3.5 40q-6 4 -11 9t-10.5 8.5t-10.5 4t-11 -5.5q-38 5 -68.5 6.5t-62.5 -6.5q4 -12 -2.5 -14t-18.5 -2v49q2 0 3.5 1t3.5 2t3 2q2 6 0 9.5t-5 6.5t-5 6.5t0 9.5q8 4 9.5 10t1 12.5t-1.5 13.5t1 13q48 4 90.5 3.5t84.5 7.5q8 24 8.5 54.5t-4.5 54.5q5 10 5 21t-1 22t-1.5 22
t3.5 21q0 -8 3.5 -12t7.5 -4t13 -1t9 7v10q4 -4 10.5 0.5t10.5 -0.5q0 -8 3.5 -12t7.5 -4zM283 105h-43v10q8 -8 15 -5t12 11q8 0 8.5 -8t7.5 -8zM316 105q-5 -5 -9.5 -5.5t-12.5 -0.5q5 5 9.5 8t12.5 -2zM241 182q0 -5 3.5 -7.5t8.5 -2.5h271q8 2 11 9.5t11 7.5q0 -5 3 -7
t3 -7q3 5 4 2t5 -5q-10 -12 -12.5 -24.5t-2.5 -25.5t1 -26t-1 -26l10 -14l-10 -10h-497q-12 12 0 24q0 4 0.5 11t0 15t-2 15.5t-5.5 11.5q-1 6 1 11t4 10.5t3.5 12t-1.5 15.5q13 4 26.5 2t26.5 -4t25.5 -0.5t24.5 12.5v7q0 -5 3.5 -10t8.5 -7q7 0 13.5 1t11.5 9q3 9 8 9
q6 0 12 -2.5t12 -4t10 4.5q5 5 7.5 1.5t2.5 -8.5z" />
    <glyph glyph-name="greater" unicode="&#x3e;" horiz-adv-x="571" 
d="M42 35q-8 4 -7 13.5t1 17.5q4 0 5 -2.5t5 -2.5q0 -4 -2 -7.5t2 -7.5l11 5v86q4 4 12 4t8 11l-10 11q38 23 87 43t96 43q0 -4 5.5 -8.5t9.5 3.5q4 4 7 7.5t3 7.5q8 -4 17.5 -1.5t17.5 6.5q2 8 6.5 11.5t9 6l9 5t6.5 8.5q-7 16 -20 16q6 4 11.5 -2.5t11.5 -13t13 -7.5
t15 12q-4 12 -17 17.5t-24 13.5q-31 7 -58.5 24.5t-58.5 25.5q-8 0 -6.5 -5.5t1.5 -9.5q-8 8 -18.5 12t-21.5 9q0 8 3 9.5t7 5.5q-8 8 -19 16.5t-22 4.5q-4 0 -9 2t-10 3.5t-8.5 0.5t-3.5 -6q1 0 3 -1t3.5 -2t3.5 -3q-8 5 -13.5 9t-1.5 11q-16 4 -28.5 12t-32.5 8
q4 0 5 -0.5t6 -4.5l5 5q-2 14 -1 26.5t2 24.5t0.5 23.5t-6.5 22.5h-6q-5 11 1 17l14 14q115 -57 230 -118.5t233 -115.5q-2 0 -5 -1q-5 -2 -5 -5q0 -8 -1.5 -14.5t6.5 -14.5q4 0 5 4t5 -4q0 -4 -7.5 -11t-7.5 -15l-6 -41l16 -5q-2 -4 -5.5 -3.5t-7 1.5t-6 0t-2.5 -9
q-8 5 -12 2t-7 -5q0 1 1 2t3 1q-26 -2 -52.5 -16t-49.5 -34q16 0 28.5 11t28.5 15q-16 -8 -29 -19.5t-32 -11.5v5q-19 -4 -36 -12t-25 -24q-12 -4 -20.5 -12t-19.5 -12q-4 11 -10 11q-5 0 -11.5 -4.5l-13 -9t-12.5 -2.5q-19 -12 -37.5 -21t-32.5 -21l-11 -5l11 -10l-26 -15
q-2 0 -0.5 1.5t3 4l3 5t-0.5 4.5q-8 2 -15 -0.5t-13.5 -6t-13 -8t-14.5 -6.5q-4 -4 -9.5 -7t-9.5 -7v-10q-8 4 -11 11.5t-15 7.5zM78 21q3 0 4 2.5t5 2.5q-4 0 -5 -4.5t-4 -0.5zM108 35l-10 -4zM179 71h4h-4zM245 102l-16 -5l10 5h6zM41 147l11 11zM341 152q4 8 15.5 10.5
t15.5 10.5h5q-8 -4 -18 -10t-18 -11zM107 168v5h5q4 -4 1.5 -4.5t-6.5 -0.5zM153 188q-2 3 1 5q2 1 4 1zM188 209q4 4 8.5 7.5t12.5 7.5q0 -8 -8.5 -9.5t-12.5 -5.5zM458 214q4 8 10.5 9t10.5 1q-4 -4 -8.5 -7t-12.5 -3zM229 230q-3 3 1 3h4h11q-8 0 -10 -4t-6 1zM183 392
h10q0 -4 -2.5 -5t-2.5 -6q0 5 -2.5 6t-2.5 5zM102 447q8 -4 12 -7.5t8 -6.5q-4 3 -12 3.5t-8 10.5z" />
    <glyph glyph-name="florin" unicode="&#x192;" 
d="M544 638q8 -3 4 -8t-4 -14q0 -22 -1.5 -41t-12.5 -41q-17 10 -34.5 18.5t-34.5 0.5q-16 -14 -24.5 -37t-2.5 -44q0 -7 -2.5 -14.5t-4 -15t-1 -15t7.5 -14.5q12 0 27 -1.5t23 1.5q14 2 20 -1.5t8.5 -10t2 -14.5t-0.5 -15q0 -17 -4.5 -30t-12.5 -27q-5 3 -7.5 0.5t-5 -5.5
t-5 -5t-6.5 0q-5 0 -9 -6t-8 -6q-5 5 -3 8.5t-3 3.5q5 3 8 2t3 2q-13 5 -29 7.5t-28 -7.5q-4 -15 -5 -31.5t-1.5 -32.5t-2.5 -30.5t-8 -25.5q2 -21 -0.5 -41t-6.5 -39t-7.5 -37.5t-3.5 -37.5q-4 -5 -5 -10.5t-1 -11.5q0 -5 -0.5 -10.5t-5.5 -9.5q-1 -8 0 -16t1.5 -16
t-1.5 -16t-11 -17q-5 -3 -4 -12.5t11 -14.5q-11 0 -18.5 -6.5t-14.5 -15t-14 -17.5t-17 -14q-3 -2 -3.5 -5.5l-1 -7t-2 -5.5t-6.5 1l-4 13q-45 -15 -85.5 -2t-71.5 35q0 26 8.5 49.5t8.5 48.5q9 -4 19.5 -11t22 -12.5t23 -5t22.5 11.5q11 9 15.5 20.5t6 24t2.5 25.5t6 24
q-5 8 -12 13.5t-2 13.5q11 0 14.5 8t3.5 16q0 27 9.5 48.5t9.5 44.5q0 4 -3 4.5t-6 1.5t-4.5 3t0.5 8q5 -5 11 -1.5t6 11.5t-4 10t-7.5 3.5t-4 4.5t5.5 12q0 5 1.5 11.5t-8.5 11.5h-6v7q10 0 12.5 -6.5t10.5 -6.5q0 6 2.5 13t4 13t1 11t-7.5 9h-86q0 23 9 44.5t9 49.5
q-5 0 -9 2t-9 2q7 2 14 5t14.5 4t15.5 -0.5t15 -8.5q6 0 14 -1.5t16 -1.5t15.5 1.5t11.5 7.5q-2 7 0 16t3 18.5t-1.5 17.5t-13.5 12q0 8 6.5 5t11.5 2q4 27 8.5 55t14.5 53t27.5 45t47.5 31q6 -9 11.5 -7.5t11.5 4.5t11.5 4t11.5 -8q17 0 34 -5.5t34 -10.5zM149 -164
q5 -5 2 -9t-6 -4q-1 -1 -3 -2q-4 -2 -4 2q0 5 4 9t7 4zM253 -181v-6q-3 0 -3.5 3.5t-0.5 6.5q1 0 2 -1q2 -2 2 -3z" />
    <glyph glyph-name="onehalf" unicode="&#xbd;" horiz-adv-x="665" 
d="M162 667q0 -5 5 -5l-5 -6v-56q2 -2 4 -3t4 1v-11q-5 0 -8 -2q2 -4 1 -9t-1.5 -9.5t1 -8t7.5 -5.5q2 -4 0.5 -5t-3.5 -1.5l-4 -1t-1 -3.5q0 -6 -0.5 -11t3.5 -10h5v-19q-2 0 -4 1t-4 -4q0 -5 -0.5 -14t3.5 -15l5 3v-8q-8 -5 -8 -8q0 -4 -0.5 -7.5t3.5 -5.5h5
q2 -3 -0.5 -4.5t-4.5 -3t-2 -3.5q0 -1 7 -2q0 -2 -1 -5.5t1 -5.5q-2 0 -4 1t-4 -3v-77q2 -2 6 -2t2 -6q-1 -3 -4 -3.5t-6.5 -1t-6 -2.5t-2.5 -7q0 -4 2.5 -7.5t0.5 -8.5q0 7 -5 12.5t2 11.5v2q0 2 -2 4q-4 2 -7.5 0.5l-7 -3t-6.5 -1.5t-6 4h-21v267q-4 5 -8 4.5t-8 4.5
q-2 -5 -8 -5t-10 2q-5 4 -10 3t-11 -3q-5 0 -7.5 2.5t-6.5 0.5v2l35 56h95zM165 669q0 -5 5 -5l-5 -6v-56q2 -2 4 -3t4 1v-11q-5 0 -8 -2q2 -4 1 -9t-1.5 -9.5t1 -8t7.5 -5.5q2 -4 0.5 -5t-3.5 -1.5l-4 -1t-1 -3.5q0 -6 -0.5 -11t3.5 -10h5v-19q-2 0 -4 1t-4 -4
q0 -5 -0.5 -14t3.5 -15l5 3v-8q-8 -5 -8 -8q0 -4 -0.5 -7.5t3.5 -5.5h5q2 -3 -0.5 -4.5t-4.5 -3t-2 -3.5q0 -1 7 -2q0 -2 -1 -5.5t1 -5.5q-2 0 -4 1t-4 -3v-77q2 -2 6 -2t2 -6q-1 -3 -4 -3.5t-6.5 -1t-6 -2.5t-2.5 -7q0 -4 2.5 -7.5t0.5 -8.5q0 7 -5 12.5t2 11.5v2q0 2 -2 4
q-4 2 -7.5 0.5l-7 -3t-6.5 -1.5t-6 4h-21v267q-4 5 -8 4.5t-8 4.5q-2 -5 -8 -5t-10 2q-5 4 -10 3t-11 -3q-5 0 -7.5 2.5t-6.5 0.5v2l35 56h95zM468 693h17q-4 -19 -11 -35.5t-9 -31.5q2 -7 7 -9t-4 -9q-8 3 -11.5 1t-5 -7t-2 -11.5t-2.5 -11.5q-16 -42 -33.5 -85.5
t-34.5 -88.5q0 -8 4 -8h8q3 -4 1 -7.5t-5 -5.5q-1 -2 -2 -1l-2.5 2.5t-3 2t-4.5 -1.5q-14 -18 -19.5 -38t-15.5 -40q-6 -20 -14.5 -39.5t-14.5 -41.5q2 -3 5 -3.5t6 -1.5t3.5 -3.5t-2.5 -8.5h-4q0 3 -2.5 6t-5.5 3q-26 -49 -41.5 -99t-38.5 -102q-9 -6 -23.5 -3.5t-27.5 0.5
q-4 -4 -8.5 -1.5t-9.5 4.5q-2 3 -2 10q0 8 -6 8q-3 3 -2 4t2 0h5v-4q10 6 12.5 15t8.5 19q0 9 5 15.5t0 14.5q9 9 13.5 21t10.5 25q-9 9 -4 18.5t8 20.5l6 -4l3 7q-7 0 -7.5 5t4.5 8q5 7 12 14t7 17q-4 5 -2 8t6 6.5t8 7.5t2 10q-12 9 -21 9q0 3 1 10t6 7q4 0 7.5 -2.5
t6.5 -4t6.5 -0.5t6.5 7q4 20 11 36.5t11 35.5q9 13 14.5 28t9.5 32q16 38 30 78.5t28 78.5q-9 4 -9.5 8t6.5 14q2 -7 8 -3l9 6q3 20 11 37t10 37q-5 0 -5.5 2t0.5 4.5t3 5t2 3.5q6 6 13.5 6.5t15 -1t15.5 -2.5t17 2zM303 435h-4q0 2 2.5 3t4.5 5q4 -4 1.5 -6t-4.5 -2z
M231 252q0 -6 -5 -7.5t-7 -5.5q-5 4 -2 9t5 8q3 0 4 -0.5t5 -3.5zM168 116h-6l6 9v-9zM154 -11q4 0 6.5 1t7.5 -1q0 -3 -3 -4q-2 -1 -3 0q-3 3 -7.5 2.5l-9 -1t-9 0t-7.5 5.5l17 18q0 -5 2 -12t6 -9zM462 687h17q-4 -19 -11 -35.5t-9 -31.5q2 -7 7 -9t-4 -9q-8 3 -11.5 1
t-5 -7t-2 -11.5t-2.5 -11.5q-16 -42 -33.5 -85.5t-34.5 -88.5q0 -8 4 -8h8q3 -4 1 -7.5t-5 -5.5q-1 -2 -2 -1l-2.5 2.5t-3 2t-4.5 -1.5q-14 -18 -19.5 -38t-15.5 -40q-6 -20 -14.5 -39.5t-14.5 -41.5q2 -3 5 -3.5t6 -1.5t3.5 -3.5t-2.5 -8.5h-4q0 3 -2.5 6t-5.5 3
q-26 -49 -41.5 -99t-38.5 -102q-9 -6 -23.5 -3.5t-27.5 0.5q-4 -4 -8.5 -1.5t-9.5 4.5q-2 3 -2 10q0 8 -6 8q-3 3 -2 4t2 0h5v-4q10 6 12.5 15t8.5 19q0 9 5 15.5t0 14.5q9 9 13.5 21t10.5 25q-9 9 -4 18.5t8 20.5l6 -4l3 7q-7 0 -7.5 5t4.5 8q5 7 12 14t7 17q-4 5 -2 8
t6 6.5t8 7.5t2 10q-12 9 -21 9q0 3 1 10t6 7q4 0 7.5 -2.5t6.5 -4t6.5 -0.5t6.5 7q4 20 11 36.5t11 35.5q9 13 14.5 28t9.5 32q16 38 30 78.5t28 78.5q-9 4 -9.5 8t6.5 14q2 -7 8 -3l9 6q3 20 11 37t10 37q-5 0 -5.5 2t0.5 4.5t3 5t2 3.5q6 6 13.5 6.5t15 -1t15.5 -2.5t17 2
zM613 286q0 -8 6 -14.5t2 -14.5q2 -5 3.5 -10t-0.5 -9q-2 -8 -4 -15.5t4 -13.5q-2 -2 -5 -3t-3 -6q0 -6 4 -8t-1 -8q-5 -2 -5.5 -5t-2.5 -5q0 2 -1 2h-2q-5 0 -5 -5q-2 -4 -6 -8t1 -8l7 11q2 -8 -5 -15t-11 -15q-6 -2 -9.5 -10t-11.5 -4q-3 0 -3 -5q3 0 3 -1v-2l-3 -5l-3 5
q-5 -2 -6 -5t-1.5 -6.5t-1.5 -6.5t-6 -5q-2 -2 -4.5 -5t-6.5 -3v3q-5 0 -7 -3.5t-2 -5.5q4 -4 0 -8q-4 -2 -5.5 -6t-7.5 -2q-2 -2 -1.5 -4t-1.5 -4h3l110 -3q2 -2 2 -7t-2 -9v-19t2 -21q-8 2 -14 -2t-12 2h-89q-4 -6 -13 0q-10 0 -21.5 0.5t-21.5 -3.5q-14 4 -32.5 3.5
t-34.5 1.5v28q38 42 79.5 82t73.5 81q6 8 9 16t8 16q7 26 -9 46q-6 5 -12.5 8.5t-14.5 7.5q-3 -1 -7 -0.5t-8 0.5t-7.5 -0.5t-4.5 -4.5q-4 0 -7.5 -4t-8.5 0q0 -2 -2.5 -2.5t-0.5 -4.5h3l-8 -14q1 1 1 2v1h-1q-5 0 -5 -3l1 -1q2 -2 4 -2q-4 0 -7.5 -3t-3.5 -7v-14
q-14 -4 -29.5 -2t-32.5 2q0 26 9 51t32 44q8 4 16.5 9.5t20.5 5.5q20 11 44.5 9.5t44.5 -11.5q16 -4 28 -19t20 -27zM617 289q0 -8 6 -14.5t2 -14.5q2 -5 3.5 -10t-0.5 -9q-2 -8 -4 -15.5t4 -13.5q-2 -2 -5 -3t-3 -6q0 -6 4 -8t-1 -8q-5 -2 -5.5 -5t-2.5 -5q0 2 -1 2h-2
q-5 0 -5 -5q-2 -4 -6 -8t1 -8l7 11q2 -8 -5 -15t-11 -15q-6 -2 -9.5 -10t-11.5 -4q-3 0 -3 -5q3 0 3 -1v-2l-3 -5l-3 5q-5 -2 -6 -5t-1.5 -6.5t-1.5 -6.5t-6 -5q-2 -2 -4.5 -5t-6.5 -3v3q-5 0 -7 -3.5t-2 -5.5q4 -4 0 -8q-4 -2 -5.5 -6t-7.5 -2q-2 -2 -1.5 -4t-1.5 -4h3
l110 -3q2 -2 2 -7t-2 -9v-19t2 -21q-8 2 -14 -2t-12 2h-89q-4 -6 -13 0q-10 0 -21.5 0.5t-21.5 -3.5q-14 4 -32.5 3.5t-34.5 1.5v28q38 42 79.5 82t73.5 81q6 8 9 16t8 16q7 26 -9 46q-6 5 -12.5 8.5t-14.5 7.5q-3 -1 -7 -0.5t-8 0.5t-7.5 -0.5t-4.5 -4.5q-4 0 -7.5 -4
t-8.5 0q0 -2 -2.5 -2.5t-0.5 -4.5h3l-8 -14q1 1 1 2v1h-1q-5 0 -5 -3l1 -1q2 -2 4 -2q-4 0 -7.5 -3t-3.5 -7v-14q-14 -4 -29.5 -2t-32.5 2q0 26 9 51t32 44q8 4 16.5 9.5t20.5 5.5q20 11 44.5 9.5t44.5 -11.5q16 -4 28 -19t20 -27z" />
    <glyph glyph-name="threesuperior" unicode="&#xb3;" 
d="M307 671q-2 0 -2 -2q-1 0 -1 -1t1 -2q3 -1 4 0t2 3q21 -5 36 -16q-1 3 -4 0q-1 -1 -1 -3q-2 -2 0 -3t2 -3q5 0 5 2v2q14 -10 22 -27q-5 0 -5 -2q-2 -5 2 -11q3 0 5 2l1 1q0 2 1 -0.5t1 -4.5q-2 -2 -3.5 -2.5t-1.5 -2.5q5 1 7 -1t2 -5t-0.5 -6t-0.5 -5q-5 0 -8 -2
q0 -11 5 -13q0 -10 -6 -14t-6 -12q-5 -11 -14.5 -13.5t-15.5 -10.5q8 -4 14 -5t11 -5l9 -11l-2 -2q14 -17 20 -39.5t-2 -42.5q2 -4 1 -6t1 -4l5 3q0 -2 -1.5 -6.5t-3.5 -6.5q0 2 1 3.5t-3 3.5q-4 -4 -6.5 -10t-6.5 -10l-9 -16q5 0 2 -2t-5 -4q-25 -19 -53.5 -23t-60.5 0
q-28 6 -49 28.5t-27 49.5q0 5 1 12t-1 12h35l2 6q2 -4 6.5 -4.5l9 -1t7 -3t0.5 -10.5q4 -10 14 -20t20 -14q20 -6 35.5 1.5t25.5 21.5q4 11 5.5 25t-8.5 25q-25 27 -65 27v47q4 2 9.5 3.5t10.5 1.5q12 0 21 8.5t14 19.5q4 6 0.5 11.5t-3.5 10.5q-5 4 -7.5 8.5t-8.5 6.5
q-10 2 -20.5 2.5t-15.5 -7.5q-5 -4 -10 -9.5t-7 -11.5l-57 2q2 11 4.5 23t9.5 22q9 13 22 22.5t27 11.5q2 4 3 4q2 0 3.5 -1t3.5 -1t3 4q8 -2 18.5 -1t20.5 1q5 0 3 2l-6 5q5 0 7 -1.5t6 -3.5z" />
    <glyph glyph-name="twosuperior" unicode="&#xb2;" 
d="M415 618q0 -8 6 -14t1 -13q2 -6 3.5 -11t-0.5 -9q-2 -8 -4 -15t4 -12q-2 -2 -5 -3t-3 -6q0 -6 4.5 -8t-1.5 -7q-4 -2 -5 -5t-3 -5q0 2 -1 2h-1q-4 0 -4 -5q-3 -4 -7 -7.5t1 -8.5l7 11q2 -8 -5 -14t-11 -14q-5 -3 -9 -10.5t-12 -3.5q-2 0 -2 -5q2 0 2 -1v-2l-2 -5l-3 5
q-9 -4 -7 -11t-7 -11q-2 -2 -4 -5t-7 -3v3q-5 0 -7 -3t-2 -5q4 -5 0 -9q-4 -2 -5.5 -6t-6.5 -2q-2 -2 -1 -3.5t-1 -3.5h2l106 -2q2 -2 2 -7t-2 -9q0 -8 0.5 -18.5t2.5 -20.5q-8 2 -14 -2t-12 2h-85q-5 -5 -13 0q-10 0 -21 1t-21 -4q-14 5 -31.5 4.5t-33.5 1.5v26
q38 41 77.5 79.5t71.5 78.5q5 8 8 15.5t8 15.5q5 23 -9 44q-5 5 -12 8t-15 7q-5 -2 -14 0.5t-11 -5.5q-4 0 -7.5 -3.5t-8.5 0.5q0 -2 -2.5 -2.5t-0.5 -4.5h3l-8 -15q2 2 1.5 2.5t-0.5 1.5t-1 0q-4 0 -4 -4l1 -1q1 -1 3 -1q-3 0 -6.5 -3t-3.5 -7v-12q-14 -4 -28.5 -2t-31.5 2
q0 26 9 49t31 42q8 4 16 9t19 5q20 11 43 9.5t43 -11.5q16 -4 28 -18t19 -26z" />
    <glyph glyph-name="onesuperior" unicode="&#xb9;" 
d="M346 667q0 -5 6 -5l-6 -6v-55q6 -4 8 -2v-11q-5 0 -8 -2q2 -4 1.5 -8.5l-1 -9t0.5 -8.5t7 -6q2 -4 0.5 -5t-3.5 -1t-4 -0.5t-1 -3.5q0 -6 -0.5 -11.5t3.5 -9.5h5v-18q-2 0 -4 1t-4 -4q0 -6 -0.5 -14.5t3.5 -14.5l5 3v-8q-8 -5 -8 -8q0 -4 -0.5 -7.5t3.5 -5.5h5
q2 -3 -0.5 -4.5t-4.5 -3t-2 -3.5q0 -1 7 -2q0 -2 -1 -5t1 -5q-2 0 -4 1t-4 -4v-76q2 -2 6 -2t2 -5q-1 -3 -4 -3.5l-6 -1t-5.5 -2.5t-2.5 -7q0 -4 2 -7.5t0 -8.5q0 7 -5 12.5t3 11.5v2q0 3 -3 4q-4 2 -7.5 0.5t-6.5 -3t-6 -1.5t-6 4h-21v263q-4 5 -8 4.5t-8 4.5q-2 -5 -8 -5
q-5 0 -10 2q-4 4 -9.5 3t-11.5 -3q-4 0 -6.5 2.5t-6.5 0.5v2l34 55h94z" />
    <glyph glyph-name="equal" unicode="=" horiz-adv-x="539" 
d="M133 477h82v11h8q-1 -2 -1 -5q0 -6 7 -6h148q4 0 4.5 2.5t1 4.5t2 4t6.5 0q8 -11 18 -13t22 -0.5l24 3t23 -4.5q3 -7 6 -14.5t-2 -14.5q-3 -9 -0.5 -14.5t6 -10.5t6 -10t-0.5 -12q-2 -4 -0.5 -10t2 -11t-1.5 -7.5t-11 -1.5q5 4 0.5 5t-4.5 5h-432l-4 5l4 95q4 -3 8 -2
t7.5 3t7 2.5t7.5 -3.5q1 0 3 1q4 2 6 5v5h48v-11zM100 358v-4q-10 0 -10 4q1 1 3 2q3 2 7 -2zM258 358q0 -4 -11 -4q0 3 5.5 5.5t5.5 -1.5zM426 358q0 -3 -3.5 -3.5t-7.5 -0.5v4q4 0 7.5 2t3.5 -2zM372 300q0 -3 1.5 -6t9.5 -3q3 0 4 2.5t4 2.5v4h44q2 -7 8 -8t13.5 -0.5
t14.5 0.5q8 0 11 -5q5 0 6 1.5t5 -1.5q3 -5 3 -13t-3 -13q0 -5 -3.5 -7.5l-7 -5t-4.5 -4.5t4 -6h15q-1 -5 -1 -11v-10t-1.5 -9t-6.5 -7q0 -8 4.5 -10t4.5 -5q-7 -4 -11.5 -10l-7.5 -10q0 4 4.5 7t-0.5 8l-4 5l-359 4q-5 -3 -5.5 -4t-0.5 -5l15 -10q-7 -4 -16.5 -4.5
t-17.5 -0.5q5 7 9.5 9.5t0.5 10.5q-7 6 -15.5 5t-17 -2.5t-16 -1t-13.5 7.5l4 96h287q5 4 5.5 7t0.5 7z" />
    <glyph glyph-name="Adieresis" unicode="&#xc4;" horiz-adv-x="748" 
d="M586 4h6h-6zM703 25q2 8 -1 14.5t-7 12.5t-7 12t-1 14q-4 4 -11 4q-6 0 -11 -4v-5q5 4 6 -0.5t5 -4.5q0 -8 -3 -14.5t-8 -6.5q-16 35 -33 74t-25 78h11q-4 -8 -2 -12.5t5.5 -6.5t7.5 -3.5t4 -3.5l6 5q-4 10 -7 22.5t-7.5 24t-11.5 20.5t-21 13q-11 -9 -11 0
q0 16 -8.5 25.5t-8.5 21.5q8 4 11 2t4.5 -6.5t2 -9.5t4.5 -7q5 8 7.5 15t-1.5 11q-4 2 -8.5 7l-9 10t-9.5 8.5t-11 2.5q-12 11 -17.5 28t-13.5 33h5q8 -4 10.5 -13t10.5 -13q0 4 4.5 6t0.5 10q-4 11 -10 28t-21 25q0 12 -0.5 23.5t-5.5 23.5q-33 41 -42 95q-6 4 -9 10.5
t-5.5 11.5t-6 8.5t-11.5 1.5q0 8 4.5 12.5t0.5 9.5q0 4 -5.5 7t-9.5 3q-8 4 -8 6q0 3 3 5t6.5 4t3.5 6q-8 4 -11.5 10t-14.5 6q-5 -5 -2.5 -11t2.5 -10q-16 -4 -37 -4q-20 0 -36 4q2 8 -2 11t-10.5 3.5t-13.5 -1t-11 -3.5t-4.5 -5.5t-0.5 -8.5q0 -4 -0.5 -8.5t-4.5 -8.5
q-8 -4 -10.5 -11t-3.5 -14.5t-3.5 -15t-10.5 -13.5q-2 -2 -1.5 -5.5t0.5 -7.5q0 -3 -1.5 -7t-7.5 -6q-4 -8 -2.5 -16.5t-2.5 -20.5q-10 -4 -13.5 -10.5t-4.5 -14.5t-2 -16.5t-7 -16.5q-15 -23 -21.5 -50.5t-14.5 -55.5q-13 -11 -19 -26t-14 -31q4 -8 0.5 -14t-8 -12.5
t-8 -13.5t0.5 -17q-12 -21 -19 -45.5t-23 -44.5q0 -21 -11.5 -38t-15.5 -37q-6 -6 -8 -13t-3.5 -14.5t-4.5 -14.5t-11 -11q2 -6 1 -10.5t-3 -8t-3.5 -8t0.5 -10.5q2 -2 4 -0.5t4 3.5t4 3t4 -1q10 6 22.5 8t24.5 2q13 0 25.5 -0.5t22.5 1.5q8 -4 6.5 -8t-1.5 -8
q8 -4 12.5 -1.5t8.5 6.5q9 37 21 68.5t27 63.5q12 0 23 -2t19 2h-5q12 9 27 8t26 -1q5 -9 12 -10t15 3l-6 7q0 4 5.5 2.5t5.5 2.5q8 -6 15 -7.5t13.5 -0.5t13.5 3.5t15 4.5q10 -8 21.5 -11t23.5 -3t23.5 1t21.5 1q20 -27 30.5 -58t21.5 -63l106 -5q-4 0 -6.5 -3.5t1.5 -7.5
h48q2 0 3 1q2 2 2 4l21 6q0 4 -3.5 10t-11.5 11zM307 669q4 0 10 1.5t6 -6.5q-4 -4 -8 -2t-8 2v5zM275 263q20 44 36.5 87.5t32.5 91.5q8 4 10.5 13t10.5 13q8 -7 8 -15t7 -16q8 -25 18.5 -49t18.5 -50q8 -17 15 -36t11 -39h-168zM464 563l-2 6q-2 6 2 10q4 -4 2 -7.5
t-2 -8.5zM486 510l-5 10h10zM507 458v5v-5zM597 231l-5 17l5 -6q0 -4 2 -7.5t-2 -3.5zM703 9q-4 -4 -7 -4q-2 0 -3.5 2t-2.5 4.5t-3 2.5q-8 4 -6.5 14.5t1.5 23.5q4 -8 5 -16.5t5 -16.5q4 0 7.5 -3t3.5 -7zM570 -2v6v-6zM278 816q9 -9 23 -16t14 -21q5 -7 4.5 -15.5
t-0.5 -16.5q0 -7 2.5 -12t12.5 -5q4 -10 -2.5 -14.5t-11.5 -4.5q-18 -5 -30 -14.5t-31 -9.5t-39 11.5t-29 31.5q2 14 0 26.5t-1.5 24.5t7 22.5t24.5 19.5q10 -5 26.5 -6t30.5 -1zM539 760q0 -4 5.5 -9.5t1.5 -14.5h-7q0 5 -1 5.5t-6 0.5l-6 -6q0 -2 2 -5.5t3 -7t0.5 -7
t-5.5 -5.5q-12 -3 -22.5 -9.5t-21.5 -12.5t-22.5 -7.5t-25.5 5.5q-39 18 -39 68q0 14 9 30t23 26q14 4 31 2.5t32 2.5q9 -4 14.5 -11.5t10 -15.5t10 -16t14.5 -13z" />
    <glyph glyph-name="Aring" unicode="&#xc5;" horiz-adv-x="754" 
d="M586 4h6h-6zM703 25q2 8 -1 14.5t-7 12.5t-7 12t-1 14q-4 4 -11 4q-6 0 -11 -4v-5q5 4 6 -0.5t5 -4.5q0 -8 -3 -14.5t-8 -6.5q-16 35 -33 74t-25 78h11q-4 -8 -2 -12.5t5.5 -6.5t7.5 -3.5t4 -3.5l6 5q-4 10 -7 22.5t-7.5 24t-11.5 20.5t-21 13q-11 -9 -11 0
q0 16 -8.5 25.5t-8.5 21.5q8 4 11 2t4.5 -6.5t2 -9.5t4.5 -7q5 8 7.5 15t-1.5 11q-4 2 -8.5 7l-9 10t-9.5 8.5t-11 2.5q-12 11 -17.5 28t-13.5 33h5q8 -4 10.5 -13t10.5 -13q0 4 4.5 6t0.5 10q-4 11 -10 28t-21 25q0 12 -0.5 23.5t-5.5 23.5q-33 41 -42 95q-6 4 -9 10.5
t-5.5 11.5t-6 8.5t-11.5 1.5q0 8 4.5 12.5t0.5 9.5q0 4 -5.5 7t-9.5 3q-8 4 -8 6q0 3 3 5t6.5 4t3.5 6q-8 4 -11.5 10t-14.5 6q-5 -5 -2.5 -11t2.5 -10q-16 -4 -37 -4q-20 0 -36 4q2 8 -2 11t-10.5 3.5t-13.5 -1t-11 -3.5t-4.5 -5.5t-0.5 -8.5q0 -4 -0.5 -8.5t-4.5 -8.5
q-8 -4 -10.5 -11t-3.5 -14.5t-3.5 -15t-10.5 -13.5q-2 -2 -1.5 -5.5t0.5 -7.5q0 -3 -1.5 -7t-7.5 -6q-4 -8 -2.5 -16.5t-2.5 -20.5q-10 -4 -13.5 -10.5t-4.5 -14.5t-2 -16.5t-7 -16.5q-15 -23 -21.5 -50.5t-14.5 -55.5q-13 -11 -19 -26t-14 -31q4 -8 0.5 -14t-8 -12.5
t-8 -13.5t0.5 -17q-12 -21 -19 -45.5t-23 -44.5q0 -21 -11.5 -38t-15.5 -37q-6 -6 -8 -13t-3.5 -14.5t-4.5 -14.5t-11 -11q2 -6 1 -10.5t-3 -8t-3.5 -8t0.5 -10.5q2 -2 4 -0.5t4 3.5t4 3t4 -1q10 6 22.5 8t24.5 2q13 0 25.5 -0.5t22.5 1.5q8 -4 6.5 -8t-1.5 -8
q8 -4 12.5 -1.5t8.5 6.5q9 37 21 68.5t27 63.5q12 0 23 -2t19 2h-5q12 9 27 8t26 -1q5 -9 12 -10t15 3l-6 7q0 4 5.5 2.5t5.5 2.5q8 -6 15 -7.5t13.5 -0.5t13.5 3.5t15 4.5q10 -8 21.5 -11t23.5 -3t23.5 1t21.5 1q20 -27 30.5 -58t21.5 -63l106 -5q-4 0 -6.5 -3.5t1.5 -7.5
h48q2 0 3 1q2 2 2 4l21 6q0 4 -3.5 10t-11.5 11zM307 669q4 0 10 1.5t6 -6.5q-4 -4 -8 -2t-8 2v5zM275 263q20 44 36.5 87.5t32.5 91.5q8 4 10.5 13t10.5 13q8 -7 8 -15t7 -16q8 -25 18.5 -49t18.5 -50q8 -17 15 -36t11 -39h-168zM464 563l-2 6q-2 6 2 10q4 -4 2 -7.5
t-2 -8.5zM486 510l-5 10h10zM507 458v5v-5zM597 231l-5 17l5 -6q0 -4 2 -7.5t-2 -3.5zM703 9q-4 -4 -7 -4q-2 0 -3.5 2t-2.5 4.5t-3 2.5q-8 4 -6.5 14.5t1.5 23.5q4 -8 5 -16.5t5 -16.5q4 0 7.5 -3t3.5 -7zM570 -2v6v-6zM307 789q9 19 21 21t25 0t26 -3t23 11q4 0 7 -3l4 -4
q0 -4 -3 -5t-3 -5l12 -6q5 8 11.5 6.5t11.5 -6.5q8 -6 9 -12.5t0.5 -12.5t0 -12.5t6.5 -12.5q4 -21 3 -41t-9 -37q-20 -25 -48 -36t-57 -3q-22 5 -40.5 22.5t-27.5 39.5q-4 29 6 54t22 45zM357 745q13 4 22 0.5t18 -12.5q0 -4 2.5 -8.5t4 -9.5t0.5 -9t-7 -6q-4 -8 -9.5 -7.5
t-10 2t-8.5 0.5t-6 -12q-8 5 -16 7t-11 10q0 13 2.5 27t18.5 18z" />
    <glyph glyph-name="adieresis" unicode="&#xe4;" horiz-adv-x="552" 
d="M198 644q4 -4 10 -7.5t11 -7.5t9 -8.5t4 -11.5q4 -6 4 -14v-15t2.5 -11.5t11.5 -4.5q3 -9 -2.5 -13t-10.5 -4q-16 -5 -28 -14t-29 -9t-35.5 11t-26.5 29q2 13 0 24.5t-1.5 22.5t6 20.5t22.5 18.5q9 -5 24 -5.5t29 -0.5zM439 592q0 -4 5 -9t1 -13h-6q0 4 -0.5 4.5
t-5.5 0.5l-6 -5q0 -5 4.5 -12t-4.5 -11q-11 -3 -21 -9.5t-20 -11.5t-21 -7t-23 5q-36 18 -36 63q0 14 8 28.5t22 23.5q13 4 28.5 2.5t29.5 2.5q8 -4 13 -11t9 -14.5t9 -14.5t14 -12zM489 445h-107v-19q0 -7 -10 -15q-7 0 -8.5 8.5t-4.5 10.5h-4q-2 0 -7 -3q-24 18 -52 25.5
t-57 6.5t-57 -9.5t-52 -22.5q-36 -26 -58 -64t-29 -82q-15 -55 -2 -102t37 -90q32 -48 78.5 -70.5t94.5 -22.5q6 5 14 5h16q9 0 16.5 1.5t11.5 10.5q9 -5 16.5 -1t15 8.5t15 6.5t16.5 -8q0 -5 0.5 -6t4.5 -3q25 2 50 2.5t51 0.5h11q0 112 3.5 217.5t-3.5 214.5zM191 340
q0 -2 -3 -3t-6 -6q-8 -7 -14.5 -11t-13.5 -7q3 11 13 19t24 8zM421 28q-4 0 -7.5 9t7.5 12q5 -3 2.5 -8t-2.5 -13zM327 156q-45 -43 -109 -38q-24 7 -48 24.5t-32 44.5q-2 28 -1.5 57.5t21.5 49.5q21 26 46.5 37.5t60.5 5.5q14 0 24 -12t18 -25q0 -5 3.5 -9t5.5 -7
q4 -9 4.5 -19t1 -20.5t2 -20t6.5 -17.5q7 13 4 28.5t1 26.5q3 0 4 -0.5t5 -4.5q3 -25 1 -53t-18 -48z" />
    <glyph glyph-name="Odieresis" unicode="&#xd6;" horiz-adv-x="733" 
d="M282 812q9 -9 23 -16t14 -21q5 -7 4.5 -15.5t-0.5 -16.5q0 -7 2.5 -12t12.5 -5q4 -10 -2.5 -14.5t-11.5 -4.5q-18 -5 -30 -14.5t-31 -9.5t-39 11.5t-29 31.5q2 14 0 26.5t-1.5 24.5t7 22.5t24.5 19.5q10 -5 26.5 -6t30.5 -1zM543 756q0 -4 5.5 -9.5t1.5 -14.5h-7
q0 5 -1 5.5t-6 0.5l-6 -6q0 -2 2 -5.5t3 -7t0.5 -7t-5.5 -5.5q-12 -3 -22.5 -9.5t-21.5 -12.5t-22.5 -7.5t-25.5 5.5q-39 18 -39 68q0 14 9 30t23 26q14 4 31 2.5t32 2.5q9 -4 14.5 -11.5t10 -15.5t10 -16t14.5 -13zM687 379q3 30 -8 63t-29 59l-11 23q-19 22 -39.5 43
t-44 38t-50 29.5t-56.5 16.5q-36 10 -72 12t-74 -6q-26 0 -54.5 -10.5t-54.5 -23.5q-51 -29 -86 -70.5t-54.5 -91t-23.5 -104.5t7 -111l4 -7q0 -17 7 -34.5t10 -33.5q22 -33 50.5 -66t62.5 -58.5t73 -38.5t82 -7q9 0 17.5 1.5t16.5 2.5t16 -1t15 -9q8 -3 16 -1t18 7q2 4 6 8
q7 7 11 5q5 -5 6 -6.5t1 -6.5q26 10 50.5 19t47.5 22q15 13 33.5 28t35 32.5t29.5 37t18 41.5q13 18 16 38.5t8 43.5q-5 2 -5 4t2.5 4.5t6.5 4.5t6 4v92zM449 518q3 0 4 -0.5t6 -5.5h-10v6zM286 529h10l-4 -5h-6v5zM541 239q-9 -4 -15 -11t-11 -14.5t-10 -14.5t-11 -11
q0 -10 -4 -11.5t-14 -1.5q-30 -18 -62 -35t-70 -17l-7 7v4h-4q3 -8 -5.5 -8.5t-13.5 4.5q-4 3 -13.5 4.5t-14.5 6.5q-28 11 -51.5 30t-41 43.5t-27 53.5t-9.5 59q0 31 6 60t24 49q0 9 4 16t9.5 13t11 11.5t9.5 11.5q18 10 29.5 23t28.5 13q0 -5 -0.5 -6t-5.5 -6h-11
q-26 -21 -46.5 -44.5t-28.5 -54.5q0 -1 4 -3q2 -1 3 -1q16 38 48 64.5t67 44.5q0 5 -3 6t-3 5q13 10 29 10.5t29 -4.5q-5 -5 -10.5 -3t-0.5 -3q0 -8 9 -6.5t12 1.5t4 1l2 2t1 2l-11 6h24q-3 -9 2.5 -11t13.5 -3t16.5 -3.5t12.5 -10.5q17 -5 30.5 -14t27.5 -22q5 -8 12.5 -7
t17.5 -4q-5 -5 -5.5 -8.5t0.5 -6.5t3 -6.5t2 -8.5q17 -13 20.5 -29.5t7.5 -32.5q2 -18 0.5 -34.5t-4 -32.5t-5 -31.5t-2.5 -30.5zM174 368q-3 -14 -3.5 -29.5t-0.5 -28.5h4q0 21 3.5 45t3.5 47q-5 -10 -3.5 -18t-3.5 -16zM211 211v-12l51 -41h7q-18 10 -29.5 24.5
t-28.5 28.5zM292 147l11 -6q0 5 -4 5.5t-7 0.5z" />
    <glyph glyph-name="Udieresis" unicode="&#xdc;" horiz-adv-x="540" 
d="M183 818q9 -9 23 -16t14 -21q5 -7 4.5 -15.5t-0.5 -16.5q0 -7 2.5 -12t12.5 -5q4 -10 -2.5 -14.5t-11.5 -4.5q-18 -5 -30 -14.5t-31 -9.5t-39 11.5t-29 31.5q2 14 0 26.5t-1.5 24.5t7 22.5t24.5 19.5q10 -5 26.5 -6t30.5 -1zM444 762q0 -4 5.5 -9.5t1.5 -14.5h-7
q0 5 -1 5.5t-6 0.5l-6 -6q0 -2 2 -5.5t3 -7t0.5 -7t-5.5 -5.5q-12 -3 -22.5 -9.5t-21.5 -12.5t-22.5 -7.5t-25.5 5.5q-39 18 -39 68q0 14 9 30t23 26q14 4 31 2.5t32 2.5q9 -4 14.5 -11.5t10 -15.5t10 -16t14.5 -13zM393 701q5 -6 -1 -10t-10 -9q-5 0 -5.5 3.5t-0.5 7.5
q0 6 0.5 10t5.5 4q4 0 7.5 -0.5t3.5 -5.5zM125 701q0 -6 -3.5 -7t-8.5 -1v8h12zM180 189q10 -23 31.5 -42t48.5 -19q26 -5 49 3.5t43 27.5q-10 14 -9.5 25.5t3.5 22.5t6.5 23t-0.5 26l17 -6q5 8 4.5 24.5t-11.5 30.5q0 9 6 17.5t1 18.5q-5 5 -11 12.5t-6 18.5q-4 5 -0.5 9.5
t0.5 14.5q-7 5 -9 10.5t-1.5 11t2.5 11.5t2 10q0 3 3 4q2 1 3 0q8 -3 6 -10.5t-2 -13.5q-1 0 -3 -3q-1 -2 -1 -3l17 -17v6v139q-5 10 -11.5 8.5t-11.5 -1.5q-3 5 -1.5 7.5t4.5 4.5t7 3.5t6 3.5q5 -5 8.5 -2t-1.5 6q5 11 -2 13t-15 7q6 9 7 16.5t0 15t-2.5 16t-0.5 19.5
l20 12h122v-501q-11 -8 -9.5 -17.5t1.5 -17.5q-2 -4 -7 -9t-8.5 -10.5t-4.5 -11t4 -11.5q-7 2 -11.5 -0.5t-7 -7.5t-4 -10t-3.5 -7q0 -2 2 -2.5t4 -1.5t4 -3t2 -7q-5 0 -6 -3t-6 -3l-5 20q-46 -46 -109.5 -61t-129.5 0q-31 13 -55 28t-47 33h-14q0 -11 -4 -12.5t-9 -1.5
q-12 8 -15.5 20t-4.5 26l-2 28t-9 25q-1 14 1.5 27.5t3.5 27t-1.5 26t-13.5 23.5q7 4 9 11.5t2 15.5q0 9 -1 18t0 16q-8 3 -11.5 15t1.5 20q0 5 8 10t2 10q-2 5 -5 8t2 8q8 15 8 35t-8 34q8 17 4.5 42t-11.5 42q4 14 4.5 27t0.5 25t0.5 23.5t4.5 23.5q0 9 -4 15t4 15l14 6
l116 -6zM285 -30l-8 -14q0 5 -2.5 6.5t2.5 7.5h8z" />
    <glyph glyph-name="edieresis" unicode="&#xeb;" horiz-adv-x="554" 
d="M197 627q8 -8 20 -13.5t12 -18.5q4 -6 4 -14v-13t2 -10.5t11 -4.5q3 -9 -2.5 -13t-10.5 -4q-15 -5 -25.5 -13t-26.5 -8q-17 0 -34.5 10.5t-25.5 27.5q2 12 0.5 23t-1 21t6 19t21.5 17q8 -5 22.5 -5.5t26.5 -0.5zM424 579q0 -4 4.5 -8.5t1.5 -12.5h-6q0 4 -0.5 4.5
t-5.5 0.5l-6 -5q0 -4 4.5 -11t-4.5 -11q-10 -2 -19.5 -8t-19 -11t-19.5 -6.5t-22 4.5q-33 17 -33 59q0 13 7.5 27t19.5 22q13 3 27.5 2t27.5 2q8 -4 12.5 -10t8.5 -13t9 -13.5t13 -11.5zM162 194q62 -9 120 0q6 -2 11.5 -1t11 2.5t11 2t10.5 -3.5h183q0 21 2.5 44.5
t-7.5 41.5q0 14 -8 27.5t-11 26.5q-44 64 -110 99.5t-151 24.5q-30 -5 -59.5 -19t-54.5 -35t-44 -48t-28 -57q6 -2 6 1q0 4 2 8v-5q-5 -23 -6.5 -48.5t1.5 -50.5t10.5 -48.5t20.5 -43.5q4 -7 9 -13.5t5 -13.5q-11 7 -19.5 22t-20.5 29q-2 4 -1.5 7.5t-1.5 8.5q0 -15 5.5 -27
t14 -23t18.5 -21.5t19 -21.5q7 -4 16 -11.5t23 -7.5q3 -9 10.5 -15t17 -10t19.5 -7t19 -6q18 1 35.5 0t35 -2.5t35.5 -1.5q19 0 38 4q22 10 46 14.5t46 23.5q7 3 11 10l8 14t8 13t11 8l-19 22q-21 11 -43 18.5t-42 15.5q-26 -18 -52.5 -28t-59.5 -10q-29 0 -57 14t-40 44
q-3 3 -3.5 7t-1 7t-2 5.5t-6.5 2.5q0 4 4.5 5t4.5 6zM245 343q5 2 8.5 6.5t6.5 8t7.5 5.5t11.5 -2q0 -6 4.5 -5.5t8.5 -2.5q29 0 52.5 -18.5t33.5 -44.5h-206q8 20 27.5 36.5t45.5 16.5zM38 161v3v5v-8z" />
    <glyph glyph-name="idieresis" unicode="&#xef;" horiz-adv-x="433" 
d="M123 672q9 -9 23 -16t14 -21q5 -7 4.5 -15.5t-0.5 -16.5q0 -7 2.5 -12t12.5 -5q4 -10 -2.5 -14.5t-11.5 -4.5q-18 -5 -30 -14.5t-31 -9.5t-39 11.5t-29 31.5q2 14 0 26.5t-1.5 24.5t7 22.5t24.5 19.5q10 -5 26.5 -6t30.5 -1zM384 616q0 -4 5.5 -9.5t1.5 -14.5h-7
q0 5 -1 5.5t-6 0.5l-6 -6q0 -2 2 -5.5t3 -7t0.5 -7t-5.5 -5.5q-12 -3 -22.5 -9.5t-21.5 -12.5t-22.5 -7.5t-25.5 5.5q-39 18 -39 68q0 14 9 30t23 26q14 4 31 2.5t32 2.5q9 -4 14.5 -11.5t10 -15.5t10 -16t14.5 -13zM283 426q-4 8 -3.5 17.5t1.5 19t1 18.5q0 10 -5 18l-85 6
q-6 -2 -14.5 -1t-17 0.5t-14 -4.5t-5.5 -16q-2 -5 -1.5 -11.5t1.5 -13t1.5 -12.5t-1.5 -10v-282q4 -22 3 -42t-3.5 -40t-3 -40.5t3.5 -41.5q8 0 8.5 3.5t8.5 6.5h102q2 0 4.5 -3t5.5 -5.5t6 -2.5t7 7q-2 51 -2.5 106t0 110.5t1.5 109.5t1 103z" />
    <glyph glyph-name="odieresis" unicode="&#xf6;" horiz-adv-x="573" 
d="M225 615q8 -8 19 -13.5t11 -16.5q4 -6 4 -13v-13t2 -10t10 -4q3 -8 -2 -11.5t-10 -3.5q-14 -5 -24 -12.5t-25 -7.5q-16 0 -32 9.5t-24 25.5q2 11 0.5 21.5t-1 20t5.5 18t20 16.5q8 -5 21.5 -5.5t24.5 -0.5zM437 570q0 -3 4.5 -7.5t1.5 -12.5h-6q0 5 -5 5l-5 -5
q0 -4 4 -10t-4 -10q-10 -2 -18.5 -8t-17.5 -10.5t-18.5 -6t-20.5 4.5q-32 15 -32 56q0 11 7.5 24t18.5 21q12 3 25.5 2t25.5 2q8 -4 12 -10t8 -12.5t8.5 -12.5t11.5 -10zM375 441q-17 9 -35 12t-37 3q-18 0 -36 -2t-35 -2l-4 4q-9 2 -17 0t-15 -6t-13.5 -7.5t-14.5 -5.5
q-7 -5 -14.5 -8.5l-15 -7t-13.5 -9t-10 -15.5l6 -4q0 -8 -6 -10t-9 -5h-7q0 7 5 7q6 0 6 8q-14 -16 -28 -31t-21 -33q3 -6 0.5 -10t-6 -7.5t-6 -7.5t1.5 -10h5q8 -7 0 -15q-4 -14 -3 -32t-7 -36q0 -4 -1.5 -12t6.5 -13q-4 -4 -4 -10t4 -10h5q0 -2 1 -2t2 -1t2 -1
q-4 -5 -5 -7.5t-5 -2.5q8 -30 27 -55t37 -43q15 -15 32.5 -27t35.5 -12q4 -8 9 -8.5t11 -0.5t11 -1.5t9 -10.5q40 4 77.5 2.5t74.5 12.5q32 13 57.5 35.5t43.5 50.5t29 60.5t12 65.5q0 35 -10.5 68t-29 62t-44.5 52t-58 38zM380 181q-8 -33 -34.5 -53.5t-59.5 -24.5
q-32 -4 -58 15t-45 48q-7 0 -8.5 8t-6.5 12q0 4 -2 9t-2.5 10.5t1.5 9.5t9 6q3 5 1.5 10t-4.5 10t-4.5 10.5t1.5 12.5q5 5 6 0.5t5 -4.5q3 3 3.5 7.5t0.5 11.5h-4v5q5 -2 9 0.5t6.5 6t4.5 8t4 6.5q8 11 17.5 17t20 10t21.5 7.5t20 8.5q14 -7 31 -9t28 -10q26 -23 41.5 -49.5
t12.5 -58.5q3 -6 1.5 -10.5t-5.5 -9.5t-7.5 -9.5t-3.5 -10.5z" />
    <glyph glyph-name="udieresis" unicode="&#xfc;" horiz-adv-x="550" 
d="M194 671q9 -9 23 -16t14 -21q5 -7 4.5 -15.5t-0.5 -16.5q0 -7 2.5 -12t12.5 -5q4 -10 -2.5 -14.5t-11.5 -4.5q-18 -5 -30 -14.5t-31 -9.5t-39 11.5t-29 31.5q2 14 0 26.5t-1.5 24.5t7 22.5t24.5 19.5q10 -5 26.5 -6t30.5 -1zM455 615q0 -4 5.5 -9.5t1.5 -14.5h-7
q0 5 -1 5.5t-6 0.5l-6 -6q0 -2 2 -5.5t3 -7t0.5 -7t-5.5 -5.5q-12 -3 -22.5 -9.5t-21.5 -12.5t-22.5 -7.5t-25.5 5.5q-39 18 -39 68q0 14 9 30t23 26q14 4 31 2.5t32 2.5q9 -4 14.5 -11.5t10 -15.5t10 -16t14.5 -13zM107 553q-5 -5 -13 -4t-8 -7q4 -6 9 -7t10.5 0t11.5 2
t12 -1q13 8 25.5 7t24.5 -1v-23q0 5 -3 5.5t-8 0.5q-4 -13 -2 -31.5t2 -34.5q0 -8 -1 -21t7 -18h5v-16q-4 0 -7 -3q-2 -2 -4 -3q2 -33 -0.5 -71.5t0 -75.5t15.5 -68.5t47 -49.5q17 -13 38 -10.5t38 10.5q9 8 22 13.5t17 18.5l-16 11q0 11 5 11t8.5 -5t8.5 0l11 11
q5 84 5.5 169t0.5 169q8 6 16 6.5t15 0.5t12 2.5t7 12.5q6 0 13.5 1.5t14.5 1.5q8 0 15 -3t11 -11q2 -4 7 -5t9.5 -1.5t8 -2.5t3.5 -8q0 -4 -3.5 -11t9.5 -11h5q-8 0 -10 -3.5t-6 -7.5v-72q2 -4 5.5 -6.5t6.5 -5t4.5 -6.5t-0.5 -10q-12 -4 -13.5 -14.5t2.5 -18.5q0 -5 3 -3
t3 -3q-8 -4 -10 -12.5t-1.5 -19t1.5 -21t-1 -18.5q12 -4 14 -12.5t2 -20.5q-4 -5 -9.5 -4t-1.5 -7q8 0 9.5 -6.5t1.5 -10.5q-15 0 -19.5 -9t-5.5 -21.5t-1.5 -25.5t-6.5 -21q5 -5 12 -7t-1 -10q-21 -35 -50.5 -61t-64.5 -41.5t-74.5 -20.5t-81.5 1q-25 4 -50 14t-46.5 26
t-38.5 36.5t-25 45.5q-15 46 -19.5 96t-4.5 102t2 104t0 102q2 2 6.5 2.5t8.5 1.5t6.5 3.5t0.5 8.5q-5 5 -11.5 3t-10.5 3h71zM456 542q-5 -5 -8.5 -7.5t-8.5 1.5q-5 5 -2 6t8 5q4 0 7.5 -0.5t3.5 -4.5z" />
    <glyph glyph-name="question" unicode="?" horiz-adv-x="498" 
d="M324 62q4 -3 -1 -6t1 -6q-6 0 -6 -7q0 -6 -6 -6q0 4 -5 4q-1 0 -3 -2q-1 -1 -1 -2q0 -5 4 -9v-4q0 -7 -1.5 -8.5t1.5 -4.5q2 1 3 2q2 2 2 -2q0 -7 -7.5 -13t-14.5 -13h-4q3 0 5.5 3t2.5 6l-4 4q0 -3 -2 -4t-2 -4q-7 0 -4.5 4t-4.5 4h5l4 -4v8h-9l-4 -4q-7 3 -11 -1
t-10 -7h8q3 -7 -3 -6.5t-10 -2.5q-8 0 -8 4q3 4 1.5 5t-1.5 4q-10 3 -19 6t-16 7q-3 -3 -1.5 -4.5t4.5 -3t5.5 -3.5t0.5 -6q3 -4 10.5 -3t10.5 -6q-33 6 -51 30q0 3 2.5 6.5t5.5 6.5q-1 5 -4.5 7l-7 4t-5 5t-0.5 10q-5 2 -5.5 5t0 7t2 8.5t-0.5 9.5q7 0 6 5t3 12
q6 19 23.5 29t40.5 14q23 3 41.5 -8t31.5 -31q3 -7 4 -14.5t4 -11.5q-6 -6 0 -13zM196 15h-5h5zM179 20h4v-5zM316 24h4v-4zM312 32h4h-4zM453 513q3 -4 3.5 -7t0.5 -6l-4 -5v-55q-3 0 -3.5 -3t-0.5 -6v-4q-7 0 -8.5 -5t-4.5 -8q-14 -34 -47 -60q-4 -3 -6.5 0t-2.5 0l4 -4
q-3 -10 -12.5 -13t-12.5 -13q-10 -3 -17.5 -15.5t-17.5 -18.5q0 -4 -2 -9t-2 -8q0 -4 2 -2l2 2q-3 5 1 7q2 1 4 1q0 -3 -4.5 -9t-4.5 -12q-6 6 -7.5 0t-5.5 -9q-1 -3 0 -4.5l2 -3t1 -2.5t-3 -3q-4 0 -4 -4q0 -3 2.5 -6t6.5 -3h-5v-8q-6 -3 -5 -8.5t1 -8.5q3 -4 1.5 -9.5
t-1.5 -12.5q-3 7 -6.5 3.5t-6.5 -3.5q-6 4 -10 5.5t-7 7.5q-7 -3 -15 -2t-15 -2q0 -3 2.5 -4t6.5 -5q-7 -3 -13.5 0.5t-12.5 -0.5q-3 5 -6 4.5t-5 -2t-5 -2t-6 4.5q-6 -7 -10.5 -3.5t-10.5 3.5q-7 3 -1.5 8t5.5 9q0 13 -1.5 23.5t1.5 23.5q-1 8 1 16t6 16.5t7 17.5t3 18
q11 21 26 38.5t31 33.5t32.5 32t30.5 34q10 13 12.5 32t-7.5 32h-17v4q8 0 12 4q-3 4 -6 7l-6 6q-4 -6 -9.5 -5t-12.5 1l-4 4q3 4 6 2.5t7 2.5q-7 6 -18 7.5t-21 4.5v-4l4 -4q-3 -3 -8.5 -3.5t-12.5 -0.5q0 6 -4.5 4t-4.5 4q-3 -3 -6.5 -2t-10.5 -2l4 -9q-6 -3 -12.5 -5.5
t-12.5 -2.5q-4 0 -7 -3l-6 -6q4 0 4 -4q-3 0 -4 -2.5t-4 -6.5l-5 5q-3 0 -2 -2.5t-2 -2.5q0 -3 -2 -6t-2 -7q-4 -6 -2 -10t2 -11q-26 -3 -56.5 -2t-59.5 -2q0 13 4 25t0 22q4 6 1.5 14t7.5 12q0 9 3 17.5t10 12.5q0 10 7 14.5t10 10.5v-4l21 22h-4q0 3 5 6.5t8 -2.5q3 0 4 2
t4 2l-8 4l8 5l-4 -5q3 -3 8.5 1.5t8.5 7.5q-3 7 3.5 6.5t9.5 6.5q10 0 14.5 2.5t11.5 5.5q5 -1 9 0t7.5 2t6.5 1q4 0 7 -3q3 0 1.5 0.5t-1.5 4.5q16 3 29.5 2.5t26.5 -7.5q6 4 14 2.5t11 2.5q7 0 13.5 -0.5t12.5 -4.5q0 -2 1 -4q2 -4 3 -4q3 2 5.5 0.5t5 -2.5t3.5 -1
q2 0 4 3q29 -3 47 -21.5t34 -38.5q3 -7 11 -13.5t2 -16.5q3 0 3.5 -3t0.5 -6h-4q0 2 -2 4q-1 1 -2 0q-5 0 -5 -8q2 -3 3 -3q2 0 4 1t4.5 2.5t5.5 -0.5q0 -10 4.5 -17.5t4.5 -16.5zM84 581v5v-5zM209 187h-5l5 -4v4zM316 268v-4h4v4h-4zM170 508q4 0 4 -4zM367 324l5 4v-8z
M406 363q0 1 1 2q2 2 3 2l-4 -4v0z" />
    <glyph glyph-name="Thorn" unicode="&#xde;" horiz-adv-x="485" 
d="M242 515h-19v10q4 0 8 -2.5t11 -2.5v-5zM432 393q-4 -4 0.5 -5t4.5 -4q0 -33 -0.5 -63t-4.5 -59q-7 -4 -7 -12t-7 -8q0 -7 -7 -14t-3 -15q-8 -4 -15 -12t-14 -12q0 -4 -2.5 -4.5t-4.5 -0.5t-3.5 -0.5t0.5 -4.5q-11 -4 -19.5 -10t-19.5 -9q-8 -8 -20.5 -9.5t-23.5 -5.5
q-11 0 -25 -2.5t-28 -2.5v-5h-54l-5 -131l-10 -5l-73 5q-7 -4 -17.5 -2.5t-21.5 -2.5q-3 8 -2 14.5t-2 14.5q-4 4 -0.5 5t0.5 5q3 8 0 19t4 15q-3 4 -3.5 12t-0.5 12q0 -4 0.5 -2t3.5 2q-3 4 -3 13t3 17q-7 3 -3.5 9t3.5 10q-3 4 -3.5 10t-0.5 9q0 4 -1.5 7t5.5 3
q-7 4 -4 7.5t0 7.5q0 14 0.5 28t3.5 25q-3 4 -3.5 7.5t-0.5 7.5q5 0 2 3l-2 2q3 8 1.5 12t-1.5 12q-4 4 -2.5 8t-2.5 12q7 0 4 5t1 9v59q0 7 -6 11t1 8q3 0 3 2q0 3 -0.5 5.5t0.5 5t6 2.5q-3 11 -3.5 24.5t-0.5 24.5q3 3 -0.5 9t0.5 10v19h4q-3 4 -5.5 7.5t1.5 7.5
q-4 11 -2 24.5t2 24.5q2 2 0.5 3.5t-3 3.5t-1.5 3q0 2 4 4q0 8 1 17.5t-6 16.5l5 39q3 0 4 -1.5t5 1.5q0 2 -2 4q-1 1 -3 1v5q15 0 29 0.5t25 4.5q11 -4 30 -4.5t33 -0.5l5 -5v-141l10 -5h78q11 -8 24.5 -5.5t24.5 10.5l4 -5q0 -4 -1.5 -7t1.5 -3q4 0 9.5 -0.5t5.5 -3.5
q4 3 5 4l5 5q11 -4 16 -9.5t13 -9.5q0 -4 -1.5 -7.5t6.5 -7.5q4 0 6.5 -3t5.5 -6t5.5 -5t6.5 0q6 -4 6 -7t-0.5 -5.5t1 -5.5t8.5 -7q0 -4 2.5 -6t2.5 -13q4 -4 7 -8t7 -12zM160 656q-8 0 -18 -2t-21 2l39 -5v5zM315 301q-3 8 -1.5 18t1.5 21q-7 4 -4.5 9t-4.5 5q-4 4 -2 5
t2 5q-11 4 -17 12t-17 8q-2 2 -4.5 2.5t-4.5 1.5q-3 1 -6 0q-9 -1 -16 -1t-13 0.5t-13 0t-16 -3.5q0 -4 -6 -8.5t-14 3.5q-4 -26 -2 -51.5t2 -51.5v-4h44q4 0 7 -4.5t3 -0.5q0 7 5.5 6t13.5 -1q4 0 2 -3t-2 -7q8 4 15 3t14 7q8 0 9 5.5t1 13.5q2 6 6 6.5t8 0t7 -0.5t3 4z
" />
    <glyph glyph-name="threequarters" unicode="&#xbe;" 
d="M594 115q1 7 -1.5 9t-6.5 2q-3 0 -7.5 -1t-7.5 0q-6 6 -7 13.5t-1 15.5q2 8 3 13.5t-1 15.5q-4 4 -3 7.5t2.5 7t2 7t-3.5 7.5q0 23 1 49t1 50q-4 5 0 14t-2 14h-60l-10 -10q-34 -51 -69 -100.5t-70 -100.5l3 -57h15q6 -6 13.5 -7t13.5 1v3q4 0 10 1.5t10 -4.5q4 0 9 -1.5
t10 4.5q2 0 5 1t5 -4q2 2 6 0.5t4 2.5h39q6 -14 6 -32v-33l2 -5q5 -2 8 -1t3 3h44q0 14 3.5 25t-0.5 22q2 2 5 4t3 6q-3 3 -8 3q0 6 3 7.5t7 1.5q5 0 9.5 -1t8.5 0v8q5 8 4 18.5t-1 20.5zM500 232q1 -1 1 -3q0 -3 -1 -4l-7 -5q-3 2 0 6t7 6zM500 130l-57 -2q-2 2 -5.5 3
t-5.5 -1h-2q-2 2 0.5 5.5t4.5 5.5q5 -3 7.5 -0.5t4 6t4 6t7.5 -0.5q6 8 12 17t4 19q-2 -2 -4 -6.5t-6 -9.5q-2 -2 -4.5 -5t-6.5 -3q4 8 8 14.5t8 12.5q4 3 5 2l3 -2l20 26q5 2 4.5 -3.5t1.5 -9.5zM563 60l2 -3h-2v3zM597 113q1 7 -1.5 9t-6.5 2q-3 0 -7.5 -1t-7.5 0
q-6 6 -7 13.5t-1 15.5q2 8 3 13.5t-1 15.5q-4 4 -3 7.5t2.5 7t2 7t-3.5 7.5q0 23 1 49t1 50q-4 5 0 14t-2 14h-60l-10 -10q-34 -51 -69 -100.5t-70 -100.5l3 -57h15q6 -6 13.5 -7t13.5 1v3q4 0 10 1.5t10 -4.5q4 0 9 -1.5t10 4.5q2 0 5 1t5 -4q2 2 6 0.5t4 2.5h39
q6 -14 6 -32v-33l2 -5q5 -2 8 -1t3 3h44q0 14 3.5 25t-0.5 22q2 2 5 4t3 6q-3 3 -8 3q0 6 3 7.5t7 1.5q5 0 9.5 -1t8.5 0v8q5 8 4 18.5t-1 20.5zM503 230q1 -1 1 -3q0 -3 -1 -4l-7 -5q-3 2 0 6t7 6zM503 128l-57 -2q-2 2 -5.5 3t-5.5 -1h-2q-2 2 0.5 5.5t4.5 5.5
q5 -3 7.5 -0.5t4 6t4 6t7.5 -0.5q6 8 12 17t4 19q-2 -2 -4 -6.5t-6 -9.5q-2 -2 -4.5 -5t-6.5 -3q4 8 8 14.5t8 12.5q4 3 5 2l3 -2l20 26q5 2 4.5 -3.5t1.5 -9.5zM566 58l2 -3h-2v3zM468 693h17q-4 -19 -11 -35.5t-9 -31.5q2 -7 7 -9t-4 -9q-8 3 -11.5 1t-5 -7t-2 -11.5
t-2.5 -11.5q-16 -42 -33.5 -85.5t-34.5 -88.5q0 -8 4 -8h8q3 -4 1 -7.5t-5 -5.5q-1 -2 -2 -1l-2.5 2.5t-3 2t-4.5 -1.5q-14 -18 -19.5 -38t-15.5 -40q-6 -20 -14.5 -39.5t-14.5 -41.5q2 -3 5 -3.5t6 -1.5t3.5 -3.5t-2.5 -8.5h-4q0 3 -2.5 6t-5.5 3q-26 -49 -41.5 -99
t-38.5 -102q-9 -6 -23.5 -3.5t-27.5 0.5q-4 -4 -8.5 -1.5t-9.5 4.5q-2 3 -2 10q0 8 -6 8q-3 3 -2 4t2 0h5v-4q10 6 12.5 15t8.5 19q0 9 5 15.5t0 14.5q9 9 13.5 21t10.5 25q-9 9 -4 18.5t8 20.5l6 -4l3 7q-7 0 -7.5 5t4.5 8q5 7 12 14t7 17q-4 5 -2 8t6 6.5t8 7.5t2 10
q-12 9 -21 9q0 3 1 10t6 7q4 0 7.5 -2.5t6.5 -4t6.5 -0.5t6.5 7q4 20 11 36.5t11 35.5q9 13 14.5 28t9.5 32q16 38 30 78.5t28 78.5q-9 4 -9.5 8t6.5 14q2 -7 8 -3l9 6q3 20 11 37t10 37q-5 0 -5.5 2t0.5 4.5t3 5t2 3.5q6 6 13.5 6.5t15 -1t15.5 -2.5t17 2zM303 435h-4
q0 2 2.5 3t4.5 5q4 -4 1.5 -6t-4.5 -2zM231 252q0 -6 -5 -7.5t-7 -5.5q-5 4 -2 9t5 8q3 0 4 -0.5t5 -3.5zM168 116h-6l6 9v-9zM154 -11q4 0 6.5 1t7.5 -1q0 -3 -3 -4q-2 -1 -3 0q-3 3 -7.5 2.5l-9 -1t-9 0t-7.5 5.5l17 18q0 -5 2 -12t6 -9zM462 687h17q-4 -19 -11 -35.5
t-9 -31.5q2 -7 7 -9t-4 -9q-8 3 -11.5 1t-5 -7t-2 -11.5t-2.5 -11.5q-16 -42 -33.5 -85.5t-34.5 -88.5q0 -8 4 -8h8q3 -4 1 -7.5t-5 -5.5q-1 -2 -2 -1l-2.5 2.5t-3 2t-4.5 -1.5q-14 -18 -19.5 -38t-15.5 -40q-6 -20 -14.5 -39.5t-14.5 -41.5q2 -3 5 -3.5t6 -1.5t3.5 -3.5
t-2.5 -8.5h-4q0 3 -2.5 6t-5.5 3q-26 -49 -41.5 -99t-38.5 -102q-9 -6 -23.5 -3.5t-27.5 0.5q-4 -4 -8.5 -1.5t-9.5 4.5q-2 3 -2 10q0 8 -6 8q-3 3 -2 4t2 0h5v-4q10 6 12.5 15t8.5 19q0 9 5 15.5t0 14.5q9 9 13.5 21t10.5 25q-9 9 -4 18.5t8 20.5l6 -4l3 7q-7 0 -7.5 5
t4.5 8q5 7 12 14t7 17q-4 5 -2 8t6 6.5t8 7.5t2 10q-12 9 -21 9q0 3 1 10t6 7q4 0 7.5 -2.5t6.5 -4t6.5 -0.5t6.5 7q4 20 11 36.5t11 35.5q9 13 14.5 28t9.5 32q16 38 30 78.5t28 78.5q-9 4 -9.5 8t6.5 14q2 -7 8 -3l9 6q3 20 11 37t10 37q-5 0 -5.5 2t0.5 4.5t3 5t2 3.5
q6 6 13.5 6.5t15 -1t15.5 -2.5t17 2zM112 678q-2 0 -2 -2q-2 0 -1 -1t1 -2q3 -1 5 1l2 2q10 -2 19 -5.5t17 -10.5q-1 3 -4 0q-1 -1 -1 -3q-3 -2 -0.5 -3.5t2.5 -3.5q5 0 5 2v3q16 -13 23 -28q-5 0 -5 -2q-2 -5 -1 -7t3 -4q2 0 4 2l1 1q0 2 1.5 -0.5t1.5 -4.5
q-2 -2 -3.5 -2.5t-1.5 -2.5q5 1 6.5 -1t1.5 -5t-0.5 -6.5t-0.5 -5.5q-5 0 -7 -2q0 -7 0.5 -9.5t4.5 -4.5q0 -9 -6.5 -13t-6.5 -12q-5 -12 -14.5 -15t-16.5 -11q8 -4 14.5 -5t11.5 -5l10 -11l-2 -2q14 -17 20 -40t-2 -44q2 -4 1.5 -6t1.5 -4l5 3q0 -2 -1.5 -6.5t-3.5 -6.5
q0 2 0.5 3.5t-3.5 3.5q-5 -4 -7 -10t-6 -10l-10 -16q5 0 2 -2.5t-5 -4.5q-25 -20 -55 -23.5t-62 0.5q-28 5 -50 28.5t-27 50.5q0 5 1 13t-1 13h36l2 5q2 -4 6.5 -4.5l9 -1t7.5 -2.5t1 -10q3 -11 13 -21.5t21 -14.5q20 -6 36.5 1.5t26.5 21.5q4 12 5 25.5t-8 24.5
q-26 29 -67 29v48q4 2 10 4t11 2q11 0 21 8.5t15 19.5q4 5 0.5 11.5t-3.5 11.5q-6 4 -9 8.5t-9 6.5q-9 2 -20 2.5t-16 -7.5q-5 -4 -10.5 -9.5t-7.5 -12.5l-59 2q2 11 5 23t11 23q9 13 22 23.5t27 12.5q2 4 4 3.5t3.5 -1t3.5 -1t3 3.5q9 -2 19 -1t20 1q5 0 3 2l-6 5
q5 0 7 -1.5t7 -3.5zM118 676q-2 0 -2 -2q-1 0 -1 -1t1 -2q3 -1 5 1l2 2q10 -2 19 -5.5t17 -10.5q-1 3 -4 0q-1 -1 -1 -3q-2 -2 0 -3.5t2 -3.5q5 0 5 2v3q16 -13 23 -28q-5 0 -5 -3q-2 -4 -1 -6t3 -4q3 0 5 2l1 1q0 2 1.5 -0.5t1.5 -4.5q-2 -2 -4 -2.5t-2 -2.5q5 1 7 -1t2 -5
t-0.5 -6.5t-0.5 -5.5q-5 0 -8 -2q0 -7 0.5 -9.5t5.5 -4.5q0 -9 -7 -13t-7 -12q-5 -12 -14.5 -15t-16.5 -11q8 -4 14.5 -5t11.5 -5l10 -11l-2 -2q14 -17 20 -40t-2 -44q2 -4 1.5 -6t1.5 -4l5 3q0 -2 -1.5 -6.5t-3.5 -6.5q0 2 0.5 3.5t-3.5 3.5q-4 -4 -6 -10t-7 -10l-10 -16
q5 0 2 -2.5t-5 -4.5q-25 -20 -55 -23.5t-62 0.5q-28 5 -50 28.5t-27 50.5q0 5 1 13t-1 13h36l2 5q2 -4 6.5 -4.5l9 -1t7.5 -3t1 -10.5q3 -11 13.5 -21t21.5 -14q19 -6 35.5 1.5t26.5 21.5q4 12 5 25.5t-8 24.5q-26 29 -67 29v48q5 2 10.5 4t10.5 2q11 0 21 8.5t15 19.5
q4 5 0.5 11.5t-3.5 11.5q-5 4 -8 8.5t-10 6.5q-9 2 -19.5 2.5t-16.5 -7.5q-5 -4 -10.5 -9.5t-7.5 -12.5l-59 2q3 11 5.5 23t10.5 23q9 13 22 23.5t27 12.5q2 4 4 3.5t3.5 -1t3.5 -1t3 3.5q9 -2 19 -1t20 1q6 0 4 2l-7 5q5 0 7.5 -1.5t6.5 -3.5z" />
    <glyph glyph-name="questiondown" unicode="&#xbf;" 
d="M182 397q-4 3 1 6t-1 6q6 0 6 6q0 7 6 7q0 -4 5 -4q2 0 4 2q1 1 0 2q0 5 -4 9v4q0 7 1.5 8.5t-1.5 4.5q-1 0 -2 -1q-3 -3 -3 1q0 7 7.5 13t14.5 13h4q-3 0 -5.5 -3t-2.5 -6l4 -4q0 3 2 4t2 4q7 0 4.5 -4t4.5 -4h-5l-4 4v-8h9l4 4q7 -3 11 1t10 7h-8q-3 7 3 6.5t10 2.5
q8 0 8 -4q-3 -4 -1.5 -5t1.5 -4q10 -3 19 -6t16 -7q3 3 1.5 4.5t-4.5 3t-5 3.5t-1 6q-3 4 -10.5 3t-10.5 6q33 -6 51 -30q0 -5 -8 -13q2 -5 5 -7t6.5 -4t5.5 -5t0 -10q5 -1 5.5 -4.5t0 -7.5t-1.5 -8.5t0 -9.5q-7 0 -6 -5t-3 -12q-6 -19 -23.5 -29t-40.5 -14q-23 -3 -41.5 8
t-31.5 31q-3 7 -4 14.5t-4 11.5q6 6 0 13zM310 444h5h-5zM327 439h-4v5zM190 435h-4v4zM194 427h-4h4zM53 -54q-3 4 -3.5 7t-0.5 6l4 5v55q3 0 3.5 3t0.5 6v4q7 0 8.5 5t4.5 8q14 34 47 60q4 3 6.5 0t2.5 0l-4 4q3 10 12.5 13t12.5 13q10 3 17.5 15.5t17.5 18.5q0 4 2 9t2 8
q0 4 -2 2l-2 -2q3 -5 -1 -7q-2 -1 -4 -1q0 3 4.5 9t4.5 12q6 -6 7.5 0t5.5 9q2 3 0.5 4.5t-2.5 3t-1 2.5t3 3q4 0 4 4q0 3 -2.5 6t-6.5 3h5v8q6 3 5 8.5t-1 8.5q-3 4 -1.5 9.5t1.5 12.5q3 -7 6.5 -3.5t6.5 3.5q6 -4 10 -5.5t7 -7.5q7 3 15 2t15 2q0 3 -2.5 4t-6.5 5
q7 3 13.5 -0.5t12.5 0.5q3 -5 6 -4.5t5 2t5 2t6 -4.5q6 7 10.5 3.5t10.5 -3.5q7 -3 1.5 -8t-5.5 -9q0 -13 1.5 -23.5t-1.5 -23.5q2 -8 -0.5 -16t-6.5 -16.5t-7 -17.5t-3 -18q-11 -21 -26 -38.5t-31 -33.5t-32.5 -32t-30.5 -34q-10 -13 -12.5 -32t7.5 -32h17v-4q-3 0 -6 -0.5
t-6 -3.5q3 -4 6 -7l6 -6q4 6 9.5 5t12.5 -1l4 -4q-3 -4 -6 -2.5t-7 -2.5q7 -6 18 -7.5t21 -4.5v4l-4 4q3 3 8.5 3.5t12.5 0.5q0 -6 4.5 -4t4.5 -4q3 3 6.5 2t10.5 2l-4 9q6 3 12.5 5.5t12.5 2.5q4 0 7 3l6 6q-4 0 -4 4q3 0 4 2.5t4 6.5l5 -5q3 0 2 2.5t2 2.5q0 3 2 6t2 7
q4 6 2 10t-2 11q26 3 56.5 2t59.5 2q0 -13 -4 -25t0 -22q-4 -6 -1.5 -14t-7.5 -12q0 -9 -3 -17.5t-10 -12.5q0 -10 -7 -14.5t-10 -10.5v4l-21 -22h4q0 -3 -5 -6.5t-8 2.5q-3 0 -4 -2t-4 -2l8 -4l-8 -5l4 5q-3 3 -8.5 -1.5t-8.5 -7.5q3 -7 -3.5 -6.5t-9.5 -6.5
q-10 0 -14.5 -2.5t-11.5 -5.5q-5 1 -9 0t-7.5 -2t-7.5 -1q-3 0 -6 3q-3 0 -1.5 -0.5t1.5 -4.5q-16 -3 -29.5 -2.5t-26.5 7.5q-6 -4 -14 -2.5t-11 -2.5q-7 0 -13.5 0.5t-12.5 4.5q1 2 0 4q-2 4 -4 4q-3 -2 -5.5 -0.5t-5 2.5t-4.5 1q-1 0 -3 -3q-29 3 -47 21.5t-34 38.5
q-3 7 -11 13.5t-2 16.5q-3 0 -3.5 3t-0.5 6h4q0 -2 2 -4q1 -1 2 0q5 0 5 8q-2 3 -4 3q-1 0 -3 -1t-4.5 -2.5t-5.5 0.5q0 10 -4.5 17.5t-4.5 16.5zM422 -122v-5v5zM297 272h5l-5 4v-4zM190 191v4h-4v-4h4zM336 -49q-4 0 -4 4zM139 135l-5 -4v8zM100 96q1 -1 0 -2q-2 -2 -4 -2
l4 4v0z" />
    </font>
</defs>
</svg>
