<?xml version="1.0" standalone="no"?>
<!DOCTYPE svg PUBLIC "-//W3C//DTD SVG 1.1//EN" "http://www.w3.org/Graphics/SVG/1.1/DTD/svg11.dtd" >
<svg>
<metadata>
Created by FontForge 20110222 at Thu May 26 10:09:05 2011
 By www-data
Neue Goth (c)  Juan Casco: metanorocker14@hotmail.com
</metadata>
<defs>
<font id="PorSiempreGtica" horiz-adv-x="468" >
  <font-face 
    font-family="Por Siempre Go'tica"
    font-weight="600"
    font-stretch="normal"
    units-per-em="1669"
    panose-1="3 4 9 2 3 7 2 2 4 2"
    ascent="1335"
    descent="-334"
    x-height="822"
    cap-height="1086"
    bbox="-369 -530 1581 1702"
    underline-thickness="20"
    underline-position="-123"
    unicode-range="U+0020-20AC"
  />
    <missing-glyph />
    <glyph glyph-name="space" unicode=" " horiz-adv-x="497" 
 />
    <glyph glyph-name="exclam" unicode="!" 
d="M112 1186l140 168l123 -173q-117 -303 -105 -862l-52 -14q-20 260 -51.5 411.5t-54.5 469.5zM234 0l-124 124l124 125l125 -125z" />
    <glyph glyph-name="quotedbl" unicode="&#x22;" horiz-adv-x="849" 
d="M98 1116l145 152l144 -143q-54 -251 -265 -359l-24 37q65 56 79 80q22 39 22 78q0 33 -20 67.5t-81 87.5zM458 1107l145 152l144 -143q-54 -251 -265 -359l-24 37q65 56 79 80q22 39 22 78q0 33 -20 67.5t-81 87.5z" />
    <glyph glyph-name="numbersign" unicode="#" horiz-adv-x="966" 
d="M315 421h264l64 264h-267zM151 -3h-41l81 349h-108v1h-42v64h164l60 262h-236l12 64h241l79 349h73v-1h42l-80 -348h254l85 349h72v-1h42l-83 -348h171l-23 -64h-161l-61 -262h181v-1h41v-64h-237l-82 -350h-71v1h-42l80 349h-255l-84 -350h-72v1z" />
    <glyph glyph-name="dollar" unicode="$" horiz-adv-x="854" 
d="M166 887q7 13 17 25l9 10l10 10l114 101q25 21 66 45l67 36q12 -34 29 -68l63 -113q17 -30 27 -56q55 34 88 57q41 28 76 59l-113 -103q-35 -31 -76 -59q-32 -23 -88 -56q-10 26 -27 57q-6 12 -15 28l-16 27q-21 35 -32 58q-17 34 -28 66q-42 -19 -78 -41zM227 960
q0 -41 3 -78q2 -48 9 -88q17 -103 57 -139q39 -34 108 -56q27 -8 63 -16l101 -20q18 -4 33 -7q36 -8 64 -17q68 -22 107 -56q37 -33 37 -86q1 -45 -25 -102q-21 -48 -56 -95q-29 -40 -54 -62l-144 -126l-84 -64q-7 67 -56 111q-102 88 -235 33q-31 -60 -14 -120l-114 -101
q-30 101 57 178l114 101q70 61 160 62q85 1 146 -52q48 -45 57 -109q12 11 37 31q27 33 49 70q25 43 37 82q31 98 -25 147q-39 35 -107 57q-28 9 -64 17l-134 27q-37 8 -64 16q-69 22 -108 57q-41 36 -58 139q-7 40 -10 88q-2 36 -2 77zM353.436 1264.58h79.917v-1507.18
h-79.917v1507.18z" />
    <glyph glyph-name="percent" unicode="%" horiz-adv-x="1069" 
d="M159 -15l571 1156h93l-576 -1161zM320.987 566.595l2.39941 311.388q0.600586 6 0.600586 10.1992q1.2002 23.3994 -7.2002 35.999q-2.39941 4.7998 -7.19922 9.59961q-8.40039 8.39941 -25.1992 20.3994l-82.7969 56.3975l-82.7969 -64.1973l-0.599609 -248.99
q-1.2002 -10.1992 -1.7998 -17.3994q-2.39941 -41.3984 5.39941 -56.3975q7.2002 -13.1992 18.5996 -24.5986q13.7998 -13.2002 47.3984 -34.7988q0.599609 0 3.59961 -1.2002l20.3994 -13.7998q13.1992 -8.39941 20.3984 -14.999q7.2002 -7.2002 19.1992 -18.5996
q49.7979 34.1992 61.7979 40.1982q3.59961 1.80078 7.7998 10.7998zM320.987 546.195l-17.999 -17.999q-26.999 -25.1982 -64.1973 -47.3975q-14.4004 -8.40039 -36.5986 -20.3994l-40.7988 -20.999l-10.7998 14.3994q-7.19922 7.19922 -19.1992 15.5986l-25.1982 15.5996
q-33.5986 21.5996 -48.5986 35.3984q-13.7988 13.7998 -19.1992 24.5996q-7.7998 14.999 -4.7998 56.3975q0.600586 7.2002 1.2002 16.7998l3 32.3984l0.599609 13.7988l-0.599609 236.391q174.593 140.395 193.192 155.394l42.5977 41.3984q4.2002 -3 10.7998 -7.7998
l29.999 -19.1992l50.998 -35.998q16.7988 -12 25.7988 -20.999l8.99902 -10.7998q8.40039 -12.5996 7.2002 -35.999q-9.59961 -278.389 -2.40039 -352.785zM861.987 137.595l2.39941 311.388q0.600586 6 0.600586 10.1992q1.2002 23.3994 -7.2002 35.999
q-2.39941 4.7998 -7.19922 9.59961q-8.40039 8.39941 -25.1992 20.3994l-82.7969 56.3975l-82.7969 -64.1973l-0.599609 -248.99q-1.2002 -10.1992 -1.7998 -17.3994q-2.39941 -41.3984 5.39941 -56.3975q7.2002 -13.1992 18.5996 -24.5986
q13.7998 -13.2002 47.3984 -34.7988q0.599609 0 3.59961 -1.2002l20.3994 -13.7998q13.1992 -8.39941 20.3984 -14.999q7.2002 -7.2002 19.1992 -18.5996q49.7979 34.1992 61.7979 40.1982q3.59961 1.80078 7.7998 10.7998zM861.987 117.195l-17.999 -17.999
q-26.999 -25.1982 -64.1973 -47.3975q-14.4004 -8.40039 -36.5986 -20.3994l-40.7988 -20.999l-10.7998 14.3994q-7.19922 7.19922 -19.1992 15.5986l-25.1982 15.5996q-33.5986 21.5996 -48.5986 35.3984q-13.7988 13.7998 -19.1992 24.5996
q-7.7998 14.999 -4.7998 56.3975q0.600586 7.2002 1.2002 16.7998l3 32.3984l0.599609 13.7988l-0.599609 236.391q174.593 140.395 193.192 155.394l42.5977 41.3984q4.2002 -3 10.7998 -7.7998l29.999 -19.1992l50.998 -35.998q16.7988 -12 25.7988 -20.999
l8.99902 -10.7998q8.40039 -12.5996 7.2002 -35.999q-9.59961 -278.389 -2.40039 -352.785z" />
    <glyph glyph-name="ampersand" unicode="&#x26;" horiz-adv-x="1083" 
d="M993 83q-102 -90 -232 -81q-122 8 -222 98q-49 44 -79 105q-10 23 -25 59l-70 171q-27 66 -43 110q-22 61 -33 114q-12 61 -12 118l-1 50q0 36 2 60q5 74 32 98l119 106q6 7 20 12q33 8 83 -11q45 -17 74 -45q82 -72 68 -200q-14 -121 -96 -194l-118 -107
q-45 -38 -110 -82q-13 -7 -29 -17l-83 -54q-51 -69 -65 -139q-19 -85 30 -127q44 -40 154 -51q109 -11 170 17q3 1 5 5l6 5q35 31 61 76q16 29 37 82l15 40l18 39q20 42 48 67l135 118l2 -1l-31 -27q-23 -25 -41 -65l-31 -75q-19 -48 -36 -77q-23 -42 -56 -72l-33 -33
l-10 -10l-40 -41l-118 -107q-16 -16 -42 -29q-60 -31 -172 -20q-114 11 -160 54q-59 51 -21 161q32 94 93 148l119 107q43 39 110 83l112 72q57 81 59 180q2 106 -66 167q-37 33 -93 50q-2 -24 -1 -58l1 -50q0 -56 13 -117q12 -53 33 -114q16 -45 44 -110l93 -230
q29 -62 77 -104q81 -73 182 -93q106 -19 199 28l8 14l9 -17z" />
    <glyph glyph-name="quotesingle" unicode="'" horiz-adv-x="262" 
d="M15 1121l139 74l102 -153l-162 -191l-28 28l46 125z" />
    <glyph glyph-name="parenleft" unicode="(" horiz-adv-x="555" 
d="M528 -195v-30q-123 62 -206 145q-117 118 -180.5 278.5t-63.5 333.5q0 253 124.5 461t325.5 298v-34q-100 -56 -164.5 -152t-96.5 -243.5t-32 -308.5q0 -174 27 -317q21 -112 51.5 -180t81.5 -131t133 -120z" />
    <glyph glyph-name="parenright" unicode=")" horiz-adv-x="555" 
d="M37 1257v34q124 -61 206 -144q117 -119 180.5 -279.5t63.5 -333.5q0 -253 -124.5 -461t-325.5 -298v30q100 56 165 152t96.5 244t31.5 308q0 174 -27 317q-21 113 -51.5 180.5t-81 130.5t-133.5 120z" />
    <glyph glyph-name="asterisk" unicode="*" horiz-adv-x="717" 
d="M380 938q1 -2 3 -4l12 12q36 0 66 4l27 5q5 0 14 2l21 4h7q8 1 14 4q17 2 27 6l24 27q-2 -11 -7 -17l-85 -87q-10 -10 -32 -16h-6q2 -2 4 -3q13 -13 7 -43q-6 -26 -20 -39l-81 -81q13 16 17 38q4 25 -8 37q-7 8 -18 14l-39 17q-12 6 -19 13q-9 10 -14 23l-3 -1l-16 -17
h-8q-2 -32 14 -49q4 -6 19 -8l-86 -89q-12 2 -19 11q-17 17 -14 50q3 34 21 54l36 36q-3 0 -5 1l-37 13q-44 14 -84 4l87 88q38 11 82 -3l37 -13q10 -2 18 -4q0 13 -4 28q-8 30 -25 53l85 88q21 -28 28 -63q9 -43 -13 -65l-22 -23q2 2 4 3z" />
    <glyph glyph-name="plus" unicode="+" horiz-adv-x="732" 
d="M9 331q10 23 25 36l100 102q26 27 71 39q39 11 93 13q40 1 92 -3q16 0 40 -4l34 -2q139 -12 253 61l-106 -107q-107 -71 -247 -58l-45 4q-10 1 -19 2q-43 4 -77 4q-100 1 -155 -27zM352 808v-17l-3 -48q0 -37 3 -68q4 -38 22 -84l25 -58q6 -11 8 -19q19 -43 23 -78
q7 -45 -6 -94q-12 -40 -26 -67q-2 -6 -7 -12l-2 -6l-2 -2l-8 -16q-3 -6 -7 -13l-105 -106l29 53q14 28 24 67q15 49 9 94q-4 35 -23 80l-35 75q-18 45 -22 85q-3 30 -1 68l1 64z" />
    <glyph glyph-name="comma" unicode="," horiz-adv-x="492" 
d="M223 -33q25 41 5 75l-50 -52q-32 2 -61 33q-48 45 4 97l118 119q4 4 19 -4q12 -7 30 -21q35 -27 48 -42q30 -29 17 -67q-10 -29 -45 -65l-119 -119l-60 -51l-2 1z" />
    <glyph glyph-name="hyphen" unicode="-" horiz-adv-x="660" 
d="M504 366q-24 -18 -51 -25q-53 -11 -109 1q-21 4 -49 13l-45 15q-53 17 -88 17q-48 -1 -94 -32l-2 1l143 120q45 30 94 31q34 1 86 -15q8 -3 22 -7l22 -8q14 -5 23 -7l24 -6q56 -12 106 -4l36 31l13 -15z" />
    <glyph glyph-name="hyphen" unicode="&#x2010;" horiz-adv-x="660" 
d="M504 366q-24 -18 -51 -25q-53 -11 -109 1q-21 4 -49 13l-45 15q-53 17 -88 17q-48 -1 -94 -32l-2 1l143 120q45 30 94 31q34 1 86 -15q8 -3 22 -7l22 -8q14 -5 23 -7l24 -6q56 -12 106 -4l36 31l13 -15z" />
    <glyph glyph-name="period" unicode="." horiz-adv-x="534" 
d="M222 244q37 -57 64 -82q30 -30 62 -43l-119 -119q-32 14 -62 44q-16 16 -34 40l-29 41z" />
    <glyph glyph-name="slash" unicode="/" horiz-adv-x="717" 
d="M19 -13l571 1156h93l-576 -1161z" />
    <glyph glyph-name="zero" unicode="0" horiz-adv-x="722" 
d="M525 206l4 519q1 10 1 17q2 39 -12 60q-4 8 -12 16q-14 14 -42 34l-138 94l-138 -107l-1 -415q-2 -17 -3 -29q-4 -69 9 -94q12 -22 31 -41q23 -22 79 -58q1 0 6 -2l34 -23q22 -14 34 -25q12 -12 32 -31q83 57 103 67q6 3 13 18zM525 172l-30 -30q-45 -42 -107 -79
q-24 -14 -61 -34l-68 -35l-18 24q-12 12 -32 26l-42 26q-56 36 -81 59q-23 23 -32 41q-13 25 -8 94q1 12 2 28l5 54l1 23l-1 394q291 234 322 259l71 69q7 -5 18 -13l50 -32l85 -60q28 -20 43 -35l15 -18q14 -21 12 -60q-16 -464 -4 -588z" />
    <glyph glyph-name="one" unicode="1" horiz-adv-x="385" 
d="M64 905q29 40 38 62l146 130q49 -58 61 -161q5 -38 5 -92v-94q0 -77 2 -170l11 -335q3 -93 3 -166l-148 -130q0 74 -2 167l-11 336q-3 93 -3 170l1 86q0 50 -3 85q-8 95 -45 152l-65 -58l-6 8z" />
    <glyph glyph-name="two" unicode="2" horiz-adv-x="756" 
d="M55 742q-21 58 13 92l126 128q89 89 164 115q95 31 167 -42l110 -102q54 -56 71 -96q23 -54 -13 -89l-126 -128q-46 -45 -153 -82l-89 -29q-52 -17 -85 -32q-25 -82 -11 -209q12 -116 47 -192l53 55q63 63 132 95q83 39 120 0q35 -35 58 -101l11 -33l-134 -106l-4 11
q-23 68 -55 101q-52 52 -174 -30l-126 -129q-51 93 -60 248q-9 171 54 234l126 127q45 45 143 78l84 28q52 16 83 30q-7 49 -78 121l-109 100q-94 96 -226 15q-3 -31 19 -75l28 -45l-147 -96q-13 21 -19 38z" />
    <glyph glyph-name="three" unicode="3" horiz-adv-x="771" 
d="M79 828l-16 61q-2 9 -5 17l151 184q27 -2 57 -1q34 0 76 4l159 18l79 7q89 5 153 -3q-44 -55 -110 -125l-100 -103q-62 -64 -103 -121q-49 -70 -78 -139q76 74 164 108q112 43 175 -23q83 -85 91 -277q8 -193 -67 -273l-127 -130q-54 -57 -140 -11q-32 19 -68 49l-65 65
q-49 52 -100 57q-12 -58 -2 -106l-128 -132q-21 132 52 207l126 132q79 79 178 -28l48 -48q23 -22 45 -38q57 -43 104 -46q30 110 11 245q-21 139 -82 202q-64 67 -179 22q-44 -17 -92 -51q-41 -28 -76 -62q34 83 96 163q26 34 59 72q26 29 64 68l101 104l75 85q-43 6 -96 5
q-44 -1 -101 -6l-90 -9q-7 -1 -12 -1q-63 -8 -101 -11q11 -42 17 -63q7 -20 15 -35l-133 -115q-13 33 -25 82z" />
    <glyph glyph-name="four" unicode="4" horiz-adv-x="717" 
d="M503 1102q0 -42 11 -88l51 -159q12 -46 13 -86q1 -41 1 -94l1 -95l145 6l-126 -126h-21q-1 -46 -2 -108l-4 -208l-1 -97l-128 -124l5 326q1 39 2 68q1 78 2 137l-116 -6q-66 -3 -115 -3q-129 0 -210 22q15 41 41 90l34 62q7 13 11 21q28 50 44 87q22 51 35 102l128 126
q-13 -53 -35 -104q-17 -38 -44 -88q-5 -9 -12 -21l-33 -63q-26 -48 -41 -90q61 -15 148 -18q64 -2 165 2l-2 74q-1 40 -13 85l-51 159q-11 45 -11 86z" />
    <glyph glyph-name="five" unicode="5" horiz-adv-x="776" 
d="M32 78l126 127q92 94 188 -4q49 -50 107 -72q66 -27 124 -10q11 36 6 79q-3 32 -18 79l-24 79q-12 45 -12 79q0 9 2 18l12 41q6 28 -26 61q-86 87 -237 55q-57 -11 -127 -41l-114 -54q23 93 41 196q14 76 29 174l195 203l28 2q54 2 125 1l254 -4l-127 -129l-176 3
q-53 2 -90 2q-49 0 -89 -1q-25 -163 -62 -318l112 53q70 30 126 41q150 31 236 -56q35 -34 30 -61l-6 -20q-1 -4 -2 -7l-4 -16q-2 -9 -2 -18q0 -40 18 -99l8 -25q0 -2 2 -6l5 -19q10 -29 14 -49q13 -56 5 -98q-10 -52 -55 -99l-126 -127q-69 -68 -161 -50q-77 16 -145 84
q-66 68 -121 49q-37 -61 -49 -110q0 -2 -1 -3l-42 42q13 17 23 28z" />
    <glyph glyph-name="six" unicode="6" horiz-adv-x="849" 
d="M332 1056q-19 -40 -41 -119l-26 -96q-14 -55 -24 -104q-24 -119 -27 -216l169 189q80 87 138 107q83 30 156 -52q93 -102 84 -275q-10 -166 -103 -269l-137 -151q-59 -66 -167 -81q-116 -16 -178 53q-59 64 -83 161q-20 86 -15 195q6 92 29 204q16 81 46 186l14 48
q8 26 15 44q20 47 48 78l136 151q77 85 151 138q3 2 7 5l-12 -87q-86 -30 -180 -109zM214 517q-6 -212 98 -325q47 -51 127 -54q73 -3 142 32q50 111 42 235q-9 132 -82 211q-62 69 -131 59q-59 -8 -117 -72zM153 416l2 -2l13 11q8 7 13 13l50 46v4z" />
    <glyph glyph-name="seven" unicode="7" horiz-adv-x="930" 
d="M258 -102q15 59 54 155l18 42q12 29 18 44l37 95l78 239l-47 4q-27 3 -46 4q-54 4 -93 3q-103 -2 -173 -35l130 127q56 27 132 33q59 5 143 -3l27 60q18 38 47 80q19 29 55 76l7 9q6 7 8 10l42 56q31 43 51 80q-103 -5 -259 -5l-274 1q-6 -45 -25 -91l-130 -127
q24 53 29 109q3 22 3 53v58l126 124l330 -1q98 0 171 1q89 1 157 4q-20 -38 -51 -82q-12 -17 -28 -39q-6 -8 -14 -18l-8 -10q0 -1 -1 -2q-2 -2 -2 -3l-4 -4q-36 -48 -55 -76q-29 -43 -47 -81q-20 -40 -39 -91q-16 -42 -34 -98q82 -6 128 -6q69 1 119 15l-128 -126
q-69 -20 -160 -14q-16 -54 -37 -112l-73 -180q-39 -97 -55 -155q-13 -48 -16 -93l-127 -119q4 43 16 89z" />
    <glyph glyph-name="eight" unicode="8" horiz-adv-x="859" 
d="M583 627q51 -18 83 -35q42 -22 68 -48q69 -69 43 -186q-21 -102 -93 -174l-115 -115q-82 -84 -228 -77q-144 6 -228 92q-57 55 -73 155q-17 105 35 157l114 115q40 41 109 65q-63 28 -98 65q-56 55 -30 131q17 54 68 107l95 95h-14l114 117q138 0 235 -97q61 -61 64 -133
q4 -80 -68 -151zM433 526q-29 -10 -69 -20q-14 -4 -35 -9l-36 -8q-44 -10 -70 -18q-38 -11 -66 -23q-34 -145 69 -249q68 -71 186 -87q118 -18 209 30q44 73 48 149q4 86 -48 138q-30 30 -83 56zM281 871q-17 -67 33 -116q36 -38 102 -67q27 -12 63 -25l63 -22q31 11 56 25
q56 112 -44 214q-89 87 -216 94q-45 -57 -57 -103zM333 974h5l16 18l-2 2z" />
    <glyph glyph-name="nine" unicode="9" horiz-adv-x="776" 
d="M274 -86l108 224q18 39 30 70q9 22 27 58l71 146q20 43 33 79q33 91 32 157q-1 80 -51 128l-42 42q-61 62 -111 93q-65 41 -138 51q-54 -81 -56 -155q-1 -86 70 -155q60 -59 136 -81q62 -19 166 -19l-126 -126q-103 0 -165 19q-76 23 -137 85q-91 88 -65 202
q22 95 118 189l2 -1l169 169q77 -6 146 -49q48 -30 117 -98l44 -43q50 -49 51 -129q1 -66 -32 -156q-13 -37 -33 -80l-71 -145q-18 -37 -27 -59q-12 -31 -30 -70l-108 -223q-38 -87 -58 -154q-1 -3 -2 -7l-119 -96q19 60 51 134zM219 963l14 -1q31 44 69 82z" />
    <glyph glyph-name="colon" unicode=":" horiz-adv-x="436" 
d="M180 734q12 -12 23 -28l36 -59q10 -15 20 -25q8 -10 26 -18l-118 -119q-17 9 -27 19t-20 25l-35 59q-10 16 -22 28l-18 15l119 118zM189 264q36 -57 63 -82q30 -30 62 -43l-119 -119q-32 14 -61 44q-17 16 -35 40l-29 41z" />
    <glyph glyph-name="semicolon" unicode=";" 
d="M234 30q25 41 5 75l-50 -52q-31 2 -60 33q-48 45 3 97l119 119q4 4 19 -4q12 -7 30 -21q35 -27 48 -42q29 -29 17 -67q-10 -29 -46 -65l-118 -119l-60 -51l-2 1zM236 741q36 -57 63 -82q30 -30 62 -43l-119 -119q-32 14 -61 44q-17 16 -35 40l-29 41z" />
    <glyph glyph-name="less" unicode="&#x3c;" horiz-adv-x="766" 
d="M156 488q76 -24 121 -47q62 -33 107 -86q113 -131 295 -74l-124 -144q-178 -58 -292 74q-44 52 -107 85q-44 24 -122 50zM67 363q0 61 29 95l122 142q37 42 136 48l79 1q45 1 68 5q5 0 16 5l95 110l1 -2q-11 -15 -26 -43t-23 -40l-123 -140q-19 -26 -60 -34
q-17 -3 -43 -4h-49q-69 0 -103 -6z" />
    <glyph glyph-name="equal" unicode="=" horiz-adv-x="982" 
d="M114 653q12 23 31 33l140 88q46 28 144 0l79 -24q42 -15 63 -18q140 -21 239 17l-79 -59q-120 -74 -299 -48q-18 3 -52 14l-63 21q-82 27 -127 23zM87 323q12 23 31 33l140 88q46 28 144 0l79 -24q42 -15 63 -18q140 -21 239 17l-79 -59q-120 -74 -299 -48q-18 3 -52 14
l-63 21q-82 27 -127 23z" />
    <glyph glyph-name="greater" unicode="&#x3e;" horiz-adv-x="849" 
d="M203 262q37 5 93 4h50l50 -2q59 -2 97 2q51 4 88 20q18 42 18 102l133 141q0 -111 -83 -200l-131 -141q-35 -38 -92 -53q-45 -13 -115 -14l-123 4q-73 1 -118 -6zM347 739q45 -10 97 -48q41 -30 83 -75q83 -89 235 -89l-131 -143q-151 0 -234 90q-40 43 -84 75
q-51 37 -97 50z" />
    <glyph glyph-name="question" unicode="?" horiz-adv-x="737" 
d="M87 569q-55 62 -57 176q-3 117 52 174l101 103q23 23 61 37l74 26l51 20q29 10 50 10q47 2 93 -47q21 -20 39 -44q11 -15 29 -44l29 -43q18 -24 38 -45q84 -86 7 -165l-101 -102q-16 -17 -41 -36q-10 -7 -23 -16q-5 -4 -11 -8l-57 -40q-23 -17 -36 -31l-8 -6
q-36 -46 -49 -79q-20 -47 4 -71q10 -10 36 -19l-101 -103q-22 6 -36 20q-31 32 10 100q14 24 36 51l162 167l9 9l36 35q15 16 45 38l56 38q20 55 -40 117q-19 20 -37 44q-7 10 -15 22l-14 21q-18 29 -29 43q-18 24 -37 44q-46 48 -93 46q-21 -1 -50 -11l-76 -29l-48 -15
q-23 -69 -12 -153q12 -85 53 -130zM196 33q4 10 8 13l100 103q20 21 79 -36q27 -30 34 -41l-101 -102q-10 18 -34 39q-19 21 -35 31q-20 13 -33 10z" />
    <glyph glyph-name="at" unicode="@" horiz-adv-x="1669" 
d="M298 962q-72 -85 -107 -175q-21 -55 -15 -139q5 -74 30 -140q7 -20 16 -47l8 -24q2 -4 4 -11l4 -12q19 -59 32 -92q40 -102 99 -161l149 -152q116 -117 221 -167q116 -56 268 -56q237 0 385 140q2 3 5 7l39 38q44 42 67 63q38 31 78 57l-123 -123q-56 -34 -121 -99
q-3 -2 -9 -8l-47 -49q-146 -145 -391 -145q-152 0 -268 57q-106 50 -223 169q-30 29 -73 73l-13 14q-3 3 -5 4q-11 12 -18 19l-41 41q-59 60 -99 162q-13 32 -32 91l-4 12q-2 7 -4 12l-8 23l-16 48q-24 64 -30 140q-6 82 15 138q27 69 75 134q39 53 110 123l45 46l4 -5
q-3 -3 -7 -6zM466 1142q18 17 30 30q111 111 262 121q67 5 144 -10q69 -13 152 -42l66 -24q38 -15 64 -27q72 -33 122 -83l43 -45q63 -60 97 -108q46 -62 65 -132q10 -40 6 -120l-6 -119q0 -68 -6 -127q-7 -68 -23 -126q-36 -135 -116 -216l-119 -118q-88 -89 -197 23
q-86 83 -110 210q-11 60 -7 161l9 185l3 23q3 31 -6 50q-12 24 -34 45l-33 32q-21 21 -62 44q-48 26 -82 29l-3 -6l-122 -122q40 75 84 118l118 119q26 25 95 -5q58 -26 89 -57l33 -33q28 -29 37 -47q9 -19 6 -50l-5 -43l-6 -165q-5 -101 6 -161q24 -125 109 -210
q72 -73 142 -54q44 78 64 185q16 89 16 199q0 19 3 55l2 32q1 18 2 32q4 81 -7 120q-18 69 -64 133q-33 45 -96 107l-42 42q-50 50 -122 84q-27 12 -64 26l-66 24q-164 59 -285 54q-145 -6 -254 -105q-13 -14 -25 -28l-5 2zM818 76q-22 -23 -50 5q-40 41 -106 75l-56 28
q-37 17 -60 30q29 40 40 103q9 51 7 123l-10 126q-7 78 -7 112l121 119q0 -35 7 -113l9 -127q2 -72 -7 -123q-10 -63 -39 -103l113 -56q64 -34 105 -74q28 -27 44 -13l35 36q11 14 20 34l122 122q-18 -40 -62 -84z" />
    <glyph glyph-name="A" unicode="A" horiz-adv-x="1015" 
d="M262 509q78 20 170 5q27 -4 79 -16q54 -13 80 -17l19 -3q12 -3 22 -4q28 -4 49 -5q62 -4 87 13l-113 -111q-21 -15 -80 -10l-49 6l-81 15l-40 9q-52 12 -79 16q-93 15 -173 -5zM1078 194q-4 -33 -26 -54l-106 -106q-35 -36 -94 -36q-58 0 -112 34q-44 42 -47 136
q-1 30 -57 667q-30 54 -81 106q-73 75 -197 20q-10 -33 -6 -66l-109 -108q-8 72 47 130l107 107q54 54 134 63q82 10 129 -39q52 -52 85 -124l80 -664q-1 -80 43 -122q46 -46 128 -28zM2 -46q16 30 32 48l107 104q32 31 76 24q17 -3 40 -12q9 -4 21 -9l21 -10q55 -25 86 -29
q48 -5 87 28l1 -1l-107 -106q-33 -32 -74 -31q-31 1 -77 22l-38 18q-22 10 -37 16q-41 15 -70 7zM606 961l-338 -879l-55 21l338 879z" />
    <glyph glyph-name="B" unicode="B" horiz-adv-x="815" 
d="M138 501q64 51 125 87q79 47 149 69q84 26 155 15q82 -13 144 -75q73 -72 61 -168q-11 -85 -80 -153l-99 -99q-96 -95 -229 -139q-73 -25 -132 -19q-67 5 -110 49l-6 6l100 99l4 -6q69 -71 199 -42q107 24 212 101q43 66 42 135q-1 78 -61 137q-62 62 -143 75
q-71 11 -155 -16q-71 -22 -150 -69q-60 -37 -125 -88l-1 2zM168 845q22 31 48 57l100 99q65 65 147 81q93 18 153 -42q49 -48 39 -146q-10 -94 -64 -147l-98 -98q-14 -14 -34 -23l58 57q37 60 39 137q3 80 -38 121q-49 49 -121 45q-65 -3 -129 -45q-14 -19 -28 -44l-49 -88
q-1 -3 -3 -5l-33 22q7 10 13 19zM271 971l2 1l1 -833q7 -17 18 -33.5t26 -23.5l47 26q-1 -5 2.5 -8t8 -6t6 -6t-2.5 -6l-150 -84q-14 -7 -33 3.5t-47 43.5q-29 32 -66 45l-6 29q32 4 65 36v743l1 1v6q-53 0 -82 22.5t-64 61.5l-105 -62l1 35l83 50l126 78q22 -25 39.5 -44
t36.5 -33.5t41 -22.5t52 -8v-11z" />
    <glyph glyph-name="C" unicode="C" horiz-adv-x="629" 
d="M72 791q7 40 61 97l103 102q52 50 102 68q59 22 93 -13q18 -17 44 -78q14 -31 21 -46q13 -24 27 -38q35 -32 87 -17l-105 -104q-51 -14 -85 20q-14 14 -27 38q-8 15 -21 45q0 1 -1 2l-18 42q-12 22 -23 33q-47 47 -137 -8q-14 -23 -16 -39zM180 893v-546q0 -44 4 -75
q10 -84 55 -120q78 -61 164 -52q38 4 86 22q31 10 101 39l-135 -105q-66 -28 -97 -39q-49 -17 -85 -20q-86 -8 -165 54q-46 36 -58 120q-3 31 -3 75v545z" />
    <glyph glyph-name="D" unicode="D" horiz-adv-x="800" 
d="M-28 -59q-38 70 15 121l107 102q57 54 124 50q58 -4 107 -50q49 -48 58 -105q21 1 49 27q29 28 84 55q17 8 48 22l48 22q0 16 -3 46q-1 1 -1 6l-2 15q-1 12 -1 18l-3 263q0 46 3 83q1 10 2 27l4 31q5 42 5 68q3 81 -26 110q-21 19 -58 45q-43 30 -87 53q-53 27 -96 37
q-51 12 -85 0l-57 -57q-29 -28 -52 -52q-54 -56 -94 -110l-113 -108q43 59 98 117q23 24 52 52l139 142l107 102q30 28 84 22q45 -5 105 -33q49 -24 99 -58q42 -30 65 -52q30 -28 28 -110q-1 -26 -6 -67l-3 -31q-2 -17 -3 -28q-2 -37 -3 -82l3 -263l3 -31q3 -25 4 -36
q3 -46 -13 -61l-107 -102q-23 -23 -62 -44q-23 -12 -74 -35q-51 -22 -75 -35q-39 -22 -63 -45q-27 -25 -51 -27q-7 60 -56 107q-72 66 -152 44q-5 -31 12 -63zM286 949l3 -750l-113 -107l2 755z" />
    <glyph glyph-name="E" unicode="E" horiz-adv-x="693" 
d="M609 1012q-19 -30 -39 -49l-113 -106q-24 -22 -128 31q-91 47 -128 83l-8 7q-1 0 -4 4l-3 3q-4 3 -4 5q-17 -25 -24 -42l-115 -107q32 74 111 147l112 106q9 7 16 6q5 -1 14 -7l18 -19q33 -30 111 -71q89 -49 127 -44zM146 521l-11 17l55 51l23 16q20 14 35 20
q41 18 63 -2q78 -74 165 -74l-113 -106q-85 0 -162 72q-20 19 -55 6zM180 973v-626q0 -44 4 -75q10 -84 55 -120q78 -61 164 -52q38 4 86 22q31 10 101 39l-135 -105q-66 -28 -97 -39q-49 -17 -85 -20q-86 -8 -165 54q-46 36 -58 120q-3 31 -3 75v625z" />
    <glyph glyph-name="F" unicode="F" horiz-adv-x="849" 
d="M374 678q21 13 43 30l20 15l21 15l23 -60q13 -30 29 -46q24 -19 65 -19l-119 -109q-40 0 -65 23q-18 16 -30 45q-5 11 -10 28l-10 29l-92 -66zM-3 776q28 108 126 197l119 107q70 62 141 72q84 13 156 -53q58 -52 95 -79q54 -40 100 -58q115 -44 212 44l-117 -109
q-96 -88 -212 -44q-46 18 -100 58q-37 28 -95 80q-108 98 -236 25q-55 -71 -68 -131zM321 138q7 -17 18 -33.5t26 -23.5l47 26q-1 -5 2.5 -8t8 -6t6 -6t-2.5 -6l-150 -84q-14 -7 -33 3.5t-47 43.5q-29 32 -66 45l-6 29q32 4 65 36v792l131 74z" />
    <glyph glyph-name="G" unicode="G" horiz-adv-x="756" 
d="M110 845l-1 1l52 54l112 101q62 57 138 94l16 -35l14 -39q20 -50 39 -69q105 -95 186 -46l62 56l2 -1q-16 -19 -31 -32l-111 -102q-96 -88 -219 26q-21 19 -39 67l-28 73q-50 -24 -84 -50zM463 531l-81 -74q-37 -35 -77 -54l113 105l17 9l21 28l111 100q5 -11 12 -20
q7 -7 13 -14q10 -8 23 -15q6 -3 13 -6l24 -10l14 -7q13 -7 25 -17q5 -5 5 -14q0 -8 -3 -21l-6 -16q-1 -4 -1 -6q-3 -12 -3 -17v-137q1 -71 12 -122l-111 -101q-12 52 -14 123v138q0 5 4 17q1 2 3 11q2 7 3 11q4 12 4 20q1 10 -5 15q-10 8 -23 16l-51 22q-14 6 -24 15z
M197 929l1 -602q-11 -82 27 -117q26 -23 61 -47q42 -29 83 -48q107 -50 170 -19l14 15l111 101l2 -2q-50 -53 -100 -99l-112 -101q-59 -55 -180 -4q-45 20 -92 52q-40 27 -68 53q-39 35 -34 133q0 16 2 40v544z" />
    <glyph glyph-name="H" unicode="H" horiz-adv-x="869" 
d="M36 441l-1 2l151 130q75 64 175 64q41 0 91 -10q36 -8 92 -25l90 -27q52 -15 90 -20q97 -13 166 29l56 47l1 -2l-14 -13l-141 -122q-67 -57 -163 -51q-38 2 -89 14q-30 7 -92 26l-92 27q-52 14 -92 17q-103 8 -179 -45zM374 971l2 1l1 -833q7 -17 18 -33.5t26 -23.5
l47 26q-1 -5 2.5 -8t8 -6t6 -6t-2.5 -6l-150 -84q-14 -7 -33 3.5t-47 43.5q-29 32 -66 45l-6 29q32 4 65 36v743l1 1v6q-53 0 -82 22.5t-64 61.5l-105 -62l1 35l83 50l126 78q22 -25 39.5 -44t36.5 -33.5t41 -22.5t52 -8v-11zM801 861l1 -717q7 -17 18 -33.5t26 -23.5l47 26
q-1 -5 2.5 -8t8 -6t6 -6t-2.5 -6l-150 -84q-14 -7 -33 3.5t-47 43.5q-29 32 -66 45l-6 29q32 4 65 36v701h131zM670 954q-28 0 -45 14q-17 8 -33 24l-57 -31l-21 23l56 31l135 77q24 -25 43 -44q6 -6 12 -11h-1q12 -11 37 -26l1 1l2 -39v-246l-129 -15v242z" />
    <glyph glyph-name="I" unicode="I" horiz-adv-x="473" 
d="M300 133q7 -17 18 -33.5t26 -23.5l47 26q-1 -5 2.5 -8t8 -6t6 -6t-2.5 -6l-150 -84q-14 -7 -33 3.5t-47 43.5q-29 32 -66 45l-6 29q32 4 65 36v796q-7 17 -18 33.5t-26 23.5l-47 -26q1 5 -2.5 8t-8 6t-6 6t2.5 6l150 84q14 7 33 -3.5t47 -43.5q29 -32 66 -45l6 -29
q-32 -4 -65 -36v-796z" />
    <glyph glyph-name="J" unicode="J" horiz-adv-x="610" 
d="M480 507q-3 -36 25 -61q18 -33 28 -75l-106 -72l-21 50q-10 11 -22 24t-31 33q0 98 1 193q2 84 3 177v71l129 75zM535 350l15 -80q13 -89 -36 -137l-100 -103q-44 -43 -117 -43q-74 1 -121 48l-68 74q-45 45 -78 60q-46 21 -81 -2q-18 -25 -26 -52l-101 -104q16 50 62 96
l146 149q38 39 91 20q37 -14 87 -65l67 -74q70 -71 173 -41q8 38 -7 112l-11 62q-3 15 -4 29l105 74q2 -11 4 -23zM357 947q-26 0 -42 14q-17 8 -32 24l-54 -31l-20 23l53 31l129 77q23 -25 41 -44q5 -6 11 -11h-1q12 -11 35 -26l7 3l11 -33l-15 -8v-101l-123 -44v126z" />
    <glyph glyph-name="K" unicode="K" horiz-adv-x="903" 
d="M717 945q-1 4 -5 8q-44 42 -140 19q-3 -29 7 -67q7 -27 24 -73l25 -71q13 -40 13 -68l-124 -120q0 36 -19 91l-34 95q-18 55 -15 93q3 48 37 82l122 120q37 36 112 45q76 8 113 -28l6 -5zM319 490q27 12 80 51l44 32q24 18 44 29q52 29 93 27q52 -1 97 -46q22 -19 19 -75
l-4 -89q3 -63 23 -141q25 -92 54 -121q42 -41 99 -21q37 14 87 59l1 -2l-118 -117q-46 -44 -87 -58q-57 -20 -101 25q-31 29 -54 119q-21 78 -24 143l2 46l1 4l2 37q2 56 -17 75q-45 46 -96 46q-43 0 -94 -28q-20 -13 -46 -30l-43 -33q-55 -39 -84 -52zM324 976l2 1l1 -833
q7 -17 18 -33.5t26 -23.5l47 26q-1 -5 2.5 -8t8 -6t6 -6t-2.5 -6l-150 -84q-14 -7 -33 3.5t-47 43.5q-29 32 -66 45l-6 29q32 4 65 36v743l1 1v6q-53 0 -82 22.5t-64 61.5l-105 -62l1 35l83 50l126 78q22 -25 39.5 -44t36.5 -33.5t41 -22.5t52 -8v-11z" />
    <glyph glyph-name="L" unicode="L" horiz-adv-x="937" 
d="M701 287q-2 -2 -5 -4l110 96q-30 -26 -21 -61q4 -14 15 -32q6 -10 21 -32q14 -22 21 -32q10 -18 14 -32q9 -36 -21 -62l-115 -99q-64 -56 -149 -60q-62 -2 -159 27q-17 5 -41 13l-40 13q-49 15 -81 23q-93 23 -159 9l116 101q57 12 132 -3q29 -7 67 -18l60 -19l9 -3
l68 -21q38 -10 68 -16q74 -12 132 4q-2 21 -21 51l-26 39q-5 8 -8 13q-40 63 1 99l125 107l1 -2zM368 995l2 1l1 -833q7 -17 18 -33.5t26 -23.5l47 26q-1 -5 2.5 -8t8 -6t6 -6t-2.5 -6l-150 -84q-14 -7 -33 3.5t-47 43.5q-29 32 -66 45l-6 29q32 4 65 36v743l1 1v6
q-53 0 -82 22.5t-64 61.5l-105 -62l1 35l83 50l126 78q22 -25 39.5 -44t36.5 -33.5t41 -22.5t52 -8v-11z" />
    <glyph glyph-name="M" unicode="M" horiz-adv-x="1205" 
d="M348 976l2 1l1 -833q7 -17 18 -33.5t26 -23.5l47 26q-1 -5 2.5 -8t8 -6t6 -6t-2.5 -6l-150 -84q-14 -7 -33 3.5t-47 43.5q-29 32 -66 45l-6 29q32 4 65 36v743l1 1v6q-53 0 -82 22.5t-64 61.5l-105 -62l1 35l83 50l126 78q22 -25 39.5 -44t36.5 -33.5t41 -22.5t52 -8v-11
zM724 986l2 1l1 -833q7 -17 18 -33.5t26 -23.5l47 26q-1 -5 2.5 -8t8 -6t6 -6t-2.5 -6l-150 -84q-14 -7 -33 3.5t-47 43.5q-29 32 -66 45l-6 29q32 4 65 36v743l1 1v6q-53 0 -82 22.5t-64 61.5l-105 -62l1 35l83 50l126 78q22 -25 39.5 -44t36.5 -33.5t41 -22.5t52 -8v-11z
M1095 986l2 1l1 -833q7 -17 18 -33.5t26 -23.5l47 26q-1 -5 2.5 -8t8 -6t6 -6t-2.5 -6l-150 -84q-14 -7 -33 3.5t-47 43.5q-29 32 -66 45l-6 29q32 4 65 36v743l1 1v6q-53 0 -82 22.5t-64 61.5l-105 -62l1 35l83 50l126 78q22 -25 39.5 -44t36.5 -33.5t41 -22.5t52 -8v-11z
" />
    <glyph glyph-name="N" unicode="N" horiz-adv-x="932" 
d="M388 976l2 1l1 -833q7 -17 18 -33.5t26 -23.5l47 26q-1 -5 2.5 -8t8 -6t6 -6t-2.5 -6l-150 -84q-14 -7 -33 3.5t-47 43.5q-29 32 -66 45l-6 29q32 4 65 36v743l1 1v6q-53 0 -82 22.5t-64 61.5l-105 -62l1 35l83 50l126 78q22 -25 39.5 -44t36.5 -33.5t41 -22.5t52 -8v-11
zM764 986l2 1l1 -833q7 -17 18 -33.5t26 -23.5l47 26q-1 -5 2.5 -8t8 -6t6 -6t-2.5 -6l-150 -84q-14 -7 -33 3.5t-47 43.5q-29 32 -66 45l-6 29q32 4 65 36v743l1 1v6q-53 0 -82 22.5t-64 61.5l-105 -62l1 35l83 50l126 78q22 -25 39.5 -44t36.5 -33.5t41 -22.5t52 -8v-11z
" />
    <glyph glyph-name="O" unicode="O" horiz-adv-x="695" 
d="M68 791l-2 2q31 28 77 81t66 71l131 121q51 47 99 44q59 -4 139 -78q41 -36 47 -110q3 -25 7 -63v-456q3 -71 3 -129l-133 -121q0 59 -3 130q-1 29 -3 64l2 390q-3 40 -5 65q-6 72 -45 108q-105 101 -184 70l-31 -34q-19 -20 -34 -34l-2 2zM569 226q-19 -27 -34 -41
l-131 -121q-83 -76 -148 -72q-61 4 -144 82q-56 51 -63 151q-3 31 -1 89l-1 465l126 123q0 -44 10 -96v-124q1 -4 1 -5q-4 -302 -2 -333q6 -100 61 -150q121 -114 220 -60l122 113q8 6 22 13z" />
    <glyph glyph-name="P" unicode="P" horiz-adv-x="820" 
d="M177 840l-2 1q23 26 56 56l134 115q90 78 181 94q108 20 196 -56q19 -17 17 -45l-6 -47q-1 -25 4 -84q1 -4 1 -12l7 -89q3 -59 -4 -96q-8 -46 -33 -67l-133 -115q-21 -18 -34 -28l-33 -25q-37 -25 -69 -32q-31 -6 -80 0q-19 3 -45 7l-45 9q-58 11 -91 13q-48 3 -81 -9
l-72 -62q15 26 32 41l132 115q32 28 84 32q39 3 101 -8q11 -2 27 -5l77 -14q58 -9 93 -1l28 8q11 28 12 72q2 35 -2 85l-8 83q-4 46 -4 69q1 4 2 10l4 24l2 12q2 28 -15 43q-73 64 -161 61q-76 -3 -155 -54zM374 971l2 1l1 -833q7 -17 18 -33.5t26 -23.5l47 26q-1 -5 2.5 -8
t8 -6t6 -6t-2.5 -6l-150 -84q-14 -7 -33 3.5t-47 43.5q-29 32 -66 45l-6 29q32 4 65 36v743l1 1v6q-53 0 -82 22.5t-64 61.5l-105 -62l1 35l83 50l126 78q22 -25 39.5 -44t36.5 -33.5t41 -22.5t52 -8v-11z" />
    <glyph glyph-name="Q" unicode="Q" horiz-adv-x="699" 
d="M741 50q-5 -15 -13 -27q-6 -10 -13 -16l-124 -110q-30 -27 -86 -4q-15 6 -44 22l-56 27l-70 37q-63 32 -94 29q-39 -4 -110 -50l-102 -71l129 116l96 67q70 46 109 50q31 3 94 -29l149 -78q43 -22 70 -20zM68 791l-2 2q31 28 77 81t65 71l131 121q51 47 100 44
q58 -4 139 -78q41 -36 46 -110q3 -25 7 -63l1 -456q3 -71 3 -129l-133 -121q0 59 -4 130q-1 29 -3 64l3 390q-4 40 -5 65q-6 72 -45 108q-106 101 -185 70l-30 -34q-19 -20 -34 -34l-2 2zM569 226q-19 -27 -34 -41l-131 -121q-83 -76 -148 -72q-61 4 -144 82q-57 51 -63 151
q-3 31 -1 89l-1 465l126 123q0 -44 10 -96l-1 -124q1 -4 1 -5q-3 -302 -1 -333q6 -100 61 -150q120 -114 220 -60l122 113q8 6 22 13z" />
    <glyph glyph-name="R" unicode="R" horiz-adv-x="898" 
d="M177 840l-2 1q23 26 56 56l134 115q90 78 181 94q108 20 196 -56q19 -17 17 -45l-6 -47q-1 -25 4 -84q1 -4 1 -12l7 -89l-4 -56q-8 -46 -33 -67l-133 -115q-21 -18 -34 -28l-33 -25q-37 -25 -69 -32q-31 -6 -80 0q-19 3 -45 7l-45 9q-58 11 -91 13q-48 3 -81 -9l-72 -62
q15 26 32 41l132 115q32 28 84 32q39 3 101 -8q11 -2 27 -5l77 -14q58 -9 93 -1l28 8q11 28 12 72q2 35 -2 85l-8 43q-4 46 -4 69q1 4 2 10l4 24l2 12q2 28 -15 43q-73 64 -161 61q-76 -3 -155 -54zM374 971l2 1l1 -833q7 -17 18 -33.5t26 -23.5l47 26q-1 -5 2.5 -8t8 -6
t6 -6t-2.5 -6l-150 -84q-14 -7 -33 3.5t-47 43.5q-29 32 -66 45l-6 29q32 4 65 36v743l1 1v6q-53 0 -82 22.5t-64 61.5l-105 -62l1 35l83 50l126 78q22 -25 39.5 -44t36.5 -33.5t41 -22.5t52 -8v-11zM428 448l-1 1l123 110q18 -1 35 -7q23 -8 43 -27q34 -30 66 -91l28 -58
l51 -123q14 -33 25 -56q21 -41 46 -72l39 22l12 -22l-27 -25l-2 1l2 -2q-59 -19 -113 -90v-1q-13 -13 -20 -6q-30 25 -60 84q-11 24 -25 57l-51 122q-15 34 -27 59q-32 61 -65 91q-37 33 -80 33h1z" />
    <glyph glyph-name="S" unicode="S" horiz-adv-x="839" 
d="M166 887q7 13 17 25l9 10l10 10l114 101q25 21 66 45l67 36q12 -34 29 -68l63 -113q17 -30 27 -56q55 34 88 57q41 28 76 59l-113 -103q-35 -31 -76 -59q-32 -23 -88 -56q-10 26 -27 57q-6 12 -15 28l-16 27q-21 35 -32 58q-17 34 -28 66q-42 -19 -78 -41zM227 960
q0 -41 3 -78q2 -48 9 -88q17 -103 57 -139q39 -34 108 -56q27 -8 63 -16l101 -20q18 -4 33 -7q36 -8 64 -17q68 -22 107 -56q37 -33 37 -86q1 -45 -25 -102q-21 -48 -56 -95q-29 -40 -54 -62l-144 -126l-84 -64q-7 67 -56 111q-102 88 -235 33q-31 -60 -14 -120l-114 -101
q-30 101 57 178l114 101q70 61 160 62q85 1 146 -52q48 -45 57 -109q12 11 37 31q27 33 49 70q25 43 37 82q31 98 -25 147q-39 35 -107 57q-28 9 -64 17l-134 27q-37 8 -64 16q-69 22 -108 57q-41 36 -58 139q-7 40 -10 88q-2 36 -2 77z" />
    <glyph glyph-name="T" unicode="T" horiz-adv-x="1035" 
d="M1 926l14 18l11 14l105 98q72 68 193 46q55 -11 140 -47q15 -7 36 -16l36 -16l74 -32q84 -34 145 -43q77 -10 138 17q19 55 -19 88q-50 47 -107 -4l-18 -18l-1 1l114 108q65 62 118 11q66 -62 -16 -140l-105 -99q-65 -62 -151 -67q-68 -4 -163 31q-35 12 -83 33
q-14 7 -42 19l-41 18q-48 21 -81 33q-43 16 -78 22q-89 18 -163 -22zM570 142q7 -17 18 -33.5t26 -23.5l47 26q-1 -5 2.5 -8t8 -6t6 -6t-2.5 -6l-150 -84q-14 -7 -33 3.5t-47 43.5q-29 32 -66 45l-6 29q32 4 65 36v792l131 74z" />
    <glyph glyph-name="U" unicode="U" horiz-adv-x="942" 
d="M214 447v461l1 1v6q-53 0 -82 22.5t-64 61.5l-105 -62l1 35l83 50l126 78q22 -25 39.5 -44t36.5 -33.5t41 -22.5t52 -8v-11l2 1l1 -511q-1 -159 -71 -221l-29 -28q73 21 115 -16q137 -125 242 -67q17 21 38 40l69 69v696q-28 0 -45 14q-17 8 -33 24l-57 -31l-21 23l56 31
l135 77q24 -25 43 -44q6 -6 12 -11h-1q12 -11 37 -26l1 1l2 -39l-1 -819q7 -17 18 -33.5t26 -23.5l47 26q-1 -5 2.5 -8t8 -6t6 -6t-2.5 -6l-150 -84q-14 -7 -33 3.5t-47 43.5q-29 32 -66 45l-6 29q32 4 65 36v62l-30 -32l-137 -125q-85 -78 -154 -74q-68 4 -160 88
q-41 37 -128 14l68 60q46 56 46 199z" />
    <glyph glyph-name="V" unicode="V" horiz-adv-x="912" 
d="M875 689l-2 -120q-3 -203 -171 -318q-19 -13 -38 -29l-9 21q78 97 80 235l1 119q6 90 -4 296l132 72q13 -121 11 -276zM290 835q-24 -164 71 -472q81 -203 180 -238l-114 -118q-110 95 -184 291q-93 291 -77 523q-4 71 -45 95l127 80q36 -62 42 -161zM205 904
q-53 0 -82 22.5t-64 62.5l-105 -63l1 36l83 51l126 79q22 -25 39.5 -44.5t36.5 -34.5t93 -31zM734 953q-28 0 -45 14q-17 8 -33 24l-57 -31l-21 23l56 32l135 77q24 -25 43 -44q6 -6 12 -11h-1q12 -11 37 -26l1 1l2 -40v-7l-129 -72v60zM684 276l24 -22l-221 -171l-15 20z
" />
    <glyph glyph-name="W" unicode="W" horiz-adv-x="1230" 
d="M1106 976l2 1l1 -833q7 -17 18 -33.5t26 -23.5l47 26q-1 -5 2.5 -8t8 -6t6 -6t-2.5 -6l-150 -84q-14 -7 -33 3.5t-47 43.5q-29 32 -66 45l-6 29q32 4 65 36v743l1 1v6q-53 0 -82 22.5t-64 61.5l-105 -62l1 35l83 50l126 78q22 -25 39.5 -44t36.5 -33.5t41 -22.5t52 -8
v-11zM320 461q-3 -139 -73 -201l-29 -28q73 21 115 -16q107 -97 194 -84l11 -32l-27 -25q-85 -78 -154 -74q-68 4 -160 88q-41 37 -128 14l68 60q46 56 46 199v76h-1v461l2 1v6q-56 0 -86 22.5t-67 61.5l-109 -62l1 35l87 50l131 78q23 -25 41 -44t38 -33.5t43 -22.5t54 -8
v-11l2 1zM890 78q-85 -78 -154 -74q-68 4 -160 88q-41 37 -128 14l68 60q46 56 46 199v82h-1v402q-28 0 -45 14q-17 8 -33 24l-57 -31l-21 23l56 31l135 77q24 -25 43 -44q6 -6 12 -11h-1q12 -11 37 -26l1 1l2 -39v-404q-9 -129 -64 -201l-29 -28q73 21 115 -16
q137 -125 242 -67q9 11 20 22l10 -10z" />
    <glyph glyph-name="X" unicode="X" horiz-adv-x="977" 
d="M161 1037q115 69 176 52q33 -26 45 -68l32 -78l-132 -91l-17 38q-10 47 -31 65q-30 28 -69 20l-48 -17l-17 28zM816 52q-97 -94 -186 -10q-33 29 -58 93l133 107q24 -55 53 -83q45 -44 80 -31l53 40l20 -25zM725 1102q22 -3 50 -8l36 -6q6 -1 10 -1q56 -9 89 -10
q45 -14 86 26l11 -37q-90 -72 -217 -103q-33 2 -88 10q-5 2 -12 2l-86 13zM8 45l-1 1l126 116q69 64 155 -14q84 -79 185 -37l-124 -115q-95 -39 -180 38q-86 80 -150 20zM838 1007l-616 -986l-12 104l597 960zM237 965l159 23l350 -858l-173 -5z" />
    <glyph glyph-name="Y" unicode="Y" horiz-adv-x="805" 
d="M79 -235q-59 -54 -117 2q-37 33 -22 135q14 97 49 129l125 115q76 70 161 52q66 -14 139 -81q24 -20 48 -47l37 -44q22 12 51 23q-1 12 -4 41l-2 18l-1 93q0 51 1 89q3 107 13 157q10 44 13 111l-12 -10q-2 -3 -3 -4l-139 -128q-88 -81 -136 -38q-50 45 -58 104
q-4 22 -3 59l1 69q0 16 2 40l8 94q2 28 3 50q4 121 -41 164q-43 39 -142 14l128 117q93 25 137 -16q46 -43 44 -164q0 -23 -2 -51q-2 -17 -4 -49q-3 -32 -4 -45q-2 -24 -2 -40l-1 -70q-1 -37 2 -59q8 -59 57 -103q30 -27 80 -2l21 23l64 57q0 35 -2 79q-1 29 -4 80l-5 80
l-6 150q0 45 18 62l126 115q31 28 93 20q57 -7 89 -36l10 -12l-125 -115l-11 13q-25 23 -72 31l2 -19q1 -11 1 -18q0 -42 4 -110l7 -114q3 -65 1 -112q-2 -58 -12 -104q-10 -49 -13 -156q-1 -39 -1 -89l1 -93l5 -58q4 -51 -9 -63l-126 -115q-12 -11 -36 -23q-17 -8 -47 -19
l-18 -7q-4 -1 -6 -2q-14 -5 -23 -9q-24 -9 -36 -16q-41 52 -86 94q-51 45 -97 65q-57 25 -110 12q-19 -58 -20 -114q0 -64 26 -87q44 -40 86 -21l81 75q19 17 36 21l-128 -117l-7 -1z" />
    <glyph glyph-name="Z" unicode="Z" horiz-adv-x="952" 
d="M240 691q41 -7 91 -28l76 -35q7 -3 11 -6q61 48 101 85q58 52 142 111l154 104q-83 -31 -198 -31q-103 1 -195 24l-88 27q-57 18 -89 23v-10l-131 -118q0 81 34 109l130 118q36 34 124 14q16 -4 37 -10l75 -24q20 -6 35 -9q124 -31 249 -25q149 8 219 71l16 15l2 -2
l-164 -151q-47 -42 -109 -87l-228 -157q-62 -44 -107 -82q72 -36 119 -48q68 -16 132 4l-131 -120q-65 -19 -134 -1q-47 12 -125 51l-58 -47q-58 -64 -76 -125q-22 -70 7 -141l15 14q76 69 236 31q140 -32 213 -101l25 -25l2 -1l31 -31q38 -37 77 -41q33 109 -29 209
l129 118q46 -75 40 -159q-7 -86 -66 -140l-129 -118q-39 -36 -82 -27q-31 6 -69 40l-56 57q-44 40 -128 73q-91 36 -172 40q6 -10 10 -15l-129 -118q-87 110 -55 217q14 47 51 95q31 41 81 87l124 113l-21 10l-20 10q-23 11 -42 18q-47 20 -86 27z" />
    <glyph glyph-name="bracketleft" unicode="[" 
d="M430 -145v-39h-337v1485h337v-40h-183v-1406h183z" />
    <glyph glyph-name="backslash" unicode="\" horiz-adv-x="1027" 
d="M607 40l-571 1156h-93l576 -1161z" />
    <glyph glyph-name="bracketright" unicode="]" 
d="M33 -143h183v1406h-183v40h337v-1485h-337v39z" />
    <glyph glyph-name="asciicircum" unicode="^" horiz-adv-x="671" 
d="M424 848l-107 142l-108 -142h-89l175 225h45l171 -225h-87z" />
    <glyph glyph-name="underscore" unicode="_" horiz-adv-x="834" 
d="M-9 -145h854v-54h-854v54z" />
    <glyph glyph-name="grave" unicode="`" horiz-adv-x="465" 
d="M-28 1326q22 -37 62 -85q14 -16 30 -35l24 -27q34 -37 73 -74l31 -28q17 -15 31 -29l75 -201l-61 57q-39 36 -76 77q-28 31 -54 62q-40 48 -62 83z" />
    <glyph glyph-name="a" unicode="a" horiz-adv-x="683" 
d="M204 668q-14 -111 -14 -224v-264q42 -19 65.5 -43t48.5 -50l151 62q0 75 1 148q2 84 2.5 176.5t0.5 171.5q-53 0 -83.5 22.5t-66.5 61.5zM288 752l129 77q23 -25 40.5 -44t37 -33t42 -22t53.5 -8l-8 -517q-3 -36 24.5 -61.5t71.5 -22.5l31 9l9 -15l-167 -113
q-15 14 -24.5 24t-19 21t-21.5 24t-31 33v4l-152 -61l-88 -46q-43 37 -84.5 61.5t-108.5 40.5l37 26q-1 125 -0.5 250t12.5 245l138 82z" />
    <glyph glyph-name="b" unicode="b" horiz-adv-x="642" 
d="M197 1026l2 1l1 -883q7 -17 18 -33.5t26 -23.5l47 26q-1 -5 2.5 -8t8 -6t6 -6t-2.5 -6l-150 -84q-14 -7 -33 3.5t-47 43.5q-29 32 -66 45l-6 29q32 4 65 36v793l1 1v6q-53 0 -82 22.5t-64 61.5l-105 -62l1 35l83 50l126 78q22 -25 39.5 -44t36.5 -33.5t41 -22.5t52 -8
v-11zM451 155l-2 490q-54 0 -84 22.5t-66 61.5l-107 -62l1 35l85 50l129 77q23 -25 40.5 -44t37 -33t42 -22t53.5 -8l-3 -523zM577 226l14 -31l-454 -193l-13 31z" />
    <glyph glyph-name="c" unicode="c" horiz-adv-x="571" 
d="M207 737l94 47l96 48q48 -38 102 -66q49 -38 57 -89l-130 -58q-30 62 -64 79q-36 18 -63 45l-96 -46q-10 -111 -10 -236v-274q47 -20 73 -45t54 -52l177 69l-4 -45l-174 -65l-98 -48q-48 38 -94 63.5t-120 42.5l41 27q-1 129 -0.5 264t13.5 260l116 64l30 17v-2z" />
    <glyph glyph-name="d" unicode="d" horiz-adv-x="683" 
d="M592 1017l2 1l1 -873q7 -17 18 -33.5t26 -23.5l47 26q-1 -5 2.5 -8t8 -6t6 -6t-2.5 -6l-150 -84q-14 -7 -33 3.5t-47 43.5q-29 32 -66 45l-6 29q32 4 65 36v783l1 1v6q-53 0 -82 22.5t-64 61.5l-105 -62l1 35l83 50l126 78q22 -25 39.5 -44t36.5 -33.5t41 -22.5t52 -8
v-11zM190 184q42 -19 65.5 -44t48.5 -51l160 67l-4 -44l-157 -64l-88 -47q-43 38 -84.5 63t-108.5 41l37 27q-1 128 -0.5 255.5t12.5 250.5l131 80q-12 -129 -12 -264.5v-269.5zM453 645q-54 0 -84 22t-66 61l-107 -61l1 34l85 49l129 77q23 -25 40.5 -43.5t37 -32.5
t42 -21.5t53.5 -7.5l-1 -37l-130 -68v28z" />
    <glyph glyph-name="e" unicode="e" horiz-adv-x="596" 
d="M185 297v-102q29 -10 72.5 -24t108.5 -67q4 -4 10 -14l121 70q3 3 8 5.5t10 3.5h1l13 -20q-41 -25 -77 -46q-31 -19 -60.5 -37.5t-44.5 -26.5l-69 -38q-3 -3 -6 -5q-3 -3 -6 -4l-6 -2q-7 26 -19 40t-42 39q-17 15 -41.5 23t-50.5 11t-51 3.5t-42 0.5l1 16l44 26v494
l266 143l87 46q43 -37 92 -64q44 -36 52 -88v-1l1 -185zM185 337l245 130q-4 28 -2 62q2 53 2 113h1q-24 46 -51 61q-32 17 -57 43l-138 -67v-342z" />
    <glyph glyph-name="f" unicode="f" horiz-adv-x="488" 
d="M452 1144q34 -36 61 -64.5t69 -60.5l-110 -98q-54 48 -78.5 73.5t-52.5 53.5l-63 -51q0 -69 -2 -132.5t-5 -128.5q55 -3 109 -4t104.5 1.5t177.5 5.5l-134 -60q-37 -10 -106 -10t-154 4q-2 -28 -2 -66.5v-69.5q0 -96 -5 -197.5t-5 -194.5l-1 -1q11 -17 22.5 -33.5
t26.5 -23.5l47 26q-1 -5 2.5 -8t8 -6t6 -6t-2.5 -6l-151 -84q-13 -7 -32.5 3.5t-39.5 29t-37.5 40.5t-28.5 35l49 31q3 79 7 159.5t4 156.5q0 103 4 221q-77 4 -147 8t-122 4l76 62q38 0 89 -3t107 -6q2 43 3 88t1 91l176 144l4 -5l-4 5l129 77v0z" />
    <glyph glyph-name="g" unicode="g" horiz-adv-x="683" 
d="M190 180q42 -19 65.5 -43t48.5 -50l160 66l-4 -43l-157 -63l-88 -46q-43 37 -84.5 61.5t-108.5 40.5l37 26q-1 125 -0.5 250t12.5 245l131 78q-12 -126 -12 -258.5v-263.5zM508 47q-10 11 -22 24t-31 33q0 98 1 193q2 84 2.5 176.5t0.5 171.5q-54 0 -84 22.5t-66 61.5
l-107 -62l1 35l85 50l129 77q23 -25 40.5 -44t37 -33t42 -22t53.5 -8l-8 -517q-3 -36 25 -61q18 -33 28 -75l-106 -72zM637 48l15 -80q13 -89 -36 -137l-100 -103q-44 -43 -117 -43q-74 1 -121 48l-68 74q-45 45 -78 60q-46 21 -81 -2q-18 -25 -26 -52l-101 -104
q16 50 62 96l146 149q38 39 91 20q37 -14 87 -65l67 -74q70 -71 173 -41q8 38 -7 112l-11 62q-3 15 -4 29l105 74q2 -11 4 -23z" />
    <glyph glyph-name="h" unicode="h" horiz-adv-x="654" 
d="M197 1016l2 1l1 -873q7 -17 18 -33.5t26 -23.5l47 26q-1 -5 2.5 -8t8 -6t6 -6t-2.5 -6l-150 -84q-14 -7 -33 3.5t-47 43.5q-29 32 -66 45l-6 29q32 4 65 36v783l1 1v6q-53 0 -82 22.5t-64 61.5l-105 -62l1 35l83 50l126 78q22 -25 39.5 -44t36.5 -33.5t41 -22.5t52 -8
v-11zM240 710l1 -3l-64 -33l-3 38l59 30v-1l22 12l129 76q23 -24 40.5 -43t37 -32.5t42 -21.5t53.5 -8l-8 -528q-3 -35 24.5 -60t71.5 -22l31 9l9 -15l-167 -111q-15 14 -24.5 23.5t-19 20.5t-21.5 24t-31 32q0 96 1 190q2 82 2.5 183t0.5 178q-54 0 -84 22.5t-66 59.5z" />
    <glyph glyph-name="i" unicode="i" horiz-adv-x="409" 
d="M142 141v549q-26 0 -42 14q-17 8 -32 24l-54 -31l-20 23l53 31l129 77q23 -25 41 -44q5 -6 11 -11h-1q12 -11 35 -26l3 -38v-509q-3 -36 24.5 -61.5t71.5 -22.5l31 9l9 -15l-167 -113q-15 14 -24.5 24t-19 21t-21.5 24t-33 32l-22 15v19q18 -1 28 9zM239 1023l-102 -69
l83 -97l92 75z" />
    <glyph glyph-name="j" unicode="j" horiz-adv-x="400" 
d="M229 1024l-102 -69l83 -97l92 75zM341 113q1 -10 3 -20l15 -80q13 -89 -36 -137l-100 -103q-44 -43 -117 -43q-74 1 -121 48l-68 74q-45 45 -78 60q-46 21 -81 -2q-18 -25 -26 -52l-101 -104q16 50 62 96l146 149q38 39 91 20q37 -14 87 -65l67 -74q70 -71 173 -41
q8 38 -7 112l-11 62q-3 15 -4 29l1 1l-21 49q-10 11 -22 24t-31 33l4 541q-26 0 -42 14q-17 8 -32 24l-54 -31l-20 23l53 31l129 77q23 -25 41 -44q5 -6 11 -11h-1q12 -11 35 -26l7 3l11 -33l-15 -8v-459q-3 -36 25 -61q18 -33 28 -75z" />
    <glyph glyph-name="k" unicode="k" horiz-adv-x="703" 
d="M557 904q-6 8 -8 10q-20 19 -54 30q-1 -22 1 -57l3 -48q0 -117 -74 -191l-72 -72l34 -36q30 -30 122 -30l-2 -97q-1 -62 1 -101q7 -115 51 -158q41 -41 109 -1q23 13 51 37l28 26l7 7l2 -2l-154 -152q-26 -23 -50 -37q-69 -38 -112 5q-44 43 -51 157q-3 39 -2 100l2 96
q-89 0 -121 33q-9 8 -40 42l-43 -27l-10 -10l-3 87l11 11q76 0 164 59q31 56 31 137l-3 114q2 74 30 103l119 118q23 23 73 11q46 -11 70 -36q7 -7 9 -10zM197 1026l2 1l1 -883q7 -17 18 -33.5t26 -23.5l47 26q-1 -5 2.5 -8t8 -6t6 -6t-2.5 -6l-150 -84q-14 -7 -33 3.5
t-47 43.5q-29 32 -66 45l-6 29q32 4 65 36v793l1 1v6q-53 0 -82 22.5t-64 61.5l-105 -62l1 35l83 50l126 78q22 -25 39.5 -44t36.5 -33.5t41 -22.5t52 -8v-11z" />
    <glyph glyph-name="l" unicode="l" horiz-adv-x="318" 
d="M197 1026l2 1l1 -883q7 -17 18 -33.5t26 -23.5l47 26q-1 -5 2.5 -8t8 -6t6 -6t-2.5 -6l-150 -84q-14 -7 -33 3.5t-47 43.5q-29 32 -66 45l-6 29q32 4 65 36v793l1 1v6q-53 0 -82 22.5t-64 61.5l-105 -62l1 35l83 50l126 78q22 -25 39.5 -44t36.5 -33.5t41 -22.5t52 -8
v-11z" />
    <glyph glyph-name="m" unicode="m" horiz-adv-x="1064" 
d="M649 709l58 34l129 77q23 -25 40.5 -44t37 -33t42 -22t53.5 -8l-8 -517q-3 -36 24.5 -61.5t71.5 -22.5l31 9l9 -15l-167 -113q-15 14 -24.5 24t-19 21t-21.5 24t-31 33q0 98 1 193q2 84 2.5 176.5t0.5 171.5q-54 0 -84 22.5t-66 61.5l-70 -41l-8 -478q-3 -35 24.5 -60
t71.5 -22l31 9l9 -15l-167 -111q-15 14 -24.5 23.5t-19 20.5t-21.5 24t-31 32q0 96 1 190q2 82 2.5 173t0.5 168q-54 0 -84 22.5t-66 59.5l-36 -20l1 -3l-64 -33v-459q-3 -36 24.5 -61.5t71.5 -22.5l31 9l9 -15l-167 -113q-15 14 -24.5 24t-19 21t-21.5 24t-33 32l-22 15v19
q18 -1 28 9v499q-26 0 -42 14q-17 8 -32 24l-54 -31l-20 23l53 31l129 77q23 -25 41 -44q5 -6 11 -11h-1q12 -11 35 -26l59 30v-1l22 12l129 76q23 -24 40.5 -43t37 -32.5t42.5 -21.5q19 -7 44 -8z" />
    <glyph glyph-name="n" unicode="n" horiz-adv-x="825" 
d="M328 695l1 -3l-64 -33v-459q-3 -36 24.5 -61.5t71.5 -22.5l31 9l9 -15l-167 -113q-15 14 -24.5 24t-19 21t-21.5 24t-33 32l-22 15v19q18 -1 28 9v499q-26 0 -42 14q-17 8 -32 24l-54 -31l-20 23l53 31l129 77q23 -25 41 -44q5 -6 11 -11h-1q12 -11 35 -26l59 30v-1
l22 12l129 76q23 -24 40.5 -43t37 -32.5t42 -21.5t53.5 -8l-8 -508q-3 -35 24.5 -60t71.5 -22l31 9l9 -15l-167 -111q-15 14 -24.5 23.5t-19 20.5t-21.5 24t-31 32q0 96 1 190q2 82 2.5 173t0.5 168q-54 0 -84 22.5t-66 59.5z" />
    <glyph glyph-name="o" unicode="o" horiz-adv-x="629" 
d="M190 180q42 -19 65.5 -43t48.5 -50l160 66l-4 -43l-157 -63l-88 -46q-43 37 -84.5 61.5t-108.5 40.5l37 26q-1 125 -0.5 250t12.5 245l131 78q-12 -126 -12 -258.5v-263.5zM461 115l-2 530q-54 0 -84 22.5t-66 61.5l-107 -62l1 35l85 50l129 77q23 -25 40.5 -44t37 -33
t42 -22t53.5 -8l-3 -543z" />
    <glyph glyph-name="p" unicode="p" horiz-adv-x="640" 
d="M59 168l131 106v-94q42 -19 65.5 -43t48.5 -50l160 66l-4 -43l-157 -63l-88 -46q-43 37 -84 62q-18 10 -41 19l-31 47v39zM461 115l-2 530q-54 0 -84 22.5t-66 61.5l-129 -73l9 44l99 52l129 77q23 -25 40.5 -44t37 -33t42 -22t53.5 -8l-3 -543zM190 -188q7 -17 18 -33.5
t26 -23.5l47 26q-1 -5 2.5 -8t8 -6t6 -6t-2.5 -6l-150 -84q-14 -7 -33 3.5t-47 43.5q-29 32 -66 45l-6 29q32 4 65 36v812l131 74zM190 714l-132 -83v62q-27 0 -44 14q-18 8 -34 24l-58 -31l-21 23l56 31l137 77l44 -44q5 -6 12 -11h-1q12 -11 41 -25v-37z" />
    <glyph glyph-name="q" unicode="q" horiz-adv-x="673" 
d="M190 180q42 -19 65.5 -43t48.5 -50l171 70l-1 -42l-171 -68l-88 -46q-43 37 -84.5 61.5t-108.5 40.5l37 26q-1 125 -0.5 250t12.5 245l131 77q-12 -125 -12 -257.5v-263.5zM555 -89q55 -3 109 -4t84.5 1.5t157.5 5.5l-134 -60q-37 -10 -86 -10t-134 4q-55 1 -128 6
q-77 4 -147 8t-122 4l76 62q38 0 89 -3t107 -6q75 4 128 -8zM459 645q-54 0 -84 22.5t-66 61.5l-120 -71l14 44l85 50l129 77q23 -25 40.5 -44t37 -33t42 -22t57.5 -4l1 -952q7 -17 18 -33.5t26 -23.5l47 26q-1 -5 2.5 -8t8 -6t6 -6t-2.5 -6l-150 -84q-14 -7 -33 3.5
t-47 43.5q-29 32 -66 45l-6 29q32 4 69 42z" />
    <glyph glyph-name="r" unicode="r" horiz-adv-x="614" 
d="M142 141v549q-26 0 -42 14q-17 8 -32 24l-54 -31l-20 23l53 31l129 77q23 -25 41 -44q5 -6 11 -11h-1q12 -11 35 -26l91 46l87 46q43 -37 92 -64q44 -36 51 -85l-117 -56q-27 59 -58 76q-32 17 -57 43l-86 -44v-509q-3 -36 24.5 -61.5t71.5 -22.5l31 9l9 -15l-167 -113
q-15 14 -24.5 24t-19 21t-21.5 24t-33 32l-22 15v19q18 -1 28 9z" />
    <glyph glyph-name="s" unicode="s" horiz-adv-x="577" 
d="M272 -33q0 22 -2 34t-11 25q-30 44 -95 24q-89 -32 -108 -79l-16 5q34 95 98 132q82 53 161 39q62 -16 75 -42l35 20l1 319q-9 35 -39 35l-120 -55q-55 -38 -113 -48q-77 21 -108 71v226l266 161l4 -8q33 -57 91 -78.5t125 26.5l8 -15l-86 -69q-81 -29 -113 -31.5
t-61 8.5t-53 33q-16 14 -29 31l-26 -18l-1 -259q47 -14 94 1l121 59q39 23 70.5 33.5t73.5 -13.5q29 -31 27 -67v-338z" />
    <glyph glyph-name="t" unicode="t" horiz-adv-x="488" 
d="M278 1007q0 -69 -2 -132.5t-5 -148.5q55 -3 109 -4t84.5 1.5t157.5 5.5l-134 -60q-37 -10 -86 -10t-134 4q-2 -28 -2 -61.5v-64.5q0 -96 -5 -197.5t-5 -194.5l-1 -1q11 -17 22.5 -33.5t26.5 -23.5l47 26q-1 -5 2.5 -8t8 -6t6 -6t-2.5 -6l-151 -84q-13 -7 -32.5 3.5
t-39.5 29t-37.5 40.5t-28.5 35l49 31q3 79 7 159.5t4 156.5q0 103 4 211q-77 4 -147 8t-122 4l76 62q38 0 89 -3t107 -6q2 63 3 108t1 91z" />
    <glyph glyph-name="u" unicode="u" horiz-adv-x="703" 
d="M709 94l33 19q3 -8 6 -14q3 -5 3.5 -9.5t-0.5 -4.5l-69 -51q-1 -2 -12.5 -6.5t-24 -10t-23.5 -10t-13 -4.5q-29 -8 -48.5 0t-31.5 29q-7 13 -11.5 29t-9.5 50l-223 -116q-23 42 -50.5 66t-59.5 35.5t-139 31.5l4 31l90 38l-1 467q-22 0 -39 9.5t-32.5 23.5t-30.5 30
t-33 30l129 77q18 -14 32 -30t30 -30t33.5 -23t41.5 -9l-1 -550q23 -8 62.5 -26t72.5 -66l113 58l3 500q-22 0 -41.5 10t-36.5 25.5t-32 34t-28 35.5l129 77q13 -17 27.5 -35.5t31.5 -34t37 -25.5t44 -10q0 -45 -2 -525q-1 -15 -1 -31q0 -12 2 -28.5t10 -30.5
q7 -14 13.5 -23t21.5 -12z" />
    <glyph glyph-name="v" unicode="v" horiz-adv-x="776" 
d="M175 790q-34 44 -90 36l-111 -79l12 -14l27 17q37 1 68 -49q37 -35 68 -42l193 -524l-93 8l-12 -25q47 -16 76 -41q38 -36 62 -81l175 66l-4 11q-18 3 -22 24l226 610l59 39v6q-24 0 -42 9.5t-33.5 24.5t-56.5 65q-49 -33 -89 -53l-80 -48l14 -27l47 19q36 -5 54 -28
q17 -21 41 -32l-195 -515l-218 572q-44 20 -76 51z" />
    <glyph glyph-name="w" unicode="w" horiz-adv-x="1205" 
d="M581 199l-1 467q-22 0 -39 9.5t-32.5 23.5t-30.5 30t-33 30l129 77q18 -14 32 -30t30 -30t33.5 -23t41.5 -9l-1 -550q23 -8 62.5 -26t72.5 -66l113 58l3 500q-22 0 -41.5 10t-36.5 25.5t-32 34t-28 35.5l129 77q13 -17 27.5 -35.5t31.5 -34t37 -25.5t44 -10
q0 -45 -2 -525q-1 -15 -1 -31q0 -12 2 -28.5t10 -30.5q7 -14 13.5 -23t21.5 -12l24 9l33 19q3 -8 6 -14q3 -5 3.5 -9.5t-0.5 -4.5l-69 -51q-1 -2 -12.5 -6.5t-24 -10t-23.5 -10t-13 -4.5q-29 -8 -48.5 0t-31.5 29q-7 13 -11.5 29t-9.5 50l-213 -110q-35 56 -78 88
q-45 29 -109 35l-272 -127q-23 42 -50.5 66t-59.5 35.5t-139 31.5l4 31l90 38l-1 467q-22 0 -39 9.5t-32.5 23.5t-30.5 30t-33 30l129 77q18 -14 32 -30t30 -30t33.5 -23t41.5 -9l-1 -550q23 -8 62.5 -26t72.5 -66z" />
    <glyph glyph-name="x" unicode="x" horiz-adv-x="976" 
d="M633 821q22 -3 50 -8l36 -6q6 -1 10 -1q56 -9 89 -10q95 -4 183 39l-123 -115q-86 -42 -180 -38q-33 2 -88 10q-5 2 -12 2l-86 13zM23 80l109 98q69 64 155 -14q84 -79 185 -37l18 -13l-142 -102q-95 -39 -180 38q-86 80 -124 11zM187 695q-26 0 -42 14q-17 8 -32 24
l-54 -31l-20 23l53 31l129 77q23 -25 41 -44q5 -6 11 -11h-1q12 -11 33 -25l7 -36l-106 -57zM759 179q28 -27 63 -40.5t75 5.5l25 20l14 -10l-112 -168q-20 8 -32.5 13.5t-25.5 12t-29 14t-42 17.5l-26 6l-7 17q17 6 22 19l-22 44l56 77zM832 747l-595 -660l-47 48l595 661z
M192 695l85 84l509 -621l-100 -75z" />
    <glyph glyph-name="y" unicode="y" horiz-adv-x="755" 
d="M697 108l16 -96q15 -105 -38 -162l-111 -122q-49 -52 -130 -52q-81 1 -133 57l-76 89q-49 52 -86 71q-51 24 -90 -3q-20 -30 -28 -61l-112 -124q18 60 68 113l162 178q42 46 100 24q42 -18 97 -78l74 -87q77 -85 191 -49q9 45 -8 132l-12 74q-3 19 -4 36l116 87
q2 -13 4 -27zM573 43q-8 14 -12 30.5t-7 35.5q-9 1 -23.5 3t-28.5 0t-26.5 -8t-18.5 -20h1l-129 -79q-24 44 -51.5 68.5t-59.5 36.5t-71 14.5t-87 2.5l104 63q2 119 5.5 237.5t3.5 226.5q-22 0 -39.5 10t-33 24.5t-30 31t-32.5 30.5l129 80q18 -15 32 -31.5t29.5 -31
t33.5 -23.5t42 -9q0 -120 -4.5 -255t-4.5 -264l-19 -13q50 -3 89.5 -21.5t72.5 -67.5q13 13 39 19.5t74 0.5q-3 50 -1 98t2 75q0 87 2.5 169t2.5 174q-23 0 -42 10.5t-36.5 26.5t-32 35t-28.5 37l130 79q13 -18 27 -37t31 -35t37.5 -26t43.5 -10q0 -47 -0.5 -114.5
t-1.5 -139t-1.5 -139t-0.5 -110.5q-2 -15 -2 -32q0 -12 3 -29q2 -14 7 -27l-117 -99q0 2 -1 3z" />
    <glyph glyph-name="z" unicode="z" horiz-adv-x="781" 
d="M329 495l28 1h9q22 0 35 -1q37 -4 59 -24q9 -6 15 -14q18 -14 30 -20q18 -9 41 -9l-66 -59q-34 0 -69 31l-14 13q-23 20 -60 24h-74zM722 793l-45 -46l-63 -53q-77 -58 -156 -75q-105 -18 -207 23q-13 6 -28 16q-4 5 -12 10q-2 3 -5 5l-6 7q-9 6 -12 9l-13 10
q-15 12 -28 17q-34 13 -66 13l-14 -12l-40 -42l-20 21l87 89q61 71 146 37q14 -5 29 -17l12 -10q4 -4 11 -10l12 -12q8 -5 13 -10q15 -9 28 -14q202 -84 367 48zM745 762l-577 -641l-126 -55l656 743zM43 66l35 14l63 53q77 58 156 75q105 18 207 -23q13 -6 28 -16
q4 -5 12 -10q2 -3 5 -5l6 -7q9 -6 12 -9l13 -10q15 -12 28 -17q34 -13 66 -13l14 12l40 42l20 -21l-87 -89q-61 -71 -146 -37q-14 5 -29 17l-12 10q-4 4 -11 10l-12 12q-8 5 -13 10q-15 9 -28 14q-202 84 -367 -48v36z" />
    <glyph glyph-name="braceleft" unicode="{" horiz-adv-x="1010" 
d="M441 446q-16 25 -37 47q-24 9 -53 13.5t-58.5 5.5t-57 -2t-48.5 -11q-21 -9 -41 -25q-15 -12 -25 -28q10 -16 25 -28q20 -16 41 -25q21 -8 48.5 -11t57 -2t58.5 5.5t53 14.5q21 21 37 46zM453 468q2 5 5 10q20 45 31.5 96t15 109t4 117t-1.5 116t-2 263q3 6 7 13t9 27
q14 43 28 64q15 19 24 32.5t21 22.5l72 47q20 13 49 23.5t58 13t55 -7.5t40 -37q17 -33 28 -74.5t12 -113.5q-10 -69 -54 -110l-38 -28l-3 25q15 23 20 55q5 33 1.5 68t-13.5 69t-24 63q-10 19 -27.5 29.5t-38 13t-43 -1t-56.5 -25.5q-37 -32 -41 -58q-17 -28 -13 -64
q-4 -12 -4.5 -25.5t0.5 -27.5t2.5 -29t1.5 -26q2 -200 2.5 -287.5t-11.5 -166.5t-42 -144q-19 -42 -49 -73q30 -31 49 -73q30 -65 42 -144t11.5 -166.5t-2.5 -287.5q0 -11 -1.5 -25.5t-2.5 -29t-0.5 -28t4.5 -25.5q-4 -36 13 -64q4 -26 41 -58q34 -22 56.5 -25.5t43 -0.5
t38 13t27.5 29q14 29 24 63t13.5 69t-1.5 68q-5 32 -20 56l3 24l38 -28q44 -40 54 -110q-1 -72 -12 -113.5t-28 -74.5q-14 -27 -40 -37t-55 -7.5t-58 13.5t-49 23l-72 47q-12 9 -21 22.5t-24 32.5q-14 21 -28 64q-5 20 -9 27.5t-7 12.5q0 206 2 263t1.5 116t-4 117t-15 109
t-31.5 96q-3 5 -5 10q-7 -5 -14 -9l-72 -47q-20 -13 -52.5 -22t-68.5 -12.5t-71 -0.5t-58 13q-23 9 -42 25t-32 39q-10 20 -9 36q-1 16 9 36q13 23 32 39t42 25q23 10 58 13t71 -0.5t68.5 -12.5t52.5 -22l72 -47q7 -4 14 -9z" />
    <glyph glyph-name="bar" unicode="|" horiz-adv-x="427" 
d="M152 1447h111v-1884h-111v1884z" />
    <glyph glyph-name="braceright" unicode="}" horiz-adv-x="1010" 
d="M568 400q24 -10 53 -14.5t58.5 -5.5t57 2t48.5 11q21 9 41 25q15 12 25 28q-10 16 -25 28q-20 16 -41 25q-21 8 -48.5 11t-57 2t-58.5 -5.5t-53 -13.5q-21 -22 -37 -47q16 -25 37 -46zM533 477l72 47q20 13 52.5 22t68.5 12.5t71 0.5t58 -13q23 -9 42 -25t32 -39
q10 -20 9 -36q1 -16 -9 -36q-13 -23 -32 -39t-42 -25q-23 -10 -58 -13t-71 0.5t-68.5 12.5t-52.5 22l-72 47q-7 4 -14 9q-2 -5 -5 -10q-20 -45 -31.5 -96t-15 -109t-4 -117t1.5 -116t2 -263q-3 -5 -7 -12.5t-9 -27.5q-14 -43 -28 -64q-15 -19 -24 -32.5t-21 -22.5l-72 -47
q-20 -12 -49 -23t-58 -13.5t-55 7.5t-40 37q-17 33 -28 74.5t-12 113.5q10 70 54 110l38 28l3 -24q-15 -24 -20 -56q-5 -33 -1.5 -68t13.5 -69t24 -63q10 -19 27.5 -29t38 -13t43 0.5t56.5 25.5q37 32 41 58q17 28 13 64q4 12 4.5 25.5t-0.5 28t-2.5 29t-1.5 25.5
q-2 200 -2.5 287.5t11.5 166.5t42 144q19 42 49 73q-30 31 -49 73q-30 65 -42 144t-11.5 166.5t2.5 287.5q0 11 1.5 26t2.5 29t0.5 27.5t-4.5 25.5q4 36 -13 64q-4 26 -41 58q-34 22 -56.5 25.5t-43 1t-38 -13t-27.5 -29.5q-14 -29 -24 -63t-13.5 -69t1.5 -68q5 -32 20 -55
l-3 -25l-38 28q-44 41 -54 110q1 72 12 113.5t28 74.5q14 27 40 37t55 7.5t58 -13t49 -23.5l72 -47q12 -9 21 -22.5t24 -32.5q14 -21 28 -64q5 -20 9 -27t7 -13q0 -206 -2 -263t-1.5 -116t4 -117t15 -109t31.5 -96q3 -5 5 -10q7 5 14 9z" />
    <glyph glyph-name="asciitilde" unicode="~" horiz-adv-x="671" 
d="M65 904l127 66l243 -63l180 58l-33 -68l-150 -74l-251 66l-83 2l-60 -31z" />
    <glyph glyph-name="nonbreakingspace" unicode="&#xa0;" horiz-adv-x="293" 
 />
    <glyph glyph-name="exclamdown" unicode="&#xa1;" horiz-adv-x="403" 
d="M172 739l103 -98l-103 -97l-103 97zM291 -174l-119 -152l-120 152q85 208 105 662h28q16 -262 42 -414.5t64 -247.5z" />
    <glyph glyph-name="cent" unicode="&#xa2;" horiz-adv-x="664" 
d="M503 609q-82 -42 -156 5q-6 4 -14 9l-7 5q-1 2 -4 3l-32 22q-32 18 -62 16v-308l-4 -63q0 -25 2 -41q2 -20 8 -27q88 -89 200 -45q42 16 89 53q35 27 73 66l-144 -150q-39 -41 -74 -69q-46 -37 -89 -54q-112 -42 -201 48q-6 7 -9 28q-2 16 -1 42l3 64l1 387l146 124
l36 36q59 62 108 65q33 2 79 -28l37 -27q24 -14 42 -20q50 -17 106 7l3 -6zM530 955l-349 -1157l-51 23l349 1157z" />
    <glyph glyph-name="sterling" unicode="&#xa3;" horiz-adv-x="937" 
d="M729 287q-2 -2 -5 -4l110 96q-30 -26 -21 -61q4 -14 15 -32q6 -10 21 -32q14 -22 21 -32q10 -18 14 -32q9 -36 -21 -62l-115 -99q-64 -56 -149 -60q-62 -2 -159 27q-17 5 -41 13l-40 13q-49 15 -81 23q-93 23 -159 9l116 101q57 12 132 -3q29 -7 67 -18l60 -19l9 -3
l68 -21q38 -10 68 -16q74 -12 132 4q-2 21 -21 51l-26 39q-5 8 -8 13q-40 63 1 99l125 107l1 -2zM396 995l2 1l1 -833q7 -17 18 -33.5t26 -23.5l47 26q-1 -5 2.5 -8t8 -6t6 -6t-2.5 -6l-150 -84q-14 -7 -33 3.5t-47 43.5q-29 32 -66 45l-6 29q32 4 65 36v743l1 1v6
q-53 0 -82 22.5t-64 61.5l-105 -62l1 35l83 50l126 78q22 -25 39.5 -44t36.5 -33.5t41 -22.5t52 -8v-11zM537 513q-24 -18 -51 -25q-53 -11 -109 1q-21 4 -49 13l-45 15q-53 17 -88 17q-48 -1 -94 -32l-2 1l143 120q45 30 94 31q34 1 86 -15q8 -3 22 -7l22 -8q14 -5 23 -7
l24 -6q56 -12 106 -4l36 31l13 -15z" />
    <glyph glyph-name="currency" unicode="&#xa4;" horiz-adv-x="815" 
d="M389 715q-118 0 -201.5 -83t-83.5 -200t83.5 -200t201.5 -83t201.5 83t83.5 200t-83.5 200t-201.5 83zM225 115l-63 -212l-51 23l66 221q-19 14 -36 32q-102 102 -102 248t102 249q39 38 83 62l-64 219l51 23l65 -219q52 17 112 17q72 0 134 -26l66 217l51 -24l-66 -220
q33 -21 62 -49q102 -103 102 -249t-102 -248q-45 -45 -97 -70l56 -190l-51 -24l-58 194q-46 -13 -97 -13q-90 0 -163 39z" />
    <glyph glyph-name="yen" unicode="&#xa5;" horiz-adv-x="1015" 
d="M181 -235q-59 -54 -117 2q-37 33 -22 135q14 97 49 129l125 115q76 70 161 52q66 -14 139 -81q24 -20 48 -47l37 -44q22 12 51 23q-1 12 -4 41l-2 18l-1 93q0 51 1 89q3 107 13 157q10 44 13 111l-12 -10q-2 -3 -3 -4l-139 -128q-88 -81 -136 -38q-50 45 -58 104
q-4 22 -3 59l1 69q0 16 2 40l8 94q2 28 3 50q4 121 -41 164q-43 39 -142 14l128 117q93 25 137 -16q46 -43 44 -164q0 -23 -2 -51q-2 -17 -4 -49q-3 -32 -4 -45q-2 -24 -2 -40l-1 -70q-1 -37 2 -59q8 -59 57 -103q30 -27 80 -2l21 23l64 57q0 35 -2 79q-1 29 -4 80l-5 80
l-6 150q0 45 18 62l126 115q31 28 93 20q57 -7 89 -36l10 -12l-125 -115l-11 13q-25 23 -72 31l2 -19q1 -11 1 -18q0 -42 4 -110l7 -114q3 -65 1 -112q-2 -58 -12 -104q-10 -49 -13 -156q-1 -39 -1 -89l1 -93l5 -58q4 -51 -9 -63l-126 -115q-12 -11 -36 -23q-17 -8 -47 -19
l-18 -7q-4 -1 -6 -2q-14 -5 -23 -9q-24 -9 -36 -16q-41 52 -86 94q-51 45 -97 65q-57 25 -110 12q-19 -58 -20 -114q0 -64 26 -87q44 -40 86 -21l81 75q19 17 36 21l-128 -117l-7 -1zM903 336q-24 -18 -51 -25q-53 -11 -109 1q-21 4 -49 13l-45 15q-53 17 -88 17
q-48 -1 -94 -32l-2 1l143 120q45 30 94 31q34 1 86 -15q8 -3 22 -7l22 -8q14 -5 23 -7l24 -6q56 -12 106 -4l36 31l13 -15z" />
    <glyph glyph-name="brokenbar" unicode="&#xa6;" horiz-adv-x="356" 
d="M138 1252h91v-672h-91v672zM138 354h91v-669h-91v669z" />
    <glyph glyph-name="section" unicode="&#xa7;" horiz-adv-x="871" 
d="M466 261l105 110q23 52 8 142q-21 89 -75 141q-22 22 -54 44q-12 9 -29 18l-58 36q-16 11 -29 20q-32 22 -55 46l-32 -32l-19 -10q-110 -208 62 -378q27 -27 61 -54q14 -10 31 -24l62 -43q12 -9 22 -16zM352 1239l-38 -38q-12 -28 1 -72l22 -64l18 -72q12 -39 36 -62
t55 -45q13 -10 29 -19l59 -37l29 -19q31 -21 54 -44q62 -60 81 -160q20 -107 -36 -164l-178 -196q27 -22 49 -43q107 -104 128 -259q22 -166 -80 -267l-114 -113q-51 -50 -168 -29q-107 19 -155 67q-50 48 -68 129q-20 89 26 135l114 112q31 29 96 5q54 -21 89 -55l7 -7
l-115 -113l-4 7q-35 37 -103 58q7 -96 70 -158q37 -36 117 -58q86 -24 150 -9q46 104 13 235q-32 125 -116 208q-24 23 -58 49q-13 11 -30 23l-94 69q-35 26 -62 54q-97 94 -100 226q-3 133 92 227l95 93q-17 22 -26 57l-37 127q-13 44 -1 74q7 16 19 28l114 111l18 15
l110 109q22 -8 71 -21l41 -11q23 -7 41 -12q98 -30 133 -66q29 -27 36 -75q7 -51 -20 -77l-114 -113q-27 -26 -88 -17q-22 3 -49 11l-38 11l114 113l33 -10q25 -7 42 -10q-7 34 -29 55q-34 33 -133 64z" />
    <glyph glyph-name="dieresis" unicode="&#xa8;" horiz-adv-x="660" 
d="M199 1075q11 -10 20 -22l32 -45q8 -11 17 -19q7 -7 22 -13l-102 -91q-15 7 -23 14q-9 8 -18 20l-30 44q-9 13 -19 22l-16 11l103 90zM452 1081q32 -43 55 -62q26 -23 54 -33l-103 -90q-28 10 -53 33q-15 12 -31 31l-25 31z" />
    <glyph glyph-name="copyright" unicode="&#xa9;" horiz-adv-x="1308" 
d="M1105 1062q183 -181 183 -437q0 -255 -183 -436t-441 -181q-259 0 -442 181t-183 436q0 256 183 437t442 181q258 0 441 -181zM661 1151q-218 0 -371.5 -153.5t-153.5 -371.5q0 -217 153.5 -370.5t371.5 -153.5q217 0 370.5 153.5t153.5 370.5q0 218 -153.5 371.5
t-370.5 153.5zM474.4 817.71q4.90039 28 42.7012 67.9014l72.1016 71.4004q36.4004 35.001 71.4014 47.6016q41.3008 15.4004 65.1006 -9.10059q12.6006 -11.9004 30.8008 -54.6006q9.7998 -21.7012 14.7002 -32.2012q9.10059 -16.7998 18.9004 -26.6006
q24.5 -22.4004 60.9014 -11.8994l-73.502 -72.8018q-35.7002 -9.7998 -59.501 14q-9.7998 9.80078 -18.9004 26.6006q-5.59961 10.5 -14.7002 31.501q0 0.700195 -0.700195 1.39941l-12.5996 29.4014q-8.40039 15.3994 -16.1006 23.0996q-32.9004 32.9014 -95.9014 -5.59961
q-9.80078 -16.1006 -11.2002 -27.3008zM550.002 889.111v-382.207q0 -30.8008 2.80078 -52.501q7 -58.8008 38.5 -84.001q54.6016 -42.7012 114.802 -36.4014q26.6006 2.7998 60.2012 15.4004q21.7002 7 70.7012 27.3008l-94.501 -73.501
q-46.2012 -19.6006 -67.9014 -27.3008q-34.3008 -11.9004 -59.501 -14q-60.2012 -5.60059 -115.502 37.7998q-32.2012 25.2012 -40.6006 84.002q-2.10059 21.7002 -2.10059 52.501v381.507z" />
    <glyph glyph-name="ordfeminine" unicode="&#xaa;" horiz-adv-x="551" 
d="M155.197 1129.39q-11.1992 -88.7979 -11.1992 -179.197v-211.196q33.5996 -15.2002 52.3984 -34.3994q18.7998 -19.2002 38.7998 -40l120.798 49.5996q0 59.999 0.800781 118.398q1.59961 67.1982 1.99902 141.197q0.400391 73.999 0.400391 137.198
q-42.3994 0 -66.7988 18q-24.3994 17.999 -53.1992 49.1992zM222.396 1196.59l103.198 61.5986q18.3994 -19.999 32.3994 -35.1992q14 -15.1992 29.5996 -26.3994t33.5996 -17.5996q18 -6.40039 42.7998 -6.40039l-6.40039 -413.594q-2.39941 -28.7988 19.5996 -49.1992
q22 -20.3994 57.1992 -17.999l24.7998 7.19922l7.2002 -11.999l-133.599 -90.3994q-12 11.2002 -19.5996 19.2002t-15.1992 16.7998q-7.60059 8.7998 -17.2002 19.1992q-9.59961 10.4004 -24.7998 26.4004v3.19922l-121.598 -48.7988l-70.3994 -36.7998
q-34.3994 29.5996 -67.5986 49.1992t-86.7988 32.3994l29.5996 20.7998q-0.799805 99.999 -0.400391 199.997q0.400391 99.998 10 195.997l110.398 65.5986z" />
    <glyph glyph-name="guillemotleft" unicode="&#xab;" horiz-adv-x="1010" 
d="M589 -7l-531 352v129l531 353v-152l-410 -265l410 -265v-152zM947 -7l-531 352v129l531 353v-152l-410 -265l410 -265v-152z" />
    <glyph glyph-name="logicalnot" unicode="&#xac;" horiz-adv-x="792" 
d="M59 540v-108h551v-141h116v249h-667z" />
    <glyph glyph-name="minus" unicode="&#xad;" horiz-adv-x="834" 
d="M43 382q12 23 31 33l140 88q46 28 144 0l79 -24q42 -15 63 -18q140 -21 239 17l-79 -59q-120 -74 -299 -48q-18 3 -52 14l-63 21q-82 27 -127 23z" />
    <glyph glyph-name="minus" unicode="&#x2212;" horiz-adv-x="834" 
d="M43 382q12 23 31 33l140 88q46 28 144 0l79 -24q42 -15 63 -18q140 -21 239 17l-79 -59q-120 -74 -299 -48q-18 3 -52 14l-63 21q-82 27 -127 23z" />
    <glyph glyph-name="registered" unicode="&#xae;" horiz-adv-x="1381" 
d="M1128 1043q183 -181 183 -437q0 -255 -183 -436t-441 -181q-259 0 -442 181t-183 436q0 256 183 437t442 181q258 0 441 -181zM684 1132q-218 0 -371.5 -153.5t-153.5 -371.5q0 -217 153.5 -370.5t371.5 -153.5q217 0 370.5 153.5t153.5 370.5q0 218 -153.5 371.5
t-370.5 153.5zM499.902 798.01l-1.40039 0.700195q16.1006 18.2002 39.2012 39.2012l93.8018 80.501q63.001 54.6016 126.702 65.8018q75.6006 14 137.202 -39.2012q13.2998 -11.9004 11.9004 -31.5l-4.2002 -32.9014q-0.700195 -17.5 2.7998 -58.8008
q0.700195 -2.7998 0.700195 -8.40039l4.90039 -62.3008l-2.80078 -39.2002q-5.59961 -32.2012 -23.0996 -46.9014l-93.1025 -80.501q-14.7002 -12.6006 -23.7998 -19.6006l-23.1006 -17.5q-25.9004 -17.501 -48.3008 -22.4004q-21.7002 -4.2002 -56.001 0
q-13.3008 2.09961 -31.501 4.89941l-31.5 6.30078q-40.6006 7.7002 -63.7012 9.09961q-33.6006 2.10059 -56.7012 -6.2998l-50.4004 -43.4004q10.5 18.2002 22.4004 28.7002l92.4014 80.501q22.4004 19.6006 58.8008 22.4004q27.3008 2.10059 70.7012 -5.59961
q7.7002 -1.40039 18.9004 -3.5l53.9014 -9.80078q40.6006 -6.2998 65.1006 -0.699219l19.6006 5.59961q7.7002 19.6006 8.40039 50.4004q1.39941 24.501 -1.40039 59.502l-5.59961 30.0996q-2.80078 32.2012 -2.80078 48.3018q0.700195 2.7998 1.40039 7l2.7998 16.7998
l1.40039 8.40039q1.39941 19.6006 -10.5 30.1006q-51.1016 44.8008 -112.702 42.7002q-53.2012 -2.09961 -108.502 -37.7998zM637.805 889.712l1.40039 0.700195l0.699219 -583.11q4.90039 -11.9004 12.6006 -23.4502q7.7002 -11.5508 18.2002 -16.4502l32.9004 18.2002
q-0.700195 -3.5 1.75 -5.60059q2.4502 -2.09961 5.60059 -4.2002q3.14941 -2.09961 4.2002 -4.19922q1.0498 -2.10059 -1.75 -4.2002l-105.002 -58.8018q-9.80078 -4.89941 -23.1006 2.4502q-13.2998 7.35059 -32.9004 30.4512q-20.3008 22.4004 -46.2012 31.5
l-4.2002 20.3008q22.4004 2.7998 45.501 25.2002v520.109l0.700195 0.699219v4.2002q-37.1006 0 -57.4014 15.751q-20.2998 15.75 -44.8008 43.0508l-73.501 -43.4014l0.700195 24.501l58.1006 35l88.2021 54.6016q15.3994 -17.501 27.6504 -30.8008
q12.25 -13.3008 25.5498 -23.4502q13.3008 -10.1504 28.7012 -15.751q15.4004 -5.59961 36.4004 -5.59961v-7.7002zM675.605 523.605l-0.700195 0.700195l86.1016 77.001q12.6006 -0.700195 24.5 -4.90039q16.1006 -5.59961 30.1006 -18.8994
q23.8008 -21.001 46.2012 -63.7012l19.6006 -40.6006l35.7002 -86.1016q9.7998 -23.1006 17.5 -39.2012q14.7002 -28.7002 32.2012 -50.4004l27.2998 15.3994l8.40039 -15.3994l-18.9004 -17.501l-1.39941 0.700195q0.699219 -0.700195 1.39941 -1.40039
q-41.3008 -13.2998 -79.1016 -63.001v-0.700195q-9.09961 -9.09961 -14 -4.19922q-21 17.5 -42.001 58.8008q-7.69922 16.7998 -17.5 39.9004l-35.7002 85.4014q-10.501 23.8008 -18.9004 41.3008q-22.4004 42.7012 -45.501 63.7012q-25.9004 23.1006 -56.001 23.1006
h0.700195z" />
    <glyph glyph-name="macron" unicode="&#xaf;" horiz-adv-x="445" 
d="M440 1501v-100h-444v100h444z" />
    <glyph glyph-name="macron" unicode="&#x2c9;" horiz-adv-x="445" 
d="M440 1501v-100h-444v100h444z" />
    <glyph glyph-name="degree" unicode="&#xb0;" horiz-adv-x="602" 
d="M299 1702q99 0 169 -71.5t70 -172.5q0 -102 -70 -173.5t-169 -71.5t-169 71.5t-70 173.5q0 101 70 172.5t169 71.5zM299 1610q-62 0 -105 -44.5t-43 -107.5t43 -107t105 -44q61 0 104.5 44t43.5 107t-43.5 107.5t-104.5 44.5z" />
    <glyph glyph-name="plusminus" unicode="&#xb1;" horiz-adv-x="830" 
d="M122 438q10 23 25 36l100 102q26 27 71 39q39 11 93 13q40 1 92 -3q16 0 40 -4l34 -2q139 -12 253 61l-106 -107q-107 -71 -247 -58l-45 4q-10 1 -19 2q-43 4 -77 4q-100 1 -155 -27zM465 915v-17l-3 -48q0 -37 3 -68q4 -38 22 -84l25 -58q6 -11 8 -19q19 -43 23 -78
q7 -45 -6 -94q-12 -40 -26 -67q-2 -6 -7 -12l-2 -6l-2 -2l-8 -16q-3 -6 -7 -13l-105 -106l29 53q14 28 24 67q15 49 9 94q-4 35 -23 80l-35 75q-18 45 -22 85q-3 30 -1 68l1 64zM58 138q12 23 31 33l140 88q46 28 144 0l79 -24q42 -15 63 -18q140 -21 239 17l-79 -59
q-120 -74 -299 -48q-18 3 -52 14l-63 21q-82 27 -127 23z" />
    <glyph glyph-name="uni00B2" unicode="&#xb2;" horiz-adv-x="473" 
d="M29.0996 963.036q-13.0195 35.96 8.06055 57.04l78.1191 79.3594q55.1797 55.1797 101.679 71.2988q58.8994 19.2207 103.539 -26.0391l68.2002 -63.2402q33.4795 -34.7197 44.0195 -59.5195q14.2598 -33.4795 -8.06055 -55.1797l-78.1191 -79.3594
q-28.5195 -27.8994 -94.8594 -50.8389l-55.1797 -17.9805q-32.2393 -10.54 -52.6992 -19.8398q-15.5 -50.8389 -6.82031 -129.579q7.44043 -71.9189 29.1406 -119.039l32.8594 34.1006q39.0596 39.0596 81.8389 58.8994q51.46 24.1797 74.3994 0
q21.7002 -21.7002 35.96 -62.6201l6.82031 -20.46l-83.0791 -65.7188l-2.48047 6.81934q-14.2598 42.1602 -34.0996 62.6201q-32.2402 32.2393 -107.879 -18.5996l-78.1201 -79.9795q-31.6191 57.6592 -37.1992 153.759q-5.58008 106.019 33.4795 145.078l78.1191 78.7402
q27.9004 27.8994 88.6602 48.3594l52.0791 17.3594q32.2393 9.91992 51.46 18.5996q-4.33984 30.3799 -48.3604 75.0195l-67.5791 62q-58.2793 59.5195 -140.119 9.2998q-1.85938 -19.2197 11.7803 -46.5l17.3594 -27.8994l-91.1387 -59.5195
q-8.06055 13.0195 -11.7803 23.5596z" />
    <glyph glyph-name="uni00B3" unicode="&#xb3;" horiz-adv-x="507" 
d="M9.97949 1040.36l-9.91992 37.8203q-1.24023 5.58008 -3.09961 10.54l93.6191 114.079q16.7393 -1.24023 35.3398 -0.620117q21.0791 0 47.1191 2.47949l98.5791 11.1602l48.9805 4.33984q55.1787 3.10059 94.8584 -1.85938q-27.2793 -34.0996 -68.1992 -77.5
l-61.999 -63.8594q-38.4404 -39.6797 -63.8594 -75.0195q-30.3799 -43.3994 -48.3604 -86.1787q47.1201 45.8789 101.68 66.959q69.4395 26.6602 108.499 -14.2598q51.459 -52.6992 56.4199 -171.738q4.95898 -119.659 -41.54 -169.259l-78.7393 -80.5996
q-33.4805 -35.3398 -86.7998 -6.82031q-19.8398 11.7803 -42.1592 30.3799l-40.2998 40.2998q-30.3799 32.2402 -62 35.3398q-7.43945 -35.96 -1.23926 -65.7197l-79.3594 -81.8389q-13.0205 81.8389 32.2393 128.339l78.1191 81.8389q48.9795 48.9805 110.359 -17.3594
l29.7598 -29.7598q14.2598 -13.6396 27.8994 -23.5596q35.3398 -26.6602 64.4805 -28.5205q18.5996 68.2002 6.81934 151.899q-13.0195 86.1787 -50.8398 125.239q-39.6797 41.5391 -110.979 13.6396q-27.2803 -10.54 -57.04 -31.6201q-25.4199 -17.3594 -47.1191 -38.4395
q21.0801 51.459 59.5195 101.059q16.1191 21.0801 36.5791 44.6406q16.1201 17.9795 39.6797 42.1592l62.6201 64.4795l46.499 52.6992q-26.6592 3.7207 -59.5195 3.10059q-27.2793 -0.620117 -62.6191 -3.71973l-55.7998 -5.58008q-4.33984 -0.620117 -7.43945 -0.620117
q-39.0596 -4.95996 -62.6201 -6.82031q6.82031 -26.04 10.54 -39.0596q4.33984 -12.4004 9.2998 -21.7002l-82.459 -71.2988q-8.05957 20.46 -15.5 50.8389z" />
    <glyph glyph-name="acute" unicode="&#xb4;" horiz-adv-x="465" 
d="M382 1117q-21 -35 -61 -83q-26 -31 -54 -62q-38 -41 -77 -77l-60 -57l75 201q14 14 30 29l31 28q40 37 74 74l23 27q17 19 31 35q39 48 62 85z" />
    <glyph glyph-name="paragraph" unicode="&#xb6;" horiz-adv-x="1244" 
d="M453 751l2 -1l-115 -112q-51 -49 -132 -23q-64 22 -122 77q-30 29 -32 111q-3 74 15 127l105 102q-18 -56 -16 -130q2 -83 32 -111q52 -51 113 -73q76 -26 125 10zM862 905v-790l-104 -100v790zM494 1007q0 -88 -1 -181l-5 -499v-225l-105 -100v227l6 678zM63 911
q5 74 61 127l104 100q37 36 96 30q8 -1 17 -5q5 -4 13 -10l3 -3l10 -8q7 -6 15 -10l38 -16q7 -2 11 -5q27 -10 44 -19q46 -23 82 -58q50 -49 152 -76q87 -24 174 -24h51q29 0 50 1q56 3 93 16q19 63 -31 112q-63 58 -157 38l105 102q91 19 155 -42q86 -82 -8 -173l-104 -100
q-41 -39 -115 -50q-29 -4 -69 -5h-72q-87 0 -174 24q-102 27 -152 76q-36 35 -82 57q-16 9 -43 21q-5 1 -12 5l-38 16q-8 2 -15 9l-10 8l-3 3q-7 6 -13 9q-9 4 -17 6q-22 2 -40 0q-12 -28 -14 -56z" />
    <glyph glyph-name="periodcentered" unicode="&#xb7;" 
d="M190 226l-124 124l124 124l125 -124z" />
    <glyph glyph-name="periodcentered" unicode="&#x2219;" 
d="M190 226l-124 124l124 124l125 -124z" />
    <glyph glyph-name="cedilla" unicode="&#xb8;" horiz-adv-x="393" 
d="M203 57l51 -31l-47 -57l156 -117v-170l-208 -129l-143 153l29 21l88 -95l117 79v127l-86 64l-40 -39l-54 39z" />
    <glyph glyph-name="uni00B9" unicode="&#xb9;" horiz-adv-x="351" 
d="M69.6797 1029.1q17.9795 24.7998 23.5596 38.4395l90.5195 80.5996q30.3799 -35.96 37.8193 -99.8193q3.10059 -23.5596 3.10059 -57.04v-58.2793q0 -47.7393 1.23926 -105.398l6.82031 -207.699q1.86035 -57.6592 1.86035 -102.919l-91.7598 -80.5996
q0 45.8799 -1.23926 103.54l-6.82031 208.318q-1.86035 57.6592 -1.86035 105.398l0.620117 53.3203q0 30.999 -1.85938 52.6992q-4.96094 58.8994 -27.9004 94.2393l-40.2998 -35.96l-3.71973 4.95996q4.95996 3.10059 9.91992 6.2002z" />
    <glyph glyph-name="ordmasculine" unicode="&#xba;" horiz-adv-x="454" 
d="M127.799 740.6q26.04 -11.7803 40.6104 -26.6602q14.5693 -14.8799 30.0693 -31l99.1992 40.9199l-2.48047 -26.6602l-97.3389 -39.0596l-54.5596 -28.5195q-26.6602 22.9395 -52.3896 38.1299q-25.7295 15.1895 -67.2695 25.1094l22.9404 16.1201
q-0.620117 77.499 -0.310547 154.999q0.310547 77.499 7.75 151.898l81.2197 48.3594q-7.44043 -78.1191 -7.44043 -160.269v-163.368zM295.817 700.3l-1.23926 328.597q-33.4805 0 -52.0801 13.9502t-40.9199 38.1299l-66.3389 -38.4395l0.620117 21.6992l52.6992 31
l79.9795 47.7393q14.2598 -15.499 25.1094 -27.2793q10.8506 -11.7803 22.9404 -20.46t26.0391 -13.6396q13.9502 -4.95996 33.1699 -4.95996l-1.85938 -336.657z" />
    <glyph glyph-name="guillemotright" unicode="&#xbb;" horiz-adv-x="961" 
d="M399 149l401 264l-401 262v152l518 -352v-127l-518 -351v152zM48 149l401 264l-401 262v152l518 -352v-127l-518 -351v152z" />
    <glyph glyph-name="onequarter" unicode="&#xbc;" horiz-adv-x="1005" 
d="M72.3984 979.978q17.3994 23.999 22.7988 37.1992l87.5967 77.9961q29.3984 -34.7979 36.5986 -96.5957q3 -22.7988 3 -55.1982v-56.3975q0 -46.1982 1.19922 -101.995l6.60059 -200.992q1.7998 -55.7979 1.7998 -99.5957l-88.7969 -77.9971q0 44.3984 -1.19922 100.196
l-6.60059 201.592q-1.7998 55.7969 -1.7998 101.995l0.600586 51.5986q0 29.998 -1.7998 50.9971q-4.80078 56.998 -26.999 91.1963l-38.999 -34.7979l-3.59961 4.7998q4.7998 3 9.59961 5.99902zM75 -12l571 1156h93l-576 -1161zM818.788 676.173
q0 -25.1982 6.59961 -52.7979l30.5986 -95.3955q7.19922 -27.5996 7.7998 -51.5986q0.599609 -24.5986 0.599609 -56.3975l0.600586 -56.9971l86.9961 3.59961l-75.5967 -75.5977h-12.5996q-0.600586 -27.5986 -1.2002 -64.7969l-2.40039 -124.795l-0.599609 -58.1973
l-76.7969 -74.3975l3 195.592q0.599609 23.3994 1.2002 40.7988q0.599609 46.7979 1.2002 82.1963l-69.5977 -3.59961q-39.5986 -1.7998 -68.9971 -1.7998q-77.3975 0 -125.995 13.1992q9 24.5986 24.5996 53.998l20.3984 37.1982q4.2002 7.7998 6.59961 12.5996
q16.7998 29.999 26.3994 52.1982q13.1992 30.5986 20.999 61.1973l76.7969 75.5967q-7.7998 -31.7988 -20.999 -62.3975q-10.2002 -22.7988 -26.3994 -52.7979q-3 -5.39941 -7.19922 -12.5996l-19.7988 -37.7979q-15.5996 -28.7988 -24.5996 -53.998
q36.5986 -9 88.7969 -10.7998q38.3984 -1.2002 98.9961 1.2002l-1.2002 44.3984q-0.600586 23.999 -7.7998 50.9971l-30.5986 95.3965q-6.59961 26.999 -6.59961 51.5977z" />
    <glyph glyph-name="onehalf" unicode="&#xbd;" horiz-adv-x="981" 
d="M68.3984 993.978q17.3994 23.999 22.7988 37.1992l87.5967 77.9961q29.3984 -34.7979 36.5986 -96.5957q3 -22.7988 3 -55.1982v-56.3975q0 -46.1982 1.19922 -101.995l6.60059 -200.992q1.7998 -55.7979 1.7998 -99.5957l-88.7969 -77.9971q0 44.3984 -1.19922 100.196
l-6.60059 201.592q-1.7998 55.7969 -1.7998 101.995l0.600586 51.5986q0 29.998 -1.7998 50.9971q-4.80078 56.998 -26.999 91.1963l-38.999 -34.7979l-3.59961 4.7998q4.7998 3 9.59961 5.99902zM47 -9l571 1156h93l-576 -1161zM497.999 458.182
q-12.5996 34.7988 7.7998 55.1982l75.5967 76.7969q53.3975 53.3975 98.3955 68.9971q56.998 18.5996 100.196 -25.1992l65.9971 -61.1973q32.3984 -33.5986 42.5986 -57.5977q13.7988 -32.3984 -7.7998 -53.3984l-75.5967 -76.7969q-27.5996 -26.998 -91.7969 -49.1973
l-53.3975 -17.3994q-31.1992 -10.2002 -50.998 -19.1992q-14.999 -49.1982 -6.59961 -125.396q7.19922 -69.5967 28.1992 -115.195l31.7979 32.999q37.7988 37.7988 79.1973 56.998q49.7979 23.3984 71.9971 0q20.999 -20.999 34.7988 -60.5977l6.59961 -19.7998
l-80.3965 -63.5967l-2.40039 6.59961q-13.7998 40.7979 -32.999 60.5977q-31.1982 31.1982 -104.396 -17.999l-75.5967 -77.3975q-30.5986 55.7979 -35.999 148.794q-5.39941 102.596 32.3994 140.395l75.5967 76.1973q26.999 26.998 85.7969 46.7979l50.3975 16.7988
q31.1982 9.59961 49.7979 17.999q-4.19922 29.3994 -46.7979 72.5977l-65.3975 59.9971q-56.3975 57.5977 -135.595 9q-1.7998 -18.5996 11.3994 -44.998l16.7998 -26.999l-88.1963 -57.5977q-7.7998 12.5996 -11.3994 22.7988z" />
    <glyph glyph-name="threequarters" unicode="&#xbe;" horiz-adv-x="1127" 
d="M58.3984 955.779l-9.59961 36.5986q-1.2002 5.40039 -3 10.2002l90.5957 110.396q16.1992 -1.2002 34.1992 -0.600586q20.3984 0 45.5977 2.40039l95.3965 10.7998l47.3984 4.19922q53.3975 3 91.7959 -1.7998q-26.3994 -32.998 -65.9971 -74.9971l-59.998 -61.7969
q-37.1982 -38.3984 -61.7969 -72.5977q-29.3994 -41.998 -46.7988 -83.3965q45.5986 44.3984 98.3965 64.7979q67.1973 25.7988 104.995 -13.7998q49.7979 -50.998 54.5986 -166.193q4.79883 -115.795 -40.1992 -163.793l-76.1963 -77.9971
q-32.3994 -34.1982 -83.9971 -6.59961q-19.1992 11.3994 -40.7979 29.3984l-38.999 38.999q-29.3984 31.1982 -59.9971 34.1982q-7.2002 -34.7988 -1.2002 -63.5977l-76.7969 -79.1963q-12.5996 79.1963 31.1992 124.194l75.5967 79.1973q47.3975 47.3984 106.796 -16.7998
l28.7988 -28.7988q13.7988 -13.1992 26.998 -22.7988q34.1992 -25.7988 62.3984 -27.5986q17.999 65.9971 6.59961 146.994q-12.5996 83.3965 -49.1982 121.195q-38.3984 40.1982 -107.396 13.1992q-26.3994 -10.2002 -55.1982 -30.5986
q-24.5986 -16.7998 -45.5977 -37.1992q20.3994 49.7979 57.5977 97.7959q15.5986 20.3994 35.3984 43.1992q15.5996 17.3984 38.3984 40.7979l60.5977 62.3975l44.998 50.998q-25.7988 3.59961 -57.5977 3q-26.3994 -0.600586 -60.5977 -3.59961l-53.998 -5.40039
q-4.19922 -0.599609 -7.19922 -0.599609q-37.7988 -4.7998 -60.5977 -6.59961q6.59961 -25.1992 10.1992 -37.7988q4.2002 -12 9 -20.999l-79.7969 -68.9971q-7.7998 19.7988 -14.999 49.1973zM250 -30l571 1156h93l-576 -1161zM930.788 665.173
q0 -25.1982 6.59961 -52.7979l30.5986 -95.3955q7.19922 -27.5996 7.7998 -51.5986q0.599609 -24.5986 0.599609 -56.3975l0.600586 -56.9971l86.9961 3.59961l-75.5967 -75.5977h-12.5996q-0.600586 -27.5986 -1.2002 -64.7969l-2.40039 -124.795l-0.599609 -58.1973
l-76.7969 -74.3975l3 195.592q0.599609 23.3994 1.2002 40.7988q0.599609 46.7979 1.2002 82.1963l-69.5977 -3.59961q-39.5986 -1.7998 -68.9971 -1.7998q-77.3975 0 -125.995 13.1992q9 24.5986 24.5996 53.998l20.3984 37.1982q4.2002 7.7998 6.59961 12.5996
q16.7998 29.999 26.3994 52.1982q13.1992 30.5986 20.999 61.1973l76.7969 75.5967q-7.7998 -31.7988 -20.999 -62.3975q-10.2002 -22.7988 -26.3994 -52.7979q-3 -5.39941 -7.19922 -12.5996l-19.7988 -37.7979q-15.5996 -28.7988 -24.5996 -53.998
q36.5986 -9 88.7969 -10.7998q38.3984 -1.2002 98.9961 1.2002l-1.2002 44.3984q-0.600586 23.999 -7.7998 50.9971l-30.5986 95.3965q-6.59961 26.999 -6.59961 51.5977z" />
    <glyph glyph-name="questiondown" unicode="&#xbf;" horiz-adv-x="669" 
d="M486 1014q15 -2 28 -13q9 -9 21 -33q12 -25 20 -34q7 -7 20 -12l-101 -103l-10 5q-6 3 -10 7q-8 9 -20 34q-12 24 -21 33q-11 11 -28 11zM593 189q-21 -2 -53 -38l-101 -102q-43 -43 -21 -65q8 -9 29 -13q44 -1 77 -14q18 -7 30 -12q13 -6 17 -10q35 -36 15 -115
q-86 -32 -194 -12q-108 19 -165 77q-72 74 -88 157q-17 89 36 165q59 53 143 53l43 -5q9 -2 15 -2q35 -3 57 19l101 103q24 25 24 72q0 15 -3 41l-2 21q-2 12 -2 21q-3 43 -2 113l2 118l-102 -103l-2 -117q-1 -70 2 -113q0 -8 1 -17l4 -34q1 -10 2 -18q-26 6 -38 6
q-91 0 -151 -61q-14 -14 -34 -32l-132 -134q-78 -78 -66 -179q10 -93 92 -176q72 -75 214 -86q147 -10 218 63l101 103q26 27 32 84q7 62 -22 89q-5 6 -25 15q-17 7 -43 16q-50 17 -78 23q-14 4 -11 16z" />
    <glyph glyph-name="Agrave" unicode="&#xc0;" horiz-adv-x="942" 
d="M218 500q78 20 170 5q27 -4 79 -16q54 -13 80 -17l19 -3q12 -3 22 -4q28 -4 49 -5q62 -4 87 13l-113 -111q-21 -15 -80 -10l-49 6l-81 15l-40 9q-52 12 -79 16q-93 15 -173 -5zM1034 185q-4 -33 -26 -54l-106 -106q-35 -36 -94 -36q-58 0 -112 34q-44 42 -47 136
q-1 30 -57 667q-30 54 -81 106q-73 75 -197 20q-10 -33 -6 -66l-109 -108q-8 72 47 130l107 107q54 54 134 63q82 10 129 -39q52 -52 85 -124l80 -664q-1 -80 43 -122q46 -46 128 -28zM-42 -55q16 30 32 48l107 104q32 31 76 24q17 -3 40 -12q9 -4 21 -9l21 -10
q55 -25 86 -29q48 -5 87 28l1 -1l-107 -106q-33 -32 -74 -31q-31 1 -77 22l-38 18q-22 10 -37 16q-41 15 -70 7zM562 952l-338 -879l-55 21l338 879zM148 1592q22 -37 62 -85q14 -16 30 -35l24 -27q34 -37 73 -74l31 -28q17 -15 31 -29l75 -201l-61 57q-39 36 -76 77
q-28 31 -54 62q-40 48 -62 83z" />
    <glyph glyph-name="Aacute" unicode="&#xc1;" horiz-adv-x="995" 
d="M243 521q78 20 170 5q27 -4 79 -16q54 -13 80 -17l19 -3q12 -3 22 -4q28 -4 49 -5q62 -4 87 13l-113 -111q-21 -15 -80 -10l-49 6l-81 15l-40 9q-52 12 -79 16q-93 15 -173 -5zM1059 206q-4 -33 -26 -54l-106 -106q-35 -36 -94 -36q-58 0 -112 34q-44 42 -47 136
q-1 30 -57 667q-30 54 -81 106q-73 75 -197 20q-10 -33 -6 -66l-109 -108q-8 72 47 130l107 107q54 54 134 63q82 10 129 -39q52 -52 85 -124l80 -664q-1 -80 43 -122q46 -46 128 -28zM-17 -34q16 30 32 48l107 104q32 31 76 24q17 -3 40 -12q9 -4 21 -9l21 -10
q55 -25 86 -29q48 -5 87 28l1 -1l-107 -106q-33 -32 -74 -31q-31 1 -77 22l-38 18q-22 10 -37 16q-41 15 -70 7zM587 973l-338 -879l-55 21l338 879zM829 1467q-21 -35 -61 -83q-26 -31 -54 -62q-38 -41 -77 -77l-60 -57l75 201q14 14 30 29l31 28q40 37 74 74l23 27
q17 19 31 35q39 48 62 85z" />
    <glyph glyph-name="Acircumflex" unicode="&#xc2;" horiz-adv-x="981" 
d="M242 543q78 20 170 5q27 -4 79 -16q54 -13 80 -17l19 -3q12 -3 22 -4q28 -4 49 -5q62 -4 87 13l-113 -111q-21 -15 -80 -10l-49 6l-81 15l-40 9q-52 12 -79 16q-93 15 -173 -5zM1058 228q-4 -33 -26 -54l-106 -106q-35 -36 -94 -36q-58 0 -112 34q-44 42 -47 136
q-1 30 -57 667q-30 54 -81 106q-73 75 -197 20q-10 -33 -6 -66l-109 -108q-8 72 47 130l107 107q54 54 134 63q82 10 129 -39q52 -52 85 -124l80 -664q-1 -80 43 -122q46 -46 128 -28zM-18 -12q16 30 32 48l107 104q32 31 76 24q17 -3 40 -12q9 -4 21 -9l21 -10
q55 -25 86 -29q48 -5 87 28l1 -1l-107 -106q-33 -32 -74 -31q-31 1 -77 22l-38 18q-22 10 -37 16q-41 15 -70 7zM586 995l-338 -879l-55 21l338 879zM394 1338q22 -3 48 -17q17 -9 47 -29q1 -1 3 -2l3 -2q3 -3 6 -4q7 -5 12 -8q13 -9 23 -15q27 -15 51 -20q41 -8 80 -1
l124 80q-24 -35 -57 -56l-116 -75q-67 -42 -148 -25q-23 4 -50 19q-11 6 -24 15l-24 15q-29 21 -47 30q-26 14 -50 16z" />
    <glyph glyph-name="Atilde" unicode="&#xc3;" horiz-adv-x="1000" 
d="M262 542q78 20 170 5q27 -4 79 -16q54 -13 80 -17l19 -3q12 -3 22 -4q28 -4 49 -5q62 -4 87 13l-113 -111q-21 -15 -80 -10l-49 6l-81 15l-40 9q-52 12 -79 16q-93 15 -173 -5zM1078 227q-4 -33 -26 -54l-106 -106q-35 -36 -94 -36q-58 0 -112 34q-44 42 -47 136
q-1 30 -57 667q-30 54 -81 106q-73 75 -197 20q-10 -33 -6 -66l-109 -108q-8 72 47 130l107 107q54 54 134 63q82 10 129 -39q52 -52 85 -124l80 -664q-1 -80 43 -122q46 -46 128 -28zM2 -13q16 30 32 48l107 104q32 31 76 24q17 -3 40 -12q9 -4 21 -9l21 -10q55 -25 86 -29
q48 -5 87 28l1 -1l-107 -106q-33 -32 -74 -31q-31 1 -77 22l-38 18q-22 10 -37 16q-41 15 -70 7zM606 994l-338 -879l-55 21l338 879zM275 1218q0 1 1 2l15 18l105 97q28 27 80 27q20 0 49 -4l53 -9q68 -11 106 -8q58 5 95 41l17 15l1 -1l-112 -105q-38 -36 -93 -43
q-39 -6 -101 3l-50 7q-29 5 -48 6q-51 3 -81 -13z" />
    <glyph glyph-name="Adieresis" unicode="&#xc4;" horiz-adv-x="991" 
d="M252 521q78 20 170 5q27 -4 79 -16q54 -13 80 -17l19 -3q12 -3 22 -4q28 -4 49 -5q62 -4 87 13l-113 -111q-21 -15 -80 -10l-49 6l-81 15l-40 9q-52 12 -79 16q-93 15 -173 -5zM1068 206q-4 -33 -26 -54l-106 -106q-35 -36 -94 -36q-58 0 -112 34q-44 42 -47 136
q-1 30 -57 667q-30 54 -81 106q-73 75 -197 20q-10 -33 -6 -66l-109 -108q-8 72 47 130l107 107q54 54 134 63q82 10 129 -39q52 -52 85 -124l80 -664q-1 -80 43 -122q46 -46 128 -28zM-8 -34q16 30 32 48l107 104q32 31 76 24q17 -3 40 -12q9 -4 21 -9l21 -10
q55 -25 86 -29q48 -5 87 28l1 -1l-107 -106q-33 -32 -74 -31q-31 1 -77 22l-38 18q-22 10 -37 16q-41 15 -70 7zM596 973l-338 -879l-55 21l338 879zM425 1349q11 -10 20 -22l32 -45q8 -11 17 -19q7 -7 22 -13l-102 -91q-15 7 -23 14q-9 8 -18 20l-30 44q-9 13 -19 22
l-16 11l103 90zM678 1355q32 -43 55 -62q26 -23 54 -33l-103 -90q-28 10 -53 33q-15 12 -31 31l-25 31z" />
    <glyph glyph-name="Aring" unicode="&#xc5;" horiz-adv-x="1035" 
d="M266 509q78 20 170 5q27 -4 79 -16q54 -13 80 -17l19 -3q12 -3 22 -4q28 -4 49 -5q62 -4 87 13l-113 -111q-21 -15 -80 -10l-49 6l-81 15l-40 9q-52 12 -79 16q-93 15 -173 -5zM1082 194q-4 -33 -26 -54l-106 -106q-35 -36 -94 -36q-58 0 -112 34q-44 42 -47 136
q-1 30 -57 667q-30 54 -81 106q-73 75 -197 20q-10 -33 -6 -66l-109 -108q-8 72 47 130l107 107q54 54 134 63q82 10 129 -39q52 -52 85 -124l80 -664q-1 -80 43 -122q46 -46 128 -28zM6 -46q16 30 32 48l107 104q32 31 76 24q17 -3 40 -12q9 -4 21 -9l21 -10q55 -25 86 -29
q48 -5 87 28l1 -1l-107 -106q-33 -32 -74 -31q-31 1 -77 22l-38 18q-22 10 -37 16q-41 15 -70 7zM610 961l-338 -879l-55 21l338 879zM513.237 1142.47q20.832 -9.42383 32.4883 -21.3281q11.6553 -11.9033 24.0547 -24.7988l79.3584 32.7344l-1.98438 -21.3271
l-77.8701 -31.2471l-43.6465 -22.8154q-21.3281 18.3516 -41.9111 30.5029q-20.584 12.1523 -53.8154 20.0879l18.3525 12.8955q-0.496094 61.998 -0.249023 123.997q0.249023 61.999 6.2002 121.518l64.9746 38.6865q-5.95215 -62.4941 -5.95215 -128.213v-130.692z
M647.65 1110.23l-0.991211 262.873q-26.7842 0 -41.6641 11.1602q-14.8789 11.1602 -32.7354 30.5029l-53.0703 -30.751l0.496094 17.3594l42.1592 24.7998l63.9824 38.1904q11.4072 -12.3984 20.0869 -21.8232q8.68066 -9.42383 18.3525 -16.3672t20.8311 -10.9121
q11.1602 -3.96777 26.5352 -3.96777l-1.4873 -269.321z" />
    <glyph glyph-name="AE" unicode="&#xc6;" horiz-adv-x="1400" 
d="M312.888 509q79.999 20 170.5 5q26.5996 -4 77.4004 -16q52.7002 -13 78.2998 -17l18.7002 -3q11.7002 -3 21.6006 -4q27.5996 -4 48.5 -5q61.5996 -4 88.2998 13l-124.098 -111q-22.499 -15 -81 -10l-48.3994 6l-79.501 15l-39.0996 9q-50.8008 12 -77.4004 16
q-91.501 15 -173.5 -5zM1097.4 194q-7.2998 -33 -31.3994 -54l-116.597 -106q-38.5996 -36 -97.5996 -36q-58 0 -108.601 34q-39.8008 42 -33.4033 136q1.99902 30 9.68359 667q-24.6016 54 -70.4023 106q-65.502 75 -195.001 20q-13.2988 -33 -12.5977 -66l-119.798 -108
q-0.801758 72 59.9971 130l117.697 107q59.3984 54 140.299 63q82.999 10 125.101 -39q46.8018 -52 72.6025 -124l13.6172 -664q-8.99805 -80 30.8027 -122q41.4004 -46 125.2 -28zM-2.59863 -46q18.999 30 36.7988 48l117.397 104q35.0986 31 78.3994 24
q16.7002 -3 38.7998 -12q8.60059 -4 20.1006 -9l20 -10q52.501 -25 83.1006 -29q47.5 -5 89.7998 28l0.899414 -1l-117.597 -106q-36.1992 -32 -77.0996 -31q-30.9004 1 -74.8008 22l-36.2002 18q-21 10 -35.4004 16q-39.5 15 -69.2998 7zM702.076 961l-425.878 -879
l-52.9004 21l425.878 879zM1265 59q-24 -18 -51 -25q-53 -11 -109 1q-21 4 -49 13l-45 15q-53 17 -88 17q-48 -1 -94 -32l-2 1l143 120q45 30 94 31q34 1 86 -15q8 -3 22 -7l22 -8q14 -5 23 -7l24 -6q56 -12 106 -4l36 31l13 -15zM1212 946q-24 -18 -51 -25q-53 -11 -109 1
q-21 4 -49 13l-45 15q-53 17 -88 17q-48 -1 -94 -32l-2 1l143 120q45 30 94 31q34 1 86 -15q8 -3 22 -7l22 -8q14 -5 23 -7l24 -6q56 -12 106 -4l36 31l13 -15zM1099.87 472.51q-17.2793 -12.96 -36.7188 -18q-38.1582 -7.91992 -78.4766 0.720703
q-15.1191 2.87891 -35.2783 9.35938l-32.3994 10.7988q-38.1582 12.2402 -63.3574 12.2402q-34.5586 -0.720703 -67.6768 -23.0391l-1.44043 0.719727l102.956 86.3965q32.3994 21.5986 67.6777 22.3193q24.4785 0.719727 61.917 -10.7998
q5.75977 -2.16016 15.8398 -5.04004l15.8389 -5.75977q10.0801 -3.59961 16.5596 -5.03906l17.2793 -4.32031q40.3184 -8.63965 76.3164 -2.87988l25.9199 22.3193l9.35938 -10.7998z" />
    <glyph glyph-name="Ccedilla" unicode="&#xc7;" horiz-adv-x="644" 
d="M82 791q7 40 61 97l103 102q52 50 102 68q59 22 93 -13q18 -17 44 -78q14 -31 21 -46q13 -24 27 -38q35 -32 87 -17l-105 -104q-51 -14 -85 20q-14 14 -27 38q-8 15 -21 45q0 1 -1 2l-18 42q-12 22 -23 33q-47 47 -137 -8q-14 -23 -16 -39zM190 893v-546q0 -44 4 -75
q10 -84 55 -120q78 -61 164 -52q38 4 86 22q31 10 101 39l-135 -105q-66 -28 -97 -39q-49 -17 -85 -20q-86 -8 -165 54q-46 36 -58 120q-3 31 -3 75v545zM358 105l51 -31l-47 -57l156 -117v-170l-208 -129l-143 153l29 21l88 -95l117 79v127l-86 64l-40 -39l-54 39z" />
    <glyph glyph-name="Egrave" unicode="&#xc8;" horiz-adv-x="654" 
d="M620 1001q-19 -30 -39 -49l-113 -106q-24 -22 -128 31q-91 47 -128 83l-8 7q-1 0 -4 4l-3 3q-4 3 -4 5q-17 -25 -24 -42l-115 -107q32 74 111 147l112 106q9 7 16 6q5 -1 14 -7l18 -19q33 -30 111 -71q89 -49 127 -44zM157 510l-11 17l55 51l23 16q20 14 35 20
q41 18 63 -2q78 -74 165 -74l-113 -106q-85 0 -162 72q-20 19 -55 6zM191 962v-626q0 -44 4 -75q10 -84 55 -120q78 -61 164 -52q38 4 86 22q31 10 101 39l-135 -105q-66 -28 -97 -39q-49 -17 -85 -20q-86 -8 -165 54q-46 36 -58 120q-3 31 -3 75v625zM64 1598
q22 -37 62 -85q14 -16 30 -35l24 -27q34 -37 73 -74l31 -28q17 -15 31 -29l75 -201l-61 57q-39 36 -76 77q-28 31 -54 62q-40 48 -62 83z" />
    <glyph glyph-name="Eacute" unicode="&#xc9;" horiz-adv-x="644" 
d="M623 1025q-19 -30 -39 -49l-113 -106q-24 -22 -128 31q-91 47 -128 83l-8 7q-1 0 -4 4l-3 3q-4 3 -4 5q-17 -25 -24 -42l-115 -107q32 74 111 147l112 106q9 7 16 6q5 -1 14 -7l18 -19q33 -30 111 -71q89 -49 127 -44zM160 534l-11 17l55 51l23 16q20 14 35 20
q41 18 63 -2q78 -74 165 -74l-113 -106q-85 0 -162 72q-20 19 -55 6zM194 986v-626q0 -44 4 -75q10 -84 55 -120q78 -61 164 -52q38 4 86 22q31 10 101 39l-135 -105q-66 -28 -97 -39q-49 -17 -85 -20q-86 -8 -165 54q-46 36 -58 120q-3 31 -3 75v625zM492 1452
q-21 -35 -61 -83q-26 -31 -54 -62q-38 -41 -77 -77l-60 -57l75 201q14 14 30 29l31 28q40 37 74 74l23 27q17 19 31 35q39 48 62 85z" />
    <glyph glyph-name="Ecircumflex" unicode="&#xca;" horiz-adv-x="634" 
d="M609 1022q-19 -30 -39 -49l-113 -106q-24 -22 -128 31q-91 47 -128 83l-8 7q-1 0 -4 4l-3 3q-4 3 -4 5q-17 -25 -24 -42l-115 -107q32 74 111 147l112 106q9 7 16 6q5 -1 14 -7l18 -19q33 -30 111 -71q89 -49 127 -44zM146 531l-11 17l55 51l23 16q20 14 35 20
q41 18 63 -2q78 -74 165 -74l-113 -106q-85 0 -162 72q-20 19 -55 6zM180 983v-626q0 -44 4 -75q10 -84 55 -120q78 -61 164 -52q38 4 86 22q31 10 101 39l-135 -105q-66 -28 -97 -39q-49 -17 -85 -20q-86 -8 -165 54q-46 36 -58 120q-3 31 -3 75v625zM184 1369
q22 -3 48 -17q17 -9 47 -29q1 -1 3 -2l3 -2q3 -3 6 -4q7 -5 12 -8q13 -9 23 -15q27 -15 51 -20q41 -8 80 -1l124 80q-24 -35 -57 -56l-116 -75q-67 -42 -148 -25q-23 4 -50 19q-11 6 -24 15l-24 15q-29 21 -47 30q-26 14 -50 16z" />
    <glyph glyph-name="Edieresis" unicode="&#xcb;" horiz-adv-x="618" 
d="M612 1012q-19 -30 -39 -49l-113 -106q-24 -22 -128 31q-91 47 -128 83l-8 7q-1 0 -4 4l-3 3q-4 3 -4 5q-17 -25 -24 -42l-115 -107q32 74 111 147l112 106q9 7 16 6q5 -1 14 -7l18 -19q33 -30 111 -71q89 -49 127 -44zM149 521l-11 17l55 51l23 16q20 14 35 20
q41 18 63 -2q78 -74 165 -74l-113 -106q-85 0 -162 72q-20 19 -55 6zM183 973v-626q0 -44 4 -75q10 -84 55 -120q78 -61 164 -52q38 4 86 22q31 10 101 39l-135 -105q-66 -28 -97 -39q-49 -17 -85 -20q-86 -8 -165 54q-46 36 -58 120q-3 31 -3 75v625zM168 1323
q11 -10 20 -22l32 -45q8 -11 17 -19q7 -7 22 -13l-102 -91q-15 7 -23 14q-9 8 -18 20l-30 44q-9 13 -19 22l-16 11l103 90zM421 1329q32 -43 55 -62q26 -23 54 -33l-103 -90q-28 10 -53 33q-15 12 -31 31l-25 31z" />
    <glyph glyph-name="Igrave" unicode="&#xcc;" horiz-adv-x="478" 
d="M288 141q7 -17 18 -33.5t26 -23.5l47 26q-1 -5 2.5 -8t8 -6t6 -6t-2.5 -6l-150 -84q-14 -7 -33 3.5t-47 43.5q-29 32 -66 45l-6 29q32 4 65 36v796q-7 17 -18 33.5t-26 23.5l-47 -26q1 5 -2.5 8t-8 6t-6 6t2.5 6l150 84q14 7 33 -3.5t47 -43.5q29 -32 66 -45l6 -29
q-32 -4 -65 -36v-796zM-83 1635q22 -37 62 -85q14 -16 30 -35l24 -27q34 -37 73 -74l31 -28q17 -15 31 -29l75 -201l-61 57q-39 36 -76 77q-28 31 -54 62q-40 48 -62 83z" />
    <glyph glyph-name="Iacute" unicode="&#xcd;" 
d="M277 139q7 -17 18 -33.5t26 -23.5l47 26q-1 -5 2.5 -8t8 -6t6 -6t-2.5 -6l-150 -84q-14 -7 -33 3.5t-47 43.5q-29 32 -66 45l-6 29q32 4 65 36v796q-7 17 -18 33.5t-26 23.5l-47 -26q1 5 -2.5 8t-8 6t-6 6t2.5 6l150 84q14 7 33 -3.5t47 -43.5q29 -32 66 -45l6 -29
q-32 -4 -65 -36v-796zM421 1404q-21 -35 -61 -83q-26 -31 -54 -62q-38 -41 -77 -77l-60 -57l75 201q14 14 30 29l31 28q40 37 74 74l23 27q17 19 31 35q39 48 62 85z" />
    <glyph glyph-name="Icircumflex" unicode="&#xce;" horiz-adv-x="449" 
d="M260 144q7 -17 18 -33.5t26 -23.5l47 26q-1 -5 2.5 -8t8 -6t6 -6t-2.5 -6l-150 -84q-14 -7 -33 3.5t-47 43.5q-29 32 -66 45l-6 29q32 4 65 36v796q-7 17 -18 33.5t-26 23.5l-47 -26q1 5 -2.5 8t-8 6t-6 6t2.5 6l150 84q14 7 33 -3.5t47 -43.5q29 -32 66 -45l6 -29
q-32 -4 -65 -36v-796zM78 1337q22 -3 48 -17q17 -9 47 -29q1 -1 3 -2l3 -2q3 -3 6 -4q7 -5 12 -8q13 -9 23 -15q27 -15 51 -20q41 -8 80 -1l124 80q-24 -35 -57 -56l-116 -75q-67 -42 -148 -25q-23 4 -50 19q-11 6 -24 15l-24 15q-29 21 -47 30q-26 14 -50 16z" />
    <glyph glyph-name="Idieresis" unicode="&#xcf;" horiz-adv-x="444" 
d="M275 146q7 -17 18 -33.5t26 -23.5l47 26q-1 -5 2.5 -8t8 -6t6 -6t-2.5 -6l-150 -84q-14 -7 -33 3.5t-47 43.5q-29 32 -66 45l-6 29q32 4 65 36v796q-7 17 -18 33.5t-26 23.5l-47 -26q1 5 -2.5 8t-8 6t-6 6t2.5 6l150 84q14 7 33 -3.5t47 -43.5q29 -32 66 -45l6 -29
q-32 -4 -65 -36v-796zM105 1306q11 -10 20 -22l32 -45q8 -11 17 -19q7 -7 22 -13l-102 -91q-15 7 -23 14q-9 8 -18 20l-30 44q-9 13 -19 22l-16 11l103 90zM358 1312q32 -43 55 -62q26 -23 54 -33l-103 -90q-28 10 -53 33q-15 12 -31 31l-25 31z" />
    <glyph glyph-name="Eth" unicode="&#xd0;" horiz-adv-x="830" 
d="M20 -59q-38 70 15 121l107 102q57 54 124 50q58 -4 107 -50q49 -48 58 -105q21 1 49 27q29 28 84 55q17 8 48 22l48 22q0 16 -3 46q-1 1 -1 6l-2 15q-1 12 -1 18l-3 263q0 46 3 83q1 10 2 27l4 31q5 42 5 68q3 81 -26 110q-21 19 -58 45q-43 30 -87 53q-53 27 -96 37
q-51 12 -85 0l-57 -57q-29 -28 -52 -52q-54 -56 -94 -110l-113 -108q43 59 98 117q23 24 52 52l139 142l107 102q30 28 84 22q45 -5 105 -33q49 -24 99 -58q42 -30 65 -52q30 -28 28 -110q-1 -26 -6 -67l-3 -31q-2 -17 -3 -28q-2 -37 -3 -82l3 -263l3 -31q3 -25 4 -36
q3 -46 -13 -61l-107 -102q-23 -23 -62 -44q-23 -12 -74 -35q-51 -22 -75 -35q-39 -22 -63 -45q-27 -25 -51 -27q-7 60 -56 107q-72 66 -152 44q-5 -31 12 -63zM334 949l3 -750l-113 -107l2 755zM470 518q-24 -18 -51 -25q-53 -11 -109 1q-21 4 -49 13l-45 15q-53 17 -88 17
q-48 -1 -94 -32l-2 1l143 120q45 30 94 31q34 1 86 -15q8 -3 22 -7l22 -8q14 -5 23 -7l24 -6q56 -12 106 -4l36 31l13 -15z" />
    <glyph glyph-name="Ntilde" unicode="&#xd1;" horiz-adv-x="805" 
d="M333 972l2 1l1 -833q7 -17 18 -33.5t26 -23.5l47 26q-1 -5 2.5 -8t8 -6t6 -6t-2.5 -6l-150 -84q-14 -7 -33 3.5t-47 43.5q-29 32 -66 45l-6 29q32 4 65 36v743l1 1v6q-53 0 -82 22.5t-64 61.5l-105 -62l1 35l83 50l126 78q22 -25 39.5 -44t36.5 -33.5t41 -22.5t52 -8v-11
zM709 982l2 1l1 -833q7 -17 18 -33.5t26 -23.5l47 26q-1 -5 2.5 -8t8 -6t6 -6t-2.5 -6l-150 -84q-14 -7 -33 3.5t-47 43.5q-29 32 -66 45l-6 29q32 4 65 36v743l1 1v6q-53 0 -82 22.5t-64 61.5l-105 -62l1 35l83 50l126 78q22 -25 39.5 -44t36.5 -33.5t41 -22.5t52 -8v-11z
M174 1165q0 1 1 2l15 18l105 97q28 27 80 27q20 0 49 -4l53 -9q68 -11 106 -8q58 5 95 41l17 15l1 -1l-112 -105q-38 -36 -93 -43q-39 -6 -101 3l-50 7q-29 5 -48 6q-51 3 -81 -13z" />
    <glyph glyph-name="Ograve" unicode="&#xd2;" horiz-adv-x="693" 
d="M59 782l-2 2q31 28 77 81t66 71l131 121q51 47 99 44q59 -4 139 -78q41 -36 47 -110q3 -25 7 -63v-456q3 -71 3 -129l-133 -121q0 59 -3 130q-1 29 -3 64l2 390q-3 40 -5 65q-6 72 -45 108q-105 101 -184 70l-31 -34q-19 -20 -34 -34l-2 2zM560 217q-19 -27 -34 -41
l-131 -121q-83 -76 -148 -72q-61 4 -144 82q-56 51 -63 151q-3 31 -1 89l-1 465l126 123q0 -44 10 -96v-124q1 -4 1 -5q-4 -302 -2 -333q6 -100 61 -150q121 -114 220 -60l122 113q8 6 22 13zM56 1677q22 -37 62 -85q14 -16 30 -35l24 -27q34 -37 73 -74l31 -28
q17 -15 31 -29l75 -201l-61 57q-39 36 -76 77q-28 31 -54 62q-40 48 -62 83z" />
    <glyph glyph-name="Oacute" unicode="&#xd3;" horiz-adv-x="703" 
d="M72 782l-2 2q31 28 77 81t66 71l131 121q51 47 99 44q59 -4 139 -78q41 -36 47 -110q3 -25 7 -63v-456q3 -71 3 -129l-133 -121q0 59 -3 130q-1 29 -3 64l2 390q-3 40 -5 65q-6 72 -45 108q-105 101 -184 70l-31 -34q-19 -20 -34 -34l-2 2zM573 217q-19 -27 -34 -41
l-131 -121q-83 -76 -148 -72q-61 4 -144 82q-56 51 -63 151q-3 31 -1 89l-1 465l126 123q0 -44 10 -96v-124q1 -4 1 -5q-4 -302 -2 -333q6 -100 61 -150q121 -114 220 -60l122 113q8 6 22 13zM559 1406q-21 -35 -61 -83q-26 -31 -54 -62q-38 -41 -77 -77l-60 -57l75 201
q14 14 30 29l31 28q40 37 74 74l23 27q17 19 31 35q39 48 62 85z" />
    <glyph glyph-name="Ocircumflex" unicode="&#xd4;" horiz-adv-x="688" 
d="M69 781l-2 2q31 28 77 81t66 71l131 121q51 47 99 44q59 -4 139 -78q41 -36 47 -110q3 -25 7 -63v-456q3 -71 3 -129l-133 -121q0 59 -3 130q-1 29 -3 64l2 390q-3 40 -5 65q-6 72 -45 108q-105 101 -184 70l-31 -34q-19 -20 -34 -34l-2 2zM570 216q-19 -27 -34 -41
l-131 -121q-83 -76 -148 -72q-61 4 -144 82q-56 51 -63 151q-3 31 -1 89l-1 465l126 123q0 -44 10 -96v-124q1 -4 1 -5q-4 -302 -2 -333q6 -100 61 -150q121 -114 220 -60l122 113q8 6 22 13zM213 1355q22 -3 48 -17q17 -9 47 -29q1 -1 3 -2l3 -2q3 -3 6 -4q7 -5 12 -8
q13 -9 23 -15q27 -15 51 -20q41 -8 80 -1l124 80q-24 -35 -57 -56l-116 -75q-67 -42 -148 -25q-23 4 -50 19q-11 6 -24 15l-24 15q-29 21 -47 30q-26 14 -50 16z" />
    <glyph glyph-name="Otilde" unicode="&#xd5;" horiz-adv-x="703" 
d="M75 791l-2 2q31 28 77 81t66 71l131 121q51 47 99 44q59 -4 139 -78q41 -36 47 -110q3 -25 7 -63v-456q3 -71 3 -129l-133 -121q0 59 -3 130q-1 29 -3 64l2 390q-3 40 -5 65q-6 72 -45 108q-105 101 -184 70l-31 -34q-19 -20 -34 -34l-2 2zM576 226q-19 -27 -34 -41
l-131 -121q-83 -76 -148 -72q-61 4 -144 82q-56 51 -63 151q-3 31 -1 89l-1 465l126 123q0 -44 10 -96v-124q1 -4 1 -5q-4 -302 -2 -333q6 -100 61 -150q121 -114 220 -60l122 113q8 6 22 13zM121 1149q0 1 1 2l15 18l105 97q28 27 80 27q20 0 49 -4l53 -9q68 -11 106 -8
q58 5 95 41l17 15l1 -1l-112 -105q-38 -36 -93 -43q-39 -6 -101 3l-50 7q-29 5 -48 6q-51 3 -81 -13z" />
    <glyph glyph-name="Odieresis" unicode="&#xd6;" horiz-adv-x="669" 
d="M59 791l-2 2q31 28 77 81t66 71l131 121q51 47 99 44q59 -4 139 -78q41 -36 47 -110q3 -25 7 -63v-456q3 -71 3 -129l-133 -121q0 59 -3 130q-1 29 -3 64l2 390q-3 40 -5 65q-6 72 -45 108q-105 101 -184 70l-31 -34q-19 -20 -34 -34l-2 2zM560 226q-19 -27 -34 -41
l-131 -121q-83 -76 -148 -72q-61 4 -144 82q-56 51 -63 151q-3 31 -1 89l-1 465l126 123q0 -44 10 -96v-124q1 -4 1 -5q-4 -302 -2 -333q6 -100 61 -150q121 -114 220 -60l122 113q8 6 22 13zM225 1329q11 -10 20 -22l32 -45q8 -11 17 -19q7 -7 22 -13l-102 -91
q-15 7 -23 14q-9 8 -18 20l-30 44q-9 13 -19 22l-16 11l103 90zM478 1335q32 -43 55 -62q26 -23 54 -33l-103 -90q-28 10 -53 33q-15 12 -31 31l-25 31z" />
    <glyph glyph-name="multiply" unicode="&#xd7;" horiz-adv-x="815" 
d="M31 -12l-1 1q21 18 41 46l73 102q22 29 44 50q29 26 62 76q32 50 54 70l121 111q33 30 93 61l51 26q30 15 50 27q44 57 44 113l123 110q0 -49 -36 -102q-26 -37 -76 -83l-122 -111q-31 -28 -83 -56q-10 -5 -23 -11l-67 -35l-30 -43q-18 -25 -39 -44q-22 -21 -44 -48
l-72 -103q-21 -27 -41 -47l-2 2zM56 619l10 14l129 118q22 20 44 33q27 14 35 5q26 -21 31 -62l4 -35q3 -20 8 -34q17 -40 39 -84l81 -154q22 -44 38 -80l21 -75q13 -47 30 -63q7 -6 13 -15q4 -6 9 -16l11 -17q5 -9 11 -14q38 -33 115 -12q29 8 62 24q22 9 48 23l-127 -116
q-10 -5 -19 -10l-25 -12q-32 -14 -60 -20q-78 -21 -115 13q-7 6 -13 15l-16 25l-4 8q-6 9 -13 14q-16 15 -29 62l-16 59l-6 17q-16 37 -36 80l-82 155q-23 44 -40 84q-5 13 -8 34l-1 17q-1 10 -3 16q-5 41 -27 63q-6 6 -24 -2q-16 -6 -34 -20z" />
    <glyph glyph-name="Oslash" unicode="&#xd8;" horiz-adv-x="742" 
d="M-28 791l-2 2q31 28 77 81t66 71l131 121q51 47 99 44q59 -4 139 -78q41 -36 47 -110q3 -25 7 -63v-456q3 -71 3 -129l-133 -121q0 59 -3 130q-1 29 -3 64l2 390q-3 40 -5 65q-6 72 -45 108q-105 101 -184 70l-31 -34q-19 -20 -34 -34l-2 2zM473 226q-19 -27 -34 -41
l-131 -121q-83 -76 -148 -72q-61 4 -144 82q-56 51 -63 151q-3 31 -1 89l-1 465l126 123q0 -44 10 -96v-124q1 -4 1 -5q-4 -302 -2 -333q6 -100 61 -150q121 -114 220 -60l122 113q8 6 22 13zM-88.3203 161.641l411.104 832.286h66.957l-414.703 -835.886z" />
    <glyph glyph-name="Ugrave" unicode="&#xd9;" horiz-adv-x="932" 
d="M221 458v461l1 1v6q-53 0 -82 22.5t-64 61.5l-105 -62l1 35l83 50l126 78q22 -25 39.5 -44t36.5 -33.5t41 -22.5t52 -8v-11l2 1l1 -511q-1 -159 -71 -221l-29 -28q73 21 115 -16q137 -125 242 -67q17 21 38 40l69 69v696q-28 0 -45 14q-17 8 -33 24l-57 -31l-21 23l56 31
l135 77q24 -25 43 -44q6 -6 12 -11h-1q12 -11 37 -26l1 1l2 -39l-1 -819q7 -17 18 -33.5t26 -23.5l47 26q-1 -5 2.5 -8t8 -6t6 -6t-2.5 -6l-150 -84q-14 -7 -33 3.5t-47 43.5q-29 32 -66 45l-6 29q32 4 65 36v62l-30 -32l-137 -125q-85 -78 -154 -74q-68 4 -160 88
q-41 37 -128 14l68 60q46 56 46 199zM147 1671q22 -37 62 -85q14 -16 30 -35l24 -27q34 -37 73 -74l31 -28q17 -15 31 -29l75 -201l-61 57q-39 36 -76 77q-28 31 -54 62q-40 48 -62 83z" />
    <glyph glyph-name="Uacute" unicode="&#xda;" horiz-adv-x="932" 
d="M224 452v461l1 1v6q-53 0 -82 22.5t-64 61.5l-105 -62l1 35l83 50l126 78q22 -25 39.5 -44t36.5 -33.5t41 -22.5t52 -8v-11l2 1l1 -511q-1 -159 -71 -221l-29 -28q73 21 115 -16q137 -125 242 -67q17 21 38 40l69 69v696q-28 0 -45 14q-17 8 -33 24l-57 -31l-21 23l56 31
l135 77q24 -25 43 -44q6 -6 12 -11h-1q12 -11 37 -26l1 1l2 -39l-1 -819q7 -17 18 -33.5t26 -23.5l47 26q-1 -5 2.5 -8t8 -6t6 -6t-2.5 -6l-150 -84q-14 -7 -33 3.5t-47 43.5q-29 32 -66 45l-6 29q32 4 65 36v62l-30 -32l-137 -125q-85 -78 -154 -74q-68 4 -160 88
q-41 37 -128 14l68 60q46 56 46 199zM688 1344q-21 -35 -61 -83q-26 -31 -54 -62q-38 -41 -77 -77l-60 -57l75 201q14 14 30 29l31 28q40 37 74 74l23 27q17 19 31 35q39 48 62 85z" />
    <glyph glyph-name="Ucircumflex" unicode="&#xdb;" horiz-adv-x="927" 
d="M204 446v461l1 1v6q-53 0 -82 22.5t-64 61.5l-105 -62l1 35l83 50l126 78q22 -25 39.5 -44t36.5 -33.5t41 -22.5t52 -8v-11l2 1l1 -511q-1 -159 -71 -221l-29 -28q73 21 115 -16q137 -125 242 -67q17 21 38 40l69 69v696q-28 0 -45 14q-17 8 -33 24l-57 -31l-21 23l56 31
l135 77q24 -25 43 -44q6 -6 12 -11h-1q12 -11 37 -26l1 1l2 -39l-1 -819q7 -17 18 -33.5t26 -23.5l47 26q-1 -5 2.5 -8t8 -6t6 -6t-2.5 -6l-150 -84q-14 -7 -33 3.5t-47 43.5q-29 32 -66 45l-6 29q32 4 65 36v62l-30 -32l-137 -125q-85 -78 -154 -74q-68 4 -160 88
q-41 37 -128 14l68 60q46 56 46 199zM321 1281q22 -3 48 -17q17 -9 47 -29q1 -1 3 -2l3 -2q3 -3 6 -4q7 -5 12 -8q13 -9 23 -15q27 -15 51 -20q41 -8 80 -1l124 80q-24 -35 -57 -56l-116 -75q-67 -42 -148 -25q-23 4 -50 19q-11 6 -24 15l-24 15q-29 21 -47 30
q-26 14 -50 16z" />
    <glyph glyph-name="Udieresis" unicode="&#xdc;" horiz-adv-x="932" 
d="M210 442v461l1 1v6q-53 0 -82 22.5t-64 61.5l-105 -62l1 35l83 50l126 78q22 -25 39.5 -44t36.5 -33.5t41 -22.5t52 -8v-11l2 1l1 -511q-1 -159 -71 -221l-29 -28q73 21 115 -16q137 -125 242 -67q17 21 38 40l69 69v696q-28 0 -45 14q-17 8 -33 24l-57 -31l-21 23l56 31
l135 77q24 -25 43 -44q6 -6 12 -11h-1q12 -11 37 -26l1 1l2 -39l-1 -819q7 -17 18 -33.5t26 -23.5l47 26q-1 -5 2.5 -8t8 -6t6 -6t-2.5 -6l-150 -84q-14 -7 -33 3.5t-47 43.5q-29 32 -66 45l-6 29q32 4 65 36v62l-30 -32l-137 -125q-85 -78 -154 -74q-68 4 -160 88
q-41 37 -128 14l68 60q46 56 46 199zM318 1295q11 -10 20 -22l32 -45q8 -11 17 -19q7 -7 22 -13l-102 -91q-15 7 -23 14q-9 8 -18 20l-30 44q-9 13 -19 22l-16 11l103 90zM571 1301q32 -43 55 -62q26 -23 54 -33l-103 -90q-28 10 -53 33q-15 12 -31 31l-25 31z" />
    <glyph glyph-name="Yacute" unicode="&#xdd;" horiz-adv-x="859" 
d="M53 -220q-59 -54 -117 2q-37 33 -22 135q14 97 49 129l125 115q76 70 161 52q66 -14 139 -81q24 -20 48 -47l37 -44q22 12 51 23q-1 12 -4 41l-2 18l-1 93q0 51 1 89q3 107 13 157q10 44 13 111l-12 -10q-2 -3 -3 -4l-139 -128q-88 -81 -136 -38q-50 45 -58 104
q-4 22 -3 59l1 69q0 16 2 40l8 94q2 28 3 50q4 121 -41 164q-43 39 -142 14l128 117q93 25 137 -16q46 -43 44 -164q0 -23 -2 -51q-2 -17 -4 -49q-3 -32 -4 -45q-2 -24 -2 -40l-1 -70q-1 -37 2 -59q8 -59 57 -103q30 -27 80 -2l21 23l64 57q0 35 -2 79q-1 29 -4 80l-5 80
l-6 150q0 45 18 62l126 115q31 28 93 20q57 -7 89 -36l10 -12l-125 -115l-11 13q-25 23 -72 31l2 -19q1 -11 1 -18q0 -42 4 -110l7 -114q3 -65 1 -112q-2 -58 -12 -104q-10 -49 -13 -156q-1 -39 -1 -89l1 -93l5 -58q4 -51 -9 -63l-126 -115q-12 -11 -36 -23q-17 -8 -47 -19
l-18 -7q-4 -1 -6 -2q-14 -5 -23 -9q-24 -9 -36 -16q-41 52 -86 94q-51 45 -97 65q-57 25 -110 12q-19 -58 -20 -114q0 -64 26 -87q44 -40 86 -21l81 75q19 17 36 21l-128 -117l-7 -1zM671 1415q-21 -35 -61 -83q-26 -31 -54 -62q-38 -41 -77 -77l-60 -57l75 201q14 14 30 29
l31 28q40 37 74 74l23 27q17 19 31 35q39 48 62 85z" />
    <glyph glyph-name="Thorn" unicode="&#xde;" horiz-adv-x="820" 
d="M177 669l-2 1q23 26 56 56l134 115q90 78 181 94q108 20 196 -56q19 -17 17 -45l-6 -47q-1 -25 4 -84q1 -4 1 -12l7 -89q3 -59 -4 -96q-8 -46 -33 -67l-133 -115q-21 -18 -34 -28l-33 -25q-37 -25 -69 -32q-31 -6 -80 0q-19 3 -45 7l-45 9q-58 11 -91 13q-48 3 -81 -9
l-72 -62q15 26 32 41l132 115q32 28 84 32q39 3 101 -8q11 -2 27 -5l77 -14q58 -9 93 -1l28 8q11 28 12 72q2 35 -2 85l-8 83q-4 46 -4 69q1 4 2 10l4 24l2 12q2 28 -15 43q-73 64 -161 61q-76 -3 -155 -54zM374 971l2 1l1 -833q7 -17 18 -33.5t26 -23.5l47 26q-1 -5 2.5 -8
t8 -6t6 -6t-2.5 -6l-150 -84q-14 -7 -33 3.5t-47 43.5q-29 32 -66 45l-6 29q32 4 65 36v743l1 1v6q-53 0 -82 22.5t-64 61.5l-105 -62l1 35l83 50l126 78q22 -25 39.5 -44t36.5 -33.5t41 -22.5t52 -8v-11z" />
    <glyph glyph-name="germandbls" unicode="&#xdf;" horiz-adv-x="600" 
d="M151 602zM168 968l2 -320l220 116v175h1q-24 46 -51 61q-32 17 -57 43zM171 608l5 -693l-1 -1q11 -17 22.5 -33.5t26.5 -23.5l47 26q-1 -5 2.5 -8t8 -6t6 -6t-2.5 -6l-151 -84q-13 -7 -32.5 3.5t-39.5 29t-37.5 40.5t-28.5 35l49 31l2 1011l238 160l87 46q43 -37 92 -64
q44 -36 52 -88v-1l1 -185l-117 -62l12 -12q17 -19 36.5 -33t42 -22t53.5 -8l-3 -543l-267 -133l-2 39l143 76l-2 484q-54 0 -84 23q-29 21 -63 58l-93 -49z" />
    <glyph glyph-name="agrave" unicode="&#xe0;" horiz-adv-x="703" 
d="M240 670q-14 -111 -14 -224v-264q42 -19 65.5 -43t48.5 -50l151 62q0 75 1 148q2 84 2.5 176.5t0.5 171.5q-53 0 -83.5 22.5t-66.5 61.5zM324 754l129 77q23 -25 40.5 -44t37 -33t42 -22t53.5 -8l-8 -517q-3 -36 24.5 -61.5t71.5 -22.5l31 9l9 -15l-167 -113
q-15 14 -24.5 24t-19 21t-21.5 24t-31 33v4l-152 -61l-88 -46q-43 37 -84.5 61.5t-108.5 40.5l37 26q-1 125 -0.5 250t12.5 245l138 82zM45 1326q22 -37 62 -85q14 -16 30 -35l24 -27q34 -37 73 -74l31 -28q17 -15 31 -29l75 -201l-61 57q-39 36 -76 77q-28 31 -54 62
q-40 48 -62 83z" />
    <glyph glyph-name="aacute" unicode="&#xe1;" horiz-adv-x="673" 
d="M210 670q-14 -111 -14 -224v-264q42 -19 65.5 -43t48.5 -50l151 62q0 75 1 148q2 84 2.5 176.5t0.5 171.5q-53 0 -83.5 22.5t-66.5 61.5zM294 754l129 77q23 -25 40.5 -44t37 -33t42 -22t53.5 -8l-8 -517q-3 -36 24.5 -61.5t71.5 -22.5l31 9l9 -15l-167 -113
q-15 14 -24.5 24t-19 21t-21.5 24t-31 33v4l-152 -61l-88 -46q-43 37 -84.5 61.5t-108.5 40.5l37 26q-1 125 -0.5 250t12.5 245l138 82zM516 1134q-21 -35 -61 -83q-26 -31 -54 -62q-38 -41 -77 -77l-60 -57l75 201q14 14 30 29l31 28q40 37 74 74l23 27q17 19 31 35
q39 48 62 85z" />
    <glyph glyph-name="acircumflex" unicode="&#xe2;" horiz-adv-x="698" 
d="M199 1071q22 -3 48 -17q17 -9 47 -29q1 -1 3 -2l3 -2q3 -3 6 -4q7 -5 12 -8q13 -9 23 -15q27 -15 51 -20q41 -8 80 -1l124 80q-24 -35 -57 -56l-116 -75q-67 -42 -148 -25q-23 4 -50 19q-11 6 -24 15l-24 15q-29 21 -47 30q-26 14 -50 16zM204 668q-14 -111 -14 -224
v-264q42 -19 65.5 -43t48.5 -50l151 62q0 75 1 148q2 84 2.5 176.5t0.5 171.5q-53 0 -83.5 22.5t-66.5 61.5zM288 752l129 77q23 -25 40.5 -44t37 -33t42 -22t53.5 -8l-8 -517q-3 -36 24.5 -61.5t71.5 -22.5l31 9l9 -15l-167 -113q-15 14 -24.5 24t-19 21t-21.5 24t-31 33v4
l-152 -61l-88 -46q-43 37 -84.5 61.5t-108.5 40.5l37 26q-1 125 -0.5 250t12.5 245l138 82z" />
    <glyph glyph-name="atilde" unicode="&#xe3;" horiz-adv-x="688" 
d="M218 671q-14 -111 -14 -224v-264q42 -19 65.5 -43t48.5 -50l151 62q0 75 1 148q2 84 2.5 176.5t0.5 171.5q-53 0 -83.5 22.5t-66.5 61.5zM302 755l129 77q23 -25 40.5 -44t37 -33t42 -22t53.5 -8l-8 -517q-3 -36 24.5 -61.5t71.5 -22.5l31 9l9 -15l-167 -113
q-15 14 -24.5 24t-19 21t-21.5 24t-31 33v4l-152 -61l-88 -46q-43 37 -84.5 61.5t-108.5 40.5l37 26q-1 125 -0.5 250t12.5 245l138 82zM122 858q0 1 1 2l15 18l105 97q28 27 80 27q20 0 49 -4l53 -9q68 -11 106 -8q58 5 95 41l17 15l1 -1l-112 -105q-38 -36 -93 -43
q-39 -6 -101 3l-50 7q-29 5 -48 6q-51 3 -81 -13z" />
    <glyph glyph-name="adieresis" unicode="&#xe4;" horiz-adv-x="683" 
d="M196 671q-14 -111 -14 -224v-264q42 -19 65.5 -43t48.5 -50l151 62q0 75 1 148q2 84 2.5 176.5t0.5 171.5q-53 0 -83.5 22.5t-66.5 61.5zM280 755l129 77q23 -25 40.5 -44t37 -33t42 -22t53.5 -8l-8 -517q-3 -36 24.5 -61.5t71.5 -22.5l31 9l9 -15l-167 -113
q-15 14 -24.5 24t-19 21t-21.5 24t-31 33v4l-152 -61l-88 -46q-43 37 -84.5 61.5t-108.5 40.5l37 26q-1 125 -0.5 250t12.5 245l138 82zM224 993q11 -10 20 -22l32 -45q8 -11 17 -19q7 -7 22 -13l-102 -91q-15 7 -23 14q-9 8 -18 20l-30 44q-9 13 -19 22l-16 11l103 90z
M477 999q32 -43 55 -62q26 -23 54 -33l-103 -90q-28 10 -53 33q-15 12 -31 31l-25 31z" />
    <glyph glyph-name="aring" unicode="&#xe5;" horiz-adv-x="669" 
d="M273.799 955.6q26.04 -11.7803 40.6104 -26.6602q14.5693 -14.8799 30.0693 -31l99.1992 40.9199l-2.48047 -26.6602l-97.3389 -39.0596l-54.5596 -28.5195q-26.6602 22.9395 -52.3896 38.1299q-25.7295 15.1895 -67.2695 25.1094l22.9404 16.1201
q-0.620117 77.499 -0.310547 154.999q0.310547 77.499 7.75 151.898l81.2197 48.3594q-7.44043 -78.1191 -7.44043 -160.269v-163.368zM441.817 915.3l-1.23926 328.597q-33.4805 0 -52.0801 13.9502t-40.9199 38.1299l-66.3389 -38.4395l0.620117 21.6992l52.6992 31
l79.9795 47.7393q14.2598 -15.499 25.1094 -27.2793q10.8506 -11.7803 22.9404 -20.46t26.0391 -13.6396q13.9502 -4.95996 33.1699 -4.95996l-1.85938 -336.657zM204 668q-14 -111 -14 -224v-264q42 -19 65.5 -43t48.5 -50l151 62q0 75 1 148q2 84 2.5 176.5t0.5 171.5
q-53 0 -83.5 22.5t-66.5 61.5zM288 752l129 77q23 -25 40.5 -44t37 -33t42 -22t53.5 -8l-8 -517q-3 -36 24.5 -61.5t71.5 -22.5l31 9l9 -15l-167 -113q-15 14 -24.5 24t-19 21t-21.5 24t-31 33v4l-152 -61l-88 -46q-43 37 -84.5 61.5t-108.5 40.5l37 26q-1 125 -0.5 250
t12.5 245l138 82z" />
    <glyph glyph-name="ae" unicode="&#xe6;" horiz-adv-x="991" 
d="M200 687q-14 -111 -14 -224v-264q42 -19 65.5 -43t48.5 -50l151 62q0 75 1 148q2 84 2.5 176.5t0.5 171.5q-53 0 -83.5 22.5t-66.5 61.5zM284 771l129 77q23 -25 40.5 -44t37 -33t42 -22t53.5 -8l-8 -517q-3 -36 24.5 -61.5t71.5 -22.5l31 9l9 -15l-167 -113
q-15 14 -24.5 24t-19 21t-21.5 24t-31 33v4l-152 -61l-88 -46q-43 37 -84.5 61.5t-108.5 40.5l37 26q-1 125 -0.5 250t12.5 245l138 82zM581 326v-102q29 -10 72.5 -24t108.5 -67q4 -4 10 -14l121 70q3 3 8 5.5t10 3.5h1l13 -20q-41 -25 -77 -46q-31 -19 -60.5 -37.5
t-44.5 -26.5l-69 -38q-3 -3 -6 -5q-3 -3 -6 -4l-6 -2q-7 26 -19 40t-42 39q-17 15 -41.5 23t-50.5 11t-51 3.5t-42 0.5l1 16l44 26v494l266 143l87 46q43 -37 92 -64q44 -36 52 -88v-1l1 -185zM581 366l245 130q-4 28 -2 62q2 53 2 113h1q-24 46 -51 61q-32 17 -57 43
l-138 -67v-342z" />
    <glyph glyph-name="ccedilla" unicode="&#xe7;" horiz-adv-x="516" 
d="M207 737l94 47l96 48q48 -38 102 -66q49 -38 57 -89l-130 -58q-30 62 -64 79q-36 18 -63 45l-96 -46q-10 -111 -10 -236v-274q47 -20 73 -45t54 -52l177 69l-4 -45l-174 -65l-98 -48q-48 38 -94 63.5t-120 42.5l41 27q-1 129 -0.5 264t13.5 260l116 64l30 17v-2zM248 75
l51 -31l-47 -57l156 -117v-170l-208 -129l-143 153l29 21l88 -95l117 79v127l-86 64l-40 -39l-54 39z" />
    <glyph glyph-name="egrave" unicode="&#xe8;" horiz-adv-x="556" 
d="M185 312v-102q29 -10 72.5 -24t108.5 -67q4 -4 10 -14l121 70q3 3 8 5.5t10 3.5h1l13 -20q-41 -25 -77 -46q-31 -19 -60.5 -37.5t-44.5 -26.5l-69 -38q-3 -3 -6 -5q-3 -3 -6 -4l-6 -2q-7 26 -19 40t-42 39q-17 15 -41.5 23t-50.5 11t-51 3.5t-42 0.5l1 16l44 26v494
l266 143l87 46q43 -37 92 -64q44 -36 52 -88v-1l1 -185zM185 352l245 130q-4 28 -2 62q2 53 2 113h1q-24 46 -51 61q-32 17 -57 43l-138 -67v-342zM36 1344q22 -37 62 -85q14 -16 30 -35l24 -27q34 -37 73 -74l31 -28q17 -15 31 -29l75 -201l-61 57q-39 36 -76 77
q-28 31 -54 62q-40 48 -62 83z" />
    <glyph glyph-name="eacute" unicode="&#xe9;" horiz-adv-x="587" 
d="M184 315v-102q29 -10 72.5 -24t108.5 -67q4 -4 10 -14l121 70q3 3 8 5.5t10 3.5h1l13 -20q-41 -25 -77 -46q-31 -19 -60.5 -37.5t-44.5 -26.5l-69 -38q-3 -3 -6 -5q-3 -3 -6 -4l-6 -2q-7 26 -19 40t-42 39q-17 15 -41.5 23t-50.5 11t-51 3.5t-42 0.5l1 16l44 26v494
l266 143l87 46q43 -37 92 -64q44 -36 52 -88v-1l1 -185zM184 355l245 130q-4 28 -2 62q2 53 2 113h1q-24 46 -51 61q-32 17 -57 43l-138 -67v-342zM488 1112q-21 -35 -61 -83q-26 -31 -54 -62q-38 -41 -77 -77l-60 -57l75 201q14 14 30 29l31 28q40 37 74 74l23 27
q17 19 31 35q39 48 62 85z" />
    <glyph glyph-name="ecircumflex" unicode="&#xea;" horiz-adv-x="586" 
d="M186 318v-102q29 -10 72.5 -24t108.5 -67q4 -4 10 -14l121 70q3 3 8 5.5t10 3.5h1l13 -20q-41 -25 -77 -46q-31 -19 -60.5 -37.5t-44.5 -26.5l-69 -38q-3 -3 -6 -5q-3 -3 -6 -4l-6 -2q-7 26 -19 40t-42 39q-17 15 -41.5 23t-50.5 11t-51 3.5t-42 0.5l1 16l44 26v494
l266 143l87 46q43 -37 92 -64q44 -36 52 -88v-1l1 -185zM186 358l245 130q-4 28 -2 62q2 53 2 113h1q-24 46 -51 61q-32 17 -57 43l-138 -67v-342zM129 1085q22 -3 48 -17q17 -9 47 -29q1 -1 3 -2l3 -2q3 -3 6 -4q7 -5 12 -8q13 -9 23 -15q27 -15 51 -20q41 -8 80 -1l124 80
q-24 -35 -57 -56l-116 -75q-67 -42 -148 -25q-23 4 -50 19q-11 6 -24 15l-24 15q-29 21 -47 30q-26 14 -50 16z" />
    <glyph glyph-name="edieresis" unicode="&#xeb;" horiz-adv-x="587" 
d="M188 310v-102q29 -10 72.5 -24t108.5 -67q4 -4 10 -14l121 70q3 3 8 5.5t10 3.5h1l13 -20q-41 -25 -77 -46q-31 -19 -60.5 -37.5t-44.5 -26.5l-69 -38q-3 -3 -6 -5q-3 -3 -6 -4l-6 -2q-7 26 -19 40t-42 39q-17 15 -41.5 23t-50.5 11t-51 3.5t-42 0.5l1 16l44 26v494
l266 143l87 46q43 -37 92 -64q44 -36 52 -88v-1l1 -185zM188 350l245 130q-4 28 -2 62q2 53 2 113h1q-24 46 -51 61q-32 17 -57 43l-138 -67v-342zM181 1027q11 -10 20 -22l32 -45q8 -11 17 -19q7 -7 22 -13l-102 -91q-15 7 -23 14q-9 8 -18 20l-30 44q-9 13 -19 22l-16 11
l103 90zM434 1033q32 -43 55 -62q26 -23 54 -33l-103 -90q-28 10 -53 33q-15 12 -31 31l-25 31z" />
    <glyph glyph-name="igrave" unicode="&#xec;" horiz-adv-x="361" 
d="M158 141v549q-26 0 -42 14q-17 8 -32 24l-54 -31l-20 23l53 31l129 77q23 -25 41 -44q5 -6 11 -11h-1q12 -11 35 -26l3 -38v-509q-3 -36 24.5 -61.5t71.5 -22.5l31 9l9 -15l-167 -113q-15 14 -24.5 24t-19 21t-21.5 24t-33 32l-22 15v19q18 -1 28 9zM-131 1345
q22 -37 62 -85q14 -16 30 -35l24 -27q34 -37 73 -74l31 -28q17 -15 31 -29l75 -201l-61 57q-39 36 -76 77q-28 31 -54 62q-40 48 -62 83z" />
    <glyph glyph-name="iacute" unicode="&#xed;" horiz-adv-x="390" 
d="M134 146v549q-26 0 -42 14q-17 8 -32 24l-54 -31l-20 23l53 31l129 77q23 -25 41 -44q5 -6 11 -11h-1q12 -11 35 -26l3 -38v-509q-3 -36 24.5 -61.5t71.5 -22.5l31 9l9 -15l-167 -113q-15 14 -24.5 24t-19 21t-21.5 24t-33 32l-22 15v19q18 -1 28 9zM389 1150
q-21 -35 -61 -83q-26 -31 -54 -62q-38 -41 -77 -77l-60 -57l75 201q14 14 30 29l31 28q40 37 74 74l23 27q17 19 31 35q39 48 62 85z" />
    <glyph glyph-name="icircumflex" unicode="&#xee;" horiz-adv-x="429" 
d="M152 141v549q-26 0 -42 14q-17 8 -32 24l-54 -31l-20 23l53 31l129 77q23 -25 41 -44q5 -6 11 -11h-1q12 -11 35 -26l3 -38v-509q-3 -36 24.5 -61.5t71.5 -22.5l31 9l9 -15l-167 -113q-15 14 -24.5 24t-19 21t-21.5 24t-33 32l-22 15v19q18 -1 28 9zM61 1066
q22 -3 48 -17q17 -9 47 -29q1 -1 3 -2l3 -2q3 -3 6 -4q7 -5 12 -8q13 -9 23 -15q27 -15 51 -20q41 -8 80 -1l124 80q-24 -35 -57 -56l-116 -75q-67 -42 -148 -25q-23 4 -50 19q-11 6 -24 15l-24 15q-29 21 -47 30q-26 14 -50 16z" />
    <glyph glyph-name="idieresis" unicode="&#xef;" horiz-adv-x="405" 
d="M147 141v549q-26 0 -42 14q-17 8 -32 24l-54 -31l-20 23l53 31l129 77q23 -25 41 -44q5 -6 11 -11h-1q12 -11 35 -26l3 -38v-509q-3 -36 24.5 -61.5t71.5 -22.5l31 9l9 -15l-167 -113q-15 14 -24.5 24t-19 21t-21.5 24t-33 32l-22 15v19q18 -1 28 9zM96.1973 1046.99
q8.7998 -7.99902 16 -17.5996l25.5996 -35.999q6.40039 -8.7998 13.5996 -15.2002q5.60059 -5.59961 17.5996 -10.3994l-81.5986 -72.7988q-12 5.59961 -18.3994 11.2002q-7.2002 6.39941 -14.3994 15.999l-24 35.2002q-7.2002 10.3994 -15.2002 17.5996l-12.7998 8.7998
l82.3994 71.999zM298.595 1051.79q25.5996 -34.3994 43.999 -49.5996q20.7998 -18.3994 43.1992 -26.3994l-82.3984 -71.999q-22.3994 8 -42.3994 26.3994q-12 9.59961 -24.7998 24.7998l-20 24.7998z" />
    <glyph glyph-name="eth" unicode="&#xf0;" horiz-adv-x="654" 
d="M574 1038l2 1l1 -873q7 -17 18 -33.5t26 -23.5l47 26q-1 -5 2.5 -8t8 -6t6 -6t-2.5 -6l-150 -84q-14 -7 -33 3.5t-47 43.5q-29 32 -66 45l-6 29q32 4 65 36v783l1 1v6q-53 0 -82 22.5t-64 61.5l-105 -62l1 35l83 50l126 78q22 -25 39.5 -44t36.5 -33.5t41 -22.5t52 -8
v-11zM172 205q42 -19 65.5 -44t48.5 -51l160 67l-4 -44l-157 -64l-88 -47q-43 38 -84.5 63t-108.5 41l37 27q-1 128 -0.5 255.5t12.5 250.5l131 80q-12 -129 -12 -264.5v-269.5zM435 666q-54 0 -84 22t-66 61l-107 -61l1 34l85 49l129 77q23 -25 40.5 -43.5t37 -32.5
t42 -21.5t53.5 -7.5l-1 -37l-130 -68v28zM683.577 935v-73h-342.857v73h342.857z" />
    <glyph glyph-name="ntilde" unicode="&#xf1;" horiz-adv-x="712" 
d="M305 707l1 -3l-64 -33v-459q-3 -36 24.5 -61.5t71.5 -22.5l31 9l9 -15l-167 -113q-15 14 -24.5 24t-19 21t-21.5 24t-33 32l-22 15v19q18 -1 28 9v499q-26 0 -42 14q-17 8 -32 24l-54 -31l-20 23l53 31l129 77q23 -25 41 -44q5 -6 11 -11h-1q12 -11 35 -26l59 30v-1
l22 12l129 76q23 -24 40.5 -43t37 -32.5t42 -21.5t53.5 -8l-8 -508q-3 -35 24.5 -60t71.5 -22l31 9l9 -15l-167 -111q-15 14 -24.5 23.5t-19 20.5t-21.5 24t-31 32q0 96 1 190q2 82 2.5 173t0.5 168q-54 0 -84 22.5t-66 59.5zM121 884q0 1 1 2l15 18l105 97q28 27 80 27
q20 0 49 -4l53 -9q68 -11 106 -8q58 5 95 41l17 15l1 -1l-112 -105q-38 -36 -93 -43q-39 -6 -101 3l-50 7q-29 5 -48 6q-51 3 -81 -13z" />
    <glyph glyph-name="ograve" unicode="&#xf2;" horiz-adv-x="639" 
d="M195 188q42 -19 65.5 -43t48.5 -50l160 66l-4 -43l-157 -63l-88 -46q-43 37 -84.5 61.5t-108.5 40.5l37 26q-1 125 -0.5 250t12.5 245l131 78q-12 -126 -12 -258.5v-263.5zM466 123l-2 530q-54 0 -84 22.5t-66 61.5l-107 -62l1 35l85 50l129 77q23 -25 40.5 -44t37 -33
t42 -22t53.5 -8l-3 -543zM-13 1320q22 -37 62 -85q14 -16 30 -35l24 -27q34 -37 73 -74l31 -28q17 -15 31 -29l75 -201l-61 57q-39 36 -76 77q-28 31 -54 62q-40 48 -62 83z" />
    <glyph glyph-name="oacute" unicode="&#xf3;" horiz-adv-x="605" 
d="M178 178q42 -19 65.5 -43t48.5 -50l160 66l-4 -43l-157 -63l-88 -46q-43 37 -84.5 61.5t-108.5 40.5l37 26q-1 125 -0.5 250t12.5 245l131 78q-12 -126 -12 -258.5v-263.5zM449 113l-2 530q-54 0 -84 22.5t-66 61.5l-107 -62l1 35l85 50l129 77q23 -25 40.5 -44t37 -33
t42 -22t53.5 -8l-3 -543zM493 1077q-21 -35 -61 -83q-26 -31 -54 -62q-38 -41 -77 -77l-60 -57l75 201q14 14 30 29l31 28q40 37 74 74l23 27q17 19 31 35q39 48 62 85z" />
    <glyph glyph-name="ocircumflex" unicode="&#xf4;" horiz-adv-x="595" 
d="M176 180q42 -19 65.5 -43t48.5 -50l160 66l-4 -43l-157 -63l-88 -46q-43 37 -84.5 61.5t-108.5 40.5l37 26q-1 125 -0.5 250t12.5 245l131 78q-12 -126 -12 -258.5v-263.5zM447 115l-2 530q-54 0 -84 22.5t-66 61.5l-107 -62l1 35l85 50l129 77q23 -25 40.5 -44t37 -33
t42 -22t53.5 -8l-3 -543zM139 1094q22 -3 48 -17q17 -9 47 -29q1 -1 3 -2l3 -2q3 -3 6 -4q7 -5 12 -8q13 -9 23 -15q27 -15 51 -20q41 -8 80 -1l124 80q-24 -35 -57 -56l-116 -75q-67 -42 -148 -25q-23 4 -50 19q-11 6 -24 15l-24 15q-29 21 -47 30q-26 14 -50 16z" />
    <glyph glyph-name="otilde" unicode="&#xf5;" horiz-adv-x="634" 
d="M180 182q42 -19 65.5 -43t48.5 -50l160 66l-4 -43l-157 -63l-88 -46q-43 37 -84.5 61.5t-108.5 40.5l37 26q-1 125 -0.5 250t12.5 245l131 78q-12 -126 -12 -258.5v-263.5zM451 117l-2 530q-54 0 -84 22.5t-66 61.5l-107 -62l1 35l85 50l129 77q23 -25 40.5 -44t37 -33
t42 -22t53.5 -8l-3 -543zM36 899q0 1 1 2l15 18l105 97q28 27 80 27q20 0 49 -4l53 -9q68 -11 106 -8q58 5 95 41l17 15l1 -1l-112 -105q-38 -36 -93 -43q-39 -6 -101 3l-50 7q-29 5 -48 6q-51 3 -81 -13z" />
    <glyph glyph-name="odieresis" unicode="&#xf6;" horiz-adv-x="635" 
d="M209 174q42 -19 65.5 -43t48.5 -50l160 66l-4 -43l-157 -63l-88 -46q-43 37 -84.5 61.5t-108.5 40.5l37 26q-1 125 -0.5 250t12.5 245l131 78q-12 -126 -12 -258.5v-263.5zM480 109l-2 530q-54 0 -84 22.5t-66 61.5l-107 -62l1 35l85 50l129 77q23 -25 40.5 -44t37 -33
t42 -22t53.5 -8l-3 -543zM228 1029q11 -10 20 -22l32 -45q8 -11 17 -19q7 -7 22 -13l-102 -91q-15 7 -23 14q-9 8 -18 20l-30 44q-9 13 -19 22l-16 11l103 90zM481 1035q32 -43 55 -62q26 -23 54 -33l-103 -90q-28 10 -53 33q-15 12 -31 31l-25 31z" />
    <glyph glyph-name="divide" unicode="&#xf7;" horiz-adv-x="830" 
d="M9.60059 382q14.4004 23 37.2002 33l168.002 88q55.2002 28 172.802 0l94.8008 -24q50.4004 -15 75.6006 -18q168.002 -21 286.803 17l-94.8008 -59q-144.001 -74 -358.804 -48q-21.5996 3 -62.4004 14l-75.6006 21q-98.4014 27 -152.401 23zM433 771q37 -57 64 -82
q30 -30 62 -43l-119 -119q-32 14 -62 44q-16 16 -34 40l-29 41zM440 299q37 -57 64 -82q30 -30 62 -43l-119 -119q-32 14 -62 44q-16 16 -34 40l-29 41z" />
    <glyph glyph-name="oslash" unicode="&#xf8;" horiz-adv-x="634" 
d="M539 1049l-349 -1225l-51 24l349 1225zM190 180q42 -19 65.5 -43t48.5 -50l160 66l-4 -43l-157 -63l-88 -46q-43 37 -84.5 61.5t-108.5 40.5l37 26q-1 125 -0.5 250t12.5 245l131 78q-12 -126 -12 -258.5v-263.5zM461 115l-2 530q-54 0 -84 22.5t-66 61.5l-107 -62l1 35
l85 50l129 77q23 -25 40.5 -44t37 -33t42 -22t53.5 -8l-3 -543z" />
    <glyph glyph-name="ugrave" unicode="&#xf9;" horiz-adv-x="713" 
d="M702 93l33 19q3 -8 6 -14q3 -5 3.5 -9.5t-0.5 -4.5l-69 -51q-1 -2 -12.5 -6.5t-24 -10t-23.5 -10t-13 -4.5q-29 -8 -48.5 0t-31.5 29q-7 13 -11.5 29t-9.5 50l-223 -116q-23 42 -50.5 66t-59.5 35.5t-139 31.5l4 31l90 38l-1 467q-22 0 -39 9.5t-32.5 23.5t-30.5 30
t-33 30l129 77q18 -14 32 -30t30 -30t33.5 -23t41.5 -9l-1 -550q23 -8 62.5 -26t72.5 -66l113 58l3 500q-22 0 -41.5 10t-36.5 25.5t-32 34t-28 35.5l129 77q13 -17 27.5 -35.5t31.5 -34t37 -25.5t44 -10q0 -45 -2 -525q-1 -15 -1 -31q0 -12 2 -28.5t10 -30.5
q7 -14 13.5 -23t21.5 -12zM-4 1202q22 -37 62 -85q14 -16 30 -35l24 -27q34 -37 73 -74l31 -28q17 -15 31 -29l75 -201l-61 57q-39 36 -76 77q-28 31 -54 62q-40 48 -62 83z" />
    <glyph glyph-name="uacute" unicode="&#xfa;" horiz-adv-x="746" 
d="M724 101l33 19q3 -8 6 -14q3 -5 3.5 -9.5t-0.5 -4.5l-69 -51q-1 -2 -12.5 -6.5t-24 -10t-23.5 -10t-13 -4.5q-29 -8 -48.5 0t-31.5 29q-7 13 -11.5 29t-9.5 50l-223 -116q-23 42 -50.5 66t-59.5 35.5t-139 31.5l4 31l90 38l-1 467q-22 0 -39 9.5t-32.5 23.5t-30.5 30
t-33 30l129 77q18 -14 32 -30t30 -30t33.5 -23t41.5 -9l-1 -550q23 -8 62.5 -26t72.5 -66l113 58l3 500q-22 0 -41.5 10t-36.5 25.5t-32 34t-28 35.5l129 77q13 -17 27.5 -35.5t31.5 -34t37 -25.5t44 -10q0 -45 -2 -525q-1 -15 -1 -31q0 -12 2 -28.5t10 -30.5
q7 -14 13.5 -23t21.5 -12zM539 1062q-21 -35 -61 -83q-26 -31 -54 -62q-38 -41 -77 -77l-60 -57l75 201q14 14 30 29l31 28q40 37 74 74l23 27q17 19 31 35q39 48 62 85z" />
    <glyph glyph-name="ucircumflex" unicode="&#xfb;" horiz-adv-x="762" 
d="M733 94l33 19q3 -8 6 -14q3 -5 3.5 -9.5t-0.5 -4.5l-69 -51q-1 -2 -12.5 -6.5t-24 -10t-23.5 -10t-13 -4.5q-29 -8 -48.5 0t-31.5 29q-7 13 -11.5 29t-9.5 50l-223 -116q-23 42 -50.5 66t-59.5 35.5t-139 31.5l4 31l90 38l-1 467q-22 0 -39 9.5t-32.5 23.5t-30.5 30
t-33 30l129 77q18 -14 32 -30t30 -30t33.5 -23t41.5 -9l-1 -550q23 -8 62.5 -26t72.5 -66l113 58l3 500q-22 0 -41.5 10t-36.5 25.5t-32 34t-28 35.5l129 77q13 -17 27.5 -35.5t31.5 -34t37 -25.5t44 -10q0 -45 -2 -525q-1 -15 -1 -31q0 -12 2 -28.5t10 -30.5
q7 -14 13.5 -23t21.5 -12zM244 1061q22 -3 48 -17q17 -9 47 -29q1 -1 3 -2l3 -2q3 -3 6 -4q7 -5 12 -8q13 -9 23 -15q27 -15 51 -20q41 -8 80 -1l124 80q-24 -35 -57 -56l-116 -75q-67 -42 -148 -25q-23 4 -50 19q-11 6 -24 15l-24 15q-29 21 -47 30q-26 14 -50 16z" />
    <glyph glyph-name="udieresis" unicode="&#xfc;" horiz-adv-x="761" 
d="M734 99l33 19q3 -8 6 -14q3 -5 3.5 -9.5t-0.5 -4.5l-69 -51q-1 -2 -12.5 -6.5t-24 -10t-23.5 -10t-13 -4.5q-29 -8 -48.5 0t-31.5 29q-7 13 -11.5 29t-9.5 50l-223 -116q-23 42 -50.5 66t-59.5 35.5t-139 31.5l4 31l90 38l-1 467q-22 0 -39 9.5t-32.5 23.5t-30.5 30
t-33 30l129 77q18 -14 32 -30t30 -30t33.5 -23t41.5 -9l-1 -550q23 -8 62.5 -26t72.5 -66l113 58l3 500q-22 0 -41.5 10t-36.5 25.5t-32 34t-28 35.5l129 77q13 -17 27.5 -35.5t31.5 -34t37 -25.5t44 -10q0 -45 -2 -525q-1 -15 -1 -31q0 -12 2 -28.5t10 -30.5
q7 -14 13.5 -23t21.5 -12zM282 1048q11 -10 20 -22l32 -45q8 -11 17 -19q7 -7 22 -13l-102 -91q-15 7 -23 14q-9 8 -18 20l-30 44q-9 13 -19 22l-16 11l103 90zM535 1054q32 -43 55 -62q26 -23 54 -33l-103 -90q-28 10 -53 33q-15 12 -31 31l-25 31z" />
    <glyph glyph-name="yacute" unicode="&#xfd;" horiz-adv-x="688" 
d="M653 105l16 -96q15 -105 -38 -162l-111 -122q-49 -52 -130 -52q-81 1 -133 57l-76 89q-49 52 -86 71q-51 24 -90 -3q-20 -30 -28 -61l-112 -124q18 60 68 113l162 178q42 46 100 24q42 -18 97 -78l74 -87q77 -85 191 -49q9 45 -8 132l-12 74q-3 19 -4 36l116 87
q2 -13 4 -27zM529 40q-8 14 -12 30.5t-7 35.5q-9 1 -23.5 3t-28.5 0t-26.5 -8t-18.5 -20h1l-129 -79q-24 44 -51.5 68.5t-59.5 36.5t-71 14.5t-87 2.5l104 63q2 119 5.5 237.5t3.5 226.5q-22 0 -39.5 10t-33 24.5t-30 31t-32.5 30.5l129 80q18 -15 32 -31.5t29.5 -31
t33.5 -23.5t42 -9q0 -120 -4.5 -255t-4.5 -264l-19 -13q50 -3 89.5 -21.5t72.5 -67.5q13 13 39 19.5t74 0.5q-3 50 -1 98t2 75q0 87 2.5 169t2.5 174q-23 0 -42 10.5t-36.5 26.5t-32 35t-28.5 37l130 79q13 -18 27 -37t31 -35t37.5 -26t43.5 -10q0 -47 -0.5 -114.5
t-1.5 -139t-1.5 -139t-0.5 -110.5q-2 -15 -2 -32q0 -12 3 -29q2 -14 7 -27l-117 -99q0 2 -1 3zM548 1060q-21 -35 -61 -83q-26 -31 -54 -62q-38 -41 -77 -77l-60 -57l75 201q14 14 30 29l31 28q40 37 74 74l23 27q17 19 31 35q39 48 62 85z" />
    <glyph glyph-name="thorn" unicode="&#xfe;" horiz-adv-x="640" 
d="M59 168l131 106v-94q42 -19 65.5 -43t48.5 -50l160 66l-4 -43l-157 -63l-88 -46q-43 37 -84 62q-18 10 -41 19l-31 47v39zM461 115l-2 530q-54 0 -84 22.5t-66 61.5l-129 -73l9 34l99 62l129 77q23 -25 40.5 -44t37 -33t42 -22t53.5 -8l-3 -543zM190 -156q7 -17 18 -33.5
t26 -23.5l47 26q-1 -5 2.5 -8t8 -6t6 -6t-2.5 -6l-150 -84q-14 -7 -33 3.5t-47 43.5q-29 32 -66 45l-6 29q32 4 65 36v1042l131 74zM190 976l-132 -83v62q-27 0 -44 14q-18 8 -34 24l-58 -31l-21 23l56 31l137 77l44 -44q5 -6 12 -11h-1q12 -11 41 -25v-37z" />
    <glyph glyph-name="ydieresis" unicode="&#xff;" horiz-adv-x="673" 
d="M640 100l16 -96q15 -105 -38 -162l-111 -122q-49 -52 -130 -52q-81 1 -133 57l-76 89q-49 52 -86 71q-51 24 -90 -3q-20 -30 -28 -61l-112 -124q18 60 68 113l162 178q42 46 100 24q42 -18 97 -78l74 -87q77 -85 191 -49q9 45 -8 132l-12 74q-3 19 -4 36l116 87
q2 -13 4 -27zM516 35q-8 14 -12 30.5t-7 35.5q-9 1 -23.5 3t-28.5 0t-26.5 -8t-18.5 -20h1l-129 -79q-24 44 -51.5 68.5t-59.5 36.5t-71 14.5t-87 2.5l104 63q2 119 5.5 237.5t3.5 226.5q-22 0 -39.5 10t-33 24.5t-30 31t-32.5 30.5l129 80q18 -15 32 -31.5t29.5 -31
t33.5 -23.5t42 -9q0 -120 -4.5 -255t-4.5 -264l-19 -13q50 -3 89.5 -21.5t72.5 -67.5q13 13 39 19.5t74 0.5q-3 50 -1 98t2 75q0 87 2.5 169t2.5 174q-23 0 -42 10.5t-36.5 26.5t-32 35t-28.5 37l130 79q13 -18 27 -37t31 -35t37.5 -26t43.5 -10q0 -47 -0.5 -114.5
t-1.5 -139t-1.5 -139t-0.5 -110.5q-2 -15 -2 -32q0 -12 3 -29q2 -14 7 -27l-117 -99q0 2 -1 3zM198 1025q11 -10 20 -22l32 -45q8 -11 17 -19q7 -7 22 -13l-102 -91q-15 7 -23 14q-9 8 -18 20l-30 44q-9 13 -19 22l-16 11l103 90zM451 1031q32 -43 55 -62q26 -23 54 -33
l-103 -90q-28 10 -53 33q-15 12 -31 31l-25 31z" />
    <glyph glyph-name="OE" unicode="&#x152;" horiz-adv-x="1078" 
d="M1063 998q-19 -30 -39 -49l-113 -106q-24 -22 -128 31q-91 47 -128 83l-8 7q-1 0 -4 4l-3 3q-4 3 -4 5q-17 -25 -24 -42l-115 -107q32 74 111 147l112 106q9 7 16 6q5 -1 14 -7l18 -19q33 -30 111 -71q89 -49 127 -44zM600 507l-11 17l55 51l23 16q20 14 35 20
q41 18 63 -2q78 -74 165 -74l-113 -106q-85 0 -162 72q-20 19 -55 6zM634 959v-626q0 -44 4 -75q10 -84 55 -120q78 -61 164 -52q38 4 86 22q31 10 101 39l-135 -105q-66 -28 -97 -39q-49 -17 -85 -20q-86 -8 -165 54q-46 36 -58 120q-3 31 -3 75v625zM68 791l-2 2
q31 28 77 81t66 71l131 121q51 47 99 44q59 -4 139 -78q41 -36 47 -110q3 -25 7 -63v-456q3 -71 3 -129l-133 -121q0 59 -3 130q-1 29 -3 64l2 390q-3 40 -5 65q-6 72 -45 108q-105 101 -184 70l-31 -34q-19 -20 -34 -34l-2 2zM569 226q-19 -27 -34 -41l-131 -121
q-83 -76 -148 -72q-61 4 -144 82q-56 51 -63 151q-3 31 -1 89l-1 465l126 123q0 -44 10 -96v-124q1 -4 1 -5q-4 -302 -2 -333q6 -100 61 -150q121 -114 220 -60l122 113q8 6 22 13z" />
    <glyph glyph-name="oe" unicode="&#x153;" horiz-adv-x="986" 
d="M185 180q42 -19 65.5 -43t48.5 -50l160 66l-4 -43l-157 -63l-88 -46q-43 37 -84.5 61.5t-108.5 40.5l37 26q-1 125 -0.5 250t12.5 245l131 78q-12 -126 -12 -258.5v-263.5zM456 115l-2 530q-54 0 -84 22.5t-66 61.5l-107 -62l1 35l85 50l129 77q23 -25 40.5 -44t37 -33
t42 -22t53.5 -8l-3 -543zM580 312v-102q29 -10 72.5 -24t108.5 -67q4 -4 10 -14l121 70q3 3 8 5.5t10 3.5h1l13 -20q-41 -25 -77 -46q-31 -19 -60.5 -37.5t-44.5 -26.5l-69 -38q-3 -3 -6 -5q-3 -3 -6 -4l-6 -2q-7 26 -19 40t-42 39q-17 15 -41.5 23t-50.5 11t-51 3.5
t-42 0.5l1 16l44 26v494l266 143l87 46q43 -37 92 -64q44 -36 52 -88v-1l1 -185zM580 352l245 130q-4 28 -2 62q2 53 2 113h1q-24 46 -51 61q-32 17 -57 43l-138 -67v-342z" />
    <glyph glyph-name="Ydieresis" unicode="&#x178;" horiz-adv-x="986" 
d="M152 -139q-59 -54 -117 2q-37 33 -22 135q14 97 49 129l125 115q76 70 161 52q66 -14 139 -81q24 -20 48 -47l37 -44q22 12 51 23q-1 12 -4 41l-2 18l-1 93q0 51 1 89q3 107 13 157q10 44 13 111l-12 -10q-2 -3 -3 -4l-139 -128q-88 -81 -136 -38q-50 45 -58 104
q-4 22 -3 59l1 69q0 16 2 40l8 94q2 28 3 50q4 121 -41 164q-43 39 -142 14l128 117q93 25 137 -16q46 -43 44 -164q0 -23 -2 -51q-2 -17 -4 -49q-3 -32 -4 -45q-2 -24 -2 -40l-1 -70q-1 -37 2 -59q8 -59 57 -103q30 -27 80 -2l21 23l64 57q0 35 -2 79q-1 29 -4 80l-5 80
l-6 150q0 45 18 62l126 115q31 28 93 20q57 -7 89 -36l10 -12l-125 -115l-11 13q-25 23 -72 31l2 -19q1 -11 1 -18q0 -42 4 -110l7 -114q3 -65 1 -112q-2 -58 -12 -104q-10 -49 -13 -156q-1 -39 -1 -89l1 -93l5 -58q4 -51 -9 -63l-126 -115q-12 -11 -36 -23q-17 -8 -47 -19
l-18 -7q-4 -1 -6 -2q-14 -5 -23 -9q-24 -9 -36 -16q-41 52 -86 94q-51 45 -97 65q-57 25 -110 12q-19 -58 -20 -114q0 -64 26 -87q44 -40 86 -21l81 75q19 17 36 21l-128 -117l-7 -1zM502 1463q11 -10 20 -22l32 -45q8 -11 17 -19q7 -7 22 -13l-102 -91q-15 7 -23 14
q-9 8 -18 20l-30 44q-9 13 -19 22l-16 11l103 90zM755 1469q32 -43 55 -62q26 -23 54 -33l-103 -90q-28 10 -53 33q-15 12 -31 31l-25 31z" />
    <glyph glyph-name="circumflex" unicode="&#x2c6;" horiz-adv-x="632" 
d="M144 1369q22 -3 48 -17q17 -9 47 -29q1 -1 3 -2l3 -2q3 -3 6 -4q7 -5 12 -8q13 -9 23 -15q27 -15 51 -20q41 -8 80 -1l124 80q-24 -35 -57 -56l-116 -75q-67 -42 -148 -25q-23 4 -50 19q-11 6 -24 15l-24 15q-29 21 -47 30q-26 14 -50 16z" />
    <glyph glyph-name="tilde" unicode="&#x2dc;" horiz-adv-x="671" 
d="M50 923q0 1 1 2l15 18l105 97q28 27 80 27q20 0 49 -4l53 -9q68 -11 106 -8q58 5 95 41l17 15l1 -1l-112 -105q-38 -36 -93 -43q-39 -6 -101 3l-50 7q-29 5 -48 6q-51 3 -81 -13z" />
    <glyph glyph-name="endash" unicode="&#x2013;" horiz-adv-x="656" 
d="M609 427v-73h-553v73h553z" />
    <glyph glyph-name="emdash" unicode="&#x2014;" horiz-adv-x="896" 
d="M820 427v-73h-764v73h764z" />
    <glyph glyph-name="quoteleft" unicode="&#x2018;" horiz-adv-x="314" 
d="M172.5 1079q-13.5 -24 -13.5 -47q0 -26 15 -53q9 -17 53 -55l-16 -26q-142 74 -178 247l97 99l97 -105q-41 -36 -54.5 -60z" />
    <glyph glyph-name="quoteright" unicode="&#x2019;" horiz-adv-x="305" 
d="M67 1100l97 105l97 -99q-36 -173 -178 -247l-16 26q44 38 53 55q15 27 15 53q0 23 -13.5 47t-54.5 60z" />
    <glyph glyph-name="quotesinglbase" unicode="&#x201a;" horiz-adv-x="257" 
d="M28 156l97 105l97 -99q-36 -173 -178 -247l-16 26q44 38 53 55q15 27 15 53q0 23 -13.5 47t-54.5 60z" />
    <glyph glyph-name="quotedblleft" unicode="&#x201c;" horiz-adv-x="634" 
d="M191.5 1098q-13.5 -24 -13.5 -47q0 -26 15 -53q9 -17 53 -55l-16 -26q-142 74 -178 247l97 99l97 -105q-41 -36 -54.5 -60zM444.5 1093q-13.5 -24 -13.5 -47q0 -26 15 -53q9 -17 53 -55l-16 -26q-142 74 -178 247l97 99l97 -105q-41 -36 -54.5 -60z" />
    <glyph glyph-name="quotedblright" unicode="&#x201d;" horiz-adv-x="566" 
d="M306 1173l97 105l97 -99q-36 -173 -178 -247l-16 26q44 38 53 55q15 27 15 53q0 23 -13.5 47t-54.5 60zM53 1168l97 105l97 -99q-36 -173 -178 -247l-16 26q44 38 53 55q15 27 15 53q0 23 -13.5 47t-54.5 60z" />
    <glyph glyph-name="quotedblbase" unicode="&#x201e;" horiz-adv-x="501" 
d="M280 169l97 105l97 -99q-36 -173 -178 -247l-16 26q44 38 53 55q15 27 15 53q0 23 -13.5 47t-54.5 60zM27 164l97 105l97 -99q-36 -173 -178 -247l-16 26q44 38 53 55q15 27 15 53q0 23 -13.5 47t-54.5 60z" />
    <glyph glyph-name="dagger" unicode="&#x2020;" horiz-adv-x="850" 
d="M118 633l-119 127l120 122q116 -92 243 -103q0 3 -1 7l24 -23l-24 -25q-121 -4 -243 -105zM455 738h-6q3 -140 109 -235q-56 -126 -80 -294q-31 -211 -31 -445q0 -13 1 -39h-43q-5 338 -31 505q-21 131 -79 272q103 93 111 236h-2l24 25zM483 775q67 6 132 35t110 68
l118 -124l-118 -123q-103 94 -235 103l-27 25l20 20v-4zM408 812q-7 87 -32 157q-20 54 -75 139l130 122l131 -125q-44 -51 -75 -130q-31 -77 -35 -166l-20 -20z" />
    <glyph glyph-name="daggerdbl" unicode="&#x2021;" horiz-adv-x="913" 
d="M137 975l-119 127l120 122q116 -92 243 -103q0 3 -1 7l24 -23l-24 -25q-121 -4 -243 -105zM474 1026h-6q3 -530 109 -625q-56 -126 -80 -294q-31 -211 -31 -445q0 -13 1 -39h-43q-5 338 -31 505q-21 131 -79 272q103 93 111 626h-2l24 25zM502 1117q67 6 132 35t110 68
l118 -124l-118 -123q-103 94 -235 103l-27 25l20 20v-4zM427 1154q-7 87 -32 157q-20 54 -75 139l130 122l131 -125q-44 -51 -75 -130q-31 -77 -35 -166l-20 -20zM123 607l-119 127l120 122q116 -92 243 -103q0 3 -1 7l24 -23l-24 -25q-121 -4 -243 -105zM538 749
q67 6 132 35t110 68l118 -124l-118 -123q-103 94 -235 103l-27 25l20 20v-4z" />
    <glyph glyph-name="bullet" unicode="&#x2022;" horiz-adv-x="539" 
d="M241 581q37 -57 64 -82q30 -30 62 -43l-119 -119q-32 14 -62 44q-16 16 -34 40l-29 41z" />
    <glyph glyph-name="ellipsis" unicode="&#x2026;" horiz-adv-x="1376" 
d="M275 0l-119 113l119 114l120 -114zM650 0l-119 113l119 114l120 -114zM1034 0l-118 113l118 114l120 -114z" />
    <glyph glyph-name="perthousand" unicode="&#x2030;" horiz-adv-x="1537" 
d="M165 -26l571 1156h93l-576 -1161zM326.987 555.595l2.39941 311.388q0.600586 6 0.600586 10.1992q1.2002 23.3994 -7.2002 35.999q-2.39941 4.7998 -7.19922 9.59961q-8.40039 8.39941 -25.1992 20.3994l-82.7969 56.3975l-82.7969 -64.1973l-0.599609 -248.99
q-1.2002 -10.1992 -1.7998 -17.3994q-2.39941 -41.3984 5.39941 -56.3975q7.2002 -13.1992 18.5996 -24.5986q13.7998 -13.2002 47.3984 -34.7988q0.599609 0 3.59961 -1.2002l20.3994 -13.7998q13.1992 -8.39941 20.3984 -14.999q7.2002 -7.2002 19.1992 -18.5996
q49.7979 34.1992 61.7979 40.1982q3.59961 1.80078 7.7998 10.7998zM326.987 535.195l-17.999 -17.999q-26.999 -25.1982 -64.1973 -47.3975q-14.4004 -8.40039 -36.5986 -20.3994l-40.7988 -20.999l-10.7998 14.3994q-7.19922 7.19922 -19.1992 15.5986l-25.1982 15.5996
q-33.5986 21.5996 -48.5986 35.3984q-13.7988 13.7998 -19.1992 24.5996q-7.7998 14.999 -4.7998 56.3975q0.600586 7.2002 1.2002 16.7998l3 32.3984l0.599609 13.7988l-0.599609 236.391q174.593 140.395 193.192 155.394l42.5977 41.3984q4.2002 -3 10.7998 -7.7998
l29.999 -19.1992l50.998 -35.998q16.7988 -12 25.7988 -20.999l8.99902 -10.7998q8.40039 -12.5996 7.2002 -35.999q-9.59961 -278.389 -2.40039 -352.785zM867.987 126.595l2.39941 311.388q0.600586 6 0.600586 10.1992q1.2002 23.3994 -7.2002 35.999
q-2.39941 4.7998 -7.19922 9.59961q-8.40039 8.39941 -25.1992 20.3994l-82.7969 56.3975l-82.7969 -64.1973l-0.599609 -248.99q-1.2002 -10.1992 -1.7998 -17.3994q-2.39941 -41.3984 5.39941 -56.3975q7.2002 -13.1992 18.5996 -24.5986
q13.7998 -13.2002 47.3984 -34.7988q0.599609 0 3.59961 -1.2002l20.3994 -13.7998q13.1992 -8.39941 20.3984 -14.999q7.2002 -7.2002 19.1992 -18.5996q49.7979 34.1992 61.7979 40.1982q3.59961 1.80078 7.7998 10.7998zM867.987 106.195l-17.999 -17.999
q-26.999 -25.1982 -64.1973 -47.3975q-14.4004 -8.40039 -36.5986 -20.3994l-40.7988 -20.999l-10.7998 14.3994q-7.19922 7.19922 -19.1992 15.5986l-25.1982 15.5996q-33.5986 21.5996 -48.5986 35.3984q-13.7988 13.7998 -19.1992 24.5996
q-7.7998 14.999 -4.7998 56.3975q0.600586 7.2002 1.2002 16.7998l3 32.3984l0.599609 13.7988l-0.599609 236.391q174.593 140.395 193.192 155.394l42.5977 41.3984q4.2002 -3 10.7998 -7.7998l29.999 -19.1992l50.998 -35.998q16.7988 -12 25.7988 -20.999
l8.99902 -10.7998q8.40039 -12.5996 7.2002 -35.999q-9.59961 -278.389 -2.40039 -352.785zM1337.99 113.595l2.39941 311.388q0.600586 6 0.600586 10.1992q1.2002 23.3994 -7.2002 35.999q-2.39941 4.7998 -7.19922 9.59961q-8.40039 8.39941 -25.1992 20.3994
l-82.7969 56.3975l-82.7969 -64.1973l-0.599609 -248.99q-1.2002 -10.1992 -1.7998 -17.3994q-2.39941 -41.3984 5.39941 -56.3975q7.2002 -13.1992 18.5996 -24.5986q13.7998 -13.2002 47.3984 -34.7988q0.599609 0 3.59961 -1.2002l20.3994 -13.7998
q13.1992 -8.39941 20.3984 -14.999q7.2002 -7.2002 19.1992 -18.5996q49.7979 34.1992 61.7979 40.1982q3.59961 1.80078 7.7998 10.7998zM1337.99 93.1953l-17.999 -17.999q-26.999 -25.1982 -64.1973 -47.3975q-14.4004 -8.40039 -36.5986 -20.3994l-40.7988 -20.999
l-10.7998 14.3994q-7.19922 7.19922 -19.1992 15.5986l-25.1982 15.5996q-33.5986 21.5996 -48.5986 35.3984q-13.7988 13.7998 -19.1992 24.5996q-7.7998 14.999 -4.7998 56.3975q0.600586 7.2002 1.2002 16.7998l3 32.3984l0.599609 13.7988l-0.599609 236.391
q174.593 140.395 193.192 155.394l42.5977 41.3984q4.2002 -3 10.7998 -7.7998l29.999 -19.1992l50.998 -35.998q16.7988 -12 25.7988 -20.999l8.99902 -10.7998q8.40039 -12.5996 7.2002 -35.999q-9.59961 -278.389 -2.40039 -352.785z" />
    <glyph glyph-name="guilsinglleft" unicode="&#x2039;" horiz-adv-x="575" 
d="M234 430l303 -336h-194l-303 339l295 274l202 3z" />
    <glyph glyph-name="guilsinglright" unicode="&#x203a;" horiz-adv-x="575" 
d="M40 715l198 -3l289 -276l-296 -342h-191l296 338z" />
    <glyph glyph-name="Euro" unicode="&#x20ac;" horiz-adv-x="810" 
d="M204 766q7 40 61 97l103 102q52 50 102 68q59 22 93 -13q18 -17 44 -78q14 -31 21 -46q13 -24 27 -38q35 -32 87 -17l-105 -104q-51 -14 -85 20q-14 14 -27 38q-8 15 -21 45q0 1 -1 2l-18 42q-12 22 -23 33q-47 47 -137 -8q-14 -23 -16 -39zM312 868v-546q0 -44 4 -75
q10 -84 55 -120q78 -61 164 -52q38 4 86 22q31 10 101 39l-135 -105q-66 -28 -97 -39q-49 -17 -85 -20q-86 -8 -165 54q-46 36 -58 120q-3 31 -3 75v545zM465 556.51q-24 -12.96 -51 -18q-53 -7.91992 -109 0.720703q-21 2.87891 -49 9.35938l-45 10.7988
q-53 12.2402 -88 12.2402q-48 -0.720703 -94 -23.0391l-2 0.719727l143 86.3965q45 21.5986 94 22.3193q34 0.719727 86 -10.7998q8 -2.16016 22 -5.04004l22 -5.75977q14 -3.59961 23 -5.03906l24 -4.32031q56 -8.63965 106 -2.87988l36 22.3193l13 -10.7998zM450 353.918
q-24 -11.1602 -51 -15.5q-53 -6.81934 -109 0.620117q-21 2.48047 -49 8.06055l-45 9.2998q-53 10.54 -88 10.54q-48 -0.620117 -94 -19.8398l-2 0.620117l143 74.3984q45 18.6006 94 19.2207q34 0.619141 86 -9.30078q8 -1.85938 22 -4.33984l22 -4.95996
q14 -3.09961 23 -4.33984l24 -3.71973q56 -7.43945 106 -2.48047l36 19.2207l13 -9.30078z" />
  </font>
</defs>
</svg>
