<?xml version="1.0" standalone="no"?>
<!DOCTYPE svg PUBLIC "-//W3C//DTD SVG 1.1//EN" "http://www.w3.org/Graphics/SVG/1.1/DTD/svg11.dtd" >
<svg>
<metadata>
Created by FontForge 20090914 at Thu Oct 24 07:52:58 2013
 By www-data
Copyright 1991 as an unpublished work by Bitstream Inc.  All rights reserved.  Confidential.
</metadata>
<defs>
<font id="AppleGaramond-Bold" horiz-adv-x="500" >
  <font-face 
    font-family="Apple Garamond"
    font-weight="700"
    font-stretch="normal"
    units-per-em="1000"
    panose-1="2 0 8 6 8 0 0 2 0 4"
    ascent="800"
    descent="-200"
    x-height="444"
    cap-height="630"
    bbox="-134 -236 922.997 879.003"
    underline-thickness="102"
    underline-position="-59"
    unicode-range="U+0020-U+FB02"
  />
<missing-glyph horiz-adv-x="235" 
 />
    <glyph glyph-name=".notdef" horiz-adv-x="235" 
 />
    <glyph glyph-name="space" unicode=" " horiz-adv-x="235" 
 />
    <glyph glyph-name="space" unicode="&#xa0;" horiz-adv-x="235" 
 />
    <glyph glyph-name="exclam" unicode="!" horiz-adv-x="259" 
d="M189 461l8.00098 49.5c2.66699 16.333 4 33.166 4 50.499c0 24 -6.33301 42.667 -19 56s-30 20 -52 20c-22.667 0 -40.334 -6.66699 -53.001 -20s-19 -32.666 -19 -57.999c0 -16 1.5 -32 4.5 -48s5.83301 -32.667 8.5 -50l39 -267c2 -16.667 8.66699 -25 20 -25
s18 8.33301 20 25zM130.001 132c-18 0 -33.333 -6.66699 -46 -20s-19 -30.333 -19 -51s6.33301 -37.5 19 -50.5s28 -19.5 46 -19.5c17.333 0 32.333 6.66699 45 20s19 30 19 50s-6.33301 36.833 -19 50.5s-27.667 20.5 -45 20.5z" />
    <glyph glyph-name="quotedbl" unicode="&#x22;" horiz-adv-x="339" 
d="M78 418h19l36 224c0.666992 3.33301 1 6.33301 1 9v10c0 35.333 -15.667 53 -47 53c-30.667 0 -46 -17.667 -46 -53v-10c0 -2.66699 0.333008 -5.66699 1 -9zM242 418l19 0.00195312l36 224c0.666992 3.33301 1.16699 6.66602 1.5 9.99902s0.5 6.66602 0.5 9.99902
c0 16.667 -4.16699 29.5 -12.5 38.5s-19.833 13.5 -34.5 13.5s-26.167 -4.5 -34.5 -13.5s-12.5 -22.167 -12.5 -39.5v-10c0 -2.66699 0.333008 -5.66699 1 -9z" />
    <glyph glyph-name="numbersign" unicode="#" horiz-adv-x="769" 
d="M449 713h-89l-76 -213h-155l-30 -81h156l-45 -128h-147l-29 -82h147l-76 -212h90l75 212h131l-76 -212h90l75 212h150l29 82h-150l45 128h142l29 81h-142l76 213h-89l-76 -213h-131zM477 419l-46 -129h-134l46 129h134z" />
    <glyph glyph-name="dollar" unicode="$" horiz-adv-x="470" 
d="M262 733l-11.999 -106.998c-24 -2 -45.833 -8.33301 -65.5 -19s-36.667 -24.667 -51 -42s-25.333 -37.666 -33 -60.999s-11.5 -49 -11.5 -77c0 -38.667 10 -72.834 30 -102.501s50 -54.167 90 -73.5l-22 -203c-19.333 3.33301 -32.833 11.5 -40.5 24.5
s-14.834 32.167 -21.501 57.5c-6 22.667 -10.833 39.834 -14.5 51.501s-10.167 17.5 -19.5 17.5c-12.667 0 -19 -11.333 -19 -34v-82c0 -10 1.16699 -18.667 3.5 -26s7.33301 -14 15 -20s18.667 -11.667 33 -17s33.833 -11 58.5 -17l-16 -144h45l15 142
c24 0.666992 46.5 6.5 67.5 17.5s39.167 25.667 54.5 44s27.5 39.666 36.5 63.999s13.5 50.166 13.5 77.499c0 41.333 -10.5 77.666 -31.5 108.999s-53.5 59.666 -97.5 84.999l19 172c12.667 -8 22.167 -18.167 28.5 -30.5s11.5 -24.333 15.5 -36s7.66699 -21.5 11 -29.5
s8.33301 -12 15 -12c10 0 15.667 9 17 27l2 63v10c0 6 -0.833008 11.333 -2.5 16s-5.16699 9.33398 -10.5 14.001s-13.5 9.66699 -24.5 15s-25.833 11.333 -44.5 18l11 108h-44zM245.001 577.002l-18 -159c-39.333 16.667 -59 43 -59 79c0 24 6.66699 43.333 20 58
s30.333 22 51 22h6zM251.001 230.002c18 -8 31.666 -19.833 40.999 -35.5s14 -34.167 14 -55.5c0 -25.333 -7.16699 -47 -21.5 -65s-32.166 -27.333 -53.499 -28z" />
    <glyph glyph-name="percent" unicode="%" horiz-adv-x="633" 
d="M178 648c-19.333 0 -37.833 -4.16797 -55.5 -12.501s-33.167 -20 -46.5 -35s-24 -32.5 -32 -52.5s-12 -42 -12 -66c0 -23.333 4 -44.666 12 -63.999s18.667 -36 32 -50s28.833 -24.833 46.5 -32.5s36.167 -11.5 55.5 -11.5c18.667 0 36.667 4.16699 54 12.5
s32.833 19.833 46.5 34.5s24.5 32.167 32.5 52.5s12 42.5 12 66.5c0 22 -3.83301 42.667 -11.5 62s-18 36 -31 50s-28.333 25.167 -46 33.5s-36.5 12.5 -56.5 12.5zM497 647.999l-406 -667h46l405 667h-45zM176 611.999c16.667 0 30.832 -11.667 42.499 -35
s17.5 -56 17.5 -98c0 -38 -5.33301 -67.333 -16 -88s-24 -31 -40 -31c-16.667 0 -31 12 -43 36s-18 56.333 -18 97c0 37.333 5.33301 66.5 16 87.5s24.334 31.5 41.001 31.5zM455.998 304.999c-19.333 0 -37.834 -4.16602 -55.501 -12.499s-33.167 -20 -46.5 -35
s-24 -32.5 -32 -52.5s-12 -42 -12 -66c0 -22.667 3.83301 -43.667 11.5 -63s18.167 -36 31.5 -50s28.833 -25 46.5 -33s36.5 -12 56.5 -12c18.667 0 36.834 4.16699 54.501 12.5s33.167 19.833 46.5 34.5s24 32.167 32 52.5s12 42.5 12 66.5c0 22 -3.83301 42.5 -11.5 61.5
s-18 35.667 -31 50s-28.333 25.666 -46 33.999s-36.5 12.5 -56.5 12.5zM453.997 269c16.667 0 30.832 -11.667 42.499 -35s17.5 -56 17.5 -98c0 -38 -5.33301 -67.333 -16 -88s-24 -31 -40 -31c-16.667 0 -31 11.833 -43 35.5s-18 56.167 -18 97.5
c0 37.333 5.33301 66.5 16 87.5s24.334 31.5 41.001 31.5z" />
    <glyph glyph-name="ampersand" unicode="&#x26;" horiz-adv-x="615" 
d="M283 607c6.66699 0 13.835 -2.50098 21.502 -7.50098s14.5 -12.333 20.5 -22s11 -21 15 -34s6 -27.5 6 -43.5c0 -11.333 -1.66699 -21.5 -5 -30.5s-7.5 -16.667 -12.5 -23s-10.333 -11.166 -16 -14.499s-10.834 -5 -15.501 -5c-3.33301 0 -8 4 -14 12s-12.333 18 -19 30
s-12.334 25 -17.001 39s-7 26.667 -7 38c0 40.667 14.333 61 43 61zM359.001 405.999c31.333 14.667 53.9971 30.8262 67.9971 48.4932s21 41.834 21 72.501c0 38 -14.333 67.667 -43 89s-68 32 -118 32c-25.333 0 -48.5 -3.66699 -69.5 -11s-39 -17.333 -54 -30
s-26.667 -28 -35 -46s-12.5 -37.333 -12.5 -58c0 -21.333 3.66699 -40.166 11 -56.499s15 -32.166 23 -47.499l14 -29c3.33301 -8 5 -12.667 5 -14c0 -4.66699 -4.33301 -9 -13 -13l-19 -9c-40 -19.333 -69.667 -42.833 -89 -70.5s-29 -61.5 -29 -101.5
c0 -55.333 13.167 -99.333 39.5 -132s60.833 -49 103.5 -49c17.333 0 32.833 1.83301 46.5 5.5s26.5 8.83398 38.5 15.501s23.667 14.667 35 24l36 31l21 19c6.66699 5.33301 11 8 13 8s6.33301 -5.33301 13 -16l11 -19c9.33301 -15.333 17.333 -27 24 -35
s17.667 -12 33 -12c7.33301 0 15.333 0.333008 24 1s18.667 1 30 1c18.667 0 35.334 -0.666992 50.001 -2s27.667 -2 39 -2c16.667 0 25 5.33301 25 16c0 6 -2.33301 10 -7 12s-11.5 5.5 -20.5 10.5s-19.833 13 -32.5 24s-27 28.833 -43 53.5l-50 78
c-3.33301 5.33301 -5 10 -5 14c0 2.66699 2.33301 7.33398 7 14.001l34 51c15.333 22 29.666 38.333 42.999 49s25 18.5 35 23.5s17.833 8.66699 23.5 11s8.5 6.83301 8.5 13.5c0 9.33301 -5 14 -15 14c-5.33301 0 -12.666 -0.5 -21.999 -1.5s-21.666 -1.5 -36.999 -1.5
c-32 0 -56.5 0.833008 -73.5 2.5s-27.167 2.5 -30.5 2.5c-14 0 -21 -5.66699 -21 -17c0 -10 3.33301 -15.333 10 -16s14.334 -1.66699 23.001 -3c18 -3.33301 27 -12.666 27 -27.999c0 -14.667 -3.33301 -27 -10 -37l-16 -23c-5.33301 -7.33301 -10 -11 -14 -11
c-2.66699 0 -5.66699 2.66699 -9 8l-79 119c-1.33301 2.66699 -2 4.66699 -2 6c0 4.66699 3.33301 8.33398 10 11.001zM204.998 313.991l117.998 -181c2 -2 3 -5.33301 3 -10c0 -2 -0.166992 -4 -0.5 -6s-1.16602 -3.33301 -2.49902 -4l-15 -13
c-9.33301 -8 -18.666 -13.667 -27.999 -17s-20 -5 -32 -5c-14 0 -27.5 3.83301 -40.5 11.5s-24.333 18 -34 31s-17.334 28.167 -23.001 45.5s-8.5 35.333 -8.5 54c0 18 3 34 9 48s14.333 25.667 25 35l13 11c2.66699 2.66699 5.33398 4 8.00098 4c3.33301 0 6 -1.33301 8 -4
z" />
    <glyph glyph-name="quotesingle" unicode="'" horiz-adv-x="175" 
d="M78 418h19l36 224c0.666992 3.33301 1 6.33301 1 9v10c0 35.333 -15.667 53 -47 53c-30.667 0 -46 -17.667 -46 -53v-10c0 -2.66699 0.333008 -5.66699 1 -9z" />
    <glyph glyph-name="parenleft" unicode="(" horiz-adv-x="315" 
d="M277 649c-3.33301 0 -9.00098 -2.00195 -17.001 -6.00195s-17.333 -10 -28 -18s-22.167 -18 -34.5 -30s-24.5 -26 -36.5 -42c-78 -103.333 -117 -217.666 -117 -342.999c0 -67.333 11 -131.333 33 -192s53.333 -115.334 94 -164.001c23.333 -28 45.5 -48.833 66.5 -62.5
s34.167 -20.5 39.5 -20.5c9.33301 0 14 4.33301 14 13c0 4.66699 -1.83301 8.83398 -5.5 12.501s-8.66699 8.16699 -15 13.5s-13.666 12.5 -21.999 21.5s-16.833 20.833 -25.5 35.5c-20.667 35.333 -37.5 82 -50.5 140s-19.5 125.667 -19.5 203c0 76.667 6.33301 144 19 202
s29.667 105 51 141c8.66699 14.667 17 26.5 25 35.5s15.167 16.167 21.5 21.5s11.5 9.83301 15.5 13.5s6 7.83398 6 12.501c0 8.66699 -4.66699 13 -14 13z" />
    <glyph glyph-name="parenright" unicode=")" horiz-adv-x="315" 
d="M37 649c-9.33301 0 -14 -4.33105 -14 -12.998c0 -4.66699 2.16699 -9 6.5 -13l17 -15.5c7 -6.33301 15 -14.833 24 -25.5s18.167 -25 27.5 -43c18 -34 33 -78.833 45 -134.5s18 -120.5 18 -194.5c0 -77.333 -6.5 -145 -19.5 -203s-29.833 -104.667 -50.5 -140
c-8.66699 -14.667 -17.167 -26.5 -25.5 -35.5s-15.666 -16.167 -21.999 -21.5s-11.333 -9.83301 -15 -13.5s-5.5 -7.83398 -5.5 -12.501c0 -8.66699 4.66699 -13 14 -13c2.66699 0 8 2 16 6s17.5 10 28.5 18s22.667 18 35 30s24.5 26 36.5 42
c77.333 102 116 216.333 116 343c0 127.333 -38.667 241.666 -116 342.999c-12 16 -24.333 30 -37 42s-24.334 22 -35.001 30s-20 14 -28 18s-13.333 6 -16 6z" />
    <glyph glyph-name="asterisk" unicode="*" horiz-adv-x="400" 
d="M206 456l-0.00292969 8.99902c0 16.667 1.66699 31.667 5 45s7 25.333 11 36l11 30c3.33301 9.33301 5 18.333 5 27c0 14 -3.5 25 -10.5 33s-16.167 12 -27.5 12s-20.5 -4 -27.5 -12s-10.5 -18.667 -10.5 -32c0 -8.66699 1.66699 -17.834 5 -27.501l11 -31.5
c4 -11.333 7.66699 -24 11 -38s5 -29.667 5 -47v-3c-16 11.333 -28.667 23.666 -38 36.999s-17.166 25.833 -23.499 37.5s-12.666 21.334 -18.999 29.001s-14.833 11.5 -25.5 11.5c-9.33301 0 -17.666 -5 -24.999 -15s-11 -22 -11 -36c0 -12.667 4 -23.334 12 -32.001
s18.667 -13.667 32 -15c6 -0.666992 12.167 -1.16699 18.5 -1.5s13.333 -1.33301 21 -3s15.667 -4.33398 24 -8.00098s17.5 -9.16699 27.5 -16.5c-25.333 -20 -56.666 -30 -93.999 -30c-8.66699 0 -17.667 -4.16699 -27 -12.5s-14 -19.5 -14 -33.5
c0 -13.333 4 -25.333 12 -36s16.333 -16 25 -16c9.33301 0 17 3.66699 23 11s12.333 16.666 19 27.999s14.667 23.833 24 37.5s22 26.834 38 39.501v-11c0 -16 -1.66699 -30.333 -5 -43s-6.83301 -24.5 -10.5 -35.5l-10.5 -30.5c-3.33301 -9.33301 -5 -18.333 -5 -27
c0 -14 3.5 -25 10.5 -33s16.167 -12 27.5 -12s20.333 4.16699 27 12.5s10 19.166 10 32.499c0 8 -1.66699 16.667 -5 26l-10.5 30.5c-3.66699 11 -7.16699 23.333 -10.5 37s-5 28.834 -5 45.501v6c16 -11.333 28.5 -23.666 37.5 -36.999s16.833 -25.666 23.5 -36.999
s13.167 -21 19.5 -29s14.833 -12 25.5 -12c9.33301 0 17.666 5.33301 24.999 16s11 21.667 11 33c0 30 -15.667 46.667 -47 50c-6 0.666992 -12 1.16699 -18 1.5s-12.5 1.33301 -19.5 3s-14.667 4.33398 -23 8.00098s-17.5 9.16699 -27.5 16.5
c15.333 12 29.333 19.5 42 22.5s25.334 5.16699 38.001 6.5c36.667 2.66699 55 18.334 55 47.001c0 13.333 -3.83301 25.333 -11.5 36s-15.834 16 -24.501 16c-10 0 -18.167 -3.66699 -24.5 -11s-12.833 -16.5 -19.5 -27.5s-14.667 -23.5 -24 -37.5s-22 -27.333 -38 -40z
" />
    <glyph glyph-name="plus" unicode="+" horiz-adv-x="833" 
d="M458 596h-83v-257h-251v-81h251v-258h83v258h251v81h-251v257z" />
    <glyph glyph-name="comma" unicode="," horiz-adv-x="235" 
d="M45 56c0 -15.333 3.66895 -28.332 11.002 -38.999s17.666 -17.667 30.999 -21c8 -2 14.667 -3 20 -3s9.66602 -0.333008 12.999 -1s5.83301 -2.33398 7.5 -5.00098s2.5 -8 2.5 -16c0 -18 -3.83301 -33.5 -11.5 -46.5s-16.167 -24.333 -25.5 -34s-17.833 -18 -25.5 -25
s-11.5 -13.5 -11.5 -19.5c0 -9.33301 4.33301 -14 13 -14c14 0 35.667 18.667 65 56c17.333 21.333 30.166 43 38.499 65s12.5 45.667 12.5 71c0 32 -7.16699 57.5 -21.5 76.5s-32.166 28.5 -53.499 28.5c-19.333 0 -35 -6.83301 -47 -20.5s-18 -31.167 -18 -52.5z" />
    <glyph glyph-name="hyphen" unicode="-" horiz-adv-x="243" 
d="M50 285c-6.66699 0 -11.334 -4.33398 -14.001 -13.001l-24 -100c-1.33301 -5.33301 -2 -7.66602 -2 -6.99902c0 -3.33301 2.33301 -5 7 -5h177c6.66699 0 11.334 4.33301 14.001 13l25 99c0.666992 2 1 4.66699 1 8s-2.33301 5 -7 5h-177z" />
    <glyph glyph-name="hyphen" unicode="&#xad;" horiz-adv-x="243" 
d="M50 285c-6.66699 0 -11.334 -4.33398 -14.001 -13.001l-24 -100c-1.33301 -5.33301 -2 -7.66602 -2 -6.99902c0 -3.33301 2.33301 -5 7 -5h177c6.66699 0 11.334 4.33301 14.001 13l25 99c0.666992 2 1 4.66699 1 8s-2.33301 5 -7 5h-177z" />
    <glyph glyph-name="period" unicode="." horiz-adv-x="235" 
d="M118 132c-18 0 -33.333 -6.66699 -46 -20s-19 -30.333 -19 -51s6.33301 -37.5 19 -50.5s28 -19.5 46 -19.5c17.333 0 32.333 6.66699 45 20s19 30 19 50s-6.33301 36.833 -19 50.5s-27.667 20.5 -45 20.5z" />
    <glyph glyph-name="slash" unicode="/" horiz-adv-x="222" 
d="M222 648l-246 -741h42l246 741h-42z" />
    <glyph glyph-name="zero" unicode="0" horiz-adv-x="470" 
d="M235 648c-29.333 0 -56.666 -7.33301 -81.999 -22s-47.666 -36.167 -66.999 -64.5s-34.5 -63.166 -45.5 -104.499s-16.5 -88.666 -16.5 -141.999s5.5 -100.666 16.5 -141.999s26.167 -76.333 45.5 -105s41.666 -50.334 66.999 -65.001s52.666 -22 81.999 -22
c28.667 0 55.834 7.33301 81.501 22s48.167 36.334 67.5 65.001s34.5 63.667 45.5 105s16.5 88.666 16.5 141.999s-5.66699 100.666 -17 141.999s-26.5 76.166 -45.5 104.499s-41.333 49.833 -67 64.5s-52.834 22 -81.501 22zM235 606c32 0 54.833 -24.168 68.5 -72.501
s20.5 -121.833 20.5 -220.5c0 -193.333 -29.667 -290 -89 -290c-32 0 -54.833 24.333 -68.5 73s-20.5 122.334 -20.5 221.001c0 192.667 29.667 289 89 289z" />
    <glyph glyph-name="one" unicode="1" horiz-adv-x="470" 
d="M321 631c0 11.333 -3.99805 16.9971 -11.998 16.9971c-4 0 -17.667 -6.16699 -41 -18.5s-59 -27.166 -107 -44.499c-15.333 -5.33301 -28.666 -9.66602 -39.999 -12.999s-20.833 -6.5 -28.5 -9.5s-13.334 -6.33301 -17.001 -10s-5.5 -8.5 -5.5 -14.5
c0 -13.333 5.66699 -20 17 -20c8 0 16.167 1.33301 24.5 4s16.333 5.66699 24 9l21.5 9c6.66699 2.66699 12.667 4 18 4c8.66699 0 14.167 -2.83301 16.5 -8.5s3.5 -14.5 3.5 -26.5v-400c0 -20 -1.83301 -34 -5.5 -42s-13.167 -13 -28.5 -15
c-10.667 -1.33301 -20.167 -2.16602 -28.5 -2.49902s-15.5 -1.16602 -21.5 -2.49902s-10.5 -3.83301 -13.5 -7.5s-4.5 -9.5 -4.5 -17.5c0 -9.33301 2.66699 -15.333 8 -18s13.666 -4 24.999 -4c14.667 0 34.167 0.833008 58.5 2.5s54.166 2.5 89.499 2.5
c24.667 0 46.5 -1 65.5 -3s35.167 -3 48.5 -3c16.667 0 25 7.66699 25 23c0 7.33301 -1.83301 12.666 -5.5 15.999s-8.33398 5.5 -14.001 6.5s-12.167 1.83301 -19.5 2.5s-14.666 2 -21.999 4c-13.333 4 -21.833 10.667 -25.5 20s-5.5 23.333 -5.5 42v518z" />
    <glyph glyph-name="two" unicode="2" horiz-adv-x="470" 
d="M178 172c12 16 25.168 31.0049 39.501 45.0049s29 27.333 44 40l44.5 37.5c14.667 12.333 28 25.166 40 38.499c39.333 43.333 59 92.333 59 147c0 51.333 -15.167 92.166 -45.5 122.499s-72.5 45.5 -126.5 45.5c-55.333 0 -102.333 -21.333 -141 -64
c-16.667 -18.667 -28.834 -36 -36.501 -52s-11.5 -27.333 -11.5 -34c0 -11.333 4 -17 12 -17c4 0 7.5 1.33301 10.5 4s6 6.5 9 11.5l11 18.5c4.33301 7.33301 9.83301 15.666 16.5 24.999c24 33.333 52.333 50 85 50c27.333 0 49.333 -10.833 66 -32.5
s25 -50.834 25 -87.501c0 -18 -2.83301 -36.5 -8.5 -55.5s-14 -39.167 -25 -60.5s-24.167 -44.333 -39.5 -69l-52 -80l-82.5 -122.5c-20.333 -29.667 -30.5 -50.834 -30.5 -63.501c0 -8 2.5 -13.167 7.5 -15.5s14.167 -3.5 27.5 -3.5h143c38 -0 70 -0.666992 96 -2
s45.667 -2 59 -2c12.667 0 20 1.16699 22 3.5s3.33301 10.5 4 24.5l4 133v17c0 6 -1.5 11 -4.5 15s-6.5 6 -10.5 6c-6.66699 0 -11 -3.16699 -13 -9.5l-7 -21.5c-2.66699 -8 -7.16699 -15.167 -13.5 -21.5s-16.833 -9.5 -31.5 -9.5h-157c-6 0 -9 2.66699 -9 8
c0 3.33301 1.66699 7 5 11z" />
    <glyph glyph-name="three" unicode="3" horiz-adv-x="470" 
d="M211 382c106 50 158.995 103.331 158.995 159.998c0 33.333 -12.167 59.5 -36.5 78.5s-59.166 28.5 -104.499 28.5c-26 0 -49.5 -4.16699 -70.5 -12.5s-38.667 -18.5 -53 -30.5s-25.333 -24.333 -33 -37s-11.5 -23.334 -11.5 -32.001c0 -10.667 4.66699 -16 14 -16
c4 0 8.83301 4 14.5 12s12.834 16.833 21.501 26.5s18.834 18.5 30.501 26.5s25.5 12 41.5 12c19.333 0 35.166 -7.33301 47.499 -22s18.5 -34 18.5 -58c0 -58.667 -41 -112.334 -123 -161.001l-50.5 -30c-13 -8 -19.5 -17.667 -19.5 -29c0 -4 1.33301 -7.5 4 -10.5
s5.66699 -4.5 9 -4.5c2.66699 0 7 1.33301 13 4l22 9.5c8.66699 3.66699 18.834 6.83398 30.501 9.50098s24.167 4 37.5 4c36.667 0 66.334 -15 89.001 -45s34 -70 34 -120c0 -27.333 -4 -52.333 -12 -75s-17.833 -42.167 -29.5 -58.5s-24.334 -29 -38.001 -38
s-26.167 -13.5 -37.5 -13.5c-6.66699 0 -12 1.5 -16 4.5s-7.33301 7 -10 12s-5.16699 10.833 -7.5 17.5s-4.83301 13.334 -7.5 20.001c-12.667 27.333 -30 41 -52 41c-13.333 0 -24.666 -5.5 -33.999 -16.5s-14 -25.5 -14 -43.5c0 -25.333 8.33301 -44.666 25 -57.999
s40.667 -20 72 -20c30.667 0 62.5 7.66699 95.5 23s64.833 38.333 95.5 69c62.667 62.667 94 131.334 94 206.001c0 24.667 -4 47.167 -12 67.5s-19 37.833 -33 52.5s-31 26.167 -51 34.5s-42 12.5 -66 12.5c-4 0 -9.66699 -0.5 -17 -1.5s-16.666 -2.16699 -27.999 -3.5z
" />
    <glyph glyph-name="four" unicode="4" horiz-adv-x="470" 
d="M335 733c-6.66699 0 -10.6699 -0.337891 -12.0029 -1.00488s-3.66602 -3.66699 -6.99902 -9l-278 -447c-8.66699 -13.333 -13 -28 -13 -44c0 -15.333 2 -24.666 6 -27.999s12.667 -5 26 -5h162c7.33301 0 11.666 -1.66699 12.999 -5s2 -8.66602 2 -15.999v-71
c0 -16 -1.66699 -28.667 -5 -38s-11.333 -15.666 -24 -18.999c-5.33301 -1.33301 -10.5 -2.33301 -15.5 -3s-9.5 -1.66699 -13.5 -3s-7.33301 -3.5 -10 -6.5s-4 -7.5 -4 -13.5c0 -16.667 11 -25 33 -25c7.33301 0 19.5 0.833008 36.5 2.5s39.167 2.5 66.5 2.5
c22 0 41 -0.666992 57 -2s29.333 -2 40 -2c10 0 17.167 1.33301 21.5 4s6.5 8.66699 6.5 18c0 8.66699 -3.33301 14.5 -10 17.5s-14 5.66699 -22 8s-15.333 5.83301 -22 10.5s-10 13.667 -10 27v90c0 8 1 14 3 18s6 6 12 6h51c10.667 0 16 7 16 21v20
c0 12.667 -4.66699 19 -14 19h-52c-7.33301 0 -11.666 1.5 -12.999 4.5s-2 8.16699 -2 15.5v199c0 12 -2.66699 18 -8 18c-8 0 -18.5 -1.5 -31.5 -4.5s-25.667 -7 -38 -12s-23 -10.667 -32 -17s-13.5 -12.5 -13.5 -18.5v-161c0 -9.33301 -1.33301 -15.666 -4 -18.999
s-7.66699 -5 -15 -5h-127c-6 0 -9 2.33301 -9 7c0 2.66699 1.33301 6.33398 4 11.001l29 55c4.66699 9.33301 23.334 40.333 56.001 93s81.334 126.667 146.001 222l35.5 52c9 12.667 13.5 21.667 13.5 27c0 4.66699 -3.33301 7 -10 7h-21z" />
    <glyph glyph-name="five" unicode="5" horiz-adv-x="470" 
d="M378 634c2 10.667 2.99902 19.0029 2.99902 25.0029c0 9.33301 -5 14 -15 14h-5c-2.66699 0 -6.66699 -0.666992 -12 -2l-216 -33c-7.33301 -1.33301 -12.666 -3.16602 -15.999 -5.49902s-6 -6.5 -8 -12.5s-3.83301 -14.333 -5.5 -25l-6.5 -41
c-10 -56.667 -20.167 -102.334 -30.5 -137.001s-15.5 -58.667 -15.5 -72c0 -9.33301 9.66699 -14.5 29 -15.5s48.333 -4.83301 87 -11.5c40.667 -7.33301 72.167 -24.333 94.5 -51s33.5 -60.334 33.5 -101.001c0 -38.667 -13 -72.834 -39 -102.501
s-64.333 -52.834 -115 -69.501c-16 -5.33301 -30 -9 -42 -11s-21.833 -4 -29.5 -6s-13.5 -4.66699 -17.5 -8s-6 -8.33301 -6 -15c0 -7.33301 2.16699 -12.166 6.5 -14.499s11.5 -3.5 21.5 -3.5c46 0 89.333 8 130 24s76.5 37.833 107.5 65.5s55.5 59.667 73.5 96
s27 74.833 27 115.5c0 53.333 -14.333 98 -43 134s-71 60 -127 72c-20 4.66699 -38 7.5 -54 8.5s-29.5 2 -40.5 3s-19.5 2.83301 -25.5 5.5s-9 8 -9 16c0 15.333 4 25.666 12 30.999s23.667 9 47 11l154 13c10.667 1.33301 18.667 3.83301 24 7.5s9.33301 11.167 12 22.5z
" />
    <glyph glyph-name="six" unicode="6" horiz-adv-x="470" 
d="M410 724c-10 0 -22.668 -1.66699 -38.001 -5s-32.166 -8.83301 -50.499 -16.5s-37.5 -17.167 -57.5 -28.5s-40 -25 -60 -41c-54 -43.333 -96.5 -96.833 -127.5 -160.5s-46.5 -132.167 -46.5 -205.5c0 -42.667 5.66699 -81.5 17 -116.5s26.833 -65 46.5 -90
s42.334 -44.5 68.001 -58.5s52.5 -21 80.5 -21c27.333 0 53.333 5.66699 78 17s46.167 27.333 64.5 48s32.833 44.834 43.5 72.501s16 58.167 16 91.5c0 30.667 -4.16699 58.667 -12.5 84s-19.833 47.333 -34.5 66s-32 33.167 -52 43.5s-41.333 15.5 -64 15.5
c-14 0 -27 -2 -39 -6s-22.167 -9 -30.5 -15s-15 -12.333 -20 -19s-7.5 -12.667 -7.5 -18c0 -8 4.33301 -12 13 -12c4.66699 0 10.834 2 18.501 6s17.167 6 28.5 6c12 0 23.167 -4.83301 33.5 -14.5s19.5 -23.5 27.5 -41.5s14.333 -39.5 19 -64.5s7 -52.5 7 -82.5
c0 -44.667 -6 -78.334 -18 -101.001s-28 -34 -48 -34c-15.333 0 -29.833 6.33301 -43.5 19s-25.834 30.667 -36.501 54s-19.167 51.333 -25.5 84s-9.5 68.667 -9.5 108c0 42 4.16699 81.667 12.5 119s20.166 71.5 35.499 102.5s33.5 58.5 54.5 82.5s44.167 43.667 69.5 59
c16.667 10 32 17.333 46 22s26.167 8.5 36.5 11.5s18.333 6 24 9s8.5 7.83301 8.5 14.5c0 10.667 -9 16 -27 16z" />
    <glyph glyph-name="seven" unicode="7" horiz-adv-x="470" 
d="M226 628c-52 0 -91.333 1.83398 -118 5.50098s-42 5.5 -46 5.5c-7.33301 0 -12.333 -1.33301 -15 -4s-4 -7.33398 -4 -14.001v-99c0 -13.333 1 -22.833 3 -28.5s7.66699 -8.5 17 -8.5c4 0 12.5 0.333008 25.5 1s30.5 1 52.5 1h167c20 0 30 -3.33301 30 -10
c0 -2.66699 -0.833008 -8 -2.5 -16s-4.5 -18 -8.5 -30l-158 -455c-1.33301 -2.66699 -2 -4.66699 -2 -6v-4c0 -3.33301 2.66699 -5 8 -5h22c6.66699 0 11 1.16699 13 3.5s4 6.83301 6 13.5l57 171c24 72 46.667 135.333 68 190l56.5 139.5l39 91.5
c9.66699 22.667 14.5 38 14.5 46c0 9.33301 -10.333 14 -31 14c-7.33301 0 -19 -0.333008 -35 -1s-36.667 -1 -62 -1h-97z" />
    <glyph glyph-name="eight" unicode="8" horiz-adv-x="470" 
d="M323 496c0 -30 -5.5 -53.666 -16.5 -70.999s-21.5 -26 -31.5 -26c-2 0 -6.16699 1 -12.5 3s-13.833 5.16699 -22.5 9.5s-18.167 9.5 -28.5 15.5s-19.833 13 -28.5 21c-24 21.333 -36 47.666 -36 78.999c0 26 7.83301 47.167 23.5 63.5s35.167 24.5 58.5 24.5
c28 0 50.667 -10.667 68 -32s26 -50.333 26 -87zM354 395.001c19.333 10.667 34.999 25.5029 46.999 44.5029s18 39.5 18 61.5c0 21.333 -4.33301 41 -13 59s-21 33.667 -37 47s-35.167 23.833 -57.5 31.5s-47.166 11.5 -74.499 11.5
c-29.333 0 -55.833 -4.83301 -79.5 -14.5s-44 -23 -61 -40s-30 -36.833 -39 -59.5s-13.5 -47 -13.5 -73c0 -26.667 4.83301 -50.834 14.5 -72.501s23.167 -39.5 40.5 -53.5l25 -20c6.66699 -4.66699 10 -8.33398 10 -11.001s-2.33301 -5 -7 -7l-20 -10
c-24 -11.333 -43.833 -28.833 -59.5 -52.5s-23.5 -51.167 -23.5 -82.5c0 -24.667 5 -47.5 15 -68.5s23.667 -39.333 41 -55s37.833 -28 61.5 -37s49.5 -13.5 77.5 -13.5c32 0 61.667 5.5 89 16.5s50.833 26 70.5 45s35 41.167 46 66.5s16.5 52.666 16.5 81.999
c0 68 -26.667 121.667 -80 161l-23 17c-5.33301 3.33301 -8 6.33301 -8 9c0 4 1.33301 6.33301 4 7zM182.999 283.004c2.66699 0 7.83301 -1.5 15.5 -4.5s16.5 -7.16699 26.5 -12.5s21 -12.333 33 -21s23.667 -18.334 35 -29.001c24.667 -23.333 37 -52 37 -86
c0 -32 -9 -58.167 -27 -78.5s-41 -30.5 -69 -30.5c-32 0 -57.333 12.833 -76 38.5s-28 60.834 -28 105.501c0 36.667 5.66699 65.5 17 86.5s23.333 31.5 36 31.5z" />
    <glyph glyph-name="nine" unicode="9" horiz-adv-x="470" 
d="M27 426c0 -30 4.33691 -57.332 13.0039 -81.999s20.334 -45.834 35.001 -63.501s31.667 -31.5 51 -41.5s39.666 -15 60.999 -15c12 0 23.667 1.5 35 4.5s21.166 6.83301 29.499 11.5s15 9.66699 20 15s7.5 10 7.5 14c0 5.33301 -1.33301 9.66602 -4 12.999
s-5.66699 5 -9 5c-4 0 -8 -0.666992 -12 -2s-8 -2 -12 -2c-14.667 0 -28.667 5.16699 -42 15.5s-25.166 24.666 -35.499 42.999s-18.5 40.166 -24.5 65.499s-9 53 -9 83c0 38 7.16699 67.5 21.5 88.5s31.833 31.5 52.5 31.5c13.333 0 26.5 -6.16699 39.5 -18.5
s24.833 -29.5 35.5 -51.5s19.167 -48.167 25.5 -78.5s9.5 -63.5 9.5 -99.5c0 -39.333 -4.16699 -77.666 -12.5 -114.999s-20.333 -72.5 -36 -105.5s-34.5 -63 -56.5 -90s-46.333 -49.833 -73 -68.5c-13.333 -9.33301 -25.833 -16.833 -37.5 -22.5l-30 -14.5
c-8.33301 -4 -15 -8.16699 -20 -12.5s-7.5 -9.5 -7.5 -15.5c0 -5.33301 1.66699 -9.66602 5 -12.999s7.66602 -5 12.999 -5c6.66699 0 17.167 2.33301 31.5 7s31 11.5 50 20.5s39.167 20.5 60.5 34.5s42.666 30.667 63.999 50c55.333 50 97.666 106.333 126.999 169
s44 126.334 44 191.001c0 40.667 -5.66699 78.167 -17 112.5s-26.833 64 -46.5 89s-42.334 44.333 -68.001 58s-52.5 20.5 -80.5 20.5c-27.333 0 -53 -5.83301 -77 -17.5s-45 -27.5 -63 -47.5s-32.167 -43.833 -42.5 -71.5s-15.5 -57.5 -15.5 -89.5z" />
    <glyph glyph-name="colon" unicode=":" horiz-adv-x="254" 
d="M127 397c-18 0 -33.333 -6.66699 -46 -20s-19 -30.333 -19 -51s6.33301 -37.667 19 -51s28 -20 46 -20s33.333 6.83301 46 20.5s19 30.5 19 50.5s-6.5 36.833 -19.5 50.5s-28.167 20.5 -45.5 20.5zM127 132c-18 0 -33.333 -6.66699 -46 -20s-19 -30.333 -19 -51
s6.33301 -37.5 19 -50.5s28 -19.5 46 -19.5c17.333 0 32.5 6.66699 45.5 20s19.5 30 19.5 50s-6.5 36.833 -19.5 50.5s-28.167 20.5 -45.5 20.5z" />
    <glyph glyph-name="semicolon" unicode=";" horiz-adv-x="254" 
d="M122 397c-17.333 0 -32.5 -6.66699 -45.5 -20s-19.5 -30.333 -19.5 -51s6.5 -37.667 19.5 -51s28.167 -20 45.5 -20c18 0 33.167 6.83301 45.5 20.5s18.5 30.5 18.5 50.5s-6.33301 36.833 -19 50.5s-27.667 20.5 -45 20.5zM56 56c0 -16 3.66895 -29.167 11.002 -39.5
s17.666 -17.166 30.999 -20.499c8 -2 14.667 -3 20 -3s9.66602 -0.333008 12.999 -1s5.83301 -2.33398 7.5 -5.00098s2.5 -8 2.5 -16c0 -18 -3.83301 -33.5 -11.5 -46.5s-16 -24.333 -25 -34s-17.333 -18 -25 -25s-11.5 -13.5 -11.5 -19.5c0 -9.33301 4 -14 12 -14
c14.667 0 36.667 18.667 66 56c34 42.667 51 87.667 51 135c0 33.333 -7.16699 59.333 -21.5 78s-32.166 28 -53.499 28c-18.667 0 -34.334 -6.83301 -47.001 -20.5s-19 -31.167 -19 -52.5z" />
    <glyph glyph-name="semicolon" unicode="&#x37e;" horiz-adv-x="254" 
d="M122 397c-17.333 0 -32.5 -6.66699 -45.5 -20s-19.5 -30.333 -19.5 -51s6.5 -37.667 19.5 -51s28.167 -20 45.5 -20c18 0 33.167 6.83301 45.5 20.5s18.5 30.5 18.5 50.5s-6.33301 36.833 -19 50.5s-27.667 20.5 -45 20.5zM56 56c0 -16 3.66895 -29.167 11.002 -39.5
s17.666 -17.166 30.999 -20.499c8 -2 14.667 -3 20 -3s9.66602 -0.333008 12.999 -1s5.83301 -2.33398 7.5 -5.00098s2.5 -8 2.5 -16c0 -18 -3.83301 -33.5 -11.5 -46.5s-16 -24.333 -25 -34s-17.333 -18 -25 -25s-11.5 -13.5 -11.5 -19.5c0 -9.33301 4 -14 12 -14
c14.667 0 36.667 18.667 66 56c34 42.667 51 87.667 51 135c0 33.333 -7.16699 59.333 -21.5 78s-32.166 28 -53.499 28c-18.667 0 -34.334 -6.83301 -47.001 -20.5s-19 -31.167 -19 -52.5z" />
    <glyph glyph-name="less" unicode="&#x3c;" horiz-adv-x="833" 
d="M704 484v90l-575 -237v-78l575 -236v89l-456 186z" />
    <glyph glyph-name="equal" unicode="=" horiz-adv-x="833" 
d="M709 440h-585v-82h585v82zM709 238h-585v-81h585v81z" />
    <glyph glyph-name="greater" unicode="&#x3e;" horiz-adv-x="833" 
d="M704 337l-575 237v-90l456 -186l-456 -186v-89l575 236v78z" />
    <glyph glyph-name="question" unicode="?" horiz-adv-x="307" 
d="M126 638c-28 0 -50.6719 -5.83398 -68.0049 -17.501s-26 -28.834 -26 -51.501c0 -47.333 10.333 -71 31 -71c10 0 18.333 4.5 25 13.5s14.334 21.167 23.001 36.5s16.667 26.833 24 34.5s16.333 11.5 27 11.5c12.667 0 23.334 -5.83301 32.001 -17.5s13 -27.5 13 -47.5
c0 -24.667 -7 -46.167 -21 -64.5s-32.333 -38.166 -55 -59.499c-18.667 -18 -33.667 -33.333 -45 -46s-17 -27.667 -17 -45c0 -2.66699 0.833008 -12.834 2.5 -30.501s5.83398 -41.5 12.501 -71.5c3.33301 -17.333 5.83301 -29.833 7.5 -37.5s6.5 -11.5 14.5 -11.5
s12.667 2.16699 14 6.5s2.33301 10 3 17s2.33398 14.833 5.00098 23.5s8.66699 17.667 18 27c15.333 14.667 31.5 28.834 48.5 42.501s32.5 28.667 46.5 45s25.5 34.833 34.5 55.5s13.5 45 13.5 73c0 26 -4.16699 50.167 -12.5 72.5s-19.666 41.833 -33.999 58.5
s-31.5 29.834 -51.5 39.501s-41.667 14.5 -65 14.5zM113.995 131.999c-18 0 -33.333 -6.66699 -46 -20s-19 -30.333 -19 -51s6.33301 -37.5 19 -50.5s28 -19.5 46 -19.5c17.333 0 32.5 6.66699 45.5 20s19.5 30 19.5 50s-6.5 36.833 -19.5 50.5s-28.167 20.5 -45.5 20.5z
" />
    <glyph glyph-name="at" unicode="@" horiz-adv-x="986" 
d="M610 377c0 -27.333 -5.16699 -59.333 -15.5 -96s-25.166 -72 -44.499 -106c-17.333 -28.667 -34.5 -50 -51.5 -64s-36.167 -21 -57.5 -21c-18 0 -33.167 7.83301 -45.5 23.5s-18.5 37.5 -18.5 65.5c0 25.333 4.66699 54.5 14 87.5s23.666 68.167 42.999 105.5
c16.667 32 33.5 55.667 50.5 71s36.5 23 58.5 23c20 0 36.167 -7.83301 48.5 -23.5s18.5 -37.5 18.5 -65.5zM637 402c-11.333 60.667 -46.665 90.9971 -105.998 90.9971c-26.667 0 -52.834 -5.5 -78.501 -16.5s-49.834 -27.167 -72.501 -48.5
c-30.667 -29.333 -53.834 -61.333 -69.501 -96s-23.5 -70 -23.5 -106c0 -50.667 12.667 -91 38 -121s60 -45 104 -45c30.667 0 57.834 8 81.501 24s45.834 41 66.501 75c2 -32.667 11.833 -57.5 29.5 -74.5s42.5 -25.5 74.5 -25.5c44 0 86.667 18 128 54
c35.333 32 62.666 70.333 81.999 115s29 93.334 29 146.001c0 50.667 -8.83301 96.667 -26.5 138s-42.834 76.833 -75.501 106.5s-72 52.5 -118 68.5s-97.333 24 -154 24c-60.667 0 -117.167 -9.33301 -169.5 -28s-100.5 -46 -144.5 -82
c-54 -44.667 -94.833 -95.834 -122.5 -153.501s-41.5 -119.5 -41.5 -185.5c0 -64.667 12.833 -123.5 38.5 -176.5s63.167 -98.167 112.5 -135.5c37.333 -28 81.666 -49.667 132.999 -65s108.333 -23 171 -23c118.667 0 226.334 36.333 323.001 109l-18 23
c-96 -68 -197.667 -102 -305 -102c-53.333 0 -102.833 7.66699 -148.5 23s-85.5 37.333 -119.5 66c-78 64.667 -117 152.667 -117 264c0 128 40 232.667 120 314c38.667 40 83.167 70.333 133.5 91s103.833 31 160.5 31c50.667 0 97 -7.33301 139 -22
s77.667 -35.167 107 -61.5s52.166 -58.166 68.499 -95.499s24.5 -78.666 24.5 -123.999c0 -53.333 -9.5 -101.666 -28.5 -144.999s-46.5 -79.333 -82.5 -108c-15.333 -12.667 -31.166 -22.167 -47.499 -28.5s-29.166 -9.5 -38.499 -9.5c-26.667 0 -40 16.667 -40 50
c0 8 0.833008 15.833 2.5 23.5s3.5 15.5 5.5 23.5l84 301h-84z" />
    <glyph glyph-name="A" unicode="A" horiz-adv-x="505" 
d="M289 608c-5.33301 17.333 -9.83203 28.3311 -13.499 32.998s-11.5 7 -23.5 7c-10.667 0 -18.667 -2.16699 -24 -6.5s-11 -15.166 -17 -32.499l-166 -505c-5.33301 -15.333 -10.666 -27.666 -15.999 -36.999s-12 -16 -20 -20
c-9.33301 -4.66699 -17.5 -8.16699 -24.5 -10.5s-10.5 -9.16602 -10.5 -20.499c0 -12.667 6.66699 -19 20 -19c2.66699 0 9.33398 1.16699 20.001 3.5s26.667 3.5 48 3.5c28 0 49.333 -1.16699 64 -3.5s23.334 -3.5 26.001 -3.5c14 0 21 6.66699 21 20
c0 10.667 -4.16699 17.167 -12.5 19.5s-19.166 6.16602 -32.499 11.499c-14.667 6 -24.167 12.5 -28.5 19.5s-6.5 16.833 -6.5 29.5c0 16 6.33301 46.333 19 91c2 6.66699 4.16699 11.834 6.5 15.501s6.16602 6.5 11.499 8.5s13.166 3.16699 23.499 3.5
s24.166 0.5 41.499 0.5c32 0 54 -0.833008 66 -2.5s19.667 -8.16699 23 -19.5l34 -111c2 -7.33301 3 -13.333 3 -18c0 -9.33301 -2.83301 -15.333 -8.5 -18s-11.667 -4.66699 -18 -6s-12.333 -3.33301 -18 -6s-8.5 -8.66699 -8.5 -18c0 -13.333 7.66699 -20 23 -20
c12.667 0 28.667 1.5 48 4.5s41.666 4.5 66.999 4.5c28 0 50.5 -1.16699 67.5 -3.5s29.167 -3.5 36.5 -3.5c9.33301 0 16.166 1.16699 20.499 3.5s6.5 7.16602 6.5 14.499c0 6 -1.33301 10.5 -4 13.5s-6.16699 5.16699 -10.5 6.5s-9 2.5 -14 3.5s-9.5 2.5 -13.5 4.5
c-17.333 9.33301 -33 36 -47 80zM203.001 438.998l53 -158.999c0.666992 -2.66699 1 -6.33398 1 -11.001c0 -4 -3.33301 -6 -10 -6h-99c-6 0 -9 1.66699 -9 5c0 0.666992 0.666992 3 2 7l49 163c2 8 4.33301 12 7 12c2 0 4 -3.66699 6 -11z" />
    <glyph glyph-name="B" unicode="B" horiz-adv-x="540" 
d="M216 394v150.001c0 20.667 2.5 34.5 7.5 41.5s17.833 10.5 38.5 10.5c30 0 53.167 -10.333 69.5 -31s24.5 -50.334 24.5 -89.001c0 -74 -38.667 -111 -116 -111c-12 0 -19 1.5 -21 4.5s-3 11.167 -3 24.5zM353 347.001c92 12 138.002 56.333 138.002 133
c0 103.333 -73.667 155 -221 155c-168.667 0 -253 -16.667 -253 -50c0 -11.333 4.66699 -17 14 -17c4.66699 0 9.16699 0.833008 13.5 2.5s9.16602 2.5 14.499 2.5c11.333 0 18.833 -5.83301 22.5 -17.5s5.5 -29.834 5.5 -54.501v-414c0 -17.333 -3 -29 -9 -35
s-15.667 -10.333 -29 -13c-11.333 -2 -19.166 -4 -23.499 -6s-6.5 -6.66699 -6.5 -14c0 -14.667 6.33301 -22 19 -22c5.33301 0 16.333 1 33 3s38.667 3 66 3c23.333 0 49.666 -2 78.999 -6s61.666 -6 96.999 -6c66 0 115.667 15.5 149 46.5s50 76.5 50 136.5
c0 50.667 -14 90.834 -42 120.501s-67 47.167 -117 52.5zM216.002 104.001v161c0 20.667 2.16699 35.5 6.5 44.5s15.5 13.5 33.5 13.5c37.333 0 66.5 -13.833 87.5 -41.5s31.5 -65.5 31.5 -113.5c0 -42.667 -8.83301 -76.167 -26.5 -100.5s-41.167 -36.5 -70.5 -36.5
c-23.333 0 -39.5 6 -48.5 18s-13.5 30.333 -13.5 55z" />
    <glyph glyph-name="C" unicode="C" horiz-adv-x="541" 
d="M26 315c0 -50 7.33691 -95.499 22.0039 -136.499s35.167 -76.167 61.5 -105.5s58.166 -52 95.499 -68s79 -24 125 -24c39.333 0 73.166 5.16699 101.499 15.5s49.5 23.5 63.5 39.5c6 7.33301 9.66699 17.333 11 30s2 29.667 2 51c0 23.333 -0.666992 39.5 -2 48.5
s-5.66602 13.5 -12.999 13.5s-12.833 -5.5 -16.5 -16.5s-10.167 -27.167 -19.5 -48.5c-13.333 -30 -30.5 -53 -51.5 -69s-43.5 -24 -67.5 -24c-23.333 0 -45.5 7 -66.5 21s-39.167 33.667 -54.5 59s-27.5 55.833 -36.5 91.5s-13.5 75.167 -13.5 118.5
c0 44.667 4.66699 85.167 14 121.5s21.666 67.5 36.999 93.5s33.333 46 54 60s42 21 64 21c24 0 44.333 -5.83301 61 -17.5s32 -29.5 46 -53.5c9.33301 -15.333 16.166 -28.333 20.499 -39s11.166 -16 20.499 -16c10 0 15 7.33301 15 22c0 28.667 -1.83301 53 -5.5 73
s-6.16699 31 -7.5 33c-2.66699 3.33301 -8.33398 7.33301 -17.001 12s-19.667 9 -33 13s-28.666 7.33301 -45.999 10s-36 4 -56 4c-45.333 0 -86.833 -8.5 -124.5 -25.5s-70.167 -40.333 -97.5 -70s-48.5 -64.834 -63.5 -105.501s-22.5 -84.667 -22.5 -132z" />
    <glyph glyph-name="D" unicode="D" horiz-adv-x="627" 
d="M218 130v418c0 8.66699 0.5 16.5 1.5 23.5s3.83301 13 8.5 18s11.167 8.66699 19.5 11s20.166 3.5 35.499 3.5c26 0 50 -6.5 72 -19.5s40.833 -31.667 56.5 -56s27.834 -54 36.501 -89s13 -74.5 13 -118.5c0 -45.333 -5 -85.5 -15 -120.5s-23.333 -64.5 -40 -88.5
s-36 -42.333 -58 -55s-45 -19 -69 -19c-25.333 0 -41.833 6.83301 -49.5 20.5s-11.5 37.5 -11.5 71.5zM87 87c0 -17.333 -2.5 -29.002 -7.5 -35.002s-14.167 -10.333 -27.5 -13c-10.667 -2 -18.167 -4 -22.5 -6s-6.5 -6.66699 -6.5 -14c0 -14.667 6.33301 -22 19 -22
c8 0 20 1.5 36 4.5s36.333 4.5 61 4.5c16 0 35 -1.66699 57 -5s47.667 -5 77 -5c50.667 0 96.334 8.33301 137.001 25s75.167 39.5 103.5 68.5s50 63 65 102s22.5 80.833 22.5 125.5c0 48.667 -7.83301 93.167 -23.5 133.5s-38 74.833 -67 103.5s-64.667 50.834 -107 66.501
s-89.833 23.5 -142.5 23.5c-35.333 0 -67.833 -1.66699 -97.5 -5s-55.334 -7.66602 -77.001 -12.999s-38.667 -11.5 -51 -18.5s-18.5 -14.167 -18.5 -21.5c0 -10.667 3.33301 -16 10 -16c6 0 11.667 0.5 17 1.5s10 1.5 14 1.5c19.333 0 29 -12 29 -36v-450z" />
    <glyph glyph-name="E" unicode="E" horiz-adv-x="486" 
d="M441 613c0 8 -1.66992 13.1641 -5.00293 15.4971s-10 3.5 -20 3.5c-14 0 -39.333 -1.5 -76 -4.5s-84.334 -4.5 -143.001 -4.5c-52.667 0 -91.834 1.16699 -117.501 3.5s-40.167 3.5 -43.5 3.5c-14.667 0 -22 -7 -22 -21c0 -9.33301 3.33301 -14.666 10 -15.999l30 -6
c12.667 -2.66699 21.334 -7.5 26.001 -14.5s7 -17.833 7 -32.5v-453c0 -16.667 -2.66699 -28.167 -8 -34.5s-15.666 -10.833 -30.999 -13.5c-12 -2 -20.5 -4 -25.5 -6s-7.5 -6.66699 -7.5 -14c0 -14.667 7 -22 21 -22c5.33301 0 20.333 1.5 45 4.5s59 4.5 103 4.5
c72.667 0 129.167 -2.16699 169.5 -6.5s64.5 -6.5 72.5 -6.5c9.33301 0 16 2.83301 20 8.5s6.66699 13.834 8 24.501l12 84c1.33301 8 2.33301 14.167 3 18.5l1 6.5c0 20.667 -6.33301 31 -19 31c-5.33301 0 -9.83301 -2.16699 -13.5 -6.5s-7.16699 -10.166 -10.5 -17.499
s-7.5 -15.833 -12.5 -25.5s-11.833 -20.167 -20.5 -31.5c-11.333 -14.667 -25.5 -26.167 -42.5 -34.5s-35.5 -12.5 -55.5 -12.5c-17.333 0 -31.166 2.16699 -41.499 6.5s-18 10.666 -23 18.999s-8.16699 18.833 -9.5 31.5s-2 27.334 -2 44.001v157c0 8 4 12.667 12 14l11 2
c4.66699 0.666992 9 1 13 1h12c21.333 0 36.833 -3.5 46.5 -10.5s18.167 -19.167 25.5 -36.5c6 -13.333 10.5 -25.166 13.5 -35.499s9.5 -15.5 19.5 -15.5c11.333 0 17 7.33301 17 22c0 11.333 -0.333008 26 -1 44s-1 39.333 -1 64c0 22.667 0.666992 40.334 2 53.001
s2 21 2 25c0 7.33301 -1.66699 13 -5 17s-7.33301 6 -12 6c-5.33301 0 -9.33301 -1.66699 -12 -5s-5 -7.83301 -7 -13.5s-4.33301 -12.667 -7 -21s-7 -17.5 -13 -27.5c-5.33301 -8.66699 -14 -14.334 -26 -17.001s-28 -4 -48 -4c-15.333 0 -26.166 1.83301 -32.499 5.5
s-9.5 10.167 -9.5 19.5v143c0 17.333 4.5 30.833 13.5 40.5s27.833 14.5 56.5 14.5c40.667 0 69.667 -13 87 -39c12 -18.667 20.833 -33.667 26.5 -45s12.834 -17 21.501 -17c8 0 12.667 2.66699 14 8s2 12.666 2 21.999v103z" />
    <glyph glyph-name="F" unicode="F" horiz-adv-x="447" 
d="M431 613c0 7.33301 -1.1709 12.3311 -3.50391 14.998s-8.83301 4 -19.5 4c-14 0 -34.5 -1.5 -61.5 -4.5s-60.5 -4.5 -100.5 -4.5h-92c-34 0 -60.833 1.16699 -80.5 3.5s-32.167 3.5 -37.5 3.5c-14.667 0 -22 -7 -22 -21c0 -9.33301 3.33301 -14.666 10 -15.999l30 -6
c12.667 -2.66699 21.334 -7.5 26.001 -14.5s7 -17.833 7 -32.5v-453c0 -16.667 -2.66699 -28.167 -8 -34.5s-15.666 -10.833 -30.999 -13.5c-12 -2 -20.5 -4 -25.5 -6s-7.5 -6.66699 -7.5 -14c0 -14.667 7 -22 21 -22c7.33301 0 20.833 1.5 40.5 4.5s45.5 4.5 77.5 4.5
s58.5 -1.5 79.5 -4.5s36.5 -4.5 46.5 -4.5c16.667 0 25 7.33301 25 22c0 9.33301 -3.33301 14.5 -10 15.5s-17.667 2.5 -33 4.5s-26.166 6.5 -32.499 13.5s-9.5 18.167 -9.5 33.5v210c0 8 4 12.667 12 14l11 2c4.66699 0.666992 9 1 13 1h12
c21.333 0 36.833 -3.5 46.5 -10.5s18.167 -19.167 25.5 -36.5c6 -13.333 10.5 -25.166 13.5 -35.499s9.5 -15.5 19.5 -15.5c11.333 0 17 7.33301 17 22c0 11.333 -0.333008 26 -1 44s-1 39.333 -1 64c0 22.667 0.666992 40.334 2 53.001s2 21 2 25
c0 7.33301 -1.66699 13 -5 17s-7.33301 6 -12 6c-5.33301 0 -9.33301 -1.66699 -12 -5s-5 -7.83301 -7 -13.5s-4.33301 -12.667 -7 -21s-7 -17.5 -13 -27.5c-5.33301 -8.66699 -14 -14.334 -26 -17.001s-28 -4 -48 -4c-15.333 0 -26.166 1.83301 -32.499 5.5
s-9.5 10.167 -9.5 19.5v145c0 18 4.33301 32 13 42s26.667 15 54 15c40 0 68 -13.667 84 -41c11.333 -20 19.833 -35.5 25.5 -46.5s12.5 -16.5 20.5 -16.5c6.66699 0 10.667 1.83301 12 5.5s2 8.5 2 14.5v112z" />
    <glyph glyph-name="G" unicode="G" horiz-adv-x="603" 
d="M497 552c-1.33301 20.667 -2.66699 35.333 -4 44s-6.66602 15.667 -15.999 21c-12.667 7.33301 -31.667 14.333 -57 21s-53.333 10 -84 10c-44 0 -84.833 -8.66699 -122.5 -26s-70.5 -41.166 -98.5 -71.499s-49.833 -66.666 -65.5 -108.999s-23.5 -88.5 -23.5 -138.5
c0 -47.333 6.83301 -90.833 20.5 -130.5s33.167 -73.667 58.5 -102s56 -50.333 92 -66s76 -23.5 120 -23.5c32 0 61.167 2.5 87.5 7.5s48.833 11.667 67.5 20s33.167 18.5 43.5 30.5s15.5 25 15.5 39c0 7.33301 -0.333008 17 -1 29s-1 26.333 -1 43v70c0 16 2 28.333 6 37
s11.667 14 23 16c7.33301 1.33301 13.833 2.16602 19.5 2.49902s8.5 5.83301 8.5 16.5c0 15.333 -5.66699 23 -17 23c-3.33301 0 -13.5 -1.33301 -30.5 -4s-42.5 -4 -76.5 -4c-33.333 0 -59.5 1.33301 -78.5 4s-31.167 4 -36.5 4c-13.333 0 -20 -7 -20 -21
c0 -7.33301 1.66699 -12.166 5 -14.499s7.66602 -4 12.999 -5s11.166 -1.83301 17.499 -2.5s12.166 -2.66699 17.499 -6c8 -5.33301 12.833 -14 14.5 -26s2.5 -29.667 2.5 -53v-79c0 -14.667 -0.5 -27.5 -1.5 -38.5s-3.33301 -20 -7 -27s-9 -12.333 -16 -16
s-16.833 -5.5 -29.5 -5.5c-25.333 0 -48.666 6.83301 -69.999 20.5s-39.833 33 -55.5 58s-28 55.167 -37 90.5s-13.5 74.666 -13.5 117.999c0 46 4.66699 87.333 14 124s21.833 68 37.5 94s33.834 46 54.501 60s42 21 64 21c25.333 0 47 -6.33301 65 -19
s33.667 -32.334 47 -59.001c7.33301 -14 13 -25.5 17 -34.5s10.333 -13.5 19 -13.5c10 0 15 7.33301 15 22v5z" />
    <glyph glyph-name="H" unicode="H" horiz-adv-x="631" 
d="M220 540c0 17.333 2.66895 29.168 8.00195 35.501s15.666 10.833 30.999 13.5c10 1.33301 16.833 3 20.5 5s5.5 6.66699 5.5 14c0 14.667 -6.33301 22 -19 22c-4 0 -15.167 -1.16699 -33.5 -3.5s-44.5 -3.5 -78.5 -3.5s-60 1.16699 -78 3.5s-29.333 3.5 -34 3.5
c-12.667 0 -19 -7 -19 -21c0 -8.66699 3 -13.834 9 -15.501s14.667 -3.83398 26 -6.50098s19 -7.5 23 -14.5s6 -17.833 6 -32.5v-453c0 -17.333 -2.5 -29 -7.5 -35s-14.167 -10.333 -27.5 -13c-10.667 -2 -18.167 -4 -22.5 -6s-6.5 -6.66699 -6.5 -14
c0 -14.667 6.33301 -22 19 -22c4.66699 0 16 1.33301 34 4s44 4 78 4s60 -1.33301 78 -4s29.333 -4 34 -4c12.667 0 19 7.66699 19 23c0 8 -2.5 12.667 -7.5 14s-13.167 3 -24.5 5c-12 2 -20.5 6.66699 -25.5 14s-7.5 18.333 -7.5 33v216c0 9.33301 4 14 12 14h167
c8 0 12 -4.66699 12 -14v-216c0 -17.333 -2.83301 -29.166 -8.5 -35.499s-15.834 -10.5 -30.501 -12.5c-10 -1.33301 -16.833 -2.83301 -20.5 -4.5s-5.5 -6.16699 -5.5 -13.5c0 -15.333 6.33301 -23 19 -23c4.66699 0 16 1.33301 34 4s44 4 78 4s60 -1.33301 78 -4
s29.333 -4 34 -4c12.667 0 19 7.33301 19 22c0 8.66699 -2.83301 13.667 -8.5 15l-26.5 6c-11.333 2.66699 -19 7.5 -23 14.5s-6 17.833 -6 32.5v453c0 17.333 2.66699 29 8 35s14.333 10.333 27 13c10.667 2 18.167 4 22.5 6s6.5 6.66699 6.5 14
c0 14.667 -6.33301 22 -19 22c-4 0 -15.167 -1.16699 -33.5 -3.5s-44.5 -3.5 -78.5 -3.5s-60.167 1.16699 -78.5 3.5s-29.5 3.5 -33.5 3.5c-12.667 0 -19 -7.33301 -19 -22c0 -8.66699 2.5 -13.667 7.5 -15s13.167 -3 24.5 -5c12 -2.66699 20.5 -7.5 25.5 -14.5
s7.5 -17.833 7.5 -32.5v-165c0 -9.33301 -4 -14 -12 -14h-167c-8 0 -12 4.66699 -12 14v164z" />
    <glyph glyph-name="I" unicode="I" horiz-adv-x="307" 
d="M220 541c0 17.333 2.83301 29.167 8.5 35.5s15.834 10.5 30.501 12.5c10 1.33301 16.833 3 20.5 5s5.5 6.66699 5.5 14c0 14.667 -6.33301 22 -19 22c-4 0 -15.167 -1.16699 -33.5 -3.5s-44.5 -3.5 -78.5 -3.5s-60.167 1.16699 -78.5 3.5s-29.5 3.5 -33.5 3.5
c-12.667 0 -19 -7 -19 -21c0 -9.33301 3 -14.833 9 -16.5s14.333 -3.5 25 -5.5c11.333 -2.66699 19.166 -7.5 23.499 -14.5s6.5 -17.833 6.5 -32.5v-453c0 -17.333 -2.5 -29 -7.5 -35s-14.167 -10.333 -27.5 -13c-10.667 -2 -18.167 -4 -22.5 -6s-6.5 -6.66699 -6.5 -14
c0 -14.667 6.33301 -22 19 -22c4.66699 0 16 1.33301 34 4s44 4 78 4s60 -1.33301 78 -4s29.333 -4 34 -4c12.667 0 19 7.66699 19 23c0 8 -2.5 12.667 -7.5 14s-13.167 3 -24.5 5c-12 2 -20.5 6.66699 -25.5 14s-7.5 18.333 -7.5 33v455z" />
    <glyph glyph-name="J" unicode="J" horiz-adv-x="313" 
d="M228 541c0 17.333 3.00293 29.167 9.00293 35.5s16 10.5 30 12.5c10 1.33301 16.833 3 20.5 5s5.5 6.66699 5.5 14c0 14.667 -6.33301 22 -19 22c-4 0 -15.167 -1.16699 -33.5 -3.5s-44.5 -3.5 -78.5 -3.5s-60.833 1.16699 -80.5 3.5s-32.5 3.5 -38.5 3.5
c-14.667 0 -22 -7 -22 -21c0 -9.33301 3.33301 -14.666 10 -15.999l30 -6c13.333 -2.66699 22.333 -7.33398 27 -14.001s7 -17.667 7 -33v-479c0 -63.333 -3.16699 -111.333 -9.5 -144s-18.5 -49 -36.5 -49c-5.33301 0 -9.5 1.5 -12.5 4.5s-5.5 7 -7.5 12
s-4.16699 11 -6.5 18s-5.5 14.833 -9.5 23.5c-12 24 -28.667 36 -50 36c-17.333 0 -30.833 -6.66699 -40.5 -20s-14.5 -33 -14.5 -59c0 -25.333 7.16699 -46.333 21.5 -63s33.166 -25 56.499 -25c21.333 0 46.166 7.33301 74.499 22s56.166 37 83.499 67
c30.667 33.333 52.667 72.5 66 117.5s20 98.5 20 160.5c0 11.333 -0.333008 23 -1 35s-1 23.667 -1 35v309z" />
    <glyph glyph-name="K" unicode="K" horiz-adv-x="547" 
d="M220 541c0 17.333 2.83789 29.165 8.50488 35.498s15.834 10.5 30.501 12.5c10 1.33301 16.833 3 20.5 5s5.5 6.66699 5.5 14c0 14.667 -6.33301 22 -19 22c-4 0 -15.167 -1.16699 -33.5 -3.5s-44.5 -3.5 -78.5 -3.5s-60 1.16699 -78 3.5s-29.333 3.5 -34 3.5
c-12.667 0 -19 -7 -19 -21c0 -8.66699 3 -13.834 9 -15.501s14.667 -3.83398 26 -6.50098s19 -7.5 23 -14.5s6 -17.833 6 -32.5v-453c0 -17.333 -2.5 -29 -7.5 -35s-14.167 -10.333 -27.5 -13c-10.667 -2 -18.167 -4 -22.5 -6s-6.5 -6.66699 -6.5 -14
c0 -14.667 6.33301 -22 19 -22c4.66699 0 16 1.33301 34 4s44 4 78 4c33.333 0 58.333 -1.33301 75 -4s26.667 -4 30 -4c11.333 0 17 7.66699 17 23c0 8 -2.16699 12.667 -6.5 14s-11.5 3 -21.5 5c-10.667 2 -18 6.66699 -22 14s-6 18.333 -6 33v195
c0 7.33301 2.66699 11 8 11c0.666992 0 3.66699 -4 9 -12l88 -141c28 -45.333 42 -73.666 42 -84.999c0 -6 -2.16699 -9.83301 -6.5 -11.5s-9 -3 -14 -4s-9.5 -2.83301 -13.5 -5.5s-6 -7.66699 -6 -15c0 -5.33301 1.66699 -9.83301 5 -13.5s7.66602 -5.5 12.999 -5.5
c4 0 15.333 1.5 34 4.5s44 4.5 76 4.5c28 0 51.167 -1.33301 69.5 -4s32.166 -4 41.499 -4c12.667 0 19 4.66699 19 14c0 6 -0.833008 10.5 -2.5 13.5s-4 5.16699 -7 6.5s-6.5 2.5 -10.5 3.5s-8 2.16699 -12 3.5c-10.667 4 -18.834 10.5 -24.501 19.5l-19.5 30.5l-178 295
c-2 4 -3 8 -3 12c0 3.33301 2 8 6 14l49 66c19.333 26.667 40 49.334 62 68.001s41 30.667 57 36c6.66699 2 13.5 3.5 20.5 4.5s13 2.33301 18 4s9.16699 4 12.5 7s5 7.83301 5 14.5c0 10.667 -8 16 -24 16c-14.667 0 -29.834 -0.833008 -45.501 -2.5
s-31.834 -2.5 -48.501 -2.5c-22 0 -39.833 1.16699 -53.5 3.5s-24.167 3.5 -31.5 3.5c-14 0 -21 -6.66699 -21 -20c0 -7.33301 2.83301 -12.166 8.5 -14.499s11.667 -4.16602 18 -5.49902s12.333 -3.5 18 -6.5s8.5 -8.83301 8.5 -17.5c0 -5.33301 -1.33301 -10.5 -4 -15.5
s-6.33398 -10.5 -11.001 -16.5l-139 -179c-4 -4.66699 -7 -7 -9 -7c-2.66699 0 -4 4.33301 -4 13v180z" />
    <glyph glyph-name="L" unicode="L" horiz-adv-x="440" 
d="M220 541c0 17.333 3.33301 29.1699 10 35.5029s18 10.5 34 12.5c11.333 1.33301 19 3 23 5s6 6.66699 6 14c0 14.667 -7 22 -21 22c-6 0 -18.667 -1.16699 -38 -3.5s-46 -3.5 -80 -3.5s-60.167 1.16699 -78.5 3.5s-29.5 3.5 -33.5 3.5c-12.667 0 -19 -7 -19 -21
c0 -8.66699 3 -13.834 9 -15.501s14.667 -3.83398 26 -6.50098s19 -7.5 23 -14.5s6 -17.833 6 -32.5v-453c0 -17.333 -2.5 -29 -7.5 -35s-14.167 -10.333 -27.5 -13c-10.667 -2 -18.167 -4 -22.5 -6s-6.5 -6.66699 -6.5 -14c0 -14.667 6.33301 -22 19 -22
c4.66699 0 16 1.33301 34 4s44 4 78 4c64.667 0 116.834 -1.66699 156.501 -5s67.167 -5 82.5 -5c13.333 0 21.666 2.33301 24.999 7s5.66602 12.667 6.99902 24l10 84c2 18 3 29 3 33c0 6.66699 -1.5 11.5 -4.5 14.5s-6.5 4.5 -10.5 4.5c-5.33301 0 -10 -2.5 -14 -7.5
s-8.16699 -11.5 -12.5 -19.5l-14 -26.5c-5 -9.66699 -11.5 -19.5 -19.5 -29.5c-10 -12.667 -23 -22.834 -39 -30.501s-31.667 -11.5 -47 -11.5c-23.333 0 -38.666 6 -45.999 18s-11 33.667 -11 65v421z" />
    <glyph glyph-name="M" unicode="M" horiz-adv-x="688" 
d="M224 609c-4 12.667 -13.998 19.002 -29.998 19.002c-8 0 -17.667 -0.5 -29 -1.5s-24.333 -1.5 -39 -1.5c-22 0 -39.667 0.833008 -53 2.5s-22.666 2.5 -27.999 2.5c-12.667 0 -19 -7.33301 -19 -22c0 -6 1.16699 -10.167 3.5 -12.5s5.33301 -3.83301 9 -4.5
s8 -1.33398 13 -2.00098s10.167 -2 15.5 -4c12 -5.33301 19 -13.666 21 -24.999s3 -28.666 3 -51.999v-15c0 -6 -0.333008 -12.667 -1 -20l-17 -364c-0.666992 -13.333 -1.66699 -24.166 -3 -32.499s-3.16602 -15 -5.49902 -20s-5.83301 -8.66699 -10.5 -11
s-10.667 -4.5 -18 -6.5c-10 -2.66699 -17.333 -4.83398 -22 -6.50098s-7 -6.83398 -7 -15.501c0 -12.667 7 -19 21 -19c5.33301 0 13.833 1 25.5 3s27.167 3 46.5 3c17.333 0 31.666 -1 42.999 -3s20.333 -3 27 -3c16 0 24 7 24 21c0 6 -1.5 10.167 -4.5 12.5
s-6.83301 3.83301 -11.5 4.5s-10 1.33398 -16 2.00098s-12 2.33398 -18 5.00098c-12 5.33301 -19.833 16.666 -23.5 33.999s-5.5 42.666 -5.5 75.999v29v43c0 13.333 0.333008 25.333 1 36l10 198c0 6.66699 0.666992 10 2 10c2.66699 0 5 -2.33301 7 -7l130 -413
c4 -12.667 8 -22.334 12 -29.001s10.667 -10 20 -10c7.33301 0 13.166 3.33301 17.499 10s8.83301 16.667 13.5 30l128 390c2 6.66699 4 10 6 10c2.66699 0 4 -3.66699 4 -11l2 -351c0 -15.333 -2.33301 -26.666 -7 -33.999s-12.667 -12.333 -24 -15
c-10.667 -2 -18.834 -3.83301 -24.501 -5.5s-8.5 -7.16699 -8.5 -16.5c0 -12.667 6.33301 -19 19 -19c4.66699 0 16.5 1.33301 35.5 4s45.5 4 79.5 4c34.667 0 61.334 -1.33301 80.001 -4s30 -4 34 -4c12.667 0 19 6.33301 19 19c0 10.667 -2.83301 16.5 -8.5 17.5
l-25.5 4.5c-10.667 2 -18.334 6.83301 -23.001 14.5s-7.33398 19.167 -8.00098 34.5l-9 419v14c0 19.333 1.5 34.333 4.5 45s10.167 17.667 21.5 21c4.66699 1.33301 9.5 2.16602 14.5 2.49902s9.5 0.833008 13.5 1.5s7.33301 2.16699 10 4.5s4 6.16602 4 11.499
c0 16 -8.33301 24 -25 24c-7.33301 0 -16.666 -0.666992 -27.999 -2s-25 -2 -41 -2c-14 0 -26.5 0.166992 -37.5 0.5s-20.167 0.5 -27.5 0.5c-11.333 0 -19.833 -1.16699 -25.5 -3.5s-9.83398 -7.5 -12.501 -15.5l-117 -354c-3.33301 -10.667 -6.66602 -16 -9.99902 -16
c-2.66699 0 -5.33398 4.33301 -8.00098 13z" />
    <glyph glyph-name="N" unicode="N" horiz-adv-x="588" 
d="M506 484c0 32 1.66602 56.001 4.99902 72.001s10.666 26 21.999 30c6.66699 2.66699 12.834 4.33398 18.501 5.00098s10.334 1.5 14.001 2.5s6.5 2.5 8.5 4.5s3 5.66699 3 11c0 14.667 -7.33301 22 -22 22c-8 0 -15 -0.833008 -21 -2.5s-10.667 -2.5 -14 -2.5
c-1.33301 0 -4.66602 -0.166992 -9.99902 -0.5s-13.666 -0.5 -24.999 -0.5c-10.667 0 -18.834 0.166992 -24.501 0.5s-9.16699 0.5 -10.5 0.5c-4.66699 0 -10.5 0.833008 -17.5 2.5s-15.167 2.5 -24.5 2.5c-16.667 0 -25 -7.33301 -25 -22c0 -6 1.5 -10.167 4.5 -12.5
s7 -3.83301 12 -4.5s10.833 -1.33398 17.5 -2.00098s13.667 -2.66699 21 -6c11.333 -5.33301 18.833 -15.666 22.5 -30.999s5.5 -38.333 5.5 -69v-213c0 -9.33301 -2.66699 -14 -8 -14c-2.66699 0 -6 3 -10 9l-221 343c-5.33301 8 -9.66602 13.167 -12.999 15.5
s-9 3.5 -17 3.5c-4 0 -11.5 -0.333008 -22.5 -1s-25.167 -1 -42.5 -1c-29.333 0 -51.333 0.666992 -66 2s-23.334 2 -26.001 2c-12.667 0 -19 -7.33301 -19 -22c0 -6 1.33301 -10.167 4 -12.5s6.16699 -3.83301 10.5 -4.5s9 -1.16699 14 -1.5s9.83301 -1.5 14.5 -3.5
c9.33301 -4.66699 15.166 -13.334 17.499 -26.001s3.5 -30 3.5 -52v-363c0 -32 -1.66699 -56 -5 -72s-10.666 -26 -21.999 -30c-6.66699 -2.66699 -12.667 -4.33398 -18 -5.00098s-10 -1.33398 -14 -2.00098s-7 -2.16699 -9 -4.5s-3 -6.16602 -3 -11.499
c0 -14.667 7.33301 -22 22 -22c6 0 14.667 1 26 3s26 3 44 3s33.333 -1 46 -3s22.667 -3 30 -3c17.333 0 26 7.33301 26 22c0 6 -1.66699 10.167 -5 12.5s-7.66602 3.66602 -12.999 3.99902s-11.333 0.833008 -18 1.5s-13.334 2.66699 -20.001 6
c-11.333 5.33301 -18.666 15.833 -21.999 31.5s-5 38.834 -5 69.501v332c0 9.33301 1 14 3 14c2.66699 0 5.66699 -2 9 -6l299 -473c7.33301 -12 14.166 -21.833 20.499 -29.5s14.166 -11.5 23.499 -11.5c17.333 0 26 16 26 48v465z" />
    <glyph glyph-name="O" unicode="O" horiz-adv-x="639" 
d="M322 648c-41.333 0 -80 -8.5 -116 -25.5s-67.333 -40.333 -94 -70s-47.667 -64.834 -63 -105.501s-23 -84.667 -23 -132s7.66699 -91.333 23 -132s36.333 -76 63 -106s57.5 -53.5 92.5 -70.5s72.5 -25.5 112.5 -25.5c41.333 0 80 8.5 116 25.5s67.333 40.5 94 70.5
s47.667 65.333 63 106s23 84.667 23 132s-7.66699 91.333 -23 132s-36.333 75.834 -63 105.501s-57.5 53 -92.5 70s-72.5 25.5 -112.5 25.5zM311 609c22 0 42.8311 -7.33594 62.498 -22.0029s36.834 -35.667 51.501 -63s26.334 -60.833 35.001 -100.5s13 -84.5 13 -134.5
c0 -43.333 -3.66699 -81.666 -11 -114.999s-17.5 -61.333 -30.5 -84s-28.5 -39.834 -46.5 -51.501s-37.333 -17.5 -58 -17.5c-22 0 -42.833 7.16699 -62.5 21.5s-36.834 35.333 -51.501 63s-26.167 61.334 -34.5 101.001s-12.5 84.834 -12.5 135.501
c0 42.667 3.66699 80.667 11 114s17.5 61.333 30.5 84s28.333 39.834 46 51.501s36.834 17.5 57.501 17.5z" />
    <glyph glyph-name="P" unicode="P" horiz-adv-x="494" 
d="M217 379v133.001c0 26 2.5 45.5 7.5 58.5s16.5 19.5 34.5 19.5c10.667 0 21.167 -3.16699 31.5 -9.5s19.5 -15.5 27.5 -27.5s14.333 -26.833 19 -44.5s7 -37.834 7 -60.501c0 -42 -7.5 -74.333 -22.5 -97s-35.167 -34 -60.5 -34c-20.667 0 -33.167 5.5 -37.5 16.5
s-6.5 26.167 -6.5 45.5zM286 265.001c15.333 -6.66699 31.334 -9.99609 48.001 -9.99609c18 0 35.833 4.83301 53.5 14.5s33.167 23.167 46.5 40.5s24.166 38.166 32.499 62.499s12.5 51.166 12.5 80.499c0 58 -16 102.5 -48 133.5s-79.333 46.5 -142 46.5
c-19.333 0 -42.833 -0.666992 -70.5 -2s-59.5 -2 -95.5 -2c-15.333 0 -28.5 0.5 -39.5 1.5s-20.167 1.5 -27.5 1.5c-22 0 -33 -7.66699 -33 -23c0 -8.66699 3 -13.834 9 -15.501s14.667 -3.83398 26 -6.50098s19 -7.5 23 -14.5s6 -17.833 6 -32.5v-453
c0 -17.333 -2.5 -29 -7.5 -35s-14.167 -10.333 -27.5 -13c-10.667 -2 -18.167 -4 -22.5 -6s-6.5 -6.66699 -6.5 -14c0 -14.667 6.33301 -22 19 -22c4.66699 0 16 1.33301 34 4s44 4 78 4s60 -1.33301 78 -4s29.333 -4 34 -4c12.667 0 19 7.66699 19 23
c0 8 -2.5 12.667 -7.5 14s-13.167 3 -24.5 5c-12 2 -20.5 6.66699 -25.5 14s-7.5 18.333 -7.5 33v189c0 9.33301 2 14 6 14c1.33301 0 4 -0.666992 8 -2z" />
    <glyph glyph-name="Q" unicode="Q" horiz-adv-x="639" 
d="M311 609c22 0 42.8311 -7.33594 62.498 -22.0029s36.834 -35.667 51.501 -63s26.334 -60.833 35.001 -100.5s13 -84.5 13 -134.5c0 -43.333 -3.66699 -81.666 -11 -114.999s-17.5 -61.333 -30.5 -84s-28.5 -39.834 -46.5 -51.501s-37.333 -17.5 -58 -17.5
c-22 0 -42.833 7.16699 -62.5 21.5s-36.834 35.333 -51.501 63s-26.167 61.334 -34.5 101.001s-12.5 84.834 -12.5 135.501c0 42.667 3.66699 80.667 11 114s17.5 61.333 30.5 84s28.333 39.834 46 51.501s36.834 17.5 57.501 17.5zM425.998 2.99707
c9.33301 3.33301 23.834 11.332 43.501 23.999s38.5 29.667 56.5 51c58 68 87 147 87 237c0 47.333 -7.66699 91.333 -23 132s-36.333 75.834 -63 105.501s-57.5 53 -92.5 70s-72.5 25.5 -112.5 25.5c-41.333 0 -80 -8.5 -116 -25.5s-67.333 -40.333 -94 -70
s-47.667 -64.834 -63 -105.501s-23 -84.667 -23 -132c0 -40 5.83301 -77.667 17.5 -113s27.167 -67 46.5 -95s41.666 -51.667 66.999 -71s51.666 -33 78.999 -41l19 -5c5.33301 -1.33301 8.33301 -4.16602 9 -8.49902s1.66699 -10.166 3 -17.499l7 -39
c7.33301 -46 27.333 -81.333 60 -106s77 -37 133 -37c40 0 71.833 4.83301 95.5 14.5s35.5 20.5 35.5 32.5c0 10 -5.33301 15 -16 15c-4.66699 0 -10.167 -0.666992 -16.5 -2s-13.166 -2 -20.499 -2c-26 0 -51.667 10.5 -77 31.5s-46.333 51.5 -63 91.5l-6 16
c-0.666992 1.33301 -1 3 -1 5c0 5.33301 4 9.66602 12 12.999z" />
    <glyph glyph-name="R" unicode="R" horiz-adv-x="536" 
d="M217 396v120c0 24.667 2.5 43.167 7.5 55.5s17.5 18.5 37.5 18.5c12.667 0 24.5 -3.16699 35.5 -9.5s20.667 -15 29 -26s15 -24 20 -39s7.5 -31.5 7.5 -49.5c0 -36 -10.167 -65.5 -30.5 -88.5s-47.5 -34.5 -81.5 -34.5c-12 0 -19.167 3 -21.5 9s-3.5 17.667 -3.5 35v9z
M349 328c47.333 10 83.335 28.332 108.002 54.999s37 59.334 37 98.001c0 49.333 -14.833 87.166 -44.5 113.499s-74.5 39.5 -134.5 39.5c-24 0 -52.167 -0.833008 -84.5 -2.5s-68.833 -2.5 -109.5 -2.5c-13.333 0 -25.5 0.5 -36.5 1.5s-20.5 1.5 -28.5 1.5
c-22 0 -33 -7.66699 -33 -23c0 -8.66699 3 -13.834 9 -15.501s14.667 -3.83398 26 -6.50098s19 -7.5 23 -14.5s6 -17.833 6 -32.5v-453c0 -16.667 -2.33301 -28.167 -7 -34.5s-13.667 -10.833 -27 -13.5c-11.333 -2 -19 -4 -23 -6s-6 -6.66699 -6 -14
c0 -14.667 6.33301 -22 19 -22c4.66699 0 16 1.33301 34 4s43.333 4 76 4c33.333 0 59.166 -1.33301 77.499 -4s29.5 -4 33.5 -4c12.667 0 19 7.66699 19 23c0 8.66699 -2.66699 13.5 -8 14.5l-25 4.5c-12 2 -20.167 6.66699 -24.5 14s-6.5 18.333 -6.5 33v202
c0 9.33301 3.66699 14 11 14h7c20 0 38.667 -22 56 -66l81 -206c6 -15.333 11 -24.5 15 -27.5s10.333 -4.5 19 -4.5c10.667 0 22 0.666992 34 2s24.667 2 38 2c17.333 0 31.166 -1 41.499 -3s17.833 -3 22.5 -3s8.5 1.83301 11.5 5.5s4.5 8.16699 4.5 13.5s-2 9.33301 -6 12
s-9 5.83398 -15 9.50098s-12.5 8.83398 -19.5 15.501s-13.167 16.334 -18.5 29.001l-76 174c-9.33301 20.667 -19.5 36.5 -30.5 47.5s-26.167 19.5 -45.5 25.5z" />
    <glyph glyph-name="S" unicode="S" horiz-adv-x="457" 
d="M375 569l0.00195312 9.99805c0 9.33301 -0.666992 16.833 -2 22.5s-4.66602 11.167 -9.99902 16.5c-7.33301 6.66699 -21.333 13.334 -42 20.001s-44.667 10 -72 10c-26 0 -50.833 -4.83301 -74.5 -14.5s-44.5 -23.167 -62.5 -40.5s-32.167 -38.166 -42.5 -62.499
s-15.5 -50.833 -15.5 -79.5c0 -23.333 3 -44 9 -62s14.667 -34.5 26 -49.5s25.666 -28.833 42.999 -41.5s37.333 -25 60 -37c19.333 -10 36.333 -19.667 51 -29s26.834 -19.166 36.501 -29.499s17 -21.666 22 -33.999s7.5 -26.833 7.5 -43.5
c0 -30.667 -9.83301 -55.5 -29.5 -74.5s-46.167 -28.5 -79.5 -28.5c-52.667 0 -87.667 31.667 -105 95c-6.66699 22.667 -11 40.834 -13 54.501s-7.66699 20.5 -17 20.5c-12 0 -18 -7.33301 -18 -22v-84c0 -17.333 0.5 -30.5 1.5 -39.5s4.5 -16.5 10.5 -22.5
c4.66699 -4.66699 11.5 -9.5 20.5 -14.5s19.667 -9.66699 32 -14s25.666 -7.83301 39.999 -10.5s29.5 -4 45.5 -4c31.333 0 60.166 5.66699 86.499 17s49.166 26.833 68.499 46.5s34.333 43 45 70s16 56.167 16 87.5c0 24 -3.16699 45.667 -9.5 65
s-15.666 37.166 -27.999 53.499s-27.666 31.666 -45.999 45.999s-39.833 28.166 -64.5 41.499c-14.667 8 -28.5 15 -41.5 21s-24.333 12.667 -34 20s-17.334 16 -23.001 26s-8.5 23.667 -8.5 41c0 25.333 7.83301 46 23.5 62s35.5 24 59.5 24c26 0 44.667 -7.16699 56 -21.5
s21.666 -35.5 30.999 -63.5c5.33301 -16 10 -29 14 -39s10.333 -15 19 -15c9.33301 0 14 7 14 21v85z" />
    <glyph glyph-name="T" unicode="T" horiz-adv-x="487" 
d="M343 593c18 0 32.1689 -5.16113 42.502 -15.4941s19.166 -23.5 26.499 -39.5c10.667 -24.667 17.667 -43.334 21 -56.001s9.33301 -19 18 -19c7.33301 0 12.333 4 15 12s4.66699 19.333 6 34c2 36.667 4.5 67.167 7.5 91.5s4.5 44.166 4.5 59.499
c0 3.33301 -1.33301 8 -4 14s-6.33398 9 -11.001 9c-5.33301 0 -9.33301 -1.83301 -12 -5.5s-5 -7.83398 -7 -12.501s-4 -8.83398 -6 -12.501s-5 -5.5 -9 -5.5c-2.66699 -6 -11.667 -9.66699 -27 -11s-35.666 -2 -60.999 -2h-215c-7.33301 0 -13.5 -0.166992 -18.5 -0.5
s-9.5 -0.5 -13.5 -0.5c-6 0 -10.667 1 -14 3s-6 6.66699 -8 14c-1.33301 0.666992 -2.5 2.5 -3.5 5.5s-2.16699 6.16699 -3.5 9.5s-3 6.16602 -5 8.49902s-4.66699 3.5 -8 3.5c-8 0 -13.167 -6.33301 -15.5 -19s-5.5 -27.334 -9.5 -44.001
c-7.33301 -40 -13.333 -70.167 -18 -90.5s-7 -33.5 -7 -39.5c0 -11.333 4.66699 -17 14 -17c8.66699 0 16 6.83301 22 20.5s16.667 31.167 32 52.5c10.667 14.667 21.834 27.167 33.501 37.5s25.167 15.5 40.5 15.5h12c3.33301 0 6.16602 -2.83301 8.49902 -8.5
s3.5 -10.5 3.5 -14.5v-483c0 -17.333 -2.5 -29 -7.5 -35s-14.167 -10.333 -27.5 -13c-10.667 -2 -18.167 -4 -22.5 -6s-6.5 -6.66699 -6.5 -14c0 -14.667 6.33301 -22 19 -22c4.66699 0 16 1.33301 34 4s44 4 78 4s60 -1.33301 78 -4s29.333 -4 34 -4
c12.667 0 19 7.66699 19 23c0 8 -2.5 12.667 -7.5 14s-13.167 3 -24.5 5c-12 2 -20.5 6.66699 -25.5 14s-7.5 18.333 -7.5 33v485c0 3.33301 1.16699 7.83301 3.5 13.5s5.16602 8.5 8.49902 8.5h24z" />
    <glyph glyph-name="U" unicode="U" horiz-adv-x="592" 
d="M213 541c0 17.333 2.83008 29.1689 8.49707 35.502s15.834 10.5 30.501 12.5c10 1.33301 16.833 3 20.5 5s5.5 6.66699 5.5 14c0 14.667 -6.33301 22 -19 22c-4.66699 0 -15.667 -1.16699 -33 -3.5s-41.666 -3.5 -72.999 -3.5c-34 0 -60.167 1.16699 -78.5 3.5
s-29.5 3.5 -33.5 3.5c-12.667 0 -19 -7.33301 -19 -22c0 -8.66699 2.83301 -13.667 8.5 -15l25.5 -6c11.333 -2.66699 19.166 -7.5 23.499 -14.5s6.5 -17.833 6.5 -32.5v-339c0 -32 1.5 -59.833 4.5 -83.5s11.5 -45.167 25.5 -64.5
c19.333 -25.333 44.333 -43.666 75 -54.999s69 -17 115 -17c42 0 77.833 6.5 107.5 19.5s52.5 31.833 68.5 56.5c14.667 23.333 23.167 49.333 25.5 78s3.5 62.667 3.5 102v119c0 62.667 1 112.5 3 149.5s7.66699 61.167 17 72.5c4 4.66699 9.33301 7.5 16 8.5
s13 1.66699 19 2s11.167 1.83301 15.5 4.5s6.5 8 6.5 16c0 7.33301 -2 12.5 -6 15.5s-11 4.5 -21 4.5c-8.66699 0 -18.667 -0.666992 -30 -2s-23.666 -2 -36.999 -2c-16.667 0 -31 0.666992 -43 2s-21.667 2 -29 2c-18 0 -27 -6.66699 -27 -20c0 -8 2.16699 -13.333 6.5 -16
s9.5 -4.33398 15.5 -5.00098s12.167 -1.5 18.5 -2.5s11.5 -3.83301 15.5 -8.5c9.33301 -11.333 15.166 -35.333 17.499 -72s3.5 -86.334 3.5 -149.001v-123c0 -34.667 -1.16699 -64.334 -3.5 -89.001s-9.16602 -45.667 -20.499 -63c-24 -35.333 -61.333 -53 -112 -53
c-25.333 0 -45.833 4 -61.5 12s-28.167 19.833 -37.5 35.5s-15.666 35 -18.999 58s-5 49.833 -5 80.5v327z" />
    <glyph glyph-name="V" unicode="V" horiz-adv-x="497" 
d="M182 544c-1.33301 3.33301 -2.33691 6.49902 -3.00391 9.49902s-1 5.83301 -1 8.5c0 6.66699 3 11.334 9 14.001s12.5 5 19.5 7s13.5 4.83301 19.5 8.5s9 10.167 9 19.5c0 12.667 -7 19 -21 19c-7.33301 0 -20 -1.16699 -38 -3.5s-42 -3.5 -72 -3.5
c-32 0 -56.333 1.16699 -73 3.5s-27 3.5 -31 3.5c-5.33301 0 -9.66602 -2 -12.999 -6s-5 -8.66699 -5 -14c0 -6 1.16699 -10.5 3.5 -13.5s5.5 -5.33301 9.5 -7s8.33301 -3.33398 13 -5.00098s9.33398 -4.5 14.001 -8.5c7.33301 -5.33301 13.666 -15.833 18.999 -31.5
l21 -60.5l121 -353l21.5 -66.5c5.66699 -18.333 10.667 -33.333 15 -45s8.66602 -20.167 12.999 -25.5s10.166 -8 17.499 -8s13.5 3.16699 18.5 9.5s10 16.166 15 29.499s10.5 30.333 16.5 51s14 45.334 24 74.001l101 294c12.667 36 23.334 64.833 32.001 86.5
s18 36.167 28 43.5c4.66699 4 9.66699 6.83301 15 8.5s10 3.33398 14 5.00098s7.33301 4 10 7s4 7.83301 4 14.5c0 13.333 -8.33301 20 -25 20c-7.33301 0 -16.166 -0.666992 -26.499 -2s-22.166 -2 -35.499 -2c-15.333 0 -28.166 0.666992 -38.499 2s-19.166 2 -26.499 2
c-16.667 0 -25 -6.66699 -25 -20c0 -8 3 -13.667 9 -17s12.667 -6.16602 20 -8.49902s14 -5.5 20 -9.5s9 -10.667 9 -20c0 -4.66699 -0.833008 -11.834 -2.5 -21.501s-4.5 -21.167 -8.5 -34.5l-90 -275c-0.666992 -4.66699 -3.66699 -7 -9 -7c-4 0 -6.33301 2 -7 6z" />
    <glyph glyph-name="W" unicode="W" horiz-adv-x="715" 
d="M176 534c-2.66699 6.66699 -4.50781 12.8301 -5.50781 18.4971s-1.5 10.167 -1.5 13.5c0 6.66699 1.33301 11.667 4 15s5.83398 6 9.50098 8s6.83398 4.33301 9.50098 7s4 7 4 13c0 7.33301 -1.83301 12.166 -5.5 14.499s-10.167 3.5 -19.5 3.5
s-20.166 -0.666992 -32.499 -2s-27.166 -2 -44.499 -2c-28.667 0 -51.334 1.16699 -68.001 3.5s-27.667 3.5 -33 3.5s-9.83301 -2 -13.5 -6s-5.5 -8.66699 -5.5 -14c0 -6.66699 1.66699 -11.5 5 -14.5s7.5 -5.5 12.5 -7.5s10.333 -4.33301 16 -7s10.834 -6.66699 15.501 -12
c6.66699 -7.33301 14.334 -22.5 23.001 -45.5l33 -91.5l122 -353c11.333 -34 20 -58 26 -72s14.667 -21 26 -21c7.33301 0 13.5 2.5 18.5 7.5s9.66699 12.333 14 22s8.83301 21.167 13.5 34.5s10.334 28.333 17.001 45l53 131c2 4.66699 3.66699 7 5 7
c2.66699 0 4.66699 -2 6 -6l48 -148l13.5 -43.5c3.66699 -11.667 7 -21.167 10 -28.5s6.5 -12.666 10.5 -15.999s9 -5 15 -5c8 0 14.333 3.33301 19 10s9.33398 16.834 14.001 30.501s9.83398 30.834 15.501 51.501s13.167 44.667 22.5 72l111 332
c9.33301 26.667 18.166 47.834 26.499 63.501s16.166 26.167 23.499 31.5c4.66699 3.33301 8.83398 5.83301 12.501 7.5s7 3.33398 10 5.00098s5.33301 3.83398 7 6.50098s2.5 7 2.5 13c0 6.66699 -1.33301 11.667 -4 15s-7.66699 5 -15 5c-2 0 -8.5 -0.5 -19.5 -1.5
s-26.167 -1.5 -45.5 -1.5c-17.333 0 -30.666 0.5 -39.999 1.5s-14.666 1.5 -15.999 1.5c-12.667 0 -19 -6.66699 -19 -20c0 -6.66699 2.16699 -11.5 6.5 -14.5s9.16602 -6.16699 14.499 -9.5s10.166 -7.83301 14.499 -13.5s6.5 -14.5 6.5 -26.5
c0 -7.33301 -1.33301 -17.5 -4 -30.5s-7 -28.167 -13 -45.5l-89 -265c-2 -6.66699 -4.33301 -10 -7 -10s-5 3.33301 -7 10l-56 174c-0.666992 2.66699 -1.16699 5 -1.5 7s-0.5 4.33301 -0.5 7c0 5.33301 1 10.666 3 15.999l58 141c5.33301 12.667 10.833 21.5 16.5 26.5
s11 8.66699 16 11s9 4.83301 12 7.5s4.5 7.66699 4.5 15s-1.66699 12.5 -5 15.5s-9.66602 4.5 -18.999 4.5c-5.33301 0 -20.5 -1 -45.5 -3s-60.5 -3 -106.5 -3c-44.667 0 -78.834 1.16699 -102.501 3.5s-37.5 3.5 -41.5 3.5c-5.33301 0 -9.66602 -2 -12.999 -6
s-5 -8.66699 -5 -14c0 -8 2.16699 -13.167 6.5 -15.5s9.5 -4.83301 15.5 -7.5s12.333 -6.66699 19 -12s12.334 -15.333 17.001 -30l74 -224c0.666992 -2.66699 1 -8.33398 1 -17.001c0 -3.33301 -0.333008 -6.33301 -1 -9s-1.33398 -4.66699 -2.00098 -6l-43 -101
c-2 -5.33301 -4.33301 -8 -7 -8c-2 0 -4 2.66699 -6 8zM449.992 518.996l-21 -45.9971c-3.33301 -5.33301 -5.66602 -8 -6.99902 -8c-2 0 -4 3 -6 9l-15 40c-5.33301 13.333 -9 24.166 -11 32.499s-3 13.833 -3 16.5c0 9.33301 3.33301 17.166 10 23.499
s15.334 9.5 26.001 9.5c11.333 0 20.166 -3.5 26.499 -10.5s9.5 -16.5 9.5 -28.5c0 -6.66699 -0.833008 -13.334 -2.5 -20.001s-3.83398 -12.667 -6.50098 -18z" />
    <glyph glyph-name="X" unicode="X" horiz-adv-x="540" 
d="M234 530c-3.33301 6.66699 -6.16309 12.668 -8.49609 18.001s-3.5 10.666 -3.5 15.999c0 8 2.83301 13.5 8.5 16.5s12 5.5 19 7.5s13.333 4.33301 19 7s8.5 8 8.5 16c0 5.33301 -1.66699 9.66602 -5 12.999s-7.33301 5 -12 5c-3.33301 0 -15.666 -1.16699 -36.999 -3.5
s-54.666 -3.5 -99.999 -3.5c-32 0 -58.333 1.33301 -79 4s-36.667 4 -48 4c-14 0 -21 -7 -21 -21c0 -6.66699 1.33301 -11 4 -13s6.33398 -3.5 11.001 -4.5s9.83398 -1.83301 15.501 -2.5s11.5 -3 17.5 -7c13.333 -8.66699 26.666 -22.834 39.999 -42.501s29 -44.5 47 -74.5
l92 -155c2 -3.33301 3 -6.66602 3 -9.99902c0 -6 -0.666992 -10 -2 -12l-83 -147c-13.333 -23.333 -27 -43.333 -41 -60s-30.333 -28.667 -49 -36c-5.33301 -2 -10.666 -3.33301 -15.999 -4s-10.166 -1.66699 -14.499 -3s-8 -3.33301 -11 -6s-4.5 -7 -4.5 -13
c0 -7.33301 1.33301 -12.166 4 -14.499s6.66699 -3.5 12 -3.5c13.333 0 27.666 0.833008 42.999 2.5s31.666 2.5 48.999 2.5c15.333 0 30.833 -1.5 46.5 -4.5s31.834 -4.5 48.501 -4.5c17.333 0 26 7.33301 26 22c0 10.667 -3.5 16.5 -10.5 17.5s-16.5 2.83301 -28.5 5.5
c-10.667 2 -18 5.16699 -22 9.5s-6 10.5 -6 18.5c0 7.33301 1.83301 15.166 5.5 23.499s8.16699 17.833 13.5 28.5l60 117c2 4.66699 4.66699 7 8 7s6.33301 -2.33301 9 -7l61 -105c21.333 -36.667 32 -60.667 32 -72c0 -9.33301 -2.66699 -15.166 -8 -17.499
s-11.333 -4 -18 -5s-12.667 -2.66699 -18 -5s-8 -7.83301 -8 -16.5c0 -5.33301 1.66699 -10 5 -14s7.66602 -6 12.999 -6c3.33301 0 15.166 1.33301 35.499 4s53.166 4 98.499 4c30.667 0 54.667 -1.16699 72 -3.5s28.666 -3.5 33.999 -3.5c7.33301 0 12.833 1 16.5 3
s5.5 6.66699 5.5 14c0 6 -1 10.5 -3 13.5s-4.83301 5.16699 -8.5 6.5s-7.66699 2.33301 -12 3s-8.83301 2.33398 -13.5 5.00098c-12 6.66699 -25.667 22.667 -41 48l-153 264c-1.33301 2 -2 5.33301 -2 10c0 5.33301 1.33301 10.333 4 15l39 69
c17.333 32 33.166 58.667 47.499 80s30.5 37 48.5 47c11.333 6 22 9.83301 32 11.5s18.667 2.66699 26 3s13.166 1.5 17.499 3.5s6.5 6.66699 6.5 14c0 14 -8 21 -24 21c-8 0 -20.5 -1 -37.5 -3s-38.833 -3 -65.5 -3c-22 0 -40 1 -54 3s-24.333 3 -31 3
c-15.333 0 -23 -7 -23 -21c0 -8 2.66699 -13 8 -15s11.166 -3.66699 17.499 -5s12.166 -3.33301 17.499 -6s8 -8.33398 8 -17.001c0 -14.667 -10 -42 -30 -82l-26 -54c-3.33301 -6 -7 -9 -11 -9s-7.33301 3 -10 9z" />
    <glyph glyph-name="Y" unicode="Y" horiz-adv-x="495" 
d="M201 539c-5.33301 10 -8.00293 18 -8.00293 24c0 7.33301 2.66699 12.333 8 15s11 5 17 7s11.667 4.5 17 7.5s8 9.16699 8 18.5c0 12.667 -7 19 -21 19c-5.33301 0 -18.333 -1.16699 -39 -3.5s-49.667 -3.5 -87 -3.5c-34 0 -59.667 1.16699 -77 3.5
s-27.666 3.5 -30.999 3.5c-4.66699 0 -8.66699 -1.83301 -12 -5.5s-5 -8.5 -5 -14.5c0 -10.667 3 -17 9 -19s14 -5.66699 24 -11c10.667 -5.33301 18.667 -12.5 24 -21.5l18 -31.5l134 -249c2.66699 -4.66699 4.66699 -10.334 6 -17.001s2 -12.667 2 -18v-156
c0 -17.333 -2.5 -29 -7.5 -35s-14.167 -10.333 -27.5 -13c-10.667 -2 -18 -4 -22 -6s-6 -6.66699 -6 -14c0 -14.667 6.33301 -22 19 -22c5.33301 0 17 1.33301 35 4s43.667 4 77 4c34 0 60 -1.33301 78 -4s29.333 -4 34 -4c12.667 0 19 7.66699 19 23
c0 8.66699 -2.66699 13.5 -8 14.5l-25 4.5c-12 2 -20.333 6.66699 -25 14s-7 18.333 -7 33v188c0 12.667 2.66699 23.334 8 32.001l99 183c27.333 51.333 48 80.666 62 87.999c6 3.33301 11.167 5.83301 15.5 7.5s8.16602 3.33398 11.499 5.00098s5.83301 4 7.5 7
s2.5 7.16699 2.5 12.5c0 13.333 -7 20 -21 20c-5.33301 0 -13.5 -0.833008 -24.5 -2.5s-24.833 -2.5 -41.5 -2.5c-17.333 0 -32.166 0.833008 -44.499 2.5s-23.166 2.5 -32.499 2.5s-15.833 -1.5 -19.5 -4.5s-5.5 -8.16699 -5.5 -15.5c0 -8.66699 3 -14.5 9 -17.5
s12.667 -5.66699 20 -8s14 -5.66602 20 -9.99902s9 -11.833 9 -22.5c0 -5.33301 -1.33301 -12.833 -4 -22.5s-6.66699 -19.834 -12 -30.501l-67 -131c-3.33301 -6 -6.66602 -9 -9.99902 -9s-6.33301 3 -9 9z" />
    <glyph glyph-name="Z" unicode="Z" horiz-adv-x="521" 
d="M251 626l-47.0049 0.00195312c-24.667 0 -43.667 0.666992 -57 2s-21.666 4.66602 -24.999 9.99902c-2 2.66699 -3.5 6 -4.5 10s-2.16699 7.66699 -3.5 11s-3.16602 6.16602 -5.49902 8.49902s-6.16602 3.5 -11.499 3.5c-7.33301 0 -12.666 -3.5 -15.999 -10.5
s-6.66602 -17.833 -9.99902 -32.5c-7.33301 -38.667 -13.833 -68.667 -19.5 -90s-8.5 -35 -8.5 -41c0 -7.33301 1.66699 -13.166 5 -17.499s7.66602 -6.5 12.999 -6.5c4.66699 0 8.83398 1.83301 12.501 5.5s7.5 8.5 11.5 14.5l14.5 21.5
c5.66699 8.33301 12.834 17.166 21.501 26.499c24.667 26.667 66.667 40 126 40h57c6 0 9 -2 9 -6c0 -2 -1 -5 -3 -9l-278 -508c-4.66699 -8.66699 -8.5 -16.167 -11.5 -22.5s-4.5 -12.166 -4.5 -17.499c0 -9.33301 2.33301 -15.166 7 -17.499s13.667 -3.5 27 -3.5
c10 0 33.833 1.33301 71.5 4s88.834 4 153.501 4c17.333 0 31.166 -0.333008 41.499 -1s17.166 -1 20.499 -1c21.333 0 41.833 -1 61.5 -3s38.5 -3 56.5 -3c12 0 19.5 1.66699 22.5 5s4.5 9.33301 4.5 18c0 2.66699 -0.166992 8.16699 -0.5 16.5s-0.5 19.5 -0.5 33.5
c0 17.333 0.333008 32.833 1 46.5s1 25.167 1 34.5c0 28.667 -6.66699 43 -20 43c-6 0 -10.667 -2.33301 -14 -7s-6.16602 -10.834 -8.49902 -18.501s-4.83301 -16.5 -7.5 -26.5s-6.33398 -20.333 -11.001 -31c-10.667 -22.667 -26.667 -38.5 -48 -47.5
s-51.333 -13.5 -90 -13.5h-88c-3.33301 0 -5.83301 1 -7.5 3s-2.5 3.66699 -2.5 5c0 3.33301 1.33301 7.66602 4 12.999l279 509c10.667 19.333 16 33 16 41s-8 12 -24 12c-15.333 0 -31.5 -1.16699 -48.5 -3.5s-34.5 -3.5 -52.5 -3.5h-109z" />
    <glyph glyph-name="bracketleft" unicode="[" horiz-adv-x="315" 
d="M111 648c-16.667 0 -26.667 -3.16699 -30 -9.5s-5 -18.5 -5 -36.5v-785c0 -18 1.66699 -30.167 5 -36.5s13.333 -9.5 30 -9.5h137c16 0 24 7.33301 24 22s-8.33301 22 -25 22h-50c-7.33301 0 -12 2.16699 -14 6.5s-3 10.833 -3 19.5v738c0 8.66699 1 15 3 19
s6.66699 6 14 6h50c16.667 0 25 7.33301 25 22s-8 22 -24 22h-137z" />
    <glyph glyph-name="backslash" unicode="\" horiz-adv-x="222" 
d="M-24 648l246 -741h42l-246 741h-42z" />
    <glyph glyph-name="bracketright" unicode="]" horiz-adv-x="315" 
d="M67 648c-16 0 -24 -7.33301 -24 -22s8.33301 -22 25 -22h49c11.333 0 17 -8.33301 17 -25v-738c0 -17.333 -5.66699 -26 -17 -26h-49c-16.667 0 -25 -7.33301 -25 -22s8 -22 24 -22h136c16 0 25.833 3 29.5 9s5.5 18.333 5.5 37v785c0 18.667 -1.83301 31 -5.5 37
s-13.5 9 -29.5 9h-136z" />
    <glyph glyph-name="asciicircum" unicode="^" horiz-adv-x="1000" 
d="M552 714h-105l-246 -276h51l247 194l247 -194h51z" />
    <glyph glyph-name="underscore" unicode="_" 
d="M500 -152h-500v-84h500v84z" />
    <glyph glyph-name="grave" unicode="`" 
d="M219 655c-10 13.333 -18.833 23.167 -26.5 29.5s-16.167 9.5 -25.5 9.5c-10 0 -18.333 -3.83301 -25 -11.5s-10 -18.5 -10 -32.5c0 -12.667 3 -22.5 9 -29.5s15 -14.5 27 -22.5l123 -81h35z" />
    <glyph glyph-name="a" unicode="a" horiz-adv-x="421" 
d="M357 301l0.00195312 43.0029c0 38 -12.833 67.333 -38.5 88s-61.5 31 -107.5 31c-24.667 0 -48.334 -4.5 -71.001 -13.5s-42.5 -20.167 -59.5 -33.5s-30.667 -28.333 -41 -45s-15.5 -32.334 -15.5 -47.001c0 -19.333 10 -29 30 -29c40 0 70 19.667 90 59l13.5 27
c4.33301 8.66699 8.66602 16.167 12.999 22.5s9.16602 11.5 14.499 15.5s11.666 6 18.999 6c20 0 30 -19.333 30 -58v-64c0 -12.667 -3.33301 -21 -10 -25l-80 -44c-20.667 -11.333 -38.667 -22.166 -54 -32.499s-28.166 -21.333 -38.499 -33s-18 -24.334 -23 -38.001
s-7.5 -29.5 -7.5 -47.5c0 -30 7.33301 -54.5 22 -73.5s34.667 -28.5 60 -28.5c16.667 0 36.334 6.33301 59.001 19s47.667 31.667 75 57h4c10 -26.667 19.5 -45.834 28.5 -57.501s22.167 -17.5 39.5 -17.5c14 0 27.5 3 40.5 9s24.667 13.167 35 21.5s18.5 17 24.5 26
s9 16.5 9 22.5c0 5.33301 -1.5 9.66602 -4.5 12.999s-5.5 5 -7.5 5c-3.33301 0 -7.5 -2.66699 -12.5 -8s-10.5 -8 -16.5 -8c-8.66699 0 -14.167 4.33301 -16.5 13s-3.5 22.667 -3.5 42v183zM234.002 226.003v-76c0 -28.667 -5.16699 -50 -15.5 -64s-24.833 -21 -43.5 -21
c-14 0 -25.167 5.33301 -33.5 16s-12.5 24.667 -12.5 42c0 34.667 20.667 65.667 62 93l28 18c3.33301 2.66699 6.33301 4 9 4c4 0 6 -4 6 -12z" />
    <glyph glyph-name="b" unicode="b" horiz-adv-x="487" 
d="M179 613c0 9.33301 0.333008 18.667 1 28s1 18.666 1 27.999c0 17.333 -5 26 -15 26c-3.33301 0 -7.66602 -1.5 -12.999 -4.5s-12.5 -6.83301 -21.5 -11.5s-20 -9.33398 -33 -14.001s-28.5 -9 -46.5 -13c-16 -3.33301 -28.667 -6.33301 -38 -9s-14 -9.66699 -14 -21
c0 -5.33301 1.16699 -9.16602 3.5 -11.499s5.5 -4.16602 9.5 -5.49902s8.16699 -2.5 12.5 -3.5s8.5 -2.83301 12.5 -5.5c11.333 -7.33301 17 -23 17 -47v-451c0 -23.333 -1.5 -44 -4.5 -62s-4.5 -33.333 -4.5 -46s4.33301 -19 13 -19c4.66699 0 9 2.66699 13 8
s7.83301 11.166 11.5 17.499s7.66699 12.166 12 17.499s9.16602 8 14.499 8c6 0 13.167 -2.16699 21.5 -6.5s18 -9 29 -14s23.5 -9.66699 37.5 -14s29.667 -6.5 47 -6.5c30 0 58.333 6.33301 85 19s50 30.334 70 53.001s35.667 49.834 47 81.501s17 66.5 17 104.5
c0 34 -4.66699 64.833 -14 92.5s-22 51.167 -38 70.5s-34.833 34.333 -56.5 45s-44.5 16 -68.5 16c-13.333 0 -27 -1.83301 -41 -5.5s-27.667 -9.16699 -41 -16.5l-13 -7c-2.66699 -1.33301 -4.66699 -2 -6 -2c-4.66699 0 -7 4 -7 12v169zM179 136.001l0.000976562 193
c0 25.333 3.66699 44.333 11 57s21.666 19 42.999 19c28 0 51.833 -16.333 71.5 -49s29.5 -78 29.5 -136c0 -64.667 -10.167 -114.167 -30.5 -148.5s-44.5 -51.5 -72.5 -51.5c-20.667 0 -34.5 9.83301 -41.5 29.5s-10.5 48.5 -10.5 86.5z" />
    <glyph glyph-name="c" unicode="c" horiz-adv-x="406" 
d="M243 463c-33.333 0 -63.6699 -5.82812 -91.0029 -17.4951s-50.666 -28 -69.999 -49s-34.166 -46.333 -44.499 -76s-15.5 -62.5 -15.5 -98.5s5.16699 -68.833 15.5 -98.5s24.833 -55.167 43.5 -76.5s40.5 -37.833 65.5 -49.5s52.167 -17.5 81.5 -17.5
c21.333 0 41.666 3.66699 60.999 11s36.166 16.166 50.499 26.499s25.833 20.833 34.5 31.5s13 19 13 25c0 10.667 -4.66699 16 -14 16c-3.33301 0 -7.33301 -2 -12 -6s-10.5 -8.5 -17.5 -13.5s-15.167 -9.5 -24.5 -13.5s-20.333 -6 -33 -6c-19.333 0 -37.666 5 -54.999 15
s-32.333 23.667 -45 41s-22.667 38.166 -30 62.499s-11 51.166 -11 80.499c0 27.333 3.16699 51.833 9.5 73.5s14.333 40.167 24 55.5s20.334 27.166 32.001 35.499s22.834 12.5 33.501 12.5c6.66699 0 12.167 -1.83301 16.5 -5.5s8.33301 -8.66699 12 -15
s7.33398 -14 11.001 -23s8.16699 -18.833 13.5 -29.5c8.66699 -17.333 16.5 -30.5 23.5 -39.5s14.833 -13.5 23.5 -13.5c10.667 0 19.167 9.16699 25.5 27.5s9.5 41.166 9.5 68.499c0 8.66699 -3.5 17 -10.5 25s-16.667 15 -29 21s-26.833 10.833 -43.5 14.5
s-34.334 5.5 -53.001 5.5z" />
    <glyph glyph-name="d" unicode="d" horiz-adv-x="497" 
d="M429 613c0 9.33301 0.333008 18.6631 1 27.9961s1 18.666 1 27.999c0 17.333 -5 26 -15 26c-6 0 -17.667 -5.16699 -35 -15.5s-43.666 -19.5 -78.999 -27.5c-16.667 -3.33301 -29.5 -6.5 -38.5 -9.5s-13.5 -9.83301 -13.5 -20.5c0 -6 1.5 -10.167 4.5 -12.5
s6.83301 -4.16602 11.5 -5.49902s9.5 -2.83301 14.5 -4.5s9.5 -4.83398 13.5 -9.50098c5.33301 -5.33301 8.5 -13.166 9.5 -23.499s1.5 -23.833 1.5 -40.5v-70c0 -10.667 -2.33301 -16 -7 -16c-2.66699 0 -4.66699 0.333008 -6 1l-13 6c-8 3.33301 -17 6.83301 -27 10.5
s-23.333 5.5 -40 5.5c-28 0 -53.667 -5.83301 -77 -17.5s-43.333 -28.167 -60 -49.5s-29.667 -47.166 -39 -77.499s-14 -64.166 -14 -101.499c0 -36 4 -68.5 12 -97.5s19.333 -53.667 34 -74s32.167 -36.166 52.5 -47.499s42.833 -17 67.5 -17c23.333 0 43.833 5 61.5 15
s37.167 23 58.5 39h3l4 -30c1.33301 -8 3.16602 -14.167 5.49902 -18.5s7.16602 -6.5 14.499 -6.5c5.33301 0 17 4.33301 35 13s45.333 17 82 25c8 2 14.333 3.5 19 4.5s8.33398 2.83301 11.001 5.5s4.5 6.83398 5.5 12.501s1.5 13.5 1.5 23.5c0 14.667 -4 22 -12 22
c-3.33301 0 -6.5 -1.33301 -9.5 -4s-6 -5.5 -9 -8.5s-6 -5.66699 -9 -8s-5.83301 -3.5 -8.5 -3.5c-8 0 -12 8.66699 -12 26v525zM305 342.997l0.000976562 -181c0 -35.333 -3.33301 -62.333 -10 -81s-22.334 -28 -47.001 -28c-28 0 -51.333 15.667 -70 47
s-28 76.666 -28 135.999c0 60.667 9.16699 106.834 27.5 138.501s41.5 47.5 69.5 47.5c21.333 0 36.333 -6.66699 45 -20s13 -33 13 -59z" />
    <glyph glyph-name="e" unicode="e" horiz-adv-x="432" 
d="M222 312h-52c-7.33301 0 -11 2.33301 -11 7v2l2 17c3.33301 29.333 12.5 51.5 27.5 66.5s32.167 22.5 51.5 22.5c16.667 0 30.5 -6 41.5 -18s16.5 -28 16.5 -48c0 -18.667 -6.33301 -31.5 -19 -38.5s-31.667 -10.5 -57 -10.5zM372 272
c12.667 0 21.835 2.16797 27.502 6.50098s8.5 12.166 8.5 23.499c0 21.333 -3.83301 41.666 -11.5 60.999s-18.834 36.5 -33.501 51.5s-32.334 26.833 -53.001 35.5s-44 13 -70 13c-32.667 0 -62.334 -5.83301 -89.001 -17.5s-49.5 -28 -68.5 -49s-33.833 -46.333 -44.5 -76
s-16 -62.5 -16 -98.5c0 -35.333 5.16699 -67.833 15.5 -97.5s24.666 -55.167 42.999 -76.5s40.333 -37.833 66 -49.5s53.5 -17.5 83.5 -17.5c26 0 49.833 4.33301 71.5 13s40.334 18.667 56.001 30s27.834 22.833 36.501 34.5s13 20.5 13 26.5
c0 5.33301 -1.5 9.66602 -4.5 12.999s-6.5 5 -10.5 5c-4.66699 0 -9.66699 -2.66699 -15 -8s-12 -11.166 -20 -17.499s-17.5 -12.166 -28.5 -17.499s-24.5 -8 -40.5 -8c-19.333 0 -37.333 4.16699 -54 12.5s-31 20.166 -43 35.499s-21.333 33.833 -28 55.5
s-10 45.834 -10 72.501v26c0 12 5.33301 18 16 18h203z" />
    <glyph glyph-name="f" unicode="f" horiz-adv-x="278" 
d="M192 498c0 100.667 13 151.002 39 151.002c4.66699 0 10 -3.33301 16 -10s11.667 -17 17 -31c7.33301 -17.333 13.166 -31.833 17.499 -43.5s10.833 -17.5 19.5 -17.5c4.66699 0 10 3.33301 16 10s11.833 15.167 17.5 25.5s10.334 21.5 14.001 33.5s5.5 23.333 5.5 34
c0 11.333 -8.5 21.666 -25.5 30.999s-40.5 14 -70.5 14c-24 0 -46.5 -4.16699 -67.5 -12.5s-39.5 -20.333 -55.5 -36s-29.333 -35 -40 -58s-17.334 -49.167 -20.001 -78.5l-4 -40c-0.666992 -6 -2.16699 -9.66699 -4.5 -11l-10.5 -6l-23 -12
c-7.33301 -3.33301 -13 -6.66602 -17 -9.99902s-6 -8 -6 -14c0 -4 1.66699 -7.83301 5 -11.5s7.66602 -5.5 12.999 -5.5h28c8 0 12 -4.66699 12 -14v-291c0 -16 -1.16699 -27.833 -3.5 -35.5s-8.16602 -13.834 -17.499 -18.501c-4 -2 -8.5 -3.16699 -13.5 -3.5
s-9.5 -1 -13.5 -2s-7.33301 -2.66699 -10 -5s-4 -6.83301 -4 -13.5c0 -5.33301 1.33301 -9.66602 4 -12.999s6.33398 -5 11.001 -5c5.33301 0 17 1.16699 35 3.5s42.667 3.5 74 3.5c35.333 0 62.666 -1.33301 81.999 -4s31.333 -4 36 -4c12 0 18 6.33301 18 19
c0 7.33301 -1.83301 12.166 -5.5 14.499s-8.16699 3.83301 -13.5 4.5s-11.166 1.16699 -17.499 1.5s-12.5 2.16602 -18.5 5.49902c-7.33301 4 -12.333 10 -15 18s-4 19.333 -4 34v287c0 9.33301 4 14 12 14h72c6 0 9 4.33301 9 13v22c0 5.33301 -0.5 8.83301 -1.5 10.5
s-3.83301 2.5 -8.5 2.5h-71c-8 0 -12 4.66699 -12 14v40z" />
    <glyph glyph-name="g" unicode="g" horiz-adv-x="443" 
d="M216 431c19.333 0 35.5 -11 48.5 -33s19.5 -53.333 19.5 -94s-6.5 -72.167 -19.5 -94.5s-29.167 -33.5 -48.5 -33.5c-20 0 -36.5 11.333 -49.5 34s-19.5 54 -19.5 94s6.5 71.167 19.5 93.5s29.5 33.5 49.5 33.5zM374 424c-2 0 -3.83105 -0.168945 -5.49805 -0.501953
s-3.5 -0.5 -5.5 -0.5c-9.33301 0 -16.333 1.33301 -21 4s-9.66699 5.33398 -15 8.00098c-17.333 9.33301 -34.333 16.5 -51 21.5s-38.334 7.5 -65.001 7.5c-26 0 -49.833 -4.33301 -71.5 -13s-40.334 -20.5 -56.001 -35.5s-27.834 -32.5 -36.501 -52.5s-13 -41.333 -13 -64
c0 -31.333 5.83301 -56.5 17.5 -75.5s28.834 -36.833 51.501 -53.5l15 -11c5.33301 -4 8 -7 8 -9c0 -1.33301 -3.66699 -3.66602 -11 -6.99902l-40 -19l-25.5 -13c-6.33301 -3.33301 -9.5 -8.66602 -9.5 -15.999c0 -12.667 14.667 -34.334 44 -65.001l16 -17
c3.33301 -3.33301 5 -6.66602 5 -9.99902c0 -2.66699 -4 -6.33398 -12 -11.001l-36 -26c-14 -10 -25 -19.833 -33 -29.5s-12 -22.167 -12 -37.5s4.33301 -30.166 13 -44.499s21 -27 37 -38s35.333 -19.833 58 -26.5s48 -10 76 -10c34.667 0 66.5 5 95.5 15s54 23.333 75 40
s37.167 35.834 48.5 57.501s17 43.834 17 66.501c0 24.667 -4.33301 45 -13 61s-21.334 28.833 -38.001 38.5s-37.167 16.667 -61.5 21s-52.166 7.16602 -83.499 8.49902c-25.333 1.33301 -44.5 3.66602 -57.5 6.99902s-19.5 9.66602 -19.5 18.999
c0 6.66699 2.33301 12.167 7 16.5s11.667 6.5 21 6.5c4 0 8 -0.166992 12 -0.5s7.66699 -0.5 11 -0.5c58 0 103.667 14.5 137 43.5s50 67.167 50 114.5c0 24.667 -6 49.667 -18 75c12 2 22.333 3 31 3c1.33301 0 3.33301 -0.166992 6 -0.5s6 -0.5 10 -0.5
c8.66699 0 13 2.66699 13 8c0 22 -1.83301 35.667 -5.5 41s-11.167 8 -22.5 8c-2 0 -3.83301 -0.166992 -5.5 -0.5s-3.16699 -0.5 -4.5 -0.5zM336.002 -97.002c0 -23.333 -10.5 -43.666 -31.5 -60.999s-49.5 -26 -85.5 -26c-36.667 0 -65.667 9.83301 -87 29.5
s-32 45.167 -32 76.5c0 17.333 3.66699 32.5 11 45.5s13 19.5 17 19.5c2 0 4.83301 -1.33301 8.5 -4s8.5 -5.66699 14.5 -9s13.167 -6.5 21.5 -9.5s17.833 -4.5 28.5 -4.5c20 -0.666992 38.167 -1.33398 54.5 -2.00098s30.5 -2.66699 42.5 -6s21.333 -8.83301 28 -16.5
s10 -18.5 10 -32.5z" />
    <glyph glyph-name="h" unicode="h" horiz-adv-x="506" 
d="M192 613c0 12 0.329102 22.9941 0.996094 32.9941s1 18.667 1 26c0 15.333 -5.33301 23 -16 23c-3.33301 0 -7.66602 -1.5 -12.999 -4.5s-12.5 -6.83301 -21.5 -11.5s-20 -9.33398 -33 -14.001s-28.167 -9 -45.5 -13c-17.333 -3.33301 -30.5 -6.33301 -39.5 -9
s-13.5 -9.66699 -13.5 -21c0 -5.33301 1.33301 -9.16602 4 -11.499s5.83398 -4.16602 9.50098 -5.49902s7.83398 -2.5 12.501 -3.5s9 -2.83301 13 -5.5c6.66699 -4.66699 11.167 -10.667 13.5 -18s3.5 -17 3.5 -29v-454c0 -16 -1.16699 -27.833 -3.5 -35.5
s-8.16602 -13.834 -17.499 -18.501c-4.66699 -2 -9.33398 -3.16699 -14.001 -3.5s-9 -1 -13 -2s-7.33301 -2.66699 -10 -5s-4 -6.83301 -4 -13.5c0 -5.33301 1.33301 -9.66602 4 -12.999s6.33398 -5 11.001 -5c5.33301 0 17 1.16699 35 3.5s42.667 3.5 74 3.5
c30 0 53.167 -1.16699 69.5 -3.5s26.5 -3.5 30.5 -3.5c6 0 9 6 9 18c0 6.66699 -1.16699 11.334 -3.5 14.001s-5.16602 4.33398 -8.49902 5.00098s-7 1.33398 -11 2.00098s-8 2.33398 -12 5.00098c-5.33301 4.66699 -8.66602 11 -9.99902 19s-2 19 -2 33v188
c0 36.667 4.16699 65.667 12.5 87s26.166 32 53.499 32c38.667 0 58 -37.333 58 -112v-195c0 -16.667 -1 -28.834 -3 -36.501s-7.33301 -13.5 -16 -17.5c-4 -2 -8.33301 -3 -13 -3c-4 0 -7.83301 -0.5 -11.5 -1.5s-6.66699 -2.83301 -9 -5.5s-3.5 -7.33398 -3.5 -14.001
c0 -12 5 -18 15 -18c3.33301 0 14.833 1.16699 34.5 3.5s47.5 3.5 83.5 3.5c25.333 0 45.5 -1.16699 60.5 -3.5s25.167 -3.5 30.5 -3.5c12 0 18 6 18 18c0 6.66699 -1.5 11.334 -4.5 14.001s-6.83301 4.5 -11.5 5.5s-9.66699 1.66699 -15 2s-10.333 1.83301 -15 4.5
c-7.33301 4.66699 -11.833 10.834 -13.5 18.501s-2.5 18.834 -2.5 33.501v217c0 100.667 -43.333 151 -130 151c-15.333 0 -30.5 -2.66699 -45.5 -8s-28.167 -12 -39.5 -20l-21 -15c-4.66699 -3.33301 -7.33398 -5 -8.00098 -5c-2.66699 0 -4 3 -4 9v189z" />
    <glyph glyph-name="i" unicode="i" horiz-adv-x="257" 
d="M133 651c-18.667 0 -35.167 -7 -49.5 -21s-21.5 -32.333 -21.5 -55c0 -22 7 -40.167 21 -54.5s30.667 -21.5 50 -21.5s36 7.16699 50 21.5s21 32.5 21 54.5c0 22.667 -7 41 -21 55s-30.667 21 -50 21zM192 435c0 18.667 -3.33203 28.001 -9.99902 28.001
c-2.66699 0 -6.33398 -2 -11.001 -6l-18 -15.5c-7.33301 -6.33301 -16.833 -13.333 -28.5 -21s-25.834 -15.5 -42.501 -23.5c-11.333 -5.33301 -21.166 -9 -29.499 -11s-15.5 -4 -21.5 -6s-10.5 -4.5 -13.5 -7.5s-4.5 -7.5 -4.5 -13.5
c0 -5.33301 1.33301 -9.16602 4 -11.499s6 -3.83301 10 -4.5s8.5 -1.33398 13.5 -2.00098s9.5 -2.33398 13.5 -5.00098c7.33301 -4.66699 11.5 -10.667 12.5 -18s1.5 -18 1.5 -32v-191c0 -16 -1 -27.833 -3 -35.5s-7.66699 -13.834 -17 -18.501
c-4 -2 -8.5 -3.16699 -13.5 -3.5s-9.5 -1 -13.5 -2s-7.33301 -2.83301 -10 -5.5s-4 -7 -4 -13c0 -12 4.66699 -18 14 -18c3.33301 0 15.5 1.16699 36.5 3.5s50.833 3.5 89.5 3.5c25.333 0 45.333 -1.33301 60 -4s25.334 -4 32.001 -4c12 0 18 6.33301 18 19
c0 6.66699 -1.5 11.334 -4.5 14.001s-6.83301 4.33398 -11.5 5.00098s-9.83398 1.16699 -15.501 1.5s-11.167 2.16602 -16.5 5.49902c-7.33301 4 -12 10 -14 18s-3 19.333 -3 34v340z" />
    <glyph glyph-name="j" unicode="j" horiz-adv-x="257" 
d="M133 651c-18.667 0 -35.167 -7 -49.5 -21s-21.5 -32.333 -21.5 -55c0 -22 7 -40.167 21 -54.5s30.667 -21.5 50 -21.5s36 7.16699 50 21.5s21 32.5 21 54.5c0 22.667 -7 41 -21 55s-30.667 21 -50 21zM192 425c0 12 -0.333984 21.3311 -1.00098 27.998s-3.66699 10 -9 10
c-2.66699 0 -6.33398 -2 -11.001 -6l-18 -15.5c-7.33301 -6.33301 -16.666 -13.333 -27.999 -21s-25.333 -15.5 -42 -23.5c-11.333 -5.33301 -21.333 -9 -30 -11s-16 -4 -22 -6s-10.5 -4.5 -13.5 -7.5s-4.5 -7.5 -4.5 -13.5c0 -5.33301 1.33301 -9.16602 4 -11.499
s6 -3.83301 10 -4.5s8.5 -1.33398 13.5 -2.00098s9.5 -2.33398 13.5 -5.00098c7.33301 -4.66699 11.5 -10.667 12.5 -18s1.5 -18 1.5 -32v-343c0 -25.333 -2.5 -47.166 -7.5 -65.499s-13.833 -33.5 -26.5 -45.5c-8 -7.33301 -16 -13.333 -24 -18s-12 -11 -12 -19
c0 -6 1 -10 3 -12s5.66699 -3 11 -3c12.667 0 27.834 4.33301 45.501 13s36.5 22.334 56.5 41.001c16 14.667 29.167 29.334 39.5 44.001s18.333 30 24 46s9.5 33 11.5 51s3 38 3 60v390z" />
    <glyph glyph-name="k" unicode="k" horiz-adv-x="502" 
d="M192 613c0 12 0.328125 23.0029 0.995117 33.0029s1 18.667 1 26c0 15.333 -5 23 -15 23c-3.33301 0 -7.66602 -1.5 -12.999 -4.5s-12.5 -6.66699 -21.5 -11s-20 -9 -33 -14s-28.5 -9.5 -46.5 -13.5c-16.667 -3.33301 -29.5 -6.5 -38.5 -9.5s-13.5 -9.83301 -13.5 -20.5
c0 -8 2.83301 -12.833 8.5 -14.5s12 -3.83398 19 -6.50098s13.333 -7.5 19 -14.5s8.5 -19.5 8.5 -37.5v-454c0 -16 -1.16699 -27.833 -3.5 -35.5s-8.16602 -13.834 -17.499 -18.501c-4 -2 -8.5 -3.16699 -13.5 -3.5s-9.5 -1 -13.5 -2s-7.33301 -2.66699 -10 -5
s-4 -6.83301 -4 -13.5c0 -5.33301 1.33301 -9.66602 4 -12.999s6.33398 -5 11.001 -5s16 1.16699 34 3.5s43 3.5 75 3.5c30.667 0 54.834 -1.16699 72.501 -3.5s29.167 -3.5 34.5 -3.5c6.66699 0 10 6 10 18c0 6.66699 -1.33301 11.334 -4 14.001s-6 4.33398 -10 5.00098
s-8.33301 1.16699 -13 1.5s-9 2.16602 -13 5.49902c-6 4 -10 10.167 -12 18.5s-3 19.5 -3 33.5v113c0.666992 8.66699 4.33398 13 11.001 13c1.33301 0 4.5 -1.83301 9.5 -5.5s9.16699 -8.16699 12.5 -13.5l71 -114c14 -21.333 21 -35.666 21 -42.999
c0 -4 -1.83301 -8.5 -5.5 -13.5s-5.5 -11.5 -5.5 -19.5c0 -11.333 7.33301 -17 22 -17c6.66699 0 16.667 1.16699 30 3.5s30.666 3.5 51.999 3.5c23.333 0 42.166 -0.833008 56.499 -2.5s23.833 -2.5 28.5 -2.5c7.33301 0 12.666 1.16699 15.999 3.5s5 7.16602 5 14.499
c0 6.66699 -1.66699 11.167 -5 13.5s-8 4.83301 -14 7.5s-13.167 7 -21.5 13s-17.166 16.667 -26.499 32l-135 214c-2 2.66699 -3 5.66699 -3 9c0 5.33301 1.66699 9.66602 5 12.999l34 33c19.333 19.333 37 32.666 53 39.999s29.833 12.5 41.5 15.5s20.667 5.5 27 7.5
s9.5 7.33301 9.5 16c0 10.667 -5.66699 16 -17 16c-7.33301 0 -18.666 -1 -33.999 -3s-33.666 -3 -54.999 -3c-19.333 0 -36.333 0.833008 -51 2.5s-27 2.5 -37 2.5c-6 0 -10.5 -0.833008 -13.5 -2.5s-4.5 -5.83398 -4.5 -12.501s2.5 -11.167 7.5 -13.5s10.667 -4.5 17 -6.5
s12 -4.16699 17 -6.5s7.5 -6.83301 7.5 -13.5c0 -10.667 -14.667 -29.667 -44 -57l-69 -64c-4 -4 -6.66699 -6 -8 -6c-3.33301 0 -5 3 -5 9v342z" />
    <glyph glyph-name="l" unicode="l" horiz-adv-x="257" 
d="M190 613c0 12 0.333984 23.001 1.00098 33.001s1 18.667 1 26c0 15.333 -5 23 -15 23c-3.33301 0 -7.83301 -1.5 -13.5 -4.5l-22 -11.5c-9 -4.66699 -19.833 -9.33398 -32.5 -14.001s-27.667 -9 -45 -13c-17.333 -3.33301 -30.5 -6.33301 -39.5 -9
s-13.5 -9.66699 -13.5 -21c0 -8 2.83301 -12.833 8.5 -14.5s12 -3.83398 19 -6.50098s13.333 -7.5 19 -14.5s8.5 -19.5 8.5 -37.5v-454c0 -16 -1 -27.833 -3 -35.5s-7.66699 -13.834 -17 -18.501c-4 -2 -8.5 -3.16699 -13.5 -3.5s-9.5 -1 -13.5 -2s-7.33301 -2.66699 -10 -5
s-4 -6.83301 -4 -13.5c0 -5.33301 1.16699 -9.66602 3.5 -12.999s5.83301 -5 10.5 -5s16 1.16699 34 3.5s43 3.5 75 3.5c34 0 60 -1.33301 78 -4s28.667 -4 32 -4c11.333 0 17 6.33301 17 19c0 6.66699 -1.5 11.334 -4.5 14.001s-6.83301 4.33398 -11.5 5.00098
s-9.83398 1.16699 -15.501 1.5s-11.167 2.16602 -16.5 5.49902c-7.33301 4 -12 10 -14 18s-3 19.333 -3 34v518z" />
    <glyph glyph-name="m" unicode="m" horiz-adv-x="753" 
d="M177 452c0 7.33301 -0.500977 13.333 -1.50098 18s-3.83301 7 -8.5 7c-3.33301 0 -7.16602 -2.16699 -11.499 -6.5l-16.5 -16.5c-6.66699 -6.66699 -14.667 -14 -24 -22s-21 -15.333 -35 -22c-10 -4.66699 -19.167 -8 -27.5 -10s-15.5 -4 -21.5 -6
s-10.667 -4.33301 -14 -7s-5 -7.33398 -5 -14.001c0 -6 1.33301 -10 4 -12s6 -3.33301 10 -4s8.5 -1.33398 13.5 -2.00098s9.83301 -2.33398 14.5 -5.00098c7.33301 -4.66699 11.5 -10.667 12.5 -18s1.5 -18 1.5 -32v-205c0 -16 -1.16699 -27.833 -3.5 -35.5
s-8.16602 -13.834 -17.499 -18.501c-4.66699 -2 -9.33398 -3.16699 -14.001 -3.5s-9 -1 -13 -2s-7.33301 -2.83301 -10 -5.5s-4 -7.33398 -4 -14.001c0 -11.333 5 -17 15 -17c5.33301 0 17 1.16699 35 3.5s42.667 3.5 74 3.5c30 0 53.167 -1.16699 69.5 -3.5
s26.5 -3.5 30.5 -3.5c6 0 9 6 9 18c0 6.66699 -1.16699 11.334 -3.5 14.001s-5.16602 4.33398 -8.49902 5.00098s-7 1.33398 -11 2.00098s-8 2.33398 -12 5.00098c-5.33301 4.66699 -8.66602 11 -9.99902 19s-2 19 -2 33v187c0 36.667 4.16699 65.667 12.5 87
s26.166 32 53.499 32c38.667 0 58 -37.333 58 -112v-194c0 -16.667 -1 -28.834 -3 -36.501s-7.33301 -13.5 -16 -17.5c-4 -2 -8.16699 -3.16699 -12.5 -3.5s-8.33301 -1 -12 -2s-6.66699 -2.83301 -9 -5.5s-3.5 -7.33398 -3.5 -14.001c0 -11.333 5 -17 15 -17
c4.66699 0 15.5 1.16699 32.5 3.5s40.5 3.5 70.5 3.5c28.667 0 51.167 -1.16699 67.5 -3.5s26.5 -3.5 30.5 -3.5c7.33301 0 11 5.66699 11 17c0 6.66699 -1 11.334 -3 14.001s-4.5 4.5 -7.5 5.5s-6.33301 1.66699 -10 2s-7.16699 1.5 -10.5 3.5
c-7.33301 4 -11.833 9.83301 -13.5 17.5s-2.5 19.167 -2.5 34.5v189c0 36.667 4.16699 65.667 12.5 87s26.166 32 53.499 32c38.667 0 58 -37.333 58 -112v-194c0 -16.667 -1 -28.834 -3 -36.501s-7.33301 -13.5 -16 -17.5c-4 -2 -8.16699 -3.16699 -12.5 -3.5
s-8.33301 -1 -12 -2s-6.66699 -2.83301 -9 -5.5s-3.5 -7.33398 -3.5 -14.001c0 -11.333 5 -17 15 -17c3.33301 0 15 1.16699 35 3.5s49 3.5 87 3.5c23.333 0 42 -1.33301 56 -4s24 -4 30 -4c12.667 0 19 6 19 18c0 6.66699 -1.5 11.334 -4.5 14.001s-6.83301 4.5 -11.5 5.5
s-9.66699 1.83301 -15 2.5s-10.333 2.33398 -15 5.00098c-7.33301 4.66699 -11.833 10.834 -13.5 18.501s-2.5 18.834 -2.5 33.501v220c0 98 -43.333 147 -130 147c-23.333 0 -46.333 -5.83301 -69 -17.5s-42.667 -28.167 -60 -49.5h-4c-26 44.667 -64.333 67 -115 67
c-42 0 -77.667 -15 -107 -45l-14 -14c-4 -4 -6.66699 -6 -8 -6c-2.66699 0 -4 3 -4 9v46z" />
    <glyph glyph-name="n" unicode="n" horiz-adv-x="506" 
d="M177 453c0 7.33301 -0.50293 13.335 -1.50293 18.002s-3.83301 7 -8.5 7c-4 0 -8 -2.16699 -12 -6.5l-15.5 -16c-6.33301 -6.33301 -14.166 -13.5 -23.499 -21.5s-21 -15.333 -35 -22c-10 -5.33301 -19.333 -9 -28 -11s-16 -4 -22 -6s-10.667 -4.33301 -14 -7
s-5 -7.33398 -5 -14.001c0 -6 1.33301 -10 4 -12s6 -3.5 10 -4.5s8.5 -1.83301 13.5 -2.5s9.83301 -2.33398 14.5 -5.00098c7.33301 -4.66699 11.5 -10.667 12.5 -18s1.5 -18 1.5 -32v-205c0 -16 -1.16699 -27.833 -3.5 -35.5s-8.16602 -13.834 -17.499 -18.501
c-4.66699 -2 -9.33398 -3.16699 -14.001 -3.5s-9 -1 -13 -2s-7.33301 -2.66699 -10 -5s-4 -6.83301 -4 -13.5c0 -5.33301 1.33301 -9.66602 4 -12.999s6.33398 -5 11.001 -5s16 1.16699 34 3.5s43 3.5 75 3.5c28.667 0 50.834 -1 66.501 -3s25.167 -3 28.5 -3
c9.33301 0 14 5.66699 14 17c0 6.66699 -1.16699 11.334 -3.5 14.001s-5.16602 4.5 -8.49902 5.5s-7 1.66699 -11 2s-8 1.83301 -12 4.5c-5.33301 4.66699 -8.66602 11 -9.99902 19s-2 19 -2 33v188c0 36.667 4.16699 65.667 12.5 87s26.166 32 53.499 32
c38.667 0 58 -37.333 58 -112v-195c0 -16.667 -1 -28.834 -3 -36.501s-7.33301 -13.5 -16 -17.5c-4 -2 -8.33301 -3 -13 -3c-4 0 -7.83301 -0.5 -11.5 -1.5s-6.66699 -2.83301 -9 -5.5s-3.5 -7.33398 -3.5 -14.001c0 -12 5 -18 15 -18c5.33301 0 16.333 1.16699 33 3.5
s40 3.5 70 3.5c33.333 0 59.166 -1.16699 77.499 -3.5s29.5 -3.5 33.5 -3.5c3.33301 0 6.33301 1.66699 9 5s4 7.66602 4 12.999c0 6.66699 -1.5 11.334 -4.5 14.001s-6.83301 4.5 -11.5 5.5s-9.66699 1.66699 -15 2s-10.333 1.83301 -15 4.5
c-7.33301 4 -11.833 10 -13.5 18s-2.5 19.333 -2.5 34v227c0 46 -11 81 -33 105s-54.333 36 -97 36c-20 0 -40.5 -4.66699 -61.5 -14s-38.5 -21.666 -52.5 -36.999l-9 -9c-2 -2 -4 -3 -6 -3c-2.66699 0 -4 4 -4 12v41z" />
    <glyph glyph-name="o" unicode="o" horiz-adv-x="483" 
d="M240 463c-32 0 -61.498 -5.83301 -88.498 -17.5s-50 -28 -69 -49s-33.833 -46.333 -44.5 -76s-16 -62.5 -16 -98.5c0 -35.333 5 -67.833 15 -97.5s24.333 -55.167 43 -76.5s40.834 -37.833 66.501 -49.5s54.5 -17.5 86.5 -17.5c35.333 0 67.166 5.66699 95.499 17
s52.333 27.5 72 48.5s34.667 46.167 45 75.5s15.5 62 15.5 98s-5 69 -15 99s-24.333 55.667 -43 77s-41.834 37.833 -69.501 49.5s-58.834 17.5 -93.501 17.5zM235.002 426c28 0 51.166 -20 69.499 -60s27.5 -96.333 27.5 -169c0 -58 -7.66699 -102.333 -23 -133
s-35.666 -46 -60.999 -46c-28 0 -51.333 19.833 -70 59.5s-28 96.5 -28 170.5c0 58 7.83301 102.167 23.5 132.5s36.167 45.5 61.5 45.5z" />
    <glyph glyph-name="p" unicode="p" horiz-adv-x="497" 
d="M190 453c0 16.667 -3.6709 25.0029 -11.0039 25.0029c-4 0 -8 -2.33301 -12 -7s-9.33301 -10.334 -16 -17.001s-15 -13.834 -25 -21.501s-23 -14.834 -39 -21.501c-11.333 -4.66699 -21.666 -8 -30.999 -10s-17.166 -3.83301 -23.499 -5.5s-11.333 -4 -15 -7
s-5.5 -7.83301 -5.5 -14.5c0 -7.33301 2.83301 -11.833 8.5 -13.5l19 -5.5c7 -2 13.5 -5.16699 19.5 -9.5s9 -12.833 9 -25.5v-445c0 -16.667 -1.33301 -28.834 -4 -36.501s-8.66699 -13.5 -18 -17.5c-4.66699 -2 -9.5 -3.16699 -14.5 -3.5s-9.66699 -1 -14 -2
s-7.83301 -2.66699 -10.5 -5s-4 -6.83301 -4 -13.5c0 -5.33301 1.33301 -9.66602 4 -12.999s5.66699 -5 9 -5c6 0 18.5 1.16699 37.5 3.5s44.5 3.5 76.5 3.5s57.5 -1.16699 76.5 -3.5s31.5 -3.5 37.5 -3.5c3.33301 0 6.5 1.66699 9.5 5s4.5 7.66602 4.5 12.999
c0 6.66699 -1.5 11.334 -4.5 14.001s-7 4.5 -12 5.5s-10.333 1.66699 -16 2s-11.167 2.16602 -16.5 5.49902c-7.33301 4 -12 9.66699 -14 17s-3 18.666 -3 33.999v128l3 3c16.667 -9.33301 32.667 -15.833 48 -19.5s31.666 -5.5 48.999 -5.5
c24.667 0 48.167 5.83301 70.5 17.5s41.833 28 58.5 49s29.834 46.5 39.501 76.5s14.5 63.333 14.5 100s-4.16699 69.834 -12.5 99.501s-19.666 54.834 -33.999 75.501s-31.166 36.5 -50.499 47.5s-40.333 16.5 -63 16.5c-39.333 0 -74 -16.667 -104 -50l-10 -11
c-2 -2 -4 -3 -6 -3c-3.33301 0 -5 4 -5 12v42zM191.996 95.0029l0.000976562 188.001c0 35.333 3.16699 62.166 9.5 80.499s22.166 27.5 47.499 27.5c27.333 0 50.5 -15.5 69.5 -46.5s28.5 -74.833 28.5 -131.5c0 -62.667 -9.16699 -110.167 -27.5 -142.5
s-41.5 -48.5 -69.5 -48.5c-38.667 0 -58 24.333 -58 73z" />
    <glyph glyph-name="q" unicode="q" horiz-adv-x="487" 
d="M431 324c0 33.333 1.50098 60.833 4.50098 82.5s4.5 37.834 4.5 48.501c0 12 -4.33301 18 -13 18c-4.66699 0 -9 -2.66699 -13 -8s-7.83301 -11.166 -11.5 -17.499s-7.66699 -12.166 -12 -17.499s-9.16602 -8 -14.499 -8c-6 0 -13.167 2.16699 -21.5 6.5s-18 9 -29 14
s-23.667 9.66699 -38 14s-29.833 6.5 -46.5 6.5c-30 0 -58.333 -6.16699 -85 -18.5s-49.834 -29.833 -69.501 -52.5s-35.334 -49.834 -47.001 -81.501s-17.5 -66.5 -17.5 -104.5c0 -34 4.66699 -64.833 14 -92.5s22 -51.334 38 -71.001s34.667 -34.834 56 -45.501
s44 -16 68 -16c28.667 0 63.667 10.667 105 32l4 -3v-135c0 -17.333 -1.33301 -29.666 -4 -36.999s-8.66699 -13 -18 -17c-4.66699 -2 -9.5 -3.16699 -14.5 -3.5s-9.66699 -1 -14 -2s-7.83301 -2.66699 -10.5 -5s-4 -6.83301 -4 -13.5
c0 -5.33301 1.33301 -9.66602 4 -12.999s5.66699 -5 9 -5c6 0 18.5 1.16699 37.5 3.5s44.5 3.5 76.5 3.5s57.5 -1.16699 76.5 -3.5s31.5 -3.5 37.5 -3.5c3.33301 0 6.5 1.66699 9.5 5s4.5 7.66602 4.5 12.999c0 6.66699 -1.66699 11.334 -5 14.001s-7.33301 4.5 -12 5.5
s-10 1.66699 -16 2s-11.333 2.16602 -16 5.49902c-7.33301 4 -12 9.66699 -14 17s-3 18.666 -3 33.999v449zM307.001 309l-0.00292969 -193c0 -25.333 -3.66699 -44.5 -11 -57.5s-21.666 -19.5 -42.999 -19.5c-14 0 -27.167 4.33301 -39.5 13s-23 21.167 -32 37.5
s-16.167 36 -21.5 59s-8 48.5 -8 76.5c0 32 2.83301 60.333 8.5 85s13.334 45.5 23.001 62.5s20.667 30 33 39s25.5 13.5 39.5 13.5c20.667 0 34.334 -9.83301 41.001 -29.5s10 -48.5 10 -86.5z" />
    <glyph glyph-name="r" unicode="r" horiz-adv-x="348" 
d="M188 453c0 7.33301 -0.670898 13.334 -2.00391 18.001s-5.66602 7 -12.999 7c-4.66699 0 -9.5 -2.16699 -14.5 -6.5s-11 -9.83301 -18 -16.5s-15.333 -13.667 -25 -21s-21.5 -14.333 -35.5 -21c-10 -4.66699 -19.167 -8.16699 -27.5 -10.5s-15.5 -4.5 -21.5 -6.5
s-10.667 -4.66699 -14 -8s-5 -8 -5 -14c0 -9.33301 3.33301 -14.333 10 -15s15 -2.33398 25 -5.00098c8 -2.66699 13.333 -6.83398 16 -12.501s4 -13.167 4 -22.5c0 -4.66699 0.166992 -8.66699 0.5 -12s0.5 -6.66602 0.5 -9.99902v-202c0 -16 -1.16699 -27.833 -3.5 -35.5
s-8.16602 -13.834 -17.499 -18.501c-4.66699 -2 -9.33398 -3.16699 -14.001 -3.5s-9 -1 -13 -2s-7.33301 -2.66699 -10 -5s-4 -6.83301 -4 -13.5c0 -5.33301 1.33301 -9.66602 4 -12.999s6.33398 -5 11.001 -5s16 1.16699 34 3.5s43 3.5 75 3.5s57.333 -1.16699 76 -3.5
s30.667 -3.5 36 -3.5c7.33301 0 11 6 11 18c0 7.33301 -1.5 12.166 -4.5 14.499s-6.66699 3.83301 -11 4.5s-9.16602 1.16699 -14.499 1.5s-10.333 2.16602 -15 5.49902c-7.33301 4.66699 -11.833 10.834 -13.5 18.501s-2.5 18.834 -2.5 33.501v215
c0 33.333 6.66699 50 20 50c4.66699 0 9.16699 -3 13.5 -9l14.5 -19.5c5.33301 -7 11.833 -13.5 19.5 -19.5s17.5 -9 29.5 -9c18 0 33 6.83301 45 20.5s18 33.167 18 58.5c0 22.667 -6.66699 41 -20 55s-30.666 21 -51.999 21c-26 0 -50 -14 -72 -42l-9 -12
c-3.33301 -4 -6 -6 -8 -6s-3 3.33301 -3 10v45z" />
    <glyph glyph-name="s" unicode="s" horiz-adv-x="363" 
d="M194 463c-51.333 0 -91.6631 -13.668 -120.996 -41.001s-44 -63 -44 -107c0 -23.333 3.83301 -42.5 11.5 -57.5s18 -28 31 -39s28.167 -20.833 45.5 -29.5l55 -28c12.667 -6 23.667 -11.667 33 -17s17 -11 23 -17s10.333 -12.667 13 -20s4 -16.333 4 -27
c0 -17.333 -7 -32.333 -21 -45s-31.667 -19 -53 -19c-36.667 0 -65.334 20 -86.001 60c-5.33301 10 -9.5 19.333 -12.5 28s-5.83301 16.167 -8.5 22.5s-5.5 11.333 -8.5 15s-7.16699 5.5 -12.5 5.5c-7.33301 0 -12.333 -7.83301 -15 -23.5s-4 -41.5 -4 -77.5
c0 -19.333 11.833 -35 35.5 -47s54.834 -18 93.501 -18c28 0 53.333 4.33301 76 13s42.167 20.5 58.5 35.5s28.833 33 37.5 54s13 44.167 13 69.5c0 19.333 -2.5 36.5 -7.5 51.5s-12.167 28.167 -21.5 39.5s-21 21.666 -35 30.999s-30.333 18 -49 26l-39 17
c-12 5.33301 -22.167 10.833 -30.5 16.5s-15 11.834 -20 18.501s-7.5 15 -7.5 25c0 14.667 5.66699 26.834 17 36.501s26.666 14.5 45.999 14.5c16 0 29.167 -4.66699 39.5 -14s19.166 -19.666 26.499 -30.999l19.5 -31c5.66699 -9.33301 12.167 -14 19.5 -14
c11.333 0 17 8 17 24c0 4.66699 0.166992 11 0.5 19s0.5 17.667 0.5 29c0 10 -1 17.333 -3 22s-7.66699 8.66699 -17 12c-12.667 5.33301 -27.834 9.66602 -45.501 12.999s-35.834 5 -54.501 5z" />
    <glyph glyph-name="t" unicode="t" horiz-adv-x="294" 
d="M190 542c0 8.66699 -0.830078 15.3359 -2.49707 20.0029s-6.16699 7 -13.5 7c-5.33301 0 -10.333 -2.16699 -15 -6.5s-9.83398 -10.333 -15.501 -18l-19 -25.5c-7 -9.33301 -15.167 -19 -24.5 -29c-11.333 -12 -22.333 -21.667 -33 -29s-20 -13.5 -28 -18.5
s-14.5 -9.83301 -19.5 -14.5s-7.5 -10 -7.5 -16c0 -10.667 7.66699 -16 23 -16h18c6.66699 0 10.667 -2.83301 12 -8.5s2 -13.167 2 -22.5l-4 -215v-37c0 -44.667 6.66699 -77.834 20 -99.501s37 -32.5 71 -32.5c16 0 31.667 3 47 9s29 13.333 41 22s21.667 17.667 29 27
s11 17.333 11 24c0 4 -2 8.16699 -6 12.5s-7.66699 6.5 -11 6.5c-2.66699 0 -5.83398 -1.33301 -9.50098 -4l-12.5 -9c-4.66699 -3.33301 -9.5 -6.33301 -14.5 -9s-9.83301 -4 -14.5 -4c-10.667 0 -17.834 8 -21.501 24s-5.5 41 -5.5 75v18l3 206
c0 9.33301 3.66699 14 11 14h64c6.66699 0 10.667 1.66699 12 5s2 8.66602 2 15.999v15c0 5.33301 -0.666992 9.16602 -2 11.499s-5.33301 3.5 -12 3.5h-64c-7.33301 0 -11 4.66699 -11 14v84z" />
    <glyph glyph-name="u" unicode="u" horiz-adv-x="506" 
d="M188 402v19c0 10.667 -0.666992 17.667 -2 21s-5.66602 5 -12.999 5c-3.33301 0 -11.5 -0.833008 -24.5 -2.5s-31.167 -2.5 -54.5 -2.5c-17.333 0 -31.333 0.5 -42 1.5s-18.667 1.5 -24 1.5c-6 0 -10.333 -1.16699 -13 -3.5s-4 -7.16602 -4 -14.499
c0 -6.66699 1.33301 -11.334 4 -14.001s6 -4.5 10 -5.5s8.16699 -1.66699 12.5 -2s8.5 -1.83301 12.5 -4.5c6.66699 -4.66699 10.667 -10.834 12 -18.501s2 -18.834 2 -33.501v-171c0 -29.333 1.16699 -56.166 3.5 -80.499s8 -45.166 17 -62.499
s22.167 -30.666 39.5 -39.999s41 -14 71 -14c23.333 0 46.333 5.83301 69 17.5s42.667 28.5 60 50.5l5 -1l4 -39c1.33301 -8.66699 3.16602 -15 5.49902 -19s6.5 -6 12.5 -6c2.66699 0 10.334 3.5 23.001 10.5s35.667 14.833 69 23.5c16.667 4 28.667 7.5 36 10.5
s11 9.16699 11 18.5c0 5.33301 -1.33301 9 -4 11s-6 3.5 -10 4.5s-8.33301 1.83301 -13 2.5s-9 2.33398 -13 5.00098c-6 4 -9.66699 9.16699 -11 15.5s-2 14.5 -2 24.5v303c0 14 -0.833008 23.167 -2.5 27.5s-6.16699 6.5 -13.5 6.5c-3.33301 0 -11.5 -0.833008 -24.5 -2.5
s-31.833 -2.5 -56.5 -2.5c-22 0 -39 0.666992 -51 2s-19.333 2 -22 2c-5.33301 0 -9.33301 -1.16699 -12 -3.5s-4 -7.16602 -4 -14.499s1.5 -12.333 4.5 -15s6.83301 -4.33398 11.5 -5.00098s9.66699 -1.33398 15 -2.00098s10.333 -2.33398 15 -5.00098
c7.33301 -4.66699 11.666 -11 12.999 -19s2 -19 2 -33v-187c0 -37.333 -4.16699 -66.5 -12.5 -87.5s-25.833 -31.5 -52.5 -31.5c-39.333 0 -59 37 -59 111v248z" />
    <glyph glyph-name="v" unicode="v" horiz-adv-x="407" 
d="M344 305c8 22.667 15.9961 42.333 23.9961 59s17.667 29 29 37c3.33301 2 6.83301 3.5 10.5 4.5l10.5 3c3.33301 1 6 3 8 6s3 7.5 3 13.5c0 7.33301 -1.33301 11.666 -4 12.999s-7 2 -13 2c-5.33301 0 -13.666 -0.5 -24.999 -1.5s-25.666 -1.5 -42.999 -1.5
c-19.333 0 -34.166 0.666992 -44.499 2s-17.166 2 -20.499 2c-7.33301 0 -12.5 -1 -15.5 -3s-4.5 -7 -4.5 -15s2.83301 -13.333 8.5 -16s12 -4.83398 19 -6.50098s13.333 -4.5 19 -8.5s8.5 -11.667 8.5 -23c0 -4.66699 -0.833008 -12.5 -2.5 -23.5s-4.5 -22.167 -8.5 -33.5
l-49 -150c-2 -6.66699 -4 -10 -6 -10c-2.66699 0 -5 3 -7 9l-50 158c-5.33301 18 -9.83301 32.167 -13.5 42.5s-5.5 17.5 -5.5 21.5c0 8 2.33301 13 7 15s9.66699 3.5 15 4.5s10.333 2.83301 15 5.5s7 8.33398 7 17.001c0 6.66699 -1.33301 10.834 -4 12.501s-7 2.5 -13 2.5
c-3.33301 0 -13.166 -0.666992 -29.499 -2s-40.5 -2 -72.5 -2c-30.667 0 -54.334 0.833008 -71.001 2.5s-26.667 2.5 -30 2.5c-12 0 -18 -5.66699 -18 -17c0 -6 1.16699 -10.333 3.5 -13s5.33301 -4.66699 9 -6s7.66699 -2.33301 12 -3s8.5 -2 12.5 -4
c10 -5.33301 17.667 -13.833 23 -25.5s11.333 -26.167 18 -43.5l118 -323c3.33301 -8.66699 7 -14.667 11 -18s10.333 -5 19 -5c16 0 26.667 7.33301 32 22z" />
    <glyph glyph-name="w" unicode="w" horiz-adv-x="629" 
d="M265 371l18 -49c1.33301 -3.33301 2.33301 -6.83301 3 -10.5s1 -7.16699 1 -10.5v-11c0 -3.33301 -0.666992 -6.66602 -2 -9.99902l-36 -106c-3.33301 -9.33301 -6.33301 -14 -9 -14s-5.66699 4.66699 -9 14l-47 148l-14 44c-3.33301 10.667 -5 17.667 -5 21
c0 9.33301 3.5 15.166 10.5 17.499s18.5 3.5 34.5 3.5c14 0 25.333 -2.83301 34 -8.5s15.667 -15.167 21 -28.5zM562 305c8 22.667 16.0029 42.334 24.0029 59.001s17.667 29 29 37c3.33301 2 6.83301 3.5 10.5 4.5l10.5 3c3.33301 1 6.16602 3 8.49902 6s3.5 7.5 3.5 13.5
c0 7.33301 -1.5 11.666 -4.5 12.999s-7.5 2 -13.5 2c-5.33301 0 -13.5 -0.5 -24.5 -1.5s-25.167 -1.5 -42.5 -1.5c-19.333 0 -34.333 0.666992 -45 2s-17.667 2 -21 2c-7.33301 0 -12.333 -1 -15 -3s-4 -7 -4 -15s2.83301 -13.333 8.5 -16s11.834 -4.83398 18.501 -6.50098
s12.834 -4.5 18.501 -8.5s8.5 -11.667 8.5 -23c0 -5.33301 -0.5 -11.666 -1.5 -18.999s-2.5 -14 -4.5 -20l-52 -161c-3.33301 -10.667 -6 -16 -8 -16s-4.33301 5 -7 15l-50 151c-12 36 -18 57.333 -18 64c0 8 2.33301 13 7 15s9.66699 3.5 15 4.5s10.333 2.66699 15 5
s7 7.5 7 15.5c0 7.33301 -1.33301 12 -4 14s-7.33398 3 -14.001 3c-5.33301 0 -33 -0.666992 -83 -2s-124.667 -2 -224 -2c-35.333 0 -62.333 0.833008 -81 2.5s-29.667 2.5 -33 2.5c-12 0 -18 -5.66699 -18 -17c0 -6 1.16699 -10.333 3.5 -13s5.33301 -4.66699 9 -6
s7.66699 -2.33301 12 -3s8.5 -2 12.5 -4c10 -5.33301 17.667 -13.833 23 -25.5s11.333 -26.167 18 -43.5l118 -323c6 -15.333 14.667 -23 26 -23c6.66699 0 11.5 1.83301 14.5 5.5s5.83301 9.16699 8.5 16.5l81 229c2.66699 8 4.66699 12 6 12s3.66602 -4.33301 6.99902 -13
l86 -227c3.33301 -8 6.66602 -13.833 9.99902 -17.5s9 -5.5 17 -5.5c7.33301 0 12.666 1.83301 15.999 5.5s6.33301 9.16699 9 16.5z" />
    <glyph glyph-name="x" unicode="x" horiz-adv-x="444" 
d="M215 362c-8.66699 14.667 -13.001 24.334 -13.001 29.001c0 4 1.66699 7.16699 5 9.5l10.5 7c3.66699 2.33301 7.16699 5 10.5 8s5 7.16699 5 12.5c0 11.333 -6 17 -18 17c-3.33301 0 -11.166 -1 -23.499 -3s-29.833 -3 -52.5 -3c-40 0 -69 0.833008 -87 2.5
s-28.333 2.5 -31 2.5c-10.667 0 -16 -6 -16 -18c0 -4 1.66699 -7.16699 5 -9.5s8.33301 -6.5 15 -12.5s15 -14.833 25 -26.5s22 -28.5 36 -50.5l68 -109c2 -3.33301 3 -6.66602 3 -9.99902c0 -5.33301 -0.666992 -9 -2 -11l-42 -66l-17 -28
c-5.33301 -8.66699 -11 -16.5 -17 -23.5s-12.667 -13.5 -20 -19.5s-16.333 -11.333 -27 -16c-8 -4 -15.167 -6.66699 -21.5 -8s-11.5 -2.66602 -15.5 -3.99902s-7 -3.33301 -9 -6s-3 -7 -3 -13c0 -8.66699 4.66699 -13 14 -13c2.66699 0 10.334 0.5 23.001 1.5
s30.667 1.5 54 1.5s41 -0.5 53 -1.5s19.333 -1.5 22 -1.5c6 0 10.333 1 13 3s4 6.33301 4 13s-2.16699 11 -6.5 13s-9 3.66699 -14 5s-9.66699 3.66602 -14 6.99902s-6.5 10 -6.5 20c0 3.33301 1.16699 9 3.5 17s5.5 15.667 9.5 23l37 64l5 7
c2.66699 0 5.33398 -2.33301 8.00098 -7l34 -56c9.33301 -14.667 15.833 -27 19.5 -37s5.5 -16.333 5.5 -19c0 -6.66699 -2.33301 -11 -7 -13s-9.66699 -3.5 -15 -4.5s-10.333 -2.5 -15 -4.5s-7 -6.33301 -7 -13c0 -7.33301 2 -12.166 6 -14.499s9.66699 -3.5 17 -3.5
c8 0 21.333 0.833008 40 2.5s42.667 2.5 72 2.5s52.166 -0.833008 68.499 -2.5s26.833 -2.5 31.5 -2.5c11.333 0 17 4.33301 17 13c0 7.33301 -1.66699 12 -5 14s-7.66602 4.16699 -12.999 6.5s-11.833 6 -19.5 11s-15.5 14.167 -23.5 27.5l-105 169
c-2.66699 3.33301 -4 7 -4 11c0 2.66699 2 7 6 13l33 52c29.333 48 54.666 77 75.999 87c6 2.66699 12 4.16699 18 4.5s11.167 0.833008 15.5 1.5s7.83301 2.16699 10.5 4.5s4 6.83301 4 13.5c0 10.667 -5.66699 16 -17 16c-4 0 -12 -0.333008 -24 -1s-28.333 -1 -49 -1
c-19.333 0 -34.5 0.333008 -45.5 1s-18.167 1 -21.5 1c-10.667 0 -16 -5.66699 -16 -17c0 -6.66699 2 -11.167 6 -13.5s8.5 -4.33301 13.5 -6s9.66699 -3.83398 14 -6.50098s6.5 -7.33398 6.5 -14.001c0 -2 -1 -5.83301 -3 -11.5s-4.66699 -11.834 -8 -18.501l-34 -61
c-2.66699 -5.33301 -5.33398 -8 -8.00098 -8c-2 0 -4.66699 2.66699 -8 8z" />
    <glyph glyph-name="y" unicode="y" horiz-adv-x="432" 
d="M379 342c14 34.667 30.6689 55.6592 50.002 62.9922c2.66699 0.666992 5.66699 1.33398 9 2.00098s6.33301 1.66699 9 3s4.83398 3.33301 6.50098 6s2.5 6.66699 2.5 12c0 6.66699 -1.16699 10.834 -3.5 12.501s-6.16602 2.5 -11.499 2.5
c-6.66699 0 -16.334 -0.5 -29.001 -1.5s-28.334 -1.5 -47.001 -1.5c-20 0 -35.833 0.833008 -47.5 2.5s-19.5 2.5 -23.5 2.5c-6 0 -10.333 -1.16699 -13 -3.5s-4 -7.16602 -4 -14.499c0 -8.66699 3.16699 -14.167 9.5 -16.5s13.5 -4.5 21.5 -6.5s15.167 -5 21.5 -9
s9.5 -11.667 9.5 -23c0 -5.33301 -0.833008 -12.833 -2.5 -22.5s-5.16699 -21.167 -10.5 -34.5l-56 -158c-2 -6 -4.33301 -9 -7 -9s-5 2.33301 -7 7l-70 194c-7.33301 20.667 -11 33 -11 37c0 8 2.66699 13.167 8 15.5s11.333 4 18 5s12.667 2.66699 18 5s8 7.83301 8 16.5
c0 6.66699 -1.83301 10.834 -5.5 12.501s-8.83398 2.5 -15.501 2.5c-3.33301 0 -15 -0.666992 -35 -2s-48.333 -2 -85 -2c-26 0 -46.333 0.833008 -61 2.5s-24.334 2.5 -29.001 2.5c-12 0 -18 -5.66699 -18 -17c0 -8 2.5 -13 7.5 -15s11 -4.16699 18 -6.5
s14.167 -6.16602 21.5 -11.499s13.666 -14.666 18.999 -27.999l133 -338c4.66699 -11.333 8.33398 -21.833 11.001 -31.5s4 -18.834 4 -27.501c0 -7.33301 -1.16699 -15.166 -3.5 -23.499s-5.66602 -15.833 -9.99902 -22.5s-9.83301 -12.167 -16.5 -16.5s-14 -6.5 -22 -6.5
c-4.66699 0 -9.66699 0.166992 -15 0.5s-11 0.5 -17 0.5c-17.333 0 -29 -5 -35 -15s-9 -25.667 -9 -47c0 -22.667 3.66699 -38.167 11 -46.5s22.666 -12.5 45.999 -12.5c18.667 0 32.5 2.33301 41.5 7s16.5 14 22.5 28c2 4.66699 8.33301 25.334 19 62.001
s30 91.334 58 164.001z" />
    <glyph glyph-name="z" unicode="z" horiz-adv-x="401" 
d="M166 442c-24 0 -42.1689 1 -54.502 3s-20.166 6.33301 -23.499 13c-2 4.66699 -3.33301 10.5 -4 17.5s-4.66699 10.5 -12 10.5c-6.66699 0 -11.667 -4 -15 -12s-7.66602 -19 -12.999 -33c-16.667 -49.333 -25 -79.333 -25 -90c0 -11.333 4.66699 -17 14 -17
c6.66699 0 13.334 4.83301 20.001 14.5s16.667 20.167 30 31.5s25.5 18.333 36.5 21s23.167 4 36.5 4h46c7.33301 0 11 -1.66699 11 -5c0 -1.33301 -1 -4 -3 -8l-183 -338l-9 -16c-2.66699 -4.66699 -4 -10.334 -4 -17.001c0 -16 9.66699 -24 29 -24
c7.33301 0 19.666 1 36.999 3s40.333 3 69 3c62.667 0 111.167 -1.16699 145.5 -3.5s54.833 -3.5 61.5 -3.5c9.33301 0 15 1.5 17 4.5s3 7.16699 3 12.5c0 3.33301 -0.166992 7 -0.5 11s-0.5 8.66699 -0.5 14c0 10.667 0.5 22.334 1.5 35.001s1.5 26.334 1.5 41.001
c0 21.333 -5.33301 32 -16 32c-6 0 -10.5 -2.66699 -13.5 -8s-5.66699 -12 -8 -20s-5 -16.333 -8 -25s-7.5 -16.334 -13.5 -23.001c-10 -10.667 -23.333 -18.167 -40 -22.5s-36.667 -6.5 -60 -6.5h-29c-8 0 -12 1.66699 -12 5c0 1.33301 2 6 6 14l180 332l9 16.5
c2.66699 5 4 10.5 4 16.5c0 14.667 -8.33301 22 -25 22c-6 0 -16.167 -0.833008 -30.5 -2.5s-32.833 -2.5 -55.5 -2.5h-100z" />
    <glyph glyph-name="braceleft" unicode="{" 
d="M415 712v28.0068c-38 0 -69.5 -2.83301 -94.5 -8.5s-45 -15 -60 -28s-25.5 -30.333 -31.5 -52s-9 -48.5 -9 -80.5v-98c0 -25.333 -1.83301 -46.833 -5.5 -64.5s-10.5 -32 -20.5 -43s-23.667 -19.5 -41 -25.5s-39.333 -10.333 -66 -13v-33c26.667 -2 48.5 -6 65.5 -12
s30.5 -14.833 40.5 -26.5s17 -26.167 21 -43.5s6 -38.666 6 -63.999v-98c0 -32 3 -58.667 9 -80s16.333 -38.666 31 -51.999s34.167 -22.833 58.5 -28.5s54.833 -8.5 91.5 -8.5h5v28c-22.667 0 -41.167 2.33301 -55.5 7s-25.5 12 -33.5 22s-13.333 23.167 -16 39.5
s-4 36.166 -4 59.499v67c0 31.333 -1.5 58.666 -4.5 81.999s-9 43.166 -18 59.499s-22 29.666 -39 39.999s-39.5 18.5 -67.5 24.5c28 6 50.5 14.167 67.5 24.5s30 23.666 39 39.999s15 36.166 18 59.499s4.5 50.666 4.5 81.999v67c0 23.333 1.33301 43.166 4 59.499
s8 29.666 16 39.999s19.167 17.833 33.5 22.5s32.833 7 55.5 7z" />
    <glyph glyph-name="bar" unicode="|" 
d="M294 764h-87v-1000h87v1000z" />
    <glyph glyph-name="braceright" unicode="}" 
d="M281 571c0 32 -3 58.6641 -9 79.9971s-16.333 38.666 -31 51.999s-34.334 22.833 -59.001 28.5s-55.334 8.5 -92.001 8.5h-5v-28c22.667 0 41.167 -2.33301 55.5 -7s25.5 -12.167 33.5 -22.5s13.333 -23.666 16 -39.999s4 -36.166 4 -59.499v-67
c0 -31.333 1.33301 -58.5 4 -81.5s8.5 -42.833 17.5 -59.5s22 -30.167 39 -40.5s39.833 -18.5 68.5 -24.5c-28.667 -6 -51.5 -14.167 -68.5 -24.5s-30 -23.666 -39 -39.999s-14.833 -36.166 -17.5 -59.499s-4 -50.666 -4 -81.999v-67c0 -23.333 -1.33301 -43.166 -4 -59.499
s-8 -29.5 -16 -39.5s-19.167 -17.333 -33.5 -22s-32.833 -7 -55.5 -7v-28h5c36.667 0 67.334 2.83301 92.001 8.5s44.334 15.167 59.001 28.5s25 30.666 31 51.999s9 48 9 80v98c0 25.333 1.83301 46.666 5.5 63.999s10.5 31.833 20.5 43.5s23.667 20.5 41 26.5
s39.333 10 66 12v33c-26.667 2.66699 -48.667 7 -66 13s-31 14.5 -41 25.5s-16.833 25.333 -20.5 43s-5.5 39.167 -5.5 64.5v98z" />
    <glyph glyph-name="asciitilde" unicode="~" horiz-adv-x="833" 
d="M747 293l-0.000976562 90.001c-34 -24.667 -66 -43.334 -96 -56.001s-59.667 -19 -89 -19c-24.667 0 -48.5 3.83301 -71.5 11.5l-71.5 24.5c-20.667 7.33301 -42.5 14 -65.5 20s-48.833 9 -77.5 9c-57.333 0 -120.333 -23.333 -189 -70v-91
c36 25.333 69 44.666 99 57.999s59.667 20 89 20c32 0 63.5 -5.33301 94.5 -16l98.5 -33c32.667 -11.333 63.667 -17 93 -17c30 0 60.333 5.83301 91 17.5s62.334 28.834 95.001 51.501z" />
    <glyph glyph-name="exclamdown" unicode="&#xa1;" horiz-adv-x="259" 
d="M130 637c-17.333 0 -32.5 -6.66699 -45.5 -20s-19.5 -30 -19.5 -50s6.33301 -36.833 19 -50.5s28 -20.5 46 -20.5s33.167 6.83301 45.5 20.5s18.5 30.5 18.5 50.5s-6.16699 36.667 -18.5 50s-27.5 20 -45.5 20zM150 434c-2 16.667 -8.66797 24.998 -20.001 24.998
s-18 -8.33301 -20 -25l-39 -267c-2.66699 -17.333 -5.5 -34.166 -8.5 -50.499s-4.5 -32.166 -4.5 -47.499c0 -25.333 6.33301 -44.833 19 -58.5s30.334 -20.5 53.001 -20.5c22 0 39.333 6.83301 52 20.5s19 32.5 19 56.5c0 16.667 -1.33301 33.167 -4 49.5l-8 50.5z" />
    <glyph glyph-name="cent" unicode="&#xa2;" horiz-adv-x="470" 
d="M225 630v-117c-44 -7.33301 -78.667 -27.166 -104 -59.499s-38 -73.5 -38 -123.5c0 -52.667 12.667 -95.834 38 -129.501s60 -54.167 104 -61.5v-139h37v140c15.333 2.66699 29.5 7.16699 42.5 13.5s24.167 13.166 33.5 20.499s16.5 14.333 21.5 21s7.5 12 7.5 16
c0 8.66699 -4.33301 13 -13 13c-2 0 -4.5 -1.66699 -7.5 -5s-7 -7.16602 -12 -11.499s-11.167 -8.16602 -18.5 -11.499s-16.333 -5 -27 -5h-12c-4.66699 0 -9.66699 0.666992 -15 2v292c7.33301 -2.66699 13.5 -9.16699 18.5 -19.5l15 -32.5
c5 -11.333 10.5 -21.5 16.5 -30.5s13.333 -13.5 22 -13.5c8 0 14.5 7.16699 19.5 21.5s7.5 31.833 7.5 52.5c0 25.333 -33 42.666 -99 51.999v115h-37zM225 475v-255.998c-17.333 19.333 -30 39.166 -38 59.499s-12 43.5 -12 69.5c0 53.333 16.667 95.666 50 126.999z" />
    <glyph glyph-name="sterling" unicode="&#xa3;" horiz-adv-x="470" 
d="M267 345c-48.667 81.333 -72.9932 142.668 -72.9932 184.001c0 23.333 4.83301 41.833 14.5 55.5s21.167 20.5 34.5 20.5s23.5 -6.16699 30.5 -18.5s15.167 -29.166 24.5 -50.499c7.33301 -16 13.166 -28.167 17.499 -36.5s10.166 -12.5 17.499 -12.5
c4.66699 0 9.16699 2.5 13.5 7.5s8.33301 11.667 12 20s6.5 17.666 8.5 27.999s3 21.166 3 32.499c0 9.33301 -3.33301 18.333 -10 27s-15.334 16.167 -26.001 22.5s-22.834 11.333 -36.501 15s-27.5 5.5 -41.5 5.5c-24 0 -46.333 -4.66699 -67 -14
s-38.334 -22.333 -53.001 -39s-26.167 -36.667 -34.5 -60s-12.5 -48.666 -12.5 -75.999c0 -20 2.33301 -38.833 7 -56.5s12 -35.834 22 -54.501h-56c-9.33301 -17.333 -14 -34 -14 -50h93c14.667 -28 26.667 -52.167 36 -72.5s14 -39.5 14 -57.5v-3
c-37.333 12 -63 18 -77 18c-34 0 -61.333 -9.83301 -82 -29.5s-31 -44.167 -31 -73.5c0 -26 7.5 -47.167 22.5 -63.5s35.5 -24.5 61.5 -24.5c22 0 42.833 6.83301 62.5 20.5s41.167 32.5 64.5 56.5c22 -25.333 41.5 -44.666 58.5 -57.999s35.5 -20 55.5 -20
c13.333 0 27.5 5 42.5 15s28.667 23.333 41 40s22.5 35.834 30.5 57.501s12 44.167 12 67.5c0 30 -5.83301 54.167 -17.5 72.5s-25.834 27.5 -42.501 27.5c-14 0 -25.167 -5.5 -33.5 -16.5s-12.5 -25.167 -12.5 -42.5c0 -16.667 3.33301 -29.167 10 -37.5
s14 -14.833 22 -19.5s15.333 -8.66699 22 -12s10 -8.33301 10 -15c0 -7.33301 -3 -13.833 -9 -19.5s-14.333 -8.5 -25 -8.5c-20.667 0 -57.334 14 -110.001 42c9.33301 17.333 16.5 33.5 21.5 48.5s7.5 30.167 7.5 45.5c0 9.33301 -0.833008 19.166 -2.5 29.499
s-4.16699 21.166 -7.5 32.499h65c3.33301 8 5.83301 15.167 7.5 21.5s2.5 11.5 2.5 15.5v5c0 2 -0.333008 4.66699 -1 8h-92zM179.007 98.002c-14 -36 -30.332 -53.999 -48.999 -53.999c-8.66699 0 -16 4 -22 12s-9 18.667 -9 32s3.16699 24.166 9.5 32.499
s14.166 12.5 23.499 12.5c15.333 0 31 -11.667 47 -35z" />
    <glyph glyph-name="currency" unicode="&#xa4;" horiz-adv-x="606" 
d="M181 599l-99.001 99l-45 -45l99 -100c-26 -35.333 -39 -75.666 -39 -120.999c0 -46 13 -86.333 39 -121l-99 -100l45 -45l99 100c35.333 -26.667 76.333 -40 123 -40c44.667 0 85.334 13.333 122.001 40l99 -100l46 45l-100 100c26 34.667 39 75 39 121
c0 45.333 -13 85.666 -39 120.999l100 100l-46 45l-99 -99c-35.333 26.667 -76.333 40 -123 40c-46 0 -86.667 -13.333 -122 -40zM445.999 432c0 -19.333 -3.66504 -37.666 -10.998 -54.999s-17.5 -32.333 -30.5 -45s-28 -22.667 -45 -30s-35.5 -11 -55.5 -11
s-38.5 3.66699 -55.5 11s-32 17.333 -45 30s-23.167 27.667 -30.5 45s-11 35.666 -11 54.999s3.66699 37.5 11 54.5s17.5 32 30.5 45s28.167 23.333 45.5 31s35.666 11.5 54.999 11.5s37.666 -3.83301 54.999 -11.5s32.5 -18 45.5 -31s23.167 -28 30.5 -45
s11 -35.167 11 -54.5z" />
    <glyph glyph-name="yen" unicode="&#xa5;" horiz-adv-x="511" 
d="M202 539c-5.33301 10.667 -8.00098 18.6689 -8.00098 24.002c0 7.33301 2.33301 12.166 7 14.499s10 4.5 16 6.5s11.333 4.66699 16 8s7 9.66602 7 18.999c0 12.667 -6.66699 19 -20 19c-6 0 -17.667 -1.16699 -35 -3.5s-41 -3.5 -71 -3.5
c-32 0 -56.167 1.16699 -72.5 3.5s-26.166 3.5 -29.499 3.5c-10.667 0 -16 -6.66699 -16 -20c0 -8 1.83301 -13.167 5.5 -15.5s8.66699 -5.16602 15 -8.49902s13.666 -8.83301 21.999 -16.5s17.166 -20.834 26.499 -39.501l52 -104h-111v-49h140l28 -61h-168v-49h198v-180
c0 -16.667 -2.33301 -28.167 -7 -34.5s-13 -10.833 -25 -13.5c-10 -2 -17 -4 -21 -6s-6 -6.66699 -6 -14c0 -14.667 5.66699 -22 17 -22c5.33301 0 15.833 1.33301 31.5 4s37.5 4 65.5 4c30.667 0 54.334 -1.33301 71.001 -4s27.334 -4 32.001 -4c11.333 0 17 7.66699 17 23
c0 8 -2.33301 12.667 -7 14s-12.334 3 -23.001 5c-11.333 2 -19.166 6.66699 -23.499 14s-6.5 18.333 -6.5 33v181h187v49h-167l29 61h138v49h-108l30 63c12 24.667 23.833 44.667 35.5 60s20.5 24.666 26.5 27.999s11.333 5.83301 16 7.5s8.66699 3.33398 12 5.00098
s5.83301 4 7.5 7s2.5 7.16699 2.5 12.5c0 13.333 -7.33301 20 -22 20c-6 0 -14 -0.833008 -24 -2.5s-22 -2.5 -36 -2.5s-27 0.833008 -39 2.5s-23 2.5 -33 2.5c-16.667 0 -25 -6.66699 -25 -20c0 -8.66699 3 -14.5 9 -17.5s12.667 -5.66699 20 -8s14 -5.66602 20 -9.99902
s9 -11.833 9 -22.5c0 -12.667 -5.33301 -30.334 -16 -53.001l-74 -145c-4 -8 -8 -12 -12 -12s-8 4 -12 12z" />
    <glyph glyph-name="brokenbar" unicode="&#xa6;" 
d="M294 699h-87v-370h87v370zM294 199h-87v-370h87v370z" />
    <glyph glyph-name="section" unicode="&#xa7;" horiz-adv-x="400" 
d="M226 422c-25.333 26.667 -45.167 50.0107 -59.5 70.0107s-21.5 42.333 -21.5 67c0 17.333 5.5 32.166 16.5 44.499s25.5 18.5 43.5 18.5c13.333 0 24.166 -3.5 32.499 -10.5s12.5 -14.5 12.5 -22.5c0 -4 -1.33301 -7.83301 -4 -11.5s-5.5 -7.83398 -8.5 -12.501
s-5.83301 -9.83398 -8.5 -15.501s-4 -12.167 -4 -19.5c0 -15.333 4.83301 -27.833 14.5 -37.5s21.167 -14.5 34.5 -14.5c15.333 0 27.333 5.66699 36 17s13 27.333 13 48c0 31.333 -11 56.666 -33 75.999s-50 29 -84 29c-41.333 0 -73.5 -11.5 -96.5 -34.5
s-34.5 -54.167 -34.5 -93.5c0 -25.333 6.33301 -49.333 19 -72s30.667 -46.667 54 -72c-16 -0.666992 -30.833 -4.33398 -44.5 -11.001s-25.5 -15.334 -35.5 -26.001s-17.833 -23.334 -23.5 -38.001s-8.5 -30.334 -8.5 -47.001c0 -25.333 5.83301 -49.333 17.5 -72
s28.834 -46 51.501 -70l70 -76c23.333 -24.667 42.333 -46.5 57 -65.5s22 -39.167 22 -60.5c0 -20.667 -6.16699 -37.334 -18.5 -50.001s-29.166 -19 -50.499 -19c-15.333 0 -27.333 3.16699 -36 9.5s-13 13.166 -13 20.499c0 4 1.33301 7.66699 4 11
s5.5 7.16602 8.5 11.499s5.83301 9.33301 8.5 15s4 12.834 4 21.501c0 16.667 -4.33301 30.167 -13 40.5s-19.334 15.5 -32.001 15.5c-15.333 0 -28 -6.16699 -38 -18.5s-15 -28.5 -15 -48.5c0 -30.667 11.167 -55.834 33.5 -75.501s51.5 -29.5 87.5 -29.5
c44 0 78.667 11.833 104 35.5s38 53.5 38 89.5c0 24.667 -6.16699 48.667 -18.5 72s-30.833 47.666 -55.5 72.999c34 3.33301 61.167 15.833 81.5 37.5s30.5 49.834 30.5 84.501c0 48 -22.667 95.667 -68 143zM152.999 350.011c13.333 0 26.666 -5.83105 39.999 -17.498
s29.333 -27.834 48 -48.501c38.667 -42.667 58 -79.334 58 -110.001c0 -18 -5.33301 -32.833 -16 -44.5s-23.334 -17.5 -38.001 -17.5c-11.333 0 -23.666 6.16699 -36.999 18.5s-30.666 30.166 -51.999 53.499c-18 19.333 -31.667 37.333 -41 54s-14 33.334 -14 50.001
c0 17.333 5.16699 32 15.5 44s22.5 18 36.5 18z" />
    <glyph glyph-name="dieresis" unicode="&#xa8;" 
d="M333 656c-15.333 0 -29 -6 -41 -18s-18 -25.667 -18 -41c0 -16.667 5.66699 -30.667 17 -42s25.333 -17 42 -17c17.333 0 31.333 5.5 42 16.5s16 25.167 16 42.5c0 16 -5.66699 29.833 -17 41.5s-25 17.5 -41 17.5zM167 656c-15.333 0 -29 -6 -41 -18
s-18 -25.667 -18 -41c0 -16.667 5.66699 -30.667 17 -42s25.333 -17 42 -17c17.333 0 31.333 5.5 42 16.5s16 25.167 16 42.5c0 16 -5.66699 29.833 -17 41.5s-25 17.5 -41 17.5z" />
    <glyph glyph-name="copyright" unicode="&#xa9;" horiz-adv-x="822" 
d="M412 684c-47.333 0 -92.5 -8.99805 -135.5 -26.998s-81.167 -43.667 -114.5 -77c-34 -34 -59.667 -72.333 -77 -115s-26 -87.334 -26 -134.001c0 -48 8.83301 -93 26.5 -135s43.5 -80 77.5 -114s72 -59.5 114 -76.5s86.667 -25.5 134 -25.5c48 0 93 8.5 135 25.5
s79.667 42.5 113 76.5c34 34 59.833 72.5 77.5 115.5s26.5 87.5 26.5 133.5c0 46.667 -9 91.667 -27 135s-43.667 81.666 -77 114.999c-32.667 32.667 -70.5 58 -113.5 76s-87.5 27 -133.5 27zM715 331.002c0 -40 -7.67188 -78.499 -23.0049 -115.499
s-37.666 -70.5 -66.999 -100.5c-28.667 -29.333 -61.167 -51.5 -97.5 -66.5s-75.166 -22.5 -116.499 -22.5c-83.333 0 -154.666 29.667 -213.999 89c-29.333 29.333 -51.666 62.166 -66.999 98.499s-23 75.5 -23 117.5c0 40.667 7.5 79.334 22.5 116.001s37.167 70 66.5 100
c28.667 29.333 61.667 51.666 99 66.999s76.333 23 117 23c40 0 78.5 -7.66699 115.5 -23s69.5 -37 97.5 -65c28.667 -28.667 50.834 -62 66.501 -100s23.5 -77.333 23.5 -118zM568.995 537.003l-20.001 -0.000976562c-2 -11.333 -5.16699 -19.166 -9.5 -23.499
s-11.166 -6.5 -20.499 -6.5c-4 0 -9.16699 1.66699 -15.5 5s-14 7 -23 11s-19.667 7.66699 -32 11s-26.5 5 -42.5 5c-28.667 0 -55.334 -5.33301 -80.001 -16s-46.167 -25.5 -64.5 -44.5s-32.666 -41.5 -42.999 -67.5s-15.5 -54 -15.5 -84
c0 -29.333 5.16699 -56.833 15.5 -82.5s24.666 -48 42.999 -67s40 -33.833 65 -44.5s51.833 -16 80.5 -16c73.333 0 130.333 34.667 171 104l-21 13c-36.667 -56.667 -81.667 -85 -135 -85c-40 0 -70.667 15.667 -92 47s-32 77.333 -32 138c0 120 38.333 180 115 180
c33.333 0 61.333 -11.167 84 -33.5s39.334 -55.5 50.001 -99.5h23z" />
    <glyph glyph-name="ordfeminine" unicode="&#xaa;" horiz-adv-x="316" 
d="M268 530l-0.00195312 30c0 26 -9.66699 46.333 -29 61s-46.333 22 -81 22c-18.667 0 -36.334 -3.16699 -53.001 -9.5s-31.5 -14.166 -44.5 -23.499s-23.333 -19.666 -31 -30.999s-11.5 -22.333 -11.5 -33c0 -14 7.66699 -21 23 -21c29.333 0 51.666 14 66.999 42
l19.5 34.5c5.66699 9.66699 14.167 14.5 25.5 14.5c15.333 0 23 -13.333 23 -40v-45c0 -9.33301 -2.66699 -15 -8 -17l-60 -31c-30.667 -15.333 -53.667 -30.5 -69 -45.5s-23 -35.167 -23 -60.5c0 -20.667 5.5 -37.667 16.5 -51s25.833 -20 44.5 -20
c12.667 0 27.5 4.33301 44.5 13s35.833 22 56.5 40h3c7.33301 -18.667 14.333 -32.167 21 -40.5s16.667 -12.5 30 -12.5c10.667 0 20.834 2.16699 30.501 6.5s18.334 9.5 26.001 15.5s13.834 12.167 18.501 18.5s7 11.5 7 15.5c0 3.33301 -1.16699 6.16602 -3.5 8.49902
s-4.16602 3.5 -5.49902 3.5c-3.33301 0 -6.66602 -1.83301 -9.99902 -5.5s-7.33301 -5.5 -12 -5.5c-6.66699 0 -10.834 3.16699 -12.501 9.5s-2.5 16.166 -2.5 29.499v128zM175.998 477v-53c0 -20 -4 -35 -12 -45s-19 -15 -33 -15c-10.667 0 -19 3.83301 -25 11.5
s-9 17.5 -9 29.5c0 24 15.333 45.667 46 65l21 13c2.66699 2 5 3 7 3c3.33301 0 5 -3 5 -9z" />
    <glyph glyph-name="guillemotleft" unicode="&#xab;" horiz-adv-x="342" 
d="M175 350c2 4 3.33301 7.33301 4 10s1 4.66699 1 6c0 6.66699 -2.66699 10 -8 10c-7.33301 0 -15.666 -7.33301 -24.999 -22s-25.333 -33.667 -48 -57c-21.333 -22 -39 -38.167 -53 -48.5s-21 -19.166 -21 -26.499c0 -4 2.16699 -8.33301 6.5 -13s10.333 -10.167 18 -16.5
l26.5 -22.5c10 -8.66699 20.667 -19.334 32 -32.001c19.333 -22 33.166 -39.167 41.499 -51.5s15.833 -18.5 22.5 -18.5c5.33301 0 8 3.33301 8 10c0 1.33301 -0.333008 3.33301 -1 6s-2 6 -4 10l-57 128zM316 350c2 4 3.16699 7.33105 3.5 9.99805s0.5 4.66699 0.5 6
c0 6.66699 -2.66699 10 -8 10c-7.33301 0 -15.5 -7.16699 -24.5 -21.5s-24.833 -33.5 -47.5 -57.5c-21.333 -22 -39.166 -38.167 -53.499 -48.5s-21.5 -19.166 -21.5 -26.499c0 -4 2.16699 -8.33301 6.5 -13s10.333 -10.167 18 -16.5s16.667 -14.166 27 -23.499
s21.166 -20.333 32.499 -33c19.333 -21.333 33 -38 41 -50s15.333 -18 22 -18c5.33301 0 8 3.33301 8 10c0 1.33301 -0.166992 3.33301 -0.5 6s-1.5 6 -3.5 10l-58 128z" />
    <glyph glyph-name="logicalnot" unicode="&#xac;" horiz-adv-x="833" 
d="M709 421h-585v-81h504v-164h81v245z" />
    <glyph glyph-name="registered" unicode="&#xae;" horiz-adv-x="822" 
d="M412 684c-47.333 0 -92.499 -9.00195 -135.499 -27.002s-81.167 -43.667 -114.5 -77c-33.333 -34 -58.833 -72.333 -76.5 -115s-26.5 -87.334 -26.5 -134.001c0 -96.667 34.667 -179.667 104 -249c33.333 -33.333 70.833 -58.666 112.5 -75.999s84.5 -26 128.5 -26
c100.667 0 183.667 32.333 249 97c35.333 34.667 62.5 73.834 81.5 117.501s28.5 87.834 28.5 132.501c0 48 -8.66699 93.667 -26 137s-42 81.333 -74 114c-32.667 34 -70.834 60.167 -114.501 78.5s-89.167 27.5 -136.5 27.5zM715.001 330.998
c0 -40 -7.6709 -78.4971 -23.0039 -115.497s-37.666 -70.5 -66.999 -100.5c-28.667 -29.333 -61.167 -51.5 -97.5 -66.5s-75.166 -22.5 -116.499 -22.5c-83.333 0 -154.666 29.667 -213.999 89c-29.333 29.333 -51.666 62.166 -66.999 98.499s-23 75.5 -23 117.5
c0 41.333 7.5 80.166 22.5 116.499s37.167 69.5 66.5 99.5c28.667 29.333 61.667 51.666 99 66.999s76.333 23 117 23c40 0 78.5 -7.66699 115.5 -23s69.5 -37 97.5 -65c28 -28.667 50 -62.167 66 -100.5s24 -77.5 24 -117.5zM422.997 535.001l-195.001 -0.00195312v-24
c21.333 -1.33301 35.833 -5.16602 43.5 -11.499s11.5 -18.166 11.5 -35.499v-254c0 -17.333 -3.83301 -29.166 -11.5 -35.499s-22.167 -10.166 -43.5 -11.499v-23h190v23c-20 2 -33.833 6.16699 -41.5 12.5s-11.5 17.833 -11.5 34.5v120h12
c48.667 0 78.334 -23.667 89.001 -71c3.33301 -15.333 4.66602 -32 3.99902 -50s3.66602 -34.667 12.999 -50c12.667 -18.667 34.334 -28 65.001 -28c55.333 0 83 28.333 83 85v11h-24c0 -43.333 -9.66699 -65 -29 -65c-8 0 -13.667 2.16699 -17 6.5
s-5.66602 10.166 -6.99902 17.499s-2.33301 15.666 -3 24.999s-2 18.666 -4 27.999c-6 26.667 -17.5 47.667 -34.5 63s-40.833 27 -71.5 35c48 8.66699 83 20.667 105 36s33 37.333 33 66c0 26.667 -13.5 49.334 -40.5 68.001s-65.5 28 -115.5 28zM364.996 478.999
c0 22 15.332 33 45.999 33c25.333 0 45.333 -7.33301 60 -22s22 -33 22 -55c0 -26.667 -8.66699 -47.167 -26 -61.5s-42.666 -21.5 -75.999 -21.5h-9c-4 0 -9.66699 0.333008 -17 1v126z" />
    <glyph glyph-name="macron" unicode="&#xaf;" 
d="M142 633v-72h216v72h-216z" />
    <glyph glyph-name="macron" unicode="&#x2c9;" 
d="M142 633v-72h216v72h-216z" />
    <glyph glyph-name="degree" unicode="&#xb0;" horiz-adv-x="329" 
d="M165 713c-20 0 -38.833 -3.83301 -56.5 -11.5s-33 -18 -46 -31s-23.167 -28.333 -30.5 -46s-11 -36.5 -11 -56.5s3.66699 -38.833 11 -56.5s17.5 -33 30.5 -46s28.167 -23.167 45.5 -30.5s36 -11 56 -11s38.833 3.83301 56.5 11.5s33 18 46 31s23.333 28.333 31 46
s11.5 36.167 11.5 55.5c0 20 -3.83301 38.833 -11.5 56.5s-18 33 -31 46s-28.167 23.333 -45.5 31s-36 11.5 -56 11.5zM255 569c0 -12 -2.33203 -23.5 -6.99902 -34.5s-11 -20.667 -19 -29s-17.5 -15 -28.5 -20s-22.833 -7.5 -35.5 -7.5
c-25.333 0 -46.833 8.83301 -64.5 26.5s-26.5 39.167 -26.5 64.5s8.83301 46.666 26.5 63.999s39.167 26 64.5 26s46.666 -8.66699 63.999 -26s26 -38.666 26 -63.999z" />
    <glyph glyph-name="plusminus" unicode="&#xb1;" horiz-adv-x="833" 
d="M458 589h-83v-163h-251v-81h251v-163h83v163h251v81h-251v163zM709 89h-585v-82h585v82z" />
    <glyph glyph-name="twosuperior" unicode="&#xb2;" horiz-adv-x="310" 
d="M117 355c8 10 16.833 18.999 26.5 26.999l29.5 23.5l29 23c9.33301 7.66699 18 15.5 26 23.5c26 25.333 39 54.666 39 87.999c0 30.667 -9.83301 55.167 -29.5 73.5s-47.5 27.5 -83.5 27.5c-37.333 0 -68.333 -13 -93 -39c-11.333 -11.333 -19.5 -21.666 -24.5 -30.999
s-7.5 -16 -7.5 -20c0 -6.66699 2.66699 -10 8 -10s9.5 3 12.5 9s9.16699 14.667 18.5 26c16 20 34.667 30 56 30c18 0 32.5 -6.5 43.5 -19.5s16.5 -30.5 16.5 -52.5s-7.33301 -45.167 -22 -69.5s-34.667 -54.166 -60 -89.499l-55 -74c-13.333 -18 -20 -30.667 -20 -38
c0 -4.66699 1.5 -7.66699 4.5 -9s9.16699 -2 18.5 -2h95c25.333 0 46.333 -0.333008 63 -1s29.667 -1 39 -1c8 0 12.667 0.666992 14 2s2.33301 6 3 14l3 80v10c0 8.66699 -3.33301 13 -10 13c-4.66699 0 -7.66699 -2 -9 -6s-2.83301 -8.16699 -4.5 -12.5
s-4.5 -8.5 -8.5 -12.5s-11 -6 -21 -6h-104c-4 0 -6 1.66699 -6 5c0 1.33301 1.33301 3.33301 4 6z" />
    <glyph glyph-name="threesuperior" unicode="&#xb3;" horiz-adv-x="310" 
d="M139 481c70 30 104.997 62.0029 104.997 96.0029c0 20 -8 35.667 -24 47s-39 17 -69 17c-17.333 0 -32.833 -2.5 -46.5 -7.5s-25.334 -11 -35.001 -18s-17 -14.333 -22 -22s-7.5 -14.167 -7.5 -19.5c0 -6 3.33301 -9 10 -9c2.66699 0 5.83398 2.33301 9.50098 7
s8.33398 10 14.001 16s12.334 11.333 20.001 16s16.834 7 27.501 7c13.333 0 23.833 -4.33301 31.5 -13s11.5 -20.334 11.5 -35.001c0 -34.667 -27 -67 -81 -97l-33 -18c-8.66699 -4.66699 -13 -10.334 -13 -17.001c0 -6 3 -9 9 -9c3.33301 0 11 2.66699 23 8s27 8 45 8
c24 0 43.5 -9 58.5 -27s22.5 -42 22.5 -72c0 -16.667 -2.66699 -31.834 -8 -45.501s-11.833 -25.334 -19.5 -35.001s-16 -17.167 -25 -22.5s-17.5 -8 -25.5 -8c-8.66699 0 -14.334 3.33301 -17.001 10s-6 14 -10 22c-7.33301 16.667 -18.666 25 -33.999 25
c-9.33301 0 -17 -3.16699 -23 -9.5s-9 -15.166 -9 -26.499c0 -15.333 5.66699 -27 17 -35s27 -12 47 -12c42.667 0 85 18.333 127 55c41.333 38 62 79.333 62 124c0 30 -9.83301 54.167 -29.5 72.5s-45.5 27.5 -77.5 27.5c-6 0 -16 -1 -30 -3z" />
    <glyph glyph-name="acute" unicode="&#xb4;" 
d="M332 598c12 8 21 15.499 27 22.499s9 16.833 9 29.5c0 14 -3.33301 24.833 -10 32.5s-15 11.5 -25 11.5c-9.33301 0 -17.833 -3.16699 -25.5 -9.5s-16.5 -16.166 -26.5 -29.499l-107 -138h35z" />
    <glyph glyph-name="mu" unicode="&#xb5;" horiz-adv-x="578" 
d="M33 182c-9.33301 -44.667 -19.168 -84.834 -29.501 -120.501l-28 -95.5c-8.33301 -28 -15.166 -52.167 -20.499 -72.5s-8 -36.833 -8 -49.5c0 -15.333 4.16699 -27.333 12.5 -36s20.166 -13 35.499 -13c16.667 0 28.834 6.16699 36.501 18.5s13.834 31 18.501 56
s9.16699 56.5 13.5 94.5s11.166 82.667 20.499 134c3.33301 -36 14.5 -63.333 33.5 -82s44.5 -28 76.5 -28c58.667 0 102 34.333 130 103c0.666992 -34 8.33398 -59.667 23.001 -77s35.667 -26 63 -26c44.667 0 80.334 23.333 107.001 70
c9.33301 16.667 16.333 34.167 21 52.5s7 31.166 7 38.499c0 10 -3.66699 15 -11 15c-4.66699 0 -8.33398 -1.5 -11.001 -4.5s-5.33398 -7 -8.00098 -12s-5.16699 -10.667 -7.5 -17s-5.5 -12.833 -9.5 -19.5c-16.667 -29.333 -37.667 -44 -63 -44
c-13.333 0 -23.666 3.83301 -30.999 11.5s-11 18.5 -11 32.5c0 11.333 1 22 3 32l6 29l55 260h-102l-54 -255c-8 -37.333 -20.333 -64.666 -37 -81.999s-39.334 -26 -68.001 -26c-21.333 0 -38 5.83301 -50 17.5s-18 28.167 -18 49.5c0 14.667 3.33301 37.334 10 68.001
l49 228h-101z" />
    <glyph glyph-name="mu" unicode="&#x3bc;" horiz-adv-x="578" 
d="M33 182c-9.33301 -44.667 -19.168 -84.834 -29.501 -120.501l-28 -95.5c-8.33301 -28 -15.166 -52.167 -20.499 -72.5s-8 -36.833 -8 -49.5c0 -15.333 4.16699 -27.333 12.5 -36s20.166 -13 35.499 -13c16.667 0 28.834 6.16699 36.501 18.5s13.834 31 18.501 56
s9.16699 56.5 13.5 94.5s11.166 82.667 20.499 134c3.33301 -36 14.5 -63.333 33.5 -82s44.5 -28 76.5 -28c58.667 0 102 34.333 130 103c0.666992 -34 8.33398 -59.667 23.001 -77s35.667 -26 63 -26c44.667 0 80.334 23.333 107.001 70
c9.33301 16.667 16.333 34.167 21 52.5s7 31.166 7 38.499c0 10 -3.66699 15 -11 15c-4.66699 0 -8.33398 -1.5 -11.001 -4.5s-5.33398 -7 -8.00098 -12s-5.16699 -10.667 -7.5 -17s-5.5 -12.833 -9.5 -19.5c-16.667 -29.333 -37.667 -44 -63 -44
c-13.333 0 -23.666 3.83301 -30.999 11.5s-11 18.5 -11 32.5c0 11.333 1 22 3 32l6 29l55 260h-102l-54 -255c-8 -37.333 -20.333 -64.666 -37 -81.999s-39.334 -26 -68.001 -26c-21.333 0 -38 5.83301 -50 17.5s-18 28.167 -18 49.5c0 14.667 3.33301 37.334 10 68.001
l49 228h-101z" />
    <glyph glyph-name="paragraph" unicode="&#xb6;" 
d="M473 674l0.00195312 48h-255c-29.333 0 -55.833 -4.16699 -79.5 -12.5s-43.834 -20 -60.501 -35s-29.334 -33 -38.001 -54s-13 -43.833 -13 -68.5c0 -48 16 -87.667 48 -119s76 -48 132 -50v-383h63v674h83v-674h63v674h57z" />
    <glyph glyph-name="periodcentered" unicode="&#xb7;" horiz-adv-x="235" 
d="M118 393c-22 0 -40.667 -7.5 -56 -22.5s-23 -33.5 -23 -55.5s7.66699 -40.667 23 -56s34 -23 56 -23s40.5 7.66699 55.5 23s22.5 34 22.5 56s-7.5 40.5 -22.5 55.5s-33.5 22.5 -55.5 22.5z" />
    <glyph glyph-name="periodcentered" unicode="&#x22c5;" horiz-adv-x="235" 
d="M118 393c-22 0 -40.667 -7.5 -56 -22.5s-23 -33.5 -23 -55.5s7.66699 -40.667 23 -56s34 -23 56 -23s40.5 7.66699 55.5 23s22.5 34 22.5 56s-7.5 40.5 -22.5 55.5s-33.5 22.5 -55.5 22.5z" />
    <glyph glyph-name="cedilla" unicode="&#xb8;" 
d="M224 0v-96.999c5.33301 1.33301 10 2.33301 14 3s7.33301 1 10 1c26 0 39 -13.333 39 -40c0 -28.667 -12.667 -43 -38 -43c-16 0 -31.167 3.16699 -45.5 9.5s-30.166 15.166 -47.499 26.499l-16 -43c23.333 -12 44.666 -21.667 63.999 -29s38 -11 56 -11
c28.667 0 50.667 7.66699 66 23s23 37 23 65c0 25.333 -6.66699 45.5 -20 60.5s-30 22.5 -50 22.5c-6 0 -15.333 -1 -28 -3v55h-27z" />
    <glyph glyph-name="onesuperior" unicode="&#xb9;" horiz-adv-x="310" 
d="M212 631c0 6.66699 -2.66406 9.99805 -7.99707 9.99805c-3.33301 0 -12.5 -3.83301 -27.5 -11.5s-38.5 -16.5 -70.5 -26.5c-20 -6.66699 -35 -11.167 -45 -13.5s-15 -7.16602 -15 -14.499c0 -8 3.66699 -12 11 -12c11.333 0 22 2.5 32 7.5s18.667 7.5 26 7.5
c5.33301 0 8.83301 -1.66699 10.5 -5s2.5 -8.66602 2.5 -15.999v-240c0 -12 -1.16699 -20.333 -3.5 -25s-8.5 -7.66699 -18.5 -9c-14 -1.33301 -25 -2.33301 -33 -3s-12 -5.66699 -12 -15c0 -5.33301 1.83301 -8.83301 5.5 -10.5s9.16699 -2.5 16.5 -2.5
c9.33301 0 22.166 0.5 38.499 1.5s36.166 1.5 59.499 1.5c16 0 30.167 -0.666992 42.5 -2s23.166 -2 32.499 -2c10.667 0 16 4.66699 16 14c0 4.66699 -1.16699 7.83398 -3.5 9.50098s-5.33301 3 -9 4s-8 1.66699 -13 2s-9.83301 1.16602 -14.5 2.49902
c-8.66699 2 -14.167 5.83301 -16.5 11.5s-3.5 14.167 -3.5 25.5v311z" />
    <glyph glyph-name="ordmasculine" unicode="&#xba;" horiz-adv-x="362" 
d="M180 643c-24 0 -46 -3.99805 -66 -11.998s-37.167 -19.5 -51.5 -34.5s-25.5 -32.833 -33.5 -53.5s-12 -43.667 -12 -69c0 -24.667 3.83301 -47.334 11.5 -68.001s18.334 -38.334 32.001 -53.001s30.167 -26.167 49.5 -34.5s41 -12.5 65 -12.5
c53.333 0 95.166 15.333 125.499 46s45.5 71 45.5 121c0 50.667 -14.5 91.667 -43.5 123s-69.833 47 -122.5 47zM176 617.002c21.333 0 38.833 -14 52.5 -42s20.5 -67.333 20.5 -118c0 -40.667 -5.66699 -71.667 -17 -93s-26.666 -32 -45.999 -32
c-20.667 0 -38 13.833 -52 41.5s-21 67.5 -21 119.5c0 40 5.66699 70.667 17 92s26.666 32 45.999 32z" />
    <glyph glyph-name="guillemotright" unicode="&#xbb;" horiz-adv-x="342" 
d="M26 94c-2 -4 -3.33301 -7.33203 -4 -9.99902s-1 -4.66699 -1 -6c0 -6.66699 2.66699 -10 8 -10c7.33301 0 15.5 7.16699 24.5 21.5s25.167 33.5 48.5 57.5c21.333 22 39 38.167 53 48.5s21 19.166 21 26.499c0 4 -2.16699 8.16699 -6.5 12.5s-10.333 9.83301 -18 16.5
l-26.5 23.5c-10 9 -21 20.167 -33 33.5c-19.333 21.333 -32.833 38 -40.5 50s-15.167 18 -22.5 18c-5.33301 0 -8 -3.33301 -8 -10c0 -1.33301 0.333008 -3.33301 1 -6s2 -6 4 -10l57 -128zM166 94.001c-3.33301 -8 -5 -13 -5 -15c0 -3.33301 1 -6 3 -8s4 -3 6 -3
c7.33301 0 14.833 6.16699 22.5 18.5s21.167 29.166 40.5 50.499c11.333 12.667 22.166 23.5 32.499 32.5l27 23c7.66699 6.33301 13.667 11.833 18 16.5s6.5 9 6.5 13s-2.16699 8.33301 -6.5 13s-10.333 10.334 -18 17.001l-27 23.5c-10.333 9 -21.166 19.833 -32.499 32.5
c-19.333 21.333 -32.833 38 -40.5 50s-15.167 18 -22.5 18c-6 0 -9 -3.33301 -9 -10c0 -2.66699 1.66699 -8 5 -16l58 -128z" />
    <glyph glyph-name="onequarter" unicode="&#xbc;" horiz-adv-x="725" 
d="M202 630c0 6.66699 -2.66602 9.99512 -7.99902 9.99512c-2.66699 0 -11.167 -3.5 -25.5 -10.5s-36.833 -15.167 -67.5 -24.5c-19.333 -6.66699 -33.666 -11 -42.999 -13s-14 -6.66699 -14 -14s3.33301 -11 10 -11c10.667 0 21 2.5 31 7.5s18.333 7.5 25 7.5
c5.33301 0 8.83301 -1.66699 10.5 -5s2.5 -8.33301 2.5 -15v-224c0 -11.333 -1.33301 -19.166 -4 -23.499s-8.66699 -7.16602 -18 -8.49902c-13.333 -1.33301 -23.833 -2.16602 -31.5 -2.49902s-11.5 -5.16602 -11.5 -14.499c0 -5.33301 1.66699 -8.66602 5 -9.99902
s8.66602 -2 15.999 -2c9.33301 0 21.666 0.5 36.999 1.5s34 1.5 56 1.5c15.333 0 29 -0.666992 41 -2s22.333 -2 31 -2c10.667 0 16 4.33301 16 13s-4.33301 13 -13 13c-8 0 -16.667 1.33301 -26 4c-8 2 -13.167 5.66699 -15.5 11s-3.5 13 -3.5 23v290zM517.001 647.995
l-355 -667h46l354 667h-45zM640.001 409.995c-4 0 -6.49805 -0.164062 -7.49805 -0.49707s-2.5 -1.83301 -4.5 -4.5l-175 -250c-5.33301 -7.33301 -8 -15.666 -8 -24.999c0 -8.66699 1.33301 -14 4 -16s8 -3 16 -3h102c4.66699 0 7.33398 -0.833008 8.00098 -2.5
s1 -4.5 1 -8.5v-40c0 -9.33301 -1 -16.5 -3 -21.5s-7 -8.5 -15 -10.5c-6.66699 -1.33301 -12.834 -2.33301 -18.501 -3s-8.5 -4.66699 -8.5 -12c0 -9.33301 7 -14 21 -14c4.66699 0 12.334 0.5 23.001 1.5s24.667 1.5 42 1.5c13.333 0 25.166 -0.333008 35.499 -1
s18.833 -1 25.5 -1c6 0 10.333 0.666992 13 2s4 4.66602 4 9.99902c0 4.66699 -2.16699 7.83398 -6.5 9.50098s-9 3.16699 -14 4.5s-9.5 3.5 -13.5 6.5s-6 8.16699 -6 15.5v50c0 8.66699 3.33301 13 10 13h32c6.66699 0 10 4 10 12v11c0 7.33301 -3 11 -9 11h-33
c-4.66699 0 -7.33398 0.833008 -8.00098 2.5s-1 4.5 -1 8.5v112c0 6.66699 -1.66699 10 -5 10c-5.33301 0 -12 -0.833008 -20 -2.5s-16 -3.83398 -24 -6.50098s-14.833 -5.83398 -20.5 -9.50098s-8.5 -7.16699 -8.5 -10.5v-91c0 -5.33301 -0.666992 -8.83301 -2 -10.5
s-4.66602 -2.5 -9.99902 -2.5h-80c-3.33301 0 -5 1.33301 -5 4c0 2 0.666992 4 2 6l18 31c3.33301 5.33301 15.166 22.666 35.499 51.999s51.166 70.666 92.499 123.999c9.33301 12.667 16.833 22.5 22.5 29.5s8.5 12.167 8.5 15.5c0 2 -2.33301 3 -7 3h-13z" />
    <glyph glyph-name="onehalf" unicode="&#xbd;" horiz-adv-x="725" 
d="M202 630c0 6.66699 -2.66602 9.99512 -7.99902 9.99512c-2.66699 0 -11.167 -3.5 -25.5 -10.5s-36.833 -15.167 -67.5 -24.5c-19.333 -6.66699 -33.666 -11 -42.999 -13s-14 -6.66699 -14 -14s3.33301 -11 10 -11c10.667 0 21 2.5 31 7.5s18.333 7.5 25 7.5
c5.33301 0 8.83301 -1.66699 10.5 -5s2.5 -8.33301 2.5 -15v-224c0 -11.333 -1.33301 -19.166 -4 -23.499s-8.66699 -7.16602 -18 -8.49902c-13.333 -1.33301 -23.833 -2.16602 -31.5 -2.49902s-11.5 -5.16602 -11.5 -14.499c0 -5.33301 1.66699 -8.66602 5 -9.99902
s8.66602 -2 15.999 -2c9.33301 0 21.666 0.5 36.999 1.5s34 1.5 56 1.5c15.333 0 29 -0.666992 41 -2s22.333 -2 31 -2c10.667 0 16 4.33301 16 13s-4.33301 13 -13 13c-8 0 -16.667 1.33301 -26 4c-8 2 -13.167 5.66699 -15.5 11s-3.5 13 -3.5 23v290zM517.001 647.995
l-355 -667h46l354 667h-45zM541.001 95.9951c15.333 18.667 33.002 34.5 53.002 47.5s37.667 27.167 53 42.5c24.667 24.667 37 52.334 37 83.001c0 28.667 -9.5 51.5 -28.5 68.5s-45.5 25.5 -79.5 25.5c-34.667 0 -64.334 -12 -89.001 -36
c-10.667 -10.667 -18.334 -20.5 -23.001 -29.5s-7 -15.167 -7 -18.5c0 -6.66699 2.33301 -10 7 -10c5.33301 0 9.5 3 12.5 9s8.83301 14 17.5 24c14.667 18.667 32.334 28 53.001 28c17.333 0 31.333 -6 42 -18s16 -28.333 16 -49s-7 -42.334 -21 -65.001
s-33.333 -50.334 -58 -83.001c-21.333 -29.333 -38.5 -52.166 -51.5 -68.499s-19.5 -28.166 -19.5 -35.499c0 -4.66699 1.5 -7.66699 4.5 -9s8.83301 -2 17.5 -2h90c24 0 44.167 -0.333008 60.5 -1s28.833 -1 37.5 -1c7.33301 0 11.666 0.666992 12.999 2
s2.33301 5.66602 3 12.999l3 75v9c0 8 -3.33301 12 -10 12c-4 0 -6.66699 -1.83301 -8 -5.5l-4.5 -12c-1.66699 -4.33301 -4.5 -8.33301 -8.5 -12s-10.667 -5.5 -20 -5.5h-99c-3.33301 0 -5 1.66699 -5 5c0 2 1 4 3 6z" />
    <glyph glyph-name="threequarters" unicode="&#xbe;" horiz-adv-x="725" 
d="M133 491c66.667 28 100.002 58.002 100.002 90.002c0 18 -7.66699 32.333 -23 43s-37.333 16 -66 16c-16.667 0 -31.5 -2.33301 -44.5 -7s-24 -10.334 -33 -17.001s-16 -13.5 -21 -20.5s-7.5 -12.833 -7.5 -17.5c0 -6 3 -9 9 -9c2.66699 0 5.83398 2.16699 9.50098 6.5
s8.16699 9.33301 13.5 15s11.666 10.667 18.999 15s16 6.5 26 6.5c12.667 0 22.834 -4.16699 30.501 -12.5s11.5 -19.166 11.5 -32.499c0 -33.333 -26 -63.333 -78 -90c-12.667 -7.33301 -23.167 -13.166 -31.5 -17.499s-12.5 -9.5 -12.5 -15.5s2.66699 -9 8 -9
c3.33301 0 10.666 2.66699 21.999 8s25.666 8 42.999 8c23.333 0 42.166 -8.5 56.499 -25.5s21.5 -39.5 21.5 -67.5c0 -15.333 -2.5 -29.333 -7.5 -42s-11.167 -23.5 -18.5 -32.5s-15.333 -16 -24 -21s-16.667 -7.5 -24 -7.5c-8.66699 0 -14.167 3.16699 -16.5 9.5
s-5.5 13.166 -9.5 20.499c-8 15.333 -18.667 23 -32 23c-8.66699 0 -16 -3.16699 -22 -9.5s-9 -14.5 -9 -24.5c0 -28.667 20.333 -43 61 -43c19.333 0 39.5 4.16699 60.5 12.5s41.167 21.166 60.5 38.499c39.333 35.333 59 73.666 59 114.999c0 28 -9.5 50.667 -28.5 68
s-43.5 26 -73.5 26c-6 0 -15.333 -1 -28 -3zM517.002 648.002l-355 -667h46l354 667h-45zM640.002 410.002c-4 0 -6.49805 -0.164062 -7.49805 -0.49707s-2.5 -1.83301 -4.5 -4.5l-175 -250c-5.33301 -7.33301 -8 -15.666 -8 -24.999c0 -8.66699 1.33301 -14 4 -16
s8 -3 16 -3h102c4.66699 0 7.33398 -0.833008 8.00098 -2.5s1 -4.5 1 -8.5v-40c0 -9.33301 -1 -16.5 -3 -21.5s-7 -8.5 -15 -10.5c-6.66699 -1.33301 -12.834 -2.33301 -18.501 -3s-8.5 -4.66699 -8.5 -12c0 -9.33301 7 -14 21 -14c4.66699 0 12.334 0.5 23.001 1.5
s24.667 1.5 42 1.5c13.333 0 25.166 -0.333008 35.499 -1s18.833 -1 25.5 -1c6 0 10.333 0.666992 13 2s4 4.66602 4 9.99902c0 4.66699 -2.16699 7.83398 -6.5 9.50098s-9 3.16699 -14 4.5s-9.5 3.5 -13.5 6.5s-6 8.16699 -6 15.5v50c0 8.66699 3.33301 13 10 13h32
c6.66699 0 10 4 10 12v11c0 7.33301 -3 11 -9 11h-33c-4.66699 0 -7.33398 0.833008 -8.00098 2.5s-1 4.5 -1 8.5v112c0 6.66699 -1.66699 10 -5 10c-5.33301 0 -12 -0.833008 -20 -2.5s-16 -3.83398 -24 -6.50098s-14.833 -5.83398 -20.5 -9.50098
s-8.5 -7.16699 -8.5 -10.5v-91c0 -5.33301 -0.666992 -8.83301 -2 -10.5s-4.66602 -2.5 -9.99902 -2.5h-80c-3.33301 0 -5 1.33301 -5 4c0 2 0.666992 4 2 6l18 31c3.33301 5.33301 15.166 22.666 35.499 51.999s51.166 70.666 92.499 123.999
c9.33301 12.667 16.833 22.5 22.5 29.5s8.5 12.167 8.5 15.5c0 2 -2.33301 3 -7 3h-13z" />
    <glyph glyph-name="questiondown" unicode="&#xbf;" horiz-adv-x="307" 
d="M196 637c-17.333 0 -32.5 -6.5 -45.5 -19.5s-19.5 -29.833 -19.5 -50.5s6.5 -37.667 19.5 -51s28.167 -20 45.5 -20c18 0 33.167 6.83301 45.5 20.5s18.5 30.5 18.5 50.5s-6.33301 36.667 -19 50s-27.667 20 -45 20zM219 445
c-1.33301 7.33301 -3.16504 12.333 -5.49805 15s-6.16602 4 -11.499 4c-8 0 -12.667 -2.16699 -14 -6.5s-2.33301 -10 -3 -17s-2.16699 -14.833 -4.5 -23.5s-8.5 -17.667 -18.5 -27c-16 -14.667 -32.333 -28.834 -49 -42.501s-32 -28.667 -46 -45s-25.5 -34.833 -34.5 -55.5
s-13.5 -45 -13.5 -73c0 -26 4.16699 -50.167 12.5 -72.5s19.666 -41.666 33.999 -57.999s31.5 -29.333 51.5 -39s41.667 -14.5 65 -14.5c28 0 50.667 5.83301 68 17.5s26 28.5 26 50.5c0 48 -10.667 72 -32 72c-10 0 -18 -4.83301 -24 -14.5l-23 -37.5
c-8.66699 -15.333 -16.834 -26.666 -24.501 -33.999s-16.834 -11 -27.501 -11c-12 0 -22.333 5.83301 -31 17.5s-13 27.5 -13 47.5c0 24.667 7 46.167 21 64.5s32.333 38.166 55 59.499c19.333 18 34.5 33.5 45.5 46.5s16.5 28.167 16.5 45.5c0 5.33301 -1 16 -3 32
s-5.66699 37 -11 63z" />
    <glyph glyph-name="Agrave" unicode="&#xc0;" horiz-adv-x="505" 
d="M289 608c-5.33301 17.333 -9.83203 28.3311 -13.499 32.998s-11.5 7 -23.5 7c-10.667 0 -18.667 -2.16699 -24 -6.5s-11 -15.166 -17 -32.499l-166 -505c-5.33301 -15.333 -10.666 -27.666 -15.999 -36.999s-12 -16 -20 -20
c-9.33301 -4.66699 -17.5 -8.16699 -24.5 -10.5s-10.5 -9.16602 -10.5 -20.499c0 -12.667 6.66699 -19 20 -19c2.66699 0 9.33398 1.16699 20.001 3.5s26.667 3.5 48 3.5c28 0 49.333 -1.16699 64 -3.5s23.334 -3.5 26.001 -3.5c14 0 21 6.66699 21 20
c0 10.667 -4.16699 17.167 -12.5 19.5s-19.166 6.16602 -32.499 11.499c-14.667 6 -24.167 12.5 -28.5 19.5s-6.5 16.833 -6.5 29.5c0 16 6.33301 46.333 19 91c2 6.66699 4.16699 11.834 6.5 15.501s6.16602 6.5 11.499 8.5s13.166 3.16699 23.499 3.5
s24.166 0.5 41.499 0.5c32 0 54 -0.833008 66 -2.5s19.667 -8.16699 23 -19.5l34 -111c2 -7.33301 3 -13.333 3 -18c0 -9.33301 -2.83301 -15.333 -8.5 -18s-11.667 -4.66699 -18 -6s-12.333 -3.33301 -18 -6s-8.5 -8.66699 -8.5 -18c0 -13.333 7.66699 -20 23 -20
c12.667 0 28.667 1.5 48 4.5s41.666 4.5 66.999 4.5c28 0 50.5 -1.16699 67.5 -3.5s29.167 -3.5 36.5 -3.5c9.33301 0 16.166 1.16699 20.499 3.5s6.5 7.16602 6.5 14.499c0 6 -1.33301 10.5 -4 13.5s-6.16699 5.16699 -10.5 6.5s-9 2.5 -14 3.5s-9.5 2.5 -13.5 4.5
c-17.333 9.33301 -33 36 -47 80zM203.001 438.998l53 -158.999c0.666992 -2.66699 1 -6.33398 1 -11.001c0 -4 -3.33301 -6 -10 -6h-99c-6 0 -9 1.66699 -9 5c0 0.666992 0.666992 3 2 7l49 163c2 8 4.33301 12 7 12c2 0 4 -3.66699 6 -11zM222.001 839.999
c-10 13.333 -18.833 23.167 -26.5 29.5s-16.167 9.5 -25.5 9.5c-10 0 -18.333 -3.83301 -25 -11.5s-10 -18.5 -10 -32.5c0 -12.667 3 -22.5 9 -29.5s15 -14.5 27 -22.5l123 -81h35z" />
    <glyph glyph-name="Aacute" unicode="&#xc1;" horiz-adv-x="505" 
d="M289 608c-5.33301 17.333 -9.83203 28.3311 -13.499 32.998s-11.5 7 -23.5 7c-10.667 0 -18.667 -2.16699 -24 -6.5s-11 -15.166 -17 -32.499l-166 -505c-5.33301 -15.333 -10.666 -27.666 -15.999 -36.999s-12 -16 -20 -20
c-9.33301 -4.66699 -17.5 -8.16699 -24.5 -10.5s-10.5 -9.16602 -10.5 -20.499c0 -12.667 6.66699 -19 20 -19c2.66699 0 9.33398 1.16699 20.001 3.5s26.667 3.5 48 3.5c28 0 49.333 -1.16699 64 -3.5s23.334 -3.5 26.001 -3.5c14 0 21 6.66699 21 20
c0 10.667 -4.16699 17.167 -12.5 19.5s-19.166 6.16602 -32.499 11.499c-14.667 6 -24.167 12.5 -28.5 19.5s-6.5 16.833 -6.5 29.5c0 16 6.33301 46.333 19 91c2 6.66699 4.16699 11.834 6.5 15.501s6.16602 6.5 11.499 8.5s13.166 3.16699 23.499 3.5
s24.166 0.5 41.499 0.5c32 0 54 -0.833008 66 -2.5s19.667 -8.16699 23 -19.5l34 -111c2 -7.33301 3 -13.333 3 -18c0 -9.33301 -2.83301 -15.333 -8.5 -18s-11.667 -4.66699 -18 -6s-12.333 -3.33301 -18 -6s-8.5 -8.66699 -8.5 -18c0 -13.333 7.66699 -20 23 -20
c12.667 0 28.667 1.5 48 4.5s41.666 4.5 66.999 4.5c28 0 50.5 -1.16699 67.5 -3.5s29.167 -3.5 36.5 -3.5c9.33301 0 16.166 1.16699 20.499 3.5s6.5 7.16602 6.5 14.499c0 6 -1.33301 10.5 -4 13.5s-6.16699 5.16699 -10.5 6.5s-9 2.5 -14 3.5s-9.5 2.5 -13.5 4.5
c-17.333 9.33301 -33 36 -47 80zM203.001 438.998l53 -158.999c0.666992 -2.66699 1 -6.33398 1 -11.001c0 -4 -3.33301 -6 -10 -6h-99c-6 0 -9 1.66699 -9 5c0 0.666992 0.666992 3 2 7l49 163c2 8 4.33301 12 7 12c2 0 4 -3.66699 6 -11zM335.001 782.999
c12 8 21 15.499 27 22.499s9 16.833 9 29.5c0 14 -3.33301 24.833 -10 32.5s-15 11.5 -25 11.5c-9.33301 0 -17.833 -3.16699 -25.5 -9.5s-16.5 -16.166 -26.5 -29.499l-107 -138h35z" />
    <glyph glyph-name="Acircumflex" unicode="&#xc2;" horiz-adv-x="505" 
d="M289 608c-5.33301 17.333 -9.83203 28.3311 -13.499 32.998s-11.5 7 -23.5 7c-10.667 0 -18.667 -2.16699 -24 -6.5s-11 -15.166 -17 -32.499l-166 -505c-5.33301 -15.333 -10.666 -27.666 -15.999 -36.999s-12 -16 -20 -20
c-9.33301 -4.66699 -17.5 -8.16699 -24.5 -10.5s-10.5 -9.16602 -10.5 -20.499c0 -12.667 6.66699 -19 20 -19c2.66699 0 9.33398 1.16699 20.001 3.5s26.667 3.5 48 3.5c28 0 49.333 -1.16699 64 -3.5s23.334 -3.5 26.001 -3.5c14 0 21 6.66699 21 20
c0 10.667 -4.16699 17.167 -12.5 19.5s-19.166 6.16602 -32.499 11.499c-14.667 6 -24.167 12.5 -28.5 19.5s-6.5 16.833 -6.5 29.5c0 16 6.33301 46.333 19 91c2 6.66699 4.16699 11.834 6.5 15.501s6.16602 6.5 11.499 8.5s13.166 3.16699 23.499 3.5
s24.166 0.5 41.499 0.5c32 0 54 -0.833008 66 -2.5s19.667 -8.16699 23 -19.5l34 -111c2 -7.33301 3 -13.333 3 -18c0 -9.33301 -2.83301 -15.333 -8.5 -18s-11.667 -4.66699 -18 -6s-12.333 -3.33301 -18 -6s-8.5 -8.66699 -8.5 -18c0 -13.333 7.66699 -20 23 -20
c12.667 0 28.667 1.5 48 4.5s41.666 4.5 66.999 4.5c28 0 50.5 -1.16699 67.5 -3.5s29.167 -3.5 36.5 -3.5c9.33301 0 16.166 1.16699 20.499 3.5s6.5 7.16602 6.5 14.499c0 6 -1.33301 10.5 -4 13.5s-6.16699 5.16699 -10.5 6.5s-9 2.5 -14 3.5s-9.5 2.5 -13.5 4.5
c-17.333 9.33301 -33 36 -47 80zM203.001 438.998l53 -158.999c0.666992 -2.66699 1 -6.33398 1 -11.001c0 -4 -3.33301 -6 -10 -6h-99c-6 0 -9 1.66699 -9 5c0 0.666992 0.666992 3 2 7l49 163c2 8 4.33301 12 7 12c2 0 4 -3.66699 6 -11zM224.001 871.999l-87 -170h32
l84 88l84 -88h32l-87 170h-58z" />
    <glyph glyph-name="Atilde" unicode="&#xc3;" horiz-adv-x="505" 
d="M289 608c-5.33301 17.333 -9.83203 28.3311 -13.499 32.998s-11.5 7 -23.5 7c-10.667 0 -18.667 -2.16699 -24 -6.5s-11 -15.166 -17 -32.499l-166 -505c-5.33301 -15.333 -10.666 -27.666 -15.999 -36.999s-12 -16 -20 -20
c-9.33301 -4.66699 -17.5 -8.16699 -24.5 -10.5s-10.5 -9.16602 -10.5 -20.499c0 -12.667 6.66699 -19 20 -19c2.66699 0 9.33398 1.16699 20.001 3.5s26.667 3.5 48 3.5c28 0 49.333 -1.16699 64 -3.5s23.334 -3.5 26.001 -3.5c14 0 21 6.66699 21 20
c0 10.667 -4.16699 17.167 -12.5 19.5s-19.166 6.16602 -32.499 11.499c-14.667 6 -24.167 12.5 -28.5 19.5s-6.5 16.833 -6.5 29.5c0 16 6.33301 46.333 19 91c2 6.66699 4.16699 11.834 6.5 15.501s6.16602 6.5 11.499 8.5s13.166 3.16699 23.499 3.5
s24.166 0.5 41.499 0.5c32 0 54 -0.833008 66 -2.5s19.667 -8.16699 23 -19.5l34 -111c2 -7.33301 3 -13.333 3 -18c0 -9.33301 -2.83301 -15.333 -8.5 -18s-11.667 -4.66699 -18 -6s-12.333 -3.33301 -18 -6s-8.5 -8.66699 -8.5 -18c0 -13.333 7.66699 -20 23 -20
c12.667 0 28.667 1.5 48 4.5s41.666 4.5 66.999 4.5c28 0 50.5 -1.16699 67.5 -3.5s29.167 -3.5 36.5 -3.5c9.33301 0 16.166 1.16699 20.499 3.5s6.5 7.16602 6.5 14.499c0 6 -1.33301 10.5 -4 13.5s-6.16699 5.16699 -10.5 6.5s-9 2.5 -14 3.5s-9.5 2.5 -13.5 4.5
c-17.333 9.33301 -33 36 -47 80zM203.001 438.998l53 -158.999c0.666992 -2.66699 1 -6.33398 1 -11.001c0 -4 -3.33301 -6 -10 -6h-99c-6 0 -9 1.66699 -9 5c0 0.666992 0.666992 3 2 7l49 163c2 8 4.33301 12 7 12c2 0 4 -3.66699 6 -11zM340.001 858.999
c-8 -28 -20 -42 -36 -42c-4 0 -9 1 -15 3l-42 14c-7.33301 2.66699 -16 4 -26 4c-46 0 -73 -40.333 -81 -121h25c8 28.667 19.667 43 35 43c7.33301 0 15 -1.33301 23 -4l40 -13c6 -2 12.333 -3 19 -3c47.333 0 75.333 39.667 84 119h-26z" />
    <glyph glyph-name="Adieresis" unicode="&#xc4;" horiz-adv-x="505" 
d="M289 608c-5.33301 17.333 -9.83203 28.3311 -13.499 32.998s-11.5 7 -23.5 7c-10.667 0 -18.667 -2.16699 -24 -6.5s-11 -15.166 -17 -32.499l-166 -505c-5.33301 -15.333 -10.666 -27.666 -15.999 -36.999s-12 -16 -20 -20
c-9.33301 -4.66699 -17.5 -8.16699 -24.5 -10.5s-10.5 -9.16602 -10.5 -20.499c0 -12.667 6.66699 -19 20 -19c2.66699 0 9.33398 1.16699 20.001 3.5s26.667 3.5 48 3.5c28 0 49.333 -1.16699 64 -3.5s23.334 -3.5 26.001 -3.5c14 0 21 6.66699 21 20
c0 10.667 -4.16699 17.167 -12.5 19.5s-19.166 6.16602 -32.499 11.499c-14.667 6 -24.167 12.5 -28.5 19.5s-6.5 16.833 -6.5 29.5c0 16 6.33301 46.333 19 91c2 6.66699 4.16699 11.834 6.5 15.501s6.16602 6.5 11.499 8.5s13.166 3.16699 23.499 3.5
s24.166 0.5 41.499 0.5c32 0 54 -0.833008 66 -2.5s19.667 -8.16699 23 -19.5l34 -111c2 -7.33301 3 -13.333 3 -18c0 -9.33301 -2.83301 -15.333 -8.5 -18s-11.667 -4.66699 -18 -6s-12.333 -3.33301 -18 -6s-8.5 -8.66699 -8.5 -18c0 -13.333 7.66699 -20 23 -20
c12.667 0 28.667 1.5 48 4.5s41.666 4.5 66.999 4.5c28 0 50.5 -1.16699 67.5 -3.5s29.167 -3.5 36.5 -3.5c9.33301 0 16.166 1.16699 20.499 3.5s6.5 7.16602 6.5 14.499c0 6 -1.33301 10.5 -4 13.5s-6.16699 5.16699 -10.5 6.5s-9 2.5 -14 3.5s-9.5 2.5 -13.5 4.5
c-17.333 9.33301 -33 36 -47 80zM203.001 438.998l53 -158.999c0.666992 -2.66699 1 -6.33398 1 -11.001c0 -4 -3.33301 -6 -10 -6h-99c-6 0 -9 1.66699 -9 5c0 0.666992 0.666992 3 2 7l49 163c2 8 4.33301 12 7 12c2 0 4 -3.66699 6 -11zM336.001 840.999
c-15.333 0 -29 -6 -41 -18s-18 -25.667 -18 -41c0 -16.667 5.66699 -30.667 17 -42s25.333 -17 42 -17c17.333 0 31.333 5.5 42 16.5s16 25.167 16 42.5c0 16 -5.66699 29.833 -17 41.5s-25 17.5 -41 17.5zM170.001 840.999c-15.333 0 -29 -6 -41 -18s-18 -25.667 -18 -41
c0 -16.667 5.66699 -30.667 17 -42s25.333 -17 42 -17c17.333 0 31.333 5.5 42 16.5s16 25.167 16 42.5c0 16 -5.66699 29.833 -17 41.5s-25 17.5 -41 17.5z" />
    <glyph glyph-name="Aring" unicode="&#xc5;" horiz-adv-x="505" 
d="M246 878c-28 0 -51.667 -9.50098 -71 -28.501s-29 -42.5 -29 -70.5c0 -13.333 2.66699 -26.166 8 -38.499s12.5 -23 21.5 -32s19.5 -16.167 31.5 -21.5s25 -8 39 -8c28 0 51.5 9.66699 70.5 29s28.5 43 28.5 71s-9.5 51.5 -28.5 70.5s-42.5 28.5 -70.5 28.5zM246 826.999
c13.333 0 24.666 -4.66699 33.999 -14s14 -20.666 14 -33.999s-4.66699 -24.833 -14 -34.5s-20.666 -14.5 -33.999 -14.5s-24.666 4.83301 -33.999 14.5s-14 21.167 -14 34.5s4.66699 24.666 14 33.999s20.666 14 33.999 14zM289 607.999
c-5.33301 17.333 -9.83203 28.3311 -13.499 32.998s-11.5 7 -23.5 7c-10.667 0 -18.667 -2.16699 -24 -6.5s-11 -15.166 -17 -32.499l-166 -505c-5.33301 -15.333 -10.666 -27.666 -15.999 -36.999s-12 -16 -20 -20c-9.33301 -4.66699 -17.5 -8.16699 -24.5 -10.5
s-10.5 -9.16602 -10.5 -20.499c0 -12.667 6.66699 -19 20 -19c2.66699 0 9.33398 1.16699 20.001 3.5s26.667 3.5 48 3.5c28 0 49.333 -1.16699 64 -3.5s23.334 -3.5 26.001 -3.5c14 0 21 6.66699 21 20c0 10.667 -4.16699 17.167 -12.5 19.5
s-19.166 6.16602 -32.499 11.499c-14.667 6 -24.167 12.5 -28.5 19.5s-6.5 16.833 -6.5 29.5c0 16 6.33301 46.333 19 91c2 6.66699 4.16699 11.834 6.5 15.501s6.16602 6.5 11.499 8.5s13.166 3.16699 23.499 3.5s24.166 0.5 41.499 0.5c32 0 54 -0.833008 66 -2.5
s19.667 -8.16699 23 -19.5l34 -111c2 -7.33301 3 -13.333 3 -18c0 -9.33301 -2.83301 -15.333 -8.5 -18s-11.667 -4.66699 -18 -6s-12.333 -3.33301 -18 -6s-8.5 -8.66699 -8.5 -18c0 -13.333 7.66699 -20 23 -20c12.667 0 28.667 1.5 48 4.5s41.666 4.5 66.999 4.5
c28 0 50.5 -1.16699 67.5 -3.5s29.167 -3.5 36.5 -3.5c9.33301 0 16.166 1.16699 20.499 3.5s6.5 7.16602 6.5 14.499c0 6 -1.33301 10.5 -4 13.5s-6.16699 5.16699 -10.5 6.5s-9 2.5 -14 3.5s-9.5 2.5 -13.5 4.5c-17.333 9.33301 -33 36 -47 80zM203.001 438.997
l53 -158.999c0.666992 -2.66699 1 -6.33398 1 -11.001c0 -4 -3.33301 -6 -10 -6h-99c-6 0 -9 1.66699 -9 5c0 0.666992 0.666992 3 2 7l49 163c2 8 4.33301 12 7 12c2 0 4 -3.66699 6 -11z" />
    <glyph glyph-name="AE" unicode="&#xc6;" horiz-adv-x="734" 
d="M408 627c-42.667 0 -74.1758 0.831055 -94.5088 2.49805s-32.166 2.5 -35.499 2.5c-14.667 0 -22 -6.66699 -22 -20c0 -6 1.5 -10.167 4.5 -12.5s6.16699 -4.33301 9.5 -6s6.5 -3.5 9.5 -5.5s4.5 -6 4.5 -12c0 -2 -0.666992 -5.83301 -2 -11.5
s-3.66602 -11.167 -6.99902 -16.5l-213 -398c-12.667 -23.333 -24.167 -43.166 -34.5 -59.499s-21.5 -29.5 -33.5 -39.5c-6.66699 -4.66699 -12.5 -8.16699 -17.5 -10.5s-9.16699 -4.5 -12.5 -6.5s-5.83301 -4.33301 -7.5 -7s-2.5 -6.66699 -2.5 -12
c0 -4 1.83301 -7.83301 5.5 -11.5s8.83398 -5.5 15.501 -5.5c8 0 18.5 1 31.5 3s28.5 3 46.5 3c17.333 0 33.333 -1.16699 48 -3.5s28.334 -3.5 41.001 -3.5c18 0 27 7 27 21c0 9.33301 -2.66699 14.833 -8 16.5s-12.666 2.5 -21.999 2.5h-11c-20.667 4 -31 15.333 -31 34
c0 10 2 20.667 6 32s9.66699 24 17 38l70 147c2.66699 6 5.33398 10.833 8.00098 14.5s6.16699 6.33398 10.5 8.00098s9.66602 2.83398 15.999 3.50098s14.833 1 25.5 1h62c10.667 0 19 -0.333008 25 -1s10.333 -2.16699 13 -4.5s4.33398 -5.5 5.00098 -9.5s1 -9 1 -15v-198
c0 -16.667 -2.83301 -28.334 -8.5 -35.001s-16.167 -11.667 -31.5 -15c-12 -1.33301 -20.333 -2.83301 -25 -4.5s-7 -6.16699 -7 -13.5c0 -14.667 7 -22 21 -22c5.33301 0 20.333 1.5 45 4.5s59.334 4.5 104.001 4.5c68.667 0 121.5 -2.16699 158.5 -6.5
s59.167 -6.5 66.5 -6.5c14.667 0 23.667 11 27 33l10 84l3 19.5l1 6.5c0 19.333 -5.66699 29 -17 29c-5.33301 0 -9.5 -2 -12.5 -6s-6.16699 -9.5 -9.5 -16.5l-12 -25c-4.66699 -9.66699 -11 -20.5 -19 -32.5c-10 -14.667 -23 -26.334 -39 -35.001s-33 -13 -51 -13
c-16.667 0 -29.667 2.33301 -39 7s-16.333 11.667 -21 21s-7.5 21 -8.5 35s-1.5 30 -1.5 48v148c0 8.66699 3.66699 13.334 11 14.001l11 2c4 0.666992 7.66699 1 11 1h11c21.333 0 35.833 -4 43.5 -12s15.167 -20.333 22.5 -37c5.33301 -13.333 9.5 -24.833 12.5 -34.5
s9.16699 -14.5 18.5 -14.5c10.667 0 16 7.33301 16 22c0 10 -0.5 24 -1.5 42s-1.5 40 -1.5 66c0 22.667 0.666992 40.5 2 53.5s2 21.167 2 24.5c0 7.33301 -1.66699 13 -5 17s-7 6 -11 6c-4.66699 0 -8.16699 -1.66699 -10.5 -5s-4.5 -8 -6.5 -14
s-4.16699 -13.167 -6.5 -21.5s-6.16602 -17.166 -11.499 -26.499c-7.33301 -14 -26 -21 -56 -21h-13c-14 0 -23.833 1.83301 -29.5 5.5s-8.5 10.167 -8.5 19.5v143c0 17.333 4 30.833 12 40.5s25.333 14.5 52 14.5c38.667 0 65.667 -13 81 -39
c11.333 -19.333 19.5 -34.5 24.5 -45.5s11.167 -16.5 18.5 -16.5c6.66699 0 11 2.66699 13 8s3 12.666 3 21.999v103c0 7.33301 -1.66699 12.333 -5 15s-9.66602 4 -18.999 4c-11.333 0 -23.833 -0.833008 -37.5 -2.5s-28.5 -2.5 -44.5 -2.5h-180zM355.991 535.998
l0.000976562 -160.999c0 -9.33301 -3.66699 -14 -11 -14h-105c-2.66699 0 -4.83398 0.666992 -6.50098 2s-2.5 2.66602 -2.5 3.99902c0 0.666992 1.66699 5 5 13l76 154c10 20 20 30 30 30c7.33301 0 11.5 -2.5 12.5 -7.5s1.5 -11.833 1.5 -20.5z" />
    <glyph glyph-name="Ccedilla" unicode="&#xc7;" horiz-adv-x="541" 
d="M26 315c0 -50 7.33691 -95.499 22.0039 -136.499s35.167 -76.167 61.5 -105.5s58.166 -52 95.499 -68s79 -24 125 -24c39.333 0 73.166 5.16699 101.499 15.5s49.5 23.5 63.5 39.5c6 7.33301 9.66699 17.333 11 30s2 29.667 2 51c0 23.333 -0.666992 39.5 -2 48.5
s-5.66602 13.5 -12.999 13.5s-12.833 -5.5 -16.5 -16.5s-10.167 -27.167 -19.5 -48.5c-13.333 -30 -30.5 -53 -51.5 -69s-43.5 -24 -67.5 -24c-23.333 0 -45.5 7 -66.5 21s-39.167 33.667 -54.5 59s-27.5 55.833 -36.5 91.5s-13.5 75.167 -13.5 118.5
c0 44.667 4.66699 85.167 14 121.5s21.666 67.5 36.999 93.5s33.333 46 54 60s42 21 64 21c24 0 44.333 -5.83301 61 -17.5s32 -29.5 46 -53.5c9.33301 -15.333 16.166 -28.333 20.499 -39s11.166 -16 20.499 -16c10 0 15 7.33301 15 22c0 28.667 -1.83301 53 -5.5 73
s-6.16699 31 -7.5 33c-2.66699 3.33301 -8.33398 7.33301 -17.001 12s-19.667 9 -33 13s-28.666 7.33301 -45.999 10s-36 4 -56 4c-45.333 0 -86.833 -8.5 -124.5 -25.5s-70.167 -40.333 -97.5 -70s-48.5 -64.834 -63.5 -105.501s-22.5 -84.667 -22.5 -132z
M270.004 0.000976562v-96.999c5.33301 1.33301 10 2.33301 14 3s7.33301 1 10 1c26 0 39 -13.333 39 -40c0 -28.667 -12.667 -43 -38 -43c-16 0 -31.167 3.16699 -45.5 9.5s-30.166 15.166 -47.499 26.499l-16 -43c23.333 -12 44.666 -21.667 63.999 -29s38 -11 56 -11
c28.667 0 50.667 7.66699 66 23s23 37 23 65c0 25.333 -6.66699 45.5 -20 60.5s-30 22.5 -50 22.5c-6 0 -15.333 -1 -28 -3v55h-27z" />
    <glyph glyph-name="Egrave" unicode="&#xc8;" horiz-adv-x="486" 
d="M441 613c0 8 -1.66992 13.1641 -5.00293 15.4971s-10 3.5 -20 3.5c-14 0 -39.333 -1.5 -76 -4.5s-84.334 -4.5 -143.001 -4.5c-52.667 0 -91.834 1.16699 -117.501 3.5s-40.167 3.5 -43.5 3.5c-14.667 0 -22 -7 -22 -21c0 -9.33301 3.33301 -14.666 10 -15.999l30 -6
c12.667 -2.66699 21.334 -7.5 26.001 -14.5s7 -17.833 7 -32.5v-453c0 -16.667 -2.66699 -28.167 -8 -34.5s-15.666 -10.833 -30.999 -13.5c-12 -2 -20.5 -4 -25.5 -6s-7.5 -6.66699 -7.5 -14c0 -14.667 7 -22 21 -22c5.33301 0 20.333 1.5 45 4.5s59 4.5 103 4.5
c72.667 0 129.167 -2.16699 169.5 -6.5s64.5 -6.5 72.5 -6.5c9.33301 0 16 2.83301 20 8.5s6.66699 13.834 8 24.501l12 84c1.33301 8 2.33301 14.167 3 18.5l1 6.5c0 20.667 -6.33301 31 -19 31c-5.33301 0 -9.83301 -2.16699 -13.5 -6.5s-7.16699 -10.166 -10.5 -17.499
s-7.5 -15.833 -12.5 -25.5s-11.833 -20.167 -20.5 -31.5c-11.333 -14.667 -25.5 -26.167 -42.5 -34.5s-35.5 -12.5 -55.5 -12.5c-17.333 0 -31.166 2.16699 -41.499 6.5s-18 10.666 -23 18.999s-8.16699 18.833 -9.5 31.5s-2 27.334 -2 44.001v157c0 8 4 12.667 12 14l11 2
c4.66699 0.666992 9 1 13 1h12c21.333 0 36.833 -3.5 46.5 -10.5s18.167 -19.167 25.5 -36.5c6 -13.333 10.5 -25.166 13.5 -35.499s9.5 -15.5 19.5 -15.5c11.333 0 17 7.33301 17 22c0 11.333 -0.333008 26 -1 44s-1 39.333 -1 64c0 22.667 0.666992 40.334 2 53.001
s2 21 2 25c0 7.33301 -1.66699 13 -5 17s-7.33301 6 -12 6c-5.33301 0 -9.33301 -1.66699 -12 -5s-5 -7.83301 -7 -13.5s-4.33301 -12.667 -7 -21s-7 -17.5 -13 -27.5c-5.33301 -8.66699 -14 -14.334 -26 -17.001s-28 -4 -48 -4c-15.333 0 -26.166 1.83301 -32.499 5.5
s-9.5 10.167 -9.5 19.5v143c0 17.333 4.5 30.833 13.5 40.5s27.833 14.5 56.5 14.5c40.667 0 69.667 -13 87 -39c12 -18.667 20.833 -33.667 26.5 -45s12.834 -17 21.501 -17c8 0 12.667 2.66699 14 8s2 12.666 2 21.999v103zM212.997 839.997
c-10 13.333 -18.833 23.167 -26.5 29.5s-16.167 9.5 -25.5 9.5c-10 0 -18.333 -3.83301 -25 -11.5s-10 -18.5 -10 -32.5c0 -12.667 3 -22.5 9 -29.5s15 -14.5 27 -22.5l123 -81h35z" />
    <glyph glyph-name="Eacute" unicode="&#xc9;" horiz-adv-x="486" 
d="M441 613c0 8 -1.66992 13.1641 -5.00293 15.4971s-10 3.5 -20 3.5c-14 0 -39.333 -1.5 -76 -4.5s-84.334 -4.5 -143.001 -4.5c-52.667 0 -91.834 1.16699 -117.501 3.5s-40.167 3.5 -43.5 3.5c-14.667 0 -22 -7 -22 -21c0 -9.33301 3.33301 -14.666 10 -15.999l30 -6
c12.667 -2.66699 21.334 -7.5 26.001 -14.5s7 -17.833 7 -32.5v-453c0 -16.667 -2.66699 -28.167 -8 -34.5s-15.666 -10.833 -30.999 -13.5c-12 -2 -20.5 -4 -25.5 -6s-7.5 -6.66699 -7.5 -14c0 -14.667 7 -22 21 -22c5.33301 0 20.333 1.5 45 4.5s59 4.5 103 4.5
c72.667 0 129.167 -2.16699 169.5 -6.5s64.5 -6.5 72.5 -6.5c9.33301 0 16 2.83301 20 8.5s6.66699 13.834 8 24.501l12 84c1.33301 8 2.33301 14.167 3 18.5l1 6.5c0 20.667 -6.33301 31 -19 31c-5.33301 0 -9.83301 -2.16699 -13.5 -6.5s-7.16699 -10.166 -10.5 -17.499
s-7.5 -15.833 -12.5 -25.5s-11.833 -20.167 -20.5 -31.5c-11.333 -14.667 -25.5 -26.167 -42.5 -34.5s-35.5 -12.5 -55.5 -12.5c-17.333 0 -31.166 2.16699 -41.499 6.5s-18 10.666 -23 18.999s-8.16699 18.833 -9.5 31.5s-2 27.334 -2 44.001v157c0 8 4 12.667 12 14l11 2
c4.66699 0.666992 9 1 13 1h12c21.333 0 36.833 -3.5 46.5 -10.5s18.167 -19.167 25.5 -36.5c6 -13.333 10.5 -25.166 13.5 -35.499s9.5 -15.5 19.5 -15.5c11.333 0 17 7.33301 17 22c0 11.333 -0.333008 26 -1 44s-1 39.333 -1 64c0 22.667 0.666992 40.334 2 53.001
s2 21 2 25c0 7.33301 -1.66699 13 -5 17s-7.33301 6 -12 6c-5.33301 0 -9.33301 -1.66699 -12 -5s-5 -7.83301 -7 -13.5s-4.33301 -12.667 -7 -21s-7 -17.5 -13 -27.5c-5.33301 -8.66699 -14 -14.334 -26 -17.001s-28 -4 -48 -4c-15.333 0 -26.166 1.83301 -32.499 5.5
s-9.5 10.167 -9.5 19.5v143c0 17.333 4.5 30.833 13.5 40.5s27.833 14.5 56.5 14.5c40.667 0 69.667 -13 87 -39c12 -18.667 20.833 -33.667 26.5 -45s12.834 -17 21.501 -17c8 0 12.667 2.66699 14 8s2 12.666 2 21.999v103zM325.997 782.997c12 8 21 15.499 27 22.499
s9 16.833 9 29.5c0 14 -3.33301 24.833 -10 32.5s-15 11.5 -25 11.5c-9.33301 0 -17.833 -3.16699 -25.5 -9.5s-16.5 -16.166 -26.5 -29.499l-107 -138h35z" />
    <glyph glyph-name="Ecircumflex" unicode="&#xca;" horiz-adv-x="486" 
d="M441 613c0 8 -1.66992 13.1641 -5.00293 15.4971s-10 3.5 -20 3.5c-14 0 -39.333 -1.5 -76 -4.5s-84.334 -4.5 -143.001 -4.5c-52.667 0 -91.834 1.16699 -117.501 3.5s-40.167 3.5 -43.5 3.5c-14.667 0 -22 -7 -22 -21c0 -9.33301 3.33301 -14.666 10 -15.999l30 -6
c12.667 -2.66699 21.334 -7.5 26.001 -14.5s7 -17.833 7 -32.5v-453c0 -16.667 -2.66699 -28.167 -8 -34.5s-15.666 -10.833 -30.999 -13.5c-12 -2 -20.5 -4 -25.5 -6s-7.5 -6.66699 -7.5 -14c0 -14.667 7 -22 21 -22c5.33301 0 20.333 1.5 45 4.5s59 4.5 103 4.5
c72.667 0 129.167 -2.16699 169.5 -6.5s64.5 -6.5 72.5 -6.5c9.33301 0 16 2.83301 20 8.5s6.66699 13.834 8 24.501l12 84c1.33301 8 2.33301 14.167 3 18.5l1 6.5c0 20.667 -6.33301 31 -19 31c-5.33301 0 -9.83301 -2.16699 -13.5 -6.5s-7.16699 -10.166 -10.5 -17.499
s-7.5 -15.833 -12.5 -25.5s-11.833 -20.167 -20.5 -31.5c-11.333 -14.667 -25.5 -26.167 -42.5 -34.5s-35.5 -12.5 -55.5 -12.5c-17.333 0 -31.166 2.16699 -41.499 6.5s-18 10.666 -23 18.999s-8.16699 18.833 -9.5 31.5s-2 27.334 -2 44.001v157c0 8 4 12.667 12 14l11 2
c4.66699 0.666992 9 1 13 1h12c21.333 0 36.833 -3.5 46.5 -10.5s18.167 -19.167 25.5 -36.5c6 -13.333 10.5 -25.166 13.5 -35.499s9.5 -15.5 19.5 -15.5c11.333 0 17 7.33301 17 22c0 11.333 -0.333008 26 -1 44s-1 39.333 -1 64c0 22.667 0.666992 40.334 2 53.001
s2 21 2 25c0 7.33301 -1.66699 13 -5 17s-7.33301 6 -12 6c-5.33301 0 -9.33301 -1.66699 -12 -5s-5 -7.83301 -7 -13.5s-4.33301 -12.667 -7 -21s-7 -17.5 -13 -27.5c-5.33301 -8.66699 -14 -14.334 -26 -17.001s-28 -4 -48 -4c-15.333 0 -26.166 1.83301 -32.499 5.5
s-9.5 10.167 -9.5 19.5v143c0 17.333 4.5 30.833 13.5 40.5s27.833 14.5 56.5 14.5c40.667 0 69.667 -13 87 -39c12 -18.667 20.833 -33.667 26.5 -45s12.834 -17 21.501 -17c8 0 12.667 2.66699 14 8s2 12.666 2 21.999v103zM214.997 871.997l-87 -170h32l84 88l84 -88h32
l-87 170h-58z" />
    <glyph glyph-name="Edieresis" unicode="&#xcb;" horiz-adv-x="486" 
d="M441 613c0 8 -1.66992 13.1641 -5.00293 15.4971s-10 3.5 -20 3.5c-14 0 -39.333 -1.5 -76 -4.5s-84.334 -4.5 -143.001 -4.5c-52.667 0 -91.834 1.16699 -117.501 3.5s-40.167 3.5 -43.5 3.5c-14.667 0 -22 -7 -22 -21c0 -9.33301 3.33301 -14.666 10 -15.999l30 -6
c12.667 -2.66699 21.334 -7.5 26.001 -14.5s7 -17.833 7 -32.5v-453c0 -16.667 -2.66699 -28.167 -8 -34.5s-15.666 -10.833 -30.999 -13.5c-12 -2 -20.5 -4 -25.5 -6s-7.5 -6.66699 -7.5 -14c0 -14.667 7 -22 21 -22c5.33301 0 20.333 1.5 45 4.5s59 4.5 103 4.5
c72.667 0 129.167 -2.16699 169.5 -6.5s64.5 -6.5 72.5 -6.5c9.33301 0 16 2.83301 20 8.5s6.66699 13.834 8 24.501l12 84c1.33301 8 2.33301 14.167 3 18.5l1 6.5c0 20.667 -6.33301 31 -19 31c-5.33301 0 -9.83301 -2.16699 -13.5 -6.5s-7.16699 -10.166 -10.5 -17.499
s-7.5 -15.833 -12.5 -25.5s-11.833 -20.167 -20.5 -31.5c-11.333 -14.667 -25.5 -26.167 -42.5 -34.5s-35.5 -12.5 -55.5 -12.5c-17.333 0 -31.166 2.16699 -41.499 6.5s-18 10.666 -23 18.999s-8.16699 18.833 -9.5 31.5s-2 27.334 -2 44.001v157c0 8 4 12.667 12 14l11 2
c4.66699 0.666992 9 1 13 1h12c21.333 0 36.833 -3.5 46.5 -10.5s18.167 -19.167 25.5 -36.5c6 -13.333 10.5 -25.166 13.5 -35.499s9.5 -15.5 19.5 -15.5c11.333 0 17 7.33301 17 22c0 11.333 -0.333008 26 -1 44s-1 39.333 -1 64c0 22.667 0.666992 40.334 2 53.001
s2 21 2 25c0 7.33301 -1.66699 13 -5 17s-7.33301 6 -12 6c-5.33301 0 -9.33301 -1.66699 -12 -5s-5 -7.83301 -7 -13.5s-4.33301 -12.667 -7 -21s-7 -17.5 -13 -27.5c-5.33301 -8.66699 -14 -14.334 -26 -17.001s-28 -4 -48 -4c-15.333 0 -26.166 1.83301 -32.499 5.5
s-9.5 10.167 -9.5 19.5v143c0 17.333 4.5 30.833 13.5 40.5s27.833 14.5 56.5 14.5c40.667 0 69.667 -13 87 -39c12 -18.667 20.833 -33.667 26.5 -45s12.834 -17 21.501 -17c8 0 12.667 2.66699 14 8s2 12.666 2 21.999v103zM326.997 840.997c-15.333 0 -29 -6 -41 -18
s-18 -25.667 -18 -41c0 -16.667 5.66699 -30.667 17 -42s25.333 -17 42 -17c17.333 0 31.333 5.5 42 16.5s16 25.167 16 42.5c0 16 -5.66699 29.833 -17 41.5s-25 17.5 -41 17.5zM160.997 840.997c-15.333 0 -29 -6 -41 -18s-18 -25.667 -18 -41
c0 -16.667 5.66699 -30.667 17 -42s25.333 -17 42 -17c17.333 0 31.333 5.5 42 16.5s16 25.167 16 42.5c0 16 -5.66699 29.833 -17 41.5s-25 17.5 -41 17.5z" />
    <glyph glyph-name="Igrave" unicode="&#xcc;" horiz-adv-x="307" 
d="M220 541c0 17.333 2.83301 29.167 8.5 35.5s15.834 10.5 30.501 12.5c10 1.33301 16.833 3 20.5 5s5.5 6.66699 5.5 14c0 14.667 -6.33301 22 -19 22c-4 0 -15.167 -1.16699 -33.5 -3.5s-44.5 -3.5 -78.5 -3.5s-60.167 1.16699 -78.5 3.5s-29.5 3.5 -33.5 3.5
c-12.667 0 -19 -7 -19 -21c0 -9.33301 3 -14.833 9 -16.5s14.333 -3.5 25 -5.5c11.333 -2.66699 19.166 -7.5 23.499 -14.5s6.5 -17.833 6.5 -32.5v-453c0 -17.333 -2.5 -29 -7.5 -35s-14.167 -10.333 -27.5 -13c-10.667 -2 -18.167 -4 -22.5 -6s-6.5 -6.66699 -6.5 -14
c0 -14.667 6.33301 -22 19 -22c4.66699 0 16 1.33301 34 4s44 4 78 4s60 -1.33301 78 -4s29.333 -4 34 -4c12.667 0 19 7.66699 19 23c0 8 -2.5 12.667 -7.5 14s-13.167 3 -24.5 5c-12 2 -20.5 6.66699 -25.5 14s-7.5 18.333 -7.5 33v455zM124 840.001
c-10 13.333 -18.833 23.167 -26.5 29.5s-16.167 9.5 -25.5 9.5c-10 0 -18.333 -3.83301 -25 -11.5s-10 -18.5 -10 -32.5c0 -12.667 3 -22.5 9 -29.5s15 -14.5 27 -22.5l123 -81h35z" />
    <glyph glyph-name="Iacute" unicode="&#xcd;" horiz-adv-x="307" 
d="M220 541c0 17.333 2.83301 29.167 8.5 35.5s15.834 10.5 30.501 12.5c10 1.33301 16.833 3 20.5 5s5.5 6.66699 5.5 14c0 14.667 -6.33301 22 -19 22c-4 0 -15.167 -1.16699 -33.5 -3.5s-44.5 -3.5 -78.5 -3.5s-60.167 1.16699 -78.5 3.5s-29.5 3.5 -33.5 3.5
c-12.667 0 -19 -7 -19 -21c0 -9.33301 3 -14.833 9 -16.5s14.333 -3.5 25 -5.5c11.333 -2.66699 19.166 -7.5 23.499 -14.5s6.5 -17.833 6.5 -32.5v-453c0 -17.333 -2.5 -29 -7.5 -35s-14.167 -10.333 -27.5 -13c-10.667 -2 -18.167 -4 -22.5 -6s-6.5 -6.66699 -6.5 -14
c0 -14.667 6.33301 -22 19 -22c4.66699 0 16 1.33301 34 4s44 4 78 4s60 -1.33301 78 -4s29.333 -4 34 -4c12.667 0 19 7.66699 19 23c0 8 -2.5 12.667 -7.5 14s-13.167 3 -24.5 5c-12 2 -20.5 6.66699 -25.5 14s-7.5 18.333 -7.5 33v455zM237 783.001
c12 8 21 15.499 27 22.499s9 16.833 9 29.5c0 14 -3.33301 24.833 -10 32.5s-15 11.5 -25 11.5c-9.33301 0 -17.833 -3.16699 -25.5 -9.5s-16.5 -16.166 -26.5 -29.499l-107 -138h35z" />
    <glyph glyph-name="Icircumflex" unicode="&#xce;" horiz-adv-x="307" 
d="M220 541c0 17.333 2.83301 29.167 8.5 35.5s15.834 10.5 30.501 12.5c10 1.33301 16.833 3 20.5 5s5.5 6.66699 5.5 14c0 14.667 -6.33301 22 -19 22c-4 0 -15.167 -1.16699 -33.5 -3.5s-44.5 -3.5 -78.5 -3.5s-60.167 1.16699 -78.5 3.5s-29.5 3.5 -33.5 3.5
c-12.667 0 -19 -7 -19 -21c0 -9.33301 3 -14.833 9 -16.5s14.333 -3.5 25 -5.5c11.333 -2.66699 19.166 -7.5 23.499 -14.5s6.5 -17.833 6.5 -32.5v-453c0 -17.333 -2.5 -29 -7.5 -35s-14.167 -10.333 -27.5 -13c-10.667 -2 -18.167 -4 -22.5 -6s-6.5 -6.66699 -6.5 -14
c0 -14.667 6.33301 -22 19 -22c4.66699 0 16 1.33301 34 4s44 4 78 4s60 -1.33301 78 -4s29.333 -4 34 -4c12.667 0 19 7.66699 19 23c0 8 -2.5 12.667 -7.5 14s-13.167 3 -24.5 5c-12 2 -20.5 6.66699 -25.5 14s-7.5 18.333 -7.5 33v455zM126 872.001l-87 -170h32l84 88
l84 -88h32l-87 170h-58z" />
    <glyph glyph-name="Idieresis" unicode="&#xcf;" horiz-adv-x="307" 
d="M220 541c0 17.333 2.83301 29.167 8.5 35.5s15.834 10.5 30.501 12.5c10 1.33301 16.833 3 20.5 5s5.5 6.66699 5.5 14c0 14.667 -6.33301 22 -19 22c-4 0 -15.167 -1.16699 -33.5 -3.5s-44.5 -3.5 -78.5 -3.5s-60.167 1.16699 -78.5 3.5s-29.5 3.5 -33.5 3.5
c-12.667 0 -19 -7 -19 -21c0 -9.33301 3 -14.833 9 -16.5s14.333 -3.5 25 -5.5c11.333 -2.66699 19.166 -7.5 23.499 -14.5s6.5 -17.833 6.5 -32.5v-453c0 -17.333 -2.5 -29 -7.5 -35s-14.167 -10.333 -27.5 -13c-10.667 -2 -18.167 -4 -22.5 -6s-6.5 -6.66699 -6.5 -14
c0 -14.667 6.33301 -22 19 -22c4.66699 0 16 1.33301 34 4s44 4 78 4s60 -1.33301 78 -4s29.333 -4 34 -4c12.667 0 19 7.66699 19 23c0 8 -2.5 12.667 -7.5 14s-13.167 3 -24.5 5c-12 2 -20.5 6.66699 -25.5 14s-7.5 18.333 -7.5 33v455zM238 841.001
c-15.333 0 -29 -6 -41 -18s-18 -25.667 -18 -41c0 -16.667 5.66699 -30.667 17 -42s25.333 -17 42 -17c17.333 0 31.333 5.5 42 16.5s16 25.167 16 42.5c0 16 -5.66699 29.833 -17 41.5s-25 17.5 -41 17.5zM72 841.001c-15.333 0 -29 -6 -41 -18s-18 -25.667 -18 -41
c0 -16.667 5.66699 -30.667 17 -42s25.333 -17 42 -17c17.333 0 31.333 5.5 42 16.5s16 25.167 16 42.5c0 16 -5.66699 29.833 -17 41.5s-25 17.5 -41 17.5z" />
    <glyph glyph-name="Eth" unicode="&#xd0;" horiz-adv-x="627" 
d="M218 130v183h113v52h-113v183c0 8.66699 0.5 16.5 1.5 23.5s3.83301 13 8.5 18s11.167 8.66699 19.5 11s20.166 3.5 35.499 3.5c26 0 50 -6.5 72 -19.5s40.833 -31.667 56.5 -56s27.834 -54 36.501 -89s13 -74.5 13 -118.5c0 -45.333 -5 -85.5 -15 -120.5
s-23.333 -64.5 -40 -88.5s-36 -42.333 -58 -55s-45 -19 -69 -19c-25.333 0 -41.833 6.83301 -49.5 20.5s-11.5 37.5 -11.5 71.5zM87 87c0 -17.333 -2.5 -29.002 -7.5 -35.002s-14.167 -10.333 -27.5 -13c-10.667 -2 -18.167 -4 -22.5 -6s-6.5 -6.66699 -6.5 -14
c0 -14.667 6.33301 -22 19 -22c8 0 20 1.5 36 4.5s36.333 4.5 61 4.5c16 0 35 -1.66699 57 -5s47.667 -5 77 -5c50.667 0 96.334 8.33301 137.001 25s75.167 39.5 103.5 68.5s50 63 65 102s22.5 80.833 22.5 125.5c0 48.667 -7.83301 93.167 -23.5 133.5
s-38 74.833 -67 103.5s-64.667 50.834 -107 66.501s-89.833 23.5 -142.5 23.5c-35.333 0 -67.833 -1.66699 -97.5 -5s-55.334 -7.66602 -77.001 -12.999s-38.667 -11.5 -51 -18.5s-18.5 -14.167 -18.5 -21.5c0 -10.667 3.33301 -16 10 -16c6 0 11.667 0.5 17 1.5
s10 1.5 14 1.5c19.333 0 29 -12 29 -36v-172h-87v-52h87v-226z" />
    <glyph glyph-name="Ntilde" unicode="&#xd1;" horiz-adv-x="588" 
d="M506 484c0 32 1.66602 56.001 4.99902 72.001s10.666 26 21.999 30c6.66699 2.66699 12.834 4.33398 18.501 5.00098s10.334 1.5 14.001 2.5s6.5 2.5 8.5 4.5s3 5.66699 3 11c0 14.667 -7.33301 22 -22 22c-8 0 -15 -0.833008 -21 -2.5s-10.667 -2.5 -14 -2.5
c-1.33301 0 -4.66602 -0.166992 -9.99902 -0.5s-13.666 -0.5 -24.999 -0.5c-10.667 0 -18.834 0.166992 -24.501 0.5s-9.16699 0.5 -10.5 0.5c-4.66699 0 -10.5 0.833008 -17.5 2.5s-15.167 2.5 -24.5 2.5c-16.667 0 -25 -7.33301 -25 -22c0 -6 1.5 -10.167 4.5 -12.5
s7 -3.83301 12 -4.5s10.833 -1.33398 17.5 -2.00098s13.667 -2.66699 21 -6c11.333 -5.33301 18.833 -15.666 22.5 -30.999s5.5 -38.333 5.5 -69v-213c0 -9.33301 -2.66699 -14 -8 -14c-2.66699 0 -6 3 -10 9l-221 343c-5.33301 8 -9.66602 13.167 -12.999 15.5
s-9 3.5 -17 3.5c-4 0 -11.5 -0.333008 -22.5 -1s-25.167 -1 -42.5 -1c-29.333 0 -51.333 0.666992 -66 2s-23.334 2 -26.001 2c-12.667 0 -19 -7.33301 -19 -22c0 -6 1.33301 -10.167 4 -12.5s6.16699 -3.83301 10.5 -4.5s9 -1.16699 14 -1.5s9.83301 -1.5 14.5 -3.5
c9.33301 -4.66699 15.166 -13.334 17.499 -26.001s3.5 -30 3.5 -52v-363c0 -32 -1.66699 -56 -5 -72s-10.666 -26 -21.999 -30c-6.66699 -2.66699 -12.667 -4.33398 -18 -5.00098s-10 -1.33398 -14 -2.00098s-7 -2.16699 -9 -4.5s-3 -6.16602 -3 -11.499
c0 -14.667 7.33301 -22 22 -22c6 0 14.667 1 26 3s26 3 44 3s33.333 -1 46 -3s22.667 -3 30 -3c17.333 0 26 7.33301 26 22c0 6 -1.66699 10.167 -5 12.5s-7.66602 3.66602 -12.999 3.99902s-11.333 0.833008 -18 1.5s-13.334 2.66699 -20.001 6
c-11.333 5.33301 -18.666 15.833 -21.999 31.5s-5 38.834 -5 69.501v332c0 9.33301 1 14 3 14c2.66699 0 5.66699 -2 9 -6l299 -473c7.33301 -12 14.166 -21.833 20.499 -29.5s14.166 -11.5 23.499 -11.5c17.333 0 26 16 26 48v465zM380.999 859.001c-8 -28 -20 -42 -36 -42
c-4 0 -9 1 -15 3l-42 14c-7.33301 2.66699 -16 4 -26 4c-46 0 -73 -40.333 -81 -121h25c8 28.667 19.667 43 35 43c7.33301 0 15 -1.33301 23 -4l40 -13c6 -2 12.333 -3 19 -3c47.333 0 75.333 39.667 84 119h-26z" />
    <glyph glyph-name="Ograve" unicode="&#xd2;" horiz-adv-x="639" 
d="M322 648c-41.333 0 -80 -8.5 -116 -25.5s-67.333 -40.333 -94 -70s-47.667 -64.834 -63 -105.501s-23 -84.667 -23 -132s7.66699 -91.333 23 -132s36.333 -76 63 -106s57.5 -53.5 92.5 -70.5s72.5 -25.5 112.5 -25.5c41.333 0 80 8.5 116 25.5s67.333 40.5 94 70.5
s47.667 65.333 63 106s23 84.667 23 132s-7.66699 91.333 -23 132s-36.333 75.834 -63 105.501s-57.5 53 -92.5 70s-72.5 25.5 -112.5 25.5zM311 609c22 0 42.8311 -7.33594 62.498 -22.0029s36.834 -35.667 51.501 -63s26.334 -60.833 35.001 -100.5s13 -84.5 13 -134.5
c0 -43.333 -3.66699 -81.666 -11 -114.999s-17.5 -61.333 -30.5 -84s-28.5 -39.834 -46.5 -51.501s-37.333 -17.5 -58 -17.5c-22 0 -42.833 7.16699 -62.5 21.5s-36.834 35.333 -51.501 63s-26.167 61.334 -34.5 101.001s-12.5 84.834 -12.5 135.501
c0 42.667 3.66699 80.667 11 114s17.5 61.333 30.5 84s28.333 39.834 46 51.501s36.834 17.5 57.501 17.5zM288.998 839.997c-10 13.333 -18.833 23.167 -26.5 29.5s-16.167 9.5 -25.5 9.5c-10 0 -18.333 -3.83301 -25 -11.5s-10 -18.5 -10 -32.5c0 -12.667 3 -22.5 9 -29.5
s15 -14.5 27 -22.5l123 -81h35z" />
    <glyph glyph-name="Oacute" unicode="&#xd3;" horiz-adv-x="639" 
d="M322 648c-41.333 0 -80 -8.5 -116 -25.5s-67.333 -40.333 -94 -70s-47.667 -64.834 -63 -105.501s-23 -84.667 -23 -132s7.66699 -91.333 23 -132s36.333 -76 63 -106s57.5 -53.5 92.5 -70.5s72.5 -25.5 112.5 -25.5c41.333 0 80 8.5 116 25.5s67.333 40.5 94 70.5
s47.667 65.333 63 106s23 84.667 23 132s-7.66699 91.333 -23 132s-36.333 75.834 -63 105.501s-57.5 53 -92.5 70s-72.5 25.5 -112.5 25.5zM311 609c22 0 42.8311 -7.33594 62.498 -22.0029s36.834 -35.667 51.501 -63s26.334 -60.833 35.001 -100.5s13 -84.5 13 -134.5
c0 -43.333 -3.66699 -81.666 -11 -114.999s-17.5 -61.333 -30.5 -84s-28.5 -39.834 -46.5 -51.501s-37.333 -17.5 -58 -17.5c-22 0 -42.833 7.16699 -62.5 21.5s-36.834 35.333 -51.501 63s-26.167 61.334 -34.5 101.001s-12.5 84.834 -12.5 135.501
c0 42.667 3.66699 80.667 11 114s17.5 61.333 30.5 84s28.333 39.834 46 51.501s36.834 17.5 57.501 17.5zM401.998 782.997c12 8 21 15.499 27 22.499s9 16.833 9 29.5c0 14 -3.33301 24.833 -10 32.5s-15 11.5 -25 11.5c-9.33301 0 -17.833 -3.16699 -25.5 -9.5
s-16.5 -16.166 -26.5 -29.499l-107 -138h35z" />
    <glyph glyph-name="Ocircumflex" unicode="&#xd4;" horiz-adv-x="639" 
d="M322 648c-41.333 0 -80 -8.5 -116 -25.5s-67.333 -40.333 -94 -70s-47.667 -64.834 -63 -105.501s-23 -84.667 -23 -132s7.66699 -91.333 23 -132s36.333 -76 63 -106s57.5 -53.5 92.5 -70.5s72.5 -25.5 112.5 -25.5c41.333 0 80 8.5 116 25.5s67.333 40.5 94 70.5
s47.667 65.333 63 106s23 84.667 23 132s-7.66699 91.333 -23 132s-36.333 75.834 -63 105.501s-57.5 53 -92.5 70s-72.5 25.5 -112.5 25.5zM311 609c22 0 42.8311 -7.33594 62.498 -22.0029s36.834 -35.667 51.501 -63s26.334 -60.833 35.001 -100.5s13 -84.5 13 -134.5
c0 -43.333 -3.66699 -81.666 -11 -114.999s-17.5 -61.333 -30.5 -84s-28.5 -39.834 -46.5 -51.501s-37.333 -17.5 -58 -17.5c-22 0 -42.833 7.16699 -62.5 21.5s-36.834 35.333 -51.501 63s-26.167 61.334 -34.5 101.001s-12.5 84.834 -12.5 135.501
c0 42.667 3.66699 80.667 11 114s17.5 61.333 30.5 84s28.333 39.834 46 51.501s36.834 17.5 57.501 17.5zM290.998 871.997l-87 -170h32l84 88l84 -88h32l-87 170h-58z" />
    <glyph glyph-name="Otilde" unicode="&#xd5;" horiz-adv-x="639" 
d="M322 648c-41.333 0 -80 -8.5 -116 -25.5s-67.333 -40.333 -94 -70s-47.667 -64.834 -63 -105.501s-23 -84.667 -23 -132s7.66699 -91.333 23 -132s36.333 -76 63 -106s57.5 -53.5 92.5 -70.5s72.5 -25.5 112.5 -25.5c41.333 0 80 8.5 116 25.5s67.333 40.5 94 70.5
s47.667 65.333 63 106s23 84.667 23 132s-7.66699 91.333 -23 132s-36.333 75.834 -63 105.501s-57.5 53 -92.5 70s-72.5 25.5 -112.5 25.5zM311 609c22 0 42.8311 -7.33594 62.498 -22.0029s36.834 -35.667 51.501 -63s26.334 -60.833 35.001 -100.5s13 -84.5 13 -134.5
c0 -43.333 -3.66699 -81.666 -11 -114.999s-17.5 -61.333 -30.5 -84s-28.5 -39.834 -46.5 -51.501s-37.333 -17.5 -58 -17.5c-22 0 -42.833 7.16699 -62.5 21.5s-36.834 35.333 -51.501 63s-26.167 61.334 -34.5 101.001s-12.5 84.834 -12.5 135.501
c0 42.667 3.66699 80.667 11 114s17.5 61.333 30.5 84s28.333 39.834 46 51.501s36.834 17.5 57.501 17.5zM406.998 858.997c-8 -28 -20 -42 -36 -42c-4 0 -9 1 -15 3l-42 14c-7.33301 2.66699 -16 4 -26 4c-46 0 -73 -40.333 -81 -121h25c8 28.667 19.667 43 35 43
c7.33301 0 15 -1.33301 23 -4l40 -13c6 -2 12.333 -3 19 -3c47.333 0 75.333 39.667 84 119h-26z" />
    <glyph glyph-name="Odieresis" unicode="&#xd6;" horiz-adv-x="639" 
d="M322 648c-41.333 0 -80 -8.5 -116 -25.5s-67.333 -40.333 -94 -70s-47.667 -64.834 -63 -105.501s-23 -84.667 -23 -132s7.66699 -91.333 23 -132s36.333 -76 63 -106s57.5 -53.5 92.5 -70.5s72.5 -25.5 112.5 -25.5c41.333 0 80 8.5 116 25.5s67.333 40.5 94 70.5
s47.667 65.333 63 106s23 84.667 23 132s-7.66699 91.333 -23 132s-36.333 75.834 -63 105.501s-57.5 53 -92.5 70s-72.5 25.5 -112.5 25.5zM311 609c22 0 42.8311 -7.33594 62.498 -22.0029s36.834 -35.667 51.501 -63s26.334 -60.833 35.001 -100.5s13 -84.5 13 -134.5
c0 -43.333 -3.66699 -81.666 -11 -114.999s-17.5 -61.333 -30.5 -84s-28.5 -39.834 -46.5 -51.501s-37.333 -17.5 -58 -17.5c-22 0 -42.833 7.16699 -62.5 21.5s-36.834 35.333 -51.501 63s-26.167 61.334 -34.5 101.001s-12.5 84.834 -12.5 135.501
c0 42.667 3.66699 80.667 11 114s17.5 61.333 30.5 84s28.333 39.834 46 51.501s36.834 17.5 57.501 17.5zM402.998 840.997c-15.333 0 -29 -6 -41 -18s-18 -25.667 -18 -41c0 -16.667 5.66699 -30.667 17 -42s25.333 -17 42 -17c17.333 0 31.333 5.5 42 16.5
s16 25.167 16 42.5c0 16 -5.66699 29.833 -17 41.5s-25 17.5 -41 17.5zM236.998 840.997c-15.333 0 -29 -6 -41 -18s-18 -25.667 -18 -41c0 -16.667 5.66699 -30.667 17 -42s25.333 -17 42 -17c17.333 0 31.333 5.5 42 16.5s16 25.167 16 42.5
c0 16 -5.66699 29.833 -17 41.5s-25 17.5 -41 17.5z" />
    <glyph glyph-name="multiply" unicode="&#xd7;" horiz-adv-x="833" 
d="M421 356l-224 224l-57 -57l224 -225l-224 -224l57 -58l224 225l225 -225l57 58l-224 224l224 225l-57 57z" />
    <glyph glyph-name="Oslash" unicode="&#xd8;" horiz-adv-x="639" 
d="M508 736l-59.999 -120.999c-42 22 -85.667 33 -131 33c-40 0 -77.5 -8.5 -112.5 -25.5s-65.833 -40.333 -92.5 -70s-47.667 -64.834 -63 -105.501s-23 -84.667 -23 -132c0 -112.667 42.333 -205 127 -277l-80 -155h48l68 132c41.333 -22.667 85.333 -34 132 -34
c40 0 77.667 8.5 113 25.5s66.166 40.5 92.499 70.5s47.333 65.333 63 106s23.5 84.667 23.5 132c0 56.667 -11.5 109.5 -34.5 158.5s-54.5 88.167 -94.5 117.5l72 145h-48zM412.001 546.001l-210 -413c-13.333 32 -22.833 63.833 -28.5 95.5s-8.5 65.5 -8.5 101.5
c0 90 13.833 159 41.5 207s62.834 72 105.501 72c37.333 0 70.666 -21 99.999 -63zM437.001 500.001c13.333 -33.333 22.666 -67.166 27.999 -101.499s8 -70.5 8 -108.5c0 -44 -3.66699 -82.667 -11 -116s-17.5 -61.333 -30.5 -84s-28.5 -39.834 -46.5 -51.501
s-37.333 -17.5 -58 -17.5c-20 0 -38.667 5.33301 -56 16s-32.666 26.667 -45.999 48z" />
    <glyph glyph-name="Ugrave" unicode="&#xd9;" horiz-adv-x="592" 
d="M213 541c0 17.333 2.83008 29.1689 8.49707 35.502s15.834 10.5 30.501 12.5c10 1.33301 16.833 3 20.5 5s5.5 6.66699 5.5 14c0 14.667 -6.33301 22 -19 22c-4.66699 0 -15.667 -1.16699 -33 -3.5s-41.666 -3.5 -72.999 -3.5c-34 0 -60.167 1.16699 -78.5 3.5
s-29.5 3.5 -33.5 3.5c-12.667 0 -19 -7.33301 -19 -22c0 -8.66699 2.83301 -13.667 8.5 -15l25.5 -6c11.333 -2.66699 19.166 -7.5 23.499 -14.5s6.5 -17.833 6.5 -32.5v-339c0 -32 1.5 -59.833 4.5 -83.5s11.5 -45.167 25.5 -64.5
c19.333 -25.333 44.333 -43.666 75 -54.999s69 -17 115 -17c42 0 77.833 6.5 107.5 19.5s52.5 31.833 68.5 56.5c14.667 23.333 23.167 49.333 25.5 78s3.5 62.667 3.5 102v119c0 62.667 1 112.5 3 149.5s7.66699 61.167 17 72.5c4 4.66699 9.33301 7.5 16 8.5
s13 1.66699 19 2s11.167 1.83301 15.5 4.5s6.5 8 6.5 16c0 7.33301 -2 12.5 -6 15.5s-11 4.5 -21 4.5c-8.66699 0 -18.667 -0.666992 -30 -2s-23.666 -2 -36.999 -2c-16.667 0 -31 0.666992 -43 2s-21.667 2 -29 2c-18 0 -27 -6.66699 -27 -20c0 -8 2.16699 -13.333 6.5 -16
s9.5 -4.33398 15.5 -5.00098s12.167 -1.5 18.5 -2.5s11.5 -3.83301 15.5 -8.5c9.33301 -11.333 15.166 -35.333 17.499 -72s3.5 -86.334 3.5 -149.001v-123c0 -34.667 -1.16699 -64.334 -3.5 -89.001s-9.16602 -45.667 -20.499 -63c-24 -35.333 -61.333 -53 -112 -53
c-25.333 0 -45.833 4 -61.5 12s-28.167 19.833 -37.5 35.5s-15.666 35 -18.999 58s-5 49.833 -5 80.5v327zM288.997 840.003c-10 13.333 -18.833 23.167 -26.5 29.5s-16.167 9.5 -25.5 9.5c-10 0 -18.333 -3.83301 -25 -11.5s-10 -18.5 -10 -32.5c0 -12.667 3 -22.5 9 -29.5
s15 -14.5 27 -22.5l123 -81h35z" />
    <glyph glyph-name="Uacute" unicode="&#xda;" horiz-adv-x="592" 
d="M213 541c0 17.333 2.83008 29.1689 8.49707 35.502s15.834 10.5 30.501 12.5c10 1.33301 16.833 3 20.5 5s5.5 6.66699 5.5 14c0 14.667 -6.33301 22 -19 22c-4.66699 0 -15.667 -1.16699 -33 -3.5s-41.666 -3.5 -72.999 -3.5c-34 0 -60.167 1.16699 -78.5 3.5
s-29.5 3.5 -33.5 3.5c-12.667 0 -19 -7.33301 -19 -22c0 -8.66699 2.83301 -13.667 8.5 -15l25.5 -6c11.333 -2.66699 19.166 -7.5 23.499 -14.5s6.5 -17.833 6.5 -32.5v-339c0 -32 1.5 -59.833 4.5 -83.5s11.5 -45.167 25.5 -64.5
c19.333 -25.333 44.333 -43.666 75 -54.999s69 -17 115 -17c42 0 77.833 6.5 107.5 19.5s52.5 31.833 68.5 56.5c14.667 23.333 23.167 49.333 25.5 78s3.5 62.667 3.5 102v119c0 62.667 1 112.5 3 149.5s7.66699 61.167 17 72.5c4 4.66699 9.33301 7.5 16 8.5
s13 1.66699 19 2s11.167 1.83301 15.5 4.5s6.5 8 6.5 16c0 7.33301 -2 12.5 -6 15.5s-11 4.5 -21 4.5c-8.66699 0 -18.667 -0.666992 -30 -2s-23.666 -2 -36.999 -2c-16.667 0 -31 0.666992 -43 2s-21.667 2 -29 2c-18 0 -27 -6.66699 -27 -20c0 -8 2.16699 -13.333 6.5 -16
s9.5 -4.33398 15.5 -5.00098s12.167 -1.5 18.5 -2.5s11.5 -3.83301 15.5 -8.5c9.33301 -11.333 15.166 -35.333 17.499 -72s3.5 -86.334 3.5 -149.001v-123c0 -34.667 -1.16699 -64.334 -3.5 -89.001s-9.16602 -45.667 -20.499 -63c-24 -35.333 -61.333 -53 -112 -53
c-25.333 0 -45.833 4 -61.5 12s-28.167 19.833 -37.5 35.5s-15.666 35 -18.999 58s-5 49.833 -5 80.5v327zM401.997 783.003c12 8 21 15.499 27 22.499s9 16.833 9 29.5c0 14 -3.33301 24.833 -10 32.5s-15 11.5 -25 11.5c-9.33301 0 -17.833 -3.16699 -25.5 -9.5
s-16.5 -16.166 -26.5 -29.499l-107 -138h35z" />
    <glyph glyph-name="Ucircumflex" unicode="&#xdb;" horiz-adv-x="592" 
d="M213 541c0 17.333 2.83008 29.1689 8.49707 35.502s15.834 10.5 30.501 12.5c10 1.33301 16.833 3 20.5 5s5.5 6.66699 5.5 14c0 14.667 -6.33301 22 -19 22c-4.66699 0 -15.667 -1.16699 -33 -3.5s-41.666 -3.5 -72.999 -3.5c-34 0 -60.167 1.16699 -78.5 3.5
s-29.5 3.5 -33.5 3.5c-12.667 0 -19 -7.33301 -19 -22c0 -8.66699 2.83301 -13.667 8.5 -15l25.5 -6c11.333 -2.66699 19.166 -7.5 23.499 -14.5s6.5 -17.833 6.5 -32.5v-339c0 -32 1.5 -59.833 4.5 -83.5s11.5 -45.167 25.5 -64.5
c19.333 -25.333 44.333 -43.666 75 -54.999s69 -17 115 -17c42 0 77.833 6.5 107.5 19.5s52.5 31.833 68.5 56.5c14.667 23.333 23.167 49.333 25.5 78s3.5 62.667 3.5 102v119c0 62.667 1 112.5 3 149.5s7.66699 61.167 17 72.5c4 4.66699 9.33301 7.5 16 8.5
s13 1.66699 19 2s11.167 1.83301 15.5 4.5s6.5 8 6.5 16c0 7.33301 -2 12.5 -6 15.5s-11 4.5 -21 4.5c-8.66699 0 -18.667 -0.666992 -30 -2s-23.666 -2 -36.999 -2c-16.667 0 -31 0.666992 -43 2s-21.667 2 -29 2c-18 0 -27 -6.66699 -27 -20c0 -8 2.16699 -13.333 6.5 -16
s9.5 -4.33398 15.5 -5.00098s12.167 -1.5 18.5 -2.5s11.5 -3.83301 15.5 -8.5c9.33301 -11.333 15.166 -35.333 17.499 -72s3.5 -86.334 3.5 -149.001v-123c0 -34.667 -1.16699 -64.334 -3.5 -89.001s-9.16602 -45.667 -20.499 -63c-24 -35.333 -61.333 -53 -112 -53
c-25.333 0 -45.833 4 -61.5 12s-28.167 19.833 -37.5 35.5s-15.666 35 -18.999 58s-5 49.833 -5 80.5v327zM290.997 872.003l-87 -170h32l84 88l84 -88h32l-87 170h-58z" />
    <glyph glyph-name="Udieresis" unicode="&#xdc;" horiz-adv-x="592" 
d="M213 541c0 17.333 2.83008 29.1689 8.49707 35.502s15.834 10.5 30.501 12.5c10 1.33301 16.833 3 20.5 5s5.5 6.66699 5.5 14c0 14.667 -6.33301 22 -19 22c-4.66699 0 -15.667 -1.16699 -33 -3.5s-41.666 -3.5 -72.999 -3.5c-34 0 -60.167 1.16699 -78.5 3.5
s-29.5 3.5 -33.5 3.5c-12.667 0 -19 -7.33301 -19 -22c0 -8.66699 2.83301 -13.667 8.5 -15l25.5 -6c11.333 -2.66699 19.166 -7.5 23.499 -14.5s6.5 -17.833 6.5 -32.5v-339c0 -32 1.5 -59.833 4.5 -83.5s11.5 -45.167 25.5 -64.5
c19.333 -25.333 44.333 -43.666 75 -54.999s69 -17 115 -17c42 0 77.833 6.5 107.5 19.5s52.5 31.833 68.5 56.5c14.667 23.333 23.167 49.333 25.5 78s3.5 62.667 3.5 102v119c0 62.667 1 112.5 3 149.5s7.66699 61.167 17 72.5c4 4.66699 9.33301 7.5 16 8.5
s13 1.66699 19 2s11.167 1.83301 15.5 4.5s6.5 8 6.5 16c0 7.33301 -2 12.5 -6 15.5s-11 4.5 -21 4.5c-8.66699 0 -18.667 -0.666992 -30 -2s-23.666 -2 -36.999 -2c-16.667 0 -31 0.666992 -43 2s-21.667 2 -29 2c-18 0 -27 -6.66699 -27 -20c0 -8 2.16699 -13.333 6.5 -16
s9.5 -4.33398 15.5 -5.00098s12.167 -1.5 18.5 -2.5s11.5 -3.83301 15.5 -8.5c9.33301 -11.333 15.166 -35.333 17.499 -72s3.5 -86.334 3.5 -149.001v-123c0 -34.667 -1.16699 -64.334 -3.5 -89.001s-9.16602 -45.667 -20.499 -63c-24 -35.333 -61.333 -53 -112 -53
c-25.333 0 -45.833 4 -61.5 12s-28.167 19.833 -37.5 35.5s-15.666 35 -18.999 58s-5 49.833 -5 80.5v327zM402.997 841.003c-15.333 0 -29 -6 -41 -18s-18 -25.667 -18 -41c0 -16.667 5.66699 -30.667 17 -42s25.333 -17 42 -17c17.333 0 31.333 5.5 42 16.5
s16 25.167 16 42.5c0 16 -5.66699 29.833 -17 41.5s-25 17.5 -41 17.5zM236.997 841.003c-15.333 0 -29 -6 -41 -18s-18 -25.667 -18 -41c0 -16.667 5.66699 -30.667 17 -42s25.333 -17 42 -17c17.333 0 31.333 5.5 42 16.5s16 25.167 16 42.5
c0 16 -5.66699 29.833 -17 41.5s-25 17.5 -41 17.5z" />
    <glyph glyph-name="Yacute" unicode="&#xdd;" horiz-adv-x="495" 
d="M201 539c-5.33301 10 -8.00293 18 -8.00293 24c0 7.33301 2.66699 12.333 8 15s11 5 17 7s11.667 4.5 17 7.5s8 9.16699 8 18.5c0 12.667 -7 19 -21 19c-5.33301 0 -18.333 -1.16699 -39 -3.5s-49.667 -3.5 -87 -3.5c-34 0 -59.667 1.16699 -77 3.5
s-27.666 3.5 -30.999 3.5c-4.66699 0 -8.66699 -1.83301 -12 -5.5s-5 -8.5 -5 -14.5c0 -10.667 3 -17 9 -19s14 -5.66699 24 -11c10.667 -5.33301 18.667 -12.5 24 -21.5l18 -31.5l134 -249c2.66699 -4.66699 4.66699 -10.334 6 -17.001s2 -12.667 2 -18v-156
c0 -17.333 -2.5 -29 -7.5 -35s-14.167 -10.333 -27.5 -13c-10.667 -2 -18 -4 -22 -6s-6 -6.66699 -6 -14c0 -14.667 6.33301 -22 19 -22c5.33301 0 17 1.33301 35 4s43.667 4 77 4c34 0 60 -1.33301 78 -4s29.333 -4 34 -4c12.667 0 19 7.66699 19 23
c0 8.66699 -2.66699 13.5 -8 14.5l-25 4.5c-12 2 -20.333 6.66699 -25 14s-7 18.333 -7 33v188c0 12.667 2.66699 23.334 8 32.001l99 183c27.333 51.333 48 80.666 62 87.999c6 3.33301 11.167 5.83301 15.5 7.5s8.16602 3.33398 11.499 5.00098s5.83301 4 7.5 7
s2.5 7.16699 2.5 12.5c0 13.333 -7 20 -21 20c-5.33301 0 -13.5 -0.833008 -24.5 -2.5s-24.833 -2.5 -41.5 -2.5c-17.333 0 -32.166 0.833008 -44.499 2.5s-23.166 2.5 -32.499 2.5s-15.833 -1.5 -19.5 -4.5s-5.5 -8.16699 -5.5 -15.5c0 -8.66699 3 -14.5 9 -17.5
s12.667 -5.66699 20 -8s14 -5.66602 20 -9.99902s9 -11.833 9 -22.5c0 -5.33301 -1.33301 -12.833 -4 -22.5s-6.66699 -19.834 -12 -30.501l-67 -131c-3.33301 -6 -6.66602 -9 -9.99902 -9s-6.33301 3 -9 9zM330.997 783c12 8 21 15.499 27 22.499s9 16.833 9 29.5
c0 14 -3.33301 24.833 -10 32.5s-15 11.5 -25 11.5c-9.33301 0 -17.833 -3.16699 -25.5 -9.5s-16.5 -16.166 -26.5 -29.499l-107 -138h35z" />
    <glyph glyph-name="Thorn" unicode="&#xde;" horiz-adv-x="494" 
d="M220 540c0 18.667 3.33691 31.0029 10.0039 37.0029s15.667 9.66699 27 11s18.833 3.33301 22.5 6s5.5 7.66699 5.5 15c0 15.333 -10.667 23 -32 23c-2.66699 0 -12 -0.5 -28 -1.5s-39.667 -1.5 -71 -1.5c-30.667 0 -53.834 0.5 -69.501 1.5s-24.834 1.5 -27.501 1.5
c-22.667 0 -34 -7.66699 -34 -23c0 -8.66699 3 -13.834 9 -15.501s14.667 -3.83398 26 -6.50098s19 -7.5 23 -14.5s6 -17.833 6 -32.5v-453c0 -17.333 -2.5 -29 -7.5 -35s-14.167 -10.333 -27.5 -13c-10.667 -2 -18.167 -4 -22.5 -6s-6.5 -6.66699 -6.5 -14
c0 -14.667 6.33301 -22 19 -22c4.66699 0 16 1.33301 34 4s44 4 78 4s60 -1.33301 78 -4s29.333 -4 34 -4c12.667 0 19 7.66699 19 23c0 8 -2.5 12.667 -7.5 14s-13.167 3 -24.5 5c-12 2 -20.5 6.66699 -25.5 14s-7.5 18.333 -7.5 33v66c0 9.33301 2 14 6 14
c1.33301 0 2.66602 -0.333008 3.99902 -1l4 -2l52 -21c15.333 -6.66699 31.333 -10 48 -10c18 0 35.833 4.66699 53.5 14s33.167 22.666 46.5 39.999s24.166 38 32.499 62s12.5 51 12.5 81c0 56 -15.667 100.333 -47 133s-76 49 -134 49c-11.333 0 -21.5 -0.5 -30.5 -1.5
s-17.167 -1.5 -24.5 -1.5s-13 0.833008 -17 2.5s-6 6.16699 -6 13.5v16zM217.004 256.003v133.001c0 26 2.5 45.5 7.5 58.5s16.5 19.5 34.5 19.5c10.667 0 21.167 -3.16699 31.5 -9.5s19.5 -15.5 27.5 -27.5s14.333 -26.833 19 -44.5s7 -37.834 7 -60.501
c0 -42 -7.5 -74.333 -22.5 -97s-35.167 -34 -60.5 -34c-20.667 0 -33.167 5.5 -37.5 16.5s-6.5 26.167 -6.5 45.5z" />
    <glyph glyph-name="germandbls" unicode="&#xdf;" horiz-adv-x="533" 
d="M190 499c0 53.333 4.83105 92.8408 14.498 118.508s26.834 38.5 51.501 38.5c19.333 0 35.666 -10.667 48.999 -32s20 -51 20 -89c0 -22.667 -4 -41.334 -12 -56.001s-21 -27 -39 -37c-19.333 -10.667 -34 -23 -44 -37s-15 -33.333 -15 -58
c0 -16 2.33301 -30.167 7 -42.5s11.5 -23.5 20.5 -33.5s19.667 -19.333 32 -28s26.5 -17.334 42.5 -26.001c14.667 -8 28 -15.667 40 -23s22.167 -15.333 30.5 -24s14.833 -18.834 19.5 -30.501s7 -25.5 7 -41.5c0 -23.333 -5.33301 -41.333 -16 -54
s-25.334 -19 -44.001 -19s-33.834 5.66699 -45.501 17s-22.167 28.666 -31.5 51.999c-9.33301 24 -15.166 42.5 -17.499 55.5s-8.16602 19.5 -17.499 19.5c-10.667 0 -16 -10.667 -16 -32v-19c0 -15.333 -0.166992 -28 -0.5 -38s-0.5 -17.333 -0.5 -22v-13
c0 -7.33301 0.666992 -13 2 -17s5.33301 -8.33301 12 -13c13.333 -8.66699 28.5 -15.334 45.5 -20.001s35.5 -7 55.5 -7c52.667 0 94.667 16.167 126 48.5s47 76.166 47 131.499c0 42 -10.167 76.167 -30.5 102.5s-51.166 50.833 -92.499 73.5
c-25.333 14 -45.5 25.5 -60.5 34.5s-22.5 18.167 -22.5 27.5c0 10 5.66699 17.333 17 22s26.666 10 45.999 16c28.667 8.66699 49.667 21 63 37s20 39.667 20 71c0 20 -4 38.667 -12 56s-19.5 32.5 -34.5 45.5s-33.167 23.167 -54.5 30.5s-45.333 11 -72 11
c-30 0 -57.167 -5.66699 -81.5 -17s-45.333 -27 -63 -47s-31.834 -43.333 -42.501 -70s-17 -55.334 -19 -86.001l-3 -44c-0.666992 -5.33301 -2 -9.33301 -4 -12s-5 -5.33398 -9 -8.00098l-26 -16c-8 -5.33301 -14.167 -9.83301 -18.5 -13.5s-6.5 -8.16699 -6.5 -13.5
s1.83301 -10 5.5 -14s8.16699 -6 13.5 -6h32c7.33301 0 11 -4.66699 11 -14v-239c0 -16 -1.16699 -27.833 -3.5 -35.5s-8.16602 -13.834 -17.499 -18.501c-4 -2 -8.5 -3.16699 -13.5 -3.5s-9.5 -1 -13.5 -2s-7.33301 -2.66699 -10 -5s-4 -6.83301 -4 -13.5
c0 -5.33301 1.33301 -9.66602 4 -12.999s6.33398 -5 11.001 -5c3.33301 0 10.333 0.833008 21 2.5s25 2.5 43 2.5c16.667 0 30.834 -0.666992 42.501 -2s21.5 -2 29.5 -2c21.333 0 32 7 32 21v478z" />
    <glyph glyph-name="agrave" unicode="&#xe0;" horiz-adv-x="421" 
d="M357 301l0.00195312 43.0029c0 38 -12.833 67.333 -38.5 88s-61.5 31 -107.5 31c-24.667 0 -48.334 -4.5 -71.001 -13.5s-42.5 -20.167 -59.5 -33.5s-30.667 -28.333 -41 -45s-15.5 -32.334 -15.5 -47.001c0 -19.333 10 -29 30 -29c40 0 70 19.667 90 59l13.5 27
c4.33301 8.66699 8.66602 16.167 12.999 22.5s9.16602 11.5 14.499 15.5s11.666 6 18.999 6c20 0 30 -19.333 30 -58v-64c0 -12.667 -3.33301 -21 -10 -25l-80 -44c-20.667 -11.333 -38.667 -22.166 -54 -32.499s-28.166 -21.333 -38.499 -33s-18 -24.334 -23 -38.001
s-7.5 -29.5 -7.5 -47.5c0 -30 7.33301 -54.5 22 -73.5s34.667 -28.5 60 -28.5c16.667 0 36.334 6.33301 59.001 19s47.667 31.667 75 57h4c10 -26.667 19.5 -45.834 28.5 -57.501s22.167 -17.5 39.5 -17.5c14 0 27.5 3 40.5 9s24.667 13.167 35 21.5s18.5 17 24.5 26
s9 16.5 9 22.5c0 5.33301 -1.5 9.66602 -4.5 12.999s-5.5 5 -7.5 5c-3.33301 0 -7.5 -2.66699 -12.5 -8s-10.5 -8 -16.5 -8c-8.66699 0 -14.167 4.33301 -16.5 13s-3.5 22.667 -3.5 42v183zM234.002 226.003v-76c0 -28.667 -5.16699 -50 -15.5 -64s-24.833 -21 -43.5 -21
c-14 0 -25.167 5.33301 -33.5 16s-12.5 24.667 -12.5 42c0 34.667 20.667 65.667 62 93l28 18c3.33301 2.66699 6.33301 4 9 4c4 0 6 -4 6 -12zM181.002 655.003c-10 13.333 -18.833 23.167 -26.5 29.5s-16.167 9.5 -25.5 9.5c-10 0 -18.333 -3.83301 -25 -11.5
s-10 -18.5 -10 -32.5c0 -12.667 3 -22.5 9 -29.5s15 -14.5 27 -22.5l123 -81h35z" />
    <glyph glyph-name="aacute" unicode="&#xe1;" horiz-adv-x="421" 
d="M357 301l0.00195312 43.0029c0 38 -12.833 67.333 -38.5 88s-61.5 31 -107.5 31c-24.667 0 -48.334 -4.5 -71.001 -13.5s-42.5 -20.167 -59.5 -33.5s-30.667 -28.333 -41 -45s-15.5 -32.334 -15.5 -47.001c0 -19.333 10 -29 30 -29c40 0 70 19.667 90 59l13.5 27
c4.33301 8.66699 8.66602 16.167 12.999 22.5s9.16602 11.5 14.499 15.5s11.666 6 18.999 6c20 0 30 -19.333 30 -58v-64c0 -12.667 -3.33301 -21 -10 -25l-80 -44c-20.667 -11.333 -38.667 -22.166 -54 -32.499s-28.166 -21.333 -38.499 -33s-18 -24.334 -23 -38.001
s-7.5 -29.5 -7.5 -47.5c0 -30 7.33301 -54.5 22 -73.5s34.667 -28.5 60 -28.5c16.667 0 36.334 6.33301 59.001 19s47.667 31.667 75 57h4c10 -26.667 19.5 -45.834 28.5 -57.501s22.167 -17.5 39.5 -17.5c14 0 27.5 3 40.5 9s24.667 13.167 35 21.5s18.5 17 24.5 26
s9 16.5 9 22.5c0 5.33301 -1.5 9.66602 -4.5 12.999s-5.5 5 -7.5 5c-3.33301 0 -7.5 -2.66699 -12.5 -8s-10.5 -8 -16.5 -8c-8.66699 0 -14.167 4.33301 -16.5 13s-3.5 22.667 -3.5 42v183zM234.002 226.003v-76c0 -28.667 -5.16699 -50 -15.5 -64s-24.833 -21 -43.5 -21
c-14 0 -25.167 5.33301 -33.5 16s-12.5 24.667 -12.5 42c0 34.667 20.667 65.667 62 93l28 18c3.33301 2.66699 6.33301 4 9 4c4 0 6 -4 6 -12zM294.002 598.003c12 8 21 15.499 27 22.499s9 16.833 9 29.5c0 14 -3.33301 24.833 -10 32.5s-15 11.5 -25 11.5
c-9.33301 0 -17.833 -3.16699 -25.5 -9.5s-16.5 -16.166 -26.5 -29.499l-107 -138h35z" />
    <glyph glyph-name="acircumflex" unicode="&#xe2;" horiz-adv-x="421" 
d="M357 301l0.00195312 43.0029c0 38 -12.833 67.333 -38.5 88s-61.5 31 -107.5 31c-24.667 0 -48.334 -4.5 -71.001 -13.5s-42.5 -20.167 -59.5 -33.5s-30.667 -28.333 -41 -45s-15.5 -32.334 -15.5 -47.001c0 -19.333 10 -29 30 -29c40 0 70 19.667 90 59l13.5 27
c4.33301 8.66699 8.66602 16.167 12.999 22.5s9.16602 11.5 14.499 15.5s11.666 6 18.999 6c20 0 30 -19.333 30 -58v-64c0 -12.667 -3.33301 -21 -10 -25l-80 -44c-20.667 -11.333 -38.667 -22.166 -54 -32.499s-28.166 -21.333 -38.499 -33s-18 -24.334 -23 -38.001
s-7.5 -29.5 -7.5 -47.5c0 -30 7.33301 -54.5 22 -73.5s34.667 -28.5 60 -28.5c16.667 0 36.334 6.33301 59.001 19s47.667 31.667 75 57h4c10 -26.667 19.5 -45.834 28.5 -57.501s22.167 -17.5 39.5 -17.5c14 0 27.5 3 40.5 9s24.667 13.167 35 21.5s18.5 17 24.5 26
s9 16.5 9 22.5c0 5.33301 -1.5 9.66602 -4.5 12.999s-5.5 5 -7.5 5c-3.33301 0 -7.5 -2.66699 -12.5 -8s-10.5 -8 -16.5 -8c-8.66699 0 -14.167 4.33301 -16.5 13s-3.5 22.667 -3.5 42v183zM234.002 226.003v-76c0 -28.667 -5.16699 -50 -15.5 -64s-24.833 -21 -43.5 -21
c-14 0 -25.167 5.33301 -33.5 16s-12.5 24.667 -12.5 42c0 34.667 20.667 65.667 62 93l28 18c3.33301 2.66699 6.33301 4 9 4c4 0 6 -4 6 -12zM183.002 687.003l-87 -170h32l84 88l84 -88h32l-87 170h-58z" />
    <glyph glyph-name="atilde" unicode="&#xe3;" horiz-adv-x="421" 
d="M357 301l0.00195312 43.0029c0 38 -12.833 67.333 -38.5 88s-61.5 31 -107.5 31c-24.667 0 -48.334 -4.5 -71.001 -13.5s-42.5 -20.167 -59.5 -33.5s-30.667 -28.333 -41 -45s-15.5 -32.334 -15.5 -47.001c0 -19.333 10 -29 30 -29c40 0 70 19.667 90 59l13.5 27
c4.33301 8.66699 8.66602 16.167 12.999 22.5s9.16602 11.5 14.499 15.5s11.666 6 18.999 6c20 0 30 -19.333 30 -58v-64c0 -12.667 -3.33301 -21 -10 -25l-80 -44c-20.667 -11.333 -38.667 -22.166 -54 -32.499s-28.166 -21.333 -38.499 -33s-18 -24.334 -23 -38.001
s-7.5 -29.5 -7.5 -47.5c0 -30 7.33301 -54.5 22 -73.5s34.667 -28.5 60 -28.5c16.667 0 36.334 6.33301 59.001 19s47.667 31.667 75 57h4c10 -26.667 19.5 -45.834 28.5 -57.501s22.167 -17.5 39.5 -17.5c14 0 27.5 3 40.5 9s24.667 13.167 35 21.5s18.5 17 24.5 26
s9 16.5 9 22.5c0 5.33301 -1.5 9.66602 -4.5 12.999s-5.5 5 -7.5 5c-3.33301 0 -7.5 -2.66699 -12.5 -8s-10.5 -8 -16.5 -8c-8.66699 0 -14.167 4.33301 -16.5 13s-3.5 22.667 -3.5 42v183zM234.002 226.003v-76c0 -28.667 -5.16699 -50 -15.5 -64s-24.833 -21 -43.5 -21
c-14 0 -25.167 5.33301 -33.5 16s-12.5 24.667 -12.5 42c0 34.667 20.667 65.667 62 93l28 18c3.33301 2.66699 6.33301 4 9 4c4 0 6 -4 6 -12zM299.002 674.003c-8 -28 -20 -42 -36 -42c-4 0 -9 1 -15 3l-42 14c-7.33301 2.66699 -16 4 -26 4c-46 0 -73 -40.333 -81 -121
h25c8 28.667 19.667 43 35 43c7.33301 0 15 -1.33301 23 -4l40 -13c6 -2 12.333 -3 19 -3c47.333 0 75.333 39.667 84 119h-26z" />
    <glyph glyph-name="adieresis" unicode="&#xe4;" horiz-adv-x="421" 
d="M357 301l0.00195312 43.0029c0 38 -12.833 67.333 -38.5 88s-61.5 31 -107.5 31c-24.667 0 -48.334 -4.5 -71.001 -13.5s-42.5 -20.167 -59.5 -33.5s-30.667 -28.333 -41 -45s-15.5 -32.334 -15.5 -47.001c0 -19.333 10 -29 30 -29c40 0 70 19.667 90 59l13.5 27
c4.33301 8.66699 8.66602 16.167 12.999 22.5s9.16602 11.5 14.499 15.5s11.666 6 18.999 6c20 0 30 -19.333 30 -58v-64c0 -12.667 -3.33301 -21 -10 -25l-80 -44c-20.667 -11.333 -38.667 -22.166 -54 -32.499s-28.166 -21.333 -38.499 -33s-18 -24.334 -23 -38.001
s-7.5 -29.5 -7.5 -47.5c0 -30 7.33301 -54.5 22 -73.5s34.667 -28.5 60 -28.5c16.667 0 36.334 6.33301 59.001 19s47.667 31.667 75 57h4c10 -26.667 19.5 -45.834 28.5 -57.501s22.167 -17.5 39.5 -17.5c14 0 27.5 3 40.5 9s24.667 13.167 35 21.5s18.5 17 24.5 26
s9 16.5 9 22.5c0 5.33301 -1.5 9.66602 -4.5 12.999s-5.5 5 -7.5 5c-3.33301 0 -7.5 -2.66699 -12.5 -8s-10.5 -8 -16.5 -8c-8.66699 0 -14.167 4.33301 -16.5 13s-3.5 22.667 -3.5 42v183zM234.002 226.003v-76c0 -28.667 -5.16699 -50 -15.5 -64s-24.833 -21 -43.5 -21
c-14 0 -25.167 5.33301 -33.5 16s-12.5 24.667 -12.5 42c0 34.667 20.667 65.667 62 93l28 18c3.33301 2.66699 6.33301 4 9 4c4 0 6 -4 6 -12zM295.002 656.003c-15.333 0 -29 -6 -41 -18s-18 -25.667 -18 -41c0 -16.667 5.66699 -30.667 17 -42s25.333 -17 42 -17
c17.333 0 31.333 5.5 42 16.5s16 25.167 16 42.5c0 16 -5.66699 29.833 -17 41.5s-25 17.5 -41 17.5zM129.002 656.003c-15.333 0 -29 -6 -41 -18s-18 -25.667 -18 -41c0 -16.667 5.66699 -30.667 17 -42s25.333 -17 42 -17c17.333 0 31.333 5.5 42 16.5s16 25.167 16 42.5
c0 16 -5.66699 29.833 -17 41.5s-25 17.5 -41 17.5z" />
    <glyph glyph-name="aring" unicode="&#xe5;" horiz-adv-x="421" 
d="M210 742c-17.333 0 -33.334 -3.16699 -48.001 -9.5s-27.667 -15 -39 -26s-20.166 -24 -26.499 -39s-9.5 -31.167 -9.5 -48.5s3.16699 -33.5 9.5 -48.5s15 -28.167 26 -39.5s24 -20.166 39 -26.499s31.167 -9.5 48.5 -9.5s33.5 3.16699 48.5 9.5s28 15.166 39 26.499
s19.667 24.5 26 39.5s9.5 31.167 9.5 48.5s-3.16699 33.5 -9.5 48.5s-15 28 -26 39s-24 19.667 -39 26s-31.167 9.5 -48.5 9.5zM209.999 685c18 0 33.501 -6.50098 46.501 -19.501s19.5 -28.5 19.5 -46.5c0 -18.667 -6.33301 -34.334 -19 -47.001s-28.334 -19 -47.001 -19
s-34.167 6.33301 -46.5 19s-18.5 28.334 -18.5 47.001s6.16699 34.334 18.5 47.001s27.833 19 46.5 19zM357 300.999l0.00195312 43.0029c0 38 -12.833 67.333 -38.5 88s-61.5 31 -107.5 31c-24.667 0 -48.334 -4.5 -71.001 -13.5s-42.5 -20.167 -59.5 -33.5
s-30.667 -28.333 -41 -45s-15.5 -32.334 -15.5 -47.001c0 -19.333 10 -29 30 -29c40 0 70 19.667 90 59l13.5 27c4.33301 8.66699 8.66602 16.167 12.999 22.5s9.16602 11.5 14.499 15.5s11.666 6 18.999 6c20 0 30 -19.333 30 -58v-64c0 -12.667 -3.33301 -21 -10 -25
l-80 -44c-20.667 -11.333 -38.667 -22.166 -54 -32.499s-28.166 -21.333 -38.499 -33s-18 -24.334 -23 -38.001s-7.5 -29.5 -7.5 -47.5c0 -30 7.33301 -54.5 22 -73.5s34.667 -28.5 60 -28.5c16.667 0 36.334 6.33301 59.001 19s47.667 31.667 75 57h4
c10 -26.667 19.5 -45.834 28.5 -57.501s22.167 -17.5 39.5 -17.5c14 0 27.5 3 40.5 9s24.667 13.167 35 21.5s18.5 17 24.5 26s9 16.5 9 22.5c0 5.33301 -1.5 9.66602 -4.5 12.999s-5.5 5 -7.5 5c-3.33301 0 -7.5 -2.66699 -12.5 -8s-10.5 -8 -16.5 -8
c-8.66699 0 -14.167 4.33301 -16.5 13s-3.5 22.667 -3.5 42v183zM234.002 226.002v-76c0 -28.667 -5.16699 -50 -15.5 -64s-24.833 -21 -43.5 -21c-14 0 -25.167 5.33301 -33.5 16s-12.5 24.667 -12.5 42c0 34.667 20.667 65.667 62 93l28 18c3.33301 2.66699 6.33301 4 9 4
c4 0 6 -4 6 -12z" />
    <glyph glyph-name="ae" unicode="&#xe6;" horiz-adv-x="645" 
d="M295 429c-14 12 -28.3301 20.668 -42.9971 26.001s-31.334 8 -50.001 8c-22.667 0 -44.667 -4.83301 -66 -14.5s-40.333 -21.5 -57 -35.5s-30 -29 -40 -45s-15 -30.333 -15 -43c0 -20 10.667 -30 32 -30c42 0 73.333 19.333 94 58l14.5 28
c4.33301 8.66699 8.83301 16.167 13.5 22.5s9.83398 11.5 15.501 15.5s12.5 6 20.5 6c13.333 0 22 -6.33301 26 -19s6 -33 6 -61v-69c0 -10.667 -3.33301 -17.667 -10 -21l-37 -19l-75 -40.5c-22 -12.333 -40.5 -24.666 -55.5 -36.999s-26.5 -25.333 -34.5 -39
s-12 -28.834 -12 -45.501c0 -28 10.667 -50.5 32 -67.5s51.666 -25.5 90.999 -25.5c58.667 0 111.667 25.667 159 77h6c30 -51.333 75 -77 135 -77c24 0 46.667 4.16699 68 12.5s39.833 18.166 55.5 29.499s28.167 22.833 37.5 34.5s14 21.167 14 28.5
c0 4.66699 -1.33301 8.66699 -4 12s-6 5 -10 5c-4.66699 0 -9.83398 -2.66699 -15.501 -8s-12.5 -11.166 -20.5 -17.499s-17.5 -12.166 -28.5 -17.499s-24.5 -8 -40.5 -8c-39.333 0 -71.5 16 -96.5 48s-37.5 74.667 -37.5 128v30c0 9.33301 4 14 12 14h207
c12.667 0 21.834 2.16699 27.501 6.5s8.5 12.166 8.5 23.499c0 21.333 -3.83301 41.666 -11.5 60.999s-18.834 36.5 -33.501 51.5s-32.334 26.833 -53.001 35.5s-44 13 -70 13c-20 0 -38.333 -2.66699 -55 -8s-32.667 -14 -48 -26l-19 -16c-2.66699 -2.66699 -6 -4 -10 -4
c-2 0 -4.66699 1.66699 -8 5zM436.003 312.001l-54 0.00195312c-6.66699 0 -10 2.66699 -10 8l1 20c0.666992 10 3.16699 20.167 7.5 30.5s10 19.666 17 27.999s15.167 15.166 24.5 20.499s19.666 8 30.999 8c16.667 0 30.5 -6 41.5 -18s16.5 -28.333 16.5 -49
c0 -18 -6.16699 -30.5 -18.5 -37.5s-31.166 -10.5 -56.499 -10.5zM246.003 202.003l-0.000976562 -68c0 -40 -5.66699 -69.333 -17 -88s-23.666 -28 -36.999 -28c-14.667 0 -25.834 7 -33.501 21s-11.5 32.667 -11.5 56c0 26 5.33301 48 16 66s28.667 32.667 54 44l18 8
c2.66699 1.33301 4.33398 2 5.00098 2c4 0 6 -4.33301 6 -13z" />
    <glyph glyph-name="ccedilla" unicode="&#xe7;" horiz-adv-x="406" 
d="M243 463c-33.333 0 -63.6699 -5.82812 -91.0029 -17.4951s-50.666 -28 -69.999 -49s-34.166 -46.333 -44.499 -76s-15.5 -62.5 -15.5 -98.5s5.16699 -68.833 15.5 -98.5s24.833 -55.167 43.5 -76.5s40.5 -37.833 65.5 -49.5s52.167 -17.5 81.5 -17.5
c21.333 0 41.666 3.66699 60.999 11s36.166 16.166 50.499 26.499s25.833 20.833 34.5 31.5s13 19 13 25c0 10.667 -4.66699 16 -14 16c-3.33301 0 -7.33301 -2 -12 -6s-10.5 -8.5 -17.5 -13.5s-15.167 -9.5 -24.5 -13.5s-20.333 -6 -33 -6c-19.333 0 -37.666 5 -54.999 15
s-32.333 23.667 -45 41s-22.667 38.166 -30 62.499s-11 51.166 -11 80.499c0 27.333 3.16699 51.833 9.5 73.5s14.333 40.167 24 55.5s20.334 27.166 32.001 35.499s22.834 12.5 33.501 12.5c6.66699 0 12.167 -1.83301 16.5 -5.5s8.33301 -8.66699 12 -15
s7.33398 -14 11.001 -23s8.16699 -18.833 13.5 -29.5c8.66699 -17.333 16.5 -30.5 23.5 -39.5s14.833 -13.5 23.5 -13.5c10.667 0 19.167 9.16699 25.5 27.5s9.5 41.166 9.5 68.499c0 8.66699 -3.5 17 -10.5 25s-16.667 15 -29 21s-26.833 10.833 -43.5 14.5
s-34.334 5.5 -53.001 5.5zM188.996 0.00488281v-96.999c5.33301 1.33301 10 2.33301 14 3s7.33301 1 10 1c26 0 39 -13.333 39 -40c0 -28.667 -12.667 -43 -38 -43c-16 0 -31.167 3.16699 -45.5 9.5s-30.166 15.166 -47.499 26.499l-16 -43
c23.333 -12 44.666 -21.667 63.999 -29s38 -11 56 -11c28.667 0 50.667 7.66699 66 23s23 37 23 65c0 25.333 -6.66699 45.5 -20 60.5s-30 22.5 -50 22.5c-6 0 -15.333 -1 -28 -3v55h-27z" />
    <glyph glyph-name="egrave" unicode="&#xe8;" horiz-adv-x="432" 
d="M222 312h-52c-7.33301 0 -11 2.33301 -11 7v2l2 17c3.33301 29.333 12.5 51.5 27.5 66.5s32.167 22.5 51.5 22.5c16.667 0 30.5 -6 41.5 -18s16.5 -28 16.5 -48c0 -18.667 -6.33301 -31.5 -19 -38.5s-31.667 -10.5 -57 -10.5zM372 272
c12.667 0 21.835 2.16797 27.502 6.50098s8.5 12.166 8.5 23.499c0 21.333 -3.83301 41.666 -11.5 60.999s-18.834 36.5 -33.501 51.5s-32.334 26.833 -53.001 35.5s-44 13 -70 13c-32.667 0 -62.334 -5.83301 -89.001 -17.5s-49.5 -28 -68.5 -49s-33.833 -46.333 -44.5 -76
s-16 -62.5 -16 -98.5c0 -35.333 5.16699 -67.833 15.5 -97.5s24.666 -55.167 42.999 -76.5s40.333 -37.833 66 -49.5s53.5 -17.5 83.5 -17.5c26 0 49.833 4.33301 71.5 13s40.334 18.667 56.001 30s27.834 22.833 36.501 34.5s13 20.5 13 26.5
c0 5.33301 -1.5 9.66602 -4.5 12.999s-6.5 5 -10.5 5c-4.66699 0 -9.66699 -2.66699 -15 -8s-12 -11.166 -20 -17.499s-17.5 -12.166 -28.5 -17.499s-24.5 -8 -40.5 -8c-19.333 0 -37.333 4.16699 -54 12.5s-31 20.166 -43 35.499s-21.333 33.833 -28 55.5
s-10 45.834 -10 72.501v26c0 12 5.33301 18 16 18h203zM207.001 655.001c-10 13.333 -18.833 23.167 -26.5 29.5s-16.167 9.5 -25.5 9.5c-10 0 -18.333 -3.83301 -25 -11.5s-10 -18.5 -10 -32.5c0 -12.667 3 -22.5 9 -29.5s15 -14.5 27 -22.5l123 -81h35z" />
    <glyph glyph-name="eacute" unicode="&#xe9;" horiz-adv-x="432" 
d="M222 312h-52c-7.33301 0 -11 2.33301 -11 7v2l2 17c3.33301 29.333 12.5 51.5 27.5 66.5s32.167 22.5 51.5 22.5c16.667 0 30.5 -6 41.5 -18s16.5 -28 16.5 -48c0 -18.667 -6.33301 -31.5 -19 -38.5s-31.667 -10.5 -57 -10.5zM372 272
c12.667 0 21.835 2.16797 27.502 6.50098s8.5 12.166 8.5 23.499c0 21.333 -3.83301 41.666 -11.5 60.999s-18.834 36.5 -33.501 51.5s-32.334 26.833 -53.001 35.5s-44 13 -70 13c-32.667 0 -62.334 -5.83301 -89.001 -17.5s-49.5 -28 -68.5 -49s-33.833 -46.333 -44.5 -76
s-16 -62.5 -16 -98.5c0 -35.333 5.16699 -67.833 15.5 -97.5s24.666 -55.167 42.999 -76.5s40.333 -37.833 66 -49.5s53.5 -17.5 83.5 -17.5c26 0 49.833 4.33301 71.5 13s40.334 18.667 56.001 30s27.834 22.833 36.501 34.5s13 20.5 13 26.5
c0 5.33301 -1.5 9.66602 -4.5 12.999s-6.5 5 -10.5 5c-4.66699 0 -9.66699 -2.66699 -15 -8s-12 -11.166 -20 -17.499s-17.5 -12.166 -28.5 -17.499s-24.5 -8 -40.5 -8c-19.333 0 -37.333 4.16699 -54 12.5s-31 20.166 -43 35.499s-21.333 33.833 -28 55.5
s-10 45.834 -10 72.501v26c0 12 5.33301 18 16 18h203zM320.001 598.001c12 8 21 15.499 27 22.499s9 16.833 9 29.5c0 14 -3.33301 24.833 -10 32.5s-15 11.5 -25 11.5c-9.33301 0 -17.833 -3.16699 -25.5 -9.5s-16.5 -16.166 -26.5 -29.499l-107 -138h35z" />
    <glyph glyph-name="ecircumflex" unicode="&#xea;" horiz-adv-x="432" 
d="M222 312h-52c-7.33301 0 -11 2.33301 -11 7v2l2 17c3.33301 29.333 12.5 51.5 27.5 66.5s32.167 22.5 51.5 22.5c16.667 0 30.5 -6 41.5 -18s16.5 -28 16.5 -48c0 -18.667 -6.33301 -31.5 -19 -38.5s-31.667 -10.5 -57 -10.5zM372 272
c12.667 0 21.835 2.16797 27.502 6.50098s8.5 12.166 8.5 23.499c0 21.333 -3.83301 41.666 -11.5 60.999s-18.834 36.5 -33.501 51.5s-32.334 26.833 -53.001 35.5s-44 13 -70 13c-32.667 0 -62.334 -5.83301 -89.001 -17.5s-49.5 -28 -68.5 -49s-33.833 -46.333 -44.5 -76
s-16 -62.5 -16 -98.5c0 -35.333 5.16699 -67.833 15.5 -97.5s24.666 -55.167 42.999 -76.5s40.333 -37.833 66 -49.5s53.5 -17.5 83.5 -17.5c26 0 49.833 4.33301 71.5 13s40.334 18.667 56.001 30s27.834 22.833 36.501 34.5s13 20.5 13 26.5
c0 5.33301 -1.5 9.66602 -4.5 12.999s-6.5 5 -10.5 5c-4.66699 0 -9.66699 -2.66699 -15 -8s-12 -11.166 -20 -17.499s-17.5 -12.166 -28.5 -17.499s-24.5 -8 -40.5 -8c-19.333 0 -37.333 4.16699 -54 12.5s-31 20.166 -43 35.499s-21.333 33.833 -28 55.5
s-10 45.834 -10 72.501v26c0 12 5.33301 18 16 18h203zM209.001 687.001l-87 -170h32l84 88l84 -88h32l-87 170h-58z" />
    <glyph glyph-name="edieresis" unicode="&#xeb;" horiz-adv-x="432" 
d="M222 312h-52c-7.33301 0 -11 2.33301 -11 7v2l2 17c3.33301 29.333 12.5 51.5 27.5 66.5s32.167 22.5 51.5 22.5c16.667 0 30.5 -6 41.5 -18s16.5 -28 16.5 -48c0 -18.667 -6.33301 -31.5 -19 -38.5s-31.667 -10.5 -57 -10.5zM372 272
c12.667 0 21.835 2.16797 27.502 6.50098s8.5 12.166 8.5 23.499c0 21.333 -3.83301 41.666 -11.5 60.999s-18.834 36.5 -33.501 51.5s-32.334 26.833 -53.001 35.5s-44 13 -70 13c-32.667 0 -62.334 -5.83301 -89.001 -17.5s-49.5 -28 -68.5 -49s-33.833 -46.333 -44.5 -76
s-16 -62.5 -16 -98.5c0 -35.333 5.16699 -67.833 15.5 -97.5s24.666 -55.167 42.999 -76.5s40.333 -37.833 66 -49.5s53.5 -17.5 83.5 -17.5c26 0 49.833 4.33301 71.5 13s40.334 18.667 56.001 30s27.834 22.833 36.501 34.5s13 20.5 13 26.5
c0 5.33301 -1.5 9.66602 -4.5 12.999s-6.5 5 -10.5 5c-4.66699 0 -9.66699 -2.66699 -15 -8s-12 -11.166 -20 -17.499s-17.5 -12.166 -28.5 -17.499s-24.5 -8 -40.5 -8c-19.333 0 -37.333 4.16699 -54 12.5s-31 20.166 -43 35.499s-21.333 33.833 -28 55.5
s-10 45.834 -10 72.501v26c0 12 5.33301 18 16 18h203zM321.001 656.001c-15.333 0 -29 -6 -41 -18s-18 -25.667 -18 -41c0 -16.667 5.66699 -30.667 17 -42s25.333 -17 42 -17c17.333 0 31.333 5.5 42 16.5s16 25.167 16 42.5c0 16 -5.66699 29.833 -17 41.5
s-25 17.5 -41 17.5zM155.001 656.001c-15.333 0 -29 -6 -41 -18s-18 -25.667 -18 -41c0 -16.667 5.66699 -30.667 17 -42s25.333 -17 42 -17c17.333 0 31.333 5.5 42 16.5s16 25.167 16 42.5c0 16 -5.66699 29.833 -17 41.5s-25 17.5 -41 17.5z" />
    </font>
</defs>
</svg>
