<?xml version="1.0" standalone="no"?>
<!DOCTYPE svg PUBLIC "-//W3C//DTD SVG 1.1//EN" "http://www.w3.org/Graphics/SVG/1.1/DTD/svg11.dtd" >
<svg>
<metadata>
Created by FontForge 20090914 at Tue Jul 23 11:29:59 2013
 By www-data
Typeface: URW Software, Copyright (c) 1995 by URW. Data: Copyright (c) 1995 Microsoft Corporation. All rights reserved.
</metadata>
<defs>
<font id="VladimirScript" horiz-adv-x="1024" >
  <font-face 
    font-family="Vladimir Script"
    font-weight="400"
    font-stretch="normal"
    units-per-em="2048"
    panose-1="3 5 4 2 4 4 7 7 3 5"
    ascent="1638"
    descent="-410"
    x-height="545.001"
    cap-height="1393"
    bbox="-471 -638.995 2865 1843"
    underline-thickness="119"
    underline-position="-158"
    unicode-range="U+0020-U+F002"
  />
<missing-glyph 
d="M128 0v1843h768v-1843h-768zM256 128h512v1587h-512v-1587z" />
    <glyph glyph-name=".notdef" 
d="M128 0v1843h768v-1843h-768zM256 128h512v1587h-512v-1587z" />
    <glyph glyph-name="space" unicode=" " horiz-adv-x="512" 
 />
    <glyph glyph-name="exclam" unicode="!" horiz-adv-x="487" 
d="M204 214c-14 0 -21 9.33301 -21 28c0 14.667 12.667 40 38 76c38 54 160.333 202.667 367 446c232 273.333 360.667 410 386 410c20.667 0 31 -13 31 -39c0 -58.667 -259.667 -362 -779 -910c-6.66699 -7.33301 -14 -11 -22 -11zM65 -10c-32 0 -48 16.333 -48 49
c0 27.333 12.833 55 38.5 83s52.167 42 79.5 42c34 0 51 -16.333 51 -49c0 -26.667 -13.5 -54.167 -40.5 -82.5s-53.833 -42.5 -80.5 -42.5z" />
    <glyph glyph-name="quotedbl" unicode="&#x22;" horiz-adv-x="514" 
d="M581 919c-18.667 0 -28 5 -28 15c0 22.667 29 73.667 87 153c60 82.667 102.667 124 128 124c28 0 42 -8.33301 42 -25c0 -6.66699 -6.66699 -18.667 -20 -36l-88 -120c-58.667 -74 -99 -111 -121 -111zM838 919c-18.667 0 -27.999 5 -27.999 15
c0 21.333 29.333 72 88 152c60 83.333 102.333 125 127 125c28 0 42 -8.33301 42 -25c0 -6.66699 -6.66699 -18.667 -20 -36c-48.667 -65.333 -106.334 -138 -173.001 -218c-10.667 -8.66699 -22.667 -13 -36 -13z" />
    <glyph glyph-name="numbersign" unicode="#" horiz-adv-x="948" 
d="M693 714l194.001 8.00195l103 134c51.333 66.667 85 100 101 100c12 0 18 -5.66699 18 -17c0 -16 -50.667 -87.333 -152 -214l66 2c28 0 42 -6.66699 42 -20c0 -27.333 -21.333 -43.333 -64 -48l-87 2l-126 -186l67 1c31.333 0.666992 47 -8.33301 47 -27
c0 -28 -53 -41.667 -159 -41l-233 -359c-19.333 -29.333 -34 -44 -44 -44c-14.667 0 -22 7.66699 -22 23c0 12 26.333 59.333 79 142l151 237l-201 -3c-69.333 -98.667 -146.333 -218.667 -231 -360c-21.333 -35.333 -40 -53 -56 -53c-10.667 0 -16 6 -16 18
c0 33.333 77.667 164.666 233 393.999l-90 -1c-30.667 -0.666992 -46 5 -46 17c0 25.333 59 40.666 177 45.999l131 189c-11.333 0 -30.333 -0.666992 -57 -2l-56 -1c-28 0 -42 7.33301 -42 22c0 18 31 29.667 93 35l103 3l103 137c55.333 73.333 91.666 110 108.999 110
c12.667 0 19 -6 19 -18c0 -8.66699 -51.333 -84 -154 -226zM651.001 656.002l-133 -188l200 6l125 186z" />
    <glyph glyph-name="dollar" unicode="$" horiz-adv-x="949" 
d="M934 842c61.333 -3.33301 91.999 -35.002 91.999 -95.002c0 -27.333 -18.667 -52.333 -56 -75c-33.333 -20.667 -64.666 -31 -93.999 -31c-21.333 0 -32 9 -32 27c0 4 18.5 10.333 55.5 19s55.5 20.667 55.5 36c0 16 -25.667 24 -77 24c-56 0 -125 -15 -207 -45
c-97.333 -35.333 -146 -74.666 -146 -117.999c0 -28.667 25.333 -43 76 -43c18 0 45.167 1 81.5 3s63.5 3 81.5 3c62.667 0 94 -36.333 94 -109c0 -59.333 -45.333 -124.166 -136 -194.499s-197.334 -107.5 -320.001 -111.5c-96.667 -154 -158 -231 -184 -231
c-16 0 -24 7 -24 21c0 8 50 81.333 150 220c-100 14 -150 56.667 -150 128c0 26.667 18 52 54 76c33.333 21.333 64.333 32 93 32c14 0 21 -7 21 -21c0 -12.667 -17.167 -25.5 -51.5 -38.5s-51.5 -26.167 -51.5 -39.5c0 -30.667 37.667 -46 113 -46
c62 0 125.667 13.333 191 40c68 28 121.667 64.333 161 109c32.667 38 49 66.667 49 86c0 16.667 -13.667 24 -41 22l-149 -11c-34 0 -63.833 11.833 -89.5 35.5s-38.5 52.5 -38.5 86.5c0 51.333 36.5 102.833 109.5 154.5s174.833 81.167 305.5 88.5
c80 97.333 125.667 146 137 146c14.667 0 24.334 -7 29.001 -21c-22.667 -32 -56.667 -74.333 -102 -127z" />
    <glyph glyph-name="percent" unicode="%" horiz-adv-x="1079" 
d="M808 887h21c107.333 0 303.333 57.667 588 173c11.333 4.66699 20.666 7 27.999 7c20 0 30 -10.333 30 -31c0 -26 -94.667 -101.667 -284 -227l-437 -289c-284 -190 -511.667 -353 -683 -489c-35.333 -28 -56.333 -42 -63 -42c-8.66699 0 -17.334 5.66699 -26.001 17
s-13 21.333 -13 30c0 68.667 420.333 370.667 1261 906c-185.333 -63.333 -336.666 -95 -453.999 -95c-76 -83.333 -145 -125 -207 -125c-29.333 0 -53.666 10.5 -72.999 31.5s-29 46.167 -29 75.5c0 69.333 43.333 141.333 130 216c84 72.667 161.333 109 232 109
c44.667 0 67 -25.667 67 -77c0 -54.667 -29.333 -118 -88 -190zM764 892c60.667 59.333 91 110 91 152c0 19.333 -8 29 -24 29c-26 0 -53.5 -13.667 -82.5 -41s-43.5 -54 -43.5 -80c0 -34.667 19.667 -54.667 59 -60zM672 986c-89.333 -63.333 -134 -123.667 -134 -181
c0 -30 13.667 -45 41 -45c42 0 93.667 31.667 155 95c-44.667 19.333 -67 50 -67 92c0 9.33301 1.66699 22.333 5 39zM629 -15.001c-29.333 0 -54.334 9 -75.001 27s-31 41.667 -31 71c0 53.333 25 111.666 75 174.999c44.667 58 93.334 101.333 146.001 130
c60.667 33.333 104 50 130 50c28 0 50.333 -12.333 67 -37c14.667 -22 22 -47.667 22 -77c0 -61.333 -40.333 -133.166 -121 -215.499s-151.667 -123.5 -213 -123.5zM890.999 344.999c-44 0 -105.5 -34.167 -184.5 -102.5s-118.5 -123.833 -118.5 -166.5
c0 -27.333 17 -41 51 -41c50.667 0 110 33.5 178 100.5s102 125.167 102 174.5c0 23.333 -9.33301 35 -28 35z" />
    <glyph glyph-name="ampersand" unicode="&#x26;" horiz-adv-x="1054" 
d="M651 307c129.333 11.333 221 17.002 275 17.002c80 0 120 -13 120 -39c0 -8.66699 -22.667 -13 -68 -13c-108 0 -236.667 -10.667 -386 -32l-105 -133c-69.333 -85.333 -108.333 -128.333 -117 -129c-20.667 7.33301 -31 20.666 -31 39.999c0 20 49.667 91 149 213
c-62 -6.66699 -115 -10 -159 -10c-114 0 -171 33.333 -171 100c0 66 39.667 128.667 119 188c74 56 145.667 84 215 84c96 0 144 -46.667 144 -140c0 -12.667 -1 -26.334 -3 -41.001l199 238c28 33.333 51 50 69 50c22 0 33 -11.333 33 -34
c0 -34 -94.333 -153.667 -283 -359zM540 299.002c39.333 58 58.999 108.667 58.999 152c0 47.333 -26.333 71 -79 71c-45.333 0 -107.666 -23.333 -186.999 -70c-85.333 -49.333 -128 -93.333 -128 -132c0 -30 40.667 -45 122 -45c55.333 0 126.333 8 213 24z" />
    <glyph glyph-name="quotesingle" unicode="'" horiz-adv-x="257" 
d="M581 919c-18.667 0 -28 5 -28 15c0 22.667 29 73.667 87 153c60 82.667 102.667 124 128 124c28 0 42 -8.33301 42 -25c0 -6.66699 -6.66699 -18.667 -20 -36l-88 -120c-58.667 -74 -99 -111 -121 -111z" />
    <glyph glyph-name="parenleft" unicode="(" horiz-adv-x="628" 
d="M1560 1470c0 -12.667 -12.667 -24.668 -38 -36.001c-90 -41.333 -209.667 -115 -359 -221c-165.333 -117.333 -352.333 -287.666 -561 -510.999s-373.334 -425.666 -494.001 -606.999l-113 -169c-42.667 -67.333 -73.667 -126.833 -93 -178.5
s-34.666 -77.5 -45.999 -77.5c-16 0 -24 11.333 -24 34c0 46 61 171.667 183 377c135.333 227.333 301 446 497 656c204.667 219.333 413 397.666 625 534.999c224.667 145.333 358.667 218 402 218c14 0 21 -6.66699 21 -20z" />
    <glyph glyph-name="parenright" unicode=")" horiz-adv-x="628" 
d="M1283 1459c0 -52.667 -60 -178.667 -180 -378c-123.333 -205.333 -303 -432 -539 -680c-246.667 -259.333 -465.5 -446.166 -656.5 -560.499s-301.833 -171.5 -332.5 -171.5c-13.333 0 -20 6 -20 18c0 13.333 12.333 26 37 38c98.667 47.333 212 115.666 340 204.999
c156 110 340.833 278.167 554.5 504.5s383.5 430.833 509.5 613.5c57.333 84 98.333 146 123 186c43.333 72 77 138.333 101 199c14.667 37.333 27.667 56 39 56c16 0 24 -10 24 -30z" />
    <glyph glyph-name="asterisk" unicode="*" horiz-adv-x="672" 
d="M876 1034c-91.333 -66.667 -142.668 -100.001 -154.001 -100.001c-12.667 0 -19 7 -19 21c0 8 49.667 43.333 149 106l-64 47c-32.667 24.667 -49 41.334 -49 50.001c0 14 6.33301 21 19 21c6 0 48.667 -30 128 -90l75 90c41.333 49.333 66.333 74 75 74
c10.667 0 16 -5 16 -15c0 -14.667 -40.333 -68 -121 -160l110 2c58 -1.33301 87 -8.33301 87 -21c0 -15.333 -18.333 -23 -55 -23c-27.333 0 -78.666 2.33301 -153.999 7c26.667 -80 40 -124 40 -132c0 -20 -8 -30 -24 -30c-10.667 0 -22.667 23 -36 69z" />
    <glyph glyph-name="plus" unicode="+" horiz-adv-x="949" 
d="M719 615l273 315l69 -2l-272 -313h307l-50 -56h-306l-274 -314l-69 1l273 313h-308l50 56h307z" />
    <glyph glyph-name="comma" unicode="," horiz-adv-x="378" 
d="M47 2c-42 0 -62.999 13.334 -62.999 40.001s13 53.667 39 81s52.333 41 79 41c36 0 54 -18.333 54 -55c0 -80.667 -47 -155 -141 -223c-46.667 -33.333 -79.667 -50 -99 -50c-14 0 -21 6.33301 -21 19c0 2 22.333 20.667 67 56
c47.333 37.333 75.666 67.666 84.999 90.999z" />
    <glyph glyph-name="hyphen" unicode="-" horiz-adv-x="574" 
d="M133 263c-68 0 -102 12.333 -102 37c0 30.667 121 46 363 46h99c48 -4.66699 72 -19 72 -43c0 -20 -11.667 -30.333 -35 -31l-167 -4z" />
    <glyph glyph-name="period" unicode="." horiz-adv-x="378" 
d="M41 -10c-32 0 -48 16.333 -48 49c0 27.333 12.833 55 38.5 83s52.167 42 79.5 42c34 0 51 -16.333 51 -49c0 -26 -13.667 -53.333 -41 -82s-54 -43 -80 -43z" />
    <glyph glyph-name="slash" unicode="/" horiz-adv-x="1186" 
d="M1976 1407c8 0 16.333 -3.5 25 -10.5s13 -14.5 13 -22.5c0 -10 -20.667 -31.333 -62 -64c-47.333 -38 -107.333 -82.333 -180 -133l-587 -410l-1203 -795c-188.667 -122.667 -294.667 -184 -318 -184c-24.667 0 -37 12.333 -37 37c0 11.333 12 24.333 36 39l271 178
l671 437l1004 675z" />
    <glyph glyph-name="zero" unicode="0" horiz-adv-x="949" 
d="M1002 1070c41.333 36 87.666 54 138.999 54c80.667 0 121 -45 121 -135c0 -110 -52.667 -247.667 -158 -413c-102 -160 -222 -298 -360 -414c-150 -125.333 -281 -188 -393 -188c-51.333 0 -96.666 17 -135.999 51c-41.333 35.333 -62 78.333 -62 129
c0 118 61.667 261.333 185 430c102 140 213 257.333 333 352c130.667 103.333 225 155 283 155c21.333 0 37.333 -7 48 -21zM921 987c-135.333 -72.667 -284.831 -212.667 -448.498 -420s-245.5 -355.666 -245.5 -444.999c0 -57.333 31.667 -86 95 -86
c85.333 0 200.666 65 345.999 195c133.333 119.333 253.666 256.666 360.999 411.999c110.667 161.333 166 284 166 368c0 44.667 -17.667 67 -53 67c-31.333 0 -105 -46 -221 -138c-6.66699 0 -10 4.66699 -10 14c0 4 3.33301 15 10 33z" />
    <glyph glyph-name="one" unicode="1" horiz-adv-x="949" 
d="M1023 962c-214.667 -116.667 -341.669 -175 -381.002 -175c-15.333 0 -23 8.66699 -23 26c0 10.667 15.333 20.334 46 29.001c36.667 10.667 94.334 36 173.001 76l203 119c110.667 66 168.334 99 173.001 99c34 0 51 -11.667 51 -35c0 -24 -30.667 -65.333 -92 -124
c-221.333 -214.667 -507.333 -536 -858 -964c-12 -14.667 -22 -22 -30 -22c-10.667 0 -21 6.66699 -31 20s-15 25.666 -15 36.999c0 36 126 194 378 474z" />
    <glyph glyph-name="two" unicode="2" horiz-adv-x="949" 
d="M85 87l413.999 47.998c36.667 4 76.334 6 119.001 6c64.667 0 97 -13.667 97 -41c0 -16.667 -22.333 -28 -67 -34l-87 -6c-81.333 -6.66699 -180.666 -19.334 -297.999 -38.001l-128 -24c-60 -11.333 -101.667 -17 -125 -17c-34.667 0 -52 28.667 -52 86
c0 22.667 11.667 42.667 35 60c4 3.33301 25.333 16 64 38l611 346c96.667 54.667 198 117.334 304 188.001c148 98.667 238 171 270 217c24 34.667 36 67 36 97c0 42.667 -24.667 64 -74 64c-84.667 0 -186 -30.667 -304 -92c-96.667 -50.667 -186 -110.667 -268 -180
c-16.667 -14 -29.667 -21 -39 -21c-8.66699 0 -18.167 5.83301 -28.5 17.5s-15.5 21.834 -15.5 30.501c0 20 46 62.333 138 127c193.333 136 349.666 204 468.999 204c52.667 0 99.167 -20.667 139.5 -62s60.5 -88.666 60.5 -141.999c0 -87.333 -81.667 -188.333 -245 -303
c-77.333 -54 -198.333 -124.667 -363 -212l-347 -184z" />
    <glyph glyph-name="three" unicode="3" horiz-adv-x="949" 
d="M666 605c71.333 0 132.332 -13.3369 182.999 -40.0039c64 -33.333 96 -82.666 96 -147.999c0 -63.333 -28 -129.666 -84 -198.999c-60 -74.667 -145.333 -134 -256 -178c-102 -40.667 -205 -61 -309 -61c-56 0 -103.333 12 -142 36c-45.333 28.667 -68 69.667 -68 123
c0 36 13 75 39 117c28.667 45.333 60 68 94 68c14.667 0 22 -4.66699 22 -14l-48 -55c-32 -36.667 -48 -71 -48 -103c0 -56.667 42.333 -85 127 -85c130 0 258.833 43.333 386.5 130s191.5 168.334 191.5 245.001c0 44 -22 77.333 -66 100
c-34.667 17.333 -76.667 26 -126 26c-21.333 0 -48.666 -4.66699 -81.999 -14s-55.666 -14 -66.999 -14c-8.66699 0 -17 4.83301 -25 14.5s-12 19.167 -12 28.5c0 15.333 26.667 28.333 80 39c92.667 18 189.667 46.333 291 85c116 44.667 205 91 267 139
c71.333 55.333 107 99.666 107 132.999c0 36.667 -33 55 -99 55c-142.667 0 -300 -48.333 -472 -145c-10 -6 -25.667 -12 -47 -18c-17.333 6.66699 -26 19.334 -26 38.001c0 34 57.167 78.5 171.5 133.5s221.166 82.5 320.499 82.5c76 0 133.333 -22.667 172 -68
s58 -84.666 58 -117.999c0 -122.667 -162.667 -224.667 -488 -306c-71.333 -18 -118.333 -27 -141 -27z" />
    <glyph glyph-name="four" unicode="4" horiz-adv-x="949" 
d="M866 504l98.001 -1.00098c46.667 -5.33301 70 -20.666 70 -45.999c0 -14 -11.333 -21.667 -34 -23l-51 2c-39.333 0 -88.333 -2 -147 -6l-340 -391c-28.667 -33.333 -49 -50 -61 -50c-28 0 -42 11.333 -42 34c0 42.667 101.333 176 304 400l-371 -25l-21 -1
c-38 -2 -57 15.667 -57 53c0 17.333 8.33301 37 25 59c46 60.667 222.333 176 529 346c309.333 171.333 497.666 257 564.999 257c32.667 0 49 -10.333 49 -31c0 -17.333 -19 -45 -57 -83zM728.001 497.999l424.001 461l25 25c-169.333 -76 -349.333 -171 -540 -285
l-160 -97c-82 -52.667 -130.333 -89 -145 -109c-0.666992 -1.33301 -1 -2.33301 -1 -3c9.33301 -5.33301 23.666 -8 42.999 -8z" />
    <glyph glyph-name="five" unicode="5" horiz-adv-x="949" 
d="M931 1091c114 10.667 209.665 16 286.998 16c21.333 0 39.5 -7.5 54.5 -22.5s22.5 -33.833 22.5 -56.5c0 -12 -18.333 -18 -55 -18l-389 -19c-137.333 -131.333 -247.666 -245.333 -330.999 -342c82 36 154.333 54 217 54c56 0 101.333 -15 136 -45
c36.667 -32 55 -75.667 55 -131c0 -113.333 -70.667 -233.5 -212 -360.5s-282 -190.5 -422 -190.5c-54.667 0 -99.667 12 -135 36c-41.333 27.333 -62 67 -62 119c0 21.333 6.33301 47.333 19 78c15.333 36 31.333 54 48 54c10 0 15 -5.33301 15 -16
c0 -6 -4.83301 -21.333 -14.5 -46s-14.5 -44 -14.5 -58c0 -53.333 29.667 -80 89 -80c104.667 0 230.334 57.667 377.001 173c152.667 119.333 229 229 229 329c0 59.333 -33.333 89 -100 89c-72 0 -161 -33 -267 -99c-18.667 -11.333 -33.667 -19.333 -45 -24
c-11.333 0 -21.833 7.66699 -31.5 23s-14.5 29.333 -14.5 42c0 26.667 104.667 144.667 314 354l89 93c50 49.333 82.333 74 97 74c7.33301 0 22 -8.66699 44 -26z" />
    <glyph glyph-name="six" unicode="6" horiz-adv-x="949" 
d="M817 722c46 0 83.167 -13.668 111.5 -41.001s42.5 -64 42.5 -110c0 -115.333 -64 -242.666 -192 -381.999c-130 -142 -251.667 -213 -365 -213c-54.667 0 -100.667 20 -138 60s-56 87.333 -56 142c0 142 73.667 303.667 221 485c128 157.333 264.333 279.333 409 366
c140 83.333 248.667 125 326 125c22.667 0 34 -11.667 34 -35c0 -12.667 -29.333 -28.667 -88 -48c-167.333 -55.333 -326.333 -171.333 -477 -348c-23.333 -27.333 -47 -60 -71 -98c79.333 64.667 160.333 97 243 97zM803 674.999c-108 0 -219 -64.667 -333 -194
c-111.333 -126.667 -167 -245 -167 -355c0 -68.667 29.667 -103 89 -103c89.333 0 192.333 72 309 216c113.333 140 170 257.333 170 352c0 56 -22.667 84 -68 84z" />
    <glyph glyph-name="seven" unicode="7" horiz-adv-x="949" 
d="M1260 1025c-1.33301 6 -13.334 9 -36.001 9c-99.333 0 -242.666 -12 -429.999 -36c-10.667 -1.33301 -20.667 -2 -30 -2c-36.667 0 -55 14 -55 42c0 11.333 6.33301 21.5 19 30.5s108 21.833 286 38.5c168 16 276 24 324 24c55.333 0 83 -16 83 -48
c0 -13.333 -24.333 -41.333 -73 -84c-130.667 -114.667 -281.334 -260.667 -452.001 -438l-548 -572c-11.333 0 -22.666 6.5 -33.999 19.5s-17 25.167 -17 36.5c0 37.333 114.333 170 343 398c154 154 298.667 292.333 434 415z" />
    <glyph glyph-name="eight" unicode="8" horiz-adv-x="949" 
d="M764 649c42.667 -94.667 64.001 -180.332 64.001 -256.999c0 -112.667 -43.833 -210.834 -131.5 -294.501s-188.5 -125.5 -302.5 -125.5c-62.667 0 -114.667 24 -156 72c-38.667 45.333 -58 100 -58 164c0 194 163.667 365 491 513c-5.33301 22 -8 43.333 -8 64
c0 108 50.667 195.667 152 263c89.333 60 190.666 90 303.999 90c44.667 0 84.667 -7 120 -21c47.333 -18.667 71 -47 71 -85c0 -12.667 -8.66699 -31 -26 -55c9.33301 4 17.333 6 24 6c12 0 18 -6.66699 18 -20c0 -14 -5.5 -30.167 -16.5 -48.5
s-31.833 -33.833 -62.5 -46.5c-186 -78.667 -347 -151.667 -483 -219zM1237 965.002c-6.66699 58 -64.667 87 -174 87c-86 0 -161 -21 -225 -63c-74 -48.667 -111 -113.667 -111 -195c0 -14.667 2 -29.667 6 -45c186 85.333 354 157.333 504 216zM693.001 617.002
c-302 -158.667 -453 -310.668 -453 -456.001c0 -33.333 12 -59.666 36 -78.999s53 -29 87 -29c92 0 176.333 37.333 253 112s115 158 115 250c0 66.667 -12.667 134 -38 202z" />
    <glyph glyph-name="nine" unicode="9" horiz-adv-x="949" 
d="M902 557c-114.667 -74.667 -218 -112.002 -310 -112.002c-48 0 -86.333 15.833 -115 47.5s-43 71.834 -43 120.501c0 116 80.333 238.333 241 367c154 123.333 290.667 185 410 185c46 0 85.333 -15.833 118 -47.5s49 -70.5 49 -116.5c0 -129.333 -85 -295.333 -255 -498
c-147.333 -176 -289.333 -306.667 -426 -392s-225 -128 -265 -128c-17.333 0 -26 8.66699 -26 26c0 10.667 23.667 27.334 71 50.001c72 34.667 157.667 95 257 181c87.333 76 162.333 150.667 225 224c22 26 45 57 69 93zM512 567.998c0 -47.333 25.334 -71 76.001 -71
c89.333 0 184 32.333 284 97c93.333 60 165.666 130.333 216.999 211c61.333 98 92 175.333 92 232c0 40 -20.667 60 -62 60c-71.333 0 -190.333 -60.833 -357 -182.5s-250 -237.167 -250 -346.5z" />
    <glyph glyph-name="colon" unicode=":" horiz-adv-x="378" 
d="M341 373c-31.333 0 -47.001 16 -47.001 48c0 27.333 12.833 55 38.5 83s51.834 42 78.501 42c34.667 0 52 -16.333 52 -49c0 -26 -13.833 -53.167 -41.5 -81.5s-54.5 -42.5 -80.5 -42.5zM13.999 -10c-32 0 -48 16.333 -48 49c0 27.333 12.833 55 38.5 83
s52.167 42 79.5 42c34 0 51 -16.333 51 -49c0 -26 -13.667 -53.333 -41 -82s-54 -43 -80 -43z" />
    <glyph glyph-name="semicolon" unicode=";" horiz-adv-x="378" 
d="M273 373c-31.333 0 -47.001 16 -47.001 48c0 27.333 12.833 55 38.5 83s51.834 42 78.501 42c34.667 0 52 -16.333 52 -49c0 -26 -13.833 -53.167 -41.5 -81.5s-54.5 -42.5 -80.5 -42.5zM13.999 -1c-38 3.33301 -57 17.668 -57 43.001c0 24.667 14 49.5 42 74.5
s54.333 37.5 79 37.5c38.667 0 58 -17 58 -51c0 -50 -32 -104.5 -96 -163.5s-121 -88.5 -171 -88.5c-16 0 -24 6.66699 -24 20c0 7.33301 13 16.666 39 27.999c66.667 28.667 110 62 130 100z" />
    <glyph glyph-name="less" unicode="&#x3c;" 
d="M1207 1248v-68l-659 -431l659 -440v-182l-845 563v12z" />
    <glyph glyph-name="equal" unicode="=" horiz-adv-x="949" 
d="M1165 684l-51 -57h-683l50 57h684zM1028 547l-50 -56h-684l50 56h684z" />
    <glyph glyph-name="greater" unicode="&#x3e;" 
d="M362 127v69l659 431l-659 439v182l845 -563v-12z" />
    <glyph glyph-name="question" unicode="?" horiz-adv-x="770" 
d="M216 257c-14.667 0 -22.001 9.66602 -22.001 28.999c0 40.667 85.667 110.334 257 209.001l479 267c171.333 101.333 257 175.333 257 222c0 30 -38.667 45 -116 45c-76 0 -163.333 -16.333 -262 -49c-88 -28.667 -165.667 -63 -233 -103
c-13.333 -8 -23.666 -12 -30.999 -12c-14 0 -21 8.66699 -21 26c0 64 72.333 122.333 217 175c121.333 43.333 224 65 308 65c120.667 0 181 -51.333 181 -154c0 -45.333 -16.333 -90.333 -49 -135c-52 -72 -177.333 -158 -376 -258l-428 -214l-87 -61
c-48 -34.667 -72.667 -52 -74 -52zM33.999 -10.001c-32 0 -48 16.333 -48 49c0 27.333 13 55 39 83s52.333 42 79 42c34 0 51 -16.333 51 -49c0 -26 -13.667 -53.333 -41 -82s-54 -43 -80 -43z" />
    <glyph glyph-name="at" unicode="@" horiz-adv-x="1346" 
d="M1274 856c26.667 25.333 44.6689 37.9971 54.002 37.9971c22 0 33 -9 33 -27c0 -23.333 -51.5 -95.166 -154.5 -215.499s-154.5 -190.5 -154.5 -210.5c0 -13.333 14.333 -20 43 -20c112 0 231 90.333 357 271c119.333 170.667 179 315.667 179 435
c0 136 -63.333 204 -190 204c-164.667 0 -334 -65 -508 -195c-146.667 -109.333 -273 -244.333 -379 -405c-120.667 -182 -181 -343 -181 -483c0 -146 93.667 -219 281 -219c74 0 131 8.33301 171 25c98 40.667 150.667 61 158 61c20.667 0 31 -8.66699 31 -26
c0 -6 -16 -19.167 -48 -39.5s-87.333 -38.166 -166 -53.499c-70.667 -14 -130.334 -21 -179.001 -21c-102.667 0 -185.334 25.333 -248.001 76c-66.667 55.333 -100 133.333 -100 234c0 150.667 63.667 319 191 505c112.667 164 250 300.667 412 410
c183.333 123.333 364.333 185 543 185c87.333 0 159.333 -22.667 216 -68c61.333 -49.333 92 -116.666 92 -201.999c0 -140.667 -73.333 -296.667 -220 -468c-150.667 -176 -294.667 -264 -432 -264c-57.333 0 -86 21.333 -86 64c0 31.333 16.667 75 50 131
c-134.667 -116 -224 -174 -268 -174c-58 0 -87 29.333 -87 88c0 100.667 66 199.167 198 295.5s234.667 144.5 308 144.5c52 0 80 -25.333 84 -76zM1205 889.997c-40.667 0 -122.334 -58.334 -245.001 -175.001s-184 -195 -184 -235c0 -18 8.33301 -27 25 -27
c38.667 0 120.334 57.333 245.001 172s187 192.334 187 233.001c0 21.333 -9.33301 32 -28 32z" />
    <glyph glyph-name="A" unicode="A" horiz-adv-x="1554" 
d="M1502 577l92.002 0.000976562c44.667 -4.66699 67 -18.334 67 -41.001c0 -14.667 -16.333 -22 -49 -22l-65 4l-94 -1l-204 -259c-138 -172 -214.333 -258 -229 -258c-12.667 0 -24.334 9.66699 -35.001 29c-10 16.667 -15 32 -15 46c0 20.667 113.333 168 340 442h-78
c-108.667 -0.666992 -270.334 -7 -485.001 -19l-338 -288l-131 -117c-70.667 -61.333 -113.667 -92 -129 -92c-18.667 0 -28 9.66699 -28 29c0 24 96.333 116 289 276l229 190c-306 -14 -464 -29 -474 -45v-1c0 -12.667 47.667 -19 143 -19l134 2
c18 0.666992 27 -3.33301 27 -12c0 -18.667 -72.667 -28 -218 -28c-124 0 -186 15.667 -186 47c0 40 36.667 67.333 110 82c20.667 4.66699 72 9.66699 154 15l390 26c157.333 130 382.333 298.667 675 506c372.667 263.333 595 395 667 395c36 0 54 -23.333 54 -70
c0 -39.333 -47 -117.333 -141 -234zM1359 577.001l469 569.001l87 106c37.333 47.333 62 83.666 74 108.999v4c0 7.33301 -3.33301 11 -10 11c-31.333 0 -229.333 -133.333 -594 -400l-549 -408z" />
    <glyph glyph-name="B" unicode="B" horiz-adv-x="1566" 
d="M1159 719c18.667 -0.666992 56.334 -8.00098 113.001 -22.001c173.333 -43.333 260 -124.666 260 -243.999c0 -122.667 -87.5 -237.667 -262.5 -345s-346.5 -161 -514.5 -161c-86 0 -155.667 16.667 -209 50c-63.333 40 -95 100.667 -95 182c0 30.667 3.66699 60 11 88
l-123 -148c-66.667 -78.667 -107.334 -118 -122.001 -118c-12 0 -24.167 4.5 -36.5 13.5s-18.5 19.5 -18.5 31.5c0 36.667 77 138.334 231 305.001c171.333 186 266.333 295.667 285 329l-17 43c0 31.333 31.667 43.666 95 36.999l484 503
c-245.333 -28 -430 -72.667 -554 -134c-33.333 -16.667 -56 -25 -68 -25c-30.667 0 -46 13.667 -46 41c0 44 82.833 90 248.5 138s341.5 77 527.5 87c40 36 68 54 84 54c12.667 0 22 -6.16699 28 -18.5s7.33301 -24.5 4 -36.5c306 0 459 -88.333 459 -265
c0 -102 -78 -185.667 -234 -251c-67.333 -28.667 -189.333 -63 -366 -103c-36 -10 -90.667 -20.333 -164 -31zM1377 1275l-474 -511.999c205.333 26.667 390 63.667 554 111c276.667 79.333 415 169.666 415 270.999c0 88 -119.667 132 -359 132zM834 681
c-226 -222.667 -339.001 -386.667 -339.001 -492c0 -50 26.667 -87.667 80 -113c40.667 -18.667 89.334 -28 146.001 -28c168.667 0 333.667 50.167 495 150.5s242 197.5 242 291.5c0 72.667 -70.333 127 -211 163c-96 24.667 -196.667 37 -302 37c-40 0 -77 -3 -111 -9z
" />
    <glyph glyph-name="C" unicode="C" horiz-adv-x="1247" 
d="M1748 1201c-22.667 -101.333 -92.999 -222.332 -210.999 -362.999c-127.333 -151.333 -236 -227 -326 -227c-53.333 0 -80 25.333 -80 76c0 76.667 70.333 178.667 211 306c126 113.333 235 188.666 327 225.999c7.33301 18 11 35.333 11 52c0 50.667 -28.667 76 -86 76
c-123.333 0 -293.333 -70 -510 -210c-210.667 -136 -394.667 -291.333 -552 -466c-172.667 -191.333 -259 -350.333 -259 -477c0 -102 60.667 -153 182 -153c88 0 184 23.667 288 71c72.667 33.333 147.667 77.666 225 132.999l95 71c10.667 0 16 -9.66699 16 -29
c0 -48 -47.333 -103 -142 -165c-62.667 -41.333 -132.834 -78.166 -210.501 -110.499s-153.167 -48.5 -226.5 -48.5c-84 0 -155 25.333 -213 76c-60.667 52.667 -91 120.667 -91 204c0 176 106.333 369.333 319 580c171.333 170 356.333 305.333 555 406
c224 113.333 394.667 170 512 170c108 0 164.667 -51 170 -153c21.333 8 37 12 47 12c12 0 18 -6 18 -18c0 -11.333 -23 -24.333 -69 -39zM1647 1165c-113.333 -58 -219.333 -141.5 -318 -250.5s-148 -179.167 -148 -210.5c0 -14.667 5.66699 -22 17 -22
c46.667 0 127.667 67.333 243 202c99.333 116 168 209.667 206 281z" />
    <glyph glyph-name="D" unicode="D" horiz-adv-x="1509" 
d="M1366 1285c27.333 1.33301 49.3301 2 65.9971 2c78.667 0 139.334 -10 182.001 -30c51.333 -23.333 94 -66.666 128 -129.999c28 -54 42 -106 42 -156c0 -152.667 -76 -313.667 -228 -483c-120 -133.333 -253 -248.666 -399 -345.999
c-183.333 -122 -345.333 -183 -486 -183c-63.333 0 -114.666 18.667 -153.999 56s-59 87.666 -59 150.999c0 38.667 5.33301 77 16 115l-230 -252c-17.333 -19.333 -34.333 -29 -51 -29c-28.667 0 -43 13 -43 39c0 9.33301 4 22 12 38c21.333 46 170.333 219 447 519
l511 555c-125.333 -22.667 -230.666 -50.5 -315.999 -83.5s-139.333 -49.5 -162 -49.5c-30.667 0 -46 10 -46 30c0 18 62 50.667 186 98s277 87.666 459 120.999l58 53c28.667 26 47.667 39 57 39c18 0 27 -11.667 27 -35c0 -8 -5.66699 -21 -17 -39zM1294 1178l-656 -713
c-53.333 -58.667 -87.333 -100.334 -102 -125.001c-25.333 -43.333 -38 -95 -38 -155c0 -90 48.333 -135 145 -135c113.333 0 257.333 57.333 432 172c168.667 111.333 314.667 241 438 389c134 160.667 201 298.334 201 413.001c0 116 -72.333 174 -217 174
c-64 0 -131.667 -6.66699 -203 -20z" />
    <glyph glyph-name="E" unicode="E" horiz-adv-x="1201" 
d="M1071 816c-84.667 0 -162.669 14 -234.002 42c-95.333 37.333 -143 91.333 -143 162c0 113.333 124 207.666 372 282.999c192.667 58 365.667 87 519 87s230 -50.333 230 -151c0 -56 -55.333 -110 -166 -162c-97.333 -46 -178.666 -69 -243.999 -69
c-40.667 0 -61 17 -61 51c0 21.333 17 43.333 51 66c31.333 21.333 58.333 32 81 32c13.333 0 20 -4.66699 20 -14c0 -4 -9 -10.667 -27 -20c-20.667 -10.667 -33 -18.334 -37 -23.001c6 -5.33301 14.333 -8 25 -8c34.667 0 92.667 19.667 174 59
c88 42.667 132 78.334 132 107.001c0 26.667 -48.333 40 -145 40c-108 0 -236.333 -19 -385 -57c-98.667 -26 -189.667 -56 -273 -90c-134.667 -56 -202 -108.333 -202 -157c0 -58.667 93 -100 279 -124c106.667 -14 225.334 -21 356.001 -21c26.667 0 40 -10 40 -30
c0 -36.667 -43 -57 -129 -61c-262 -12 -511.667 -73 -749 -183c-243.333 -112.667 -365 -225.334 -365 -338.001c0 -110 94.333 -165 283 -165c112.667 0 222 25.333 328 76c71.333 34 142 80.667 212 140c60 50.667 90.667 76 92 76c15.333 0 23 -18.667 23 -56
c0 -62 -68.667 -133 -206 -213s-276 -120 -416 -120c-255.333 0 -383 101.667 -383 305c0 132 90.667 246.333 272 343c121.333 64.667 271 116.334 449 155.001c50 12.667 125.667 25.334 227 38.001z" />
    <glyph glyph-name="F" unicode="F" horiz-adv-x="1316" 
d="M1306 650c48 2.66699 85.6631 4.00293 112.996 4.00293c37.333 0 56 -9.66699 56 -29c0 -14 -71 -26.667 -213 -38c-167.333 -218.667 -281.666 -361.334 -342.999 -428.001c-175.333 -188.667 -320.666 -283 -435.999 -283c-40.667 0 -74.667 10.333 -102 31
c-30 22.667 -45 53.667 -45 93c0 74 33.167 155.333 99.5 244s112.833 133 139.5 133c8.66699 0 13 -4.33301 13 -13c0 -2.66699 -17.333 -25.334 -52 -68.001c-41.333 -52 -73.333 -98 -96 -138c-34.667 -61.333 -52 -114.666 -52 -159.999c0 -53.333 27.333 -80 82 -80
c40 0 90.333 26.667 151 80c68 59.333 154.333 153.666 259 282.999l237 300c-87.333 -4 -193.5 -14.333 -318.5 -31s-192.5 -25 -202.5 -25c-23.333 0 -35 8.33301 -35 25c0 12 7.66699 23 23 33s106 22.667 272 38l310 25c221.333 290 397.333 483 528 579
c-95.333 14.667 -188.666 22 -279.999 22c-147.333 0 -286.666 -18.667 -417.999 -56c-153.333 -42.667 -277.333 -106.334 -372 -191.001l-75 -94c-37.333 -46.667 -62.333 -70 -75 -70c-23.333 0 -35 11.667 -35 35c0 32 62.5 127.333 187.5 286s199.167 238 222.5 238
c22.667 0 34 -10.667 34 -32c0 -11.333 -11.333 -29.333 -34 -54c-70.667 -76.667 -128 -150 -172 -220c233.333 164 488.333 246 765 246c97.333 0 215.666 -10.333 354.999 -31c106 70 211.667 105 317 105c60.667 0 91 -15.667 91 -47c0 -52.667 -57.333 -92 -172 -118
c-78 -18 -157 -27 -237 -27c-133.333 -112 -296.666 -301 -489.999 -567zM1880 1290c25.333 -3.33301 48 -5 68 -5c36.667 0 77 5.33301 121 16c60 14 90 33 90 57c0 10.667 -11.333 16 -34 16c-90 0 -171.667 -28 -245 -84z" />
    <glyph glyph-name="G" unicode="G" horiz-adv-x="1417" 
d="M1048 135c18 -1.33301 26.9971 -12.998 26.9971 -34.998c0 -12 -4.66699 -23.667 -14 -35s-19.666 -17.333 -30.999 -18c-1.33301 12.667 -8.66602 26.667 -21.999 42l-203 -213c-149.333 -156.667 -258.333 -262.667 -327 -318
c-149.333 -121.333 -282.666 -182 -399.999 -182c-84.667 0 -127 34.333 -127 103c0 116 112.5 253 337.5 411s436.167 245.333 633.5 262l291 320c-368 -276 -630 -414 -786 -414c-64 0 -117.333 21.167 -160 63.5s-64 95.5 -64 159.5
c0 156.667 95.667 329.334 287 518.001c170 167.333 377 312.666 621 435.999c241.333 122.667 439.333 184 594 184c119.333 0 179 -46 179 -138c0 -104 -62.833 -206.667 -188.5 -308s-224.167 -152 -295.5 -152c-44 0 -66 25.333 -66 76c0 54 35.667 117.333 107 190
c52 53.333 111.667 101.666 179 144.999c70.667 46 113.667 69 129 69c11.333 0 17 -4 17 -12c0 -6.66699 -31.333 -29.667 -94 -69c-51.333 -32.667 -107.666 -77.667 -168.999 -135c-77.333 -72.667 -116 -127 -116 -163c0 -16 8.33301 -24 25 -24
c57.333 0 141.333 49 252 147c113.333 99.333 170 178 170 236c0 49.333 -36.333 74 -109 74c-126 0 -305.833 -66.333 -539.5 -199s-436.167 -282.334 -607.5 -449.001c-192 -186 -288 -342.667 -288 -470c0 -66 38.667 -99 116 -99c122 0 316.667 85.667 584 257
c208.667 133.333 388 266.333 538 399c35.333 31.333 57.666 47 66.999 47c12.667 0 19 -12.333 19 -37c0 -34.667 -17 -70 -51 -106zM877.997 98.002c-192 -22 -387.5 -110.5 -586.5 -265.5s-298.5 -272.833 -298.5 -353.5c0 -40 27.333 -60 82 -60c48.667 0 109 24 181 72
c68.667 45.333 214 183.333 436 414z" />
    <glyph glyph-name="H" unicode="H" horiz-adv-x="1657" 
d="M1686 652l97.001 -1c50 -4 75 -17.333 75 -40c0 -11.333 -9 -17 -27 -17c-87.333 0 -153.666 -2 -198.999 -6l-388 -468l-53 -70c-28 -33.333 -50.667 -50 -68 -50c-12 0 -23.5 5.66699 -34.5 17s-16.5 23 -16.5 35c0 21.333 62.667 111.333 188 270l215 264l-515 -20
c-191.333 -199.333 -322 -330 -392 -392c-197.333 -174.667 -352.333 -262 -465 -262c-50 0 -91.333 15.667 -124 47s-49 72 -49 122c0 119.333 76.167 237.166 228.5 353.499s386.833 179.5 703.5 189.5c428 462.667 643 706 645 730l-6 6
c-46 -1.33301 -145.333 -49.666 -298 -144.999l-228 -143c-8.66699 0 -13 4.33301 -13 13c0 30.667 92 98.167 276 202.5s300.333 156.5 349 156.5c17.333 0 34.666 -6.66699 51.999 -20s26 -28.333 26 -45c0 -24 -52.667 -93.667 -158 -209l-494 -541l519 23
c413.333 476.667 635.666 715 666.999 715c28.667 0 43 -11.667 43 -35c0 -17.333 -24 -53 -72 -107c-180.667 -204 -342 -395 -484 -573zM808.001 564c-157.333 -4.66699 -283.668 -25.332 -379.001 -61.999c-109.333 -41.333 -212.666 -115 -309.999 -221
c-84.667 -92.667 -127 -167.667 -127 -225c0 -50.667 29.667 -76 89 -76c38 0 84.333 16.667 139 50c62 37.333 163 120.666 303 249.999c127.333 117.333 222.333 212 285 284z" />
    <glyph glyph-name="I" unicode="I" horiz-adv-x="1174" 
d="M1144 592l77 18.001c36 9.33301 60.667 14 74 14c16.667 0 25 -5.66699 25 -17c0 -18.667 -83.333 -48.334 -250 -89.001c-272.667 -275.333 -472.667 -456.666 -600 -543.999c-39.333 -26.667 -73 -40 -101 -40c-42 0 -63 18.667 -63 56
c0 23.333 32.333 70.666 97 141.999s106.334 107 125.001 107c9.33301 0 14 -5 14 -15c0 -5.33301 -20.667 -31 -62 -77c-44.667 -50 -70 -80.333 -76 -91l2 -1c25.333 1.33301 181.666 142.333 468.999 423c-72 -13.333 -149.667 -20 -233 -20
c-115.333 0 -190.333 23.333 -225 70s-52 87.667 -52 123c0 106.667 76.333 222 229 346c131.333 106 292.333 199.333 483 280c182 77.333 325 116 429 116c102.667 0 154 -34.667 154 -104c0 -120.667 -172 -353 -516 -697zM1582 1316c0 19.333 -13 29 -39 29
c-51.333 0 -167.333 -39.333 -348 -118c-182.667 -79.333 -355.334 -183.5 -518.001 -312.5s-244 -222.833 -244 -281.5s83 -88 249 -88c154 0 247.333 8.33301 280 25c9.33301 4 88 81.667 236 233c76.667 78 151.334 161.333 224.001 250c106.667 131.333 160 219 160 263
z" />
    <glyph glyph-name="J" unicode="J" horiz-adv-x="1372" 
d="M1011 205c33.333 -2.66699 49.999 -18.6689 49.999 -48.002c0 -30.667 -13 -46 -39 -46c-6 0 -9.66699 1.66699 -11 5c-1.33301 2.66699 -1.33301 6.33398 0 11.001c1.33301 6.66699 2 10.667 2 12c0 14 -15.333 20.333 -46 19
c-185.333 -196.667 -334.333 -342.667 -447 -438c-220.667 -188.667 -396 -283 -526 -283c-30.667 0 -56.167 9.66699 -76.5 29s-30.5 44.333 -30.5 75c0 68.667 57 153.667 171 255c102.667 92 229.334 176.333 380.001 253c154 78 296.667 129.333 428 154
c93.333 93.333 234.333 261 423 503c209.333 267.333 329 442.666 359 525.999c13.333 38 20 67 20 87c0 25.333 -11.333 38 -34 38c-90.667 0 -234 -39.333 -430 -118c-198 -79.333 -378.667 -189 -542 -329c-165.333 -142 -248 -264.333 -248 -367
c0 -81.333 42.667 -122 128 -122c118 0 261.333 46 430 138c157.333 86 253.666 170 288.999 252c4 8.66699 8.33301 14.334 13 17.001c16 0.666992 24 -12.333 24 -39c0 -38 -37 -91.333 -111 -160c-70.667 -65.333 -167.667 -125.666 -291 -180.999
c-130 -58 -239 -87 -327 -87c-65.333 0 -120.166 23.167 -164.499 69.5s-66.5 102.5 -66.5 168.5c0 126.667 82.333 258 247 394c141.333 116.667 316.333 218 525 304c197.333 80.667 356.333 121 477 121c101.333 0 152 -40 152 -120c0 -156.667 -242.667 -521 -728 -1093
zM816.999 150.998c-123.333 -32 -262.667 -92.667 -418 -182c-157.333 -90 -279.333 -180 -366 -270c-73.333 -75.333 -110 -131.333 -110 -168c0 -34 21 -51 63 -51c34 0 73.333 10.667 118 32c62.667 30.667 183 128.667 361 294c132 122.667 249.333 237.667 352 345z
" />
    <glyph glyph-name="K" unicode="K" horiz-adv-x="1325" 
d="M822 598l39.001 -269.001c23.333 -150 41.666 -235.333 54.999 -256c8.66699 -15.333 26.667 -26.666 54 -33.999c23.333 -6 35 -12 35 -18c0 -8 -15.333 -14.667 -46 -20c-24.667 -4.66699 -44.334 -7 -59.001 -7c-44 0 -76 22.667 -96 68
c-15.333 34.667 -50 221 -104 559c-202 -216.667 -370.333 -403.667 -505 -561c-34 -40 -58 -60 -72 -60c-23.333 0 -41.666 15 -54.999 45c1.33301 34.667 179.333 246.334 534 635.001s532 583.334 532 584.001l-2 3c-22 -0.666992 -96 -45.334 -222 -134.001l-185 -133
c-10.667 0 -16 6.33301 -16 19c0 17.333 80.333 79.333 241 186c163.333 108 262 162 296 162c12.667 0 27.834 -7.5 45.501 -22.5s26.5 -28.5 26.5 -40.5c0 -7.33301 -25.667 -38.333 -77 -93l-92 -96l-384 -425l15 1c17.333 1.33301 27.333 -10.334 30 -35.001l957 501
c209.333 108.667 327.333 163 353.999 163c11.333 0 17 -10.333 17 -31c0 -32.667 -27.333 -61.667 -82 -87l-175 -80z" />
    <glyph glyph-name="L" unicode="L" horiz-adv-x="1305" 
d="M511 198c230 -89.333 387.666 -134.002 472.999 -134.002c9.33301 0 22.5 1.83301 39.5 5.5s29.5 5.5 37.5 5.5c6 0 9 -3 9 -9c0 -21.333 -20.333 -40.333 -61 -57c-34 -14 -64 -21 -90 -21c-88 0 -248.667 45.667 -482 137c-141.333 -129.333 -285.333 -194 -432 -194
c-59.333 0 -109.333 10.667 -150 32c-51.333 27.333 -77 68.333 -77 123c0 66.667 40.333 121.667 121 165c68 36 138.667 54 212 54c89.333 0 186.333 -21.333 291 -64l519 553c144 154.667 248.667 260.667 314 318c156 136.667 282.667 205 380 205
c83.333 0 129.333 -35.667 138 -107c34.667 12.667 56.667 19 66 19c8.66699 0 13 -5.66699 13 -17c0 -9.33301 -10.333 -18.666 -31 -27.999l-44 -17c-7.33301 -125.333 -80.666 -270.333 -219.999 -435s-247.666 -247 -324.999 -247c-55.333 0 -83 25.333 -83 76
c0 72.667 52.167 173.834 156.5 303.501s238.166 237.167 401.499 322.5c1.33301 12 2 20.333 2 25c0 38.667 -17.667 58 -53 58c-64 0 -168.333 -68.667 -313 -206c-54 -51.333 -145.333 -147 -274 -287l-325 -353zM1679 1135c-130 -64.667 -247 -159.334 -351 -284.001
s-156 -215.667 -156 -273c0 -20.667 9.33301 -31 28 -31c44 0 121.167 60.833 231.5 182.5s192.833 256.834 247.5 405.501zM321.999 162.998c-96.667 36 -193 54 -289 54c-143.333 0 -215 -42.333 -215 -127c0 -71.333 52.667 -107 158 -107c108 0 223.333 60 346 180z" />
    <glyph glyph-name="M" unicode="M" horiz-adv-x="1795" 
d="M1345 681c462 468 757.67 701.999 887.003 701.999c54 0 81 -25.667 81 -77c0 -47.333 -19.333 -100 -58 -158c-28 -41.333 -198.333 -230 -511 -566c-274.667 -295.333 -412 -468.666 -412 -519.999c0 -18 13 -28 39 -30s39 -6 39 -12c0 -18.667 -20.333 -28 -61 -28
c-57.333 0 -86 27 -86 81c0 100.667 124.333 289.667 373 567c87.333 97.333 252.666 268 495.999 512c82.667 82.667 124 140.667 124 174c0 12.667 -6.33301 19 -19 19c-46 0 -175.667 -88.667 -389 -266c-170.667 -142 -298 -255 -382 -339
c-80.667 -80.667 -186.667 -194.667 -318 -342c-236.667 -266 -358.667 -399 -366 -399c-10 0 -21.833 6.33301 -35.5 19s-20.5 24 -20.5 34c0 26 141.667 206.333 425 541s425 528.667 425 582c0 13.333 -6.66699 20 -20 20c-34 0 -122 -53.333 -264 -160
c-130.667 -98.667 -274.334 -222.667 -431.001 -372l-405 -401l-142 -153c-79.333 -85.333 -122 -128 -128 -128c-10.667 0 -24 5.33301 -40 16c-18 11.333 -27 22 -27 32c0 22 83.667 126.667 251 314l468 526c167.333 197.333 251 319.333 251 366
c0 17.333 -8.66699 26 -26 26c-48 0 -148 -61.667 -300 -185c-114 -92.667 -276.333 -256 -487 -490c-13.333 -14.667 -24 -22 -32 -22c-14.667 0 -22 5.66699 -22 17c0 17.333 58.333 93 175 227c83.333 94.667 188.666 194.667 315.999 300
c164.667 136 283.667 204 357 204c49.333 0 74 -27 74 -81c0 -90.667 -120 -282.667 -360 -576c410 390 667.333 585 772 585c49.333 0 74 -25.333 74 -76c0 -80 -95 -241 -285 -483z" />
    <glyph glyph-name="N" unicode="N" horiz-adv-x="1486" 
d="M850 711c229.333 184.667 387.337 308 474.004 370c249.333 177.333 425 266 527 266c29.333 0 55.333 -9.33301 78 -28s34 -42.667 34 -72c0 -80.667 -97 -216.667 -291 -408l-404 -393c-227.333 -226 -341 -353 -341 -381c0 -16.667 7.33301 -27 22 -31
c3.33301 -0.666992 17.166 -1 41.499 -1s36.5 -5 36.5 -15c0 -10.667 -16.667 -20.334 -50 -29.001c-27.333 -7.33301 -49.333 -11 -66 -11c-26 0 -48.667 7.5 -68 22.5s-29 35.5 -29 61.5c0 29.333 14.5 64.333 43.5 105s122.833 141.667 281.5 303l475 473
c51.333 49.333 89.666 87.333 114.999 114c50.667 52.667 85 94.334 103 125.001c27.333 47.333 41 81 41 101c0 14.667 -6.66699 22 -20 22c-38.667 0 -140.334 -49.333 -305.001 -148c-390.667 -234 -813.334 -592.333 -1268 -1075
c-51.333 -54.667 -81.666 -82 -90.999 -82s-20.5 6 -33.5 18s-19.5 23 -19.5 33c0 28.667 88.667 134.667 266 318l493 517c177.333 196.667 266 325.334 266 386.001c0 20 -8.33301 30 -25 30c-72.667 0 -243 -115 -511 -345c-121.333 -104 -227.333 -208.333 -318 -313
c-14.667 -16.667 -26 -25 -34 -25c-25.333 0 -38 12.667 -38 38c0 32 74 118 222 258c105.333 99.333 211.333 186.666 318 261.999c155.333 110.667 275.666 166 360.999 166c55.333 0 83 -29.667 83 -89c0 -65.333 -50 -163.333 -150 -294c-70 -92 -143 -175 -219 -249z
" />
    <glyph glyph-name="O" unicode="O" horiz-adv-x="1212" 
d="M1407 1387c56.667 0 101.834 -17.1689 135.501 -51.502s50.5 -79.833 50.5 -136.5c0 -162.667 -91.333 -365.667 -274 -609c-157.333 -210.667 -318 -375 -482 -493c-112 -80.667 -218.667 -121 -320 -121c-168.667 0 -253 87.333 -253 262
c0 168.667 62.333 347.334 187 536.001c108 162.667 239.667 302.667 395 420c158.667 120 252.667 180 282 180c32.667 0 49 -19.667 49 -59c54 34.667 113.333 58.334 178 71.001c4.66699 35.333 9.66699 53 15 53c29.333 0 41.666 -17.333 36.999 -52zM1397 1338
c-24 -76.667 -67.666 -162.667 -130.999 -258c-216 -323.333 -381 -485 -495 -485c-52 0 -78 36 -78 108c0 163.333 131 347 393 551c-114.667 -72 -205.334 -140.667 -272.001 -206c-118 -115.333 -221 -249 -309 -401c-104 -179.333 -156 -336.666 -156 -471.999
c0 -42.667 10.667 -77.334 32 -104.001c22.667 -29.333 54.667 -44 96 -44c108 0 249.667 82.333 425 247c158 148 301 320 429 516c130 199.333 195 348.333 195 447c0 70 -35.333 105 -106 105c-8 0 -15.667 -1.33301 -23 -4zM1340 1322
c-84.667 -32 -178.333 -96.332 -281 -192.999c-96.667 -90 -170.167 -178.333 -220.5 -265s-75.5 -147.334 -75.5 -182.001c0 -24 11 -36 33 -36c61.333 0 162.333 94.667 303 284c126 170 206.333 300.667 241 392z" />
    <glyph glyph-name="P" unicode="P" horiz-adv-x="1291" 
d="M798 582l-263.002 -314c-151.333 -180 -231.666 -270 -240.999 -270c-8.66699 0 -20.334 6.66699 -35.001 20s-22 24.666 -22 33.999c0 22.667 142 202 426 538c-82.667 12.667 -124 31.667 -124 57c0 24.667 17.333 36.334 52 35.001l149 -7l322 357
c52 60.667 131.333 145 238 253c-229.333 -32 -456.666 -94.333 -681.999 -187c-14.667 -6 -26.334 -9 -35.001 -9c-22 0 -33 14 -33 42c0 54.667 114.333 113 343 175c226.667 61.333 414.334 92 563.001 92c94.667 0 173.334 -15.333 236.001 -46
c82.667 -40 124 -102.333 124 -187c0 -187.333 -129.333 -337.333 -388 -450c-204.667 -88.667 -414.667 -133 -630 -133zM1390 1294c4 -8.66699 5.99902 -16 5.99902 -22c0 -18.667 -79.667 -117.667 -239 -297l-265 -292c144.667 10 285.334 36.667 422.001 80
c168.667 53.333 291.667 122.333 369 207c64 70.667 96 133.667 96 189c0 94 -92.667 141 -278 141c-27.333 0 -64.333 -2 -111 -6z" />
    <glyph glyph-name="Q" unicode="Q" horiz-adv-x="1215" 
d="M1065 288c20.667 -1.33301 37.667 -3.33398 51 -6.00098c26 -5.33301 39.333 -13.333 40 -24c-23.333 -53.333 -52.666 -80 -87.999 -80l-120 9c-166.667 -144.667 -311 -217 -433 -217c-80.667 0 -143.334 23.667 -188.001 71s-67 111.333 -67 192
c0 153.333 60.333 326.333 181 519c100 159.333 220 303 360 431c150.667 138 253.667 207 309 207c19.333 0 29 -10.667 29 -32c0 -18.667 -28.333 -48 -85 -88c-150 -106 -300.333 -266.333 -451 -481c-168 -238.667 -252 -435.667 -252 -591c0 -16 2.33301 -30.667 7 -44
c100.667 100.667 254.667 151 462 151c26.667 0 65.334 -1.66699 116.001 -5c136.667 140 258 284 364 432c150.667 210.667 226 376.334 226 497.001c0 73.333 -32.667 110 -98 110c-86.667 0 -194 -57 -322 -171c-100.667 -89.333 -185.667 -184.333 -255 -285
c-18.667 -26.667 -34 -40 -46 -40c-22.667 0 -34 12.667 -34 38c0 40 44.333 109 133 207c178.667 199.333 343.667 299 495 299c59.333 0 106.666 -18 141.999 -54s53 -83.667 53 -143c0 -243.333 -176.333 -544 -529 -902zM832 198.999c-37.333 4 -75.667 6 -115 6
c-126.667 0 -215.667 -14.5 -267 -43.5s-77 -56.167 -77 -81.5c0 -38.667 36.333 -58 109 -58c89.333 0 206 59 350 177z" />
    <glyph glyph-name="R" unicode="R" horiz-adv-x="1447" 
d="M1296 1245c2.66699 -16 4.00195 -27.001 4.00195 -33.001c0 -10.667 -34.333 -51.667 -103 -123l-125 -128c-216 -234.667 -411.333 -459 -586 -673c-86 -105.333 -150.667 -189.333 -194 -252c-31.333 -45.333 -57 -68 -77 -68c-34 0 -51 16.333 -51 49
c0 68.667 290.667 418.667 872 1050c41.333 44.667 97.333 98.334 168 161.001c-131.333 -25.333 -286 -82.333 -464 -171c-16 -8 -27.667 -12 -35 -12c-23.333 0 -35 17.667 -35 53c0 38.667 75.333 84.667 226 138c105.333 38 202.666 66.667 291.999 86
c110 23.333 214.333 35 313 35c112 0 194 -21.333 246 -64c58 -47.333 87 -125.333 87 -234c0 -100.667 -68.333 -201.667 -205 -303c-158 -116.667 -367.333 -179 -628 -187c16.667 -37.333 42 -126.666 76 -267.999c31.333 -128 53.166 -199.667 65.499 -215
s38.166 -23 77.499 -23c8 0 13.667 -2.66699 17 -8c-0.666992 -14 -17 -26.667 -49 -38c-26.667 -9.33301 -49 -14 -67 -14c-23.333 0 -46.666 7.66699 -69.999 23s-40 48.666 -50 99.999l-41 192c-16.667 73.333 -34 136.333 -52 189c-7.33301 20 -20.333 46 -39 78
c-26 26 -39 41.667 -39 47c0 17.333 29.667 26 89 26c22 0 40 -8.66699 54 -26c100 0 221.833 28.833 365.5 86.5s250.167 121.167 319.5 190.5c84 84 126 155.333 126 214c0 96.667 -83 145 -249 145c-65.333 0 -145 -7.66699 -239 -23z" />
    <glyph glyph-name="S" unicode="S" horiz-adv-x="1281" 
d="M1340 528c0 -71.333 -52.665 -155.002 -157.998 -251.002c-110 -100.667 -243.333 -179 -400 -235c-148.667 -52.667 -301 -79 -457 -79c-212 0 -318 63.667 -318 191c0 76 59.667 145.333 179 208c104 55.333 198.667 83 284 83c27.333 0 41 -8.33301 41 -25
c0 -11.333 -14 -19 -42 -23c-81.333 -12.667 -160 -36 -236 -70c-106.667 -46.667 -160 -99 -160 -157c0 -70.667 82.333 -106 247 -106c134 0 277.667 26.667 431 80c156.667 54.667 285 124.334 385 209.001c97.333 82.667 146 144.667 146 186
c0 40.667 -65.667 68.667 -197 84c-217.333 25.333 -339 41 -365 47c-131.333 32 -197 88.667 -197 170c0 103.333 77 201.666 231 294.999c126 76.667 286.333 141.334 481 194.001c170.667 46 307.334 69 410.001 69c131.333 0 197 -40.667 197 -122
c0 -70 -61 -152.333 -183 -247c-118 -91.333 -214.333 -137 -289 -137c-60 0 -90 20.667 -90 62c0 34.667 34.333 75.334 103 122.001c65.333 44 116.333 66 153 66c12.667 0 19 -4 19 -12l-103 -56c-68.667 -37.333 -104.334 -64.666 -107.001 -81.999
c3.33301 -4.66699 9 -7 17 -7c48 0 127 32 237 96c116.667 68 175 124 175 168c0 38.667 -46.667 58 -140 58c-106.667 0 -257 -30.667 -451 -92c-130.667 -41.333 -245.334 -85.333 -344.001 -132c-170.667 -80 -256 -152.333 -256 -217c0 -41.333 54 -72 162 -92l321 -42
c125.333 -18.667 201.666 -46 228.999 -82c30 -40.667 45 -81.334 45 -122.001z" />
    <glyph glyph-name="T" unicode="T" horiz-adv-x="1310" 
d="M1727 1313l190.998 -4.00098c60.667 0 136.334 6.66699 227.001 20c40.667 6 64.667 9 72 9c10.667 0 16 -4.66699 16 -14c0 -12.667 -16.333 -23.667 -49 -33l-67 -15c-132.667 -34.667 -286.667 -50 -462 -46c-146.667 -165.333 -309.334 -380.333 -488.001 -645
c-132 -195.333 -234 -330.333 -306 -405c-144.667 -150.667 -288 -226 -430 -226c-51.333 0 -91.666 16.333 -120.999 49s-44 75 -44 127c0 91.333 41.667 170 125 236s143 99 179 99c14 0 21 -6.66699 21 -20c0 -12.667 -23 -36.334 -69 -71.001
c-60.667 -45.333 -104 -83 -130 -113c-46 -54 -69 -110.667 -69 -170c0 -60 24.333 -90 73 -90c106 0 246.333 103 421 309c38.667 44.667 148 190.667 328 438c133.333 182.667 276 344.334 428 485.001l-289 7c-138 0 -265.333 -31 -382 -93
c-76.667 -40.667 -152.667 -98 -228 -172c-62.667 -62 -97.667 -93 -105 -93c-26 0 -39 9.33301 -39 28c0 4.66699 19.667 29.334 59 74.001c48.667 54.667 85.334 101.667 110.001 141c39.333 62.667 59 118 59 166c0 5.33301 -0.333008 13 -1 23s-1 17.667 -1 23
c0 20.667 8.66699 31 26 31c40.667 0 61 -11.333 61 -34c0 -82 -50.667 -178 -152 -288c109.333 100 214 171.667 314 215c108.667 46.667 233.334 70 374.001 70c69.333 0 159.666 -4.66699 270.999 -14c21.333 25.333 40 38 56 38c15.333 0 22.333 -14 21 -42z" />
    <glyph glyph-name="U" unicode="U" horiz-adv-x="1508" 
d="M1339 644l-436.002 -364.997c-258 -200 -436 -300 -534 -300c-35.333 0 -65.5 12.667 -90.5 38s-37.5 55.666 -37.5 90.999c0 68 27.333 146.333 82 235c65.333 105.333 172.333 236.333 321 393c136 142.667 260.333 259.667 373 351
c46.667 34 112.334 87.667 197.001 161c11.333 11.333 17 19.666 17 24.999c0 6 -4 9 -12 9c-42 0 -120.333 -33 -235 -99c-95.333 -54.667 -171.333 -104.334 -228 -149.001c-20 -16 -35.333 -24 -46 -24c-22.667 0 -34 9.33301 -34 28c0 16.667 43.667 55.334 131 116.001
c193.333 134 338 201 434 201c46 0 69 -23.333 69 -70c0 -46 -38.667 -103.667 -116 -173c-171.333 -153.333 -338.666 -317.333 -501.999 -492c-253.333 -270.667 -380 -451.334 -380 -542.001c0 -21.333 7 -32 21 -32c42.667 0 151 52.333 325 157
c120.667 73.333 255.667 169.666 405 288.999l384 319c50 41.333 114.667 103 194 185l187 195c118 119.333 184.667 179 200 179c16 0 31.333 -6.66699 46 -20s22 -27.666 22 -42.999c0 -9.33301 -6 -20 -18 -32c-281.333 -284 -500.666 -521.333 -657.999 -712
c-227.333 -274 -341 -438.333 -341 -493c0 -28 17 -42 51 -42c5.33301 0 12.5 1.33301 21.5 4s15.833 4 20.5 4c6.66699 0 10 -3 10 -9c0 -12 -13.667 -22 -41 -30c-20.667 -6 -39.334 -9 -56.001 -9c-51.333 0 -77 28.333 -77 85c0 112 110.333 302.333 331 571z" />
    <glyph glyph-name="V" unicode="V" horiz-adv-x="1424" 
d="M680 833c7.33301 0 11 -3.66406 11 -10.9971c0 -27.333 -44 -73.833 -132 -139.5s-151 -98.5 -189 -98.5c-52 0 -78 24.667 -78 74c0 70.667 64.667 168.667 194 294c117.333 113.333 252 216.666 404 309.999c156 96 270.667 144 344 144c50 0 75 -24.333 75 -73
c0 -31.333 -16.333 -71 -49 -119c-24 -34.667 -90 -111.334 -198 -230.001c-388.667 -426.667 -583 -721 -583 -883c0 -58.667 25.667 -88 77 -88c102 0 276.167 108.5 522.5 325.5s443.166 425.333 590.499 625s221 327.167 221 382.5c0 18.667 -10 28 -30 28
c-50.667 0 -145.167 -67.5 -283.5 -202.5s-206.5 -224.833 -204.5 -269.5l1 -24c0.666992 -10 -2.66602 -15 -9.99902 -15s-14.666 5.66699 -21.999 17s-11 21 -11 29c0 31.333 38.667 94.333 116 189c60.667 74 126.334 140.667 197.001 200
c97.333 82.667 176.333 124 237 124c49.333 0 74 -24.667 74 -74c0 -98 -85.333 -259.333 -256 -484c-136.667 -180 -309.334 -361.667 -518.001 -545c-268.667 -235.333 -477.334 -353 -626.001 -353c-52.667 0 -93.667 21.667 -123 65c-26 38 -39 84.333 -39 139
c0 124 73.333 281.333 220 472c88.667 116 224.667 266 408 450c146.667 146.667 220 228.667 220 246c0 12.667 -7.66699 19 -23 19c-76 0 -238.333 -99.667 -487 -299c-250.667 -200.667 -376 -334.334 -376 -401.001c0 -11.333 6 -17 18 -17
c34.667 0 93.5 32.167 176.5 96.5s126.833 96.5 131.5 96.5z" />
    <glyph glyph-name="W" unicode="W" horiz-adv-x="1915" 
d="M1275 710l-420 -429.997c-224.667 -209.333 -388 -314 -490 -314c-42.667 0 -77.334 13.333 -104.001 40s-40 61 -40 103c0 122.667 87.667 282.667 263 480c116 131.333 278.667 285.666 488 462.999c175.333 149.333 263 226.666 263 231.999
c0 8.66699 -5.33301 13 -16 13c-52 0 -173.667 -61 -365 -183c-193.333 -123.333 -290 -204 -290 -242c0 -8 5 -12 15 -12c12.667 0 37.667 10.333 75 31l77 42c12 0.666992 18 -5.33301 18 -18c0 -15.333 -32.667 -38.333 -98 -69s-109.666 -46 -132.999 -46
c-42 0 -63 20.667 -63 62c0 37.333 50 98.666 150 183.999c82 70 188 138.667 318 206c148.667 77.333 264.667 116 348 116c36 0 54 -15.333 54 -46c0 -46.667 -56 -121.667 -168 -225c-582 -538.667 -873 -879.667 -873 -1023c0 -37.333 16.667 -56 50 -56
c92 0 307.667 156.333 647 469c192.667 177.333 396 376.666 610 597.999c23.333 26.667 60.333 63.334 111 110.001c16.667 12 29 18 37 18c10 0 20.333 -6.16699 31 -18.5s16 -23.5 16 -33.5c0 -14.667 -59.667 -89.667 -179 -225
c-149.333 -169.333 -259.666 -305.666 -330.999 -408.999c-119.333 -170 -179 -305.333 -179 -406c0 -66.667 28 -100 84 -100c50.667 0 114.667 30 192 90c74 57.333 193.333 171.666 358 342.999c163.333 169.333 307.166 342.166 431.499 518.499
s186.5 280.166 186.5 311.499c0 13.333 -6 20 -18 20c-30.667 0 -105.334 -50.667 -224.001 -152l-182 -155c-5.33301 2.66699 -8 7.33398 -8 14.001c0 41.333 61.667 111.833 185 211.5s212.333 149.5 267 149.5c40.667 0 61 -21.667 61 -65
c0 -78.667 -81.333 -227.667 -244 -447c-117.333 -158.667 -231.666 -298 -342.999 -418c-138.667 -149.333 -259.334 -263.666 -362.001 -342.999c-106 -82 -202.333 -123 -289 -123c-106 0 -159 64.333 -159 193c0 86 27 181.333 81 286c30.667 60 84.334 145 161.001 255
z" />
    <glyph glyph-name="X" unicode="X" horiz-adv-x="1228" 
d="M1015 701l-172.005 -429.999c-37.333 -96 -56 -161 -56 -195c0 -30 15 -45 45 -45c4.66699 0 11.834 0.833008 21.501 2.5s16.834 2.5 21.501 2.5c11.333 0 17 -4.66699 17 -14c0 -10 -14 -18.667 -42 -26c-21.333 -6 -39.666 -9 -54.999 -9
c-33.333 0 -59.5 11.667 -78.5 35s-28.5 52 -28.5 86c0 90 51.333 256.667 154 500c-260.667 -158.667 -528 -343.334 -802 -554.001c-48 -36.667 -75.333 -55 -82 -55c-18 0 -27 11 -27 33c0 6.66699 6.33301 19.334 19 38.001c18.667 24.667 137.334 114 356.001 268
c196 136.667 330.667 227.667 404 273c42.667 24.667 104.334 64 185.001 118l112 267c60.667 149.333 91 236.666 91 261.999c0 14.667 -6 22 -18 22c-28.667 0 -91.667 -32.667 -189 -98c-88 -59.333 -148.667 -106 -182 -140c-17.333 -20 -44 -46.333 -80 -79
c-6.66699 -4.66699 -13 -7 -19 -7c-15.333 0 -23 7.66699 -23 23c0 49.333 74.333 123 223 221c144 94.667 244.333 142 301 142c27.333 0 50.333 -10 69 -30s28 -43.667 28 -71c0 -40.667 -19.667 -113 -59 -217l-84 -209c507.333 327.333 801.333 491 882 491
c21.333 0 32 -12 32 -36c0 -12 -22.667 -28 -68 -48c-118 -52 -307.333 -158.333 -568 -319z" />
    <glyph glyph-name="Y" unicode="Y" horiz-adv-x="1484" 
d="M1426 618c-221.333 -190.667 -365.998 -312.004 -433.998 -364.004c-224 -172 -383 -258 -477 -258c-98.667 0 -148 56.667 -148 170c0 114.667 68.333 248.667 205 402c60 67.333 173 174.333 339 321c126 111.333 222.667 200 290 266c80.667 78.667 121 126 121 142
c0 7.33301 -4.66699 11 -14 11c-41.333 0 -133.333 -32.667 -276 -98s-288.667 -160.666 -438 -285.999s-224 -205.666 -224 -240.999c0 -13.333 8.66699 -20 26 -20c41.333 0 97.666 17 168.999 51l102 51c5.33301 -2 8 -5 8 -9c0 -24 -41.667 -55.667 -125 -95
c-78.667 -37.333 -134.667 -56 -168 -56c-54 0 -81 24 -81 72c0 68 74.333 165 223 291c106 90 230 173.333 372 250c172.667 94 311.334 141 416.001 141c57.333 0 86 -25.333 86 -76c0 -62.667 -83.333 -174 -250 -334l-466 -437
c-166.667 -170.667 -250 -299.667 -250 -387c0 -46 22.667 -69 68 -69c92 0 263.333 97 514 291c150 116 309.667 251.333 479 406c70.667 64.667 214 208 430 430c64 66 103 99 117 99c13.333 0 27.166 -4.33301 41.499 -13s21.5 -19 21.5 -31
c0 -13.333 -7 -27.666 -21 -42.999l-1183 -1337l-130 -130c-62.667 -62 -97.334 -104.333 -104.001 -127c8 2 21 10.333 39 25c16 14 27.333 21 34 21c6 0 10.333 -2.66699 13 -8c-0.666992 -10 -31 -41.667 -91 -95c-57.333 -51.333 -99.333 -93.666 -126 -126.999
c-24.667 -30.667 -45 -46 -61 -46c-14 0 -27.333 6.66699 -40 20s-19 27.333 -19 42c0 22.667 20 56.667 60 102l699 792z" />
    <glyph glyph-name="Z" unicode="Z" horiz-adv-x="1226" 
d="M689 212c24 -26.667 36.002 -58.6689 36.002 -96.002c0 -14.667 -2.33301 -33.667 -7 -57c8.66699 1.33301 16.834 -1.66699 24.501 -9s11.5 -15.333 11.5 -24c0 -21.333 -10 -32 -30 -32c-5.33301 6 -14 14 -26 24c-49.333 -138 -179.833 -279.5 -391.5 -424.5
s-391.834 -217.5 -540.501 -217.5c-78 0 -117 24.333 -117 73c0 60.667 52.333 142.334 157 245.001c91.333 88.667 211 172.334 359 251.001c169.333 90 311.333 135 426 135c19.333 0 37.666 -1.33301 54.999 -4c6.66699 16.667 10 32.334 10 47.001
c0 28 -11.333 48 -34 60c-124 -50 -220.333 -75 -289 -75c-33.333 0 -50 12.333 -50 37c0 29.333 32.667 55.333 98 78c54 18.667 100.333 28 139 28c11.333 0 28.166 -1.16699 50.499 -3.5s39.166 -3.5 50.499 -3.5c30 0 132.333 56 307 168
c138.667 88.667 267 189.334 385 302.001c165.333 157.333 248 287.666 248 390.999c0 66 -48 99 -144 99c-108 0 -234.667 -22.333 -380 -67c-135.333 -42 -254.666 -92.333 -357.999 -151c-106.667 -61.333 -160 -102.333 -160 -123c0 -8.66699 6.33301 -13 19 -13
c48.667 0 118 18.667 208 56c108.667 45.333 176.667 71 204 77l8 -8c-0.666992 -22.667 -68.334 -59.334 -203.001 -110.001c-131.333 -49.333 -217.666 -74 -258.999 -74c-49.333 0 -74 18.333 -74 55c0 53.333 55.333 117 166 191c106 70 229.333 128.667 370 176
c148.667 49.333 282.667 74 402 74c180 0 270 -80.333 270 -241c0 -127.333 -76.333 -268.333 -229 -423s-390 -291.667 -712 -411zM622.002 32.998c-12 2.66699 -24 4 -36 4c-148 0 -333.333 -81 -556 -243s-334 -275.333 -334 -340c0 -22.667 15.333 -34 46 -34
c70.667 0 188 50.333 352 151c135.333 82.667 244 159.667 326 231c72.667 64 140 141 202 231z" />
    <glyph glyph-name="bracketleft" unicode="[" horiz-adv-x="628" 
d="M1489 1489l-43 -55l-171 -1l-1472 -1707l171 -1l-39 -55h-284l1565 1819h273z" />
    <glyph glyph-name="backslash" unicode="\" horiz-adv-x="1601" 
d="M1261 -155c0 -10.667 -7.16797 -21.832 -21.501 -33.499s-27.166 -17.834 -38.499 -18.501l-10 4c-27.333 28 -86.333 271 -177 729c-90 451.333 -135 722 -135 812c0 48 20.333 72 61 72c8.66699 0 13 -16.667 13 -50c0 -22 22 -146.667 66 -374l126 -631l63 -266
c35.333 -148.667 53 -230 53 -244z" />
    <glyph glyph-name="bracketright" unicode="]" horiz-adv-x="628" 
d="M1210 1481h271l-1584 -1803h-281l58 55h169l1484 1693h-169z" />
    <glyph glyph-name="asciicircum" unicode="^" 
d="M1346 588h-68l-431 659l-440 -659h-182l563 846h12z" />
    <glyph glyph-name="underscore" unicode="_" 
d="M324 -179h922v-77h-922v77z" />
    <glyph glyph-name="grave" unicode="`" 
d="M891 661c-18 0 -49.332 27.333 -93.999 82c-44 52.667 -66 87 -66 103c0 8.66699 5.66699 17.834 17 27.501s21.333 14.5 30 14.5c13.333 0 28.666 -18.333 45.999 -55c3.33301 -8 19.333 -36.667 48 -86c26 -44.667 39 -68.334 39 -71.001c0 -10 -6.66699 -15 -20 -15z
" />
    <glyph glyph-name="a" unicode="a" horiz-adv-x="765" 
d="M134 210c-178 -140 -300.668 -210 -368.001 -210c-8 -0 -12 4.33301 -12 13c0 12 8 19.333 24 22c62.667 10 149.334 58.333 260.001 145l129 101l207 165c94.667 65.333 175.667 98 243 98c50 0 78 -25 84 -75c26 24.667 44 37 54 37c22 0 33 -9 33 -27
c0 -23.333 -51.167 -94.666 -153.5 -213.999s-153.5 -189 -153.5 -209c0 -14 11 -21.333 33 -22s33 -6.33398 33 -17.001c0 -13.333 -22.667 -20 -68 -20c-44.667 0 -67 19.667 -67 59c0 31.333 18 76 54 134l-124 -105c-60.667 -45.333 -109 -68 -145 -68
c-57.333 0 -86 29 -86 87c0 32 7.66699 67.333 23 106zM630.999 503c-39.333 0 -120.667 -58.668 -244 -176.001s-185 -195.666 -185 -234.999c0 -18 8.66699 -27 26 -27c38 0 119.5 57.5 244.5 172.5s187.5 192.5 187.5 232.5c0 22 -9.66699 33 -29 33z" />
    <glyph glyph-name="b" unicode="b" horiz-adv-x="781" 
d="M517 510c34.667 25.333 69 37.998 103 37.998c29.333 0 53.833 -10.667 73.5 -32s29.5 -47 29.5 -77c0 -85.333 -47.667 -178.666 -143 -279.999c-96.667 -103.333 -187.334 -155 -272.001 -155c-80.667 0 -121 41.667 -121 125c0 44 19 105.333 57 184
c-103.333 -92.667 -176 -154.667 -218 -186c-111.333 -84.667 -198 -127 -260 -127c-8 0 -12 4 -12 12c0 12 8.66699 19.667 26 23c68 14 160 67 276 159c128.667 102 251.334 225.333 368.001 370c174.667 216.667 324.334 377.334 449.001 482.001
c130 108.667 216.333 163 259 163c42 0 63 -20.667 63 -62c0 -45.333 -42.333 -116 -127 -212c-72 -81.333 -205.333 -184.333 -400 -309c-27.333 -16 -67 -41 -119 -75c-8.66699 -6 -19.334 -19.667 -32.001 -41zM1155 1139c0 8 -3.33301 12 -10 12
c-30.667 0 -121.667 -78 -273 -234c-122.667 -126 -210.667 -222.333 -264 -289c264 162 433.333 304.333 508 427c26 42 39 70 39 84zM550 269.998c63.333 76 95 138 95 186c0 34 -14 51 -42 51c-32.667 0 -62.667 -15.833 -90 -47.5s-41 -64.167 -41 -97.5
c0 -45.333 26 -76 78 -92zM527 238.998c-62 26 -93 66.667 -93 122c0 20.667 7 46.334 21 77.001c-136 -172.667 -204 -288.334 -204 -347.001c0 -27.333 13 -41 39 -41c62 0 141 63 237 189z" />
    <glyph glyph-name="c" unicode="c" horiz-adv-x="627" 
d="M222 279l-209.001 -164c-108 -76.667 -190.333 -115 -247 -115c-8 0 -12 4 -12 12c0 12 8 19.667 24 23c62 12 146 58.333 252 139l278 222c152 124.667 269 187 351 187c43.333 0 65 -16.667 65 -50c14.667 0 22 -6.66699 22 -20c0 -11.333 -8.33301 -17.333 -25 -18
c-13.333 -47.333 -38.333 -94.333 -75 -141c-44 -56 -86.333 -84 -127 -84c-24 0 -36 11 -36 33c0 31.333 26 72 78 122c46 44.667 87.333 74.667 124 90l2 11c0 9.33301 -4.66699 14 -14 14c-43.333 0 -122.833 -59.667 -238.5 -179s-173.5 -202.666 -173.5 -249.999
c0 -30 12.667 -51 38 -63c12.667 -6 36.334 -10.667 71.001 -14c25.333 -2.66699 38 -8.33398 38 -17.001c0 -13.333 -23.333 -20 -70 -20c-104 0 -156 47.333 -156 142c0 36 13.333 82.667 40 140zM667.999 471c-19.333 -8.66699 -46.667 -30.667 -82 -66
c-38 -37.333 -57 -63.333 -57 -78l8 -8c18 0 43 20.667 75 62c27.333 35.333 46 65.333 56 90z" />
    <glyph glyph-name="d" unicode="d" horiz-adv-x="765" 
d="M172 240l-189.001 -145c-93.333 -63.333 -165.666 -95 -216.999 -95c-8 0 -12 4 -12 12c0 12 6.66699 19.667 20 23c51.333 12.667 98 31.667 140 57c63.333 37.333 152.166 106 266.499 206s202.5 168.333 264.5 205c44 26 83.667 39 119 39
c59.333 0 90.333 -24.667 93 -74c100 126 213.333 260.667 340 404c194.667 221.333 311 332 349 332c21.333 0 32 -12 32 -36c0 -20 -27 -58.333 -81 -115c-100.667 -104.667 -250.667 -274 -450 -508c-244.667 -287.333 -367 -449.666 -367 -486.999
c0 -15.333 11 -23.333 33 -24s33 -6.33398 33 -17.001c0 -13.333 -16 -20 -48 -20c-52.667 0 -79 21.667 -79 65c0 34.667 22 88.667 66 162c-131.333 -140 -224.666 -210 -279.999 -210c-51.333 0 -77 27.333 -77 82c0 30.667 14.667 78.667 44 144zM232.999 66
c38 0 113.333 56.833 226 170.5s169 189.5 169 227.5c0 19.333 -9 29 -27 29c-46.667 0 -123 -55.333 -229 -166s-159 -190.667 -159 -240c0 -14 6.66699 -21 20 -21z" />
    <glyph glyph-name="e" unicode="e" horiz-adv-x="604" 
d="M139 162c-33.333 -8 -95.998 -38.666 -187.998 -91.999c-81.333 -46.667 -143 -70 -185 -70c-8 0 -12 4.33301 -12 13c0 12 8.66699 19.333 26 22c40.667 6.66699 98 31.667 172 75c81.333 46.667 147.666 76 198.999 88c30.667 74 94 151.667 190 233
c102 87.333 189 131 261 131c53.333 0 80 -22.667 80 -68c0 -59.333 -56.333 -124 -169 -194c-82.667 -52 -167.334 -92.667 -254.001 -122c-9.33301 -21.333 -14 -43.666 -14 -66.999c0 -34.667 12 -57.334 36 -68.001c12 -4.66699 34.667 -7.66699 68 -9
c24 -0.666992 36 -6.33398 36 -17.001c0 -16.667 -41 -25 -123 -25c-86.667 0 -130 37.667 -130 113c0 17.333 2.33301 36.333 7 57zM271.002 218.001c61.333 30 126.001 70.668 194.001 122.001c90.667 67.333 136 120.666 136 159.999c0 16 -7.33301 24 -22 24
c-43.333 0 -102.333 -40 -177 -120c-66.667 -72.667 -110.334 -134.667 -131.001 -186z" />
    <glyph glyph-name="f" unicode="f" horiz-adv-x="658" 
d="M412 443l-337.999 -278c-134.667 -110 -237.334 -165 -308.001 -165c-8 -0 -12 4.33301 -12 13c0 10.667 8.66699 18 26 22c26 5.33301 54.667 15.333 86 30c52.667 22.667 152.334 94 299.001 214c120 97.333 218.667 182 296 254c104.667 97.333 302.667 310 594 638
c37.333 42 66.666 63 87.999 63c24.667 0 37 -12.333 37 -37c0 -16.667 -6.33301 -34.667 -19 -54l-168 -189l-197 -218l-404 -467c47.333 0.666992 71 -27.333 71 -84c0 -103.333 -75.333 -261 -226 -473c-156 -218.667 -280.333 -328 -373 -328
c-28 0 -50.333 10.667 -67 32s-25 46.333 -25 75c0 32.667 11 74.667 33 126c34.667 80 129.667 221 285 423zM379.001 30c29.333 62 44 115.333 44 160c0 31.333 -12.333 47 -37 47c-22 0 -43.667 -18 -65 -54c-19.333 -33.333 -29 -62.333 -29 -87
c0 -44 23.333 -66 70 -66h17zM366.001 -3c-74 1.33301 -110.999 36.335 -110.999 105.002c-278.667 -346.667 -418 -559.334 -418 -638.001c0 -29.333 13 -44 39 -44c61.333 0 152.666 80 273.999 240c98 129.333 170 241.666 216 336.999z" />
    <glyph glyph-name="g" unicode="g" horiz-adv-x="745" 
d="M153 225c-94 -73.333 -154.333 -118.669 -181 -136.002c-88 -59.333 -156.333 -89 -205 -89c-8.66699 0 -13 4 -13 12c0 11.333 8 19 24 23c70.667 16.667 158.334 65.667 263.001 147l280 223c134.667 98.667 236.334 148 305.001 148
c56.667 0 84.334 -31.667 83.001 -95c31.333 36 53.666 54 66.999 54c19.333 0 29 -11 29 -33c0 -20.667 -112 -170 -336 -448c4 0 11.667 0.333008 23 1c9.33301 0.666992 16.666 1 21.999 1c8.66699 0 13 -5.33301 13 -16c0 -11.333 -13 -18.333 -39 -21l-52 -3
c-324.667 -402.667 -563.334 -604 -716.001 -604c-62.667 0 -94 26.333 -94 79c0 84 62.333 182.833 187 296.5s298.334 196.834 521.001 249.501c57.333 64 103.666 122.333 138.999 175c-68 -59.333 -111 -95.666 -129 -108.999c-60 -44 -110.667 -66 -152 -66
c-48.667 0 -73 29.333 -73 88c0 37.333 11.333 78.333 34 123zM672 473.997c0 24 -10.998 36 -32.998 36c-42.667 0 -124.834 -58.5 -246.501 -175.5s-182.5 -198.833 -182.5 -245.5c0 -16.667 6.33301 -25 19 -25c37.333 0 119.666 56.333 246.999 169
c130.667 116 196 196.333 196 241zM298.002 -35.0029c-148.667 -36 -292 -110.833 -430 -224.5s-207 -203.5 -207 -269.5c0 -28 12.333 -42 37 -42c56 0 160.333 74.667 313 224c114 111.333 209.667 215.333 287 312z" />
    <glyph glyph-name="h" unicode="h" horiz-adv-x="841" 
d="M359 229c241.333 214.667 402.666 321.999 483.999 321.999c36 0 54 -19 54 -57c0 -40.667 -57.167 -118 -171.5 -232s-171.5 -181 -171.5 -201c0 -18.667 18.333 -28 55 -28c9.33301 0 14 -5.33301 14 -16c0 -12.667 -16.333 -19 -49 -19c-58 0 -87 24.333 -87 73
c0 56 44.667 129.667 134 221c109.333 112 168.333 175.667 177 191c0.666992 8 -3.33301 12 -12 12c-36.667 0 -130 -63.667 -280 -191c-112 -94.667 -202 -176 -270 -244c-27.333 -27.333 -49.666 -47.333 -66.999 -60c-10 0 -19.5 6.33301 -28.5 19
s-13.5 24.334 -13.5 35.001c0 15.333 45.667 81 137 197l159 200c-64.667 -60.667 -145.334 -129 -242.001 -205l-192 -147c-96.667 -66 -171 -99 -223 -99c-8 0 -12 4 -12 12c0 12 6.66699 19.667 20 23c55.333 14 104 34 146 60c78 48 195 138 351 270l202 171
c42.667 36 161 167.667 355 395c174.667 204.667 270.334 307 287.001 307c24 0 36 -15 36 -45c0 -20.667 -67 -110 -201 -268z" />
    <glyph glyph-name="i" unicode="i" horiz-adv-x="527" 
d="M679 753c-32 0 -47.999 16.332 -47.999 48.999c0 27.333 16.333 52 49 74c29.333 20 58.666 30 87.999 30c34.667 0 52 -19 52 -57c0 -27.333 -17.333 -50.666 -52 -69.999c-30 -17.333 -59.667 -26 -89 -26zM237.001 59.999c0 -18 19.333 -27 58 -27
c8.66699 0 13 -5.33301 13 -16c0 -12.667 -22 -19 -66 -19c-50 0 -75 24 -75 72c0 56 74.333 173 223 351l-273 -223c-161.333 -132 -278.333 -198 -351 -198c-8 0 -12 4.33301 -12 13c0 12 6.66699 19.333 20 22c42 8 80.333 21.667 115 41
c43.333 24 135.333 91.667 276 203l306 257c13.333 4.66699 31.333 7 54 7s34 -13 34 -39c0 -28 -53.667 -103.5 -161 -226.5s-161 -195.5 -161 -217.5z" />
    <glyph glyph-name="j" unicode="j" horiz-adv-x="499" 
d="M679 753c-31.333 0 -46.999 16.333 -46.999 49c0 28 16.333 52.667 49 74c29.333 20 58.666 30 87.999 30c34.667 0 52 -19 52 -57c0 -26.667 -17.333 -50 -52 -70c-30.667 -17.333 -60.667 -26 -90 -26zM191.001 29c29.333 2.66699 54.666 3.99805 75.999 3.99805
c8.66699 0 13 -5.33301 13 -16c0 -11.333 -16.333 -17.666 -49 -18.999l-67 -3c-60 -71.333 -180 -202.666 -360 -393.999c-113.333 -120 -188 -180 -224 -180c-34 0 -51 20 -51 60c0 80 49.5 178 148.5 294s228.833 196.667 389.5 242c126.667 140 248.667 288.667 366 446
l-294 -248c-178.667 -143.333 -303 -215 -373 -215c-8 0 -12 4 -12 12c0 12 9.33301 19.667 28 23c23.333 4 54.333 15 93 33c42.667 20 126.334 80.333 251.001 181c120.667 98 213.334 178 278.001 240c61.333 59.333 102.666 89 123.999 89c35.333 0 53 -13.333 53 -40
c0 -24 -16.333 -55.667 -49 -95zM37.001 -28.002c-136.667 -42.667 -249 -116.5 -337 -221.5s-132 -188.167 -132 -249.5c0 -16.667 5.66699 -25 17 -25c25.333 0 176 165.333 452 496z" />
    <glyph glyph-name="k" unicode="k" horiz-adv-x="819" 
d="M432 462l-267.999 -224.998l-183 -145c-87.333 -61.333 -159 -92 -215 -92c-8 0 -12 4.33301 -12 13c0 11.333 6.66699 18.666 20 21.999c88 20.667 207 93.667 357 219l285 238c65.333 54.667 170.666 163 315.999 325l280 320c44 52.667 75 79 93 79
c23.333 0 35 -11.667 35 -35c0 -29.333 -28.667 -79.333 -86 -150l-124 -141l-399 -460c98.667 70.667 171 106 217 106c54 0 81 -26.667 81 -80c0 -60 -52.667 -111.333 -158 -154c-85.333 -34.667 -165 -52.334 -239 -53.001c24 -56.667 55 -121 93 -193
c12.667 -15.333 33.334 -23 62.001 -23c9.33301 0 14 -5.33301 14 -16c0 -14.667 -26 -22 -78 -22c-25.333 0 -47 6.66699 -65 20c-16.667 11.333 -53.334 77 -110.001 197l-100 -120c-56 -65.333 -89.333 -98 -100 -98c-28.667 0 -43 16.667 -43 50
c0 19.333 52.333 92.333 157 219zM402.001 272.002c100 12.667 182.333 40 247 82s97 77.667 97 107c0 15.333 -9.66699 23 -29 23c-73.333 0 -178.333 -70.667 -315 -212z" />
    <glyph glyph-name="l" unicode="l" horiz-adv-x="581" 
d="M306 323l-246.999 -186.001c-133.333 -91.333 -231 -137 -293 -137c-8 0 -12 4 -12 12c0 12.667 12.333 21 37 25c28 4 60.333 16 97 36c44 23.333 119 74.333 225 153l245 186c99.333 148.667 236 310 410 484c193.333 193.333 323 290 389 290
c30.667 0 46 -16.333 46 -49c0 -84 -98.667 -218.333 -296 -403c-124.667 -116 -260.334 -228.333 -407.001 -337c-34 -25.333 -76.333 -79 -127 -161c-52.667 -84 -79 -143.333 -79 -178c0 -16.667 18.333 -25 55 -25c8.66699 0 13 -5.33301 13 -16
c0 -13.333 -17.333 -20 -52 -20c-54.667 0 -82 28 -82 84c0 54.667 26 135.334 78 242.001zM1150 1155c-26 0 -129 -101.666 -309 -304.999c-171.333 -194.667 -280.333 -328.334 -327 -401.001c436 354 654 584 654 690c0 10.667 -6 16 -18 16z" />
    <glyph glyph-name="m" unicode="m" horiz-adv-x="1114" 
d="M423 447l-319 -263.998c-160.667 -122 -273.334 -183 -338.001 -183c-8 0 -12 4.33301 -12 13c0 11.333 6.66699 18.666 20 21.999c48.667 12 86.334 25.333 113.001 40c42 22 130 86.333 264 193c60.667 47.333 148 122.666 262 225.999
c42.667 44.667 73.334 67 92.001 67c37.333 0 56 -12 56 -36c0 -30.667 -37.667 -94.334 -113 -191.001c145.333 133.333 245.666 200 300.999 200c18.667 0 35.667 -5.83301 51 -17.5s23 -26.5 23 -44.5c0 -26.667 -18 -65.667 -54 -117
c134.667 132.667 240.667 199 318 199c44.667 0 67 -18 67 -54c0 -46.667 -54.5 -126 -163.5 -238s-163.5 -179.333 -163.5 -202c0 -17.333 11.333 -26.166 34 -26.499s34 -5.83301 34 -16.5c0 -13.333 -19.333 -20 -58 -20c-52 0 -78 23 -78 69
c0 52 47.667 132.167 143 240.5s143 168.833 143 181.5c0 8 -5 12 -15 12c-40 0 -127.333 -63 -262 -189c-111.333 -104 -193.333 -188.333 -246 -253c-32 -40 -55.667 -60 -71 -60c-26 0 -39 12 -39 36c0 24.667 52.333 95.334 157 212.001s157 188.667 157 216
c0 12 -6.66699 18 -20 18c-34.667 0 -113.667 -58 -237 -174c-106 -100 -180.667 -178 -224 -234c-34 -44 -63.667 -66 -89 -66c-22.667 0 -34 10 -34 30c0 25.333 46.333 95.666 139 210.999z" />
    <glyph glyph-name="n" unicode="n" horiz-adv-x="859" 
d="M433 303c183.333 155.333 312.002 233.003 386.002 233.003c47.333 0 71 -22.333 71 -67c0 -39.333 -53.667 -110.5 -161 -213.5s-161 -165.167 -161 -186.5s12 -32.833 36 -34.5s36 -7.5 36 -17.5c0 -13.333 -24 -20 -72 -20c-55.333 0 -83 24.667 -83 74
c0 41.333 26.667 93.666 80 156.999c27.333 32.667 76.666 83 147.999 151c53.333 50.667 80 81.334 80 92.001c0 8.66699 -6 13 -18 13c-38 0 -120.667 -50.667 -248 -152c-106 -84 -184.667 -153 -236 -207c-65.333 -68.667 -105 -103 -119 -103
c-10.667 0 -20.334 5.16699 -29.001 15.5s-13 21.166 -13 32.499c0 15.333 46 77.333 138 186l165 195l-256 -208l-189 -145c-96 -65.333 -169.667 -98 -221 -98c-8.66699 0 -13 4 -13 12c0 12 9.33301 20 28 24c25.333 4.66699 55 14.667 89 30
c48.667 21.333 148 92.666 298 213.999c134.667 109.333 231.667 193 291 251c10 10 25.667 22 47 36c10.667 4 22 6 34 6c11.333 0 22.833 -3.83301 34.5 -11.5s17.5 -16.834 17.5 -27.501c0 -12 -53.333 -89 -160 -231z" />
    <glyph glyph-name="o" unicode="o" horiz-adv-x="720" 
d="M208 267l-206.001 -156.999c-105.333 -73.333 -184 -110 -236 -110c-8 0 -12 4 -12 12c0 12.667 6.66699 20.334 20 23.001c40.667 7.33301 75.334 19 104.001 35c50 27.333 131.333 85.666 244 174.999l264 217c50.667 44.667 81.667 67 93 67
c16.667 0 35 -9.33301 55 -28c38.667 29.333 73 44 103 44c45.333 0 68 -24.333 68 -73c0 -72.667 -58 -171.667 -174 -297c-118 -126.667 -213.333 -190 -286 -190c-68 0 -102 35.667 -102 107c0 37.333 21.667 95.666 65 174.999zM546.999 265.001
c24.667 23.333 49.333 54.999 74 94.999c27.333 46 41 82.667 41 110c0 25.333 -11 38 -33 38c-32.667 0 -65.5 -20.5 -98.5 -61.5s-49.5 -78.167 -49.5 -111.5c0 -37.333 22 -60.666 66 -69.999zM448.998 390c-136 -118.667 -204 -215.332 -204 -289.999
c0 -32 15.333 -48 46 -48c50 0 128 60.333 234 181c-56 13.333 -84 49.333 -84 108c0 15.333 2.66699 31.666 8 48.999z" />
    <glyph glyph-name="p" unicode="p" horiz-adv-x="825" 
d="M448 469c-88 -78 -185.666 -158.999 -292.999 -242.999l-179 -137c-87.333 -59.333 -157.333 -89 -210 -89c-8 0 -12 4.33301 -12 13c0 11.333 8.33301 18.666 25 21.999c22.667 4 51.667 14 87 30c42 18 130 80 264 186l248 207c143.333 118 220.333 177 231 177
c24.667 0 37 -13.667 37 -41c0 -10.667 -33.333 -60.334 -100 -149.001c78.667 66 142.667 99 192 99c52 0 78 -28 78 -84c0 -72.667 -40.667 -154.667 -122 -246c-70 -79.333 -143 -138.666 -219 -177.999c8 -2 47.333 -3 118 -3c8.66699 0 13 -5.33301 13 -16
c0 -14 -26 -21 -78 -21c-42.667 0 -78.667 6.33301 -108 19c-16 -6 -32.333 -9 -49 -9c-66.667 0 -97.667 46.667 -93 140l-535 -602c-12.667 -14.667 -24.334 -22 -35.001 -22c-20 0 -30 16.333 -30 49c0 32 68.333 125.667 205 281l208 227zM411.001 87.001
c77.333 44 149.165 110 215.498 198s99.5 146.333 99.5 175c0 18.667 -10.333 28 -31 28c-39.333 0 -101.666 -37.333 -186.999 -112c-61.333 -53.333 -116.666 -108 -165.999 -164c19.333 0 33.666 -17 42.999 -51c12.667 -43.333 21.334 -68 26.001 -74zM371 73.001
l-18 66c-10 35.333 -17.333 53 -22 53c-13.333 0 -20 -22.667 -20 -68c0 -37.333 13.333 -56 40 -56c7.33301 0 14 1.66699 20 5z" />
    <glyph glyph-name="q" unicode="q" horiz-adv-x="778" 
d="M165 234c-101.333 -78.667 -163.666 -125.671 -186.999 -141.004c-91.333 -62 -162 -93 -212 -93c-8 0 -12 4 -12 12c0 12.667 7.66699 20.334 23 23.001c64 12 136 48.667 216 110l391 300c101.333 78 190.333 117 267 117c63.333 0 95 -23.667 95 -71
c0 -21.333 -6.33301 -43.666 -19 -66.999c22 -8 33 -21.333 33 -40c0 -5.33301 -96 -122.333 -288 -351h74c8.66699 0 13 -5.33301 13 -16c0 -15.333 -25.333 -21.666 -76 -18.999c6 -21.333 9 -38.666 9 -51.999c0 -72 -57.333 -179 -172 -321
c-116 -144.667 -206 -217 -270 -217c-37.333 0 -56 22.667 -56 68c0 78 70.667 201 212 369l266 320c-128.667 -106.667 -218.334 -160 -269.001 -160c-60 0 -90 28.667 -90 86c0 37.333 17.333 85 52 143zM227 57.9961c54.667 0 148.668 57.833 282.001 173.5
s200 200.167 200 253.5c0 19.333 -8 29 -24 29c-58.667 0 -153.334 -58.667 -284.001 -176s-196 -203 -196 -257c0 -15.333 7.33301 -23 22 -23zM444.001 -1.00391c-69.333 -78.667 -142.334 -167.999 -219.001 -267.999c-108.667 -142.667 -163 -231.334 -163 -266.001
c0 -10.667 5 -16 15 -16c30.667 0 101.834 63.333 213.501 190s167.5 229.334 167.5 308.001c0 17.333 -4.66699 34.666 -14 51.999z" />
    <glyph glyph-name="r" unicode="r" horiz-adv-x="582" 
d="M331 442c-3.33301 22 -5.00098 35.3359 -5.00098 40.0029c0 18 21.5 46.167 64.5 84.5s72.5 57.5 88.5 57.5c15.333 0 23 -7 23 -21c0 -12 -8.33301 -32 -25 -60c75.333 0 113 -30 113 -90c0 -47.333 -48.667 -122.833 -146 -226.5s-146 -161.834 -146 -174.501
c0 -12 6.33301 -18.667 19 -20l33 1c9.33301 0 14 -5.33301 14 -16c0 -13.333 -19.333 -20 -58 -20c-49.333 0 -74 22 -74 66c0 43.333 24.667 97.333 74 162c30.667 40.667 76.334 91 137.001 151c49.333 48.667 74 75.334 74 80.001c0 10 -5.66699 15 -17 15
c-10 0 -29 -3.83301 -57 -11.5s-44.667 -13.834 -50 -18.501c-310 -294 -519 -441 -627 -441c-8 0 -12 4.33301 -12 13c0 11.333 9 18.666 27 21.999c22 4 51 14.333 87 31c54 24 134.667 81 242 171c95.333 79.333 169 147.666 221 204.999z" />
    <glyph glyph-name="s" unicode="s" horiz-adv-x="583" 
d="M82 171c-138.667 -114 -244.002 -171 -316.002 -171c-8 0 -12 4 -12 12c0 12 6.66699 19.667 20 23c24.667 6 62.667 19.333 114 40c48 26 170 120.667 366 284c186 154.667 281.333 232 286 232c15.333 0 30.5 -6.66699 45.5 -20s22.5 -27.666 22.5 -42.999
c0 -48.667 -38 -134.334 -114 -257.001c-66 -106 -123.667 -185.333 -173 -238c28.667 0 43 -5.33301 43 -16c0 -13.333 -14 -20 -42 -20c-7.33301 0 -18.166 1.33301 -32.499 4s-25.166 4 -32.499 4c-5.33301 0 -13.333 -1 -24 -3s-18.667 -3 -24 -3
c-84.667 0 -127 57.333 -127 172zM240.998 84c46.667 38.667 97.999 105.333 153.999 200c52 88 88.333 165.667 109 233l-358 -291c24.667 -4 45.334 -23.333 62.001 -58zM211.997 52.999l-28 79c-14.667 38.667 -29 58 -43 58c-14.667 0 -22 -11.333 -22 -34
s6.66699 -46 20 -70c15.333 -27.333 33.333 -41 54 -41c8 0 14.333 2.66699 19 8z" />
    <glyph glyph-name="t" unicode="t" horiz-adv-x="553" 
d="M566 653l-360.001 -14.002c-20 0 -30 5.33301 -30 16c0 8.66699 16.333 15.334 49 20.001c46 7.33301 110.667 13.666 194 18.999c92.667 5.33301 157.667 10.333 195 15l143 171c76.667 90.667 123 136 139 136c20 0 30 -12.667 30 -38
c0 -27.333 -60.667 -117 -182 -269c70 4.66699 128 7 174 7c30.667 0 46 -6 46 -18c0 -13.333 -37 -22.333 -111 -27l-152 -5l-223 -279c-140.667 -183.333 -211 -292.666 -211 -327.999c0 -16.667 11.333 -25.167 34 -25.5s34 -5.83301 34 -16.5
c0 -12.667 -14.667 -19 -44 -19c-59.333 0 -89 24 -89 72c0 38 19.333 92.333 58 163l87 146l-296 -233c-123.333 -97.333 -218.333 -146 -285 -146c-8 0 -12 4.33301 -12 13c0 11.333 6.66699 18.666 20 21.999c22.667 4.66699 57 16.334 103 35.001
c44.667 23.333 144 95.333 298 216c114 88.667 185.667 146.334 215 173.001c52.667 48 111.334 112.667 176.001 194z" />
    <glyph glyph-name="u" unicode="u" horiz-adv-x="820" 
d="M509 188c-116 -113.333 -201.334 -169.998 -256.001 -169.998c-41.333 0 -62 23 -62 69c0 54 24 114.667 72 182l129 152l-286 -237c-161.333 -122.667 -274.666 -184 -339.999 -184c-8 0 -12 4.33301 -12 13c0 11.333 9.66699 19 29 23
c24.667 4.66699 53.667 14.667 87 30c38.667 18 120.334 76 245.001 174c57.333 44.667 141.666 114.667 252.999 210c18.667 19.333 48.667 45.666 90 78.999c16.667 10.667 32 16 46 16c38.667 0 58 -12.667 58 -38c0 -26 -46.667 -90.667 -140 -194s-140 -177 -140 -221
c0 -11.333 6 -17 18 -17c40 0 129 76.333 267 229s216.333 229 235 229c9.33301 0 18.5 -4.83301 27.5 -14.5s13.5 -19.5 13.5 -29.5c0 -16 -51.667 -83.5 -155 -202.5s-155 -195.167 -155 -228.5c0 -15.333 11.333 -23.333 34 -24s34 -6.33398 34 -17.001
c0 -12.667 -16.667 -19 -50 -19c-56 0 -84 21.333 -84 64c0 30.667 14 72.667 42 126z" />
    <glyph glyph-name="v" unicode="v" horiz-adv-x="774" 
d="M578 245c-20.667 4 -31.0039 17.3301 -31.0039 39.9971c0 43.333 28.667 100.5 86 171.5s106.333 106.5 147 106.5c23.333 0 35 -12.333 35 -37c0 -65.333 -68.667 -168.666 -206 -309.999c-139.333 -142.667 -244.666 -214 -315.999 -214c-56 0 -84 30.333 -84 91
c0 52 28.667 117.333 86 196l140 173c-65.333 -60.667 -153.666 -135 -264.999 -223l-186 -144c-93.333 -63.333 -166 -95 -218 -95c-8 0 -12 4 -12 12c0 12.667 8.33301 20.334 25 23.001c23.333 4 52.333 13.333 87 28c40.667 17.333 132.334 83 275.001 197
c64.667 50.667 158.334 130 281.001 238c44.667 44 78 66 100 66c38 0 57 -19 57 -57c0 -24.667 -46 -91.167 -138 -199.5s-138 -182.166 -138 -221.499c0 -20.667 9.66699 -31 29 -31c45.333 0 127.333 63.333 246 190zM606.996 273.997c26 26 56.333 62.334 91 109.001
c42 57.333 63 96 63 116l-8 8c-20 0 -52.5 -29.5 -97.5 -88.5s-67.5 -100.5 -67.5 -124.5c0 -10.667 6.33301 -17.334 19 -20.001z" />
    <glyph glyph-name="w" unicode="w" horiz-adv-x="1040" 
d="M417 443l-285.997 -234c-170 -139.333 -291.667 -209 -365 -209c-8 0 -12 4 -12 12c0 11.333 9 19 27 23c27.333 6 57.333 16.667 90 32c41.333 18.667 134.666 86 279.999 202c66 52 162.667 133.667 290 245c49.333 48 82.666 72 99.999 72
c12 0 24.5 -6.33301 37.5 -19s19.5 -25 19.5 -37c0 -16 -49.667 -87.333 -149 -214s-149 -202 -149 -226c0 -19.333 7.66699 -29 23 -29c36.667 0 119 77.5 247 232.5s201.333 232.5 220 232.5c23.333 0 35 -11.667 35 -35c0 -15.333 -36.833 -75.5 -110.5 -180.5
s-110.5 -180.5 -110.5 -226.5c0 -23.333 9.66699 -35 29 -35c33.333 0 106.666 64.333 219.999 193c-14.667 13.333 -22 32.333 -22 57c0 50 28.333 110.333 85 181c59.333 73.333 112.333 110 159 110c16 0 24 -9.66699 24 -29c0 -60.667 -65 -168 -195 -322
c-132 -156.667 -228.333 -235 -289 -235c-56 0 -84 29 -84 87c0 40.667 15.333 91.667 46 153c-66 -74.667 -109.333 -122 -130 -142c-65.333 -63.333 -117 -95 -155 -95c-48 0 -72 26 -72 78c0 50 25 113.667 75 191zM886.003 282c107.333 122.667 161.001 203 161.001 241
c0 9.33301 -3.66699 14 -11 14c-24.667 0 -58.334 -30.167 -101.001 -90.5s-64 -105.5 -64 -135.5c0 -14 5 -23.667 15 -29z" />
    <glyph glyph-name="x" unicode="x" horiz-adv-x="739" 
d="M469 488l-457.998 -373.001c-96.667 -76.667 -178.334 -115 -245.001 -115c-8 0 -12 4 -12 12c0 12 8 19.667 24 23c23.333 4 51.666 13.333 84.999 28c40.667 16.667 134.667 83.334 282 200.001c68 53.333 167.333 136.333 298 249c52.667 49.333 83.667 74 93 74
c32.667 0 49 -14.333 49 -43c0 -26 -6.66699 -59.333 -20 -100l-32 -97c38.667 31.333 98 76.333 178 135c94 69.333 146 104 156 104c14 0 21 -7 21 -21c0 -11.333 -17 -26.666 -51 -45.999c-38 -22 -145.667 -99.333 -323 -232c-38.667 -129.333 -58 -203.333 -58 -222
c0 -17.333 10.667 -27.333 32 -30s32 -8.33398 32 -17.001c0 -13.333 -17.333 -20 -52 -20c-68 0 -102 28.333 -102 85c0 22.667 6.33301 61.667 19 117l-151 -108l-126 -91c-10.667 0 -16 4 -16 12c0 10 47 51 141 123l167 126z" />
    <glyph glyph-name="y" unicode="y" horiz-adv-x="842" 
d="M548 31l61.998 2.00488c8.66699 0 13 -5.33301 13 -16c0 -12 -15.333 -19.333 -46 -22l-62 -3l-279 -345c-167.333 -190.667 -286 -286 -356 -286c-33.333 0 -50 22.333 -50 67c0 99.333 65.5 214.166 196.5 344.499s265.833 211.166 404.5 242.499l207 267l-164 -146
c-100 -82.667 -168 -124 -204 -124c-42 0 -63 29.667 -63 89c0 51.333 24.333 111.666 73 180.999l122 154c-78.667 -70 -169 -145.667 -271 -227c-83.333 -66 -139.666 -108.667 -168.999 -128c-80.667 -54 -146 -81 -196 -81c-8 0 -12 4.33301 -12 13
c0 11.333 6.66699 18.666 20 21.999c84 20.667 200 91.667 348 213l175 144l113 100c63.333 54.667 99 82 107 82c17.333 0 33.833 -5.83301 49.5 -17.5s23.5 -25.834 23.5 -42.501l-158 -183c-105.333 -124.667 -158 -207.667 -158 -249c0 -12 6.66699 -18 20 -18
c40 0 137.667 74 293 222c114 108.667 208.667 205.667 284 291c15.333 17.333 26.333 26 33 26c12.667 0 25.834 -4.5 39.501 -13.5s20.5 -19.5 20.5 -31.5c0 -6.66699 -4.33301 -14.667 -13 -24c-122.667 -133.333 -257 -301 -403 -503zM395.998 -27.9951
c-134 -43.333 -255.5 -122.5 -364.5 -237.5s-163.5 -209.5 -163.5 -283.5c0 -22.667 8 -34 24 -34c64 0 232 185 504 555z" />
    <glyph glyph-name="z" unicode="z" horiz-adv-x="685" 
d="M373 171c142 122 213.001 222.668 213.001 302.001c0 34.667 -13 52 -39 52s-92.333 -45.333 -199 -136c-160.667 -137.333 -262 -221.666 -304 -252.999c-122 -90.667 -214.667 -136 -278 -136c-8 0 -12 4 -12 12c0 12 6.66699 19.667 20 23
c75.333 19.333 161.666 66.333 258.999 141l135 104l194 164c97.333 82 159.5 127 186.5 135s48.167 12 63.5 12c66.667 0 100 -32.333 100 -97c0 -99.333 -101 -215.666 -303 -348.999c28 -18 42 -44.333 42 -79c0 -74.667 -83.833 -198.834 -251.5 -372.501
s-301.5 -260.5 -401.5 -260.5c-55.333 0 -83 24.333 -83 73c0 81.333 65 180.666 195 297.999s276.667 193.666 440 228.999c14.667 20 22 39.667 22 59c0 8.66699 -3.33301 16 -10 22c-75.333 -34.667 -133 -52 -173 -52c-38 0 -57 9 -57 27c0 22 27.333 42.667 82 62
c46.667 16.667 84.667 25 114 25c16 0 31 -1.66699 45 -5zM328.001 -5.99902c-150 -33.333 -284.166 -105.332 -402.499 -215.999s-177.5 -201.334 -177.5 -272.001c0 -22.667 11 -34 33 -34c63.333 0 162.666 71.333 297.999 214c107.333 113.333 190.333 216 249 308z" />
    <glyph glyph-name="braceleft" unicode="{" horiz-adv-x="628" 
d="M459 595c8.66699 -9.33301 13.001 -18.9971 13.001 -28.9971c0 -50 -99.833 -187 -299.5 -411s-299.5 -357.667 -299.5 -401c0 -24 9 -38 27 -42c2 -0.666992 20 -1 54 -1c6.66699 0 10 -3.33301 10 -10c0 -20.667 -26 -31 -78 -31c-58.667 0 -88 28 -88 84
c0 56.667 49.333 148 148 274l274 325c98.667 116 148 190.333 148 223c0 13.333 -5.33301 21.666 -16 24.999c-14.667 4.66699 -23.334 8.66699 -26.001 12c0 16.667 16.167 27.167 48.5 31.5s57.5 13.166 75.5 26.499c21.333 16 86.333 83.333 195 202l289 320
c121.333 122.667 236.333 206.667 345 252c71.333 29.333 125.666 44 162.999 44c20 0 30 -5.66699 30 -17c0 -14.667 -17.667 -23.334 -53 -26.001c-69.333 -5.33301 -139.666 -37 -210.999 -95c-76.667 -62.667 -179.334 -175 -308.001 -337
c-81.333 -102 -148.666 -181.333 -201.999 -238c-107.333 -114.667 -187 -175 -239 -181z" />
    <glyph glyph-name="bar" unicode="|" 
d="M738 1365h95v-1706h-95v1706z" />
    <glyph glyph-name="braceright" unicode="}" horiz-adv-x="628" 
d="M706 618c-11.333 8 -17.002 18.999 -17.002 32.999c0 42 92.5 167.333 277.5 376s277.5 334.667 277.5 378c0 24 -9 38 -27 42c-2 0.666992 -20 1 -54 1c-6.66699 0 -10 3.33301 -10 10c0 20.667 26 31 78 31c61.333 0 92 -28 92 -84c0 -52 -45.667 -137 -137 -255
l-255 -303c-91.333 -109.333 -137 -179.333 -137 -210c0 -14 5.33301 -22.667 16 -26c15.333 -4.66699 24.333 -9 27 -13c0 -16 -18.333 -26.333 -55 -31c-39.333 -5.33301 -78.666 -29.333 -117.999 -72l-127 -137l-325 -359c-142 -145.333 -271 -241.666 -387 -288.999
c-68 -27.333 -118 -41 -150 -41c-20 0 -30 6 -30 18c0 14.667 17.667 23.334 53 26.001c78.667 6 156.834 44.667 234.501 116s173.167 177.666 286.5 318.999c90 112.667 165 200.667 225 264c120.667 130 208 198.667 262 206z" />
    <glyph glyph-name="asciitilde" unicode="~" horiz-adv-x="1365" 
d="M1364 752l26.001 -17c-28.667 -50 -67.667 -93.333 -117 -130c-54.667 -40.667 -108 -61 -160 -61c-38 0 -99 14.5 -183 43.5s-148 43.5 -192 43.5c-40.667 0 -77 -12 -109 -36c-20.667 -15.333 -47.667 -44 -81 -86l-27 17c84.667 128.667 179.667 193 285 193
c40 0 98.167 -13.667 174.5 -41s134.166 -41 173.499 -41c79.333 0 149.333 38.333 210 115z" />
    <glyph glyph-name="nonbreakingspace" unicode="&#xa0;" horiz-adv-x="512" 
 />
    <glyph glyph-name="exclamdown" unicode="&#xa1;" horiz-adv-x="487" 
d="M963 1173c32 0 48 -16.333 48 -49c0 -27.333 -12.833 -55 -38.5 -83s-52.167 -42 -79.5 -42c-34 0 -51 16.667 -51 50c0 24.667 14 51.5 42 80.5s54.333 43.5 79 43.5zM824 949c14.667 0 22.001 -9.33301 22.001 -28c0 -10 -9 -29.667 -27 -59
c-24 -38 -146.667 -188 -368 -450c-238.667 -282 -371 -423 -397 -423c-20.667 0 -31 12.667 -31 38c0 58.667 259.667 362 779 910c7.33301 8 14.666 12 21.999 12z" />
    <glyph glyph-name="cent" unicode="&#xa2;" horiz-adv-x="949" 
d="M838 700c15.333 -8.66699 23 -21.3301 23 -37.9971c0 -26 -14.667 -60 -44 -102c-30.667 -44 -57.667 -66 -81 -66c-11.333 0 -21.333 5.83301 -30 17.5s-13 23.5 -13 35.5c0 20 15.333 48 46 84c-47.333 -22 -100.666 -64.667 -159.999 -128
c-66 -70.667 -99 -127.667 -99 -171c0 -36 17.333 -54 52 -54c35.333 0 78 18.833 128 56.5s75.667 56.5 77 56.5c8.66699 0 13 -4.33301 13 -13c0 -24.667 -29.667 -55.334 -89 -92.001c-56 -35.333 -99.333 -53 -130 -53c-10.667 0 -23.667 2 -39 6
c-38.667 -56.667 -81.667 -113.334 -129 -170.001c-16 6 -24 14.667 -24 26c0 7.33301 37.667 61.666 113 162.999c-28.667 22.667 -43 54.667 -43 96c0 77.333 45.333 156.333 136 237c88.667 79.333 172 119 250 119c75.333 91.333 117.666 137 126.999 137
c11.333 0 17 -5.33301 17 -16c0 -6 -15 -27 -45 -63zM803 642.004c-12.667 -6.66699 -28 -20.667 -46 -42c-20 -22.667 -30 -39.667 -30 -51c0 -4.66699 2.33301 -8 7 -10c12.667 0 27.167 13.333 43.5 40s24.833 47.667 25.5 63z" />
    <glyph glyph-name="sterling" unicode="&#xa3;" horiz-adv-x="949" 
d="M577 507l264.999 255c120.667 105.333 224.667 158 312 158c56 0 88.333 -23 97 -69c16.667 2 29.334 3 38.001 3c20 0 30 -6.66699 30 -20c0 -8 -8.66699 -13.667 -26 -17l-37 -4c-6 -52.667 -28.333 -106.334 -67 -161.001c-43.333 -62 -88.666 -93 -135.999 -93
c-40 0 -60 23.333 -60 70s22.333 91.334 67 134.001c40 38 84.667 63 134 75c1.33301 6 2 10.333 2 13c0 21.333 -11.333 32 -34 32c-50.667 0 -202.334 -127.667 -455.001 -383l321 -11c9.33301 -4 14 -10.333 14 -19c0 -19.333 -26 -29 -78 -29c-97.333 0 -199 3 -305 9
l-279 -282c122.667 -74.667 213.667 -112 273 -112c12.667 0 28.834 3 48.501 9s31.167 9 34.5 9c7.33301 0 11 -3.33301 11 -10c0 -16 -18.667 -33.333 -56 -52c-34.667 -17.333 -62 -26 -82 -26c-60 0 -160.667 41 -302 123c-88.667 -81.333 -177 -122 -265 -122
c-40.667 0 -75.667 10.333 -105 31c-32.667 23.333 -49 54.333 -49 93c0 46.667 21.333 84.667 64 114c38 25.333 81.333 38 130 38c58 0 124.667 -16.333 200 -49c79.333 70 160.666 151 243.999 243c-181.333 0 -272 12.333 -272 37c0 17.333 13.333 25.333 40 24z
M1188 794c-37.333 -14 -72.001 -36.001 -104.001 -66.001c-37.333 -35.333 -56 -70.333 -56 -105c0 -14.667 6.33301 -22 19 -22c26 0 55.333 25.667 88 77c28.667 44.667 46.334 83.334 53.001 116.001zM218.998 151.999c-49.333 27.333 -104 41 -164 41
c-84 0 -126 -28.667 -126 -86c0 -45.333 28.667 -68 86 -68c66 0 134 37.667 204 113z" />
    <glyph glyph-name="currency" unicode="&#xa4;" horiz-adv-x="949" 
d="M1093 836l138 79l17 -73l-162 -93c-36.667 -137.333 -122 -268 -256 -392l34 -123l-73 -41l-30 106c-84.667 -66 -169.334 -99 -254.001 -99c-38 0 -74 10 -108 30c-37.333 22 -59.666 50.333 -66.999 85l-115 -66l-17 73l131 75c34.667 140.667 130.667 276 288 406
l-35 127l73 41l33 -116c61.333 41.333 111.666 62 150.999 62c16.667 0 29.334 -3.66699 38.001 -11c34.667 21.333 67 32 97 32c69.333 0 108.333 -34 117 -102zM779 820c-76.667 -33.333 -159.334 -100 -248.001 -200c-95.333 -107.333 -143 -197.333 -143 -270
c0 -54 37.333 -81 112 -81c76.667 0 163.334 39 260.001 117c82 66.667 148 139.667 198 219c51.333 82 77 144.333 77 187c0 58 -23.667 87 -71 87c-33.333 0 -68.5 -13.833 -105.5 -41.5s-57.5 -41.5 -61.5 -41.5c-11.333 0 -17.333 8 -18 24z" />
    <glyph glyph-name="yen" unicode="&#xa5;" horiz-adv-x="949" 
d="M637 420c-18.667 -9.33301 -61 -51.001 -127 -125.001l285 -12c6.66699 -4 10 -10 10 -18c0 -18.667 -23.333 -28 -70 -28c-104 0 -193 2.66699 -267 8l-105 -133c-58 -72 -91.333 -108 -100 -108c-28.667 0 -43 12 -43 36c0 18.667 51.333 88.667 154 210l-200 10
c-52 2.66699 -78 12.667 -78 30c0 16 12 24 36 24c78.667 0 173.334 -4.66699 284.001 -14c18 22.667 54.333 64.667 109 126l-212 10c-62.667 2.66699 -94 13.334 -94 32.001c0 16.667 12 24.334 36 23.001l313 -15c8 4 26.333 59.333 55 166c27.333 104.667 41 167 41 187
c0 13.333 -3.33301 20 -10 20c-36.667 0 -73.667 -15.333 -111 -46s-58.333 -46 -63 -46c-22.667 0 -34 9 -34 27c0 25.333 30.333 52.333 91 81c54.667 25.333 97.667 38 129 38c33.333 0 61.333 -9.66699 84 -29s34 -45.333 34 -78c0 -38.667 -15 -116 -45 -232
c329.333 192 531.666 288 606.999 288c31.333 0 47 -11.333 47 -34c0 -6.66699 -18.333 -18.334 -55 -35.001c-268 -123.333 -476.333 -228.333 -625 -315c64 -0.666992 132 -3 204 -7c7.33301 -3.33301 11 -9.33301 11 -18c0 -19.333 -23.333 -29 -70 -29
c-57.333 0 -131 2 -221 6z" />
    <glyph glyph-name="brokenbar" unicode="&#xa6;" 
d="M738 1365h95v-678h-95v678zM738 314h95v-655h-95v655z" />
    <glyph glyph-name="section" unicode="&#xa7;" horiz-adv-x="948" 
d="M763 906c-32.667 44 -49.001 89.3301 -49.001 135.997c0 105.333 74 191.333 222 258c118.667 53.333 238.334 80 359.001 80c126 0 189 -36.333 189 -109c0 -46.667 -24.667 -84.667 -74 -114c-42.667 -26 -88.667 -39 -138 -39c-38.667 0 -58 8.33301 -58 25
c0 13.333 18.667 20 56 20c71.333 0 107 24 107 72c0 29.333 -34 44 -102 44c-78 0 -172 -17.667 -282 -53c-134.667 -42.667 -202 -92.667 -202 -150c0 -29.333 28.333 -64.666 85 -105.999l157 -116c56.667 -51.333 85 -103.333 85 -156c0 -92 -52 -170.667 -156 -236
c-82 -52.667 -175.667 -87 -281 -103c40.667 -42 61 -87.333 61 -136c0 -124 -67.333 -221 -202 -291c-108.667 -56 -231.334 -84 -368.001 -84c-160 0 -240 34.667 -240 104c0 55.333 30.333 98.333 91 129c48.667 24 103.667 36 165 36c20.667 0 31 -5.66699 31 -17
c0 -13.333 -29.5 -25.333 -88.5 -36s-88.5 -32.667 -88.5 -66c0 -31.333 40 -47 120 -47c88.667 0 186.334 16.667 293.001 50c136.667 43.333 205 98 205 164c0 38.667 -28 81.334 -84 128.001l-157 125c-56 52.667 -84 105.334 -84 158.001c0 87.333 51.667 163 155 227
c80 50 171 84.333 273 103zM844.999 837.997c-284.667 -35.333 -427 -105 -427 -209c0 -36 58.667 -100.667 176 -194l44 -1c70.667 0 149.667 17.333 237 52c106 42.667 159 93 159 151c0 27.333 -26 64 -78 110z" />
    <glyph glyph-name="dieresis" unicode="&#xa8;" 
d="M928 677c-27.333 0 -41 13.668 -41 41.001c0 23.333 10.833 47 32.5 71s44.167 36 67.5 36c29.333 0 44 -14.333 44 -43c0 -22.667 -11.5 -45.834 -34.5 -69.501s-45.833 -35.5 -68.5 -35.5zM746 676.001c-27.333 0 -41 13.999 -41 41.999c0 24 10.833 47.833 32.5 71.5
s44.167 35.5 67.5 35.5c29.333 0 44 -14.667 44 -44c0 -21.333 -11.833 -44.166 -35.5 -68.499s-46.167 -36.5 -67.5 -36.5z" />
    <glyph glyph-name="copyright" unicode="&#xa9;" horiz-adv-x="1349" 
d="M1293 1328c54 44 116.999 66.001 188.999 66.001c144.667 0 217 -83 217 -249c0 -106.667 -59.333 -258.667 -178 -456c-107.333 -177.333 -240.666 -332 -399.999 -464c-191.333 -158 -373.333 -237 -546 -237c-92.667 0 -171 25 -235 75c-69.333 54 -104 126 -104 216
c0 138 71 302 213 492c118 157.333 247.333 288.666 388 393.999c168 126 295.333 189 382 189c31.333 0 56 -8.66699 74 -26zM1126 1237c-220 -95.333 -416 -256.833 -588 -484.5s-258 -400.5 -258 -518.5c0 -61.333 27 -108.666 81 -141.999
c45.333 -27.333 100.666 -41 165.999 -41c164.667 0 349.334 82.667 554.001 248c172 139.333 311.333 293.666 418 462.999c104.667 167.333 157 298 157 392c0 56 -12.333 101.333 -37 136c-28.667 40 -70 60 -124 60c-63.333 0 -136.5 -28.5 -219.5 -85.5
s-125.5 -85.5 -127.5 -85.5c-20.667 0 -28 19.333 -22 58zM1437 974.001c-15.333 -59.333 -58.3311 -128 -128.998 -206c-76 -83.333 -140.667 -125 -194 -125c-36 0 -54 16.333 -54 49c0 43.333 42.333 101.666 127 174.999c75.333 66 139.333 108.667 192 128
c3.33301 10 5 18.667 5 26c0 22.667 -14.333 34 -43 34c-112 0 -267.333 -78.333 -466 -235c-205.333 -161.333 -308 -295.666 -308 -402.999c0 -53.333 33.667 -80 101 -80c53.333 0 110 13.333 170 40c41.333 18 84.666 42.667 129.999 74l59 40
c10.667 0 16 -7.66699 16 -23c0 -42.667 -48 -85.667 -144 -129c-86 -39.333 -155 -59 -207 -59c-50 0 -92.667 14.333 -128 43c-37.333 31.333 -56 71.333 -56 120c0 89.333 52 188 156 296c93.333 96.667 206.5 180.5 339.5 251.5s242.833 106.5 329.5 106.5
c65.333 0 100.666 -27.667 105.999 -83c10.667 2.66699 18 4 22 4c11.333 0 17 -5.33301 17 -16c0 -10 -13.667 -19.333 -41 -28zM1105 699.001l4 -4.00098c23.333 0.666992 67.333 36.667 132 108c53.333 58.667 91 105.334 113 140.001c-142 -86.667 -225 -168 -249 -244z
" />
    <glyph glyph-name="ordfeminine" unicode="&#xaa;" horiz-adv-x="482" 
d="M831 842c12 10.667 22 15.999 30 15.999c18 0 27 -7.33301 27 -22c0 -16.667 -32.167 -60.167 -96.5 -130.5s-96.833 -110.166 -97.5 -119.499c2.66699 -2.66699 11.667 -5 27 -7c12 -2 18 -7 18 -15c0 -12.667 -12.333 -19 -37 -19c-41.333 0 -62 14 -62 42
c0 14 4.66699 30.667 14 50c-63.333 -54 -112 -81 -146 -81c-40 0 -60 20.333 -60 61c0 54 41 112.333 123 175c78.667 59.333 146 89 202 89c28.667 0 48 -13 58 -39zM783 842.999c-22.667 0 -72.333 -33.833 -149 -101.5s-115 -112.167 -115 -133.5
c0 -6.66699 3.33301 -10 10 -10c21.333 0 70.833 33.333 148.5 100s116.5 110.667 116.5 132c0 8.66699 -3.66699 13 -11 13z" />
    <glyph glyph-name="guillemotleft" unicode="&#xab;" horiz-adv-x="936" 
d="M238 303c189.333 -122.667 284.001 -200.999 284.001 -234.999c0 -16 -8.33301 -24 -25 -24c-11.333 0 -28.333 10.667 -51 32c-18 17.333 -95.333 68.666 -232 153.999c-42.667 26.667 -64 49.667 -64 69s38 57 114 113c111.333 82 204.666 160.667 279.999 236
c12 12 21.333 18 28 18c10.667 0 16 -7.66699 16 -23c0 -64.667 -116.667 -178 -350 -340zM491.001 319.001c170 -92.667 255 -161 255 -205c0 -14 -9 -21 -27 -21c-11.333 0 -36.666 16.333 -75.999 49c-72 42.667 -149 92 -231 148c-7.33301 8 -11 16 -11 24
c0 14 10.667 28.667 32 44c112 82 216.333 169 313 261c11.333 10.667 20.666 16 27.999 16c11.333 0 17 -7 17 -21c0 -30 -43 -83.667 -129 -161c-73.333 -66 -130.333 -110.667 -171 -134z" />
    <glyph glyph-name="logicalnot" unicode="&#xac;" 
d="M1052 0v472h-704v74h874v-546h-170z" />
    <glyph glyph-name="sfthyphen" unicode="&#xad;" horiz-adv-x="574" 
d="M133 263c-68 0 -102 12.333 -102 37c0 30.667 121 46 363 46h99c48 -4.66699 72 -19 72 -43c0 -20 -11.667 -30.333 -35 -31l-167 -4z" />
    <glyph glyph-name="registered" unicode="&#xae;" horiz-adv-x="1349" 
d="M1293 1328c54 44 116.999 66.001 188.999 66.001c144.667 0 217 -83 217 -249c0 -106.667 -59.333 -258.667 -178 -456c-107.333 -177.333 -240.666 -332 -399.999 -464c-191.333 -158 -373.333 -237 -546 -237c-92.667 0 -171 25 -235 75c-69.333 54 -104 126 -104 216
c0 138 71 302 213 492c118 157.333 247.333 288.666 388 393.999c168 126 295.333 189 382 189c31.333 0 56 -8.66699 74 -26zM1126 1237c-220 -95.333 -416 -256.833 -588 -484.5s-258 -400.5 -258 -518.5c0 -61.333 27 -108.666 81 -141.999
c45.333 -27.333 100.666 -41 165.999 -41c164.667 0 349.334 82.667 554.001 248c172 139.333 311.333 293.666 418 462.999c104.667 167.333 157 298 157 392c0 56 -12.333 101.333 -37 136c-28.667 40 -70 60 -124 60c-63.333 0 -136.5 -28.5 -219.5 -85.5
s-125.5 -85.5 -127.5 -85.5c-20.667 0 -28 19.333 -22 58zM1115 999.001l1.00098 -13.999c0.666992 -5.33301 -8.33301 -17.333 -27 -36l-296 -302c-109.333 -116.667 -200.333 -224.334 -273 -323.001c-20.667 -28 -37.667 -42 -51 -42c-24.667 0 -37 11.667 -37 35
c0 34.667 89.667 147 269 337c145.333 154.667 254.333 264.334 327 329.001c-56 -13.333 -138 -43.333 -246 -90c-10.667 -4.66699 -18.334 -7 -23.001 -7c-18.667 0 -28 12 -28 36c0 29.333 73.667 66 221 110c94 28 186 42 276 42c135.333 0 203 -58 203 -174
c0 -86 -62.667 -156.333 -188 -211c-97.333 -43.333 -197 -66.666 -299 -69.999c16 -67.333 40 -149.666 72 -246.999c7.33301 -14.667 24 -22.334 50 -23.001c8.66699 -0.666992 13 -4.33398 13 -11.001c0 -10.667 -10 -19.667 -30 -27c-16.667 -6 -31.667 -9 -45 -9
c-42 0 -69 30.333 -81 91c-12.667 63.333 -22.334 106.666 -29.001 129.999c-16.667 58.667 -34.667 97.334 -54 116.001c-10 9.33301 -15 16.666 -15 21.999c0 14 19.333 21 58 21c14.667 0 26.667 -4.66699 36 -14c56 0 124.167 15 204.5 45s141.5 63.333 183.5 100
c54 47.333 81 88 81 122c0 50 -46.667 75 -140 75c-29.333 0 -73.666 -3.66699 -132.999 -11z" />
    <glyph glyph-name="overscore" unicode="&#xaf;" 
d="M324 1596h922v-77h-922v77z" />
    <glyph glyph-name="degree" unicode="&#xb0;" horiz-adv-x="669" 
d="M1041 1087c0 -62.667 -22.333 -115.668 -67 -159.001s-98.334 -65 -161.001 -65s-116.5 21.667 -161.5 65s-67.5 96.333 -67.5 159s22.5 115.334 67.5 158.001s98.833 64 161.5 64s116.334 -21.5 161.001 -64.5s67 -95.5 67 -157.5zM654 1087
c0 -43.333 15.5 -80.167 46.5 -110.5s68.167 -45.5 111.5 -45.5c44 0 81.5 14.833 112.5 44.5s46.5 66.5 46.5 110.5s-15.333 81 -46 111s-68 45 -112 45s-81.5 -14.833 -112.5 -44.5s-46.5 -66.5 -46.5 -110.5z" />
    <glyph glyph-name="plusminus" unicode="&#xb1;" horiz-adv-x="949" 
d="M719 615l273 315l69 -2l-272 -313h307l-50 -56h-306l-274 -314l-69 1l273 313h-308l50 56h307zM659 110l-50 -56h-684l50 56h684z" />
    <glyph glyph-name="twosuperior" unicode="&#xb2;" horiz-adv-x="598" 
d="M459 616c126.667 18 226.334 27.001 299.001 27.001c45.333 0 68 -10.333 68 -31c0 -13.333 -19 -22.333 -57 -27l-72 -4c-70 -6 -140 -15.167 -210 -27.5s-107.333 -18.5 -112 -18.5c-26 0 -39 19 -39 57c0 15.333 5.66699 27.333 17 36c5.33301 4 36 21 92 51l374 198
c232.667 123.333 349 213.666 349 270.999c0 22 -13.333 33 -40 33c-63.333 0 -145.333 -28.667 -246 -86l-139 -86c-7.33301 0 -14.833 4 -22.5 12s-11.5 15.667 -11.5 23c0 28.667 53.667 69.667 161 123c104.667 52.667 180.667 79 228 79
c33.333 0 63.666 -12.833 90.999 -38.5s41 -55.167 41 -88.5c0 -65.333 -84.333 -146.333 -253 -243l-321 -160z" />
    <glyph glyph-name="threesuperior" unicode="&#xb3;" horiz-adv-x="598" 
d="M846 913c82.667 -15.333 124 -53.667 124 -115c0 -79.333 -52 -145.666 -156 -198.999c-86.667 -44 -173.667 -66 -261 -66c-91.333 0 -137 34 -137 102c0 24.667 8.66699 49.334 26 74.001c19.333 27.333 40.666 41 63.999 41c14 0 21 -5 21 -15l-39 -42
c-14.667 -16.667 -22 -34 -22 -52c0 -28 25 -42 75 -42c80 0 159.167 25 237.5 75s117.5 96.333 117.5 139c0 44.667 -37.667 67 -113 67c-11.333 0 -27.5 -2.66699 -48.5 -8s-36.5 -8 -46.5 -8c-19.333 0 -29 10.667 -29 32c0 13.333 19 23.666 57 30.999
c152.667 27.333 269.667 71.333 351 132c40.667 30.667 61 54 61 70c0 18 -19.333 27 -58 27c-55.333 0 -124 -16.333 -206 -49l-119 -48c-15.333 0 -23 10 -23 30c0 31.333 45.333 62.666 136 93.999c78 26.667 138.333 40 181 40c35.333 0 68.333 -10 99 -30
c35.333 -23.333 53 -52 53 -86c0 -45.333 -47.667 -90 -143 -134c-83.333 -39.333 -150.666 -59.333 -201.999 -60z" />
    <glyph glyph-name="acute" unicode="&#xb4;" 
d="M784 698c-14.667 0 -21.999 7.66699 -21.999 23s36 48.333 108 99c70 49.333 111.667 74 125 74c16 0 24 -10.667 24 -32c0 -26 -15 -47.333 -45 -64l-131 -74c-30.667 -17.333 -50.334 -26 -59.001 -26z" />
    <glyph glyph-name="mu" unicode="&#xb5;" horiz-adv-x="820" 
d="M198 55l-456.998 -514.002c-10.667 -12.667 -21.667 -19 -33 -19c-20 0 -30 16.333 -30 49c0 30 48.333 99.333 145 208l355 392l171 201c37.333 42.667 67 78.667 89 108c32 42 59.333 63 82 63c28 0 42 -12 42 -36c0 -24.667 -46.667 -89.167 -140 -193.5
s-140 -178.166 -140 -221.499c0 -11.333 6 -17 18 -17c39.333 0 128.166 76.333 266.499 229s216.833 229 235.5 229c9.33301 0 18.5 -5 27.5 -15s13.5 -19.667 13.5 -29c0 -14.667 -51.667 -81.667 -155 -201s-155 -196 -155 -230c0 -14 11.5 -22 34.5 -24
s34.5 -7.33301 34.5 -16c0 -15.333 -17.667 -23 -53 -23c-54 0 -81 23 -81 69c0 22 13.667 63.333 41 124c-67.333 -61.333 -106 -95.666 -116 -102.999c-56.667 -44.667 -103.334 -67 -140.001 -67c-24 0 -42.333 12.333 -55 37z" />
    <glyph glyph-name="paragraph" unicode="&#xb6;" horiz-adv-x="1111" 
d="M1427 1250l-121.998 5.00098l-42 -1l-458 -520c-14 -16 -48.167 -38.667 -102.5 -68s-91.5 -44 -111.5 -44c-49.333 0 -74 37.667 -74 113c0 126.667 81.667 263.667 245 411s335.666 221 516.999 221c44 0 109.5 -3.83301 196.5 -11.5s152.5 -11.5 196.5 -11.5
c22.667 0 55.667 4.33301 99 13s74.666 13 93.999 13c12 0 18 -4.33301 18 -13c0 -42 -118.333 -78.667 -355 -110l-639 -753l-281 -336c-172 -205.333 -327 -308 -465 -308c-72.667 0 -109 36.667 -109 110c0 36 19 86 57 150c40.667 67.333 76 101 106 101
c10 0 15 -5.33301 15 -16c0 -0.666992 -22.167 -30.334 -66.5 -89.001s-66.5 -109 -66.5 -151c0 -32 16.333 -48 49 -48c69.333 0 170.333 68 303 204c50.667 52 134 148.333 250 289l361 436c140 163.333 268.333 301.333 385 414z" />
    <glyph glyph-name="middot" unicode="&#xb7;" horiz-adv-x="378" 
d="M373 465c-32 0 -48 16.333 -48 49c0 27.333 12.833 55 38.5 83s52.167 42 79.5 42c34 0 51 -16.333 51 -49c0 -26 -13.667 -53.333 -41 -82s-54 -43 -80 -43z" />
    <glyph glyph-name="cedilla" unicode="&#xb8;" 
d="M337 41c-28 -30.667 -57.999 -57.333 -89.999 -80c21.333 4 38.333 6 51 6c52 0 78 -19.333 78 -58c0 -38 -18 -70 -54 -96c-32.667 -24 -68.667 -36 -108 -36c-18.667 0 -42.334 4.66699 -71.001 14c-34 11.333 -51 24 -51 38c0 10 4.33301 15 13 15
c0.666992 0 11.834 -4.5 33.501 -13.5s41.167 -13.5 58.5 -13.5c26 0 50 6.33301 72 19c25.333 15.333 38 35 38 59c0 24.667 -17.333 37 -52 37c-8 0 -19.5 -1.66699 -34.5 -5s-26.167 -5 -33.5 -5c-9.33301 0 -14 4 -14 12c11.333 16 30.666 34.667 57.999 56
c37.333 29.333 58.333 46.333 63 51h43z" />
    <glyph glyph-name="onesuperior" unicode="&#xb9;" horiz-adv-x="598" 
d="M1022 1096c-116 -56.667 -184.998 -85 -206.998 -85c-14.667 0 -22 7 -22 21c0 9.33301 9.33301 17 28 23c83.333 27.333 181.666 76.333 294.999 147c30 18.667 49.667 28 59 28c26 0 39 -9.33301 39 -28c0 -14.667 -16 -36.667 -48 -66
c-170.667 -156 -337 -328.667 -499 -518c-44 -51.333 -69.667 -77 -77 -77c-8.66699 0 -16.834 4.5 -24.501 13.5s-11.5 17.833 -11.5 26.5c0 33.333 156 205 468 515z" />
    <glyph glyph-name="ordmasculine" unicode="&#xba;" horiz-adv-x="454" 
d="M722 857c23.333 16 45.001 24 65.001 24c32.667 0 49 -16.667 49 -50c0 -46 -37.667 -106.5 -113 -181.5s-136.333 -112.5 -183 -112.5c-48 0 -72 23.667 -72 71c0 41.333 29.667 96 89 164c57.333 66.667 100.666 100 129.999 100c6 0 17.667 -5 35 -15zM727.001 717
c45.333 44 68 82.001 68 114.001c0 10 -4.66699 15 -14 15c-18 0 -36.833 -11.333 -56.5 -34s-29.5 -43.334 -29.5 -62.001c0 -17.333 10.667 -28.333 32 -33zM656.001 764.001c-73.333 -62 -110.001 -112.333 -110.001 -151c0 -15.333 7.66699 -23 23 -23
c28.667 0 73.334 32.333 134.001 97c-31.333 11.333 -47 37 -47 77z" />
    <glyph glyph-name="guillemotright" unicode="&#xbb;" horiz-adv-x="936" 
d="M799 369c-174.667 136 -262.001 221.667 -262.001 257c0 15.333 8 23 24 23c11.333 0 29 -12.333 53 -37c25.333 -26.667 72.333 -65.667 141 -117c88.667 -66.667 133 -109 133 -127s-41.667 -53 -125 -105c-130 -81.333 -229.333 -152 -298 -212
c-11.333 -10 -20.666 -15 -27.999 -15c-11.333 0 -17 6.66699 -17 20c0 62.667 126.333 167 379 313zM545.999 375c-157.333 110 -236 185 -236 225c0 13.333 8 20 24 20c13.333 0 39 -18.667 77 -56c35.333 -35.333 90 -77.666 164 -126.999c40.667 -27.333 61 -48 61 -62
c0 -14.667 -12.333 -29.334 -37 -44.001c-113.333 -68 -224.333 -145.333 -333 -232c-12 -9.33301 -21.333 -14 -28 -14c-11.333 0 -17 6.33301 -17 19c0 50 108.333 140.333 325 271z" />
    <glyph glyph-name="onequarter" unicode="&#xbc;" horiz-adv-x="1707" 
d="M1024 1096c-116 -56.667 -184.998 -85 -206.998 -85c-14.667 0 -22 7 -22 21c0 9.33301 9.33301 17 28 23c83.333 27.333 181.666 76.333 294.999 147c30 18.667 49.667 28 59 28c26 0 39 -9.33301 39 -28c0 -14.667 -16 -36.667 -48 -66
c-170.667 -156 -337 -328.667 -499 -518c-44 -51.333 -69.667 -77 -77 -77c-8.66699 0 -16.834 4.5 -24.501 13.5s-11.5 17.833 -11.5 26.5c0 33.333 156 205 468 515zM1743 1068c14.667 0 21.998 -8 21.998 -24c0 -26 -88.333 -98 -265 -216l-463 -309l-554 -389l-99 -75
c-59.333 -44.667 -89.666 -67 -90.999 -67c-14.667 0 -22 12.667 -22 38c0 10.667 7.33301 26 22 46c26 34.667 167.667 142 425 322l468 319l288 192c164.667 108.667 254.334 163 269.001 163zM1548 311c64.667 0 97 -11.666 97 -34.999c0 -12.667 -8 -19 -24 -19
c-50.667 0 -92.667 -1 -126 -3l-137 -150c-67.333 -74 -107 -111 -119 -111c-22 0 -33 9 -33 27c0 20 60.667 96.333 182 229l-239 -15c-23.333 0 -35 12.667 -35 38c0 10 3.66699 20.667 11 32c21.333 35.333 132.833 105.166 334.5 209.499s324.167 156.5 367.5 156.5
c24.667 0 37 -8.33301 37 -25c0 -11.333 -18 -35 -54 -71l-71 -68zM1442 307.001l256 261.001l-204 -96c-86 -42 -152.667 -80 -200 -114c-14.667 -10.667 -37 -25.334 -67 -44.001c-6 -2.66699 -14 -7.66699 -24 -15l13 -1z" />
    <glyph glyph-name="onehalf" unicode="&#xbd;" horiz-adv-x="1708" 
d="M1024 1096c-116 -56.667 -184.998 -85 -206.998 -85c-14.667 0 -22 7 -22 21c0 9.33301 9.33301 17 28 23c83.333 27.333 181.666 76.333 294.999 147c30 18.667 49.667 28 59 28c26 0 39 -9.33301 39 -28c0 -14.667 -16 -36.667 -48 -66
c-170.667 -156 -337 -328.667 -499 -518c-44 -51.333 -69.667 -77 -77 -77c-8.66699 0 -16.834 4.5 -24.501 13.5s-11.5 17.833 -11.5 26.5c0 33.333 156 205 468 515zM1743 1068c14.667 0 21.998 -8 21.998 -24c0 -26 -88.333 -98 -265 -216l-463 -309l-554 -389l-99 -75
c-59.333 -44.667 -89.666 -67 -90.999 -67c-14.667 0 -22 12.667 -22 38c0 10.667 7.33301 26 22 46c26 34.667 167.667 142 425 322l468 319l288 192c164.667 108.667 254.334 163 269.001 163zM1076 70c126.667 18 226.333 27.002 299 27.002c45.333 0 68 -10.333 68 -31
c0 -8 -2.66699 -14 -8 -18l-260 -32l-183 -27c-26 -4 -39 15 -39 57c0 12 4 22.333 12 31c5.33301 6 37.666 24.667 96.999 56l374 198c232.667 123.333 349 213.666 349 270.999c0 22 -13.333 33 -40 33c-63.333 0 -145.666 -29 -246.999 -87l-138 -86
c-7.33301 0 -14.833 4.16699 -22.5 12.5s-11.5 16.166 -11.5 23.499c0 28.667 53.667 69.667 161 123c104.667 52.667 180.667 79 228 79c34 0 64.5 -12.667 91.5 -38s40.5 -55 40.5 -89c0 -65.333 -84.333 -146.333 -253 -243l-321 -160z" />
    <glyph glyph-name="threequarters" unicode="&#xbe;" horiz-adv-x="1707" 
d="M849 913c82.667 -15.333 123.999 -53.6641 123.999 -114.997c0 -79.333 -52 -145.333 -156 -198c-86.667 -44.667 -173.667 -67 -261 -67c-92 0 -138 34 -138 102c0 24 9.33301 49.167 28 75.5s39.334 39.5 62.001 39.5c14 0 21 -5 21 -15l-38 -43
c-14.667 -16.667 -22 -33.667 -22 -51c0 -28 25 -42 75 -42c60.667 0 132 20.667 214 62c94 47.333 141 98 141 152c0 44.667 -38 67 -114 67c-11.333 0 -27.333 -2.66699 -48 -8s-36 -8 -46 -8c-20 0 -30 10.667 -30 32c0 13.333 19.333 23.666 58 30.999
c151.333 26.667 267.666 70.667 348.999 132c41.333 30.667 62 54 62 70c0 18 -19 27 -57 27c-56 0 -125 -16.333 -207 -49l-118 -48c-15.333 0 -23 10 -23 30c0 32 45 63.333 135 94c78 26.667 138.333 40 181 40c36 0 69.333 -10 100 -30
c34.667 -22.667 52 -51.334 52 -86.001c0 -45.333 -47.333 -90.333 -142 -135c-83.333 -38.667 -150.666 -58.334 -201.999 -59.001zM1743 1068c14.667 0 21.998 -8 21.998 -24c0 -26 -88.333 -98 -265 -216l-463 -309l-554 -389l-99 -75
c-59.333 -44.667 -89.666 -67 -90.999 -67c-14.667 0 -22 12.667 -22 38c0 10.667 7.33301 26 22 46c26 34.667 167.667 142 425 322l468 319l288 192c164.667 108.667 254.334 163 269.001 163zM1548 311.002c64.667 0 97 -11.666 97 -34.999c0 -12.667 -8 -19 -24 -19
c-50.667 0 -92.667 -1 -126 -3l-137 -150c-67.333 -74 -107 -111 -119 -111c-22 0 -33 9 -33 27c0 20 60.667 96.333 182 229l-239 -15c-23.333 0 -35 12.667 -35 38c0 10 3.66699 20.667 11 32c21.333 35.333 132.833 105.166 334.5 209.499s324.167 156.5 367.5 156.5
c24.667 0 37 -8.33301 37 -25c0 -11.333 -18 -35 -54 -71l-71 -68zM1442 307.003l256 261.001l-204 -96c-86 -42 -152.667 -80 -200 -114c-14.667 -10.667 -37 -25.334 -67 -44.001c-6 -2.66699 -14 -7.66699 -24 -15l13 -1z" />
    <glyph glyph-name="questiondown" unicode="&#xbf;" horiz-adv-x="770" 
d="M1152 1132c32 0 48 -16.001 48 -48.001c0 -27.333 -13 -55.166 -39 -83.499s-52.333 -42.5 -79 -42.5c-34 0 -51 17 -51 51c0 26 13.667 53 41 81s54 42 80 42zM-1 137.999c0 -30.667 38.9971 -46 116.997 -46c74.667 0 161.334 16.333 260.001 49
c87.333 28.667 165.333 63.334 234 104.001c13.333 8 23.666 12 30.999 12c14 0 21 -8.66699 21 -26c0 -64.667 -72.667 -123 -218 -175c-121.333 -43.333 -224.333 -65 -309 -65c-119.333 0 -179 51 -179 153c0 45.333 16.333 90.666 49 135.999
c38.667 54 113.334 113 224.001 177c66.667 38.667 172.334 92.334 317.001 161.001c136.667 65.333 227.334 111.666 272.001 138.999l81 59c45.333 32.667 69 49 71 49c14.667 0 22 -9.66699 22 -29c0 -40 -85.667 -110 -257 -210l-479 -267
c-171.333 -101.333 -257 -175 -257 -221z" />
    <glyph glyph-name="Agrave" unicode="&#xc0;" horiz-adv-x="1554" 
d="M1502 577l92.002 0.000976562c44.667 -4.66699 67 -18.334 67 -41.001c0 -14.667 -16.333 -22 -49 -22l-65 4l-94 -1l-204 -259c-138 -172 -214.333 -258 -229 -258c-12.667 0 -24.334 9.66699 -35.001 29c-10 16.667 -15 32 -15 46c0 20.667 113.333 168 340 442h-78
c-108.667 -0.666992 -270.334 -7 -485.001 -19l-338 -288l-131 -117c-70.667 -61.333 -113.667 -92 -129 -92c-18.667 0 -28 9.66699 -28 29c0 24 96.333 116 289 276l229 190c-306 -14 -464 -29 -474 -45v-1c0 -12.667 47.667 -19 143 -19l134 2
c18 0.666992 27 -3.33301 27 -12c0 -18.667 -72.667 -28 -218 -28c-124 0 -186 15.667 -186 47c0 40 36.667 67.333 110 82c20.667 4.66699 72 9.66699 154 15l390 26c157.333 130 382.333 298.667 675 506c372.667 263.333 595 395 667 395c36 0 54 -23.333 54 -70
c0 -39.333 -47 -117.333 -141 -234zM1359 577.001l469 569.001l87 106c37.333 47.333 62 83.666 74 108.999v4c0 7.33301 -3.33301 11 -10 11c-31.333 0 -229.333 -133.333 -594 -400l-549 -408zM2133 1521c-18 0 -49.332 27.333 -93.999 82c-44 52.667 -66 87 -66 103
c0 8.66699 5.66699 17.834 17 27.501s21.333 14.5 30 14.5c13.333 0 28.666 -18.333 45.999 -55c3.33301 -8 19.333 -36.667 48 -86c26 -44.667 39 -68.334 39 -71.001c0 -10 -6.66699 -15 -20 -15z" />
    <glyph glyph-name="Aacute" unicode="&#xc1;" horiz-adv-x="1554" 
d="M1502 577l92.002 0.000976562c44.667 -4.66699 67 -18.334 67 -41.001c0 -14.667 -16.333 -22 -49 -22l-65 4l-94 -1l-204 -259c-138 -172 -214.333 -258 -229 -258c-12.667 0 -24.334 9.66699 -35.001 29c-10 16.667 -15 32 -15 46c0 20.667 113.333 168 340 442h-78
c-108.667 -0.666992 -270.334 -7 -485.001 -19l-338 -288l-131 -117c-70.667 -61.333 -113.667 -92 -129 -92c-18.667 0 -28 9.66699 -28 29c0 24 96.333 116 289 276l229 190c-306 -14 -464 -29 -474 -45v-1c0 -12.667 47.667 -19 143 -19l134 2
c18 0.666992 27 -3.33301 27 -12c0 -18.667 -72.667 -28 -218 -28c-124 0 -186 15.667 -186 47c0 40 36.667 67.333 110 82c20.667 4.66699 72 9.66699 154 15l390 26c157.333 130 382.333 298.667 675 506c372.667 263.333 595 395 667 395c36 0 54 -23.333 54 -70
c0 -39.333 -47 -117.333 -141 -234zM1359 577.001l469 569.001l87 106c37.333 47.333 62 83.666 74 108.999v4c0 7.33301 -3.33301 11 -10 11c-31.333 0 -229.333 -133.333 -594 -400l-549 -408zM2140 1544c-14.667 0 -22 7.66699 -22 23s36 48.333 108 99
c70 49.333 111.667 74 125 74c16 0 24 -10.667 24 -32c0 -26 -15 -47.333 -45 -64l-131 -74c-30.667 -17.333 -50.334 -26 -59 -26z" />
    <glyph glyph-name="Acircumflex" unicode="&#xc2;" horiz-adv-x="1554" 
d="M1502 577l92.002 0.000976562c44.667 -4.66699 67 -18.334 67 -41.001c0 -14.667 -16.333 -22 -49 -22l-65 4l-94 -1l-204 -259c-138 -172 -214.333 -258 -229 -258c-12.667 0 -24.334 9.66699 -35.001 29c-10 16.667 -15 32 -15 46c0 20.667 113.333 168 340 442h-78
c-108.667 -0.666992 -270.334 -7 -485.001 -19l-338 -288l-131 -117c-70.667 -61.333 -113.667 -92 -129 -92c-18.667 0 -28 9.66699 -28 29c0 24 96.333 116 289 276l229 190c-306 -14 -464 -29 -474 -45v-1c0 -12.667 47.667 -19 143 -19l134 2
c18 0.666992 27 -3.33301 27 -12c0 -18.667 -72.667 -28 -218 -28c-124 0 -186 15.667 -186 47c0 40 36.667 67.333 110 82c20.667 4.66699 72 9.66699 154 15l390 26c157.333 130 382.333 298.667 675 506c372.667 263.333 595 395 667 395c36 0 54 -23.333 54 -70
c0 -39.333 -47 -117.333 -141 -234zM1359 577.001l469 569.001l87 106c37.333 47.333 62 83.666 74 108.999v4c0 7.33301 -3.33301 11 -10 11c-31.333 0 -229.333 -133.333 -594 -400l-549 -408zM1927 1536c-13.333 0 -20 5.33203 -20 15.999c0 19.333 92.333 84 277 194
c16.667 10 28.334 15 35 15c19.333 0 39.333 -31 60 -93c18 -53.333 27 -93 27 -119c0 -10.667 -7 -16 -21 -16c-22.667 0 -42.334 18.333 -59 55c-21.333 48 -34.333 74.333 -39 79c-12.667 -5.33301 -59.334 -30.666 -140 -75.999c-66 -36.667 -106 -55 -120 -55z" />
    <glyph glyph-name="Atilde" unicode="&#xc3;" horiz-adv-x="1554" 
d="M1502 577l92.002 0.000976562c44.667 -4.66699 67 -18.334 67 -41.001c0 -14.667 -16.333 -22 -49 -22l-65 4l-94 -1l-204 -259c-138 -172 -214.333 -258 -229 -258c-12.667 0 -24.334 9.66699 -35.001 29c-10 16.667 -15 32 -15 46c0 20.667 113.333 168 340 442h-78
c-108.667 -0.666992 -270.334 -7 -485.001 -19l-338 -288l-131 -117c-70.667 -61.333 -113.667 -92 -129 -92c-18.667 0 -28 9.66699 -28 29c0 24 96.333 116 289 276l229 190c-306 -14 -464 -29 -474 -45v-1c0 -12.667 47.667 -19 143 -19l134 2
c18 0.666992 27 -3.33301 27 -12c0 -18.667 -72.667 -28 -218 -28c-124 0 -186 15.667 -186 47c0 40 36.667 67.333 110 82c20.667 4.66699 72 9.66699 154 15l390 26c157.333 130 382.333 298.667 675 506c372.667 263.333 595 395 667 395c36 0 54 -23.333 54 -70
c0 -39.333 -47 -117.333 -141 -234zM1359 577.001l469 569.001l87 106c37.333 47.333 62 83.666 74 108.999v4c0 7.33301 -3.33301 11 -10 11c-31.333 0 -229.333 -133.333 -594 -400l-549 -408zM1999 1638c-12.667 0 -27.835 -8.66699 -45.502 -26s-29.167 -26 -34.5 -26
c-11.333 0 -17 5.66699 -17 17c0 16.667 14.167 39.5 42.5 68.5s51.166 43.5 68.499 43.5c20.667 0 58.167 -11 112.501 -33c54.333 -22 94.166 -33 119.5 -33c18 0 35.667 8.5 53 25.5s28 25.5 32 25.5c6 0 9 -4 9 -12c0 -20 -13.5 -43 -40.5 -69s-51.167 -39 -72.5 -39
c-27.333 0 -67.166 9.66699 -119.499 29s-88.166 29 -107.499 29z" />
    <glyph glyph-name="Adieresis" unicode="&#xc4;" horiz-adv-x="1554" 
d="M1502 577l92.002 0.000976562c44.667 -4.66699 67 -18.334 67 -41.001c0 -14.667 -16.333 -22 -49 -22l-65 4l-94 -1l-204 -259c-138 -172 -214.333 -258 -229 -258c-12.667 0 -24.334 9.66699 -35.001 29c-10 16.667 -15 32 -15 46c0 20.667 113.333 168 340 442h-78
c-108.667 -0.666992 -270.334 -7 -485.001 -19l-338 -288l-131 -117c-70.667 -61.333 -113.667 -92 -129 -92c-18.667 0 -28 9.66699 -28 29c0 24 96.333 116 289 276l229 190c-306 -14 -464 -29 -474 -45v-1c0 -12.667 47.667 -19 143 -19l134 2
c18 0.666992 27 -3.33301 27 -12c0 -18.667 -72.667 -28 -218 -28c-124 0 -186 15.667 -186 47c0 40 36.667 67.333 110 82c20.667 4.66699 72 9.66699 154 15l390 26c157.333 130 382.333 298.667 675 506c372.667 263.333 595 395 667 395c36 0 54 -23.333 54 -70
c0 -39.333 -47 -117.333 -141 -234zM1359 577.001l469 569.001l87 106c37.333 47.333 62 83.666 74 108.999v4c0 7.33301 -3.33301 11 -10 11c-31.333 0 -229.333 -133.333 -594 -400l-549 -408zM2257 1579c-27.333 0 -41 13.668 -41 41.001c0 23.333 10.833 47 32.5 71
s44.167 36 67.5 36c29.333 0 44 -14.333 44 -43c0 -22.667 -11.5 -45.834 -34.5 -69.501s-45.833 -35.5 -68.5 -35.5zM2075 1578c-27.333 0 -41 13.999 -41 41.999c0 24 10.833 47.833 32.5 71.5s44.167 35.5 67.5 35.5c29.333 0 44 -14.667 44 -44
c0 -21.333 -11.833 -44.166 -35.5 -68.499s-46.167 -36.5 -67.5 -36.5z" />
    <glyph glyph-name="Aring" unicode="&#xc5;" horiz-adv-x="1554" 
d="M2181 1546c-25.333 0 -47.666 6 -67 18c-22 14 -33 32.667 -33 56c0 54 26.333 104.667 79 152s106.667 71 162 71c24 0 43 -11.333 57 -34c12 -19.333 18 -42 18 -68c0 -52 -23.333 -98 -70 -138c-44 -38 -92.667 -57 -146 -57zM2306 1760
c-30.667 0 -64.167 -15.667 -100.5 -47s-54.5 -62 -54.5 -92c0 -16.667 9 -25 27 -25c34.667 0 69.167 14.167 103.5 42.5s51.5 59.5 51.5 93.5c0 18.667 -9 28 -27 28zM1502 577l92.002 0.000976562c44.667 -4.66699 67 -18.334 67 -41.001c0 -14.667 -16.333 -22 -49 -22
l-65 4l-94 -1l-204 -259c-138 -172 -214.333 -258 -229 -258c-12.667 0 -24.334 9.66699 -35.001 29c-10 16.667 -15 32 -15 46c0 20.667 113.333 168 340 442h-78c-108.667 -0.666992 -270.334 -7 -485.001 -19l-338 -288l-131 -117c-70.667 -61.333 -113.667 -92 -129 -92
c-18.667 0 -28 9.66699 -28 29c0 24 96.333 116 289 276l229 190c-306 -14 -464 -29 -474 -45v-1c0 -12.667 47.667 -19 143 -19l134 2c18 0.666992 27 -3.33301 27 -12c0 -18.667 -72.667 -28 -218 -28c-124 0 -186 15.667 -186 47c0 40 36.667 67.333 110 82
c20.667 4.66699 72 9.66699 154 15l390 26c157.333 130 382.333 298.667 675 506c372.667 263.333 595 395 667 395c36 0 54 -23.333 54 -70c0 -39.333 -47 -117.333 -141 -234zM1359 577.001c420 507.333 630 770 630 788c0 7.33301 -3.33301 11 -10 11
c-30.667 0 -222.667 -128.667 -576 -386l-567 -422z" />
    <glyph glyph-name="AE" unicode="&#xc6;" horiz-adv-x="2251" 
d="M1999 788l-514.001 -26l-470 -33c-124 -94 -227.667 -176.667 -311 -248l-520 -444c-28 -24 -49 -36 -63 -36c-18.667 0 -28 9.33301 -28 28c0 32 203.333 215.333 610 550l176 142l-360 -31c-82.667 -8 -124 -17.333 -124 -28c0 -12.667 47.667 -19 143 -19l134 2
c18 0.666992 27 -3.66602 27 -12.999c0 -18 -80.333 -27 -241 -27c-108.667 0 -163 15.667 -163 47c0 32.667 21.833 56.5 65.5 71.5s248.834 38.5 615.501 70.5c628 448 981.333 672 1060 672c35.333 0 53 -23.333 53 -70c0 -36.667 -30 -92 -90 -166
c214.667 106.667 426.334 160 635 160c154 0 231 -50 231 -150c0 -56 -55 -110.333 -165 -163c-97.333 -46 -179 -69 -245 -69c-40 0 -60 17 -60 51c0 21.333 17 43.333 51 66c31.333 21.333 58.333 32 81 32c12.667 0 19 -4.33301 19 -13c0 -6 -10.333 -13.333 -31 -22
s-31.667 -16 -33 -22c5.33301 -5.33301 13.666 -8 25 -8c27.333 0 73 13.667 137 41s106.667 51.666 128 72.999c28 26.667 42 44 42 52c0 26.667 -48.667 40 -146 40c-104.667 0 -230 -18 -376 -54c-149.333 -36.667 -268.333 -79.667 -357 -129
c-84.667 -46.667 -127 -87 -127 -121c0 -58.667 94.333 -100 283 -124c107.333 -14 224.666 -21 351.999 -21c27.333 0 41 -10 41 -30c0 -36.667 -43 -57 -129 -61c-257.333 -11.333 -506 -72 -746 -182c-245.333 -112.667 -368 -225.334 -368 -338.001
c0 -110.667 94 -166 282 -166c214.667 0 415.334 91.333 602.001 274c12 12 22.333 18 31 18c14.667 0 22 -18.667 22 -56c0 -61.333 -68.333 -132.166 -205 -212.499s-275.667 -120.5 -417 -120.5c-255.333 0 -383 101 -383 303c0 134.667 109.667 251.667 329 351
c100 45.333 265.667 98.333 497 159zM1120 807l813.001 45c-126 37.333 -189 93 -189 167c0 41.333 36.167 106.5 108.5 195.5s108.5 138.167 108.5 147.5c0 8.66699 -3.33301 13 -10 13c-18.667 0 -127.334 -70.333 -326.001 -211z" />
    <glyph glyph-name="Ccedilla" unicode="&#xc7;" horiz-adv-x="1247" 
d="M475 -36c-22.667 -22 -52.335 -48.332 -89.002 -78.999c28.667 10 53 15 73 15c60.667 0 91 -26.667 91 -80c0 -48.667 -25.333 -91 -76 -127c-46 -32.667 -94.333 -49 -145 -49c-26 0 -57.667 5.66699 -95 17c-46.667 14.667 -70 31.334 -70 50.001
c0 9.33301 4.66699 14 14 14l41 -17c28 -11.333 52.667 -17 74 -17c37.333 0 73.333 11 108 33c39.333 24.667 59 54.667 59 90c0 30 -16 45 -48 45c-13.333 0 -32.166 -4 -56.499 -12s-42.5 -12 -54.5 -12c-15.333 0 -23 6.33301 -23 19l135 118
c-61.333 13.333 -112.666 46.166 -153.999 98.499s-62 109.833 -62 172.5c0 175.333 106 368.333 318 579c171.333 170 356.333 305.333 555 406c224 114 395 171 513 171c108 0 164.667 -51 170 -153c21.333 8 37 12 47 12c12.667 0 19 -6 19 -18
c0 -10.667 -23 -23.667 -69 -39c-25.333 -102 -95.666 -222.333 -210.999 -361c-126 -152.667 -234.667 -229 -326 -229c-54 0 -81 25.333 -81 76c0 77.333 70.667 179.666 212 306.999c125.333 112 234 187 326 225c7.33301 18 11 35.333 11 52c0 50.667 -28.667 76 -86 76
c-122.667 0 -292.334 -70 -509.001 -210c-211.333 -136 -395.666 -291 -552.999 -465c-172.667 -192 -259 -351.333 -259 -478c0 -102 60.667 -153 182 -153c87.333 0 183 23.667 287 71c73.333 33.333 148.666 77.666 225.999 132.999l96 71c10.667 0 16 -9.66699 16 -29
c0 -48.667 -48 -104 -144 -166c-64.667 -42 -136 -79 -214 -111c-86 -35.333 -168.667 -50.666 -248 -45.999zM1648 1165c-115.333 -59.333 -221.833 -143.5 -319.5 -252.5s-146.5 -178.5 -146.5 -208.5c0 -14.667 5.66699 -22 17 -22c46.667 0 127.667 67.333 243 202
c99.333 116 168 209.667 206 281z" />
    <glyph glyph-name="Egrave" unicode="&#xc8;" horiz-adv-x="1201" 
d="M1071 816c-84.667 0 -162.669 14 -234.002 42c-95.333 37.333 -143 91.333 -143 162c0 113.333 124 207.666 372 282.999c192.667 58 365.667 87 519 87s230 -50.333 230 -151c0 -56 -55.333 -110 -166 -162c-97.333 -46 -178.666 -69 -243.999 -69
c-40.667 0 -61 17 -61 51c0 21.333 17 43.333 51 66c31.333 21.333 58.333 32 81 32c13.333 0 20 -4.66699 20 -14c0 -4 -9 -10.667 -27 -20c-20.667 -10.667 -33 -18.334 -37 -23.001c6 -5.33301 14.333 -8 25 -8c34.667 0 92.667 19.667 174 59
c88 42.667 132 78.334 132 107.001c0 26.667 -48.333 40 -145 40c-108 0 -236.333 -19 -385 -57c-98.667 -26 -189.667 -56 -273 -90c-134.667 -56 -202 -108.333 -202 -157c0 -58.667 93 -100 279 -124c106.667 -14 225.334 -21 356.001 -21c26.667 0 40 -10 40 -30
c0 -36.667 -43 -57 -129 -61c-262 -12 -511.667 -73 -749 -183c-243.333 -112.667 -365 -225.334 -365 -338.001c0 -110 94.333 -165 283 -165c112.667 0 222 25.333 328 76c71.333 34 142 80.667 212 140c60 50.667 90.667 76 92 76c15.333 0 23 -18.667 23 -56
c0 -62 -68.667 -133 -206 -213s-276 -120 -416 -120c-255.333 0 -383 101.667 -383 305c0 132 90.667 246.333 272 343c121.333 64.667 271 116.334 449 155.001c50 12.667 125.667 25.334 227 38.001zM1642 1521c-18 0 -49.332 27.333 -93.999 82
c-44 52.667 -66 87 -66 103c0 8.66699 5.66699 17.834 17 27.501s21.333 14.5 30 14.5c13.333 0 28.666 -18.333 45.999 -55c3.33301 -8 19.333 -36.667 48 -86c26 -44.667 39 -68.334 39 -71.001c0 -10 -6.66699 -15 -20 -15z" />
    <glyph glyph-name="Eacute" unicode="&#xc9;" horiz-adv-x="1201" 
d="M1071 816c-84.667 0 -162.669 14 -234.002 42c-95.333 37.333 -143 91.333 -143 162c0 113.333 124 207.666 372 282.999c192.667 58 365.667 87 519 87s230 -50.333 230 -151c0 -56 -55.333 -110 -166 -162c-97.333 -46 -178.666 -69 -243.999 -69
c-40.667 0 -61 17 -61 51c0 21.333 17 43.333 51 66c31.333 21.333 58.333 32 81 32c13.333 0 20 -4.66699 20 -14c0 -4 -9 -10.667 -27 -20c-20.667 -10.667 -33 -18.334 -37 -23.001c6 -5.33301 14.333 -8 25 -8c34.667 0 92.667 19.667 174 59
c88 42.667 132 78.334 132 107.001c0 26.667 -48.333 40 -145 40c-108 0 -236.333 -19 -385 -57c-98.667 -26 -189.667 -56 -273 -90c-134.667 -56 -202 -108.333 -202 -157c0 -58.667 93 -100 279 -124c106.667 -14 225.334 -21 356.001 -21c26.667 0 40 -10 40 -30
c0 -36.667 -43 -57 -129 -61c-262 -12 -511.667 -73 -749 -183c-243.333 -112.667 -365 -225.334 -365 -338.001c0 -110 94.333 -165 283 -165c112.667 0 222 25.333 328 76c71.333 34 142 80.667 212 140c60 50.667 90.667 76 92 76c15.333 0 23 -18.667 23 -56
c0 -62 -68.667 -133 -206 -213s-276 -120 -416 -120c-255.333 0 -383 101.667 -383 305c0 132 90.667 246.333 272 343c121.333 64.667 271 116.334 449 155.001c50 12.667 125.667 25.334 227 38.001zM1554 1544c-14.667 0 -21.999 7.66699 -21.999 23s36 48.333 108 99
c70 49.333 111.667 74 125 74c16 0 24 -10.667 24 -32c0 -26 -15 -47.333 -45 -64l-131 -74c-30.667 -17.333 -50.334 -26 -59.001 -26z" />
    <glyph glyph-name="Ecircumflex" unicode="&#xca;" horiz-adv-x="1201" 
d="M1071 816c-84.667 0 -162.669 14 -234.002 42c-95.333 37.333 -143 91.333 -143 162c0 113.333 124 207.666 372 282.999c192.667 58 365.667 87 519 87s230 -50.333 230 -151c0 -56 -55.333 -110 -166 -162c-97.333 -46 -178.666 -69 -243.999 -69
c-40.667 0 -61 17 -61 51c0 21.333 17 43.333 51 66c31.333 21.333 58.333 32 81 32c13.333 0 20 -4.66699 20 -14c0 -4 -9 -10.667 -27 -20c-20.667 -10.667 -33 -18.334 -37 -23.001c6 -5.33301 14.333 -8 25 -8c34.667 0 92.667 19.667 174 59
c88 42.667 132 78.334 132 107.001c0 26.667 -48.333 40 -145 40c-108 0 -236.333 -19 -385 -57c-98.667 -26 -189.667 -56 -273 -90c-134.667 -56 -202 -108.333 -202 -157c0 -58.667 93 -100 279 -124c106.667 -14 225.334 -21 356.001 -21c26.667 0 40 -10 40 -30
c0 -36.667 -43 -57 -129 -61c-262 -12 -511.667 -73 -749 -183c-243.333 -112.667 -365 -225.334 -365 -338.001c0 -110 94.333 -165 283 -165c112.667 0 222 25.333 328 76c71.333 34 142 80.667 212 140c60 50.667 90.667 76 92 76c15.333 0 23 -18.667 23 -56
c0 -62 -68.667 -133 -206 -213s-276 -120 -416 -120c-255.333 0 -383 101.667 -383 305c0 132 90.667 246.333 272 343c121.333 64.667 271 116.334 449 155.001c50 12.667 125.667 25.334 227 38.001zM1422 1536c-13.333 0 -19.999 5.33203 -19.999 15.999
c0 19.333 92.333 84 277 194c16.667 10 28.334 15 35.001 15c19.333 0 39.333 -31 60 -93c18 -53.333 27 -93 27 -119c0 -10.667 -7 -16 -21 -16c-22.667 0 -42.334 18.333 -59.001 55c-21.333 48 -34.333 74.333 -39 79c-12.667 -5.33301 -59.334 -30.666 -140.001 -75.999
c-66 -36.667 -106 -55 -120 -55z" />
    <glyph glyph-name="Edieresis" unicode="&#xcb;" horiz-adv-x="1201" 
d="M1071 816c-84.667 0 -162.669 14 -234.002 42c-95.333 37.333 -143 91.333 -143 162c0 113.333 124 207.666 372 282.999c192.667 58 365.667 87 519 87s230 -50.333 230 -151c0 -56 -55.333 -110 -166 -162c-97.333 -46 -178.666 -69 -243.999 -69
c-40.667 0 -61 17 -61 51c0 21.333 17 43.333 51 66c31.333 21.333 58.333 32 81 32c13.333 0 20 -4.66699 20 -14c0 -4 -9 -10.667 -27 -20c-20.667 -10.667 -33 -18.334 -37 -23.001c6 -5.33301 14.333 -8 25 -8c34.667 0 92.667 19.667 174 59
c88 42.667 132 78.334 132 107.001c0 26.667 -48.333 40 -145 40c-108 0 -236.333 -19 -385 -57c-98.667 -26 -189.667 -56 -273 -90c-134.667 -56 -202 -108.333 -202 -157c0 -58.667 93 -100 279 -124c106.667 -14 225.334 -21 356.001 -21c26.667 0 40 -10 40 -30
c0 -36.667 -43 -57 -129 -61c-262 -12 -511.667 -73 -749 -183c-243.333 -112.667 -365 -225.334 -365 -338.001c0 -110 94.333 -165 283 -165c112.667 0 222 25.333 328 76c71.333 34 142 80.667 212 140c60 50.667 90.667 76 92 76c15.333 0 23 -18.667 23 -56
c0 -62 -68.667 -133 -206 -213s-276 -120 -416 -120c-255.333 0 -383 101.667 -383 305c0 132 90.667 246.333 272 343c121.333 64.667 271 116.334 449 155.001c50 12.667 125.667 25.334 227 38.001zM1739 1579c-27.333 0 -41 13.668 -41 41.001
c0 23.333 10.833 47 32.5 71s44.167 36 67.5 36c29.333 0 44 -14.333 44 -43c0 -22.667 -11.5 -45.834 -34.5 -69.501s-45.833 -35.5 -68.5 -35.5zM1557 1578c-27.333 0 -41 13.999 -41 41.999c0 24 10.833 47.833 32.5 71.5s44.167 35.5 67.5 35.5
c29.333 0 44 -14.667 44 -44c0 -21.333 -11.833 -44.166 -35.5 -68.499s-46.167 -36.5 -67.5 -36.5z" />
    <glyph glyph-name="Igrave" unicode="&#xcc;" horiz-adv-x="1174" 
d="M1144 592l77 18.001c36 9.33301 60.667 14 74 14c16.667 0 25 -5.66699 25 -17c0 -18.667 -83.333 -48.334 -250 -89.001c-272.667 -275.333 -472.667 -456.666 -600 -543.999c-39.333 -26.667 -73 -40 -101 -40c-42 0 -63 18.667 -63 56
c0 23.333 32.333 70.666 97 141.999s106.334 107 125.001 107c9.33301 0 14 -5 14 -15c0 -5.33301 -20.667 -31 -62 -77c-44.667 -50 -70 -80.333 -76 -91l2 -1c25.333 1.33301 181.666 142.333 468.999 423c-72 -13.333 -149.667 -20 -233 -20
c-115.333 0 -190.333 23.333 -225 70s-52 87.667 -52 123c0 106.667 76.333 222 229 346c131.333 106 292.333 199.333 483 280c182 77.333 325 116 429 116c102.667 0 154 -34.667 154 -104c0 -120.667 -172 -353 -516 -697zM1582 1316c0 19.333 -13 29 -39 29
c-51.333 0 -167.333 -39.333 -348 -118c-182.667 -79.333 -355.334 -183.5 -518.001 -312.5s-244 -222.833 -244 -281.5s83 -88 249 -88c154 0 247.333 8.33301 280 25c9.33301 4 88 81.667 236 233c76.667 78 151.334 161.333 224.001 250c106.667 131.333 160 219 160 263
zM1642 1521c-18 0 -49.332 27.333 -93.999 82c-44 52.667 -66 87 -66 103c0 8.66699 5.66699 17.834 17 27.501s21.333 14.5 30 14.5c13.333 0 28.666 -18.333 45.999 -55c3.33301 -8 19.333 -36.667 48 -86c26 -44.667 39 -68.334 39 -71.001c0 -10 -6.66699 -15 -20 -15z
" />
    <glyph glyph-name="Iacute" unicode="&#xcd;" horiz-adv-x="1174" 
d="M1144 592l77 18.001c36 9.33301 60.667 14 74 14c16.667 0 25 -5.66699 25 -17c0 -18.667 -83.333 -48.334 -250 -89.001c-272.667 -275.333 -472.667 -456.666 -600 -543.999c-39.333 -26.667 -73 -40 -101 -40c-42 0 -63 18.667 -63 56
c0 23.333 32.333 70.666 97 141.999s106.334 107 125.001 107c9.33301 0 14 -5 14 -15c0 -5.33301 -20.667 -31 -62 -77c-44.667 -50 -70 -80.333 -76 -91l2 -1c25.333 1.33301 181.666 142.333 468.999 423c-72 -13.333 -149.667 -20 -233 -20
c-115.333 0 -190.333 23.333 -225 70s-52 87.667 -52 123c0 106.667 76.333 222 229 346c131.333 106 292.333 199.333 483 280c182 77.333 325 116 429 116c102.667 0 154 -34.667 154 -104c0 -120.667 -172 -353 -516 -697zM1582 1316c0 19.333 -13 29 -39 29
c-51.333 0 -167.333 -39.333 -348 -118c-182.667 -79.333 -355.334 -183.5 -518.001 -312.5s-244 -222.833 -244 -281.5s83 -88 249 -88c154 0 247.333 8.33301 280 25c9.33301 4 88 81.667 236 233c76.667 78 151.334 161.333 224.001 250c106.667 131.333 160 219 160 263
zM1554 1544c-14.667 0 -21.999 7.66699 -21.999 23s36 48.333 108 99c70 49.333 111.667 74 125 74c16 0 24 -10.667 24 -32c0 -26 -15 -47.333 -45 -64l-131 -74c-30.667 -17.333 -50.334 -26 -59.001 -26z" />
    <glyph glyph-name="Icircumflex" unicode="&#xce;" horiz-adv-x="1174" 
d="M1144 592l77 18.001c36 9.33301 60.667 14 74 14c16.667 0 25 -5.66699 25 -17c0 -18.667 -83.333 -48.334 -250 -89.001c-272.667 -275.333 -472.667 -456.666 -600 -543.999c-39.333 -26.667 -73 -40 -101 -40c-42 0 -63 18.667 -63 56
c0 23.333 32.333 70.666 97 141.999s106.334 107 125.001 107c9.33301 0 14 -5 14 -15c0 -5.33301 -20.667 -31 -62 -77c-44.667 -50 -70 -80.333 -76 -91l2 -1c25.333 1.33301 181.666 142.333 468.999 423c-72 -13.333 -149.667 -20 -233 -20
c-115.333 0 -190.333 23.333 -225 70s-52 87.667 -52 123c0 106.667 76.333 222 229 346c131.333 106 292.333 199.333 483 280c182 77.333 325 116 429 116c102.667 0 154 -34.667 154 -104c0 -120.667 -172 -353 -516 -697zM1582 1316c0 19.333 -13 29 -39 29
c-51.333 0 -167.333 -39.333 -348 -118c-182.667 -79.333 -355.334 -183.5 -518.001 -312.5s-244 -222.833 -244 -281.5s83 -88 249 -88c154 0 247.333 8.33301 280 25c9.33301 4 88 81.667 236 233c76.667 78 151.334 161.333 224.001 250c106.667 131.333 160 219 160 263
zM1395 1536c-13.333 0 -19.999 5.33203 -19.999 15.999c0 19.333 92.333 84 277 194c16.667 10 28.334 15 35.001 15c19.333 0 39.333 -31 60 -93c18 -53.333 27 -93 27 -119c0 -10.667 -7 -16 -21 -16c-22.667 0 -42.334 18.333 -59.001 55
c-21.333 48 -34.333 74.333 -39 79c-12.667 -5.33301 -59.334 -30.666 -140.001 -75.999c-66 -36.667 -106 -55 -120 -55z" />
    <glyph glyph-name="Idieresis" unicode="&#xcf;" horiz-adv-x="1174" 
d="M1144 592l77 18.001c36 9.33301 60.667 14 74 14c16.667 0 25 -5.66699 25 -17c0 -18.667 -83.333 -48.334 -250 -89.001c-272.667 -275.333 -472.667 -456.666 -600 -543.999c-39.333 -26.667 -73 -40 -101 -40c-42 0 -63 18.667 -63 56
c0 23.333 32.333 70.666 97 141.999s106.334 107 125.001 107c9.33301 0 14 -5 14 -15c0 -5.33301 -20.667 -31 -62 -77c-44.667 -50 -70 -80.333 -76 -91l2 -1c25.333 1.33301 181.666 142.333 468.999 423c-72 -13.333 -149.667 -20 -233 -20
c-115.333 0 -190.333 23.333 -225 70s-52 87.667 -52 123c0 106.667 76.333 222 229 346c131.333 106 292.333 199.333 483 280c182 77.333 325 116 429 116c102.667 0 154 -34.667 154 -104c0 -120.667 -172 -353 -516 -697zM1582 1316c0 19.333 -13 29 -39 29
c-51.333 0 -167.333 -39.333 -348 -118c-182.667 -79.333 -355.334 -183.5 -518.001 -312.5s-244 -222.833 -244 -281.5s83 -88 249 -88c154 0 247.333 8.33301 280 25c9.33301 4 88 81.667 236 233c76.667 78 151.334 161.333 224.001 250c106.667 131.333 160 219 160 263
zM1753 1579c-27.333 0 -41 13.668 -41 41.001c0 23.333 10.833 47 32.5 71s44.167 36 67.5 36c29.333 0 44 -14.333 44 -43c0 -22.667 -11.5 -45.834 -34.5 -69.501s-45.833 -35.5 -68.5 -35.5zM1571 1578c-27.333 0 -41 13.999 -41 41.999c0 24 10.833 47.833 32.5 71.5
s44.167 35.5 67.5 35.5c29.333 0 44 -14.667 44 -44c0 -21.333 -11.833 -44.166 -35.5 -68.499s-46.167 -36.5 -67.5 -36.5z" />
    <glyph glyph-name="Eth" unicode="&#xd0;" horiz-adv-x="1509" 
d="M646 635c-143.333 0 -224 4 -242 12c-12 4.66699 -18 12.667 -18 24c0 14 11.667 24.333 35 31l293 9l406 440c-125.333 -23.333 -230.5 -51.333 -315.5 -84s-139.167 -49 -162.5 -49c-30.667 0 -46 10 -46 30c0 18 62 50.667 186 98s277 87.666 459 120.999l57 53
c29.333 26 48.666 39 57.999 39c18 0 27 -11.667 27 -35c0 -8 -5.66699 -21 -17 -39c27.333 1.33301 49.333 2 66 2c78.667 0 139.334 -10 182.001 -30c51.333 -23.333 94 -66.666 128 -129.999c28 -54 42 -106 42 -156c0 -152.667 -76 -313.667 -228 -483
c-120 -133.333 -253 -248.666 -399 -345.999c-183.333 -122 -345.333 -183 -486 -183c-64 0 -115.5 18.667 -154.5 56s-58.5 87.666 -58.5 150.999c0 38.667 5.33301 77 16 115l-230 -252c-17.333 -19.333 -34.333 -29 -51 -29c-28.667 0 -43 13 -43 39
c0 28 74.667 127 224 297zM1294 1178l-429.999 -465.002l116 2l115 2c55.333 0 83 -11.667 83 -35c0 -19.333 -14.333 -29.666 -43 -30.999l-337 -13l-186 -205c-45.333 -50 -74 -86.667 -86 -110c-18.667 -35.333 -28 -81.333 -28 -138c0 -90 48.333 -135 145 -135
c113.333 0 257.333 57.333 432 172c169.333 111.333 315.666 241 438.999 389c133.333 160.667 200 298.334 200 413.001c0 116 -72.333 174 -217 174c-64 0 -131.667 -6.66699 -203 -20z" />
    <glyph glyph-name="Ntilde" unicode="&#xd1;" horiz-adv-x="1486" 
d="M850 711c229.333 184.667 387.337 308 474.004 370c249.333 177.333 425 266 527 266c29.333 0 55.333 -9.33301 78 -28s34 -42.667 34 -72c0 -80.667 -97 -216.667 -291 -408l-404 -393c-227.333 -226 -341 -353 -341 -381c0 -16.667 7.33301 -27 22 -31
c3.33301 -0.666992 17.166 -1 41.499 -1s36.5 -5 36.5 -15c0 -10.667 -16.667 -20.334 -50 -29.001c-27.333 -7.33301 -49.333 -11 -66 -11c-26 0 -48.667 7.5 -68 22.5s-29 35.5 -29 61.5c0 29.333 14.5 64.333 43.5 105s122.833 141.667 281.5 303l475 473
c51.333 49.333 89.666 87.333 114.999 114c50.667 52.667 85 94.334 103 125.001c27.333 47.333 41 81 41 101c0 14.667 -6.66699 22 -20 22c-38.667 0 -140.334 -49.333 -305.001 -148c-390.667 -234 -813.334 -592.333 -1268 -1075
c-51.333 -54.667 -81.666 -82 -90.999 -82s-20.5 6 -33.5 18s-19.5 23 -19.5 33c0 28.667 88.667 134.667 266 318l493 517c177.333 196.667 266 325.334 266 386.001c0 20 -8.33301 30 -25 30c-72.667 0 -243 -115 -511 -345c-121.333 -104 -227.333 -208.333 -318 -313
c-14.667 -16.667 -26 -25 -34 -25c-25.333 0 -38 12.667 -38 38c0 32 74 118 222 258c105.333 99.333 211.333 186.666 318 261.999c155.333 110.667 275.666 166 360.999 166c55.333 0 83 -29.667 83 -89c0 -65.333 -50 -163.333 -150 -294c-70 -92 -143 -175 -219 -249z
M1569 1638c-12.667 0 -27.833 -8.66699 -45.5 -26s-29.167 -26 -34.5 -26c-11.333 0 -17 5.66699 -17 17c0 16.667 14.167 39.5 42.5 68.5s51.166 43.5 68.499 43.5c20.667 0 58.167 -11 112.5 -33s94.166 -33 119.499 -33c18 0 35.667 8.5 53 25.5s28 25.5 32 25.5
c6 0 9 -4 9 -12c0 -20 -13.5 -43 -40.5 -69s-51.167 -39 -72.5 -39c-27.333 0 -67.166 9.66699 -119.499 29s-88.166 29 -107.499 29z" />
    <glyph glyph-name="Ograve" unicode="&#xd2;" horiz-adv-x="1213" 
d="M1407 1387c56.667 0 101.834 -17.1689 135.501 -51.502s50.5 -79.833 50.5 -136.5c0 -162.667 -91.333 -365.667 -274 -609c-157.333 -210.667 -318 -375 -482 -493c-112 -80.667 -218.667 -121 -320 -121c-168.667 0 -253 87.333 -253 262
c0 168.667 62.333 347.334 187 536.001c108 162.667 239.667 302.667 395 420c158.667 120 252.667 180 282 180c32.667 0 49 -19.667 49 -59c54 34.667 113.333 58.334 178 71.001c4.66699 35.333 9.66699 53 15 53c29.333 0 41.666 -17.333 36.999 -52zM1397 1338
c-24 -76.667 -67.666 -162.667 -130.999 -258c-216 -323.333 -381 -485 -495 -485c-52 0 -78 36 -78 108c0 163.333 131 347 393 551c-114.667 -72 -205.334 -140.667 -272.001 -206c-118 -115.333 -221 -249 -309 -401c-104 -179.333 -156 -336.666 -156 -471.999
c0 -42.667 10.667 -77.334 32 -104.001c22.667 -29.333 54.667 -44 96 -44c108 0 249.667 82.333 425 247c158 148 301 320 429 516c130 199.333 195 348.333 195 447c0 70 -35.333 105 -106 105c-8 0 -15.667 -1.33301 -23 -4zM1340 1322
c-84.667 -32 -178.333 -96.332 -281 -192.999c-96.667 -90 -170.167 -178.333 -220.5 -265s-75.5 -147.334 -75.5 -182.001c0 -24 11 -36 33 -36c61.333 0 162.333 94.667 303 284c126 170 206.333 300.667 241 392zM1484 1521c-18 0 -49.332 27.333 -93.999 82
c-44 52.667 -66 87 -66 103c0 8.66699 5.66699 17.834 17 27.501s21.333 14.5 30 14.5c13.333 0 28.666 -18.333 45.999 -55c3.33301 -8 19.333 -36.667 48 -86c26 -44.667 39 -68.334 39 -71.001c0 -10 -6.66699 -15 -20 -15z" />
    <glyph glyph-name="Oacute" unicode="&#xd3;" horiz-adv-x="1213" 
d="M1407 1387c56.667 0 101.834 -17.1689 135.501 -51.502s50.5 -79.833 50.5 -136.5c0 -162.667 -91.333 -365.667 -274 -609c-157.333 -210.667 -318 -375 -482 -493c-112 -80.667 -218.667 -121 -320 -121c-168.667 0 -253 87.333 -253 262
c0 168.667 62.333 347.334 187 536.001c108 162.667 239.667 302.667 395 420c158.667 120 252.667 180 282 180c32.667 0 49 -19.667 49 -59c54 34.667 113.333 58.334 178 71.001c4.66699 35.333 9.66699 53 15 53c29.333 0 41.666 -17.333 36.999 -52zM1397 1338
c-24 -76.667 -67.666 -162.667 -130.999 -258c-216 -323.333 -381 -485 -495 -485c-52 0 -78 36 -78 108c0 163.333 131 347 393 551c-114.667 -72 -205.334 -140.667 -272.001 -206c-118 -115.333 -221 -249 -309 -401c-104 -179.333 -156 -336.666 -156 -471.999
c0 -42.667 10.667 -77.334 32 -104.001c22.667 -29.333 54.667 -44 96 -44c108 0 249.667 82.333 425 247c158 148 301 320 429 516c130 199.333 195 348.333 195 447c0 70 -35.333 105 -106 105c-8 0 -15.667 -1.33301 -23 -4zM1340 1322
c-84.667 -32 -178.333 -96.332 -281 -192.999c-96.667 -90 -170.167 -178.333 -220.5 -265s-75.5 -147.334 -75.5 -182.001c0 -24 11 -36 33 -36c61.333 0 162.333 94.667 303 284c126 170 206.333 300.667 241 392zM1287 1544c-14.667 0 -21.999 7.66699 -21.999 23
s36 48.333 108 99c70 49.333 111.667 74 125 74c16 0 24 -10.667 24 -32c0 -26 -15 -47.333 -45 -64l-131 -74c-30.667 -17.333 -50.334 -26 -59.001 -26z" />
    <glyph glyph-name="Ocircumflex" unicode="&#xd4;" horiz-adv-x="1213" 
d="M1407 1387c56.667 0 101.834 -17.1689 135.501 -51.502s50.5 -79.833 50.5 -136.5c0 -162.667 -91.333 -365.667 -274 -609c-157.333 -210.667 -318 -375 -482 -493c-112 -80.667 -218.667 -121 -320 -121c-168.667 0 -253 87.333 -253 262
c0 168.667 62.333 347.334 187 536.001c108 162.667 239.667 302.667 395 420c158.667 120 252.667 180 282 180c32.667 0 49 -19.667 49 -59c54 34.667 113.333 58.334 178 71.001c4.66699 35.333 9.66699 53 15 53c29.333 0 41.666 -17.333 36.999 -52zM1397 1338
c-24 -76.667 -67.666 -162.667 -130.999 -258c-216 -323.333 -381 -485 -495 -485c-52 0 -78 36 -78 108c0 163.333 131 347 393 551c-114.667 -72 -205.334 -140.667 -272.001 -206c-118 -115.333 -221 -249 -309 -401c-104 -179.333 -156 -336.666 -156 -471.999
c0 -42.667 10.667 -77.334 32 -104.001c22.667 -29.333 54.667 -44 96 -44c108 0 249.667 82.333 425 247c158 148 301 320 429 516c130 199.333 195 348.333 195 447c0 70 -35.333 105 -106 105c-8 0 -15.667 -1.33301 -23 -4zM1340 1322
c-84.667 -32 -178.333 -96.332 -281 -192.999c-96.667 -90 -170.167 -178.333 -220.5 -265s-75.5 -147.334 -75.5 -182.001c0 -24 11 -36 33 -36c61.333 0 162.333 94.667 303 284c126 170 206.333 300.667 241 392zM1251 1536c-13.333 0 -19.999 5.33203 -19.999 15.999
c0 19.333 92.333 84 277 194c16.667 10 28.334 15 35.001 15c19.333 0 39.333 -31 60 -93c18 -53.333 27 -93 27 -119c0 -10.667 -7 -16 -21 -16c-22.667 0 -42.334 18.333 -59.001 55c-21.333 48 -34.333 74.333 -39 79c-12.667 -5.33301 -59.334 -30.666 -140.001 -75.999
c-66 -36.667 -106 -55 -120 -55z" />
    <glyph glyph-name="Otilde" unicode="&#xd5;" horiz-adv-x="1213" 
d="M1407 1387c56.667 0 101.834 -17.1689 135.501 -51.502s50.5 -79.833 50.5 -136.5c0 -162.667 -91.333 -365.667 -274 -609c-157.333 -210.667 -318 -375 -482 -493c-112 -80.667 -218.667 -121 -320 -121c-168.667 0 -253 87.333 -253 262
c0 168.667 62.333 347.334 187 536.001c108 162.667 239.667 302.667 395 420c158.667 120 252.667 180 282 180c32.667 0 49 -19.667 49 -59c54 34.667 113.333 58.334 178 71.001c4.66699 35.333 9.66699 53 15 53c29.333 0 41.666 -17.333 36.999 -52zM1397 1338
c-24 -76.667 -67.666 -162.667 -130.999 -258c-216 -323.333 -381 -485 -495 -485c-52 0 -78 36 -78 108c0 163.333 131 347 393 551c-114.667 -72 -205.334 -140.667 -272.001 -206c-118 -115.333 -221 -249 -309 -401c-104 -179.333 -156 -336.666 -156 -471.999
c0 -42.667 10.667 -77.334 32 -104.001c22.667 -29.333 54.667 -44 96 -44c108 0 249.667 82.333 425 247c158 148 301 320 429 516c130 199.333 195 348.333 195 447c0 70 -35.333 105 -106 105c-8 0 -15.667 -1.33301 -23 -4zM1340 1322
c-84.667 -32 -178.333 -96.332 -281 -192.999c-96.667 -90 -170.167 -178.333 -220.5 -265s-75.5 -147.334 -75.5 -182.001c0 -24 11 -36 33 -36c61.333 0 162.333 94.667 303 284c126 170 206.333 300.667 241 392zM1351 1638c-12.667 0 -27.833 -8.66699 -45.5 -26
s-29.167 -26 -34.5 -26c-11.333 0 -17 5.66699 -17 17c0 16.667 14.167 39.5 42.5 68.5s51.166 43.5 68.499 43.5c20.667 0 58.167 -11 112.5 -33s94.166 -33 119.499 -33c18 0 35.667 8.5 53 25.5s28 25.5 32 25.5c6 0 9 -4 9 -12c0 -20 -13.5 -43 -40.5 -69
s-51.167 -39 -72.5 -39c-27.333 0 -67.166 9.66699 -119.499 29s-88.166 29 -107.499 29z" />
    <glyph glyph-name="Odieresis" unicode="&#xd6;" horiz-adv-x="1213" 
d="M1407 1387c56.667 0 101.834 -17.1689 135.501 -51.502s50.5 -79.833 50.5 -136.5c0 -162.667 -91.333 -365.667 -274 -609c-157.333 -210.667 -318 -375 -482 -493c-112 -80.667 -218.667 -121 -320 -121c-168.667 0 -253 87.333 -253 262
c0 168.667 62.333 347.334 187 536.001c108 162.667 239.667 302.667 395 420c158.667 120 252.667 180 282 180c32.667 0 49 -19.667 49 -59c54 34.667 113.333 58.334 178 71.001c4.66699 35.333 9.66699 53 15 53c29.333 0 41.666 -17.333 36.999 -52zM1397 1338
c-24 -76.667 -67.666 -162.667 -130.999 -258c-216 -323.333 -381 -485 -495 -485c-52 0 -78 36 -78 108c0 163.333 131 347 393 551c-114.667 -72 -205.334 -140.667 -272.001 -206c-118 -115.333 -221 -249 -309 -401c-104 -179.333 -156 -336.666 -156 -471.999
c0 -42.667 10.667 -77.334 32 -104.001c22.667 -29.333 54.667 -44 96 -44c108 0 249.667 82.333 425 247c158 148 301 320 429 516c130 199.333 195 348.333 195 447c0 70 -35.333 105 -106 105c-8 0 -15.667 -1.33301 -23 -4zM1340 1322
c-84.667 -32 -178.333 -96.332 -281 -192.999c-96.667 -90 -170.167 -178.333 -220.5 -265s-75.5 -147.334 -75.5 -182.001c0 -24 11 -36 33 -36c61.333 0 162.333 94.667 303 284c126 170 206.333 300.667 241 392zM1541 1579c-27.333 0 -41 13.668 -41 41.001
c0 23.333 10.833 47 32.5 71s44.167 36 67.5 36c29.333 0 44 -14.333 44 -43c0 -22.667 -11.5 -45.834 -34.5 -69.501s-45.833 -35.5 -68.5 -35.5zM1359 1578c-27.333 0 -41 13.999 -41 41.999c0 24 10.833 47.833 32.5 71.5s44.167 35.5 67.5 35.5
c29.333 0 44 -14.667 44 -44c0 -21.333 -11.833 -44.166 -35.5 -68.499s-46.167 -36.5 -67.5 -36.5z" />
    <glyph glyph-name="multiply" unicode="&#xd7;" horiz-adv-x="949" 
d="M769 319l-62 221l-384 -221l-14 61l381 219l-62 221l62 35l62 -220l383 220l15 -60l-381 -220l62 -221z" />
    <glyph glyph-name="Oslash" unicode="&#xd8;" horiz-adv-x="1212" 
d="M1567 1303c120 96.667 184.668 144.999 194.001 144.999c14.667 0 22 -7.33301 22 -22c0 -6.66699 -65.333 -65.667 -196 -177c4 -17.333 6 -34 6 -50c0 -125.333 -63 -287.666 -189 -486.999c-122.667 -194.667 -265.334 -362.667 -428.001 -504
c-177.333 -154.667 -330.333 -232 -459 -232c-122.667 0 -201.334 47.333 -236.001 142c-60.667 -58.667 -129.667 -119.667 -207 -183c-16 3.33301 -24 10 -24 20c0 16.667 72.667 88.334 218 215.001c-2.66699 21.333 -4 45.333 -4 72c0 166 62 342.667 186 530
c106.667 161.333 237 300.666 391 417.999c160.667 122.667 256.334 184 287.001 184c32.667 0 49 -19.667 49 -59c79.333 49.333 156 74 230 74c74.667 0 128 -28.667 160 -86zM1523 1265c-10.667 50.667 -43.667 76.001 -99 76.001c-58 0 -128.833 -28.5 -212.5 -85.5
s-126.5 -85.5 -128.5 -85.5c-23.333 0 -35 8.66699 -35 26c0 14.667 12.667 34 38 58c-162 -90.667 -317.667 -235.334 -467 -434.001c-158 -210 -246.667 -401.333 -266 -574c333.333 306 723.333 645.667 1170 1019zM1522 1193l-1173 -1016l-1 -8
c0 -40 11.667 -73.667 35 -101s54.666 -41 93.999 -41c106 0 243.333 78 412 234c149.333 138 288.333 302 417 492s200.667 336.667 216 440z" />
    <glyph glyph-name="Ugrave" unicode="&#xd9;" horiz-adv-x="1507" 
d="M1339 644l-436.002 -364.997c-258 -200 -436 -300 -534 -300c-35.333 0 -65.5 12.667 -90.5 38s-37.5 55.666 -37.5 90.999c0 68 27.333 146.333 82 235c65.333 105.333 172.333 236.333 321 393c136 142.667 260.333 259.667 373 351
c46.667 34 112.334 87.667 197.001 161c11.333 11.333 17 19.666 17 24.999c0 6 -4 9 -12 9c-42 0 -120.333 -33 -235 -99c-95.333 -54.667 -171.333 -104.334 -228 -149.001c-20 -16 -35.333 -24 -46 -24c-22.667 0 -34 9.33301 -34 28c0 16.667 43.667 55.334 131 116.001
c193.333 134 338 201 434 201c46 0 69 -23.333 69 -70c0 -46 -38.667 -103.667 -116 -173c-171.333 -153.333 -338.666 -317.333 -501.999 -492c-253.333 -270.667 -380 -451.334 -380 -542.001c0 -21.333 7 -32 21 -32c42.667 0 151 52.333 325 157
c120.667 73.333 255.667 169.666 405 288.999l384 319c50 41.333 114.667 103 194 185l187 195c118 119.333 184.667 179 200 179c16 0 31.333 -6.66699 46 -20s22 -27.666 22 -42.999c0 -9.33301 -6 -20 -18 -32c-281.333 -284 -500.666 -521.333 -657.999 -712
c-227.333 -274 -341 -438.333 -341 -493c0 -28 17 -42 51 -42c5.33301 0 12.5 1.33301 21.5 4s15.833 4 20.5 4c6.66699 0 10 -3 10 -9c0 -12 -13.667 -22 -41 -30c-20.667 -6 -39.334 -9 -56.001 -9c-51.333 0 -77 28.333 -77 85c0 112 110.333 302.333 331 571zM1782 1521
c-18 0 -49.332 27.333 -93.999 82c-44 52.667 -66 87 -66 103c0 8.66699 5.66699 17.834 17 27.501s21.333 14.5 30 14.5c13.333 0 28.666 -18.333 45.999 -55c3.33301 -8 19.333 -36.667 48 -86c26 -44.667 39 -68.334 39 -71.001c0 -10 -6.66699 -15 -20 -15z" />
    <glyph glyph-name="Uacute" unicode="&#xda;" horiz-adv-x="1507" 
d="M1339 644l-436.002 -364.997c-258 -200 -436 -300 -534 -300c-35.333 0 -65.5 12.667 -90.5 38s-37.5 55.666 -37.5 90.999c0 68 27.333 146.333 82 235c65.333 105.333 172.333 236.333 321 393c136 142.667 260.333 259.667 373 351
c46.667 34 112.334 87.667 197.001 161c11.333 11.333 17 19.666 17 24.999c0 6 -4 9 -12 9c-42 0 -120.333 -33 -235 -99c-95.333 -54.667 -171.333 -104.334 -228 -149.001c-20 -16 -35.333 -24 -46 -24c-22.667 0 -34 9.33301 -34 28c0 16.667 43.667 55.334 131 116.001
c193.333 134 338 201 434 201c46 0 69 -23.333 69 -70c0 -46 -38.667 -103.667 -116 -173c-171.333 -153.333 -338.666 -317.333 -501.999 -492c-253.333 -270.667 -380 -451.334 -380 -542.001c0 -21.333 7 -32 21 -32c42.667 0 151 52.333 325 157
c120.667 73.333 255.667 169.666 405 288.999l384 319c50 41.333 114.667 103 194 185l187 195c118 119.333 184.667 179 200 179c16 0 31.333 -6.66699 46 -20s22 -27.666 22 -42.999c0 -9.33301 -6 -20 -18 -32c-281.333 -284 -500.666 -521.333 -657.999 -712
c-227.333 -274 -341 -438.333 -341 -493c0 -28 17 -42 51 -42c5.33301 0 12.5 1.33301 21.5 4s15.833 4 20.5 4c6.66699 0 10 -3 10 -9c0 -12 -13.667 -22 -41 -30c-20.667 -6 -39.334 -9 -56.001 -9c-51.333 0 -77 28.333 -77 85c0 112 110.333 302.333 331 571zM1639 1544
c-14.667 0 -21.999 7.66699 -21.999 23s36 48.333 108 99c70 49.333 111.667 74 125 74c16 0 24 -10.667 24 -32c0 -26 -15 -47.333 -45 -64l-131 -74c-30.667 -17.333 -50.334 -26 -59.001 -26z" />
    <glyph glyph-name="Ucircumflex" unicode="&#xdb;" horiz-adv-x="1507" 
d="M1339 644l-436.002 -364.997c-258 -200 -436 -300 -534 -300c-35.333 0 -65.5 12.667 -90.5 38s-37.5 55.666 -37.5 90.999c0 68 27.333 146.333 82 235c65.333 105.333 172.333 236.333 321 393c136 142.667 260.333 259.667 373 351
c46.667 34 112.334 87.667 197.001 161c11.333 11.333 17 19.666 17 24.999c0 6 -4 9 -12 9c-42 0 -120.333 -33 -235 -99c-95.333 -54.667 -171.333 -104.334 -228 -149.001c-20 -16 -35.333 -24 -46 -24c-22.667 0 -34 9.33301 -34 28c0 16.667 43.667 55.334 131 116.001
c193.333 134 338 201 434 201c46 0 69 -23.333 69 -70c0 -46 -38.667 -103.667 -116 -173c-171.333 -153.333 -338.666 -317.333 -501.999 -492c-253.333 -270.667 -380 -451.334 -380 -542.001c0 -21.333 7 -32 21 -32c42.667 0 151 52.333 325 157
c120.667 73.333 255.667 169.666 405 288.999l384 319c50 41.333 114.667 103 194 185l187 195c118 119.333 184.667 179 200 179c16 0 31.333 -6.66699 46 -20s22 -27.666 22 -42.999c0 -9.33301 -6 -20 -18 -32c-281.333 -284 -500.666 -521.333 -657.999 -712
c-227.333 -274 -341 -438.333 -341 -493c0 -28 17 -42 51 -42c5.33301 0 12.5 1.33301 21.5 4s15.833 4 20.5 4c6.66699 0 10 -3 10 -9c0 -12 -13.667 -22 -41 -30c-20.667 -6 -39.334 -9 -56.001 -9c-51.333 0 -77 28.333 -77 85c0 112 110.333 302.333 331 571zM1535 1536
c-13.333 0 -19.999 5.33203 -19.999 15.999c0 19.333 92.333 84 277 194c16.667 10 28.334 15 35.001 15c19.333 0 39.333 -31 60 -93c18 -53.333 27 -93 27 -119c0 -10.667 -7 -16 -21 -16c-22.667 0 -42.334 18.333 -59.001 55c-21.333 48 -34.333 74.333 -39 79
c-12.667 -5.33301 -59.334 -30.666 -140.001 -75.999c-66 -36.667 -106 -55 -120 -55z" />
    <glyph glyph-name="Udieresis" unicode="&#xdc;" horiz-adv-x="1507" 
d="M1339 644l-436.002 -364.997c-258 -200 -436 -300 -534 -300c-35.333 0 -65.5 12.667 -90.5 38s-37.5 55.666 -37.5 90.999c0 68 27.333 146.333 82 235c65.333 105.333 172.333 236.333 321 393c136 142.667 260.333 259.667 373 351
c46.667 34 112.334 87.667 197.001 161c11.333 11.333 17 19.666 17 24.999c0 6 -4 9 -12 9c-42 0 -120.333 -33 -235 -99c-95.333 -54.667 -171.333 -104.334 -228 -149.001c-20 -16 -35.333 -24 -46 -24c-22.667 0 -34 9.33301 -34 28c0 16.667 43.667 55.334 131 116.001
c193.333 134 338 201 434 201c46 0 69 -23.333 69 -70c0 -46 -38.667 -103.667 -116 -173c-171.333 -153.333 -338.666 -317.333 -501.999 -492c-253.333 -270.667 -380 -451.334 -380 -542.001c0 -21.333 7 -32 21 -32c42.667 0 151 52.333 325 157
c120.667 73.333 255.667 169.666 405 288.999l384 319c50 41.333 114.667 103 194 185l187 195c118 119.333 184.667 179 200 179c16 0 31.333 -6.66699 46 -20s22 -27.666 22 -42.999c0 -9.33301 -6 -20 -18 -32c-281.333 -284 -500.666 -521.333 -657.999 -712
c-227.333 -274 -341 -438.333 -341 -493c0 -28 17 -42 51 -42c5.33301 0 12.5 1.33301 21.5 4s15.833 4 20.5 4c6.66699 0 10 -3 10 -9c0 -12 -13.667 -22 -41 -30c-20.667 -6 -39.334 -9 -56.001 -9c-51.333 0 -77 28.333 -77 85c0 112 110.333 302.333 331 571zM1866 1579
c-27.333 0 -41 13.668 -41 41.001c0 23.333 10.833 47 32.5 71s44.167 36 67.5 36c29.333 0 44 -14.333 44 -43c0 -22.667 -11.5 -45.834 -34.5 -69.501s-45.833 -35.5 -68.5 -35.5zM1684 1578c-27.333 0 -41 13.999 -41 41.999c0 24 10.833 47.833 32.5 71.5
s44.167 35.5 67.5 35.5c29.333 0 44 -14.667 44 -44c0 -21.333 -11.833 -44.166 -35.5 -68.499s-46.167 -36.5 -67.5 -36.5z" />
    <glyph glyph-name="Yacute" unicode="&#xdd;" horiz-adv-x="1484" 
d="M1426 618c-221.333 -190.667 -365.998 -312.004 -433.998 -364.004c-224 -172 -383 -258 -477 -258c-98.667 0 -148 56.667 -148 170c0 114.667 68.333 248.667 205 402c60 67.333 173 174.333 339 321c126 111.333 222.667 200 290 266c80.667 78.667 121 126 121 142
c0 7.33301 -4.66699 11 -14 11c-41.333 0 -133.333 -32.667 -276 -98s-288.667 -160.666 -438 -285.999s-224 -205.666 -224 -240.999c0 -13.333 8.66699 -20 26 -20c41.333 0 97.666 17 168.999 51l102 51c5.33301 -2 8 -5 8 -9c0 -24 -41.667 -55.667 -125 -95
c-78.667 -37.333 -134.667 -56 -168 -56c-54 0 -81 24 -81 72c0 68 74.333 165 223 291c106 90 230 173.333 372 250c172.667 94 311.334 141 416.001 141c57.333 0 86 -25.333 86 -76c0 -62.667 -83.333 -174 -250 -334l-466 -437
c-166.667 -170.667 -250 -299.667 -250 -387c0 -46 22.667 -69 68 -69c92 0 263.333 97 514 291c150 116 309.667 251.333 479 406c70.667 64.667 214 208 430 430c64 66 103 99 117 99c13.333 0 27.166 -4.33301 41.499 -13s21.5 -19 21.5 -31
c0 -13.333 -7 -27.666 -21 -42.999l-1183 -1337l-130 -130c-62.667 -62 -97.334 -104.333 -104.001 -127c8 2 21 10.333 39 25c16 14 27.333 21 34 21c6 0 10.333 -2.66699 13 -8c-0.666992 -10 -31 -41.667 -91 -95c-57.333 -51.333 -99.333 -93.666 -126 -126.999
c-24.667 -30.667 -45 -46 -61 -46c-14 0 -27.333 6.66699 -40 20s-19 27.333 -19 42c0 22.667 20 56.667 60 102l699 792zM1696 1544c-14.667 0 -21.999 7.66699 -21.999 23s36 48.333 108 99c70 49.333 111.667 74 125 74c16 0 24 -10.667 24 -32
c0 -26 -15 -47.333 -45 -64l-131 -74c-30.667 -17.333 -50.334 -26 -59.001 -26z" />
    <glyph glyph-name="Thorn" unicode="&#xde;" horiz-adv-x="1291" 
d="M497 242l-109.997 -136c-60 -72 -94.333 -108 -103 -108s-20.334 6.66699 -35.001 20s-22 24.666 -22 33.999c0 14 46.667 79.333 140 196c-83.333 13.333 -125 32.333 -125 57c0 24 17.667 36 53 36c16 0 39.667 -1.16699 71 -3.5s55 -3.5 71 -3.5
c131.333 158.667 308 360.334 530 605.001c-217.333 -34 -432.666 -94.667 -645.999 -182c-14.667 -6 -26.334 -9 -35.001 -9c-22 0 -33 13.667 -33 41c0 37.333 51.333 75.666 154 114.999c25.333 10 91.666 30.667 198.999 62c172.667 50.667 327.667 80 465 88
c144 160.667 219.667 241 227 241c10 0 22 -6.66699 36 -20s21 -24.666 21 -33.999c0 -17.333 -48 -79.333 -144 -186c83.333 -4 152.333 -22.333 207 -55c67.333 -41.333 101 -100 101 -176c0 -131.333 -69.667 -247.666 -209 -348.999
c-110.667 -80.667 -240.334 -138.334 -389.001 -173.001c-196.667 -45.333 -338 -65.333 -424 -60zM583.003 341c150.667 10 294.667 36.668 432 80.001c172 54 297 125 375 213c61.333 69.333 92 130.666 92 183.999c0 94 -92.667 141 -278 141
c-22.667 0 -50.667 -1.33301 -84 -4z" />
    <glyph glyph-name="germandbls" unicode="&#xdf;" horiz-adv-x="922" 
d="M845 553c28.667 -14 42.999 -39.332 42.999 -75.999c0 -74 -35 -157.667 -105 -251c-61.333 -81.333 -128.333 -145.666 -201 -192.999h110c8.66699 0 13 -5.33301 13 -16c0 -14 -26.333 -21 -79 -21c-38 0 -67.333 5.33301 -88 16c-14.667 -7.33301 -30.667 -11 -48 -11
c-38.667 0 -70 16.333 -94 49c-21.333 29.333 -32 64 -32 104c0 48 22 72 66 72c30 0 52.333 -17.667 67 -53l30 -89c53.333 38.667 113.333 102.334 180 191.001c74 98.667 111 173.334 111 224.001c0 13.333 -5.66699 23.666 -17 30.999
c-37.333 -19.333 -68.666 -29 -93.999 -29c-27.333 0 -41 7.33301 -41 22c0 18 15.667 32.333 47 43c24 8 47 12 69 12c12 0 23 -1.66699 33 -5c57.333 37.333 121.333 97.666 192 180.999c81.333 94.667 122 167.667 122 219c0 16.667 -7.33301 25 -22 25
c-44 0 -156.333 -98.333 -337 -295c-132 -144 -236.667 -265.667 -314 -365l-290 -373l-345 -458c-72 -96 -114.667 -144 -128 -144c-10.667 0 -20.5 5.5 -29.5 16.5s-13.5 21.833 -13.5 32.5c0 17.333 11.333 41 34 71l724 950c-57.333 -52 -189.666 -158 -396.999 -318
c-99.333 -76.667 -180.333 -115 -243 -115c-8.66699 0 -13 4.33301 -13 13c0 10 7 16.667 21 20c24 5.33301 49.667 13.666 77 24.999c37.333 15.333 110.666 64.666 219.999 147.999c228.667 174 477 393.667 745 659c130 128.667 226 193 288 193
c49.333 0 74 -28.667 74 -86c0 -79.333 -37.667 -162.333 -113 -249c-67.333 -78 -141.333 -134.667 -222 -170zM498.999 64.001l-27 73c-13.333 33.333 -27.333 50 -42 50c-18.667 0 -28 -11 -28 -33c0 -22.667 5.33301 -43.667 16 -63c13.333 -22.667 30.333 -34 51 -34
c8.66699 0 18.667 2.33301 30 7z" />
    <glyph glyph-name="agrave" unicode="&#xe0;" horiz-adv-x="765" 
d="M134 210c-178 -140 -300.668 -210 -368.001 -210c-8 -0 -12 4.33301 -12 13c0 12 8 19.333 24 22c62.667 10 149.334 58.333 260.001 145l129 101l207 165c94.667 65.333 175.667 98 243 98c50 0 78 -25 84 -75c26 24.667 44 37 54 37c22 0 33 -9 33 -27
c0 -23.333 -51.167 -94.666 -153.5 -213.999s-153.5 -189 -153.5 -209c0 -14 11 -21.333 33 -22s33 -6.33398 33 -17.001c0 -13.333 -22.667 -20 -68 -20c-44.667 0 -67 19.667 -67 59c0 31.333 18 76 54 134l-124 -105c-60.667 -45.333 -109 -68 -145 -68
c-57.333 0 -86 29 -86 87c0 32 7.66699 67.333 23 106zM630.999 503c-39.333 0 -120.667 -58.668 -244 -176.001s-185 -195.666 -185 -234.999c0 -18 8.66699 -27 26 -27c38 0 119.5 57.5 244.5 172.5s187.5 192.5 187.5 232.5c0 22 -9.66699 33 -29 33zM815.998 660.999
c-18 0 -49.332 27.333 -93.999 82c-44 52.667 -66 87 -66 103c0 8.66699 5.66699 17.834 17 27.501s21.333 14.5 30 14.5c13.333 0 28.666 -18.333 45.999 -55c3.33301 -8 19.333 -36.667 48 -86c26 -44.667 39 -68.334 39 -71.001c0 -10 -6.66699 -15 -20 -15z" />
    <glyph glyph-name="aacute" unicode="&#xe1;" horiz-adv-x="765" 
d="M134 210c-178 -140 -300.668 -210 -368.001 -210c-8 -0 -12 4.33301 -12 13c0 12 8 19.333 24 22c62.667 10 149.334 58.333 260.001 145l129 101l207 165c94.667 65.333 175.667 98 243 98c50 0 78 -25 84 -75c26 24.667 44 37 54 37c22 0 33 -9 33 -27
c0 -23.333 -51.167 -94.666 -153.5 -213.999s-153.5 -189 -153.5 -209c0 -14 11 -21.333 33 -22s33 -6.33398 33 -17.001c0 -13.333 -22.667 -20 -68 -20c-44.667 0 -67 19.667 -67 59c0 31.333 18 76 54 134l-124 -105c-60.667 -45.333 -109 -68 -145 -68
c-57.333 0 -86 29 -86 87c0 32 7.66699 67.333 23 106zM630.999 503c-39.333 0 -120.667 -58.668 -244 -176.001s-185 -195.666 -185 -234.999c0 -18 8.66699 -27 26 -27c38 0 119.5 57.5 244.5 172.5s187.5 192.5 187.5 232.5c0 22 -9.66699 33 -29 33zM652.998 697.999
c-14.667 0 -21.999 7.66699 -21.999 23s36 48.333 108 99c70 49.333 111.667 74 125 74c16 0 24 -10.667 24 -32c0 -26 -15 -47.333 -45 -64l-131 -74c-30.667 -17.333 -50.334 -26 -59.001 -26z" />
    <glyph glyph-name="acircumflex" unicode="&#xe2;" horiz-adv-x="765" 
d="M134 210c-178 -140 -300.668 -210 -368.001 -210c-8 -0 -12 4.33301 -12 13c0 12 8 19.333 24 22c62.667 10 149.334 58.333 260.001 145l129 101l207 165c94.667 65.333 175.667 98 243 98c50 0 78 -25 84 -75c26 24.667 44 37 54 37c22 0 33 -9 33 -27
c0 -23.333 -51.167 -94.666 -153.5 -213.999s-153.5 -189 -153.5 -209c0 -14 11 -21.333 33 -22s33 -6.33398 33 -17.001c0 -13.333 -22.667 -20 -68 -20c-44.667 0 -67 19.667 -67 59c0 31.333 18 76 54 134l-124 -105c-60.667 -45.333 -109 -68 -145 -68
c-57.333 0 -86 29 -86 87c0 32 7.66699 67.333 23 106zM630.999 503c-39.333 0 -120.667 -58.668 -244 -176.001s-185 -195.666 -185 -234.999c0 -18 8.66699 -27 26 -27c38 0 119.5 57.5 244.5 172.5s187.5 192.5 187.5 232.5c0 22 -9.66699 33 -29 33zM485.998 633.999
c-13.333 0 -19.999 5.33203 -19.999 15.999c0 19.333 92.333 84 277 194c16.667 10 28.334 15 35.001 15c19.333 0 39.333 -31 60 -93c18 -53.333 27 -93 27 -119c0 -10.667 -7 -16 -21 -16c-22.667 0 -42.334 18.333 -59.001 55c-21.333 48 -34.333 74.333 -39 79
c-12.667 -5.33301 -59.334 -30.666 -140.001 -75.999c-66 -36.667 -106 -55 -120 -55z" />
    <glyph glyph-name="atilde" unicode="&#xe3;" horiz-adv-x="765" 
d="M134 210c-178 -140 -300.668 -210 -368.001 -210c-8 -0 -12 4.33301 -12 13c0 12 8 19.333 24 22c62.667 10 149.334 58.333 260.001 145l129 101l207 165c94.667 65.333 175.667 98 243 98c50 0 78 -25 84 -75c26 24.667 44 37 54 37c22 0 33 -9 33 -27
c0 -23.333 -51.167 -94.666 -153.5 -213.999s-153.5 -189 -153.5 -209c0 -14 11 -21.333 33 -22s33 -6.33398 33 -17.001c0 -13.333 -22.667 -20 -68 -20c-44.667 0 -67 19.667 -67 59c0 31.333 18 76 54 134l-124 -105c-60.667 -45.333 -109 -68 -145 -68
c-57.333 0 -86 29 -86 87c0 32 7.66699 67.333 23 106zM630.999 503c-39.333 0 -120.667 -58.668 -244 -176.001s-185 -195.666 -185 -234.999c0 -18 8.66699 -27 26 -27c38 0 119.5 57.5 244.5 172.5s187.5 192.5 187.5 232.5c0 22 -9.66699 33 -29 33zM610.998 736.999
c-12.667 0 -27.833 -8.66699 -45.5 -26s-29.167 -26 -34.5 -26c-11.333 0 -17 5.66699 -17 17c0 16.667 14.167 39.5 42.5 68.5s51.166 43.5 68.499 43.5c20.667 0 58.167 -11 112.5 -33s94.166 -33 119.499 -33c18 0 35.667 8.5 53 25.5s28 25.5 32 25.5c6 0 9 -4 9 -12
c0 -20 -13.5 -43 -40.5 -69s-51.167 -39 -72.5 -39c-27.333 0 -67.166 9.66699 -119.499 29s-88.166 29 -107.499 29z" />
    <glyph glyph-name="adieresis" unicode="&#xe4;" horiz-adv-x="765" 
d="M134 210c-178 -140 -300.668 -210 -368.001 -210c-8 -0 -12 4.33301 -12 13c0 12 8 19.333 24 22c62.667 10 149.334 58.333 260.001 145l129 101l207 165c94.667 65.333 175.667 98 243 98c50 0 78 -25 84 -75c26 24.667 44 37 54 37c22 0 33 -9 33 -27
c0 -23.333 -51.167 -94.666 -153.5 -213.999s-153.5 -189 -153.5 -209c0 -14 11 -21.333 33 -22s33 -6.33398 33 -17.001c0 -13.333 -22.667 -20 -68 -20c-44.667 0 -67 19.667 -67 59c0 31.333 18 76 54 134l-124 -105c-60.667 -45.333 -109 -68 -145 -68
c-57.333 0 -86 29 -86 87c0 32 7.66699 67.333 23 106zM630.999 503c-39.333 0 -120.667 -58.668 -244 -176.001s-185 -195.666 -185 -234.999c0 -18 8.66699 -27 26 -27c38 0 119.5 57.5 244.5 172.5s187.5 192.5 187.5 232.5c0 22 -9.66699 33 -29 33zM819.998 676.999
c-27.333 0 -41 13.668 -41 41.001c0 23.333 10.833 47 32.5 71s44.167 36 67.5 36c29.333 0 44 -14.333 44 -43c0 -22.667 -11.5 -45.834 -34.5 -69.501s-45.833 -35.5 -68.5 -35.5zM637.998 676c-27.333 0 -41 13.999 -41 41.999c0 24 10.833 47.833 32.5 71.5
s44.167 35.5 67.5 35.5c29.333 0 44 -14.667 44 -44c0 -21.333 -11.833 -44.166 -35.5 -68.499s-46.167 -36.5 -67.5 -36.5z" />
    <glyph glyph-name="aring" unicode="&#xe5;" horiz-adv-x="765" 
d="M134 210c-178 -140 -300.668 -210 -368.001 -210c-8 -0 -12 4.33301 -12 13c0 12 8 19.333 24 22c62.667 10 149.334 58.333 260.001 145l129 101l207 165c94.667 65.333 175.667 98 243 98c50 0 78 -25 84 -75c26 24.667 44 37 54 37c22 0 33 -9 33 -27
c0 -23.333 -51.167 -94.666 -153.5 -213.999s-153.5 -189 -153.5 -209c0 -14 11 -21.333 33 -22s33 -6.33398 33 -17.001c0 -13.333 -22.667 -20 -68 -20c-44.667 0 -67 19.667 -67 59c0 31.333 18 76 54 134l-124 -105c-60.667 -45.333 -109 -68 -145 -68
c-57.333 0 -86 29 -86 87c0 32 7.66699 67.333 23 106zM630.999 503c-39.333 0 -120.667 -58.668 -244 -176.001s-185 -195.666 -185 -234.999c0 -18 8.66699 -27 26 -27c38 0 119.5 57.5 244.5 172.5s187.5 192.5 187.5 232.5c0 22 -9.66699 33 -29 33zM757.998 678.999
c-54.667 0 -81.999 20.667 -81.999 62c0 44 21.667 85.333 65 124s87.333 58 132 58c41.333 0 62 -27.333 62 -82c0 -44 -18.333 -82 -55 -114s-77.334 -48 -122.001 -48zM859.999 854.999c-24.667 0 -52 -13.166 -82 -39.499s-45 -51.5 -45 -75.5c0 -14 7.33301 -21 22 -21
c28 0 56.333 11.667 85 35s43 48.666 43 75.999c0 16.667 -7.66699 25 -23 25z" />
    <glyph glyph-name="ae" unicode="&#xe6;" horiz-adv-x="957" 
d="M135 211c-86.667 -68 -144.338 -111.335 -173.005 -130.002c-81.333 -54 -146.666 -81 -195.999 -81c-8 0 -12 4 -12 12c0 12 9.33301 19.667 28 23c22.667 4 55 16 97 36c50.667 24 128.334 79.333 233.001 166c128.667 106.667 215.334 175.334 260.001 206.001
c98.667 67.333 180.334 101 245.001 101c49.333 0 77 -24.333 83 -73c34.667 36.667 58.667 55 72 55c23.333 0 35 -6.66699 35 -20c0 -11.333 -13.667 -36.333 -41 -75c78 57.333 146.333 86 205 86c54 0 81 -24.667 81 -74c0 -68.667 -65 -131.667 -195 -189
c-90 -39.333 -184.667 -67.666 -284 -84.999c-8 -15.333 -12 -32.333 -12 -51c0 -41.333 19 -67.333 57 -78c16.667 -4.66699 52.334 -7 107.001 -7c9.33301 0 14 -5.33301 14 -16c0 -18 -43.667 -27 -131 -27c-106.667 0 -160 40.333 -160 121
c0 25.333 6.33301 52.333 19 81c-130 -116.667 -220 -175 -270 -175c-57.333 0 -86 29.333 -86 88c0 50.667 8 86 24 106zM630.996 502.998c-39.333 0 -120.667 -58.668 -244 -176.001s-185 -195.666 -185 -234.999c0 -18 8.66699 -27 26 -27c38 0 119.5 57.5 244.5 172.5
s187.5 192.5 187.5 232.5c0 22 -9.66699 33 -29 33zM588.995 199.997c136.667 38.667 234.167 83.5 292.5 134.5s87.5 90.167 87.5 117.5c0 17.333 -7.66699 26 -23 26c-44 0 -108.667 -36 -194 -108c-74.667 -63.333 -129 -120 -163 -170z" />
    <glyph glyph-name="ccedilla" unicode="&#xe7;" horiz-adv-x="627" 
d="M222 279l-211.998 -163.002c-109.333 -77.333 -190.666 -116 -243.999 -116c-8 0 -12 4 -12 12c0 12.667 8 20.334 24 23.001c58.667 9.33301 142.667 55.666 252 138.999l278 222c152 124.667 269 187 351 187c43.333 0 65 -16.667 65 -50c14.667 0 22 -6.66699 22 -20
c0 -10.667 -8.33301 -16.667 -25 -18c-13.333 -46.667 -38.333 -93.667 -75 -141c-44 -56 -86.333 -84 -127 -84c-24 0 -36 11 -36 33c0 31.333 26 72 78 122c46 44.667 87.333 74.667 124 90l2 11c0 9.33301 -4.66699 14 -14 14c-43.333 0 -122.833 -59.667 -238.5 -179
s-173.5 -202.666 -173.5 -249.999c0 -30 12.667 -51 38 -63c12.667 -6 36.334 -10.667 71.001 -14c25.333 -2.66699 38 -8.33398 38 -17.001c0 -13.333 -23.667 -20 -71 -20c-32.667 0 -63 7 -91 21c-20.667 -20 -43.334 -39 -68.001 -57c22 4 39.333 6 52 6
c51.333 0 77 -19 77 -57c0 -38.667 -17.667 -71 -53 -97c-32.667 -24 -69 -36 -109 -36c-18.667 0 -42.334 4.66699 -71.001 14c-34 10.667 -51 23 -51 37c0 10.667 4.33301 16 13 16c1.33301 0 12.666 -4.5 33.999 -13.5s40.666 -13.5 57.999 -13.5
c26.667 0 50.667 6.33301 72 19c25.333 14.667 38 34.334 38 59.001s-17 37 -51 37c-8 0 -19.5 -1.66699 -34.5 -5s-26.167 -5 -33.5 -5c-10 0 -14.667 4 -14 12c12 15.333 30.667 33 56 53c31.333 24.667 51.333 41.334 60 50.001c-26 26 -39 60 -39 102
c0 36 13.333 82.667 40 140zM668.002 470.998c-19.333 -8.66699 -46.667 -30.667 -82 -66c-38 -37.333 -57 -63.333 -57 -78l8 -8c18 0 43 20.667 75 62c27.333 35.333 46 65.333 56 90z" />
    <glyph glyph-name="egrave" unicode="&#xe8;" horiz-adv-x="604" 
d="M139 162c-33.333 -8 -95.998 -38.666 -187.998 -91.999c-81.333 -46.667 -143 -70 -185 -70c-8 0 -12 4.33301 -12 13c0 12 8.66699 19.333 26 22c40.667 6.66699 98 31.667 172 75c81.333 46.667 147.666 76 198.999 88c30.667 74 94 151.667 190 233
c102 87.333 189 131 261 131c53.333 0 80 -22.667 80 -68c0 -59.333 -56.333 -124 -169 -194c-82.667 -52 -167.334 -92.667 -254.001 -122c-9.33301 -21.333 -14 -43.666 -14 -66.999c0 -34.667 12 -57.334 36 -68.001c12 -4.66699 34.667 -7.66699 68 -9
c24 -0.666992 36 -6.33398 36 -17.001c0 -16.667 -41 -25 -123 -25c-86.667 0 -130 37.667 -130 113c0 17.333 2.33301 36.333 7 57zM271.002 218.001c61.333 30 126.001 70.668 194.001 122.001c90.667 67.333 136 120.666 136 159.999c0 16 -7.33301 24 -22 24
c-43.333 0 -102.333 -40 -177 -120c-66.667 -72.667 -110.334 -134.667 -131.001 -186zM694.003 661.002c-18 0 -49.332 27.333 -93.999 82c-44 52.667 -66 87 -66 103c0 8.66699 5.66699 17.834 17 27.501s21.333 14.5 30 14.5c13.333 0 28.666 -18.333 45.999 -55
c3.33301 -8 19.333 -36.667 48 -86c26 -44.667 39 -68.334 39 -71.001c0 -10 -6.66699 -15 -20 -15z" />
    <glyph glyph-name="eacute" unicode="&#xe9;" horiz-adv-x="604" 
d="M139 162c-33.333 -8 -95.998 -38.666 -187.998 -91.999c-81.333 -46.667 -143 -70 -185 -70c-8 0 -12 4.33301 -12 13c0 12 8.66699 19.333 26 22c40.667 6.66699 98 31.667 172 75c81.333 46.667 147.666 76 198.999 88c30.667 74 94 151.667 190 233
c102 87.333 189 131 261 131c53.333 0 80 -22.667 80 -68c0 -59.333 -56.333 -124 -169 -194c-82.667 -52 -167.334 -92.667 -254.001 -122c-9.33301 -21.333 -14 -43.666 -14 -66.999c0 -34.667 12 -57.334 36 -68.001c12 -4.66699 34.667 -7.66699 68 -9
c24 -0.666992 36 -6.33398 36 -17.001c0 -16.667 -41 -25 -123 -25c-86.667 0 -130 37.667 -130 113c0 17.333 2.33301 36.333 7 57zM271.002 218.001c61.333 30 126.001 70.668 194.001 122.001c90.667 67.333 136 120.666 136 159.999c0 16 -7.33301 24 -22 24
c-43.333 0 -102.333 -40 -177 -120c-66.667 -72.667 -110.334 -134.667 -131.001 -186zM572.003 698.002c-14.667 0 -21.999 7.66699 -21.999 23s36 48.333 108 99c70 49.333 111.667 74 125 74c16 0 24 -10.667 24 -32c0 -26 -15 -47.333 -45 -64l-131 -74
c-30.667 -17.333 -50.334 -26 -59.001 -26z" />
    <glyph glyph-name="ecircumflex" unicode="&#xea;" horiz-adv-x="604" 
d="M139 162c-33.333 -8 -95.998 -38.666 -187.998 -91.999c-81.333 -46.667 -143 -70 -185 -70c-8 0 -12 4.33301 -12 13c0 12 8.66699 19.333 26 22c40.667 6.66699 98 31.667 172 75c81.333 46.667 147.666 76 198.999 88c30.667 74 94 151.667 190 233
c102 87.333 189 131 261 131c53.333 0 80 -22.667 80 -68c0 -59.333 -56.333 -124 -169 -194c-82.667 -52 -167.334 -92.667 -254.001 -122c-9.33301 -21.333 -14 -43.666 -14 -66.999c0 -34.667 12 -57.334 36 -68.001c12 -4.66699 34.667 -7.66699 68 -9
c24 -0.666992 36 -6.33398 36 -17.001c0 -16.667 -41 -25 -123 -25c-86.667 0 -130 37.667 -130 113c0 17.333 2.33301 36.333 7 57zM271.002 218.001c61.333 30 126.001 70.668 194.001 122.001c90.667 67.333 136 120.666 136 159.999c0 16 -7.33301 24 -22 24
c-43.333 0 -102.333 -40 -177 -120c-66.667 -72.667 -110.334 -134.667 -131.001 -186zM405.003 634.002c-13.333 0 -19.999 5.33203 -19.999 15.999c0 19.333 92.333 84 277 194c16.667 10 28.334 15 35.001 15c19.333 0 39.333 -31 60 -93c18 -53.333 27 -93 27 -119
c0 -10.667 -7 -16 -21 -16c-22.667 0 -42.334 18.333 -59.001 55c-21.333 48 -34.333 74.333 -39 79c-12.667 -5.33301 -59.334 -30.666 -140.001 -75.999c-66 -36.667 -106 -55 -120 -55z" />
    <glyph glyph-name="edieresis" unicode="&#xeb;" horiz-adv-x="604" 
d="M139 162c-33.333 -8 -95.998 -38.666 -187.998 -91.999c-81.333 -46.667 -143 -70 -185 -70c-8 0 -12 4.33301 -12 13c0 12 8.66699 19.333 26 22c40.667 6.66699 98 31.667 172 75c81.333 46.667 147.666 76 198.999 88c30.667 74 94 151.667 190 233
c102 87.333 189 131 261 131c53.333 0 80 -22.667 80 -68c0 -59.333 -56.333 -124 -169 -194c-82.667 -52 -167.334 -92.667 -254.001 -122c-9.33301 -21.333 -14 -43.666 -14 -66.999c0 -34.667 12 -57.334 36 -68.001c12 -4.66699 34.667 -7.66699 68 -9
c24 -0.666992 36 -6.33398 36 -17.001c0 -16.667 -41 -25 -123 -25c-86.667 0 -130 37.667 -130 113c0 17.333 2.33301 36.333 7 57zM271.002 218.001c61.333 30 126.001 70.668 194.001 122.001c90.667 67.333 136 120.666 136 159.999c0 16 -7.33301 24 -22 24
c-43.333 0 -102.333 -40 -177 -120c-66.667 -72.667 -110.334 -134.667 -131.001 -186zM717.003 677.002c-27.333 0 -41 13.668 -41 41.001c0 23.333 10.833 47 32.5 71s44.167 36 67.5 36c29.333 0 44 -14.333 44 -43c0 -22.667 -11.5 -45.834 -34.5 -69.501
s-45.833 -35.5 -68.5 -35.5zM535.003 676.003c-27.333 0 -41 13.999 -41 41.999c0 24 10.833 47.833 32.5 71.5s44.167 35.5 67.5 35.5c29.333 0 44 -14.667 44 -44c0 -21.333 -11.833 -44.166 -35.5 -68.499s-46.167 -36.5 -67.5 -36.5z" />
    <glyph glyph-name="igrave" unicode="&#xec;" horiz-adv-x="527" 
d="M237 60c0 -18 19.333 -27 58 -27c8.66699 0 13 -5.33301 13 -16c0 -12.667 -22 -19 -66 -19c-50 0 -75 24 -75 72c0 56 74.333 173 223 351l-273 -223c-161.333 -132 -278.333 -198 -351 -198c-8 -0 -12 4.33301 -12 13c0 12 6.66699 19.333 20 22
c42 8 80.333 21.667 115 41c43.333 24 135.333 91.667 276 203l306 257c13.333 4.66699 31.333 7 54 7s34 -13 34 -39c0 -28 -53.667 -103.5 -161 -226.5s-161 -195.5 -161 -217.5zM601 661c-18 0 -49.332 27.333 -93.999 82c-44 52.667 -66 87 -66 103
c0 8.66699 5.66699 17.834 17 27.501s21.333 14.5 30 14.5c13.333 0 28.666 -18.333 45.999 -55c3.33301 -8 19.333 -36.667 48 -86c26 -44.667 39 -68.334 39 -71.001c0 -10 -6.66699 -15 -20 -15z" />
    <glyph glyph-name="iacute" unicode="&#xed;" horiz-adv-x="527" 
d="M237 60c0 -18 19.333 -27 58 -27c8.66699 0 13 -5.33301 13 -16c0 -12.667 -22 -19 -66 -19c-50 0 -75 24 -75 72c0 56 74.333 173 223 351l-273 -223c-161.333 -132 -278.333 -198 -351 -198c-8 -0 -12 4.33301 -12 13c0 12 6.66699 19.333 20 22
c42 8 80.333 21.667 115 41c43.333 24 135.333 91.667 276 203l306 257c13.333 4.66699 31.333 7 54 7s34 -13 34 -39c0 -28 -53.667 -103.5 -161 -226.5s-161 -195.5 -161 -217.5zM602 698c-14.667 0 -21.999 7.66699 -21.999 23s36 48.333 108 99
c70 49.333 111.667 74 125 74c16 0 24 -10.667 24 -32c0 -26 -15 -47.333 -45 -64l-131 -74c-30.667 -17.333 -50.334 -26 -59.001 -26z" />
    <glyph glyph-name="icircumflex" unicode="&#xee;" horiz-adv-x="527" 
d="M237 60c0 -18 19.333 -27 58 -27c8.66699 0 13 -5.33301 13 -16c0 -12.667 -22 -19 -66 -19c-50 0 -75 24 -75 72c0 56 74.333 173 223 351l-273 -223c-161.333 -132 -278.333 -198 -351 -198c-8 -0 -12 4.33301 -12 13c0 12 6.66699 19.333 20 22
c42 8 80.333 21.667 115 41c43.333 24 135.333 91.667 276 203l306 257c13.333 4.66699 31.333 7 54 7s34 -13 34 -39c0 -28 -53.667 -103.5 -161 -226.5s-161 -195.5 -161 -217.5zM394 634c-13.333 0 -19.999 5.33203 -19.999 15.999c0 19.333 92.333 84 277 194
c16.667 10 28.334 15 35.001 15c19.333 0 39.333 -31 60 -93c18 -53.333 27 -93 27 -119c0 -10.667 -7 -16 -21 -16c-22.667 0 -42.334 18.333 -59.001 55c-21.333 48 -34.333 74.333 -39 79c-12.667 -5.33301 -59.334 -30.666 -140.001 -75.999
c-66 -36.667 -106 -55 -120 -55z" />
    <glyph glyph-name="idieresis" unicode="&#xef;" horiz-adv-x="527" 
d="M237 60c0 -18 19.333 -27 58 -27c8.66699 0 13 -5.33301 13 -16c0 -12.667 -22 -19 -66 -19c-50 0 -75 24 -75 72c0 56 74.333 173 223 351l-273 -223c-161.333 -132 -278.333 -198 -351 -198c-8 -0 -12 4.33301 -12 13c0 12 6.66699 19.333 20 22
c42 8 80.333 21.667 115 41c43.333 24 135.333 91.667 276 203l306 257c13.333 4.66699 31.333 7 54 7s34 -13 34 -39c0 -28 -53.667 -103.5 -161 -226.5s-161 -195.5 -161 -217.5zM679 677c-27.333 0 -41 13.668 -41 41.001c0 23.333 10.833 47 32.5 71s44.167 36 67.5 36
c29.333 0 44 -14.333 44 -43c0 -22.667 -11.5 -45.834 -34.5 -69.501s-45.833 -35.5 -68.5 -35.5zM497 676.001c-27.333 0 -41 13.999 -41 41.999c0 24 10.833 47.833 32.5 71.5s44.167 35.5 67.5 35.5c29.333 0 44 -14.667 44 -44c0 -21.333 -11.833 -44.166 -35.5 -68.499
s-46.167 -36.5 -67.5 -36.5z" />
    <glyph glyph-name="eth" unicode="&#xf0;" horiz-adv-x="720" 
d="M208 267l-206 -156.998c-105.333 -73.333 -184 -110 -236 -110c-8 0 -12 4 -12 12c0 12 7.66699 19.667 23 23c43.333 8.66699 82.333 23.334 117 44.001c40 23.333 115.333 79.333 226 168c118.667 96 207.667 163.333 267 202c100 64.667 179.667 97 239 97
c52.667 0 79 -22.667 79 -68c0 -13.333 -3.66699 -31 -11 -53c32.667 35.333 73.667 100.333 123 195c45.333 86 78 157.333 98 214c-124.667 0 -202 1.66699 -232 5c-36 3.33301 -54 9.66602 -54 18.999c0 14.667 38.667 22 116 22l185 -3
c14.667 45.333 36.667 146.666 66 303.999c4 20.667 12 31 24 31s18 -10.333 18 -31c0 -88 -19.667 -189.333 -59 -304l88 -1c50.667 -2.66699 76 -11 76 -25c0 -12 -15 -18 -45 -18l-59 2l-74 -1c-41.333 -108 -82 -196.333 -122 -265
c-62.667 -106.667 -150.667 -222 -264 -346c-144 -158.667 -255.333 -238 -334 -238c-68 0 -102 35.667 -102 107c0 37.333 21.667 95.666 65 174.999zM245 105.002c0 -35.333 15.332 -53 45.999 -53c52 0 127.333 56.667 226 170c96.667 111.333 145 194 145 248
c0 25.333 -11 38 -33 38c-49.333 0 -125.666 -53.833 -228.999 -161.5s-155 -188.167 -155 -241.5z" />
    <glyph glyph-name="ntilde" unicode="&#xf1;" horiz-adv-x="859" 
d="M433 303c183.333 155.333 312.002 233.003 386.002 233.003c47.333 0 71 -22.333 71 -67c0 -39.333 -53.667 -110.5 -161 -213.5s-161 -165.167 -161 -186.5s12 -32.833 36 -34.5s36 -7.5 36 -17.5c0 -13.333 -24 -20 -72 -20c-55.333 0 -83 24.667 -83 74
c0 41.333 26.667 93.666 80 156.999c27.333 32.667 76.666 83 147.999 151c53.333 50.667 80 81.334 80 92.001c0 8.66699 -6 13 -18 13c-38 0 -120.667 -50.667 -248 -152c-106 -84 -184.667 -153 -236 -207c-65.333 -68.667 -105 -103 -119 -103
c-10.667 0 -20.334 5.16699 -29.001 15.5s-13 21.166 -13 32.499c0 15.333 46 77.333 138 186l165 195l-256 -208l-189 -145c-96 -65.333 -169.667 -98 -221 -98c-8.66699 0 -13 4 -13 12c0 12 9.33301 20 28 24c25.333 4.66699 55 14.667 89 30
c48.667 21.333 148 92.666 298 213.999c134.667 109.333 231.667 193 291 251c10 10 25.667 22 47 36c10.667 4 22 6 34 6c11.333 0 22.833 -3.83301 34.5 -11.5s17.5 -16.834 17.5 -27.501c0 -12 -53.333 -89 -160 -231zM658.002 737.003
c-12.667 0 -27.833 -8.66699 -45.5 -26s-29.167 -26 -34.5 -26c-11.333 0 -17 5.66699 -17 17c0 16.667 14.167 39.5 42.5 68.5s51.166 43.5 68.499 43.5c20.667 0 58.167 -11 112.5 -33s94.166 -33 119.499 -33c18 0 35.667 8.5 53 25.5s28 25.5 32 25.5c6 0 9 -4 9 -12
c0 -20 -13.5 -43 -40.5 -69s-51.167 -39 -72.5 -39c-27.333 0 -67.166 9.66699 -119.499 29s-88.166 29 -107.499 29z" />
    <glyph glyph-name="ograve" unicode="&#xf2;" horiz-adv-x="720" 
d="M208 267l-206.001 -156.999c-105.333 -73.333 -184 -110 -236 -110c-8 0 -12 4 -12 12c0 12.667 6.66699 20.334 20 23.001c40.667 7.33301 75.334 19 104.001 35c50 27.333 131.333 85.666 244 174.999l264 217c50.667 44.667 81.667 67 93 67
c16.667 0 35 -9.33301 55 -28c38.667 29.333 73 44 103 44c45.333 0 68 -24.333 68 -73c0 -72.667 -58 -171.667 -174 -297c-118 -126.667 -213.333 -190 -286 -190c-68 0 -102 35.667 -102 107c0 37.333 21.667 95.666 65 174.999zM546.999 265.001
c24.667 23.333 49.333 54.999 74 94.999c27.333 46 41 82.667 41 110c0 25.333 -11 38 -33 38c-32.667 0 -65.5 -20.5 -98.5 -61.5s-49.5 -78.167 -49.5 -111.5c0 -37.333 22 -60.666 66 -69.999zM448.998 390c-136 -118.667 -204 -215.332 -204 -289.999
c0 -32 15.333 -48 46 -48c50 0 128 60.333 234 181c-56 13.333 -84 49.333 -84 108c0 15.333 2.66699 31.666 8 48.999zM737.998 661.002c-18 0 -49.332 27.333 -93.999 82c-44 52.667 -66 87 -66 103c0 8.66699 5.66699 17.834 17 27.501s21.333 14.5 30 14.5
c13.333 0 28.666 -18.333 45.999 -55c3.33301 -8 19.333 -36.667 48 -86c26 -44.667 39 -68.334 39 -71.001c0 -10 -6.66699 -15 -20 -15z" />
    <glyph glyph-name="oacute" unicode="&#xf3;" horiz-adv-x="720" 
d="M208 267l-206.001 -156.999c-105.333 -73.333 -184 -110 -236 -110c-8 0 -12 4 -12 12c0 12.667 6.66699 20.334 20 23.001c40.667 7.33301 75.334 19 104.001 35c50 27.333 131.333 85.666 244 174.999l264 217c50.667 44.667 81.667 67 93 67
c16.667 0 35 -9.33301 55 -28c38.667 29.333 73 44 103 44c45.333 0 68 -24.333 68 -73c0 -72.667 -58 -171.667 -174 -297c-118 -126.667 -213.333 -190 -286 -190c-68 0 -102 35.667 -102 107c0 37.333 21.667 95.666 65 174.999zM546.999 265.001
c24.667 23.333 49.333 54.999 74 94.999c27.333 46 41 82.667 41 110c0 25.333 -11 38 -33 38c-32.667 0 -65.5 -20.5 -98.5 -61.5s-49.5 -78.167 -49.5 -111.5c0 -37.333 22 -60.666 66 -69.999zM448.998 390c-136 -118.667 -204 -215.332 -204 -289.999
c0 -32 15.333 -48 46 -48c50 0 128 60.333 234 181c-56 13.333 -84 49.333 -84 108c0 15.333 2.66699 31.666 8 48.999zM629.998 698.002c-14.667 0 -21.999 7.66699 -21.999 23s36 48.333 108 99c70 49.333 111.667 74 125 74c16 0 24 -10.667 24 -32
c0 -26 -15 -47.333 -45 -64l-131 -74c-30.667 -17.333 -50.334 -26 -59.001 -26z" />
    <glyph glyph-name="ocircumflex" unicode="&#xf4;" horiz-adv-x="720" 
d="M208 267l-206.001 -156.999c-105.333 -73.333 -184 -110 -236 -110c-8 0 -12 4 -12 12c0 12.667 6.66699 20.334 20 23.001c40.667 7.33301 75.334 19 104.001 35c50 27.333 131.333 85.666 244 174.999l264 217c50.667 44.667 81.667 67 93 67
c16.667 0 35 -9.33301 55 -28c38.667 29.333 73 44 103 44c45.333 0 68 -24.333 68 -73c0 -72.667 -58 -171.667 -174 -297c-118 -126.667 -213.333 -190 -286 -190c-68 0 -102 35.667 -102 107c0 37.333 21.667 95.666 65 174.999zM546.999 265.001
c24.667 23.333 49.333 54.999 74 94.999c27.333 46 41 82.667 41 110c0 25.333 -11 38 -33 38c-32.667 0 -65.5 -20.5 -98.5 -61.5s-49.5 -78.167 -49.5 -111.5c0 -37.333 22 -60.666 66 -69.999zM448.998 390c-136 -118.667 -204 -215.332 -204 -289.999
c0 -32 15.333 -48 46 -48c50 0 128 60.333 234 181c-56 13.333 -84 49.333 -84 108c0 15.333 2.66699 31.666 8 48.999zM462.998 634.002c-13.333 0 -19.999 5.33203 -19.999 15.999c0 19.333 92.333 84 277 194c16.667 10 28.334 15 35.001 15c19.333 0 39.333 -31 60 -93
c18 -53.333 27 -93 27 -119c0 -10.667 -7 -16 -21 -16c-22.667 0 -42.334 18.333 -59.001 55c-21.333 48 -34.333 74.333 -39 79c-12.667 -5.33301 -59.334 -30.666 -140.001 -75.999c-66 -36.667 -106 -55 -120 -55z" />
    <glyph glyph-name="otilde" unicode="&#xf5;" horiz-adv-x="720" 
d="M208 267l-206.001 -156.999c-105.333 -73.333 -184 -110 -236 -110c-8 0 -12 4 -12 12c0 12.667 6.66699 20.334 20 23.001c40.667 7.33301 75.334 19 104.001 35c50 27.333 131.333 85.666 244 174.999l264 217c50.667 44.667 81.667 67 93 67
c16.667 0 35 -9.33301 55 -28c38.667 29.333 73 44 103 44c45.333 0 68 -24.333 68 -73c0 -72.667 -58 -171.667 -174 -297c-118 -126.667 -213.333 -190 -286 -190c-68 0 -102 35.667 -102 107c0 37.333 21.667 95.666 65 174.999zM546.999 265.001
c24.667 23.333 49.333 54.999 74 94.999c27.333 46 41 82.667 41 110c0 25.333 -11 38 -33 38c-32.667 0 -65.5 -20.5 -98.5 -61.5s-49.5 -78.167 -49.5 -111.5c0 -37.333 22 -60.666 66 -69.999zM448.998 390c-136 -118.667 -204 -215.332 -204 -289.999
c0 -32 15.333 -48 46 -48c50 0 128 60.333 234 181c-56 13.333 -84 49.333 -84 108c0 15.333 2.66699 31.666 8 48.999zM587.998 737.002c-12.667 0 -27.833 -8.66699 -45.5 -26s-29.167 -26 -34.5 -26c-11.333 0 -17 5.66699 -17 17c0 16.667 14.167 39.5 42.5 68.5
s51.166 43.5 68.499 43.5c20.667 0 58.167 -11 112.5 -33s94.166 -33 119.499 -33c18 0 35.667 8.5 53 25.5s28 25.5 32 25.5c6 0 9 -4 9 -12c0 -20 -13.5 -43 -40.5 -69s-51.167 -39 -72.5 -39c-27.333 0 -67.166 9.66699 -119.499 29s-88.166 29 -107.499 29z" />
    <glyph glyph-name="odieresis" unicode="&#xf6;" horiz-adv-x="720" 
d="M208 267l-206.001 -156.999c-105.333 -73.333 -184 -110 -236 -110c-8 0 -12 4 -12 12c0 12.667 6.66699 20.334 20 23.001c40.667 7.33301 75.334 19 104.001 35c50 27.333 131.333 85.666 244 174.999l264 217c50.667 44.667 81.667 67 93 67
c16.667 0 35 -9.33301 55 -28c38.667 29.333 73 44 103 44c45.333 0 68 -24.333 68 -73c0 -72.667 -58 -171.667 -174 -297c-118 -126.667 -213.333 -190 -286 -190c-68 0 -102 35.667 -102 107c0 37.333 21.667 95.666 65 174.999zM546.999 265.001
c24.667 23.333 49.333 54.999 74 94.999c27.333 46 41 82.667 41 110c0 25.333 -11 38 -33 38c-32.667 0 -65.5 -20.5 -98.5 -61.5s-49.5 -78.167 -49.5 -111.5c0 -37.333 22 -60.666 66 -69.999zM448.998 390c-136 -118.667 -204 -215.332 -204 -289.999
c0 -32 15.333 -48 46 -48c50 0 128 60.333 234 181c-56 13.333 -84 49.333 -84 108c0 15.333 2.66699 31.666 8 48.999zM774.998 677.002c-27.333 0 -41 13.668 -41 41.001c0 23.333 10.833 47 32.5 71s44.167 36 67.5 36c29.333 0 44 -14.333 44 -43
c0 -22.667 -11.5 -45.834 -34.5 -69.501s-45.833 -35.5 -68.5 -35.5zM592.998 676.003c-27.333 0 -41 13.999 -41 41.999c0 24 10.833 47.833 32.5 71.5s44.167 35.5 67.5 35.5c29.333 0 44 -14.667 44 -44c0 -21.333 -11.833 -44.166 -35.5 -68.499
s-46.167 -36.5 -67.5 -36.5z" />
    <glyph glyph-name="divide" unicode="&#xf7;" horiz-adv-x="949" 
d="M830 728c-31.333 0 -47.001 16 -47.001 48c0 27.333 12.833 55 38.5 83s51.834 42 78.501 42c34 0 51 -16.667 51 -50c0 -26 -13.667 -53 -41 -81s-54 -42 -80 -42zM1096 615l-50 -56h-684l50 56h684zM556.999 263c-31.333 0 -47.001 16.333 -47.001 49
c0 27.333 12.833 55 38.5 83s51.834 42 78.501 42c34 0 51 -16.667 51 -50c0 -25.333 -13.833 -52.333 -41.5 -81s-54.167 -43 -79.5 -43z" />
    <glyph glyph-name="oslash" unicode="&#xf8;" horiz-adv-x="720" 
d="M208 267l-203.999 -156.998c-105.333 -73.333 -184.333 -110 -237 -110c-8.66699 0 -13 4 -13 12c0 12.667 6.66699 20.334 20 23.001c42.667 8 78.667 20.667 108 38c39.333 21.333 120 79.666 242 174.999c110 86 195.667 156 257 210c54 47.333 86.667 71 98 71
c16.667 0 35 -9.33301 55 -28c38.667 29.333 73 44 103 44c28.667 0 49.334 -13 62.001 -39c61.333 52 96.666 78 105.999 78c10.667 0 15.667 -5 15 -15c-4 -6.66699 -42.333 -40.667 -115 -102c-2.66699 -73.333 -61.334 -171.333 -176.001 -294
c-116.667 -125.333 -211 -188 -283 -188c-30 0 -54.333 9.33301 -73 28c-25.333 -25.333 -63.333 -58.666 -114 -99.999c-5.33301 1.33301 -10.666 5.66602 -15.999 12.999c15.333 21.333 52.666 58.666 111.999 111.999c-8 16.667 -12 34.667 -12 54
c0 37.333 21.667 95.666 65 174.999zM663.001 476.002c-1.33301 21.333 -12.667 32 -34 32c-24.667 0 -53.5 -17.5 -86.5 -52.5s-50.167 -52.5 -51.5 -52.5c-8 0 -12 3.33301 -12 10c0 4.66699 4.66699 13.667 14 27c-74 -72 -122 -120.333 -144 -145
c-59.333 -68.667 -93 -126.667 -101 -174zM250 81.002c7.33301 -19.333 21.332 -29 41.999 -29c44 0 106.333 42.667 187 128c66.667 70 116.334 133.333 149.001 190c18.667 32.667 28 51 28 55v1l-2 -1z" />
    <glyph glyph-name="ugrave" unicode="&#xf9;" horiz-adv-x="820" 
d="M509 188c-116 -113.333 -201.334 -169.998 -256.001 -169.998c-41.333 0 -62 23 -62 69c0 54 24 114.667 72 182l129 152l-286 -237c-161.333 -122.667 -274.666 -184 -339.999 -184c-8 0 -12 4.33301 -12 13c0 11.333 9.66699 19 29 23
c24.667 4.66699 53.667 14.667 87 30c38.667 18 120.334 76 245.001 174c57.333 44.667 141.666 114.667 252.999 210c18.667 19.333 48.667 45.666 90 78.999c16.667 10.667 32 16 46 16c38.667 0 58 -12.667 58 -38c0 -26 -46.667 -90.667 -140 -194s-140 -177 -140 -221
c0 -11.333 6 -17 18 -17c40 0 129 76.333 267 229s216.333 229 235 229c9.33301 0 18.5 -4.83301 27.5 -14.5s13.5 -19.5 13.5 -29.5c0 -16 -51.667 -83.5 -155 -202.5s-155 -195.167 -155 -228.5c0 -15.333 11.333 -23.333 34 -24s34 -6.33398 34 -17.001
c0 -12.667 -16.667 -19 -50 -19c-56 0 -84 21.333 -84 64c0 30.667 14 72.667 42 126zM842.999 661.002c-18 0 -49.332 27.333 -93.999 82c-44 52.667 -66 87 -66 103c0 8.66699 5.66699 17.834 17 27.501s21.333 14.5 30 14.5c13.333 0 28.666 -18.333 45.999 -55
c3.33301 -8 19.333 -36.667 48 -86c26 -44.667 39 -68.334 39 -71.001c0 -10 -6.66699 -15 -20 -15z" />
    <glyph glyph-name="uacute" unicode="&#xfa;" horiz-adv-x="820" 
d="M509 188c-116 -113.333 -201.334 -169.998 -256.001 -169.998c-41.333 0 -62 23 -62 69c0 54 24 114.667 72 182l129 152l-286 -237c-161.333 -122.667 -274.666 -184 -339.999 -184c-8 0 -12 4.33301 -12 13c0 11.333 9.66699 19 29 23
c24.667 4.66699 53.667 14.667 87 30c38.667 18 120.334 76 245.001 174c57.333 44.667 141.666 114.667 252.999 210c18.667 19.333 48.667 45.666 90 78.999c16.667 10.667 32 16 46 16c38.667 0 58 -12.667 58 -38c0 -26 -46.667 -90.667 -140 -194s-140 -177 -140 -221
c0 -11.333 6 -17 18 -17c40 0 129 76.333 267 229s216.333 229 235 229c9.33301 0 18.5 -4.83301 27.5 -14.5s13.5 -19.5 13.5 -29.5c0 -16 -51.667 -83.5 -155 -202.5s-155 -195.167 -155 -228.5c0 -15.333 11.333 -23.333 34 -24s34 -6.33398 34 -17.001
c0 -12.667 -16.667 -19 -50 -19c-56 0 -84 21.333 -84 64c0 30.667 14 72.667 42 126zM748.999 698.002c-14.667 0 -21.999 7.66699 -21.999 23s36 48.333 108 99c70 49.333 111.667 74 125 74c16 0 24 -10.667 24 -32c0 -26 -15 -47.333 -45 -64l-131 -74
c-30.667 -17.333 -50.334 -26 -59.001 -26z" />
    <glyph glyph-name="ucircumflex" unicode="&#xfb;" horiz-adv-x="820" 
d="M509 188c-116 -113.333 -201.334 -169.998 -256.001 -169.998c-41.333 0 -62 23 -62 69c0 54 24 114.667 72 182l129 152l-286 -237c-161.333 -122.667 -274.666 -184 -339.999 -184c-8 0 -12 4.33301 -12 13c0 11.333 9.66699 19 29 23
c24.667 4.66699 53.667 14.667 87 30c38.667 18 120.334 76 245.001 174c57.333 44.667 141.666 114.667 252.999 210c18.667 19.333 48.667 45.666 90 78.999c16.667 10.667 32 16 46 16c38.667 0 58 -12.667 58 -38c0 -26 -46.667 -90.667 -140 -194s-140 -177 -140 -221
c0 -11.333 6 -17 18 -17c40 0 129 76.333 267 229s216.333 229 235 229c9.33301 0 18.5 -4.83301 27.5 -14.5s13.5 -19.5 13.5 -29.5c0 -16 -51.667 -83.5 -155 -202.5s-155 -195.167 -155 -228.5c0 -15.333 11.333 -23.333 34 -24s34 -6.33398 34 -17.001
c0 -12.667 -16.667 -19 -50 -19c-56 0 -84 21.333 -84 64c0 30.667 14 72.667 42 126zM513.999 634.002c-13.333 0 -19.999 5.33203 -19.999 15.999c0 19.333 92.333 84 277 194c16.667 10 28.334 15 35.001 15c19.333 0 39.333 -31 60 -93c18 -53.333 27 -93 27 -119
c0 -10.667 -7 -16 -21 -16c-22.667 0 -42.334 18.333 -59.001 55c-21.333 48 -34.333 74.333 -39 79c-12.667 -5.33301 -59.334 -30.666 -140.001 -75.999c-66 -36.667 -106 -55 -120 -55z" />
    <glyph glyph-name="udieresis" unicode="&#xfc;" horiz-adv-x="820" 
d="M509 188c-116 -113.333 -201.334 -169.998 -256.001 -169.998c-41.333 0 -62 23 -62 69c0 54 24 114.667 72 182l129 152l-286 -237c-161.333 -122.667 -274.666 -184 -339.999 -184c-8 0 -12 4.33301 -12 13c0 11.333 9.66699 19 29 23
c24.667 4.66699 53.667 14.667 87 30c38.667 18 120.334 76 245.001 174c57.333 44.667 141.666 114.667 252.999 210c18.667 19.333 48.667 45.666 90 78.999c16.667 10.667 32 16 46 16c38.667 0 58 -12.667 58 -38c0 -26 -46.667 -90.667 -140 -194s-140 -177 -140 -221
c0 -11.333 6 -17 18 -17c40 0 129 76.333 267 229s216.333 229 235 229c9.33301 0 18.5 -4.83301 27.5 -14.5s13.5 -19.5 13.5 -29.5c0 -16 -51.667 -83.5 -155 -202.5s-155 -195.167 -155 -228.5c0 -15.333 11.333 -23.333 34 -24s34 -6.33398 34 -17.001
c0 -12.667 -16.667 -19 -50 -19c-56 0 -84 21.333 -84 64c0 30.667 14 72.667 42 126zM825.999 677.002c-27.333 0 -41 13.668 -41 41.001c0 23.333 10.833 47 32.5 71s44.167 36 67.5 36c29.333 0 44 -14.333 44 -43c0 -22.667 -11.5 -45.834 -34.5 -69.501
s-45.833 -35.5 -68.5 -35.5zM643.999 676.003c-27.333 0 -41 13.999 -41 41.999c0 24 10.833 47.833 32.5 71.5s44.167 35.5 67.5 35.5c29.333 0 44 -14.667 44 -44c0 -21.333 -11.833 -44.166 -35.5 -68.499s-46.167 -36.5 -67.5 -36.5z" />
    <glyph glyph-name="yacute" unicode="&#xfd;" horiz-adv-x="842" 
d="M548 31l61.998 2.00488c8.66699 0 13 -5.33301 13 -16c0 -12 -15.333 -19.333 -46 -22l-62 -3l-279 -345c-167.333 -190.667 -286 -286 -356 -286c-33.333 0 -50 22.333 -50 67c0 99.333 65.5 214.166 196.5 344.499s265.833 211.166 404.5 242.499l207 267l-164 -146
c-100 -82.667 -168 -124 -204 -124c-42 0 -63 29.667 -63 89c0 51.333 24.333 111.666 73 180.999l122 154c-78.667 -70 -169 -145.667 -271 -227c-83.333 -66 -139.666 -108.667 -168.999 -128c-80.667 -54 -146 -81 -196 -81c-8 0 -12 4.33301 -12 13
c0 11.333 6.66699 18.666 20 21.999c84 20.667 200 91.667 348 213l175 144l113 100c63.333 54.667 99 82 107 82c17.333 0 33.833 -5.83301 49.5 -17.5s23.5 -25.834 23.5 -42.501l-158 -183c-105.333 -124.667 -158 -207.667 -158 -249c0 -12 6.66699 -18 20 -18
c40 0 137.667 74 293 222c114 108.667 208.667 205.667 284 291c15.333 17.333 26.333 26 33 26c12.667 0 25.834 -4.5 39.501 -13.5s20.5 -19.5 20.5 -31.5c0 -6.66699 -4.33301 -14.667 -13 -24c-122.667 -133.333 -257 -301 -403 -503zM395.998 -27.9951
c-134 -43.333 -255.5 -122.5 -364.5 -237.5s-163.5 -209.5 -163.5 -283.5c0 -22.667 8 -34 24 -34c64 0 232 185 504 555zM745.998 698.005c-14.667 0 -21.999 7.66699 -21.999 23s36 48.333 108 99c70 49.333 111.667 74 125 74c16 0 24 -10.667 24 -32
c0 -26 -15 -47.333 -45 -64l-131 -74c-30.667 -17.333 -50.334 -26 -59.001 -26z" />
    <glyph glyph-name="thorn" unicode="&#xfe;" horiz-adv-x="825" 
d="M448 469c-88 -78 -185.666 -159 -292.999 -243l-179 -137c-87.333 -59.333 -157.333 -89 -210 -89c-8 -0 -12 4.33301 -12 13c0 11.333 8.33301 18.666 25 21.999c21.333 3.33301 49 12.333 83 27c86 36 281 186.667 585 452l94 82c11.333 6.66699 26 17 44 31l420 506
c46 55.333 82.333 83 109 83c24.667 0 37 -13.667 37 -41c0 -24.667 -99.333 -152 -298 -382l-306 -347l-1 -1c78.667 66 142.667 99 192 99c52 0 78 -28 78 -84c0 -72.667 -40.667 -154.667 -122 -246c-70 -79.333 -143 -138.666 -219 -177.999c8 -2 47.333 -3 118 -3
c8.66699 0 13 -5.33301 13 -16c0 -14 -26 -21 -78 -21c-42.667 0 -78.667 6.33301 -108 19c-16 -6 -32.333 -9 -49 -9c-66.667 0 -97.667 46.667 -93 140l-535 -602c-12.667 -14.667 -24.334 -22 -35.001 -22c-20 0 -30 16.333 -30 49c0 32 68.333 125.667 205 281l208 227z
M411.001 87c77.333 44 149.165 110 215.498 198s99.5 146.333 99.5 175c0 18.667 -10.333 28 -31 28c-39.333 0 -101.666 -37.333 -186.999 -112c-61.333 -53.333 -116.666 -108 -165.999 -164c19.333 0 33.666 -17 42.999 -51c12.667 -43.333 21.334 -68 26.001 -74z
M371 73l-18 66c-10 35.333 -17.333 53 -22 53c-13.333 0 -20 -22.667 -20 -68c0 -37.333 13.333 -56 40 -56c7.33301 0 14 1.66699 20 5z" />
    <glyph glyph-name="ydieresis" unicode="&#xff;" horiz-adv-x="842" 
d="M548 31l61.998 2.00488c8.66699 0 13 -5.33301 13 -16c0 -12 -15.333 -19.333 -46 -22l-62 -3l-279 -345c-167.333 -190.667 -286 -286 -356 -286c-33.333 0 -50 22.333 -50 67c0 99.333 65.5 214.166 196.5 344.499s265.833 211.166 404.5 242.499l207 267l-164 -146
c-100 -82.667 -168 -124 -204 -124c-42 0 -63 29.667 -63 89c0 51.333 24.333 111.666 73 180.999l122 154c-78.667 -70 -169 -145.667 -271 -227c-83.333 -66 -139.666 -108.667 -168.999 -128c-80.667 -54 -146 -81 -196 -81c-8 0 -12 4.33301 -12 13
c0 11.333 6.66699 18.666 20 21.999c84 20.667 200 91.667 348 213l175 144l113 100c63.333 54.667 99 82 107 82c17.333 0 33.833 -5.83301 49.5 -17.5s23.5 -25.834 23.5 -42.501l-158 -183c-105.333 -124.667 -158 -207.667 -158 -249c0 -12 6.66699 -18 20 -18
c40 0 137.667 74 293 222c114 108.667 208.667 205.667 284 291c15.333 17.333 26.333 26 33 26c12.667 0 25.834 -4.5 39.501 -13.5s20.5 -19.5 20.5 -31.5c0 -6.66699 -4.33301 -14.667 -13 -24c-122.667 -133.333 -257 -301 -403 -503zM395.998 -27.9951
c-134 -43.333 -255.5 -122.5 -364.5 -237.5s-163.5 -209.5 -163.5 -283.5c0 -22.667 8 -34 24 -34c64 0 232 185 504 555zM918.998 677.005c-27.333 0 -41 13.668 -41 41.001c0 23.333 10.833 47 32.5 71s44.167 36 67.5 36c29.333 0 44 -14.333 44 -43
c0 -22.667 -11.5 -45.834 -34.5 -69.501s-45.833 -35.5 -68.5 -35.5zM736.998 676.006c-27.333 0 -41 13.999 -41 41.999c0 24 10.833 47.833 32.5 71.5s44.167 35.5 67.5 35.5c29.333 0 44 -14.667 44 -44c0 -21.333 -11.833 -44.166 -35.5 -68.499
s-46.167 -36.5 -67.5 -36.5z" />
    <glyph glyph-name="dotlessi" unicode="&#x131;" horiz-adv-x="527" 
d="M237 60c0 -18 19.333 -27 58 -27c8.66699 0 13 -5.33301 13 -16c0 -12.667 -22 -19 -66 -19c-50 0 -75 24 -75 72c0 56 74.333 173 223 351l-273 -223c-161.333 -132 -278.333 -198 -351 -198c-8 -0 -12 4.33301 -12 13c0 12 6.66699 19.333 20 22
c42 8 80.333 21.667 115 41c43.333 24 135.333 91.667 276 203l306 257c13.333 4.66699 31.333 7 54 7s34 -13 34 -39c0 -28 -53.667 -103.5 -161 -226.5s-161 -195.5 -161 -217.5z" />
    <glyph glyph-name="Lslash" unicode="&#x141;" horiz-adv-x="1291" 
d="M945 689c150 34.667 235.002 51.999 255.002 51.999c23.333 0 35 -9.66699 35 -29c0 -22 -24.333 -37.333 -73 -46c-59.333 -11.333 -160.666 -35.666 -303.999 -72.999l-370 -396c221.333 -90 379 -135 473 -135c9.33301 0 22.5 2 39.5 6s29.5 6 37.5 6c6 0 9 -3 9 -9
c0 -22 -20.333 -41.333 -61 -58c-34 -13.333 -64 -20 -90 -20c-88 0 -248.667 45.667 -482 137c-140 -129.333 -284 -194 -432 -194c-58.667 0 -108.334 10.667 -149.001 32c-52 27.333 -78 68 -78 122c0 67.333 40.333 122.666 121 165.999c68 36 138.667 54 212 54
c91.333 0 188.333 -21.667 291 -65l294 312l-148 -36c-70 -16.667 -118 -25 -144 -25c-16.667 0 -25 7.66699 -25 23c0 22 39 42.667 117 62l287 70l221 242c117.333 124 220.666 220.333 309.999 289c122 93.333 222.333 140 301 140c34 0 64 -8.66699 90 -26
c27.333 -19.333 43.333 -45.333 48 -78c14 2 26.333 3 37 3c21.333 0 32 -7 32 -21c0 -8.66699 -8.66699 -14.667 -26 -18l-39 -4c-6.66699 -55.333 -30.334 -111.666 -71.001 -168.999c-45.333 -65.333 -93 -98 -143 -98c-42 0 -63 25 -63 75c0 48 23.333 94.333 70 139
c42 40.667 88.333 67 139 79v18c0 35.333 -17.667 53 -53 53c-68.667 0 -187.667 -82.667 -357 -248zM1654 1152c-39.333 -14 -75.666 -37.001 -108.999 -69.001c-38.667 -37.333 -58 -74 -58 -110c0 -15.333 6.33301 -23 19 -23c28 0 59 26.667 93 80
c29.333 46.667 47.666 87.334 54.999 122.001zM299.002 161.998c-96.667 36 -193 54 -289 54c-143.333 0 -215 -42.333 -215 -127c0 -71.333 52.667 -107 158 -107c108 0 223.333 60 346 180z" />
    <glyph glyph-name="lslash" unicode="&#x142;" horiz-adv-x="581" 
d="M306 323l-247.001 -186.002c-133.333 -91.333 -231 -137 -293 -137c-8 0 -12 4 -12 12c0 12.667 7 20.334 21 23.001c70.667 14 160 60.667 268 140l310 229l22 35l-118 -26c-50 -10.667 -90.333 -16 -121 -16c-14 0 -21 4.33301 -21 13c0 14 52 31.333 156 52l139 28
c76.667 106.667 194 240.334 352 401.001c194.667 196.667 326.334 295 395.001 295c30.667 0 46 -16.333 46 -49c0 -63.333 -70.667 -169.333 -212 -318c-108.667 -114 -209.334 -207 -302.001 -279c93.333 16 148 24 164 24c15.333 0 23 -5 23 -15c0 -12 -39 -24 -117 -36
c-87.333 -13.333 -137.666 -25 -150.999 -35c-84 -62 -133.333 -100.667 -148 -116c-28.667 -28.667 -63 -80.334 -103 -155.001c-42 -78 -63 -127.667 -63 -149c0 -16.667 18.333 -25 55 -25c8.66699 0 13 -5.33301 13 -16c0 -13.333 -17 -20 -51 -20
c-55.333 0 -83 28 -83 84c0 54.667 26 135.334 78 242.001zM614.999 528.998c368.667 304.667 553 508 553 610c0 10.667 -4.66699 16 -14 16c-26.667 0 -125.667 -96.333 -297 -289c-141.333 -158.667 -239.333 -274 -294 -346zM513.999 448.998l36 28l-21 -6z" />
    <glyph glyph-name="OE" unicode="&#x152;" horiz-adv-x="1990" 
d="M935 164c-54.667 -52 -117.999 -95.333 -189.999 -130c-78.667 -38 -152.334 -57 -221.001 -57c-81.333 0 -145.5 23 -192.5 69s-70.5 109.333 -70.5 190c0 165.333 60.667 340.666 182 525.999c116 176.667 261 324 435 442c182.667 124 357 186 523 186
c128.667 0 193 -56 193 -168c0 -20.667 -3 -44.334 -9 -71.001c92 68.667 218.333 126.334 379 173.001c151.333 44 289 66 413 66c152 0 228 -50 228 -150c0 -56 -55 -110 -165 -162c-96.667 -46.667 -178.334 -70 -245 -70c-40.667 0 -61 17 -61 51
c0 20.667 17.333 42.667 52 66c32 21.333 58.667 32 80 32c13.333 0 20 -4.33301 20 -13c0 -6 -10.333 -13.333 -31 -22s-31.667 -16 -33 -22c5.33301 -5.33301 13.666 -8 24.999 -8c32.667 0 90 19.333 172 58c89.333 42.667 134 78.667 134 108
c0 26.667 -48.667 40 -146 40c-103.333 0 -227 -17.667 -371 -53s-261.333 -77.166 -352 -125.499s-136 -90.166 -136 -125.499c0 -58.667 94 -100 282 -124c106.667 -14 224.334 -21 353.001 -21c26.667 0 40 -10 40 -30c0 -36.667 -43 -57 -129 -61
c-260.667 -12 -509.667 -73 -747 -183c-244.667 -112.667 -367 -225 -367 -337c0 -110.667 94 -166 282 -166c216 0 417 91.333 603 274c12 12 22 18 30 18c15.333 0 23 -18.667 23 -56c0 -60.667 -68.333 -131.334 -205 -212.001s-275.667 -121 -417 -121
c-194.667 0 -315 63 -361 189zM1861 816c-82 0 -159.334 14 -232.001 42c-96.667 37.333 -145 90 -145 158c0 25.333 7.5 63.166 22.5 113.499s22.5 88.5 22.5 114.5c0 66 -41 99 -123 99c-147.333 0 -306.666 -68 -477.999 -204c-158 -126 -292.333 -280.333 -403 -463
c-113.333 -186 -170 -350.333 -170 -493c0 -105.333 43.667 -158 131 -158c128 0 270.333 89 427 267c6.66699 129.333 100 241 280 335c122 64.667 270.667 115.334 446 152.001c116 24.667 190 37 222 37z" />
    <glyph glyph-name="oe" unicode="&#x153;" horiz-adv-x="977" 
d="M208 267l-206 -157c-105.333 -73.333 -184 -110 -236 -110c-8 0 -12 4 -12 12c0 12.667 7.33301 20.334 22 23.001c22.667 4.66699 49.667 13 81 25c48.667 19.333 139.334 81.333 272.001 186c107.333 84.667 194 157.334 260 218.001c45.333 42 75.666 63 90.999 63
c22 0 37.333 -12.667 46 -38c42.667 37.333 79.667 56 111 56c45.333 0 68 -23.667 68 -71c0 -22.667 -4.33301 -44.334 -13 -65.001c120 102 215 153 285 153c52 0 78 -22.667 78 -68c0 -59.333 -56.333 -125 -169 -197c-85.333 -54.667 -170 -96 -254 -124
c-9.33301 -20 -14 -40.667 -14 -62c0 -34.667 13.333 -57.334 40 -68.001c15.333 -6 43.333 -9 84 -9c10.667 0 16 -5.66699 16 -17c0 -18 -42.667 -27 -128 -27c-83.333 0 -125 38.333 -125 115c0 16.667 2 33.334 6 50.001c-108 -113.333 -196.333 -170 -265 -170
s-103 35.667 -103 107c0 37.333 21.667 95.666 65 174.999zM644 212c59.333 29.333 124.333 71.001 195 125.001c90 69.333 135 123.666 135 162.999c0 16 -7.33301 24 -22 24c-43.333 0 -102 -41 -176 -123c-65.333 -73.333 -109.333 -136.333 -132 -189zM245 103.001
c0 -34 15.333 -51 46 -51c52.667 0 127.667 56.333 225 169s146 196.334 146 251.001c0 24 -11.667 36 -35 36c-28 0 -57.333 -19.333 -88 -58c-40.667 -50.667 -64.667 -78.334 -72 -83.001c-4.66699 2.66699 -7 7 -7 13c0 8.66699 10.667 28.667 32 60
c-164.667 -158 -247 -270.333 -247 -337z" />
    <glyph glyph-name="Scaron" unicode="&#x160;" horiz-adv-x="1281" 
d="M1340 528c0 -71.333 -52.665 -155.002 -157.998 -251.002c-110 -100.667 -243.333 -179 -400 -235c-148.667 -52.667 -301 -79 -457 -79c-212 0 -318 63.667 -318 191c0 76 59.667 145.333 179 208c104 55.333 198.667 83 284 83c27.333 0 41 -8.33301 41 -25
c0 -11.333 -14 -19 -42 -23c-81.333 -12.667 -160 -36 -236 -70c-106.667 -46.667 -160 -99 -160 -157c0 -70.667 82.333 -106 247 -106c134 0 277.667 26.667 431 80c156.667 54.667 285 124.334 385 209.001c97.333 82.667 146 144.667 146 186
c0 40.667 -65.667 68.667 -197 84c-217.333 25.333 -339 41 -365 47c-131.333 32 -197 88.667 -197 170c0 103.333 77 201.666 231 294.999c126 76.667 286.333 141.334 481 194.001c170.667 46 307.334 69 410.001 69c131.333 0 197 -40.667 197 -122
c0 -70 -61 -152.333 -183 -247c-118 -91.333 -214.333 -137 -289 -137c-60 0 -90 20.667 -90 62c0 34.667 34.333 75.334 103 122.001c65.333 44 116.333 66 153 66c12.667 0 19 -4 19 -12l-103 -56c-68.667 -37.333 -104.334 -64.666 -107.001 -81.999
c3.33301 -4.66699 9 -7 17 -7c48 0 127 32 237 96c116.667 68 175 124 175 168c0 38.667 -46.667 58 -140 58c-106.667 0 -257 -30.667 -451 -92c-130.667 -41.333 -245.334 -85.333 -344.001 -132c-170.667 -80 -256 -152.333 -256 -217c0 -41.333 54 -72 162 -92l321 -42
c125.333 -18.667 201.666 -46 228.999 -82c30 -40.667 45 -81.334 45 -122.001zM1611 1547c-20 0 -40.334 31 -61.001 93c-17.333 53.333 -26 93.333 -26 120c0 10 7 15 21 15c23.333 0 43 -18 59 -54c22 -48.667 34.667 -75 38 -79l138 72c72.667 38.667 113.667 58 123 58
c13.333 0 20 -5.33301 20 -16c0 -18 -92.667 -83 -278 -195c-15.333 -9.33301 -26.666 -14 -33.999 -14z" />
    <glyph glyph-name="scaron" unicode="&#x161;" horiz-adv-x="583" 
d="M82 171c-138.667 -114 -244.002 -171 -316.002 -171c-8 0 -12 4 -12 12c0 12 6.66699 19.667 20 23c24.667 6 62.667 19.333 114 40c48 26 170 120.667 366 284c186 154.667 281.333 232 286 232c15.333 0 30.5 -6.66699 45.5 -20s22.5 -27.666 22.5 -42.999
c0 -48.667 -38 -134.334 -114 -257.001c-66 -106 -123.667 -185.333 -173 -238c28.667 0 43 -5.33301 43 -16c0 -13.333 -14 -20 -42 -20c-7.33301 0 -18.166 1.33301 -32.499 4s-25.166 4 -32.499 4c-5.33301 0 -13.333 -1 -24 -3s-18.667 -3 -24 -3
c-84.667 0 -127 57.333 -127 172zM240.998 84c46.667 38.667 97.999 105.333 153.999 200c52 88 88.333 165.667 109 233l-358 -291c24.667 -4 45.334 -23.333 62.001 -58zM211.997 52.999l-28 79c-14.667 38.667 -29 58 -43 58c-14.667 0 -22 -11.333 -22 -34
s6.66699 -46 20 -70c15.333 -27.333 33.333 -41 54 -41c8 0 14.333 2.66699 19 8zM602.997 638.999c-20 0 -40.334 31 -61.001 93c-17.333 53.333 -26 93.333 -26 120c0 10 7 15 21 15c23.333 0 43 -18 59 -54c22 -48.667 34.667 -75 38 -79l138 72
c72.667 38.667 113.667 58 123 58c13.333 0 20 -5.33301 20 -16c0 -18 -92.667 -83 -278 -195c-15.333 -9.33301 -26.666 -14 -33.999 -14z" />
    <glyph glyph-name="Ydieresis" unicode="&#x178;" horiz-adv-x="1484" 
d="M1426 618c-221.333 -190.667 -365.998 -312.004 -433.998 -364.004c-224 -172 -383 -258 -477 -258c-98.667 0 -148 56.667 -148 170c0 114.667 68.333 248.667 205 402c60 67.333 173 174.333 339 321c126 111.333 222.667 200 290 266c80.667 78.667 121 126 121 142
c0 7.33301 -4.66699 11 -14 11c-41.333 0 -133.333 -32.667 -276 -98s-288.667 -160.666 -438 -285.999s-224 -205.666 -224 -240.999c0 -13.333 8.66699 -20 26 -20c41.333 0 97.666 17 168.999 51l102 51c5.33301 -2 8 -5 8 -9c0 -24 -41.667 -55.667 -125 -95
c-78.667 -37.333 -134.667 -56 -168 -56c-54 0 -81 24 -81 72c0 68 74.333 165 223 291c106 90 230 173.333 372 250c172.667 94 311.334 141 416.001 141c57.333 0 86 -25.333 86 -76c0 -62.667 -83.333 -174 -250 -334l-466 -437
c-166.667 -170.667 -250 -299.667 -250 -387c0 -46 22.667 -69 68 -69c92 0 263.333 97 514 291c150 116 309.667 251.333 479 406c70.667 64.667 214 208 430 430c64 66 103 99 117 99c13.333 0 27.166 -4.33301 41.499 -13s21.5 -19 21.5 -31
c0 -13.333 -7 -27.666 -21 -42.999l-1183 -1337l-130 -130c-62.667 -62 -97.334 -104.333 -104.001 -127c8 2 21 10.333 39 25c16 14 27.333 21 34 21c6 0 10.333 -2.66699 13 -8c-0.666992 -10 -31 -41.667 -91 -95c-57.333 -51.333 -99.333 -93.666 -126 -126.999
c-24.667 -30.667 -45 -46 -61 -46c-14 0 -27.333 6.66699 -40 20s-19 27.333 -19 42c0 22.667 20 56.667 60 102l699 792zM2086 1579c-27.333 0 -41 13.668 -41 41.001c0 23.333 10.833 47 32.5 71s44.167 36 67.5 36c29.333 0 44 -14.333 44 -43
c0 -22.667 -11.5 -45.834 -34.5 -69.501s-45.833 -35.5 -68.5 -35.5zM1904 1578c-27.333 0 -41 13.999 -41 41.999c0 24 10.833 47.833 32.5 71.5s44.167 35.5 67.5 35.5c29.333 0 44 -14.667 44 -44c0 -21.333 -11.833 -44.166 -35.5 -68.499s-46.167 -36.5 -67.5 -36.5z
" />
    <glyph glyph-name="Zcaron" unicode="&#x17d;" horiz-adv-x="1227" 
d="M689 212c24 -26.667 36.002 -58.6689 36.002 -96.002c0 -14.667 -2.33301 -33.667 -7 -57c8.66699 1.33301 16.834 -1.66699 24.501 -9s11.5 -15.333 11.5 -24c0 -21.333 -10 -32 -30 -32c-5.33301 6 -14 14 -26 24c-49.333 -138 -179.833 -279.5 -391.5 -424.5
s-391.834 -217.5 -540.501 -217.5c-78 0 -117 24.333 -117 73c0 60.667 52.333 142.334 157 245.001c91.333 88.667 211 172.334 359 251.001c169.333 90 311.333 135 426 135c19.333 0 37.666 -1.33301 54.999 -4c6.66699 16.667 10 32.334 10 47.001
c0 28 -11.333 48 -34 60c-124 -50 -220.333 -75 -289 -75c-33.333 0 -50 12.333 -50 37c0 29.333 32.667 55.333 98 78c54 18.667 100.333 28 139 28c11.333 0 28.166 -1.16699 50.499 -3.5s39.166 -3.5 50.499 -3.5c30 0 132.333 56 307 168
c138.667 88.667 267 189.334 385 302.001c165.333 157.333 248 287.666 248 390.999c0 66 -48 99 -144 99c-108 0 -234.667 -22.333 -380 -67c-135.333 -42 -254.666 -92.333 -357.999 -151c-106.667 -61.333 -160 -102.333 -160 -123c0 -8.66699 6.33301 -13 19 -13
c48.667 0 118 18.667 208 56c108.667 45.333 176.667 71 204 77l8 -8c-0.666992 -22.667 -68.334 -59.334 -203.001 -110.001c-131.333 -49.333 -217.666 -74 -258.999 -74c-49.333 0 -74 18.333 -74 55c0 53.333 55.333 117 166 191c106 70 229.333 128.667 370 176
c148.667 49.333 282.667 74 402 74c180 0 270 -80.333 270 -241c0 -127.333 -76.333 -268.333 -229 -423s-390 -291.667 -712 -411zM622.002 32.998c-12 2.66699 -24 4 -36 4c-148 0 -333.333 -81 -556 -243s-334 -275.333 -334 -340c0 -22.667 15.333 -34 46 -34
c70.667 0 188 50.333 352 151c135.333 82.667 244 159.667 326 231c72.667 64 140 141 202 231zM1488 1547c-20 0 -40.334 31 -61.001 93c-17.333 53.333 -26 93.333 -26 120c0 10 7 15 21 15c23.333 0 43 -18 59 -54c22 -48.667 34.667 -75 38 -79l138 72
c72.667 38.667 113.667 58 123 58c13.333 0 20 -5.33301 20 -16c0 -18 -92.667 -83 -278 -195c-15.333 -9.33301 -26.666 -14 -33.999 -14z" />
    <glyph glyph-name="zcaron" unicode="&#x17e;" horiz-adv-x="685" 
d="M373 171c142 122 213.001 222.668 213.001 302.001c0 34.667 -13 52 -39 52s-92.333 -45.333 -199 -136c-160.667 -137.333 -262 -221.666 -304 -252.999c-122 -90.667 -214.667 -136 -278 -136c-8 0 -12 4 -12 12c0 12 6.66699 19.667 20 23
c75.333 19.333 161.666 66.333 258.999 141l135 104l194 164c97.333 82 159.5 127 186.5 135s48.167 12 63.5 12c66.667 0 100 -32.333 100 -97c0 -99.333 -101 -215.666 -303 -348.999c28 -18 42 -44.333 42 -79c0 -74.667 -83.833 -198.834 -251.5 -372.501
s-301.5 -260.5 -401.5 -260.5c-55.333 0 -83 24.333 -83 73c0 81.333 65 180.666 195 297.999s276.667 193.666 440 228.999c14.667 20 22 39.667 22 59c0 8.66699 -3.33301 16 -10 22c-75.333 -34.667 -133 -52 -173 -52c-38 0 -57 9 -57 27c0 22 27.333 42.667 82 62
c46.667 16.667 84.667 25 114 25c16 0 31 -1.66699 45 -5zM328.001 -5.99902c-150 -33.333 -284.166 -105.332 -402.499 -215.999s-177.5 -201.334 -177.5 -272.001c0 -22.667 11 -34 33 -34c63.333 0 162.666 71.333 297.999 214c107.333 113.333 190.333 216 249 308z
M654.002 639.002c-20 0 -40.334 31 -61.001 93c-17.333 53.333 -26 93.333 -26 120c0 10 7 15 21 15c23.333 0 43 -18 59 -54c22 -48.667 34.667 -75 38 -79l138 72c72.667 38.667 113.667 58 123 58c13.333 0 20 -5.33301 20 -16c0 -18 -92.667 -83 -278 -195
c-15.333 -9.33301 -26.666 -14 -33.999 -14z" />
    <glyph glyph-name="florin" unicode="&#x192;" horiz-adv-x="949" 
d="M550 456l-128.001 2.99902c-72.667 4.66699 -109 16.334 -109 35.001c0 18 11 26.333 33 25c56 -1.33301 138.667 -6 248 -14c258.667 290.667 473.334 436 644.001 436c48.667 0 73 -13.333 73 -40c0 -18 -12 -36.167 -36 -54.5s-45.333 -27.5 -64 -27.5
c-14.667 0 -22 7 -22 21c0 6.66699 12 15.667 36 27s36.333 20.666 37 27.999c-3.33301 4 -8.66602 6 -15.999 6c-46.667 0 -89.334 -9 -128.001 -27c-95.333 -44 -233.333 -169.333 -414 -376l232 -11l2 -2c4 -3.33301 6 -8.66602 6 -15.999c0 -18.667 -21 -28 -63 -28
c-58.667 0 -131.667 2.66699 -219 8c-177.333 -214 -289.333 -345.667 -336 -395c-177.333 -184.667 -314.666 -277 -411.999 -277c-59.333 0 -89 15.333 -89 46c0 12.667 7.33301 19 22 19c6 0 15.667 -3.33301 29 -10s23.666 -10 30.999 -10c60 0 187.333 111.667 382 335
z" />
    <glyph glyph-name="circumflex" unicode="&#x2c6;" 
d="M616 634c-13.333 0 -19.999 5.33203 -19.999 15.999c0 19.333 92.333 84 277 194c16.667 10 28.334 15 35.001 15c19.333 0 39.333 -31 60 -93c18 -53.333 27 -93 27 -119c0 -10.667 -7 -16 -21 -16c-22.667 0 -42.334 18.333 -59.001 55
c-21.333 48 -34.333 74.333 -39 79c-12.667 -5.33301 -59.334 -30.666 -140.001 -75.999c-66 -36.667 -106 -55 -120 -55z" />
    </font>
</defs>
</svg>
