<?xml version="1.0" standalone="no"?>
<!DOCTYPE svg PUBLIC "-//W3C//DTD SVG 1.1//EN" "http://www.w3.org/Graphics/SVG/1.1/DTD/svg11.dtd" >
<svg>
<metadata>
Created by FontForge 20110222 at Mon Dec 23 23:46:24 2013
 By Orthosie Webhosting
Copyright by Christine Mauerkirchner and Rainer Grunert
</metadata>
<defs>
<font id="JacobaBold" horiz-adv-x="762" >
  <font-face 
    font-family="JacobaBold"
    font-weight="700"
    font-stretch="normal"
    units-per-em="2048"
    panose-1="0 0 7 0 0 0 0 0 0 0"
    ascent="1638"
    descent="-410"
    x-height="700"
    cap-height="1458"
    bbox="-469 -561 3009 1808"
    underline-thickness="80"
    underline-position="-228"
    unicode-range="U+0020-F000"
  />
<missing-glyph horiz-adv-x="1024" 
d="M128 0v1434h768v-1434h-768zM256 128h512v1178h-512v-1178z" />
    <glyph glyph-name=".notdef" horiz-adv-x="1024" 
d="M128 0v1434h768v-1434h-768zM256 128h512v1178h-512v-1178z" />
    <glyph glyph-name=".null" unicode="&#xe001;" horiz-adv-x="0" 
 />
    <glyph glyph-name="nonmarkingreturn" unicode="&#xe002;" horiz-adv-x="676" 
 />
    <glyph glyph-name="space" unicode=" " horiz-adv-x="676" 
 />
    <glyph glyph-name="exclam" unicode="!" horiz-adv-x="809" 
d="M1225 1307q106 0 106 -68q0 -41 -82 -149q-282 -374 -563 -785q-6 -9 -14 -14h-8q-9 0 -13 2q-6 9 -6 20q8 23 80 152q75 133 175 370q118 276 165 371q50 101 160 101zM434 70q0 54 45.5 103.5t100.5 49.5q34 0 56.5 -23.5t22.5 -58.5q0 -56 -43.5 -105.5t-99.5 -49.5
q-82 0 -82 84z" />
    <glyph glyph-name="quotedbl" unicode="&#x22;" horiz-adv-x="1124" 
d="M1362 1055h-2q57 11 123 59q72 51 88 100q-2 18 -39 39t-37 74q0 47 45.5 88t91.5 41q97 0 97 -92q0 -85 -134 -211.5t-221 -126.5h-4l-10 4l-4 8q0 11 6 17zM1065 1049q65 34 130 69q83 50 81 107q-4 6 -47 32q-31 20 -31 56q0 51 45.5 97t95.5 46q41 0 67 -28t26 -70
q0 -92 -132 -208q-122 -108 -221 -128l-12 4l-4 6v8q0 3 1 4.5t1 4.5z" />
    <glyph glyph-name="numbersign" unicode="#" horiz-adv-x="1100" 
d="M250 422h-199v137h219l54 395h-220v140h240l59 422h142l-60 -422h254l60 422h141l-59 -422h170v-138h-191l-55 -397h188v-137h-207l-59 -422h-141l59 422h-254l-59 -422h-142zM467 956l-55 -397h252l55 397h-252z" />
    <glyph glyph-name="dollar" unicode="$" horiz-adv-x="946" 
d="M141 180h2q0 115 96 192q89 72 205 72q88 0 207 -59l31 61q-147 122 -147 250q0 124 117 204q103 69 233 71q52 0 96 -8q101 141 182 141q41 0 54 -21q-9 -20 -25 -20q-12 8 -41 12q-64 0 -139 -114q166 -39 166 -164q0 -76 -77 -125q-68 -43 -147 -43q-56 0 -125 28
l-45 -75q113 -89 160 -143q82 -95 82 -191q1 -157 -152 -255q-133 -85 -299 -85q-57 0 -172 20q-123 -166 -233 -166q-32 0 -60 16q-34 19 -34 48q0 4 6 16l10 4h6l13 -8q9 -49 67 -49q91 0 197 145q-234 77 -234 246zM809 674q-41 20 -41 82q0 15 13.5 40t27.5 25h6l6 -4
l6 -10l-4 -8q-37 -4 -37 -49q0 -10 27 -58l154 250q-30 9 -82 8q-82 -1 -143 -38q-72 -45 -72 -119q0 -60 29 -105q34 -43 67 -86zM928 651q68 0 120.5 42.5t53.5 109.5q0 52 -28 84q-20 22 -75 51q-56 -86 -159 -262q45 -25 88 -25zM553 -63q119 0 209 47q110 58 110 166
q0 71 -52 154q-50 80 -113 120l-33 -57q63 -72 63 -123q0 -69 -63 -113q-56 -39 -127 -39q-21 0 -31 2l-98 -145q90 -12 135 -12zM485 96q-43 2 -86 31q-49 33 -49 74q0 46 49 55l15 -6l4 -8v-4q0 -8 -22.5 -17.5t-22.5 -27.5q0 -58 123 -82q47 75 133 231q-74 35 -142 35
h-65q-86 0 -165 -58q-87 -63 -87 -145q0 -94 69 -147q38 -30 152 -74zM551 109q58 0 108 32q56 36 56 90q0 66 -60 101l-129 -223h25z" />
    <glyph glyph-name="percent" unicode="%" horiz-adv-x="1485" 
d="M502 -51l-10 10l-3 8q4 5 62 70q54 58 160 178q296 352 444 565q59 85 107 166q29 50 51 82q3 5 18 10q23 0 23 -16q0 -58 -373 -520q-268 -334 -457 -549zM735 1030q71 0 109 -74q30 -59 30 -137q0 -158 -132 -335q-141 -187 -293 -187q-73 0 -109 78q-27 59 -27 141
q0 152 134 328q141 186 288 186zM449 317q87 0 219 269q123 251 123 358q0 64 -52 64q-89 0 -226 -270q-128 -253 -128 -361q0 -24 19.5 -42t44.5 -18zM1475 702q70 0 107 -76q30 -61 30 -139q0 -151 -135 -328q-143 -188 -289 -188q-72 0 -109 72q-28 57 -28 135
q0 161 129 337q139 187 295 187zM1186 -10h2q89 0 219 275q121 256 121 366q0 49 -60 49q-81 0 -217 -272q-129 -257 -129 -357q0 -24 20 -42.5t44 -18.5z" />
    <glyph glyph-name="ampersand" unicode="&#x26;" horiz-adv-x="1348" 
d="M1268 1092v2q0 48 -63.5 57.5t-63.5 48.5q0 44 29.5 73.5t74.5 29.5q98 0 98 -113q0 -110 -137 -289q-215 -282 -700 -430q-133 -221 -133 -428q0 -133 98 -213q92 -76 227 -76q222 0 472 290q243 282 243 507q0 135 -110 135q-83 0 -191 -86q-92 -73 -147 -160
q15 1 71 5q44 4 72 4q86 0 86 -25q-6 -9 -14 -14h-244q-88 -129 -111 -170q-61 -110 -61 -187q0 -43 47 -43t114 76q58 66 79 121l8 2l6 -2l4 -8q-8 -54 -82 -129.5t-125 -75.5q-43 0 -69 40q-23 35 -23 79q0 139 108 299q-92 -6 -90 -6q-65 0 -65 18q0 11 8 14q24 11 68 6
q34 0 108 -4q234 267 436 267q81 0 128 -72q40 -62 40 -148q0 -256 -249 -503.5t-504 -247.5q-203 0 -333 146q-126 141 -126 345q0 220 149 418q132 175 342 289q138 75 224 76q64 1 107.5 -39t43.5 -105q0 -20 -2 -30q152 141 152 256zM1024 940q0 51 -61 51
q-89 0 -245 -200q-107 -136 -192 -287q159 47 236 94q99 60 172 144q90 105 90 198z" />
    <glyph glyph-name="quotesingle" unicode="'" horiz-adv-x="809" 
d="M1411 1458q10 0 12 -8q4 -4 4 -8v-6q-50 -28 -101 -55q-102 -61 -112 -121l3 -13q3 -6 42 -28q31 -17 31 -56q0 -57 -46.5 -99t-104.5 -42q-33 0 -58.5 28.5t-25.5 61.5q0 82 108 188q90 90 183 134q52 24 65 24z" />
    <glyph glyph-name="parenleft" unicode="(" horiz-adv-x="584" 
d="M1141 1245q12 -6 12 -16q0 -2 -8 -10l-15 -5q-224 -64 -417 -383q-102 -168 -252 -538q-129 -317 -129 -473q0 -18 5 -52.5t5 -52.5q0 -12 -14 -12l-11 4q-84 116 -84 307q0 339 214 672q207 323 514 490q128 69 180 69z" />
    <glyph glyph-name="parenright" unicode=")" horiz-adv-x="584" 
d="M-47 -276q105 43 148 71q57 37 122 111q158 178 348 583q201 429 201 635q0 18 -4 52.5t-4 52.5q0 14 8 14q2 -1 6 -2q45 -38 72 -158q20 -95 20 -180q0 -346 -248 -693q-241 -338 -567 -476q-30 -15 -96 -31l-10 6v2q0 4 4 13z" />
    <glyph glyph-name="asterisk" unicode="*" horiz-adv-x="1079" 
d="M1495 1182v2q0 -25 -25.5 -45.5t-50.5 -20.5q-59 0 -59 68q0 18 6 37l-2 6q-12 12 -16 12q-11 0 -15 -12q0 -2 -1 -6.5t-1 -8.5q0 -12 6 -35.5t6 -35.5q0 -18 -18.5 -32.5t-36.5 -14.5q-24 0 -51 20t-27 43q0 29 51 51.5t48 42.5l-4 7l-11 4l-14 -2q-4 -3 -45 -41
q-29 -26 -49 -27q-58 -2 -58 78q0 16 21.5 35.5t38.5 19.5q22 0 47 -15q22 -13 43 -26h4q8 0 12 2l9 12v7l-9 12q-33 8 -66 17q-38 12 -38 48q0 26 32 46q28 18 56 18q49 0 49 -53q0 -10 -4 -27t-4 -25q0 -6 4 -18l6 -8q2 -1 4 -1.5t4 -0.5q15 0 15 28q0 10 -3 28.5t-3 27.5
q0 59 57 59q76 0 82 -53q-8 -28 -53 -48q-48 -22 -60 -44l-2 -10q5 -11 21 -15h4q9 5 48 41q28 25 58 25q53 0 55 -66q1 -21 -17 -37t-40 -16q-9 0 -48.5 19.5t-47.5 19.5q-2 -1 -4 -1.5t-4 -0.5l-9 -10v-9l7 -10q5 -5 60 -15q42 -8 42 -46z" />
    <glyph glyph-name="plus" unicode="+" horiz-adv-x="1032" 
d="M289 487h401v396h86v-396h395v-86h-397v-401h-86v401h-399v86z" />
    <glyph glyph-name="comma" unicode="," horiz-adv-x="315" 
d="M53 -180v-2q6 3 31 12q76 27 147 109l21 20q6 9 6 31q-1 7 0 8q-26 15 -50.5 31t-25.5 55q-1 52 45 94.5t99 42.5q38 0 64 -25t26 -63q0 -84 -132.5 -215t-215.5 -131q-11 0 -17 4l-4 14z" />
    <glyph glyph-name="hyphen" unicode="-" horiz-adv-x="584" 
d="M262 362q21 25 88 25q40 0 120 -7t120 -7q20 0 67 12q44 10 68 8h2q12 -8 12 -18q-21 -39 -116 -39q-49 0 -139 7q-95 8 -138 9q-23 1 -65 -18l-15 4l-6 6v8q0 3 1 5.5t1 4.5z" />
    <glyph glyph-name="period" unicode="." horiz-adv-x="315" 
d="M178 74q0 58 44.5 102.5t103.5 44.5q33 0 58.5 -25t25.5 -59q0 -53 -47.5 -103t-100.5 -50q-84 -2 -84 90z" />
    <glyph glyph-name="slash" unicode="/" horiz-adv-x="496" 
d="M168 -25q0 32 387 605q71 105 180 245q49 65 137 156l11 2l12 -10l2 -8l-6 -13q-124 -152 -359 -465q-135 -196 -233 -354q-32 -54 -94 -162q-5 -8 -17 -12h-8q-2 0 -4 1t-4 1l-4 10v4z" />
    <glyph glyph-name="zero" unicode="0" horiz-adv-x="852" 
d="M885 1030q93 0 145 -110q41 -86 41 -191q0 -216 -192 -479q-205 -279 -412 -279t-207 316q0 225 198 477q208 266 427 266zM449 -4q94 0 223 201q109 170 200 409q86 227 86 324q0 28 -22.5 53t-50.5 25q-58 0 -129 -66q-91 -84 -245 -409q-157 -330 -157 -447
q0 -35 29.5 -62.5t65.5 -27.5z" />
    <glyph glyph-name="one" unicode="1" horiz-adv-x="852" 
d="M702 807q0 47 -60 51q-78 5 -85 10l-4 9v6l2 8q15 11 96 10q174 -3 273 96q16 17 26 23h8q13 -6 13 -12q0 -119 -192.5 -470t-192.5 -466q0 -34 45 -40q-4 1 69 1q24 0 31 -15v-6q0 -3 -1 -9t-1 -9q-11 -8 -29 -8q-36 0 -107 8t-106 8q-38 0 -112 -8t-111 -8q4 0 -26 10
l-5 6v10l3 6l22 13h43q82 0 137 123q264 590 264 653z" />
    <glyph glyph-name="two" unicode="2" horiz-adv-x="852" 
d="M395 223q61 0 174.5 -34.5t169.5 -34.5q33 0 69.5 41t36.5 76q0 6 -1 12q5 9 20 20q13 -3 19 -12q-27 -99 -88 -188q-78 -113 -160 -113q-66 0 -201 80t-201 80q-27 0 -60 -18q-38 -20 -38 -44q0 -25 18.5 -48.5t18.5 -35.5q0 -39 -51 -39q-43 0 -43 53q0 54 72 152
q89 122 336 236q237 110 313 231q67 108 67 203q0 61 -47 97q-43 33 -106 34q-55 1 -104 -30q-56 -35 -56 -87q0 -30 37 -55.5t37 -55.5q0 -36 -37 -63q-33 -25 -70 -25q-40 0 -71 25.5t-31 64.5q0 108 107 179q95 63 208 63q116 0 201 -56q98 -65 98 -173q0 -159 -181 -253
q-9 -5 -371 -140q-229 -85 -300 -201q119 59 215 59z" />
    <glyph glyph-name="three" unicode="3" horiz-adv-x="852" 
d="M633 510q268 -55 268 -207q0 -140 -155 -236q-135 -83 -285 -83q-99 0 -178 42q-97 51 -97 142q0 52 39.5 91.5t91.5 39.5q30 0 57 -16q32 -18 32 -47q0 -48 -58.5 -77t-58.5 -57q0 -42 54 -73q47 -27 91 -27q119 0 207 122q80 112 80 234q0 57 -41.5 96.5t-97.5 39.5
q-19 0 -48 -8q-36 -9 -49 -11l-20 8l-8 9q0 2 -1 6t-1 6t1 7t1 7l4 6l6 2q16 13 61 13q14 0 40.5 -2t39.5 -2q108 0 203.5 99t95.5 206q0 129 -139 129q-60 0 -115 -30q-65 -35 -65 -89q0 -26 31.5 -55.5t31.5 -57.5q0 -39 -35 -66q-31 -24 -71 -24q-32 0 -60 28t-28 60
q0 116 110 189q97 65 219 65q108 0 189 -47q98 -56 98 -156q0 -208 -440 -268v-8z" />
    <glyph glyph-name="four" unicode="4" horiz-adv-x="852" 
d="M610 782v2q0 29 -22.5 66.5t-22.5 60.5q0 36 39 61q34 21 72 21q35 0 62.5 -26t27.5 -60q0 -95 -192 -289q-138 -129 -275 -258h311l308 627q22 0 67 2t68 2q80 0 80 -20q-7 -5 -37 -10q-70 -58 -180 -280q-75 -159 -150 -319h125q12 0 33 9q20 24 26 39q19 6 11 6
q5 0 6 -4q0 -9 -66 -140h-178q-92 -184 -92 -211q0 -33 51 -35q55 -1 61 -20l2 -6q-5 -14 -28 -14q13 0 -74 6q-123 10 -145 10q-26 0 -77 -5t-77 -5q-22 0 -22 20q0 17 22 21q21 -2 64 -2q45 0 97 99l64 142h-403q215 194 260 240q184 186 184 270z" />
    <glyph glyph-name="five" unicode="5" horiz-adv-x="852" 
d="M502 526h2q104 70 186 70q97 0 160 -59.5t63 -155.5q0 -175 -164 -298q-151 -114 -331 -114q-74 0 -137 40q-72 46 -72 116q0 51 30.5 86t79.5 35q34 0 60.5 -20t26.5 -52q0 -49 -49.5 -66t-49.5 -45q0 -32 39 -52q32 -17 68 -17q126 0 233 168q96 152 96 287
q0 103 -92 104q-65 1 -114 -38q-29 -22 -72 -80q-38 -50 -62 -62l-16 6l-8 6q0 8 2 12q0 12 12 33q61 105 122 209q67 122 99 219q10 31 19 62q14 39 31 55q43 0 131 -10.5t135 -10.5q188 0 237 99q12 2 11 2q4 0 12 -4l4 -7v-4q0 -6 -25 -57q-52 -107 -101 -142
q-55 -38 -171 -38l-252 12z" />
    <glyph glyph-name="six" unicode="6" horiz-adv-x="852" 
d="M743 639q84 0 134 -81q42 -70 43 -159q1 -149 -141 -287.5t-294 -138.5q-194 0 -194 287q0 252 190 500q203 265 447 266q80 0 142 -40q71 -47 71 -124q0 -47 -30.5 -85t-76.5 -38q-41 0 -68.5 26t-27.5 66q0 41 51 59t51 50q0 28 -36 45q-30 14 -62 14q-146 2 -276 -204
q-72 -114 -158 -338q139 182 235 182zM481 -2q93 0 197 223q94 202 94 311q0 72 -53 72q-94 0 -210 -207q-107 -193 -106 -299q2 -100 78 -100z" />
    <glyph glyph-name="seven" unicode="7" horiz-adv-x="852" 
d="M874 768q-47 0 -143 15.5t-145 15.5q-73 0 -108 -68q-40 -79 -56 -86q-16 8 -16 29q31 97 99 194q87 123 163 123q73 0 187.5 -85t154.5 -85q22 0 44.5 21t22.5 45q0 25 -29.5 35.5t-29.5 33.5q0 34 30 54q26 19 60 18q31 -1 31 -53q0 -127 -96 -240q-59 -70 -209 -183.5
t-201 -172.5q-56 -64 -86 -156q-13 -40 -29 -108q-16 -74 -37 -102q-31 -40 -98 -40q-42 0 -73 21q-36 23 -36 63q0 155 182 298q33 25 353 222q204 125 235 224q-98 -33 -170 -33z" />
    <glyph glyph-name="eight" unicode="8" horiz-adv-x="852" 
d="M471 721q0 128 121 223q113 90 244 90q258 0 258 -174q0 -110 -119 -189q-63 -42 -217 -100q100 -122 103 -126q54 -79 54 -150q0 -146 -130 -243q-119 -88 -269 -89q-121 -1 -215 54q-113 65 -113 178q0 204 383 313q-100 97 -100 213zM969 870q0 59 -47 97
q-43 34 -103 34q-77 0 -135 -48q-61 -51 -61 -126q0 -97 110 -227q94 32 160 101q76 79 76 169zM301 178q0 -87 63 -137q59 -47 148 -47q88 0 161 54q79 58 79 142q0 75 -56 158q-15 23 -106 133q-289 -115 -289 -303z" />
    <glyph glyph-name="nine" unicode="9" horiz-adv-x="852" 
d="M549 358q-81 0 -129 77q-41 67 -41 153q0 157 139 296.5t295 139.5q100 0 152 -86q43 -70 45 -176q0 -34 -6 -74q-15 -240 -201 -470q-200 -247 -430 -247q-83 0 -146 41q-71 47 -71 127q0 42 33 80.5t73 38.5q68 0 88 -59q8 -24 8 -25q0 -38 -26 -56q-12 -8 -60 -24
q-14 -14 -14 -31q0 -65 100 -65q146 0 273 206q58 94 155 335q-123 -181 -237 -181zM575 391v-2q101 0 217 216q105 197 105 313q0 31 -21 55t-53 24q-98 0 -204 -219q-95 -196 -95 -309q0 -78 51 -78z" />
    <glyph glyph-name="colon" unicode=":" horiz-adv-x="406" 
d="M524 485q0 59 42.5 107.5t99.5 48.5q90 0 90 -100q0 -45 -52 -91.5t-98 -46.5q-34 0 -58 24.5t-24 57.5zM424 223q35 0 59 -24t25 -58q1 -59 -47 -106t-109 -47q-35 0 -61.5 25.5t-26.5 60.5q0 61 48.5 105t111.5 44z" />
    <glyph glyph-name="semicolon" unicode=";" horiz-adv-x="406" 
d="M672 647q90 0 90 -86q0 -59 -49 -104.5t-109 -46.5q-33 -1 -58.5 23.5t-25.5 58.5q0 62 44.5 108.5t107.5 46.5zM369 -18q-4 8 -4 12q-8 6 -34 21q-18 10 -26 20q-10 14 -10 39q0 54 42 97.5t95 43.5q40 0 68 -25t28 -65q0 -90 -132 -213q-128 -118 -222 -131l-12 2
q-6 6 -6 16l112 66q101 61 101 117z" />
    <glyph glyph-name="less" unicode="&#x3c;" horiz-adv-x="1204" 
d="M1116 913l-870 -395l870 -395v-139l-1040 471v127l1040 471v-140z" />
    <glyph glyph-name="equal" unicode="=" horiz-adv-x="1032" 
d="M238 678h1015v-92h-1015v92zM240 319h1013v-90h-1013v90z" />
    <glyph glyph-name="greater" unicode="&#x3e;" horiz-adv-x="1204" 
d="M88 123l870 395l-870 395v140l1040 -471v-127l-1040 -471v139z" />
    <glyph glyph-name="question" unicode="?" horiz-adv-x="1032" 
d="M1294 1137q0 131 -151 131q-71 0 -135 -42q-72 -47 -72 -114q0 -34 42 -57.5t42 -46.5q0 -53 -42 -92t-95 -39q-49 0 -78 31t-29 79q0 133 131 225q118 84 256 84q120 0 207 -68q92 -74 92 -190q0 -159 -199 -296q-41 -28 -370 -199q-199 -104 -199 -183q0 -12 37 -36
q2 -5 2 -13q0 -20 -25.5 -38.5t-45.5 -18.5q-44 0 -44 57q0 76 179 217q124 94 247 187q110 97 183 233q67 126 67 189zM612 221q76 0 76 -90q0 -52 -45.5 -98.5t-97.5 -46.5q-32 0 -54 27.5t-22 60.5q0 55 44 101t99 46z" />
    <glyph glyph-name="at" unicode="@" horiz-adv-x="2079" 
d="M1083 1024q-130 0 -224 -138q-85 -125 -85 -261q0 -83 44 -139q47 -60 128 -60q125 0 220 146q85 132 85 264q0 72 -47 128q-50 60 -121 60zM1356 1139h141q-51 -167 -149 -504q-37 -135 -37 -164q0 -59 43 -59q123 0 213 165q78 142 78 277q0 238 -169 386
q-162 142 -403 142q-270 0 -449 -194q-173 -188 -173 -461q0 -269 183.5 -454t455.5 -185q142 0 274.5 62t220.5 172h137q-99 -168 -271 -264.5t-368 -96.5q-327 0 -554.5 226t-227.5 552q0 318 227 544t545 226q284 0 489 -175q216 -184 216 -464q0 -206 -140 -392
q-150 -199 -350 -199q-56 0 -92.5 36t-38.5 93l-4 -2q-115 -127 -246 -127t-218 99q-83 95 -83 228q0 215 127 383q138 182 346 182q163 0 236 -159z" />
    <glyph glyph-name="A" unicode="A" horiz-adv-x="2019" 
d="M1581 621h2q144 156 288 313q147 151 286 229q170 96 409 140q2 0 4 2q0 6 -16 14q-261 84 -572 84q-250 0 -462 -101q-267 -126 -267 -348q0 -63 56 -106q51 -41 116 -41q98 0 214 96q120 101 120 197q0 56 -45 67l-4 7v14l10 4l17 -6q42 -50 45 -56q12 -21 12 -71
q0 -106 -117 -194q-110 -83 -221 -83q-113 0 -199 81.5t-86 195.5q0 214 219 319q167 80 408 80q249 0 559 -69q76 -20 151 -39q89 -22 152 -23q21 0 111 25l22 -9q0 -2 1.5 -8t1.5 -8v-6q-31 -57 -70 -57q-14 0 -39 4t-37 4q-75 0 -121 -12q-229 -62 -547 -621q84 2 154 25
q100 32 100 94q0 7 -16 25.5t-16 25.5q0 18 20 32.5t37 14.5q35 0 35 -53q0 -92 -123 -146q-87 -38 -201 -47q-147 -333 -147 -481q0 -123 76 -123q56 0 103 78q32 62 64 125l11 4h10l10 -8q-8 -52 -79 -136q-74 -87 -122 -87q-94 0 -149 124q-44 98 -45 207q-1 93 76 287
h-144q-45 -47 -129 -158q-115 -152 -203 -236q-109 -104 -251 -181q84 -75 186 -74q81 1 113 25q38 35 75 71h5q12 0 12 -14q0 -46 -86 -78q-68 -25 -125 -25q-94 0 -207 84q-103 -26 -197 -26q-197 0 -334 102q-151 113 -151 305q0 215 163 350q153 127 372 127
q142 0 246 -64q120 -75 130 -208q218 21 326 21zM1794 629q44 68 137 198q190 235 504 426q-224 -53 -439 -246q-138 -125 -341 -382zM926 293q-77 5 -135 40q-72 43 -72 111q0 24 19 54t40 32q13 -4 13 -14q0 -6 -26 -25t-26 -53q0 -108 197 -108q30 104 110 169
q63 51 183 95q0 2 1 7t1 7q0 100 -77 156q-69 49 -173 49q-199 0 -388 -136q-206 -149 -206 -341q0 -131 119 -219q109 -80 244 -80q121 0 223 49q-49 88 -51 164q-1 12 4 43zM1556 594h-75q-74 0 -221 -16q-28 -128 -108 -194q-67 -56 -204 -91q-2 -14 -2 -43
q0 -91 45 -154q134 51 306 217q87 83 259 281zM1221 565v2q-183 -27 -260 -231q210 80 260 229z" />
    <glyph glyph-name="B" unicode="B" horiz-adv-x="2019" 
d="M1634 1391q-228 0 -451 -139q-251 -157 -251 -369q0 -82 66 -135q62 -50 145 -50q111 0 230 117.5t120 228.5q0 49 -36 77t-87 28q-53 0 -110 -46q-60 -49 -60 -102q0 -7 4 -20t4 -20q0 -14 -14 -17q-16 9 -16 47q0 84 60 133q56 45 140 45q68 0 112 -54t44 -122
q0 -138 -114 -232q-108 -87 -249 -87q-130 0 -215.5 85.5t-85.5 213.5q0 226 224 355q186 108 428 108q257 0 540 -144q296 185 478 185q70 0 116 -32q54 -36 54 -102q0 -105 -102 -166q-85 -51 -198 -51q-52 0 -101 23q-60 29 -60 76q0 25 18 47t43 22q6 0 6 -6
q0 -16 -23.5 -23t-23.5 -32q2 -68 101 -70q82 -1 183 58q113 66 113 143q0 90 -131 90q-112 0 -233 -58q-77 -36 -207 -126q87 -90 108 -119q49 -69 50 -147q1 -155 -160 -237q-118 -61 -299 -73q274 -85 274 -301q0 -145 -150 -278q-147 -129 -294 -129q-85 0 -140 49
t-54 133q0 114 84 211q88 100 198 100q40 0 72 -14l4 -8v-6l-2 -5l-6 -4h-2q-5 0 -23 9.5t-31 9.5q-82 0 -177 -107.5t-95 -189.5q0 -56 29 -92q31 -39 86 -39q127 0 248 172q112 160 112 293q0 74 -50 127t-124 53q-24 0 -37 -2q-44 0 -51 39q-206 -368 -342 -500
q-221 -215 -551 -215q-180 0 -320 75q-171 92 -171 257q0 171 146 274q130 91 306 90q134 0 235 -52q127 -64 128 -183q0 -106 -92 -175q-84 -63 -195 -63q-77 0 -143 36q-80 42 -80 112q0 44 34.5 75t79.5 31q15 0 23 -8q0 -3 2 -6q0 -10 -12 -14h-13l-18 6
q-29 0 -52.5 -24.5t-23.5 -53.5q0 -56 66 -90q54 -29 114 -29q102 0 189 53q100 61 100 158q0 87 -106 132q-80 35 -181 34q-158 -1 -307 -83q-176 -96 -176 -239q0 -133 145 -208q117 -60 263 -60q183 0 369 152q138 112 303 334q123 170 245 339q201 259 402 402
q-50 55 -187 90q-113 29 -211 29zM1769 717q145 0 250 117q103 114 103 262q0 85 -60 147q-236 -236 -385 -510q62 -16 92 -16z" />
    <glyph glyph-name="C" unicode="C" horiz-adv-x="1348" 
d="M1489 1458q129 0 209 -68q84 -73 84 -198q0 -147 -128 -264q-124 -113 -272 -113q-82 0 -146 48q-70 52 -71 132q0 94 74.5 171t167.5 77q95 0 109 -51q-3 -8 -13 -8q-4 0 -15 14t-13 14q-13 7 -35 7q-75 0 -153.5 -81t-78.5 -155q0 -59 36 -98t93 -39q124 0 253 148
q124 143 124 268q0 76 -60 124q-56 46 -132 46q-186 0 -427 -201q-179 -148 -333 -352q-118 -157 -205 -332q-117 -236 -117 -404q0 -124 85 -204t208 -80q201 -1 402 257q191 245 192 453q1 162 -162 162q-134 0 -263 -167q-122 -158 -122 -298q0 -42 33 -77t76 -35
q62 0 102 39q24 24 47 73q18 39 27 39q16 0 16 -16q0 -42 -68 -98t-110 -56q-81 0 -131 65q-45 60 -45 144q0 166 142 289q135 119 302 119q117 0 181 -96q55 -82 55 -203q0 -240 -204 -432q-200 -189 -441 -189q-197 0 -318 152q-112 140 -112 342q0 241 190 514
q180 260 448 435q278 183 519 183z" />
    <glyph glyph-name="D" unicode="D" horiz-adv-x="1708" 
d="M2374 1477v2q157 0 157 -64q0 -16 -17 -31.5t-32 -15.5q-14 0 -48.5 41t-78.5 41q-139 0 -354 -178q-152 -126 -291 -291q33 -95 66 -189q34 -104 34 -200q0 -258 -155 -424q-159 -170 -416 -170q-162 0 -448 68q-209 -91 -332 -91q-121 0 -121 70q0 42 65 63
q46 15 99 15q114 0 278 -33q65 35 185 119q146 130 324 432q194 331 306 451q-90 109 -256 171q-150 56 -307 56q-236 0 -450 -132q-244 -151 -244 -372q0 -119 86 -195q82 -72 203 -73q148 -1 287 107q147 114 147 259q0 61 -44 105.5t-104 44.5q-99 0 -181 -50
q-95 -58 -95 -151q0 -53 35 -63q19 0 24 -13l-2 -8l-8 -8q-28 3 -52 43q-22 36 -22 68q0 89 96 151q85 54 179 53q100 0 164.5 -67.5t64.5 -165.5q0 -149 -143 -251q-130 -93 -283 -93q-178 0 -292 105q-117 109 -117 284q0 246 202 391q181 129 437 129q192 0 380 -81
t318 -222q126 134 349 245q235 118 407 118zM1161 43q257 0 426 203q160 191 160 452q0 125 -64 252q-127 -170 -254 -339q-132 -171 -253 -280q-150 -134 -355 -245q155 -43 340 -43zM512 100q-143 0 -147 -57q10 -43 102 -43q45 0 138.5 26t135.5 50q-113 24 -229 24z" />
    <glyph glyph-name="E" unicode="E" horiz-adv-x="1348" 
d="M891 1141q0 164 192 258q154 76 338 76q154 0 256 -40q146 -57 146 -186q0 -117 -108 -198q-99 -73 -222 -74q-86 -1 -159 38q-89 46 -89 126q0 68 66 109q56 36 127 36q87 0 98 -37q-5 -10 -14 -10q-3 0 -5.5 1t-5.5 1q-17 27 -65 27q-62 0 -115 -30q-63 -36 -63 -93
q0 -111 184 -111q107 0 216 68q122 77 122 176q0 80 -93 125q-74 37 -163 37q-164 0 -339 -124q-189 -135 -189 -292q0 -51 21 -83q14 -23 60 -62q35 2 105 2q194 0 250 -54l2 -8q-18 -33 -84 -33q-122 0 -277 74q-232 -22 -431 -234t-199 -444q0 -141 93 -215
q85 -67 228 -67q183 0 375 204q188 201 188 385q0 150 -157 150q-119 0 -253 -138t-134 -257q0 -131 120 -131q115 0 148 129l6 8q4 4 12 4q6 0 11 -8q0 -3 0.5 -5.5t1.5 -4.5q0 -44 -57.5 -92t-102.5 -48q-90 0 -144.5 54.5t-54.5 144.5q0 148 146 258q135 102 288 102
q121 0 191 -74q67 -72 67 -194q0 -212 -201 -367q-187 -145 -405 -145q-209 0 -356 115q-160 124 -160 327q0 259 254 412q195 117 490 150q-156 108 -156 262z" />
    <glyph glyph-name="F" unicode="F" horiz-adv-x="1708" 
d="M1784 1427q101 0 239 -30l236 -58q107 -29 215 -58q129 -33 219 -34q146 -1 146 86q0 60 -78 90q-57 23 -127 23q-41 0 -73 -18.5t-64 -36.5q-21 0 -17 20q12 25 83 40q53 11 97 11q69 0 127 -29q72 -35 72 -98q0 -85 -95 -149q-86 -57 -177 -58q-165 0 -468.5 119.5
t-467.5 120.5q-29 0 -135 -14q138 -126 137 -283q-1 -98 -56 -185q-63 -100 -155 -100q-94 0 -153 76q-54 70 -54 166q0 199 227 330q-86 65 -213 63q-97 -1 -167 -57q-74 -60 -74 -156q0 -46 22 -60q30 -19 35 -30v-4l-8 -6l-8 -2q-28 12 -48 50q-18 35 -18 67
q0 100 91 162q80 55 186 55q117 0 233 -72q102 59 291 59zM1255 1022v2q0 -83 50 -149q54 -72 133 -72q83 0 129 90q37 73 37 166q0 212 -123 284q-100 -42 -161 -127q-65 -89 -65 -194zM1208 272q0 129 123 230q97 80 242 123q137 239 244 358q179 201 360 201q85 0 90 -25
v-8l-2 -4q-6 -6 -22 -6q-3 0 -27 13t-47 13q-250 0 -447 -497q212 48 234 137q-6 24 -25 43l-2 14q11 41 53 41q39 0 39 -39q0 -10 -12 -41q-30 -73 -126 -120q-40 -19 -171 -60q-46 -119 -92 -239q-49 -115 -109 -186q-74 -87 -204 -159q64 -110 219 -110q59 0 123 63h10
l12 -10v-10l-8 -14q-69 -46 -137 -46q-159 0 -244 117q-162 -57 -305 -57q-238 0 -420 128q-203 143 -203 372q0 189 149 313q140 118 333 117q157 -1 277 -82q135 -91 136 -240q1 -121 -92.5 -210t-216.5 -89q-87 0 -164 46q-88 54 -88 134q0 73 54 128t126 55q27 0 43 -17
v-4q0 -10 -14 -10h-4q-10 6 -35 6q-56 0 -104.5 -45.5t-48.5 -101.5q0 -72 64 -111q53 -33 128 -33q113 0 211 84q102 87 102 197q0 114 -88 182q-81 63 -198 64q-197 1 -353 -130q-165 -137 -165 -331q0 -153 138 -265q130 -106 287 -106q240 0 388 125q-11 41 -11 102z
M1552 600q-74 -39 -148 -77q-82 -45 -120 -94q-49 -64 -49 -161q0 -35 10 -80q156 131 307 412z" />
    <glyph glyph-name="G" unicode="G" horiz-adv-x="1663" 
d="M557 465q129 0 244 -79q127 -88 127 -212q0 -70 -48 -127t-118 -57q-63 0 -121 35q-66 40 -66 98q0 6 5 18l6 9h8q2 -2 6 -3l8 -6q2 -14 2 -43q0 -35 49 -60q41 -20 78 -20q69 0 117.5 46t48.5 114q0 93 -96 162q-87 63 -184 63q-127 0 -216 -77q-94 -82 -94 -207
q0 -176 183 -293q160 -102 346 -102q261 0 485 263q100 117 313 484q37 47 97 150v4q0 8 -8 8q-7 0 -108 -107q-123 -129 -210 -198q-136 -107 -227 -107q-116 0 -188 116q-62 101 -62 224q0 249 164 471q153 209 379 377q270 201 479 201q205 0 205 -189q0 -160 -145 -331
q-150 -179 -306 -179q-68 0 -111 37.5t-43 104.5q0 93 83.5 187.5t175.5 94.5q10 0 30 -4l19 -12l6 -12l2 -13q-6 -8 -17 -12l-16 21q-24 12 -37 12q-74 0 -146 -97q-69 -92 -69 -169q0 -107 103 -107q124 0 280 199q150 191 150 321q0 56 -39 89.5t-96 33.5
q-195 1 -425 -224q-206 -200 -355.5 -488.5t-149.5 -479.5q0 -60 28 -99q32 -46 91 -46q110 0 259 130q34 30 237 241q126 131 179 131q13 0 31 -25q-7 -17 -61 -57q-132 -97 -209 -414q-73 -296 -209 -430q-156 -156 -445 -156q-256 0 -460 126q-238 146 -238 386
q0 128 87 208q83 77 212 77z" />
    <glyph glyph-name="H" unicode="H" horiz-adv-x="2157" 
d="M1094 154q0 156 156 291q128 110 302 165l186 312q86 141 178 221q113 98 320 190q-282 64 -497 64q-252 0 -447 -104q-239 -127 -239 -355q0 -64 42.5 -115t104.5 -71q-16 53 -16 84q0 135 88 241q93 113 225 113q72 0 118 -43.5t46 -114.5q0 -148 -139 -235
q-120 -76 -279 -76q50 -84 135 -84q17 0 49 18h11q10 0 10 -10l-6 -14q-19 -10 -56 -10q-94 0 -178 110q-103 21 -173 110t-70 195q0 216 197 327q161 91 394 91q246 0 455 -49t266 -49q30 0 73.5 17.5t55.5 17.5q17 0 17 -15q0 -48 -36 -61q-16 -6 -75 -6q-187 0 -355 -229
q-133 -183 -192 -402l279 74q163 248 352 441q270 275 457 275q55 0 55 -65q0 -57 -90 -184q-188 -267 -573 -426q-273 -538 -273 -680q0 -111 64 -111q50 0 108 84q43 62 68 129l8 8l10 4l6 -2l5 -8v-6q0 -53 -85.5 -141t-138.5 -88q-65 0 -105 99q-32 79 -32 159
q0 131 42 252q29 85 108 233l-277 -72q-104 -247 -225 -384q-141 -158 -367 -249q33 -69 115 -107q71 -34 156 -34q49 0 111 28q66 31 87 70q24 43 31 43q11 0 14 -10v-6q0 -54 -101 -102q-89 -41 -153 -41q-172 0 -286 157q-126 -34 -226 -34q-221 0 -378 85
q-195 106 -195 308q0 160 133 271q126 106 289 106q127 0 240 -66q132 -77 132 -194q0 -110 -97 -179q-87 -62 -202 -63q-65 -1 -125 30q-73 38 -73 99q0 32 31 29l4 -4l2 -7q-8 -11 -8 -28q0 -47 61 -74q49 -22 102 -23q99 -1 184 54q97 61 97 155q0 96 -85 151
q-73 48 -173 48q-172 0 -311 -94q-158 -105 -158 -269q0 -143 156 -230q130 -73 286 -73q121 0 281 78q-8 37 -8 60zM2886 1405q0 43 -52 43q-121 0 -322 -255q-124 -157 -249 -370q195 73 374 230q201 175 249 352zM1286 741q109 0 219.5 107t110.5 215q0 48 -31.5 79.5
t-79.5 31.5q-110 0 -205 -111q-92 -106 -92 -217q0 -67 17 -103q20 -2 61 -2zM1530 578v-3q-161 -55 -274 -155q-140 -123 -140 -268q0 -24 6 -46q207 132 408 472z" />
    <glyph glyph-name="I" unicode="I" horiz-adv-x="1708" 
d="M1745 1399q-238 0 -458 -118q-261 -139 -261 -355q0 -92 72 -159t164 -67q127 0 241.5 109.5t114.5 234.5q0 53 -37 85t-90 32q-73 0 -148 -65q-78 -67 -79 -140q-1 -57 53 -69q2 -4 2 -13q0 -6 -6 -6q-25 0 -49 33q-23 30 -23 55q0 94 75 159q71 63 167 63
q77 0 126.5 -49t49.5 -125q0 -134 -115 -232q-110 -94 -246 -94q-132 0 -236 93q-108 96 -108 226q0 235 192 357q163 104 410 104q238 0 535 -74q68 -19 137 -39q82 -22 142 -22q22 0 58.5 16t55.5 17l17 -19q-10 -71 -74 -71q-17 0 -48.5 6t-47.5 6q-136 0 -271 -129
q-112 -108 -235 -420q-159 -404 -329 -567q-222 -213 -609 -213q-238 0 -395 102q-185 119 -185 344q0 158 155 260q136 88 302 88q145 0 252 -61q129 -74 129 -207q0 -119 -97 -197q-91 -73 -212 -73q-75 0 -134 36q-69 42 -69 111q0 89 104 101q11 -1 25 -17l-6 -6l-6 -4
q-7 0 -17.5 2t-15.5 2q-24 0 -44 -22.5t-20 -45.5q0 -115 160 -116q108 -1 202 66q103 74 103 180q0 92 -82 142q-69 42 -168 42q-172 -1 -327 -110q-170 -120 -170 -285q0 -139 153 -224q129 -71 279 -71q325 0 583 309l406 604q243 347 506 404q-261 96 -553 96z" />
    <glyph glyph-name="J" unicode="J" horiz-adv-x="1888" 
d="M1430 934q0 287 534 389q53 10 208 25q130 13 206 34q120 34 141 84l8 24q5 9 23 9q24 0 24 -69q0 -35 -43 -46q-37 -5 -73 -10q-101 -16 -193 -106q-117 -115 -208 -308q-47 -101 -136 -350q135 4 178 105l6 4l15 -2q6 -12 6 -15q0 -42 -88 -78q-75 -30 -125 -30
q-135 -424 -333 -637q-250 -270 -644 -270q-252 0 -440 119q-220 140 -220 378q0 228 188 376q174 138 408 138q169 0 297 -72q156 -88 156 -243q0 -151 -145 -254q-131 -92 -289 -92q-94 0 -174 33q-105 44 -105 125q0 60 41 105.5t101 45.5q102 0 102 -55q0 -8 -2 -12
l-14 -7l-6 7q-12 45 -56 45q-54 0 -99 -37q-48 -39 -48 -92q-1 -61 67 -96q55 -27 123 -27q149 0 291 105q152 113 152 255q0 207 -267 207q-216 0 -431 -157q-232 -171 -232 -378q0 -168 162 -274q143 -94 319 -94q333 0 592 288q157 173 367 580q-344 112 -344 330z
M2331 1346q-280 -17 -486 -113q-280 -130 -280 -363q0 -177 219 -241q117 245 226 395q137 191 321 322z" />
    <glyph glyph-name="K" unicode="K" horiz-adv-x="2114" 
d="M1550 1430q-260 0 -472 -108q-263 -134 -263 -368q0 -88 62 -146t151 -58q113 0 246 101q139 106 139 216q0 57 -36 91t-93 34q-85 0 -156 -57q-75 -61 -75 -144q0 -41 29 -53q33 -13 36 -25q-7 -14 -18 -14q-4 2 -10 4q-21 22 -40.5 44.5t-19.5 53.5q0 91 77 154
q73 59 165 59q75 0 124.5 -49t49.5 -125q0 -132 -118 -231q-112 -94 -247 -94q-142 0 -240 100t-98 242q0 219 210 333q169 92 407 91q236 -1 504 -66q81 -23 163 -47q98 -27 166 -27q27 0 57.5 14.5t37.5 14.5q6 0 8 -16q0 -23 -15 -46q-17 -26 -38 -26q-19 0 -55 8t-54 8
q-182 2 -340 -202q-118 -150 -197 -371q21 10 27 10q8 0 24.5 -3t24.5 -3q143 0 345 197q373 362 376 364q245 197 490 197q86 0 86 -41q0 -20 -19 -38.5t-39 -18.5q-6 0 -36 32.5t-64 32.5q-94 0 -291 -172l-374 -336q-234 -192 -400 -225l-68 -12q23 -11 68 -33
q107 -59 137 -231q13 -141 26 -283q17 -137 97 -137q89 0 147 174l13 14l16 6l15 -8q-10 -78 -86.5 -149.5t-155.5 -71.5q-244 0 -244 301q0 40 4 119.5t4 119.5q0 166 -82 166q-12 0 -28 -4l-8 4l-11 21q-164 -378 -326 -530q-215 -201 -579 -201q-237 0 -402 95
q-200 117 -200 339q0 169 148 272q132 91 309 90q143 0 253 -63q132 -75 132 -205q0 -119 -97 -198q-90 -73 -211 -74q-70 -1 -135 39q-73 46 -73 112q0 36 29.5 67.5t64.5 31.5q8 0 24 -5l9 -8v-6l-7 -12l-8 -2q-30 6 -35 6q-24 0 -40.5 -24.5t-16.5 -49.5q0 -45 45 -75
q40 -27 88 -27q118 -1 220 60q116 72 116 183q0 93 -91 144q-75 43 -175 43q-171 0 -321 -112q-162 -121 -162 -285q0 -145 154 -229q127 -68 286 -68q326 0 585 306q204 298 409 596q247 342 523 398q-243 63 -275 70q-158 35 -282 35z" />
    <glyph glyph-name="L" unicode="L" horiz-adv-x="1485" 
d="M1292 678q-87 -10 -104 -10q-182 0 -312 61q-169 80 -169 240q0 156 130 268q125 106 283 106q96 0 187 -40q104 -46 141 -123v-9q0 -2 -1 -4t-1 -4q-10 -10 -14 -10l-5 2q-56 113 -278 113q-155 0 -276 -73q-142 -85 -142 -230q0 -144 155 -218q122 -58 281 -57
q72 1 136 12q129 275 219 405q140 202 331 314q119 70 185 70q88 0 88 -72q0 -102 -87 -240q-67 -107 -163 -202q-152 -151 -403 -252q-165 -257 -375 -455q162 -107 327 -250q186 -160 252 -209q187 -143 271 -143q87 0 101 37q8 46 15 92l15 6q16 -9 16 -36
q0 -81 -98 -127q-77 -35 -168 -35q-142 0 -303 112q-105 73 -274 242q-180 181 -246 231q-171 -105 -251 -139q-135 -57 -282 -57q-80 0 -143 32q-78 40 -78 113q0 122 152 195q124 60 260 59q202 -1 393 -98q100 104 235 383zM2103 1403q0 55 -57 55q-89 0 -296 -303
q-128 -199 -255 -399q177 52 385 258q223 222 223 389zM592 346v-2q-106 0 -202 -51q-114 -62 -114 -158q0 -117 205 -117q232 0 490 195q-185 133 -379 133z" />
    <glyph glyph-name="M" unicode="M" horiz-adv-x="2114" 
d="M1356 0h2q-57 0 -58 117q-1 194 220 523q70 103 360 472q51 64 68 89q49 68 53 95q0 15 -12 15q-62 0 -562 -645q-222 -288 -233 -300q-145 -172 -278 -258q-169 -110 -355 -110q-191 0 -329 86q-164 101 -164 281q-1 157 138 265q129 99 292 99q126 0 232 -60
q126 -71 126 -188q0 -113 -99 -185q-89 -65 -206 -65q-60 0 -109 19q-65 25 -65 76q0 30 24 41l15 -5l6 -10l-21 -28v-11q0 -59 142 -59q110 0 197 53q100 63 100 166q0 89 -94 144q-79 47 -175 47q-158 0 -300 -97q-158 -107 -158 -258q0 -121 114 -195q99 -65 228 -65
q246 0 537 238q196 161 490 509q329 389 416 472q78 73 101 73q47 0 47 -53q0 -137 -179 -431q-56 -92 -332 -498q-179 -263 -179 -322q0 -8 10 -8q51 18 389 518q382 565 752 776q229 131 403 131q82 0 82 -39q0 -22 -18.5 -40t-40.5 -19l-15 6q-46 51 -77 51
q-146 0 -382 -275q-207 -243 -381.5 -566t-174.5 -466q-1 -98 67 -98q66 0 126 97q82 134 87 139h4q4 0 13 -4q0 -2 1 -6.5t1 -6.5q0 -46 -97.5 -143.5t-146.5 -97.5q-75 0 -121 93q-39 76 -39 159q0 264 300 625q237 287 525 493q-20 -10 -61.5 -30.5t-62.5 -31.5
q-242 -121 -554 -525l-460 -644q-92 -125 -129 -125zM1264 1208q77 0 130 -43q56 -47 56 -123q0 -142 -131 -234q-118 -83 -266 -83q-38 0 -146 33q59 -168 193 -168q38 0 60 16q47 34 48 35h6l5 -2q7 -7 10 -16q-44 -52 -115 -52q-174 0 -240 201q-103 99 -119 120
q-48 66 -48 161q0 218 224 322q169 79 417 79q229 0 514 -41q227 -33 303 -33q19 0 28.5 23.5t36.5 23.5q43 0 43 -24q0 -49 -98 -49q-38 0 -123 12q-263 38 -430 39q-212 1 -342 -28q-172 -40 -307 -148q-170 -137 -170 -279q0 -116 74 -157q0 164 110 287q115 128 277 128
zM1020 754h-2q125 0 251 96q134 103 134 223q0 118 -137 119q-152 1 -260 -122q-105 -118 -105 -273q0 -6 4 -19q67 -24 115 -24z" />
    <glyph glyph-name="N" unicode="N" horiz-adv-x="2019" 
d="M1499 1427l2 3q83 0 248.5 -8.5t247.5 -8.5q285 0 287 47q0 8 -11 19l4 14q13 12 39 12q2 0 6.5 -1t6.5 -1l12 -12q-15 -109 -342 -109q-24 0 -71 2t-70 2q-282 0 -414 -16q-211 -26 -376 -129q-206 -128 -206 -313q0 -89 69 -144q64 -51 154 -51q128 0 251.5 116.5
t123.5 242.5q0 49 -41 79q-37 27 -88 27q-77 0 -157.5 -78.5t-81.5 -156.5q-1 -40 30 -62q2 -1 18 -5q13 -4 13 -7q0 -2 -2 -5t-2 -5q-4 -2 -14 -2l-5 -3l-52 46q-17 22 -17 69q0 96 86 165q81 65 178 65q80 0 131 -51.5t51 -131.5q0 -135 -132 -238q-124 -98 -263 -98
q-131 0 -222 95t-91 227q0 248 244 343q159 62 456 62zM635 723q119 0 216 -76q103 -81 103 -196q0 -112 -101 -191q-95 -74 -208 -74q-75 0 -135 36q-70 43 -70 112q0 74 76 110q17 9 29 9q18 0 20 -15l-10 -10q-96 0 -96 -94q0 -56 57 -86q47 -25 109 -25q109 0 203 61
q106 69 106 173q0 100 -85 149q-69 41 -177 41q-161 0 -306 -95q-163 -107 -163 -259q0 -136 113 -212q99 -67 241 -67q120 0 261 55q138 54 233 136q299 258 688 786q75 103 231 303q61 74 86 74q6 0 19 -12q10 -28 10 -70q0 -193 -105 -472l-194 -454q-98 -230 -98 -323
q0 -4 4 -12q8 -9 18 -9q2 1 6 2q28 26 142 254q446 894 739 1071q134 82 295 84q88 2 88 -36q0 -23 -18.5 -41.5t-41.5 -18.5q-11 0 -46.5 26.5t-63.5 26.5q-169 0 -559 -559q-244 -351 -461 -741q-54 -96 -82 -96q-48 0 -71 95q-15 64 -15 134q0 256 229 705
q58 105 115 210q92 173 92 201q0 15 -14 15q-48 -38 -295 -402q-156 -229 -256 -362q-251 -335 -355 -426q-220 -195 -503 -195q-183 0 -317 94q-150 105 -150 281q0 179 148 288q133 97 319 97z" />
    <glyph glyph-name="O" unicode="O" horiz-adv-x="1436" 
d="M1616 1462q196 0 196 -280q0 -218 -171 -507q-169 -284 -407 -480q-260 -213 -480 -213q-173 0 -282 143q-101 132 -101 309q0 351 305 651.5t661 300.5q23 0 45 -2q123 78 234 78zM1511 1247q0 -99 -100 -175q-93 -71 -197 -71q-28 0 -43 5l-8 10v6l6 6l9 4
q36 -12 59 -12q74 0 152.5 84.5t78.5 159.5q0 59 -63 94q-178 -149 -334 -362q-192 -264 -192 -435q0 -153 133 -153q30 0 55 36h8q12 0 12 -12q0 -10 -8 -14q-46 -29 -80 -29q-84 0 -137 81q-47 71 -47 159q0 200 180 424q148 184 353 315q-18 0 -43 -2q-161 -13 -363 -226
q-180 -192 -314 -453t-134 -421q0 -110 64 -182q68 -75 177 -76q271 -1 600 484q406 596 406 815q0 60 -38 97.5t-97 37.5q-88 0 -181 -72q86 -49 86 -123z" />
    <glyph glyph-name="P" unicode="P" horiz-adv-x="2023" 
d="M1696 1403q-231 0 -454 -142q-252 -159 -251 -376q1 -82 68 -136q62 -51 145 -51q120 0 235 127q111 123 111 244q0 41 -35 69q-32 25 -73 25q-83 0 -158 -59q-80 -63 -80 -143q0 -43 33 -70q13 -1 33 -4q4 -2 4 -15l-4 -6l-8 -4h-9q-27 0 -52 36t-25 65q0 85 88 155
q83 66 170 66q74 0 119.5 -47t45.5 -121q0 -135 -121 -239q-116 -99 -253 -99q-135 0 -222.5 89t-87.5 222q0 228 217 358q181 108 424 109q136 1 279 -35q159 -40 256 -110q249 200 469 200q76 0 128 -29q64 -36 65 -106q0 -98 -103 -173q-94 -68 -196 -68q-48 0 -102 21
q-66 27 -66 67q0 6 4 18l14 19l10 2l8 -11v-4q0 -14 -12 -30v-3q0 -18 34 -31q27 -9 50 -9q95 0 204 64q122 71 122 159q0 48 -58 74q-45 20 -100 20q-113 0 -236 -65q-69 -37 -206 -138q192 -149 192 -348q0 -151 -116 -260q-114 -105 -267 -107q-135 -1 -207 74l-2 10l4 9
l15 6q21 -21 43 -42q17 -16 61 -16q143 0 253 141q102 132 102 279q0 140 -99 238q-186 -145 -355 -506q-198 -420 -293 -533q-207 -247 -560 -247q-216 0 -367 77q-192 99 -192 293q0 158 122 264q116 100 275 101q149 1 266 -57q146 -73 146 -207q0 -103 -91 -173
q-84 -65 -190 -65q-71 0 -132 28q-77 36 -77 99q0 45 27 47h4l2 2q10 -7 10 -18v-4l-20 -17l-6 -10v-6q0 -43 64 -67q48 -17 102 -17q100 0 185 55q97 62 97 156q0 91 -91 139q-72 37 -171 37q-174 0 -319 -87q-168 -101 -168 -263q0 -122 144 -197q118 -61 253 -61
q211 0 402 161q137 117 303 360q247 360 255 372q105 133 347 366q-151 109 -375 109z" />
    <glyph glyph-name="Q" unicode="Q" horiz-adv-x="1436" 
d="M1595 1458q108 0 163 -87q46 -73 46 -187q0 -311 -272 -660q-250 -321 -553 -469l168 -210q116 -124 223 -124q59 0 107.5 38t48.5 96q0 22 -17.5 38t-17.5 31q0 10 10 10q13 0 28 -27t15 -40q0 -103 -101 -168q-89 -57 -198 -57q-136 0 -235 126q-45 56 -138 244
q-70 -22 -139 -22q-159 0 -266 145q-96 131 -96 295q0 206 142 434q138 220 347 365q221 155 428 155q14 1 40.5 -1.5t39.5 -2.5h10q126 78 217 78zM692 186q-39 0 -53.5 -39t-20.5 -38h-2l-10 12v12q28 44 48 59q26 19 75 19q47 0 93 -27q41 -26 81 -53q22 -28 49 -49
q188 103 483 550q300 456 300 658q0 148 -133 148q-51 0 -99 -22q-8 -4 -86 -48q87 -74 86 -133q-1 -97 -105 -171q-95 -69 -196 -69q-37 0 -47 25l12 10q41 -16 64 -16q72 0 152.5 82.5t80.5 154.5q0 74 -67 101q-42 -25 -131 -121q-394 -421 -394 -694q0 -53 38.5 -92
t90.5 -39q27 0 52 28l18 4l12 -6q-2 -18 -33 -31q-25 -12 -46 -12q-85 0 -138 78q-47 69 -47 158q0 196 177 425q157 205 350 312q-21 4 -31 4q-152 0 -360 -216q-185 -193 -329.5 -458.5t-144.5 -412.5q0 -122 72.5 -195.5t194.5 -73.5q54 0 110 23q-69 153 -166 153z" />
    <glyph glyph-name="R" unicode="R" horiz-adv-x="2202" 
d="M1698 1391q-226 0 -448 -138q-251 -155 -251 -366q0 -79 59 -134.5t138 -56.5q103 -1 240 128.5t137 232.5q0 41 -26.5 70t-67.5 28q-119 -2 -138 -96q-7 -37 -16 -37q-2 1 -7 5.5t-5 12.5q0 51 52 93.5t103 42.5q68 0 107 -41.5t39 -108.5q0 -142 -120 -248
q-116 -102 -259 -102q-133 0 -215 84.5t-82 216.5q0 218 215 350q183 113 414 113q286 0 575 -160q271 201 496 203q83 0 136 -36q60 -42 60 -122q0 -104 -101 -175q-92 -65 -200 -65q-55 0 -97 21q-54 26 -54 76q0 46 76 84h8q12 0 12 -17l-4 -6l-48 -22q-26 -16 -26 -43
q0 -61 86 -62q89 -1 199 76q117 83 117 168q0 51 -59 78q-45 22 -101 22q-212 2 -469 -200q94 -102 112 -127q52 -75 52 -158q0 -162 -166 -245q-130 -64 -309 -64q-45 0 -68 2q153 -73 196 -244q10 -38 26 -275q9 -131 81 -131q63 0 92 61q21 53 43 107l17 7l10 -9v-10
q0 -60 -67 -125t-128 -65q-115 0 -184 96q-62 86 -63 207q-1 38 8 109q9 75 10 110q3 149 -72 149q-8 0 -24 -4l-8 2l-15 17q-161 -287 -200 -344q-114 -169 -245 -247q-158 -95 -388 -95q-208 0 -357 74q-190 95 -190 282q0 161 142 266q130 95 298 96q134 1 247 -58
q138 -71 138 -193q0 -105 -97 -170q-86 -58 -196 -58q-71 0 -142 31q-89 40 -89 102q0 56 53 86h12q19 0 17 -10v-6l-6 -6q-62 -16 -62 -51q0 -57 79 -88q59 -23 126 -23q96 0 184 59q98 66 99 156q0 87 -104 132q-79 34 -181 34q-160 0 -313 -85q-179 -99 -179 -249
q0 -132 140 -208q115 -62 260 -62q191 0 372 132q138 101 294 302q120 164 241 328q170 222 340 381q33 32 107 88q-163 125 -418 125zM1845 684q131 0 247 136q112 131 112 263q0 101 -58 148q-214 -184 -405 -529z" />
    <glyph glyph-name="S" unicode="S" horiz-adv-x="1620" 
d="M1317 1296q176 0 276 -79q84 -67 84 -117q0 -4 -1 -9.5t-1 -7.5q-4 -2 -12 -2q-2 1 -6 2q-2 19 -21 64q-27 45 -131 70q-80 20 -155 20q-150 0 -264 -60q-140 -75 -140 -212v-7q133 -6 207 -44q77 -41 150 -148q10 -15 10 -21q15 0 46 -1t46 -1q65 0 205 29
q353 694 657 694q64 0 64 -55q0 -137 -187 -334q-138 -146 -397 -284q-50 -141 -100 -281q-59 -163 -124 -259q-86 -129 -216 -202q-172 -96 -365 -96q-243 0 -404 114q-184 130 -184 363q0 177 122 317q114 129 290 183q32 10 160 29q4 156 122 249q109 86 269 86z
M2310 1417q-13 33 -45 33q-55 0 -141 -59q-126 -88 -218 -258q-72 -154 -145 -308q155 54 344 242q205 205 205 350zM1274 750h2q-62 172 -266 172h-47q38 -81 131 -129q85 -43 180 -43zM1325 723q10 -67 10 -82q0 -157 -123.5 -277.5t-281.5 -121.5q-93 -1 -159 47
q-73 53 -73 143q0 107 78 180q77 70 185 70q84 0 104 -43q-2 -6 -10 -14q-14 13 -26.5 26t-41.5 13q-83 0 -171.5 -82.5t-88.5 -163.5q0 -63 47 -105.5t109 -42.5q147 0 274 148q123 143 123 293v14q-132 25 -195 55q-94 44 -147 135q-190 -32 -354 -214t-164 -371
q0 -150 133 -246q120 -86 274 -86q253 0 455 230q121 138 281 452q12 22 34 72q-126 -29 -272 -29z" />
    <glyph glyph-name="T" unicode="T" horiz-adv-x="1753" 
d="M1167 1454l2 2q202 0 549 -129q307 -114 457 -113q154 2 154 93q0 76 -88 122q-72 37 -156 37q-143 0 -182 -104l-9 -8h-6q-13 3 -16 14q7 58 89 91q66 26 136 26q89 0 162 -44q86 -50 86 -132q0 -94 -109 -156q-92 -53 -194 -53q-170 0 -482 138t-485 138q-37 0 -102 -8
q78 -94 78 -219q0 -110 -63 -201q-71 -101 -177 -102q-74 -1 -125 63q-49 59 -49 135q0 129 78 218q50 58 186 143q-83 96 -244 94q-119 -1 -208 -72q-95 -76 -95 -192q1 -80 47 -121q30 -27 86 -41q50 -12 52 -18v-4l-7 -9l-8 -4h-18q-69 0 -121 65q-49 60 -49 130
q0 126 100 209q95 78 223 78q76 0 144 -32q41 -19 127 -77q148 43 237 43zM662 1047q0 -72 37 -124q42 -57 112 -57q95 0 152 93q49 79 49 180q0 146 -68 227q-124 -35 -199 -112q-83 -87 -83 -207zM1634 1135q119 0 191 -27l10 -14v-7l-2 -4l-10 -8q-19 3 -71 22
q-44 15 -73 15q-154 0 -344 -155q-174 -143 -299 -348q-129 -209 -129 -361q0 -125 78 -201t205 -76q200 0 400 238q192 228 192 432q0 177 -170 178q-135 1 -266 -155q-125 -150 -125 -287q0 -57 32 -99q35 -45 90 -45q76 0 134.5 50t58.5 125l8 12l8 2l7 -2l6 -8v-11
q0 -66 -74.5 -126t-140.5 -60q-81 0 -135 67q-50 63 -50 146q0 163 136 287q132 121 296 121q123 -1 194 -88q66 -81 67 -207q1 -233 -212 -416q-205 -176 -442 -176q-185 0 -291 137q-96 125 -96 315q0 313 256 529q243 205 561 205z" />
    <glyph glyph-name="U" unicode="U" horiz-adv-x="2019" 
d="M2335 1419v2q-2 -8 -2 -22q0 -13 2 -17q21 -18 51 -18q82 0 143 80h21q-727 -1155 -727 -1383q0 -59 43 -59q64 0 146 112q72 97 91 173l6 8q7 2 19 2q8 0 8 -8q0 -59 -107 -183t-165 -124q-111 0 -111 196q0 223 191 557q-552 -745 -738 -745q-71 0 -106 75
q-27 57 -27 138q0 165 133 350q124 150 248 301q133 172 133 305q0 112 -97 181q-87 61 -204 61q-191 0 -379 -152q-198 -160 -198 -346q0 -110 100 -174q-4 62 -4 94q0 153 114 282q118 134 269 134q68 0 119 -53t51 -121q0 -146 -139 -267q-134 -116 -283 -116
q-47 0 -96 16q20 -69 67 -115q53 -53 119 -53q46 0 85.5 33.5t45.5 79.5l8 6q11 0 17 -6q0 -4 2 -8q0 -44 -58 -83q-53 -36 -98 -36q-153 0 -213 193q-84 33 -140 126q-54 90 -54 185q0 199 183 319q160 104 370 103q218 -1 349 -104q144 -113 144 -324q0 -143 -139 -343
q-16 -23 -258 -323q-140 -172 -140 -250q0 -87 78 -88q177 -1 613 606q372 516 499 803h15zM903 709q132 0 274 129.5t142 259.5q0 57 -39 91.5t-96 35.5q-143 1 -257 -139q-108 -132 -108 -279q0 -44 12 -84q79 -14 72 -14z" />
    <glyph glyph-name="V" unicode="V" horiz-adv-x="1753" 
d="M1890 1303h2q-98 0 -176 -37q-99 -47 -100 -133q-1 -61 48 -102.5t112 -41.5q52 0 96 35q12 0 18 -12v-4q0 -18 -48 -31q-38 -10 -64 -10q-76 0 -130.5 51.5t-54.5 126.5q0 112 112 198q104 80 220 80q96 0 225 -42q109 -39 217 -78q262 155 455 155q178 0 178 -100
q0 -77 -113 -122q-91 -37 -182 -36q-66 1 -358 41q-86 -81 -193 -203q-246 -317 -493 -634q-397 -494 -518 -494q-22 0 -50 9q-36 12 -36 30q0 2 0.5 4.5t1.5 5.5l14 8q12 -6 25 -6q12 0 24 4q160 82 251 288q81 181 81 380q0 293 -176 486q-182 200 -471 200
q-179 0 -304 -110q-130 -114 -130 -289q0 -130 86 -228q22 148 159 247q129 93 283 93q119 0 203 -70q90 -74 90 -190q0 -136 -132 -220q-114 -73 -257 -73q-104 0 -179 37q-78 47 -155 94v-32q0 -153 119 -255q113 -96 268 -96q104 0 192 45q102 52 128 142q2 10 12 30
q11 2 10 2h4l10 -12q-29 -102 -140 -166q-101 -59 -214 -59q-200 0 -307 116q-104 113 -102 316q-101 132 -101 279q0 233 186 389q176 149 414 149q271 0 446 -178t175 -451q0 -175 -74 -385q-75 -216 -186 -346q-20 -20 -54 -67l3 -6l12 -7l6 5q7 8 70 63q96 85 204 246
q54 79 166 264q84 138 111 180q65 100 125 170q115 137 336 301q-253 56 -400 56zM2714 1223q86 0 163 29q103 38 103 110q0 74 -152 74q-192 0 -418 -150q223 -63 304 -63zM858 530q130 0 218 63q98 71 98 195q0 108 -93 170q-80 54 -192 54q-312 0 -410 -338
q61 -61 177 -103q110 -41 202 -41z" />
    <glyph glyph-name="W" unicode="W" horiz-adv-x="1931" 
d="M872 1458q210 0 335 -135q120 -131 120 -342q0 -393 -305 -809q-39 -53 -39 -59q0 -7 6 -7q13 0 98 101q164 191 334 596q124 294 181 390q133 221 305 284q45 16 65 16l8 -4l5 -8v-11l-5 -6q-108 -17 -149 -254q-11 -69 -27 -333q-13 -236 -31 -335q-28 -160 -104 -323
l-67 -135q0 -8 6 -8q19 0 115.5 140.5t204.5 371.5q115 243 177 340q117 182 297 325q-177 41 -239 41q-95 0 -166 -45q-82 -53 -82 -141t78 -102q11 -1 23.5 -2.5t11.5 -14.5l-11 -10h-12q-51 0 -82 49q-27 42 -27 96q0 119 108 203q100 78 224 78q48 0 138.5 -26
t130.5 -52q184 127 358 127q57 0 101 -26q53 -30 53 -82q0 -79 -105 -120q-77 -30 -170 -30q-101 0 -270 51q-108 -110 -203 -256q-46 -76 -137 -227q-496 -807 -621 -807l-55 12l-8 8v17q4 2 20 6q13 2 45 14q117 64 117 340q0 58 -8 171.5t-8 170.5q0 238 70 413
q69 171 235 349q-141 -19 -307 -363q-106 -241 -211 -483q-169 -319 -357 -495q-148 -140 -221 -140q-25 0 -61 31l-6 12v5l8 10l10 2q21 -6 43 -6q29 0 88 47q138 110 216 316q71 186 71 382q0 246 -104 403q-121 184 -355 183q-133 -1 -222 -91t-95 -224q109 94 270 94
q127 0 232 -68q120 -77 120 -196q0 -100 -76 -159q-70 -54 -172 -54q-149 0 -256 98q-100 92 -137 242q-96 -110 -96 -228q0 -110 69.5 -187t178.5 -77q122 0 161 82l9 2l8 -2l8 -14q-14 -39 -80 -64q-54 -20 -104 -20q-117 0 -194 77.5t-77 194.5q0 135 115 262l2 17
q-4 187 150 304q140 107 333 107zM2820 1249h-2q54 0 107 22q66 27 67 72q1 91 -141 91q-86 0 -166 -36q-51 -23 -145 -87q69 -20 138 -39q82 -23 142 -23zM823 696q74 0 131.5 48t57.5 120q-1 116 -121 191q-104 65 -227 65q-121 0 -258 -96q7 -149 141 -243
q121 -85 276 -85z" />
    <glyph glyph-name="X" unicode="X" horiz-adv-x="2023" 
d="M1520 602q-410 0 -410 -190q0 -66 37 -87q24 -14 98 -18q8 -8 8 -14l-10 -8q-16 -4 -22 -4q-52 0 -89.5 39.5t-37.5 89.5q0 102 116 178q91 59 320 59q43 0 129 -4q87 159 118 238q56 138 56 258q0 126 -76 204t-203 78q-192 0 -376 -145q-195 -154 -195 -342
q0 -96 71 -160q68 -61 165 -61q130 -1 275 127.5t146 257.5q1 58 -37 91.5t-98 33.5q-107 0 -203 -86q-100 -88 -100 -193q0 -36 35 -53h16q17 0 17 -14l-2 -5q-6 -2 -19 -2q-4 0 -28 9q-50 41 -50 98q0 108 101 190q95 78 207 78q85 0 141.5 -51t56.5 -135
q0 -157 -133 -268q-126 -105 -287 -105q-143 0 -239 97t-96 241q-1 195 173 321q158 113 361 113q210 0 341 -115q138 -122 138 -329q0 -37 -24 -174q152 228 351 397q253 215 466 215q137 0 137 -78q0 -32 -27 -59t-59 -27q-47 0 -59.5 62.5t-75.5 62.5q-180 0 -438 -299
q-227 -262 -301 -471h43q272 0 272 90q0 6 -3.5 21t-2.5 24l2 2q4 12 12 15l13 -15q4 -22 4 -20q0 -27 -19 -60q-55 -98 -299 -98h-47q-117 -255 -117 -422q0 -175 103 -174q76 1 157 129q30 46 101 195l14 8h4v-2q4 -6 4 -19q0 -65 -110 -196q-112 -135 -178 -135
q-90 0 -134 107q-32 78 -32 183q0 82 16 170q-406 -456 -897 -456q-179 0 -321 78q-173 94 -173 258q0 144 134 229q116 73 268 72q86 -1 157 -33q91 -41 91 -115q0 -35 -22 -60.5t-56 -25.5q-30 0 -60 21.5t-30 50.5q0 18 24.5 38.5t24.5 39.5q0 35 -50 55q-38 14 -79 14
q-130 0 -223 -78q-99 -82 -99 -208q0 -150 127 -239q112 -79 269 -79q252 0 472 169q162 125 343 378q10 14 28 45q-39 2 -116 2z" />
    <glyph glyph-name="Y" unicode="Y" horiz-adv-x="1841" 
d="M874 1044h-2q128 0 214 -63q96 -70 96 -193q0 -131 -130 -216q-115 -74 -253 -74q-87 0 -183 33q-101 34 -163 90q6 -175 105.5 -276t272.5 -101q146 0 236 61q55 38 68 61q2 3 26 83q4 13 17 16q18 0 18 -10q0 -107 -139 -176q-114 -57 -234 -58q-178 -1 -287 121
q-105 118 -104 299q-109 135 -108 289q1 230 184 385q175 147 410 147q278 0 449 -178.5t171 -460.5q0 -204 -79 -414t-212 -368q4 -2 10 -8q36 12 140 133q112 130 198 262q96 161 301 473q142 195 375 377q-256 55 -407 55q-95 0 -170 -39q-92 -49 -92 -135
q0 -64 50.5 -110t116.5 -48q51 0 80 31q6 12 21 35h4q10 0 16 -6l2 -8q-17 -68 -116 -68q-81 0 -139 52.5t-58 131.5q0 122 108 206q99 79 224 79q90 0 221 -41q109 -38 217 -76q158 81 218 104q120 46 237 46q186 0 186 -98q0 -84 -120 -131q-92 -35 -193 -35
q-104 0 -348 47q-89 -66 -197 -203q-23 -30 -168 -229q-274 -378 -370 -496q-246 -301 -470 -460q-284 -204 -561 -204q-177 0 -328 87q-180 102 -180 266q0 101 92 175q86 68 191 68q92 0 164 -40q88 -48 88 -132q0 -38 -27.5 -70t-64.5 -32q-35 0 -66 26t-31 60
q0 21 31 42.5t31 39.5q0 39 -45 64q-38 22 -80 22q-95 0 -152.5 -58.5t-58.5 -154.5q-1 -157 146 -253q128 -85 294 -85q349 0 611 292q254 284 254 638q0 291 -183 489q-188 203 -477 203q-173 0 -297 -104q-130 -109 -131 -279q-1 -154 94 -244q108 346 436 346z
M2718 1249v-2q79 0 153 30q95 39 95 107q0 82 -164 82q-188 0 -410 -145q199 -74 326 -72zM807 541h-2q137 0 237 62q117 73 117 202q0 98 -92 162q-82 57 -184 57q-225 0 -344 -162q-80 -108 -80 -188q136 -133 348 -133z" />
    <glyph glyph-name="Z" unicode="Z" horiz-adv-x="1303" 
d="M1008 389v-2q-142 46 -142 135q0 115 167 177q124 46 263 46l204 262q122 148 234 228q143 102 306 125q-51 -2 -154 -2q-96 0 -285.5 32.5t-285.5 32.5q-226 0 -430 -94q-254 -118 -254 -317q0 -87 54.5 -142t139.5 -55q129 0 269 109q147 114 147 237q0 42 -22 72
q-25 33 -64 33q-75 0 -166 -59q-100 -64 -100 -134v-18q10 -18 37 -33v-21l-2 -4h-9q-19 0 -32 34q-11 27 -11 50q0 84 93 148q84 59 172 59q70 0 116 -54q43 -52 43 -124q0 -145 -135 -246q-123 -92 -274 -92q-124 0 -214 76q-95 81 -95 203q0 206 160 346q153 135 364 135
q143 0 417.5 -76t417.5 -76q107 0 166 41q32 22 56 29h12q14 -11 14 -31q0 -50 -42 -64q-6 -3 -85 -12q-146 -16 -363 -244q-27 -29 -300 -356q174 -10 209 -10q62 0 100 32q24 20 46 62q19 36 30 39l4 -2l8 -10v-10l-6 -10q1 -54 -127 -125q-118 -66 -178 -66
q-54 0 -152 21l-244 -263h33q233 0 299 174l8 7l9 4q12 -8 12 -21q0 -45 -79 -100q-65 -45 -122 -62q-89 -25 -176 -22q-111 -102 -172 -150q169 -111 311 -233q106 -93 211 -187q147 -126 256 -192q146 -88 252 -88q70 0 126 33q67 39 67 104q0 54 -56.5 72t-56.5 63
q0 30 33 52q30 20 61 20q39 0 65.5 -33t26.5 -71q0 -144 -134 -225q-113 -68 -267 -68q-191 0 -379 123q-121 80 -316 273q-207 206 -302 276q-228 -173 -394 -173q-67 0 -114 28q-56 34 -56 97q0 105 121 177q105 63 217 63q130 0 297 -90zM1233 670h2q-18 3 -37 2l-43 -2
q-271 -13 -272 -150q-1 -46 48 -80q44 -31 93 -32q143 172 209 262zM496 283h2q-80 0 -158 -49q-88 -54 -88 -128q0 -106 139 -106q100 0 202 53q30 16 177 113q-153 117 -274 117z" />
    <glyph glyph-name="bracketleft" unicode="[" horiz-adv-x="674" 
d="M866 1229q0 9 -7 23q-10 18 -11 24l4 6q15 6 33 6q33 0 100 -8t102 -8q31 0 93 4t94 4q12 0 18 -2l11 -12v-6q0 -35 -72 -35q-11 0 -31 1t-29 1q-63 0 -99 -40q-15 -17 -56 -95l-647 -1239q-27 -51 -27 -78q0 -54 96 -54q13 0 37.5 1.5t36.5 1.5q9 -2 8 0q9 -9 12 -23
q0 -33 -55 -33q-35 0 -104.5 3t-104.5 3q-33 0 -98 -5t-96 -5q-8 0 -13 2l-4 6q4 13 9 17q45 57 133 192q15 29 540 1039q127 244 127 309z" />
    <glyph glyph-name="backslash" unicode="\" horiz-adv-x="569" 
d="M-35 1509h135l504 -1548h-137z" />
    <glyph glyph-name="bracketright" unicode="]" horiz-adv-x="674" 
d="M858 1176q0 42 -70 49q8 0 -100 0q-18 0 -18 24v4q17 29 67 29q30 0 89.5 -4t88.5 -4q37 0 111 6t111 6l8 -6l-2 -14q-11 -10 -31 -31q-78 -85 -426 -756q-350 -676 -350 -749q0 -12 7 -32t7 -30q-10 -6 -33 -6q-32 0 -97.5 7t-98.5 7q-34 0 -101.5 -4t-101.5 -4l-6 2
q-9 9 -12 25q4 25 43 26q138 5 155 14q30 15 90 130l648 1235q22 43 22 76z" />
    <glyph glyph-name="asciicircum" unicode="^" horiz-adv-x="0" 
d="M578 1544l12 8q182 34 311 179q22 24 53 71q7 6 17 6l6 -2q6 -6 6 -14q0 -13 -6 -43.5t-6 -46.5q0 -137 151 -137l8 -13l-4 -8q-23 -16 -84 -16q-124 0 -180 102q-47 -38 -126 -69.5t-136 -32.5q-16 -1 -22 16z" />
    <glyph glyph-name="underscore" unicode="_" horiz-adv-x="1139" 
d="M0 -256v102h1139v-102h-1139z" />
    <glyph glyph-name="grave" unicode="`" horiz-adv-x="0" 
d="M246 1032q49 0 96 -76q61 -99 147 -112q25 -6 25 -15q0 -8 -14 -12q-90 0 -191 40q-127 49 -127 124q0 51 64 51z" />
    <glyph glyph-name="a" unicode="a" 
d="M856 705h8q10 -38 56 -39q53 -2 92 36h16q-234 -351 -323 -600q-15 -39 -15 -49q0 -35 29 -35q53 0 113 98q77 127 90 138h4q12 0 12 -12l-4 -11q-48 -70 -96 -141q-73 -96 -125 -96q-46 0 -72 50q-20 40 -20 89q0 127 55 242q-255 -387 -350 -387q-107 0 -107 209
q0 170 164 337.5t334 167.5q69 0 69 -63q0 -49 -14 -78zM336 12h-2q69 0 253 272q181 268 181 351q0 43 -43 43q-75 0 -253 -275q-173 -267 -175 -356q14 -35 39 -35z" />
    <glyph glyph-name="b" unicode="b" 
d="M1364 1460q139 0 149 -71q-15 -68 -75 -68q-13 0 -56 50t-120 50q-130 0 -265 -163q-63 -77 -180 -277l-373 -639q254 344 361 344q60 0 94 -76q27 -60 27 -129q0 -161 -162.5 -326t-323.5 -165q-85 0 -135 65q-47 59 -47 146q0 95 141 344q116 205 231 411
q146 236 297 354q193 150 437 150zM424 10q83 0 245 258q156 248 156 344q0 52 -43 52q-9 0 -18 -7q-109 -71 -255 -264q-159 -211 -159 -317q0 -27 23.5 -46.5t50.5 -19.5z" />
    <glyph glyph-name="c" unicode="c" horiz-adv-x="584" 
d="M698 698q138 0 138 -125q0 -56 -37 -121q-41 -73 -92 -73q-68 0 -68 78q0 106 129 106l16 8q15 13 15 41q0 64 -72 64q-108 0 -253 -242q-136 -227 -136 -346q0 -30 21 -54t51 -24q65 0 134 66q45 43 100 122q45 66 50 66q13 0 13 -10q0 6 -29 -51q-142 -213 -262 -213
q-81 0 -137 85q-49 75 -50 161q-1 163 151.5 312.5t317.5 149.5z" />
    <glyph glyph-name="d" unicode="d" horiz-adv-x="809" 
d="M1704 1454q176 0 176 -80q0 -20 -28 -42.5t-48 -22.5q-33 0 -76 56t-104 56q-130 0 -262 -166q-63 -79 -176 -280l-377 -672q-98 -175 -98 -244q0 -45 32 -45q62 0 140 119t80 119q12 0 12 -14q0 -43 -94 -145.5t-138 -102.5q-50 0 -78 62q-22 49 -22 108q0 106 72 246
q-274 -416 -389 -416q-103 0 -103 184q0 189 158.5 360t345.5 173q80 0 80 -91q0 -20 -4 -30q225 419 347 565q251 303 554 303zM289 59q0 -49 41 -49q84 0 273 267q183 261 183 356q0 22 -22 45q-4 0 -12.5 1t-12.5 1q-86 0 -270 -265q-180 -258 -180 -356z" />
    <glyph glyph-name="e" unicode="e" horiz-adv-x="584" 
d="M350 96q0 -88 76 -88q84 0 171 117l130 180l10 -4q6 -6 6 -10q0 -6 -21 -40q-25 -41 -26 -42q-151 -219 -276 -219q-79 0 -136 88q-51 78 -51 162q0 152 160 306t314 154q106 0 106 -84q0 -110 -140 -194q-104 -63 -241 -92q-82 -164 -82 -234zM750 649q0 33 -33 33
q-49 0 -151 -139q-86 -114 -120 -189q64 15 70 17q35 10 66 30q61 40 111 108q57 78 57 140z" />
    <glyph glyph-name="f" unicode="f" horiz-adv-x="406" 
d="M451 651q-18 0 -52.5 -1t-52.5 -1q-67 0 -82 8q-4 3 -4 21q17 8 21 8l186 -2q209 398 321 526q222 255 533 256q141 1 141 -75q0 -29 -25 -54.5t-55 -25.5q-26 0 -59.5 61.5t-93.5 61.5q-116 0 -243 -151q-93 -111 -202 -317q-70 -141 -141 -282q20 0 58.5 2t58.5 2
q80 0 80 -24q0 -17 -95 -17q-19 0 -58 1t-58 1l-279 -536q-334 -643 -647 -643q-152 0 -152 94q0 22 26 42.5t50 20.5q51 0 54.5 -66.5t64.5 -66.5q88 0 199 156q83 114 182 319q60 131 121 262z" />
    <glyph glyph-name="g" unicode="g" 
d="M700 365h-2q-258 -379 -360 -379q-55 0 -89 73q-28 59 -28 123q0 177 166.5 348.5t343.5 171.5q76 0 76 -88q0 -34 -12 -65l88 162h10q24 -31 61 -31q22 0 63 11t62 11q3 0 4.5 -0.5t3.5 -1.5l7 -6l2 -12l-9 -6h-4q-53 0 -90 -55q-77 -116 -172 -310q-77 -161 -153 -321
q-258 -521 -605 -522q-83 -1 -151 34q-84 43 -84 119q0 90 84 90q30 0 55 -17q27 -20 27 -50q0 -14 -23.5 -38.5t-23.5 -41.5q0 -38 39 -60q33 -18 73 -18q117 0 258 182q104 134 228 377q78 160 155 320zM344 10q83 0 264 263q176 256 176 352q0 51 -45 51q-84 0 -261 -265
q-173 -257 -173 -354q0 -47 39 -47z" />
    <glyph glyph-name="h" unicode="h" horiz-adv-x="809" 
d="M1376 1460q50 0 96 -16q62 -21 62 -62q0 -22 -22 -42.5t-46 -20.5q-30 0 -75 55.5t-113 55.5q-143 0 -282 -187q-33 -44 -185 -311q-91 -154 -181 -308q-107 -182 -169 -315q74 112 176 227q144 162 209 162q48 0 78 -63q24 -51 24 -105q0 -96 -94 -229
q-137 -191 -147 -213q-19 -18 -19 -39q0 -39 45 -39q34 0 104 85q85 101 91 106h6q14 0 8 -17q-33 -56 -102 -120q-82 -76 -131 -76q-51 0 -83 60q-28 50 -28 106q0 96 123 245q128 156 139 244l-6 19l-16 14q-3 0 -5.5 0.5t-5.5 1.5q-75 0 -291 -302q-165 -232 -251 -390
h-13q-8 12 -12 20q-14 10 -29 10q-45 0 -96 -30h-14l512 911q155 277 291 397q188 166 452 166z" />
    <glyph glyph-name="i" unicode="i" horiz-adv-x="449" 
d="M758 1049q71 0 71 -72q0 -52 -48 -103t-99 -51q-30 0 -52 20t-22 50q0 56 47.5 106t102.5 50zM358 51v2q0 -41 37 -41q34 0 100 67q60 62 74 99q10 6 19 6l6 -6v-4q0 -3 -1 -5.5t-1 -4.5q-124 -172 -207 -172q-58 0 -91 59q-28 49 -28 113q0 101 128 261t128 202
q0 45 -33 45q-43 0 -127.5 -98.5t-87.5 -98.5h-8l-6 6v6q147 209 260 209q50 0 76 -64q18 -48 18 -110q0 -94 -128 -257t-128 -214z" />
    <glyph glyph-name="j" unicode="j" horiz-adv-x="360" 
d="M672 1051q65 0 65 -66q0 -61 -45.5 -105t-107.5 -44q-23 0 -40 27q-16 24 -16 48q0 49 47.5 94.5t96.5 45.5zM465 637q0 33 -39 33q-42 0 -109 -87q-8 -10 -86 -124q-4 -2 -14 -2q-4 5 -6 14q30 64 105 142q87 89 143 89q46 0 77 -59q27 -49 27 -100q2 -142 -166 -445
q-266 -482 -514 -606q-106 -53 -200 -53q-53 0 -95 24q-51 28 -51 76q0 32 28 53q24 18 56 19q43 1 51 -32q2 -8 2 -66l7 -25l10 -10q24 -13 39 -13q126 0 317 349l215 391q203 369 203 432z" />
    <glyph glyph-name="k" unicode="k" horiz-adv-x="852" 
d="M1423 1450q226 0 226 -98q0 -24 -28 -47t-52 -23q-29 0 -54 36q-37 54 -50 66q-41 35 -111 35q-233 0 -441 -360l-399 -692q324 324 492 325q86 1 86 -82q0 -108 -192 -184q-156 -61 -288 -61q116 -23 149 -91q21 -44 21 -176q0 -71 47 -71q45 0 81 65.5t46 65.5
q6 0 9 -17q-14 -57 -72 -106t-117 -49q-68 -1 -117 52.5t-49 125.5q0 20 4 58t4 57q0 89 -69 86l-6 2q-132 -148 -244 -379h-12q-5 39 -49 39q-35 0 -95 -41h-12l604 1048q107 185 291 299q189 117 397 117zM934 543h2q0 53 -66 53q-63 0 -169 -81q-80 -62 -144 -134
q119 3 224 33q153 45 153 129z" />
    <glyph glyph-name="l" unicode="l" horiz-adv-x="360" 
d="M1389 1456v-2q133 0 133 -76q0 -26 -28 -48.5t-54 -22.5q-16 0 -58.5 57t-115.5 57q-173 0 -428 -381q-150 -222 -308 -494q-227 -392 -227 -491q0 -41 47 -41q46 0 111 88q14 18 84 129l10 5h6q6 0 8 -13q0 -45 -92.5 -139t-138.5 -94q-57 -1 -88 61q-25 50 -25 113
q0 164 221 538q204 345 378 510q257 244 565 244z" />
    <glyph glyph-name="m" unicode="m" horiz-adv-x="1167" 
d="M489 645v-2q0 33 -26 33q-53 0 -108 -95q-70 -119 -87 -132h-6q-11 0 -6 10q0 43 87.5 143t129.5 100q44 0 68 -50q18 -40 18 -91q0 -80 -33 -174q57 93 131 182q106 131 156 131q47 1 71 -53q19 -42 19 -94q0 -55 -24 -166q200 313 288 313q53 0 86 -66q26 -53 27 -112
q1 -93 -109 -260.5t-110 -210.5q0 -19 22 -31h17q63 0 162 181l6 4h6q8 0 8 -15q-117 -197 -207 -198q-53 -1 -86 69q-26 56 -26 117q-1 88 113 253t114 202q0 41 -41 41q-44 0 -142 -132q-72 -97 -116 -177l-207 -379h-10l-15 28q-16 9 -43 9q-58 0 -96 -35l-18 -2
q332 572 332 651q0 11 -12.5 24t-22.5 13q-39 0 -139 -131q-76 -99 -119 -174l-222 -383h-10l-2 7q-9 27 -37 27q-44 0 -62 -5q-10 -4 -54 -29h-19l283 485q71 123 71 174z" />
    <glyph glyph-name="n" unicode="n" 
d="M475 639q0 41 -37 41l-14 -8q-47 -28 -94 -118q-52 -97 -60 -103h-6q-4 0 -10 12q22 63 83 144q73 98 122 98q38 0 65 -41q23 -37 23 -78q0 -89 -41 -215q218 336 299 336q51 0 83 -61q25 -50 25 -105q0 -103 -116.5 -274.5t-116.5 -211.5q0 -48 43 -47q27 1 93 79
t71 108l6 4h8q12 0 12 -9q0 -32 -81 -117q-84 -87 -125 -87q-54 0 -91 74q-30 62 -30 122q0 89 116.5 260.5t116.5 208.5q0 6 -4 19l-8 8q-12 4 -21 4q-61 0 -247 -307q-152 -252 -211 -389h-11q-10 39 -51 39q-57 0 -114 -41h-15q338 566 338 655z" />
    <glyph glyph-name="o" unicode="o" horiz-adv-x="719" 
d="M711 700q84 0 132 -71q42 -62 42 -150q0 -163 -153.5 -327.5t-315.5 -165.5q-191 -1 -191 229q0 171 157.5 328t328.5 157zM406 6q74 0 137 107q231 392 231 510q0 57 -82 57q-67 0 -139 -127q-219 -386 -219 -481q0 -66 72 -66z" />
    <glyph glyph-name="p" unicode="p" 
d="M453 637q0 43 -33 43q-59 0 -139.5 -135t-98.5 -135q-2 4 -2 12q0 2 -2 6q21 62 103 162q91 112 143 112q96 2 96 -143q0 -95 -67 -250q65 123 152 233q125 158 206 158q65 0 99 -69q26 -54 26 -125q0 -157 -140 -333q-147 -184 -300 -185q-109 -1 -109 123q0 24 6 49
l-366 -699h-11q-17 45 -59 45q-36 0 -96 -47h-11q603 1065 603 1178zM455 25q77 0 222 265q138 253 138 347q0 35 -39 35q-81 0 -228 -241q-140 -230 -140 -325q0 -81 47 -81z" />
    <glyph glyph-name="q" unicode="q" 
d="M643 289q-115 -145 -146 -178q-110 -117 -178 -117q-51 0 -80 69q-22 53 -22 113q0 176 167 347t343 171q87 0 84 -80q-1 -25 -6 -41l80 132h6q0 -6 4 -15q14 -14 39 -14q23 0 68.5 13t68.5 13q25 0 25 -18q-1 -2 -2 -6q-9 -7 -30 -9.5t-36 -17.5q-42 -42 -186 -303
l-299 -541q-56 -119 -168 -358h-10q-6 49 -64 49q-51 0 -100 -49l-17 2q272 461 459 838zM303 59q0 -39 37 -39q86 0 270 260q178 253 178 349q0 43 -47 43q-81 0 -262 -263q-176 -257 -176 -350z" />
    <glyph glyph-name="r" unicode="r" horiz-adv-x="541" 
d="M473 651q0 10 -12.5 17t-22.5 6h-6q-62 -30 -125 -130.5t-69 -103.5h-5l-8 4l-4 7v10q144 241 234 241q39 0 62 -40q19 -34 20 -76q1 -66 -48 -215q62 108 143 206q114 138 185 138q28 0 48 -21t20 -49q0 -47 -29 -91q-32 -50 -78 -50q-49 0 -53 78q-5 12 -25 16
q-86 -28 -387 -598h-10q-15 33 -61 33t-101 -33h-14q79 119 197 330q149 267 149 321z" />
    <glyph glyph-name="s" unicode="s" horiz-adv-x="584" 
d="M330 473l-13 -8h-6q-12 0 -12 14q268 320 485 320q15 0 32.5 -14.5t17.5 -28.5q0 -35 -27.5 -70t-61.5 -35q-9 0 -41.5 34t-70.5 34q-45 0 -80 -36t-35 -81q0 -80 88 -184.5t88 -167.5q0 -109 -106 -188q-98 -72 -211 -72q-84 0 -144 46q-65 50 -65 132q0 73 49 129.5
t121 56.5q34 0 59 -21t25 -54q0 -32 -20 -62q-22 -35 -52 -35q-17 0 -44 16q-31 18 -42 21q-59 -6 -59 -84q0 -48 36 -80t85 -32q83 0 143 98q52 87 53 176q1 45 -18 131t-19 129q0 48 25 105q-142 -117 -180 -189z" />
    <glyph glyph-name="t" unicode="t" horiz-adv-x="449" 
d="M469 649h2q-45 0 -84 -2q-47 -2 -70 2q-10 10 -10 21l6 10q9 4 174 4l181 332h10l14 -27q17 -8 41 -8q31 0 101 39h8l-185 -336q16 0 46.5 3t46.5 3q57 0 57 -20q0 -3 -1 -5.5t-1 -5.5q-11 -11 -78 -11q-103 0 -88 1q-326 -553 -326 -618q1 -2 1.5 -4t0.5 -4
q20 -16 37 -19q52 0 128 115q82 124 83 125h6l6 -6l1.5 -4.5l1.5 -4.5q0 -54 -92.5 -148.5t-147.5 -94.5q-48 0 -75 62q-21 49 -21 106q0 82 47 168z" />
    <glyph glyph-name="u" unicode="u" 
d="M319 55q0 -35 29 -35q111 0 500 685h8l4 -23q20 -23 55 -23q54 0 109 48h12q-83 -126 -201 -333q-153 -267 -153 -323q0 -37 31 -37q73 0 184 215q23 35 25 35q6 0 10 -4l4 -6v-4q0 -44 -90.5 -151t-134.5 -107q-42 0 -66 50q-20 41 -20 87q0 102 61 248
q-72 -117 -153 -220q-126 -159 -187 -159q-51 0 -83 59q-25 49 -25 105q0 110 121.5 269.5t121.5 209.5q0 29 -26 35q-52 -9 -107 -80q-40 -58 -80 -117l-8 -8q-14 0 -14 16q0 41 84 125t127 84q52 0 82 -59q24 -47 24 -105q0 -108 -122 -269t-122 -208z" />
    <glyph glyph-name="v" unicode="v" horiz-adv-x="674" 
d="M473 702q53 0 85 -62q26 -51 26 -110q0 -96 -107.5 -247.5t-107.5 -196.5q0 -72 73 -72q88 0 205 173q111 164 111 257q0 24 -26.5 61t-26.5 62q0 38 40 81.5t76 43.5q72 0 72 -78q0 -119 -171 -365q-178 -257 -288 -257q-65 0 -118 70q-50 66 -50 133q0 90 113 249
t113 199q0 6 -5 19q-14 16 -34 16q-45 0 -115 -102.5t-76 -102.5q-3 0 -10 14q120 215 221 215z" />
    <glyph glyph-name="w" unicode="w" horiz-adv-x="989" 
d="M827 711q2 -16 19 -39q28 -8 49 -8q28 0 98 47l11 -2q-150 -249 -187 -319q-128 -234 -129 -322q0 -24 17.5 -42t42.5 -18q82 0 203 189q114 179 114 270q0 32 -25.5 65.5t-25.5 47.5q0 41 39.5 79.5t81.5 38.5q63 0 63 -63q0 -112 -172 -374q-180 -273 -281 -273
q-54 0 -86 67q-24 54 -24 117q0 94 35 199q-120 -182 -150 -222q-121 -163 -178 -163q-48 0 -79 66q-25 55 -25 110q0 96 67 200q22 34 125 159q68 81 68 122q0 43 -37 43q-43 0 -99 -81q-71 -103 -83 -113h-7q-10 0 -14 12q10 46 91.5 125.5t125.5 79.5q53 0 82 -59
q23 -46 23 -105q0 -100 -136.5 -276.5t-136.5 -213.5q0 -43 39 -43q118 0 473 699h8z" />
    <glyph glyph-name="x" unicode="x" horiz-adv-x="629" 
d="M334 367l-15 -2q-23 -10 -32 -19q-12 3 -17 21q18 29 84 26q47 -2 68 0q119 190 119 281q-13 24 -25 24q-63 0 -116 -82q-74 -115 -85 -124q-7 -2 -4 -3q-7 0 -14 15q2 49 90.5 134t138.5 85q54 0 85 -50q26 -43 26 -100q0 -72 -23 -127q210 289 316 289q59 0 59 -59
q0 -32 -28 -70q-29 -41 -60 -41q-20 0 -29.5 19t-17.5 37l-18 8h-15q-51 0 -217 -244h49q12 0 37.5 4t38.5 4q6 -6 6 -8q0 -19 -84 -29q-11 0 -32 1t-31 1q-38 -68 -77 -136q-48 -92 -48 -140q0 -72 65 -72q69 0 133 94q94 138 101 144q3 0 6 2q6 0 10 -4l2 -8l-2 -9
q-55 -75 -110 -149q-73 -90 -152 -90q-76 0 -115 67q-32 54 -32 136q0 30 6 61q-68 -120 -170 -235q-136 -154 -223 -154q-41 0 -41 41q0 46 43 61q12 -1 34 -14.5t35 -13.5q105 0 357 428h-76z" />
    <glyph glyph-name="y" unicode="y" 
d="M344 -10q-52 0 -83 66q-25 53 -25 112q0 100 131 265t131 218q0 6 -4 19q-9 12 -35 12q-34 0 -100 -77q-56 -67 -76 -111l-9 -7l-8 -2l-8 2l-4 7q10 48 91.5 129.5t127.5 81.5q54 0 83 -63q24 -49 24 -110q0 -101 -128 -262.5t-128 -226.5q0 -27 34 -27q24 0 68 41
q34 32 131 160q132 174 322 492h6q26 -29 63 -29q20 0 60.5 10t62.5 10q2 0 7 -1t7 -1l9 -8l2 -8l-2 -4l-19 -6q-48 -10 -76 -41q-8 -10 -47 -74q-69 -116 -153 -289q-71 -148 -142 -297q-113 -230 -227 -343q-158 -157 -369 -156q-79 0 -146 32q-83 41 -83 111q0 98 86 98
q26 0 53 -20t27 -45q0 -16 -23.5 -41.5t-23.5 -38.5q0 -38 36 -61q32 -19 72 -19q147 0 301 223q64 92 197 355q38 74 77 149q42 86 64 154q-272 -379 -354 -379z" />
    <glyph glyph-name="z" unicode="z" horiz-adv-x="584" 
d="M428 303q-43 0 -104 -31l-17 7l-4 6q17 45 141 45q25 0 74 -4q32 18 105 109q99 123 104 128q-74 -24 -113 -24q-34 0 -102 13t-102 13q-91 0 -121 -100l-8 -8h-5q-16 0 -16 12q0 58 87.5 164t141.5 106q64 0 127.5 -79.5t94.5 -79.5q22 0 41.5 20.5t19.5 42.5
q0 23 -19.5 46.5t-19.5 33.5q0 20 31 41.5t53 21.5q39 0 39 -51q0 -65 -122 -210q-87 -97 -175 -193h133q14 0 41 16h8q3 0 4.5 -0.5l4.5 -1.5l6 -10v-4l-11 -15q-28 -14 -112 -14q-17 0 -49.5 1t-48.5 1q-140 -140 -299 -270q73 12 110 12q101 0 199 -78q46 -37 143 -145
q70 -78 100 -78q36 0 39 21v6l-8 14v8q0 15 21 25q25 -6 34 -31q-16 -82 -149 -82q-120 0 -210 81q-19 17 -126 150q-65 80 -125 80q-56 0 -113.5 -63.5t-76.5 -63.5q-47 0 -47 29q0 31 71 66q95 46 207 146q94 86 189 171h-66z" />
    <glyph glyph-name="braceleft" unicode="{" horiz-adv-x="684" 
d="M86 602q113 0 148 138q19 75 16 229l-2 88q-4 180 23 269q46 153 190 153h137v-133h-90q-94 0 -94 -168v-232q0 -45 -2 -117q-3 -87 -50 -171q-53 -95 -129 -115v-4q184 -55 181 -408l-2 -178q0 -221 96 -221h90v-133h-137q-98 0 -157 86q-52 76 -52 178v350
q0 94 -36 170q-46 96 -130 96v123z" />
    <glyph glyph-name="bar" unicode="|" horiz-adv-x="532" 
d="M193 1509h149v-1548h-149v1548z" />
    <glyph glyph-name="braceright" unicode="}" horiz-adv-x="684" 
d="M598 479q-84 0 -130 -96q-36 -76 -36 -170v-350q0 -102 -52 -178q-59 -86 -157 -86h-137v133h90q98 0 94 221q-2 127 -2 176q0 156 27 242q42 134 156 168l-2 4q-76 20 -130 114q-47 85 -49 170v351q0 168 -94 168h-90v133h137q213 0 213 -381q0 -25 -1 -69t-1 -60
q0 -163 17 -229q34 -138 147 -138v-123z" />
    <glyph glyph-name="asciitilde" unicode="~" horiz-adv-x="0" 
d="M1061 1675q41 0 59 17q22 20 43 41h4q15 0 15 -13q-29 -70 -90 -124q-68 -60 -138 -60q-43 0 -125.5 28.5t-128.5 28.5q-68 0 -102 -57h-8q-8 0 -12 16q26 61 82 113q65 59 124 59q47 0 138.5 -24.5t138.5 -24.5z" />
    <glyph glyph-name="nonbreakingspace" unicode="&#xa0;" horiz-adv-x="584" 
 />
    <glyph glyph-name="exclamdown" unicode="&#xa1;" horiz-adv-x="809" 
d="M1108 1305q31 0 54.5 -23t23.5 -53q0 -61 -44.5 -110.5t-105.5 -49.5q-29 0 -53.5 24.5t-24.5 53.5q0 64 43.5 111t106.5 47zM956 1004h5q12 -13 12 -21q0 -12 -51 -106q-76 -139 -340 -734q-37 -81 -69 -113q-46 -46 -122 -46q-104 0 -104 63q0 2 1 7.5t1 8.5
q8 49 82 146q211 279 387 526q58 85 176 254q10 15 22 15z" />
    <glyph glyph-name="cent" unicode="&#xa2;" horiz-adv-x="584" 
d="M995 813q-1 -2 -2 -6l-6 -6l-14 -2q-15 8 -45 12q-60 0 -148 -131q56 -34 56 -107q0 -57 -35 -121q-41 -73 -92 -73q-66 0 -70 70q-59 -112 -117 -223q-71 -132 -139 -210q12 -6 29 -6q89 0 187 125q48 65 95 129l13 -10q-37 -81 -121 -166q-98 -99 -170 -100
q-21 -1 -49 10q-102 -107 -183 -107q-54 0 -98 48l-4 14l22 22l11 -8q20 -51 55 -51q86 0 176 94q-53 31 -85 98q-30 62 -30 128q0 165 151 313.5t316 148.5q32 0 54 -8q31 56 84 100q61 51 116 52q43 1 43 -29zM799 596v16q0 36 -29 52q-49 -74 -72 -111q29 10 70 10l16 6
q15 15 15 27zM743 674l2 2h-24q-106 0 -249 -243q-134 -227 -134 -345q0 -31 24 -59q58 69 120 188q51 98 102 197q15 26 159 260z" />
    <glyph glyph-name="sterling" unicode="&#xa3;" horiz-adv-x="1214" 
d="M729 479q-117 6 -115 6q-50 0 -67 -26v-8q0 -4 2 -9v-14l-4 -8l-13 -6l-10 2q-16 16 -16 30q0 64 131 64q-2 0 102 -6q66 463 508 465q201 1 201 -172q0 -71 -43 -151q-49 -93 -113 -93q-80 0 -80 78q0 35 27 76q29 45 61 45q40 0 60 -13h6l6 2q41 19 41 74q0 61 -41 96
t-102 35q-124 0 -243 -175q-45 -65 -153 -284q179 -18 177 -18q20 0 44 13.5t27 13.5q6 0 15 -9v-6q-16 -37 -60 -37q-71 0 -215 21q-94 -142 -231 -289q38 -19 276 -195q195 -145 269 -145q36 0 65 25t29 59q0 60 -59 102q-52 37 -115 37q-45 1 -58 -13q-30 -35 -34 -38
l-11 4l-6 15q9 53 103 53q71 0 131 -41q67 -46 67 -115q0 -73 -76 -114q-62 -33 -141 -33q-146 0 -290 115l-242 208q-152 -110 -256 -110q-97 0 -97 69q0 76 90 124q76 40 158 40q80 0 162 -33q103 115 133 289zM354 166h-2q-49 0 -93 -26q-52 -30 -52 -77q0 -53 72 -53
q85 0 229 107q-72 49 -154 49z" />
    <glyph glyph-name="section" unicode="&#xa7;" horiz-adv-x="809" 
d="M664 989q0 108 86 179q80 67 190 67q80 0 144 -43q71 -49 71 -125q0 -121 -115 -121q-24 0 -47.5 22.5t-23.5 47.5q0 36 50 56t50 58q0 37 -41 59q-35 19 -76 19q-68 0 -111 -35q-46 -38 -46 -104q0 -86 70.5 -250.5t70.5 -255.5q0 -192 -285 -258q29 -116 29 -147
q-1 -109 -81.5 -182.5t-188.5 -73.5q-82 0 -145 45q-68 51 -68 129q0 49 31.5 87.5t80.5 39.5q31 0 59.5 -20t28.5 -50q0 -61 -48 -67q-62 -7 -70 -21q-7 -18 -7 -25q0 -41 45 -68q38 -24 82 -24q148 0 148 150q0 89 -67.5 253t-67.5 253q0 199 274 272q-22 68 -22 133z
M797 487v-2q0 88 -101 346q-145 -48 -145 -163q0 -86 92 -334q154 31 154 153z" />
    <glyph glyph-name="dieresis" unicode="&#xa8;" horiz-adv-x="0" 
d="M344 971q66 0 66 -70q0 -42 -44 -82.5t-87 -40.5q-62 0 -62 68q0 44 41 84.5t86 40.5zM590 969q25 0 43 -20t18 -46q0 -42 -39 -85t-80 -44q-24 0 -44.5 19.5t-20.5 44.5q0 45 39 88t84 43z" />
    <glyph glyph-name="copyright" unicode="&#xa9;" horiz-adv-x="1649" 
d="M786 1313q279 0 475.5 -196t196.5 -474q0 -279 -196 -475.5t-476 -196.5q-278 0 -474.5 197t-196.5 475t197 474t474 196zM786 49q246 0 420 174t174 420q0 244 -174.5 418t-419.5 174q-244 0 -418.5 -174t-174.5 -418t174.5 -419t418.5 -175zM1075 1008l8 -250l-36 -2
q-16 88 -81 146.5t-153 58.5q-123 0 -198 -110q-66 -96 -66 -222q0 -134 62 -215q69 -88 198 -88q83 0 139 24q45 20 117 78l20 -35q-131 -144 -288 -145q-168 -1 -270.5 104t-102.5 275q0 157 100 269q104 116 260 116q35 0 103 -17.5t104 -17.5q39 0 47 31h37z" />
    <glyph glyph-name="guillemotleft" unicode="&#xab;" horiz-adv-x="584" 
d="M473 334q0 -98 -111 -154l-8 4l-4 6v5q0 3 23.5 32.5t23.5 63.5q0 69 -88 115q-13 5 -37 14q-6 6 -6 16t21 10q102 0 198 56q34 27 107 73h2q14 0 14 -16v-4q-23 -38 -83 -70q-50 -23 -101 -47q49 -53 49 -104zM664 322q0 -98 -109 -150h-8q-10 0 -10 10q0 9 22.5 35
t22.5 66q0 71 -99 129l-2 12l8 8q127 36 149 45q71 29 130 88h6q17 -6 17 -14l-3 -6q-29 -56 -178 -117q54 -57 54 -106z" />
    <glyph glyph-name="logicalnot" unicode="&#xac;" horiz-adv-x="1489" 
d="M43 561h1294v-561h-106v453h-1188v108z" />
    <glyph glyph-name="registered" unicode="&#xae;" horiz-adv-x="1649" 
d="M784 -39q-277 0 -473 197t-196 475q0 276 196.5 473t472.5 197q277 0 474.5 -197t197.5 -473q0 -278 -197 -475t-475 -197zM782 1225q-244 0 -416.5 -175t-172.5 -419q0 -246 173 -419t418 -173q246 0 420 174t174 420q0 245 -175.5 418.5t-420.5 173.5zM684 385
q0 -55 90 -55v-37h-311v37q96 0 96 49v561q0 45 -23 54q-8 3 -63 3v35h344q254 0 254 -180q0 -80 -58 -137t-139 -60l232 -299q21 -26 72 -26v-37h-185l-258 346h-51v-254zM684 682q113 4 167 26q89 36 89 128q0 98 -63 132q-44 23 -154 23q-41 0 -41 -37z" />
    <glyph glyph-name="degree" unicode="&#xb0;" horiz-adv-x="834" 
d="M397 750q-120 0 -205.5 84.5t-85.5 203.5q0 122 85 207.5t206 85.5q120 0 205.5 -87t85.5 -206t-86 -203.5t-205 -84.5zM395 1253q-88 0 -149.5 -63t-61.5 -152q0 -87 63 -149t150 -62q88 0 150.5 62t62.5 149q0 88 -63.5 151.5t-151.5 63.5z" />
    <glyph glyph-name="plusminus" unicode="&#xb1;" horiz-adv-x="1145" 
d="M494 795v460h106v-460h461v-109h-461v-461h-106v461h-461v109h461zM33 0v106h1028v-106h-1028z" />
    <glyph glyph-name="acute" unicode="&#xb4;" horiz-adv-x="0" 
d="M326 840h2q38 12 77 23q28 13 62 57q24 36 47 73q30 39 74 39q20 0 40.5 -14.5t20.5 -34.5q0 -80 -125 -128q-98 -38 -194 -38l-6 4l-5 6v7z" />
    <glyph glyph-name="mu" unicode="&#xb5;" horiz-adv-x="1202" 
d="M299 973v-645q0 -226 184 -226q62 0 127 46t90 104v721h168v-746q0 -56 24 -104q29 -60 79 -60q55 0 77 46q15 45 29 90h39q-58 -230 -235 -230q-87 0 -128 56q-28 38 -48 135q-54 -80 -133 -133q-88 -60 -175 -60q-57 0 -106 30l-90 64v-43q0 -54 31.5 -156t31.5 -155
q0 -52 -21 -92q-26 -49 -73 -49t-73 49q-21 40 -21 92q0 53 27.5 155.5t27.5 155.5v955h168z" />
    <glyph glyph-name="paragraph" unicode="&#xb6;" horiz-adv-x="1366" 
d="M1104 1446v-111h-70v-1677h-119v1677h-294v-1677h-119v995q-151 25 -236.5 128.5t-85.5 256.5q0 197 131 306q121 102 322 102h471z" />
    <glyph glyph-name="cedilla" unicode="&#xb8;" horiz-adv-x="0" 
d="M-39 -242q32 21 65 42q42 32 42 61q0 23 -21 31q-32 13 -37 18l-8 20q0 64 90 64q28 0 53 -19.5t25 -46.5q0 -52 -77 -113q-64 -52 -124 -71q-5 -1 -12 8z" />
    <glyph glyph-name="guillemotright" unicode="&#xbb;" horiz-adv-x="584" 
d="M338 428q0 44 36 94q37 54 79 60l6 -4l4 -11q-47 -64 -47 -84q0 -65 52 -108.5t52 -48.5l-4 -4l-8 -5h-10q-67 0 -174.5 -66.5t-104.5 -66.5q-6 3 -6 9q-4 3 -4 8l2 6q36 50 178 119q-51 63 -51 102zM528 422q0 62 93 141q12 6 18 6q10 0 10 -10q0 -5 -23.5 -34.5
t-23.5 -55.5q0 -48 39 -89.5t86 -49.5q6 -4 6 -17l-4 -6q-11 -5 -61 -8q-123 -7 -242 -113q-12 -10 -20 -10q-11 0 -15 10v9l4 10q43 30 86 61q47 32 94 47q-47 61 -47 109z" />
    <glyph glyph-name="questiondown" unicode="&#xbf;" horiz-adv-x="1032" 
d="M1069 1151q0 56 44 104t99 48q29 0 52.5 -25.5t23.5 -54.5q0 -63 -42.5 -108.5t-104.5 -45.5q-31 0 -51.5 25.5t-20.5 56.5zM1063 924q0 20 -21 30l-10 2l-10 13v6q0 19 25 40t45 21q45 0 45 -51q0 -78 -130 -188l-198 -148q-134 -100 -207 -196q-137 -182 -137 -299
q0 -134 143 -134q68 0 137 42q78 47 78 110q0 39 -44 61.5t-44 49.5q0 49 46.5 90t97.5 41q43 0 73.5 -33t30.5 -76q0 -132 -134 -227q-121 -86 -259 -86q-120 0 -205 71q-90 76 -90 195q0 152 199 287q41 28 370 199q199 104 199 180z" />
    <glyph glyph-name="Agrave" unicode="&#xc0;" horiz-adv-x="2019" 
d="M1589 1786q44 0 71 -24q13 -12 46 -60t90.5 -79t114.5 -30q22 1 22 -16q0 -8 -18 -14q-28 -7 -55 -7q-102 0 -206 37q-136 49 -136 129q0 64 71 64zM1581 621h2q144 156 288 313q147 151 286 229q170 96 409 140q2 0 4 2q0 6 -16 14q-261 84 -572 84q-250 0 -462 -101
q-267 -126 -267 -348q0 -63 56 -106q51 -41 116 -41q98 0 214 96q120 101 120 197q0 56 -45 67l-4 7v14l10 4l17 -6q42 -50 45 -56q12 -21 12 -71q0 -106 -117 -194q-110 -83 -221 -83q-113 0 -199 81.5t-86 195.5q0 214 219 319q167 80 408 80q249 0 559 -69
q76 -20 151 -39q89 -22 152 -23q21 0 111 25l22 -9q0 -2 1.5 -8t1.5 -8v-6q-31 -57 -70 -57q-14 0 -39 4t-37 4q-75 0 -121 -12q-229 -62 -547 -621q84 2 154 25q100 32 100 94q0 7 -16 25.5t-16 25.5q0 18 20 32.5t37 14.5q35 0 35 -53q0 -92 -123 -146q-87 -38 -201 -47
q-147 -333 -147 -481q0 -123 76 -123q56 0 103 78q32 62 64 125l11 4h10l10 -8q-8 -52 -79 -136q-74 -87 -122 -87q-94 0 -149 124q-44 98 -45 207q-1 93 76 287h-144q-45 -47 -129 -158q-115 -152 -203 -236q-109 -104 -251 -181q84 -75 186 -74q81 1 113 25q38 35 75 71h5
q12 0 12 -14q0 -46 -86 -78q-68 -25 -125 -25q-94 0 -207 84q-103 -26 -197 -26q-197 0 -334 102q-151 113 -151 305q0 215 163 350q153 127 372 127q142 0 246 -64q120 -75 130 -208q218 21 326 21zM1794 629q44 68 137 198q190 235 504 426q-224 -53 -439 -246
q-138 -125 -341 -382zM926 293q-77 5 -135 40q-72 43 -72 111q0 24 19 54t40 32q13 -4 13 -14q0 -6 -26 -25t-26 -53q0 -108 197 -108q30 104 110 169q63 51 183 95q0 2 1 7t1 7q0 100 -77 156q-69 49 -173 49q-199 0 -388 -136q-206 -149 -206 -341q0 -131 119 -219
q109 -80 244 -80q121 0 223 49q-49 88 -51 164q-1 12 4 43zM1556 594h-75q-74 0 -221 -16q-28 -128 -108 -194q-67 -56 -204 -91q-2 -14 -2 -43q0 -91 45 -154q134 51 306 217q87 83 259 281zM1221 565v2q-183 -27 -260 -231q210 80 260 229z" />
    <glyph glyph-name="Aacute" unicode="&#xc1;" horiz-adv-x="2019" 
d="M1735 1583l8 4q83 0 149 51q25 19 91 93q45 51 77 51q86 0 86 -62q0 -79 -138 -128q-107 -38 -206 -38q-49 0 -65 11l-6 12zM1581 621h2q144 156 288 313q147 151 286 229q170 96 409 140q2 0 4 2q0 6 -16 14q-261 84 -572 84q-250 0 -462 -101q-267 -126 -267 -348
q0 -63 56 -106q51 -41 116 -41q98 0 214 96q120 101 120 197q0 56 -45 67l-4 7v14l10 4l17 -6q42 -50 45 -56q12 -21 12 -71q0 -106 -117 -194q-110 -83 -221 -83q-113 0 -199 81.5t-86 195.5q0 214 219 319q167 80 408 80q249 0 559 -69q76 -20 151 -39q89 -22 152 -23
q21 0 111 25l22 -9q0 -2 1.5 -8t1.5 -8v-6q-31 -57 -70 -57q-14 0 -39 4t-37 4q-75 0 -121 -12q-229 -62 -547 -621q84 2 154 25q100 32 100 94q0 7 -16 25.5t-16 25.5q0 18 20 32.5t37 14.5q35 0 35 -53q0 -92 -123 -146q-87 -38 -201 -47q-147 -333 -147 -481
q0 -123 76 -123q56 0 103 78q32 62 64 125l11 4h10l10 -8q-8 -52 -79 -136q-74 -87 -122 -87q-94 0 -149 124q-44 98 -45 207q-1 93 76 287h-144q-45 -47 -129 -158q-115 -152 -203 -236q-109 -104 -251 -181q84 -75 186 -74q81 1 113 25q38 35 75 71h5q12 0 12 -14
q0 -46 -86 -78q-68 -25 -125 -25q-94 0 -207 84q-103 -26 -197 -26q-197 0 -334 102q-151 113 -151 305q0 215 163 350q153 127 372 127q142 0 246 -64q120 -75 130 -208q218 21 326 21zM1794 629q44 68 137 198q190 235 504 426q-224 -53 -439 -246q-138 -125 -341 -382z
M926 293q-77 5 -135 40q-72 43 -72 111q0 24 19 54t40 32q13 -4 13 -14q0 -6 -26 -25t-26 -53q0 -108 197 -108q30 104 110 169q63 51 183 95q0 2 1 7t1 7q0 100 -77 156q-69 49 -173 49q-199 0 -388 -136q-206 -149 -206 -341q0 -131 119 -219q109 -80 244 -80
q121 0 223 49q-49 88 -51 164q-1 12 4 43zM1556 594h-75q-74 0 -221 -16q-28 -128 -108 -194q-67 -56 -204 -91q-2 -14 -2 -43q0 -91 45 -154q134 51 306 217q87 83 259 281zM1221 565v2q-183 -27 -260 -231q210 80 260 229z" />
    <glyph glyph-name="Acircumflex" unicode="&#xc2;" horiz-adv-x="2019" 
d="M1542 1536l-2 8l12 10q104 31 126 41q56 23 112 68q59 71 143 145l6 -2l5 -6v-8q0 -15 -5.5 -45t-5.5 -45q0 -137 152 -137q8 -9 8 -13q0 -24 -88 -24q-120 0 -182 102q-44 -36 -125 -68.5t-135 -33.5q-14 -1 -21 8zM1581 621h2q144 156 288 313q147 151 286 229
q170 96 409 140q2 0 4 2q0 6 -16 14q-261 84 -572 84q-250 0 -462 -101q-267 -126 -267 -348q0 -63 56 -106q51 -41 116 -41q98 0 214 96q120 101 120 197q0 56 -45 67l-4 7v14l10 4l17 -6q42 -50 45 -56q12 -21 12 -71q0 -106 -117 -194q-110 -83 -221 -83
q-113 0 -199 81.5t-86 195.5q0 214 219 319q167 80 408 80q249 0 559 -69q76 -20 151 -39q89 -22 152 -23q21 0 111 25l22 -9q0 -2 1.5 -8t1.5 -8v-6q-31 -57 -70 -57q-14 0 -39 4t-37 4q-75 0 -121 -12q-229 -62 -547 -621q84 2 154 25q100 32 100 94q0 7 -16 25.5
t-16 25.5q0 18 20 32.5t37 14.5q35 0 35 -53q0 -92 -123 -146q-87 -38 -201 -47q-147 -333 -147 -481q0 -123 76 -123q56 0 103 78q32 62 64 125l11 4h10l10 -8q-8 -52 -79 -136q-74 -87 -122 -87q-94 0 -149 124q-44 98 -45 207q-1 93 76 287h-144q-45 -47 -129 -158
q-115 -152 -203 -236q-109 -104 -251 -181q84 -75 186 -74q81 1 113 25q38 35 75 71h5q12 0 12 -14q0 -46 -86 -78q-68 -25 -125 -25q-94 0 -207 84q-103 -26 -197 -26q-197 0 -334 102q-151 113 -151 305q0 215 163 350q153 127 372 127q142 0 246 -64q120 -75 130 -208
q218 21 326 21zM1794 629q44 68 137 198q190 235 504 426q-224 -53 -439 -246q-138 -125 -341 -382zM926 293q-77 5 -135 40q-72 43 -72 111q0 24 19 54t40 32q13 -4 13 -14q0 -6 -26 -25t-26 -53q0 -108 197 -108q30 104 110 169q63 51 183 95q0 2 1 7t1 7q0 100 -77 156
q-69 49 -173 49q-199 0 -388 -136q-206 -149 -206 -341q0 -131 119 -219q109 -80 244 -80q121 0 223 49q-49 88 -51 164q-1 12 4 43zM1556 594h-75q-74 0 -221 -16q-28 -128 -108 -194q-67 -56 -204 -91q-2 -14 -2 -43q0 -91 45 -154q134 51 306 217q87 83 259 281z
M1221 565v2q-183 -27 -260 -231q210 80 260 229z" />
    <glyph glyph-name="Atilde" unicode="&#xc3;" horiz-adv-x="2019" 
d="M2021 1675h-2q39 0 60 15q23 21 45 43h4q10 0 16 -13q-7 -59 -87 -121.5t-142 -62.5q-44 0 -125.5 28.5t-124.5 28.5q-40 0 -62 -14q-9 -6 -47 -43h-4q-2 0 -4 1t-4 1l-2 8q0 49 78 115q76 63 127 63q47 0 137 -24.5t137 -24.5zM1579 621h2q144 156 288 313
q147 151 286 229q169 96 409 140q2 0 4 2q0 6 -16 14q-261 84 -572 84q-250 0 -462 -101q-267 -126 -267 -348q0 -63 56 -106q51 -41 116 -41q98 0 214 96q120 101 120 197q0 56 -45 67l-4 7v14l10 4l17 -6q42 -50 45 -56q12 -21 12 -71q0 -106 -118 -194q-109 -83 -220 -83
q-114 0 -198 81q-87 82 -87 196q0 214 219 319q167 80 408 80q249 0 559 -69q76 -20 151 -39q89 -22 152 -23q21 0 111 25l22 -9q0 -2 1 -8t1 -8v-6q-30 -57 -69 -57q-14 0 -39 4t-37 4q-75 0 -121 -12q-229 -62 -547 -621q84 2 154 25q100 32 100 94q0 7 -16 25.5t-16 25.5
q0 18 20 32.5t37 14.5q35 0 35 -53q0 -92 -123 -146q-87 -38 -201 -47q-147 -333 -147 -481q0 -123 75 -123q57 0 104 78q32 62 64 125l11 4h10l10 -8q-8 -52 -79 -136q-74 -87 -122 -87q-94 0 -149 124q-44 98 -45 207q-1 93 76 287h-144q-45 -47 -129 -158
q-115 -152 -203 -236q-109 -104 -251 -181q84 -75 186 -74q81 1 113 25q38 35 75 71h5q12 0 12 -14q0 -46 -86 -78q-68 -25 -125 -25q-94 0 -207 84q-103 -26 -197 -26q-197 0 -334 102q-151 113 -151 305q0 215 163 350q153 127 372 127q142 0 246 -64q120 -75 130 -208
q217 21 326 21zM1792 629q44 68 137 198q189 235 504 426q-224 -53 -439 -246q-138 -125 -341 -382zM924 293q-77 5 -135 40q-72 43 -72 111q0 24 19 54t40 32q12 -4 12 -14q0 -6 -25.5 -25t-25.5 -53q0 -108 197 -108q30 104 110 169q62 51 183 95q0 2 1 7t1 7
q0 100 -78 156q-68 49 -172 49q-200 0 -388 -136q-206 -149 -206 -341q0 -131 119 -219q109 -80 244 -80q121 0 223 49q-49 88 -51 164q-1 12 4 43zM1554 594h-75q-74 0 -222 -16q-27 -128 -107 -194q-67 -56 -204 -91q-2 -14 -2 -43q0 -91 45 -154q134 51 306 217
q87 83 259 281zM1219 565v2q-183 -27 -261 -231q211 80 261 229z" />
    <glyph glyph-name="Adieresis" unicode="&#xc4;" horiz-adv-x="2019" 
d="M2454 1733q32 0 54.5 -22t22.5 -54q0 -57 -45 -100.5t-102 -43.5q-26 0 -47 26t-21 52q0 49 44.5 95.5t93.5 46.5zM2746 1729l-2 2q34 0 59 -22.5t25 -55.5q0 -51 -46 -95.5t-97 -44.5q-80 0 -80 78q0 46 47.5 92t93.5 46zM1579 623h2q144 156 288 313q147 151 286 230
q169 95 409 139q2 0 4 2q0 6 -16 14q-261 84 -572 84q-250 0 -462 -101q-267 -126 -267 -348q0 -63 56 -106q51 -41 116 -41q98 0 214 96q120 101 120 197q0 56 -45 67l-4 7v14l10 4l17 -6q42 -50 45 -56q12 -21 12 -71q0 -106 -118 -194q-109 -83 -220 -83q-114 0 -198 81
q-87 82 -87 196q0 214 224 320q171 81 413 81q271 0 631 -90q74 -21 221 -43q21 0 111 25l22 -8q0 -3 1 -9t1 -8v-6q-30 -57 -69 -57q-14 0 -39 4t-37 4q-75 0 -121 -12q-229 -62 -547 -621q84 2 154 25q100 32 100 94q0 7 -16 25.5t-16 25.5q0 18 21 34q19 13 36 13
q35 0 35 -53q0 -92 -123 -146q-87 -38 -201 -47q-147 -333 -147 -481q0 -123 75 -123q57 0 104 78q32 62 64 125l11 4h10l10 -8q-8 -52 -79 -136q-74 -87 -122 -87q-94 0 -149 124q-44 98 -45 207q-1 93 76 287h-144q-45 -47 -129 -158q-115 -152 -203 -236
q-109 -104 -251 -181q84 -75 186 -74q81 1 113 25q38 35 75 71h5q12 0 12 -16q0 -45 -86 -76q-68 -25 -125 -25q-94 0 -207 84q-103 -26 -197 -26q-197 0 -334 102q-153 114 -153 305q0 215 163 350q154 127 374 127q142 0 246 -64q120 -75 130 -208q217 21 326 21z
M1792 631q44 68 137 198q189 235 504 426q-224 -53 -439 -246q-138 -124 -341 -382zM924 295q-77 6 -135 40q-72 43 -72 111q0 24 19 54t40 32q12 -4 12 -14q0 -5 -25.5 -24.5t-25.5 -53.5q0 -108 197 -108q30 104 110 170q62 50 183 94q0 2 1 7t1 7q0 100 -78 156
q-68 49 -172 49q-200 0 -388 -136q-206 -149 -206 -341q0 -131 119 -219q109 -80 244 -80q121 0 223 49q-49 88 -51 164q-1 12 4 43zM1554 596h-75q-74 0 -222 -16q-27 -128 -107 -194q-67 -56 -204 -91q-2 -14 -2 -43q0 -91 45 -154q134 51 306 217q87 83 259 281z
M1219 567v2q-183 -27 -261 -231q211 80 261 229z" />
    <glyph glyph-name="Aring" unicode="&#xc5;" horiz-adv-x="2019" 
d="M2611 1743q33 0 57.5 -25.5t24.5 -58.5q1 -56 -46 -105t-103 -49q-35 0 -62.5 26.5t-27.5 59.5q0 55 51.5 103.5t105.5 48.5zM2542 1534h-2q41 0 83.5 41.5t42.5 81.5q0 22 -16.5 41.5t-36.5 19.5q-44 0 -87 -41t-44 -84q-1 -59 60 -59zM1579 621h2q144 156 288 313
q147 151 286 229q169 96 409 140q2 0 4 2q0 6 -16 14q-261 84 -572 84q-250 0 -462 -101q-267 -126 -267 -348q0 -63 56 -106q51 -41 116 -41q98 0 214 96q120 101 120 197q0 56 -45 67l-4 7v14l10 4l17 -6q42 -50 45 -56q12 -21 12 -71q0 -106 -118 -194q-109 -83 -220 -83
q-114 0 -198 81q-87 82 -87 196q0 214 224 320q171 81 413 81q271 0 631 -90q74 -21 221 -43q21 0 111 25l22 -9q0 -2 1 -8t1 -8v-6q-30 -57 -69 -57q-14 0 -39 4t-37 4q-75 0 -121 -12q-229 -62 -547 -621q84 2 154 25q100 32 100 94q0 7 -16 25.5t-16 25.5q0 18 20 32.5
t37 14.5q35 0 35 -53q0 -92 -123 -146q-87 -38 -201 -47q-147 -333 -147 -481q0 -123 75 -123q57 0 104 78q32 62 64 125l11 4h10l10 -8q-8 -52 -79 -136q-74 -87 -122 -87q-94 0 -149 124q-44 98 -45 207q-1 93 76 287h-144q-45 -47 -129 -158q-115 -152 -203 -236
q-109 -104 -251 -181q84 -75 186 -74q81 1 113 25q38 35 75 71h5q12 0 12 -16q0 -45 -86 -76q-68 -25 -125 -25q-94 0 -207 84q-103 -26 -197 -26q-197 0 -334 102q-153 114 -153 305q0 215 163 350q154 127 374 127q142 0 246 -64q120 -75 130 -208q217 21 326 21z
M1792 629q44 68 137 198q189 235 504 426q-224 -53 -439 -246q-138 -125 -341 -382zM924 293q-77 5 -135 40q-72 43 -72 111q0 24 19 54t40 32q12 -4 12 -14q0 -6 -25.5 -25t-25.5 -53q0 -108 197 -108q30 104 110 169q62 51 183 95q0 2 1 7t1 7q0 100 -78 156
q-68 49 -172 49q-200 0 -388 -136q-206 -149 -206 -341q0 -131 119 -219q109 -80 244 -80q121 0 223 49q-49 88 -51 164q-1 12 4 43zM1554 594h-75q-74 0 -222 -16q-27 -128 -107 -194q-67 -56 -204 -91q-2 -14 -2 -43q0 -91 45 -154q134 51 306 217q87 83 259 281z
M1219 565v2q-183 -27 -261 -231q211 80 261 229z" />
    <glyph glyph-name="AE" unicode="&#xc6;" horiz-adv-x="2605" 
d="M1386 621l390 428q214 215 469 348q-346 37 -463 37q-231 0 -455 -116q-268 -137 -268 -345q0 -67 46.5 -109.5t115.5 -42.5q96 0 188 71q83 64 131 159q31 60 31 75q0 46 -47 50l-6 14l6 14q78 -11 78 -119q0 -125 -112 -209q-102 -77 -230 -77q-281 0 -281 301
q0 70 50 148q46 72 110 114q190 127 536 127q112 0 314 -32q217 -34 315 -38q215 86 358 86q340 0 340 -221q0 -128 -100 -216q-97 -84 -227 -83q-89 1 -162 40q-87 47 -88 128q-1 56 50 95q47 36 105 36q56 0 62 -24v-9q0 -17 -21 -12q-30 27 -59 27q-40 0 -72 -33.5
t-32 -73.5q0 -53 53 -83q44 -25 102 -25q117 -2 227 71q121 81 121 193q0 82 -72 126q-60 38 -147 38q-172 0 -355 -140q-194 -148 -194 -315q0 -79 72 -141q89 10 160 10q194 0 203 -59q-5 -9 -21 -21q-24 -10 -78 -10q-126 0 -266 61q-179 -32 -303 -141
q-100 -88 -170 -211q-78 -137 -78 -256q0 -111 85.5 -193.5t197.5 -82.5q179 0 349 189q167 185 167 366q0 60 -39 102.5t-100 42.5q-122 0 -234.5 -113.5t-112.5 -234.5q0 -129 138 -129q48 0 69 51l11 8l8 2q14 -3 14 -18q0 -23 -46 -45q-40 -19 -65 -19q-79 0 -130 63
q-48 59 -48 140q0 137 121 229q112 85 252 84q124 0 197 -62q80 -65 80 -185q0 -214 -198 -361q-182 -135 -403 -135q-197 0 -332 106q-147 116 -147 310q0 74 53 247q-73 -18 -151 -18q-265 -437 -584 -594q83 -67 201 -67q117 0 166 79q22 37 33 37q16 0 16 -18l-6 -21
q-85 -98 -209 -98q-57 0 -118 20q-71 24 -101 62q-131 -37 -201 -37q-194 0 -334 118q-149 124 -149 314q0 220 167 355q155 127 382 127q143 0 243 -68q115 -77 119 -215q272 27 313 27zM1616 645q101 233 371 488q42 37 127 116q27 37 90 105q-263 -95 -736 -729
q99 12 148 20zM2226 879q-84 66 -112 110q-35 57 -33 154q-37 -41 -107 -125q-140 -187 -180 -293q182 122 432 154zM741 293h-6q-68 0 -128 31q-72 38 -72 100q0 28 18 57l12 8q2 0 6 1.5t7 1.5q6 0 12 -7v-6q0 -11 -19.5 -29t-19.5 -36q0 -53 78 -76q55 -17 121 -14
q55 181 290 264q0 8 1 24t1 23q0 94 -86 145q-71 41 -172 41q-201 0 -382 -151q-191 -158 -191 -355q0 -126 114 -213q106 -79 236 -79q85 0 219 55q-40 132 -39 215zM1362 596h-78q-72 0 -215 -25q-68 -236 -303 -280q-8 -41 -8 -62q0 -78 41 -143q223 96 563 510z
M1030 561h-2q-199 -66 -252 -231q83 16 154 84q66 63 100 147z" />
    <glyph glyph-name="Ccedilla" unicode="&#xc7;" horiz-adv-x="1348" 
d="M1489 1458q129 0 209 -68q84 -73 84 -198q0 -147 -128 -264q-124 -113 -272 -113q-82 0 -146 48q-70 52 -71 132q-1 95 74.5 171.5t171.5 76.5q93 0 105 -51q-3 -8 -13 -8q-4 0 -15 14t-13 14q-13 7 -35 7q-75 0 -153.5 -81t-78.5 -155q0 -59 36 -98t93 -39
q124 0 253 148q124 143 124 268q0 76 -60 124q-56 46 -132 46q-186 0 -427 -201q-179 -148 -333 -352q-118 -157 -205 -332q-117 -236 -117 -408q0 -115 76.5 -193t194.5 -87q-2 29 -54 43q-12 12 -12 32q0 60 88 60q30 0 54 -21t24 -51q0 -26 -25 -55q188 36 366 274
q174 233 175 428q1 162 -162 162q-134 0 -263 -167q-122 -158 -122 -298q0 -42 33 -77t76 -35q62 0 102 39q24 24 47 73q18 39 27 39q16 0 16 -16q0 -42 -68 -98t-110 -56q-81 0 -131 65q-45 60 -45 144q0 166 142 289q135 119 302 119q117 0 181 -96q55 -83 55 -205
q0 -243 -206 -434q-202 -188 -445 -185q-74 -66 -146 -88q-5 -1 -12 8l2 6q43 26 55 34q31 22 45 44q-172 24 -275 172q-93 136 -93 318q0 241 190 514q180 260 448 435q278 183 519 183z" />
    <glyph glyph-name="Egrave" unicode="&#xc8;" horiz-adv-x="1348" 
d="M1268 1786q52 0 108 -65q73 -82 94 -95q27 -15 132 -33q10 -3 10 -14l-4 -8l-15 -8q-27 -7 -55 -7q-101 0 -204 37q-136 48 -136 129q0 64 70 64zM891 1141q0 164 192 258q154 76 338 76q154 0 256 -40q146 -57 146 -186q0 -117 -108 -198q-99 -73 -222 -74
q-86 -1 -159 38q-89 46 -89 126q0 68 66 109q56 36 127 36q87 0 98 -37q-5 -10 -14 -10q-3 0 -5.5 1t-5.5 1q-17 27 -65 27q-62 0 -115 -30q-63 -36 -63 -93q0 -111 184 -111q107 0 216 68q122 77 122 176q0 80 -93 125q-74 37 -163 37q-164 0 -339 -124
q-189 -135 -189 -292q0 -51 21 -83q14 -23 60 -62q35 2 105 2q194 0 250 -54l2 -8q-18 -33 -84 -33q-122 0 -277 74q-232 -22 -431 -234t-199 -444q0 -141 93 -215q85 -67 228 -67q183 0 375 204q188 201 188 385q0 150 -157 150q-119 0 -253 -138t-134 -257
q0 -131 120 -131q115 0 148 129l6 8q4 4 12 4q6 0 11 -8q0 -3 0.5 -5.5t1.5 -4.5q0 -44 -57.5 -92t-102.5 -48q-90 0 -144.5 54.5t-54.5 144.5q0 148 146 258q135 102 288 102q121 0 191 -74q67 -72 67 -194q0 -212 -201 -367q-187 -145 -405 -145q-209 0 -356 115
q-160 124 -160 327q0 259 254 412q195 117 490 150q-156 108 -156 262z" />
    <glyph glyph-name="Eacute" unicode="&#xc9;" horiz-adv-x="1348" 
d="M1413 1583l8 4q85 0 151 51q27 20 91 93q45 51 76 51q86 0 86 -64q0 -80 -141 -128q-104 -36 -209 -38q-37 0 -60 13q-4 8 -4 12q1 2 2 6zM891 1141q0 164 192 258q154 76 338 76q154 0 256 -40q146 -57 146 -186q0 -117 -108 -198q-99 -73 -222 -74q-86 -1 -159 38
q-89 46 -89 126q0 68 66 109q56 36 127 36q87 0 98 -37q-5 -10 -14 -10q-3 0 -5.5 1t-5.5 1q-17 27 -65 27q-62 0 -115 -30q-63 -36 -63 -93q0 -111 184 -111q107 0 216 68q122 77 122 176q0 80 -93 125q-74 37 -163 37q-164 0 -339 -124q-189 -135 -189 -292q0 -51 21 -83
q14 -23 60 -62q35 2 105 2q194 0 250 -54l2 -8q-18 -33 -84 -33q-122 0 -277 74q-232 -22 -431 -234t-199 -444q0 -141 93 -215q85 -67 228 -67q183 0 375 204q188 201 188 385q0 150 -157 150q-119 0 -253 -138t-134 -257q0 -131 120 -131q115 0 148 129l6 8q4 4 12 4
q6 0 11 -8q0 -3 0.5 -5.5t1.5 -4.5q0 -44 -57.5 -92t-102.5 -48q-90 0 -144.5 54.5t-54.5 144.5q0 148 146 258q135 102 288 102q121 0 191 -74q67 -72 67 -194q0 -212 -201 -367q-187 -145 -405 -145q-209 0 -356 115q-160 124 -160 327q0 259 254 412q195 117 490 150
q-156 108 -156 262z" />
    <glyph glyph-name="Ecircumflex" unicode="&#xca;" horiz-adv-x="1348" 
d="M1219 1544l12 10q102 31 127 41q57 24 115 72q62 70 139 141l6 -2l6 -6v-8q0 -15 -6 -45t-6 -45q0 -137 151 -137l9 -13l-5 -8q-21 -16 -84 -16q-124 0 -180 104q-46 -38 -126 -70.5t-136 -33.5q-16 -1 -22 16zM891 1141q0 164 192 258q154 76 338 76q154 0 256 -40
q146 -57 146 -186q0 -117 -108 -198q-99 -73 -222 -74q-86 -1 -159 38q-89 46 -89 126q0 68 66 109q56 36 127 36q87 0 98 -37q-5 -10 -14 -10q-3 0 -5.5 1t-5.5 1q-17 27 -65 27q-62 0 -115 -30q-63 -36 -63 -93q0 -111 184 -111q107 0 216 68q122 77 122 176q0 80 -93 125
q-74 37 -163 37q-164 0 -339 -124q-189 -135 -189 -292q0 -51 21 -83q14 -23 60 -62q35 2 105 2q194 0 250 -54l2 -8q-18 -33 -84 -33q-122 0 -277 74q-232 -22 -431 -234t-199 -444q0 -141 93 -215q85 -67 228 -67q183 0 375 204q188 201 188 385q0 150 -157 150
q-119 0 -253 -138t-134 -257q0 -131 120 -131q115 0 148 129l6 8q4 4 12 4q6 0 11 -8q0 -3 0.5 -5.5t1.5 -4.5q0 -44 -57.5 -92t-102.5 -48q-90 0 -144.5 54.5t-54.5 144.5q0 148 146 258q135 102 288 102q121 0 191 -74q67 -72 67 -194q0 -212 -201 -367
q-187 -145 -405 -145q-209 0 -356 115q-160 124 -160 327q0 259 254 412q195 117 490 150q-156 108 -156 262z" />
    <glyph glyph-name="Edieresis" unicode="&#xcb;" horiz-adv-x="1348" 
d="M1427 1733q33 0 53.5 -25.5t20.5 -58.5q0 -51 -46.5 -92t-98.5 -41q-29 0 -50.5 24t-21.5 53q0 52 46 96t97 44zM1714 1729q82 0 82 -76q0 -52 -45.5 -96.5t-99.5 -45.5q-31 0 -54.5 23t-23.5 55q0 49 46 94.5t95 45.5zM891 1141q0 164 192 258q154 76 338 76
q154 0 256 -40q146 -57 146 -186q0 -117 -108 -198q-99 -73 -222 -74q-86 -1 -159 38q-89 46 -89 126q0 68 66 109q56 36 127 36q87 0 98 -37q-5 -10 -14 -10q-3 0 -5.5 1t-5.5 1q-17 27 -65 27q-62 0 -115 -30q-63 -36 -63 -93q0 -111 184 -111q107 0 216 68
q122 77 122 176q0 80 -93 125q-74 37 -163 37q-164 0 -339 -124q-189 -135 -189 -292q0 -51 21 -83q14 -23 60 -62q35 2 105 2q194 0 250 -54l2 -8q-18 -33 -84 -33q-122 0 -277 74q-232 -22 -431 -234t-199 -444q0 -141 93 -215q85 -67 228 -67q183 0 375 204
q188 201 188 385q0 150 -157 150q-119 0 -253 -138t-134 -257q0 -131 120 -131q115 0 148 129l6 8q4 4 12 4q6 0 11 -8q0 -3 0.5 -5.5t1.5 -4.5q0 -44 -57.5 -92t-102.5 -48q-90 0 -144.5 54.5t-54.5 144.5q0 148 146 258q135 102 288 102q121 0 191 -74q67 -72 67 -194
q0 -212 -201 -367q-187 -145 -405 -145q-209 0 -356 115q-160 124 -160 327q0 259 254 412q195 117 490 150q-156 108 -156 262z" />
    <glyph glyph-name="Igrave" unicode="&#xcc;" horiz-adv-x="1708" 
d="M1438 1786q51 0 108 -64q73 -83 96 -96q31 -17 72 -22q51 -7 68 -13q2 -4 2 -12q0 -12 -19 -16q-55 -7 -57 -7q-101 0 -205 37q-135 48 -135 129q0 27 21.5 45.5t48.5 18.5zM1745 1399q-238 0 -458 -118q-261 -139 -261 -355q0 -92 72 -159t164 -67q127 0 241.5 109.5
t114.5 234.5q0 53 -37 85t-90 32q-73 0 -148 -65q-78 -67 -79 -140q-1 -57 53 -69q2 -4 2 -13q0 -6 -6 -6q-25 0 -49 33q-23 30 -23 55q0 94 75 159q71 63 167 63q77 0 126.5 -49t49.5 -125q0 -134 -115 -232q-110 -94 -246 -94q-132 0 -236 93q-108 96 -108 226
q0 235 192 357q163 104 410 104q238 0 535 -74q68 -19 137 -39q82 -22 142 -22q22 0 58.5 16t55.5 17l17 -19q-10 -71 -74 -71q-17 0 -48.5 6t-47.5 6q-136 0 -271 -129q-112 -108 -235 -420q-159 -404 -329 -567q-222 -213 -609 -213q-238 0 -395 102q-185 119 -185 344
q0 158 155 260q136 88 302 88q145 0 252 -61q129 -74 129 -207q0 -119 -97 -197q-91 -73 -212 -73q-75 0 -134 36q-69 42 -69 111q0 89 104 101q11 -1 25 -17l-6 -6l-6 -4q-7 0 -17.5 2t-15.5 2q-24 0 -44 -22.5t-20 -45.5q0 -115 160 -116q108 -1 202 66q103 74 103 180
q0 92 -82 142q-69 42 -168 42q-172 -1 -327 -110q-170 -120 -170 -285q0 -139 153 -224q129 -71 279 -71q325 0 583 309l406 604q243 347 506 404q-261 96 -553 96z" />
    <glyph glyph-name="Iacute" unicode="&#xcd;" horiz-adv-x="1708" 
d="M1585 1583l8 4q85 0 151 51q27 20 91 93q45 51 76 51q86 0 86 -64q0 -77 -133 -125q-105 -39 -201 -39q-80 0 -80 23q1 2 2 6zM1745 1399q-238 0 -458 -118q-261 -139 -261 -355q0 -92 72 -159t164 -67q127 0 241.5 109.5t114.5 234.5q0 53 -37 85t-90 32q-73 0 -148 -65
q-78 -67 -79 -140q-1 -57 53 -69q2 -4 2 -13q0 -6 -6 -6q-25 0 -49 33q-23 30 -23 55q0 94 75 159q71 63 167 63q77 0 126.5 -49t49.5 -125q0 -134 -115 -232q-110 -94 -246 -94q-132 0 -236 93q-108 96 -108 226q0 235 192 357q163 104 410 104q238 0 535 -74
q68 -19 137 -39q82 -22 142 -22q22 0 58.5 16t55.5 17l17 -19q-10 -71 -74 -71q-17 0 -48.5 6t-47.5 6q-136 0 -271 -129q-112 -108 -235 -420q-159 -404 -329 -567q-222 -213 -609 -213q-238 0 -395 102q-185 119 -185 344q0 158 155 260q136 88 302 88q145 0 252 -61
q129 -74 129 -207q0 -119 -97 -197q-91 -73 -212 -73q-75 0 -134 36q-69 42 -69 111q0 89 104 101q11 -1 25 -17l-6 -6l-6 -4q-7 0 -17.5 2t-15.5 2q-24 0 -44 -22.5t-20 -45.5q0 -115 160 -116q108 -1 202 66q103 74 103 180q0 92 -82 142q-69 42 -168 42
q-172 -1 -327 -110q-170 -120 -170 -285q0 -139 153 -224q129 -71 279 -71q325 0 583 309l406 604q243 347 506 404q-261 96 -553 96z" />
    <glyph glyph-name="Icircumflex" unicode="&#xce;" horiz-adv-x="1708" 
d="M1391 1544l8 10q178 24 315 179q19 23 55 69q6 6 13 6q4 0 12 -8v-8q0 -15 -5 -45t-5 -45q0 -136 151 -139q7 -3 7 -11q0 -24 -87 -24q-64 0 -104 26q-26 17 -78 76q-26 -33 -123 -68q-92 -32 -141 -32q-14 0 -18 14zM1745 1399q-238 0 -458 -118q-261 -139 -261 -355
q0 -92 72 -159t164 -67q127 0 241.5 109.5t114.5 234.5q0 53 -37 85t-90 32q-73 0 -148 -65q-78 -67 -79 -140q-1 -57 53 -69q2 -4 2 -13q0 -6 -6 -6q-25 0 -49 33q-23 30 -23 55q0 94 75 159q71 63 167 63q77 0 126.5 -49t49.5 -125q0 -134 -115 -232q-110 -94 -246 -94
q-132 0 -236 93q-108 96 -108 226q0 235 192 357q163 104 410 104q238 0 535 -74q68 -19 137 -39q82 -22 142 -22q22 0 58.5 16t55.5 17l17 -19q-10 -71 -74 -71q-17 0 -48.5 6t-47.5 6q-136 0 -271 -129q-112 -108 -235 -420q-159 -404 -329 -567q-222 -213 -609 -213
q-238 0 -395 102q-185 119 -185 344q0 158 155 260q136 88 302 88q145 0 252 -61q129 -74 129 -207q0 -119 -97 -197q-91 -73 -212 -73q-75 0 -134 36q-69 42 -69 111q0 89 104 101q11 -1 25 -17l-6 -6l-6 -4q-7 0 -17.5 2t-15.5 2q-24 0 -44 -22.5t-20 -45.5
q0 -115 160 -116q108 -1 202 66q103 74 103 180q0 92 -82 142q-69 42 -168 42q-172 -1 -327 -110q-170 -120 -170 -285q0 -139 153 -224q129 -71 279 -71q325 0 583 309l406 604q243 347 506 404q-261 96 -553 96z" />
    <glyph glyph-name="Idieresis" unicode="&#xcf;" horiz-adv-x="1708" 
d="M1597 1733q74 0 74 -84q0 -54 -45.5 -93.5t-99.5 -39.5q-28 0 -49 24.5t-21 52.5q0 51 45.5 95.5t95.5 44.5zM1888 1729q31 0 55.5 -21t24.5 -51q0 -54 -44.5 -99t-98.5 -45q-33 0 -56.5 22t-23.5 54q0 51 46 95.5t97 44.5zM1745 1399q-238 0 -458 -118
q-261 -139 -261 -355q0 -92 72 -159t164 -67q127 0 241.5 109.5t114.5 234.5q0 53 -37 85t-90 32q-73 0 -148 -65q-78 -67 -79 -140q-1 -57 53 -69q2 -4 2 -13q0 -6 -6 -6q-25 0 -49 33q-23 30 -23 55q0 94 75 159q71 63 167 63q77 0 126.5 -49t49.5 -125q0 -134 -115 -232
q-110 -94 -246 -94q-132 0 -236 93q-108 96 -108 226q0 235 192 357q163 104 410 104q238 0 535 -74q68 -19 137 -39q82 -22 142 -22q22 0 58.5 16t55.5 17l17 -19q-10 -71 -74 -71q-17 0 -48.5 6t-47.5 6q-136 0 -271 -129q-112 -108 -235 -420q-159 -404 -329 -567
q-222 -213 -609 -213q-238 0 -395 102q-185 119 -185 344q0 158 155 260q136 88 302 88q145 0 252 -61q129 -74 129 -207q0 -119 -97 -197q-91 -73 -212 -73q-75 0 -134 36q-69 42 -69 111q0 89 104 101q11 -1 25 -17l-6 -6l-6 -4q-7 0 -17.5 2t-15.5 2q-24 0 -44 -22.5
t-20 -45.5q0 -115 160 -116q108 -1 202 66q103 74 103 180q0 92 -82 142q-69 42 -168 42q-172 -1 -327 -110q-170 -120 -170 -285q0 -139 153 -224q129 -71 279 -71q325 0 583 309l406 604q243 347 506 404q-261 96 -553 96z" />
    <glyph glyph-name="Ntilde" unicode="&#xd1;" horiz-adv-x="2019" 
d="M2021 1675h-2q39 0 60 15q23 21 45 43h4q10 0 16 -13q-7 -59 -87 -121.5t-142 -62.5q-44 0 -125.5 28.5t-124.5 28.5q-40 0 -62 -14q-9 -6 -47 -43h-4q-2 0 -4 1t-4 1l-2 8q0 49 78 115q76 63 127 63q47 0 137 -24.5t137 -24.5zM1497 1427l2 3q83 0 248.5 -8.5
t247.5 -8.5q285 0 286 47q1 8 -10 19l4 14q13 12 39 12q2 0 6 -1t7 -1l12 -12q-15 -109 -342 -109q-24 0 -71 2t-71 2q-281 0 -413 -16q-211 -26 -376 -129q-206 -128 -206 -313q0 -89 69 -144q64 -51 154 -51q128 0 251.5 116.5t123.5 242.5q0 49 -41 79q-38 27 -88 27
q-77 0 -157.5 -78.5t-81.5 -156.5q-1 -40 30 -62q2 -1 18 -5q13 -4 13 -7q0 -2 -2 -5t-2 -5q-4 -2 -14 -2l-5 -3l-52 46q-17 22 -17 69q0 96 86 165q80 65 178 65q80 0 131 -51.5t51 -131.5q0 -135 -132 -238q-124 -98 -263 -98q-131 0 -222 95t-91 227q0 248 244 343
q159 62 456 62zM633 723q119 0 216 -76q103 -81 103 -196q0 -112 -101 -191q-95 -74 -208 -74q-75 0 -135 36q-70 43 -70 112q0 74 76 110q17 9 29 9q18 0 20 -15l-10 -10q-96 0 -96 -94q0 -56 57 -86q47 -25 109 -25q109 0 203 61q106 69 106 173q0 100 -85 149
q-70 41 -177 41q-161 0 -306 -95q-163 -107 -163 -259q0 -136 113 -212q99 -67 241 -67q120 0 261 55q138 54 233 136q298 258 688 786q75 103 231 303q61 74 86 74q6 0 19 -12q10 -28 10 -70q0 -193 -105 -472l-194 -454q-98 -230 -98 -323q0 -4 4 -12q8 -9 18 -9q2 1 6 2
q27 26 141 254q447 894 740 1071q134 82 295 84q88 2 88 -36q0 -23 -18.5 -41.5t-41.5 -18.5q-11 0 -46.5 26.5t-63.5 26.5q-169 0 -559 -559q-244 -351 -461 -741q-54 -96 -82 -96q-48 0 -71 95q-15 64 -15 134q0 256 229 705q58 105 115 210q92 173 92 201q0 15 -14 15
q-48 -38 -295 -402q-156 -229 -256 -362q-251 -335 -355 -426q-220 -195 -503 -195q-183 0 -317 94q-150 105 -150 281q0 179 148 288q133 97 319 97z" />
    <glyph glyph-name="Ograve" unicode="&#xd2;" horiz-adv-x="1436" 
d="M1311 1786q43 0 69 -25q9 -8 45 -59q78 -111 209 -111q11 0 16 -3t5 -9q0 -23 -74 -23q-100 0 -207 38q-137 49 -137 128q0 64 74 64zM1616 1462q196 0 196 -280q0 -218 -171 -507q-169 -284 -407 -480q-260 -213 -480 -213q-173 0 -282 143q-101 132 -101 309
q0 351 305 651.5t661 300.5q23 0 45 -2q123 78 234 78zM1511 1247q0 -99 -100 -175q-93 -71 -197 -71q-28 0 -43 5l-8 10v6l6 6l9 4q36 -12 59 -12q74 0 152.5 84.5t78.5 159.5q0 59 -63 94q-178 -149 -334 -362q-192 -264 -192 -435q0 -153 133 -153q30 0 55 36h8
q12 0 12 -12q0 -10 -8 -14q-46 -29 -80 -29q-84 0 -137 81q-47 71 -47 159q0 200 180 424q148 184 353 315q-18 0 -43 -2q-161 -13 -363 -226q-180 -192 -314 -453t-134 -421q0 -110 64 -182q68 -75 177 -76q271 -1 600 484q406 596 406 815q0 60 -38 97.5t-97 37.5
q-88 0 -181 -72q86 -49 86 -123z" />
    <glyph glyph-name="Oacute" unicode="&#xd3;" horiz-adv-x="1436" 
d="M1454 1583l10 4q85 0 151 51q27 20 91 93q45 51 76 51q86 0 86 -62q0 -81 -141 -129q-108 -37 -211 -37q-64 0 -64 23q1 2 2 6zM1616 1462q196 0 196 -280q0 -218 -171 -507q-169 -284 -407 -480q-260 -213 -480 -213q-173 0 -282 143q-101 132 -101 309q0 351 305 651.5
t661 300.5q23 0 45 -2q123 78 234 78zM1511 1247q0 -99 -100 -175q-93 -71 -197 -71q-28 0 -43 5l-8 10v6l6 6l9 4q36 -12 59 -12q74 0 152.5 84.5t78.5 159.5q0 59 -63 94q-178 -149 -334 -362q-192 -264 -192 -435q0 -153 133 -153q30 0 55 36h8q12 0 12 -12q0 -10 -8 -14
q-46 -29 -80 -29q-84 0 -137 81q-47 71 -47 159q0 200 180 424q148 184 353 315q-18 0 -43 -2q-161 -13 -363 -226q-180 -192 -314 -453t-134 -421q0 -110 64 -182q68 -75 177 -76q271 -1 600 484q406 596 406 815q0 60 -38 97.5t-97 37.5q-88 0 -181 -72q86 -49 86 -123z
" />
    <glyph glyph-name="Ocircumflex" unicode="&#xd4;" horiz-adv-x="1436" 
d="M1264 1536l-2 8l10 10q139 28 265 142l116 112l8 -2l4 -6v-8q0 -15 -5 -45t-5 -45q0 -137 149 -137l6 -4l5 -9q-3 -24 -91 -24q-117 0 -176 102q-46 -36 -126 -68q-83 -33 -138 -34q-14 -1 -20 8zM1616 1462q196 0 196 -280q0 -218 -171 -507q-169 -284 -407 -480
q-260 -213 -480 -213q-173 0 -282 143q-101 132 -101 309q0 351 305 651.5t661 300.5q23 0 45 -2q123 78 234 78zM1511 1247q0 -99 -100 -175q-93 -71 -197 -71q-28 0 -43 5l-8 10v6l6 6l9 4q36 -12 59 -12q74 0 152.5 84.5t78.5 159.5q0 59 -63 94q-178 -149 -334 -362
q-192 -264 -192 -435q0 -153 133 -153q30 0 55 36h8q12 0 12 -12q0 -10 -8 -14q-46 -29 -80 -29q-84 0 -137 81q-47 71 -47 159q0 200 180 424q148 184 353 315q-18 0 -43 -2q-161 -13 -363 -226q-180 -192 -314 -453t-134 -421q0 -110 64 -182q68 -75 177 -76
q271 -1 600 484q406 596 406 815q0 60 -38 97.5t-97 37.5q-88 0 -181 -72q86 -49 86 -123z" />
    <glyph glyph-name="Otilde" unicode="&#xd5;" horiz-adv-x="1436" 
d="M1743 1675h-2q39 0 60 15q22 21 44 43h6q11 0 11 -13q0 -55 -86 -121q-82 -63 -140 -63q-44 0 -125.5 28.5t-124.5 28.5q-39 0 -61 -14q-10 -6 -47 -43h-6q-10 0 -10 10q0 48 77.5 113t126.5 65q47 0 138.5 -24.5t138.5 -24.5zM1614 1462q196 0 196 -280
q0 -218 -171 -507q-169 -284 -407 -480q-260 -213 -480 -213q-173 0 -282 143q-101 132 -101 309q0 351 305 651.5t661 300.5q23 0 45 -2q123 78 234 78zM1509 1247q0 -99 -100 -175q-93 -71 -197 -71q-28 0 -43 5l-8 10v6l6 6l9 4q36 -12 59 -12q74 0 152.5 84.5
t78.5 159.5q0 59 -63 94q-178 -149 -334 -362q-192 -264 -192 -435q0 -153 133 -153q30 0 55 36h8q12 0 12 -12q0 -10 -8 -14q-46 -29 -80 -29q-84 0 -137 81q-47 71 -47 159q0 200 180 424q148 184 353 315q-18 0 -43 -2q-162 -13 -363 -226q-180 -192 -314 -453t-134 -421
q0 -110 64 -182q68 -75 177 -76q271 -1 600 484q406 596 406 815q0 60 -38 97.5t-97 37.5q-88 0 -181 -72q86 -49 86 -123z" />
    <glyph glyph-name="Odieresis" unicode="&#xd6;" horiz-adv-x="1436" 
d="M1505 1731q31 0 55.5 -23t24.5 -53q0 -50 -44 -96.5t-93 -47.5q-80 -1 -80 80q0 49 44.5 94.5t92.5 45.5zM1804 1729q31 0 53.5 -24.5t22.5 -55.5q0 -50 -48.5 -94t-98.5 -44q-30 0 -54 23.5t-24 52.5q0 53 48 97.5t101 44.5zM1618 1460q194 0 194 -270
q0 -218 -167 -506.5t-403 -486.5q-258 -215 -480 -215q-175 0 -287 138q-104 129 -104 308q0 348 301.5 652t650.5 304q37 0 55 -2q135 78 240 78zM1511 1241q0 -99 -103 -174q-95 -68 -198 -68q-16 0 -36 5q-9 8 -9 16l4 6l11 4l45 -10q92 15 165 82q78 72 78 160
q0 55 -63 94q-179 -152 -334 -365q-192 -264 -192 -436q0 -55 30 -99q33 -50 86 -50q50 0 72 36l6 2q14 0 14 -10q0 -18 -28.5 -32.5t-46.5 -14.5q-97 0 -151 82q-46 70 -46 172q0 189 184 414q153 187 349 309q-151 -2 -297 -127q-187 -159 -362 -443q-195 -317 -195 -524
q0 -111 64 -184q67 -78 177 -78q140 0 264 101q198 159 459 557q283 433 283 641q0 133 -142 133q-58 0 -176 -70q88 -62 88 -129z" />
    <glyph glyph-name="Oslash" unicode="&#xd8;" horiz-adv-x="1436" 
d="M391 268q-13 57 -26 172q-1 206 143 433q139 218 351 362q223 151 431 151l86 -6q152 78 240 78q153 0 188 -194q108 78 250 168l2 2l12 -7l7 -10l-2 -10q-40 -45 -126 -100q-69 -44 -139 -88v-60v-33q-4 -82 -30 -163q-98 -309 -395 -626q-332 -355 -617 -355
q-117 0 -219 70.5t-141 180.5q-76 -54 -151 -109q-122 -87 -140 -87q-11 0 -11 12q0 26 128 114q79 52 159 105zM1729 1210q12 46 12 95q0 57 -37.5 95t-93.5 38q-72 0 -187 -70q88 -50 88 -129q0 -92 -99 -170q-93 -72 -189 -74q-17 0 -52 4q-8 13 -8 19l17 10
q8 -1 25.5 -6.5t27.5 -5.5q77 0 156 85t79 163q0 57 -65 90q-180 -153 -314 -333q-163 -217 -204 -405zM819 569v2q-4 23 -4 68q0 197 183 415q136 162 350 312q-23 -2 -66 -2q-137 -18 -329 -219q-173 -182 -309 -420q-137 -242 -144 -381zM492 270q0 -109 60 -183
q66 -78 175 -79q148 -1 326 144q143 116 372.5 467t280.5 530l-829 -582v-14q0 -56 31 -99q34 -48 87 -48q24 0 43 8q9 6 21 22l12 8h6q4 -1 8 -6v-8q0 -17 -29 -31q-25 -12 -44 -12q-74 0 -115 42q-13 13 -70 103l-335 -237v-25z" />
    <glyph glyph-name="Ugrave" unicode="&#xd9;" horiz-adv-x="2019" 
d="M1589 1786q44 0 71 -24q13 -12 46 -60t90.5 -79t114.5 -30q22 1 22 -16q0 -8 -18 -14q-28 -7 -55 -7q-102 0 -206 37q-136 49 -136 129q0 64 71 64zM2335 1419v2q-2 -8 -2 -22q0 -13 2 -17q21 -18 51 -18q82 0 143 80h21q-727 -1155 -727 -1383q0 -59 43 -59
q64 0 146 112q72 97 91 173l6 8q7 2 19 2q8 0 8 -8q0 -59 -107 -183t-165 -124q-111 0 -111 196q0 223 191 557q-552 -745 -738 -745q-71 0 -106 75q-27 57 -27 138q0 165 133 350q124 150 248 301q133 172 133 305q0 112 -97 181q-87 61 -204 61q-191 0 -379 -152
q-198 -160 -198 -346q0 -110 100 -174q-4 62 -4 94q0 153 114 282q118 134 269 134q68 0 119 -53t51 -121q0 -146 -139 -267q-134 -116 -283 -116q-47 0 -96 16q20 -69 67 -115q53 -53 119 -53q46 0 85.5 33.5t45.5 79.5l8 6q11 0 17 -6q0 -4 2 -8q0 -44 -58 -83
q-53 -36 -98 -36q-153 0 -213 193q-84 33 -140 126q-54 90 -54 185q0 199 183 319q160 104 370 103q218 -1 349 -104q144 -113 144 -324q0 -143 -139 -343q-16 -23 -258 -323q-140 -172 -140 -250q0 -87 78 -88q177 -1 613 606q372 516 499 803h15zM903 709q132 0 274 129.5
t142 259.5q0 57 -39 91.5t-96 35.5q-143 1 -257 -139q-108 -132 -108 -279q0 -44 12 -84q79 -14 72 -14z" />
    <glyph glyph-name="Uacute" unicode="&#xda;" horiz-adv-x="2019" 
d="M1735 1583l8 4q83 0 149 51q25 19 91 93q45 51 77 51q86 0 86 -62q0 -79 -138 -128q-107 -38 -206 -38q-49 0 -65 11l-6 12zM2335 1419v2q-2 -8 -2 -22q0 -13 2 -17q21 -18 51 -18q82 0 143 80h21q-727 -1155 -727 -1383q0 -59 43 -59q64 0 146 112q72 97 91 173l6 8
q7 2 19 2q8 0 8 -8q0 -59 -107 -183t-165 -124q-111 0 -111 196q0 223 191 557q-552 -745 -738 -745q-71 0 -106 75q-27 57 -27 138q0 165 133 350q124 150 248 301q133 172 133 305q0 112 -97 181q-87 61 -204 61q-191 0 -379 -152q-198 -160 -198 -346q0 -110 100 -174
q-4 62 -4 94q0 153 114 282q118 134 269 134q68 0 119 -53t51 -121q0 -146 -139 -267q-134 -116 -283 -116q-47 0 -96 16q20 -69 67 -115q53 -53 119 -53q46 0 85.5 33.5t45.5 79.5l8 6q11 0 17 -6q0 -4 2 -8q0 -44 -58 -83q-53 -36 -98 -36q-153 0 -213 193
q-84 33 -140 126q-54 90 -54 185q0 199 183 319q160 104 370 103q218 -1 349 -104q144 -113 144 -324q0 -143 -139 -343q-16 -23 -258 -323q-140 -172 -140 -250q0 -87 78 -88q177 -1 613 606q372 516 499 803h15zM903 709q132 0 274 129.5t142 259.5q0 57 -39 91.5
t-96 35.5q-143 1 -257 -139q-108 -132 -108 -279q0 -44 12 -84q79 -14 72 -14z" />
    <glyph glyph-name="Ucircumflex" unicode="&#xdb;" horiz-adv-x="2019" 
d="M1542 1536l-2 8l12 10q104 31 126 41q56 23 112 68q59 71 143 145l6 -2l5 -6v-8q0 -15 -5.5 -45t-5.5 -45q0 -137 152 -137q8 -9 8 -13q0 -24 -88 -24q-120 0 -182 102q-44 -36 -125 -68.5t-135 -33.5q-14 -1 -21 8zM2335 1419v2q-2 -8 -2 -22q0 -13 2 -17q21 -18 51 -18
q82 0 143 80h21q-727 -1155 -727 -1383q0 -59 43 -59q64 0 146 112q72 97 91 173l6 8q7 2 19 2q8 0 8 -8q0 -59 -107 -183t-165 -124q-111 0 -111 196q0 223 191 557q-552 -745 -738 -745q-71 0 -106 75q-27 57 -27 138q0 165 133 350q124 150 248 301q133 172 133 305
q0 112 -97 181q-87 61 -204 61q-191 0 -379 -152q-198 -160 -198 -346q0 -110 100 -174q-4 62 -4 94q0 153 114 282q118 134 269 134q68 0 119 -53t51 -121q0 -146 -139 -267q-134 -116 -283 -116q-47 0 -96 16q20 -69 67 -115q53 -53 119 -53q46 0 85.5 33.5t45.5 79.5l8 6
q11 0 17 -6q0 -4 2 -8q0 -44 -58 -83q-53 -36 -98 -36q-153 0 -213 193q-84 33 -140 126q-54 90 -54 185q0 199 183 319q160 104 370 103q218 -1 349 -104q144 -113 144 -324q0 -143 -139 -343q-16 -23 -258 -323q-140 -172 -140 -250q0 -87 78 -88q177 -1 613 606
q372 516 499 803h15zM903 709q132 0 274 129.5t142 259.5q0 57 -39 91.5t-96 35.5q-143 1 -257 -139q-108 -132 -108 -279q0 -44 12 -84q79 -14 72 -14z" />
    <glyph glyph-name="Udieresis" unicode="&#xdc;" horiz-adv-x="2019" 
d="M1833 1593q0 49 46.5 94.5t94.5 45.5q29 0 53.5 -23t24.5 -51q0 -54 -46 -100t-99 -46q-30 0 -52 25t-22 55zM2261 1729h2q32 0 57 -21t25 -53q0 -50 -45 -96t-94 -46q-35 0 -59.5 21.5t-24.5 54.5q0 51 45 95.5t94 44.5zM2337 1417v2q-4 -20 -4 -30q0 -3 0.5 -4.5
l1.5 -4.5q21 -18 59 -18q57 0 137 80h17q-223 -355 -415 -693q-310 -549 -310 -675q0 -72 49 -72q57 0 144 113q84 109 85 170q10 12 27 12q2 -1 6 -2l4 -6q-10 -68 -110 -185q-104 -122 -166 -122q-106 0 -105 196q2 232 187 557q-259 -339 -341 -434q-270 -311 -397 -311
q-70 0 -104 78q-27 58 -27 139q0 165 133 347l246 296q133 171 133 309q0 110 -96 178q-86 62 -199 62q-196 0 -384 -149q-198 -158 -199 -349q-1 -62 25 -102q20 -32 77 -74q-6 55 -6 111q0 138 118.5 270.5t254.5 132.5q75 0 128.5 -52.5t53.5 -127.5q0 -139 -140 -261
q-135 -118 -276 -118q-57 0 -106 18q66 -168 184 -168q97 0 137 113l8 6q7 0 15 -8q0 -2 1 -6t1 -6q0 -43 -60 -81q-55 -34 -102 -34q-71 0 -134 63q-60 59 -73 132q-192 99 -192 301q0 201 175 321q154 107 365 107q216 0 351 -94q155 -108 155 -314q0 -145 -140 -352
q-31 -46 -259 -333q-140 -176 -140 -247q0 -88 82 -88q124 0 429 370q219 266 368 501q190 298 311 536h17zM913 709q127 0 266.5 131.5t139.5 257.5q0 58 -39 91.5t-98 33.5q-138 0 -253 -137q-110 -131 -110 -273q0 -56 12 -90q63 -14 82 -14z" />
    <glyph glyph-name="germandbls" unicode="&#xdf;" horiz-adv-x="899" 
d="M440 655q77 184 138 303q104 208 282 345q198 153 412 153q196 0 196 -133q0 -130 -180 -285q-19 -16 -335 -245q-181 -130 -181 -201q0 -38 63 -88q108 -85 118 -95q63 -64 63 -137q0 -114 -120 -202q-110 -80 -228 -80q-85 0 -142 49q-60 52 -61 135q-1 77 46 139
q50 68 126 68q92 0 92 -76q0 -34 -18 -68q-22 -40 -54 -40q-23 0 -50.5 23.5t-39.5 23.5q-28 0 -47.5 -27.5t-19.5 -54.5q0 -59 40.5 -103.5t98.5 -44.5q91 0 143 95q43 78 43 176q0 54 -43.5 154t-44.5 147q0 69 147 203q268 243 274 250q148 156 149 280q0 102 -117 102
q-193 0 -454 -507q-236 -471 -472 -941q-301 -508 -592 -508q-48 0 -90 22q-51 26 -51 71q0 29 24.5 54.5t53.5 25.5q46 0 58 -21q7 -13 7 -59q0 -64 66 -64q93 0 211 174q73 108 246 453q188 375 188 444q0 43 -32 54l-66 12l-6 6v8q0 14 67 14q31 0 92 -4z" />
    <glyph glyph-name="agrave" unicode="&#xe0;" 
d="M608 1032q50 0 97 -74q34 -55 60 -76q33 -28 89 -36q23 -6 23 -17q0 -8 -15 -12q-89 0 -191 40q-127 49 -128 124q-1 51 65 51zM856 705h8q10 -38 56 -39q53 -2 92 36h16q-234 -351 -323 -600q-15 -39 -15 -49q0 -35 29 -35q53 0 113 98q77 127 90 138h4q12 0 12 -12
l-4 -11q-48 -70 -96 -141q-73 -96 -125 -96q-46 0 -72 50q-20 40 -20 89q0 127 55 242q-255 -387 -350 -387q-107 0 -107 209q0 170 164 337.5t334 167.5q69 0 69 -63q0 -49 -14 -78zM336 12h-2q69 0 253 272q181 268 181 351q0 43 -43 43q-75 0 -253 -275
q-173 -267 -175 -356q14 -35 39 -35z" />
    <glyph glyph-name="aacute" unicode="&#xe1;" 
d="M686 840q97 22 162 111q59 81 102 81q23 0 42.5 -16t19.5 -39q0 -76 -128 -123q-100 -37 -194 -37l-8 10v7zM856 705h8q10 -38 56 -39q53 -2 92 36h16q-234 -351 -323 -600q-15 -39 -15 -49q0 -35 29 -35q53 0 113 98q77 127 90 138h4q12 0 12 -12l-4 -11
q-48 -70 -96 -141q-73 -96 -125 -96q-46 0 -72 50q-20 40 -20 89q0 127 55 242q-255 -387 -350 -387q-107 0 -107 209q0 170 164 337.5t334 167.5q69 0 69 -63q0 -49 -14 -78zM336 12h-2q69 0 253 272q181 268 181 351q0 43 -43 43q-75 0 -253 -275q-173 -267 -175 -356
q14 -35 39 -35z" />
    <glyph glyph-name="acircumflex" unicode="&#xe2;" 
d="M518 762q-24 0 -24 16l2 4q3 4 65 17q118 24 232 141q37 47 94 98l14 -6l2 -8q-18 -68 -18 -72q0 -122 98 -149q17 -1 53 -4q11 0 11 -11q0 -6 -7 -12q-21 -14 -79 -14q-66 0 -106 24q-34 21 -77 78q-36 -36 -121.5 -69t-138.5 -33zM856 705h8q10 -38 56 -39q53 -2 92 36
h16q-234 -351 -323 -600q-15 -39 -15 -49q0 -35 29 -35q53 0 113 98q77 127 90 138h4q12 0 12 -12l-4 -11q-48 -70 -96 -141q-73 -96 -125 -96q-46 0 -72 50q-20 40 -20 89q0 127 55 242q-255 -387 -350 -387q-107 0 -107 209q0 170 164 337.5t334 167.5q69 0 69 -63
q0 -49 -14 -78zM336 12h-2q69 0 253 272q181 268 181 351q0 43 -43 43q-75 0 -253 -275q-173 -267 -175 -356q14 -35 39 -35z" />
    <glyph glyph-name="atilde" unicode="&#xe3;" 
d="M936 928h2q37 0 56 22q30 36 38 41h6q13 0 13 -10q0 -40 -84 -131q-27 -29 -80 -29q-35 0 -101.5 20.5t-101.5 20.5q-42 0 -74 -39l-2 -6l-14 -6q-14 0 -14 14q0 43 59 90q56 46 100 46q34 0 98.5 -16.5t98.5 -16.5zM858 705h8q10 -38 56 -39q53 -2 92 36h16
q-234 -351 -323 -600q-15 -39 -15 -49q0 -35 29 -35q53 0 113 98q78 127 90 138h4q12 0 12 -12l-4 -11q-48 -70 -96 -141q-73 -96 -125 -96q-46 0 -72 50q-20 40 -20 89q0 127 55 242q-255 -387 -350 -387q-107 0 -107 209q0 170 164 337.5t334 167.5q69 0 69 -63
q0 -49 -14 -78zM338 12h-2q69 0 253 272q181 268 181 351q0 43 -43 43q-75 0 -253 -275q-173 -267 -175 -356q14 -35 39 -35z" />
    <glyph glyph-name="adieresis" unicode="&#xe4;" 
d="M741 971q50 0 50 -64q0 -49 -41 -89t-91 -40q-23 0 -41 17.5t-18 40.5q0 56 42.5 95.5t98.5 39.5zM985 967q49 0 49 -62q0 -40 -36 -85q-39 -46 -78 -46q-26 0 -49 18.5t-23 43.5q0 52 42 91.5t95 39.5zM854 705h8q5 -37 58 -37q51 0 90 34l14 3q-334 -579 -334 -654
q0 -2 1 -7t1 -7q7 -21 31 -21q39 0 115 115q81 121 86 123q12 0 12 -12q0 -45 -91.5 -146.5t-135.5 -101.5q-43 0 -68 51q-20 42 -20 90q0 61 51 238q-115 -173 -157 -226q-125 -161 -191 -161q-105 0 -105 209q0 169 161 337t329 168q73 0 73 -61q0 -41 -12 -78zM332 10
q77 0 257 273q175 267 175 358q0 37 -41 37q-73 0 -251 -275q-175 -269 -175 -354q0 -39 35 -39z" />
    <glyph glyph-name="aring" unicode="&#xe5;" 
d="M868 991q30 0 51 -23t21 -53q0 -47 -39.5 -93t-87.5 -46q-35 0 -59.5 24.5t-24.5 59.5q0 53 43 92t96 39zM811 799q39 0 73 39t34 80q0 53 -56 53q-43 0 -75.5 -37.5t-32.5 -81.5q0 -21 17.5 -37t39.5 -16zM854 705h8l8 -21q11 -14 52 -18q51 0 88 36h14
q-334 -556 -334 -653q0 -2 1 -7t1 -7q-1 -5 27 -19q53 2 112 103q72 122 89 135h6q10 0 10 -12l-2 -11q-48 -70 -96 -141q-71 -96 -125 -96q-47 0 -72 50q-19 39 -18 91q1 86 51 240q-258 -391 -352 -391q-57 0 -84 82q-19 58 -19 131q0 171 161.5 337t332.5 166
q69 0 69 -63q0 -27 -12 -76zM330 10q78 0 258 272q176 264 176 357q0 39 -39 39q-77 0 -255 -275q-173 -268 -173 -358q0 -35 33 -35z" />
    <glyph glyph-name="ae" unicode="&#xe6;" horiz-adv-x="989" 
d="M862 711h10v-4q0 -19 17 -35q16 -4 24 -4q32 0 93 19.5t94 19.5q36 0 67 -24t31 -60q0 -117 -144 -203q-103 -63 -249 -94q-84 -168 -84 -238q0 -29 18.5 -53t46.5 -25q86 -1 186 99q86 87 124 182l6 6h6q12 0 12 -14q-9 -69 -133.5 -181t-193.5 -112q-83 0 -134 87
q-44 76 -44 168q0 13 1 25q-86 -126 -123 -170q-96 -112 -161 -112q-54 0 -84 81q-23 61 -23 126q0 170 158 338q160 172 328 172q82 0 82 -68q0 -38 -13 -72zM1124 635q0 53 -41 53q-55 0 -148 -141q-59 -97 -118 -195q106 8 204 92q103 88 103 191zM305 49q0 -39 43 -39
q74 0 252 274q174 268 174 357q0 39 -47 39q-81 0 -254 -272q-168 -263 -168 -359z" />
    <glyph glyph-name="ccedilla" unicode="&#xe7;" horiz-adv-x="584" 
d="M240 -242l64 42q42 31 42 57q0 25 -32.5 38t-32.5 35q0 64 90 64q28 0 53 -20.5t25 -49.5q0 -48 -79 -112q-72 -58 -126 -70q-11 10 -11 6q2 6 7 10zM698 698q138 0 138 -125q0 -56 -37 -121q-41 -73 -92 -73q-68 0 -68 78q0 106 129 106l16 8q15 13 15 41q0 64 -72 64
q-108 0 -253 -242q-136 -227 -136 -346q0 -30 21 -54t51 -24q65 0 134 66q45 43 100 122q45 66 50 66q13 0 13 -10q0 6 -29 -51q-142 -213 -262 -213q-81 0 -137 85q-49 75 -50 161q-1 163 151.5 312.5t317.5 149.5z" />
    <glyph glyph-name="egrave" unicode="&#xe8;" horiz-adv-x="584" 
d="M524 1032q50 0 97 -74q35 -55 60 -76q33 -28 89 -36q23 -6 23 -17q0 -8 -15 -12q-89 0 -191 40q-127 49 -128 124q-1 51 65 51zM350 96q0 -88 76 -88q84 0 171 117l130 180l10 -4q6 -6 6 -10q0 -6 -21 -40q-25 -41 -26 -42q-151 -219 -276 -219q-79 0 -136 88
q-51 78 -51 162q0 152 160 306t314 154q106 0 106 -84q0 -110 -140 -194q-104 -63 -241 -92q-82 -164 -82 -234zM750 649q0 33 -33 33q-49 0 -151 -139q-86 -114 -120 -189q64 15 70 17q35 10 66 30q61 40 111 108q57 78 57 140z" />
    <glyph glyph-name="eacute" unicode="&#xe9;" horiz-adv-x="584" 
d="M604 840h2q39 12 77 24q26 12 60 56l50 72q32 40 73 40q23 0 42.5 -15.5t19.5 -37.5q0 -77 -127 -125q-99 -37 -193 -37l-6 4l-4 6v9q2 1 6 4zM352 96q0 -88 76 -88q84 0 171 117l130 180l10 -4q6 -6 6 -10q0 -6 -21 -40q-25 -41 -26 -42q-151 -219 -276 -219
q-78 0 -136 88q-50 78 -50 162q0 152 159.5 306t313.5 154q106 0 106 -84q0 -110 -140 -194q-104 -63 -241 -92q-82 -164 -82 -234zM752 649q0 33 -33 33q-49 0 -151 -139q-86 -114 -119 -189q63 15 69 17q35 10 66 30q61 40 111 108q57 78 57 140z" />
    <glyph glyph-name="ecircumflex" unicode="&#xea;" horiz-adv-x="584" 
d="M434 762h2q-2 0 -7 1t-7 1l-6 4q-4 4 -4 12q0 10 28 15q19 2 37 4q115 24 232 141q39 48 96 98l12 -6l2 -8q-16 -66 -16 -72q0 -153 137 -153q23 0 23 -11q0 -1 -1 -4.5t-1 -7.5q-29 -14 -82 -14q-119 0 -181 102q-46 -38 -125 -69q-82 -33 -139 -33zM352 96
q0 -88 76 -88q84 0 171 117l130 180l10 -4q6 -6 6 -10q0 -6 -21 -40q-25 -41 -26 -42q-151 -219 -276 -219q-78 0 -136 88q-50 78 -50 162q0 152 159.5 306t313.5 154q106 0 106 -84q0 -110 -140 -194q-104 -63 -241 -92q-82 -164 -82 -234zM752 649q0 33 -33 33
q-49 0 -151 -139q-86 -114 -119 -189q63 15 69 17q35 10 66 30q61 40 111 108q57 78 57 140z" />
    <glyph glyph-name="edieresis" unicode="&#xeb;" horiz-adv-x="584" 
d="M625 971q61 0 61 -70q0 -44 -42 -83.5t-87 -39.5q-61 0 -61 68q0 45 41.5 85t87.5 40zM868 969q63 0 62 -68q-1 -42 -39.5 -83.5t-79.5 -41.5q-25 0 -45.5 18.5t-20.5 43.5q0 45 39 88t84 43zM350 96q0 -88 76 -88q84 0 171 117l130 180l10 -4q6 -6 6 -10q0 -6 -21 -40
q-25 -41 -26 -42q-151 -219 -276 -219q-79 0 -136 88q-51 78 -51 162q0 152 160 306t314 154q106 0 106 -84q0 -110 -140 -194q-104 -63 -241 -92q-82 -164 -82 -234zM750 649q0 33 -33 33q-49 0 -151 -139q-86 -114 -120 -189q64 15 70 17q35 10 66 30q61 40 111 108
q57 78 57 140z" />
    <glyph glyph-name="igrave" unicode="&#xec;" horiz-adv-x="449" 
d="M461 1032q52 0 100 -76q42 -66 74 -89q20 -14 48.5 -16t43.5 -13l2 -9q0 -10 -10 -10q-92 0 -193 39q-127 48 -127 123q0 51 62 51zM358 51v2q0 -41 37 -41q34 0 100 67q60 62 74 99q10 6 19 6l6 -6v-4q0 -3 -1 -5.5t-1 -4.5q-124 -172 -207 -172q-58 0 -91 59
q-28 49 -28 113q0 101 128 261t128 202q0 45 -33 45q-43 0 -127.5 -98.5t-87.5 -98.5h-8l-6 6v6q147 209 260 209q50 0 76 -64q18 -48 18 -110q0 -94 -128 -257t-128 -214z" />
    <glyph glyph-name="iacute" unicode="&#xed;" horiz-adv-x="449" 
d="M805 1032q21 0 41 -14.5t20 -34.5q0 -80 -126 -128q-98 -38 -195 -38l-8 4q-2 4 -2 13q0 7 20 10q83 14 129 76q24 37 47 73q30 39 74 39zM358 51v2q0 -41 37 -41q34 0 100 67q60 62 74 99q10 6 19 6l6 -6v-4q0 -3 -1 -5.5t-1 -4.5q-124 -172 -207 -172q-58 0 -91 59
q-28 49 -28 113q0 101 128 261t128 202q0 45 -33 45q-43 0 -127.5 -98.5t-87.5 -98.5h-8l-6 6v6q147 209 260 209q50 0 76 -64q18 -48 18 -110q0 -94 -128 -257t-128 -214z" />
    <glyph glyph-name="icircumflex" unicode="&#xee;" horiz-adv-x="449" 
d="M373 762q-2 0 -7.5 1t-7.5 1q-10 3 -10 14q0 8 66 21q132 26 268 176q12 18 39 55q8 8 20 8l13 -6q0 -2 0.5 -4t1.5 -4q0 -12 -8.5 -35.5t-8.5 -36.5q0 -123 99 -147q17 -1 53 -6q12 -4 8 -17l-4 -6q-24 -14 -78 -14q-122 0 -184 102q-46 -38 -124 -69q-81 -33 -136 -33z
M358 51v2q0 -41 37 -41q34 0 100 67q60 62 74 99q10 6 19 6l6 -6v-4q0 -3 -1 -5.5t-1 -4.5q-124 -172 -207 -172q-58 0 -91 59q-28 49 -28 113q0 101 128 261t128 202q0 45 -33 45q-43 0 -127.5 -98.5t-87.5 -98.5h-8l-6 6v6q147 209 260 209q50 0 76 -64q18 -48 18 -110
q0 -94 -128 -257t-128 -214z" />
    <glyph glyph-name="idieresis" unicode="&#xef;" horiz-adv-x="449" 
d="M561 971q64 0 64 -70q0 -45 -43 -84t-88 -39q-60 0 -62 68q-1 45 41 85t88 40zM805 969q63 0 61 -66q-1 -42 -38.5 -85t-77.5 -44q-27 0 -46.5 19t-19.5 45q0 45 38 88t83 43zM358 51v2q0 -41 37 -41q34 0 100 67q60 62 74 99q10 6 19 6l6 -6v-4q0 -3 -1 -5.5t-1 -4.5
q-124 -172 -207 -172q-58 0 -91 59q-28 49 -28 113q0 101 128 261t128 202q0 45 -33 45q-43 0 -127.5 -98.5t-87.5 -98.5h-8l-6 6v6q147 209 260 209q50 0 76 -64q18 -48 18 -110q0 -94 -128 -257t-128 -214z" />
    <glyph glyph-name="ntilde" unicode="&#xf1;" 
d="M936 928h2q37 0 56 22q30 36 38 41h6q13 0 13 -10q0 -40 -84 -131q-27 -29 -80 -29q-35 0 -101.5 20.5t-101.5 20.5q-42 0 -74 -39l-2 -6l-14 -6q-14 0 -14 14q0 43 59 90q56 46 100 46q34 0 98.5 -16.5t98.5 -16.5zM477 639q0 41 -37 41l-14 -8q-47 -28 -94 -118
q-52 -97 -60 -103h-6q-4 0 -10 12q22 63 83 144q73 98 122 98q38 0 65 -41q23 -37 23 -78q0 -89 -41 -215q218 336 299 336q51 0 83 -61q25 -50 25 -105q0 -103 -116.5 -274.5t-116.5 -211.5q0 -48 43 -47q28 1 93.5 79t70.5 108l6 4h8q12 0 12 -9q0 -32 -81 -117
q-84 -87 -125 -87q-54 0 -91 74q-30 62 -30 122q0 89 116.5 260.5t116.5 208.5q0 6 -4 19l-8 8q-12 4 -21 4q-61 0 -247 -307q-152 -252 -211 -389h-11q-10 39 -51 39q-57 0 -114 -41h-15q338 566 338 655z" />
    <glyph glyph-name="ograve" unicode="&#xf2;" horiz-adv-x="719" 
d="M590 1032h2q50 0 96 -76q22 -36 35 -52q24 -32 47 -42q14 -3 43 -10q14 -4 41 -12q2 -2 2 -9q0 -12 -6 -14q-95 0 -195 39q-127 48 -127 127q0 49 62 49zM713 700q84 0 132 -71q42 -62 42 -150q0 -163 -153.5 -327.5t-315.5 -165.5q-191 -1 -191 229q0 171 157.5 328
t328.5 157zM408 6q74 0 137 107q231 392 231 510q0 57 -82 57q-67 0 -139 -127q-219 -386 -219 -481q0 -66 72 -66z" />
    <glyph glyph-name="oacute" unicode="&#xf3;" horiz-adv-x="719" 
d="M670 840l2 -2q39 12 77 25q31 14 64 57q24 36 47 72q31 40 72 40q23 0 43 -15.5t20 -37.5q1 -76 -127 -124q-101 -38 -194 -38l-8 4l-4 13zM713 698q84 0 132 -71q42 -62 42 -150q0 -163 -153.5 -327.5t-315.5 -165.5q-191 -1 -191 229q0 170 157.5 327.5t328.5 157.5z
M408 4q74 0 137 107q231 392 231 510q0 57 -82 57q-67 0 -139 -127q-219 -386 -219 -481q0 -66 72 -66z" />
    <glyph glyph-name="ocircumflex" unicode="&#xf4;" horiz-adv-x="719" 
d="M500 762q-22 0 -25 16q6 13 30 17l40 6q76 17 170 88q90 70 133 139q12 8 20 10l15 -6l2 -6q-19 -68 -19 -74q0 -153 138 -153q24 0 24 -11q0 -4 -4 -12q-29 -14 -82 -14q-132 0 -180 102q-148 -102 -262 -102zM711 700q84 0 132 -71q42 -62 42 -150
q0 -163 -153.5 -327.5t-315.5 -165.5q-191 -1 -191 229q0 171 157.5 328t328.5 157zM406 6q74 0 137 107q231 392 231 510q0 57 -82 57q-67 0 -139 -127q-219 -386 -219 -481q0 -66 72 -66z" />
    <glyph glyph-name="otilde" unicode="&#xf5;" horiz-adv-x="719" 
d="M918 928q39 0 57 22q27 35 37 41h14q6 -3 6 -10q0 -49 -57.5 -104.5t-108.5 -55.5q-35 0 -101.5 20.5t-100.5 20.5q-31 0 -58.5 -25.5t-32.5 -25.5q-12 0 -12 16q0 43 58 88.5t102 45.5q34 0 98.5 -16.5t98.5 -16.5zM711 700q84 0 132 -71q42 -62 42 -150
q0 -163 -153.5 -327.5t-315.5 -165.5q-191 -1 -191 229q0 171 157.5 328t328.5 157zM406 6q74 0 137 107q231 392 231 510q0 57 -82 57q-67 0 -139 -127q-219 -386 -219 -481q0 -66 72 -66z" />
    <glyph glyph-name="odieresis" unicode="&#xf6;" horiz-adv-x="719" 
d="M707 971q59 0 59 -58q0 -52 -41 -94.5t-94 -42.5q-22 0 -40 21.5t-18 44.5q0 45 44 87t90 42zM948 969q60 0 60 -64q0 -46 -37 -88.5t-82 -42.5q-26 0 -46 20t-20 46q0 38 43.5 83.5t81.5 45.5zM705 700q79 0 131 -62q49 -58 49 -138q0 -173 -147 -340
q-151 -172 -320 -172q-92 0 -143 63q-48 58 -48 152q1 176 152 336.5t326 160.5zM410 6q70 0 118 78q55 87 143 268q105 213 105 264q0 66 -74 66q-73 0 -137 -111q-229 -398 -229 -503q0 -62 74 -62z" />
    <glyph glyph-name="divide" unicode="&#xf7;" horiz-adv-x="1145" 
d="M33 565h1022v-106h-1022v106zM535 887q44 0 76 -32t32 -77q0 -44 -32 -76t-76 -32q-45 0 -78 32t-33 76q0 45 33 77t78 32zM535 356q44 0 76 -32t32 -76q0 -45 -32 -78t-76 -33q-45 0 -78 33t-33 78q0 44 33 76t78 32z" />
    <glyph glyph-name="oslash" unicode="&#xf8;" horiz-adv-x="719" 
d="M268 104q-35 92 -35 132q0 166 153.5 315t320.5 149q90 0 151 -98q112 98 117 98q14 0 14 -18q-1 -4 -121 -107q17 -58 17 -112q0 -152 -148 -311q-151 -162 -301 -162q-93 0 -155 88q-93 -92 -111 -92q-14 0 -14 20l4 8q9 5 108 90zM752 512v-2q30 77 30 113
q0 24 -23.5 39.5t-49.5 15.5q-80 0 -207 -211q-90 -148 -148 -291zM344 133v-2q-4 -16 -4 -49q0 -74 92 -74q69 0 173 192q63 129 126 259z" />
    <glyph glyph-name="ugrave" unicode="&#xf9;" 
d="M608 1032q50 0 97 -74q34 -55 60 -76q33 -28 89 -36q23 -6 23 -17q0 -8 -15 -12q-89 0 -191 40q-127 49 -128 124q-1 51 65 51zM319 55q0 -35 29 -35q111 0 500 685h8l4 -23q20 -23 55 -23q54 0 109 48h12q-83 -126 -201 -333q-153 -267 -153 -323q0 -37 31 -37
q73 0 184 215q23 35 25 35q6 0 10 -4l4 -6v-4q0 -44 -90.5 -151t-134.5 -107q-42 0 -66 50q-20 41 -20 87q0 102 61 248q-72 -117 -153 -220q-126 -159 -187 -159q-51 0 -83 59q-25 49 -25 105q0 110 121.5 269.5t121.5 209.5q0 29 -26 35q-52 -9 -107 -80q-40 -58 -80 -117
l-8 -8q-14 0 -14 16q0 41 84 125t127 84q52 0 82 -59q24 -47 24 -105q0 -108 -122 -269t-122 -208z" />
    <glyph glyph-name="uacute" unicode="&#xfa;" 
d="M686 840q97 22 162 111q59 81 102 81q23 0 42.5 -16t19.5 -39q0 -76 -128 -123q-100 -37 -194 -37l-8 10v7zM319 55q0 -35 29 -35q111 0 500 685h8l4 -23q20 -23 55 -23q54 0 109 48h12q-83 -126 -201 -333q-153 -267 -153 -323q0 -37 31 -37q73 0 184 215q23 35 25 35
q6 0 10 -4l4 -6v-4q0 -44 -90.5 -151t-134.5 -107q-42 0 -66 50q-20 41 -20 87q0 102 61 248q-72 -117 -153 -220q-126 -159 -187 -159q-51 0 -83 59q-25 49 -25 105q0 110 121.5 269.5t121.5 209.5q0 29 -26 35q-52 -9 -107 -80q-40 -58 -80 -117l-8 -8q-14 0 -14 16
q0 41 84 125t127 84q52 0 82 -59q24 -47 24 -105q0 -108 -122 -269t-122 -208z" />
    <glyph glyph-name="ucircumflex" unicode="&#xfb;" 
d="M518 762q-24 0 -24 16l2 4q3 4 65 17q118 24 232 141q37 47 94 98l14 -6l2 -8q-18 -68 -18 -72q0 -122 98 -149q17 -1 53 -4q11 0 11 -11q0 -6 -7 -12q-21 -14 -79 -14q-66 0 -106 24q-34 21 -77 78q-36 -36 -121.5 -69t-138.5 -33zM319 55q0 -35 29 -35q111 0 500 685h8
l4 -23q20 -23 55 -23q54 0 109 48h12q-83 -126 -201 -333q-153 -267 -153 -323q0 -37 31 -37q73 0 184 215q23 35 25 35q6 0 10 -4l4 -6v-4q0 -44 -90.5 -151t-134.5 -107q-42 0 -66 50q-20 41 -20 87q0 102 61 248q-72 -117 -153 -220q-126 -159 -187 -159q-51 0 -83 59
q-25 49 -25 105q0 110 121.5 269.5t121.5 209.5q0 29 -26 35q-52 -9 -107 -80q-40 -58 -80 -117l-8 -8q-14 0 -14 16q0 41 84 125t127 84q52 0 82 -59q24 -47 24 -105q0 -108 -122 -269t-122 -208z" />
    <glyph glyph-name="udieresis" unicode="&#xfc;" 
d="M575 840q0 44 41 87.5t84 43.5q67 0 64 -58l-2 -32q-39 -105 -131 -105q-24 0 -40 20.5t-16 43.5zM948 967q60 0 60 -66q0 -45 -38 -87t-83 -42q-26 0 -44 20.5t-18 47.5q0 45 39 86t84 41zM319 55q0 -35 29 -35q111 0 500 685h8l4 -23q20 -23 55 -23q54 0 109 48h12
q-83 -126 -201 -333q-153 -267 -153 -323q0 -37 31 -37q73 0 184 215q23 35 25 35q6 0 10 -4l4 -6v-4q0 -44 -90.5 -151t-134.5 -107q-42 0 -66 50q-20 41 -20 87q0 102 61 248q-72 -117 -153 -220q-126 -159 -187 -159q-51 0 -83 59q-25 49 -25 105q0 110 121.5 269.5
t121.5 209.5q0 29 -26 35q-52 -9 -107 -80q-40 -58 -80 -117l-8 -8q-14 0 -14 16q0 41 84 125t127 84q52 0 82 -59q24 -47 24 -105q0 -108 -122 -269t-122 -208z" />
    <glyph glyph-name="ydieresis" unicode="&#xff;" 
d="M707 971q63 0 63 -70q0 -44 -42.5 -83.5t-86.5 -39.5q-61 0 -61 68q0 44 41 84.5t86 40.5zM952 969q27 0 45.5 -20.5t18.5 -47.5q0 -40 -40 -82.5t-81 -42.5q-25 0 -45.5 18.5t-20.5 43.5q0 45 39 88t84 43zM344 -10q-52 0 -83 66q-25 53 -25 112q0 100 131 265t131 218
q0 6 -4 19q-9 12 -35 12q-34 0 -100 -77q-56 -67 -76 -111l-9 -7l-8 -2l-8 2l-4 7q10 48 91.5 129.5t127.5 81.5q54 0 83 -63q24 -49 24 -110q0 -101 -128 -262.5t-128 -226.5q0 -27 34 -27q24 0 68 41q34 32 131 160q132 174 322 492h6q26 -29 63 -29q20 0 60.5 10t62.5 10
q2 0 7 -1t7 -1l9 -8l2 -8l-2 -4l-19 -6q-48 -10 -76 -41q-8 -10 -47 -74q-69 -116 -153 -289q-71 -148 -142 -297q-113 -230 -227 -343q-158 -157 -369 -156q-79 0 -146 32q-83 41 -83 111q0 98 86 98q26 0 53 -20t27 -45q0 -16 -23.5 -41.5t-23.5 -38.5q0 -38 36 -61
q32 -19 72 -19q147 0 301 223q64 92 197 355q38 74 77 149q42 86 64 154q-272 -379 -354 -379z" />
    <glyph glyph-name="dotlessi" unicode="&#x131;" horiz-adv-x="449" 
d="M358 51v2q0 -41 37 -41q34 0 100 67q60 62 74 99q10 6 19 6l6 -6v-4q0 -3 -1 -5.5t-1 -4.5q-124 -172 -207 -172q-58 0 -91 59q-28 49 -28 113q0 101 128 261t128 202q0 45 -33 45q-43 0 -127.5 -98.5t-87.5 -98.5h-8l-6 6v6q147 209 260 209q50 0 76 -64q18 -48 18 -110
q0 -94 -128 -257t-128 -214z" />
    <glyph glyph-name="OE" unicode="&#x152;" horiz-adv-x="2425" 
d="M1618 1458q95 0 148 -82q44 -69 44 -168q0 -173 -92 -401q164 58 303 72q-75 59 -105 98q-46 60 -46 133q0 186 206 294q169 89 373 89q132 0 225 -50q117 -62 117 -181q0 -122 -103 -202q-96 -75 -220 -75q-86 0 -155 39q-83 47 -83 127q0 30 29.5 65t58.5 35
q11 0 11 -16q-5 -6 -5 -4q-24 -11 -49 -21q-18 -13 -18 -51q0 -56 52 -86q42 -24 104 -24q111 0 221 68q125 77 125 181q0 79 -89 124q-71 36 -157 36q-171 0 -343 -132q-183 -141 -183 -306q0 -80 71 -139q63 8 137 10q58 1 124 -11q94 -16 98 -51l-4 -12q-31 -20 -93 -20
q-140 0 -262 65q-189 -27 -360.5 -220.5t-171.5 -383.5q0 -119 95 -201q91 -77 212 -77q190 0 373.5 195t183.5 386q0 60 -46 98q-43 35 -103 35q-135 1 -259 -121.5t-124 -257.5q0 -44 30 -78t74 -34q36 0 70 22.5l34 22.5q9 0 13 -12q-4 -14 -13 -23q-56 -33 -92 -33
q-66 0 -117 56t-51 122q0 158 130 262q121 97 282 97q117 0 189.5 -73.5t72.5 -190.5q0 -220 -208 -368q-188 -134 -417 -134q-181 0 -312.5 111t-168.5 290q-280 -366 -610 -366q-178 0 -292 139q-105 130 -105 313q0 208 142 438q137 223 346 370q221 156 431 157
q48 0 115 -19q90 74 217 74zM1507 1247h2q0 -102 -89 -172q-83 -65 -189 -65q-4 0 -21 8l-10 14l2 6l10 6q19 0 48 -16l10 -2q71 -1 138 77q65 75 65 148q0 75 -62 101q-180 -144 -339 -363q-191 -264 -191 -440q0 -56 27 -98q31 -50 83 -50q22 0 58 31h8l6 -4l4 -6v-4
q-1 -2 -2 -6q-31 -31 -70 -31q-85 0 -135 87q-41 73 -41 165q0 200 181 427q163 205 362 308q-16 2 -49 2q-148 0 -357 -216q-185 -192 -331 -456.5t-146 -408.5q0 -119 72.5 -197t189.5 -78q252 2 562 451q173 252 266 412q173 298 174 434q0 55 -35 91t-90 36
q-71 0 -186 -68q43 -37 54 -51q21 -29 21 -72z" />
    <glyph glyph-name="oe" unicode="&#x153;" horiz-adv-x="1032" 
d="M1124 702q111 0 111 -77q0 -112 -146 -202q-120 -74 -249 -91q-78 -146 -78 -234q0 -90 76 -90q78 0 148 73q40 42 99 140q20 34 62 84l8 2q11 -3 6 -12q-11 -81 -125 -192q-117 -113 -196 -113q-49 0 -96 34q-43 32 -64 78q-157 -110 -252 -110q-90 0 -147 82
q-50 74 -50 168q0 161 153 309t314 149q106 1 160 -106q159 108 266 108zM1169 653q0 33 -45 33q-57 0 -154 -140q-7 -10 -120 -196l27 4q103 16 195 104q97 94 97 195zM408 10q70 0 122 88q60 101 138 261q100 203 100 255q0 66 -55 66q-92 0 -236 -259
q-135 -244 -135 -349q0 -25 20.5 -43.5t45.5 -18.5z" />
    <glyph glyph-name="Ydieresis" unicode="&#x178;" horiz-adv-x="1841" 
d="M1661 1733q74 0 74 -84q0 -53 -46 -93t-100 -40q-27 0 -49 25t-22 52q0 49 46.5 94.5t96.5 45.5zM1950 1729q33 0 57.5 -21.5t24.5 -54.5q0 -52 -46.5 -96t-99.5 -44q-30 0 -55 23t-25 53q0 48 47.5 94t96.5 46zM874 1044h-2q128 0 214 -63q96 -70 96 -193
q0 -131 -130 -216q-115 -74 -253 -74q-87 0 -183 33q-101 34 -163 90q6 -175 105.5 -276t272.5 -101q146 0 236 61q55 38 68 61q2 3 26 83q4 13 17 16q18 0 18 -10q0 -107 -139 -176q-114 -57 -234 -58q-178 -1 -287 121q-105 118 -104 299q-109 135 -108 289q1 230 184 385
q175 147 410 147q278 0 449 -178.5t171 -460.5q0 -204 -79 -414t-212 -368q4 -2 10 -8q36 12 140 133q112 130 198 262q96 161 301 473q142 195 375 377q-256 55 -407 55q-95 0 -170 -39q-92 -49 -92 -135q0 -64 50.5 -110t116.5 -48q51 0 80 31q6 12 21 35h4q10 0 16 -6
l2 -8q-17 -68 -116 -68q-81 0 -139 52.5t-58 131.5q0 122 108 206q99 79 224 79q90 0 221 -41q109 -38 217 -76q158 81 218 104q120 46 237 46q186 0 186 -98q0 -84 -120 -131q-92 -35 -193 -35q-104 0 -348 47q-89 -66 -197 -203q-23 -30 -168 -229q-274 -378 -370 -496
q-246 -301 -470 -460q-284 -204 -561 -204q-177 0 -328 87q-180 102 -180 266q0 101 92 175q86 68 191 68q92 0 164 -40q88 -48 88 -132q0 -38 -27.5 -70t-64.5 -32q-35 0 -66 26t-31 60q0 21 31 42.5t31 39.5q0 39 -45 64q-38 22 -80 22q-95 0 -152.5 -58.5t-58.5 -154.5
q-1 -157 146 -253q128 -85 294 -85q349 0 611 292q254 284 254 638q0 291 -183 489q-188 203 -477 203q-173 0 -297 -104q-130 -109 -131 -279q-1 -154 94 -244q108 346 436 346zM2718 1249v-2q79 0 153 30q95 39 95 107q0 82 -164 82q-188 0 -410 -145q199 -74 326 -72z
M807 541h-2q137 0 237 62q117 73 117 202q0 98 -92 162q-82 57 -184 57q-225 0 -344 -162q-80 -108 -80 -188q136 -133 348 -133z" />
    <glyph glyph-name="circumflex" unicode="&#x2c6;" horiz-adv-x="0" 
d="M156 762h-15q-8 8 -8 18t28 15l38 4q99 19 215 129l110 110l13 -6q0 -2 0.5 -4t1.5 -4q0 -12 -7.5 -35.5t-7.5 -36.5q0 -153 138 -153q22 0 22 -11q0 -4 -4 -12q-22 -14 -82 -14q-68 0 -106 23q-31 19 -76 79q-36 -36 -121.5 -69t-138.5 -33z" />
    <glyph glyph-name="caron" unicode="&#x2c7;" horiz-adv-x="0" 
d="M760 1024q14 -7 14 -18l-2 -2q-7 -7 -77 -18.5t-171 -96.5q-43 -48 -133 -139l-6 -2q-16 0 -16 14t8 40.5t8 39.5q0 115 -104 145q-17 1 -50 6q-8 0 -8 8q1 3 2 7q23 18 90 18q130 0 174 -104q144 102 248 102h23z" />
    <glyph glyph-name="tilde" unicode="&#x2dc;" horiz-adv-x="0" 
d="M573 928h2q48 0 82 55l13 8h10l6 -4l2 -4q0 -52 -55.5 -107t-108.5 -55q-35 0 -101.5 20.5t-100.5 20.5q-32 0 -59.5 -25.5t-33.5 -25.5q-8 0 -14 12q0 43 58.5 90.5t103.5 47.5q34 0 98.5 -16.5t97.5 -16.5z" />
    <glyph glyph-name="pi" unicode="&#x3c0;" horiz-adv-x="1145" 
d="M442 780q-19 -236 -31 -343q-22 -192 -57 -339q-32 -138 -129 -139q-42 -1 -72 32t-30 79q0 41 66 117q71 81 79 143q20 145 58 448h-93q-60 0 -101 -36q-25 -22 -66 -87h-31q88 291 268 291h725v-168l-246 -2q-22 -238 -22 -454q0 -67 28 -117q35 -60 97 -60q59 0 87 46
q17 29 32 100h40q-3 -121 -57 -213q-65 -111 -174 -111q-104 0 -154 134q-35 94 -36 221q-1 72 41 456z" />
    <glyph glyph-name="endash" unicode="&#x2013;" horiz-adv-x="852" 
d="M264 362h2q25 25 72 25q86 0 258 -7t258 -7q22 0 63.5 10.5t61.5 11.5q18 -7 18 -20q0 -39 -147 -39q-81 0 -243 7t-242 7q-46 0 -74 -14h-4q-15 0 -23 10l-2 8z" />
    <glyph glyph-name="emdash" unicode="&#x2014;" horiz-adv-x="1032" 
d="M225 500h1016v-92h-1016v92z" />
    <glyph glyph-name="quoteleft" unicode="&#x2018;" horiz-adv-x="809" 
d="M1411 1458q10 0 12 -8q4 -4 4 -8v-6q-50 -28 -101 -55q-102 -61 -112 -121l3 -13q3 -6 42 -28q31 -17 31 -56q0 -57 -46.5 -99t-104.5 -42q-33 0 -58.5 28.5t-25.5 61.5q0 82 108 188q90 90 183 134q52 24 65 24z" />
    <glyph glyph-name="quoteright" unicode="&#x2019;" horiz-adv-x="809" 
d="M1063 1049q63 35 125 70q86 48 86 98q0 13 -39 36.5t-39 59.5q0 52 46.5 98.5t98.5 46.5q91 0 91 -94q0 -93 -132 -212q-124 -112 -223 -130q-15 4 -18 16z" />
    <glyph glyph-name="quotesinglbase" unicode="&#x201a;" horiz-adv-x="315" 
d="M53 -180v-2q6 3 31 12q76 27 147 109l21 20q6 9 6 31q-1 7 0 8q-26 15 -50.5 31t-25.5 55q-1 52 45 94.5t99 42.5q38 0 64 -25t26 -63q0 -84 -132.5 -215t-215.5 -131q-11 0 -17 4l-4 14z" />
    <glyph glyph-name="quotedblleft" unicode="&#x201c;" horiz-adv-x="1124" 
d="M1714 1458l12 -6l5 -6v-10q0 10 -13 -15q-52 -10 -119 -60q-71 -53 -81 -99l2 -15q3 -8 40 -26q31 -15 31 -60q0 -50 -43 -93.5t-94 -43.5q-96 0 -96 94q0 88 134 210q129 117 222 130zM1423 1454q18 0 15 -16v-4l-4 -11q-64 -32 -127 -65q-80 -48 -80 -103q0 -2 0.5 -4
t1.5 -4l12 -12q59 -21 59 -78q0 -51 -45 -92t-98 -41q-90 0 -90 102q0 79 138 203.5t218 124.5z" />
    <glyph glyph-name="quotedblright" unicode="&#x201d;" horiz-adv-x="1124" 
d="M1362 1055h-2q57 11 123 59q72 51 88 100q-2 18 -39 39t-37 74q0 47 45.5 88t91.5 41q97 0 97 -92q0 -85 -134 -211.5t-221 -126.5h-4l-10 4l-4 8q0 11 6 17zM1065 1049q65 34 130 69q83 50 81 107q-4 6 -47 32q-31 20 -31 56q0 51 45.5 97t95.5 46q41 0 67 -28t26 -70
q0 -92 -132 -208q-122 -108 -221 -128l-12 4l-4 6v8q0 3 1 4.5t1 4.5z" />
    <glyph glyph-name="quotedblbase" unicode="&#x201e;" horiz-adv-x="1124" 
d="M354 -178v2q53 11 126 63q83 58 83 103q0 8 -38 29.5t-38 60.5q0 60 44.5 100.5t105.5 40.5q37 0 60.5 -28t23.5 -66q0 -95 -129 -204q-104 -88 -217 -134h-17l-10 14v2q0 11 6 17zM63 -178q49 6 122.5 62t82.5 100q-4 19 -40 42q-33 20 -33 66q0 51 47 91t98 40
q38 0 64 -28t26 -66q1 -90 -135 -211q-130 -116 -225 -129l-9 4l-4 12q0 11 6 17z" />
    <glyph glyph-name="dagger" unicode="&#x2020;" horiz-adv-x="989" 
d="M420 602q-28 0 -47 24.5t-19 53.5q0 57 42 103t98 46q50 0 150 -42q111 -47 159 -54q23 66 57 201q23 145 36 177q39 93 138 93q120 0 121 -67q1 -29 -143 -195q-166 -192 -178 -211h22q56 0 156.5 48t156.5 48q87 0 88 -71q1 -47 -39 -98q-42 -54 -88 -54
q-56 0 -154.5 53.5t-156.5 53.5q-73 -153 -112 -308q-19 -84 -37 -169q-27 -111 -68 -167q-55 -75 -145 -75q-109 0 -109 84q0 65 118 213q15 18 171 196q71 82 154 228q-55 -8 -185 -63q-116 -48 -186 -48z" />
    <glyph glyph-name="bullet" unicode="&#x2022;" horiz-adv-x="682" 
d="M608 723q0 -113 -75 -189.5t-187 -76.5q-111 0 -191.5 78t-80.5 188t81 188t191 78q109 0 185.5 -78.5t76.5 -187.5z" />
    <glyph glyph-name="ellipsis" unicode="&#x2026;" horiz-adv-x="2048" 
d="M449 0h-213v217h213v-217zM1130 0h-212v217h212v-217zM1812 0h-213v217h213v-217z" />
    <glyph glyph-name="guilsinglleft" unicode="&#x2039;" horiz-adv-x="682" 
d="M502 221l-322 252v189l322 251v-180l-215 -166l215 -166v-180z" />
    <glyph glyph-name="guilsinglright" unicode="&#x203a;" horiz-adv-x="682" 
d="M180 401l215 166l-215 166v180l322 -251v-189l-322 -252v180z" />
    <glyph glyph-name="trademark" unicode="&#x2122;" horiz-adv-x="1858" 
d="M676 1309l6 -189l-35 -2v12q0 136 -149 136h-72v-607q0 -55 96 -55v-35h-311v35q98 0 98 55v607h-71q-156 0 -150 -148l-35 2l6 189h617zM961 1309l256 -559l245 559h217v-35h-18q-76 0 -76 -49v-566q0 -55 96 -55v-35h-311v35q100 0 100 55v539l-262 -629h-34l-279 598
v-508q0 -55 98 -55v-35h-252v35q101 0 101 55v547q0 49 -30 62q-15 6 -73 6v35h222z" />
    <glyph glyph-name="partialdiff" unicode="&#x2202;" horiz-adv-x="1030" 
d="M137 1395q127 55 256 55q251 0 394 -226q122 -194 122 -460q0 -289 -100 -513q-131 -292 -383 -292q-159 0 -262 112t-103 273q0 157 102 292q110 146 261 146q99 0 170 -34q47 -22 143 -99q23 119 23 228q0 196 -72 324q-90 161 -270 161q-51 0 -106 -20
q-49 -22 -99 -44zM512 707q-133 0 -215 -149q-70 -124 -70 -269q0 -272 176 -271q244 2 322 564q-62 70 -91 90q-50 35 -122 35z" />
    <glyph glyph-name="Delta" unicode="&#x2206;" horiz-adv-x="1278" 
d="M1198 0h-1171l622 1339zM154 96h802l-376 910z" />
    <glyph glyph-name="product" unicode="&#x220f;" horiz-adv-x="1716" 
d="M1391 8q0 -94 49 -130q42 -30 139 -30v-45h-596v45q97 0 138 30q48 35 48 128v1348h-696v-1346q0 -94 50 -130q41 -30 139 -30v-45h-596v45q97 0 138 29q50 35 50 129v1219q0 192 -184 192v43h1503v-43q-182 0 -182 -192v-1217z" />
    <glyph glyph-name="summation" unicode="&#x2211;" horiz-adv-x="1489" 
d="M1227 1141h-41q-42 139 -96 180t-199 41h-512l530 -696l-571 -660h721q117 0 174 56q40 40 88 163h45q-55 -225 -84 -436q-108 23 -147 23l-1094 -7l680 775l-674 882q229 -14 590 -14q96 0 288.5 1t288.5 1z" />
    <glyph glyph-name="fraction" unicode="&#x2215;" horiz-adv-x="496" 
d="M653 1038h9q16 0 16 -18q0 -14 -84 -131q-153 -214 -385 -512q-324 -415 -379 -430l-8 6l-6 14q4 8 75 86q147 159 340 406q83 103 165 206q95 122 153 216q24 42 48 85q36 60 56 72z" />
    <glyph glyph-name="periodcentered" unicode="&#x2219;" horiz-adv-x="360" 
d="M309 461q0 40 35 68t76 28q44 0 71 -35.5t27 -81.5q0 -39 -36 -67.5t-76 -28.5q-43 0 -71 38q-26 35 -26 79z" />
    <glyph glyph-name="radical" unicode="&#x221a;" horiz-adv-x="1145" 
d="M33 877l282 139l383 -785l248 1553l68 -10l-291 -1848l-473 977l-187 -92z" />
    <glyph glyph-name="infinity" unicode="&#x221e;" horiz-adv-x="1489" 
d="M1081 786q110 0 192 -79t81 -189q-1 -108 -78 -192t-184 -84q-115 0 -212 64q-13 9 -173 143q-152 -130 -172 -142q-97 -64 -211 -63q-106 0 -183.5 83t-77.5 189q0 111 82 190.5t193 79.5q97 0 202 -69q53 -36 169 -139q115 103 168 139q106 69 204 69zM338 686v-2
q-73 0 -124.5 -53.5t-51.5 -124.5t56 -121t128 -51q82 -1 165 59q40 29 134 123q-103 85 -142 110q-92 60 -165 60zM1071 334q72 0 128 49t56 119q0 73 -51 127t-123 53q-74 -1 -166 -60q-28 -18 -145 -110q97 -92 135 -119q84 -59 166 -59z" />
    <glyph glyph-name="integral" unicode="&#x222b;" horiz-adv-x="571" 
d="M375 528q0 -178 -24 -361q-34 -258 -101 -329q-44 -47 -125 -45q-43 1 -79 37.5t-36 79.5q0 32 27.5 58t58.5 26q28 0 60 -32t43 -32q53 0 53 193q0 100 -6 301t-6 301v436q0 621 196 623q53 0 93 -29q44 -32 44 -84q1 -36 -30.5 -60t-69.5 -24q-30 0 -56.5 23.5
t-41.5 23.5q-37 0 -37 -53q0 -105 18.5 -315t18.5 -316v-422z" />
    <glyph glyph-name="approxequal" unicode="&#x2248;" horiz-adv-x="1145" 
d="M1038 721v-2q-90 -154 -274 -154q-79 0 -225 53.5t-224 53.5q-64 0 -110 -31q-34 -23 -82 -84l-84 53q118 153 283 152q76 -1 220 -52t220 -51q129 0 205 107zM1038 424q-90 -154 -274 -154q-77 0 -222.5 52.5t-224.5 52.5q-66 -1 -112 -32q-34 -22 -82 -83l-84 53
q118 153 283 152q75 -1 217 -50.5t217 -49.5q134 0 211 106z" />
    <glyph glyph-name="notequal" unicode="&#x2260;" horiz-adv-x="1145" 
d="M889 1014l-148 -264h322v-107h-379l-152 -272h531v-107h-590l-174 -313l-96 55l143 258h-305v107h367l149 272h-516v107h575l179 319z" />
    <glyph glyph-name="lessequal" unicode="&#x2264;" horiz-adv-x="1145" 
d="M70 106h966v-106h-966v106zM70 797l966 446v-121l-843 -387l843 -387v-121l-966 449v121z" />
    <glyph glyph-name="greaterequal" unicode="&#x2265;" horiz-adv-x="1145" 
d="M1036 0h-966v106h966v-106zM1036 676l-966 -449v121l841 387l-841 387v121l966 -446v-121z" />
    <glyph glyph-name="lozenge" unicode="&#x25ca;" horiz-adv-x="1030" 
d="M422 0l-377 733l377 717h117l379 -717l-379 -733h-117zM481 1343l-319 -610l319 -629l320 629z" />
    <glyph glyph-name="Omega" unicode="&#xe003;" horiz-adv-x="1602" 
d="M655 0h-575v315h31q17 -118 127 -118h307l-6 55q-197 57 -306 187q-114 136 -114 335q0 260 196 419q183 146 449 146q265 0 447 -146q196 -158 196 -417q0 -404 -422 -524l-4 -55h305q110 0 131 118h29v-315h-574l31 297q277 121 277 487q0 219 -96 348
q-108 144 -320 144q-213 0 -321 -145q-97 -129 -97 -349q0 -182 57 -292q65 -125 220 -195z" />
    <glyph glyph-name="Grave" unicode="&#xe004;" horiz-adv-x="0" 
d="M627 1786q50 0 108 -65q74 -82 96 -94.5t130 -35.5q10 -3 10 -12l-4 -8l-15 -8q-27 -7 -55 -7q-101 0 -206 37q-136 49 -136 129q0 27 22 45.5t50 18.5z" />
    <glyph glyph-name="Acute" unicode="&#xe005;" horiz-adv-x="0" 
d="M772 1583l10 4q83 0 149 51q24 19 91 93q46 51 78 51q86 0 86 -64q0 -80 -143 -128q-105 -36 -209 -38q-37 0 -60 13q-4 8 -4 12q1 2 2 6z" />
    <glyph glyph-name="Circumflex" unicode="&#xe006;" horiz-adv-x="0" 
d="M578 1544l12 8q182 34 311 179q22 24 53 71q7 6 17 6l6 -2q6 -6 6 -14q0 -13 -6 -43.5t-6 -46.5q0 -137 151 -137l8 -13l-4 -8q-23 -16 -84 -16q-124 0 -180 102q-47 -38 -126 -69.5t-136 -32.5q-16 -1 -22 16z" />
    <glyph glyph-name="Tilde" unicode="&#xe007;" horiz-adv-x="0" 
d="M1061 1675q41 0 59 17q22 20 43 41h4q15 0 15 -13q-29 -70 -90 -124q-68 -60 -138 -60q-43 0 -125.5 28.5t-128.5 28.5q-68 0 -102 -57h-8q-8 0 -12 16q26 61 82 113q65 59 124 59q47 0 138.5 -24.5t138.5 -24.5z" />
    <glyph glyph-name="Dieresis" unicode="&#xe008;" horiz-adv-x="0" 
d="M786 1733q33 0 53.5 -25.5t20.5 -58.5q0 -52 -47.5 -92.5t-99.5 -40.5q-29 0 -49.5 24.5t-20.5 52.5q0 52 46 96t97 44zM1073 1729h-2q84 0 84 -76q0 -53 -46 -96.5t-99 -43.5q-31 0 -54.5 23t-23.5 53q0 49 46 94.5t95 45.5z" />
    <glyph glyph-name="Caron" unicode="&#xe009;" horiz-adv-x="0" 
d="M1206 1796q19 0 19 -16l-8 -11l-15 3q-70 2 -163 -63q-63 -44 -138 -121l-65 -66q-15 0 -15 14q0 16 6.5 48t6.5 48q0 71 -47 99q-21 13 -107 32q-6 6 -6 9q0 26 98 26q103 0 168 -102q161 100 266 100z" />
    <glyph glyph-name="onefitted" unicode="&#xe00a;" horiz-adv-x="854" 
d="M586 807q0 47 -61 51q-78 5 -85 10l-4 9v6l2 8q15 11 97 10q173 -3 272 96q16 17 27 23h8q12 -6 12 -12q0 -119 -192.5 -470t-192.5 -466q0 -34 45 -40q-4 1 70 1q23 0 30 -15v-6q0 -3 -1 -9t-1 -9q-11 -8 -28 -8q-36 0 -107.5 8t-105.5 8q-38 0 -112.5 -8t-111.5 -8
q5 0 -26 10l-4 6v10q1 2 2 6l22 13h43q83 0 138 123q264 590 264 653z" />
    <glyph glyph-name="apple" unicode="&#xf000;" horiz-adv-x="1411" 
d="M565 1434v-123h-585v123h585zM1311 1178v-131h-1331v131h1331zM1311 915v-131h-1331v131h1331zM1311 651v-131h-1331v131h1331zM1311 131v-131h-1331v131h1331zM1311 1434v-123h-586v123h586zM565 389v-123h-585v123h585zM1311 389v-123h-586v123h586z" />
    </font>
</defs>
</svg>
