<?xml version="1.0" standalone="no"?>
<!DOCTYPE svg PUBLIC "-//W3C//DTD SVG 1.1//EN" "http://www.w3.org/Graphics/SVG/1.1/DTD/svg11.dtd" >
<svg>
<metadata>
Created by FontForge 20090914 at Tue Jun 25 09:57:29 2013
 By www-data
Made with Scanahand. Copyright &#194;&#169;  2010. All Rights Reserved.
</metadata>
<defs>
<font id="LaPresse" horiz-adv-x="1209" >
  <font-face 
    font-family="LaPresse"
    font-weight="400"
    font-stretch="normal"
    units-per-em="2048"
    panose-1="3 0 6 0 0 0 0 0 0 0"
    ascent="1638"
    descent="-410"
    x-height="1680"
    cap-height="1697"
    bbox="-37.001 -820.999 1995 2096"
    underline-thickness="150"
    underline-position="-142"
    unicode-range="U+0020-U+2026"
  />
<missing-glyph horiz-adv-x="1386" 
d="M60 0v1731h1246v-1731h-1246zM140 80h1086v1571h-1086v-1571z" />
    <glyph glyph-name=".notdef" horiz-adv-x="1386" 
d="M60 0v1731h1246v-1731h-1246zM140 80h1086v1571h-1086v-1571z" />
    <glyph glyph-name="space" unicode=" " horiz-adv-x="713" 
 />
    <glyph glyph-name="space" unicode="&#xa0;" horiz-adv-x="713" 
 />
    <glyph glyph-name="exclam" unicode="!" horiz-adv-x="471" 
d="M102 1731l34 -7.99902l77 8c12.667 0 24 -2.66699 34 -8c30.667 5.33301 56 8 76 8h43c10.667 -2 16 -7.66699 16 -17v-441c0 -12.667 -2.66699 -24 -8 -34c5.33301 -10 8 -21.333 8 -34v-102c0 -32.667 3 -78 9 -136c0 -5.33301 -3 -8 -9 -8l9 -43v-331
c0 -44.667 -3 -104 -9 -178c6 -10.667 9 -19 9 -25h-34v17l-25 -17h-264v119c0 18.667 3 32.667 9 42c-6 22 -11.667 81.333 -17 178h8l-8 17v77c0 60 2.66699 108 8 144c-5.33301 41.333 -8 95 -8 161c0 49.333 2.66699 111.666 8 186.999c-5.33301 30.667 -8 56 -8 76
l8 43l-8 76c3.33301 147.333 9 221 17 221c6 0 14.333 2.66699 25 8zM306 1561v-17h17v17h-17zM264 1510v-8h34v17h-9c-10.667 -6 -19 -9 -25 -9zM128 730.001h17c0 10 5.66699 24 17 42h-9c-12.667 0 -21 -14 -25 -42zM298 535.001v-26c1.33301 -11.333 7 -17 17 -17l25 43
h-42zM204 305.001c11.333 0 17.001 -2.66699 17.001 -8l43 8h85l42 -8c0 -11.333 -3 -17 -9 -17c6 -30 9 -47 9 -51c-6 -99.333 -9 -158.666 -9 -177.999l9 -60h-51c-18.667 0 -32.667 -2.66699 -42 -8l-51 8h-94c-5.33301 0 -8 3 -8 9l-17 -9h-51v34l-9 85h9
c-6 11.333 -9 20 -9 26c6 19.333 9 30.666 9 33.999c-6 10 -9 21.333 -9 34h9l-9 17v67c59.333 11.333 104.666 17 135.999 17zM145.001 263.001l8 -51h26v17l-9 17h17v17h-42zM213.001 246.001v-8h34v8h-34zM187.001 127.001h17.001l17 9c-5.33301 10.667 -8 19 -8 25
c-8.66699 0 -17.334 -11.333 -26.001 -34zM289.002 136.001v-17h17v17h-17zM323.002 127.001c2 -11.333 7.66699 -17 17 -17h9v17h-26z" />
    <glyph glyph-name="quotedbl" unicode="&#x22;" horiz-adv-x="901" 
d="M77 1835l279.999 -0.00195312c11.333 -2 17 -7.66699 17 -17v-263l-153 -238h-144c-11.333 0 -17 5.66699 -17 17v9c60.667 88.667 100.334 156.334 119.001 203.001l-60 9c-10.667 -6 -19 -9 -25 -9c-22.667 8.66699 -34 17.334 -34 26.001v246
c2 11.333 7.66699 17 17 17zM516.999 1835l279.999 -0.00195312c11.333 -2 17 -7.66699 17 -17v-263l-153 -238h-144c-11.333 0 -17 5.66699 -17 17v9c60.667 88.667 100.334 156.334 119.001 203.001l-60 9c-10.667 -6 -19 -9 -25 -9
c-22.667 8.66699 -34 17.334 -34 26.001v246c2 11.333 7.66699 17 17 17z" />
    <glyph glyph-name="quotesingle" unicode="'" horiz-adv-x="479" 
d="M95 1845l279.999 -0.00195312c11.333 -2 17 -7.66699 17 -17v-263l-153 -238h-144c-11.333 0 -17 5.66699 -17 17v9c60.667 88.667 100.334 156.334 119.001 203.001l-60 9c-10.667 -6 -19 -9 -25 -9c-22.667 8.66699 -34 17.334 -34 26.001v246
c2 11.333 7.66699 17 17 17z" />
    <glyph glyph-name="parenleft" unicode="(" horiz-adv-x="652" 
d="M508 1777c18 -20 44.665 -111.998 79.998 -275.998c-112.667 -59.333 -169 -110 -169 -152c-32 -42 -58.667 -154.667 -80 -338c-6 -42.667 -9 -96 -9 -160c-12 -2 -18 -8 -18 -18c14.667 0 29.334 -89.333 44.001 -268c68.667 -196 128.334 -294 179.001 -294
c0 -8.66699 17.667 -23.334 53 -44.001c-18 -50.667 -27 -83.334 -27 -98.001h-9l-17 9v-18c1.33301 -12 7 -18 17 -18c-29.333 -118.667 -50 -178 -62 -178c-172 63.333 -276 140.666 -312 231.999c-94.667 152.667 -142 271.334 -142 356.001c6 11.333 9 20.333 9 27
c-12 0 -18 6 -18 18c0 11.333 11.667 17 35 17v27c-41.333 0 -62 41.667 -62 125v133c0 14 3 26 9 36c-6 10.667 -9 22.667 -9 36c0 198 41.667 382 125 552c85.333 152 207 250 365 294h18zM329.998 1617l-9 -18l18 -9h8v9c0 12 -5.66699 18 -17 18zM213.998 1465v-9
c2 -11.333 8 -17 18 -17h9c0 8 -9 16.667 -27 26zM150.998 1358v-35c12 0 18 6 18 18v17h-18zM213.998 1269v-9c2 -11.333 8 -17 18 -17l9 17l-18 9h-9zM26.998 833.002c0 -9.33301 11.667 -21.333 35 -36l9 18c0 12 -6 18 -18 18h-26zM284.998 779.002v-35h18v17
c0 12 -6 18 -18 18zM79.998 512.002v-9h18v27c-12 -2 -18 -8 -18 -18zM79.998 450.002v-27h18v9c0 12 -6 18 -18 18zM257.998 396.002v-9h18v9h-18zM186.998 218.002v-18h9v18h-9zM418.998 191.002v-9h18v9h-18zM248.998 173.002v-8c6 -12 9 -21 9 -27c12 0 18 6 18 18v17
h-27zM471.998 49.002v-9h36v18h-9c-11.333 -6 -20.333 -9 -27 -9z" />
    <glyph glyph-name="parenright" unicode=")" horiz-adv-x="632" 
d="M80 -76c-18 20 -44.665 111.997 -79.998 275.997c112.667 59.333 169 110 169 152c32 42 58.667 154.667 80 338c6 42.667 9 96.334 9 161.001c12 1.33301 18 7 18 17c-14.667 0 -29.334 89.333 -44.001 268c-68.667 196 -128.334 294 -179.001 294
c0 8.66699 -17.667 23.334 -53 44.001c18 50.667 27 83.334 27 98.001h9l17 -9v18c-1.33301 12 -7 18 -17 18c29.333 118.667 50 178 62 178c172 -63.333 276 -140.666 312 -231.999c94.667 -152.667 142 -271.334 142 -356.001c-6 -11.333 -9 -20.333 -9 -27
c12 0 18 -5.66699 18 -17c0 -12 -11.667 -18 -35 -18v-27c41.333 0 62 -41.667 62 -125v-133c0 -13.333 -3 -25.333 -9 -36c6 -10.667 9 -22.667 9 -36c0 -198 -41.667 -382 -125 -552c-85.333 -152 -207 -250 -365 -294h-18zM232.002 83.9971l-18 9h-9v-26h9
c12 1.33301 18 7 18 17zM258.002 83.9971l9 18l-18 9h-8v-9c0 -12 5.66699 -18 17 -18zM267.002 155.997v26h-9c-11.333 0 -17 -5.66699 -17 -17l17 -9h9zM374.002 235.997v9c-2 12 -8 18 -18 18h-9c0 -8.66699 9 -17.667 27 -27zM437.002 342.997v35
c-12 0 -18 -5.66699 -18 -17v-18h18zM374.002 431.997v9c-2 12 -8 18 -18 18l-9 -18l18 -9h9zM561.002 867.997c0 9.33301 -11.667 21.333 -35 36l-9 -18c0 -12 6 -18 18 -18h26zM303.002 921.997v35h-18v-17c0 -12 6 -18 18 -18zM287.002 549.997c-2 12 -8 18 -18 18
c-12 0 -18 -6 -18 -18v-9c10.667 6 22.667 9 36 9zM312.002 992.997v27h-27c0 -8.66699 9 -17.667 27 -27zM294.002 1055v27h-9c0 -6 -3 -15 -9 -27h18zM490.002 436.997v54c-30 0 -45 6 -45 18v9h-18v-9c28 -48 46 -72 54 -72h9zM508.002 1189v9h-18v-27c12 2 18 8 18 18z
M508.002 1251v27h-18v-9c0 -12 6 -18 18 -18zM401.002 1483v18h-9v-18h9zM169.002 1510v9h-18v-9h18zM339.002 1528v9c-6 11.333 -9 20 -9 26c-12 0 -18 -6 -18 -18v-17h27zM116.002 1652v9h-36v-18h9c11.333 6 20.333 9 27 9z" />
    <glyph glyph-name="plus" unicode="+" horiz-adv-x="908" 
d="M307 112c-8 0 -13.667 41.333 -17 124l8 43l-8 24c0 11.333 2.66699 25.666 8 42.999c-5.33301 42 -8 77 -8 105c0 36.667 2.66699 66.667 8 90c-5.33301 20.667 -8 47.667 -8 81v44l8 9h-8c5.33301 54.667 11 88 17 100c-6 5.33301 -9 13.333 -9 24v67h264l25 -10v10h34
c0 -3.33301 -3 -8 -9 -14c6 -42 9 -75.333 9 -100v-186l-9 -25c6 0 9 -1.33301 9 -4c-6 -32.667 -9 -58.334 -9 -77.001v-57c0 -7.33301 -2.66699 -13.666 -8 -18.999c5.33301 -6 8 -12.333 8 -19v-248c0 -5.33301 -5.33301 -8.66602 -16 -9.99902h-43
c-20 0 -45.333 1.66699 -76 5c-10 -3.33301 -21.333 -5 -34 -5l-77 5l-34 -5c-10.667 3.33301 -19 5 -25 5zM553 203v9h-17v-9h17zM519 226h9v10h-34v-5c6 0 14.333 -1.66699 25 -5zM383 647h9c-11.333 10 -17 17.667 -17 23h-17c4 -15.333 12.333 -23 25 -23zM570 780
l-25 24c-10 0 -15.667 -3 -17 -9v-15h42zM830 338c0 -8 -41.333 -13.667 -124 -17l-43 8l-24 -8c-11.333 0 -25.666 2.66699 -42.999 8c-42 -5.33301 -77 -8 -105 -8c-36.667 0 -66.667 2.66699 -90 8c-20.667 -5.33301 -47.667 -8 -81 -8h-44l-9 8v-8
c-54.667 5.33301 -88 11 -100 17c-5.33301 -6 -13.333 -9 -24 -9h-67v264l10 25h-10v34c3.33301 0 8 -3 14 -9c42 6 75.333 9 100 9h186l25 -9c0 6 1.33301 9 4 9c32.667 -6 58.334 -9 77.001 -9h57c7.33301 0 13.666 -2.66699 18.999 -8c6 5.33301 12.333 8 19 8h248
c5.33301 0 8.66602 -5.33301 9.99902 -16v-43c0 -20 -1.66699 -45.333 -5 -76c3.33301 -10 5 -21.333 5 -34l-5 -77l5 -34c-3.33301 -10.667 -5 -19 -5 -25zM739 584h-9v-17h9v17zM716 550v9h-10v-34h5c0 6 1.66699 14.333 5 25zM295 414v9c-10 -11.333 -17.667 -17 -23 -17
v-17c15.333 4 23 12.333 23 25zM162 601l-24 -25c0 -10 3 -15.667 9 -17h15v42z" />
    <glyph glyph-name="comma" unicode="," horiz-adv-x="454" 
d="M87 263l279.999 -0.00195312c11.333 -2 17 -7.66699 17 -17v-263l-153 -238h-144c-11.333 0 -17 5.66699 -17 17v9c60.667 88.667 100.334 156.334 119.001 203.001l-60 9c-10.667 -6 -19 -9 -25 -9c-22.667 8.66699 -34 17.334 -34 26.001v246
c2 11.333 7.66699 17 17 17z" />
    <glyph glyph-name="hyphen" unicode="-" horiz-adv-x="897" 
d="M76 363l5 34l-5 77c0 12.667 1.66699 24 5 34c-3.33301 30.667 -5 56 -5 76v43c1.33301 10.667 4.66602 16 9.99902 16h248c6.66699 0 13 -2.66699 19 -8c5.33301 5.33301 11.666 8 18.999 8h57c18.667 0 44.334 3 77.001 9c2.66699 0 4 -3 4 -9l25 9h186
c24.667 0 58 -3 100 -9c6 6 10.667 9 14 9v-34h-10l10 -25v-264h-67c-10.667 0 -18.667 3 -24 9c-12 -6 -45.333 -11.667 -100 -17v8l-9 -8h-44c-33.333 0 -60.333 2.66699 -81 8c-23.333 -5.33301 -53.333 -8 -90 -8c-28 0 -63 2.66699 -105 8
c-17.333 -5.33301 -31.666 -8 -42.999 -8l-24 8l-43 -8c-82.667 3.33301 -124 9 -124 17c0 6 -1.66699 14.333 -5 25zM172 567h9v17h-9v-17zM200 525h5v34h-10v-9c3.33301 -10.667 5 -19 5 -25zM639 389v17c-5.33301 0 -13 5.66699 -23 17v-9c0 -12.667 7.66699 -21 23 -25z
M749 559h15c6 1.33301 9 7 9 17l-24 25v-42z" />
    <glyph glyph-name="period" unicode="." horiz-adv-x="403" 
d="M128 202l33.999 -7.99902c68 5.33301 119 8 153 8c0 -5.33301 3 -8 9 -8c0 5.33301 2.66699 8 8 8v-254h-76c-19.333 0 -33.666 2.66699 -42.999 8l-51 -8h-76c-11.333 0 -17 5.66699 -17 17v203c0 9.33301 19.667 20.666 59 33.999zM221.999 134.001
c1.33301 -11.333 7 -17 17 -17v17h-17zM195.999 33.001c0 -6 -2.66797 -9 -8.00098 -9c8.66699 -22.667 17 -34 25 -34l17 9c-5.33301 18 -16.666 29.333 -33.999 34z" />
    <glyph glyph-name="slash" unicode="/" horiz-adv-x="637" 
d="M347 1701l35.001 -11l78 11c12.667 0 24 -3.66699 34 -11c31.333 7.33301 57.333 11 78 11h44l17 -11l-165 -877l9 -21c-6 -28.667 -14.667 -53.667 -26 -75c0 -7.33301 3 -11 9 -11c-58 -330 -104.333 -558.333 -139 -685c5.33301 0 8 -3.33301 8 -10
c-10.667 -7.33301 -19.334 -11 -26.001 -11c-5.33301 0 -8 3.66699 -8 11l-44 -11h-251v11c-0 18 14.333 96.333 43 235c0 31.333 6 63.333 18 96l-9 22c6 42.667 14.667 64 26 64l-9 21c23.333 134 46.666 241 69.999 321l-9 22c28.667 148 57.667 279.667 87 395
c0 7.33301 -3 11 -9 11c40.667 218.667 75.334 382.667 104.001 492c13.333 0 25 3.66699 35 11zM512.001 1466h17v21c-11.333 -2 -17 -9 -17 -21zM460.001 1423v-11h34v22h-8c-11.333 -7.33301 -20 -11 -26 -11zM139.001 439l17 0.000976562c0 12 8.66699 29.667 26 53h-9
c-8 -0.666992 -19.333 -18.334 -34 -53.001zM269.001 193.001l-9 -43h26c0 10.667 5.66699 25 17 43h-34z" />
    <glyph glyph-name="zero" unicode="0" horiz-adv-x="1014" 
d="M493 1714c201.333 0 334.333 -62.332 399 -186.999c28 -74.667 42 -151 42 -229v-967c0 -156 -65 -260.667 -195 -314c-73.333 -22.667 -127 -34 -161 -34h-145c-176 0 -292 73.667 -348 221c-16.667 55.333 -25 128.666 -25 219.999v1010c28.667 107.333 74 178 136 212
c92 45.333 191 68 297 68zM399 1375v-59.999c0 -11.333 -8.33301 -17 -25 -17l-144 34c0 -13.333 53.667 -30.333 161 -51l8 -17v-195c0 -16.667 -2.66699 -25 -8 -25l8 -43v-602c0 -96 22.667 -144 68 -144h60c45.333 0 68 28 68 84v102c0 12.667 2.66699 24 8 34
c-5.33301 10 -8 21.333 -8 34l8 17l-8 17l8 42c0 11.333 -2.66699 17 -8 17l8 60v170c0 23.333 -2.66699 54.333 -8 93c0 5.33301 2.66699 8 8 8c-5.33301 66.667 -8 115 -8 145v186c0 119.333 -20 179 -60 179h-93c-28.667 -14.667 -43 -37.334 -43 -68.001z" />
    <glyph glyph-name="one" unicode="1" horiz-adv-x="709" 
d="M323 1689l296.999 0.00292969v-654c0 -30.667 3 -70.334 9 -119.001c-6 -9.33301 -9 -20.666 -9 -33.999l9 -59c0 -4.66699 -3 -27.334 -9 -68.001c6 -48 9 -87.667 9 -119c0 -6 -3 -14.333 -9 -25l9 -51v-42c0 -32.667 -3 -52.667 -9 -60c6 -30.667 9 -56 9 -76v-297
c0 -6 -3 -9 -9 -9l9 -17v-59c0 -11.333 -5.66699 -17 -17 -17h-136l-51 -9c-6 0 -9 3 -9 9l-84 -9h-60c-8 0 -16.333 8.66699 -25 26v1078c0 12.667 -3 24 -9 34c6 9.33301 9 20.666 9 33.999v34l-9 101c-10 0 -66.667 -50.667 -170 -152l-8 42v246
c0 27.333 31 69.666 93 126.999c86.667 96.667 143.334 145 170.001 145z" />
    <glyph glyph-name="two" unicode="2" horiz-adv-x="1048" 
d="M493 1697c151.333 0 264.332 -36.665 338.999 -109.998c90.667 -84.667 136 -195 136 -331c0 -156 -85 -362.667 -255 -620c-135.333 -224.667 -203 -343.334 -203 -356.001h433c11.333 -2 17 -7.66699 17 -17v-255c0 -8 -8.66699 -16.333 -26 -25h-585
c-13.333 0 -24.666 -3 -33.999 -9c-10 6 -21.333 9 -34 9h-9c-45.333 0 -99 -3 -161 -9c-11.333 6 -20 9 -26 9v246c0 38.667 76.667 180 230 424c128 220.667 210 373.667 246 459c11.333 0 22.666 56.333 33.999 169c0 72.667 -22.667 121 -68 145h-17
c-62.667 0 -94 -65.333 -94 -196v-118c0 -8.66699 -8.33301 -17.334 -25 -26.001h-331v170c0 205.333 73.667 338.333 221 399c46.667 28 117.334 42 212.001 42z" />
    <glyph glyph-name="three" unicode="3" horiz-adv-x="1022" 
d="M535 1706c143.333 -22.667 239.666 -59.6689 288.999 -111.002c73.333 -46.667 110 -205 110 -475v-17l-17 -25v-43c0 -43.333 -17 -99.666 -51 -168.999c45.333 -57.333 68 -114 68 -170v-94c0 -26.667 3 -54.667 9 -84c-6 -21.333 -9 -47 -9 -77c0 -5.33301 3 -8 9 -8
c0 -300 -147.333 -450 -442 -450c-271.333 0 -407 141.333 -407 424v68c36.667 11.333 62 17 76 17c12.667 0 24 -2.66699 34 -8c30.667 5.33301 56.334 8 77.001 8h101c11.333 0 22.666 -59.333 33.999 -178c18.667 -28.667 41.334 -43 68.001 -43h34
c45.333 28.667 68 71.334 68 128.001c0 5.33301 -2.66699 8 -8 8l8 43v119l34 33c-54 85.333 -85 128 -93 128h-145v297h145c10 0 27 19.667 51 59v212c0 85.333 -39.667 128 -119 128c-34 -38.667 -51 -106.667 -51 -204h-348v93c20 183.333 73.667 291 161 323
c74 45.333 178.667 68 314 68zM450 1460v-17c11.333 0 17 5.66699 17 17h-17z" />
    <glyph glyph-name="four" unicode="4" horiz-adv-x="1022" 
d="M510 1697l322.001 0.00195312c6 0 17.333 -11.333 34 -34c-5.33301 -76 -8 -132.667 -8 -170v-848c1.33301 -11.333 7 -17 17 -17l51 8l8 -17v-152c0 -20.667 3 -46.334 9 -77.001c-7.33301 -28 -16 -42 -26 -42h-59v-331c0 -8 -8.66699 -16.667 -26 -26h-322
c-11.333 0 -17 5.66699 -17 17v340h-111c-30.667 0 -70 2.66699 -118 8c-6 0 -9 -2.66699 -9 -8l-42 8h-34l-102 -8c-11.333 14 -17 22.333 -17 25v94c0 23.333 2.66699 46 8 68c-5.33301 21.333 -8 43.666 -8 66.999v9c209.333 578.667 333.666 904 372.999 976
c21.333 59.333 47 96 77 110zM493.001 984.002l-119 -339l85 -9h42v348h-8z" />
    <glyph glyph-name="five" unicode="5" horiz-adv-x="1031" 
d="M94 1706c62 0 246 -2.99902 552 -8.99902c58.667 6 92.334 9 101.001 9l153 -17c11.333 5.33301 20 8 26 8l8 -17v-178l9 -51c-11.333 -28.667 -17 -48.334 -17 -59.001h-501v-238l59 9c225.333 0 369.666 -85 432.999 -255c22.667 -98 34 -242.333 34 -433v-59
c0 -218 -68 -356.667 -204 -416c-57.333 -34 -139.333 -51 -246 -51c-178 0 -302.333 65 -373 195c-28.667 62.667 -43 136.334 -43 221.001v93l9 17c104.667 6 181 9 229 9h68c16.667 -6 25 -23 25 -51l-8 -51c10 -84.667 38.333 -127 85 -127c62 0 93 59.333 93 178l-8 17
c0 5.33301 2.66699 8 8 8l-8 43v118c0 13.333 -3 24.666 -9 33.999l9 17c0 119.333 -28.333 179 -85 179h-43c-42 0 -67.333 -37 -76 -111h-8c-202 97.333 -304 151 -306 161v9c5.33301 473.333 8 736.333 8 789c11.333 6 20 9 26 9z" />
    <glyph glyph-name="six" unicode="6" horiz-adv-x="1040" 
d="M518 1714c272 0 407.999 -147 407.999 -441v-77l-43 -8h-136c-20 0 -45.333 -2.66699 -76 -8l-17 8c-10 -5.33301 -21.333 -8 -34 -8c-13.333 0 -24.666 62 -33.999 186c-24 28.667 -46.667 43 -68 43c-56.667 0 -85 -48.333 -85 -145v-144l-25 -34v-25
c16.667 0 25 -5.66699 25 -17v-111c11.333 0 42.666 14.333 93.999 43c40.667 22.667 83 34 127 34h17c109.333 0 191.333 -48 246 -144c28.667 -68.667 43 -182 43 -340v-85c0 -240 -76.667 -384.333 -230 -433c0 -12 -67.667 -23.333 -203 -34h-26
c-191.333 0 -318.666 65.333 -381.999 196c-34 37.333 -51 156 -51 356v255l-8 51l8 17l-8 76c0 30 2.66699 55.333 8 76c-5.33301 63.333 -8 120 -8 170v34c0 235.333 53.667 385.333 161 450c86.667 39.333 185.667 59 297 59zM441.999 585v-101c0 -136 17 -204 51 -204
h42c34 22.667 51 51 51 85v237c0 51.333 -19.667 85.333 -59 102h-9c-50.667 0 -76 -39.667 -76 -119z" />
    <glyph glyph-name="seven" unicode="7" horiz-adv-x="946" 
d="M85 1706h781.001v-9l-237 -1672v-17h-340v9c11.333 125.333 79.333 592 204 1400h-68c-53.333 0 -107 -2.66699 -161 -8l-145 17c-9.33301 -6 -23.333 -9 -42 -9l-9 17v178l-8 51c7.33301 28.667 15.666 43 24.999 43z" />
    <glyph glyph-name="eight" unicode="8" horiz-adv-x="1031" 
d="M510 1714c214.667 -22.667 339.002 -96.332 373.002 -220.999c28.667 -50.667 43 -118.334 43 -203.001v-136c0 -81.333 -20 -163.333 -60 -246c56.667 -56.667 85 -144.334 85 -263.001v-221c0 -243.333 -82 -387.666 -246 -432.999c-36.667 -16.667 -82 -25 -136 -25
h-93c-170.667 0 -295.334 70.667 -374.001 212c-22.667 52.667 -34 100.667 -34 144v179c0 23.333 -2.66699 54.333 -8 93l8 17c-5.33301 10 -8 21.333 -8 34v8c0 17.333 2.66699 26 8 26l-8 42c0 82 22.667 147 68 195c-40.667 78.667 -63.334 161 -68.001 247v8
c0 186.667 17 302.667 51 348c78 130 211 195 399 195zM433.002 1273c0 -48 3 -124.333 9 -229l51 -43h42c30.667 0 47.667 45.333 51 136v9c0 186.667 -17 280 -51 280h-59c-28.667 0 -43 -51 -43 -153zM433.002 526.002c0 -175.333 20 -263 60 -263h42
c34 22.667 51 65 51 127v17c0 192.667 -19.667 289 -59 289h-17c-51.333 0 -77 -45.333 -77 -136v-34z" />
    <glyph glyph-name="nine" unicode="9" horiz-adv-x="1031" 
d="M510 1714c170 0 297.331 -62.332 381.998 -186.999c34 -58 51 -159.667 51 -305v-59c0 -20.667 2.66699 -46.334 8 -77.001l-8 -17l8 -51c0 -6 -2.66699 -14.333 -8 -25l8 -51v-9c0 -5.33301 -2.66699 -8 -8 -8l8 -17v-450c0 -235.333 -73.667 -385.333 -221 -450
c-85.333 -28 -161.666 -42 -228.999 -42c-139.333 0 -252.333 48 -339 144c-51.333 50 -77 154.667 -77 314v68c17.333 0 37.333 3 60 9c5.33301 0 8 -3 8 -9l60 9h178c8 0 16.333 -8.66699 25 -26v-8c0 -23.333 -2.66699 -46 -8 -68c0 -79.333 25.333 -119 76 -119h9
c56.667 0 85 45.333 85 136v348h-9c-83.333 -56.667 -145.666 -85 -186.999 -85h-76c-164 42 -246 143.667 -246 305v357c0 110 39.667 203.333 119 280c74.667 62 185 93 331 93zM424.998 1298v-8c0 -59.333 2.66699 -150 8 -272l43 -34h25c51.333 0 77 48.333 77 145v17
c0 175.333 -20 263 -60 263h-51c-28 -8.66699 -42 -45.667 -42 -111z" />
    <glyph glyph-name="colon" unicode=":" horiz-adv-x="492" 
d="M165 288l39 -9c77.333 6 135.333 9 174 9c0 -6 3.33301 -9 10 -9c0 6 3 9 9 9v-289h-86c-22 0 -38.333 3 -49 9l-58 -9h-87c-12.667 0 -19 6.33301 -19 19v231c0 10.667 22.333 23.667 67 39zM272 210c1.33301 -12.667 7.66699 -19 19 -19v19h-19zM242.001 96
c0 -7.33301 -3 -11 -9 -11c10 -25.333 19.667 -38 29 -38l19 10c-6 20.667 -19 33.667 -39 39zM138.001 696h235.001c13.333 0 20 -6.33301 20 -19v-87l-9 -58c6 -10.667 9 -27 9 -49v-86h-295c0 6 3 9 9 9c0 6.66699 -3 10 -9 10c0 38.667 3 96.667 9 174l-9 39
c15.333 44.667 28.666 67 39.999 67zM177.002 503l20 0.000976562c0 11.333 -6.66699 17.666 -20 18.999v-19zM334.002 513.001l10.001 19c0 9.33301 -13 19 -39 29c0 -6 -3.66699 -9 -11 -9c5.33301 -20 18.666 -33 39.999 -39z" />
    <glyph glyph-name="semicolon" unicode=";" horiz-adv-x="458" 
d="M87 263l279.999 -0.00195312c11.333 -2 17 -7.66699 17 -17v-263l-153 -238h-144c-11.333 0 -17 5.66699 -17 17v9c60.667 88.667 100.334 156.334 119.001 203.001l-60 9c-10.667 -6 -19 -9 -25 -9c-22.667 8.66699 -34 17.334 -34 26.001v246
c2 11.333 7.66699 17 17 17zM143.999 685.998l39 -9c77.333 6 135.333 9 174 9c0 -6 3.33301 -9 10 -9c0 6 3 9 9 9v-289h-86c-22 0 -38.333 3 -49 9l-58 -9h-87c-12.667 0 -19 6.33301 -19 19v231c0 10.667 22.333 23.667 67 39zM250.999 607.998
c1.33301 -12.667 7.66699 -19 19 -19v19h-19zM221 493.998c0 -7.33301 -3 -11 -9 -11c10 -25.333 19.667 -38 29 -38l19 10c-6 20.667 -19 33.667 -39 39z" />
    <glyph glyph-name="equal" unicode="=" horiz-adv-x="915" 
d="M80 201l5 30l-5 70c0 11.333 1.66699 21.333 5 30c-3.33301 28 -5 51 -5 69v39c1.33301 9.33301 4.66602 14 9.99902 14h248c6.66699 0 13 -2.33301 19 -7c5.33301 4.66699 11.666 7 18.999 7h57c18.667 0 44.334 2.66699 77.001 8c2.66699 0 4 -2.66699 4 -8l25 8h186
c24.667 0 58 -2.66699 100 -8c6 5.33301 10.667 8 14 8v-30h-10l10 -23v-238h-67c-10.667 0 -18.667 2.66699 -24 8c-12 -5.33301 -45.333 -10.333 -100 -15v7l-9 -7h-44c-33.333 0 -60.333 2.33301 -81 7c-23.333 -4.66699 -53.333 -7 -90 -7c-28 0 -63 2.33301 -105 7
c-17.333 -4.66699 -31.666 -7 -42.999 -7l-24 7l-43 -7c-82.667 3.33301 -124 8.33301 -124 15c0 5.33301 -1.66699 13 -5 23zM176 385h9v15h-9v-15zM204 347l5 -0.000976562v30h-10v-8c3.33301 -9.33301 5 -16.666 5 -21.999zM643 223.999v16c-5.33301 0 -13 5 -23 15v-8
c0 -11.333 7.66699 -19 23 -23zM753 376.999l15 0.000976562c6 1.33301 9 6.66602 9 15.999l-24 22v-38zM835 890l-5 -30l5 -70c0 -11.333 -1.66699 -21.333 -5 -30c3.33301 -28 5 -51 5 -69v-39c-1.33301 -9.33301 -4.66602 -14 -9.99902 -14h-248
c-6.66699 0 -13 2.33301 -19 7c-5.33301 -4.66699 -11.666 -7 -18.999 -7h-57c-18.667 0 -44.334 -2.66699 -77.001 -8c-2.66699 0 -4 2.66699 -4 8l-25 -8h-186c-24.667 0 -58 2.66699 -100 8c-6 -5.33301 -10.667 -8 -14 -8v30h10l-10 23v238h67
c10.667 0 18.667 -2.66699 24 -8c12 5.33301 45.333 10.333 100 15v-7l9 7h44c33.333 0 60.333 -2.33301 81 -7c23.333 4.66699 53.333 7 90 7c28 0 63 -2.33301 105 -7c17.333 4.66699 31.666 7 42.999 7l24 -7l43 7c82.667 -3.33301 124 -8.33301 124 -15
c0 -5.33301 1.66699 -13 5 -23zM739 706h-9v-15h9v15zM711 744l-5 0.000976562v-30h10v8c-3.33301 9.33301 -5 16.666 -5 21.999zM272 867.001v-16c5.33301 0 13 -5 23 -15v8c0 11.333 -7.66699 19 -23 23zM346 803.001l-15 -0.000976562
c-6 -1.33301 -9 -6.66602 -9 -15.999l24 -22v38z" />
    <glyph glyph-name="question" unicode="?" horiz-adv-x="1048" 
d="M476 1714c5.33301 0 8.00293 -2.66699 8.00293 -8l43 8c99.333 -1.33301 206.666 -35.333 321.999 -102c66 -56 107.333 -107.167 124 -153.5s29 -94.833 37 -145.5s-1.5 -129.5 -28.5 -236.5s-115.5 -245.167 -265.5 -414.5c-62.667 -56 -102.334 -107 -119.001 -153
v-144c0 -11.333 -5.66699 -17 -17 -17h-373v93c0 12.667 2.66699 24 8 34l-8 17c0 166.667 96.333 319.334 289 458.001c79.333 108.667 123.666 189.667 132.999 243s12 82.666 8 87.999c-28 96.667 -76 145 -144 145c-56.667 -13.333 -85 -67.333 -85 -162
c5.33301 -38.667 8 -69.667 8 -93h-263l-51 -8c-10.667 5.33301 -19 8 -25 8c0 136.667 25.333 264 76 382c53.333 68 127 116 221 144c58 6 92 11.667 102 17zM207.003 255h373c11.333 -2 17 -7.66699 17 -17v-196l-8 -85h-382v298z" />
    <glyph glyph-name="A" unicode="A" horiz-adv-x="1336" 
d="M535 1706h255c20.667 0 37.667 -48.333 51 -145c45.333 -146 184 -672 416 -1578v-26c0 -10.667 -5.66699 -16 -17 -16h-331c-13.333 2 -36 61.333 -68 178l-17 -9h-340c-18 0 -37.667 -56.333 -59 -169l-17 -9h-323c-14 0 -22.333 11.333 -25 34
c22.667 47.333 65 220 127 518c15.333 26 38 113.667 68 263l68 246c108.667 459.333 168 694 178 704c10 6 21.333 9 34 9zM637 942l-102 -492l17 -9h195l17 9c-28 108.667 -64.667 272.667 -110 492h-17zM605 127h7.99902c62.667 -16.667 94 -42 94 -76h-26
c-19.333 6 -44.666 31.333 -75.999 76zM672.999 25h17c8 0 16.333 -8.33301 25 -25h-8c-22.667 8.66699 -34 17 -34 25zM731.999 51h17.001c11.333 0 17 -5.66699 17 -17v-9h-8c-8.66699 0 -17.334 8.66699 -26.001 26zM834 34v25h9c10.667 0 16 -5.66699 16 -17l-16 -8h-9z
" />
    <glyph glyph-name="B" unicode="B" horiz-adv-x="1116" 
d="M340 1723c4 0 21.001 -3 51.001 -9c2.66699 0 14 3 34 9c34 -4 51 -9.66699 51 -17l42 8h9c88 -5.33301 204 -45 348 -119c0 -11.333 19.667 -36.666 59 -75.999c0 -22 19.667 -50.333 59 -85c28.667 -90 43 -141 43 -153v-25c0 -175.333 -53.667 -302.666 -161 -381.999
v-17c0 -6.66699 19.667 -26.334 59 -59.001c68 -122.667 102 -213.334 102 -272.001v-136c0 -44.667 -19.667 -115.334 -59 -212.001c-6.66699 0 -46.334 -42.333 -119.001 -127c-84 -62.667 -191.667 -94 -323 -94h-467c0 6.66699 -2.66699 15.334 -8 26.001
c5.33301 100.667 8 182.667 8 246c0 62 -2.66699 93 -8 93c5.33301 62 8 116 8 162v789c0 12.667 3 24 9 34c0 5.33301 -3 8 -9 8l9 85v280c0 8 8.33301 16.667 25 26h34c32.667 0 78 2.66699 136 8l17 -8c23.333 11.333 40.333 17 51 17zM442.001 1400
c0 -12.667 -3 -24 -9 -34c0 -5.33301 3 -8 9 -8l-9 -43c0 -16.667 3 -25 9 -25l-9 -60v-220h9c96.667 0 159 19.667 187 59c28 51.333 42 105 42 161c-7.33301 49.333 -24.333 89 -51 119c-36 34 -81.333 51 -136 51h-42zM433.001 704l0.000976562 -433.001h43
c78 0 134.667 31.333 170 94c16.667 32 25 68.667 25 110c0 112.667 -45.333 183.334 -136 212.001c-20.667 11.333 -43.334 17 -68.001 17h-34z" />
    <glyph glyph-name="C" unicode="C" horiz-adv-x="1082" 
d="M688 1723c50.667 -11.333 87.332 -17 109.999 -17h9v-17h25c42.667 0 99.334 -34 170.001 -102v-17c-79.333 -136 -119 -215.333 -119 -238h-17c-61.333 56.667 -109.333 85 -144 85h-26c-115.333 0 -197.333 -90.333 -246 -271c-22.667 -113.333 -34 -198.333 -34 -255
v-136l9 -42h-9c6 -16.667 14.667 -62 26 -136c-6 0 -9 -2.66699 -9 -8c8.66699 0 20 -37 34 -111c64.667 -135.333 130 -203 196 -203c0 -11.333 19.667 -17 59 -17c55.333 0 109 25.333 161 76h17c45.333 -134.667 73.666 -231 84.999 -289c0 -20 -42.333 -42.667 -127 -68
c-60 -22 -122.333 -33 -187 -33c-244.667 0 -420 135.667 -526 407c-51.333 153.333 -77 258 -77 314v170c0 12.667 -2.66699 24 -8 34c5.33301 9.33301 8 20.333 8 33v85c0 12.667 3 24 9 34l-9 17c10.667 128.667 64.667 287 162 475
c126.667 153.333 279.334 230 458.001 230z" />
    <glyph glyph-name="D" unicode="D" 
d="M289 1731c28.667 -16.667 51.333 -24.999 68 -24.999h187c56.667 0 135.667 -25.667 237 -77c120.667 -52.667 217 -174.334 289 -365.001c39.333 -140.667 59 -253.667 59 -339v-238c0 -130.667 -45.333 -286 -136 -466c-81.333 -125.333 -200 -210.333 -356 -255
c-86 -16.667 -179.333 -25 -280 -25c-11.333 0 -17 2.66699 -17 8l-42 -8h-204l-17 8c-6 302 -9 542.333 -9 721v357l-8 51c0 5.33301 2.66699 8 8 8l-8 102v204c0 5.33301 2.66699 8 8 8l-8 17v17c0 17.333 2.66699 26 8 26l-8 42v187c2 11.333 7.66699 17 17 17h178z
M415.999 1409v-798.001l9 -85h-9l9 -17v-42c0 -6 -3 -9 -9 -9c0 -5.33301 3 -8 9 -8l-9 -85v-85c0 -11.333 8.66699 -17 26 -17c123.333 0 219.333 85 288 255c22.667 93.333 34 209.333 34 348c0 200.667 -45 353.334 -135 458.001c-30 28 -72.667 56.333 -128 85h-85z" />
    <glyph glyph-name="E" unicode="E" horiz-adv-x="947" 
d="M68 1680h781c0 -40 -5.66699 -71 -17 -93c6 -30.667 9 -56.334 9 -77.001v-50l-17 -26l-60 9h-135c-36 0 -78.667 -3 -128 -9c-20.667 6 -46 9 -76 9l-17 -26v-102c0 -38.667 2.66699 -72.667 8 -102c-5.33301 -29.333 -8 -63 -8 -101v-17
c0 -15.333 5.66699 -32.333 17 -51c113.333 -6 198 -9 254 -9h136l26 -17l-9 -59v-43l9 -50c0 -6 -3 -9 -9 -9l9 -42v-60c0 -16.667 -11.333 -25 -34 -25c-6 0 -14.667 2.66699 -26 8c-11.333 0 -17 -2.66699 -17 -8c-76 5.33301 -132.333 8 -169 8h-162
c-8 0 -16.333 -8.33301 -25 -25v-391c0 -8.66699 11.333 -20 34 -34c12.667 0 24 3 34 9c5.33301 0 8 -3 8 -9l85 9h110c13.333 0 24.666 -3 33.999 -9c10 6 21.333 9 34 9h26l85 -9v-76c0 -18.667 2.66699 -32.667 8 -42l-8 -51v-102c0 -8 -8.66699 -16.667 -26 -26h-110
c-23.333 0 -54.333 3 -93 9c-11.333 -6 -20 -9 -26 -9c-20 6 -31.333 9 -34 9c-49.333 -6 -91.666 -9 -126.999 -9c-20 6 -31.333 9 -34 9c-6 0 -9 -3 -9 -9l-42 9h-289l-8 42c0 25.333 2.66699 62.333 8 111l-8 42l8 76c0 12.667 -2.66699 44 -8 94c0 4 2.66699 21 8 51
l-8 59l8 43c-5.33301 36.667 -8 73.334 -8 110.001v25c0 17.333 2.66699 26 8 26c0 6 -2.66699 14.333 -8 25c5.33301 276.667 8 491.667 8 645v331zM523 763l0.000976562 -26c0 -29.333 -8.66699 -46 -26 -50h-8c5.33301 50.667 16.666 76 33.999 76zM438.001 593h34v-17
c-22.667 0 -34 -8.33301 -34 -25h-43v34h9l17 -9c1.33301 11.333 7 17 17 17zM497.001 449h17v-17h-17v17zM489.001 415l8 0.000976562v-25l43 8c-6 -10.667 -9 -19 -9 -25c-39.333 7.33301 -59 15.666 -59 24.999c1.33301 11.333 7 17 17 17zM335.001 1695v-7.99902
c-4 -17.333 -20.667 -26 -50 -26h-26c0 17.333 25.333 28.666 76 33.999zM446.001 1763l-9 17v9h34v-43c-16.667 0 -25 -11.333 -25 -34h-17v34c0 10 5.66699 15.667 17 17zM590.001 1687v-17h-17v17h17zM624.001 1712c9.33301 0 17.667 -19.667 25 -59
c-6 0 -14.333 -3 -25 -9l8 43h-25v8c0 10 5.66699 15.667 17 17z" />
    <glyph glyph-name="F" unicode="F" horiz-adv-x="904" 
d="M315 1714c4.66699 0 27.002 -2.66602 67.002 -7.99902c149.333 5.33301 251.333 8 306 8l17 -8c10 5.33301 21.333 8 34 8h59l26 -17l-9 -34c0 -14 3 -36.667 9 -68c-6 -29.333 -9 -46.333 -9 -51c6 -36.667 9 -73.334 9 -110.001l-17 -8h-111l-84 -9v9l-17 -9h-162
l-42 -8v-187l8 -51c-5.33301 -10.667 -8 -19 -8 -25l8 -60c-5.33301 -29.333 -8 -46.333 -8 -51l25 -34l60 9h229c20 0 45.333 2.66699 76 8c9.33301 -5.33301 23.666 -8 42.999 -8v-297h-9c-32.667 0 -168.334 -3 -407.001 -9c0 -11.333 -3 -17 -9 -17
c6 -56 9 -98.333 9 -127v-594c-6 0 -9 2.66699 -9 8c-10.667 -5.33301 -19 -8 -25 -8c-5.33301 0 -8 2.66699 -8 8l-43 -8h-221c-8 0 -16.333 8.33301 -25 25v247c0 12.667 -3 23.667 -9 33c0 6 3 9 9 9c-6 133.333 -9 232.333 -9 297v238l-8 84h8
c-5.33301 11.333 -8 20 -8 26c0 12.667 2.66699 24 8 34c-5.33301 30.667 -8 56 -8 76v43c0 26.667 2.66699 55 8 85c-5.33301 22 -8 41.667 -8 59c0 5.33301 2.66699 8 8 8l-8 43v433h102c18.667 0 32.667 -3 42 -9c60.667 7.33301 97.667 13 111 17z" />
    <glyph glyph-name="G" unicode="G" horiz-adv-x="1184" 
d="M637 1723c6 0 8.99902 -3 8.99902 -9c6 0 14.333 3 25 9c174 0 290 -39.667 348 -119c0 -24 -48 -114.667 -144 -272c-47.333 56.667 -112.666 85 -195.999 85h-8c-116 0 -195.333 -104.667 -238 -314c-5.33301 0 -13.666 -110.333 -24.999 -331
c10 -163.333 32.667 -293.333 68 -390c58 -96 128.667 -144 212 -144h17c50.667 0 76 19.667 76 59v365h-169c0 4.66699 -3 27.334 -9 68.001c6 102.667 9 167.667 9 195l17 8h466v-263l9 -51c-6 -9.33301 -9 -23.333 -9 -42c0 -2.66699 3 -14 9 -34c0 -5.33301 -3 -8 -9 -8
l9 -43v-339c0 -69.333 -22.667 -112 -68 -128c-107.333 -56 -223.333 -84 -348 -84c-274 0 -458 132.667 -552 398c-50.667 115.333 -76 285.333 -76 510v8c0 12.667 2.66699 24 8 34c0 5.33301 -2.66699 8 -8 8c16.667 198 53.334 362.333 110.001 493
c69.333 127.333 131.666 203.666 186.999 228.999c79.333 68 172.666 102 279.999 102z" />
    <glyph glyph-name="H" unicode="H" horiz-adv-x="1226" 
d="M170 1731c98.667 -10 163.998 -21.333 195.998 -34c70 6 106.667 9 110 9c9.33301 -12 17.666 -57.333 24.999 -136c-5.33301 -31.333 -8 -54 -8 -68c0 -32 5.66699 -85.667 17 -161l-17 8v-17l8 -102h-8c0 -5.33301 2.66699 -8 8 -8l-8 -102v-85c6 0 14.333 3 25 9
c2.66699 0 14 -3 34 -9l43 9c10.667 -6 19 -9 25 -9l17 9c2.66699 0 14 -3 34 -9l42 9l43 -9c5.33301 30 8 47 8 51l-8 51c5.33301 48 8 84.667 8 110c0 24 -2.66699 55.333 -8 94c5.33301 34.667 8 77 8 127c0 12.667 -2.66699 24 -8 34l8 51v93c0 45.333 28.333 68 85 68
c32.667 0 52.667 3 60 9l220 -43l9 -17v-611c0 -46 2.66699 -82.667 8 -110c-5.33301 -35.333 -8 -75 -8 -119v-849c0 -33.333 -17 -50 -51 -50h-110c-6 0 -9 2.66699 -9 8l-17 -8h-144c-34 0 -51 16.667 -51 50v145c0 23.333 2.66699 46 8 68c-5.33301 20.667 -8 46 -8 76
c0 26.667 2.66699 55 8 85l-8 59c5.33301 50 8 78.333 8 85l-8 85c5.33301 10.667 8 19 8 25l-8 17c5.33301 10 8 21.333 8 34v9c0 8 -8.33301 16.333 -25 25h-76c-19.333 0 -33.666 -2.66699 -42.999 -8l-51 8h-68c-11.333 -1.33301 -17 -7 -17 -17v-577h26v-8
c0 -11.333 -8.66699 -17 -26 -17v-17l9 -51c-11.333 -45.333 -22.666 -68 -33.999 -68h-93c-13.333 0 -24.666 -2.66699 -33.999 -8c-6 0 -9 2.66699 -9 8c-6 0 -14.333 -2.66699 -25 -8c-62 5.33301 -116 8 -162 8h-8c-22.667 9.33301 -34 29 -34 59v43
c0 5.33301 2.66699 8 8 8c-5.33301 11.333 -8 20 -8 26c5.33301 29.333 8 46.333 8 51l-8 17l8 17l-8 17l8 51c0 16.667 -2.66699 25 -8 25l8 85v356c0 46 -2.66699 100 -8 162l8 17c0 5.33301 -2.66699 8 -8 8l8 59v204c0 18.667 -2.66699 33 -8 43l8 50v247
c0 32.667 3 77.667 9 135c-6 10 -9 21.333 -9 34c15.333 56.667 38 85 68 85zM59.998 1680h25v-25h-25v25z" />
    <glyph glyph-name="I" unicode="I" horiz-adv-x="471" 
d="M77 1697h297c11.333 -1.33301 17 -7 17 -17v-1723h-323v9c0 23.333 -2.66699 46 -8 68c0 6.66699 2.66699 35 8 85c-5.33301 132.667 -8 231.667 -8 297l8 34l-8 17l8 17c-5.33301 38.667 -8 69.667 -8 93l8 17l-8 17c0 11.333 2.66699 17 8 17l-8 59v484
c0 23.333 2.66699 46 8 68c-5.33301 22 -8 44.667 -8 68v373c2 11.333 7.66699 17 17 17z" />
    <glyph glyph-name="J" unicode="J" horiz-adv-x="929" 
d="M595 1748c27.333 -16.667 64.001 -25 110.001 -25h119c11.333 -2 17 -7.66699 17 -17v-162l8 -59h-8c0 -5.33301 2.66699 -8 8 -8c-5.33301 -30 -8 -47 -8 -51c0 -22.667 2.66699 -34 8 -34c-5.33301 -66.667 -8 -115 -8 -145v-729l8 -51l-17 -68c6 -11.333 9 -20 9 -26
c0 -120.667 -25.667 -216.667 -77 -288c0 -52 -76.333 -103 -229 -153c-50.667 -11.333 -87.334 -17 -110.001 -17h-68c-180 21.333 -279 58 -297 110l127 331h26c28 -35.333 64.667 -55 110 -59c84.667 0 127 36.667 127 110c0 32.667 3 52.667 9 60c0 12.667 -3 24 -9 34
c6 79.333 9 147 9 203v136c0 17.333 -3 26 -9 26l9 42v628c0 12.667 -3 24 -9 34c0 113.333 20 170 60 170c6.66699 0 35 2.66699 85 8zM357.001 1163h9c7.33301 0 27 -25.667 59 -77v-17h-17c-7.33301 0 -30 25.667 -68 77c2 11.333 7.66699 17 17 17zM349.001 772h8v-8
c0 -11.333 -5.66699 -17 -17 -17h-8v8c1.33301 11.333 7 17 17 17z" />
    <glyph glyph-name="K" unicode="K" 
d="M238 1731c21.333 -5.33301 47 -8.00098 77 -8.00098l17 8c107.333 -11.333 161 -25.333 161 -42l-9 -51c0 -6 3 -9 9 -9l-9 -42v-161c0 -44 3 -83.667 9 -119c-6 -28 -9 -65 -9 -111v-67h9c90.667 350.667 141.667 540 153 568l25 17h297c39.333 0 59 -14 59 -42
c-62 -234 -124 -488.667 -186 -764c62 -241.333 101.667 -419.666 119 -534.999c39.333 -188 76 -335 110 -441h17v-17c-10 0 -27 -5.66699 -51 -17l-59 9l-60 -9l-42 9c-63.333 -6 -120 -9 -170 -9h-17c-50.667 0 -76 56.667 -76 170c-74 270 -111 425.667 -111 467h-8
l-9 -85v-9c0 -39.333 3 -62 9 -68c-6 -38.667 -9 -69.667 -9 -93v-331c0 -29.333 -8.33301 -46.333 -25 -51h-93l-34 -25h-9c0 16.667 -5.66699 25 -17 25h-93l-26 -17v17h-93c-8.66699 0 -20 11.333 -34 34v331c0 12.667 2.66699 24 8 34l-8 17c0 12.667 2.66699 24 8 34
c0 18.667 -2.66699 32.667 -8 42c5.33301 149.333 8 274 8 374v186c0 12.667 -2.66699 24 -8 34c5.33301 10 8 21.333 8 34c0 141.333 3 345 9 611l-9 43c0 39.333 56.667 59 170 59zM1053 211.999h25v-17h-25v17zM1095 177.999h34v-8c0 -11.333 -5.66699 -17 -17 -17h-17
v25zM77 -136.001h51v-17h-34c-11.333 0 -17 5.66699 -17 17zM501 -212.001h34c-5.33301 -11.333 -8 -20 -8 -26h-51v9c16.667 0 25 5.66699 25 17z" />
    <glyph glyph-name="L" unicode="L" horiz-adv-x="819" 
d="M340 1740c18.667 -11.333 32.666 -16.999 41.999 -16.999l51 8c17.333 -32 26 -54.667 26 -68c0 -6 -3 -14.333 -9 -25l9 -51c-6 -76 -9 -141 -9 -195v-34h17c-11.333 -18.667 -17 -35.667 -17 -51v-314c0 -74 14.333 -111 43 -111v-50l-34 25l-9 -17v-76
c0 -32.667 3 -52.667 9 -60c-6 -30.667 -9 -56 -9 -76v-323c98.667 -16.667 152.667 -25 162 -25c5.33301 0 8 2.66699 8 8c79.333 -7.33301 119 -18.333 119 -33v-314c-11.333 0 -17 -3 -17 -9c-66.667 6 -114.667 9 -144 9h-357l-51 8c-8 -5.33301 -25 -8 -51 -8
c-34 0 -51 22.333 -51 67v705l9 51c-6 9.33301 -9 23.333 -9 42v246c0 19.333 -2.66699 33.666 -8 42.999l8 51v169c0 6 3 9 9 9l-9 17c0 5.33301 3 8 9 8l-9 17v102l9 51l-17 42c0 102 19.667 153 59 153c20.667 11.333 43.334 17 68.001 17h119c12.667 0 24 3 34 9z
M509.999 577.001h8v-17h-25c1.33301 11.333 7 17 17 17z" />
    <glyph glyph-name="M" unicode="M" horiz-adv-x="1481" 
d="M85 1714h272c38.667 0 67 -42.333 85 -127c39.333 -52.667 79 -129 119 -229c6.66699 0 35 -59.333 85 -178c10 -5.33301 26.667 -39.333 50 -102c22 -45.333 36.333 -68 43 -68h8c29.333 68.667 74.666 156.334 135.999 263.001c0 17.333 51 124.666 153 321.999
c20.667 59.333 43.334 96.333 68.001 111c5.33301 0 8 -3 8 -9l17 9h9c5.33301 0 8 -3 8 -9l17 9h17c6 0 9 -3 9 -9l17 9h25c6 0 9 -3 9 -9c5.33301 0 8 3 8 9l59 -9h9l42 9v-9l17 9h9c11.333 -2 17 -7.66699 17 -17v-1214c0 -20 -3 -45.333 -9 -76
c6 -7.33301 9 -27.333 9 -60v-297c0 -5.33301 -3 -8 -9 -8l9 -17c0 -24.667 -5.66699 -47.334 -17 -68.001l-85 8h-255v459c0 5.33301 3 8 9 8l-9 17v102c0 6 3 9 9 9c0 5.33301 -3 8 -9 8l9 42c0 6 -3 9 -9 9l9 42v85c0 36.667 2.66699 93.334 8 170.001
c-28.667 -28.667 -136 -243.667 -322 -645h-17c-10 12 -61 116.667 -153 314l-153 314h-8v-917l-9 -17l-84 9h-255v1527c0 6 2.66699 9 8 9l-8 17v170c0 8 8.33301 16.333 25 25z" />
    <glyph glyph-name="N" unicode="N" horiz-adv-x="1304" 
d="M1004 1782c18.667 -11.333 35.667 -16.998 51 -16.998h110c10 0 18.667 -14 26 -42c0 -17.333 -3 -37.333 -9 -60c6 -85.333 9 -164.333 9 -237v-51c0 -12.667 -3 -24 -9 -34c6 -10 9 -21.333 9 -34v-111c0 -18.667 2.66699 -32.667 8 -42l-8 -51v-51
c0 -12.667 2.66699 -24 8 -34c0 -5.33301 -2.66699 -8 -8 -8l8 -85v-43c0 -32 -2.66699 -51.667 -8 -59l17 -271c-6 -22.667 -9 -42.667 -9 -60c6 -10 9 -21.333 9 -34h-9l9 -17v-119c0 -12.667 2.66699 -24 8 -34l-8 -17c0 -12.667 2.66699 -23.667 8 -33
c-5.33301 -58 -8 -103.333 -8 -136v-85c0 -40 8.33301 -60 25 -60v-25l-59 -8v8c-11.333 -5.33301 -20 -8 -26 -8c-18.667 11.333 -35.667 17 -51 17h-8v-26c-28.667 4 -43 18 -43 42h-8l-42 -8c0 11.333 -31.333 19.666 -94 24.999c-10 12.667 -18.333 38.334 -25 77.001
l-60 110c-16.667 72 -39.334 108.667 -68.001 110h-8l8 17v9c-57.333 163.333 -136.333 333 -237 509c0 34 -8.66699 51 -26 51v-59h17v-17c0 -11.333 -5.66699 -17 -17 -17c0 -6 3 -9 9 -9l-9 -102v-195c0 -24.667 5.66699 -47.334 17 -68.001
c-5.33301 -46 -11 -74.333 -17 -85c6 -44.667 14.667 -67 26 -67c0 5.33301 2.66699 8 8 8v-17c0 -11.333 -5.66699 -17 -17 -17l9 -85c-11.333 -30 -17 -47 -17 -51c5.33301 -21.333 8 -58 8 -110c-49.333 -6 -77.666 -9 -84.999 -9v9l-17 -9c-12.667 0 -23.667 3 -33 9
c-69.333 -6 -123.333 -14.333 -162 -25c-54.667 22 -85.667 33 -93 33v162c0 16.667 -3 25 -9 25l9 43v76c0 75.333 -3 137.666 -9 186.999c6 50 9 81 9 93c-6 124.667 -9 235 -9 331l9 42l-9 17c0 11.333 3 17 9 17l-9 85v408c0 29.333 -8.33301 54.666 -25 75.999
c16.667 20.667 25 40.334 25 59.001v51l-8 51c7.33301 45.333 24.333 68 51 68c11.333 0 17 -2.66699 17 -8c42 5.33301 126.667 11 254 17c132 -222.667 225.333 -392.667 280 -510c16 -6.66699 47.333 -63 94 -169c12.667 -17.333 21 -26 25 -26
c-5.33301 204.667 -8 351.667 -8 441v60c0 45.333 -3 99 -9 161c0 34 56.667 51 170 51h34zM707 314.002h25v-26c-9.33301 0 -26 -5.66699 -50 -17v17c16.667 0 25 8.66699 25 26zM758 255.002h17v-9c0 -11.333 -5.66699 -17 -17 -17v26zM826 -8.99805h25v-50
c-8 0 -16.333 8.33301 -25 25v25zM1276 -16.998h17v-26c0 -5.33301 -3 -8 -9 -8l9 -17v-8c-22.667 8 -34 16.333 -34 25v17c11.333 0 17 5.66699 17 17zM1157 -33.998c1.33301 -11.333 7 -17 17 -17h8v17h-25zM334 -50.998h7.99902c12.667 0 21.334 -14 26.001 -42l-17 -9
h-17c-11.333 0 -17 5.66699 -17 17v17c1.33301 11.333 7 17 17 17zM884.999 -50.998l17 0.000976562c14.667 0 26 -22.667 34 -68h-8c-26 11.333 -40.333 22.666 -43 33.999v34zM129.999 -67.9971h17v-25h-17v25z" />
    <glyph glyph-name="O" unicode="O" 
d="M578 1714l185.999 -42c34 0 99.333 -48.333 196 -145c107.333 -184 161 -384.667 161 -602c5.33301 0 8 -3 8 -9s-2.66699 -14.333 -8 -25c0 -8.66699 2.66699 -48.334 8 -119.001c-16.667 -267.333 -45 -442.666 -85 -525.999c-7.33301 0 -18.666 -25.333 -33.999 -76
c-79.333 -124.667 -155.666 -187 -228.999 -187c-20 -39.333 -68 -59 -144 -59h-85c-97.333 0 -196.333 42.333 -297 127c-130 144.667 -195 382.334 -195 713.001c0 256 22.667 454 68 594c43.333 125.333 114 215.666 212 270.999c13.333 24 55.666 46.667 126.999 68
l17 -8zM390.999 713c0 -122.667 22.667 -255.666 68 -398.999c32 -68 77.333 -102 136 -102h8c75.333 0 126.333 62.333 153 187c16.667 0 25 110.333 25 331c6 19.333 9 30.666 9 33.999l-9 17c6 29.333 9 46.333 9 51c-11.333 214.667 -34 378.667 -68 492
c-43.333 68 -91.333 102 -144 102c-92.667 0 -146.667 -87.667 -162 -263c-16.667 -69.333 -25 -219.333 -25 -450zM212.999 1273v-9c2.66699 0 14 -2.66699 34 -8v17c0 11.333 -5.66699 17 -17 17c-11.333 -2 -17 -7.66699 -17 -17zM1019 1103v-17h34v9
c-20 5.33301 -31.333 8 -34 8zM229.999 1095v-17c11.333 0 17 5.66699 17 17h-17zM950.999 840.001v-34h26c-11.333 14 -17 25.333 -17 34h-9zM144.999 645.001l17 -9v26c-11.333 -2 -17 -7.66699 -17 -17zM178.999 636.001v-8h8c8 0 16.667 8.33301 26 25h-17
c-11.333 -1.33301 -17 -7 -17 -17zM212.999 628.001v-9.00098c1.33301 -11.333 7 -17 17 -17c11.333 14.667 17 23.334 17 26.001h-34zM229.999 492l-9 -17c2 -11.333 7.66699 -17 17 -17l9 17c0 11.333 -5.66699 17 -17 17z" />
    <glyph glyph-name="P" unicode="P" horiz-adv-x="1210" 
d="M375 1765c14.667 -22.667 28.667 -34.002 42 -34.002c9.33301 -22.667 29.333 -34 60 -34h17c12.667 0 24 3 34 9c10 -6 21.333 -9 34 -9h8l43 9c0 -10 28 -21.333 84 -34c72 -25.333 114.667 -48 128 -68c22.667 0 45.334 -14.333 68.001 -43
c89.333 -58.667 157 -152 203 -280c22.667 -64 34 -106.333 34 -127v-305c0 -148.667 -70.667 -284.667 -212 -408c-104.667 -79.333 -243.334 -119 -416.001 -119c0 6 -2.66699 9 -8 9v-407c0 -11.333 -8.66699 -17 -26 -17c-66 0 -119.667 -3 -161 -9
c-48.667 6 -111 9 -187 9c-5.33301 16.667 -11 25 -17 25l9 59v26l-9 51c6 10 9 21.333 9 34l-9 59l9 51l-9 17l9 17c0 14 -5.66699 62 -17 144c11.333 18.667 17 35.667 17 51v17c0 17.333 -3 26 -9 26l9 42v221c0 24.667 -5.66699 47.334 -17 68.001
c16.667 134.667 25 278.667 25 432l-8 60h8c-11.333 28.667 -17 51.334 -17 68.001c11.333 0 17 5.66699 17 17v254c0 41.333 25.667 64 77 68c0 22.667 17 34 51 34c0 -13.333 14 -27.333 42 -42c42 15.333 70.333 35 85 59zM596 1332l7.99902 -16.998
c0 -11.333 -19.667 -34 -59 -68c8 0 16.333 -8.33301 25 -25v-42h-25c0 16.667 -5.66699 25 -17 25h-26v-85l26 -34v-25c-17.333 0 -26 -5.66699 -26 -17c17.333 0 26 -8.66699 26 -26c0 -16.667 -8.66699 -25 -26 -25l9 -51c-11.333 -20.667 -17 -43.334 -17 -68.001l8 -17
c-5.33301 -10.667 -8 -19 -8 -25l8 -51c-5.33301 -30 -8 -58.333 -8 -85v-26l8 -17c107.333 16 161 38.667 161 68c28.667 0 54.334 42.667 77.001 128c14 0 22.333 33.667 25 101v68c0 113.333 -28.333 206.666 -85 279.999c-17.333 12.667 -45.333 24 -84 34z
M510.999 1315c-11.333 -18.667 -17 -35.667 -17 -51c1.33301 -11.333 7 -17 17 -17h8c0 14.667 5.66699 29 17 43c0 8 -8.33301 16.333 -25 25zM26.999 501h17v-17l8 -60h-25v77z" />
    <glyph glyph-name="Q" unicode="Q" horiz-adv-x="1260" 
d="M603 1706h34.002c77.333 0 170.666 -45.333 279.999 -136c85.333 -84 144.666 -208.667 177.999 -374c22.667 -184 34 -302.667 34 -356l-8 -102l8 -17c-22.667 -186.667 -48 -331 -76 -433v-17c84.667 -216 127 -331.667 127 -347c-18.667 -11.333 -35.667 -17 -51 -17
h-322c0 11.333 -8.66699 31 -26 59c-64 -16.667 -131.667 -30.667 -203 -42c-26 11.333 -63 17 -111 17h-25c-98 46 -185.667 119.333 -263 220c-74 169.333 -111 342 -111 518v93c0 12.667 -2.66699 24 -8 34c5.33301 11.333 8 20 8 26c0 5.33301 -2.66699 8 -8 8l8 42v9
c0 397.333 96.333 649 289 755c94.667 40 176.667 60 246 60zM391.002 916c0 -390 34 -615.999 102 -677.999c26 -22.667 54.333 -34 85 -34c62 8.66699 93 22.667 93 42c-39.333 97.333 -59 159.666 -59 186.999l25 17h119c16.667 77.333 28 199 34 365
c-6 10.667 -9 19 -9 25s3 9 9 9l-9 84v145c0 115.333 -28.333 214.333 -85 297l-76 42h-34c-110.667 0 -175.667 -167 -195 -501z" />
    <glyph glyph-name="R" unicode="R" 
d="M119 1697l162.002 -16.999c40 6 62.667 9 68 9c53.333 -6 104 -9 152 -9l34 9c171.333 -28 284.666 -73.333 339.999 -136c101.333 -98 152 -208.333 152 -331c0 -228 -87.667 -378 -263 -450l-8 -17l373 -772v-26h-110c-12.667 0 -24 3 -34 9c-10 -6 -21.333 -9 -34 -9
h-93c-12.667 0 -24 3 -34 9c-10 -6 -21.333 -9 -34 -9h-26c-17.333 0 -71 107.667 -161 323c-124.667 274 -187 418.333 -187 433l-17 8v-492c0 -12.667 3 -24 9 -34c-6 -10.667 -9 -19 -9 -25c0 -12.667 3 -24 9 -34c-6 -31.333 -9 -54 -9 -68
c6 -40.667 9 -63.334 9 -68.001c-8.66699 -22.667 -17.334 -34 -26.001 -34h-305c-11.333 0 -17 5.66699 -17 17v416c0 18.667 2.66699 32.667 8 42l-8 51v187c0 23.333 2.66699 46 8 68c-5.33301 22 -8 44.667 -8 68v135c0 20.667 2.66699 46.334 8 77.001
c0 5.33301 -2.66699 8 -8 8l8 102v535c0 7.33301 17 15.666 51 24.999zM408.002 1409l-9.00098 -43v-365c2 -11.333 7.66699 -17 17 -17c108 0 176 22.667 204 68c28.667 28.667 48.334 76.667 59.001 144c0 52 -22.333 103 -67 153c-30 40 -89.667 60 -179 60h-25z
M892.001 255.001v-9c1.33301 -11.333 7 -17 17 -17h8v9c0 11.333 -5.66699 17 -17 17h-8z" />
    <glyph glyph-name="S" unicode="S" horiz-adv-x="1100" 
d="M596 1714c2 -11.333 7.66602 -17.001 16.999 -17.001h59c3.33301 0 12 5.66699 26 17h17c0 -8.66699 5.66699 -20 17 -34l42 17c0 -22.667 22.667 -34 68 -34c0 8 8.66699 16.667 26 26v-34h-17c56.667 -40 85 -71.333 85 -94c0 -31.333 -37 -136 -111 -314l-34 -8
c-8 0 -25 14 -51 42h-17c0 -6 3 -14.333 9 -25c0 -4 -3 -21 -9 -51l9 -51c-11.333 0 -20 19.667 -26 59v26c-8.66699 0 -20 11.333 -34 34v42h17v17c-44 17.333 -72 26 -84 26c-90.667 -12 -136 -49 -136 -111v-51c0 -54 42.333 -116 127 -186
c75.333 -47.333 132 -95.333 170 -144l17 -9c0 6 2.66699 9 8 9c15.333 -44 43.666 -75.333 84.999 -94c0 -10.667 34 -75.667 102 -195c0 -22.667 14 -68 42 -136l-8 -42v-111c-30.667 -126 -73 -222 -127 -288c-22 0 -36.333 -19.667 -43 -59c-10.667 5.33301 -19 8 -25 8
l-9 -17c11.333 -2 17 -7.66699 17 -17v-42c0 -9.33301 -11.333 -20.666 -34 -33.999l-25 17c0 -6 -3 -9 -9 -9l9 60v17h-9c-88.667 -34 -139.334 -51 -152.001 -51h-128c-146 0 -253.333 31 -322 93c-32 20.667 -60.333 49 -85 85v51
c20.667 20.667 60.334 88.334 119.001 203.001c28.667 34 45.667 51 51 51h8c75.333 -90 157.333 -135 246 -135c79.333 0 119 59.333 119 178c6 0 9 2.66699 9 8c-20.667 68 -88.667 153 -204 255c-44 28 -95 70.333 -153 127c-5.33301 -10 -8 -21.333 -8 -34h-9
c-11.333 0 -19.666 28.333 -24.999 85c-11.333 0 -39.666 42.333 -84.999 127c-22.667 0 -37 39.667 -43 119c-9.33301 0 -15 51 -17 153c0 103.333 39.667 213.666 119 330.999c52.667 39.333 86.667 62 102 68c94.667 34 188 56.667 280 68c0 5.33301 5.66699 8 17 8z
M875.999 1120v-7.99902c-16.667 -62.667 -42 -94 -76 -94v26c6 19.333 31.333 44.666 76 75.999zM60.999 1069h9v-25h-34c0 8 8.33301 16.333 25 25zM773.999 1052v-17c0 -8 -8.33301 -16.333 -25 -25v8c8.66699 22.667 17 34 25 34zM799.999 993v-17.001
c0 -11.333 -5.66699 -17 -17 -17h-9v8c0 8.66699 8.66699 17.334 26 26.001zM782.999 890.999h25v-9c0 -10.667 -5.66699 -16 -17 -16l-8 16v9zM901.999 -0.000976562l0.000976562 -26c0 -29.333 -8.66699 -46 -26 -50h-8c5.33301 50.667 16.666 76 33.999 76zM817 -170.001
h34v-17c-22.667 0 -34 -8.33301 -34 -25h-43v34h9l17 -9c1.33301 11.333 7 17 17 17zM876 -314.001h17v-17h-17v17zM868 -348.001l8 0.000976562v-25l43 8c-6 -10.667 -9 -19 -9 -25c-39.333 7.33301 -59 15.666 -59 24.999c1.33301 11.333 7 17 17 17z" />
    <glyph glyph-name="T" unicode="T" horiz-adv-x="1014" 
d="M85 1706l17.002 -9.00195c6 0 9 3 9 9l85 -9h59l51 9c29.333 -11.333 94.333 -17 195 -17h77c39.333 0 101.333 2.66699 186 8v-8c6 0 9 2.66699 9 8c65.333 -11.333 105 -17 119 -17c9.33301 6 20.666 9 33.999 9l8 -17v-255c0 -11.333 -5.66699 -17 -17 -17h-229
c-16.667 -5.33301 -25 -22.333 -25 -51c0 -48 2.66699 -99 8 -153c-5.33301 -35.333 -8 -74.666 -8 -117.999l8 -34c0 -6 -2.66699 -9 -8 -9c0 -6 2.66699 -14.333 8 -25c-5.33301 -48 -8 -87.667 -8 -119v-25c0 -13.333 2.66699 -24.666 8 -33.999
c-5.33301 -10 -8 -21.333 -8 -34v-77c0 -16.667 2.66699 -25 8 -25l-8 -43v-653l-9 -43h-322c-11.333 0 -17 5.66699 -17 17v1418c0 11.333 -5.66699 17 -17 17h-9c-18.667 0 -32.667 -3 -42 -9l-51 9c-28.667 0 -71.334 -3 -128.001 -9l-8 17v102c0 23.333 2.66699 46 8 68
c-5.33301 22 -8 44.667 -8 68v25c0 8 8.33301 16.667 25 26z" />
    <glyph glyph-name="U" unicode="U" horiz-adv-x="1150" 
d="M85 1689l306 0.00195312c11.333 -2 17 -7.66699 17 -17v-280c0 -17.333 2.66699 -26 8 -26l-8 -42v-730c0 -56.667 2.66699 -141.667 8 -255c41.333 -67.333 78.333 -101 111 -101h17c96 5.33301 144 42 144 110c13.333 0 21.666 51 24.999 153v161
c0 18.667 3 32.667 9 42l-9 51v195l9 51l-9 17l17 43c-11.333 71.333 -17 122 -17 152l9 60c-6 20 -9 31.333 -9 34c6 30.667 9 56 9 76c0 19.333 -3 33.666 -9 42.999c6 30 9 55.333 9 76v170c2 11.333 7.66699 17 17 17h305l26 -17c-6 -56.667 -9 -99.334 -9 -128.001
c0 -22.667 3 -34 9 -34l-9 -59v-1069c-8.66699 -121.333 -51 -231.666 -127 -330.999c-85.333 -62.667 -147.666 -94 -186.999 -94c0 -15.333 -87.667 -26.333 -263 -33c-132.667 26.667 -228.667 69 -288 127c-90.667 93.333 -136 226.333 -136 399v314
c0 23.333 2.66699 46 8 68c-5.33301 21.333 -8 43.666 -8 66.999v289c0 23.333 2.66699 54.333 8 93c-5.33301 11.333 -8 20 -8 26c5.33301 100 8 184.667 8 254v111c2 11.333 7.66699 17 17 17zM753 930.002v-7.99902c-16.667 -62.667 -42 -94 -76 -94v26
c6 19.333 31.333 44.666 76 75.999zM651 862.003v-17c0 -8 -8.33301 -16.333 -25 -25v8c8.66699 22.667 17 34 25 34zM677 803.003v-17.001c0 -11.333 -5.66699 -17 -17 -17h-9v8c0 8.66699 8.66699 17.334 26 26.001zM660 701.002h25v-9c0 -10.667 -5.66699 -16 -17 -16
l-8 16v9z" />
    <glyph glyph-name="V" unicode="V" horiz-adv-x="1302" 
d="M170 1714c17.333 -5.33301 26 -11 26 -17l17 9c93.333 -11.333 166.666 -17 219.999 -17c11.333 -14 37 -124.333 77 -331c39.333 -123.333 64.666 -225.333 75.999 -306c32.667 -135.333 55.334 -203 68.001 -203c130 551.333 195 834 195 848
c128 -6.66699 193 -12.334 195 -17.001c10 6 21.333 9 34 9h94c34 0 51 -11.333 51 -34c-130.667 -547.333 -196 -836 -196 -866c-26.667 -76.667 -43.334 -155.667 -50.001 -237c-21.333 -24 -41.333 -109 -60 -255c-58 -225.333 -94.667 -358.333 -110 -399l-43 -8h-17
c-29.333 0 -54.666 2.66699 -75.999 8c-30 -5.33301 -58.333 -8 -85 -8h-76c-8.66699 0 -23 28 -43 84h-25v9c0 15.333 5.66699 32.333 17 51l-85 322c-20.667 108 -46 162 -76 162c-77.333 34 -134 73.333 -170 118v17c62 -27.333 93 -47 93 -59c10 0 35.667 -14 77 -42h25
c-39.333 138.667 -84.666 319.667 -135.999 543l-25 25c5.33301 20 8 31.333 8 34c-73.333 316.667 -110 483.667 -110 501c0 14.667 36.667 34.334 110 59.001zM909 93c11.333 -1.33301 17 -7 17 -17v-17h-17c-11.333 0 -17 5.66699 -17 17c1.33301 11.333 7 17 17 17z" />
    <glyph glyph-name="W" unicode="W" horiz-adv-x="2075" 
d="M196 1731l-0.00390625 -7.99902l17 8c96.667 -11.333 161.667 -17 195 -17h17c13.333 0 36 -93.333 68 -280c16.667 -47.333 56.334 -197.333 119.001 -450c16.667 -66.667 25 -103.334 25 -110.001h17c62 269.333 93 410.666 93 423.999c28.667 96 60 234.667 94 416
l17 9c49.333 -6 77.666 -9 84.999 -9l17 9c5.33301 0 8 -3 8 -9c6 0 14.333 3 25 9c58 -6 103.333 -9 136 -9h43c39.333 0 59 -31 59 -93l119 -484c0 -12 22.667 -105.333 68 -280c10 1.33301 29.667 72 59 212c79.333 334.667 127.333 547 144 637l26 17
c20.667 -11.333 43.334 -17 68.001 -17h271l9 -34c-175.333 -758 -263 -1148.33 -263 -1171c-15.333 -32 -38 -134 -68 -306c-11.333 0 -28.333 -70.667 -51 -212c-10 -45.333 -38.333 -68 -85 -68l-59 -8c0 11.333 -5.66699 17 -17 17
c-50.667 -11.333 -84.667 -17 -102 -17c-68 0 -102 28 -102 84c-34 148.667 -62.333 250.667 -85 306c0 26 -22.667 113.667 -68 263l-59 255c0 22.667 -5.66699 34 -17 34c-11.333 -85.333 -42.333 -232.666 -93 -441.999c0 -24 -34 -168.333 -102 -433
c0 -39.333 -39.667 -59 -119 -59l-42 9c-9.33301 0 -43.333 -3 -102 -9c-62.667 0 -94 31 -94 93v34h-17l9 17c-34 111.333 -51 173.666 -51 186.999c-7.33301 0 -18.666 45.333 -33.999 136c-39.333 100 -64.666 199 -75.999 297c-22.667 48 -39.667 113 -51 195
c-9.33301 0 -23.666 59.333 -42.999 178c-22.667 48.667 -48 156.334 -76 323.001c-17.333 34 -40 124.333 -68 271v43c4.66699 18.667 50 32.667 136 42z" />
    <glyph glyph-name="X" unicode="X" horiz-adv-x="1141" 
d="M841 1680c1.33301 -11.333 6.99902 -17.001 16.999 -17.001c52 11.333 83 17 93 17c73.333 -7.33301 110 -15.666 110 -24.999c0 -28.667 -53.667 -181.667 -161 -459c-73.333 -209.333 -124.333 -339.333 -153 -390v-42
c28.667 -51.333 102.334 -246.666 221.001 -585.999c22.667 -38 51 -114.333 85 -229v-42c-15.333 -14.667 -49.333 -23.334 -102 -26.001c-57.333 11.333 -91.333 17 -102 17l-8 -17c-85.333 4 -128 21 -128 51c-90 212 -135 330.667 -135 356h-17
c-74 -207.333 -125 -340 -153 -398c-111.333 7.33301 -170.666 13 -177.999 17l-51 -9h-77l-42 9c0 5.33301 2.66699 8 8 8l-8 17v34c11.333 0 28.333 36.667 51 110l144 365c45.333 133.333 90.666 246.666 135.999 339.999c-22.667 36.667 -79.334 183.667 -170.001 441
c-39.333 80 -67.666 150.667 -84.999 212c-39.333 86.667 -59 143.334 -59 170.001h-17v59h229c28.667 0 71 3 127 9l145 -399h17c0 24 36.667 125.667 110 305c0 30 22.667 61.333 68 94c36.667 0 65 2.66699 85 8z" />
    <glyph glyph-name="Y" unicode="Y" horiz-adv-x="1294" 
d="M85 1706l195.999 0.000976562l51 -9c10.667 6 19 9 25 9c30 -6 58.333 -9 85 -9l204 -517h8c118.667 314.667 186.667 487 204 517c11.333 0 17 3 17 9l59 -9h93c13.333 0 24.666 -2.66699 33.999 -8c10 5.33301 21.333 8 34 8h94c8 0 16.333 -8.33301 25 -25v-17
c-5.33301 -40 -98.666 -283.333 -279.999 -730c-63.333 -139.333 -105.666 -255.333 -126.999 -348l8 -85c0 -32 -2.66699 -51.667 -8 -59c5.33301 -58 8 -103.333 8 -136v-331c0 -4.66699 -8.33301 -13 -25 -25c-94 5.33301 -164.667 8 -212 8h-119v390l8 51
c0 6 -2.66699 9 -8 9l8 59v17c0 23.333 -2.66699 46 -8 68l8 51c0 45.333 -28.333 136 -85 272c-212 519.333 -319.333 793.666 -322 822.999z" />
    <glyph glyph-name="Z" unicode="Z" horiz-adv-x="989" 
d="M332 1731l33.999 -7.99902c53.333 5.33301 104 8 152 8c6 0 14.667 -2.66699 26 -8c10.667 5.33301 19 8 25 8c14 0 36.667 -2.66699 68 -8c30.667 5.33301 56 8 76 8l17 -8c10 5.33301 21.333 8 34 8h26c12.667 0 24 -2.66699 34 -8c10 5.33301 21.333 8 34 8h8
c8.66699 0 20 -11.333 34 -34v-229c-90.667 -218.667 -203.667 -529.667 -339 -933l-85 -196c-22.667 -51.333 -34 -85 -34 -101c62 0 101.667 2.66699 119 8c53.333 -5.33301 104 -8 152 -8h111l59 8l17 -25v-51c0 -20.667 -2.66699 -46.334 -8 -77.001
c11.333 -22 17 -53 17 -93c0 -28.667 -11.333 -45.667 -34 -51c-6 0 -9 2.66699 -9 8l-42 -8c-22.667 0 -34 2.66699 -34 8l-102 -8h-306c-26.667 0 -54.667 -2.66699 -84 -8c-21.333 5.33301 -47 8 -77 8h-127c0 8 -11.333 22 -34 42v196c0 20 68 206.667 204 560
c22.667 36 34 70 34 102c16.667 30.667 93 225.667 229 585h-26c-50 0 -84 -2.66699 -102 -8c-49.333 5.33301 -91.666 8 -126.999 8h-136l-59 -8c-11.333 14 -17 22.333 -17 25v51c0 23.333 2.66699 46 8 68c-5.33301 22 -8 44.667 -8 68v76c6 0 14.333 3 25 9
c6 0 9 -3 9 -9l42 9l51 -9z" />
    <glyph glyph-name="backslash" unicode="\" horiz-adv-x="641" 
d="M321 1690c28.667 -109.333 63.334 -273.333 104.001 -492c-6 0 -9 -3.66699 -9 -11c29.333 -115.333 58.333 -247 87 -395l-9 -22c23.333 -80 46.666 -187 69.999 -321l-9 -21c11.333 0 20 -21.333 26 -64l-9 -22c12 -32.667 18 -64.667 18 -96
c28.667 -138.667 43 -217 43 -235v-11h-251l-44 11c0 -7.33301 -3 -11 -9 -11s-14.667 3.66699 -26 11c0 6.66699 3 10 9 10c-34.667 126.667 -81 355 -139 685c6 0 9 3.66699 9 11c-11.333 21.333 -20 46.333 -26 75l9 21l-165 877l17 11h44
c20.667 0 46.667 -3.66699 78 -11c10 7.33301 21.333 11 34 11l78 -11l35 11c10 -7.33301 21.667 -11 35 -11zM290 1057v-21h17c0 12 -5.66699 19 -17 21zM308 1120h-8v-22h34v11c-6 0 -14.667 3.66699 -26 11zM229 802l-9.00098 -0.000976562c17.333 -23.333 26 -41 26 -53
h17c-15.333 34.667 -26.666 52.334 -33.999 53.001zM328.999 192.999c12 -18 18 -32.333 18 -43h26l-9 43h-35z" />
    <glyph glyph-name="grave" unicode="`" horiz-adv-x="601" 
d="M521 1079l-69 0.000976562l-330 202c-20.667 13.333 -36.167 26.666 -46.5 39.999s-15.5 27.333 -15.5 42c0 20.667 6.83301 37.667 20.5 51s31.5 20 53.5 20c13.333 0 26.833 -4 40.5 -12s32.167 -23.667 55.5 -47z" />
    <glyph glyph-name="a" unicode="a" horiz-adv-x="1294" 
d="M756 1748c22.667 0 39.666 -45.334 50.999 -136.001l68 -229c39.333 -146.667 59 -237 59 -271c-5.33301 0 -8 -3 -8 -9c20 0 37 -51 51 -153c14 -29.333 30.667 -88.666 50 -177.999c11.333 0 17 -19.667 17 -59h-34l-33 25h-9l-8 -42v-43h17
c14.667 17.333 31.334 26 50.001 26c2 11.333 7.66699 17 17 17c113.333 -392.667 170 -622 170 -688h-322c-9.33301 0 -26.333 51 -51 153c-14.667 17.333 -31.667 26 -51 26h-348c-20 0 -37 -56.667 -51 -170c-14 -11.333 -22.333 -17 -25 -17c-6 0 -9 2.66699 -9 8
l-17 -8h-8c-6 0 -9 2.66699 -9 8c-10.667 -5.33301 -19 -8 -25 -8l-60 8l-51 -8l-17 8c-5.33301 0 -8 -2.66699 -8 -8l-43 8h-59v9c0 20.667 62.333 286.667 187 798l203 814c16.667 74 31 111 43 111c104 5.33301 191.667 8 263 8zM636.999 1612h17c0 28.667 14 43 42 43
l9 17l-17 8h-25c-11.333 0 -20 -22.667 -26 -68zM568.999 1595v-8h34v8h-34zM678.999 1578v-25h17v25h-17zM645.999 1570v-9c1.33301 -11.333 7 -17 17 -17l8 17v9h-25zM585.999 1553l-8 -17v-9h8c0 6 3 14.667 9 26h-9zM678.999 1417l17 -8c11.333 0 17 5.66699 17 17v8
h-17c-11.333 -2 -17 -7.66699 -17 -17zM678.999 1358l-8 -17.001c0 -9.33301 11.333 -20.666 34 -33.999l8 17zM687.999 1256v-43h8c11.333 6 20 9 26 9c2 -11.333 7.66699 -17 17 -17h8l-17 42l-17 -8h-8v17h-17zM594.999 1222l-9.00098 -17
c8.66699 -22.667 17.334 -34 26.001 -34v34c0 11.333 -5.66699 17 -17 17zM789.998 1205v-25h8c11.333 0 17 5.33301 17 16v9h-25zM797.998 1163l0.000976562 -43.001l43 9c13.333 0 24.666 -22.667 33.999 -68l25 -17c0 6 3 14.333 9 25
c-28.667 22.667 -43 48.334 -43 77.001l9 42h-17c-13.333 -16.667 -33.333 -25 -60 -25zM551.999 1154c17.333 -14 26 -25.333 26 -34h8c0 6 3 14.667 9 26l-17 8h-26zM628.999 1103v-33.999c-14 0 -28.333 -8.33301 -43 -25h-17v17h-8v-60h34v-42
c-10 -12.667 -30 -92 -60 -238h-42c-11.333 -1.33301 -17 -7 -17 -17h42v-76c0 -14 -8.33301 -48 -25 -102c4 -28 12.333 -42 25 -42h26c20 0 45.333 2.66699 76 8l17 -8c10 5.33301 21.333 8 34 8c6 0 14.333 -2.66699 25 -8c40 3.33301 60 14.666 60 33.999
c-22.667 84.667 -34 163.667 -34 237c5.33301 0 8 3 8 9c0 16.667 -11.333 25 -34 25v9c0 5.33301 3 8 9 8l-9 17l17 26l-17 -9c-19.333 0 -36 73.667 -50 221c5.33301 10.667 8 19 8 25zM432.999 1086l-8 -42c4 -28.667 12.333 -43 25 -43h34v17l-8 17l-17 -8h-9v17
c17.333 0 26 8.33301 26 25zM865.999 975.998v-17h26c14 16.667 28 25 42 25v17c-7.33301 0 -30 -8.33301 -68 -25zM763.999 975.998v-34c0 -8 8.66699 -16.667 26 -26h8c16 0 27.333 22.667 34 68l-17 9h-34c-11.333 -2 -17 -7.66699 -17 -17zM492.999 975.998v-17h25v17
h-25zM466.999 932.998l17 -8h17v25h-17c-11.333 -1.33301 -17 -7 -17 -17zM517.999 949.998v-25c11.333 0 17 5.66699 17 17v8h-17zM687.999 941.998v-17h17v17h-17zM331.999 924.998v-9c1.33301 -11.333 7 -17 17 -17h8v26h-25zM441.999 881.998h34c-6 11.333 -9 20 -9 26
c-8 0 -16.333 -8.66699 -25 -26zM492.999 865.998v-9.00098h17v17l25 -17v9c0 10.667 -5.66699 16 -17 16h-8c-11.333 -1.33301 -17 -6.66602 -17 -15.999zM356.999 873.997v-25h9v25h-9zM848.999 873.997v-8h26v8h-26zM763.999 848.997c0 -8.66699 8.66699 -17.333 26 -26
v9c0 11.333 -5.66699 17 -17 17h-9zM916.999 848.998l-8 -17l25 -17c11.333 5.33301 20 8 26 8v9c-14.667 0 -29 5.66699 -43 17zM806.999 839.998v-25h25v8c0 11.333 -5.66699 17 -17 17h-8zM721.999 822.998v-25h17v25h-17zM500.999 788.998l-8 -17
c1.33301 -11.333 7 -17 17 -17h8v17c0 11.333 -5.66699 17 -17 17zM314.999 780.998v-26h25v26h-25zM356.999 729.998v-9c8 0 16.333 14.333 25 43h17v17h-17c-16.667 -6 -25 -23 -25 -51zM449.999 754.998v-17c2 -11.333 7.66699 -17 17 -17h9v34h-26zM755.999 729.998v-26
h8v26h-8zM763.999 669.998v-17h17v17h-17zM882.999 601.998v-8c2 -11.333 7.66699 -17 17 -17l17 8c11.333 -5.33301 20 -8 26 -8v17c-22.667 0 -34 5.66699 -34 17c-11.333 -6 -20 -9 -26 -9zM992.999 559.998v-8c2 -11.333 7.66699 -17 17 -17c11.333 0 17 5.66699 17 17
l-17 8h-17zM976.999 432.998c1.33301 -11.333 6.66699 -17 16 -17v17h-16zM968 220.998c2 -11.333 7.66699 -17 17 -17v17h-17zM985 186.998v-34c10.667 5.33301 19 8 25 8v9c0 11.333 -5.66699 17 -17 17h-8z" />
    <glyph glyph-name="b" unicode="b" horiz-adv-x="1082" 
d="M162 1723c9.33301 0 26.332 -5.66602 50.999 -16.999c10.667 5.33301 19 8 25 8l17 -8c11.333 5.33301 20 8 26 8l17 -8c18 11.333 35 17 51 17h50c192 0 347.667 -48.333 467 -145c36.667 -78.667 59.334 -118 68.001 -118c30.667 -11.333 47.667 -65.333 51 -162v-34
c0 -96 -14 -166.667 -42 -212c-21.333 0 -41.333 -34 -60 -102c-34 0 -51 -11.333 -51 -34c-10.667 -5.33301 -19 -8 -25 -8v-9c73.333 -60 110 -108 110 -144c40 0 68.333 -104.667 85 -314c-21.333 -123.333 -66.666 -225 -135.999 -305
c-102.667 -85.333 -215.667 -128 -339 -128c-6 0 -9 3 -9 9l-59 -9c-116.667 11.333 -196 17 -238 17h-161v365c0 19.333 2.66699 33.666 8 42.999l-8 51c0 56 2.66699 172 8 348c0 18.667 -2.66699 32.667 -8 42c5.33301 58 8 103.333 8 136v93c0 145.333 3 349 9 611h8
c13.333 0 24.666 -2.66699 33.999 -8c18.667 11.333 33 17 43 17zM280.999 1663v-17c11.333 0 17 5.66699 17 17h-17zM237.999 1629l-8 -17v-17h8c11.333 0 17 5.66699 17 17s-5.66699 17 -17 17zM415.999 1468l-24.999 -34v-365c0 -34 19.667 -51 59 -51
c21.333 0 38.333 -5.66699 51 -17h17c0 16 34 50 102 102c17.333 29.333 31.666 63.333 42.999 102h8c0 175.333 -85 263 -255 263zM773 1392v-9c1.33301 -11.333 7 -17 17 -17c11.333 0 17 5.66699 17 17l-17 9h-17zM340 1239h17v17c-11.333 -2 -17 -7.66699 -17 -17z
M221 1052c2 -11.333 7.66699 -17 17 -17h9v34h-9c-11.333 -1.33301 -17 -7 -17 -17zM382 747.001l9.00098 -34.001c0 -23.333 -3 -46 -9 -68c0 -7.33301 3 -35.666 9 -84.999c-6 -98 -9 -177.333 -9 -238c11.333 -25.333 22.666 -39.333 33.999 -42h26
c110 0 180.667 51 212 153c6 30.667 9 56 9 76v51c0 56 -37 115.333 -111 178c-39.333 11.333 -73.333 17 -102 17h-51zM790.001 696v-34.001l8 -17c26.667 16.667 43.667 25 51 25c0 8.66699 -8.33301 17.334 -25 26.001h-34zM722.001 491.999l-0.000976562 -17h8
c8.66699 0 17.334 8.66699 26.001 26l-17 8c-11.333 -2 -17 -7.66699 -17 -17zM764 389.999v-8c2 -11.333 7.66699 -17 17 -17v25h-17zM595 304.999v-17h17v17h-17zM281 220.999c5.33301 -45.333 13.667 -68 25 -68c2 11.333 7.66699 17 17 17l43 -9v9
c0 11.333 -5.66699 17 -17 17h-51c0 22.667 -5.66699 34 -17 34zM382.001 194.999c2 -11.333 7.66699 -17 17 -17v17h-17z" />
    <glyph glyph-name="c" unicode="c" horiz-adv-x="1031" 
d="M654 1748l17 -8l17 8c90.667 -9.33301 175.667 -40.333 255 -93v-26c-32 -96.667 -69 -170 -111 -220c-79.333 46 -119 74 -119 84h-17c0 -10.667 -2.66699 -16 -8 -16c-84 0 -146.333 -28.333 -187 -85c-34 -14 -51 -42.333 -51 -85
c-26.667 0 -54.667 -152.667 -84 -458h-9v-17c22.667 0 34 -76.667 34 -230c8.66699 -8 25.667 -53 51 -135c37.333 -92 91 -154.333 161 -187c0 -6 31 -17.333 93 -34c58 0 109 19.667 153 59h26l68 -195c5.33301 -7.33301 8 -27 8 -59c-80 -56.667 -181.667 -85 -305 -85
c-248 0 -423.667 150 -527 450c-16.667 66 -25 105.667 -25 119c5.33301 10.667 8 19 8 25c-11.333 0 -17 5.66699 -17 17s11.333 17 34 17v25c-28 0 -42 5.66699 -42 17c-11.333 50.667 -17 118.667 -17 204v26c0 12.667 2.66699 23.667 8 33c-5.33301 10 -8 21.333 -8 34
c0 164 34 331 102 501c85.333 135.333 164.333 220.333 237 255c76.667 39.333 161.667 59 255 59zM467 1595v-25l9 -43h34c11.333 0 17 5.66699 17 17v9c-22.667 0 -34 5.66699 -34 17v8c0 6 2.66699 9 8 9c-5.33301 10.667 -8 19 -8 25h-9
c-11.333 -1.33301 -17 -7 -17 -17zM399 1587l17 -9h9v26h-9c-11.333 -2 -17 -7.66699 -17 -17zM747 1604v-17c2 -11.333 7.66699 -17 17 -17v17c0 11.333 -5.66699 17 -17 17zM374 1587l-8 -17l16 -9h9v9c0 11.333 -5.66699 17 -17 17zM366 1519v-26h8
c11.333 0 17 5.66699 17 17l-17 9h-8zM264 1443v-9c1.33301 -11.333 7 -17 17 -17h8c0 8 -8.33301 16.667 -25 26zM298 1375v-34h8c5.33301 0 28 2.66699 68 8v-8c0 -17.333 -11.333 -26 -34 -26v-17c17.333 0 26 -11.333 26 -34h16c0 22.667 8.66699 34 26 34v68h-17v-17
h-9c-22 11.333 -33 20 -33 26l-17 -9h-17zM204 1341v-34c11.333 0 17 5.66699 17 17v17h-17zM264 1256v-9c1.33301 -11.333 7 -17 17 -17l8 17l-17 9h-8zM145 849c0 -6 -3 -14.667 -9 -26l34 -59l-51 -9v-25c34 -4 51 -12.667 51 -26v-59c-16.667 0 -25 -5.66699 -25 -17
c14 0 28 -5.66699 42 -17l51 68c-39.333 24.667 -59 55.667 -59 93c11.333 18.667 17 33 17 43l-43 34h-8zM85 840c0 -8.66699 11.333 -20 34 -34l9 17c0 11.333 -5.66699 17 -17 17h-26zM332 789v-34h17v17c0 11.333 -5.66699 17 -17 17zM221 747
c2 -11.333 7.66699 -17 17 -17c11.333 0 17 5.66699 17 17v8c-10 -5.33301 -21.333 -8 -34 -8zM323 721v-25h26c0 8 -8.66699 16.333 -26 25zM340 662v-26h9c0 6 2.66699 14.667 8 26h-17zM306 569v-51c28.667 0 43 -5.66699 43 -17v-9h17v9
c-26.667 45.333 -43.667 68 -51 68h-9zM136 535v-9h17v26c-11.333 -2 -17 -7.66699 -17 -17zM187 492c6 -10.667 9 -19 9 -25h8v25h-17zM230 484v-17h17v17h-17zM136 475v-25h17v8c0 11.333 -5.66699 17 -17 17zM298 212v-8c5.33301 -11.333 8 -20 8 -26
c11.333 0 17 5.66699 17 17v17h-25zM696 178v-17c11.333 0 17 5.66699 17 17v17c-11.333 -2 -17 -7.66699 -17 -17zM569 178v-25h17v8c0 11.333 -5.66699 17 -17 17zM510 93v-8h34v17h-9c-10.667 -6 -19 -9 -25 -9z" />
    <glyph glyph-name="d" unicode="d" horiz-adv-x="1192" 
d="M111 1714c18 0 69 -5.66504 153 -16.998c28 11.333 78.667 17 152 17l17 -8l17 8c195.333 0 342.666 -59.333 441.999 -178c60.667 -47.333 111.334 -121 152.001 -221v-34c-15.333 0 -32.333 5.66699 -51 17v-8l17 -26c-16.667 -22 -25 -39 -25 -51
c18.667 11.333 32.667 17 42 17l17 -8c11.333 5.33301 20 8 26 8v-42c28 -57.333 42 -150.666 42 -279.999v-119c0 -20 -2.66699 -45.333 -8 -76c0 -6 2.66699 -9 8 -9c0 -79.333 -17 -119 -51 -119v-8c11.333 0 17 -2.66699 17 -8c0 -50.667 -28.333 -144.334 -85 -281.001
c-6.66699 0 -32 -36.667 -76 -110c-105.333 -79.333 -162 -119 -170 -119c-116.667 -39.333 -207 -59 -271 -59h-221c-124.667 0 -187 11.333 -187 34v93c0 50.667 -2.66699 84.667 -8 102c5.33301 49.333 8 91.666 8 126.999v204c0 70.667 3 135.667 9 195l-9 60
c6 160 9 298.333 9 415v247c0 23.333 2.66699 54.333 8 93c-5.33301 10 -8 21.333 -8 34h8l-8 17v17c0 43.333 11.333 68.666 34 75.999zM187 1646l-8 -17c1.33301 -11.333 7 -17 17 -17l8 17c0 11.333 -5.66699 17 -17 17zM221 1646v-8c2 -11.333 7.66699 -17 17 -17l9 17
v8h-26zM374 1400v-17c16.667 0 25 -19.667 25 -59l-8 -43l8 -59l-8 -85c0 -4 2.66699 -21 8 -51l-8 -17c5.33301 -30.667 8 -53.334 8 -68.001c-5.33301 -29.333 -8 -46.333 -8 -51c5.33301 -10.667 8 -19 8 -25s-2.66699 -9 -8 -9l8 -42c0 -16.667 -2.66699 -25 -8 -25
l8 -43v-59l-8 -51c5.33301 -10 8 -21.333 8 -34s-2.66699 -24 -8 -34c5.33301 -38.667 8 -69.667 8 -93v-77c-11.333 -81.333 -17 -123.666 -17 -126.999c0 -24 14.333 -44 43 -60c106 0 196.333 56.667 271 170c62.667 114.667 94 276 94 484c-6 22 -9 44.667 -9 68h9
c0 120.667 -48 248 -144 382c-81.333 56.667 -155 85 -221 85c-12.667 0 -27 -20 -43 -60h-8zM900 1460c0 -11.333 -5.66699 -17 -17 -17c-10 5.33301 -21.333 8 -34 8v-25c8.66699 0 20 -5.66699 34 -17h9c8 0 16.333 8.33301 25 25v9c0 11.333 -5.66699 17 -17 17z
M272 1451c2 -11.333 7.66699 -17 17 -17h9c0 11.333 -5.66699 17 -17 17h-9zM815 1409c2 -11.333 7.66699 -17 17 -17v17h-17zM247 1392c5.33301 -9.33301 8 -23.667 8 -43c8 0 16.667 8.66699 26 26v25h-17zM798 1358v-9c2 -11.333 7.66699 -17 17 -17v9
c0 11.333 -5.66699 17 -17 17zM841 1358v-26c1.33301 -11.333 7 -17 17 -17l8 43h-25zM764 1349l-17 -25h17c11.333 0 17 5.66699 17 17zM272 1341v-34h17v17c0 11.333 -5.66699 17 -17 17zM747 1307c2 -11.333 7.66699 -17 17 -17v17h-17zM875 1239
c0 -8 8.33301 -16.667 25 -26v34c-10.667 -5.33301 -19 -8 -25 -8zM951 1205v-17c2 -11.333 7.66699 -17 17 -17h9v34h-26zM1010 1180l-8 -17v-9h8c11.333 0 17 5.66699 17 17zM196 1112v-9c1.33301 -11.333 7 -17 17 -17v9c0 11.333 -5.66699 17 -17 17zM993 1078
c0 -12.667 -2.66699 -24 -8 -34c0 -21.333 17 -41.333 51 -60l17 26v8c-22.667 22.667 -34 42.667 -34 60h-26zM153 1001l26 -17c8 32 19.333 57.667 34 77l-17 8h-17c-17.333 -3.33301 -26 -26 -26 -68zM264 1061v-26h17v9c0 11.333 -5.66699 17 -17 17zM196 967.001
c16.667 -14 25 -28 25 -42h43v8c-22.667 26.667 -34 46.667 -34 60h-9c-8 0 -16.333 -8.66699 -25 -26zM1010 942.001c0 -12.667 -2.66699 -24 -8 -34l17 -9l8 43h-17zM230 874.001v-25c6 0 14.333 -3 25 -9l9 17v9c-20 5.33301 -31.333 8 -34 8zM153 806.001h26v17h-9
c-11.333 -2 -17 -7.66699 -17 -17zM993 815.001v-9h26v9h-26zM230 764.001v-43h-26v17h-25v-8l17 -34c34.667 0 63 17 85 51h8v8c-17.333 0 -37 3 -59 9zM119 747.001v-26h17v26h-17zM1010 645.001c-16.667 -22 -25 -39 -25 -51l17 -9c0 11.333 8.33301 17 25 17v26
c0 11.333 -5.66699 17 -17 17zM586 161.001v-25h9c11.333 0 17 5.66699 17 17v8h-26zM510 144.001v-34c8.66699 0 20 -5.66699 34 -17h8c11.333 0 17 5.66699 17 17v9c-22.667 0 -34 8.33301 -34 25h-25zM128 102.001c2 -11.333 7.66699 -17 17 -17h25v8
c0 8 -8.33301 16.667 -25 26c-11.333 -2 -17 -7.66699 -17 -17zM102 59.001v-17h9c11.333 0 17 5.66699 17 17h-26z" />
    <glyph glyph-name="e" unicode="e" horiz-adv-x="912" 
d="M170 1723l17 -9l60 9c53.333 -6 104 -9 152 -9l17 9c6 0 9 -3 9 -9c76 6 132.667 9 170 9h68c101.333 0 152 -8.66699 152 -26v-229c0 -8 -8.33301 -16.333 -25 -25h-348l-43 8c-11.333 -28 -19.666 -42 -24.999 -42c7.33301 -90.667 13 -141.667 17 -153
c-6 -11.333 -9 -20 -9 -26c0 -12.667 3 -24 9 -34c-6 -30 -9 -55.333 -9 -76v-51c0 -39.333 34 -59 102 -59c48 5.33301 87.667 8 119 8h17c39.333 0 101.666 -2.66699 186.999 -8v-43c0 -28 2.66699 -70.333 8 -127h-8c0 -5.33301 2.66699 -8 8 -8
c-6.66699 -62.667 -15 -94 -25 -94c-6 0 -14.667 3 -26 9l-51 -9c-6 0 -14.333 3 -25 9c-42.667 -6 -71 -11.667 -85 -17c-10.667 5.33301 -19 8 -25 8l-34 -8l-43 8c-6 0 -14.333 -2.66699 -25 -8l-51 8h-17c-17.333 -5.33301 -26 -22.333 -26 -51v-76
c0 -18.667 3 -32.667 9 -42l-9 -51c0 -32.667 3 -78 9 -136l-9 -17c6 -56.667 14.667 -85 26 -85h314l51 -9c9.33301 6 23.333 9 42 9c11.333 -2 17 -7.66699 17 -17v-246c0 -11.333 -5.66699 -17 -17 -17h-382c-28 0 -42 5.66699 -42 17
c-18.667 -11.333 -35.667 -17 -51 -17h-255c-11.333 0 -17 5.66699 -17 17v17c11.333 14 17 22.333 17 25c-11.333 0 -17 5.66699 -17 17v433c0 46 -2.66699 99.667 -8 161c5.33301 28.667 11 43 17 43l-9 42v26c0 5.33301 3 8 9 8l-9 17v60c0 12.667 3 23.667 9 33l-9 17
c6 62 9 116 9 162v51h51c0 -22.667 5.66699 -34 17 -34h8v25c-7.33301 0 -21.333 14.333 -42 43h-9c-10.667 -6 -19 -9 -25 -9v17c0 6 2.66699 9 8 9l-17 33c0 6 3 9 9 9l-9 42c0 4 3 41 9 111c0 3.33301 -3 40 -9 110c10 5.33301 21.333 8 34 8v34
c-16.667 0 -25 14.333 -25 43v127c0 11.333 31 20 93 26zM136 1349v-8c6 -11.333 9 -20 9 -26h8c11.333 0 17 5.66699 17 17c-8.66699 0 -20 5.66699 -34 17zM264 1018l-9 -17v-8c2 -11.333 7.66699 -17 17 -17h9v17l34 -26h8v26c-11.333 14 -17 22.333 -17 25l-17 -8h-8z
M739 984v-25h8c11.333 0 17 5.66699 17 17v8h-25zM493 942h17v17c-11.333 -2 -17 -7.66699 -17 -17zM679 849c6 -22.667 9 -42.667 9 -60l51 9c0 29.333 -8.66699 46.333 -26 51h-34zM315 713c0 -40 -14.333 -60 -43 -60v-17c40 11.333 60 34 60 68v9h-17zM238 687l-8 -17
h25c0 11.333 -5.66699 17 -17 17zM196 424v-17h17v17h-17zM544 221v-17h17v17h-17zM552 178c0 -8.66699 -5.66699 -20 -17 -34c2 -11.333 7.66699 -17 17 -17c0 8.66699 5.66699 20 17 34c0 11.333 -5.66699 17 -17 17zM323 153c0 -12.667 -2.66699 -24 -8 -34h8l17 8
c-5.33301 11.333 -8 20 -8 26h-9zM238 127v-17h17v17h-17zM433 110c2 -11.333 7.66699 -17 17 -17v17h-17zM340 93v-17l34 -8v8c0 11.333 -5.66699 17 -17 17h-17z" />
    <glyph glyph-name="f" unicode="f" horiz-adv-x="895" 
d="M340 1714l0.00195312 -8.00098l17 8c30 -5.33301 47 -8 51 -8c5.33301 0 8 2.66699 8 8l60 -8h42c24 0 55.333 2.66699 94 8c10.667 -5.33301 19 -8 25 -8l17 8l51 -17l68 17c12 0 26 -19.667 42 -59l-8 -60v-59c0 -6 -3 -9 -9 -9l9 -17v-8
c0 -30.667 -11.333 -50.334 -34 -59.001h-391c-5.33301 -31.333 -8 -54 -8 -68c0 -28.667 2.66699 -71.334 8 -128.001c0 -6 -2.66699 -14.333 -8 -25c5.33301 -38.667 8 -69.667 8 -93v-102l43 -9h365c11.333 0 17 -8.33301 17 -25l-9 -51c6 -46.667 11.667 -75 17 -85
l-8 -51v-51c0 -11.333 -5.66699 -17 -17 -17h-51c-20.667 0 -46 3 -76 9c-6 0 -9 -3 -9 -9l-42 9h-85c-6 0 -9 2.66699 -9 8l-85 -17c-10.667 6 -19 9 -25 9c-22.667 -6 -34 -23 -34 -51v-688h-76c-20.667 0 -46.334 3 -77.001 9c-9.33301 -6 -23.333 -9 -42 -9l-17 9
c-11.333 -6 -20 -9 -26 -9c-50.667 4.66699 -76 13.334 -76 26.001v93c0 34 11.333 51 34 51v9c-17.333 24.667 -26 44.334 -26 59.001h9l34 -42h34c-6.66699 18 -21 37.667 -43 59c-10.667 -5.33301 -19 -8 -25 -8c-11.333 28 -17 47.667 -17 59l17 8
c-11.333 18.667 -17 35.667 -17 51v85c0 19.333 2.66699 33.666 8 42.999l-8 51v50l8 60l17 -9v34h-25v195c0 48.667 5.66699 108.334 17 179.001h17v-17h17c0 24 -11.333 41 -34 51c0 16.667 -5.66699 36.334 -17 59.001c5.33301 74 8 133.333 8 178v128h9l25 -17v8
c-11.333 14 -17 22.667 -17 26l9 16c-8.66699 0 -17.334 11.333 -26.001 34l9 34c0 6 -3 14.667 -9 26c6 38.667 9 69.667 9 93v26h161zM170.002 1570v-34h9c5.33301 20 8 31.333 8 34h-17zM179.002 1477v-34c1.33301 -11.333 7 -17 17 -17h8l9 42l-17 9h-17zM255.002 1477
v-17c15.333 0 32.333 -8.66699 51 -26l9 17c0 8 -8.66699 16.667 -26 26h-34zM289.002 1426v-17h17v17h-17zM128.002 1129c0 -6 -3 -9 -9 -9c6 -45.333 14.667 -68 26 -68c0 34 5.66699 56.667 17 68c-12.667 0 -24 3 -34 9zM264.002 949.999h25v17h-8
c-11.333 -1.33301 -17 -7 -17 -17zM94.002 958.999v-34c2 -11.333 7.66699 -17 17 -17l8 42v9h-25zM221.002 915.999l26 -34c-6 -10.667 -9 -19 -9 -25l17 -8c11.333 0 17 5.66699 17 17c0 10.667 -5.66699 16 -17 16l9 43v8h-9c-14 -11.333 -25.333 -17 -34 -17z
M162.002 788.999l-0.000976562 -17h17v-59c16.667 11.333 36.334 17 59.001 17v34c0 11.333 -5.66699 17 -17 17l-17 -9v26zM501.001 780.999v-9h26v17c-11.333 -5.33301 -20 -8 -26 -8zM399.001 771.999v-8h26v8h-26zM306.001 584.999v-16h17v16h-17zM340.001 551.999v-17
h17v17h-17zM213.001 474.999v-34h8v34h-8zM289.001 398.999v-9c6 -22.667 20.333 -34 43 -34v17c0 10 -14.333 18.667 -43 26zM213.001 321.999v-34c8 0 16.333 8.66699 25 26v8h-25zM85.001 313.999v-9c2 -11.333 7.66699 -17 17 -17c11.333 0 17 5.66699 17 17v9h-34z
M145.001 270.999l-9 -16l17 -9l9 17z" />
    <glyph glyph-name="g" unicode="g" horiz-adv-x="1158" 
d="M722 1748c91.333 -6.66699 181.663 -40.667 270.996 -102v-8c-77.333 -152.667 -119.666 -229 -126.999 -229h-8c-50 45.333 -120.667 68 -212 68c-108 -41.333 -162 -81 -162 -119c-34 -26 -65 -125 -93 -297c0 -7.33301 -3 -35.666 -9 -84.999c0 -6 3 -9 9 -9l-9 -42
v-136c0 -180.667 42.667 -333.334 128 -458.001c56.667 -41.333 93.334 -64 110.001 -68h119c28 0 42 39.667 42 119v339l-42 -8l-60 8c-22 -5.33301 -41.667 -8 -59 -8l-8 17v212c1.33301 11.333 7 17 17 17h152c6 0 9 -3 9 -9l17 9h25c31.333 0 71 -3 119 -9
c10.667 6 19.334 9 26.001 9c10.667 -6 19 -9 25 -9c10.667 6 19 9 25 9v-9l17 9h9c11.333 -2 17 -7.66699 17 -17v-51c0 -39.333 2.66699 -101.666 8 -186.999h-8l8 -17v-186l-8 -51c5.33301 -10 8 -21.333 8 -34c0 -6 -2.66699 -9 -8 -9l8 -42v-221
c-9.33301 -73.333 -133.666 -124.333 -372.999 -153h-85c-210 0 -371.333 124.667 -484 374c-50.667 128.667 -76 275.667 -76 441v187c22 164 39 246 51 246c0 80.667 53.667 196.667 161 348c11.333 10.667 45.333 36 102 76h8l17 -8c0 31.333 45.333 56.666 136 75.999
h43l17 -8c1.33301 11.333 7 17 17 17h42c23.333 0 46 2.66699 68 8zM687.997 1655v-26h17v9c0 11.333 -5.66699 17 -17 17zM823.997 1519l-9 -17h26c0 11.333 -5.66699 17 -17 17zM144.997 1188v-25h8v25h-8zM186.997 1086v-17h9c8 0 16.333 8.66699 25 26v8h-17
c-11.333 -2 -17 -7.66699 -17 -17zM823.997 840c5.33301 -16.667 11 -24.999 17 -24.999c39.333 7.33301 59 18.666 59 33.999l-8 17c-19.333 -17.333 -42 -26 -68 -26zM1002 857.001l-9 -17h26c0 11.333 -5.66699 17 -17 17zM772.997 823.001l-9 -17v-8l51 -17v17
c0 12.667 -14 21 -42 25zM967.997 815.001v-26h17c-5.33301 11.333 -8 20 -8 26h-9zM823.997 747.001v-17c9.33301 0 23.333 -8.66699 42 -26l9 17c-8 0 -25 8.66699 -51 26zM237.997 653.001v-25h9v25h-9zM916.997 509.001v-34l43 9c10.667 -26 21.667 -40.333 33 -43
c25.333 6 42.333 20.333 51 43c-28 0 -42 5.66699 -42 17l-17 -9h-25l-26 17h-17zM1010 288.001c2 -11.333 7.66699 -17 17 -17h9v17h-26zM602.997 136.001c0 -3.33301 -2.66699 -14.667 -8 -34h25v34h-17z" />
    <glyph glyph-name="h" unicode="h" horiz-adv-x="1141" 
d="M968 1731l16.999 -8.00195c10.667 5.33301 19 8 25 8c22.667 -8.66699 34 -17 34 -25v-60c0 -20 -2.66699 -45.333 -8 -76c11.333 -26 17 -54.333 17 -85c0 -17.333 -3 -37 -9 -59c6 -37.333 9 -74.333 9 -111v-34c0 -16.667 -3 -25 -9 -25l9 -43v-619
c0 -23.333 2.66699 -54.333 8 -93c0 -6 -2.66699 -9 -8 -9l8 -59v-128c0 -30.667 -2.66699 -70 -8 -118c5.33301 -9.33301 8 -23.666 8 -42.999h-8l8 -17v-119c0 -11.333 -5.66699 -17 -17 -17h-237l-51 -8c-11.333 5.33301 -20 8 -26 8v145c0 74 -2.66699 170 -8 288
c5.33301 10 8 21.333 8 34l-8 17l8 77c-5.33301 76 -8 141 -8 195h-323l-8 -43v-152c0 -46 2.66699 -100 8 -162l-8 -17c5.33301 -10 8 -21.333 8 -34c0 -11.333 -2.66699 -17 -8 -17l8 -59v-93c0 -19.333 -2.66699 -33.666 -8 -42.999l8 -51v-76
c0 -11.333 -5.66699 -17 -17 -17h-212l-85 -9c-4 22.667 -9.66699 34 -17 34l9 60v42c0 32.667 -3 52.667 -9 60c6 30.667 9 56 9 76c0 54 -3 119 -9 195l9 43l-9 17l9 17l-9 17c0 11.333 3 17 9 17l-9 59v441l-8 51c4.66699 20.667 10.334 85.667 17.001 195l-17 94
c0 5.33301 2.66699 8 8 8l-8 60v161c0 12.667 2.66699 24 8 34c-5.33301 10 -8 21.333 -8 34v8c2 11.333 7.66699 17 17 17h305v-76c0 -24 3 -55.333 9 -94l-9 -17l9 -17l-9 -42c6 -30 9 -47 9 -51l-9 -59c6 -48 9 -87.667 9 -119c-6 -17.333 -11.667 -26 -17 -26
c11.333 -18 17 -34.667 17 -50v-60c0 -5.33301 -3 -8 -9 -8c6 -45.333 14.667 -68 26 -68h305c11.333 0 17 5.66699 17 17c0 30 -2.66699 55.333 -8 76c0 17.333 2.66699 26 8 26c-5.33301 84.667 -8 146.667 -8 186v391h195zM908.999 1646v-8l17 -9v9zM169.999 1604v-26h9
c11.333 0 17 5.66699 17 17l-17 9h-9zM780.999 1587v-26h9v26h-9zM110.999 1527v-8c11.333 0 17 5.66699 17 17v8c-11.333 -1.33301 -17 -7 -17 -17zM288.999 1460v-34h9c11.333 0 17 5.66699 17 17zM789.999 1426c5.33301 -22.667 8 -42.667 8 -60h26
c-6 22.667 -9 42.667 -9 60h-25zM763.999 1409v-26h17v26h-17zM152.999 1375v-26h9v26h-9zM814.999 1120c0 -22.667 -11.333 -34 -34 -34v-34h26c8 0 16.333 8.66699 25 26v25c0 11.333 -5.66699 17 -17 17zM118.999 992.998v-9h17c11.333 0 17 5.66699 17 17l-17 9
c-11.333 -2 -17 -7.66699 -17 -17zM933.999 949.998c8.66699 0 20 11.333 34 34v17c-22.667 -11.333 -34 -28.333 -34 -51zM110.999 831.998v-9h25v26h-8c-11.333 -2 -17 -7.66699 -17 -17zM331.999 695.998v-26h8v26h-8zM823.999 627.998h8c11.333 0 17 5.66699 17 17h-8
c-11.333 -2 -17 -7.66699 -17 -17zM254.999 508.998v-8c2 -11.333 7.66699 -17 17 -17h9v42h-9c-11.333 -2 -17 -7.66699 -17 -17zM237.999 457.998v-34c14 0 28.333 -5.66699 43 -17l8 17v9c-16.667 0 -25 8.33301 -25 25h-26zM942.999 415.998v-17
c1.33301 -11.333 7 -17 17 -17v17c0 11.333 -5.66699 17 -17 17zM908.999 330.998v-17h17c0 11.333 -5.66699 17 -17 17zM186.999 92.998v-8c2 -11.333 7.66699 -17 17 -17l9 17v8h-26z" />
    <glyph glyph-name="i" unicode="i" horiz-adv-x="471" 
d="M77 1731l204.001 0.000976562c12.667 0 24 -2.66699 34 -8c9.33301 5.33301 20.666 8 33.999 8h33v-34l9 -85h-9l9 -17c0 -4 -3 -21 -9 -51l9 -17c0 -5.33301 -3 -8 -9 -8l9 -42v-34c0 -19.333 -3 -33.666 -9 -42.999l9 -51v-136c0 -22 -3 -33 -9 -33l9 -60v-1112
c0 -11.333 -5.66699 -17 -17 -17h-306v484h17v9h-17v161c0 23.333 -2.66699 54.333 -8 93c0 6 2.66699 9 8 9l-8 85v381l17 60c-11.333 39.333 -17 73.333 -17 102v25c0 19.333 2.66699 33.666 8 42.999c-5.33301 19.333 -8 30.666 -8 33.999c5.33301 79.333 8 147 8 203
l-8 43zM102.001 1604c2 -11.333 7.66699 -17 17 -17h17c0 11.333 -5.66699 17 -17 17h-17zM145.001 1587l17 -9l8 17v9h-8c-11.333 -2 -17 -7.66699 -17 -17zM238.001 1587v-26h9c11.333 0 17 5.66699 17 17v9h-26zM272.001 1493l9 -16v-26h25v-17h-8l-17 9l-17 -26v-25
c39.333 22.667 59 36.667 59 42v9c-16 44.667 -27.333 67 -34 67c-11.333 -1.33301 -17 -7 -17 -17zM204.001 1485v-25c10 5.33301 21.333 8 34 8v17h-34zM136.001 1256h17v17c-11.333 -2 -17 -7.66699 -17 -17zM136.001 1222c0 -14 -8.33301 -28 -25 -42h42
c0 6 3 14.333 9 25c-14 11.333 -22.667 17 -26 17zM298.001 942.001c8.66699 0 20 11.333 34 34v17c-22.667 -11.333 -34 -28.333 -34 -51zM153.001 212.001v-8h34l-8 17c-11.333 -6 -20 -9 -26 -9z" />
    <glyph glyph-name="j" unicode="j" horiz-adv-x="844" 
d="M459 1731c76 -5.33301 132.668 -7.99902 170.001 -7.99902h17c12.667 0 23.667 -3 33 -9c10 6 21.333 9 34 9h34c11.333 -2 17 -7.66699 17 -17v-1333c0 -104 -25.333 -177.333 -76 -220c0 -84.667 -102 -144.334 -306 -179.001h-8c-209.333 24.667 -314 53 -314 85v9
c0 13.333 28.333 92.333 85 237c0 17.333 8.33301 26 25 26c43.333 -30.667 88.666 -47.667 135.999 -51c82 0 127.333 62.333 136 187v509c0 5.33301 2.66699 8 8 8l-8 17v102c0 32.667 2.66699 78 8 136c-5.33301 10 -8 21.333 -8 34l8 34c0 12.667 -2.66699 24 -8 34
c5.33301 79.333 8 147 8 203v170zM722.001 1544c0 -2.66699 -3 -14 -9 -34h9c11.333 0 17 5.66699 17 17s-5.66699 17 -17 17zM569.001 1536l-17 -26v-17l34 -8l26 34c-18.667 11.333 -33 17 -43 17zM569.001 1349c2 -11.333 7.66699 -17 17 -17h9v17h-26zM688.001 1332v-17
h17c0 11.333 -5.66699 17 -17 17zM671.001 1001v-25h8v25h-8zM696.001 577.001l-7.99902 -17c5.33301 -34 13.666 -51 24.999 -51l9 17v26c0 8 -8.66699 16.333 -26 25zM442.002 144.001h17v17c-11.333 -1.33301 -17 -7 -17 -17z" />
    <glyph glyph-name="k" unicode="k" horiz-adv-x="1073" 
d="M119 1731l93.999 0.00195312c56.667 0 141.334 -2.66699 254.001 -8v-9c0 -30.667 3 -109.667 9 -237c0 -13.333 -3 -24.666 -9 -33.999c6 -30.667 9 -56.334 9 -77.001v-280h8c0 53.333 51 262.666 153 627.999l17 9h9c38 0 71.667 -3 101 -9c30 6 47 9 51 9
c79.333 -4.66699 119 -10.334 119 -17.001c11.333 -18.667 17 -33 17 -43c0 -15.333 -14 -49.333 -42 -102c0 -5.33301 2.66699 -8 8 -8c-56.667 -230.667 -102 -434.334 -136 -611.001c34 -117.333 51 -196.666 51 -237.999l128 -551c0 -20 11 -71 33 -153
c0 -17.333 -2.66699 -26 -8 -26c-10 -5.33301 -21.333 -8 -34 -8h-34c-44 0 -83.667 2.66699 -119 8c-27.333 -5.33301 -64 -8 -110 -8h-34c-16.667 0 -33.667 53.667 -51 161c-45.333 164.667 -85 351.334 -119 560.001h-8v-110c0 -91.333 -3 -213 -9 -365
c0 -6 3 -14.333 9 -25c-6 -30.667 -9 -56.334 -9 -77.001v-127c0 -11.333 -5.66699 -17 -17 -17h-373c-11.333 0 -17 5.66699 -17 17v619c0 13.333 2.66699 24.666 8 33.999l-8 17c0 4.66699 2.66699 21.667 8 51c-5.33301 58.667 -8 92.667 -8 102
c0 12.667 2.66699 24 8 34c-5.33301 38.667 -8 69.667 -8 93v51c0 20.667 2.66699 46.334 8 77.001l-8 17l17 144c-6 54 -9 107.667 -9 161c0 6 3 14.667 9 26c-6 22 -9 41.667 -9 59s3 37 9 59c-6 30 -9 58.333 -9 85v17c0 6 3 9 9 9l-9 17v8c0 45.333 17 68 51 68z
M721.999 1553l16.999 -9c11.333 0 17 5.66699 17 17l-9 17c6 11.333 9 20 9 26h-9c-11.333 0 -19.666 -17 -24.999 -51zM772.998 1349l-9 -17v-8c2 -11.333 7.66699 -17 17 -17l9 17v8c0 11.333 -5.66699 17 -17 17zM424.998 1222l-9 -17v-17h9c11.333 0 17 5.66699 17 17
s-5.66699 17 -17 17z" />
    <glyph glyph-name="l" unicode="l" horiz-adv-x="819" 
d="M374 1723l8 -17.002v-297c0 -12.667 -2.66699 -24 -8 -34c11.333 -28.667 17 -79.667 17 -153v-637c0 -12.667 2.66699 -23.667 8 -33l-8 -17c5.33301 -58 8 -103.333 8 -136v-43l-8 -51c5.33301 -10.667 8 -19 8 -25h26c12.667 0 24 -3 34 -9l17 9c5.33301 0 8 -3 8 -9
l60 9h186v-204l9 -51c-6 -9.33301 -9 -20.666 -9 -33.999h-653l-9 60c0 5.33301 3 8 9 8l-9 43v339c0 48.667 -2.66699 99.667 -8 153c5.33301 16.667 8 56.334 8 119.001v25c0 6 3 9 9 9l-17 102l8 17c-5.33301 48 -8 87.333 -8 118v9c0 5.33301 2.66699 8 8 8l-8 17v416
l8 51c-5.33301 9.33301 -8 23.333 -8 42h8l-8 17v153c2 11.333 7.66699 17 17 17h8c41.333 0 67 -17 77 -51h8l9 17l-17 26v8h8c131.333 6 199.333 9 204 9zM213 1655c0 -6 -3 -9 -9 -9c6 -10.667 9 -19 9 -25c-6 -11.333 -9 -20 -9 -26h9c11.333 0 17 5.66699 17 17v26
c0 11.333 -5.66699 17 -17 17zM255 1612l-7.99902 -17v-25c1.33301 -11.333 7 -17 17 -17c11.333 0 17 8.33301 17 25c-8.66699 22.667 -17.334 34 -26.001 34zM102.001 1587l-8 -17l17 -9h8v9c0 11.333 -5.66699 17 -17 17zM102.001 1477
c24.667 -19.333 52.999 -39.333 84.999 -60c11.333 6 20 9 26 9v25c-28.667 0 -43 14 -43 42c-7.33301 0 -18.666 17 -33.999 51c-22.667 -4 -34 -26.333 -34 -67zM221 1527v-17h17v17h-17zM238 1485v-8c11.333 -13.333 17 -30.333 17 -51c28.667 0 45.667 11.333 51 34
l-17 8c-10 -5.33301 -21.333 -8 -34 -8c0 16.667 -5.66699 25 -17 25zM221 1392v-9h17v26c-11.333 -2 -17 -7.66699 -17 -17zM289 1392l17 -9v26c-11.333 -2 -17 -7.66699 -17 -17zM298 720.998l-26 -42c26 10.667 40.333 22 43 34zM399 118.998v-9
c2 -11.333 7.66699 -17 17 -17v9c0 11.333 -5.66699 17 -17 17z" />
    <glyph glyph-name="m" unicode="m" horiz-adv-x="1464" 
d="M1078 1714l76.9961 -8.00195c76.667 5.33301 130.334 8 161.001 8v-8l17 8h25c0 -30 3 -55.333 9 -76c0 -12.667 -3 -24 -9 -34c6 -80 9 -148 9 -204v-271c0 -13.333 2.66699 -24.666 8 -33.999c0 -6 -2.66699 -9 -8 -9c5.33301 -77.333 8 -125.333 8 -144
c6 -584.667 9 -901.667 9 -951l-43 -8h-42c-6 0 -9 2.66699 -9 8l-16 -8h-170c-34 0 -51 17 -51 51v127c0 34 2.66699 51 8 51l-8 85v611c0 11.333 -5.66699 17 -17 17c-27.333 -30 -129.333 -239.333 -306 -628c-15.333 5.33301 -66 101.333 -152 288l-85 162
c-16 49.333 -47.333 105.666 -94 168.999h-8c0 -12.667 -3 -24 -9 -34c6 -57.333 9 -102.333 9 -135v-85c0 -6 -3 -9 -9 -9l17 -93l-8 -51v-59c0 -23.333 2.66699 -46 8 -68c-5.33301 -22 -8 -44.667 -8 -68c0 -17.333 2.66699 -26 8 -26l-8 -42v-51
c0 -48 2.66699 -118.667 8 -212l-42 -9h-136c-20 0 -45.333 -2.66699 -76 -8l-17 8c-10 -5.33301 -21.333 -8 -34 -8c-11.333 14 -17 22.333 -17 25v238c0 59.333 -3 150 -9 272h9c-6 10.667 -9 19 -9 25s3 9 9 9l-9 42v238c0 12.667 -2.66699 24 -8 34
c5.33301 9.33301 8 20.333 8 33v51h17c-11.333 26 -17 54.333 -17 85c8.66699 0 17.334 8.66699 26.001 26v8c0 4.66699 -8.66699 13.334 -26 26.001l-8 118l8 51c-5.33301 11.333 -8 20 -8 26l8 17l-8 34l8 59l-8 43l17 8h34c11.333 0 17 -14 17 -42h8
c26.667 22.667 46.667 34 60 34c0 8 -22.667 27.667 -68 59h-26c-11.333 0 -17 -8.33301 -17 -25h-17l9 17l-17 33l8 77c0 4 -2.66699 21 -8 51l8 17c-5.33301 10 -8 21.333 -8 34c28.667 11.333 51.334 17 68.001 17l42 -9l43 9c5.33301 0 8 -3 8 -9l43 9h85
c70 -109.333 137.667 -239.666 203 -390.999c17.333 -28 26 -53.333 26 -76h-17v-9c43.333 0 80 -48 110 -144c11.333 -4 25.333 -32.333 42 -85h17c7.33301 0 27.333 42.667 60 128c46.667 80.667 131.334 256 254.001 526zM118.996 1680v-17h17v17h-17zM178.996 1663
l25 -17v34h-8c-11.333 -1.33301 -17 -7 -17 -17zM1248 1646v-17h17v17h-17zM254.996 1587v-17c11.333 0 17 5.66699 17 17h-17zM1155 1587v-26h17v9c0 11.333 -5.66699 17 -17 17zM152.996 1553v-9h43v9h-43zM1155 1502c0 -22.667 22.667 -39.667 68 -51v26
c-14.667 0 -34.667 8.33301 -60 25h-8zM415.996 1493v-25h17v25h-17zM322.996 1460l-8 -17c1.33301 -11.333 7 -17 17 -17l8 17c0 11.333 -5.66699 17 -17 17zM398.996 1451v-8c6 0 14.667 -3 26 -9v26c-11.333 -6 -20 -9 -26 -9zM458.996 1358v-17h17
c0 11.333 -5.66699 17 -17 17zM186.996 1324l9 -43h8c0 17.333 8.66699 26 26 26h8v17h-51zM1002 1290c-14.667 -28.667 -31.667 -43.001 -51 -43.001v-42h9c0 8 11 27.667 33 59v9l17 -9h17c0 8.66699 -8.33301 17.334 -25 26.001zM203.996 1273v-9h9l-9 -17v-8
c11.333 0 17 5.66699 17 17s-5.66699 17 -17 17zM331.996 1256v-9c16.667 0 25 -8.33301 25 -25h9v8c-11.333 18.667 -17 33 -17 43c-11.333 -2 -17 -7.66699 -17 -17zM390.996 1196v-16c11.333 0 17 5.33301 17 16h-17zM348.996 1171l-9 -17v-8
c2 -11.333 7.66699 -17 17 -17l9 17v8c0 11.333 -5.66699 17 -17 17zM314.996 1010h17v17c-11.333 -2 -17 -7.66699 -17 -17zM1104 1027v-17h17c0 11.333 -5.66699 17 -17 17zM984.996 1010l-0.000976562 -9c11.333 0 17 -17 17 -51l17 9c-7.33301 34 -18.666 51 -33.999 51
zM1299 1001c0 -6 -3 -14.333 -9 -25h26v8c0 11.333 -5.66699 17 -17 17zM967.995 932.997c2 -11.333 7.66699 -17 17 -17l8 17h-25zM161.995 729.997c1.33301 -11.333 7 -17 17 -17c0 8 8.33301 19.333 25 34h-8c-14 -11.333 -25.333 -17 -34 -17zM178.995 644.997l25 -17
v34h-8c-11.333 -2 -17 -7.66699 -17 -17zM263.995 601.997l-9 -17l17 -8c11.333 0 17 5.66699 17 17c-6 0 -14.333 2.66699 -25 8zM118.995 457.997v-34c2 -11.333 7.66699 -17 17 -17c0 6 3 9 9 9c-7.33301 28 -16 42 -26 42zM152.995 313.997v-26
c11.333 0 17 5.66699 17 17zM195.995 203.997v-9h17v26c-11.333 -2 -17 -7.66699 -17 -17zM229.995 194.997l17 -8h8v25h-8c-11.333 -2 -17 -7.66699 -17 -17zM127.995 194.997c5.33301 -10 8 -21.333 8 -34h17v17c0 11.333 -5.66699 17 -17 17h-8zM331.995 169.997
c0 -22.667 -11.334 -34 -34.001 -34v-9c25.333 0 42.333 -2.66699 51 -8c11.333 14 17 22.333 17 25v9c-9.33301 0 -20.666 5.66699 -33.999 17z" />
    <glyph glyph-name="n" unicode="n" horiz-adv-x="1184" 
d="M332 1697c30.667 -6.66699 98.333 -117 203 -331c56.667 -96 110.334 -203.333 161.001 -322v-34c34 0 51 -20 51 -60h26v196c0 39.333 2.66699 61.666 8 66.999c-5.33301 39.333 -8 70.666 -8 93.999v365c1.33301 11.333 7 17 17 17h297l8 -102v-755
c0 -13.333 3 -24.666 9 -33.999l-17 -34c4 -34 9.66699 -51 17 -51l-9 -85v-509h-8c-40 0 -60 17 -60 51l-42 -9h-25v-34c44.667 0 67 -17 67 -51h17l26 17h25v-102c0 -11.333 -5.66699 -17 -17 -17c-16.667 0 -25 3 -25 9l-85 -9h-93c-16 0 -44.333 59.667 -85 179
c-68.667 109.333 -116.667 211 -144 305c-48 67.333 -119 217.333 -213 450c-12.667 16.667 -21 25 -25 25c-11.333 -1.33301 -17 -7 -17 -17v-823c0 -12.667 -3 -24 -9 -34c6 -10 9 -21.333 9 -34v-34c0 -11.333 -8.33301 -17 -25 -17c-28.667 0 -71.334 3 -128.001 9
c-22 -6 -41.667 -9 -59 -9v9l-17 -9h-77c-11.333 0 -17 5.66699 -17 17v94c0 23.333 -2.66699 46 -8 68c5.33301 22 8 44.667 8 68v8l-8 51l17 59c-11.333 42.667 -17 82.334 -17 119.001v77c0 15.333 5.66699 32 17 50l-9 51v17h17v34c-11.333 0 -19.666 54 -24.999 162
c10 5.33301 21.333 8 34 8c0 8.66699 -11.333 20 -34 34l8 42v128c0 39.333 3 62 9 68c-6 38.667 -9 69.667 -9 93v339c0 6 3 9 9 9l-9 17v85c2 11.333 7.66699 17 17 17c19.333 0 101.666 2.66699 246.999 8zM203.999 1655v-17c2 -11.333 7.66699 -17 17 -17l9 17
c0 11.333 -5.66699 17 -17 17h-9zM814.999 1595v-34c0 -8 8.66699 -16.333 26 -25h8v17c-11.333 14 -17 28 -17 42h-17zM254.999 1392c0 -11.333 -5.66602 -17 -16.999 -17v-26c19.333 0 33.666 -2.66699 42.999 -8l8 17zM416 1341c2 -11.333 7.66699 -17 17 -17h17
c0 11.333 -5.66699 17 -17 17h-17zM841 1341v-26h8v26h-8zM153 1315l-8 -51l42 9c-16.667 18.667 -25 32.667 -25 42h-9zM204 1290v-9c2 -11.333 7.66699 -17 17 -17v26h-17zM866 1281v-25c11.333 0 17 5.66699 17 17v8h-17zM832 1230l17 -8v25
c-11.333 -1.33301 -17 -7 -17 -17zM960 1247l-9 -17v-8h9c11.333 0 17 5.66699 17 17zM136 1213v-17h26v17h-26zM111 1188v-17c2 -11.333 7.66699 -17 17 -17v17c0 11.333 -5.66699 17 -17 17zM934 1188v-17h17c0 11.333 -5.66699 17 -17 17zM230 1163l17 -9l8 17v9h-8
c-11.333 -2 -17 -7.66699 -17 -17zM145 1154v-17h17c0 11.333 -5.66699 17 -17 17zM544 984v-8h34v8h-34zM781 925v-9c2 -11.333 7.66699 -17 17 -17l9 17v9h-26zM849 916l-24.999 -34c2.66699 0 11 -5.33301 25 -16l26 16c-8.66699 22.667 -17.334 34 -26.001 34z
M943.001 891v-9c12.667 0 24 -2.66699 34 -8v8l-17 9h-17zM773.001 866v-43c11.333 0 17 5.66699 17 17v9c0 11.333 -5.66699 17 -17 17zM909.001 866v-9h25v9h-25zM671.001 840c2 -11.333 7.66699 -17 17 -17v17h-17zM841.001 832c0 -4 -5.66699 -21 -17 -51l17 -9l8 17v43
h-8zM705.001 772v-17h25c11.333 0 17 5.66699 17 17c-5.33301 0 -8 3 -8 9c-10 -6 -21.333 -9 -34 -9zM892.001 747v-26h-26v17c-11.333 -1.33301 -17 -7 -17 -17c11.333 0 17 -8.33301 17 -25h9c0 11.333 8.33301 17 25 17v34h-8zM1027 518v-9
c2 -11.333 7.66699 -17 17 -17v26h-17zM255.001 390c2 -11.333 7.66699 -17 17 -17v17h-17zM993.001 356c0 -24.667 -8.33301 -47.333 -25 -68v-33c2 -11.333 7.66699 -17 17 -17c0 33.333 11.333 50 34 50l-9 43v25h-17zM102.001 263.001v-25c11.333 0 17 5.66699 17 17v8
h-17zM272.001 238.001l-8 -17v-9h8c11.333 0 17 5.66699 17 17zM926.001 229.001v-8c1.33301 -11.333 7 -17 17 -17c11.333 14 17 22.333 17 25h-34zM1027 221.001v-9c2 -11.333 7.66699 -17 17 -17h9v17c-6 0 -14.667 3 -26 9zM858.001 119.001v-17h17v17h-17z
M960.001 85.001l8 -51h9c8 0 16.333 8.33301 25 25c-16.667 0 -25 8.66699 -25 26h-17zM1019 42.001v-17c2 -11.333 7.66699 -17 17 -17c11.333 0 17 5.66699 17 17l-26 17h-8z" />
    <glyph glyph-name="o" unicode="o" horiz-adv-x="1217" 
d="M578 1731c228.667 0 386.999 -112.999 474.999 -338.999c14.667 -30.667 28.667 -90.334 42 -179.001c6 0 9 -2.66699 9 -8c-6 -10.667 -9 -19 -9 -25c14 0 25.333 -71 34 -213h-8l8 -17v-84l9 -51c-18.667 -200 -38.667 -330.333 -60 -391c0 -82 -45 -189.333 -135 -322
c-110.667 -102 -221 -153 -331 -153c-304 0 -479.667 195.333 -527 586c-11.333 97.333 -19.666 193.333 -24.999 288c22.667 353.333 59.334 557 110.001 611c14 74 73.667 150.333 179 229c107.333 45.333 183.666 68 228.999 68zM763.999 1638v-17h17v17h-17z
M348.999 1561v-17h17v17h-17zM398.999 1510v-8h17v25c-11.333 -1.33301 -17 -7 -17 -17zM466.999 1493v-8c2 -11.333 7.66699 -17 17 -17l9 17v8h-26zM594.999 1485c0 -13.333 -31.333 -38.667 -94 -76c-62 -62 -93 -274.333 -93 -637v-51c14 -310.667 62 -466 144 -466
l51 -9c104.667 0 164 116 178 348v110c0 12.667 3 24 9 34c-6 10 -9 21.333 -9 34c0 17.333 3 26 9 26l-9 84v187c-30 215.333 -58.333 323 -85 323c-10.667 25.333 -38.667 48 -84 68c0 16.667 -5.66699 25 -17 25zM407.999 1460l17 -9v26c-11.333 -2 -17 -7.66699 -17 -17
zM203.999 1230v-8h17v25c-11.333 -1.33301 -17 -7 -17 -17zM161.999 560v-25c11.333 0 17 5.66699 17 17zM144.999 424v-8c2 -11.333 7.66699 -17 17 -17l8 17v25h-8c-11.333 -1.33301 -17 -7 -17 -17zM390.999 288l-9 -17v-8h9c11.333 0 17 5.66699 17 17zM466.999 280v-9
c2 -10.667 7.66699 -16 17 -16h9v16c-6 0 -14.667 3 -26 9zM348.999 229h25v17h-8c-11.333 -2 -17 -7.66699 -17 -17zM466.999 204l-17 8h-17v-8c0 -3.33301 5.66699 -12 17 -26l17 9c17.333 -6 26 -23 26 -51h-9l-25 17h-9v-43c2 -11.333 7.66699 -17 17 -17
c34 14 51 39.667 51 77c-10.667 5.33301 -19 8 -25 8l8 43c0 11.333 -5.66699 17 -17 17s-17 -11.333 -17 -34zM526.999 204v-8.99902c0 -8.66699 11.333 -20 34 -34v9c-11.333 13.333 -17 24.666 -17 33.999h-17zM806.999 204.001l-9 -17h26c0 11.333 -5.66699 17 -17 17z
M348.999 170.001l59 -9h8c0 8 -8.33301 16.667 -25 26h-25c-11.333 -2 -17 -7.66699 -17 -17zM356.999 110.001c2.66699 0 11 -5.66699 25 -17v34h-8c-11.333 -1.33301 -17 -7 -17 -17zM517.999 119.001l-8 -17c1.33301 -11.333 7 -17 17 -17l8 17
c0 11.333 -5.66699 17 -17 17zM526.999 76.001v-8l17 -9v9z" />
    <glyph glyph-name="p" unicode="p" horiz-adv-x="1116" 
d="M213 1706c9.33301 0 43.332 -3 101.999 -9l42 9l17 -9c5.33301 0 8 3 8 9c134.667 0 270.667 -37 408 -111c164 -135.333 246 -330.333 246 -585c0 -136.667 -39.667 -269.667 -119 -399c-97.333 -110 -179.333 -172.333 -246 -187
c-57.333 -28 -150.666 -42 -279.999 -42l-9 -17v-85c0 -66 3 -170.667 9 -314h-331v34c0 5.33301 2.66699 8 8 8l-8 17v1494l8 51c-5.33301 9.33301 -8 23.333 -8 42v68c0 17.333 51 26 153 26zM101.999 1578l17 -8h9c0 20 11.333 39.667 34 59h-17
c-8.66699 0 -23 -17 -43 -51zM432.999 1544c6 0 9 -2.66699 9 -8c22.667 8.66699 34 17 34 25l-17 9c-8 0 -16.667 -8.66699 -26 -26zM186.999 1553c0 -28.667 -5.66699 -43.001 -17 -43.001l-34 26c0 -6 -2.66699 -9 -8 -9c16.667 -31.333 25 -53.666 25 -66.999h43
c0 18.667 2.66699 32.667 8 42l-8 17c5.33301 10.667 8 19 8 25zM101.999 1493v-16c2 -11.333 7.66699 -17 17 -17h9v33h-26zM746.999 1451v-25c11.333 0 17 5.66699 17 17zM220.999 1434c0 -9.33301 -8.33301 -23.333 -25 -42v-17h8c8 0 19.333 14 34 42
c0 11.333 -5.66699 17 -17 17zM373.999 1409l7.99902 -43l-8 -17c5.33301 -10 8 -21.333 8 -34h-8l8 -17v-424c0 -12.667 3 -24 9 -34c-6 -10 -9 -21.333 -9 -34v-8c0 -90.667 8.66699 -136 26 -136h8c66 0 134 25.333 204 76c56.667 88 85 184.333 85 289v17
c0 5.33301 2.66699 8 8 8c-28 136.667 -42 218.667 -42 246c-19.333 0 -39 20 -59 60c-47.333 45.333 -109.666 68 -186.999 68h-26zM110.998 1400l17 -8v25c-11.333 -2 -17 -7.66699 -17 -17zM246.998 1409c0 -13.333 14 -22 42 -26c-5.33301 11.333 -8 20 -8 26h-34z
M712.998 1383l-16.999 -42c6 -11.333 9 -20 9 -26c11.333 0 19.666 20 24.999 60zM305.999 1366v-42h17v25c0 11.333 -5.66699 17 -17 17zM746.999 1298v-8c2 -11.333 7.66699 -17 17 -17v8c0 11.333 -5.66699 17 -17 17zM246.999 1273v-26h17v26h-17zM797.999 1171h17v17
c-11.333 -2 -17 -7.66699 -17 -17zM814.999 1146v-17h17v17h-17zM814.999 1018v-17c2 -11.333 7.66699 -17 17 -17h9v17c0 11.333 -5.66699 17 -17 17h-9zM152.999 415.999l17 -9l9 17v9h-9c-11.333 -2 -17 -7.66699 -17 -17zM161.999 160.999c5.33301 -10.667 8 -19 8 -25
h9v17z" />
    <glyph glyph-name="q" unicode="q" horiz-adv-x="1294" 
d="M603 1748c137.333 -24 230.668 -60.6621 280.001 -109.995c83.333 -65.333 148.333 -184.333 195 -357c17.333 -99.333 34.333 -232.333 51 -399c-5.33301 -22 -8 -41.667 -8 -59c0 -180.667 -11.333 -285.334 -34 -314.001l8 -17
c-11.333 -11.333 -19.666 -59.333 -24.999 -144l144 -382l-34 -25h-339c-17.333 37.333 -26 62.666 -26 75.999h-8l-144 -43h-153c-11.333 13.333 -54 27.666 -128 42.999c-102.667 59.333 -173.334 135.666 -212.001 228.999l-51 127
c-16.667 62.667 -36.334 229.667 -59.001 501c0 205.333 34 403.333 102 594c56.667 105.333 133 184.666 229 237.999zM527.002 1638c-9.33301 -40 -18 -59.999 -26 -59.999c-16.667 0 -25 8.66699 -25 26c-22.667 -8.66699 -34 -17.334 -34 -26.001v-25
c2 -11.333 7.66699 -17 17 -17c2 11.333 7.66699 17 17 17h17c-10 -29.333 -30 -46.333 -60 -51v-25h17v16h17v-8l-8 -17l17 -8h17v33l-9 17c22.667 0 34 8.66699 34 26l-8 42c12.667 0 21 17 25 51c6 0 9 3 9 9h-17zM357.002 1587.01c6 -11.333 9 -20 9 -26h16v34h-8z
M349.002 1527.01v-17h42c11.333 0 17 5.66699 17 17v9zM544.002 1536.01c0 -10 -8.66699 -24.333 -26 -43l17 -8l26 42v9h-17zM790.002 1510.01c1.33301 -11.333 7 -17 17 -17h8v17h-25zM349.002 1468.01v-8c1.33301 -11.333 7 -17 17 -17h8v8c0 11.333 -5.66699 17 -17 17
h-8zM399.002 976.006l-0.000976562 -50.999c0 -402 42.667 -622.667 128 -662c22.667 -7.33301 45.334 -21.333 68.001 -42h8c0 18.667 17 32.667 51 42c0 7.33301 14 21.333 42 42c-33.333 69.333 -50 117.666 -50 144.999v17c1.33301 11.333 7 17 17 17h101v51l17 101
c0 11.333 -2.66699 17 -8 17l8 60v119l9 50c-6 10 -9 24.333 -9 43v17c0 5.33301 3 8 9 8l-9 17v68c-19.333 249.333 -50.333 374 -93 374c0 16.667 -34 30.667 -102 42c-94 0 -150.667 -96 -170 -288c-11.333 -100.667 -17 -163 -17 -187zM450.001 1409.01h9
c8 0 16.333 8.33301 25 25v9c-18.667 -6 -30 -17.333 -34 -34zM374.001 1434.01v-7.99902c0 -8.66699 8.33301 -17.334 25 -26.001l9 17c0 11.333 -5.66699 17 -17 17h-17zM136.001 1290.01v-17c0 -8 8.66699 -16.667 26 -26l8 17v17l-8 17c-11.333 -5.33301 -20 -8 -26 -8z
M162.001 1163.01v-26c11.333 0 17 5.66699 17 17zM951.001 518.008c0 -22.667 -11.333 -33.999 -34 -33.999v-9c4 0 21 -2.66699 51 -8l9 17c-11.333 13.333 -17 24.666 -17 33.999h-9zM1002 484.009v-9c6 0 14.333 -2.66699 25 -8v8l-17 9h-8zM204.001 475.009v-8
c2 -11.333 7.66699 -17 17 -17v25h-17zM900.001 424.009l-8 -17l34 -25v17c0 8 -8.66699 16.333 -26 25zM841.001 399.009c1.33301 -11.333 7 -17 17 -17h8v17h-25zM934.001 331.009c-16.667 -20.667 -25 -40.667 -25 -60v-8h17c12.667 0 21 19.667 25 59zM832.001 314.009
c6 -11.333 9 -20 9 -26h8v34zM399.001 238.009c6 -11.333 9 -20 9 -26c11.333 0 17 5.66699 17 17v17h-9zM459.001 212.009v-8h25v25h-8c-11.333 -2 -17 -7.66699 -17 -17zM349.001 161.009v-25h17v25h-17zM433.001 85.0088v-17h17c0 11.333 -5.66699 17 -17 17z
M756.001 68.0088l17 -9v26c-11.333 -2 -17 -7.66699 -17 -17z" />
    <glyph glyph-name="r" unicode="r" horiz-adv-x="1167" 
d="M77 1689l7.99902 -0.00292969c17.333 0 26 -3 26 -9l42 9h263l51 -9c6 0 9 3 9 9c52.667 -7.33301 86.667 -13 102 -17c10 5.33301 21.333 8 34 8c13.333 -11.333 64 -28.333 152 -51c164 -96 246 -234.667 246 -416c0 -190.667 -90.333 -329 -271 -415v-17
c152.667 -317.333 229 -487.333 229 -510c15.333 -5.33301 52 -84.333 110 -237c6 -9.33301 9 -23.666 9 -42.999c-56.667 -5.33301 -99 -8 -127 -8h-9c-20 0 -45.333 2.66699 -76 8l-17 -8c-90.667 0 -136 19.667 -136 59l-272 611c-21.333 62 -38.333 93.333 -51 94h-8
c-6 -85.333 -9 -147.666 -9 -186.999v-204c0 -5.33301 -2.66699 -8 -8 -8l8 -17v-323c0 -11.333 -5.33301 -17 -16 -17h-43c-45.333 0 -104.666 3 -177.999 9c-11.333 -6 -20 -9 -26 -9c-9.33301 6 -23.333 9 -42 9h-17v518c0 18.667 2.66699 32.667 8 42l-8 51v382
c0 12.667 2.66699 24 8 34c-5.33301 10 -8 21.333 -8 34v135c0 20.667 2.66699 46.334 8 77.001c-5.33301 10.667 -8 19 -8 25s2.66699 14.667 8 26c-5.33301 29.333 -8 46.333 -8 51l8 118c0 6 -2.66699 9 -8 9c5.33301 28.667 11 91 17 187zM432.999 1629v-17h17v17h-17z
M577.999 1561c1.33301 -11.333 7 -17 17 -17v17h-17zM101.999 1544v-25h26v17c-6 0 -14.667 2.66699 -26 8zM611.999 1426h17v17c-11.333 -2 -17 -7.66699 -17 -17zM390.999 1417v-93l-9 -51c6 -9.33301 9 -23.666 9 -42.999v-34c0 -5.33301 -3 -8 -9 -8
c0 -5.33301 3 -8 9 -8l-9 -43l9 -76l-9 -34c6 -10 9 -21.333 9 -34c192 0 288 82 288 246v8c-12 67.333 -37.333 115.666 -76 144.999c0 28 -48 42 -144 42h-51c-11.333 -2 -17 -7.66699 -17 -17zM195.999 1146c1.33301 -11.333 7 -17 17 -17c10.667 5.33301 19 8 25 8v17z
M152.999 1146c0 -32 -17 -52 -51 -60v-8c0 -17.333 11.333 -26 34 -26l34 17c10 -5.33301 21.333 -8 34 -8v17c-22.667 0 -34 5.66699 -34 17v25l9 17l-17 9h-9zM195.999 1052v-25h17v25h-17zM678.999 1018v-8c2 -11.333 7.66699 -17 17 -17l9 17l-17 8h-9zM594.999 966.997
v-34l51 -17l8 17v9c-15.333 0 -32.333 8.33301 -51 25h-8zM687.999 907.997v-34c10.667 5.33301 19 8 25 8v9c0 11.333 -5.66699 17 -17 17h-8zM271.999 763.997l17 -9v26c-11.333 -2 -17 -7.66699 -17 -17zM246.999 601.997l-9 -17l17 -8l9 17zM636.999 593.997
c2 -11.333 7.66699 -17 17 -17h9c0 11.333 -5.66699 17 -17 17h-9zM67.999 177.997v-8l34 -9v34h-17c-11.333 -2 -17 -7.66699 -17 -17z" />
    <glyph glyph-name="s" unicode="s" horiz-adv-x="1023" 
d="M544 1697l-0.000976562 -7.99805c5.33301 0 8 2.66699 8 8c113.333 -11.333 170 -31 170 -59c42.667 0 73.667 -8.66699 93 -26c21.333 -2 38.333 -13.333 51 -34l-102 -271c-63.333 73.333 -136.666 110 -219.999 110c-74.667 0 -125.667 -56.667 -153 -170v-8
c0 -75.333 82 -177.333 246 -306c146 -130.667 233.667 -238 263 -322c28.667 -104.667 43 -184 43 -238c0 -138.667 -71 -266 -213 -382c-105.333 -44.667 -193 -67 -263 -67l-59 8l-17 -8c-116 0 -226.333 48 -331 144v51c16.667 16.667 56.334 90 119.001 220l17 9
c79.333 -84.667 155.666 -127 228.999 -127c88.667 0 145.334 36.667 170.001 110c11.333 40 17 71 17 93c-33.333 120 -110 216.333 -230 289c-198 173.333 -297 314.666 -297 423.999c-8 0 -16.333 34 -25 102c5.33301 101.333 33.666 194.666 84.999 279.999
c96.667 107.333 209.667 161 339 161c0 11.333 20 17 60 17zM263.999 1383v-17h25c0 11.333 -5.66699 17 -17 17h-8zM373.999 1358l-8 -17l16 -9h9v9c0 11.333 -5.66699 17 -17 17zM127.999 1196v-8c2 -11.333 7.66699 -17 17 -17h17v17zM466.999 1010l-8 -17v-9h8
c11.333 0 17 5.66699 17 17zM407.999 959.002v-17h17v17h-17zM526.999 942.002v-26h17c0 11.333 5.66699 17 17 17v9h-34zM101.999 93.002c2 -11.333 7.66699 -17 17 -17c11.333 0 17 5.66699 17 17h-34zM152.999 93.002v-17h17v17h-17zM203.999 93.002v-8
c0 -8 8.66699 -16.667 26 -26c11.333 0 17 5.66699 17 17s-5.66699 17 -17 17h-26zM415.999 51.002v-26h26v17c-6 0 -14.667 3 -26 9zM432.999 0.00195312l17 -9v26c-11.333 -2 -17 -7.66699 -17 -17z" />
    <glyph glyph-name="t" unicode="t" horiz-adv-x="988" 
d="M128 1672c2.66699 0 14.001 -2.99805 34.001 -8.99805c26.667 0 55 3 85 9c69.333 -6 137 -9 203 -9h77l-9 -17l17 -8l43 25h331v-237c0 -11.333 -5.66699 -17 -17 -17h-34c-20.667 0 -46.334 2.66699 -77.001 8l-17 -8l-42 8c-56.667 0 -85 -19.667 -85 -59l9 -17
l-9 -51c6 -40.667 9 -63.334 9 -68.001l-9 -136l9 -34c-6 -10.667 -9 -19 -9 -25s3 -9 9 -9l-9 -42v-110l9 -43h-9c0 -5.33301 3 -8 9 -8l-9 -85v-9c0 -16.667 3 -25 9 -25l-9 -43v-619h-34v-34h26v-26h-9l-25 17c0 -11.333 -5.66699 -17 -17 -17h-170c-6 0 -9 3 -9 9
c-10.667 -6 -19 -9 -25 -9c-34 6 -51 14.667 -51 26v59c0 19.333 3 33.666 9 42.999c-6 62 -11.667 93 -17 93l8 85v594c0 5.33301 3 8 9 8l-9 17v128c0 16.667 -2.66699 25 -8 25l8 43v297c0 16.667 -36.667 28 -110 34l-51 -9h-94v17c0 38.667 -2.66699 72.667 -8 102
c0 84.667 14 127 42 127c6 0 14.667 3 26 9zM493.001 1629v-17c5.33301 -16.667 22.333 -25 51 -25l8 17v8c0 11.333 -5.66699 17 -17 17l-17 -8c-10.667 5.33301 -19 8 -25 8zM221.001 1612v-8c2 -11.333 7.66699 -17 17 -17v25h-17zM696.001 1587l-0.000976562 -43
c0 -11.333 -5.66699 -17 -17 -17h-8l-17 9c0 -10 -5.66699 -24.333 -17 -43h17c11.333 0 17 5.66699 17 17l42 -8h9l17 8l-9 43v25c-19.333 6 -30.666 9 -33.999 9zM798 1527v-25h17v25h-17zM196 1502c0 -6 -3 -9 -9 -9c6 -9.33301 9 -20.333 9 -33h17l17 8
c-4 16.667 -15.333 28 -34 34zM425 1213c3.33301 -33.333 11.667 -50 25 -50h9v17c-11.333 13.333 -17 24.333 -17 33h-17zM527.001 68.002v-26.001c12.667 0 24 -2.66699 34 -8c11.333 14 17 22.333 17 25c0 8.66699 -8.66699 17.334 -26 26.001h-8
c-11.333 -2 -17 -7.66699 -17 -17zM484.001 76.001l-8 -17l17 -8l8 17z" />
    <glyph glyph-name="u" unicode="u" horiz-adv-x="1124" 
d="M204 1680c22.667 -8.66699 33.999 -16.999 33.999 -24.999l17 8h17v-25h9c0 20.667 22.667 34.667 68 42c22 -8.66699 33 -17 33 -25c0 -22.667 -14 -34 -42 -34v-17c22.667 0 34 -17 34 -51v-17h-34c0 16.667 -11.333 33.667 -34 51v8h-8
c-8.66699 0 -17.334 -11.333 -26.001 -34c11.333 -1.33301 17 -7 17 -17l-8 -42c9.33301 -6 23.333 -9 42 -9v-8c0 -2.66699 -5.66699 -11 -17 -25c0 -8.66699 8.66699 -17.334 26 -26.001l42 43h8v-94c0 -5.33301 -2.66699 -8 -8 -8l8 -17l-8 -136c0 -4 2.66699 -21 8 -51
c-5.33301 -9.33301 -8 -23.333 -8 -42l-25 17h-17l8 -43v-34h17c0 28.667 5.66699 43 17 43l8 -43v-25c0 -6 -2.66699 -9 -8 -9l8 -17v-178c0 -28 -14 -42 -42 -42v-17h17l17 8l8 -42v-60c0 -18.667 -2.66699 -32.667 -8 -42c0 -212 25.333 -336.667 76 -374
c28.667 -22 68.334 -36 119.001 -42c57.333 0 105.333 51 144 153c6 84.667 9 147 9 187v721h17v8l-17 26v17c0 22.667 2.66699 34 8 34l-8 59v102c0 23.333 2.66699 54.333 8 93c-5.33301 8.66699 -8 25.667 -8 51h68c5.33301 0 8 -2.66699 8 -8l17 8h9
c15.333 -16.667 35 -25 59 -25v8h26l59 17c31.333 -5.33301 54 -8 68 -8v-26c0 -19.333 -17 -44.666 -51 -75.999c10.667 -6 19 -9 25 -9h26l-9 -42l9 -42c0 -6 -3 -9 -9 -9l9 -42v-272h-9l-17 9l-8 -17l42 -34v-162c0 -5.33301 -2.66699 -8 -8 -8l8 -17v-51
c0 -31.333 -2.66699 -71 -8 -119c5.33301 -10.667 8 -19 8 -25s-2.66699 -9 -8 -9l8 -42v-43c0 -5.33301 -2.66699 -8 -8 -8c5.33301 -11.333 8 -20 8 -26c0 -113.333 -8.33301 -186.666 -25 -219.999c0 -6 2.66699 -9 8 -9c0 -187.333 -87.667 -317.333 -263 -390
c-32 -12.667 -99.667 -24 -203 -34h-26c-192 28.667 -288 59.667 -288 93l17 26c0 11.333 -28.333 19.666 -85 24.999c-74 86 -111 205 -111 357c-5.33301 0 -8 2.66699 -8 8c5.33301 9.33301 8 23.666 8 42.999l17 -9h9v9c-17.333 0 -26 19.667 -26 59v17h17v8
c-16.667 0 -25 5.66699 -25 17v26c0 23.333 2.66699 54.333 8 93c-5.33301 11.333 -8 20 -8 26l8 42c0 6 -2.66699 9 -8 9l8 42v59h60c6.66699 0 26.334 20 59.001 60l43 8v9c-14.667 0 -34.667 8.33301 -60 25l-17 -8c-5.33301 29.333 -8 46.333 -8 51l17 8h8v-17l17 9
c40 0 60 -11.333 60 -34h17v8c-17.333 22 -26 39 -26 51h26l25 -17l26 34c0 11.333 -8.66699 17 -26 17v9l9 42c-11.333 6 -20 9 -26 9v17l51 8c0 16.667 -5.66699 39.334 -17 68.001c-10.667 -6 -19 -9 -25 -9c-11.333 6 -20 9 -26 9v-51h-25c0 16.667 -5.66699 25 -17 25
s-17 -8.33301 -17 -25l-43 25c0 -36 -5.66699 -69.667 -17 -101h-17v67c0 16 -5.66699 33 -17 51c6 11.333 9 20 9 26c0 20 -14.333 45.333 -43 76c6 80 9 148 9 204v25c2 11.333 7.66699 17 17 17c22.667 -8 34 -16.333 34 -25l-9 -17c11.333 0 17 -5.66699 17 -17h17
c0 15.333 8.66699 32.333 26 51v8c0 11.333 -5.66699 17 -17 17l-26 -17h-8v9c0 9.33301 14 17.666 42 24.999l-8 17c11.333 22.667 25.333 34 42 34zM84.999 1672h26c11.333 -2 17 -7.66699 17 -17v-34h-26c0 8.66699 -5.66699 20 -17 34v17zM314.999 1663
c1.33301 -11.333 7 -17 17 -17v17h-17zM76.999 1621h17v-9c0 -11.333 -5.66699 -17 -17 -17v26zM882.999 1595v-17h17v-17h-42v-8l25 -51c18.667 0 35.667 22.667 51 68c11.333 -6 20 -9 26 -9l8 17c-22.667 6 -34 17.333 -34 34c-18.667 -11.333 -35.667 -17 -51 -17z
M806.999 1553v-9c1.33301 -11.333 7 -17 17 -17v9c0 11.333 -5.66699 17 -17 17zM220.999 1544v-8c0 -8.66699 11.333 -20 34 -34v17c-5.33301 10.667 -8 19 -8 25h-26zM178.999 1536v-26h17v26h-17zM831.999 1510l9 -42h25v9c-8.66699 22 -17 33 -25 33h-9zM93.999 1502
v-25h8c11.333 0 17 5.33301 17 16l-17 9h-8zM212.999 1493v-16h17v16h-17zM848.999 1434v-8c11.333 0 17 5.66699 17 17v8c-11.333 -2 -17 -7.66699 -17 -17zM322.999 1417v-25h17c11.333 0 17 5.66699 17 17v8h-34zM195.999 1375v-16.999c28 0 42 -14.333 42 -43h17
c11.333 0 17 5.66699 17 17v9c0 15.333 -25.333 26.666 -76 33.999zM339.999 1358v-9h26v26h-9c-11.333 -2 -17 -7.66699 -17 -17zM110.999 1324v-9c0 -8 8.33301 -16.333 25 -25c6 29.333 9 46.333 9 51h-17c-11.333 -2 -17 -7.66699 -17 -17zM161.999 1341v-26h17
c-6 11.333 -9 20 -9 26h-8zM746.999 1341v-17h17c0 11.333 -5.66699 17 -17 17zM169.999 1290v-34c6 0 14.667 -3 26 -9c0 6.66699 22.667 18 68 34v17l-17 -8l-26 17h-8c-14 -11.333 -28.333 -17 -43 -17zM755.999 1264v-8.00098c0 -11.333 19.667 -22.666 59 -33.999
c-11.333 18.667 -17 32.667 -17 42h-42zM212.999 1188v-17c0 -11.333 -5.66699 -17 -17 -17v17c1.33301 11.333 7 17 17 17zM772.999 1129l0.000976562 -17c11.333 2 22.666 16 33.999 42h-9c-8 0 -16.333 -8.33301 -25 -25zM221 1154h34.001l9 -42h-9l-42 8
c0 -11.333 -8.66699 -17 -26 -17v-8h17c0 5.33301 3 8 9 8v-17c-6 -10.667 -9 -19 -9 -25h-8l-26 17c-10.667 -6 -19 -9 -25 -9v17c16.667 0 25 11.333 25 34h9l17 -8c7.33301 28 15.666 42 24.999 42zM943.001 1103v-17c1.33301 -11.333 7 -17 17 -17h8
c11.333 0 17 5.66699 17 17v9c0 11.333 -5.66699 17 -17 17c-10.667 -6 -19 -9 -25 -9zM68.001 1027c26.667 -22.667 46.668 -34 60.001 -34l8 -43l-42 9c-8.66699 -22.667 -17.334 -34 -26.001 -34v42c0 6 3 9 9 9l-9 17v34zM298.002 891.001v-17h17v17h-17z
M128.002 832.001v-17c2 -11.333 7.66699 -17 17 -17h8v34h-25zM187.002 484.001v-17h17v17h-17zM119.002 356.001v-34h17v17c0 11.333 -5.66699 17 -17 17zM357.002 339.001c2 -11.333 7.66699 -17 17 -17v17h-17zM170.002 305.001h17v17c-11.333 -1.33301 -17 -7 -17 -17z
M170.002 246.001h26v17h-9c-11.333 -2 -17 -7.66699 -17 -17z" />
    <glyph glyph-name="v" unicode="v" horiz-adv-x="1243" 
d="M255 1689c19.333 0 67.334 -3 144.001 -9v-8c0 -19.333 42.667 -200.333 128 -543c54 -232 88 -348 102 -348c11.333 18.667 31 97.667 59 237c9.33301 0 23.333 54 42 162c68 310 107.667 474 119 492c0 8 37 13.667 111 17l17 -9c10.667 6 19 9 25 9
c5.33301 0 8 -3 8 -9l43 9l59 -9c9.33301 6 23.666 9 42.999 9l8 -17v-26l-127 -551c0 -17.333 -11.333 -62.666 -34 -135.999c0 -56.667 -17 -85 -51 -85v-8c17.333 0 26 -8.66699 26 -26l-102 -458l-111 -425l-42 -8c-7.33301 0 -35.666 2.66699 -84.999 8
c-56.667 -5.33301 -99 -8 -127 -8c-24 0 -46.667 73.667 -68 221c-6 0 -9 2.66699 -9 8c6 11.333 9 20 9 26c-17.333 5.33301 -26 22.333 -26 51l9 16c-22.667 0 -45.334 62.333 -68.001 187c-90.667 331.333 -167 639.666 -229 924.999l-26 68l9 17l-51 204
c40.667 11.333 105.667 17 195 17zM883.001 1604v-9c8 0 19.333 -11.333 34 -34c6 20 9 31.333 9 34c-11.333 0 -17 8.66699 -17 26h-9c-11.333 -2 -17 -7.66699 -17 -17zM960.001 1621v-17h17c0 11.333 -5.66699 17 -17 17zM187.001 1587c11.333 0 17 -14.334 17 -43.001
h17c0 34 5.66699 51 17 51l17 -8l9 17l-17 8h-9c-34 -3.33301 -51 -11.666 -51 -24.999zM315.001 1544v-17c11.333 0 17 5.66699 17 17h-17zM926.001 1485c-6 -10.667 -9 -19 -9 -25l9 -17l-43 -51v-17h17c6.66699 0 21 17 43 51c5.33301 0 8 2.66699 8 8l-17 26l9 17z
M951.001 1409c6 -10 9 -21.333 9 -34h8v34h-17zM366.001 1375h16v17c-10.667 -2 -16 -7.66699 -16 -17zM849.001 1366c0 -25.333 -2.66699 -42.333 -8 -51l17 -34l17 9h42l9 42c-14 11.333 -25.333 17 -34 17h-26v17h-17zM1002 1366v-8c2 -11.333 7.66699 -17 17 -17l8 17
l-17 8h-8zM951.001 1332c8.66699 -22.667 17.333 -34 26 -34v60h-9c-11.333 0 -17 -8.66699 -17 -26zM340 1332v-25h17c0 6 3 14.333 9 25h-26zM798 1052v-8h26v8h-26zM960 975.999v-9c5.33301 -10.667 8 -19 8 -25c11.333 0 17 5.66699 17 17v8c-6 0 -14.333 3 -25 9z
M807 822.999v-25c11.333 0 17 5.66699 17 17v8h-17zM501 737.999v-8h9c11.333 0 17 5.66699 17 17v8h-9c-11.333 -1.33301 -17 -7 -17 -17zM807 695.999v-17c6 0 14.333 -3 25 -9c28.667 7.33301 43 16 43 26c0 11.333 -5.66699 17 -17 17h-17
c-14 -11.333 -25.333 -17 -34 -17zM561 457.999c0 -22.667 14 -33.999 42 -33.999v-8c0 -2.66699 -5.66699 -11.334 -17 -26.001l26 -17c0 17.333 8.33301 26 25 26v51h-51v17h17v17c0 11.333 -5.66699 17 -17 17c-12.667 0 -21 -14.333 -25 -43zM535 255h77v8
c0 11.333 -5.66699 17 -17 17c-40 -6 -60 -14.333 -60 -25zM730 161h17v17c-11.333 -2 -17 -7.66699 -17 -17z" />
    <glyph glyph-name="w" unicode="w" horiz-adv-x="2075" 
d="M926 1689c12.667 0 23.998 -3.00098 33.998 -9.00098c9.33301 6 20.333 9 33 9h17c17.333 0 26 -3 26 -9l42 9c102 0 153 -14.333 153 -43c0 -21.333 28.333 -151.333 85 -390l51 -238c14 -23.333 33.667 -99.666 59 -228.999l17 -8c40 121.333 77 268.333 111 441
c22.667 58 59.334 208 110.001 450v8h8c66.667 6 115 9 145 9c19.333 0 78.666 -3 177.999 -9v-34c0 -14 -14.333 -73.333 -43 -178l9 -17c-50.667 -174.667 -113 -426.334 -187 -755.001c-9.33301 -5.33301 -34.666 -101.666 -75.999 -288.999
c-8 0 -19.333 -39.667 -34 -119c-11.333 -5.33301 -20 -8 -26 -8l9 -42l-26 -43c0 -5.33301 3 -8 9 -8c-30 -158.667 -55.333 -238 -76 -238l-136 8l-77 -8c-39.333 0 -59 19.667 -59 59c-124.667 504.667 -189.667 787.667 -195 849c10.667 6 19 9 25 9v8
c-34 0 -51 34 -51 102c-11.333 0 -34 -82 -68 -246l-169 -688c-14.667 -62 -29 -93 -43 -93c-104 -5.33301 -191.667 -8 -263 -8c-10.667 5.33301 -19 8 -25 8v17l-153 594c6 10.667 9 19 9 25c-13.333 0 -41.666 93.667 -84.999 281c-17.333 40 -26 79.333 -26 118h26
l42 -34c11.333 42 17 70.333 17 85h-17c-17.333 -16.667 -37 -28 -59 -34v-8c-19.333 0 -56.333 121.667 -111 365c-28 74.667 -53.333 179.334 -76 314.001v8h322c14 0 56.667 -147 128 -441c0 -20 14 -90.667 42 -212c0 -26.667 5.66699 -46.667 17 -60v-34
c-6 0 -14.333 -2.66699 -25 -8c0 -17.333 11.333 -26 34 -26v-17l-9 -42c28.667 0 43 -25.333 43 -76c8 0 16.333 -39.667 25 -119c-5.33301 -10 -8 -21.333 -8 -34v-9c1.33301 -11.333 7 -17 17 -17h8l-17 26v8c28 0 42 8.66699 42 26h26v-17h8l9 59h-43
c40 159.333 60 252.666 60 279.999h17c5.33301 0 8 -2.66699 8 -8c22.667 8.66699 34 17 34 25h-42v34c50.667 308 98.667 531.667 144 671h26zM1087 1621v-17h17v17h-17zM1138 1587c5.33301 -11.333 8 -20 8 -26c14.667 22.667 26 34 34 34v9c0 11.333 -5.66699 17 -17 17
c-8.66699 0 -17 -11.333 -25 -34zM1800 1595c5.33301 0 8 -2.66699 8 -8l17 8h9c0 -34 5.66699 -51 17 -51h8c0 28.667 5.66699 43 17 43c-5.33301 16.667 -22.333 25 -51 25h-8c-11.333 -1.33301 -17 -7 -17 -17zM1732 1544c1.33301 -11.333 7 -17 17 -17v17h-17z
M263.998 1527v-8c1.33301 -11.333 7 -17 17 -17h8v34c-10.667 -6 -19 -9 -25 -9zM1129 1485c0 -5.33301 -2.66699 -7.99902 -8 -7.99902l8 -17v-9h-17v-17l43 -51c0 -5.33301 2.66699 -8 8 -8h17v17l-42 51c5.33301 9.33301 8 20.666 8 33.999zM1095 1417v-42h9
c0 12.667 2.66699 24 8 34zM1681 1392v-17h17c0 11.333 -5.66699 17 -17 17zM1036 1349l17 -8l8 17v8h-8c-11.333 -1.33301 -17 -7 -17 -17zM1197 1366v-25l-42 8l-17 -25c5.33301 -10 8 -21.333 8 -34h43l17 -9c5.33301 17.333 11 26 17 26c-6 22 -9 41.667 -9 59h-17z
M1087 1358v-51c8 0 16.333 8.33301 25 25v9c0 11.333 -5.66699 17 -17 17h-8zM1698 1332c5.33301 -10.667 8 -19 8 -25h17v25h-25zM254.998 1137v-8h17c11.333 0 17 5.66699 17 17l-17 8c-11.333 -2 -17 -7.66699 -17 -17zM339.998 1112l-8 -17l42 -9h17v9l-9 17l-16 -9h-9z
M500.998 1035v-17h17v17h-17zM509.998 984v-25c11.333 0 17 5.66699 17 17v8h-17zM1078 959c2 -11.333 7.66699 -17 17 -17v34c-11.333 -2 -17 -7.66699 -17 -17zM797.998 967v-17c2 -11.333 7.66699 -17 17 -17h9v17c0 11.333 -5.66699 17 -17 17h-9zM908.998 967
c0 -28 -11.332 -42 -33.999 -42v-17h17c11.333 0 22.666 19.667 33.999 59h-17zM763.999 933l-8 -17c2 -11.333 7.66699 -17 17 -17l8 17c0 11.333 -5.66699 17 -17 17zM933.999 933c6 -10.667 9 -19 9 -25h8c11.333 0 17 5.66699 17 17l-17 8h-17zM543.999 891v-25h17v25
h-17zM483.999 882v-25l26 -17v9c-11.333 13.333 -17 24.333 -17 33h-9zM314.999 866v-9c14 0 28 -5.66699 42 -17c11.333 0 17 5.66699 17 17l-25 17c-10 -5.33301 -21.333 -8 -34 -8zM449.999 874v-25h17v25h-17zM908.999 840v-17h17c0 11.333 -5.66699 17 -17 17z
M772.999 832v-17h-9l-17 8v-17h34v26h-8zM1240 823v-8c1.33301 -11.333 7 -17 17 -17v25h-17zM806.999 815c0 -6 -2.99902 -9 -8.99902 -9c6 -10.667 9 -19 9 -25c13.333 11.333 24.666 17 33.999 17v8c-20 6 -31.333 9 -34 9zM917 789v-8c2 -11.333 7.66699 -17 17 -17h9
v25h-26zM450 704l16.999 -8h9c28 0 42 5.66699 42 17c-7.33301 39.333 -18.666 59 -33.999 59c-16.667 0 -28 -22.667 -34 -68zM746.999 747v-9c11.333 0 17 5.66699 17 17v9c-11.333 -2 -17 -7.66699 -17 -17zM780.999 764v-26h17c11.333 0 17 5.66699 17 17l-17 9h-17z
M1537 755v-8c1.33301 -11.333 7 -17 17 -17h8v8c0 11.333 -5.66699 17 -17 17h-8zM339.999 704v-17l76 26c0 11.333 -5.66699 17 -17 17h-17c-14 -17.333 -28 -26 -42 -26zM755.999 730v-17h25v17h-25zM1189 696c0 -10 13.999 -18.667 41.999 -26c11.333 6 20 9 26 9v17
c-9.33301 0 -20.666 5.66699 -33.999 17h-17c-11.333 -2 -17 -7.66699 -17 -17zM789.998 670l0.000976562 -8h34v-17c-17.333 0 -26 -8.66699 -26 -26l43 -17c11.333 18.667 17 35.667 17 51c-8.66699 22.667 -17.334 34 -26.001 34h-25c-11.333 -1.33301 -17 -7 -17 -17z
M381.999 645c0 -6 -2.66797 -14.667 -8.00098 -26c0 -5.33301 14 -25 42 -59v-17l-17 -25v-17h26c11.333 0 17 11.333 17 34l17 -9h17l8 43l-42 -9c-13.333 0 -24.666 22.667 -33.999 68zM687.998 569c0 -6.66699 -3 -15.333 -9 -26l17 -8h26v17
c-17.333 0 -26 5.66699 -26 17h-8zM662.998 518.001l0.000976562 -34c1.33301 -11.333 6.66602 -17 15.999 -17c11.333 0 17 5.66699 17 17c0 8.66699 -11 20 -33 34zM458.999 492.001v-8h17c11.333 0 17 5.66699 17 17v8h-17c-11.333 -2 -17 -7.66699 -17 -17z
M1469 509.001l-9.00098 -42h17v-17h-51v-51c17.333 0 26 -8.66699 26 -26c8 0 16.333 8.66699 25 26c-11.333 0 -17 5.66699 -17 17v8c28.667 0 43 14.333 43 43c-11.333 25.333 -22.666 39.333 -33.999 42zM534.998 484.001c6 -9.33301 9 -23.667 9 -43l17 9h17v-17h8v42z
M568.998 373c14.667 -28 26 -42 34 -42l9 17c0 12.667 -14.333 21 -43 25zM568.998 280c0 -6 -2.66699 -14.333 -8 -25h17c11.333 0 17 5.33301 17 16l-17 9h-9zM1460 280l-8 -16.999v-8h76c0 13.333 -22.667 21.666 -68 24.999zM1316 178.001v-17h17
c0 11.333 -5.66699 17 -17 17zM687.998 161.001c0 -6 -3 -14.333 -9 -25h9l8 17v8h-8zM585.998 136.001v-26h9v26h-9zM611.998 136.001v-17h25c0 11.333 -5.66699 17 -17 17h-8zM670.998 102.001v-9h34v9h-34zM628.998 76.001c0 -16.667 -14.333 -30.667 -43 -42
c-5.33301 -11.333 -8 -20 -8 -26h34c6.66699 0 18 22.667 34 68h-17z" />
    <glyph glyph-name="x" unicode="x" horiz-adv-x="1141" 
d="M179 1723c50 -11.333 84.002 -17.002 102.002 -17.002l8 17c84.667 -6 127 -23 127 -51c82 -196 127.333 -315 136 -357h9c93.333 253.333 147 386.333 161 399c50 -5.33301 81 -8 93 -8c0 -8.66699 -19.667 -31.334 -59 -68.001v-9c0 -11.333 8.33301 -17 25 -17
c12.667 0 27 17 43 51c11.333 0 17 14.333 17 43h220v-9c0 -43.333 -42.333 -167.666 -127 -372.999l-51 -128h-8v-50c-16 0 -36 -45.333 -60 -136c-8.66699 0 -20 -28.333 -34 -85c-4 -1.33301 -18 -35.333 -42 -102c113.333 -278.667 175.666 -442.667 186.999 -492
c9.33301 0 46 -90.667 110 -272c14 0 22.333 -34 25 -102c0 -10.667 -5.66699 -16 -17 -16h-93c-18.667 0 -32.667 2.66699 -42 8l-51 -8h-68l8 16v26c-34 -15.333 -51 -26.666 -51 -33.999l9 -17h-34c-10.667 6 -39 74 -85 204l-76 203h-9c0 -28 -28.333 -104.333 -85 -229
c-35.333 -106.667 -66.333 -166 -93 -178h-34c-23.333 0 -54.333 3 -93 9c-29.333 -11.333 -52 -17 -68 -17c-26.667 0 -66.334 8.33301 -119.001 25v17c199.333 531.333 304 817 314 857v26c-34 72.667 -90.667 225.334 -170 458.001l-110 271
c0 28.667 -11.333 62.667 -34 102v9c0 16.667 39.667 28 119 34zM841.002 1655c5.33301 -9.33301 8 -23.667 8 -43h17v51h-8zM722.002 1604v-17l-9 -51l17 -34l17 8h60l8 51l-34 26h-42v17h-17zM900.002 1604v-9c2 -11.333 7.66699 -17 17 -17h17v9
c0 11.333 -5.66699 17 -17 17h-17zM832.002 1561c17.333 0 26.001 -11.333 26.001 -34h17v68h-17c-8.66699 0 -17.334 -11.333 -26.001 -34zM773.003 1468v-17h17c0 11.333 -5.66699 17 -17 17zM442.003 1434c2 -11.333 7.66699 -17 17 -17h8v26c-10.667 -6 -19 -9 -25 -9z
M764.003 1426v-17h17v17h-17zM637.003 1366v-25h17v8c0 11.333 -5.66699 17 -17 17zM722.003 1332v-17h17v17h-17zM663.003 1230v-17h25v17h-25zM459.003 1188v-17h17c0 11.333 -5.66699 17 -17 17zM425.003 1052l17 -8c11.333 0 17 5.66699 17 17l-17 8
c-11.333 -1.33301 -17 -7 -17 -17zM510.003 1027v-17l42 -9h9v9l-9 17l-17 -9h-8zM425.003 932.997v-34c15.333 0 32.333 -8.33301 51 -25c11.333 26 17 51.333 17 76h-17c-13.333 -11.333 -30.333 -17 -51 -17zM654.003 805.997v-17c6 -10.667 9 -19 9 -25h16
c-10.667 14 -16 28 -16 42h-9zM493.003 788.997v-17l42 -8l9 17l-17 8h-34zM620.003 788.997v-17h17v17h-17zM620.003 627.997l17 -9h9l42 9c-6.66699 45.333 -18 68 -34 68s-27.333 -22.667 -34 -68zM399.003 652.997v-8h26v8h-26zM552.003 652.997
c0 -16.667 -11.333 -25 -34 -25v-17l68 25v9c-20 5.33301 -31.333 8 -34 8zM340.003 593.997v-34c11.333 0 17 5.66699 17 17v17h-17zM544.003 542.997c28 -22.667 42 -48 42 -76v-9l-17 -25h43c0 16.667 2.66699 25 8 25h26c0 6 2.66699 14.667 8 26
c-45.333 0 -68 14 -68 42c0 22.667 -8.33301 34 -25 34c-11.333 -2 -17 -7.66699 -17 -17zM340.003 440.997v-25c6 0 14.667 -3 26 -9c33.333 6 50 14.667 50 26v8c0 11.333 -5.66699 17 -17 17h-25c-14 -11.333 -25.333 -17 -34 -17zM637.003 415.997v-9h9
c11.333 0 17 5.66699 17 17v9h-9c-11.333 -2 -17 -7.66699 -17 -17zM705.003 406.997c2 -18.667 16 -32.667 42 -42v-9h9v43zM739.003 304.997v-8c11.333 -14 17 -25.333 17 -34h17v17c0 8 -8.66699 16.333 -26 25h-8zM739.003 203.997c0 -6 -3 -14.667 -9 -26h26v26h-17z
M858.003 84.9971l-9 -17h9l8 17h-8zM756.003 67.9971v-26h8v26h-8zM781.003 67.9971v-17h17v17h-17zM841.003 33.9971v-9h34v9h-34z" />
    <glyph glyph-name="y" unicode="y" horiz-adv-x="1243" 
d="M119 1714h34.001c6 0 9 -2.66699 9 -8l17 8h178c28 0 62 -65 102 -195c12.667 -3.33301 29.667 -45.666 51 -126.999c8 0 22 -37 42 -111c11.333 0 31.333 -48 60 -144v-8h-17l8 -34l-8 -17c11.333 -18.667 17 -33 17 -43h25c0 9.33301 5.66699 20.666 17 33.999
c-16.667 24 -25 52.333 -25 85c67.333 204 118 334 152 390c22 97.333 47.667 151.333 77 162h34l8 -43h9c0 28.667 5.66699 43 17 43h51l50 -9l17 9c38.667 -6 70 -9 94 -9h25v-17c0 -13.333 -17 -64.333 -51 -153c0 -11.333 -5.66699 -17 -17 -17h-8l-26 17l-8 -17
c0 -11.333 14 -17 42 -17c0 -14.667 -19.667 -74 -59 -178c-47.333 -135.333 -78.333 -203 -93 -203l8 -17v-9c-22.667 -32.667 -36.667 -63.667 -42 -93c-96.667 -198 -145 -348 -145 -450c0 -6 3 -14.333 9 -25c-6 -10 -9 -21.333 -9 -34c0 -11.333 3 -17 9 -17l-9 -34
c0 -18 3 -72 9 -162c0 -6 -3 -14.333 -9 -25l9 -42c-6 -50.667 -9 -82 -9 -94l9 -34c0 -52 -20 -94.333 -60 -127h-8c-6 0 -9 2.66699 -9 8l-17 -8c-10.667 0 -16 5.66699 -16 17v8l25 34h-9c-3.33301 0 -17.333 -14 -42 -42c-10.667 5.33301 -19 8 -25 8
c0 -16.667 -28.333 -25 -85 -25c-62.667 0 -94 22.667 -94 68v8c0 6 3 9 9 9l-9 42v68c0 17.333 3 26 9 26l-9 42v153c0 50.667 5.66699 98.667 17 144c-11.333 18.667 -17 35.667 -17 51c0 12.667 3 24 9 34c0 76 -36.667 194.667 -110 356c-74 172 -119.333 291 -136 357
c-66.667 146 -109.334 256.333 -128.001 331h-8v68zM119.001 1672v-17c11.333 0 17 5.66699 17 17h-17zM1036 1561v-17h17v17h-17zM790.001 1519c1.33301 -11.333 7 -17 17 -17c11.333 0 17 5.66699 17 17s-5.66699 17 -17 17c-11.333 -2 -17 -7.66699 -17 -17z
M162.001 1460c0 -8.66699 11.333 -17.333 34 -26v9l-26 17h-8zM866.001 1213c2 -11.333 7.66699 -17 17 -17h9v17h-26zM535.001 1171c6 -10.667 9 -19 9 -25h8v25h-17zM637.001 713.001l17.001 -8.99902c10.667 6 19 9 25 9c-10.667 13.333 -16 24.666 -16 33.999
c-8.66699 0 -17.334 -11.333 -26.001 -34zM595.002 645.002c11.333 -14 17 -25.333 17 -34h17v25zM535.002 552.002v-26h9v26h-9zM612.002 526.002v-34h25l9 60h-9c-8 0 -16.333 -8.66699 -25 -26zM586.002 102.002v-9c0 -8 8.66699 -16.333 26 -25c0 5.33301 2.66699 8 8 8
c-5.33301 11.333 -8 20 -8 26h-26zM535.002 42.002l0.000976562 -8c12.667 0 24 -3 34 -9l9 17c-6 11.333 -9 20 -9 26h-8c-8.66699 0 -17.334 -8.66699 -26.001 -26zM696.003 51.002v-17h17v17h-17zM629.003 34.002v-26h8v26h-8z" />
    <glyph glyph-name="z" unicode="z" horiz-adv-x="989" 
d="M340 1740l34.001 -9c53.333 6 104.333 9 153 9h8c6 0 9 -3 9 -9c10.667 6 19 9 25 9c20.667 0 46.334 -3 77.001 -9c29.333 6 57.333 9 84 9v-9l17 9h9c12.667 0 24 -3 34 -9c10.667 6 19 9 25 9l17 -9c10 6 21.333 9 34 9h9c8.66699 0 20 -11.333 34 -34v-229
c-28.667 -49.333 -85.334 -199.333 -170.001 -450c-40 -90.667 -79.667 -201 -119 -331c-62 -168 -115.667 -304 -161 -408c-6 -9.33301 -9 -20.333 -9 -33v-9h17c50.667 0 84.667 3 102 9c49.333 -6 91.666 -9 126.999 -9h136l60 9l17 -26v-34c0 -30 -3 -55.333 -9 -76
c6 -30 9 -58.333 9 -85v-51c0 -12.667 -28.333 -21.334 -85 -26.001c-17.333 0 -26 3 -26 9l-102 -9h-288c-36.667 0 -73.334 -2.66699 -110.001 -8c-20.667 5.33301 -52 8 -94 8h-110c0 10 -8.66699 24.333 -26 43v212c45.333 132.667 105 291 179 475
c0 30.667 17 47.667 51 51c0 6 2.66699 14.667 8 26c-11.333 0 -17 5.66699 -17 17v8l238 654h-34c-55.333 0 -83.666 -3 -84.999 -9c-48 6 -87.667 9 -119 9h-144l-60 -9c-11.333 14 -17 22.667 -17 26v50c0 20.667 3 46.334 9 77.001c-11.333 22 -17 53 -17 93
c0 28.667 11.333 45.667 34 51c5.33301 0 8 -2.66699 8 -8l43 8c18.667 0 32.667 -2.66699 42 -8zM713.001 1680v-8h26v8h-26zM450.001 1112v-17h26v17h-26zM399.001 1010v-17h17v17h-17zM484.001 984v-8c2 -11.333 7.66699 -17 17 -17v25h-17zM357.001 916v-17h17v17h-17z
M349.001 874c1.33301 -11.333 7 -17 17 -17v17h-17zM391.001 815h-59l-9 -51l34 -26h42v-17h17v17l9 51l-17 34zM272.001 713v-50.999h9l17 8c-6 9.33301 -9 23.666 -9 42.999h-17zM298.001 645.001c0 -8.66699 5.66699 -34 17 -76c8 0 16.333 8.33301 25 25l-8 51
c33.333 20 50 34 50 42v9c0 11.333 -8.33301 17 -25 17c-10.667 0 -27.667 -20 -51 -60c-5.33301 0 -8 -2.66699 -8 -8zM340.001 484.001l-17 -26v-8c14.667 -28 26 -42.333 34 -43c11.333 0 17 5.66699 17 17v17c-14.667 0 -23 14.333 -25 43h-9zM264.001 433.001v-9
c1.33301 -11.333 7 -17 17 -17l8 17v9h-25z" />
    <glyph glyph-name="dieresis" unicode="&#xa8;" horiz-adv-x="721" 
d="M459 2075l33.999 -8c68 5.33301 119 8 153 8c0 -5.33301 3 -8 9 -8c0 5.33301 2.66699 8 8 8v-254h-76c-19.333 0 -33.666 2.66699 -42.999 8l-51 -8h-76c-11.333 0 -17 5.66699 -17 17v203c0 9.33301 19.667 20.666 59 34zM552.999 2007c1.33301 -11.333 7 -17 17 -17
v17h-17zM526.999 1906c0 -6 -2.66797 -9 -8.00098 -9c8.66699 -22.667 17 -34 25 -34l17 9c-5.33301 18 -16.666 29.333 -33.999 34zM276.998 1817l-203.001 0.000976562c-11.333 0 -17 5.66699 -17 17v76l8 51c-5.33301 9.33301 -8 23.666 -8 42.999v76h254
c0 -5.33301 -2.66699 -8 -8 -8c0 -6 2.66699 -9 8 -9c0 -34 -2.66699 -85 -8 -153l8 -34c-13.333 -39.333 -24.666 -59 -33.999 -59zM242.997 1987h-17c0 -10 5.66699 -15.667 17 -17v17z" />
    <glyph glyph-name="acute" unicode="&#xb4;" horiz-adv-x="601" 
d="M351 1375c23.333 23.333 41.833 38.999 55.5 46.999s27.167 12 40.5 12c22 0 39.833 -6.66699 53.5 -20s20.5 -30.333 20.5 -51c0 -14.667 -5.16699 -28.667 -15.5 -42s-25.833 -26.666 -46.5 -39.999l-330 -203h-69z" />
    <glyph glyph-name="cedilla" unicode="&#xb8;" horiz-adv-x="548" 
d="M60 -290c56.667 -34.667 107.333 -52 152 -52c44 0 75.5 7.16699 94.5 21.5s28.5 36.5 28.5 66.5s-16.333 51.333 -49 64c-26.667 10.667 -60.667 16 -102 16c-10.667 0 -22 -0.666992 -34 -2l48 176h63l-37 -104c21.333 2.66699 42 4.33398 62 5.00098
c57.333 0 102 -13.5 134 -40.5s48 -64.833 48 -113.5c0 -50.667 -19.5 -90.834 -58.5 -120.501s-92.5 -44.5 -160.5 -44.5c-72.667 0 -135.667 10.667 -189 32v96z" />
    <glyph glyph-name="agrave" unicode="&#xe0;" horiz-adv-x="1344" 
d="M535 1706h255c20.667 0 37.667 -48.333 51 -145c45.333 -146 184 -672 416 -1578v-26c0 -10.667 -5.66699 -16 -17 -16h-331c-13.333 2 -36 61.333 -68 178l-17 -9h-340c-18 0 -37.667 -56.333 -59 -169l-17 -9h-323c-14 0 -22.333 11.333 -25 34
c22.667 47.333 65 220 127 518c15.333 26 38 113.667 68 263l68 246c108.667 459.333 168 694 178 704c10 6 21.333 9 34 9zM637 942l-102 -492l17 -9h195l17 9c-28 108.667 -64.667 272.667 -110 492h-17zM1140 -85v7.99902c16.667 62.667 42 94 76 94v-26
c-6 -19.333 -31.333 -44.666 -76 -75.999zM1242 -17.001v17c0 8 8.33301 16.333 25 25v-8c-8.66699 -22.667 -17 -34 -25 -34zM1216 41.999v17.001c0 11.333 5.66699 17 17 17h9v-8c0 -8.66699 -8.66699 -17.334 -26 -26.001zM1233 144h-25v9c0 10.667 5.66699 16 17 16
l8 -16v-9zM473 1605v7.99902c16.667 62.667 42 94 76 94v-26c-6 -19.333 -31.333 -44.666 -76 -75.999zM1242 -17.001v17c0 8 8.33301 16.333 25 25v-8c-8.66699 -22.667 -17 -34 -25 -34zM1216 41.999v17.001c0 11.333 5.66699 17 17 17h9v-8
c0 -8.66699 -8.66699 -17.334 -26 -26.001zM1233 144h-25v9c0 10.667 5.66699 16 17 16l8 -16v-9zM875 1763l-24 -14h-158l-85 -13l-231 347l24 13c40.667 0 61 -9 61 -27l24 14h134c18 0 34.333 4.33301 49 13c37.333 0 106 -111 206 -333z" />
    <glyph glyph-name="adieresis" unicode="&#xe4;" horiz-adv-x="1317" 
d="M535 1706h255c20.667 0 37.667 -48.333 51 -145c45.333 -146 184 -672 416 -1578v-26c0 -10.667 -5.66699 -16 -17 -16h-331c-13.333 2 -36 61.333 -68 178l-17 -9h-340c-18 0 -37.667 -56.333 -59 -169l-17 -9h-323c-14 0 -22.333 11.333 -25 34
c22.667 47.333 65 220 127 518c15.333 26 38 113.667 68 263l68 246c108.667 459.333 168 694 178 704c10 6 21.333 9 34 9zM637 942l-102 -492l17 -9h195l17 9c-28 108.667 -64.667 272.667 -110 492h-17zM749 2075l33.999 -8c68 5.33301 119 8 153 8c0 -5.33301 3 -8 9 -8
c0 5.33301 2.66699 8 8 8v-254h-76c-19.333 0 -33.666 2.66699 -42.999 8l-51 -8h-76c-11.333 0 -17 5.66699 -17 17v203c0 9.33301 19.667 20.666 59 34zM740.999 1861c1.33301 -11.333 7 -17 17 -17v17h-17zM449.999 2090c0 -6 -2.66797 -9 -8.00098 -9
c8.66699 -22.667 17 -34 25 -34l17 9c-5.33301 18 -16.666 29.333 -33.999 34zM566.998 1817l-203.001 0.000976562c-11.333 0 -17 5.66699 -17 17v76l8 51c-5.33301 9.33301 -8 23.666 -8 42.999v76h254c0 -5.33301 -2.66699 -8 -8 -8c0 -6 2.66699 -9 8 -9
c0 -34 -2.66699 -85 -8 -153l8 -34c-13.333 -39.333 -24.666 -59 -33.999 -59zM532.997 1987h-17c0 -10 5.66699 -15.667 17 -17v17z" />
    <glyph glyph-name="ccedilla" unicode="&#xe7;" horiz-adv-x="1080" 
d="M403 0c28 0 110.998 -0.666992 248.998 -2c26.667 1.33301 42 2 46 2l69 -4c5.33301 1.33301 9.33301 2 12 2l3 -3v-34l4 -10c-4.66699 -5.33301 -7 -9 -7 -11h-226v-46l26 2c102 0 167.333 -16.333 196 -49c10 -18.667 15 -46.334 15 -83.001v-11
c0 -42 -30.667 -68.667 -92 -80c-26 -6 -63 -9 -111 -9c-80 0 -136 12.333 -168 37c-13.333 12 -20 26 -20 42v18l4 3c47.333 1.33301 82 2 104 2h30c8 -1.33301 12 -4.66602 12 -9.99902l-4 -9c4.66699 -16.667 17.334 -25 38.001 -25c28 0 42 11.333 42 34l-3 4
c0 0.666992 1 1 3 1l-3 8v23c0 2.66699 -1.33301 4.66699 -4 6l4 4c0 22.667 -13 34 -39 34h-19c-18.667 0 -30 -7 -34 -21h-4c-91.333 18 -137.333 28 -138 30v2c2.66699 90.667 4 141 4 151c4.66699 1.33301 8.33398 2 11.001 2zM687.998 1723
c50.667 -11.333 87.332 -17 109.999 -17h9v-17h25c42.667 0 99.334 -34 170.001 -102v-17c-79.333 -136 -119 -215.333 -119 -238h-17c-61.333 56.667 -109.333 85 -144 85h-26c-115.333 0 -197.333 -90.333 -246 -271c-22.667 -113.333 -34 -198.333 -34 -255v-136l9 -42
h-9c6 -16.667 14.667 -62 26 -136c-6 0 -9 -2.66699 -9 -8c8.66699 0 20 -37 34 -111c64.667 -135.333 130 -203 196 -203c0 -11.333 19.667 -17 59 -17c55.333 0 109 25.333 161 76h17c45.333 -134.667 73.666 -231 84.999 -289c0 -20 -42.333 -42.667 -127 -68
c-60 -22 -122.333 -33 -187 -33c-244.667 0 -420 135.667 -526 407c-51.333 153.333 -77 258 -77 314v170c0 12.667 -2.66699 24 -8 34c5.33301 9.33301 8 20.333 8 33v85c0 12.667 3 24 9 34l-9 17c10.667 128.667 64.667 287 162 475
c126.667 153.333 279.334 230 458.001 230z" />
    <glyph glyph-name="egrave" unicode="&#xe8;" horiz-adv-x="939" 
d="M68 1680h781c0 -40 -5.66699 -71 -17 -93c6 -30.667 9 -56.334 9 -77.001v-50l-17 -26l-60 9h-135c-36 0 -78.667 -3 -128 -9c-20.667 6 -46 9 -76 9l-17 -26v-102c0 -38.667 2.66699 -72.667 8 -102c-5.33301 -29.333 -8 -63 -8 -101v-17
c0 -15.333 5.66699 -32.333 17 -51c113.333 -6 198 -9 254 -9h136l26 -17l-9 -59v-43l9 -50c0 -6 -3 -9 -9 -9l9 -42v-60c0 -16.667 -11.333 -25 -34 -25c-6 0 -14.667 2.66699 -26 8c-11.333 0 -17 -2.66699 -17 -8c-76 5.33301 -132.333 8 -169 8h-162
c-8 0 -16.333 -8.33301 -25 -25v-391c0 -8.66699 11.333 -20 34 -34c12.667 0 24 3 34 9c5.33301 0 8 -3 8 -9l85 9h110c13.333 0 24.666 -3 33.999 -9c10 6 21.333 9 34 9h26l85 -9v-76c0 -18.667 2.66699 -32.667 8 -42l-8 -51v-102c0 -8 -8.66699 -16.667 -26 -26h-110
c-23.333 0 -54.333 3 -93 9c-11.333 -6 -20 -9 -26 -9c-20 6 -31.333 9 -34 9c-49.333 -6 -91.666 -9 -126.999 -9c-20 6 -31.333 9 -34 9c-6 0 -9 -3 -9 -9l-42 9h-289l-8 42c0 25.333 2.66699 62.333 8 111l-8 42l8 76c0 12.667 -2.66699 44 -8 94c0 4 2.66699 21 8 51
l-8 59l8 43c-5.33301 36.667 -8 73.334 -8 110.001v25c0 17.333 2.66699 26 8 26c0 6 -2.66699 14.333 -8 25c5.33301 276.667 8 491.667 8 645v331zM635 1763l-24 -14h-158l-85 -13l-231 347l24 13c40.667 0 61 -9 61 -27l24 14h134c18 0 34.333 4.33301 49 13
c37.333 0 106 -111 206 -333z" />
    <glyph glyph-name="eacute" unicode="&#xe9;" horiz-adv-x="939" 
d="M68 1680h781c0 -40 -5.66699 -71 -17 -93c6 -30.667 9 -56.334 9 -77.001v-50l-17 -26l-60 9h-135c-36 0 -78.667 -3 -128 -9c-20.667 6 -46 9 -76 9l-17 -26v-102c0 -38.667 2.66699 -72.667 8 -102c-5.33301 -29.333 -8 -63 -8 -101v-17
c0 -15.333 5.66699 -32.333 17 -51c113.333 -6 198 -9 254 -9h136l26 -17l-9 -59v-43l9 -50c0 -6 -3 -9 -9 -9l9 -42v-60c0 -16.667 -11.333 -25 -34 -25c-6 0 -14.667 2.66699 -26 8c-11.333 0 -17 -2.66699 -17 -8c-76 5.33301 -132.333 8 -169 8h-162
c-8 0 -16.333 -8.33301 -25 -25v-391c0 -8.66699 11.333 -20 34 -34c12.667 0 24 3 34 9c5.33301 0 8 -3 8 -9l85 9h110c13.333 0 24.666 -3 33.999 -9c10 6 21.333 9 34 9h26l85 -9v-76c0 -18.667 2.66699 -32.667 8 -42l-8 -51v-102c0 -8 -8.66699 -16.667 -26 -26h-110
c-23.333 0 -54.333 3 -93 9c-11.333 -6 -20 -9 -26 -9c-20 6 -31.333 9 -34 9c-49.333 -6 -91.666 -9 -126.999 -9c-20 6 -31.333 9 -34 9c-6 0 -9 -3 -9 -9l-42 9h-289l-8 42c0 25.333 2.66699 62.333 8 111l-8 42l8 76c0 12.667 -2.66699 44 -8 94c0 4 2.66699 21 8 51
l-8 59l8 43c-5.33301 36.667 -8 73.334 -8 110.001v25c0 17.333 2.66699 26 8 26c0 6 -2.66699 14.333 -8 25c5.33301 276.667 8 491.667 8 645v331zM471 2096c14.667 -8.66699 75.667 -13 183 -13c16 8.66699 44.333 13 85 13l24 -13l-202 -333l-114 -1h-158l-24 14
c100 222 168.667 333 206 333z" />
    <glyph glyph-name="ecircumflex" unicode="&#xea;" horiz-adv-x="934" 
d="M68 1680h781c0 -40 -5.66699 -71 -17 -93c6 -30.667 9 -56.334 9 -77.001v-50l-17 -26l-60 9h-135c-36 0 -78.667 -3 -128 -9c-20.667 6 -46 9 -76 9l-17 -26v-102c0 -38.667 2.66699 -72.667 8 -102c-5.33301 -29.333 -8 -63 -8 -101v-17
c0 -15.333 5.66699 -32.333 17 -51c113.333 -6 198 -9 254 -9h136l26 -17l-9 -59v-43l9 -50c0 -6 -3 -9 -9 -9l9 -42v-60c0 -16.667 -11.333 -25 -34 -25c-6 0 -14.667 2.66699 -26 8c-11.333 0 -17 -2.66699 -17 -8c-76 5.33301 -132.333 8 -169 8h-162
c-8 0 -16.333 -8.33301 -25 -25v-391c0 -8.66699 11.333 -20 34 -34c12.667 0 24 3 34 9c5.33301 0 8 -3 8 -9l85 9h110c13.333 0 24.666 -3 33.999 -9c10 6 21.333 9 34 9h26l85 -9v-76c0 -18.667 2.66699 -32.667 8 -42l-8 -51v-102c0 -8 -8.66699 -16.667 -26 -26h-110
c-23.333 0 -54.333 3 -93 9c-11.333 -6 -20 -9 -26 -9c-20 6 -31.333 9 -34 9c-49.333 -6 -91.666 -9 -126.999 -9c-20 6 -31.333 9 -34 9c-6 0 -9 -3 -9 -9l-42 9h-289l-8 42c0 25.333 2.66699 62.333 8 111l-8 42l8 76c0 12.667 -2.66699 44 -8 94c0 4 2.66699 21 8 51
l-8 59l8 43c-5.33301 36.667 -8 73.334 -8 110.001v25c0 17.333 2.66699 26 8 26c0 6 -2.66699 14.333 -8 25c5.33301 276.667 8 491.667 8 645v331zM287 2087c14.667 -8.66699 75.667 -13 183 -13c16 8.66699 44.333 13 85 13l24 -13l-202 -333l-114 -1h-158l-24 14
c100 222 168.667 333 206 333zM845 1754l-24 -14h-158l-114 1l-202 333l24 13c40.667 0 69 -4.33301 85 -13c107.333 0 168.333 4.33301 183 13c37.333 0 106 -111 206 -333z" />
    <glyph glyph-name="edieresis" unicode="&#xeb;" horiz-adv-x="897" 
d="M170 1723l17 -9l60 9c53.333 -6 104 -9 152 -9l17 9c6 0 9 -3 9 -9c76 6 132.667 9 170 9h68c101.333 0 152 -8.66699 152 -26v-229c0 -8 -8.33301 -16.333 -25 -25h-348l-43 8c-11.333 -28 -19.666 -42 -24.999 -42c7.33301 -90.667 13 -141.667 17 -153
c-6 -11.333 -9 -20 -9 -26c0 -12.667 3 -24 9 -34c-6 -30 -9 -55.333 -9 -76v-51c0 -39.333 34 -59 102 -59c48 5.33301 87.667 8 119 8h17c39.333 0 101.666 -2.66699 186.999 -8v-43c0 -28 2.66699 -70.333 8 -127h-8c0 -5.33301 2.66699 -8 8 -8
c-6.66699 -62.667 -15 -94 -25 -94c-6 0 -14.667 3 -26 9l-51 -9c-6 0 -14.333 3 -25 9c-42.667 -6 -71 -11.667 -85 -17c-10.667 5.33301 -19 8 -25 8l-34 -8l-43 8c-6 0 -14.333 -2.66699 -25 -8l-51 8h-17c-17.333 -5.33301 -26 -22.333 -26 -51v-76
c0 -18.667 3 -32.667 9 -42l-9 -51c0 -32.667 3 -78 9 -136l-9 -17c6 -56.667 14.667 -85 26 -85h314l51 -9c9.33301 6 23.333 9 42 9c11.333 -2 17 -7.66699 17 -17v-246c0 -11.333 -5.66699 -17 -17 -17h-382c-28 0 -42 5.66699 -42 17
c-18.667 -11.333 -35.667 -17 -51 -17h-255c-11.333 0 -17 5.66699 -17 17v17c11.333 14 17 22.333 17 25c-11.333 0 -17 5.66699 -17 17v433c0 46 -2.66699 99.667 -8 161c5.33301 28.667 11 43 17 43l-9 42v26c0 5.33301 3 8 9 8l-9 17v60c0 12.667 3 23.667 9 33l-9 17
c6 62 9 116 9 162v51h51c0 -22.667 5.66699 -34 17 -34h8v25c-7.33301 0 -21.333 14.333 -42 43h-9c-10.667 -6 -19 -9 -25 -9v17c0 6 2.66699 9 8 9l-17 33c0 6 3 9 9 9l-9 42c0 4 3 41 9 111c0 3.33301 -3 40 -9 110c10 5.33301 21.333 8 34 8v34
c-16.667 0 -25 14.333 -25 43v127c0 11.333 31 20 93 26zM136 1349v-8c6 -11.333 9 -20 9 -26h8c11.333 0 17 5.66699 17 17c-8.66699 0 -20 5.66699 -34 17zM264 1018l-9 -17v-8c2 -11.333 7.66699 -17 17 -17h9v17l34 -26h8v26c-11.333 14 -17 22.333 -17 25l-17 -8h-8z
M739 984v-25h8c11.333 0 17 5.66699 17 17v8h-25zM493 942h17v17c-11.333 -2 -17 -7.66699 -17 -17zM679 849c6 -22.667 9 -42.667 9 -60l51 9c0 29.333 -8.66699 46.333 -26 51h-34zM315 713c0 -40 -14.333 -60 -43 -60v-17c40 11.333 60 34 60 68v9h-17zM238 687l-8 -17
h25c0 11.333 -5.66699 17 -17 17zM196 424v-17h17v17h-17zM544 221v-17h17v17h-17zM552 178c0 -8.66699 -5.66699 -20 -17 -34c2 -11.333 7.66699 -17 17 -17c0 8.66699 5.66699 20 17 34c0 11.333 -5.66699 17 -17 17zM323 153c0 -12.667 -2.66699 -24 -8 -34h8l17 8
c-5.33301 11.333 -8 20 -8 26h-9zM238 127v-17h17v17h-17zM433 110c2 -11.333 7.66699 -17 17 -17v17h-17zM340 93v-17l34 -8v8c0 11.333 -5.66699 17 -17 17h-17zM548 2075l33.999 -8c68 5.33301 119 8 153 8c0 -5.33301 3 -8 9 -8c0 5.33301 2.66699 8 8 8v-254h-76
c-19.333 0 -33.666 2.66699 -42.999 8l-51 -8h-76c-11.333 0 -17 5.66699 -17 17v203c0 9.33301 19.667 20.666 59 34zM641.999 2007c1.33301 -11.333 7 -17 17 -17v17h-17zM615.999 1906c0 -6 -2.66797 -9 -8.00098 -9c8.66699 -22.667 17 -34 25 -34l17 9
c-5.33301 18 -16.666 29.333 -33.999 34zM365.998 1817l-203.001 0.000976562c-11.333 0 -17 5.66699 -17 17v76l8 51c-5.33301 9.33301 -8 23.666 -8 42.999v76h254c0 -5.33301 -2.66699 -8 -8 -8c0 -6 2.66699 -9 8 -9c0 -34 -2.66699 -85 -8 -153l8 -34
c-13.333 -39.333 -24.666 -59 -33.999 -59zM331.997 1987h-17c0 -10 5.66699 -15.667 17 -17v17z" />
    <glyph glyph-name="icircumflex" unicode="&#xee;" horiz-adv-x="533" 
d="M122 1697h297c11.333 -1.33301 17 -7 17 -17v-1723h-323v9c0 23.333 -2.66699 46 -8 68c0 6.66699 2.66699 35 8 85c-5.33301 132.667 -8 231.667 -8 297l8 34l-8 17l8 17c-5.33301 38.667 -8 69.667 -8 93l8 17l-8 17c0 11.333 2.66699 17 8 17l-8 59v484
c0 23.333 2.66699 46 8 68c-5.33301 22 -8 44.667 -8 68v373c2 11.333 7.66699 17 17 17zM145 2087c13.333 -8.66699 67.332 -13 161.999 -13c14.667 8.66699 40 13 76 13l21 -13l-179 -333l-101 -1h-140l-21 14c88.667 222 149.334 333 182.001 333zM581.999 1754
l-21.001 -14h-140l-101 1l-179 333l21 13c36 0 61.333 -4.33301 76 -13c94.667 0 148.667 4.33301 162 13c32.667 0 93.334 -111 182.001 -333zM168.998 2045v44h232v-44h-232z" />
    <glyph glyph-name="idieresis" unicode="&#xef;" horiz-adv-x="456" 
d="M77 1697h297c11.333 -1.33301 17 -7 17 -17v-1723h-323v9c0 23.333 -2.66699 46 -8 68c0 6.66699 2.66699 35 8 85c-5.33301 132.667 -8 231.667 -8 297l8 34l-8 17l8 17c-5.33301 38.667 -8 69.667 -8 93l8 17l-8 17c0 11.333 2.66699 17 8 17l-8 59v484
c0 23.333 2.66699 46 8 68c-5.33301 22 -8 44.667 -8 68v373c2 11.333 7.66699 17 17 17zM303 2075l28.999 -8c58.667 5.33301 102.334 8 131.001 8c0 -5.33301 2.66699 -8 8 -8c0 5.33301 2.33301 8 7 8v-254h-65c-16.667 0 -29 2.66699 -37 8l-44 -8h-65
c-10 0 -15 5.66699 -15 17v203c0 9.33301 17 20.666 51 34zM422.999 2007c1.33301 -11.333 6.66699 -17 16 -17v17h-16zM398 1906c0 -6 -2.33301 -9 -7 -9c8 -22.667 15.667 -34 23 -34l17 9c-5.33301 18 -16.333 29.333 -33 34zM188 1817l-193.999 0.000976562
c-10.667 0 -16 5.66699 -16 17v76l8 51c-5.33301 9.33301 -8 23.666 -8 42.999v76h242c0 -5.33301 -2.33301 -8 -7 -8c0 -6 2.33301 -9 7 -9c0 -34 -2.33301 -85 -7 -153l7 -34c-12.667 -39.333 -23.334 -59 -32.001 -59zM127.001 1987h-16c0 -10 5.33301 -15.667 16 -17v17
z" />
    <glyph glyph-name="ocircumflex" unicode="&#xf4;" horiz-adv-x="1196" 
d="M578 1714l185.999 -42c34 0 99.333 -48.333 196 -145c107.333 -184 161 -384.667 161 -602c5.33301 0 8 -3 8 -9s-2.66699 -14.333 -8 -25c0 -8.66699 2.66699 -48.334 8 -119.001c-16.667 -267.333 -45 -442.666 -85 -525.999c-7.33301 0 -18.666 -25.333 -33.999 -76
c-79.333 -124.667 -155.666 -187 -228.999 -187c-20 -39.333 -68 -59 -144 -59h-85c-97.333 0 -196.333 42.333 -297 127c-130 144.667 -195 382.334 -195 713.001c0 256 22.667 454 68 594c43.333 125.333 114 215.666 212 270.999c13.333 24 55.666 46.667 126.999 68
l17 -8zM390.999 713c0 -122.667 22.667 -255.666 68 -398.999c32 -68 77.333 -102 136 -102h8c75.333 0 126.333 62.333 153 187c16.667 0 25 110.333 25 331c6 19.333 9 30.666 9 33.999l-9 17c6 29.333 9 46.333 9 51c-11.333 214.667 -34 378.667 -68 492
c-43.333 68 -91.333 102 -144 102c-92.667 0 -146.667 -87.667 -162 -263c-16.667 -69.333 -25 -219.333 -25 -450zM212.999 1273v-9c2.66699 0 14 -2.66699 34 -8v17c0 11.333 -5.66699 17 -17 17c-11.333 -2 -17 -7.66699 -17 -17zM1019 1103v-17h34v9
c-20 5.33301 -31.333 8 -34 8zM229.999 1095v-17c11.333 0 17 5.66699 17 17h-17zM950.999 840.001v-34h26c-11.333 14 -17 25.333 -17 34h-9zM144.999 645.001l17 -9v26c-11.333 -2 -17 -7.66699 -17 -17zM178.999 636.001v-8h8c8 0 16.667 8.33301 26 25h-17
c-11.333 -1.33301 -17 -7 -17 -17zM212.999 628.001v-9.00098c1.33301 -11.333 7 -17 17 -17c11.333 14.667 17 23.334 17 26.001h-34zM229.999 492l-9 -17c2 -11.333 7.66699 -17 17 -17l9 17c0 11.333 -5.66699 17 -17 17zM402.999 2087
c14.667 -8.66699 75.667 -13 183 -13c16 8.66699 44.333 13 85 13l24 -13l-202 -333l-114 -1h-158l-24 14c100 222 168.667 333 206 333zM960.999 1754l-24 -14h-158l-114 1l-202 333l24 13c40.667 0 69 -4.33301 85 -13c107.333 0 168.333 4.33301 183 13
c37.333 0 106 -111 206 -333zM399.999 2045v44h356v-44h-356z" />
    <glyph glyph-name="odieresis" unicode="&#xf6;" horiz-adv-x="1208" 
d="M484 -51l-16.999 -8c-71.333 21.333 -113.666 44 -126.999 68c-98 55.333 -168.667 145.666 -212 270.999c-45.333 140 -68 338 -68 594c0 330.667 65 568.334 195 713.001c100.667 84.667 199.667 127 297 127h85c76 0 124 -19.667 144 -59
c73.333 0 149.666 -62.333 228.999 -187c15.333 -50.667 26.666 -76 33.999 -76c40 -83.333 68.333 -258.666 85 -525.999c-5.33301 -70.667 -8 -110.334 -8 -119.001c5.33301 -10.667 8 -19 8 -25s-2.66699 -9 -8 -9c0 -217.333 -53.667 -418 -161 -602
c-96.667 -96.667 -162 -145 -196 -145l-186 -42zM416.001 475c15.333 -175.333 69.333 -262.999 162 -262.999c52.667 0 100.667 34 144 102c34 113.333 56.667 277.333 68 492c0 4.66699 -3 21.667 -9 51l9 17c0 3.33301 -3 14.666 -9 33.999
c0 220.667 -8.33301 331 -25 331c-26.667 124.667 -77.667 187 -153 187h-8c-58.667 0 -104 -34 -136 -102c-45.333 -143.333 -68 -276.333 -68 -399c0 -230.667 8.33301 -380.667 25 -450zM230.001 348.001c11.333 0 17 5.66699 17 17v17c-20 -5.33301 -31.333 -8 -34 -8
v-9c0 -9.33301 5.66699 -15 17 -17zM1053 543.001v9h-34v-17c2.66699 0 14 2.66699 34 8zM247.001 543.001c0 11.333 -5.66699 17 -17 17v-17h17zM960.001 798.001c0 8.66699 5.66699 20 17 34h-26v-34h9zM162.001 976.001v26l-17 -9c0 -9.33301 5.66699 -15 17 -17z
M247.001 1010c0 2.66699 -5.66699 11.333 -17 26c-10 0 -15.667 -5.66699 -17 -17v-9h34zM771.001 1618l-9 18c-9.33301 0 -15 -6 -17 -18l9 -18c11.333 0 17 6 17 18zM478.001 1822l-33.999 7.99902c-68 -5.33301 -119 -8 -153 -8c0 5.33301 -3 8 -9 8
c0 -5.33301 -2.66699 -8 -8 -8v254h76c19.333 0 33.666 -2.66699 42.999 -8l51 8h76c11.333 0 17 -5.66699 17 -17v-203c0 -9.33301 -19.667 -20.666 -59 -33.999zM384.002 1890c-1.33301 11.333 -7 17 -17 17v-17h17zM410.002 1991c0 6 2.66797 9 8.00098 9
c-8.66699 22.667 -17 34 -25 34l-17 -9c5.33301 -18 16.666 -29.333 33.999 -34zM660.003 2080l203.001 -0.000976562c11.333 0 17 -5.66699 17 -17v-76l-8 -51c5.33301 -9.33301 8 -23.666 8 -42.999v-76h-254c0 5.33301 2.66699 8 8 8c0 6 -2.66699 9 -8 9
c0 34 2.66699 85 8 153l-8 34c13.333 39.333 24.666 59 33.999 59zM694.004 1910h17c0 10 -5.66699 15.667 -17 17v-17z" />
    <glyph glyph-name="ugrave" unicode="&#xf9;" horiz-adv-x="1137" 
d="M85 1689l306 0.00195312c11.333 -2 17 -7.66699 17 -17v-280c0 -17.333 2.66699 -26 8 -26l-8 -42v-730c0 -56.667 2.66699 -141.667 8 -255c41.333 -67.333 78.333 -101 111 -101h17c96 5.33301 144 42 144 110c13.333 0 21.666 51 24.999 153v161
c0 18.667 3 32.667 9 42l-9 51v195l9 51l-9 17l17 43c-11.333 71.333 -17 122 -17 152l9 60c-6 20 -9 31.333 -9 34c6 30.667 9 56 9 76c0 19.333 -3 33.666 -9 42.999c6 30 9 55.333 9 76v170c2 11.333 7.66699 17 17 17h305l26 -17c-6 -56.667 -9 -99.334 -9 -128.001
c0 -22.667 3 -34 9 -34l-9 -59v-1069c-8.66699 -121.333 -51 -231.666 -127 -330.999c-85.333 -62.667 -147.666 -94 -186.999 -94c0 -15.333 -87.667 -26.333 -263 -33c-132.667 26.667 -228.667 69 -288 127c-90.667 93.333 -136 226.333 -136 399v314
c0 23.333 2.66699 46 8 68c-5.33301 21.333 -8 43.666 -8 66.999v289c0 23.333 2.66699 54.333 8 93c-5.33301 11.333 -8 20 -8 26c5.33301 100 8 184.667 8 254v111c2 11.333 7.66699 17 17 17zM112 603.002v-7.99902c-16.667 -62.667 -42 -94 -76 -94v26
c6 19.333 31.333 44.666 76 75.999zM394 1482v-17c0 -8 -8.33301 -16.333 -25 -25v8c8.66699 22.667 17 34 25 34zM420 1423v-17.001c0 -11.333 -5.66699 -17 -17 -17h-9v8c0 8.66699 8.66699 17.334 26 26.001zM403 1321h25v-9c0 -10.667 -5.66699 -16 -17 -16l-8 16v9z
M768 1763l-24 -14h-158l-85 -13l-231 347l24 13c40.667 0 61 -9 61 -27l24 14h134c18 0 34.333 4.33301 49 13c37.333 0 106 -111 206 -333z" />
    <glyph glyph-name="ucircumflex" unicode="&#xfb;" horiz-adv-x="1112" 
d="M1038 1672v-111.002c0 -69.333 2.66699 -154 8 -254c0 -6 -2.66699 -14.667 -8 -26c5.33301 -38.667 8 -69.667 8 -93v-289c0 -23.333 -2.66699 -45.666 -8 -66.999c5.33301 -22 8 -44.667 8 -68v-314c0 -172.667 -45.333 -305.667 -136 -399
c-59.333 -58 -155.333 -100.333 -288 -127c-175.333 6.66699 -263 17.667 -263 33c-39.333 0 -101.666 31.333 -186.999 94c-76 99.333 -118.333 209.666 -127 330.999v1069l-9 59c6 0 9 11.333 9 34c0 28.667 -3 71.334 -9 128.001l26 17h305c9.33301 0 15 -5.66699 17 -17
v-170c0 -20.667 3 -46 9 -76c-6 -9.33301 -9 -23.666 -9 -42.999c0 -20 3 -45.333 9 -76c0 -2.66699 -3 -14 -9 -34l9 -60c0 -30 -5.66699 -80.667 -17 -152l17 -43l-9 -17l9 -51v-195l-9 -51c6 -9.33301 9 -23.333 9 -42v-161c3.33301 -102 11.666 -153 24.999 -153
c0 -68 48 -104.667 144 -110h17c32.667 0 69.667 33.667 111 101c5.33301 113.333 8 198.333 8 255v730l-8 42c5.33301 0 8 8.66699 8 26v280c0 9.33301 5.66699 15 17 17h306c9.33301 0 15 -5.66699 17 -17zM1070 526.998v-26.001c-34 0 -59.333 31.333 -76 94v8
c44.667 -31.333 70 -56.666 76 -75.999zM737 1448v-8c-16.667 8.66699 -25 17 -25 25v17c8 0 16.333 -11.333 25 -34zM712 1397v-7.99902h-9c-11.333 0 -17 5.66699 -17 17v17c17.333 -8.66699 26 -17.334 26 -26.001zM703 1312l-8 -16c-11.333 0 -17 5.33301 -17 16v9h25
v-9zM373 2087c14.667 -8.66699 75.667 -13 183 -13c16 8.66699 44.333 13 85 13l24 -13l-202 -333l-114 -1h-158l-24 14c100 222 168.667 333 206 333zM931 1754l-24 -14h-158l-114 1l-202 333l24 13c40.667 0 69 -4.33301 85 -13c107.333 0 168.333 4.33301 183 13
c37.333 0 106 -111 206 -333zM370 2045v44h356v-44h-356z" />
    <glyph glyph-name="udieresis" unicode="&#xfc;" horiz-adv-x="1104" 
d="M942 1646l-8.00098 -17.001c28 -7.33301 42 -15.666 42 -24.999v-9h-8l-26 17c-11.333 0 -17 -5.66699 -17 -17v-8c17.333 -18.667 26 -35.667 26 -51h17c0 11.333 5.66699 17 17 17l-9 17c0 8.66699 11.333 17 34 25c9.33301 0 15 -5.66699 17 -17v-25
c0 -56 3 -124 9 -204c-28.667 -30.667 -43 -56 -43 -76c0 -6 3 -14.667 9 -26c-11.333 -18 -17 -35 -17 -51v-67h-17c-11.333 31.333 -17 65 -17 101l-43 -25c0 16.667 -5.66699 25 -17 25s-17 -8.33301 -17 -25h-25v51c-6 0 -14.667 -3 -26 -9c-6 0 -14.333 3 -25 9
c-11.333 -28.667 -17 -51.334 -17 -68.001l51 -8v-17c-6 0 -14.667 -3 -26 -9l9 -42v-9c-17.333 0 -26 -5.66699 -26 -17l26 -34l25 17h26c0 -12 -8.66699 -29 -26 -51v-8h17c0 22.667 20 34 60 34l17 -9v17h8l17 -8c0 -4.66699 -2.66699 -21.667 -8 -51l-17 8
c-25.333 -16.667 -45.333 -25 -60 -25v-9l43 -8c32.667 -40 52.334 -60 59.001 -60h60v-59l8 -42c-5.33301 0 -8 -3 -8 -9l8 -42c0 -6 -2.66699 -14.667 -8 -26c5.33301 -38.667 8 -69.667 8 -93v-26c0 -11.333 -8.33301 -17 -25 -17v-8h17v-17
c0 -39.333 -8.66699 -59 -26 -59v-9h9l17 9c0 -19.333 2.66699 -33.666 8 -42.999c0 -5.33301 -2.66699 -8 -8 -8c0 -152 -37 -271 -111 -357c-56.667 -5.33301 -85 -13.666 -85 -24.999l17 -26c0 -33.333 -96 -64.333 -288 -93h-26c-103.333 10 -171 21.333 -203 34
c-175.333 72.667 -263 202.667 -263 390c5.33301 0 8 3 8 9c-16.667 33.333 -25 106.666 -25 219.999c0 6 2.66699 14.667 8 26c-5.33301 0 -8 2.66699 -8 8v43l8 42c-5.33301 0 -8 3 -8 9s2.66699 14.333 8 25c-5.33301 48 -8 87.667 -8 119v51l8 17
c-5.33301 0 -8 2.66699 -8 8v162l42 34l-8 17l-17 -9h-9v272l9 42c-6 0 -9 3 -9 9l9 42l-9 42h26c6 0 14.333 3 25 9c-34 31.333 -51 56.666 -51 75.999v26c14 0 36.667 2.66699 68 8l59 -17h26v-8c24 0 43.667 8.33301 59 25h9l17 -8c0 5.33301 2.66699 8 8 8h68
c0 -25.333 -2.66699 -42.333 -8 -51c5.33301 -38.667 8 -69.667 8 -93v-102l-8 -59c5.33301 0 8 -11.333 8 -34v-17l-17 -26v-8h17v-721c0 -40 3 -102.333 9 -187c38.667 -102 86.667 -153 144 -153c50.667 6 90.334 20 119.001 42c50.667 37.333 76 162 76 374
c-5.33301 9.33301 -8 23.333 -8 42v60l8 42l17 -8h17v17c-28 0 -42 14 -42 42v178l8 17c-5.33301 0 -8 3 -8 9v25l8 43c11.333 0 17 -14.333 17 -43h17v34l8 43h-17l-25 -17c0 18.667 -2.66699 32.667 -8 42c5.33301 30 8 47 8 51l-8 136l8 17c-5.33301 0 -8 2.66699 -8 8
v94h8l42 -43c17.333 8.66699 26 17.334 26 26.001c-11.333 14 -17 22.333 -17 25v8c18.667 0 32.667 3 42 9l-8 42c0 10 5.66699 15.667 17 17c-8.66699 22.667 -17.334 34 -26.001 34h-8v-8c-22.667 -17.333 -34 -34.333 -34 -51h-34v17c0 34 11.333 51 34 51v17
c-28 0 -42 11.333 -42 34c0 8 11 16.333 33 25c45.333 -7.33301 68 -21.333 68 -42h9v25h17l17 -8c0 8 11.333 16.333 34 25c16.667 0 30.667 -11.333 42 -34zM1019 1655c-11.333 -14 -17 -25.333 -17 -34h-26v34c0 9.33301 5.66699 15 17 17h26v-17zM771.999 1663v-17
c10 0 15.667 5.66699 17 17h-17zM1027 1595c-11.333 0 -17 5.66699 -17 17v9h17v-26zM279.999 1536v-9c10 0 15.667 5.66699 17 17v9c-11.333 0 -17 -5.66699 -17 -17zM856.999 1544c0 -6 -2.66699 -14.333 -8 -25v-17c22.667 14 34 25.333 34 34v8h-26zM907.999 1536v-26
h17v26h-17zM262.999 1510c-8 0 -16.333 -11 -25 -33v-9h25l9 42h-9zM1002 1502l-17 -9c0 -10.667 5.66699 -16 17 -16h8v25h-8zM873.999 1493v-16h17v16h-17zM237.999 1451v-8c0 -11.333 5.66699 -17 17 -17v8c0 9.33301 -5.66699 15 -17 17zM746.999 1417v-8
c0 -11.333 5.66699 -17 17 -17h17v25h-34zM831.999 1341v-9.00098c0 -11.333 5.66699 -17 17 -17h17c0 28.667 14 43 42 43v17c-50.667 -7.33301 -76 -18.666 -76 -33.999zM746.999 1375h-9v-26h26v9c0 9.33301 -5.66699 15 -17 17zM975.999 1341h-17
c0 -4.66699 3 -21.667 9 -51c16.667 8.66699 25 17 25 25v9c0 9.33301 -5.66699 15 -17 17zM933.999 1341c0 -6 -3 -14.667 -9 -26h17v26h-8zM339.999 1324h17v17c-11.333 0 -17 -5.66699 -17 -17zM890.999 1307h-8l-26 -17l-17 8v-17c45.333 -16 68 -27.333 68 -34
c11.333 6 20 9 26 9v34c-14.667 0 -29 5.66699 -43 17zM305.999 1264c0 -9.33301 -5.66699 -23.332 -17 -41.999c39.333 11.333 59 22.666 59 33.999v8h-42zM907.999 1171v-17c-11.333 0 -17 5.66699 -17 17v17c10 0 15.667 -5.66699 17 -17zM305.999 1154h-8.99902
c11.333 -26 22.666 -40 33.999 -42v17c-8.66699 16.667 -17 25 -25 25zM908 1112l17.001 8h9c0 -22.667 8.33301 -34 25 -34v-17c-6 0 -14.333 3 -25 9l-26 -17h-8c0 6 -3 14.333 -9 25v17c6 0 9 -2.66699 9 -8h17v8c-17.333 0 -26 5.66699 -26 17l-42 -8h-9l9 42h34
c9.33301 0 17.666 -14 24.999 -42zM136.001 1112c-11.333 0 -17 -5.66699 -17 -17v-9c0 -11.333 5.66699 -17 17 -17h8c10 0 15.667 5.66699 17 17v17c-6 0 -14.333 3 -25 9zM1036 992.999l-8.99902 -17c6 0 9 -3 9 -9v-42c-8.66699 0 -17.334 11.333 -26.001 34l-42 -9
l8 43c13.333 0 33.333 11.333 60 34v-34zM789.002 890.999v-17h17v17h-17zM951.002 831.999v-34h8c9.33301 0 15 5.66699 17 17v17h-25zM900.002 483.999v-17h17v17h-17zM968.002 338.999v-17h17v34c-11.333 0 -17 -5.66699 -17 -17zM730.002 338.999v-17
c9.33301 0 15 5.66699 17 17h-17zM917.002 321.999v-17h17c0 10 -5.66699 15.667 -17 17zM917.002 262.999h-9v-17h26c0 9.33301 -5.66699 15 -17 17zM1042 1681v-790h-319v790h319zM668.002 2075l33.999 -7.99902c68 5.33301 119 8 153 8c0 -5.33301 3 -8 9 -8
c0 5.33301 2.66699 8 8 8v-254h-76c-19.333 0 -33.666 2.66699 -42.999 8l-51 -8h-76c-11.333 0 -17 5.66699 -17 17v203c0 9.33301 19.667 20.666 59 33.999zM486.001 1817l-203.001 0.000976562c-11.333 0 -17 5.66699 -17 17v76l8 51
c-5.33301 9.33301 -8 23.666 -8 42.999v76h254c0 -5.33301 -2.66699 -8 -8 -8c0 -6 2.66699 -9 8 -9c0 -34 -2.66699 -85 -8 -153l8 -34c-13.333 -39.333 -24.666 -59 -33.999 -59zM452 1987h-17c0 -10 5.66699 -15.667 17 -17v17z" />
    <glyph glyph-name="circumflex" unicode="&#x2c6;" horiz-adv-x="722" 
d="M187 2087c14.667 -8.66699 75.667 -13 183 -13c16 8.66699 44.333 13 85 13l24 -13l-202 -333l-114 -1h-158l-24 14c100 222 168.667 333 206 333zM745 1754l-24 -14h-158l-114 1l-202 333l24 13c40.667 0 69 -4.33301 85 -13c107.333 0 168.333 4.33301 183 13
c37.333 0 106 -111 206 -333zM184 2045v44h356v-44h-356z" />
    <glyph glyph-name="caron" unicode="&#x2c7;" horiz-adv-x="722" 
d="M60 1434h58l233 -214l233 214h58l-232 -356h-118z" />
    <glyph glyph-name="breve" unicode="&#x2d8;" horiz-adv-x="724" 
d="M60 1349l50.998 0.00292969c11.333 -48.667 36.333 -84.334 75 -107.001s94.334 -34 167.001 -34s128 11.167 166 33.5s62.667 58.166 74 107.499h51c-13.333 -88.667 -44.666 -155.834 -93.999 -201.501s-115 -68.5 -197 -68.5c-81.333 0 -147 23 -197 69
s-82 113 -96 201z" />
    <glyph glyph-name="dotaccent" unicode="&#x2d9;" horiz-adv-x="355" 
d="M74 1289l69 71.999c4 4 8.33301 7 13 9s9.33398 3 14.001 3c4 0 8.16699 -1 12.5 -3s8.5 -5 12.5 -9l71 -76c3.33301 -2.66699 5.66602 -6 6.99902 -10s2 -8.66699 2 -14c-0.666992 -6 -1.66699 -11 -3 -15s-4 -8 -8 -12l-71 -76c-8 -7.33301 -13.333 -11.833 -16 -13.5
s-5 -2.5 -7 -2.5c-6.66699 0 -12.167 0.833008 -16.5 2.5s-7.83301 4.5 -10.5 8.5l-75 87c-2.66699 2.66699 -4.66699 5.83398 -6 9.50098s-2 8.16699 -2 13.5c0 4 1 8.16699 3 12.5s5.66699 8.83301 11 13.5z" />
    <glyph glyph-name="ring" unicode="&#x2da;" horiz-adv-x="495" 
d="M136 1257c0 -28 9.66699 -51.667 29 -71s43 -29 71 -29s51.667 9.66699 71 29s29 43 29 71c0 26.667 -9.83301 49.834 -29.5 69.501s-43.167 29.5 -70.5 29.5s-50.833 -9.83301 -70.5 -29.5s-29.5 -42.834 -29.5 -69.501zM60 1257c0 50 17 91.999 51 125.999
s75.667 51 125 51c50.667 0 93.167 -17.167 127.5 -51.5s51.5 -76.166 51.5 -125.499c0 -50 -17.167 -92.167 -51.5 -126.5s-76.833 -51.5 -127.5 -51.5c-49.333 0 -91 17.167 -125 51.5s-51 76.5 -51 126.5z" />
    <glyph glyph-name="ogonek" unicode="&#x2db;" horiz-adv-x="508" 
d="M331 0c-47.333 -41.333 -84.168 -81.1699 -110.501 -119.503s-39.5 -75.833 -39.5 -112.5c0 -31.333 9 -56.333 27 -75s42.333 -28 73 -28c26.667 0 49.834 5.16699 69.501 15.5s36.167 26.5 49.5 48.5l28 -16c-24 -42 -54.167 -74.333 -90.5 -97
s-76.166 -34 -119.499 -34c-46.667 0 -84.667 11.833 -114 35.5s-44 53.834 -44 90.501c0 50.667 20.167 102.834 60.5 156.501s94.166 98.834 161.499 135.501h49z" />
    <glyph glyph-name="tilde" unicode="&#x2dc;" horiz-adv-x="714" 
d="M634 1382c-13.333 -68.667 -36.1689 -120 -68.502 -154s-74.5 -51 -126.5 -51h-4c-33.333 0 -71 7.66699 -113 23c-44 16 -82 24 -114 24c-26 0 -46.167 -6.83301 -60.5 -20.5s-25.5 -37.5 -33.5 -71.5h-54c12.667 70.667 35.334 123.5 68.001 158.5
s75.667 52.5 129 52.5c30.667 -0.666992 68.334 -8.66699 113.001 -24c42.667 -15.333 80 -23 112 -23h4c24 0 43.333 6.66699 58 20s26.667 35.333 36 66h54z" />
    <glyph glyph-name="hungarumlaut" unicode="&#x2dd;" horiz-adv-x="729" 
d="M60 1079l144 273.002c16 29.333 31.167 50.333 45.5 63s29.833 19 46.5 19c18.667 0 34.667 -6.66699 48 -20s20 -29 20 -47c0 -10.667 -3.5 -22.334 -10.5 -35.001s-17.167 -26.334 -30.5 -41.001l-205 -212h-58zM345 1079l144 273.002c16 29.333 31.167 50.333 45.5 63
s29.833 19 46.5 19c18.667 0 34.667 -6.66699 48 -20s20 -29 20 -47c0 -10.667 -3.5 -22.334 -10.5 -35.001s-17.167 -26.334 -30.5 -41.001l-205 -212h-58z" />
    <glyph glyph-name="quoteleft" unicode="&#x2018;" horiz-adv-x="454" 
d="M357 1317l-279.999 0.00195312c-11.333 2 -17 7.66699 -17 17v263l153 238h144c11.333 0 17 -5.66699 17 -17v-9c-60.667 -88.667 -100.334 -156.334 -119.001 -203.001l60 -9c10.667 6 19 9 25 9c22.667 -8.66699 34 -17.334 34 -26.001v-246
c-2 -11.333 -7.66699 -17 -17 -17z" />
    <glyph glyph-name="quoteright" unicode="&#x2019;" horiz-adv-x="454" 
d="M77 1835l279.999 -0.00195312c11.333 -2 17 -7.66699 17 -17v-263l-153 -238h-144c-11.333 0 -17 5.66699 -17 17v9c60.667 88.667 100.334 156.334 119.001 203.001l-60 9c-10.667 -6 -19 -9 -25 -9c-22.667 8.66699 -34 17.334 -34 26.001v246
c2 11.333 7.66699 17 17 17z" />
    <glyph glyph-name="quotedblleft" unicode="&#x201c;" horiz-adv-x="894" 
d="M357 1317l-279.999 0.00195312c-11.333 2 -17 7.66699 -17 17v263l153 238h144c11.333 0 17 -5.66699 17 -17v-9c-60.667 -88.667 -100.334 -156.334 -119.001 -203.001l60 -9c10.667 6 19 9 25 9c22.667 -8.66699 34 -17.334 34 -26.001v-246
c-2 -11.333 -7.66699 -17 -17 -17zM797.001 1317l-279.999 0.00195312c-11.333 2 -17 7.66699 -17 17v263l153 238h144c11.333 0 17 -5.66699 17 -17v-9c-60.667 -88.667 -100.334 -156.334 -119.001 -203.001l60 -9c10.667 6 19 9 25 9
c22.667 -8.66699 34 -17.334 34 -26.001v-246c-2 -11.333 -7.66699 -17 -17 -17z" />
    <glyph glyph-name="quotedblright" unicode="&#x201d;" horiz-adv-x="894" 
d="M77 1835l279.999 -0.00195312c11.333 -2 17 -7.66699 17 -17v-263l-153 -238h-144c-11.333 0 -17 5.66699 -17 17v9c60.667 88.667 100.334 156.334 119.001 203.001l-60 9c-10.667 -6 -19 -9 -25 -9c-22.667 8.66699 -34 17.334 -34 26.001v246
c2 11.333 7.66699 17 17 17zM516.999 1835l279.999 -0.00195312c11.333 -2 17 -7.66699 17 -17v-263l-153 -238h-144c-11.333 0 -17 5.66699 -17 17v9c60.667 88.667 100.334 156.334 119.001 203.001l-60 9c-10.667 -6 -19 -9 -25 -9
c-22.667 8.66699 -34 17.334 -34 26.001v246c2 11.333 7.66699 17 17 17z" />
    <glyph glyph-name="ellipsis" unicode="&#x2026;" horiz-adv-x="1488" 
d="M239 -499l25.001 -23.999c61.333 -29.333 106.666 -52.333 135.999 -69c-2.66699 -4.66699 -1.33398 -8.66699 3.99902 -12c2.66699 4.66699 6.33398 5.66699 11.001 3l-127 -220l-66 38c-16 9.33301 -26.667 18.666 -32 27.999l-49 19l-66 38c-10 6 -12 13.667 -6 23
l101 176c4.66699 8 27.667 8 69 0zM286.001 -604.999c-4 -10.667 -2 -18.333 6 -23l8 15zM213.001 -679.998c-2.66699 -4.66699 -6.66699 -5.66699 -12 -3c-4 -24 -2 -38 6 -42l18 -1c4.66699 18.667 0.666992 34 -12 46zM736.001 -498.998l25.002 -23.999
c61.333 -29.333 106.666 -52.333 135.999 -69c-2.66699 -4.66699 -1.33398 -8.66699 3.99902 -12c2.66699 4.66699 6 5.66699 10 3l-127 -220l-65 38c-16.667 9.33301 -27.667 18.666 -33 27.999l-48 19l-67 38c-9.33301 6 -11.333 13.667 -6 23l102 176
c4.66699 8 27.667 8 69 0zM782.003 -604.997c-4 -10.667 -2 -18.333 6 -23l9 15zM710.003 -679.996c-2.66699 -4.66699 -6.66699 -5.66699 -12 -3c-4 -24 -2.33301 -38 5 -42l19 -1c4 18.667 0 34 -12 46zM1232 -498.996l26 -23.999c60.667 -29.333 105.667 -52.333 135 -69
c-2.66699 -4.66699 -1.33398 -8.66699 3.99902 -12c2.66699 4.66699 6.33398 5.66699 11.001 3l-127 -220l-66 38c-16 9.33301 -26.667 18.666 -32 27.999l-48 19l-67 38c-10 6 -12 13.667 -6 23l101 176c4.66699 8 27.667 8 69 0zM1279 -604.995
c-4 -10.667 -2 -18.333 6 -23l9 15zM1207 -679.994c-3.33301 -4.66699 -7.66699 -5.66699 -13 -3c-3.33301 -24 -1.33301 -38 6 -42l18 -1c4.66699 18.667 1 34 -11 46z" />
    <glyph glyph-name=".null" horiz-adv-x="0" 
 />
    <glyph glyph-name="nonmarkingreturn" horiz-adv-x="550" 
 />
  </font>
</defs>
</svg>
