<?xml version="1.0" standalone="no"?>
<!DOCTYPE svg PUBLIC "-//W3C//DTD SVG 1.1//EN" "http://www.w3.org/Graphics/SVG/1.1/DTD/svg11.dtd" >
<svg xmlns="http://www.w3.org/2000/svg">
<metadata></metadata>
<defs>
<font id="rockwellbold" horiz-adv-x="725" >
<font-face units-per-em="2048" ascent="1638" descent="-410" />
<missing-glyph horiz-adv-x="512" />
<glyph horiz-adv-x="0" />
<glyph unicode="&#xd;" horiz-adv-x="512" />
<glyph unicode=" "  horiz-adv-x="512" />
<glyph unicode="&#x09;" horiz-adv-x="512" />
<glyph unicode="&#xa0;" horiz-adv-x="512" />
<glyph unicode="!" d="M195 0v335h335v-335h-335zM202 1010v381h309v-381l-79 -525h-144z" />
<glyph unicode="&#x22;" horiz-adv-x="1130" d="M176 1260q0 67 42.5 111t104.5 44q64 0 106.5 -44.5t42.5 -98.5q0 -48 -24 -140l-99 -383h-48l-105 383q-20 71 -20 128zM659 1260q0 67 42.5 111t104.5 44q64 0 106 -44.5t42 -98.5q0 -48 -24 -140l-99 -383h-48l-105 383q-19 71 -19 128z" />
<glyph unicode="#" horiz-adv-x="1368" d="M74 345v216h201l57 275h-258v216h304l78 372h216l-79 -372h329l79 372h215l-78 -372h156v-216h-201l-58 -275h259v-216h-304l-78 -372h-216l78 372h-329l-78 -372h-216l78 372h-155zM490 561h329l58 275h-329z" />
<glyph unicode="$" horiz-adv-x="1153" d="M93 408h247q-1 -11 -1 -16q0 -70 36 -122t101 -69v424q-212 98 -286 193.5t-74 209.5q0 138 99 236t261 111v52h141v-52q174 -14 277 -112t103 -256h-246q-17 157 -134 170v-333l136 -61q115 -52 183.5 -118.5t95 -138.5t26.5 -146q0 -161 -119.5 -270t-321.5 -114v-175 h-141v175q-157 21 -262.5 110.5t-120.5 301.5zM363 1058q0 -83 113 -150v268q-113 -21 -113 -118zM617 192q86 -1 141.5 48t55.5 117q0 131 -197 207v-372z" />
<glyph unicode="%" horiz-adv-x="1898" d="M137 1043q0 372 295 372q145 0 219 -96.5t74 -275.5q0 -372 -294 -372t-294 372zM348 1044q0 -245 81 -245q85 0 85 243q0 245 -83 245t-83 -243zM356 0l1007 1391h179l-1007 -1391h-179zM1170 354q0 372 295 372q145 0 219 -97t74 -275q0 -372 -294 -372t-294 372z M1381 355q0 -245 81 -245q84 0 84 243q0 245 -82 245q-83 0 -83 -243z" />
<glyph unicode="&#x26;" horiz-adv-x="1642" d="M76 403q0 133 85.5 240t298.5 209q-109 126 -109 253q0 148 110.5 228t268.5 80q160 0 266 -80t106 -204q0 -193 -242 -316l198 -251q112 152 172 289h329v-223h-170q-76 -158 -168 -262l114 -143h224v-223h-412l-126 154q-199 -178 -449 -178q-227 0 -361.5 127 t-134.5 300zM394 448q0 -83 65.5 -146.5t168.5 -63.5q120 0 238 109l-265 334q-207 -86 -207 -233zM629 1140q0 -38 92 -152q134 60 134 139q0 41 -33.5 71t-80.5 30q-45 0 -78.5 -25.5t-33.5 -62.5z" />
<glyph unicode="'" horiz-adv-x="575" d="M140 1260q0 67 42.5 111t104.5 44q64 0 106.5 -44.5t42.5 -98.5q0 -48 -24 -140l-99 -383h-48l-105 383q-20 71 -20 128z" />
<glyph unicode="(" horiz-adv-x="705" d="M94 487q0 373 162 606.5t392 316.5v-199q-130 -68 -183.5 -236.5t-53.5 -487.5q0 -325 54 -491.5t183 -233.5v-199q-233 84 -393.5 320.5t-160.5 603.5z" />
<glyph unicode=")" horiz-adv-x="705" d="M58 -238q130 68 183.5 236.5t53.5 488.5q0 324 -54 490.5t-183 233.5v199q233 -84 393.5 -320.5t160.5 -602.5t-160 -603t-394 -321v199z" />
<glyph unicode="*" horiz-adv-x="1174" d="M80 927l81 234l167 -55q48 -75 208 -151q-18 181 -72 265v171h244v-171q-71 -107 -71 -265q185 89 219 151l161 55l78 -234l-155 -56q-55 15 -104 15q-57 0 -167 -27q100 -122 214 -161l103 -140l-199 -139l-105 139q-2 100 -96 241q-84 -133 -84 -241l-97 -139l-201 139 l98 140q96 28 209 161q-11 1 -55 10q-66 13 -114 13q-51 0 -94 -11z" />
<glyph unicode="+" horiz-adv-x="1368" d="M122 574v249h438v438h248v-438h438v-249h-438v-438h-248v438h-438z" />
<glyph unicode="," d="M196 0v335h334v-311q0 -150 -32.5 -231t-110 -120t-191.5 -39v150q164 17 164 198v18h-164z" />
<glyph unicode="-" horiz-adv-x="705" d="M73 349v270h559v-270h-559z" />
<glyph unicode="." d="M195 0v335h335v-335h-335z" />
<glyph unicode="/" horiz-adv-x="1040" d="M9 -17l739 1432h284l-738 -1432h-285z" />
<glyph unicode="0" horiz-adv-x="1130" d="M87 699q0 341 119.5 528.5t358.5 187.5q238 0 358 -186.5t120 -529.5q0 -349 -123 -533t-355 -184q-233 0 -355.5 184.5t-122.5 532.5zM404 698q0 -242 37.5 -366t121.5 -124q107 0 135 170t28 321q0 242 -37.5 366.5t-123.5 124.5q-87 0 -124 -127.5t-37 -364.5z" />
<glyph unicode="1" horiz-adv-x="1130" d="M221 1168v223h510v-1168h182v-223h-680v223h192v945h-204z" />
<glyph unicode="2" horiz-adv-x="1130" d="M98 0q0 182 29.5 282t97 194t188.5 206q159 146 209.5 214.5t50.5 154.5q0 64 -38 105.5t-95 41.5q-83 0 -122.5 -68.5t-45.5 -223.5l-255 12q0 201 60 303t163 148t224 46q199 0 312.5 -110t113.5 -274q0 -88 -34.5 -162.5t-87 -125t-185.5 -145.5q-200 -143 -251 -227 t-60 -148h405v181h224l-12 -404h-891z" />
<glyph unicode="3" horiz-adv-x="1130" d="M73 425l268 22q5 -245 184 -245q81 0 132 59t51 150q0 89 -50 148.5t-150 59.5q-24 0 -62 -2v234q119 0 173 53.5t54 130.5q0 68 -41 111.5t-107 43.5q-148 0 -148 -184l-261 20q8 189 126.5 289t300.5 100q205 0 318.5 -98t113.5 -268q0 -221 -208 -316 q258 -84 258 -332q0 -197 -133 -308t-338 -111q-447 0 -481 443z" />
<glyph unicode="4" horiz-adv-x="1130" d="M41 561l598 854h274v-842h135v-190h-135v-179h117v-204h-558v204h154v179h-511q-36 107 -74 178zM280 573h346v485z" />
<glyph unicode="5" horiz-adv-x="1130" d="M73 374l263 31q27 -200 184 -200q90 0 138.5 60.5t48.5 171.5q0 247 -181 247q-100 0 -167 -109l-223 111l41 705h781v-327h-203l-19 104h-358l-19 -334q110 79 237 79q204 0 316.5 -132.5t112.5 -322.5q0 -203 -120.5 -339.5t-364.5 -136.5q-209 0 -325 106t-142 286z " />
<glyph unicode="6" horiz-adv-x="1130" d="M110 684q0 388 139.5 559.5t380.5 171.5q346 0 390 -370l-239 -22q-42 177 -162 177q-97 0 -151 -110.5t-57 -289.5q97 92 246 92q161 0 271 -111t110 -322q0 -235 -117 -356t-310 -121q-254 0 -377.5 169.5t-123.5 532.5zM411 604q5 -231 54.5 -315.5t140.5 -84.5 q67 0 108.5 60t41.5 178q0 110 -49.5 166t-121.5 56q-89 0 -174 -60z" />
<glyph unicode="7" horiz-adv-x="1130" d="M139 979v412h869v-171q-105 -125 -212.5 -439.5t-107.5 -557.5h176v-223h-671v223h176q9 204 115 487.5t235 463.5h-358v-195h-222z" />
<glyph unicode="8" horiz-adv-x="1130" d="M80 392q0 245 248 338q-206 116 -206 320q0 163 119.5 264t326.5 101q214 0 329.5 -100.5t115.5 -258.5q0 -209 -202 -326q243 -92 243 -344q0 -185 -124.5 -294.5t-365.5 -109.5t-362.5 116.5t-121.5 293.5zM380 413q0 -99 53 -156.5t136 -57.5t136.5 57.5t53.5 156.5 q0 97 -52.5 158.5t-137.5 61.5q-82 0 -135.5 -60t-53.5 -160zM405 1010q0 -78 43.5 -130t119.5 -52q74 0 118 51t44 134t-42 134.5t-120 51.5q-72 0 -117.5 -48t-45.5 -141z" />
<glyph unicode="9" horiz-adv-x="1130" d="M91 945q0 204 118 337t328 133q234 0 360 -165.5t126 -548.5q0 -719 -512 -719q-167 0 -274.5 94.5t-121.5 279.5l237 23q42 -178 160 -178q186 0 212 396q-110 -87 -259 -87q-155 0 -264.5 116.5t-109.5 318.5zM373 963q0 -98 43 -164t132 -66q82 0 176 64v15 q0 160 -50.5 271t-154.5 111q-65 0 -105.5 -62.5t-40.5 -168.5z" />
<glyph unicode=":" d="M195 0v335h335v-335h-335zM195 635v333h335v-333h-335z" />
<glyph unicode=";" d="M195 0v335h335v-311q0 -144 -31 -226t-108 -123t-196 -41v150q164 17 164 198v18h-164zM195 642v335h335v-335h-335z" />
<glyph unicode="&#x3c;" horiz-adv-x="1368" d="M122 586v225l1124 466v-265l-778 -313l778 -314v-265z" />
<glyph unicode="=" horiz-adv-x="1368" d="M122 333v248h1124v-248h-1124zM122 816v248h1124v-248h-1124z" />
<glyph unicode="&#x3e;" horiz-adv-x="1368" d="M122 120v265l778 314l-778 313v265l1124 -466v-225z" />
<glyph unicode="?" horiz-adv-x="1153" d="M72 992q0 106 41.5 197t162 158.5t297.5 67.5q239 0 363.5 -116.5t124.5 -291.5q0 -172 -111 -277t-276 -105q-15 0 -45 2l-33 -146h-143l-29 368q50 -18 104 -18q88 0 151.5 48t63.5 137q0 83 -54 133.5t-136 50.5q-89 0 -133 -47t-44 -119q0 -18 5 -42h-309zM355 0v335 h335v-335h-335z" />
<glyph unicode="@" horiz-adv-x="2005" d="M62 461q0 289 132.5 526t362 361t531.5 124q383 0 616.5 -216.5t233.5 -547.5q0 -290 -191 -508.5t-465 -218.5q-157 0 -187 114q-115 -114 -275 -114q-171 0 -276 118t-105 309q0 241 152 448.5t387 207.5q180 0 265 -135l25 111h264l-151 -717q-14 -69 -14 -89 q0 -49 39 -49q49 0 133.5 64.5t151.5 189.5t67 272q0 235 -172 406.5t-504 171.5q-244 0 -434.5 -97t-297 -303.5t-106.5 -438.5q0 -317 218.5 -516.5t625.5 -199.5q485 0 690 265h213q-104 -217 -336.5 -333t-531.5 -116q-529 0 -795 251.5t-266 659.5zM697 388 q0 -99 50 -161.5t129 -62.5q141 0 226.5 156.5t85.5 335.5q0 92 -46 160.5t-139 68.5q-137 0 -221.5 -148.5t-84.5 -348.5z" />
<glyph unicode="A" horiz-adv-x="1430" d="M-5 0v235h172l271 921h-185v235h908v-235h-187l292 -921h166v-235h-684v235h178l-66 239h-361l-74 -239h186v-235h-616zM562 678h241l-116 419z" />
<glyph unicode="B" horiz-adv-x="1430" d="M68 0v235h171v921h-171v235h635q211 0 314 -24.5t178 -119t75 -221.5q0 -203 -196 -287q250 -93 250 -333q0 -138 -77.5 -236.5t-200 -134t-343.5 -35.5h-635zM601 235h102q139 0 194 40t55 141q0 106 -59.5 148.5t-189.5 42.5h-102v-372zM601 842h102q106 0 156 36 t50 127q0 83 -48.5 117t-169.5 34h-90v-314z" />
<glyph unicode="C" horiz-adv-x="1599" d="M101 696q0 220 99 385t266.5 248.5t367.5 83.5q249 0 417 -130v108h235v-490h-235q-100 264 -347 264q-204 0 -308.5 -139t-104.5 -333q0 -203 110.5 -328.5t281.5 -125.5q140 0 245 95t142 264l274 -131q-156 -484 -687 -484q-375 0 -565.5 202t-190.5 511z" />
<glyph unicode="D" horiz-adv-x="1642" d="M48 0v235h211v921h-211v235h659q208 0 335 -25.5t243 -113t186 -234.5t70 -326q0 -145 -49 -276.5t-121.5 -212t-173.5 -128t-185.5 -61.5t-261.5 -14h-702zM620 235h87q158 0 250.5 41t148.5 144.5t56 270.5q0 159 -56.5 270t-153 153t-245.5 42h-87v-921z" />
<glyph unicode="E" horiz-adv-x="1366" d="M68 0v235h167v921h-167v235h1226v-441h-266v206h-431v-321h348v-235h-348v-365h431v208h266v-443h-1226z" />
<glyph unicode="F" horiz-adv-x="1323" d="M58 0v235h199v921h-199v235h1245v-429h-266v194h-418v-322h301v-235h-301v-364h214v-235h-775z" />
<glyph unicode="G" horiz-adv-x="1729" d="M105 698q0 216 100 381.5t269 249.5t367 84q280 0 436 -136v114h236v-494h-236q-37 125 -147 197t-236 72q-166 0 -283 -117.5t-117 -325.5q0 -238 119 -362.5t290 -124.5q126 0 209 61t115 170h-245v235h652q0 -253 -91.5 -401t-266 -233t-391.5 -85q-377 0 -578.5 202 t-201.5 513z" />
<glyph unicode="H" horiz-adv-x="1556" d="M63 0v235h174v921h-174v235h672v-235h-146v-305h379v305h-141v235h668v-235h-175v-921h175v-235h-668v235h141v380h-379v-380h146v-235h-672z" />
<glyph unicode="I" horiz-adv-x="874" d="M45 0v235h211v921h-211v235h786v-235h-213v-921h213v-235h-786z" />
<glyph unicode="J" horiz-adv-x="831" d="M-14 -151q59 -17 104 -17q83 0 119 46t36 162v1116h-207v235h758v-235h-189v-1129q0 -232 -112.5 -343.5t-299.5 -111.5q-94 0 -209 25v252z" />
<glyph unicode="K" horiz-adv-x="1599" d="M41 0v235h187v921h-187v235h725v-235h-176v-921h162v-235h-711zM601 730l454 426h-166v235h679v-235h-170l-392 -384l456 -537h144v-235h-746v235h162z" />
<glyph unicode="L" horiz-adv-x="1323" d="M57 0v235h199v921h-199v235h764v-235h-203v-921h411v430h271v-665h-1243z" />
<glyph unicode="M" horiz-adv-x="2134" d="M56 0v235h180v921h-180v235h697l306 -816l307 816h711v-235h-180v-921h180v-235h-700v235h168v921h-33l-431 -1156h-150l-436 1156h-33v-921h182v-235h-588z" />
<glyph unicode="N" horiz-adv-x="1622" d="M55 0v235h186v921h-186v235h583l513 -868v633h-181v235h624v-235h-195v-1166h-310l-600 1031v-786h175v-235h-609z" />
<glyph unicode="O" horiz-adv-x="1749" d="M101 698q0 298 205.5 506.5t567.5 208.5q360 0 566.5 -208t206.5 -507q0 -300 -207 -507.5t-566 -207.5q-373 0 -573 213.5t-200 501.5zM491 687q0 -205 110 -328t273 -123q160 0 272 120.5t112 347.5q0 203 -107 329t-277 126q-160 0 -271.5 -120t-111.5 -352z" />
<glyph unicode="P" horiz-adv-x="1366" d="M61 0v235h177v921h-177v235h733q256 0 395.5 -120t139.5 -323q0 -116 -49 -210.5t-125.5 -145t-175 -69t-246.5 -18.5h-133v-270h194v-235h-733zM600 737h54q186 0 239.5 60.5t53.5 150.5q0 76 -37 129.5t-85 66t-157 12.5h-68v-419z" />
<glyph unicode="Q" horiz-adv-x="1749" d="M101 698q0 287 199.5 501t573.5 214t573.5 -214t199.5 -501q0 -289 -191 -491.5t-508 -221.5q67 -24 133 -52q141 -60 245 -60q24 0 57 3l-85 -223q-24 -2 -36 -2q-67 0 -129 21t-198 88q-143 71 -225 71q-105 0 -204 -84l-89 139q81 96 247 117q-255 55 -409 246 t-154 449zM491 687q0 -205 110 -328t273 -123q160 0 272 120.5t112 347.5q0 203 -107 329t-277 126q-160 0 -271.5 -120t-111.5 -352z" />
<glyph unicode="R" horiz-adv-x="1493" d="M47 0v235h191v921h-191v235h839q237 0 341.5 -119.5t104.5 -270.5q0 -237 -241 -346l226 -420h180v-235h-424l-314 609h-159v-374h174v-235h-727zM600 831h124q230 0 230 164q0 81 -52.5 121t-144.5 40h-157v-325z" />
<glyph unicode="S" horiz-adv-x="1087" d="M85 1023q0 182 114 282t259 100q166 0 257 -129v115h235v-423h-235q-11 98 -67.5 151.5t-131.5 53.5q-58 0 -98 -31t-40 -81q0 -43 33 -81.5t193 -109.5q154 -69 236.5 -124.5t130.5 -144t48 -204.5q0 -206 -120 -310t-284 -104q-183 0 -282 135v-118h-236v474h236 q4 -130 68 -191.5t146 -61.5q64 0 108 44.5t44 104.5q0 64 -43 107.5t-157 99.5q-241 117 -327.5 206t-86.5 240z" />
<glyph unicode="T" horiz-adv-x="1386" d="M63 832v559h1261v-559h-236v324h-215v-921h209v-235h-780v235h209v921h-209v-324h-239z" />
<glyph unicode="U" horiz-adv-x="1386" d="M37 1156v235h664v-235h-137v-629q0 -126 10.5 -181.5t55.5 -91.5t114 -36q71 0 118 34t60.5 85t13.5 208v611h-135v235h554v-235h-170v-696q0 -142 -15 -206.5t-69 -128t-156.5 -103t-235.5 -39.5q-154 0 -262.5 43.5t-161.5 115.5t-68 143t-15 242v629h-165z" />
<glyph unicode="V" horiz-adv-x="1430" d="M-3 1156v235h710v-235h-180l234 -697l235 697h-177v235h615v-235h-169l-399 -1165h-289l-414 1165h-166z" />
<glyph unicode="W" horiz-adv-x="2028" d="M-2 1156v235h627v-235h-144l226 -668l212 668h-126v235h500v-235h-129l228 -668l219 668h-139v235h557v-235h-151l-384 -1165h-260l-219 635l-207 -635h-266l-397 1165h-147z" />
<glyph unicode="X" horiz-adv-x="1516" d="M-3 0v235h205l339 479l-339 442h-191v235h715v-222h-133l207 -259l188 259h-126v222h617v-235h-193l-330 -457l364 -464h200v-235h-738v226h139l-218 285l-207 -285h143v-226h-642z" />
<glyph unicode="Y" horiz-adv-x="1430" d="M-5 1156v235h696v-235h-137l204 -340l207 340h-143v235h613v-235h-171l-360 -545v-376h194v-235h-751v235h195v376l-377 545h-170z" />
<glyph unicode="Z" horiz-adv-x="1323" d="M102 0v235l660 921h-387v-253h-236v488h1074v-209l-679 -947h458v267h235v-502h-1125z" />
<glyph unicode="[" horiz-adv-x="854" d="M226 -416v1807h564v-208h-255v-1392h255v-207h-564z" />
<glyph unicode="\" horiz-adv-x="1040" d="M9 1415h284l739 -1432h-285z" />
<glyph unicode="]" horiz-adv-x="854" d="M64 -209h255v1392h-255v208h564v-1807h-564v207z" />
<glyph unicode="^" horiz-adv-x="1194" d="M114 592l376 799h223l366 -799h-284l-198 489l-197 -489h-286z" />
<glyph unicode="_" horiz-adv-x="1024" d="M-12 -154h1048v-102h-1048v102z" />
<glyph unicode="`" horiz-adv-x="682" d="M-33 1413h375l153 -318h-165z" />
<glyph unicode="a" horiz-adv-x="1194" d="M83 288q0 139 110 233t284 94q97 0 223 -49v59q0 74 -50 121.5t-134 47.5q-104 0 -178 -76l-249 45q108 229 469 229q140 0 232 -31.5t137 -81.5t63.5 -109.5t18.5 -193.5v-353h156v-223h-465v76q-125 -90 -264 -90q-144 0 -248.5 82t-104.5 220zM381 307q0 -53 35 -91 t90 -38q86 0 194 101v79q-112 70 -179 70q-53 0 -96.5 -31t-43.5 -90z" />
<glyph unicode="b" horiz-adv-x="1280" d="M29 0v223h168v945h-168v223h477v-532q116 133 275 133q186 0 302.5 -141t116.5 -361q0 -235 -116.5 -369.5t-294.5 -134.5q-160 0 -283 125v-111h-477zM503 478q0 -118 53.5 -185t137.5 -67q81 0 135 65t54 201q0 124 -51 187t-135 63q-80 0 -137 -62t-57 -202z" />
<glyph unicode="c" horiz-adv-x="1153" d="M78 485q0 231 147.5 364.5t343.5 133.5q157 0 293 -95v80h211v-393h-220q-75 162 -235 162q-102 0 -162.5 -67.5t-60.5 -180.5q0 -137 64 -202.5t157 -65.5q74 0 140 42.5t106 112.5l240 -106q-134 -292 -470 -292q-253 0 -403.5 138t-150.5 369z" />
<glyph unicode="d" horiz-adv-x="1280" d="M77 489q0 212 122 357.5t298 145.5q169 0 279 -131v307h-151v223h460v-1168h159v-223h-468v115q-129 -129 -280 -129q-181 0 -300 147t-119 356zM394 487q0 -109 49 -183.5t142 -74.5q77 0 135.5 60.5t58.5 196.5q0 139 -59.5 198t-135.5 59q-91 0 -140.5 -70.5 t-49.5 -185.5z" />
<glyph unicode="e" horiz-adv-x="1174" d="M78 468q0 224 148 374t377 150q166 0 287 -84t168 -209t47 -279h-721q7 -132 83.5 -187t161.5 -55q111 0 224 114l240 -77q-151 -237 -472 -237q-256 0 -399.5 135t-143.5 355zM389 592h405q-11 81 -63.5 138t-143.5 57q-170 0 -198 -195z" />
<glyph unicode="f" d="M64 0v223h140v521h-130v224h130v89q0 153 94.5 255.5t281.5 102.5q227 0 323 -136l-224 -175q-30 104 -86 104q-80 0 -80 -134v-106h152v-224h-152v-521h152v-223h-601z" />
<glyph unicode="g" horiz-adv-x="1280" d="M78 485q0 219 122 358.5t298 139.5q169 0 279 -133v118h469v-224h-160v-715q0 -479 -506 -479q-290 0 -432 105l150 205q117 -72 235 -72q103 0 173.5 53t70.5 206v74q-151 -135 -294 -135q-168 0 -286.5 140.5t-118.5 358.5zM395 484q0 -110 50.5 -179.5t138.5 -69.5 q81 0 137.5 64.5t56.5 181.5t-52 185t-142 68q-92 0 -140.5 -70t-48.5 -180z" />
<glyph unicode="h" horiz-adv-x="1280" d="M56 0v223h156v945h-156v223h464v-501q146 102 275 102q297 0 297 -357v-412h142v-223h-451v621q0 68 -24.5 93.5t-73.5 25.5q-69 0 -165 -61v-456h138v-223h-602z" />
<glyph unicode="i" d="M86 0v223h147v521h-147v224h456v-745h144v-223h-600zM222 1245q0 70 49.5 120t119.5 50q71 0 120 -50t49 -120t-49.5 -119.5t-119.5 -49.5q-69 0 -119 50t-50 119z" />
<glyph unicode="j" d="M-14 -174q31 -4 58 -4q89 0 126 19t48.5 49.5t11.5 109.5v744h-150v224h459v-937q0 -182 -33 -270t-129 -138.5t-280 -50.5q-68 0 -111 5v249zM206 1239q0 69 50 119t119 50q70 0 119.5 -49.5t49.5 -119.5t-49.5 -119.5t-119.5 -49.5q-72 0 -120.5 50.5t-48.5 118.5z" />
<glyph unicode="k" horiz-adv-x="1323" d="M70 0v223h156v945h-156v223h464v-879l333 271h-205v185h585v-196h-97l-283 -242l258 -307h134v-223h-297l-428 512v-300h117v-212h-581z" />
<glyph unicode="l" d="M75 0v223h152v945h-152v223h461v-1168h139v-223h-600z" />
<glyph unicode="m" horiz-adv-x="2028" d="M59 0v223h160v521h-160v224h469v-79q158 94 314 94q187 0 290 -133q187 133 391 133q121 0 196.5 -44.5t103.5 -119.5t28 -227v-369h160v-223h-469v567q0 152 -131 152q-103 0 -223 -66v-430h160v-223h-469v558q0 161 -126 161q-98 0 -225 -66v-430h160v-223h-629z" />
<glyph unicode="n" horiz-adv-x="1280" d="M73 0v223h148v521h-148v224h457v-90q140 105 284 105q293 0 293 -374v-386h146v-223h-455v586q0 79 -21.5 108t-70.5 29q-86 0 -176 -63v-437h149v-223h-606z" />
<glyph unicode="o" horiz-adv-x="1174" d="M78 485q0 236 147.5 371.5t361.5 135.5q215 0 362 -135.5t147 -371.5q0 -233 -145.5 -370t-363.5 -137q-214 0 -361.5 135.5t-147.5 371.5zM395 478q0 -113 47.5 -186.5t143.5 -73.5q86 0 139.5 66t53.5 207q0 124 -52 193.5t-141 69.5q-191 0 -191 -276z" />
<glyph unicode="p" horiz-adv-x="1280" d="M33 -214h163v958h-136v224h445v-121q129 136 288 136q192 0 302.5 -152.5t110.5 -355.5q0 -215 -114 -356t-304 -141q-155 0 -283 121v-313h194v-223h-666v223zM502 477q0 -115 54 -185t144 -70q83 0 136 63t53 196q0 127 -52.5 190t-138.5 63q-87 0 -141.5 -64.5 t-54.5 -192.5z" />
<glyph unicode="q" horiz-adv-x="1280" d="M74 479q0 203 112 353.5t299 150.5q157 0 286 -136v121h476v-224h-167v-958h167v-223h-666v223h190v313q-125 -121 -282 -121q-199 0 -307 150t-108 351zM391 486q0 -126 50 -196t138 -70q79 0 136.5 64.5t57.5 203.5q0 118 -53 182t-138 64q-86 0 -138.5 -63.5 t-52.5 -184.5z" />
<glyph unicode="r" horiz-adv-x="918" d="M55 0v223h179v521h-168v224h451v-246q26 106 118.5 183.5t218.5 77.5q21 0 50 -1v-292q-117 0 -191 -26t-122 -114t-48 -208v-119h193v-223h-681z" />
<glyph unicode="s" horiz-adv-x="1044" d="M82 698q0 120 98 202.5t260 82.5q131 0 245 -48v33h221v-281h-221q-30 101 -212 101q-134 0 -134 -74q0 -28 27.5 -42.5t140.5 -34.5q179 -31 268 -62t142.5 -102.5t53.5 -171.5q0 -142 -101.5 -232.5t-287.5 -90.5q-173 0 -237 70v-48h-226v333h226q3 -68 63 -108.5 t148 -40.5q76 0 118.5 26.5t42.5 67.5q0 38 -39 59t-153 40q-235 38 -339 115.5t-104 205.5z" />
<glyph unicode="t" horiz-adv-x="705" d="M39 744v224h123v152l309 222v-374h178v-224h-178v-419q0 -57 14.5 -76.5t66.5 -19.5q43 0 97 20v-214q-119 -49 -233 -49q-254 0 -254 252v506h-123z" />
<glyph unicode="u" horiz-adv-x="1280" d="M39 744v224h453v-603q0 -72 22 -98.5t80 -26.5q78 0 171 69v435h-149v224h458v-745h156v-223h-465v82q-139 -96 -282 -96q-140 0 -219.5 78.5t-79.5 221.5v458h-145z" />
<glyph unicode="v" horiz-adv-x="1174" d="M-4 744v224h587v-224h-120l151 -440l178 440h-127v224h513v-224h-138l-314 -758h-263l-327 758h-140z" />
<glyph unicode="w" horiz-adv-x="1665" d="M1 744v224h527v-224h-106l119 -360l198 584h256l192 -584l119 360h-109v224h468v-224h-121l-251 -758h-268l-190 569l-187 -569h-270l-254 758h-123z" />
<glyph unicode="x" horiz-adv-x="1153" d="M46 0v223h140l209 250l-209 271h-140v224h372l174 -265l191 265h292v-224h-130l-196 -232l228 -289h130v-223h-371l-188 272l-202 -272h-300z" />
<glyph unicode="y" horiz-adv-x="1217" d="M11 744v224h580v-224h-114l161 -435l172 435h-126v224h509v-224h-138l-464 -1181h-338v223h186l64 173l-352 785h-140z" />
<glyph unicode="z" horiz-adv-x="1087" d="M72 0v203l569 569h-311v-150h-211v346h892v-203l-569 -570h365v166h204v-361h-939z" />
<glyph unicode="{" horiz-adv-x="788" d="M59 364v228q93 5 139 39.5t63 101t17 223.5q0 214 34.5 281t112.5 110.5t265 43.5h53v-228q-132 0 -168 -25t-36 -112q0 -278 -37 -378.5t-151 -169.5q96 -50 141.5 -146t45.5 -401q0 -84 39.5 -111t164.5 -27v-227h-52q-174 0 -262.5 42t-119 123.5t-30.5 277.5 q0 151 -17.5 216.5t-63 99.5t-138.5 39z" />
<glyph unicode="|" horiz-adv-x="1251" d="M501 -450v1865h249v-1865h-249z" />
<glyph unicode="}" horiz-adv-x="788" d="M45 -207q132 0 168 25.5t36 112.5q0 261 33.5 369.5t154.5 178.5q-95 49 -141 145.5t-46 401.5q0 84 -39.5 110.5t-164.5 26.5v228h53q173 0 262 -42.5t119 -123.5t30 -278q0 -150 17.5 -215.5t63 -100t138.5 -39.5v-228q-93 -4 -139 -38.5t-63 -101t-17 -223.5 q0 -198 -34 -277t-125 -118.5t-253 -39.5h-53v227z" />
<glyph unicode="~" horiz-adv-x="1194" d="M35 505v255q164 142 328 142q98 0 270 -85q153 -76 229 -76q135 0 297 152v-256q-162 -142 -319 -142q-70 0 -135 25t-159 71q-133 65 -202 65q-150 0 -309 -151z" />
<glyph unicode="&#xa1;" d="M195 647v335h335v-335h-335zM214 -28l79 525h144l86 -525v-381h-309v381z" />
<glyph unicode="&#xa2;" horiz-adv-x="1153" d="M63 489q0 226 147 368t354 142q57 0 115 -14l162 438h129l-173 -487q37 -21 61 -39l25 -18v106h181v-397h-211q-54 96 -137 130l-170 -477q24 -8 56 -8q166 0 251 153l238 -105q-39 -111 -162.5 -202t-315.5 -91q-85 0 -152 16l-153 -441h-134l173 480q-284 135 -284 446 zM380 489q0 -110 62 -171l150 424q-99 -8 -155.5 -77.5t-56.5 -175.5z" />
<glyph unicode="&#xa3;" horiz-adv-x="1174" d="M100 218q0 99 63.5 165.5t157.5 66.5q66 0 153 -43q0 76 -37 181h-304v204h200q-97 191 -97 301q0 147 120.5 234.5t304.5 87.5q169 0 271.5 -89.5t117.5 -265.5l-242 -30q-4 190 -153 190q-63 0 -101.5 -33.5t-38.5 -77.5q0 -62 73 -203q40 -79 56 -114h258v-204h-213 q4 -67 4 -95q0 -107 -26 -180q86 -37 154 -37q126 0 142 172l142 -28q1 -23 1 -39q0 -183 -75.5 -291t-210.5 -108q-139 0 -264 109q-101 -109 -223 -109q-102 0 -167.5 65.5t-65.5 170.5zM231 218q0 -40 28 -66t61 -26q80 0 117 88q-71 86 -131 86q-32 0 -53.5 -23.5 t-21.5 -58.5z" />
<glyph unicode="&#xa4;" horiz-adv-x="1368" d="M146 322l132 132q-68 113 -68 245q0 128 68 244l-132 132l162 162l132 -132q116 68 244 68q129 0 245 -68l131 132l163 -162l-132 -132q67 -116 67 -244q0 -129 -67 -245l132 -132l-163 -162l-131 132q-116 -67 -244 -67q-132 0 -245 67l-132 -132zM437 699 q0 -103 72.5 -175.5t174.5 -72.5t175 72.5t73 175.5q0 106 -74 176.5t-174 70.5t-173.5 -70.5t-73.5 -176.5z" />
<glyph unicode="&#xa5;" horiz-adv-x="1430" d="M-5 1156v235h696v-235h-137l204 -340l207 340h-143v235h613v-235h-171l-225 -340h354v-142h-447l-42 -63v-117h489v-141h-489v-118h194v-235h-751v235h195v118h-505v141h505v117l-44 63h-461v142h363l-235 340h-170z" />
<glyph unicode="&#xa6;" horiz-adv-x="1251" d="M501 331h249v-781h-249v781zM501 635v780h249v-780h-249z" />
<glyph unicode="&#xa7;" horiz-adv-x="1067" d="M49 472q0 197 208 304q-163 115 -163 284t121.5 262t308.5 93q213 0 323.5 -108t110.5 -265h-263q-9 164 -179 164q-71 0 -107 -33t-36 -73q0 -59 48 -100.5t212 -109.5q202 -84 293.5 -173t91.5 -205q0 -180 -203 -310q156 -96 156 -278q0 -154 -117.5 -256.5 t-308.5 -102.5q-194 0 -311.5 109.5t-122.5 273.5h263q2 -82 53 -127t120 -45q72 0 108.5 37.5t36.5 81.5q0 55 -47 92.5t-205 104.5q-219 92 -305 180t-86 200zM302 549q0 -50 37 -88.5t138 -84.5l194 -88q96 73 96 158q0 86 -158 156l-214 94q-93 -62 -93 -147z" />
<glyph unicode="&#xa8;" horiz-adv-x="682" d="M-31 1249q0 59 42.5 101.5t102.5 42.5q59 0 102 -42t43 -102t-43 -102.5t-102 -42.5q-60 0 -102.5 42.5t-42.5 102.5zM424 1249q0 59 42.5 101.5t102.5 42.5q59 0 101.5 -42.5t42.5 -101.5q0 -60 -42.5 -102.5t-101.5 -42.5q-60 0 -102.5 42t-42.5 103z" />
<glyph unicode="&#xa9;" horiz-adv-x="1516" d="M-8 647q0 317 224 541.5t542 224.5q315 0 540.5 -225t225.5 -541q0 -317 -225.5 -541.5t-540.5 -224.5q-317 0 -541.5 224t-224.5 542zM143 647q0 -254 181 -435t434 -181t434 180.5t181 435.5q0 254 -181 434.5t-434 180.5q-254 0 -434.5 -181t-180.5 -434zM382 640 q0 198 104 314.5t285 116.5q249 0 334 -243l-162 -38q-50 139 -178 139q-99 0 -153 -74.5t-54 -208.5q0 -138 53.5 -211t144.5 -73q138 0 188 171l161 -54q-35 -122 -123.5 -191t-213.5 -69q-168 0 -277 111t-109 310z" />
<glyph unicode="&#xaa;" horiz-adv-x="811" d="M73 989q0 84 71.5 140.5t184.5 56.5q63 0 145 -29v35q0 42 -31.5 71.5t-88.5 29.5q-67 0 -115 -45l-162 26q69 139 308 139q163 0 226.5 -60.5t63.5 -146.5v-255h101v-134h-302v45q-81 -54 -172 -54q-87 0 -158 47.5t-71 133.5zM267 1001q0 -31 22.5 -54t59.5 -23 q55 0 125 60v47q-75 43 -116 43q-35 0 -63 -18.5t-28 -54.5z" />
<glyph unicode="&#xab;" horiz-adv-x="1110" d="M12 484l231 484h296l-225 -484l225 -484h-296zM573 484l232 484h295l-225 -484l225 -484h-295z" />
<glyph unicode="&#xac;" horiz-adv-x="1368" d="M122 816v248h1124v-731h-248v483h-876z" />
<glyph unicode="&#xad;" horiz-adv-x="705" d="M73 349v270h559v-270h-559z" />
<glyph unicode="&#xae;" horiz-adv-x="1516" d="M-8 647q0 317 224 541.5t542 224.5q315 0 540.5 -225t225.5 -541q0 -317 -225.5 -541.5t-540.5 -224.5q-317 0 -541.5 224t-224.5 542zM143 647q0 -254 181 -435t434 -181t434 180.5t181 435.5q0 254 -181 434.5t-434 180.5q-254 0 -434.5 -181t-180.5 -434zM429 237v813 h289q148 0 210.5 -13t110.5 -72.5t48 -145.5q0 -87 -58.5 -150t-160.5 -76q52 -20 80.5 -51.5t92.5 -141.5l96 -163h-204l-68 131q-65 125 -112 164t-128 39h-31v-334h-165zM594 700h67q118 0 157 5.5t67 34.5t28 72q0 42 -29.5 71t-71.5 33.5t-152 4.5h-66v-221z" />
<glyph unicode="&#xaf;" horiz-adv-x="1024" d="M-12 1545v102h1048v-102h-1048z" />
<glyph unicode="&#xb0;" horiz-adv-x="811" d="M60 1069q0 148 103 247t243 99t243 -99t103 -247q0 -142 -101.5 -244t-244.5 -102q-144 0 -245 101.5t-101 244.5zM191 1069q0 -88 63 -151t152 -63t152 63t63 151q0 89 -63.5 152t-151.5 63t-151.5 -63t-63.5 -152z" />
<glyph unicode="&#xb1;" horiz-adv-x="1368" d="M122 -48v248h1124v-248h-1124zM122 759v248h438v438h248v-438h438v-248h-438v-438h-248v438h-438z" />
<glyph unicode="&#xb2;" horiz-adv-x="682" d="M50 730q0 61 35.5 137.5t158.5 173.5q91 73 119 106.5t28 75.5q0 68 -67 68q-80 0 -86 -149l-176 7q2 88 26 142t90.5 89t160.5 35q122 0 192.5 -58.5t70.5 -143.5q0 -69 -39.5 -114.5t-150.5 -114.5q-107 -66 -135.5 -104t-38.5 -72h214v91h156l-7 -219h-549 q-2 29 -2 50z" />
<glyph unicode="&#xb3;" horiz-adv-x="682" d="M46 909l183 13q1 -126 96 -126q41 0 68.5 27.5t27.5 73.5q0 99 -106 99q-15 0 -48 -2v133q134 0 134 87q0 73 -75 73q-76 0 -76 -94l-178 12q3 102 76.5 156t191.5 54q123 0 193 -53.5t70 -139.5q0 -109 -114 -160q144 -47 144 -172q0 -94 -77.5 -156.5t-216.5 -62.5 q-270 0 -293 238z" />
<glyph unicode="&#xb4;" horiz-adv-x="682" d="M187 1095l152 318h376l-364 -318h-164z" />
<glyph unicode="&#xb5;" horiz-adv-x="1260" d="M150 -434v1402h279v-387q0 -208 47.5 -294t150.5 -86q69 0 121.5 47.5t68 118t15.5 211.5v390h284v-968h-262v128q-80 -154 -219 -154q-66 0 -113.5 35t-92.5 119v-562h-279z" />
<glyph unicode="&#xb6;" horiz-adv-x="1130" d="M-1 974q0 114 44.5 204t117 137t142 61.5t230.5 14.5h597v-261h-113v-1564h-240v1564h-144v-1564h-240v1003q-193 13 -293.5 124t-100.5 281z" />
<glyph unicode="&#xb8;" horiz-adv-x="682" d="M37 -355q138 3 170.5 18.5t32.5 47.5q0 67 -120 71l56 241h170l-27 -106q171 -49 171 -180q0 -85 -75.5 -140t-302.5 -55q-34 0 -75 2v101z" />
<glyph unicode="&#xb9;" horiz-adv-x="682" d="M129 1276v127h325v-596h108v-127h-426v127h114v469h-121z" />
<glyph unicode="&#xba;" horiz-adv-x="768" d="M53 1109q0 140 95 222t236 82q140 0 235.5 -81.5t95.5 -222.5q0 -135 -92 -219.5t-239 -84.5t-239 84.5t-92 219.5zM259 1109q0 -161 124 -161q126 0 126 162q0 160 -126 160q-124 0 -124 -161z" />
<glyph unicode="&#xbb;" horiz-adv-x="1110" d="M11 0l225 484l-225 484h295l232 -484l-232 -484h-295zM570 0l225 484l-225 484h295l232 -484l-232 -484h-295z" />
<glyph unicode="&#xbc;" horiz-adv-x="1898" d="M185 1276v127h325v-596h108v-127h-426v127h114v469h-121zM324 0l1007 1391h179l-1007 -1391h-179zM1088 293l358 442h182v-430h79v-110h-79v-78h69v-117h-354v117h91v78h-299q-23 61 -47 98zM1260 305h174v211z" />
<glyph unicode="&#xbd;" horiz-adv-x="1898" d="M187 1276v127h325v-596h108v-127h-426v127h114v469h-121zM326 0l1007 1391h179l-1007 -1391h-179zM1139 50q0 88 48.5 161t144.5 150q92 72 119.5 105.5t27.5 75.5q0 69 -66 69q-82 0 -86 -150l-176 8q2 88 26 142t90.5 89t159.5 35q123 0 193.5 -58.5t70.5 -144.5 q0 -68 -39.5 -113.5t-150.5 -114.5q-107 -67 -136 -104.5t-38 -72.5h214v92h156l-8 -219h-549q-1 29 -1 50z" />
<glyph unicode="&#xbe;" horiz-adv-x="1898" d="M113 909l183 13q1 -126 96 -126q41 0 68.5 27.5t27.5 73.5q0 99 -106 99q-15 0 -48 -2v133q134 0 134 87q0 73 -75 73q-76 0 -76 -94l-178 12q3 102 76.5 156t191.5 54q123 0 193 -53.5t70 -139.5q0 -109 -114 -160q144 -47 144 -172q0 -94 -77.5 -156.5t-216.5 -62.5 q-270 0 -293 238zM323 0l1007 1391h179l-1007 -1391h-179zM1087 293l358 442h181v-430h80v-110h-80v-78h70v-117h-354v117h91v78h-299q-23 61 -47 98zM1259 305h174v211z" />
<glyph unicode="&#xbf;" horiz-adv-x="1153" d="M92 -25q0 172 111.5 277t275.5 105q15 0 46 -2l32 146h144l28 -368q-50 18 -104 18q-88 0 -151 -48t-63 -137q0 -80 52.5 -132t136.5 -52q89 0 133 47t44 119q0 19 -4 42h308q0 -209 -142.5 -316t-357.5 -107q-240 0 -364.5 116.5t-124.5 291.5zM463 647v335h335v-335 h-335z" />
<glyph unicode="&#xc0;" horiz-adv-x="1430" d="M-5 0v235h172l271 921h-185v235h908v-235h-187l292 -921h166v-235h-684v235h178l-66 239h-361l-74 -239h186v-235h-616zM285 1842h375l153 -318h-165zM562 678h241l-116 419z" />
<glyph unicode="&#xc1;" horiz-adv-x="1430" d="M-5 0v235h172l271 921h-185v235h908v-235h-187l292 -921h166v-235h-684v235h178l-66 239h-361l-74 -239h186v-235h-616zM562 678h241l-116 419zM614 1524l152 318h376l-364 -318h-164z" />
<glyph unicode="&#xc2;" horiz-adv-x="1430" d="M-5 0v235h172l271 921h-185v235h908v-235h-187l292 -921h166v-235h-684v235h178l-66 239h-361l-74 -239h186v-235h-616zM321 1490l243 368h300l243 -368h-175l-218 218l-218 -218h-175zM562 678h241l-116 419z" />
<glyph unicode="&#xc3;" horiz-adv-x="1430" d="M-5 0v235h172l271 921h-185v235h908v-235h-187l292 -921h166v-235h-684v235h178l-66 239h-361l-74 -239h186v-235h-616zM323 1541q0 151 69 236t159 85q61 0 153 -47q135 -70 172 -70q33 0 59 32.5t28 80.5h142v-24q0 -118 -63 -209t-169 -91q-39 0 -69.5 11.5 t-112.5 52.5q-100 51 -137 51q-77 0 -81 -108h-150zM562 678h241l-116 419z" />
<glyph unicode="&#xc4;" horiz-adv-x="1430" d="M-5 0v235h172l271 921h-185v235h908v-235h-187l292 -921h166v-235h-684v235h178l-66 239h-361l-74 -239h186v-235h-616zM335 1651q0 59 42.5 101.5t102.5 42.5q59 0 102 -42t43 -102t-43 -102.5t-102 -42.5q-60 0 -102.5 42.5t-42.5 102.5zM562 678h241l-116 419z M790 1651q0 59 42.5 101.5t102.5 42.5q59 0 101.5 -42.5t42.5 -101.5q0 -60 -42.5 -102.5t-101.5 -42.5q-60 0 -102.5 42t-42.5 103z" />
<glyph unicode="&#xc5;" horiz-adv-x="1430" d="M-5 0v235h172l271 921h-185v235h369q-84 30 -135 102.5t-51 159.5q0 114 81.5 195.5t196.5 81.5q114 0 195.5 -81.5t81.5 -195.5q0 -86 -50 -158t-138 -104h358v-235h-187l292 -921h166v-235h-684v235h178l-66 239h-361l-74 -239h186v-235h-616zM557 1653q0 -65 46 -111 t111 -46q64 0 110 46t46 111q0 63 -45 110t-111 47q-65 0 -111 -46.5t-46 -110.5zM562 678h241l-116 419z" />
<glyph unicode="&#xc6;" horiz-adv-x="2028" d="M-5 0v235h146l399 921h-208v235h1623v-440h-266v205h-417v-318h337v-236h-337v-367h417v212h266v-447h-1203v235h158v367h-335l-163 -367h163v-235h-580zM662 806h248v372h-91z" />
<glyph unicode="&#xc7;" horiz-adv-x="1599" d="M101 696q0 323 206.5 520t526.5 197q254 0 417 -130v108h235v-490h-235q-100 264 -347 264q-204 0 -308.5 -139t-104.5 -333q0 -203 110.5 -328.5t281.5 -125.5q140 0 245 95t142 264l274 -131q-133 -443 -620 -481l-10 -55q85 -12 134.5 -64.5t49.5 -118.5 q0 -83 -76 -143.5t-312 -60.5q-38 0 -94 2v102q211 0 211 81q0 62 -120 70l37 190q-307 25 -475 223t-168 484z" />
<glyph unicode="&#xc8;" horiz-adv-x="1366" d="M68 0v235h167v921h-167v235h1226v-441h-266v206h-431v-321h348v-235h-348v-365h431v208h266v-443h-1226zM324 1842h375l153 -318h-165z" />
<glyph unicode="&#xc9;" horiz-adv-x="1366" d="M68 0v235h167v921h-167v235h1226v-441h-266v206h-431v-321h348v-235h-348v-365h431v208h266v-443h-1226zM533 1524l152 318h376l-364 -318h-164z" />
<glyph unicode="&#xca;" horiz-adv-x="1366" d="M68 0v235h167v921h-167v235h1226v-441h-266v206h-431v-321h348v-235h-348v-365h431v208h266v-443h-1226zM288 1490l243 368h300l243 -368h-175l-218 218l-218 -218h-175z" />
<glyph unicode="&#xcb;" horiz-adv-x="1366" d="M68 0v235h167v921h-167v235h1226v-441h-266v206h-431v-321h348v-235h-348v-365h431v208h266v-443h-1226zM309 1651q0 59 42.5 101.5t102.5 42.5q59 0 102 -42t43 -102t-43 -102.5t-102 -42.5q-60 0 -102.5 42.5t-42.5 102.5zM764 1651q0 59 42.5 101.5t102.5 42.5 q59 0 101.5 -42.5t42.5 -101.5q0 -60 -42.5 -102.5t-101.5 -42.5q-60 0 -102.5 42t-42.5 103z" />
<glyph unicode="&#xcc;" horiz-adv-x="874" d="M22 1842h375l153 -318h-165zM45 0v235h211v921h-211v235h786v-235h-213v-921h213v-235h-786z" />
<glyph unicode="&#xcd;" horiz-adv-x="874" d="M45 0v235h211v921h-211v235h786v-235h-213v-921h213v-235h-786zM339 1524l152 318h376l-364 -318h-164z" />
<glyph unicode="&#xce;" horiz-adv-x="874" d="M38 1490l243 368h300l243 -368h-175l-218 218l-218 -218h-175zM45 0v235h211v921h-211v235h786v-235h-213v-921h213v-235h-786z" />
<glyph unicode="&#xcf;" horiz-adv-x="874" d="M45 0v235h211v921h-211v235h786v-235h-213v-921h213v-235h-786zM57 1651q0 59 42.5 101.5t102.5 42.5q59 0 102 -42t43 -102t-43 -102.5t-102 -42.5q-60 0 -102.5 42.5t-42.5 102.5zM512 1651q0 59 42.5 101.5t102.5 42.5q59 0 101.5 -42.5t42.5 -101.5 q0 -60 -42.5 -102.5t-101.5 -42.5q-60 0 -102.5 42t-42.5 103z" />
<glyph unicode="&#xd0;" horiz-adv-x="1642" d="M48 0v235h211v367h-211v187h211v367h-211v235h659q208 0 335 -25.5t243 -113t186 -234.5t70 -326q0 -145 -49 -276.5t-121.5 -212t-173.5 -128t-185.5 -61.5t-261.5 -14h-702zM620 235h87q158 0 250.5 41t148.5 144.5t56 270.5q0 159 -56.5 270t-153 153t-245.5 42h-87 v-367h258v-187h-258v-367z" />
<glyph unicode="&#xd1;" horiz-adv-x="1622" d="M55 0v235h186v921h-186v235h583l513 -868v633h-181v235h624v-235h-195v-1166h-310l-600 1031v-786h175v-235h-609zM434 1541q0 151 69 236t159 85q61 0 153 -47q135 -70 172 -70q33 0 59 32.5t28 80.5h142v-24q0 -118 -63 -209t-169 -91q-39 0 -69.5 11.5t-112.5 52.5 q-100 51 -137 51q-77 0 -81 -108h-150z" />
<glyph unicode="&#xd2;" horiz-adv-x="1749" d="M101 698q0 298 205.5 506.5t567.5 208.5q360 0 566.5 -208t206.5 -507q0 -300 -207 -507.5t-566 -207.5q-373 0 -573 213.5t-200 501.5zM445 1842h375l153 -318h-165zM491 687q0 -205 110 -328t273 -123q160 0 272 120.5t112 347.5q0 203 -107 329t-277 126 q-160 0 -271.5 -120t-111.5 -352z" />
<glyph unicode="&#xd3;" horiz-adv-x="1749" d="M101 698q0 298 205.5 506.5t567.5 208.5q360 0 566.5 -208t206.5 -507q0 -300 -207 -507.5t-566 -207.5q-373 0 -573 213.5t-200 501.5zM491 687q0 -205 110 -328t273 -123q160 0 272 120.5t112 347.5q0 203 -107 329t-277 126q-160 0 -271.5 -120t-111.5 -352zM775 1524 l152 318h376l-364 -318h-164z" />
<glyph unicode="&#xd4;" horiz-adv-x="1749" d="M101 698q0 298 205.5 506.5t567.5 208.5q360 0 566.5 -208t206.5 -507q0 -300 -207 -507.5t-566 -207.5q-373 0 -573 213.5t-200 501.5zM481 1490l243 368h300l243 -368h-175l-218 218l-218 -218h-175zM491 687q0 -205 110 -328t273 -123q160 0 272 120.5t112 347.5 q0 203 -107 329t-277 126q-160 0 -271.5 -120t-111.5 -352z" />
<glyph unicode="&#xd5;" horiz-adv-x="1749" d="M101 698q0 298 205.5 506.5t567.5 208.5q360 0 566.5 -208t206.5 -507q0 -300 -207 -507.5t-566 -207.5q-373 0 -573 213.5t-200 501.5zM483 1541q0 151 69 236t159 85q61 0 153 -47q135 -70 172 -70q33 0 59 32.5t28 80.5h142v-24q0 -118 -63 -209t-169 -91 q-39 0 -69.5 11.5t-112.5 52.5q-100 51 -137 51q-77 0 -81 -108h-150zM491 687q0 -205 110 -328t273 -123q160 0 272 120.5t112 347.5q0 203 -107 329t-277 126q-160 0 -271.5 -120t-111.5 -352z" />
<glyph unicode="&#xd6;" horiz-adv-x="1749" d="M101 698q0 298 205.5 506.5t567.5 208.5q360 0 566.5 -208t206.5 -507q0 -300 -207 -507.5t-566 -207.5q-373 0 -573 213.5t-200 501.5zM491 687q0 -205 110 -328t273 -123q160 0 272 120.5t112 347.5q0 203 -107 329t-277 126q-160 0 -271.5 -120t-111.5 -352zM503 1651 q0 59 42.5 101.5t102.5 42.5q59 0 102 -42t43 -102t-43 -102.5t-102 -42.5q-60 0 -102.5 42.5t-42.5 102.5zM958 1651q0 59 42.5 101.5t102.5 42.5q59 0 101.5 -42.5t42.5 -101.5q0 -60 -42.5 -102.5t-101.5 -42.5q-60 0 -102.5 42t-42.5 103z" />
<glyph unicode="&#xd7;" horiz-adv-x="1368" d="M149 339l359 360l-359 359l176 175l359 -359l359 359l176 -175l-359 -359l359 -360l-176 -175l-359 359l-359 -359z" />
<glyph unicode="&#xd8;" horiz-adv-x="1749" d="M101 699q0 299 207 506.5t566 207.5q263 0 439 -109l121 138l112 -86l-120 -137q221 -209 221 -521q0 -300 -207 -507.5t-566 -207.5q-262 0 -437 107l-136 -155l-116 77l141 161q-225 207 -225 526zM491 701q0 -159 59 -271l561 643q-101 86 -237 86q-163 0 -273 -122 t-110 -336zM639 321q104 -85 235 -85q160 0 272 121t112 344q0 152 -57 261z" />
<glyph unicode="&#xd9;" horiz-adv-x="1386" d="M37 1156v235h664v-235h-137v-629q0 -126 10.5 -181.5t55.5 -91.5t114 -36q71 0 118 34t60.5 85t13.5 208v611h-135v235h554v-235h-170v-696q0 -142 -15 -206.5t-69 -128t-156.5 -103t-235.5 -39.5q-154 0 -262.5 43.5t-161.5 115.5t-68 143t-15 242v629h-165zM303 1842 h375l153 -318h-165z" />
<glyph unicode="&#xda;" horiz-adv-x="1386" d="M37 1156v235h664v-235h-137v-629q0 -126 10.5 -181.5t55.5 -91.5t114 -36q71 0 118 34t60.5 85t13.5 208v611h-135v235h554v-235h-170v-696q0 -142 -15 -206.5t-69 -128t-156.5 -103t-235.5 -39.5q-154 0 -262.5 43.5t-161.5 115.5t-68 143t-15 242v629h-165zM597 1524 l152 318h376l-364 -318h-164z" />
<glyph unicode="&#xdb;" horiz-adv-x="1386" d="M37 1156v235h664v-235h-137v-629q0 -126 10.5 -181.5t55.5 -91.5t114 -36q71 0 118 34t60.5 85t13.5 208v611h-135v235h554v-235h-170v-696q0 -142 -15 -206.5t-69 -128t-156.5 -103t-235.5 -39.5q-154 0 -262.5 43.5t-161.5 115.5t-68 143t-15 242v629h-165zM303 1490 l243 368h300l243 -368h-175l-218 218l-218 -218h-175z" />
<glyph unicode="&#xdc;" horiz-adv-x="1386" d="M37 1156v235h664v-235h-137v-629q0 -126 10.5 -181.5t55.5 -91.5t114 -36q71 0 118 34t60.5 85t13.5 208v611h-135v235h554v-235h-170v-696q0 -142 -15 -206.5t-69 -128t-156.5 -103t-235.5 -39.5q-154 0 -262.5 43.5t-161.5 115.5t-68 143t-15 242v629h-165zM324 1651 q0 59 42.5 101.5t102.5 42.5q59 0 102 -42t43 -102t-43 -102.5t-102 -42.5q-60 0 -102.5 42.5t-42.5 102.5zM779 1651q0 59 42.5 101.5t102.5 42.5q59 0 101.5 -42.5t42.5 -101.5q0 -60 -42.5 -102.5t-101.5 -42.5q-60 0 -102.5 42t-42.5 103z" />
<glyph unicode="&#xdd;" horiz-adv-x="1430" d="M-5 1156v235h696v-235h-137l204 -340l207 340h-143v235h613v-235h-171l-360 -545v-376h194v-235h-751v235h195v376l-377 545h-170zM616 1524l152 318h376l-364 -318h-164z" />
<glyph unicode="&#xde;" horiz-adv-x="1366" d="M61 0v235h177v921h-177v235h733v-235h-194v-76h194q272 0 403.5 -112.5t131.5 -272.5q0 -147 -119.5 -265.5t-476.5 -118.5h-133v-76h194v-235h-733zM600 532h54q180 0 235.5 46.5t55.5 118.5q0 58 -36.5 100t-85.5 52t-155 10h-68v-327z" />
<glyph unicode="&#xdf;" horiz-adv-x="1323" d="M48 0v223h161v701q0 170 40.5 265.5t156.5 160.5t274 65q235 0 355.5 -95.5t120.5 -240.5q0 -198 -214 -287q279 -87 279 -385q0 -181 -96 -301t-284 -120q-77 0 -151 30v207q31 -13 61 -13q159 0 159 200q0 251 -220 256v225q64 0 110.5 42.5t46.5 108.5q0 76 -49.5 118 t-112.5 42t-104.5 -36.5t-52.5 -94t-11 -180.5v-668h74v-223h-543z" />
<glyph unicode="&#xe0;" horiz-adv-x="1194" d="M83 288q0 139 110 233t284 94q97 0 223 -49v59q0 74 -50 121.5t-134 47.5q-104 0 -178 -76l-249 45q108 229 469 229q140 0 232 -31.5t137 -81.5t63.5 -109.5t18.5 -193.5v-353h156v-223h-465v76q-125 -90 -264 -90q-144 0 -248.5 82t-104.5 220zM217 1413h375l153 -318 h-165zM381 307q0 -53 35 -91t90 -38q86 0 194 101v79q-112 70 -179 70q-53 0 -96.5 -31t-43.5 -90z" />
<glyph unicode="&#xe1;" horiz-adv-x="1194" d="M83 288q0 139 110 233t284 94q97 0 223 -49v59q0 74 -50 121.5t-134 47.5q-104 0 -178 -76l-249 45q108 229 469 229q140 0 232 -31.5t137 -81.5t63.5 -109.5t18.5 -193.5v-353h156v-223h-465v76q-125 -90 -264 -90q-144 0 -248.5 82t-104.5 220zM381 307q0 -53 35 -91 t90 -38q86 0 194 101v79q-112 70 -179 70q-53 0 -96.5 -31t-43.5 -90zM452 1095l152 318h376l-364 -318h-164z" />
<glyph unicode="&#xe2;" horiz-adv-x="1194" d="M83 288q0 139 110 233t284 94q97 0 223 -49v59q0 74 -50 121.5t-134 47.5q-104 0 -178 -76l-249 45q108 229 469 229q140 0 232 -31.5t137 -81.5t63.5 -109.5t18.5 -193.5v-353h156v-223h-465v76q-125 -90 -264 -90q-144 0 -248.5 82t-104.5 220zM165 1069l243 368h300 l243 -368h-175l-218 218l-218 -218h-175zM381 307q0 -53 35 -91t90 -38q86 0 194 101v79q-112 70 -179 70q-53 0 -96.5 -31t-43.5 -90z" />
<glyph unicode="&#xe3;" horiz-adv-x="1194" d="M83 288q0 139 110 233t284 94q97 0 223 -49v59q0 74 -50 121.5t-134 47.5q-104 0 -178 -76l-249 45q108 229 469 229q140 0 232 -31.5t137 -81.5t63.5 -109.5t18.5 -193.5v-353h156v-223h-465v76q-125 -90 -264 -90q-144 0 -248.5 82t-104.5 220zM179 1087q0 151 69 236 t159 85q61 0 153 -47q135 -70 172 -70q33 0 59 32.5t28 80.5h142v-24q0 -118 -63 -209t-169 -91q-39 0 -69.5 11.5t-112.5 52.5q-100 51 -137 51q-77 0 -81 -108h-150zM381 307q0 -53 35 -91t90 -38q86 0 194 101v79q-112 70 -179 70q-53 0 -96.5 -31t-43.5 -90z" />
<glyph unicode="&#xe4;" horiz-adv-x="1194" d="M83 288q0 139 110 233t284 94q97 0 223 -49v59q0 74 -50 121.5t-134 47.5q-104 0 -178 -76l-249 45q108 229 469 229q140 0 232 -31.5t137 -81.5t63.5 -109.5t18.5 -193.5v-353h156v-223h-465v76q-125 -90 -264 -90q-144 0 -248.5 82t-104.5 220zM186 1249 q0 59 42.5 101.5t102.5 42.5q59 0 102 -42t43 -102t-43 -102.5t-102 -42.5q-60 0 -102.5 42.5t-42.5 102.5zM381 307q0 -53 35 -91t90 -38q86 0 194 101v79q-112 70 -179 70q-53 0 -96.5 -31t-43.5 -90zM641 1249q0 59 42.5 101.5t102.5 42.5q59 0 101.5 -42.5t42.5 -101.5 q0 -60 -42.5 -102.5t-101.5 -42.5q-60 0 -102.5 42t-42.5 103z" />
<glyph unicode="&#xe5;" horiz-adv-x="1194" d="M83 288q0 139 110 233t284 94q97 0 223 -49v59q0 74 -50 121.5t-134 47.5q-104 0 -178 -76l-249 45q108 229 469 229q140 0 232 -31.5t137 -81.5t63.5 -109.5t18.5 -193.5v-353h156v-223h-465v76q-125 -90 -264 -90q-144 0 -248.5 82t-104.5 220zM381 307q0 -53 35 -91 t90 -38q86 0 194 101v79q-112 70 -179 70q-53 0 -96.5 -31t-43.5 -90zM383 1267q0 87 61.5 149t149.5 62q87 0 149 -62t62 -149q0 -85 -60.5 -148t-150.5 -63q-87 0 -149 61.5t-62 149.5zM486 1267q0 -45 31.5 -77t76.5 -32t77 32t32 77q0 43 -31 75.5t-78 32.5 q-45 0 -76.5 -32t-31.5 -76z" />
<glyph unicode="&#xe6;" horiz-adv-x="1812" d="M83 765q117 227 489 227q229 0 363 -96q120 96 291 96q259 0 390 -154t131 -379q0 -12 -1 -35h-710q6 -103 70 -170.5t158 -67.5q116 0 228 111l240 -74q-68 -118 -197.5 -181.5t-278.5 -63.5q-161 0 -269.5 62t-166.5 141q-201 -203 -390 -203q-140 0 -243 85t-103 227 q0 151 111.5 238.5t278.5 87.5q128 0 251 -48q1 19 1 34q0 89 -58 139t-146 50q-100 0 -194 -72zM378 296q0 -52 36 -84.5t82 -32.5q101 0 229 108v72q-117 73 -194 73q-59 0 -106 -37.5t-47 -98.5zM1036 595h397q-15 85 -69 137t-137 52q-78 0 -130 -52.5t-61 -136.5z" />
<glyph unicode="&#xe7;" horiz-adv-x="1153" d="M78 485q0 231 147.5 364.5t343.5 133.5q157 0 293 -95v80h211v-393h-220q-75 162 -235 162q-102 0 -162.5 -67.5t-60.5 -180.5q0 -137 64 -202.5t157 -65.5q74 0 140 42.5t106 112.5l240 -106q-127 -278 -434 -291l-15 -62q171 -49 171 -180q0 -96 -85 -145.5t-293 -49.5 q-32 0 -75 2v101q138 3 170.5 18.5t32.5 47.5q0 65 -120 71l49 208q-211 39 -318 173.5t-107 321.5z" />
<glyph unicode="&#xe8;" horiz-adv-x="1174" d="M78 468q0 224 148 374t377 150q166 0 287 -84t168 -209t47 -279h-721q7 -132 83.5 -187t161.5 -55q111 0 224 114l240 -77q-151 -237 -472 -237q-256 0 -399.5 135t-143.5 355zM218 1413h375l153 -318h-165zM389 592h405q-11 81 -63.5 138t-143.5 57q-170 0 -198 -195z " />
<glyph unicode="&#xe9;" horiz-adv-x="1174" d="M78 468q0 224 148 374t377 150q166 0 287 -84t168 -209t47 -279h-721q7 -132 83.5 -187t161.5 -55q111 0 224 114l240 -77q-151 -237 -472 -237q-256 0 -399.5 135t-143.5 355zM389 592h405q-11 81 -63.5 138t-143.5 57q-170 0 -198 -195zM438 1095l152 318h376 l-364 -318h-164z" />
<glyph unicode="&#xea;" horiz-adv-x="1174" d="M78 468q0 224 148 374t377 150q166 0 287 -84t168 -209t47 -279h-721q7 -132 83.5 -187t161.5 -55q111 0 224 114l240 -77q-151 -237 -472 -237q-256 0 -399.5 135t-143.5 355zM199 1069l243 368h300l243 -368h-175l-218 218l-218 -218h-175zM389 592h405 q-11 81 -63.5 138t-143.5 57q-170 0 -198 -195z" />
<glyph unicode="&#xeb;" horiz-adv-x="1174" d="M78 468q0 224 148 374t377 150q166 0 287 -84t168 -209t47 -279h-721q7 -132 83.5 -187t161.5 -55q111 0 224 114l240 -77q-151 -237 -472 -237q-256 0 -399.5 135t-143.5 355zM220 1249q0 59 42.5 101.5t102.5 42.5q59 0 102 -42t43 -102t-43 -102.5t-102 -42.5 q-60 0 -102.5 42.5t-42.5 102.5zM389 592h405q-11 81 -63.5 138t-143.5 57q-170 0 -198 -195zM675 1249q0 59 42.5 101.5t102.5 42.5q59 0 101.5 -42.5t42.5 -101.5q0 -60 -42.5 -102.5t-101.5 -42.5q-60 0 -102.5 42t-42.5 103z" />
<glyph unicode="&#xec;" d="M12 1413h375l153 -318h-165zM86 0v223h147v521h-147v224h456v-745h144v-223h-600z" />
<glyph unicode="&#xed;" d="M86 0v223h147v521h-147v224h456v-745h144v-223h-600zM232 1095l152 318h376l-364 -318h-164z" />
<glyph unicode="&#xee;" d="M-30 1069l243 368h300l243 -368h-175l-218 218l-218 -218h-175zM86 0v223h147v521h-147v224h456v-745h144v-223h-600z" />
<glyph unicode="&#xef;" d="M-10 1249q0 59 42.5 101.5t102.5 42.5q59 0 102 -42t43 -102t-43 -102.5t-102 -42.5q-60 0 -102.5 42.5t-42.5 102.5zM86 0v223h147v521h-147v224h456v-745h144v-223h-600zM445 1249q0 59 42.5 101.5t102.5 42.5q59 0 101.5 -42.5t42.5 -101.5q0 -60 -42.5 -102.5 t-101.5 -42.5q-60 0 -102.5 42t-42.5 103z" />
<glyph unicode="&#xf0;" horiz-adv-x="1174" d="M73 481q0 226 135 368.5t323 142.5q97 0 178 -47q-69 130 -160 237l-248 -80l-39 119l198 67q-49 57 -140 127h305q35 -28 63 -54l177 54l40 -120l-115 -37q149 -158 230 -353.5t81 -373.5q0 -213 -133 -383t-399 -170q-137 0 -242.5 55.5t-179.5 172.5t-74 275zM389 483 q0 -119 48 -192t142 -73q93 0 150.5 74t57.5 209q0 119 -56 185.5t-140 66.5q-85 0 -143.5 -69.5t-58.5 -200.5z" />
<glyph unicode="&#xf1;" horiz-adv-x="1280" d="M73 0v223h148v521h-148v224h457v-90q140 105 284 105q293 0 293 -374v-386h146v-223h-455v586q0 79 -21.5 108t-70.5 29q-86 0 -176 -63v-437h149v-223h-606zM272 1087q0 151 69 236t159 85q61 0 153 -47q135 -70 172 -70q33 0 59 32.5t28 80.5h142v-24q0 -118 -63 -209 t-169 -91q-39 0 -69.5 11.5t-112.5 52.5q-100 51 -137 51q-77 0 -81 -108h-150z" />
<glyph unicode="&#xf2;" horiz-adv-x="1174" d="M78 485q0 236 147.5 371.5t361.5 135.5q215 0 362 -135.5t147 -371.5q0 -233 -145.5 -370t-363.5 -137q-214 0 -361.5 135.5t-147.5 371.5zM213 1413h375l153 -318h-165zM395 478q0 -113 47.5 -186.5t143.5 -73.5q86 0 139.5 66t53.5 207q0 124 -52 193.5t-141 69.5 q-191 0 -191 -276z" />
<glyph unicode="&#xf3;" horiz-adv-x="1174" d="M78 485q0 236 147.5 371.5t361.5 135.5q215 0 362 -135.5t147 -371.5q0 -233 -145.5 -370t-363.5 -137q-214 0 -361.5 135.5t-147.5 371.5zM395 478q0 -113 47.5 -186.5t143.5 -73.5q86 0 139.5 66t53.5 207q0 124 -52 193.5t-141 69.5q-191 0 -191 -276zM433 1095 l152 318h376l-364 -318h-164z" />
<glyph unicode="&#xf4;" horiz-adv-x="1174" d="M78 485q0 236 147.5 371.5t361.5 135.5q215 0 362 -135.5t147 -371.5q0 -233 -145.5 -370t-363.5 -137q-214 0 -361.5 135.5t-147.5 371.5zM194 1069l243 368h300l243 -368h-175l-218 218l-218 -218h-175zM395 478q0 -113 47.5 -186.5t143.5 -73.5q86 0 139.5 66 t53.5 207q0 124 -52 193.5t-141 69.5q-191 0 -191 -276z" />
<glyph unicode="&#xf5;" horiz-adv-x="1174" d="M78 485q0 236 147.5 371.5t361.5 135.5q215 0 362 -135.5t147 -371.5q0 -233 -145.5 -370t-363.5 -137q-214 0 -361.5 135.5t-147.5 371.5zM196 1087q0 151 69 236t159 85q61 0 153 -47q135 -70 172 -70q33 0 59 32.5t28 80.5h142v-24q0 -118 -63 -209t-169 -91 q-39 0 -69.5 11.5t-112.5 52.5q-100 51 -137 51q-77 0 -81 -108h-150zM395 478q0 -113 47.5 -186.5t143.5 -73.5q86 0 139.5 66t53.5 207q0 124 -52 193.5t-141 69.5q-191 0 -191 -276z" />
<glyph unicode="&#xf6;" horiz-adv-x="1174" d="M78 485q0 236 147.5 371.5t361.5 135.5q215 0 362 -135.5t147 -371.5q0 -233 -145.5 -370t-363.5 -137q-214 0 -361.5 135.5t-147.5 371.5zM215 1249q0 59 42.5 101.5t102.5 42.5q59 0 102 -42t43 -102t-43 -102.5t-102 -42.5q-60 0 -102.5 42.5t-42.5 102.5zM395 478 q0 -113 47.5 -186.5t143.5 -73.5q86 0 139.5 66t53.5 207q0 124 -52 193.5t-141 69.5q-191 0 -191 -276zM670 1249q0 59 42.5 101.5t102.5 42.5q59 0 101.5 -42.5t42.5 -101.5q0 -60 -42.5 -102.5t-101.5 -42.5q-60 0 -102.5 42t-42.5 103z" />
<glyph unicode="&#xf7;" horiz-adv-x="1368" d="M122 581v235h1124v-235h-1124zM539 280q0 63 43.5 104.5t101.5 41.5q59 0 102.5 -41.5t43.5 -104.5q0 -61 -43 -103.5t-103 -42.5q-59 0 -102 42.5t-43 103.5zM539 1117q0 63 43.5 104.5t101.5 41.5q60 0 103 -42.5t43 -103.5q0 -60 -42.5 -102.5t-103.5 -42.5 q-60 0 -102.5 42t-42.5 103z" />
<glyph unicode="&#xf8;" horiz-adv-x="1174" d="M78 476q0 244 146 380t363 136q164 0 287 -78l122 143l94 -83l-119 -139q125 -131 125 -350q0 -234 -145.5 -370.5t-363.5 -136.5q-158 0 -285 77l-122 -142l-95 78l121 142q-128 131 -128 343zM395 490q0 -61 14 -120l292 343q-49 41 -115 41q-89 0 -140 -69.5 t-51 -194.5zM475 256q46 -38 111 -38q89 0 141 68t52 195q0 63 -12 116z" />
<glyph unicode="&#xf9;" horiz-adv-x="1280" d="M39 744v224h453v-603q0 -72 22 -98.5t80 -26.5q78 0 171 69v435h-149v224h458v-745h156v-223h-465v82q-139 -96 -282 -96q-140 0 -219.5 78.5t-79.5 221.5v458h-145zM261 1413h375l153 -318h-165z" />
<glyph unicode="&#xfa;" horiz-adv-x="1280" d="M39 744v224h453v-603q0 -72 22 -98.5t80 -26.5q78 0 171 69v435h-149v224h458v-745h156v-223h-465v82q-139 -96 -282 -96q-140 0 -219.5 78.5t-79.5 221.5v458h-145zM481 1095l152 318h376l-364 -318h-164z" />
<glyph unicode="&#xfb;" horiz-adv-x="1280" d="M39 744v224h453v-603q0 -72 22 -98.5t80 -26.5q78 0 171 69v435h-149v224h458v-745h156v-223h-465v82q-139 -96 -282 -96q-140 0 -219.5 78.5t-79.5 221.5v458h-145zM241 1069l243 368h300l243 -368h-175l-218 218l-218 -218h-175z" />
<glyph unicode="&#xfc;" horiz-adv-x="1280" d="M39 744v224h453v-603q0 -72 22 -98.5t80 -26.5q78 0 171 69v435h-149v224h458v-745h156v-223h-465v82q-139 -96 -282 -96q-140 0 -219.5 78.5t-79.5 221.5v458h-145zM263 1249q0 59 42.5 101.5t102.5 42.5q59 0 102 -42t43 -102t-43 -102.5t-102 -42.5q-60 0 -102.5 42.5 t-42.5 102.5zM718 1249q0 59 42.5 101.5t102.5 42.5q59 0 101.5 -42.5t42.5 -101.5q0 -60 -42.5 -102.5t-101.5 -42.5q-60 0 -102.5 42t-42.5 103z" />
<glyph unicode="&#xfd;" horiz-adv-x="1217" d="M11 744v224h580v-224h-114l161 -435l172 435h-126v224h509v-224h-138l-464 -1181h-338v223h186l64 173l-352 785h-140zM448 1095l152 318h376l-364 -318h-164z" />
<glyph unicode="&#xfe;" horiz-adv-x="1280" d="M33 -214h163v1382h-136v223h445v-544q129 136 288 136q192 0 302.5 -152.5t110.5 -355.5q0 -215 -114 -356t-304 -141q-155 0 -283 121v-313h194v-223h-666v223zM502 477q0 -115 54 -185t144 -70q83 0 136 63t53 196q0 127 -52.5 190t-138.5 63q-87 0 -141.5 -64.5 t-54.5 -192.5z" />
<glyph unicode="&#xff;" horiz-adv-x="1217" d="M11 744v224h580v-224h-114l161 -435l172 435h-126v224h509v-224h-138l-464 -1181h-338v223h186l64 173l-352 785h-140zM230 1249q0 59 42.5 101.5t102.5 42.5q59 0 102 -42t43 -102t-43 -102.5t-102 -42.5q-60 0 -102.5 42.5t-42.5 102.5zM685 1249q0 59 42.5 101.5 t102.5 42.5q59 0 101.5 -42.5t42.5 -101.5q0 -60 -42.5 -102.5t-101.5 -42.5q-60 0 -102.5 42t-42.5 103z" />
<glyph unicode="&#x152;" horiz-adv-x="2068" d="M98 688q0 205 74.5 358t176 224.5t233.5 96t378 24.5h1035v-444h-265v209h-401v-322h322v-235h-322v-364h401v209h265v-444h-1075q-182 0 -269.5 12t-197.5 63.5t-192.5 143t-122.5 209t-40 260.5zM476 698q0 -178 71 -289t152 -140t268 -34v921q-165 0 -231 -12.5 t-130 -70.5t-97 -152t-33 -223z" />
<glyph unicode="&#x153;" horiz-adv-x="2068" d="M78 481q0 212 150 361.5t413 149.5q236 0 418 -145q140 145 390 145q240 0 395 -156.5t155 -365.5q0 -16 -1 -48h-785q8 -108 85.5 -171.5t189.5 -63.5q169 0 257 109l241 -73q-46 -102 -177.5 -173.5t-320.5 -71.5q-283 0 -429 139q-173 -139 -423 -139 q-263 0 -410.5 148t-147.5 355zM395 489q0 -119 67.5 -212.5t184.5 -93.5q118 0 182.5 92t64.5 217q0 127 -70.5 209.5t-176.5 82.5q-109 0 -180.5 -86t-71.5 -209zM1222 593h464q-20 91 -86.5 141.5t-152.5 50.5q-87 0 -152 -55t-73 -137z" />
<glyph unicode="&#x178;" horiz-adv-x="1430" d="M-5 1156v235h696v-235h-137l204 -340l207 340h-143v235h613v-235h-171l-360 -545v-376h194v-235h-751v235h195v376l-377 545h-170zM343 1651q0 59 42.5 101.5t102.5 42.5q59 0 102 -42t43 -102t-43 -102.5t-102 -42.5q-60 0 -102.5 42.5t-42.5 102.5zM798 1651 q0 59 42.5 101.5t102.5 42.5q59 0 101.5 -42.5t42.5 -101.5q0 -60 -42.5 -102.5t-101.5 -42.5q-60 0 -102.5 42t-42.5 103z" />
<glyph unicode="&#x2c6;" horiz-adv-x="682" d="M-52 1069l243 368h300l243 -368h-175l-218 218l-218 -218h-175z" />
<glyph unicode="&#x2dc;" horiz-adv-x="682" d="M-50 1087q0 151 69 236t159 85q61 0 153 -47q135 -70 172 -70q33 0 59 32.5t28 80.5h142v-24q0 -118 -63 -209t-169 -91q-39 0 -69.5 11.5t-112.5 52.5q-100 51 -137 51q-77 0 -81 -108h-150z" />
<glyph unicode="&#x2000;" horiz-adv-x="965" />
<glyph unicode="&#x2001;" horiz-adv-x="1930" />
<glyph unicode="&#x2002;" horiz-adv-x="965" />
<glyph unicode="&#x2003;" horiz-adv-x="1930" />
<glyph unicode="&#x2004;" horiz-adv-x="643" />
<glyph unicode="&#x2005;" horiz-adv-x="482" />
<glyph unicode="&#x2006;" horiz-adv-x="321" />
<glyph unicode="&#x2007;" horiz-adv-x="321" />
<glyph unicode="&#x2008;" horiz-adv-x="241" />
<glyph unicode="&#x2009;" horiz-adv-x="386" />
<glyph unicode="&#x200a;" horiz-adv-x="107" />
<glyph unicode="&#x2010;" horiz-adv-x="705" d="M73 349v270h559v-270h-559z" />
<glyph unicode="&#x2011;" horiz-adv-x="705" d="M73 349v270h559v-270h-559z" />
<glyph unicode="&#x2012;" horiz-adv-x="705" d="M73 349v270h559v-270h-559z" />
<glyph unicode="&#x2013;" horiz-adv-x="1024" d="M-12 387v250h1048v-250h-1048z" />
<glyph unicode="&#x2014;" horiz-adv-x="2048" d="M-12 387v250h2072v-250h-2072z" />
<glyph unicode="&#x2018;" d="M196 686v311q0 239 88.5 316.5t245.5 77.5v-154q-164 -17 -164 -198v-18h164v-335h-334z" />
<glyph unicode="&#x2019;" d="M196 686v151q164 16 164 197v19h-164v338h334v-314q0 -145 -30.5 -226.5t-108 -123t-195.5 -41.5z" />
<glyph unicode="&#x201a;" d="M196 -4v339h334v-314q0 -238 -89 -314.5t-245 -76.5v151q164 16 164 197v18h-164z" />
<glyph unicode="&#x201c;" horiz-adv-x="1217" d="M186 686v311q0 239 88.5 316.5t245.5 77.5v-154q-164 -17 -164 -198v-18h164v-335h-334zM698 686v311q0 239 88.5 316.5t245.5 77.5v-154q-164 -17 -164 -198v-18h164v-335h-334z" />
<glyph unicode="&#x201d;" horiz-adv-x="1217" d="M187 690v151q164 16 164 197v18h-164v335h334v-310q0 -177 -41 -251t-113 -107t-180 -33zM693 690v151q164 16 164 197v18h-164v335h334v-310q0 -238 -89 -314.5t-245 -76.5z" />
<glyph unicode="&#x201e;" horiz-adv-x="1217" d="M188 0v335h334v-311q0 -144 -30.5 -226t-108 -123t-195.5 -41v150q164 17 164 198v18h-164zM691 0v335h334v-311q0 -238 -88.5 -314t-245.5 -76v150q165 17 165 198v18h-165z" />
<glyph unicode="&#x2022;" d="M77 696q0 118 84 201.5t202 83.5q115 0 200 -81t85 -204q0 -118 -83.5 -202t-201.5 -84q-119 0 -202.5 83.5t-83.5 202.5z" />
<glyph unicode="&#x2026;" horiz-adv-x="2048" d="M174 0v335h335v-335h-335zM857 0v335h335v-335h-335zM1540 0v335h335v-335h-335z" />
<glyph unicode="&#x202f;" horiz-adv-x="386" />
<glyph unicode="&#x2039;" horiz-adv-x="555" d="M10 484l231 484h296l-225 -484l225 -484h-296z" />
<glyph unicode="&#x203a;" horiz-adv-x="555" d="M18 0l225 484l-225 484h295l232 -484l-232 -484h-295z" />
<glyph unicode="&#x205f;" horiz-adv-x="482" />
<glyph unicode="&#x20ac;" horiz-adv-x="1130" d="M4 475v160h105v127h-105v160h121q42 237 158.5 365t285.5 128q87 0 145 -26t117 -86v88h181v-404h-176q-34 104 -80.5 153.5t-137.5 49.5q-84 0 -128 -64t-58 -204h285v-160h-291v-127h291v-160h-283q26 -268 172 -268q95 0 146 53.5t67 169.5l230 -53 q-34 -184 -137 -289.5t-326 -105.5q-388 0 -463 493h-119z" />
<glyph unicode="&#x2122;" horiz-adv-x="2048" d="M148 1249v142h665v-142h-246v-677h-166v677h-253zM912 572v819h259l149 -564l150 564h259v-819h-158v653l-177 -653h-150l-176 653v-653h-156z" />
<glyph unicode="&#x25fc;" horiz-adv-x="970" d="M0 0v970h970v-970h-970z" />
</font>
</defs>
</svg>
