<?xml version="1.0" standalone="no"?>
<!DOCTYPE svg PUBLIC "-//W3C//DTD SVG 1.1//EN" "http://www.w3.org/Graphics/SVG/1.1/DTD/svg11.dtd" >
<svg>
<metadata>
Created by FontForge 20090914 at Tue Feb  4 07:06:05 2014
 By www-data
Copyright (c) 2011 by Frances MacLeod. All rights reserved.
</metadata>
<defs>
<font id="AbrahamLincoln" horiz-adv-x="376" >
  <font-face 
    font-family="Abraham Lincoln"
    font-weight="400"
    font-stretch="normal"
    units-per-em="1000"
    panose-1="0 0 0 0 0 0 0 0 0 0"
    ascent="750"
    descent="-250"
    x-height="486"
    cap-height="714.999"
    bbox="-28.7827 -235.999 721.099 869.003"
    underline-thickness="50"
    underline-position="-50"
    unicode-range="U+0020-U+FB02"
  />
<missing-glyph horiz-adv-x="182" 
 />
    <glyph glyph-name=".notdef" horiz-adv-x="182" 
 />
    <glyph glyph-name="space" unicode=" " horiz-adv-x="182" 
 />
    <glyph glyph-name="exclam" unicode="!" horiz-adv-x="116" 
d="M100 42c0 -11.333 -4 -21 -12 -29s-17.667 -12 -29 -12s-21 4 -29 12s-12 17.667 -12 29c0 10.667 4 20 12 28s17.667 12 29 12s21 -4 29 -12s12 -17.333 12 -28zM100 676c0 -2 -0.5 -10.833 -1.5 -26.5s-2.16699 -35.334 -3.5 -59.001l-4.5 -80.5
c-1.66699 -30 -3.16699 -60 -4.5 -90l-15 -243h-22c-6.66699 90 -11.667 171 -15 243l-6 90c-2 30 -3.66699 56.833 -5 80.5s-2.5 43.334 -3.5 59.001s-1.5 24.5 -1.5 26.5c0 11.333 4 20.833 12 28.5s17.667 11.5 29 11.5s21 -3.83301 29 -11.5s12 -17.167 12 -28.5z" />
    <glyph glyph-name="quotedbl" unicode="&#x22;" horiz-adv-x="228" 
d="M42 607c-2 13.333 -5 24.665 -9 33.998s-6 19.666 -6 30.999s2.83301 20.833 8.5 28.5s14.5 11.5 26.5 11.5c11.333 0 20 -3.83301 26 -11.5s9 -17.167 9 -28.5s-2 -21.666 -6 -30.999s-7.33301 -20.666 -10 -33.999c-1.33301 -6 -2.5 -13.5 -3.5 -22.5
s-1.83301 -17.167 -2.5 -24.5c-1.33301 -9.33301 -2.33301 -18.666 -3 -27.999h-10h-9l-4 28c-1.33301 7.33301 -2.5 15.5 -3.5 24.5s-2.16699 16.5 -3.5 22.5zM147 606.999c-2 13.333 -5 24.666 -9 33.999s-6 19.666 -6 30.999s2.83301 20.833 8.5 28.5
s14.5 11.5 26.5 11.5c11.333 0 20 -3.83301 26 -11.5s9 -17.167 9 -28.5s-2.16699 -21.666 -6.5 -30.999s-7.5 -20.666 -9.5 -33.999c-1.33301 -6 -2.5 -13.5 -3.5 -22.5s-1.83301 -17.167 -2.5 -24.5l-4 -28h-9h-10l-4 28c-1.33301 7.33301 -2.33301 15.5 -3 24.5
s-1.66699 16.5 -3 22.5z" />
    <glyph glyph-name="numbersign" unicode="#" horiz-adv-x="375" 
d="M368 449h-101l-25 -137h95v-31h-100l-52 -280h-23l51 280h-87l-51 -280h-24l52 280h-93v31h98l26 137h-94v30h99l44 238h23l-43 -238h86l44 238h23l-43 -238h95v-30zM219 312l25 137h-87l-25 -137h87z" />
    <glyph glyph-name="dollar" unicode="$" horiz-adv-x="300" 
d="M163 398c19.333 -24.667 36.3281 -47.8369 50.9951 -69.5039s27.334 -43 38.001 -64s18.334 -42.833 23.001 -65.5s5.66699 -47 3 -73c-1.33301 -16 -4.16602 -31.5 -8.49902 -46.5s-11.166 -29 -20.499 -42s-21.166 -24.167 -35.499 -33.5s-31.5 -15 -51.5 -17v-55h-23
v55c-3.33301 0 -6.33301 0.166992 -9 0.5s-5.33398 0.5 -8.00098 0.5c-28 5.33301 -49.5 17.5 -64.5 36.5s-24.5 39 -28.5 60s-1.66699 40 7 57s23 25.5 43 25.5c12 0 22.333 -4 31 -12s13 -18.333 13 -31c0 -8 -3.16699 -16 -9.5 -24s-14.166 -13.333 -23.499 -16
c-2 0 -3.33301 -0.333008 -4 -1c-8.66699 -2 -13.834 -7.16699 -15.501 -15.5s0.166016 -17.166 5.49902 -26.499c6 -10 14.167 -18.167 24.5 -24.5s23.166 -9.5 38.499 -9.5v299c-24 27.333 -43.667 53.166 -59 77.499s-27.5 47.666 -36.5 69.999s-15.167 43.333 -18.5 63
s-5 39.167 -5 58.5c0 13.333 2.83301 27.5 8.5 42.5s13.334 28.833 23.001 41.5s21.834 23.834 36.501 33.501s31.667 15.834 51 18.501v54h23v-52h18c18 -2 33.667 -7.33301 47 -16s23.833 -19.834 31.5 -33.501s12.5 -28.167 14.5 -43.5s1.66699 -29.333 -1 -42
s-8.16699 -23 -16.5 -31s-18.833 -12 -31.5 -12c-13.333 0 -24 4 -32 12s-12 18 -12 30c0 8.66699 3 16.834 9 24.501s13.667 12.834 23 15.501c1.33301 0 2.66602 0.333008 3.99902 1c8.66699 2.66699 13.834 8.33398 15.501 17.001s-0.166016 17.667 -5.49902 27
c-6 8.66699 -14.5 16.334 -25.5 23.001s-23.833 10 -38.5 10v-294c0 -0.666992 0.333008 -1.66699 1 -3zM59.9951 593.997c0 -13.333 1.66699 -26 5 -38s8 -24 14 -36s14 -25 24 -39l36 -48v258c-23.333 -2.66699 -42.5 -12.5 -57.5 -29.5s-22.167 -39.5 -21.5 -67.5z
M247.995 111.997c0.666992 11.333 0.5 21.998 -0.5 31.998s-4.83301 21 -11.5 33s-15.667 26.333 -27 43s-27 36.334 -47 59.001v-269c24 4.66699 44 15.834 60 33.501s24.667 40.5 26 68.5z" />
    <glyph glyph-name="percent" unicode="%" horiz-adv-x="416" 
d="M311 299c9.33301 0 19.165 -1.50195 29.498 -4.50195s19.333 -8 27 -15s14.167 -15.833 19.5 -26.5s8 -23.667 8 -39v-134c0 -11.333 -2.83301 -22.333 -8.5 -33s-12.167 -19.667 -19.5 -27s-16.166 -13.166 -26.499 -17.499s-20.166 -6.5 -29.499 -6.5s-19 2 -29 6
s-18.833 9.33301 -26.5 16s-14.167 15.334 -19.5 26.001s-8 22.667 -8 36v133c0 15.333 2.66699 28.333 8 39s11.833 19.667 19.5 27s16.5 12.5 26.5 15.5s19.667 4.5 29 4.5zM351.999 199.998c0 32 -3.5 53.667 -10.5 65s-17.167 17 -30.5 17s-23.5 -5.66699 -30.5 -17
s-10.5 -33 -10.5 -65v-104c0 -32.667 3.5 -55.167 10.5 -67.5s17.167 -18.5 30.5 -18.5s23.5 6.16699 30.5 18.5s10.5 34.833 10.5 67.5v104zM312.999 715.998l-184 -720.001h-25l74 286l29.5 116l29 112l24.5 97c7.33301 29.333 13.666 53 18.999 71
c-5.33301 -2.66699 -11.333 -5.5 -18 -8.5s-14.334 -5 -23.001 -6s-18.167 -0.5 -28.5 1.5s-21.5 6.33301 -33.5 13c7.33301 -13.333 11 -29 11 -47v-135c0 -11.333 -2.5 -22 -7.5 -32s-11.333 -18.667 -19 -26s-16.5 -13.166 -26.5 -17.499s-19.667 -6.5 -29 -6.5
c-10 0 -20 1.83301 -30 5.5s-19 9 -27 16s-14.5 15.667 -19.5 26s-7.5 21.833 -7.5 34.5v134c0 15.333 2.5 28.333 7.5 39s11.5 19.667 19.5 27s17 12.5 27 15.5s20 4.5 30 4.5h1h2c16.667 -0.666992 32.834 -4.5 48.501 -11.5s30.834 -12.667 45.501 -17s29 -5 43 -2
s28 13.167 42 30.5h25zM145.999 616.997c0 32 -3.5 53.833 -10.5 65.5s-16.833 17.5 -29.5 17.5c-13.333 0 -23.5 -5.83301 -30.5 -17.5s-10.5 -33.5 -10.5 -65.5v-104c0 -32 3.5 -54.333 10.5 -67s17.167 -19 30.5 -19c12.667 0 22.5 6.33301 29.5 19s10.5 35 10.5 67v104z
" />
    <glyph glyph-name="ampersand" unicode="&#x26;" horiz-adv-x="737" 
d="M713 629c6 -20.667 8.66602 -42.3242 7.99902 -64.9912s-5.83398 -44.834 -15.501 -66.501s-24.334 -42.167 -44.001 -61.5s-44.5 -36 -74.5 -50c-20.667 -10.667 -41.834 -18.834 -63.501 -24.501s-43.834 -9.5 -66.501 -11.5c18 -16.667 32.167 -36.5 42.5 -59.5
s15.5 -48.833 15.5 -77.5c0 -34.667 -7 -64.834 -21 -90.501s-31.5 -47.5 -52.5 -65.5s-44.333 -31.5 -70 -40.5s-49.5 -13.833 -71.5 -14.5c-23.333 -1.33301 -50.333 1.16699 -81 7.5s-60 17.833 -88 34.5s-52.167 40 -72.5 70s-31.5 68 -33.5 114
s2.66699 86.167 14 120.5s26.333 62.833 45 85.5s39.167 40 61.5 52s43.833 19.333 64.5 22c-14.667 13.333 -23.667 31.666 -27 54.999s-1.16602 46 6.50098 68s21 41.333 40 58s43.5 25.667 73.5 27s53 -2.83398 69 -12.501s26.333 -20.5 31 -32.5s4.5 -23.5 -0.5 -34.5
s-13.833 -16.833 -26.5 -17.5s-20.5 2 -23.5 8s-4.5 12.667 -4.5 20s-0.166992 15.166 -0.5 23.499s-3.83301 15.166 -10.5 20.499c-10.667 5.33301 -22.334 7.33301 -35.001 6s-24.334 -6 -35.001 -14s-19.167 -19.833 -25.5 -35.5s-8.83301 -34.5 -7.5 -56.5
c2 -22 7.83301 -38.333 17.5 -49s19.834 -18 30.501 -22c12 -4.66699 25.667 -6.66699 41 -6v-23c-15.333 -0.666992 -31.666 -2.66699 -48.999 -6c-14.667 -2.66699 -30.834 -6.83398 -48.501 -12.501s-34.167 -14.167 -49.5 -25.5
c-16 -10.667 -29.5 -23.834 -40.5 -39.501s-19.833 -33.5 -26.5 -53.5s-11.5 -41.333 -14.5 -64s-4.16699 -46 -3.5 -70c0.666992 -23.333 5.33398 -46.833 14.001 -70.5s20.834 -45 36.501 -64s34.834 -34.333 57.501 -46s47.667 -17.834 75 -18.501
c28 -0.666992 55.333 3.83301 82 13.5s50 23.167 70 40.5s36.333 36.833 49 58.5s19 43.834 19 66.501c0 33.333 -5.83301 62.666 -17.5 87.999s-26.834 45 -45.501 59c-28 -3.33301 -54.833 -5.66602 -80.5 -6.99902s-49.167 -3.66602 -70.5 -6.99902
s-39.333 -8.66602 -54 -15.999s-25 -18.666 -31 -33.999c-9.33301 -22.667 -13 -42.834 -11 -60.501s7.33301 -33 16 -46s19.334 -23.167 32.001 -30.5s25.667 -11 39 -11h5.5h8.5h11h9c10.667 2 16.334 5.83301 17.001 11.5s-0.666016 10.834 -3.99902 15.501l-3.5 3.5
l-3.5 3.5c-6 8.66699 -9 17.667 -9 27c0 12.667 4.33301 23.334 13 32.001s19.334 13 32.001 13s23.5 -4.33301 32.5 -13s13.5 -19.334 13.5 -32.001c0 -5.33301 -1.66699 -11.666 -5 -18.999c-6 -17.333 -15.167 -31 -27.5 -41s-25.666 -17 -39.999 -21
s-29.166 -5.5 -44.499 -4.5s-28.666 3.16699 -39.999 6.5c-22.667 8 -40.834 23.167 -54.501 45.5s-20.5 46.833 -20.5 73.5s7.33301 52.834 22 78.501s38 46.167 70 61.5c14.667 7.33301 30 12 46 14l-1 1h4l0.5 0.5c0.333008 0.333008 0.833008 0.5 1.5 0.5
c12.667 2.66699 28 5.33398 46 8.00098s34.667 4.66699 50 6l59 6c46 7.33301 84.5 17.833 115.5 31.5s55.667 29.167 74 46.5s31 35.666 38 54.999s9.5 37.666 7.5 54.999c-2 14.667 -6.66699 28.5 -14 41.5s-16.5 24.167 -27.5 33.5s-23.5 16 -37.5 20s-27.667 5 -41 3
c-30 -4 -51.5 -13.333 -64.5 -28s-20.5 -30.334 -22.5 -47.001s-0.5 -32.834 4.5 -48.501s11.167 -26.5 18.5 -32.5c1.33301 -0.666992 2.83301 -1.66699 4.5 -3s3.5 -2.66602 5.5 -3.99902c0.666992 0 1.33398 -0.333008 2.00098 -1c-0.666992 0 -1 0.166992 -1 0.5
s-0.333008 0.5 -1 0.5c1.33301 -0.666992 2.5 -1.33398 3.5 -2.00098s2.16699 -1 3.5 -1c-1.33301 0.666992 -2.33301 1 -3 1s-1.33398 0.333008 -2.00098 1c12 -4.66699 20 -4.66699 24 0s5 10.334 3 17.001c0 1.33301 -0.166992 2.66602 -0.5 3.99902
s-0.833008 2.66602 -1.5 3.99902c-1.33301 4.66699 -2 8.33398 -2 11.001c0 12.667 4.5 23.5 13.5 32.5s19.5 13.5 31.5 13.5c12.667 0 23.334 -4.5 32.001 -13.5s13 -19.833 13 -32.5c0 -18.667 -7.66699 -31.667 -23 -39c-13.333 -9.33301 -28.333 -15.5 -45 -18.5
s-32.334 -2.16699 -47.001 2.5s-27.334 13.5 -38.001 26.5s-17 31.167 -19 54.5c-2 24 1.83301 44.5 11.5 61.5s22.667 30.333 39 40s34.666 15.667 54.999 18s40.166 0.666016 59.499 -5.00098s36.5 -15.334 51.5 -29.001s26.167 -31.167 33.5 -52.5z" />
    <glyph glyph-name="quotesingle" unicode="'" horiz-adv-x="95" 
d="M24 614c-1.33301 13.333 -4.33398 24.333 -9.00098 33s-7 18.667 -7 30s2.83301 21.166 8.5 29.499s14.834 12.5 27.501 12.5c11.333 0 20 -4.16699 26 -12.5s9 -18.166 9 -29.499s-2.16699 -21.333 -6.5 -30s-7.5 -19.667 -9.5 -33
c-1.33301 -6.66699 -2.33301 -14.334 -3 -23.001s-1.66699 -17 -3 -25l-4 -28h-9h-10l-4 28c-1.33301 8 -2.5 16.333 -3.5 25s-1.83301 16.334 -2.5 23.001z" />
    <glyph glyph-name="parenleft" unicode="(" horiz-adv-x="162" 
d="M82 109c0 -28.667 7.33301 -50.6699 22 -66.0029s32.667 -23 54 -23v-22c-17.333 0 -33.666 1.5 -48.999 4.5s-28.666 8.33301 -39.999 16s-20.333 19.334 -27 35.001s-10 35.834 -10 60.501v484c0 24.667 3.33301 44.334 10 59.001s15.667 26.334 27 35.001
s24.666 14.167 39.999 16.5s31.666 3.5 48.999 3.5v-20c-21.333 0 -39.333 -7.83301 -54 -23.5s-22 -37.834 -22 -66.501v-493z" />
    <glyph glyph-name="parenright" unicode=")" horiz-adv-x="160" 
d="M80 603c0 28.667 -7.33301 50.8359 -22 66.5029s-32.667 23.5 -54 23.5v20c17.333 0 33.666 -1.16699 48.999 -3.5s28.5 -7.83301 39.5 -16.5s19.833 -20.334 26.5 -35.001s10 -34.667 10 -60v-483c0 -24.667 -3.33301 -44.834 -10 -60.501s-15.5 -27.334 -26.5 -35.001
s-24.167 -13 -39.5 -16s-31.666 -4.5 -48.999 -4.5v22c21.333 0 39.333 7.5 54 22.5s22 37.167 22 66.5v493z" />
    <glyph glyph-name="asterisk" unicode="*" horiz-adv-x="233" 
d="M205 579c6 -4 9.99805 -9.16797 11.998 -15.501s1 -12.5 -3 -18.5c-2.66699 -6.66699 -7.33398 -10.667 -14.001 -12s-13 -0.333008 -19 3c-2.66699 1.33301 -6.33398 4.33301 -11.001 9l-16 16.5l-18.5 19.5c-6.33301 6.66699 -12.166 12.334 -17.499 17.001
c1.33301 -7.33301 3.33301 -15.5 6 -24.5s5.33398 -17.5 8.00098 -25.5s4.83398 -15.167 6.50098 -21.5s2.5 -10.833 2.5 -13.5c0 -6.66699 -2.5 -12.5 -7.5 -17.5s-10.833 -7.5 -17.5 -7.5s-12.5 2.5 -17.5 7.5s-7.5 10.833 -7.5 17.5c0 2.66699 1 7.33398 3 14.001
s4.33301 14 7 22l8 25c2.66699 8.66699 4.66699 16.667 6 24c-6 -4.66699 -12.167 -10.334 -18.5 -17.001l-18 -19.5c-5.66699 -6.33301 -11 -11.833 -16 -16.5s-8.5 -7.66699 -10.5 -9c-6 -3.33301 -12.333 -4.33301 -19 -3s-12 5.33301 -16 12c-2 6 -2.5 12.167 -1.5 18.5
s4.83301 11.5 11.5 15.5c2.66699 0.666992 7.33398 2 14.001 4s14.167 3.83301 22.5 5.5s17 3.66699 26 6s16.833 4.5 23.5 6.5l-23.5 7c-9 2.66699 -17.667 4.83398 -26 6.50098s-15.833 3.33398 -22.5 5.00098s-11.334 3.16699 -14.001 4.5
c-6.66699 4 -10.5 9.16699 -11.5 15.5s-0.5 12.5 1.5 18.5c4 6 9.33301 10 16 12s13 1 19 -3c2 -1.33301 5.5 -4.5 10.5 -9.5s10.333 -10.667 16 -17l18 -19.5c6.33301 -6.66699 12.5 -12.334 18.5 -17.001c-1.33301 7.33301 -3.33301 15.333 -6 24l-8 25.5l-7 22.5
c-2 6.66699 -3 11.667 -3 15c0 6 2.5 11.333 7.5 16s10.833 7 17.5 7s12.5 -2.33301 17.5 -7s7.5 -10 7.5 -16c0 -3.33301 -0.833008 -8.33301 -2.5 -15s-3.83398 -14.167 -6.50098 -22.5l-8 -25.5c-2.66699 -8.66699 -4.66699 -16.667 -6 -24
c6 4.66699 12.167 10.334 18.5 17.001l18 19.5l15.5 17c4.66699 5 8.33398 8.16699 11.001 9.5c6 4 12.333 5 19 3s11.334 -6 14.001 -12c4 -6 5 -12.167 3 -18.5s-6 -11.5 -12 -15.5c-2 -1.33301 -6.33301 -2.83301 -13 -4.5s-14.167 -3.33398 -22.5 -5.00098
s-17 -3.83398 -26 -6.50098l-23.5 -7c6.66699 -2 14.5 -4.16699 23.5 -6.5s17.667 -4.33301 26 -6s15.833 -3.5 22.5 -5.5s11 -3.33301 13 -4z" />
    <glyph glyph-name="plus" unicode="+" horiz-adv-x="330" 
d="M328 305v-30h-148v-149h-30v149h-147v30h147v146h30v-146h148z" />
    <glyph glyph-name="comma" unicode="," horiz-adv-x="122" 
d="M45 7c-14 6 -21 16.999 -21 32.999c0 10.667 3.83301 19.834 11.5 27.501s16.5 11.5 26.5 11.5c6.66699 0 12.667 -1.5 18 -4.5s9.66602 -6.5 12.999 -10.5v-1l1 -1c8 -10.667 12.167 -23 12.5 -37s-2 -29 -7 -45s-12.167 -31.167 -21.5 -45.5
s-20.333 -27.166 -33 -38.499l-17 4c13.333 16 23.666 29.667 30.999 41s11.833 21.166 13.5 29.499s0.833984 15 -2.49902 20s-8.66602 9.16699 -15.999 12.5l-9 3v1z" />
    <glyph glyph-name="hyphen" unicode="-" horiz-adv-x="226" 
d="M192 304v-39h-157v39h157z" />
    <glyph glyph-name="period" unicode="." horiz-adv-x="128" 
d="M68 80c11.333 -1.33301 20.666 -6.33008 27.999 -14.9971s10.333 -18.334 9 -29.001c-1.33301 -11.333 -6.33301 -20.5 -15 -27.5s-18.667 -9.83301 -30 -8.5c-10.667 1.33301 -19.667 6.16602 -27 14.499s-10.333 18.166 -9 29.499s6.33301 20.333 15 27
s18.334 9.66699 29.001 9z" />
    <glyph glyph-name="slash" unicode="/" horiz-adv-x="213" 
d="M211 716l-183 -717h-26l92 358l33.5 132l30 115l21.5 81.5l8 30.5h24z" />
    <glyph glyph-name="zero" unicode="0" horiz-adv-x="327" 
d="M96 351c0 -57.333 0.665039 -106.833 1.99805 -148.5s4.33301 -76.334 9 -104.001s11.334 -48.167 20.001 -61.5s20.334 -20 35.001 -20s26.334 6.66699 35.001 20s15.334 33.833 20.001 61.5s7.83398 62.334 9.50098 104.001s2.5 91.167 2.5 148.5
c0 56.667 -0.666992 105.834 -2 147.501s-4.33301 76 -9 103s-11.334 47.167 -20.001 60.5s-20.667 20 -36 20c-14.667 0 -26.334 -6.66699 -35.001 -20s-15.334 -33.5 -20.001 -60.5s-7.66699 -61.333 -9 -103s-2 -90.834 -2 -147.501v0zM161.998 709
c26.667 0 48.6689 -7.16406 66.002 -21.4971s31.333 -36.333 42 -66s18.167 -67.167 22.5 -112.5s6.5 -99.333 6.5 -162s-2.66699 -116.334 -8 -161.001s-13.5 -81.334 -24.5 -110.001s-25.167 -49.834 -42.5 -63.501s-38 -20.5 -62 -20.5c-23.333 0 -43.5 6.66699 -60.5 20
s-31 34.166 -42 62.499s-19.167 64.5 -24.5 108.5s-8 97 -8 159c0 58.667 2.16699 110.834 6.5 156.501s11.666 84.167 21.999 115.5s24.166 55 41.499 71s39 24 65 24z" />
    <glyph glyph-name="one" unicode="1" horiz-adv-x="162" 
d="M118 54c0 -9.33301 1.33105 -16.166 3.99805 -20.499s5.33398 -6.83301 8.00098 -7.5c4 -2 8.66699 -2 14 0v-26h-130v26c6 -2 12 -2 18 0c4 0.666992 8 3.16699 12 7.5s6 11.166 6 20.499v567c0 10 -2 17 -6 21s-8 6.66699 -12 8c-6 2 -12 2 -18 0v25
c12.667 0.666992 24.667 2.66699 36 6c8.66699 3.33301 16.834 7.5 24.501 12.5s11.5 11.833 11.5 20.5h32v-54v-606z" />
    <glyph glyph-name="two" unicode="2" horiz-adv-x="352" 
d="M324 107c2.66699 -20 2.3291 -38.332 -1.00391 -54.999c-2.66699 -14 -9.66699 -27.167 -21 -39.5s-29.333 -19.833 -54 -22.5c-21.333 -2 -38.5 -0.833008 -51.5 3.5s-24.5 9.66602 -34.5 15.999l-27.5 18c-8.33301 5.66699 -18.166 8.5 -29.499 8.5
c-12 0 -21 -1.66699 -27 -5s-10.667 -7.66602 -14 -12.999c-4 -6 -6.33301 -11.667 -7 -17h-29c0 15.333 1 30.666 3 45.999c1.33301 13.333 3.66602 28 6.99902 44s8.66602 31.667 15.999 47c6 14.667 13.833 29.834 23.5 45.501s19.667 31 30 46l30.5 43
c10 13.667 19.333 25.5 28 35.5c14.667 17.333 26.334 36.333 35.001 57s15.167 42 19.5 64s6.83301 44.667 7.5 68s0.666992 46.666 0 69.999c-0.666992 19.333 -1.5 37.166 -2.5 53.499s-4 30.333 -9 42s-12.333 20.834 -22 27.501s-22.5 10 -38.5 10
c-17.333 0 -32 -4 -44 -12s-21.667 -17.667 -29 -29c-5.33301 -11.333 -7.33301 -22.166 -6 -32.499s7 -17.166 17 -20.499c2.66699 0 4.33398 -0.333008 5.00098 -1c10.667 -2.66699 19.667 -8.33398 27 -17.001s11 -19 11 -31c0 -14.667 -4.83301 -27 -14.5 -37
s-21.5 -15 -35.5 -15c-15.333 0 -27.666 5 -36.999 15s-15.833 22.333 -19.5 37s-4 31.167 -1 49.5s8.66699 35.333 17 51s20 29.5 35 41.5s32.833 20 53.5 24c31.333 5.33301 58.666 4.5 81.999 -2.5s42.333 -18.667 57 -35s25.334 -35.666 32.001 -57.999
s9.66699 -46.166 9 -71.499c-0.666992 -17.333 -2.33398 -36 -5.00098 -56s-7.66699 -40.5 -15 -61.5s-17.666 -42.833 -30.999 -65.5s-30.666 -45.334 -51.999 -68.001c-40 -43.333 -73.333 -85.166 -100 -125.499s-45.334 -82.5 -56.001 -126.5
c13.333 19.333 28.333 30.666 45 33.999s33.334 2.66602 50.001 -2.00098s32.834 -11.5 48.501 -20.5s29.167 -15.5 40.5 -19.5c16 -6 27.5 -6.16699 34.5 -0.5s11.833 13.167 14.5 22.5c3.33301 11.333 5 24.666 5 39.999h30z" />
    <glyph glyph-name="three" unicode="3" horiz-adv-x="339" 
d="M231 357c23.333 -10 42.667 -31.3301 58 -63.9971s23 -75 23 -127c0 -24.667 -3.33301 -47.667 -10 -69s-16.5 -39.833 -29.5 -55.5s-28.833 -28.167 -47.5 -37.5s-40 -14 -64 -14c-5.33301 0 -10 0.333008 -14 1s-8.33301 1.66699 -13 3c-20 4 -37.5 11.833 -52.5 23.5
s-26.667 25.334 -35 41.001s-14 32.167 -17 49.5s-2.66699 33.166 1 47.499s10 26.166 19 35.499s21.167 14 36.5 14c14 0 25.833 -4.83301 35.5 -14.5s14.5 -21.5 14.5 -35.5c0 -11.333 -3.66699 -21.166 -11 -29.499s-16.333 -14.166 -27 -17.499
c-0.666992 -0.666992 -2 -1 -4 -1c-10.667 -2.66699 -16.667 -9.16699 -18 -19.5s0.666992 -20.833 6 -31.5c7.33301 -10.667 16.833 -19.834 28.5 -27.501s26.167 -11.5 43.5 -11.5c16.667 0 29.667 3.16699 39 9.5s16.333 15.166 21 26.499s7.83398 24.833 9.50098 40.5
s2.83398 33.167 3.50098 52.5v60c0 20.667 -1.83301 40.334 -5.5 59.001s-9.16699 34.667 -16.5 48s-18 23.333 -32 30c-2 0.666992 -6.16699 1.16699 -12.5 1.5s-12.833 0.5 -19.5 0.5c-8.66699 0 -18 -0.333008 -28 -1v27c10.667 -0.666992 20 -1 28 -1
c6.66699 0 13.167 0.166992 19.5 0.5s10.5 1.16602 12.5 2.49902c13.333 4.66699 23.666 14 30.999 28s12.833 30.333 16.5 49s5.66699 38.5 6 59.5s0.5 40.833 0.5 59.5c-0.666992 19.333 -1.83398 36.833 -3.50098 52.5s-4.83398 29.334 -9.50098 41.001
s-11.667 20.667 -21 27s-22.333 9.5 -39 9.5c-17.333 0 -31.833 -3.83301 -43.5 -11.5s-21.167 -16.834 -28.5 -27.501c-5.33301 -11.333 -7.33301 -21.833 -6 -31.5s7.33301 -16.167 18 -19.5c0.666992 -0.666992 2 -1 4 -1c10.667 -2.66699 19.667 -8.33398 27 -17.001
s11 -19 11 -31c0 -13.333 -4.83301 -24.833 -14.5 -34.5s-21.5 -14.5 -35.5 -14.5c-15.333 0 -27.5 4.66699 -36.5 14s-15.333 21.333 -19 36s-4 30.667 -1 48s8.66699 33.666 17 48.999s19.833 28.666 34.5 39.999s32.334 19 53.001 23c4.66699 1.33301 9 2.33301 13 3
s8.66699 1.33398 14 2.00098c48.667 0 86 -16.833 112 -50.5s39 -78.5 39 -134.5c0 -18 -2 -36.833 -6 -56.5s-9.66699 -38 -17 -55s-16 -32 -26 -45s-20.667 -22.167 -32 -27.5z" />
    <glyph glyph-name="four" unicode="4" horiz-adv-x="323" 
d="M247 243l-0.000976562 -189c0 -10 1.5 -17 4.5 -21s5.83301 -6.33301 8.5 -7c3.33301 -2 8 -2 14 0v-26h-131v26c6 -2 11.667 -2 17 0c4.66699 0.666992 8.83398 3 12.501 7s5.5 11 5.5 21v189h-175v30l206 441h38v-447h59v-24h-59zM177.999 592l-151 -325h151v325z" />
    <glyph glyph-name="five" unicode="5" horiz-adv-x="331" 
d="M160 446c24 0 45.332 -4.67578 63.999 -14.0088s34.5 -22 47.5 -38s22.833 -35.167 29.5 -57.5s10 -46.166 10 -71.499v-92c0 -25.333 -3.33301 -49 -10 -71s-16.5 -41 -29.5 -57s-28.833 -28.833 -47.5 -38.5s-40 -14.5 -64 -14.5
c-5.33301 0.666992 -10 1.33398 -14 2.00098s-8.33301 1.66699 -13 3c-20 4 -37.5 12 -52.5 24s-26.667 25.833 -35 41.5s-14 32.5 -17 50.5s-2.66699 34.333 1 49s10 26.834 19 36.501s21.167 14.5 36.5 14.5c14 0 25.833 -5 35.5 -15s14.5 -22 14.5 -36
c0 -12 -3.66699 -22.333 -11 -31s-16.333 -14.334 -27 -17.001c-0.666992 -0.666992 -2 -1 -4 -1c-10.667 -3.33301 -16.667 -10.166 -18 -20.499s0.666992 -21.166 6 -32.499c8 -10.667 17.667 -20 29 -28s25.666 -12 42.999 -12c16.667 0 29.667 3.33301 39 10
s16.333 15.834 21 27.501s7.83398 25.5 9.50098 41.5s2.83398 34 3.50098 54c0.666992 8.66699 1 17.834 1 27.501v29.5v17.5v20.5c0 7.33301 -0.166992 14.333 -0.5 21s-0.5 12.334 -0.5 17.001c-0.666992 19.333 -1.83398 37.166 -3.50098 53.499
s-4.83398 30.333 -9.50098 42s-11.667 20.834 -21 27.501s-22.333 10 -39 10c-17.333 0 -31.666 -4 -42.999 -12s-21 -17.333 -29 -28l-4 -8h-22v348c30.667 0 58 -1.66699 82 -5s44.667 -6 62 -8s31 -1.66699 41 1s16 9.66699 18 21h23
c0.666992 -11.333 -0.666016 -22.666 -3.99902 -33.999c-3.33301 -9.33301 -8.5 -18.666 -15.5 -27.999s-18.5 -16.666 -34.5 -21.999c-10.667 -3.33301 -22.834 -5.5 -36.501 -6.5s-27.167 -1.33301 -40.5 -1s-26.5 1.16602 -39.5 2.49902s-24.167 3 -33.5 5v-227
c8.66699 6.66699 19.834 13.167 33.501 19.5s30.167 9.5 49.5 9.5z" />
    <glyph glyph-name="six" unicode="6" horiz-adv-x="350" 
d="M190 417c16 -1.33301 32.3369 -7.33789 49.0039 -18.0049s31.667 -26 45 -46s23.666 -44.167 30.999 -72.5s10 -60.166 8 -95.499c-1.33301 -27.333 -5 -51.333 -11 -72s-14 -38.334 -24 -53.001c-2 -6 -5.66699 -11.667 -11 -17c-14 -17.333 -29.667 -30.333 -47 -39
c-6.66699 -4 -13.334 -7.33301 -20.001 -10s-13.334 -4 -20.001 -4c-24 0 -45 5 -63 15s-33.167 23.5 -45.5 40.5s-22.166 36.5 -29.499 58.5s-12 44.333 -14 67c-2 23.333 -4 51.333 -6 84s-3.33301 66.334 -4 101.001s-0.166992 68.834 1.5 102.501s4.5 62.167 8.5 85.5
s9.66699 46.333 17 69s17.666 42.334 30.999 59.001s30.5 29.667 51.5 39s47.5 12.333 79.5 9c20 -2 37 -8.33301 51 -19s24.5 -23.5 31.5 -38.5s11 -31 12 -48s-0.833008 -32.667 -5.5 -47s-12.167 -26.166 -22.5 -35.499s-22.833 -14 -37.5 -14c-14 0 -26 5 -36 15
s-15 21.667 -15 35c0 12 3.5 22.667 10.5 32s15.833 15.333 26.5 18c2 0 3.33301 0.333008 4 1c10.667 3.33301 18 9.33301 22 18s4.5 17.334 1.5 26.001s-9 16.5 -18 23.5s-21.833 10.5 -38.5 10.5c-16 0 -29.167 -5.83301 -39.5 -17.5s-18.833 -26.834 -25.5 -45.501
s-11.667 -39 -15 -61s-6 -43.333 -8 -64c-0.666992 -16 -1.33398 -35.667 -2.00098 -59s-1 -48.666 -1 -75.999c20 32 46 46.333 78 43zM188.004 392.995c-16 1.33301 -30.8369 -4.66699 -44.5039 -18s-24.167 -37 -31.5 -71c0.666992 -16.667 1.16699 -33.167 1.5 -49.5
s0.833008 -32 1.5 -47s1.33398 -28.667 2.00098 -41s1.66699 -21.833 3 -28.5c4.66699 -36.667 8.83398 -64.167 12.501 -82.5s12.167 -30.166 25.5 -35.499c8.66699 -2.66699 17.334 -4.66699 26.001 -6c20.667 -1.33301 36.334 11.667 47.001 39s18 72.666 22 135.999
c2 32.667 1.66699 61.667 -1 87s-7 46.666 -13 63.999s-13.5 30.333 -22.5 39s-18.5 13.334 -28.5 14.001z" />
    <glyph glyph-name="seven" unicode="7" horiz-adv-x="333" 
d="M321 714c0.666992 -14 0.332031 -29.6611 -1.00098 -46.9941c-1.33301 -14.667 -3 -31.334 -5 -50.001s-4.66699 -37.667 -8 -57c-4 -21.333 -8.83301 -39.833 -14.5 -55.5s-12.5 -30.667 -20.5 -45s-17.333 -29.5 -28 -45.5s-22.334 -34.667 -35.001 -56
c-13.333 -21.333 -22.166 -45.333 -26.499 -72s-6.33301 -52.834 -6 -78.501s1.83301 -49.834 4.5 -72.501s4 -40.667 4 -54c1.33301 -26.667 -2.83398 -48.5 -12.501 -65.5s-21.5 -25.5 -35.5 -25.5c-6.66699 0 -13.667 1 -21 3s-14.333 6.16699 -21 12.5
s-12.334 15.666 -17.001 27.999s-7.66699 29.166 -9 50.499s0.5 45.5 5.5 72.5s13.167 55.667 24.5 86s26.166 61.333 44.499 93s40.166 62.167 65.499 91.5c19.333 24 34.5 47.833 45.5 71.5s19.333 46 25 67s9 39.833 10 56.5s1.5 30 1.5 40
c-13.333 -18.667 -27.833 -30.5 -43.5 -35.5s-31.667 -5.83301 -48 -2.5s-32.166 8.66602 -47.499 15.999s-28.666 13 -39.999 17c-15.333 6 -27 6.33301 -35 1s-13.667 -12.333 -17 -21c-3.33301 -10 -5 -22.667 -5 -38h-30v117h101c14.667 0 27.334 -1.83301 38.001 -5.5
s20.167 -7.66699 28.5 -12l24 -13c7.66699 -4.33301 16.834 -6.5 27.501 -6.5c11.333 0 20 1.83301 26 5.5s10.667 7.5 14 11.5c2.66699 6 4.33398 12 5.00098 18h32z" />
    <glyph glyph-name="eight" unicode="8" horiz-adv-x="336" 
d="M26 536c-0.666992 8.66699 -0.666992 17.5049 0 26.5049s2.33398 18.167 5.00098 27.5c2.66699 10.667 6.83398 23.834 12.501 39.501s13.5 30.167 23.5 43.5s22.667 24.833 38 34.5s34 14.5 56 14.5c21.333 0 40.333 -4.33301 57 -13s30.5 -19.334 41.5 -32.001
s19.167 -26.334 24.5 -41.001s7.66602 -29 6.99902 -43c-1.33301 -40.667 -10.5 -78 -27.5 -112s-37.833 -66 -62.5 -96c46 -52 76.5 -99.667 91.5 -143s17.833 -85 8.5 -125c-4 -14 -8.83301 -27.667 -14.5 -41s-12.834 -25.5 -21.501 -36.5s-19.167 -20.5 -31.5 -28.5
s-27.166 -13.333 -44.499 -16c-3.33301 -1.33301 -6.33301 -2 -9 -2h-9h-3h-3c-4 -0.666992 -9 -0.333984 -15 0.999023c-14 1.33301 -26.5 4.16602 -37.5 8.49902s-20.833 10.166 -29.5 17.499c-20.667 16.667 -35.334 38.334 -44.001 65.001
c-2 9.33301 -3.33301 18.666 -4 27.999c-2 19.333 -2.16699 38.166 -0.5 56.499s5.66699 37 12 56s15.833 38.5 28.5 58.5s28.667 41.667 48 65c-32 36 -55.833 68.5 -71.5 97.5s-24.167 58.833 -25.5 89.5zM234 52.0049c19.333 22 28.499 44.832 27.499 68.499
s-7 46.834 -18 69.501s-25 43.834 -42 63.501l-46.5 52.5l-5 6c-13.333 -16 -26.666 -34.833 -39.999 -56.5s-23.5 -44.334 -30.5 -68.001s-9.5 -47.334 -7.5 -71.001s11.667 -45.834 29 -66.501c8 -8 18.167 -14.833 30.5 -20.5s24.5 -8.5 36.5 -8.5h1
c12 0.666992 24.167 3.83398 36.5 9.50098s21.833 12.834 28.5 21.501zM99.999 666.004c-17.333 -20 -26.001 -41.834 -26.001 -65.501s5 -47 15 -70s23 -45.167 39 -66.5s31.333 -40 46 -56c13.333 17.333 26.333 37.333 39 60s22.334 45.667 29.001 69
s8.83398 46.333 6.50098 69s-11.833 43.334 -28.5 62.001c-6.66699 6.66699 -15 12.667 -25 18s-21.667 8 -35 8c-14 0 -25.833 -2.83301 -35.5 -8.5s-17.834 -12.167 -24.501 -19.5z" />
    <glyph glyph-name="nine" unicode="9" horiz-adv-x="352" 
d="M319 541c2 -22.667 3.49609 -48.833 4.49609 -78.5s1.33301 -60.5 1 -92.5s-1.16602 -63.833 -2.49902 -95.5s-3.66602 -60.167 -6.99902 -85.5c-1.33301 -7.33301 -3.5 -17.5 -6.5 -30.5s-7.33301 -27.167 -13 -42.5s-13 -30.833 -22 -46.5s-19.833 -29.667 -32.5 -42
s-27.334 -21.666 -44.001 -27.999s-35.334 -9.16602 -56.001 -8.49902c-20.667 2 -37.834 8.5 -51.501 19.5s-24.167 24 -31.5 39s-11.5 31 -12.5 48s0.833008 32.667 5.5 47s12.334 26.333 23.001 36s23.334 14.5 38.001 14.5c13.333 0 25 -5.16699 35 -15.5
s15 -22.5 15 -36.5c0 -12 -3.5 -22.333 -10.5 -31s-15.833 -14.334 -26.5 -17.001c-0.666992 0 -1.33398 -0.166992 -2.00098 -0.5s-1.66699 -0.5 -3 -0.5c-10 -4 -16.833 -10.167 -20.5 -18.5s-4.16699 -17 -1.5 -26s8.66699 -17 18 -24s22 -10.5 38 -10.5
c16.667 0 30 5.83301 40 17.5s18.167 26.667 24.5 45s11.166 38.5 14.499 60.5s6 43.667 8 65c0.666992 6 1.33398 13.833 2.00098 23.5s1.16699 20 1.5 31l1 33c0.333008 11 0.5 21.5 0.5 31.5c-21.333 -25.333 -46.666 -37 -75.999 -35
c-17.333 1.33301 -34.833 6.66602 -52.5 15.999s-33.5 23.5 -47.5 42.5s-25.167 42.833 -33.5 71.5s-11.166 61.667 -8.49902 99c2.66699 32.667 7.83398 61 15.501 85s17.5 44 29.5 60l2 2v1c0.666992 1.33301 1.16699 2.16602 1.5 2.49902s0.833008 1.16602 1.5 2.49902
c10 10.667 20.667 20.334 32 29.001c8.66699 7.33301 17.834 13.166 27.501 17.499s19.5 6.83301 29.5 7.5c24 0.666992 45 -4.16602 63 -14.499s33 -24.166 45 -41.499s21.667 -36.833 29 -58.5s12.333 -44.167 15 -67.5zM170.996 313.001
c15.333 -1.33301 29.502 2.99902 42.502 12.999s23.833 28.667 32.5 56c0 19.333 -0.333008 38.833 -1 58.5s-1.33398 38.167 -2.00098 55.5s-1.5 32.833 -2.5 46.5s-2.16699 24.834 -3.5 33.501c-2 16.667 -4 32.334 -6 47.001s-4.83301 27.334 -8.5 38.001
s-9.16699 19.167 -16.5 25.5s-17.666 9.5 -30.999 9.5c-10.667 0 -20.167 -3.33301 -28.5 -10s-15.333 -17 -21 -31s-10.334 -32.833 -14.001 -56.5s-6.83398 -52.167 -9.50098 -85.5c-2.66699 -35.333 -2.33398 -65.333 0.999023 -90s8 -45.334 14 -62.001
s13.833 -28.834 23.5 -36.501s19.834 -11.5 30.501 -11.5z" />
    <glyph glyph-name="colon" unicode=":" horiz-adv-x="138" 
d="M110 351c0 -12 -3.83301 -21.833 -11.5 -29.5s-17.167 -11.5 -28.5 -11.5c-12 0 -22 3.83301 -30 11.5s-12 17.5 -12 29.5s4 21.833 12 29.5s18 11.5 30 11.5c11.333 0 20.833 -3.83301 28.5 -11.5s11.5 -17.5 11.5 -29.5zM110 125c0 -12 -3.83301 -21.833 -11.5 -29.5
s-17.167 -11.5 -28.5 -11.5c-12 0 -22 3.83301 -30 11.5s-12 17.5 -12 29.5c0 11.333 4 21 12 29s18 12 30 12c11.333 0 20.833 -4 28.5 -12s11.5 -17.667 11.5 -29z" />
    <glyph glyph-name="semicolon" unicode=";" horiz-adv-x="126" 
d="M43 86c-6 3.33301 -11.167 8.16895 -15.5 14.502s-6.5 13.5 -6.5 21.5c0 11.333 4 20.666 12 27.999s17.333 11 28 11c13.333 0 24 -4.66699 32 -14v-1c0.666992 0 1 -0.666992 1 -2c8 -10 12.333 -22.5 13 -37.5s-1.5 -30.5 -6.5 -46.5s-12.5 -31.667 -22.5 -47
s-21.667 -29 -35 -41l-18 4c14 17.333 24.833 32 32.5 44s12.334 22.167 14.001 30.5s0.666992 15.166 -3 20.499s-8.83398 9.33301 -15.501 12c-1.33301 0.666992 -3 1.16699 -5 1.5s-3.66699 0.833008 -5 1.5zM106 347.003c0 -11.333 -4 -21.166 -12 -29.499
s-18 -12.5 -30 -12.5c-11.333 0 -21.166 4.16699 -29.499 12.5s-12.5 18.166 -12.5 29.499s4.16699 21 12.5 29s18.166 12 29.499 12c12 0 22 -4 30 -12s12 -17.667 12 -29z" />
    <glyph glyph-name="less" unicode="&#x3c;" 
d="M348 433l-0.000976562 -21l-87.5 -29l-86.5 -30.5c-28 -10.333 -54.167 -19.5 -78.5 -27.5l-64.5 -22c18.667 -6 40.167 -13.333 64.5 -22l78.5 -27.5l86.5 -30.5c29.667 -10.667 58.834 -20.667 87.501 -30v-21l-347 121v20z" />
    <glyph glyph-name="equal" unicode="=" horiz-adv-x="395" 
d="M35 402h325v-31h-325v31zM35 241h325v-30h-325v30z" />
    <glyph glyph-name="greater" unicode="&#x3e;" horiz-adv-x="380" 
d="M379 315l-0.000976562 -20l-347 -120v21c28.667 9.33301 57.834 19.333 87.501 30l86.5 30.5l79 27c24.667 8.33301 45.667 15.833 63 22.5l-63 21.5l-79 27.5l-86.5 30.5l-87.5 29.5v21z" />
    <glyph glyph-name="question" unicode="?" horiz-adv-x="301" 
d="M131 76c11.333 -1.33301 20.6631 -6.33301 27.9961 -15s10.333 -18.334 9 -29.001c-1.33301 -11.333 -6.16602 -20.5 -14.499 -27.5s-18.166 -9.83301 -29.499 -8.5s-20.5 6.33301 -27.5 15s-9.83301 18.334 -8.5 29.001c0.666992 11.333 5.33398 20.5 14.001 27.5
s18.334 9.83301 29.001 8.5zM115.997 715c22 4 44.3311 3.99805 66.998 -0.00195312c19.333 -2.66699 36 -9.66699 50 -21s25.333 -24.5 34 -39.5s15 -31.667 19 -50s6 -36.5 6 -54.5c0 -23.333 -2.66699 -45.166 -8 -65.499s-13 -40 -23 -59s-21 -37.5 -33 -55.5
s-24.667 -35.667 -38 -53c-10 -12 -18 -24.5 -24 -37.5s-11.667 -26.833 -17 -41.5s-8.66602 -28.667 -9.99902 -42c-0.666992 -7.33301 -1 -14.666 -1 -21.999h-20c-6 26 -7.16699 54.167 -3.5 84.5s11.5 57.166 23.5 80.499c4.66699 10.667 10.167 21.334 16.5 32.001
l18.5 31.5c6 10.333 11.667 20.666 17 30.999s9.33301 21.5 12 33.5c6.66699 25.333 9.5 51.333 8.5 78s-3.83301 52.667 -8.5 78c-2.66699 20 -8.66699 36.667 -18 50s-25 20 -47 20c-18 0 -32.667 -3.83301 -44 -11.5s-20.333 -16.834 -27 -27.501
c-6 -11.333 -8.16699 -22.166 -6.5 -32.499s7.5 -16.833 17.5 -19.5c0.666992 -0.666992 2.33398 -1 5.00098 -1c10 -2.66699 17.5 -6.5 22.5 -11.5s7.5 -13.5 7.5 -25.5c0 -14 -4 -25.333 -12 -34s-18.667 -13 -32 -13c-14 0 -25.667 4.33301 -35 13
s-15.5 19.834 -18.5 33.501s-3.5 28.667 -1.5 45s7.5 31.666 16.5 45.999s20.5 27.333 34.5 39s31.333 18.834 52 21.501z" />
    <glyph glyph-name="at" unicode="@" horiz-adv-x="660" 
d="M341 579c40.667 0 79.3398 -7.67676 116.007 -23.0098s68.667 -36 96 -62s48.833 -56.833 64.5 -92.5s23.5 -74.5 23.5 -116.5c0 -32 -7.16699 -62.667 -21.5 -92s-34.833 -52.666 -61.5 -69.999c-6.66699 -4 -14.334 -7.16699 -23.001 -9.5
s-17.834 -3.66602 -27.501 -3.99902s-19 0.333984 -28 2.00098s-17.167 3.83398 -24.5 6.50098c-16.667 6.66699 -29.667 18.667 -39 36s-13.333 34.666 -12 51.999c-4.66699 -10.667 -11 -21.167 -19 -31.5s-17 -19.666 -27 -27.999s-20.833 -15.333 -32.5 -21
s-24.5 -8.5 -38.5 -8.5c-26 0 -47.167 7.16699 -63.5 21.5s-27 33 -32 56s-4.33301 49.333 2 79s19.5 60.834 39.5 93.501c19.333 30.667 40.166 52.5 62.499 65.5s44 19.667 65 20s40.167 -4.33398 57.5 -14.001s30.666 -20.5 39.999 -32.5l-2 -12c3.33301 8 6 15.5 8 22.5
s4 13.5 6 19.5l53 -2l-34 -114l-11.5 -43.5c-3.66699 -14.333 -6.83398 -27.666 -9.50098 -39.999s-4.66699 -23.166 -6 -32.499s-1.33301 -15.666 0 -18.999c1.33301 -6.66699 3 -14 5 -22s6 -13.667 12 -17c8 -4 16.667 -6.16699 26 -6.5s18.5 0.666992 27.5 3
s17.5 5.83301 25.5 10.5s14 10 18 16c12 16.667 21.833 35.834 29.5 57.501s11.5 42.834 11.5 63.501c0 38 -7.33301 73.167 -22 105.5s-34.667 60.333 -60 84s-54.5 42.334 -87.5 56.001s-67.833 20.5 -104.5 20.5s-70.834 -8.5 -102.501 -25.5
s-58.834 -39.167 -81.501 -66.5s-40.334 -59 -53.001 -95s-18.667 -73 -18 -111c0 -29.333 2.5 -57.666 7.5 -84.999s14.5 -51.666 28.5 -72.999s33.667 -38.5 59 -51.5s59 -19.833 101 -20.5c21.333 -0.666992 39.333 1.33301 54 6s26.334 9.33398 35.001 14.001
c10.667 7.33301 19 15 25 23l14 -24c-8.66699 -9.33301 -18.667 -17 -30 -23c-10 -6.66699 -22.5 -12.334 -37.5 -17.001s-33.833 -7 -56.5 -7c-83.333 0 -147.833 22.167 -193.5 66.5s-68.5 108.166 -68.5 191.499c0 49.333 8.5 93.666 25.5 132.999s40 72.833 69 100.5
s62.5 49.167 100.5 64.5s78 23 120 23zM285.006 374.99c-12.667 -19.333 -21.665 -40.168 -26.998 -62.501s-7.83301 -43.333 -7.5 -63s3.33301 -37.167 9 -52.5s13.5 -26.5 23.5 -33.5s22.333 -8.66699 37 -5s31 14.834 49 33.501c8 9.33301 15.5 17.333 22.5 24
s13.167 13 18.5 19c2.66699 8.66699 5.5 18.667 8.5 30l10 36c3.66699 12.667 7.66699 25.667 12 39s8.16602 26 11.499 38c-6 8 -14.833 18.167 -26.5 30.5s-25.334 21 -41.001 26s-32.167 3.83301 -49.5 -3.5s-34 -26 -50 -56z" />
    <glyph glyph-name="A" unicode="A" horiz-adv-x="383" 
d="M332 53c1.33301 -9.33301 4.16992 -16 8.50293 -20s9.16602 -6.66699 14.499 -8s11.333 -1.33301 18 0v-25h-147v25c6 -1.33301 11.333 -1.33301 16 0c3.33301 1.33301 6.33301 4 9 8s3.33398 10.667 2.00098 20c0 1.33301 -1.83301 13.166 -5.5 35.499
s-8.16699 51.833 -13.5 88.5h-128c-6.66699 -36.667 -11.834 -66.167 -15.501 -88.5s-5.5 -34.166 -5.5 -35.499c-2 -9.33301 -1.83301 -16 0.5 -20s5.16602 -6.66699 8.49902 -8c4 -1.33301 9.33301 -1.33301 16 0v-25h-96v25c6 -1.33301 12 -1.33301 18 0
c5.33301 1.33301 10.166 4 14.499 8s7.5 10.667 9.5 20c0 0.666992 1.66699 10.5 5 29.5l13.5 75l19.5 105.5l22 121l60 328h51l52 -327l19 -121l16.5 -105.5l12.5 -75.5c3.33301 -19.333 5 -29.333 5 -30zM110.004 203h120.999l-13.5 88l-15 94.5l-15 92.5l-13.5 83
c-5.33301 -25.333 -10.666 -53 -15.999 -83l-16.5 -92.5l-16.5 -94.5z" />
    <glyph glyph-name="B" unicode="B" horiz-adv-x="337" 
d="M314 489c0 -22 -3 -41.1641 -9 -57.4971s-13.167 -30 -21.5 -41s-17.333 -19.333 -27 -25s-18.5 -8.5 -26.5 -8.5c7.33301 0 15.833 -2.66699 25.5 -8s18.834 -13.5 27.501 -24.5s16 -25 22 -42s9 -37.167 9 -60.5v-85c0 -18 -3.33301 -35.167 -10 -51.5
s-15.334 -30.833 -26.001 -43.5s-22.334 -22.834 -35.001 -30.501s-25 -11.5 -37 -11.5h-95c-25.333 0 -53 0.333008 -83 1v25c4.66699 -2 8.66699 -2 12 0c3.33301 1.33301 6.33301 4.16602 9 8.49902s4 11.166 4 20.499v604c0 9.33301 -1.33301 16.166 -4 20.499
s-5.66699 7.16602 -9 8.49902s-7.33301 1.33301 -12 0v25h154c23.333 0 43.333 -3.66699 60 -11s30.334 -17.166 41.001 -29.499s18.5 -26.166 23.5 -41.499s7.5 -31 7.5 -47v-95zM122 690.003l0.000976562 -320.999h49c14.667 0 28.334 3.16699 41.001 9.5
s22.667 18.833 30 37.5c1.33301 3.33301 2.16602 6.66602 2.49902 9.99902s1.16602 6.66602 2.49902 9.99902c0 2 0.333008 3.66699 1 5c1.33301 7.33301 2.33301 15 3 23s1 17 1 27v113c0 17.333 -2.83301 31.833 -8.5 43.5s-12.167 20.834 -19.5 27.501
c-6.66699 4.66699 -14 8 -22 10s-16.667 3.66699 -26 5h-54zM122.001 24.0039l42 0.00195312c18 0 35.167 5.33301 51.5 16s27.166 28.667 32.499 54c1.33301 6 2.33301 12.167 3 18.5s1 13.166 1 20.499v90c0 13.333 -1 25.666 -3 36.999c0 1.33301 -0.333008 2.33301 -1 3
v2l-2 10.5c-0.666992 3.66699 -1.66699 7.16699 -3 10.5c-7.33301 20 -17.666 34.667 -30.999 44s-27 14 -41 14h-49v-320z" />
    <glyph glyph-name="C" unicode="C" horiz-adv-x="337" 
d="M173 690c-10.667 -1.33301 -20.5029 -4 -29.5029 -8s-17 -10.333 -24 -19s-12.5 -20 -16.5 -34s-6 -31.333 -6 -52c0 -28 -0.166992 -61.5 -0.5 -100.5s-0.5 -79.167 -0.5 -120.5c0 -42 0.166992 -82.667 0.5 -122s0.5 -73 0.5 -101c0 -42 7.16699 -71.833 21.5 -89.5
s32.166 -26.5 53.499 -26.5c17.333 0 33 2.33301 47 7s26 12.334 36 23.001s17.667 24.834 23 42.501s8 39.5 8 65.5v27h23v-51c0 -43.333 -11.833 -77 -35.5 -101s-57.167 -35.667 -100.5 -35c-20.667 0 -41.5 5.16699 -62.5 15.5s-38.167 25.5 -51.5 45.5
c-8.66699 12.667 -15.167 27.167 -19.5 43.5s-7.33301 36.333 -9 60s-2.5 51.5 -2.5 83.5v113c0 58 0.333008 106.167 1 144.5s3.33398 70.166 8.00098 95.499c2.66699 21.333 9.5 40.166 20.5 56.499s24.167 29.5 39.5 39.5c24.667 15.333 50 23 76 23h9.5
c3 0 6.16699 -0.333008 9.5 -1l-2 2c4 -1.33301 6.66699 -2 8 -2c15.333 -3.33301 27.666 -7.33301 36.999 -12l24 -12c5.33301 -2 10 -2 14 0c8 4.66699 12 13.334 12 26.001c1.33301 0 2.33301 -0.166992 3 -0.5s1.33398 -0.5 2.00098 -0.5h19v-175h-22
c-0.666992 10.667 -1.66699 21.667 -3 33c-1.33301 9.33301 -3.16602 19.666 -5.49902 30.999s-6.16602 22.333 -11.499 33c-1.33301 2.66699 -4.16602 7.33398 -8.49902 14.001s-10.333 13.167 -18 19.5s-17.167 11.666 -28.5 15.999s-24.333 5.5 -39 3.5z" />
    <glyph glyph-name="D" unicode="D" horiz-adv-x="365" 
d="M336 568v-422.998c0 -18 -3.16699 -35.667 -9.5 -53s-15.833 -32.833 -28.5 -46.5s-28.5 -24.667 -47.5 -33s-41.167 -12.5 -66.5 -12.5h-8.5c-5 0 -11.167 -0.166992 -18.5 -0.5s-15.5 -0.5 -24.5 -0.5h-27.5h-74v26c4.66699 -1.33301 9 -1.33301 13 0
c3.33301 1.33301 6.33301 4 9 8s4 10.667 4 20v606c0 9.33301 -1.33301 16.166 -4 20.499s-5.66699 7.16602 -9 8.49902c-4 1.33301 -8.33301 1.33301 -13 0v25h153c25.333 0 47.5 -4.16699 66.5 -12.5s34.833 -19.333 47.5 -33s22.167 -29.167 28.5 -46.5s9.5 -35 9.5 -53z
M126 687.002l-0.000976562 -659.999h60c11.333 1.33301 23 4.5 35 9.5s22.333 13.167 31 24.5c10.667 15.333 16.334 36.333 17.001 63v466c0 12 -1.66699 23.667 -5 35c-4.66699 14 -11.167 25.167 -19.5 33.5s-17.5 14.666 -27.5 18.999s-20.167 7 -30.5 8
s-19.5 1.5 -27.5 1.5h-33z" />
    <glyph glyph-name="E" unicode="E" horiz-adv-x="337" 
d="M306 105v-104.997h-279v26c5.33301 -2 9.33301 -2 12 0c3.33301 0.666992 6.5 3.16699 9.5 7.5s4.5 11.166 4.5 20.499v607c0 10 -1.5 17.167 -4.5 21.5s-6.16699 7.16602 -9.5 8.49902c-2.66699 1.33301 -6.66699 1.33301 -12 0v24h279v-105h-26
c-0.666992 15.333 -2.66699 29 -6 41c-3.33301 10 -8.83301 19.5 -16.5 28.5s-18.167 13.5 -31.5 13.5h-104v-324h70c8.66699 0 15.334 2.33301 20.001 7s8 10 10 16c2.66699 7.33301 4 15.666 4 24.999h23v-123h-23c0 9.33301 -1.33301 17.333 -4 24
c-2 6.66699 -5.33301 12.5 -10 17.5s-11.334 7.5 -20.001 7.5h-70v-319h104c13.333 0 23.833 4 31.5 12s13.167 17.333 16.5 28c3.33301 12 5.33301 25.667 6 41h26z" />
    <glyph glyph-name="F" unicode="F" horiz-adv-x="329" 
d="M315 715l-0.00195312 -104.999h-26c-0.666992 15.333 -2.66699 29 -6 41c-3.33301 10 -8.66602 19.5 -15.999 28.5s-18 13.5 -32 13.5h-112v-322h39c34.667 0 54.334 2.66699 59.001 8s8 11 10 17c2.66699 7.33301 4 16 4 26h23v-124h-23c0 10 -1.33301 18.333 -4 25
c-2 6.66699 -5.33301 12.667 -10 18s-24.334 8 -59.001 8h-39v-295c0 -9.33301 1.33301 -16.166 4 -20.499s5.33398 -6.83301 8.00098 -7.5c4 -2 8.33301 -2 13 0v-26h-121v26c5.33301 -2 9.33301 -2 12 0c3.33301 0.666992 6.66602 3.16699 9.99902 7.5s5 11.166 5 20.499
v607c0 10 -1.66699 17.167 -5 21.5s-6.66602 7.16602 -9.99902 8.49902c-2.66699 1.33301 -6.66699 1.33301 -12 0v24h288z" />
    <glyph glyph-name="G" unicode="G" horiz-adv-x="353" 
d="M193 357l155.004 -0.999023v-26c-4.66699 1.33301 -8.33398 1.33301 -11.001 0s-5 -3.83301 -7 -7.5s-3 -9.83398 -3 -18.501v-304h-24c0 17.333 -13.667 21 -41 11c-22.667 -12.667 -48.667 -18.667 -78 -18c-21.333 0 -42.666 5.16699 -63.999 15.5
s-38.666 25.5 -51.999 45.5c-8.66699 12.667 -15.167 27.334 -19.5 44.001s-7.5 36.834 -9.5 60.501s-3 51.667 -3 84v114.5c0 58.667 0.333008 107.5 1 146.5s3.66699 71.167 9 96.5c2.66699 22 9.66699 41 21 57s24.666 29.333 39.999 40
c24.667 15.333 50.334 23 77.001 23h9.5c3 0 6.16699 -0.333008 9.5 -1l-2 1c1.33301 0 2.66602 -0.166992 3.99902 -0.5s2.66602 -0.5 3.99902 -0.5c15.333 -3.33301 27.666 -7.5 36.999 -12.5s17.333 -8.83301 24 -11.5c4.66699 -2.66699 9.66699 -2.66699 15 0
c3.33301 2 6.16602 4.66699 8.49902 8s3.5 8 3.5 14h25v-174h-23c0 10.667 -1 21.667 -3 33c-1.33301 9.33301 -3.33301 19.833 -6 31.5s-6.66699 23.167 -12 34.5c-1.33301 2.66699 -4.16602 7.33398 -8.49902 14.001s-10.333 13.167 -18 19.5s-17.167 11.666 -28.5 15.999
s-24.333 5.5 -39 3.5c-10.667 -1.33301 -20.834 -4 -30.501 -8s-18 -10.5 -25 -19.5s-12.5 -20.5 -16.5 -34.5s-6 -31.667 -6 -53v-224v-223c0 -42.667 7.5 -73 22.5 -91s33.167 -27 54.5 -27c10.667 0 20.667 1 30 3c11.333 4 20.166 9.16699 26.499 15.5
s11 14.666 14 24.999s4.83301 22.5 5.5 36.5s1 30.667 1 50v156c0.666992 5.33301 0 10 -2 14c-1.33301 3.33301 -4 6.66602 -8 9.99902s-10 5 -18 5h-39v27z" />
    <glyph glyph-name="H" unicode="H" horiz-adv-x="407" 
d="M372 26v-26h-121v26c5.33301 -2 9.66602 -2 12.999 0c2.66699 0.666992 5.5 3.16699 8.5 7.5s4.5 11.166 4.5 20.499v292h-153v-292c0 -9.33301 1.33301 -16.166 4 -20.499s5.33398 -6.83301 8.00098 -7.5c4 -2 8.33301 -2 13 0v-26h-120v26c5.33301 -2 9.33301 -2 12 0
c3.33301 0.666992 6.5 3.16699 9.5 7.5s4.5 11.166 4.5 20.499v607c0 10 -1.5 17.167 -4.5 21.5s-6.16699 7.16602 -9.5 8.49902c-2.66699 1.33301 -6.66699 1.33301 -12 0v24h120v-24c-4.66699 1.33301 -9 1.33301 -13 0
c-2.66699 -1.33301 -5.33398 -4.16602 -8.00098 -8.49902s-4 -11.5 -4 -21.5v-291h153v291c0 10 -1.5 17.167 -4.5 21.5s-5.83301 7.16602 -8.5 8.49902c-3.33301 1.33301 -7.66602 1.33301 -12.999 0v24h121v-24c-5.33301 1.33301 -10 1.33301 -14 0
c-2.66699 -1.33301 -5.33398 -4.16602 -8.00098 -8.49902s-4 -11.5 -4 -21.5v-607c0 -9.33301 1.33301 -16.166 4 -20.499s5.33398 -6.83301 8.00098 -7.5c4 -2 8.66699 -2 14 0z" />
    <glyph glyph-name="I" unicode="I" horiz-adv-x="159" 
d="M114 54c0 -9.33301 1.5 -16.166 4.5 -20.499s5.83301 -6.83301 8.5 -7.5c3.33301 -2 7.66602 -2 12.999 0v-26h-121v26c5.33301 -2 10 -2 14 0c2 0.666992 4.5 3.16699 7.5 7.5s4.5 11.166 4.5 20.499v607c0 10 -1.5 17.167 -4.5 21.5s-5.5 7.16602 -7.5 8.49902
c-4 1.33301 -8.66699 1.33301 -14 0v24h121v-24c-5.33301 1.33301 -9.66602 1.33301 -12.999 0c-2.66699 -1.33301 -5.5 -4.16602 -8.5 -8.49902s-4.5 -11.5 -4.5 -21.5v-607z" />
    <glyph glyph-name="J" unicode="J" horiz-adv-x="335" 
d="M312 715l0.00195312 -24.002c-6 1.33301 -10.667 1.33301 -14 0c-2.66699 -1.33301 -5.5 -4.16602 -8.5 -8.49902s-4.5 -11.5 -4.5 -21.5v-415h1v-19.5c0 -7 -0.333008 -13.833 -1 -20.5v-8v-9.5c0 -3 -0.333008 -5.83301 -1 -8.5
c-1.33301 -27.333 -4.16602 -52 -8.49902 -74s-11.5 -41 -21.5 -57s-23.167 -29 -39.5 -39s-37.5 -16.333 -63.5 -19c-26.667 -1.33301 -49.5 2.83398 -68.5 12.501s-34.333 22.5 -46 38.5s-19.834 33.667 -24.501 53s-6 37.5 -4 54.5s8 31.167 18 42.5s23 17 39 17
c14 0 26.167 -4.83301 36.5 -14.5s15.5 -21.5 15.5 -35.5c0 -12 -3.66699 -22.333 -11 -31s-16.333 -14.667 -27 -18c-1.33301 -0.666992 -3 -1 -5 -1c-10.667 -3.33301 -16.667 -10.666 -18 -21.999s1.33398 -23 8.00098 -35s17.167 -22.167 31.5 -30.5
s31.166 -10.833 50.499 -7.5c13.333 2.66699 24.333 7.66699 33 15s15.667 16.5 21 27.5s9.16602 23.5 11.499 37.5s4.16602 28.667 5.49902 44v33v490c0 10 -1.5 17.167 -4.5 21.5s-6.16699 7.16602 -9.5 8.49902s-7.33301 1.33301 -12 0v24h121z" />
    <glyph glyph-name="K" unicode="K" horiz-adv-x="416" 
d="M342 78c5.33301 -15.333 11.001 -26.667 17.001 -34s11.667 -12.333 17 -15c6 -3.33301 11.333 -4.33301 16 -3v-25h-158v25c7.33301 -1.33301 13.666 -0.333008 18.999 3c4 2.66699 7.16699 7.66699 9.5 15s1.16602 18.666 -3.50098 33.999
c-1.33301 4 -5.33301 13.667 -12 29l-24 55.5l-29.5 71c-10.333 25.667 -19.5 50.834 -27.5 75.501c-5.33301 -12 -10.333 -22.667 -15 -32l-11 -22v-201c0 -9.33301 1.5 -16 4.5 -20s6.5 -6.66699 10.5 -8s9 -1.33301 15 0v-26h-139v26c5.33301 -1.33301 10 -1.33301 14 0
c3.33301 1.33301 6.66602 4 9.99902 8s5 10.667 5 20v607c0 9.33301 -1.66699 16.166 -5 20.499s-6.66602 7.16602 -9.99902 8.49902c-4 1.33301 -8.66699 1.33301 -14 0v25h139v-25c-6 1.33301 -11 1.33301 -15 0s-7.5 -4.16602 -10.5 -8.49902s-4.5 -11.166 -4.5 -20.499
v-341l29.5 62l33 69l32.5 68.5l29.5 60.5c9 18 16.333 33.167 22 45.5s9.16699 19.833 10.5 22.5c6 11.333 8.16699 19.833 6.5 25.5s-4.83398 9.83398 -9.50098 12.501c-5.33301 2.66699 -12.333 4 -21 4v25h118v-25c-8 0 -15.667 -1.33301 -23 -4
c-6.66699 -2.66699 -13.667 -6.83398 -21 -12.501s-13.666 -14.167 -18.999 -25.5c-0.666992 -2 -4.5 -10.5 -11.5 -25.5l-27 -56.5l-36.5 -75.5l-39 -81.5l17.5 -47.5l25 -66.5l28.5 -73.5l27 -68.5l20.5 -52c5.66699 -14 8.83398 -21.667 9.50098 -23z" />
    <glyph glyph-name="L" unicode="L" horiz-adv-x="311" 
d="M296 105l0.00195312 -104.999h-269v26c5.33301 -2 9.33301 -2 12 0c3.33301 0.666992 6.66602 3.16699 9.99902 7.5s5 11.166 5 20.499v607c0 10 -1.66699 17.167 -5 21.5s-6.66602 7.16602 -9.99902 8.49902c-2.66699 1.33301 -6.66699 1.33301 -12 0v24h121v-24
c-5.33301 1.33301 -10 1.33301 -14 0c-2.66699 -1.33301 -5.33398 -4.16602 -8.00098 -8.49902s-4 -11.5 -4 -21.5v-635h94c14 0 24.667 3.83301 32 11.5s12.666 16.834 15.999 27.501c3.33301 11.333 5.33301 24.666 6 39.999h26z" />
    <glyph glyph-name="M" unicode="M" horiz-adv-x="446" 
d="M417 691c-5.33301 1.33301 -9.99707 1.33301 -13.9971 0c-2.66699 -1.33301 -5.33398 -4.16602 -8.00098 -8.49902s-4 -11.5 -4 -21.5v-607c0 -9.33301 1.33301 -16.166 4 -20.499s5.33398 -6.83301 8.00098 -7.5c4 -2 8.66699 -2 14 0v-26h-121v26
c5.33301 -2 9.33301 -2 12 0c3.33301 0.666992 6.66602 3.16699 9.99902 7.5s5 11.166 5 20.499v549l-47 -187l-17 -69c-5.33301 -22.667 -10.333 -43 -15 -61s-8.33398 -32.667 -11.001 -44s-4 -17.333 -4 -18h-42l-14 52.5l-16 61l-16 62.5
c-5.33301 20.667 -10.333 41 -15 61l-36 142v-548c0 -9.33301 1.16699 -16.166 3.5 -20.499s5.16602 -6.83301 8.49902 -7.5c4 -2 8.33301 -2 13 0v-27h-85v27c5.33301 -2 9.33301 -2 12 0c3.33301 0.666992 6.5 3.16699 9.5 7.5s4.5 11.166 4.5 20.499v606
c0 10 -1.5 17.167 -4.5 21.5s-6.16699 7.16602 -9.5 8.49902c-2.66699 1.33301 -6.66699 1.33301 -12 0v24h98l100 -379l95 379h94v-24z" />
    <glyph glyph-name="N" unicode="N" horiz-adv-x="401" 
d="M277 714l87.999 0.00195312v-25c-6 1.33301 -11 1.33301 -15 0c-3.33301 -1.33301 -6.5 -4.16602 -9.5 -8.49902s-4.5 -11.166 -4.5 -20.499v-660h-84l-166 574v-520c0 -9.33301 1.5 -16 4.5 -20s6.16699 -6.66699 9.5 -8c4 -1.33301 9 -1.33301 15 0v-26h-88v26
c5.33301 -1.33301 10 -1.33301 14 0c3.33301 1.33301 6.66602 4 9.99902 8s5 10.667 5 20v606c0 9.33301 -1.66699 16.166 -5 20.499s-6.66602 7.16602 -9.99902 8.49902c-4 1.33301 -8.66699 1.33301 -14 0v25h102l177 -608v554c0 9.33301 -1.66699 16.166 -5 20.499
s-6.66602 7.16602 -9.99902 8.49902c-4 1.33301 -8.66699 1.33301 -14 0v25z" />
    <glyph glyph-name="O" unicode="O" horiz-adv-x="342" 
d="M321 356v-113c0 -32 -0.833008 -59.833 -2.5 -83.5s-4.66699 -43.667 -9 -60s-10.833 -30.833 -19.5 -43.5c-13.333 -20 -30.333 -35.167 -51 -45.5s-41.667 -15.5 -63 -15.5c-20.667 0 -41.5 5.16699 -62.5 15.5s-38.167 25.5 -51.5 45.5
c-8.66699 12.667 -15.167 27.167 -19.5 43.5s-7.33301 36.333 -9 60s-2.5 51.5 -2.5 83.5v113c0 58 0.333008 106.167 1 144.5s3.66699 70.166 9 95.499c2.66699 21.333 9.33398 40.166 20.001 56.499s23.667 29.5 39 39.5c24.667 15.333 50 23 76 23
c12.667 0 25.667 -2 39 -6s25.666 -9.66699 36.999 -17c15.333 -10 28.5 -23.167 39.5 -39.5s17.5 -35.166 19.5 -56.499c4.66699 -25.333 7.5 -57.166 8.5 -95.499s1.5 -86.5 1.5 -144.5zM252 133l0.000976562 101c0 39.333 0.333008 80 1 122
c-0.666992 41.333 -1 81.5 -1 120.5v100.5c0 42 -7.33301 71.333 -22 88s-32.667 25 -54 25s-39.333 -8.33301 -54 -25s-22 -46 -22 -88v-221v-223c0 -42 6.5 -71.833 19.5 -89.5s32.167 -26.5 57.5 -26.5s44.166 8.83301 56.499 26.5s18.5 47.5 18.5 89.5z" />
    <glyph glyph-name="P" unicode="P" horiz-adv-x="353" 
d="M325 569c0.666992 -16 0.999023 -34.167 0.999023 -54.5s-0.333008 -38.166 -1 -53.499c0 -18 -3.16699 -35.833 -9.5 -53.5s-15.833 -33.5 -28.5 -47.5s-28.5 -25 -47.5 -33s-40.833 -12 -65.5 -12h-51v-261c0 -9.33301 1.33301 -16.166 4 -20.499
s5.33398 -6.83301 8.00098 -7.5c4 -2 8.33301 -2 13 0v-26h-121v26c5.33301 -2 9.33301 -2 12 0c3.33301 0.666992 6.66602 3.16699 9.99902 7.5s5 11.166 5 20.499v607c0 10 -1.66699 17.167 -5 21.5s-6.66602 7.16602 -9.99902 8.49902
c-2.66699 1.33301 -6.66699 1.33301 -12 0v24h147c24.667 0 46.5 -4 65.5 -12s34.833 -19 47.5 -33s22.167 -29.667 28.5 -47s9.5 -35.333 9.5 -54zM253.999 591c0 17.333 -2.83301 32.335 -8.5 45.002s-12.334 22.667 -20.001 30s-15.667 13.166 -24 17.499
s-15.5 6.5 -21.5 6.5h-57v-348h57c6 0 13.167 1.66699 21.5 5s16.333 9.16602 24 17.499s14.334 18.5 20.001 30.5s8.5 27 8.5 45v151z" />
    <glyph glyph-name="Q" unicode="Q" horiz-adv-x="361" 
d="M341 12c0 -15.333 -3.00098 -29.335 -9.00098 -42.002c-4.66699 -11.333 -12.667 -21.166 -24 -29.499s-27.333 -11.833 -48 -10.5c-10.667 0.666992 -19.834 2.83398 -27.501 6.50098s-14.5 8.5 -20.5 14.5s-11 12.833 -15 20.5s-7.66699 15.167 -11 22.5
c-3.33301 -0.666992 -6.83301 -1.16699 -10.5 -1.5s-7.5 -0.5 -11.5 -0.5c-24.667 0 -48.667 7 -72 21v1c-18 10.667 -33 25.5 -45 44.5s-18 41.833 -18 68.5v458c0 24.667 4.16699 45.834 12.5 63.501s18.833 32.334 31.5 44.001s27 20.167 43 25.5s32 8 48 8
c16.667 0 32.834 -2.5 48.501 -7.5s30 -13.333 43 -25s23.667 -26.334 32 -44.001s12.5 -38.834 12.5 -63.501v-459c0 -25.333 -7 -48 -21 -68s-30.667 -36 -50 -48c5.33301 -13.333 10.833 -25.166 16.5 -35.499s12.834 -16.833 21.501 -19.5
c6.66699 -1.33301 13 -0.833008 19 1.5s11.167 6.16602 15.5 11.499s8 12 11 20s4.5 16 4.5 24h11c4 0 8.33301 -0.333008 13 -1zM88.999 153.998c0 -22.667 1.33496 -42.168 4.00195 -58.501s7 -30.166 13 -41.499c6 10 14.167 17.333 24.5 22
s21.166 6.33398 32.499 5.00098c12 -0.666992 22 -4.83398 30 -12.501s15 -16.5 21 -26.5c8.66699 10 15.167 24.167 19.5 42.5s6.5 41.5 6.5 69.5v410c0 26 -1.83301 47.667 -5.5 65s-9 31 -16 41s-15.167 17.167 -24.5 21.5s-19.333 6.5 -30 6.5
c-11.333 0 -21.5 -2.16699 -30.5 -6.5s-16.833 -11.5 -23.5 -21.5s-11.834 -23.667 -15.501 -41s-5.5 -39 -5.5 -65v-410zM164.001 14.9971c6 0 10.667 0.666992 14 2c-4 10 -8.33301 18.667 -13 26s-10.667 11.333 -18 12c-8 0 -14 -2 -18 -6s-7.33301 -9 -10 -15
c12 -12.667 27 -19 45 -19z" />
    <glyph glyph-name="R" unicode="R" horiz-adv-x="360" 
d="M317 20c4.66699 0 8.33203 0.662109 10.999 1.99512l8 4v-22c-4 -3.33301 -9 -6.5 -15 -9.5s-14 -4.5 -24 -4.5c-8.66699 0 -17.334 1.66699 -26.001 5s-16.667 8.66602 -24 15.999s-13.5 16.833 -18.5 28.5s-7.83301 26.167 -8.5 43.5v164c0 14.667 -2 26.5 -6 35.5
s-9.16699 15.833 -15.5 20.5s-13.166 7.83398 -20.499 9.50098s-14 2.83398 -20 3.50098h-41v-262c0 -9.33301 1.33301 -16.166 4 -20.499s5.33398 -6.83301 8.00098 -7.5c4 -2 8.33301 -2 13 0v-26h-120v26c4.66699 -2 8.66699 -2 12 0
c3.33301 0.666992 6.5 3.16699 9.5 7.5s4.5 11.166 4.5 20.499v608c0 9.33301 -1.5 16.333 -4.5 21s-6.16699 7.66699 -9.5 9c-3.33301 0.666992 -7.33301 0.666992 -12 0v24h143c24.667 0 46.5 -4.16699 65.5 -12.5s34.833 -19.166 47.5 -32.499
s22.167 -28.666 28.5 -45.999s9.5 -35.333 9.5 -54v-109c0 -26 -6.66699 -51.333 -20 -76s-34 -43 -62 -55c38 -15.333 57 -44.666 57 -87.999v-160c0 -17.333 1.16699 -32.166 3.5 -44.499s9.83301 -18.5 22.5 -18.5zM116.998 690.995v-347h54c6 0 13.167 1.83301 21.5 5.5
s16.333 9.33398 24 17.001s14.334 17.667 20.001 30s8.5 27.166 8.5 44.499v152c0 16.667 -2.83301 31.167 -8.5 43.5s-12.334 22.5 -20.001 30.5s-15.667 14 -24 18s-15.5 6 -21.5 6h-54z" />
    <glyph glyph-name="S" unicode="S" horiz-adv-x="305" 
d="M171 417c44.667 -57.333 77.1729 -110.5 97.5059 -159.5s26.166 -97.167 17.499 -144.5c-4 -15.333 -9.16699 -30.166 -15.5 -44.499s-14.5 -27.166 -24.5 -38.499s-22.333 -20.5 -37 -27.5s-32.334 -10.833 -53.001 -11.5c-13.333 -0.666992 -25.5 1.83301 -36.5 7.5
l-29.5 15c-8.66699 4.33301 -15.5 6.16602 -20.5 5.49902s-7.83301 -7.66699 -8.5 -21h-26v178h27c-2 -14.667 -2.5 -28.5 -1.5 -41.5s2.83301 -25.5 5.5 -37.5c2.66699 -10 6 -19.833 10 -29.5s9.33301 -18.5 16 -26.5s15 -14.667 25 -20s22.333 -8.33301 37 -9
c10 -0.666992 21 2 33 8s21.667 13.667 29 23c16.667 22.667 23.667 47 21 73s-10.334 51.333 -23.001 76s-27.667 48.167 -45 70.5l-44 57.5c-23.333 28 -41.833 55.667 -55.5 83s-23.834 53.666 -30.501 78.999s-10 49.833 -10 73.5s2.33301 46.167 7 67.5
c8.66699 32 22.5 56.833 41.5 74.5s47.5 26.5 85.5 26.5c12.667 0 24.167 -3.16699 34.5 -9.5l27 -16.5c7.66699 -4.66699 13.5 -6.66699 17.5 -6s6.66699 8 8 22h28v-175h-28c1.33301 30.667 -1 57 -7 79c-4.66699 20 -13 38.333 -25 55s-30 25 -54 25
c-13.333 0 -25.833 -2.66699 -37.5 -8s-21.167 -12.333 -28.5 -21c-16 -22.667 -23.5 -45.5 -22.5 -68.5s6.66699 -45.5 17 -67.5s23.166 -42.833 38.499 -62.5s28.666 -37.5 39.999 -53.5z" />
    <glyph glyph-name="T" unicode="T" horiz-adv-x="343" 
d="M328 715l0.000976562 -106h-26c-0.666992 16 -2.66699 30 -6 42c-3.33301 10 -8.83301 19.5 -16.5 28.5s-18.167 13.5 -31.5 13.5h-41v-639c0 -9.33301 1.33301 -16.166 4 -20.499s5.66699 -6.83301 9 -7.5c3.33301 -2 7.33301 -2 12 0v-26h-121v26
c5.33301 -2 9.66602 -2 12.999 0c3.33301 0.666992 6.5 3.16699 9.5 7.5s4.5 11.166 4.5 20.499v639h-42c-14 0 -24.667 -4.5 -32 -13.5s-12.333 -18.5 -15 -28.5c-4 -12 -6.33301 -26 -7 -42h-27v106h313z" />
    <glyph glyph-name="U" unicode="U" horiz-adv-x="371" 
d="M144 715l-0.00292969 -24.002c-4.66699 1.33301 -8.66699 1.33301 -12 0s-6.33301 -4.16602 -9 -8.49902s-4 -11.5 -4 -21.5v-36v-88c0 -35.333 0.166992 -74.166 0.5 -116.499s0.5 -82.166 0.5 -119.499v-96.5v-49.5c0 -51.333 5.5 -87.666 16.5 -108.999
s27.167 -32 48.5 -32h1h1c20 0 35.833 10.667 47.5 32s17.5 57.666 17.5 108.999v78v51v377c0 10 -1.16699 17.167 -3.5 21.5s-5.16602 7.16602 -8.49902 8.49902c-4 1.33301 -8.33301 1.33301 -13 0v24h119v-24c-4 1.33301 -8 1.33301 -12 0
c-3.33301 -1.33301 -6.16602 -4.16602 -8.49902 -8.49902s-3.5 -11.5 -3.5 -21.5v-533c0 -21.333 -4.16699 -40.5 -12.5 -57.5s-19.166 -31.5 -32.499 -43.5s-28 -21 -44 -27s-31.667 -9 -47 -9c-16 0 -32 3 -48 9s-30.5 15 -43.5 27s-23.333 26.333 -31 43
s-11.5 35.667 -11.5 57v28.5v63v85.5c0 31.333 -0.166992 63.333 -0.5 96s-0.5 64.667 -0.5 96v84v58.5v22.5c0 10 -1.5 17.167 -4.5 21.5s-6.16699 7.16602 -9.5 8.49902c-2.66699 1.33301 -6.66699 1.33301 -12 0v24h119z" />
    <glyph glyph-name="V" unicode="V" horiz-adv-x="387" 
d="M274 714h97v-25c-6 1.33301 -12 1.33301 -18 0c-5.33301 -1.33301 -10.333 -4.16602 -15 -8.49902s-7.66699 -11.166 -9 -20.499c0 -0.666992 -1.83301 -10.667 -5.5 -30s-8.16699 -44.5 -13.5 -75.5l-19 -106l-22 -120.5l-60 -328h-51l-52 328l-19.5 120.5l-17 106
l-12 75.5c-3 19.333 -4.5 29.333 -4.5 30c-2 9.33301 -5.16699 16.166 -9.5 20.499s-9.16602 7.16602 -14.499 8.49902c-6 1.33301 -12 1.33301 -18 0v25h148v-25c-6 1.33301 -11.333 1.33301 -16 0c-4 -1.33301 -7.33301 -4.16602 -10 -8.49902s-3 -11.166 -1 -20.499
c0 -0.666992 1.16699 -9.5 3.5 -26.5s5.66602 -39.333 9.99902 -67l14.5 -95l17 -109.5l17.5 -111c5.66699 -36.667 11.167 -69.667 16.5 -99c6 29.333 12.333 62.333 19 99l20 111l19 109.5l16 95l11 67c2.66699 17 4 25.833 4 26.5c2 9.33301 1.66699 16.166 -1 20.499
s-5.66699 7.16602 -9 8.49902c-4.66699 1.33301 -10 1.33301 -16 0v25z" />
    <glyph glyph-name="W" unicode="W" horiz-adv-x="558" 
d="M448 715h96.999v-25c-6.66699 1.33301 -13 1.33301 -19 0c-5.33301 -1.33301 -10.166 -4.16602 -14.499 -8.49902s-7.5 -11.166 -9.5 -20.499c0 -0.666992 -1.66699 -10.667 -5 -30l-13.5 -75.5l-19.5 -106l-22 -120.5l-59 -328h-52
c-5.33301 35.333 -11.333 72.666 -18 111.999l-18 113.5l-20 128.5l-23.5 -128.5l-20.5 -113.5c-7.33301 -39.333 -14 -76.666 -20 -111.999h-52l-52 328l-19 120.5l-16.5 106l-12 75.5c-3 19.333 -4.5 29.333 -4.5 30c-2 9.33301 -5.16699 16.166 -9.5 20.499
s-9.16602 7.16602 -14.499 8.49902c-6 1.33301 -12 1.33301 -18 0v25h148v-25c-6 1.33301 -11.333 1.33301 -16 0c-4 -1.33301 -7.33301 -4.16602 -10 -8.49902s-3 -11.166 -1 -20.499c0 -0.666992 1.16699 -9.5 3.5 -26.5s5.66602 -39.5 9.99902 -67.5l14.5 -95.5
l17 -109.5l17.5 -111c5.66699 -36.667 11.167 -69.667 16.5 -99l24.5 132l25.5 146l-14.5 88.5l-11.5 73l-8 50c-2 12.333 -3 18.833 -3 19.5c-1.33301 9.33301 -4.33301 16.166 -9 20.499s-9.33398 7.16602 -14.001 8.49902c-6 1.33301 -12 1.33301 -18 0v25h147v-25
c-6.66699 1.33301 -12 1.33301 -16 0s-7.16699 -4.16602 -9.5 -8.49902s-2.83301 -11.166 -1.5 -20.499c0 -0.666992 1.33301 -9.5 4 -26.5l10.5 -67.5l14.5 -95.5l16.5 -109.5l17 -111c5.66699 -36.667 11.167 -69.667 16.5 -99c6 29.333 12.333 62.333 19 99l20 111
l19 109.5l16 95.5l11.5 67.5c3 17 4.5 25.833 4.5 26.5c1.33301 9.33301 0.833008 16.166 -1.5 20.499s-5.16602 7.16602 -8.49902 8.49902c-4 1.33301 -9.33301 1.33301 -16 0v25z" />
    <glyph glyph-name="X" unicode="X" horiz-adv-x="354" 
d="M331 691c-4.66699 1.33301 -9.33496 1.33203 -14.002 -0.000976562s-9 -4.16602 -13 -8.49902s-7.66699 -11.5 -11 -21.5c0 -0.666992 -2.5 -8.66699 -7.5 -24l-20.5 -61.5l-28.5 -87.5l-32.5 -102l30 -119l27 -105.5l19.5 -76.5c5 -20 7.5 -30.333 7.5 -31
c2 -9.33301 5.16699 -16.166 9.5 -20.499s8.83301 -6.83301 13.5 -7.5c6 -2 11.333 -2 16 0v-26h-126v26c5.33301 -2 9.66602 -2 12.999 0c2.66699 0.666992 4.83398 3.16699 6.50098 7.5s1.16699 11.166 -1.5 20.499c0 0.666992 -1.5 6.66699 -4.5 18l-12 46.5l-17 67.5
l-20.5 80l-26 -80.5l-21 -67.5c-6 -19.333 -11 -34.833 -15 -46.5s-6 -17.834 -6 -18.501c-2.66699 -9.33301 -3.5 -16 -2.5 -20s3.16699 -6.33301 6.5 -7c3.33301 -2 7.33301 -2 12 0v-26h-87v26c5.33301 -2 10 -2 14 0c4.66699 0.666992 9 3 13 7s7.66699 10.667 11 20
c0 0.666992 2.33301 8.83398 7 24.501s11.167 36.167 19.5 61.5l27.5 86.5l32 99.5l-31 120l-27.5 107l-20.5 78c-5.33301 20 -8 30.667 -8 32c-3.33301 9.33301 -6.83301 16.166 -10.5 20.499s-8.16699 7.16602 -13.5 8.49902c-4.66699 1.33301 -10 1.33301 -16 0v24h128
v-24c-5.33301 1.33301 -9.66602 1.33301 -12.999 0s-5.83301 -4.16602 -7.5 -8.49902s-1.16699 -11.166 1.5 -20.499c0 -0.666992 1.66699 -7 5 -19s7.5 -27.833 12.5 -47.5l18 -69l21.5 -83.5l26.5 83.5l22.5 69l16 47c4 11.667 6 17.834 6 18.501
c3.33301 10 4.33301 17.167 3 21.5s-3.66602 7.16602 -6.99902 8.49902c-2.66699 1.33301 -6.66699 1.33301 -12 0v24h87v-24z" />
    <glyph glyph-name="Y" unicode="Y" horiz-adv-x="390" 
d="M379 715l-0.00195312 -24.0029c-4 1.33301 -8.66699 1.33301 -14 0c-4.66699 -1.33301 -9 -4.16602 -13 -8.49902s-7.66699 -11.5 -11 -21.5c0 -1.33301 -3.83301 -13.666 -11.5 -36.999l-29 -90l-39 -121.5l-42.5 -131.5v-1v-226c0 -9.33301 1.33301 -16.166 4 -20.499
s5.33398 -6.83301 8.00098 -7.5c4 -2 8.33301 -2 13 0v-26h-120v26c2 -0.666992 4.33301 -1 7 -1c2 0 4.16699 0.333008 6.5 1s4.5 2 6.5 4c3.33301 4.66699 5 12.667 5 24v226l-33 132l-31.5 122l-24 90.5c-6.33301 23.667 -9.5 35.834 -9.5 36.501
c-2 10 -5.16699 17.167 -9.5 21.5s-8.5 7.16602 -12.5 8.49902c-6 1.33301 -11.333 1.33301 -16 0v24h126v-24c-5.33301 1.33301 -9.33301 1.33301 -12 0c-3.33301 -1.33301 -5.83301 -4.16602 -7.5 -8.49902s-1.16699 -11.5 1.5 -21.5c0 -0.666992 2.5 -10.334 7.5 -29.001
l19 -73.5l26 -103l29.5 -116.5l38 116.5l33.5 103l24 73.5c6.33301 18.667 9.5 28.334 9.5 29.001c3.33301 10 4.33301 17.167 3 21.5s-3.66602 7.16602 -6.99902 8.49902c-2.66699 1.33301 -6.66699 1.33301 -12 0v24h87z" />
    <glyph glyph-name="Z" unicode="Z" horiz-adv-x="302" 
d="M272 715l-0.000976562 -22v-1l-173 -668h93c13.333 0 23.833 4.16699 31.5 12.5s12.834 17.833 15.501 28.5c4 12 6.33301 25.667 7 41h26v-106h-239h-2v24h1v2l171 667h-92c-13.333 0 -23.833 -4.5 -31.5 -13.5s-13.167 -18.5 -16.5 -28.5
c-3.33301 -12 -5.33301 -25.667 -6 -41h-26v105h241z" />
    <glyph glyph-name="bracketleft" unicode="[" horiz-adv-x="158" 
d="M130 685c-20 0 -35.165 -4.16699 -45.498 -12.5s-17.666 -19 -21.999 -32s-6.5 -27.167 -6.5 -42.5v-44v-401c0 -14 0.166992 -28.667 0.5 -44s2.66602 -29.5 6.99902 -42.5s11.666 -23.667 21.999 -32s25.166 -12.5 44.499 -12.5v-22h-130v707h130v-22z" />
    <glyph glyph-name="backslash" unicode="\" horiz-adv-x="212" 
d="M27 714l8 -30.5c5.33301 -20.333 12 -47.5 20 -81.5s17.667 -72.167 29 -114.5l34 -132.5l92 -358h-24l-184 717h25z" />
    <glyph glyph-name="bracketright" unicode="]" horiz-adv-x="158" 
d="M-2 685l0.00195312 22h130v-707h-130v22c19.333 0 34.166 4.16699 44.499 12.5s17.666 19 21.999 32s6.66602 27.167 6.99902 42.5s0.5 30 0.5 44v401v44c0 15.333 -2.16699 29.5 -6.5 42.5s-11.666 23.667 -21.999 32s-25.5 12.5 -45.5 12.5z" />
    <glyph glyph-name="asciicircum" unicode="^" horiz-adv-x="286" 
d="M132 560l21 0.000976562l120 -347h-21l-30.5 87.5l-30 86l-27.5 79l-22 64.5l-21.5 -64.5l-27.5 -79l-30 -86c-10 -29.667 -20.333 -58.834 -31 -87.501h-19z" />
    <glyph glyph-name="underscore" unicode="_" horiz-adv-x="439" 
d="M404 29v-29h-369v29h369z" />
    <glyph glyph-name="grave" unicode="`" horiz-adv-x="161" 
d="M30 650c-16.667 12.667 -25 24.999 -25 36.999c0 6.66699 2.66699 13.334 8 20.001c6.66699 5.33301 13.667 8 21 8c8 0 15 -2.33301 21 -7c7.33301 -6 19.333 -21 36 -45l62 -88l-10 -9z" />
    <glyph glyph-name="a" unicode="a" horiz-adv-x="353" 
d="M376 43c0 -5.33301 -1.33301 -10.8301 -4 -16.4971s-6.5 -11 -11.5 -16s-11.333 -9.5 -19 -13.5s-16.5 -6 -26.5 -6c-16 0 -30.333 3.66699 -43 11s-21.334 17 -26.001 29c-4 6.66699 -7 14.334 -9 23.001c-8.66699 -18 -21.834 -33 -39.501 -45s-37.167 -18 -58.5 -18
c-26.667 0 -50 9.66699 -70 29c-11.333 10 -20.666 23 -27.999 39s-11.666 34.333 -12.999 55c-0.666992 2 -1 6 -1 12v1c0.666992 11.333 2.66699 23.166 6 35.499s8.5 24.666 15.5 36.999s15.333 24 25 35s20.167 20.5 31.5 28.5
c2.66699 1.33301 4.83398 2.83301 6.50098 4.5s4.16699 3.5 7.5 5.5l3 1.5l3 1.5l31.5 20l24.5 17c4 2.66699 8 5.66699 12 9s8.33301 6.66602 13 9.99902c6 4 11.667 8.66699 17 14s9.33301 11.666 12 18.999c4 6.66699 6 14.667 6 24s-1 17.666 -3 24.999
c-2.66699 14.667 -9.5 27.334 -20.5 38.001s-23.167 17.667 -36.5 21c-6 2 -11.667 3 -17 3c-18.667 0 -34.667 -3.33301 -48 -10c-8.66699 -4 -15 -8.5 -19 -13.5s-6.16699 -9.66699 -6.5 -14s0.5 -7.83301 2.5 -10.5s4.66699 -4.66699 8 -6
c1.33301 -0.666992 2.16602 -1 2.49902 -1s1.16602 -0.333008 2.49902 -1c8.66699 -3.33301 15.834 -9.16602 21.501 -17.499s8.5 -17.5 8.5 -27.5c0 -12.667 -4.5 -23.5 -13.5 -32.5s-19.833 -13.5 -32.5 -13.5c-13.333 0 -24.666 4.5 -33.999 13.5s-14 19.833 -14 32.5
c0 11.333 1.5 23.166 4.5 35.499s7.5 23.5 13.5 33.5c12.667 18.667 27.834 32.167 45.501 40.5s37.167 12.5 58.5 12.5c16 0 31.833 -3 47.5 -9s29.667 -14.5 42 -25.5s22.666 -24.167 30.999 -39.5s12.5 -33 12.5 -53v-294c0 -12 0.166992 -19.833 0.5 -23.5
s0.5 -6.16699 0.5 -7.5v0c0 -8.66699 2.66699 -15.667 8 -21s11.666 -8 18.999 -8c8.66699 0 15.667 2.5 21 7.5s8.33301 11.5 9 19.5h21zM219 68.0029c5.33301 9.33301 8.49707 19.3311 9.49707 29.998s1.5 20.667 1.5 30v185c-2.66699 -2.66699 -5.5 -5.16699 -8.5 -7.5
s-6.16699 -5.16602 -9.5 -8.49902c-19.333 -14 -35.833 -26.833 -49.5 -38.5s-25.167 -23.667 -34.5 -36s-16.666 -25.5 -21.999 -39.5s-8.66602 -30 -9.99902 -48v-15c0.666992 -25.333 7.5 -45.166 20.5 -59.499s31.5 -21.5 55.5 -21.5c10.667 0 20.334 2.66699 29.001 8
c8.66699 6 14.667 13 18 21z" />
    <glyph glyph-name="b" unicode="b" horiz-adv-x="335" 
d="M186 494c16 0 31.998 -2.66113 47.998 -7.99414s30.5 -13.5 43.5 -24.5s23.667 -25.333 32 -43s12.5 -38.834 12.5 -63.501v-229c0 -18 -4.16699 -35.333 -12.5 -52s-19 -31.167 -32 -43.5s-27.667 -22 -44 -29s-32.166 -10.5 -47.499 -10.5
c-11.333 0 -21.166 1.66699 -29.499 5s-15.5 6.66602 -21.5 9.99902s-11.333 6.66602 -16 9.99902s-9.33398 4.66602 -14.001 3.99902c-5.33301 -0.666992 -9.5 -2.16699 -12.5 -4.5s-5.5 -4.5 -7.5 -6.5c-2.66699 -2 -4.66699 -5 -6 -9h-27v659
c0 10 -1.66699 17.167 -5 21.5s-6.66602 7.16602 -9.99902 8.49902c-2.66699 2 -6.66699 2 -12 0v24h94v-255c12 15.333 23.333 25.166 34 29.499s21.667 6.5 33 6.5zM251.998 333.006c0 25.333 -1.50391 46.835 -4.50391 64.502s-7.16699 31.5 -12.5 41.5
s-12.166 17.167 -20.499 21.5s-17.833 6.5 -28.5 6.5c-9.33301 0 -18.5 -1.5 -27.5 -4.5s-17.167 -8.5 -24.5 -16.5c-5.33301 -6.66699 -9.16602 -14.334 -11.499 -23.001s-3.5 -20 -3.5 -34v-293c0 -4 0.833008 -9.5 2.5 -16.5s3.83398 -14.167 6.50098 -21.5
s6.83398 -14.333 12.501 -21s12.167 -11.667 19.5 -15c9.33301 -5.33301 18 -8 26 -8c10 0.666992 19.167 3.33398 27.5 8.00098s15.333 12.667 21 24s10 25.666 13 42.999s4.5 38.666 4.5 63.999v180z" />
    <glyph glyph-name="c" unicode="c" horiz-adv-x="337" 
d="M170 473c-21.333 -1.33301 -39.166 -12.1689 -53.499 -32.502s-21.5 -50.833 -21.5 -91.5v-221c0 -22.667 2.16699 -41.334 6.5 -56.001s10.333 -26.334 18 -35.001s16.667 -14.667 27 -18s21.166 -5 32.499 -5c14 0 27.333 2 40 6s24 10.667 34 20s18 22.166 24 38.499
s9 36.5 9 60.5h22v-13c0 -18.667 -2.5 -36.167 -7.5 -52.5s-13 -30.666 -24 -42.999s-25.167 -22 -42.5 -29s-38.666 -10.5 -63.999 -10.5c-16 0 -32.333 3.16699 -49 9.5s-31.667 15.333 -45 27s-24.333 25.834 -33 42.501s-13 35.334 -13 56.001v224
c0 22.667 4.33301 43 13 61s19.667 33.333 33 46s28.333 22.334 45 29.001s33 10 49 10c8 0 15.667 -0.333008 23 -1s14.666 -2.66699 21.999 -6c0.666992 -0.666992 1.66699 -1 3 -1l8 -3c7.33301 -1.33301 15 -4.5 23 -9.5s15 -7.5 21 -7.5c8 0 12 6.66699 12 20h26v-169
h-22c0 8.66699 -0.333008 18.5 -1 29.5s-2.16699 22 -4.5 33s-6 21.833 -11 32.5s-11.5 20.334 -19.5 29.001c-12 12 -25 20 -39 24s-27.667 6 -41 6z" />
    <glyph glyph-name="d" unicode="d" horiz-adv-x="356" 
d="M310 47c0 -9.33301 1.33594 -15.502 4.00293 -18.502s5.66699 -4.83301 9 -5.5s7.66602 0.333008 12.999 3v-26h-94v38c-2.66699 -4 -5.33398 -7.5 -8.00098 -10.5s-5.66699 -6.16699 -9 -9.5c-11.333 -9.33301 -24.333 -16.666 -39 -21.999
c-0.666992 0 -1.33398 -0.333008 -2.00098 -1h-2c-8 -2.66699 -18 -4 -30 -4h-3c-37.333 0.666992 -67.5 12.167 -90.5 34.5s-34.5 57.5 -34.5 105.5v225c0 24 3 44.833 9 62.5s14.5 32 25.5 43s24 19.333 39 25s32.167 8.83398 51.5 9.50098h3c12 0 22 -1.33301 30 -4h2
l2 -1c14.667 -4.66699 27.667 -12 39 -22c3.33301 -2.66699 6.33301 -5.66699 9 -9s5.33398 -7 8.00098 -11v209c0 10.667 -1.5 18 -4.5 22s-5.83301 6.66699 -8.5 8c-4.66699 2 -9.33398 2 -14.001 0v26h95v-667zM150.003 13.998
c11.333 -0.666992 22.166 1.00195 32.499 5.00195s19.5 10 27.5 18s15 19 21 33s9.66699 31.333 11 52v244c-1.33301 20 -5 37 -11 51s-13 25.167 -21 33.5s-17.167 14.333 -27.5 18s-21.166 5.16699 -32.499 4.5c-18 -1.33301 -30.667 -8.83301 -38 -22.5
s-11.333 -37.5 -12 -71.5v-1c0 -2.66699 -0.166992 -10.834 -0.5 -24.501s-0.5 -29.834 -0.5 -48.501v-61.5v-62c0 -19 0.166992 -35.167 0.5 -48.5s0.5 -21.333 0.5 -24v-1c0.666992 -34 4.66699 -57.833 12 -71.5s20 -21.167 38 -22.5z" />
    <glyph glyph-name="e" unicode="e" horiz-adv-x="322" 
d="M162 496c15.333 0 31.002 -2.6709 47.002 -8.00391s30.333 -13.666 43 -24.999s22.834 -25.666 30.501 -42.999s11.5 -38 11.5 -62v-101v-3v-23h-199v-103c0 -41.333 7.16699 -70.833 21.5 -88.5s32.166 -26.167 53.499 -25.5
c12.667 0.666992 25.167 2.83398 37.5 6.50098s23 9.83398 32 18.501s16.5 21 22.5 37s9 37 9 63h23v-14c0 -18 -2 -35.167 -6 -51.5s-11 -30.5 -21 -42.5s-22.833 -21.5 -38.5 -28.5s-34.834 -10.833 -57.501 -11.5c-16 0 -32.333 3 -49 9s-31.667 15 -45 27
s-24.333 26.167 -33 42.5s-13 34.833 -13 55.5v23.5c0 11 -0.166992 23.833 -0.5 38.5s-0.5 30.5 -0.5 47.5s-0.166992 33.5 -0.5 49.5s-0.5 30.5 -0.5 43.5v29.5c0 24 4.16699 44.833 12.5 62.5s18.666 32 30.999 43s26.333 19.333 42 25s31.5 8.5 47.5 8.5z
M227.002 256.996v79.001c0 25.333 -1.66699 46.5 -5 63.5s-7.83301 30.667 -13.5 41s-12.5 17.5 -20.5 21.5s-17 6 -27 6c-21.333 0 -37.5 -9.33301 -48.5 -28s-16.5 -53.334 -16.5 -104.001v-79h131z" />
    <glyph glyph-name="f" unicode="f" horiz-adv-x="267" 
d="M277 631l-0.999023 -0.999023c0.666992 -0.666992 1 -2 1 -4c0 -12 -4.5 -22.333 -13.5 -31s-19.5 -13 -31.5 -13s-22.167 4.33301 -30.5 13s-12.5 19 -12.5 31c0 19.333 8.33301 32.666 25 39.999c10.667 5.33301 13 12.333 7 21c0 0.666992 -0.333008 1 -1 1
c-0.666992 2.66699 -2.66699 4.66699 -6 6c-6.66699 5.33301 -14.667 8 -24 8c-10.667 0 -19 -4.33301 -25 -13s-10.167 -19.834 -12.5 -33.501s-3.66602 -29.5 -3.99902 -47.5s-0.5 -36 -0.5 -54v-3v-65h84v-27h-84v-405c0 -10 1.33301 -17 4 -21s5.66699 -6.33301 9 -7
c3.33301 -2 7.66602 -2 12.999 0v-26h-121v26c5.33301 -2 9.66602 -2 12.999 0c2.66699 0.666992 5.5 3 8.5 7s4.5 11 4.5 21v405h-69v27h69c0 4 0.166992 12.333 0.5 25s0.5 24.5 0.5 35.5s0.166992 20.833 0.5 29.5l0.5 13c0 19.333 2.33301 37.333 7 54
s11.667 31.167 21 43.5s20.833 22 34.5 29s29.167 10.5 46.5 10.5c9.33301 0 19.333 -2.33301 30 -7s20 -11.167 28 -19.5s14.833 -18.166 20.5 -29.499s8.5 -24.333 8.5 -39z" />
    <glyph glyph-name="g" unicode="g" horiz-adv-x="325" 
d="M151 128c19.333 0 34.166 9.33301 44.499 28s15.5 51.667 15.5 99v94c0 46.667 -5.16699 78.834 -15.5 96.501s-25.166 26.5 -44.499 26.5s-34.166 -8.83301 -44.499 -26.5s-15.5 -49.834 -15.5 -96.501v-94c0 -47.333 5.16699 -80.333 15.5 -99s25.166 -28 44.499 -28z
M263 535c10 0 19.666 -2.33301 28.999 -7c3.33301 -1.33301 5.66602 -2.83301 6.99902 -4.5s2.66602 -4.16699 3.99902 -7.5l2 -10c0 -6.66699 -2.33301 -12.334 -7 -17.001s-10 -7 -16 -7h-1c-6.66699 0 -12.334 2.16699 -17.001 6.5s-7 9.5 -7 15.5
c-0.666992 5.33301 -2.66699 8 -6 8c-4 0 -8.83301 -1.83301 -14.5 -5.5s-10.167 -7.5 -13.5 -11.5c-2.66699 -2.66699 -5.33398 -7.66699 -8.00098 -15c16.667 -9.33301 30.667 -23 42 -41s17 -41 17 -69v-140c0 -17.333 -3.66699 -33.333 -11 -48
s-16.833 -27.667 -28.5 -39s-25 -20.166 -40 -26.499s-29.5 -9.5 -43.5 -9.5c-18 0 -36.333 4.33301 -55 13c-10 -14 -11.667 -24.833 -5 -32.5s26.334 -12.834 59.001 -15.501c22 -1.33301 40.5 -5.83301 55.5 -13.5s26.833 -17 35.5 -28s15.167 -23 19.5 -36
s7.33301 -25.333 9 -37s2.33398 -22 2.00098 -31s-0.5 -15.5 -0.5 -19.5c-0.666992 -6.66699 -3 -15.5 -7 -26.5s-10.5 -21.833 -19.5 -32.5s-21.167 -19.834 -36.5 -27.501s-35 -11.5 -59 -11.5c-26.667 0 -48.834 5.33301 -66.501 16s-30.667 23.667 -39 39
s-12.666 31.166 -12.999 47.499s2.5 30.5 8.5 42.5c8.66699 12 16.5 19.333 23.5 22s11.5 4 13.5 4c12 0 21.667 -4 29 -12s11 -17.333 11 -28c0 -11.333 -3.66699 -20.833 -11 -28.5s-17 -11.5 -29 -11.5c-12.667 0 -18 -4.16699 -16 -12.5s7.33301 -16.833 16 -25.5
c6.66699 -5.33301 16.167 -11.5 28.5 -18.5s25.833 -10.5 40.5 -10.5h5c22.667 1.33301 40.667 7.33301 54 18s22.666 23.334 27.999 38.001s6.83301 29.334 4.5 44.001s-7.83301 27.334 -16.5 38.001c-5.33301 5.33301 -12.666 10 -21.999 14s-19.333 7.66699 -30 11
s-21 6.16602 -31 8.49902s-18.667 3.83301 -26 4.5l-25.5 6c-8.33301 2 -16.166 4.66699 -23.499 8s-13.333 8.33301 -18 15s-7 16 -7 28c0 18 4.16699 32.833 12.5 44.5s16.166 19.834 23.499 24.501c-13.333 11.333 -24.333 24.833 -33 40.5s-13 33.834 -13 54.501v138
c0 22 3.83301 41.167 11.5 57.5s17.334 29.666 29.001 39.999s24.834 18 39.501 23s29.334 7.5 44.001 7.5s30 -2.66699 46 -8c4.66699 16.667 13.5 28.667 26.5 36s26.167 11 39.5 11z" />
    <glyph glyph-name="h" unicode="h" horiz-adv-x="374" 
d="M125 715l-0.00488281 -264l7 10c3.33301 4.66699 8.5 9.66699 15.5 15s15.833 10 26.5 14s23.334 6 38.001 6h3c14 0 27.833 -2.83301 41.5 -8.5s25.834 -14.167 36.501 -25.5s19.167 -25.833 25.5 -43.5s9.5 -38.5 9.5 -62.5v-302c0 -12.667 2.33301 -20.667 7 -24
s8.66699 -5 12 -5h5c0.666992 0 1.33398 0.333008 2.00098 1v-26h-121v26c0.666992 -0.666992 1.33398 -1 2.00098 -1h4c4 0 8 1.33301 12 4s6.66699 9.33398 8 20.001v53.5v67.5c0 23.333 -0.166992 47 -0.5 71s-0.5 45.667 -0.5 65v48.5v23.5h-1v1
c-1.33301 34 -5.33301 58 -12 72s-18.334 21.667 -35.001 23h-3c-20.667 0 -38.667 -7.83301 -54 -23.5s-24.666 -42.834 -27.999 -81.501v-315c0 -12.667 2.16699 -20.667 6.5 -24s8.5 -5 12.5 -5h4c0.666992 0 1.33398 0.333008 2.00098 1v-26h-121v26
c0.666992 -0.666992 1.33398 -1 2.00098 -1h5c3.33301 0 7.33301 1.66699 12 5s7 11.333 7 24v607c0 12.667 -2.33301 21 -7 25s-8.66699 6 -12 6c-1.33301 0 -2.33301 -0.166992 -3 -0.5s-1.33398 -0.5 -2.00098 -0.5h-2v24h96z" />
    <glyph glyph-name="i" unicode="i" horiz-adv-x="194" 
d="M140 598c0 -12.667 -4.33301 -23.167 -13 -31.5s-19 -12.5 -31 -12.5s-22 4.16699 -30 12.5s-12 18.833 -12 31.5c0 12 4 22 12 30s18 12 30 12s22.333 -4 31 -12s13 -18 13 -30zM131 54c0 -9.33301 1.33301 -16.165 4 -20.498s5.66699 -6.83301 9 -7.5
c3.33301 -2 7.33301 -2 12 0v-26h-120v26c4.66699 -2 9 -2 13 0c3.33301 0.666992 6.33301 3.16699 9 7.5s4 11.166 4 20.499v381c0 8.66699 -1.33301 15.167 -4 19.5s-5.66699 7.16602 -9 8.49902c-4 1.33301 -8.33301 1.33301 -13 0v25h95v-434z" />
    <glyph glyph-name="j" unicode="j" horiz-adv-x="212" 
d="M136 640c12 0 22.333 -4.16699 31 -12.5s13 -18.5 13 -30.5s-4.33301 -22.5 -13 -31.5s-19 -13.5 -31 -13.5s-22.333 4.5 -31 13.5s-13 19.5 -13 31.5s4.33301 22.167 13 30.5s19 12.5 31 12.5zM193 461l-1.99902 0.00292969l-1 0.5
c-0.666992 0.333008 -1.66699 0.5 -3 0.5c-3.33301 0 -7.33301 -1.66699 -12 -5s-7 -11.666 -7 -24.999v-24c0 -14.667 -0.166992 -33.834 -0.5 -57.501s-0.5 -50.334 -0.5 -80.001v-90.5v-244c-1.33301 -11.333 -3.5 -24.166 -6.5 -38.499s-8.33301 -28 -16 -41
s-18 -24.333 -31 -34s-29.5 -14.834 -49.5 -15.501h-4c-22 0 -39.833 5.83301 -53.5 17.5s-23.334 25.167 -29.001 40.5s-7.5 30.5 -5.5 45.5s7.33301 25.167 16 30.5c2.66699 1.33301 4.66699 3 6 5c2.66699 1.33301 5.83398 2.66602 9.50098 3.99902s7.16699 2 10.5 2
c6 0 13 -2 21 -6c10.667 -6.66699 17.5 -14.167 20.5 -22.5s3.5 -16.333 1.5 -24s-5.33301 -14.667 -10 -21s-9.66699 -10.5 -15 -12.5c-4 -1.33301 -6.83301 -4 -8.5 -8s-1.33398 -8.16699 0.999023 -12.5s6.33301 -8 12 -11s12.834 -4.5 21.501 -4.5
c2 0 3.33301 0.333008 4 1c6.66699 0 12.5 3.33301 17.5 10s8.83301 15 11.5 25s4.66699 20.833 6 32.5s2 23.167 2 34.5v499c0 13.333 -2.33301 21.666 -7 24.999s-9 5 -13 5c-1.33301 0 -2.33301 -0.166992 -3 -0.5s-1.33398 -0.5 -2.00098 -0.5h-2v26h121v-26z" />
    <glyph glyph-name="k" unicode="k" horiz-adv-x="358" 
d="M140 690h-1.99902c-0.666992 0 -1.16699 0.166992 -1.5 0.5s-1.16602 0.5 -2.49902 0.5c-4.66699 0 -9.16699 -2 -13.5 -6s-6.5 -12.333 -6.5 -25v-478c2 4 6.66699 12.5 14 25.5l25.5 45.5l30.5 54.5l30 54l23 42c6 11 9.33301 17.167 10 18.5
c4.66699 9.33301 6.66699 16.833 6 22.5s-2.5 10 -5.5 13s-6.66699 4.83301 -11 5.5s-7.5 1 -9.5 1h-1v24h107v-24h-1c-2 0 -5.33301 -0.333008 -10 -1s-9.83398 -2.5 -15.501 -5.5s-11.5 -7.33301 -17.5 -13s-10.667 -13.167 -14 -22.5
c-1.33301 -2.66699 -8.16602 -15 -20.499 -37l-44.5 -77l25.5 -76.5l25.5 -73l19.5 -55.5l8.5 -25c4 -12 8.16699 -21.5 12.5 -28.5s8.16602 -12.333 11.499 -16s6.66602 -6 9.99902 -7s6 -1.5 8 -1.5c0.666992 0 1.33398 0.333008 2.00098 1v-26h-137v26
c0 -0.666992 0.333008 -1 1 -1h3c2 0 4.66699 0.5 8 1.5s6 3.33301 8 7s3.33301 9 4 16s-0.333008 16.5 -3 28.5c-0.666992 2.66699 -2.66699 8.5 -6 17.5l-12.5 33l-17 44.5c-6.33301 16.667 -12.5 34 -18.5 52c-8.66699 -16.667 -17.334 -32.5 -26.001 -47.5
s-16.334 -28.833 -23.001 -41.5v-82c0 -13.333 2.16699 -21.5 6.5 -24.5s8.83301 -4.5 13.5 -4.5h4c0.666992 0 1.33398 0.333008 2.00098 1v-26h-121v26c0.666992 -0.666992 1.33398 -1 2.00098 -1h5c3.33301 0 7.5 1.5 12.5 4.5s7.5 11.167 7.5 24.5v606
c0 12.667 -2.5 21 -7.5 25s-9.16699 6 -12.5 6c-1.33301 0 -2.33301 -0.166992 -3 -0.5s-1.33398 -0.5 -2.00098 -0.5h-2v24h121v-24z" />
    <glyph glyph-name="l" unicode="l" horiz-adv-x="182" 
d="M127 54c0 -9.33301 1.50098 -16.165 4.50098 -20.498s5.83301 -6.83301 8.5 -7.5c3.33301 -2 7.66602 -2 12.999 0v-26h-121v26c5.33301 -2 10 -2 14 0c2 0.666992 4.66699 3.16699 8 7.5s5 11.166 5 20.499v606c0 10 -1.66699 17.167 -5 21.5s-6 7.16602 -8 8.49902
c-4 2 -8.66699 2 -14 0v24h95v-54v-606z" />
    <glyph glyph-name="m" unicode="m" horiz-adv-x="577" 
d="M530 49c0 -9.33301 1.3291 -15.665 3.99609 -18.998s5.66699 -5.33301 9 -6c3.33301 -1.33301 7.33301 -0.666016 12 2.00098v-26h-120v26c4 -1.33301 8 -1.33301 12 0c3.33301 0.666992 6.16602 2.66699 8.49902 6s3.83301 9 4.5 17v286v24.5
c0 7 -0.333008 13.5 -1 19.5v1c-1.33301 34 -5.33301 58 -12 72s-17.667 21.333 -33 22c-22 0.666992 -40.833 -6.5 -56.5 -21.5s-25.834 -41.167 -30.501 -78.5c0 -2.66699 0.166992 -5.5 0.5 -8.5s0.5 -6.16699 0.5 -9.5v-143v-159c0 -9.33301 1.5 -16.166 4.5 -20.499
s6.16699 -6.83301 9.5 -7.5c2.66699 -2 6.66699 -2 12 0v-26h-120v26c4 -1.33301 8 -1.33301 12 0c2.66699 0.666992 5.33398 2.66699 8.00098 6s4.33398 9 5.00098 17v285v24.5c0 7 -0.333008 13.5 -1 19.5v1c-1.33301 34 -5.33301 58 -12 72s-18.334 21.333 -35.001 22
c-20.667 1.33301 -39.167 -6 -55.5 -22s-26.166 -43.333 -29.499 -82v-315c0 -9.33301 1.33301 -16.166 4 -20.499s5.33398 -6.83301 8.00098 -7.5c4 -2 8.33301 -2 13 0v-26h-120v26c4.66699 -2 8.66699 -2 12 0c3.33301 0.666992 6.5 3.16699 9.5 7.5
s4.5 11.166 4.5 20.499v380c0 9.33301 -1.5 16.166 -4.5 20.499s-6.16699 7.16602 -9.5 8.49902s-7.33301 1.33301 -12 0v25h95v-38c4 6.66699 9 13 15 19c6 5.33301 12 9.83301 18 13.5s12.333 6.5 19 8.5c0.666992 0.666992 1.33398 1 2.00098 1
s1.33398 0.333008 2.00098 1c4 1.33301 8.33301 2.16602 13 2.49902s9.66699 0.5 15 0.5h2c24.667 -0.666992 46 -6.16699 64 -16.5s31.333 -27.166 40 -50.499c6 16.667 15 30.334 27 41.001c11.333 9.33301 24 16.666 38 21.999v1h1c8.66699 2 18.334 3 29.001 3h4
c34.667 -0.666992 62.5 -11.834 83.5 -33.501s31.5 -56.834 31.5 -105.501v-144v-164z" />
    <glyph glyph-name="n" unicode="n" 
d="M209 496c35.333 -1.33301 63.4951 -12.832 84.4951 -34.499s31.5 -56.834 31.5 -105.501v-146v-156c0 -13.333 2.33301 -21.5 7 -24.5s8.66699 -4.5 12 -4.5h5c0.666992 0 1.33398 0.333008 2.00098 1v-26h-120v26c0.666992 -0.666992 1.33398 -1 2.00098 -1h4
c3.33301 0 7 1.33301 11 4s6.66699 9.33398 8 20.001v284c0 9.33301 -0.166992 17.666 -0.5 24.999s-0.5 14 -0.5 20v1c-1.33301 33.333 -5.5 57 -12.5 71s-18.167 21.667 -33.5 23h-4c-21.333 0 -39.5 -8 -54.5 -24s-24.167 -43 -27.5 -81v-314
c0 -13.333 2.16699 -21.5 6.5 -24.5s8.5 -4.5 12.5 -4.5h4c0.666992 0 1.33398 0.333008 2.00098 1v-26h-120v26c0.666992 -0.666992 1.33398 -1 2.00098 -1h5c3.33301 0 7.5 1.5 12.5 4.5s7.5 11.167 7.5 24.5v382c0 12.667 -2.5 20.667 -7.5 24s-9.16699 5 -12.5 5h-3h-2
h-2v23h95v-39c2.66699 4 5 7.66699 7 11s4.66699 6.33301 8 9c10.667 10 23 17.333 37 22h2c0 0.666992 0.333008 1 1 1c4.66699 1.33301 9.33398 2.33301 14.001 3s9.66699 1 15 1h2z" />
    <glyph glyph-name="o" unicode="o" horiz-adv-x="333" 
d="M167 496c16 0 32.002 -2.66797 48.002 -8.00098s30.667 -13.666 44 -24.999s24.166 -26 32.499 -44s12.5 -39.333 12.5 -64v-227c0 -19.333 -4.33301 -37.333 -13 -54s-19.5 -31 -32.5 -43s-27.5 -21.667 -43.5 -29s-32 -11 -48 -11s-32.167 3 -48.5 9
s-30.833 15 -43.5 27s-23.334 26.5 -32.001 43.5s-13 36.167 -13 57.5v225c0 25.333 4.16699 47 12.5 65s19 32.833 32 44.5s27.667 20.167 44 25.5s32.5 8 48.5 8zM233.002 332.999c0 25.333 -1.5 46.832 -4.5 64.499s-7.33301 31.834 -13 42.501s-12.667 18.167 -21 22.5
s-17.833 6.5 -28.5 6.5c-21.333 0 -37.666 -9.83301 -48.999 -29.5s-17 -55.167 -17 -106.5v-178c0 -51.333 5.66699 -87.666 17 -108.999s27.666 -32 48.999 -32s37.833 10.667 49.5 32s17.5 57.666 17.5 108.999v178z" />
    <glyph glyph-name="p" unicode="p" horiz-adv-x="351" 
d="M210 496c38 -0.666992 68.3301 -12.1641 90.9971 -34.4971s34 -57.833 34 -106.5v-224c0 -48.667 -11.333 -84 -34 -106s-53 -33.667 -91 -35h-3c-11.333 0 -21.666 1.33301 -30.999 4h-1c-0.666992 0 -1 0.333008 -1 1c-15.333 5.33301 -28.666 12.666 -39.999 21.999
l-9.5 9.5c-3 3 -5.5 6.5 -7.5 10.5v-166c0 -9.33301 1.33301 -16.166 4 -20.499s5.33398 -7.16602 8.00098 -8.49902c4 -2 8.33301 -2 13 0v-25h-121v25c5.33301 -2 9.33301 -2 12 0c3.33301 1.33301 6.5 4.16602 9.5 8.49902s4.5 11.166 4.5 20.499v564
c0 9.33301 -1.5 16.166 -4.5 20.499s-6.16699 7.16602 -9.5 8.49902c-2.66699 1.33301 -6.66699 1.33301 -12 0v24h96v-39c4.66699 7.33301 10.334 14 17.001 20c11.333 10 24.666 17.333 39.999 22c0 0.666992 0.333008 1 1 1h1c10.667 2.66699 21 4 31 4h3z
M259.997 377.003v1.00098c-0.666992 34 -4.83398 58 -12.501 72s-20.167 21.667 -37.5 23c-12 0.666992 -23.333 -0.833008 -34 -4.5s-20 -9.83398 -28 -18.501s-14.667 -20.334 -20 -35.001s-9 -32 -11 -52v-240c2 -20.667 5.66699 -38.167 11 -52.5s12 -25.666 20 -33.999
s17.333 -14.5 28 -18.5s22 -5.66699 34 -5c17.333 1.33301 29.833 9 37.5 23s11.834 38 12.501 72v1v268z" />
    <glyph glyph-name="q" unicode="q" horiz-adv-x="340" 
d="M287 -129c0 -9.33301 1.50098 -16.168 4.50098 -20.501s6.16699 -7.16602 9.5 -8.49902c2.66699 -2 7 -2 13 0v-25h-120v25c4.66699 -2 8.66699 -2 12 0c3.33301 1.33301 6.33301 4.16602 9 8.49902s4 11.166 4 20.499v157c-12 -14.667 -23.333 -24.5 -34 -29.5
s-21.667 -7.5 -33 -7.5c-16 0 -32 2.83301 -48 8.5s-30.5 14.167 -43.5 25.5s-23.667 25.833 -32 43.5s-12.5 38.834 -12.5 63.501v230c0 18 4.16699 35.333 12.5 52s19 31.167 32 43.5s27.667 21.833 44 28.5s32.166 10 47.499 10c11.333 0 21.166 -1.5 29.499 -4.5
s15.5 -6.16699 21.5 -9.5s11.333 -6.5 16 -9.5s9.33398 -4.5 14.001 -4.5c8.66699 0.666992 15.667 4.33398 21 11.001c2.66699 2.66699 4.66699 6 6 10h27v-618zM219.001 391.998c0 4 -0.832031 9.49609 -2.49902 16.4961s-3.83398 14.333 -6.50098 22
s-6.66699 14.834 -12 21.501s-12 11.667 -20 15c-0.666992 0 -1.33398 0.333008 -2.00098 1c-7.33301 4 -15 6 -23 6c-20.667 -1.33301 -36.834 -12.166 -48.501 -32.499s-17.5 -56.166 -17.5 -107.499v-181c0 -25.333 1.33301 -46.666 4 -63.999
s6.83398 -31.333 12.501 -42s12.667 -18 21 -22s17.833 -6 28.5 -6c12 0 23.833 3 35.5 9s21.834 16.667 30.501 32v332z" />
    <glyph glyph-name="r" unicode="r" horiz-adv-x="306" 
d="M298 417c0 -1.33301 0.332031 -3.99609 0.999023 -7.99609s0.666992 -7.33301 0 -10c-0.666992 -14 -5.5 -25.5 -14.5 -34.5s-19.833 -13.5 -32.5 -13.5c-13.333 0 -24.5 4.66699 -33.5 14s-13.5 20.666 -13.5 33.999c0 16.667 6.33301 29.334 19 38.001
c1.33301 0.666992 2.16602 1.16699 2.49902 1.5l1.5 1.5c4.66699 3.33301 7.66699 8.16602 9 14.499s-2.66699 11.833 -12 16.5c-6 3.33301 -12 5 -18 5c-20 1.33301 -37.667 -4.66699 -53 -18s-25.666 -36.666 -30.999 -69.999v-334c0 -9.33301 1.33301 -16.166 4 -20.499
s5.33398 -6.83301 8.00098 -7.5c4 -2 8.33301 -2 13 0v-26h-121v26c5.33301 -2 9.33301 -2 12 0c3.33301 0.666992 6.66602 3.16699 9.99902 7.5s5 11.166 5 20.499v381c0 9.33301 -1.66699 16.166 -5 20.499s-6.66602 7.16602 -9.99902 8.49902
c-2.66699 1.33301 -6.66699 1.33301 -12 0v25h96v-41c4.66699 7.33301 9.33398 14.166 14.001 20.499s10.167 11.666 16.5 15.999s13.666 7.83301 21.999 10.5s18.833 4 31.5 4c19.333 0 37.333 -7 54 -21s29 -34.333 37 -61z" />
    <glyph glyph-name="s" unicode="s" horiz-adv-x="297" 
d="M205 6c-0.666992 -0.666992 -1.16504 -1 -1.49805 -1s-0.833008 -0.333008 -1.5 -1l-1 -1c-1.33301 -0.666992 -2.83301 -1.33398 -4.5 -2.00098s-3.16699 -1.33398 -4.5 -2.00098c-14 -6 -30.333 -9 -49 -9c-10.667 0 -21 2.5 -31 7.5s-18.667 9.16699 -26 12.5
s-13.5 4.83301 -18.5 4.5s-7.5 -5.16602 -7.5 -14.499h-19v120h24c-1.33301 -21.333 1 -39.666 7 -54.999c4 -13.333 11.833 -25.833 23.5 -37.5s29.167 -17.5 52.5 -17.5c15.333 0 28 2.66699 38 8c17.333 8.66699 29.166 19 35.499 31s8.83301 24.5 7.5 37.5
s-6.16602 25.833 -14.499 38.5s-18.5 24.334 -30.5 35.001l-25 19l-26 21c-23.333 18.667 -41.833 35.5 -55.5 50.5s-24.167 29 -31.5 42s-12.333 25.333 -15 37s-4 24.167 -4 37.5c0 8 0.5 15.333 1.5 22s2.16699 12.667 3.5 18c2 11.333 5.33301 22.333 10 33
s11.334 20.167 20.001 28.5s19.334 15.166 32.001 20.499s28 8 46 8c10 0 20 -2.16699 30 -6.5l27 -12c8 -3.66699 14.333 -5.33398 19 -5.00098s7 5.5 7 15.5h19v-124h-26c0.666992 20 -1.66602 38 -6.99902 54c-4.66699 14 -12.834 26.667 -24.501 38
s-28.834 17 -51.501 17c-18 0 -32.667 -4 -44 -12c-6 -4.66699 -11.167 -11.5 -15.5 -20.5s-6.83301 -18.833 -7.5 -29.5s1 -22.167 5 -34.5s12 -23.833 24 -34.5c1.33301 -2 3.16602 -4 5.49902 -6s4.83301 -3.66699 7.5 -5c2 -1.33301 3.66699 -2.66602 5 -3.99902l4 -4
l22.5 -18l23.5 -18c18.667 -16 34.167 -30.5 46.5 -43.5s22.666 -25.167 30.999 -36.5s14.5 -22 18.5 -32s6.33301 -19.667 7 -29c6.66699 -30.667 5.5 -56.5 -3.5 -77.5s-20.5 -37.5 -34.5 -49.5h-1c0 -1.33301 -0.666992 -2 -2 -2
c-1.33301 -1.33301 -2.66602 -2.33301 -3.99902 -3l-6 -4c-2 -1.33301 -4 -2.33301 -6 -3v-1c-0.666992 0 -1.33398 -0.166992 -2.00098 -0.5s-1.33398 -0.5 -2.00098 -0.5z" />
    <glyph glyph-name="t" unicode="t" horiz-adv-x="269" 
d="M278 81c0 -23.333 -7.33398 -42.334 -22.001 -57.001c-10 -10 -21.667 -18 -35 -24s-27.666 -9 -42.999 -9c-22.667 0 -42.667 6.33301 -60 19s-30 29.334 -38 50.001c-2 5.33301 -3.5 10.833 -4.5 16.5s-1.5 12.167 -1.5 19.5c0 2 -0.166992 5.16699 -0.5 9.5
s-0.5 9.5 -0.5 15.5s-0.166992 11.667 -0.5 17s-0.5 10 -0.5 14v307h-69v27h69v175c0 10 -1.5 17.167 -4.5 21.5s-5.83301 7.16602 -8.5 8.49902c-3.33301 1.33301 -7.66602 1.33301 -12.999 0v24h95v-229h84v-27h-84v-56c0 -20 -0.166992 -43.167 -0.5 -69.5
s-0.5 -53.666 -0.5 -81.999v-77.5v-59c0 -16 0.333008 -26 1 -30c4.66699 -24 12 -39.833 22 -47.5s21.667 -11.5 35 -11.5c15.333 0 28.666 5.16699 39.999 15.5s17.333 23.5 18 39.5h22z" />
    <glyph glyph-name="u" unicode="u" horiz-adv-x="374" 
d="M347 461l-1.99609 -0.00292969c-0.666992 0 -1.33398 0.166992 -2.00098 0.5s-1.33398 0.5 -2.00098 0.5c-3.33301 0 -7.33301 -1.83301 -12 -5.5s-7 -11.834 -7 -24.501v-17.5v-43v-60.5v-69.5c0 -23.667 -0.166992 -46.834 -0.5 -69.501s-0.5 -42.834 -0.5 -60.501
v-43.5v-18c0 -12.667 2.16699 -20.167 6.5 -22.5s8.5 -3.5 12.5 -3.5c1.33301 0 2.33301 0.333008 3 1c0.666992 0 1.33398 0.333008 2.00098 1v-26h-94v37c-2.66699 -4 -5.16699 -7.33301 -7.5 -10s-5.16602 -5.66699 -8.49902 -9c-10 -9.33301 -22 -16.666 -36 -21.999
c-0.666992 0 -1 -0.166992 -1 -0.5s-0.333008 -0.5 -1 -0.5h-1c-8 -2.66699 -17.333 -4 -28 -4h-4c-34 1.33301 -61.5 12.833 -82.5 34.5s-31.5 56.5 -31.5 104.5v145c0 20 0.166992 39.333 0.5 58s0.5 35.334 0.5 50.001s0.166992 26.334 0.5 35.001s0.5 13.334 0.5 14.001
c0 12.667 -2.5 20.834 -7.5 24.501s-9.16699 5.5 -12.5 5.5c-1.33301 0 -2.33301 -0.166992 -3 -0.5s-1.33398 -0.5 -2.00098 -0.5h-2v25h120v-25h-1c-0.666992 0 -1.33398 0.166992 -2.00098 0.5s-1.66699 0.5 -3 0.5c-4 0 -8 -1.5 -12 -4.5s-6.33301 -9.83301 -7 -20.5
v-53c0 -21.333 -0.166992 -43.666 -0.5 -66.999s-0.5 -46.833 -0.5 -70.5v-65v-49.5v-23v-1c1.33301 -34 5.5 -58 12.5 -72s18.5 -21.333 34.5 -22h4c20 0 37.667 8 53 24s24.666 43 27.999 81c0 32 0.166992 66.167 0.5 102.5s0.5 70.166 0.5 101.499v77v32
c0 12.667 -2 20.834 -6 24.501s-8 5.5 -12 5.5c-1.33301 0 -2.33301 -0.166992 -3 -0.5s-1.33398 -0.5 -2.00098 -0.5h-2v25h120v-25z" />
    <glyph glyph-name="v" unicode="v" horiz-adv-x="326" 
d="M318 487l0.000976562 -24.002c-6 -0.666992 -11.667 -2 -17 -4s-10.166 -5 -14.499 -9s-7.16602 -9.33301 -8.49902 -16c0 -0.666992 -1.33301 -7.33398 -4 -20.001s-6.5 -29.334 -11.5 -50.001l-16.5 -69.5l-18 -78.5l-51 -216h-45l-44 216
c-5.33301 26.667 -10.833 52.834 -16.5 78.501s-10.334 48.834 -14.001 69.501s-7 37.334 -10 50.001s-4.5 19.334 -4.5 20.001c-0.666992 6.66699 -3.16699 12 -7.5 16s-8.5 7 -12.5 9c-6 2 -12 3.33301 -18 4v24h129l-1 -24c-5.33301 -0.666992 -9.66602 -2 -12.999 -4
c-2.66699 -2 -4.83398 -5 -6.50098 -9s-1.83398 -9.33301 -0.500977 -16c0 -0.666992 2 -11.5 6 -32.5l15 -79l20 -101.5l21 -100l23.5 100l23 101.5l17 79c4.33301 21 6.5 31.833 6.5 32.5c1.33301 6.66699 1.16602 12 -0.500977 16s-3.83398 7 -6.50098 9
c-3.33301 2 -7.66602 3.33301 -12.999 4l1 24h92z" />
    <glyph glyph-name="w" unicode="w" horiz-adv-x="493" 
d="M484 488v-23.0039c-6 1.33301 -11.667 1.33301 -17 0c-4 -0.666992 -8 -2.16699 -12 -4.5s-7 -7.16602 -9 -14.499l-4 -19.5c-2.66699 -13 -6.5 -30 -11.5 -51l-16.5 -72c-6 -27 -12.667 -54.167 -20 -81.5l-52 -222h-45c-5.33301 26.667 -11.333 54.334 -18 83.001
c-4 24.667 -9 52.334 -15 83.001s-12.667 61.334 -20 92.001l-20.5 -92l-19.5 -83l-19 -83h-45l-46 222l-17.5 81.5c-5.66699 27 -10.5 51 -14.5 72s-7.5 38 -10.5 51l-4.5 19.5c-0.666992 7.33301 -3 12.166 -7 14.499s-8 3.83301 -12 4.5
c-4.66699 1.33301 -10.334 1.33301 -17.001 0v23h130v-23c-6 1.33301 -11 1.33301 -15 0c-2.66699 -0.666992 -5.16699 -2.16699 -7.5 -4.5s-2.83301 -7.16602 -1.5 -14.499l3 -16l8 -42l11.5 -60c4.33301 -22.667 9 -45.834 14 -69.501l14.5 -71.5
c4.66699 -24 9.33398 -46 14.001 -66c8 30.667 16.167 64.334 24.5 101.001l23.5 106l-17.5 84.5c-4.33301 21.667 -6.83301 32.834 -7.5 33.501c-1.33301 7.33301 -4 12.166 -8 14.499s-8 3.83301 -12 4.5c-4.66699 1.33301 -10 1.33301 -16 0v23h128v-23
c-5.33301 1.33301 -10 1.33301 -14 0c-2.66699 -0.666992 -5.16699 -2.16699 -7.5 -4.5s-2.5 -7.16602 -0.5 -14.499l2 -16c1.33301 -10.667 3.83301 -24.667 7.5 -42s7.66699 -37.333 12 -60l13.5 -69.5l14.5 -71.5c5 -24 9.83301 -46 14.5 -66
c5.33301 20 10.833 42 16.5 66l16.5 71.5l15.5 69.5l13 60l9 42l3.5 16c1.33301 7.33301 0.833008 12.166 -1.5 14.499s-4.5 3.83301 -6.5 4.5c-4 1.33301 -9 1.33301 -15 0v23h94z" />
    <glyph glyph-name="x" unicode="x" horiz-adv-x="356" 
d="M331 467c-4.66699 0.666992 -9.33398 0 -14.001 -2c-4.66699 -0.666992 -9 -2.5 -13 -5.5s-7.66699 -7.83301 -11 -14.5l-7.5 -16l-19.5 -41.5l-27.5 -58l-31.5 -68.5l28.5 -78l26 -69.5l19 -49.5c5 -12.667 7.5 -19.334 7.5 -20.001
c2.66699 -7.33301 6.33398 -12.333 11.001 -15s9.66699 -4.66699 15 -6c5.33301 -2 11 -2.66699 17 -2v-21h-127v21c4.66699 -0.666992 8.66699 0 12 2c2.66699 1.33301 4.5 3.33301 5.5 6s0.166992 7.66699 -2.5 15l-4.5 11c-3 7.33301 -6.66699 17.166 -11 29.499
l-15.5 43.5c-6 16.667 -12.667 34 -20 52c-9.33301 -18 -17.666 -35.167 -24.999 -51.5s-14 -30.5 -20 -42.5l-14 -28.5c-3.33301 -7 -5 -10.833 -5 -11.5c-3.33301 -6.66699 -4.5 -11.5 -3.5 -14.5s2.83301 -5.16699 5.5 -6.5c2 -2 5.33301 -3 10 -3v-22h-88v22
c5.33301 0 10.666 1 15.999 3c5.33301 1.33301 10.333 3.5 15 6.5s8.66699 7.83301 12 14.5c0 0.666992 2.16699 5.83398 6.5 15.501s10.5 22.334 18.5 38.001s16.667 34 26 55l30 65.5l-29.5 81l-27 72.5l-20 52.5l-7.5 20c-3.33301 7.33301 -7.16602 12.333 -11.499 15
s-9.16602 4.33398 -14.499 5.00098c-4.66699 1.33301 -10.334 1.33301 -17.001 0v23h127v-23c-4.66699 1.33301 -8.33398 1.33301 -11.001 0c-3.33301 -0.666992 -5.66602 -2.33398 -6.99902 -5.00098s-0.333008 -7.66699 3 -15l4.5 -11.5l12 -31.5l17 -46l20.5 -56l26.5 56
l21.5 45.5c6 13 11 23.333 15 31l6 11.5c3.33301 6.66699 4.33301 11.5 3 14.5s-3.33301 4.83301 -6 5.5c-2.66699 2 -6.33398 2.66699 -11.001 2v23h85v-23z" />
    <glyph glyph-name="y" unicode="y" horiz-adv-x="428" 
d="M421 488v-25.999c-4 2 -8.66699 1.66699 -14 -1c-4.66699 -2 -9.5 -6.33301 -14.5 -13s-9.5 -18 -13.5 -34c-0.666992 -1.33301 -3.33398 -9.33301 -8.00098 -24s-10.167 -34 -16.5 -58l-21.5 -81.5c-8 -30.333 -16.667 -61.5 -26 -93.5l-27 -94.5l-23.5 -85
c-7 -25.667 -13.333 -47.167 -19 -64.5s-9.5 -28 -11.5 -32c-8.66699 -18.667 -20.667 -34.834 -36 -48.501s-33.333 -21.167 -54 -22.5c-5.33301 0 -10.666 0.333008 -15.999 1s-11 2 -17 4c-9.33301 2.66699 -18.5 7.5 -27.5 14.5s-16.5 15.667 -22.5 26
s-10.167 21.666 -12.5 33.999s-1.5 25.5 2.5 39.5c0 0.666992 0.166992 1 0.5 1s0.5 0.333008 0.5 1c0 1.33301 0.333008 2.33301 1 3c3.33301 12 10 21 20 27s21 7.33301 33 4s21 -10.166 27 -20.499s7.66699 -21.5 5 -33.5c-2.66699 -11.333 -9 -20 -19 -26
s-20.667 -8 -32 -6c0.666992 -22 10.334 -35.667 29.001 -41c10.667 -3.33301 19.667 -1.5 27 5.5s14.333 16.5 21 28.5c1.33301 2 5.33301 15.333 12 40s15 54 25 88l-19.5 72.5c-7.66699 29 -16 58.833 -25 89.5l-26 92l-22.5 83
c-6.66699 24.667 -12.5 45.334 -17.5 62.001s-7.5 25.667 -7.5 27c-4.66699 13.333 -9.66699 23.166 -15 29.499s-10.666 9.83301 -15.999 10.5c-5.33301 2 -11.333 1.66699 -18 -1v23h101v-23c-6 0.666992 -10.667 0 -14 -2c-2.66699 -2 -4.16699 -6 -4.5 -12
s1.5 -15.333 5.5 -28l6 -19.5c4 -13 8.66699 -29.833 14 -50.5l18 -70l20.5 -79l20.5 -77.5l17 -64.5c11.333 37.333 22.5 76.5 33.5 117.5l30 112.5l22.5 85c6 22.667 9.33301 35 10 37c3.33301 16 4.16602 27.333 2.49902 34s-4.16699 11 -7.5 13
c-4.66699 2.66699 -10.334 3 -17.001 1v26h137z" />
    <glyph glyph-name="z" unicode="z" horiz-adv-x="297" 
d="M265 135l0.00292969 -135h-265l87 228c10.667 28.667 21.5 56.334 32.5 83.001l29 72.5c8.33301 21.667 15 39.667 20 54s7.83301 22.166 8.5 23.499h-84c-18 0 -31.667 -5.66699 -41 -17s-16 -24 -20 -38c-4.66699 -16 -6.66699 -34 -6 -54h-26v134l265 1l-91 -226
l-34 -85l-30 -75l-21 -54c-5.33301 -14 -8 -21.667 -8 -23h97c17.333 0 30.166 5.66699 38.499 17s14.166 24 17.499 38c3.33301 16 4.66602 34.667 3.99902 56h27z" />
    <glyph glyph-name="braceleft" unicode="{" horiz-adv-x="184" 
d="M113 474c0 -16 -0.333008 -30.3311 -1 -42.998s-3 -23.5 -7 -32.5s-10.5 -16.833 -19.5 -23.5s-21.5 -12 -37.5 -16c16 -4.66699 28.5 -10.167 37.5 -16.5s15.5 -14.333 19.5 -24s6.33301 -20.834 7 -33.501s1 -27 1 -43v-152c0 -30 4 -53.667 12 -71s23.667 -26 47 -26
v-22c-19.333 0 -36 1.33301 -50 4s-25.833 8.66699 -35.5 18s-16.667 22 -21 38s-6.5 37.667 -6.5 65v160c0 27.333 -3.83301 49.166 -11.5 65.499s-21.167 27.5 -40.5 33.5v6c19.333 5.33301 32.833 16.5 40.5 33.5s11.5 38.833 11.5 65.5v160
c0 26.667 2.16699 48.5 6.5 65.5s11.333 29.833 21 38.5s21.5 14.667 35.5 18s30.667 5 50 5v-24c-23.333 0 -39 -8.33301 -47 -25s-12 -41 -12 -73v-151z" />
    <glyph glyph-name="bar" unicode="|" horiz-adv-x="88" 
d="M58 715v-902h-23v902h23z" />
    <glyph glyph-name="braceright" unicode="}" horiz-adv-x="182" 
d="M69 474v150.998c0 32 -3.66699 56.333 -11 73s-22.666 25 -45.999 25v24c18 0 34.167 -1.66699 48.5 -5s26 -9.33301 35 -18s15.833 -21.5 20.5 -38.5s7 -38.833 7 -65.5v-160c0 -26.667 3.83301 -48.5 11.5 -65.5s21.5 -28.167 41.5 -33.5v-6
c-20.667 -6 -34.667 -17.167 -42 -33.5s-11 -38.166 -11 -65.499v-160c0 -27.333 -2.33301 -49 -7 -65s-11.5 -28.667 -20.5 -38s-20.667 -15.333 -35 -18s-30.5 -4 -48.5 -4v22c23.333 0 38.666 8.66699 45.999 26s11 41 11 71v152c0 16 0.166992 30.333 0.5 43
s2.83301 23.834 7.5 33.501s11.334 17.667 20.001 24s21.334 11.833 38.001 16.5c-16.667 4 -29.334 9.33301 -38.001 16s-15.334 14.5 -20.001 23.5s-7.16699 19.833 -7.5 32.5s-0.5 27 -0.5 43z" />
    <glyph glyph-name="asciitilde" unicode="~" horiz-adv-x="292" 
d="M24 338c0 10.667 1.16211 20.998 3.49512 30.998s6 18.667 11 26s11.667 13.166 20 17.499s18.833 6.5 31.5 6.5s25.834 -3.16699 39.501 -9.5s26.834 -12.833 39.501 -19.5s24.834 -12 36.501 -16s20.834 -4.66699 27.501 -2c5.33301 2.66699 9.16602 6 11.499 10
s4.16602 7.66699 5.49902 11c0.666992 4.66699 1 9 1 13h16c0 -11.333 -1 -21.666 -3 -30.999s-5.66699 -17.666 -11 -24.999s-12.166 -13 -20.499 -17s-18.833 -6 -31.5 -6s-25.667 3.16699 -39 9.5l-39.5 19.5c-13 6.66699 -25.167 12 -36.5 16s-21 4 -29 0
c-4.66699 -2 -8.16699 -5.16699 -10.5 -9.5s-4.16602 -8.16602 -5.49902 -11.499c-1.33301 -4 -1.66602 -8.33301 -0.999023 -13h-16z" />
    <glyph glyph-name="exclamdown" unicode="&#xa1;" horiz-adv-x="116" 
d="M100 676c0 -12 -4 -21.667 -12 -29s-17.667 -11 -29 -11s-21 3.66699 -29 11s-12 17 -12 29c0 11.333 4 20.833 12 28.5s17.667 11.5 29 11.5s21 -3.83301 29 -11.5s12 -17.167 12 -28.5zM100 42c0 -11.333 -4 -21 -12 -29s-17.667 -12 -29 -12s-21 4 -29 12
s-12 17.667 -12 29c0 2 0.5 10.667 1.5 26s2.16699 34.833 3.5 58.5s3 50.5 5 80.5l6 90c3.33301 72.667 8.33301 154 15 244h22l15 -244c1.33301 -30 2.83301 -60 4.5 -90l4.5 -80.5c1.33301 -23.667 2.5 -43.167 3.5 -58.5s1.5 -24 1.5 -26z" />
    <glyph glyph-name="cent" unicode="&#xa2;" horiz-adv-x="338" 
d="M226 459c-12.667 6.66699 -27.335 10.998 -44.002 12.998v-458c12.667 0.666992 25.167 3.16699 37.5 7.5s23 11.333 32 21s16.333 22.334 22 38.001s8.5 35.167 8.5 58.5h22v-13c0 -35.333 -9.16699 -65.666 -27.5 -90.999s-49.833 -39.666 -94.5 -42.999v-69h-23v68
c-15.333 0.666992 -31 4.5 -47 11.5s-30.333 16.167 -43 27.5s-23 25.166 -31 41.499s-12 34.5 -12 54.5v224c0 22 4 41.833 12 59.5s18.333 32.667 31 45s27 22 43 29s31.667 11.167 47 12.5v80h23v-81c6 0 12 -1 18 -3c2 0 5.66699 -1 11 -3
c0.666992 -0.666992 1.66699 -1 3 -1l8 -3c5.33301 -1.33301 11.333 -3.66602 18 -6.99902s12.834 -6 18.501 -8s10.334 -2 14.001 0s5.5 8 5.5 18h26v-169h-22c0 15.333 -1 30.666 -3 45.999c-2 12.667 -5.5 26.167 -10.5 40.5s-12.5 26.833 -22.5 37.5
c-2.66699 2.66699 -5.66699 5.16699 -9 7.5s-6.33301 4.83301 -9 7.5c-0.666992 0 -1 0.166992 -1 0.5s-0.333008 0.5 -1 0.5zM158.999 13.998v458c-19.333 -3.33301 -35.5 -15.166 -48.5 -35.499s-19.5 -49.5 -19.5 -87.5v-221c0 -38.667 6.5 -66.834 19.5 -84.501
s29.167 -27.5 48.5 -29.5z" />
    <glyph glyph-name="sterling" unicode="&#xa3;" horiz-adv-x="434" 
d="M402 137c2.66699 -23.333 0.668945 -45 -5.99805 -65c-5.33301 -17.333 -15.833 -33.833 -31.5 -49.5s-39.5 -25.834 -71.5 -30.501c-22.667 -3.33301 -44.667 -1 -66 7s-39.666 18.667 -54.999 32c-16 -18.667 -34.167 -31 -54.5 -37s-39 -7 -56 -3
s-30.833 12.333 -41.5 25s-14.667 28.667 -12 48c3.33301 23.333 14.166 38.833 32.499 46.5s39.166 10.5 62.499 8.5c24 -2 47.333 -7.66699 70 -17c5.33301 26.667 6.66602 54.5 3.99902 83.5s-8.33398 56.167 -17.001 81.5c-6.66699 18 -13.667 34.667 -21 50h-132v24
h121l-23.5 50c-7.66699 16.667 -14.5 33.5 -20.5 50.5s-10.833 34.333 -14.5 52s-5.16699 35.834 -4.5 54.501c0.666992 23.333 5.33398 46.666 14.001 69.999s22 43 40 59c16 14 35 23 57 27c11.333 2 23.833 3.5 37.5 4.5s26.167 0.166992 37.5 -2.5
c18.667 -4.66699 33.834 -12.667 45.501 -24s20.334 -24.333 26.001 -39s8.5 -29.667 8.5 -45s-2.5 -29.166 -7.5 -41.499s-12.167 -22 -21.5 -29s-20.666 -9.5 -33.999 -7.5c-12.667 1.33301 -22.667 6.83301 -30 16.5s-10.333 20.167 -9 31.5
c1.33301 10 5.83301 18.167 13.5 24.5s16.167 10.166 25.5 11.499h5c9.33301 1.33301 15.333 6.33301 18 15s2 18 -2 28c-5.33301 10 -12.5 19 -21.5 27s-21.5 13 -37.5 15c-7.33301 1.33301 -15 1.83301 -23 1.5s-15.667 -1.5 -23 -3.5c-12 -2.66699 -22 -8.5 -30 -17.5
s-14.167 -19.833 -18.5 -32.5s-6.83301 -26.334 -7.5 -41.001s0.666016 -29.334 3.99902 -44.001c4 -18.667 9.66699 -36.834 17 -54.501s15.333 -35.167 24 -52.5l26.5 -52c9 -17.333 17.167 -34.666 24.5 -51.999h104v-24h-95
c1.33301 -3.33301 2.16602 -6.16602 2.49902 -8.49902s1.16602 -5.16602 2.49902 -8.49902c11.333 -41.333 14.333 -78.333 9 -111s-19 -66 -41 -100c0 -0.666992 -0.333008 -1 -1 -1c16.667 -8.66699 33.167 -15.667 49.5 -21s31.833 -8.66602 46.5 -9.99902
s27.667 -0.333008 39 3s20 9.33301 26 18c4 5.33301 6.66699 11.5 8 18.5s2.33301 13.5 3 19.5c0 7.33301 -0.333008 14.333 -1 21h26zM155.002 51c0.666992 0.666992 -1.83008 3.66699 -7.49707 9s-12.334 11.166 -20.001 17.499s-15.667 12 -24 17s-14.833 7.5 -19.5 7.5
c-5.33301 0 -11.333 -0.5 -18 -1.5s-12.834 -3.16699 -18.501 -6.5s-10.334 -8 -14.001 -14s-5.5 -14 -5.5 -24c0 -19.333 5.83301 -32.666 17.5 -39.999s23.167 -11 34.5 -11c12.667 0 24.5 3 35.5 9s20.5 13.333 28.5 22c2 2.66699 4 5.16699 6 7.5s3.66699 4.83301 5 7.5
z" />
    <glyph glyph-name="yen" unicode="&#xa5;" horiz-adv-x="392" 
d="M381 717l-0.00390625 -24c-4 0.666992 -8.66699 0.666992 -14 0c-4.66699 -1.33301 -9.16699 -4.33301 -13.5 -9s-8.16602 -11.667 -11.499 -21c0 -0.666992 -3.33301 -11.167 -10 -31.5l-25.5 -79.5l-35 -109l-39.5 -121h84v-24h-91
c-1.33301 -2.66699 -2.16602 -5 -2.49902 -7s-0.833008 -4.66699 -1.5 -8v-1v-46h95v-24h-95v-158c0 -9.33301 1.33301 -16.166 4 -20.499s5.33398 -6.83301 8.00098 -7.5c4 -2 8.33301 -2 13 0v-26h-120v26c2 -0.666992 4.33301 -1 7 -1c2 0 4.16699 0.333008 6.5 1
s4.5 2 6.5 4c0.666992 2.66699 1.66699 5.83398 3 9.50098s2 8.5 2 14.5v158h-102v24h102v46c-1.33301 3.33301 -2.16602 6.16602 -2.49902 8.49902s-0.833008 4.83301 -1.5 7.5h-98v24h92l-31 121l-28.5 108l-20.5 78.5c-5.33301 20.333 -8 30.833 -8 31.5
c-2 10 -5.16699 17.167 -9.5 21.5s-8.5 7.16602 -12.5 8.49902c-6 1.33301 -11.667 1.33301 -17 0v24h126v-24c-5.33301 1.33301 -9.33301 1.33301 -12 0c-3.33301 -1.33301 -5.83301 -4.16602 -7.5 -8.49902s-1.16699 -11.5 1.5 -21.5
c0 -0.666992 2.66699 -10.334 8 -29.001s11.666 -43 18.999 -73l26 -102.5l30 -115.5l37.5 116l33 102.5l24 74c6.33301 19 9.5 28.833 9.5 29.5c3.33301 9.33301 4.33301 16.333 3 21s-3.66602 7.66699 -6.99902 9c-2.66699 0.666992 -6.66699 0.666992 -12 0v24h88z" />
    <glyph glyph-name="brokenbar" unicode="&#xa6;" horiz-adv-x="88" 
d="M58 715v-418h-23v418h23zM58 232v-419h-23v419h23z" />
    <glyph glyph-name="section" unicode="&#xa7;" horiz-adv-x="302" 
d="M277 250c-1.33301 -16.667 -5.17188 -33.5029 -11.5049 -50.5029s-16.5 -31.5 -30.5 -43.5c6 -23.333 8.66699 -45 8 -65c0 -14 -3 -28.167 -9 -42.5s-14.833 -27.5 -26.5 -39.5s-25.667 -21.167 -42 -27.5s-35.166 -8.83301 -56.499 -7.5
c-15.333 1.33301 -28.333 6.16602 -39 14.499s-19.167 17.833 -25.5 28.5s-10.666 22.334 -12.999 35.001s-2.16602 24.5 0.500977 35.5s7.33398 19.833 14.001 26.5s15.667 10 27 10c10.667 0 19.667 -3.33301 27 -10s11 -15 11 -25c0 -8 -2.66699 -15 -8 -21
s-12 -10.333 -20 -13h-4c-6.66699 -2.66699 -10.667 -7.66699 -12 -15s0.333984 -14.666 5.00098 -21.999s11.334 -13.833 20.001 -19.5s19.667 -8.5 33 -8.5c24.667 0 45 7.16699 61 21.5s23.667 35.166 23 62.499c0 13.333 -1.66699 25.333 -5 36s-8.33301 22 -15 34
s-15.667 25.5 -27 40.5l-39 53.5c-16 20.667 -30.167 40.167 -42.5 58.5s-22.833 36.333 -31.5 54s-15.167 36 -19.5 55s-5.5 39.167 -3.5 60.5c1.33301 17.333 5.33301 34.333 12 51s17 31 31 43c-3.33301 12.667 -5.66602 24.334 -6.99902 35.001s-2 21 -2 31
c0 14 3 28.333 9 43s14.833 27.834 26.5 39.501s25.667 20.834 42 27.501s35.166 9 56.499 7c15.333 -1.33301 28.666 -6.16602 39.999 -14.499s20.166 -18 26.499 -29s10.333 -22.833 12 -35.5s1.33398 -24.334 -0.999023 -35.001s-7 -19.5 -14 -26.5
s-15.833 -10.5 -26.5 -10.5c-10 0 -18.833 3.5 -26.5 10.5s-11.5 15.167 -11.5 24.5c0 8.66699 2.5 16 7.5 22s11.833 10 20.5 12c0.666992 0 1.16699 0.166992 1.5 0.5s0.833008 0.5 1.5 0.5c7.33301 2 11.666 6.66699 12.999 14s0 15 -4 23
c-5.33301 8 -12.5 14.667 -21.5 20s-19.5 8 -31.5 8c-24.667 0 -45.167 -7.33301 -61.5 -22s-24.5 -35.667 -24.5 -63c0 -12.667 1.66699 -24.5 5 -35.5s8.5 -22.5 15.5 -34.5s15.833 -25.5 26.5 -40.5l39 -53.5l43 -59c12.667 -18 23.334 -35.833 32.001 -53.5
s15 -36 19 -55s5 -39.167 3 -60.5zM142.994 317.997c22.667 -26 40.6699 -50.5 54.0029 -73.5s23.666 -44.5 30.999 -64.5c14 14 22 33 24 57c0 11.333 -0.833008 21.5 -2.5 30.5s-5.66699 19.333 -12 31s-15.5 25.334 -27.5 41.001s-28 35.167 -48 58.5
c-23.333 27.333 -41.833 52.166 -55.5 74.499s-24.167 43.833 -31.5 64.5c-6.66699 -7.33301 -11.834 -15.833 -15.501 -25.5s-5.83398 -20.5 -6.50098 -32.5c-1.33301 -10.667 -1.16602 -20.5 0.500977 -29.5s5.66699 -19.333 12 -31s15.666 -25.5 27.999 -41.5
s28.833 -35.667 49.5 -59z" />
    <glyph glyph-name="dieresis" unicode="&#xa8;" horiz-adv-x="218" 
d="M158 745c-8.66699 0 -15.834 2.83301 -21.501 8.5s-8.5 12.5 -8.5 20.5c0 8.66699 2.83301 15.834 8.5 21.501s12.834 8.5 21.501 8.5s15.834 -2.83301 21.501 -8.5s8.5 -12.834 8.5 -21.501c0 -8 -2.83301 -14.833 -8.5 -20.5s-12.834 -8.5 -21.501 -8.5zM60 745
c-8 0 -14.833 2.83301 -20.5 8.5s-8.5 12.5 -8.5 20.5c0 8.66699 2.83301 15.834 8.5 21.501s12.5 8.5 20.5 8.5c8.66699 0 16 -2.83301 22 -8.5s9 -12.834 9 -21.501c0 -8 -3 -14.833 -9 -20.5s-13.333 -8.5 -22 -8.5z" />
    <glyph glyph-name="copyright" unicode="&#xa9;" horiz-adv-x="554" 
d="M354 523c7.33301 0 11.0029 5.99805 11.0029 17.998h24v-153h-20c0 16 -1.83301 34.667 -5.5 56s-12.834 40 -27.501 56c-10.667 11.333 -22.334 18.666 -35.001 21.999s-25 5 -37 5c-19.333 -1.33301 -35.5 -11.166 -48.5 -29.499s-19.5 -45.833 -19.5 -82.5v-200
c0 -20.667 2 -37.667 6 -51s9.5 -23.833 16.5 -31.5s15 -13 24 -16s18.833 -4.5 29.5 -4.5c12.667 0 24.834 1.83301 36.501 5.5s22 9.66699 31 18s16.167 19.833 21.5 34.5s8 33 8 55h20v-12c0 -17.333 -2.33301 -33.333 -7 -48s-12 -27.5 -22 -38.5
s-22.833 -19.667 -38.5 -26s-34.834 -9.5 -57.501 -9.5c-14.667 0 -29.5 2.83301 -44.5 8.5s-28.667 13.834 -41 24.501s-22.333 23.5 -30 38.5s-11.5 31.833 -11.5 50.5v203c0 20.667 3.83301 39.167 11.5 55.5s17.667 30.166 30 41.499s26 20 41 26s29.833 9 44.5 9
c7.33301 0 14.166 -0.166992 20.499 -0.5s13.166 -2.16602 20.499 -5.49902c0.666992 -0.666992 1.33398 -1 2.00098 -1l8 -3c6.66699 -1.33301 13.5 -4.16602 20.5 -8.49902s13.167 -6.5 18.5 -6.5zM512.003 439.998c5.33301 -18.667 9.33496 -38.167 12.002 -58.5
s4 -41.166 4 -62.499s-1.33301 -42 -4 -62s-6.66699 -39.333 -12 -58c-10.667 -38 -27.334 -71.333 -50.001 -100c-48 -63.333 -114.333 -95 -199 -95s-151 31.667 -199 95c-22.667 28.667 -39.334 62 -50.001 100c-5.33301 18.667 -9.33301 38 -12 58s-4 40.667 -4 62
s1.33301 42.166 4 62.499s6.66699 39.833 12 58.5c11.333 38.667 28 72 50 100c23.333 31.333 51.833 54.833 85.5 70.5s71.5 23.5 113.5 23.5s79.833 -7.83301 113.5 -23.5s62.167 -39.167 85.5 -70.5c22 -28 38.667 -61.333 50 -100zM263.005 21.998
c40.667 0 76.5 7.83301 107.5 23.5s56.833 36.834 77.5 63.501s36.167 58 46.5 94s15.5 74.667 15.5 116c0 40.667 -5.16699 79.167 -15.5 115.5s-25.833 67.833 -46.5 94.5s-46.5 47.834 -77.5 63.501s-66.833 23.5 -107.5 23.5c-41.333 0 -77.333 -7.83301 -108 -23.5
s-56.334 -36.834 -77.001 -63.501s-36.167 -58.167 -46.5 -94.5s-15.5 -74.833 -15.5 -115.5c0 -41.333 5.16699 -80 15.5 -116s25.833 -67.333 46.5 -94s46.334 -47.834 77.001 -63.501s66.667 -23.5 108 -23.5z" />
    <glyph glyph-name="ordfeminine" unicode="&#xaa;" horiz-adv-x="313" 
d="M287 318c0 -4 -0.835938 -7.83105 -2.50293 -11.498s-4.33398 -7.33398 -8.00098 -11.001s-8.16699 -6.83398 -13.5 -9.50098s-11.666 -4 -18.999 -4c-10.667 0 -20.5 2.5 -29.5 7.5s-15.167 11.833 -18.5 20.5c-2.66699 4.66699 -4.66699 10 -6 16
c-6 -12.667 -15.167 -23.167 -27.5 -31.5s-26.166 -12.5 -41.499 -12.5c-18.667 0 -35 6.66699 -49 20c-8 6.66699 -14.5 15.667 -19.5 27s-7.83301 24.333 -8.5 39c-0.666992 1.33301 -1 4 -1 8v1c0.666992 8 2.16699 16.333 4.5 25s5.83301 17.334 10.5 26.001
s10.5 16.834 17.5 24.501s14.167 14.167 21.5 19.5c2 0.666992 3.66699 1.66699 5 3s3 2.66602 5 3.99902c1.33301 0.666992 2.16602 1 2.49902 1s0.833008 0.333008 1.5 1l22.5 14c6.33301 4 12.166 8 17.499 12c2.66699 2 5.33398 4.16699 8.00098 6.5s5.66699 4.5 9 6.5
l12 10.5c4 3.66699 6.66699 7.83398 8 12.501c3.33301 4.66699 5 10.334 5 17.001s-0.666992 12.667 -2 18c-2 10 -6.83301 18.833 -14.5 26.5s-16.167 12.5 -25.5 14.5c-4.66699 1.33301 -8.66699 2 -12 2c-13.333 0 -24.666 -2.33301 -33.999 -7
c-6 -2.66699 -10.333 -5.83398 -13 -9.50098s-4.16699 -7 -4.5 -10s0.166992 -5.33301 1.5 -7s3.33301 -3.16699 6 -4.5h1.5c0.333008 0 0.833008 -0.333008 1.5 -1c6 -2.66699 11 -6.83398 15 -12.501s6 -12.167 6 -19.5c0 -8.66699 -3.16699 -16.167 -9.5 -22.5
s-13.833 -9.5 -22.5 -9.5c-9.33301 0 -17.333 3.16699 -24 9.5s-10 13.833 -10 22.5c0 8 1.16699 16.333 3.5 25s5.5 16.667 9.5 24c8.66699 12.667 19.167 22 31.5 28s26.166 9 41.499 9c11.333 0 22.333 -2.16699 33 -6.5s20.334 -10.333 29.001 -18
s16 -16.834 22 -27.501s9 -23 9 -37v-206c0 -8 0.166992 -13.333 0.5 -16s0.5 -4.66699 0.5 -6v0c0 -6 1.83301 -10.833 5.5 -14.5s7.83398 -5.5 12.501 -5.5c6.66699 0 11.834 1.83301 15.501 5.5s5.5 8.16699 5.5 13.5h15zM176.997 336.002c4 6 6.33301 12.832 7 20.499
s1 14.834 1 21.501v129c-2 -2 -4 -3.83301 -6 -5.5s-4.33301 -3.5 -7 -5.5c-13.333 -10 -24.833 -19 -34.5 -27s-17.667 -16.333 -24 -25s-11.333 -18 -15 -28s-6.16699 -21.333 -7.5 -34v-10c0.666992 -18 5.5 -32 14.5 -42s21.833 -15 38.5 -15c8 0 15 2 21 6s10 9 12 15z
" />
    <glyph glyph-name="guillemotleft" unicode="&#xab;" horiz-adv-x="387" 
d="M202 217l-192.002 89.001v10l192 90v-20l-97 -45c-21.333 -10 -32.166 -19.833 -32.499 -29.5s10.834 -19.834 33.501 -30.501l96 -44v-20zM353.998 217.001l-192 89.001v10l192 90v-20l-96 -45c-21.333 -10 -32.333 -19.833 -33 -29.5s10.333 -19.834 33 -30.501l96 -44
v-20z" />
    <glyph glyph-name="registered" unicode="&#xae;" horiz-adv-x="554" 
d="M512 440c5.33301 -18.667 9.33496 -38.167 12.002 -58.5s4 -41.166 4 -62.499s-1.33301 -42 -4 -62s-6.66699 -39.333 -12 -58c-10.667 -38 -27.334 -71.333 -50.001 -100c-48 -63.333 -114.333 -95 -199 -95s-151 31.667 -199 95c-22.667 28.667 -39.334 62 -50.001 100
c-5.33301 18.667 -9.33301 38 -12 58s-4 40.667 -4 62s1.33301 42.166 4 62.499s6.66699 39.833 12 58.5c11.333 38.667 28 72 50 100c23.333 31.333 51.833 54.833 85.5 70.5s71.5 23.5 113.5 23.5s79.833 -7.83301 113.5 -23.5s62.167 -39.167 85.5 -70.5
c22 -28 38.667 -61.333 50 -100zM263.002 22c40.667 0 76.5 7.83301 107.5 23.5s56.833 36.834 77.5 63.501s36.167 58 46.5 94s15.5 74.667 15.5 116c0 40.667 -5.16699 79.167 -15.5 115.5s-25.833 67.833 -46.5 94.5s-46.5 47.834 -77.5 63.501s-66.833 23.5 -107.5 23.5
c-41.333 0 -77.333 -7.83301 -108 -23.5s-56.334 -36.834 -77.001 -63.501s-36.167 -58.167 -46.5 -94.5s-15.5 -74.833 -15.5 -115.5c0 -41.333 5.16699 -80 15.5 -116s25.833 -67.333 46.5 -94s46.334 -47.834 77.001 -63.501s66.667 -23.5 108 -23.5zM396.002 115
c4 0 7.16699 0.500977 9.5 1.50098s4.83301 2.16699 7.5 3.5v-20c-4 -3.33301 -8.5 -6.16602 -13.5 -8.49902s-12.167 -3.5 -21.5 -3.5c-7.33301 0 -15 1.5 -23 4.5s-15.167 7.66699 -21.5 14s-11.833 14.833 -16.5 25.5s-7.33398 23.667 -8.00098 39v46
c0 13.333 -1.83301 23.833 -5.5 31.5s-8.16699 13.667 -13.5 18s-11.166 7.16602 -17.499 8.49902s-12.5 2.33301 -18.5 3h-36v-133c0 -8.66699 1.16699 -14.834 3.5 -18.501s4.83301 -5.83398 7.5 -6.50098c3.33301 -2 7 -2 11 0v-23h-107v23
c4.66699 -2 8.33398 -2 11.001 0c3.33301 0.666992 6.33301 2.83398 9 6.50098s4 9.83398 4 18.501v352c0 8.66699 -1.33301 15 -4 19s-5.66699 6.66699 -9 8c-2.66699 0.666992 -6.33398 0.666992 -11.001 0v21h128c22 0 41.333 -3.66699 58 -11s30.667 -17 42 -29
s19.833 -25.667 25.5 -41s8.5 -31.333 8.5 -48v-8c0 -23.333 -5.83301 -45.833 -17.5 -67.5s-30.167 -37.834 -55.5 -48.501c34 -14 51 -40.333 51 -79v-42c0 -15.333 1 -28.5 3 -39.5s8.66699 -16.5 20 -16.5zM218.002 523.001v-220h48c4.66699 0 10.834 1.66699 18.501 5
s15 8.5 22 15.5s13 15.833 18 26.5s7.5 23.667 7.5 39v47c0 14.667 -2.5 27.5 -7.5 38.5s-11 20 -18 27s-14.333 12.333 -22 16s-13.834 5.5 -18.501 5.5h-48z" />
    <glyph glyph-name="macron" unicode="&#xaf;" horiz-adv-x="320" 
d="M-6 658h290v-54h-290v54z" />
    <glyph glyph-name="degree" unicode="&#xb0;" horiz-adv-x="328" 
d="M77 508c0 -24 7.33301 -44.5 22 -61.5s34.667 -25.5 60 -25.5c24.667 0 44.5 8.5 59.5 25.5s22.5 37.5 22.5 61.5s-7.5 44.5 -22.5 61.5s-34.833 25.5 -59.5 25.5c-25.333 0 -45.333 -8.5 -60 -25.5s-22 -37.5 -22 -61.5zM28 508c0 18.667 3.33301 36 10 52
s15.834 29.833 27.501 41.5s25.5 20.834 41.5 27.501s33.333 10 52 10s35.834 -3.33301 51.501 -10s29.334 -15.834 41.001 -27.501s20.834 -25.5 27.501 -41.5s10 -33.333 10 -52s-3.33301 -35.834 -10 -51.501s-15.834 -29.334 -27.501 -41.001
s-25.334 -20.834 -41.001 -27.501s-32.834 -10 -51.501 -10s-36 3.33301 -52 10s-29.833 15.834 -41.5 27.501s-20.834 25.334 -27.501 41.001s-10 32.834 -10 51.501z" />
    <glyph glyph-name="plusminus" unicode="&#xb1;" 
d="M27 30h325v-30h-325v30zM351 242v-30h-148v-149h-30v149h-147v30h147v146h30v-146h148z" />
    <glyph glyph-name="acute" unicode="&#xb4;" horiz-adv-x="160" 
d="M16 566l-8 9.00098l61 88c16 23.333 28 38.333 36 45c6 4.66699 12.667 7 20 7c8 0 15 -2.66699 21 -8c6 -6.66699 9 -13.334 9 -20.001c0 -12 -8.66699 -24.333 -26 -37z" />
    <glyph glyph-name="mu" unicode="&#xb5;" horiz-adv-x="421" 
d="M223 418l-1.99805 -0.00292969c-0.666992 0 -1.33398 0.166992 -2.00098 0.5s-1.66699 0.5 -3 0.5s-3 -0.333008 -5 -1s-3.66699 -2 -5 -4c-4 -4 -6.33301 -10 -7 -18v-48v-60.5v-63.5v-58.5c0 -17.667 0.166992 -32.334 0.5 -44.001s0.5 -18.5 0.5 -20.5v-1
c1.33301 -30.667 7.33301 -52.167 18 -64.5s23.667 -19.166 39 -20.499h3c18 0 31.5 7.16699 40.5 21.5s15.5 38.833 19.5 73.5v281c0 12 -2 19.667 -6 23s-7.66699 5 -11 5c-1.33301 0 -2.33301 -0.166992 -3 -0.5s-1.33398 -0.5 -2.00098 -0.5h-2v23h109v-23h-2
c-0.666992 0 -1.33398 0.166992 -2.00098 0.5s-1.66699 0.5 -3 0.5c-2 0 -5.33301 -1.66699 -10 -5s-7 -11 -7 -23v-343c0 -12 2.33301 -19.167 7 -21.5s8 -3.5 10 -3.5h5c0.666992 0 1.33398 0.333008 2.00098 1v-24h-85v36
c-0.666992 -0.666992 -2.5 -2.83398 -5.5 -6.50098l-11 -13c-4.33301 -5 -10 -9.33301 -17 -13s-15.5 -5.5 -25.5 -5.5c-12 0 -22.167 1.83301 -30.5 5.5s-14.5 6.83398 -18.5 9.50098c-6 6 -10.333 11.333 -13 16c0 -6 -0.166992 -13.167 -0.5 -21.5
s-0.5 -15.833 -0.5 -22.5v-27c-0.666992 -9.33301 -2.33398 -20.5 -5.00098 -33.5s-7.5 -25.333 -14.5 -37s-16.5 -21.667 -28.5 -30s-27 -12.833 -45 -13.5h-4c-20 0 -36 5.33301 -48 16s-20.833 22.834 -26.5 36.501s-7.5 27 -5.5 40s7 22.5 15 28.5
c2 1.33301 4.33301 3 7 5c2.66699 0.666992 5.16699 1.33398 7.5 2.00098s5.5 1 9.5 1c6.66699 0 13 -1.33301 19 -4c10 -7.33301 16.333 -14.666 19 -21.999s3.16699 -14.333 1.5 -21s-4.66699 -12.667 -9 -18s-8.83301 -9 -13.5 -11
c-4 -1.33301 -6.66699 -3.83301 -8 -7.5s-1.16602 -7.33398 0.500977 -11.001s5 -7 10 -10s11.5 -4.5 19.5 -4.5h4c6.66699 0.666992 12.167 3.83398 16.5 9.50098s7.5 13.167 9.5 22.5s3.66699 19.333 5 30s2 20.667 2 30v435c0 11.333 -2.83301 18.5 -8.5 21.5
s-10.167 4.5 -13.5 4.5c-0.666992 0 -0.5 0.333008 0.5 1s1.16699 0.666992 0.5 0h-1h-1v23h110v-23z" />
    <glyph glyph-name="mu" unicode="&#x3bc;" horiz-adv-x="421" 
d="M223 418l-1.99805 -0.00292969c-0.666992 0 -1.33398 0.166992 -2.00098 0.5s-1.66699 0.5 -3 0.5s-3 -0.333008 -5 -1s-3.66699 -2 -5 -4c-4 -4 -6.33301 -10 -7 -18v-48v-60.5v-63.5v-58.5c0 -17.667 0.166992 -32.334 0.5 -44.001s0.5 -18.5 0.5 -20.5v-1
c1.33301 -30.667 7.33301 -52.167 18 -64.5s23.667 -19.166 39 -20.499h3c18 0 31.5 7.16699 40.5 21.5s15.5 38.833 19.5 73.5v281c0 12 -2 19.667 -6 23s-7.66699 5 -11 5c-1.33301 0 -2.33301 -0.166992 -3 -0.5s-1.33398 -0.5 -2.00098 -0.5h-2v23h109v-23h-2
c-0.666992 0 -1.33398 0.166992 -2.00098 0.5s-1.66699 0.5 -3 0.5c-2 0 -5.33301 -1.66699 -10 -5s-7 -11 -7 -23v-343c0 -12 2.33301 -19.167 7 -21.5s8 -3.5 10 -3.5h5c0.666992 0 1.33398 0.333008 2.00098 1v-24h-85v36
c-0.666992 -0.666992 -2.5 -2.83398 -5.5 -6.50098l-11 -13c-4.33301 -5 -10 -9.33301 -17 -13s-15.5 -5.5 -25.5 -5.5c-12 0 -22.167 1.83301 -30.5 5.5s-14.5 6.83398 -18.5 9.50098c-6 6 -10.333 11.333 -13 16c0 -6 -0.166992 -13.167 -0.5 -21.5
s-0.5 -15.833 -0.5 -22.5v-27c-0.666992 -9.33301 -2.33398 -20.5 -5.00098 -33.5s-7.5 -25.333 -14.5 -37s-16.5 -21.667 -28.5 -30s-27 -12.833 -45 -13.5h-4c-20 0 -36 5.33301 -48 16s-20.833 22.834 -26.5 36.501s-7.5 27 -5.5 40s7 22.5 15 28.5
c2 1.33301 4.33301 3 7 5c2.66699 0.666992 5.16699 1.33398 7.5 2.00098s5.5 1 9.5 1c6.66699 0 13 -1.33301 19 -4c10 -7.33301 16.333 -14.666 19 -21.999s3.16699 -14.333 1.5 -21s-4.66699 -12.667 -9 -18s-8.83301 -9 -13.5 -11
c-4 -1.33301 -6.66699 -3.83301 -8 -7.5s-1.16602 -7.33398 0.500977 -11.001s5 -7 10 -10s11.5 -4.5 19.5 -4.5h4c6.66699 0.666992 12.167 3.83398 16.5 9.50098s7.5 13.167 9.5 22.5s3.66699 19.333 5 30s2 20.667 2 30v435c0 11.333 -2.83301 18.5 -8.5 21.5
s-10.167 4.5 -13.5 4.5c-0.666992 0 -0.5 0.333008 0.5 1s1.16699 0.666992 0.5 0h-1h-1v23h110v-23z" />
    <glyph glyph-name="paragraph" unicode="&#xb6;" horiz-adv-x="483" 
d="M171 627l290.003 -0.000976562v-24c-5.33301 1.33301 -9.66602 1.33301 -12.999 0c-2.66699 -1.33301 -5.5 -4.16602 -8.5 -8.49902s-4.5 -11.5 -4.5 -21.5v-607c0 -9.33301 1.5 -16.166 4.5 -20.499s5.83301 -6.83301 8.5 -7.5c3.33301 -2 7.66602 -2 12.999 0v-26h-95
v54v607c0 10 -1.5 17.167 -4.5 21.5s-5.5 7.16602 -7.5 8.49902c-1.33301 0 -4.33301 0.166992 -9 0.5s-9.83398 0.5 -15.501 0.5s-10.834 -0.166992 -15.501 -0.5s-7.33398 -0.5 -8.00098 -0.5c-3.33301 -1.33301 -6.66602 -4.16602 -9.99902 -8.49902s-5 -11.5 -5 -21.5
v-607v-54h-94v26c4.66699 -2 9 -2 13 0c2.66699 0.666992 5.33398 3.16699 8.00098 7.5s4 11.166 4 20.499v341h-51c-28.667 0 -52.334 7.83301 -71.001 23.5s-32.834 35.5 -42.501 59.5s-14.5 49.667 -14.5 77s4.66699 53 14 77s23.5 43.833 42.5 59.5
s42.833 23.5 71.5 23.5zM222.003 333.999v268c-20.667 4.66699 -39 4.66699 -55 0c-14 -4 -26.667 -13.333 -38 -28s-17 -38.334 -17 -71.001v-71c0 -30 5.66699 -51.667 17 -65s24 -22.666 38 -27.999c16 -6 34.333 -7.66699 55 -5z" />
    <glyph glyph-name="periodcentered" unicode="&#xb7;" horiz-adv-x="128" 
d="M68 382c11.333 -1.33301 20.666 -6.33301 27.999 -15s10.333 -18.334 9 -29.001c-1.33301 -11.333 -6.33301 -20.5 -15 -27.5s-18.667 -9.83301 -30 -8.5c-10.667 1.33301 -19.667 6.33301 -27 15s-10.333 18.334 -9 29.001c1.33301 11.333 6.33301 20.5 15 27.5
s18.334 9.83301 29.001 8.5z" />
    <glyph glyph-name="cedilla" unicode="&#xb8;" horiz-adv-x="173" 
d="M156 -96v4v-8v4zM81 -38c2 0 3.99902 0.333984 5.99902 1.00098c2 0 4.5 0.166992 7.5 0.5s6.83301 -0.166992 11.5 -1.5c12 -2.66699 23.333 -8.16699 34 -16.5s16 -22.166 16 -41.499c-1.33301 -18.667 -8.33301 -34.834 -21 -48.501s-30.334 -20.5 -53.001 -20.5
c-4 0 -8.33301 0.666992 -13 2c-15.333 1.33301 -27.333 6.83301 -36 16.5s-14 19.667 -16 30s-0.5 19.666 4.5 27.999s12.833 12.5 23.5 12.5c6 0 11.667 -1.83301 17 -5.5s8 -8.83398 8 -15.501c0 -4.66699 -1.83301 -8.83398 -5.5 -12.501s-8.16699 -6.16699 -13.5 -7.5
h-1c-5.33301 -0.666992 -8.66602 -3.16699 -9.99902 -7.5s-0.333008 -8.83301 3 -13.5c4 -4.66699 9 -8.5 15 -11.5s13 -4.5 21 -4.5c7.33301 0 13.333 1.33301 18 4s8.16699 6.33398 10.5 11.001s3.83301 10.334 4.5 17.001s1.33398 14 2.00098 22v8
c0 15.333 -3 25.5 -9 30.5s-12.333 8.16699 -19 9.5c-9.33301 0.666992 -19 -1 -29 -5l27 57l15 -1z" />
    <glyph glyph-name="ordmasculine" unicode="&#xba;" horiz-adv-x="243" 
d="M124 645c11.333 0 22.501 -1.83203 33.501 -5.49902s21.167 -9.5 30.5 -17.5s17 -18.333 23 -31s9 -27.667 9 -45v-158c0 -14 -3 -26.833 -9 -38.5s-13.667 -21.667 -23 -30s-19.5 -15 -30.5 -20s-22.167 -7.5 -33.5 -7.5s-22.666 2 -33.999 6s-21.5 10.167 -30.5 18.5
s-16.5 18.5 -22.5 30.5s-9 25.667 -9 41v157c0 18 2.83301 33.167 8.5 45.5s13.167 22.666 22.5 30.999s19.666 14.333 30.999 18s22.666 5.5 33.999 5.5zM170.001 531.001c0 18 -1 33.168 -3 45.501s-5 22.166 -9 29.499s-9 12.5 -15 15.5s-12.667 4.5 -20 4.5
c-14.667 0 -26 -6.83301 -34 -20.5s-12 -38.5 -12 -74.5v-125c0 -35.333 4 -60.5 12 -75.5s19.333 -22.5 34 -22.5c15.333 0 27 7.5 35 22.5s12 40.167 12 75.5v125z" />
    <glyph glyph-name="guillemotright" unicode="&#xbb;" horiz-adv-x="388" 
d="M185 239l96 44c22 10 32.833 20 32.5 30s-10.833 20 -31.5 30l-97 45v20l193 -90v-10l-193 -90v21zM34 239l95 44c22.667 10 33.667 20 33 30s-11.667 20 -33 30l-95 45v20l191 -90v-10l-191 -90v21z" />
    <glyph glyph-name="questiondown" unicode="&#xbf;" horiz-adv-x="300" 
d="M169 640c-11.333 0.666992 -20.666 5.33301 -27.999 14s-10.333 18.334 -9 29.001c1.33301 11.333 6.16602 20.5 14.499 27.5s18.166 9.83301 29.499 8.5c10.667 -1.33301 19.667 -6 27 -14s10.333 -17.667 9 -29c-1.33301 -12 -6.16602 -21.333 -14.499 -28
s-17.833 -9.33398 -28.5 -8.00098zM184 -0.000976562c-22 -4 -43.9961 -4.00293 -65.9961 -0.00292969c-20 4 -36.833 11.333 -50.5 22s-25 23.667 -34 39s-15.333 32.166 -19 50.499s-5.5 36.5 -5.5 54.5c0 22.667 2.66699 44.167 8 64.5s12.666 40 21.999 59
s20 37.333 32 55s25 35.5 39 53.5c10 12 18 24.667 24 38s11.667 27.333 17 42c3.33301 6 5.33301 12.833 6 20.5s1.66699 14.834 3 21.501l2 21h21c5.33301 -25.333 6.33301 -53.333 3 -84s-11 -57.667 -23 -81c-5.33301 -10.667 -11 -21 -17 -31l-18 -31.5l-17.5 -32.5
c-5.66699 -10.667 -9.83398 -21.667 -12.501 -33c-6.66699 -25.333 -9.5 -51.166 -8.5 -77.499s3.83301 -52.5 8.5 -78.5c2.66699 -19.333 8.66699 -35.666 18 -48.999s25.333 -20 48 -20c17.333 0 31.666 3.83301 42.999 11.5s20.666 17.167 27.999 28.5
c5.33301 10.667 7.33301 21 6 31s-7.33301 16.667 -18 20c-0.666992 0.666992 -2 1 -4 1c-10.667 2.66699 -18.5 6.5 -23.5 11.5s-7.5 13.5 -7.5 25.5c0 13.333 3.83301 24.5 11.5 33.5s18.5 13.5 32.5 13.5c14.667 0 26.5 -4.5 35.5 -13.5s15.167 -20.167 18.5 -33.5
s3.66602 -28.166 0.999023 -44.499s-8.16699 -31.833 -16.5 -46.5s-19.666 -27.5 -33.999 -38.5s-31.833 -18.5 -52.5 -22.5z" />
    <glyph glyph-name="Agrave" unicode="&#xc0;" horiz-adv-x="330" 
d="M286 54c1.33301 -9.33301 3.83203 -16.165 7.49902 -20.498s7.83398 -6.83301 12.501 -7.5c5.33301 -2 10.666 -2 15.999 0v-26h-129v26c6 -2 11 -2 15 0c2.66699 0.666992 5.16699 3.16699 7.5 7.5s2.83301 11.166 1.5 20.499c0 0.666992 -1.5 12.834 -4.5 36.501
l-11.5 90.5h-105c-6 -36.667 -10.5 -66.834 -13.5 -90.501s-4.5 -35.834 -4.5 -36.501c-2 -9.33301 -1.66699 -16.166 1 -20.499s5.33398 -6.83301 8.00098 -7.5c3.33301 -2 8 -2 14 0v-26h-93v26c4.66699 -2 9.66699 -2 15 0c4 0.666992 8.16699 3.16699 12.5 7.5
s7.5 11.166 9.5 20.499c0 0.666992 1.33301 10.5 4 29.5s6.5 44.167 11.5 75.5l17 106l19.5 122l52 328h45l46 -327l16 -122l15 -106l11 -76c2.66699 -19.333 4 -29.333 4 -30zM197.999 205.001c-4 25.333 -7.66797 52.666 -11.001 81.999s-7 58.5 -11 87.5
s-8.16699 57.667 -12.5 86s-8.16602 54.833 -11.499 79.5c-4.66699 -24.667 -9.16699 -51.167 -13.5 -79.5l-13 -86l-13.5 -87.5c-4.66699 -29.333 -8.66699 -56.666 -12 -81.999h98zM224.998 754.001l-6.00098 -6.00098l-82 59c-21.333 16 -32 28.667 -32 38
c0 6.66699 2.33301 12.334 7 17.001c6 4.66699 11.667 7 17 7c10.667 0 20.334 -6.33301 29.001 -19z" />
    <glyph glyph-name="Aacute" unicode="&#xc1;" horiz-adv-x="330" 
d="M286 54c1.33301 -9.33301 3.83203 -16.165 7.49902 -20.498s7.83398 -6.83301 12.501 -7.5c5.33301 -2 10.666 -2 15.999 0v-26h-129v26c6 -2 11 -2 15 0c2.66699 0.666992 5.16699 3.16699 7.5 7.5s2.83301 11.166 1.5 20.499c0 0.666992 -1.5 12.834 -4.5 36.501
l-11.5 90.5h-105c-6 -36.667 -10.5 -66.834 -13.5 -90.501s-4.5 -35.834 -4.5 -36.501c-2 -9.33301 -1.66699 -16.166 1 -20.499s5.33398 -6.83301 8.00098 -7.5c3.33301 -2 8 -2 14 0v-26h-93v26c4.66699 -2 9.66699 -2 15 0c4 0.666992 8.16699 3.16699 12.5 7.5
s7.5 11.166 9.5 20.499c0 0.666992 1.33301 10.5 4 29.5s6.5 44.167 11.5 75.5l17 106l19.5 122l52 328h45l46 -327l16 -122l15 -106l11 -76c2.66699 -19.333 4 -29.333 4 -30zM197.999 205.001c-4 25.333 -7.66797 52.666 -11.001 81.999s-7 58.5 -11 87.5
s-8.16699 57.667 -12.5 86s-8.16602 54.833 -11.499 79.5c-4.66699 -24.667 -9.16699 -51.167 -13.5 -79.5l-13 -86l-13.5 -87.5c-4.66699 -29.333 -8.66699 -56.666 -12 -81.999h98zM170.998 850.001c8.66699 12.667 18.667 19 30 19c5.33301 0 11 -2.33301 17 -7
c4.66699 -6 7 -11.667 7 -17c0 -9.33301 -11 -22 -33 -38l-81 -59l-6 6z" />
    <glyph glyph-name="Acircumflex" unicode="&#xc2;" horiz-adv-x="331" 
d="M286 54c1.33301 -9.33301 4 -16.166 8 -20.499s8 -6.83301 12 -7.5c5.33301 -2 10.666 -2 15.999 0v-26h-129v26c6 -2 11 -2 15 0c2.66699 0.666992 5.16699 3.16699 7.5 7.5s2.83301 11.166 1.5 20.499c0 0.666992 -1.5 12.834 -4.5 36.501l-11.5 90.5h-105l-13 -90.5
c-3.33301 -23.667 -5 -35.834 -5 -36.501c-2 -9.33301 -1.66699 -16.166 1 -20.499s5.33398 -6.83301 8.00098 -7.5c3.33301 -2 8 -2 14 0v-26h-93v26c4.66699 -2 9.66699 -2 15 0c4.66699 0.666992 9 3.16699 13 7.5s7 11.166 9 20.499c0 0.666992 1.33301 10.5 4 29.5
s6.5 44.167 11.5 75.5l17 106l19.5 122l52 328h45c18 -122 33.333 -231 46 -327l16 -122l15 -106l11 -76c2.66699 -19.333 4 -29.333 4 -30zM198 205c-4 25.333 -7.66797 52.666 -11.001 81.999s-7 58.5 -11 87.5s-8.16699 57.667 -12.5 86s-8.16602 54.833 -11.499 79.5
c-4.66699 -24.667 -9.16699 -51.167 -13.5 -79.5l-13 -86l-13.5 -87.5c-4.66699 -29.333 -8.66699 -56.666 -12 -81.999h98zM235.999 758h-13.999c-2.66699 4.66699 -5.33398 8.66699 -8.00098 12l-8.5 13c-3 4.66699 -6.5 9.66699 -10.5 15
c-3.33301 4.66699 -7.16602 7.83398 -11.499 9.50098s-7.83301 2.5 -10.5 2.5c-3.33301 0 -7 -0.833008 -11 -2.5s-8 -4.83398 -12 -9.50098c-4 -5.33301 -7.5 -10.333 -10.5 -15l-8.5 -13c-2.66699 -3.33301 -5.33398 -7.33301 -8.00098 -12h-14l58 100h6h5z" />
    <glyph glyph-name="Atilde" unicode="&#xc3;" horiz-adv-x="331" 
d="M286 54c1.33301 -9.33301 3.83203 -16.165 7.49902 -20.498s7.83398 -6.83301 12.501 -7.5c5.33301 -2 10.666 -2 15.999 0v-26h-129v26c6 -2 11 -2 15 0c2.66699 0.666992 5.16699 3.16699 7.5 7.5s2.83301 11.166 1.5 20.499c0 0.666992 -1.5 12.834 -4.5 36.501
l-11.5 90.5h-105c-6 -36.667 -10.5 -66.834 -13.5 -90.501s-4.5 -35.834 -4.5 -36.501c-2 -9.33301 -1.66699 -16.166 1 -20.499s5.33398 -6.83301 8.00098 -7.5c3.33301 -2 8 -2 14 0v-26h-93v26c4.66699 -2 9.66699 -2 15 0c4 0.666992 8.16699 3.16699 12.5 7.5
s7.5 11.166 9.5 20.499c0 0.666992 1.33301 10.5 4 29.5s6.5 44.167 11.5 75.5l17 106l19.5 122l52 328h45l46 -327l16 -122l15 -106l11 -76c2.66699 -19.333 4 -29.333 4 -30zM197.999 205.001c-4 25.333 -7.66797 52.666 -11.001 81.999s-7 58.5 -11 87.5
s-8.16699 57.667 -12.5 86s-8.16602 54.833 -11.499 79.5c-4.66699 -24.667 -9.16699 -51.167 -13.5 -79.5l-13 -86l-13.5 -87.5c-4.66699 -29.333 -8.66699 -56.666 -12 -81.999h98zM69.998 794.001c0 17.333 3.83203 32.001 11.499 44.001s21.167 18 40.5 18
c10 0 20.167 -2.5 30.5 -7.5l30.5 -15c10 -5 19.333 -9.16699 28 -12.5s16 -3.33301 22 0c4 1.33301 6.83301 3.5 8.5 6.5s2.83398 6.16699 3.50098 9.5v9h13c0 -16.667 -3.5 -31 -10.5 -43s-20.167 -18 -39.5 -18c-10 0 -20.167 2.5 -30.5 7.5l-30.5 15
c-10 5 -19.333 9.16699 -28 12.5s-16 3.66602 -22 0.999023c-4.66699 -2.66699 -7.66699 -5.5 -9 -8.5s-2.33301 -5.83301 -3 -8.5s-1 -6 -1 -10h-14z" />
    <glyph glyph-name="Adieresis" unicode="&#xc4;" horiz-adv-x="333" 
d="M287 54c1.33301 -9.33301 3.83203 -16.165 7.49902 -20.498s7.83398 -6.83301 12.501 -7.5c5.33301 -2 10.666 -2 15.999 0v-26h-129v26c6 -2 11 -2 15 0c2.66699 0.666992 5.16699 3.16699 7.5 7.5s2.83301 11.166 1.5 20.499c0 0.666992 -1.5 12.834 -4.5 36.501
l-11.5 90.5h-105c-6 -36.667 -10.5 -66.834 -13.5 -90.501s-4.5 -35.834 -4.5 -36.501c-2 -9.33301 -1.66699 -16.166 1 -20.499s5.33398 -6.83301 8.00098 -7.5c3.33301 -2 8 -2 14 0v-26h-93v26c4.66699 -2 9.66699 -2 15 0c4 0.666992 8.16699 3.16699 12.5 7.5
s7.5 11.166 9.5 20.499c0 0.666992 1.33301 10.5 4 29.5s6.5 44.167 11.5 75.5l17 106l19.5 122l52 328h45l46 -327l16 -122l15 -106l11 -76c2.66699 -19.333 4 -29.333 4 -30zM198.999 205.001c-4 25.333 -7.66797 52.666 -11.001 81.999s-7 58.5 -11 87.5
s-8.16699 57.667 -12.5 86s-8.16602 54.833 -11.499 79.5c-4.66699 -24.667 -9.16699 -51.167 -13.5 -79.5l-13 -86l-13.5 -87.5c-4.66699 -29.333 -8.66699 -56.666 -12 -81.999h98zM220.998 745.001c-8 0 -14.833 2.83301 -20.5 8.5s-8.5 12.5 -8.5 20.5
c0 8.66699 2.83301 15.834 8.5 21.501s12.5 8.5 20.5 8.5c8.66699 0 15.834 -2.83301 21.501 -8.5s8.5 -12.834 8.5 -21.501c0 -8 -2.83301 -14.833 -8.5 -20.5s-12.834 -8.5 -21.501 -8.5zM123.998 745.001c-8.66699 0 -15.834 2.83301 -21.501 8.5s-8.5 12.5 -8.5 20.5
c0 8.66699 2.83301 15.834 8.5 21.501s12.834 8.5 21.501 8.5s15.834 -2.83301 21.501 -8.5s8.5 -12.834 8.5 -21.501c0 -8 -2.83301 -14.833 -8.5 -20.5s-12.834 -8.5 -21.501 -8.5z" />
    <glyph glyph-name="Aring" unicode="&#xc5;" horiz-adv-x="334" 
d="M288 54c1.33301 -9.33301 3.83301 -16.166 7.5 -20.499s7.83398 -6.83301 12.501 -7.5c5.33301 -2 10.666 -2 15.999 0v-26h-129v26c6 -2 11 -2 15 0c2.66699 0.666992 5.16699 3.16699 7.5 7.5s2.83301 11.166 1.5 20.499c0 0.666992 -1.5 12.834 -4.5 36.501
s-7.16699 53.834 -12.5 90.501h-104c-6 -36.667 -10.5 -66.834 -13.5 -90.501s-4.5 -35.834 -4.5 -36.501c-2 -9.33301 -1.83301 -16.166 0.5 -20.499s4.83301 -6.83301 7.5 -7.5c4 -2 8.66699 -2 14 0v-26h-92v26c4.66699 -2 9.66699 -2 15 0
c4 0.666992 8.16699 3.16699 12.5 7.5s7.5 11.166 9.5 20.499c0 0.666992 1.33301 10.5 4 29.5l11 75.5l16.5 106l20.5 122l52 328h45l46 -327l16 -122l15 -106l11 -76c2.66699 -19.333 4 -29.333 4 -30zM200 205c-4 25.333 -7.83496 52.666 -11.502 81.999l-11 87.5
c-3.66699 29 -7.66699 57.667 -12 86s-8.16602 54.833 -11.499 79.5c-4.66699 -24.667 -9.16699 -51.167 -13.5 -79.5l-13.5 -86l-13.5 -87.5c-4.33301 -29.333 -8.16602 -56.666 -11.499 -81.999h98zM211.998 851c12 -12 18 -26.333 18 -43c0 -16 -6 -30 -18 -42
s-26.333 -18 -43 -18c-16 0 -30.333 6 -43 18c-12 11.333 -18 25 -18 41c0 18 6 32.667 18 44c12 12 26.667 18 44 18c16.667 0 30.667 -6 42 -18zM194.998 783c7.33301 6.66699 11.001 15 11.001 25s-3.33301 19 -10 27c-7.33301 6.66699 -16 10 -26 10
s-18.667 -3.66699 -26 -11c-8 -7.33301 -12 -16.333 -12 -27c0 -10 3.66699 -18.333 11 -25c8 -7.33301 17 -11 27 -11c9.33301 0 17.666 4 24.999 12z" />
    <glyph glyph-name="AE" unicode="&#xc6;" horiz-adv-x="446" 
d="M336 24c12.667 0 22.8369 4.00098 30.5039 12.001s13.167 17.333 16.5 28c4 12 6.33301 25.667 7 41h25v-105h-250v26c5.33301 -2 9.66602 -2 12.999 0c3.33301 0.666992 6.5 3.16699 9.5 7.5s4.5 11.166 4.5 20.499v212h-65l-17 -80.5l-14.5 -68
c-4.33301 -19.667 -7.5 -35.167 -9.5 -46.5l-3 -17c-2 -9.33301 -2 -16.166 0 -20.499s4.33301 -6.83301 7 -7.5c4 -2 9 -2 15 0v-26h-93v26c5.33301 -2 10.666 -2 15.999 0c3.33301 0.666992 7.16602 3.16699 11.499 7.5s7.5 11.166 9.5 20.499
c0 0.666992 1.83301 9.66699 5.5 27s8.83398 40.333 15.501 69l22.5 97.5l25 112l25.5 112.5l23 99.5l16.5 73c4.33301 19 6.83301 29.5 7.5 31.5c1.33301 4.66699 0.666016 8.16699 -2.00098 10.5s-5.66699 3.83301 -9 4.5s-8 0.666992 -14 0v24h250v-105h-25
c-0.666992 15.333 -3 29 -7 41c-3.33301 10 -8.83301 19.5 -16.5 28.5s-17.834 13.5 -30.501 13.5h-76v-403h42c9.33301 0 16.166 2.33301 20.499 7s7.5 10.334 9.5 17.001c2.66699 7.33301 4 15.666 4 24.999h22v-122h-22c0 8.66699 -1.33301 16.667 -4 24
c-2 6.66699 -5.16699 12.5 -9.5 17.5s-11.166 7.5 -20.499 7.5h-42v-242h76zM192.003 574.001l-11.5 -55c-4.33301 -21.333 -9.33301 -44.5 -15 -69.5l-17 -78l-16.5 -81.5h60v284z" />
    <glyph glyph-name="Ccedilla" unicode="&#xc7;" horiz-adv-x="320" 
d="M163 691c-21.333 0 -39.333 -8.50098 -54 -25.501s-22 -45.833 -22 -86.5v-221v-221c0 -41.333 7.16699 -70.666 21.5 -87.999s32.166 -26 53.499 -26c16.667 0 31.834 2.33301 45.501 7s25.5 12.167 35.5 22.5s17.667 24.166 23 41.499s8 39 8 65v27h24v-51
c0 -41.333 -11.333 -73.833 -34 -97.5s-53.667 -36.167 -93 -37.5l-14 -28c2 0 4 0.333008 6 1c2.66699 0 5.33398 0.166992 8.00098 0.5s6.33398 -0.166992 11.001 -1.5c12 -1.33301 23.333 -6.33301 34 -15s16 -22.667 16 -42
c-1.33301 -19.333 -8.33301 -35.666 -21 -48.999s-30.334 -20 -53.001 -20c-4 0 -8.33301 0.333008 -13 1c-15.333 2 -27.333 7.83301 -36 17.5s-13.834 19.667 -15.501 30s-0.166992 19.666 4.5 27.999s12.334 12.5 23.001 12.5c6.66699 0 12.5 -2 17.5 -6s7.5 -9 7.5 -15
c0 -4.66699 -1.83301 -8.83398 -5.5 -12.501s-8.16699 -5.83398 -13.5 -6.50098h-1c-5.33301 -1.33301 -8.66602 -4.16602 -9.99902 -8.49902s-0.333008 -8.83301 3 -13.5c4 -5.33301 9 -9.33301 15 -12s13 -4 21 -4s14.333 1.16699 19 3.5s8.16699 6 10.5 11
s3.83301 10.833 4.5 17.5s1 14 1 22v7c0 15.333 -3 25.5 -9 30.5s-12.333 8.16699 -19 9.5c-8.66699 0.666992 -18.334 -0.666016 -29.001 -3.99902l22 46c-15.333 1.33301 -30.666 5.33301 -45.999 12s-29 15.667 -41 27s-22 25 -30 41s-12 34.333 -12 55v223v222
c0 22 4.16699 41.167 12.5 57.5s19.166 30.333 32.499 42s28 20.5 44 26.5s32 9 48 9c22.667 0 41.334 -2.66699 56.001 -8s26.167 -9.66602 34.5 -12.999s13.833 -4.33301 16.5 -3s4 9 4 23h24v-173h-22c-0.666992 12 -2.33398 24 -5.00098 36c-1.33301 10 -3.5 21 -6.5 33
s-6.83301 23.333 -11.5 34l-7.5 12.5c-3 5 -7.83301 10 -14.5 15s-15.334 9.5 -26.001 13.5s-24.667 6 -42 6zM232 -89.001v4v3v-7z" />
    <glyph glyph-name="Egrave" unicode="&#xc8;" horiz-adv-x="280" 
d="M268 105v-104.997h-250v26c5.33301 -2 10 -2 14 0c2 0.666992 4.5 3.16699 7.5 7.5s4.5 11.166 4.5 20.499v607c0 10 -1.5 17.167 -4.5 21.5s-5.5 7.16602 -7.5 8.49902c-4 1.33301 -8.66699 1.33301 -14 0v24h250v-105h-25c-0.666992 15.333 -3 29 -7 41
c-2.66699 10 -7.83398 19.5 -15.501 28.5s-18.5 13.5 -32.5 13.5h-75v-324h42c8.66699 0 15.167 2.33301 19.5 7s7.83301 10 10.5 16c2 7.33301 3 15.666 3 24.999h24v-123h-24c0 9.33301 -1 17.333 -3 24c-2.66699 6.66699 -6.16699 12.5 -10.5 17.5s-10.833 7.5 -19.5 7.5
h-42v-319h75c14 0 24.833 4 32.5 12s12.834 17.333 15.501 28c4 12 6.33301 25.667 7 41h25zM209 754.003l-6.00098 -6.00098l-82 59c-21.333 16 -32 28.667 -32 38c0 6.66699 2.33301 12.334 7 17.001c6.66699 4.66699 12.334 7 17.001 7c11.333 0 21 -6.33301 29 -19z" />
    <glyph glyph-name="Eacute" unicode="&#xc9;" horiz-adv-x="281" 
d="M268 105v-104.997h-251v26c5.33301 -2 10 -2 14 0c2.66699 0.666992 5.33398 3.16699 8.00098 7.5s4 11.166 4 20.499v607c0 10 -1.33301 17.167 -4 21.5s-5.33398 7.16602 -8.00098 8.49902c-4 1.33301 -8.66699 1.33301 -14 0v24h251v-105h-26
c-0.666992 15.333 -3 29 -7 41c-2.66699 10 -7.83398 19.5 -15.501 28.5s-18.5 13.5 -32.5 13.5h-75v-324h42c8.66699 0 15.167 2.33301 19.5 7s7.83301 10 10.5 16c2 7.33301 3 15.666 3 24.999h24v-123h-24c0 9.33301 -1 17.333 -3 24
c-2.66699 6.66699 -6.16699 12.5 -10.5 17.5s-10.833 7.5 -19.5 7.5h-42v-319h75c14 0 24.833 4 32.5 12s12.834 17.333 15.501 28c4 12 6.33301 25.667 7 41h26zM171 850.003c9.33301 12.667 19.333 19 30 19c5.33301 0 11 -2.33301 17 -7c4.66699 -6 7 -11.667 7 -17
c0 -9.33301 -10.667 -22 -32 -38l-82 -59l-5 6z" />
    <glyph glyph-name="Ecircumflex" unicode="&#xca;" horiz-adv-x="280" 
d="M269 105v-104.997h-250v26c5.33301 -2 10 -2 14 0c2 0.666992 4.5 3.16699 7.5 7.5s4.5 11.166 4.5 20.499v607c0 10 -1.5 17.167 -4.5 21.5s-5.5 7.16602 -7.5 8.49902c-4 1.33301 -8.66699 1.33301 -14 0v24h250v-105h-25c-0.666992 15.333 -3 29 -7 41
c-2.66699 10 -7.83398 19.5 -15.501 28.5s-18.5 13.5 -32.5 13.5h-75v-324h42c8.66699 0 15.167 2.33301 19.5 7s7.83301 10 10.5 16c2 7.33301 3 15.666 3 24.999h24v-123h-24c0 9.33301 -1 17.333 -3 24c-2.66699 6.66699 -6.16699 12.5 -10.5 17.5s-10.833 7.5 -19.5 7.5
h-42v-319h75c14 0 24.833 4 32.5 12s12.834 17.333 15.501 28c4 12 6.33301 25.667 7 41h25zM212 758.003h-14c-2.66699 4.66699 -5.33398 8.66699 -8.00098 12c-2 4 -4.66699 8.33301 -8 13l-11 15c-3.33301 4.66699 -7.16602 7.83398 -11.499 9.50098
s-7.83301 2.5 -10.5 2.5c-3.33301 0 -7 -0.833008 -11 -2.5s-8 -4.83398 -12 -9.50098c-4 -5.33301 -7.5 -10.333 -10.5 -15l-8.5 -13c-2 -3.33301 -4.66699 -7.33301 -8 -12h-13l57 100h6h5z" />
    <glyph glyph-name="Edieresis" unicode="&#xcb;" horiz-adv-x="290" 
d="M272 105v-104.997h-250v26c5.33301 -2 9.66602 -2 12.999 0c2.66699 0.666992 5.5 3.16699 8.5 7.5s4.5 11.166 4.5 20.499v607c0 10 -1.5 17.167 -4.5 21.5s-5.83301 7.16602 -8.5 8.49902c-3.33301 1.33301 -7.66602 1.33301 -12.999 0v24h250v-105h-26
c-0.666992 15.333 -2.66699 29 -6 41c-3.33301 10 -8.66602 19.5 -15.999 28.5s-18 13.5 -32 13.5h-75v-324h42c8 0 14.333 2.33301 19 7s8 10 10 16c2.66699 7.33301 4 15.666 4 24.999h23v-123h-23c0 9.33301 -1.33301 17.333 -4 24c-2 6.66699 -5.33301 12.5 -10 17.5
s-11 7.5 -19 7.5h-42v-319h75c14 0 24.667 4 32 12s12.666 17.333 15.999 28c3.33301 12 5.33301 25.667 6 41h26zM205 745.003c-8.66699 0 -15.834 2.83301 -21.501 8.5s-8.5 12.5 -8.5 20.5c0 8.66699 2.83301 15.834 8.5 21.501s12.834 8.5 21.501 8.5
c8 0 14.833 -2.83301 20.5 -8.5s8.5 -12.834 8.5 -21.501c0 -8 -2.83301 -14.833 -8.5 -20.5s-12.5 -8.5 -20.5 -8.5zM107 745.003c-8.66699 0 -15.834 2.83301 -21.501 8.5s-8.5 12.5 -8.5 20.5c0 8.66699 2.83301 15.834 8.5 21.501s12.834 8.5 21.501 8.5
s15.834 -2.83301 21.501 -8.5s8.5 -12.834 8.5 -21.501c0 -8 -2.83301 -14.833 -8.5 -20.5s-12.834 -8.5 -21.501 -8.5z" />
    <glyph glyph-name="Igrave" unicode="&#xcc;" horiz-adv-x="148" 
d="M109 54c0 -9.33301 1.5 -16.166 4.5 -20.499s5.83301 -6.83301 8.5 -7.5c4 -2 8.33301 -2 13 0v-26h-121v26c5.33301 -2 10 -2 14 0c2.66699 0.666992 5.33398 3.16699 8.00098 7.5s4 11.166 4 20.499v606c0 10 -1.33301 17.167 -4 21.5
s-5.33398 7.16602 -8.00098 8.49902c-4 2 -8.66699 2 -14 0v24h121v-24c-4.66699 2 -9 2 -13 0c-2.66699 -1.33301 -5.5 -4.16602 -8.5 -8.49902s-4.5 -11.5 -4.5 -21.5v-606zM133 754l-6.00098 -6.00098l-82 59c-20.667 16 -31 28.667 -31 38c0 6.66699 2 12.334 6 17.001
c6.66699 4.66699 12.334 7 17.001 7c10.667 0 20.667 -6.33301 30 -19z" />
    <glyph glyph-name="Iacute" unicode="&#xcd;" horiz-adv-x="151" 
d="M109 54c0 -9.33301 1.33301 -16.166 4 -20.499s5.66699 -6.83301 9 -7.5c3.33301 -2 7.33301 -2 12 0v-26h-120v26c4.66699 -2 9 -2 13 0c3.33301 0.666992 6.16602 3.16699 8.49902 7.5s3.5 11.166 3.5 20.499v606c0 10 -1.16699 17.167 -3.5 21.5
s-5.16602 7.16602 -8.49902 8.49902c-4 2 -8.33301 2 -13 0v24h120v-24c-4.66699 2 -8.66699 2 -12 0c-3.33301 -1.33301 -6.33301 -4.16602 -9 -8.49902s-4 -11.5 -4 -21.5v-606zM86 850c8.66699 12.667 18.333 19 29 19c5.33301 0 11 -2.33301 17 -7
c5.33301 -6 8 -11.667 8 -17c0 -9.33301 -11 -22 -33 -38l-81 -59l-7 6z" />
    <glyph glyph-name="Icircumflex" unicode="&#xce;" horiz-adv-x="152" 
d="M110 54c0 -9.33301 1.5 -16.166 4.5 -20.499s5.83301 -6.83301 8.5 -7.5c3.33301 -2 7.66602 -2 12.999 0v-26h-121v26c5.33301 -2 10 -2 14 0c2.66699 0.666992 5.33398 3.16699 8.00098 7.5s4 11.166 4 20.499v606c0 10 -1.33301 17.167 -4 21.5
s-5.33398 7.16602 -8.00098 8.49902c-4 2 -8.66699 2 -14 0v24h121v-24c-5.33301 2 -9.66602 2 -12.999 0c-2.66699 -1.33301 -5.5 -4.16602 -8.5 -8.49902s-4.5 -11.5 -4.5 -21.5v-606zM140 758h-14.001c-2.66699 4.66699 -5.33398 8.66699 -8.00098 12l-9 13
c-3.33301 4.66699 -6.66602 9.66699 -9.99902 15c-4 4.66699 -8 7.83398 -12 9.50098s-7.66699 2.5 -11 2.5s-6.83301 -0.833008 -10.5 -2.5s-7.83398 -4.83398 -12.501 -9.50098c-3.33301 -5.33301 -6.66602 -10.333 -9.99902 -15l-9 -13
c-1.33301 -3.33301 -3.66602 -7.33301 -6.99902 -12h-13l57 100h5h6z" />
    <glyph glyph-name="Idieresis" unicode="&#xcf;" horiz-adv-x="179" 
d="M122 54c0 -9.33301 1.33301 -16.166 4 -20.499s5.66699 -6.83301 9 -7.5c3.33301 -2 7.33301 -2 12 0v-26h-119v26c4 -2 8 -2 12 0c3.33301 0.666992 6.16602 3.16699 8.49902 7.5s3.5 11.166 3.5 20.499v606c0 10 -1.16699 17.167 -3.5 21.5
s-5.16602 7.16602 -8.49902 8.49902c-4 2 -8 2 -12 0v24h119v-24c-4.66699 2 -8.66699 2 -12 0c-3.33301 -1.33301 -6.33301 -4.16602 -9 -8.49902s-4 -11.5 -4 -21.5v-606zM139 745c-8 0 -15 2.83301 -21 8.5s-9 12.5 -9 20.5c0 8.66699 3 15.834 9 21.501s13 8.5 21 8.5
c8.66699 0 15.834 -2.83301 21.501 -8.5s8.5 -12.834 8.5 -21.501c0 -8 -2.83301 -14.833 -8.5 -20.5s-12.834 -8.5 -21.501 -8.5zM42 745c-8 0 -14.833 2.83301 -20.5 8.5s-8.5 12.5 -8.5 20.5c0 8.66699 2.83301 15.834 8.5 21.501s12.5 8.5 20.5 8.5
s14.833 -2.83301 20.5 -8.5s8.5 -12.834 8.5 -21.501c0 -8 -2.83301 -14.833 -8.5 -20.5s-12.5 -8.5 -20.5 -8.5z" />
    <glyph glyph-name="Ntilde" unicode="&#xd1;" horiz-adv-x="341" 
d="M321 715l0.000976562 -23.999c-6 1.33301 -11 1.33301 -15 0c-2.66699 -1.33301 -5.33398 -4.16602 -8.00098 -8.49902s-4 -11.5 -4 -21.5v-661h-33l-188 575v-521c0 -9.33301 1.33301 -16.166 4 -20.499s5.66699 -6.83301 9 -7.5c3.33301 -2 7.33301 -2 12 0v-26h-78v26
c5.33301 -2 10 -2 14 0c2 0.666992 4.66699 3.16699 8 7.5s5 11.166 5 20.499v607c0 10 -1.66699 17.167 -5 21.5s-6 7.16602 -8 8.49902c-4 1.33301 -8.66699 1.33301 -14 0v24h91l158 -521v84.5v99.5c0 34 -0.166992 68 -0.5 102s-0.5 64.167 -0.5 90.5v64.5v26
c0 10 -1.33301 17.167 -4 21.5s-5.66699 7.16602 -9 8.49902s-7.33301 1.33301 -12 0v24h78zM80.001 794.001c0 17.333 3.83008 32.001 11.4971 44.001s20.834 18 39.501 18c10 0 20.333 -2.5 31 -7.5s20.834 -10 30.501 -15s18.834 -9.16699 27.501 -12.5
s16.334 -3.33301 23.001 0c3.33301 1.33301 5.83301 3.5 7.5 6.5s2.83398 6.16699 3.50098 9.5c0.666992 2.66699 1 5.66699 1 9h13c0 -16.667 -3.66699 -31 -11 -43s-20.666 -18 -39.999 -18c-9.33301 0 -19.333 2.5 -30 7.5s-20.834 10 -30.501 15s-19 9.16699 -28 12.5
s-16.167 3.66602 -21.5 0.999023c-4.66699 -2.66699 -7.83398 -5.5 -9.50098 -8.5s-2.83398 -5.83301 -3.50098 -8.5s-1 -6 -1 -10h-13z" />
    <glyph glyph-name="Ograve" unicode="&#xd2;" horiz-adv-x="318" 
d="M225 564c0 26 -0.333984 47.667 -1.00098 65s-3 31.5 -7 42.5s-10.5 18.833 -19.5 23.5s-21.833 7 -38.5 7s-29.5 -2.33301 -38.5 -7s-15.667 -12.5 -20 -23.5s-6.66602 -25.167 -6.99902 -42.5s-0.5 -39 -0.5 -65v-409c0 -25.333 0.333008 -46.666 1 -63.999
s3.16699 -31.333 7.5 -42s11 -18 20 -22s21.5 -6 37.5 -6s28.5 2 37.5 6s15.5 11.333 19.5 22s6.5 24.667 7.5 42s1.5 38.666 1.5 63.999v409zM158.999 -7c-16 0 -31.832 2.66602 -47.499 7.99902s-30 14 -43 26s-23.667 26.833 -32 44.5s-12.5 38.834 -12.5 63.501v456
c0 20.667 4.16699 39.667 12.5 57s19 31.666 32 42.999s27.333 20 43 26s31.5 9 47.5 9c15.333 0 31.166 -3.5 47.499 -10.5s30.833 -16.667 43.5 -29s23.167 -26.666 31.5 -42.999s12.5 -33.833 12.5 -52.5v-458c0 -24.667 -4.16699 -45.667 -12.5 -63
s-18.833 -31.833 -31.5 -43.5s-27 -20.167 -43 -25.5s-32 -8 -48 -8zM223 753.999l-7.00098 -6.00098l-82 59c-20.667 16 -31 28.667 -31 38c0 6.66699 2.33301 12.334 7 17.001c6 4.66699 11.667 7 17 7c10.667 0 20.334 -6.33301 29.001 -19z" />
    <glyph glyph-name="Oacute" unicode="&#xd3;" horiz-adv-x="319" 
d="M225 564c0 26 -0.331055 47.667 -0.998047 65s-3 31.5 -7 42.5s-10.5 18.833 -19.5 23.5s-21.833 7 -38.5 7s-29.334 -2.33301 -38.001 -7s-15.334 -12.5 -20.001 -23.5s-7.16699 -25.167 -7.5 -42.5s-0.5 -39 -0.5 -65v-409c0 -25.333 0.333008 -46.666 1 -63.999
s3.16699 -31.333 7.5 -42s11 -18 20 -22s21.5 -6 37.5 -6s28.5 2 37.5 6s15.5 11.333 19.5 22s6.5 24.667 7.5 42s1.5 38.666 1.5 63.999v409zM159.002 -7c-16 0 -31.832 2.66602 -47.499 7.99902s-30 14 -43 26s-23.667 26.833 -32 44.5s-12.5 38.834 -12.5 63.501v456
c0 20.667 4.16699 39.667 12.5 57s19 31.666 32 42.999s27.333 20 43 26s31.5 9 47.5 9c15.333 0 31.166 -3.5 47.499 -10.5s31 -16.667 44 -29s23.5 -26.666 31.5 -42.999s12 -33.833 12 -52.5v-458c0 -24.667 -4 -45.667 -12 -63s-18.5 -31.833 -31.5 -43.5
s-27.5 -20.167 -43.5 -25.5s-32 -8 -48 -8zM179.003 849.999c8.66699 12.667 18.333 19 29 19c5.33301 0 11.333 -2.33301 18 -7c4.66699 -6 7 -11.667 7 -17c0 -9.33301 -11 -22 -33 -38l-81 -59l-6 6z" />
    <glyph glyph-name="Ocircumflex" unicode="&#xd4;" horiz-adv-x="319" 
d="M226 564c0 26 -0.333984 47.667 -1.00098 65s-3 31.5 -7 42.5s-10.5 18.833 -19.5 23.5s-21.833 7 -38.5 7s-29.5 -2.33301 -38.5 -7s-15.667 -12.5 -20 -23.5s-6.66602 -25.167 -6.99902 -42.5s-0.5 -39 -0.5 -65v-409c0 -25.333 0.333008 -46.666 1 -63.999
s3.16699 -31.333 7.5 -42s11 -18 20 -22s21.5 -6 37.5 -6s28.5 2 37.5 6s15.5 11.333 19.5 22s6.5 24.667 7.5 42s1.5 38.666 1.5 63.999v409zM159.999 -7c-16 0 -31.832 2.66602 -47.499 7.99902s-30 14 -43 26s-23.667 26.833 -32 44.5s-12.5 38.834 -12.5 63.501v456
c0 20.667 4.16699 39.667 12.5 57s19 31.666 32 42.999s27.333 20 43 26s31.5 9 47.5 9c15.333 0 31.166 -3.5 47.499 -10.5s30.833 -16.667 43.5 -29s23.167 -26.666 31.5 -42.999s12.5 -33.833 12.5 -52.5v-458c0 -24.667 -4.16699 -45.667 -12.5 -63
s-18.833 -31.833 -31.5 -43.5s-27 -20.167 -43 -25.5s-32 -8 -48 -8zM220 757.999h-13c-3.33301 4.66699 -6.33301 8.66699 -9 12c-2 4 -4.66699 8.33301 -8 13s-6.66602 9.66699 -9.99902 15c-4 4.66699 -8 7.83398 -12 9.50098s-7.66699 2.5 -11 2.5
s-6.83301 -0.833008 -10.5 -2.5s-7.83398 -4.83398 -12.501 -9.50098c-4 -5.33301 -7.5 -10.333 -10.5 -15l-8.5 -13l-7 -12h-14l57 100h6h5z" />
    <glyph glyph-name="Otilde" unicode="&#xd5;" horiz-adv-x="321" 
d="M227 564c0 26 -0.333984 47.667 -1.00098 65s-3 31.5 -7 42.5s-10.5 18.833 -19.5 23.5s-21.833 7 -38.5 7s-29.5 -2.33301 -38.5 -7s-15.667 -12.5 -20 -23.5s-6.66602 -25.167 -6.99902 -42.5s-0.5 -39 -0.5 -65v-409c0 -25.333 0.333008 -46.666 1 -63.999
s3.16699 -31.333 7.5 -42s11 -18 20 -22s21.5 -6 37.5 -6s28.5 2 37.5 6s15.5 11.333 19.5 22s6.5 24.667 7.5 42s1.5 38.666 1.5 63.999v409zM160.999 -7c-16 0 -31.832 2.66602 -47.499 7.99902s-30 14 -43 26s-23.667 26.833 -32 44.5s-12.5 38.834 -12.5 63.501v456
c0 20.667 4.16699 39.667 12.5 57s19 31.666 32 42.999s27.333 20 43 26s31.5 9 47.5 9c15.333 0 31.166 -3.5 47.499 -10.5s30.833 -16.667 43.5 -29s23.167 -26.666 31.5 -42.999s12.5 -33.833 12.5 -52.5v-458c0 -24.667 -4.16699 -45.667 -12.5 -63
s-18.833 -31.833 -31.5 -43.5s-27 -20.167 -43 -25.5s-32 -8 -48 -8zM72 793.999c0 17.333 3.66895 32.001 11.002 44.001s20.666 18 39.999 18c9.33301 0 19.333 -2.5 30 -7.5l31 -15c10 -5 19.333 -9.16699 28 -12.5s16 -3.33301 22 0c3.33301 1.33301 6 3.5 8 6.5
s3.33301 6.16699 4 9.5c0.666992 2.66699 1 5.66699 1 9h12c0 -16.667 -3.66699 -31 -11 -43s-20.333 -18 -39 -18c-10 0 -20.167 2.5 -30.5 7.5l-30.5 15c-10 5 -19.333 9.16699 -28 12.5s-16.334 3.66602 -23.001 0.999023c-4 -2.66699 -6.66699 -5.5 -8 -8.5
s-2.33301 -5.83301 -3 -8.5s-1 -6 -1 -10h-13z" />
    <glyph glyph-name="Odieresis" unicode="&#xd6;" horiz-adv-x="327" 
d="M229 564c0 26 -0.166992 47.667 -0.5 65s-2.5 31.5 -6.5 42.5s-10.5 18.833 -19.5 23.5s-22.167 7 -39.5 7c-16 0 -28.5 -2.33301 -37.5 -7s-15.667 -12.5 -20 -23.5s-6.83301 -25.167 -7.5 -42.5s-1 -39 -1 -65v-409c0 -25.333 0.5 -46.666 1.5 -63.999
s3.66699 -31.333 8 -42s11 -18 20 -22s21.167 -6 36.5 -6c16.667 0 29.5 2 38.5 6s15.5 11.333 19.5 22s6.33301 24.667 7 42s1 38.666 1 63.999v409zM163 -7c-15.333 0 -30.999 2.66602 -46.999 7.99902s-30.333 14 -43 26s-23.167 26.833 -31.5 44.5
s-12.5 38.834 -12.5 63.501v456c0 20.667 4.16699 39.667 12.5 57s18.833 31.666 31.5 42.999s27 20 43 26s31.667 9 47 9c16 0 32 -3.5 48 -10.5s30.5 -16.667 43.5 -29s23.667 -26.666 32 -42.999s12.5 -33.833 12.5 -52.5v-458c0 -24.667 -4.16699 -45.667 -12.5 -63
s-19 -31.833 -32 -43.5s-27.333 -20.167 -43 -25.5s-31.834 -8 -48.501 -8zM215.001 744.999c-8.66699 0 -15.834 2.83301 -21.501 8.5s-8.5 12.5 -8.5 20.5c0 8.66699 2.83301 15.834 8.5 21.501s12.834 8.5 21.501 8.5s15.834 -2.83301 21.501 -8.5
s8.5 -12.834 8.5 -21.501c0 -8 -2.83301 -14.833 -8.5 -20.5s-12.834 -8.5 -21.501 -8.5zM117.001 744.999c-8 0 -14.833 2.83301 -20.5 8.5s-8.5 12.5 -8.5 20.5c0 8.66699 2.83301 15.834 8.5 21.501s12.5 8.5 20.5 8.5c8.66699 0 15.834 -2.83301 21.501 -8.5
s8.5 -12.834 8.5 -21.501c0 -8 -2.83301 -14.833 -8.5 -20.5s-12.834 -8.5 -21.501 -8.5z" />
    <glyph glyph-name="Oslash" unicode="&#xd8;" horiz-adv-x="338" 
d="M311 348l-0.00195312 -112c0 -31.333 -0.833008 -58.666 -2.5 -81.999s-4.66699 -43.166 -9 -59.499s-10.833 -30.833 -19.5 -43.5c-13.333 -19.333 -30.166 -34.166 -50.499 -44.499s-41.166 -15.5 -62.499 -15.5c-20.667 0 -41.334 5.16699 -62.001 15.5
s-37.667 25.166 -51 44.499c-8.66699 12.667 -15.167 27.167 -19.5 43.5s-7.33301 36.166 -9 59.499s-2.5 50.666 -2.5 81.999v112c0 58 0.333008 105.833 1 143.5s3.66699 69.167 9 94.5c2.66699 21.333 9.33398 40.166 20.001 56.499s23.667 29.5 39 39.5
c23.333 15.333 48.333 23 75 23s51.667 -7.66699 75 -23c15.333 -10 28.5 -23.167 39.5 -39.5s17.5 -35.166 19.5 -56.499c5.33301 -25.333 8.33301 -56.833 9 -94.5s1 -85.5 1 -143.5zM241.998 128l-0.000976562 99.501c0 39 0.333008 79.167 1 120.5
c-0.666992 41.333 -1 81.5 -1 120.5v99.5c0 20.667 -2 38 -6 52s-9.33301 25.333 -16 34s-14.5 15 -23.5 19s-18.833 6 -29.5 6c-21.333 0 -39.166 -8.33301 -53.499 -25s-21.5 -45.334 -21.5 -86.001v-220v-220c0 -42 6.33301 -71.5 19 -88.5s31.667 -25.5 57 -25.5
c24.667 0 43.167 8.5 55.5 25.5s18.5 46.5 18.5 88.5zM261.997 718.001h27l-201 -740h-27l100 369l37 135.5l32 119l23 84.5z" />
    <glyph glyph-name="Ugrave" unicode="&#xd9;" horiz-adv-x="359" 
d="M139 715l-0.00292969 -24.002c-5.33301 1.33301 -9.66602 1.33301 -12.999 0c-2.66699 -1.33301 -5.5 -4.16602 -8.5 -8.49902s-4.5 -11.5 -4.5 -21.5v-36v-88c0 -35.333 0.166992 -74.166 0.5 -116.499s0.5 -82.166 0.5 -119.499v-96.5v-49.5
c0 -51.333 5.66699 -87.666 17 -108.999s27.333 -32 48 -32h1h1c20.667 0 36.667 10.667 48 32s17 57.666 17 108.999v78c0 16 0.333008 33 1 51v377c0 10 -1.33301 17.167 -4 21.5s-5.66699 7.16602 -9 8.49902s-7.33301 1.33301 -12 0v24h118v-24
c-4 1.33301 -8 1.33301 -12 0c-3.33301 -1.33301 -6.16602 -4.16602 -8.49902 -8.49902s-3.5 -11.5 -3.5 -21.5v-533c0 -21.333 -4.16699 -40.5 -12.5 -57.5s-19.166 -31.5 -32.499 -43.5s-27.833 -21 -43.5 -27s-31.5 -9 -47.5 -9c-15.333 0 -31 3 -47 9s-30.5 15 -43.5 27
s-23.5 26.333 -31.5 43s-12 35.667 -12 57v28.5v63v85.5c0 31.333 -0.166992 63.333 -0.5 96s-0.5 64.667 -0.5 96v84v58.5v22.5c0 10 -1.5 17.167 -4.5 21.5s-5.5 7.16602 -7.5 8.49902c-4 1.33301 -8.66699 1.33301 -14 0v24h120zM239.997 753.998l-7.00098 -6.00098
l-82 59c-20.667 16 -31 28.667 -31 38c0 6.66699 2.33301 12.334 7 17.001c6 4.66699 11.667 7 17 7c10.667 0 20.334 -6.33301 29.001 -19z" />
    <glyph glyph-name="Uacute" unicode="&#xda;" horiz-adv-x="360" 
d="M138 715l-0.00292969 -24.002c-5.33301 1.33301 -9.66602 1.33301 -12.999 0c-2.66699 -1.33301 -5.5 -4.16602 -8.5 -8.49902s-4.5 -11.5 -4.5 -21.5v-36v-88c0 -35.333 0.166992 -74.166 0.5 -116.499s0.5 -82.166 0.5 -119.499v-96.5v-49.5
c0 -51.333 5.66699 -87.666 17 -108.999s27.333 -32 48 -32h1h1c20.667 0 36.667 10.667 48 32s17 57.666 17 108.999v78c0 16 0.333008 33 1 51v377c0 10 -1.33301 17.167 -4 21.5s-5.66699 7.16602 -9 8.49902s-7.33301 1.33301 -12 0v24h119v-24
c-4.66699 1.33301 -9 1.33301 -13 0c-3.33301 -1.33301 -6.16602 -4.16602 -8.49902 -8.49902s-3.5 -11.5 -3.5 -21.5v-533c0 -21.333 -4.16699 -40.5 -12.5 -57.5s-19.166 -31.5 -32.499 -43.5s-27.833 -21 -43.5 -27s-31.5 -9 -47.5 -9c-15.333 0 -31 3 -47 9
s-30.333 15 -43 27s-23.167 26.333 -31.5 43s-12.5 35.667 -12.5 57v28.5v63v85.5c0 31.333 -0.166992 63.333 -0.5 96s-0.5 64.667 -0.5 96v84v58.5v22.5c0 10 -1.5 17.167 -4.5 21.5s-5.5 7.16602 -7.5 8.49902c-4 1.33301 -8.66699 1.33301 -14 0v24h120z
M190.997 849.998c9.33301 12.667 19.333 19 30 19c5.33301 0 11 -2.33301 17 -7c4.66699 -6 7 -11.667 7 -17c0 -9.33301 -10.667 -22 -32 -38l-82 -59l-6 6z" />
    <glyph glyph-name="Ucircumflex" unicode="&#xdb;" horiz-adv-x="359" 
d="M139 715l-0.00292969 -24.002c-5.33301 1.33301 -9.66602 1.33301 -12.999 0c-2.66699 -1.33301 -5.5 -4.16602 -8.5 -8.49902s-4.5 -11.5 -4.5 -21.5v-36v-88c0 -35.333 0.166992 -74.166 0.5 -116.499s0.5 -82.166 0.5 -119.499v-96.5v-49.5
c0 -51.333 5.66699 -87.666 17 -108.999s27.333 -32 48 -32h1h1c20.667 0 36.667 10.667 48 32s17 57.666 17 108.999v78c0 16 0.333008 33 1 51v377c0 10 -1.33301 17.167 -4 21.5s-5.66699 7.16602 -9 8.49902s-7.33301 1.33301 -12 0v24h118v-24
c-4 1.33301 -8 1.33301 -12 0c-3.33301 -1.33301 -6.16602 -4.16602 -8.49902 -8.49902s-3.5 -11.5 -3.5 -21.5v-533c0 -21.333 -4.16699 -40.5 -12.5 -57.5s-19.166 -31.5 -32.499 -43.5s-27.833 -21 -43.5 -27s-31.5 -9 -47.5 -9c-15.333 0 -31 3 -47 9s-30.5 15 -43.5 27
s-23.5 26.333 -31.5 43s-12 35.667 -12 57v28.5v63v85.5c0 31.333 -0.166992 63.333 -0.5 96s-0.5 64.667 -0.5 96v84v58.5v22.5c0 10 -1.5 17.167 -4.5 21.5s-5.5 7.16602 -7.5 8.49902c-4 1.33301 -8.66699 1.33301 -14 0v24h120zM241.997 757.998h-13.999
c-2.66699 4.66699 -5.33398 8.66699 -8.00098 12l-9 13c-3.33301 4.66699 -6.66602 9.66699 -9.99902 15c-3.33301 4.66699 -7.16602 7.83398 -11.499 9.50098s-8.16602 2.5 -11.499 2.5c-2.66699 0 -6 -0.833008 -10 -2.5s-8 -4.83398 -12 -9.50098
c-4.66699 -5.33301 -8.33398 -10.333 -11.001 -15s-5.33398 -9 -8.00098 -13c-2.66699 -3.33301 -5.33398 -7.33301 -8.00098 -12h-14l58 100h5h6z" />
    <glyph glyph-name="Udieresis" unicode="&#xdc;" horiz-adv-x="366" 
d="M142 715l-0.00390625 -24.002c-5.33301 1.33301 -9.66602 1.33301 -12.999 0c-2.66699 -1.33301 -5.5 -4.16602 -8.5 -8.49902s-4.5 -11.5 -4.5 -21.5v-36v-88c0 -35.333 0.166992 -74.166 0.5 -116.499s0.5 -82.166 0.5 -119.499v-96.5v-49.5
c0 -51.333 5.5 -87.666 16.5 -108.999s27.167 -32 48.5 -32h1h1c20.667 0 36.667 10.667 48 32s17 57.666 17 108.999v78c0 16 0.333008 33 1 51v377c0 10 -1.33301 17.167 -4 21.5s-5.66699 7.16602 -9 8.49902s-7.33301 1.33301 -12 0v24h118v-24
c-4 1.33301 -8 1.33301 -12 0c-3.33301 -1.33301 -6.16602 -4.16602 -8.49902 -8.49902s-3.5 -11.5 -3.5 -21.5v-533c0 -21.333 -4.16699 -40.5 -12.5 -57.5s-19.166 -31.5 -32.499 -43.5s-27.833 -21 -43.5 -27s-31.5 -9 -47.5 -9c-15.333 0 -31 3 -47 9s-30.5 15 -43.5 27
s-23.5 26.333 -31.5 43s-12 35.667 -12 57v28.5v63v85.5c0 31.333 -0.166992 63.333 -0.5 96s-0.5 64.667 -0.5 96v84v58.5v22.5c0 10 -1.5 17.167 -4.5 21.5s-5.83301 7.16602 -8.5 8.49902c-3.33301 1.33301 -7.66602 1.33301 -12.999 0v24h120zM231.996 744.998
c-8.66699 0 -15.834 2.83301 -21.501 8.5s-8.5 12.5 -8.5 20.5c0 8.66699 2.83301 15.834 8.5 21.501s12.834 8.5 21.501 8.5s15.834 -2.83301 21.501 -8.5s8.5 -12.834 8.5 -21.501c0 -8 -2.83301 -14.833 -8.5 -20.5s-12.834 -8.5 -21.501 -8.5zM133.996 744.998
c-8 0 -14.833 2.83301 -20.5 8.5s-8.5 12.5 -8.5 20.5c0 8.66699 2.83301 15.834 8.5 21.501s12.5 8.5 20.5 8.5c8.66699 0 15.834 -2.83301 21.501 -8.5s8.5 -12.834 8.5 -21.501c0 -8 -2.83301 -14.833 -8.5 -20.5s-12.834 -8.5 -21.501 -8.5z" />
    <glyph glyph-name="Yacute" unicode="&#xdd;" horiz-adv-x="378" 
d="M373 715v-24.0039c-4 1.33301 -8.66699 1.33301 -14 0c-4 -1.33301 -8.16699 -4.16602 -12.5 -8.49902s-8.16602 -11.5 -11.499 -21.5c0 -1.33301 -3.66699 -13.666 -11 -36.999l-29 -90l-39.5 -121.5l-42.5 -131.5v-1v-226c0 -9.33301 1.33301 -16.166 4 -20.499
s5.66699 -6.83301 9 -7.5c3.33301 -2 7.66602 -2 12.999 0v-26h-120v26c2 -0.666992 4 -1 6 -1s4.33301 0.333008 7 1s4.66699 2 6 4c4 4.66699 6 12.667 6 24v226l-34 132l-31 122l-23 90.5c-6 23.667 -9 35.834 -9 36.501c-3.33301 10 -7 17.167 -11 21.5
s-8.33301 7.16602 -13 8.49902c-6 1.33301 -11.333 1.33301 -16 0v24h127v-24c-6 1.33301 -10.333 1.33301 -13 0s-5 -4.16602 -7 -8.49902s-1.33301 -11.5 2 -21.5c0 -0.666992 2.33301 -10.334 7 -29.001l19 -73.5l26 -103c9.33301 -38.333 19.333 -77.166 30 -116.499
l37.5 116.5l33 103l24 73.5c6.33301 18.667 9.5 28.334 9.5 29.001c3.33301 10 4.33301 17.167 3 21.5s-3.33301 7.16602 -6 8.49902s-7 1.33301 -13 0v24h87zM208 849.996c8.66699 12.667 18.666 19 29.999 19c4.66699 0 10.334 -2.33301 17.001 -7
c4.66699 -6 7 -11.667 7 -17c0 -9.33301 -11 -22 -33 -38l-81 -59l-6 6z" />
    <glyph glyph-name="germandbls" unicode="&#xdf;" horiz-adv-x="450" 
d="M341 359c24 -10 43.3291 -29.6602 57.9961 -58.9932s22 -70 22 -122c0 -24.667 -3.33301 -47.667 -10 -69s-16.5 -40 -29.5 -56s-28.833 -28.5 -47.5 -37.5s-40 -13.5 -64 -13.5s-44.5 5.16699 -61.5 15.5s-30.5 23.5 -40.5 39.5s-16.5 33.333 -19.5 52s-3 36 0 52
s9.16699 29.333 18.5 40s21.666 16 36.999 16c14 0 25.833 -4.83301 35.5 -14.5s14.5 -21.5 14.5 -35.5c0 -11.333 -3.33301 -21.333 -10 -30s-15.667 -14.334 -27 -17.001c-0.666992 -0.666992 -2 -1 -4 -1c-10 -2.66699 -15.833 -9.16699 -17.5 -19.5
s0.166016 -21.166 5.49902 -32.499c7.33301 -10.667 16.833 -19.834 28.5 -27.501s26.167 -11.5 43.5 -11.5c16.667 0 29.167 3.16699 37.5 9.5s14.333 15.333 18 27s5.83398 25.334 6.50098 41.001s1.33398 33.167 2.00098 52.5s0.833984 38.833 0.500977 58.5
s-2.33301 38 -6 55s-9.16699 32 -16.5 45s-17.666 22.833 -30.999 29.5c-2 0.666992 -8.16699 1.16699 -18.5 1.5s-21.166 0.5 -32.499 0.5c-14 0 -29 -0.333008 -45 -1v23h45h32c10 0 16.333 0.666992 19 2c12.667 4.66699 22.5 13.5 29.5 26.5s12.333 28.167 16 45.5
s5.83398 36.166 6.50098 56.499s1 40.166 1 59.499c0 42.667 -7 74.667 -21 96s-35.333 33.666 -64 36.999h-65h34c-10 0 -21 -1.66699 -33 -5s-22.833 -9.83301 -32.5 -19.5s-17.834 -23.834 -24.501 -42.501s-10 -43.334 -10 -74.001v-31.5v-60.5v-80.5
c0 -29.667 -0.166992 -59.5 -0.5 -89.5s-0.5 -59 -0.5 -87v-75v-53v-21c0 -9.33301 1.33301 -16.166 4 -20.499s5.33398 -6.83301 8.00098 -7.5c4 -2 8.33301 -2 13 0v-26h-119v26c5.33301 -2 9.33301 -2 12 0c3.33301 0.666992 6.5 3.16699 9.5 7.5s4.5 11.166 4.5 20.499
v22v55v77.5c0 29 0.166992 58.667 0.5 89s0.5 60.166 0.5 89.499v80v59.5v26.5c0 22 3.83301 42.667 11.5 62s18 36.5 31 51.5s27.5 26.833 43.5 35.5s32 13 48 13h79h4h13h1v-1c44 -2 77.833 -19.667 101.5 -53s35.5 -76.333 35.5 -129
c0 -18.667 -1.83301 -37.167 -5.5 -55.5s-9.16699 -35.333 -16.5 -51s-15.833 -29.334 -25.5 -41.001s-20.5 -20.167 -32.5 -25.5z" />
    <glyph glyph-name="agrave" unicode="&#xe0;" 
d="M367 43c0 -5.33301 -1.33691 -10.8311 -4.00391 -16.498s-6.5 -11 -11.5 -16s-11.167 -9.5 -18.5 -13.5s-16.333 -6 -27 -6c-15.333 0 -29.333 3.66699 -42 11s-21.667 17 -27 29c-3.33301 6.66699 -6 14.334 -8 23.001c-9.33301 -18 -22.666 -33 -39.999 -45
s-37 -18 -59 -18c-26 0 -49.333 9.66699 -70 29c-11.333 10 -20.666 23 -27.999 39s-11.666 34.333 -12.999 55c-0.666992 2 -1 6 -1 12v1c0.666992 11.333 3 23.166 7 35.499s9.5 24.666 16.5 36.999s15 24 24 35s19.167 20.5 30.5 28.5c2.66699 1.33301 5 2.83301 7 4.5
s4.66699 3.5 8 5.5c0.666992 0.666992 1.33398 1.16699 2.00098 1.5l3 1.5l31.5 20l24.5 17c4 2.66699 8.16699 5.66699 12.5 9l12.5 10c6 4 11.833 8.66699 17.5 14s9.83398 11.666 12.501 18.999c3.33301 6.66699 5 14.667 5 24s-0.666992 17.666 -2 24.999
c-3.33301 14.667 -10.333 27.334 -21 38.001s-23 17.667 -37 21c-5.33301 2 -10.666 3 -15.999 3c-18.667 0 -34.667 -3.33301 -48 -10c-9.33301 -4 -15.833 -8.5 -19.5 -13.5s-5.83398 -9.66699 -6.50098 -14s0.166016 -7.83301 2.49902 -10.5s4.83301 -4.66699 7.5 -6
c1.33301 -0.666992 2.16602 -1 2.49902 -1s1.16602 -0.333008 2.49902 -1c9.33301 -3.33301 16.833 -9.16602 22.5 -17.499s8.5 -17.5 8.5 -27.5c0 -12.667 -4.66699 -23.5 -14 -32.5s-20.333 -13.5 -33 -13.5c-13.333 0 -24.5 4.5 -33.5 13.5s-13.5 19.833 -13.5 32.5
c0 11.333 1.33301 23.166 4 35.499s7.33398 23.5 14.001 33.5c12.667 18.667 27.834 32.167 45.501 40.5s37.167 12.5 58.5 12.5c15.333 0 30.833 -3 46.5 -9s29.834 -14.5 42.501 -25.5s23 -24.167 31 -39.5s12 -33 12 -53v-294c0 -12 0.166992 -19.833 0.5 -23.5
s0.5 -6.16699 0.5 -7.5v0c0 -8.66699 2.66699 -15.667 8 -21s12.333 -8 21 -8c7.33301 0 13.666 2.5 18.999 7.5s8.33301 11.5 9 19.5h21zM210.996 68.002c4.66699 9.33301 7.66602 19.3311 8.99902 29.998s2 20.667 2 30v185l-9 -7.5
c-2.66699 -2.33301 -5.66699 -5.16602 -9 -8.49902c-19.333 -14 -36 -26.833 -50 -38.5s-25.5 -23.667 -34.5 -36s-16.167 -25.5 -21.5 -39.5s-8.66602 -30 -9.99902 -48v-15c0.666992 -25.333 7.5 -45.166 20.5 -59.499s31.5 -21.5 55.5 -21.5c10 0 19.667 2.66699 29 8
c8.66699 6 14.667 13 18 21zM235.995 556l-6.00098 -6.99902l-81 59c-22 16.667 -33 29.667 -33 39c0 5.33301 2.66699 10.666 8 15.999s11 8 17 8c10.667 0 20.334 -6.33301 29.001 -19z" />
    <glyph glyph-name="aacute" unicode="&#xe1;" 
d="M367 43c0 -5.33301 -1.33691 -10.8311 -4.00391 -16.498s-6.5 -11 -11.5 -16s-11.167 -9.5 -18.5 -13.5s-16.333 -6 -27 -6c-15.333 0 -29.333 3.66699 -42 11s-21.667 17 -27 29c-3.33301 6.66699 -6 14.334 -8 23.001c-9.33301 -18 -22.666 -33 -39.999 -45
s-37 -18 -59 -18c-26 0 -49.333 9.66699 -70 29c-11.333 10 -20.666 23 -27.999 39s-11.666 34.333 -12.999 55c-0.666992 2 -1 6 -1 12v1c0.666992 11.333 3 23.166 7 35.499s9.5 24.666 16.5 36.999s15 24 24 35s19.167 20.5 30.5 28.5c2.66699 1.33301 5 2.83301 7 4.5
s4.66699 3.5 8 5.5c0.666992 0.666992 1.33398 1.16699 2.00098 1.5l3 1.5l31.5 20l24.5 17c4 2.66699 8.16699 5.66699 12.5 9l12.5 10c6 4 11.833 8.66699 17.5 14s9.83398 11.666 12.501 18.999c3.33301 6.66699 5 14.667 5 24s-0.666992 17.666 -2 24.999
c-3.33301 14.667 -10.333 27.334 -21 38.001s-23 17.667 -37 21c-5.33301 2 -10.666 3 -15.999 3c-18.667 0 -34.667 -3.33301 -48 -10c-9.33301 -4 -15.833 -8.5 -19.5 -13.5s-5.83398 -9.66699 -6.50098 -14s0.166016 -7.83301 2.49902 -10.5s4.83301 -4.66699 7.5 -6
c1.33301 -0.666992 2.16602 -1 2.49902 -1s1.16602 -0.333008 2.49902 -1c9.33301 -3.33301 16.833 -9.16602 22.5 -17.499s8.5 -17.5 8.5 -27.5c0 -12.667 -4.66699 -23.5 -14 -32.5s-20.333 -13.5 -33 -13.5c-13.333 0 -24.5 4.5 -33.5 13.5s-13.5 19.833 -13.5 32.5
c0 11.333 1.33301 23.166 4 35.499s7.33398 23.5 14.001 33.5c12.667 18.667 27.834 32.167 45.501 40.5s37.167 12.5 58.5 12.5c15.333 0 30.833 -3 46.5 -9s29.834 -14.5 42.501 -25.5s23 -24.167 31 -39.5s12 -33 12 -53v-294c0 -12 0.166992 -19.833 0.5 -23.5
s0.5 -6.16699 0.5 -7.5v0c0 -8.66699 2.66699 -15.667 8 -21s12.333 -8 21 -8c7.33301 0 13.666 2.5 18.999 7.5s8.33301 11.5 9 19.5h21zM210.996 68.002c4.66699 9.33301 7.66602 19.3311 8.99902 29.998s2 20.667 2 30v185l-9 -7.5
c-2.66699 -2.33301 -5.66699 -5.16602 -9 -8.49902c-19.333 -14 -36 -26.833 -50 -38.5s-25.5 -23.667 -34.5 -36s-16.167 -25.5 -21.5 -39.5s-8.66602 -30 -9.99902 -48v-15c0.666992 -25.333 7.5 -45.166 20.5 -59.499s31.5 -21.5 55.5 -21.5c10 0 19.667 2.66699 29 8
c8.66699 6 14.667 13 18 21zM181.995 652c9.33301 12.667 19.333 18.999 30 18.999c5.33301 0 11 -2.66699 17 -8c4.66699 -5.33301 7 -10.666 7 -15.999c0 -9.33301 -10.667 -22.333 -32 -39l-81 -59l-7 7z" />
    <glyph glyph-name="acircumflex" unicode="&#xe2;" horiz-adv-x="377" 
d="M368 43c0 -5.33301 -1.33691 -10.8311 -4.00391 -16.498s-6.5 -11 -11.5 -16s-11.167 -9.5 -18.5 -13.5s-16.333 -6 -27 -6c-15.333 0 -29.333 3.66699 -42 11s-21.667 17 -27 29c-3.33301 6.66699 -6 14.334 -8 23.001c-9.33301 -18 -22.666 -33 -39.999 -45
s-37 -18 -59 -18c-26 0 -49.333 9.66699 -70 29c-11.333 10 -20.666 23 -27.999 39s-11.666 34.333 -12.999 55c-0.666992 2 -1 6 -1 12v1c0.666992 11.333 3 23.166 7 35.499s9.5 24.666 16.5 36.999s15 24 24 35s19.167 20.5 30.5 28.5c2.66699 1.33301 5 2.83301 7 4.5
s4.66699 3.5 8 5.5c0.666992 0.666992 1.33398 1.16699 2.00098 1.5l3 1.5l31.5 20l24.5 17c4 2.66699 8.16699 5.66699 12.5 9l12.5 10c6 4 11.833 8.66699 17.5 14s9.83398 11.666 12.501 18.999c3.33301 6.66699 5 14.667 5 24s-0.666992 17.666 -2 24.999
c-3.33301 14.667 -10.333 27.334 -21 38.001s-23 17.667 -37 21c-5.33301 2 -10.666 3 -15.999 3c-18.667 0 -34.667 -3.33301 -48 -10c-9.33301 -4 -15.833 -8.5 -19.5 -13.5s-5.83398 -9.66699 -6.50098 -14s0.166016 -7.83301 2.49902 -10.5s4.83301 -4.66699 7.5 -6
c1.33301 -0.666992 2.16602 -1 2.49902 -1s1.16602 -0.333008 2.49902 -1c9.33301 -3.33301 16.833 -9.16602 22.5 -17.499s8.5 -17.5 8.5 -27.5c0 -12.667 -4.66699 -23.5 -14 -32.5s-20.333 -13.5 -33 -13.5c-13.333 0 -24.5 4.5 -33.5 13.5s-13.5 19.833 -13.5 32.5
c0 11.333 1.33301 23.166 4 35.499s7.33398 23.5 14.001 33.5c12.667 18.667 27.834 32.167 45.501 40.5s37.167 12.5 58.5 12.5c15.333 0 30.833 -3 46.5 -9s29.834 -14.5 42.501 -25.5s23 -24.167 31 -39.5s12 -33 12 -53v-294c0 -12 0.166992 -19.833 0.5 -23.5
s0.5 -6.16699 0.5 -7.5v0c0 -8.66699 2.66699 -15.667 8 -21s12.333 -8 21 -8c7.33301 0 13.666 2.5 18.999 7.5s8.33301 11.5 9 19.5h21zM211.996 68.002c4.66699 9.33301 7.66602 19.3311 8.99902 29.998s2 20.667 2 30v185l-9 -7.5
c-2.66699 -2.33301 -5.66699 -5.16602 -9 -8.49902c-19.333 -14 -36 -26.833 -50 -38.5s-25.5 -23.667 -34.5 -36s-16.167 -25.5 -21.5 -39.5s-8.66602 -30 -9.99902 -48v-15c0.666992 -25.333 7.5 -45.166 20.5 -59.499s31.5 -21.5 55.5 -21.5c10 0 19.667 2.66699 29 8
c8.66699 6 14.667 13 18 21zM233.995 556h-13.001c-3.33301 4 -6 8 -8 12l-9 13c-3.33301 4.66699 -6.66602 9.66699 -9.99902 15c-4 4.66699 -8 7.83398 -12 9.50098s-7.66699 2.5 -11 2.5c-2.66699 0 -6 -0.833008 -10 -2.5s-8 -4.83398 -12 -9.50098l-11 -15
c-3.33301 -4.66699 -6 -9 -8 -13l-8 -12h-14l58 100h5h6z" />
    <glyph glyph-name="atilde" unicode="&#xe3;" horiz-adv-x="378" 
d="M368 43c0 -5.33301 -1.33398 -10.8311 -4.00098 -16.498s-6.5 -11 -11.5 -16s-11.333 -9.5 -19 -13.5s-16.5 -6 -26.5 -6c-15.333 0 -29.333 3.66699 -42 11s-21.667 17 -27 29c-4 6.66699 -6.66699 14.334 -8 23.001c-9.33301 -18 -22.666 -33 -39.999 -45
s-37 -18 -59 -18c-26 0 -49.333 9.66699 -70 29c-11.333 10 -20.666 23 -27.999 39s-11.666 34.333 -12.999 55c-0.666992 2 -1 6 -1 12v1c0.666992 11.333 3 23.166 7 35.499s9.33301 24.666 16 36.999s14.667 24 24 35s19.666 20.5 30.999 28.5
c2.66699 1.33301 5 2.83301 7 4.5s4.33301 3.5 7 5.5l3 1.5l3 1.5l31.5 20l24.5 17c4 2.66699 8.16699 5.66699 12.5 9l12.5 10c6 4 11.833 8.66699 17.5 14s9.83398 11.666 12.501 18.999c3.33301 6.66699 5 14.667 5 24s-0.666992 17.666 -2 24.999
c-3.33301 14.667 -10.333 27.334 -21 38.001s-23 17.667 -37 21c-5.33301 2 -10.666 3 -15.999 3c-18.667 0 -34.667 -3.33301 -48 -10c-9.33301 -4 -15.833 -8.5 -19.5 -13.5s-5.83398 -9.66699 -6.50098 -14s0.166016 -7.83301 2.49902 -10.5s4.83301 -4.66699 7.5 -6
c1.33301 -0.666992 2.16602 -1 2.49902 -1s1.16602 -0.333008 2.49902 -1c8.66699 -3.33301 16 -9.16602 22 -17.499s9 -17.5 9 -27.5c0 -12.667 -4.66699 -23.5 -14 -32.5s-20.333 -13.5 -33 -13.5c-13.333 0 -24.5 4.5 -33.5 13.5s-13.5 19.833 -13.5 32.5
c0 11.333 1.33301 23.166 4 35.499s7.33398 23.5 14.001 33.5c12.667 18.667 27.667 32.167 45 40.5s37 12.5 59 12.5c15.333 0 30.833 -3 46.5 -9s29.834 -14.5 42.501 -25.5s23 -24.167 31 -39.5s12 -33 12 -53v-294c0 -12 0.166992 -19.833 0.5 -23.5
s0.5 -6.16699 0.5 -7.5v0c0 -8.66699 2.66699 -15.667 8 -21s12.333 -8 21 -8c7.33301 0 13.666 2.5 18.999 7.5s8.33301 11.5 9 19.5h21zM211.999 68.002c4.66699 9.33301 7.66699 19.3311 9 29.998s2 20.667 2 30v185l-9 -7.5
c-2.66699 -2.33301 -5.66699 -5.16602 -9 -8.49902c-19.333 -14 -36 -26.833 -50 -38.5s-25.667 -23.667 -35 -36s-16.5 -25.5 -21.5 -39.5s-8.16699 -30 -9.5 -48v-15c0.666992 -25.333 7.5 -45.166 20.5 -59.499s31.5 -21.5 55.5 -21.5c10 0 19.667 2.66699 29 8
c8 6 14 13 18 21zM82.999 562c0 16.667 3.83301 30.999 11.5 42.999s20.834 18 39.501 18c10 0 20.167 -2.33301 30.5 -7s20.5 -9.5 30.5 -14.5s19.333 -9.16699 28 -12.5s16 -3.66602 22 -0.999023c3.33301 2 6 4.5 8 7.5s3.33301 5.83301 4 8.5c0.666992 3.33301 1 7 1 11
h12c0 -17.333 -3.5 -32 -10.5 -44s-20.167 -18 -39.5 -18c-9.33301 0 -19.333 2.5 -30 7.5l-31 15c-10 5 -19.333 9.16699 -28 12.5s-16 3.33301 -22 0c-4 -2 -6.83301 -4.33301 -8.5 -7s-2.83398 -5.66699 -3.50098 -9c-0.666992 -2.66699 -1 -6 -1 -10h-13z" />
    <glyph glyph-name="adieresis" unicode="&#xe4;" 
d="M367 43c0 -5.33301 -1.33691 -10.8311 -4.00391 -16.498s-6.5 -11 -11.5 -16s-11.167 -9.5 -18.5 -13.5s-16.333 -6 -27 -6c-15.333 0 -29.333 3.66699 -42 11s-21.667 17 -27 29c-3.33301 6.66699 -6 14.334 -8 23.001c-9.33301 -18 -22.666 -33 -39.999 -45
s-37 -18 -59 -18c-26 0 -49.333 9.66699 -70 29c-11.333 10 -20.666 23 -27.999 39s-11.666 34.333 -12.999 55c-0.666992 2 -1 6 -1 12v1c0.666992 11.333 3 23.166 7 35.499s9.5 24.666 16.5 36.999s15 24 24 35s19.167 20.5 30.5 28.5c2.66699 1.33301 5 2.83301 7 4.5
s4.66699 3.5 8 5.5c0.666992 0.666992 1.33398 1.16699 2.00098 1.5l3 1.5l31.5 20l24.5 17c4 2.66699 8.16699 5.66699 12.5 9l12.5 10c6 4 11.833 8.66699 17.5 14s9.83398 11.666 12.501 18.999c3.33301 6.66699 5 14.667 5 24s-0.666992 17.666 -2 24.999
c-3.33301 14.667 -10.333 27.334 -21 38.001s-23 17.667 -37 21c-5.33301 2 -10.666 3 -15.999 3c-18.667 0 -34.667 -3.33301 -48 -10c-9.33301 -4 -15.833 -8.5 -19.5 -13.5s-5.83398 -9.66699 -6.50098 -14s0.166016 -7.83301 2.49902 -10.5s4.83301 -4.66699 7.5 -6
c1.33301 -0.666992 2.16602 -1 2.49902 -1s1.16602 -0.333008 2.49902 -1c9.33301 -3.33301 16.833 -9.16602 22.5 -17.499s8.5 -17.5 8.5 -27.5c0 -12.667 -4.66699 -23.5 -14 -32.5s-20.333 -13.5 -33 -13.5c-13.333 0 -24.5 4.5 -33.5 13.5s-13.5 19.833 -13.5 32.5
c0 11.333 1.33301 23.166 4 35.499s7.33398 23.5 14.001 33.5c12.667 18.667 27.834 32.167 45.501 40.5s37.167 12.5 58.5 12.5c15.333 0 30.833 -3 46.5 -9s29.834 -14.5 42.501 -25.5s23 -24.167 31 -39.5s12 -33 12 -53v-294c0 -12 0.166992 -19.833 0.5 -23.5
s0.5 -6.16699 0.5 -7.5v0c0 -8.66699 2.66699 -15.667 8 -21s12.333 -8 21 -8c7.33301 0 13.666 2.5 18.999 7.5s8.33301 11.5 9 19.5h21zM210.996 68.002c4.66699 9.33301 7.66602 19.3311 8.99902 29.998s2 20.667 2 30v185l-9 -7.5
c-2.66699 -2.33301 -5.66699 -5.16602 -9 -8.49902c-19.333 -14 -36 -26.833 -50 -38.5s-25.5 -23.667 -34.5 -36s-16.167 -25.5 -21.5 -39.5s-8.66602 -30 -9.99902 -48v-15c0.666992 -25.333 7.5 -45.166 20.5 -59.499s31.5 -21.5 55.5 -21.5c10 0 19.667 2.66699 29 8
c8.66699 6 14.667 13 18 21zM216.995 564c-8 0 -15 2.83301 -21 8.5s-9 12.834 -9 21.501c0 8 3 14.833 9 20.5s13 8.5 21 8.5c8.66699 0 15.834 -2.83301 21.501 -8.5s8.5 -12.5 8.5 -20.5c0 -8.66699 -2.83301 -15.834 -8.5 -21.501s-12.834 -8.5 -21.501 -8.5z
M119.995 564c-8.66699 0 -15.834 2.83301 -21.501 8.5s-8.5 12.834 -8.5 21.501c0 8 2.83301 14.833 8.5 20.5s12.834 8.5 21.501 8.5c8 0 14.833 -2.83301 20.5 -8.5s8.5 -12.5 8.5 -20.5c0 -8.66699 -2.83301 -15.834 -8.5 -21.501s-12.5 -8.5 -20.5 -8.5z" />
    <glyph glyph-name="aring" unicode="&#xe5;" horiz-adv-x="380" 
d="M370 43c0 -5.33301 -1.33398 -10.8311 -4.00098 -16.498s-6.5 -11 -11.5 -16s-11.333 -9.5 -19 -13.5s-16.5 -6 -26.5 -6c-15.333 0 -29.333 3.66699 -42 11s-21.667 17 -27 29c-4 6.66699 -6.66699 14.334 -8 23.001c-9.33301 -18 -22.666 -33 -39.999 -45
s-37 -18 -59 -18c-26.667 0 -50 9.66699 -70 29c-11.333 10 -20.666 23 -27.999 39s-11.666 34.333 -12.999 55c-0.666992 2 -1 6 -1 12v1c0.666992 11.333 3 23.166 7 35.499s9.33301 24.666 16 36.999s14.667 24 24 35s19.666 20.5 30.999 28.5
c2.66699 1.33301 5 2.83301 7 4.5s4.33301 3.5 7 5.5l3 1.5l3 1.5l31.5 20l24.5 17c4 2.66699 8.16699 5.66699 12.5 9l12.5 10c6 4 11.833 8.66699 17.5 14s9.83398 11.666 12.501 18.999c3.33301 6.66699 5 14.667 5 24s-0.666992 17.666 -2 24.999
c-3.33301 14.667 -10.333 27.334 -21 38.001s-23 17.667 -37 21c-5.33301 2 -10.666 3 -15.999 3c-18.667 0 -34.667 -3.33301 -48 -10c-9.33301 -4 -15.833 -8.5 -19.5 -13.5s-5.83398 -9.66699 -6.50098 -14s0.166016 -7.83301 2.49902 -10.5s4.83301 -4.66699 7.5 -6
c1.33301 -0.666992 2.16602 -1 2.49902 -1s1.16602 -0.333008 2.49902 -1c8.66699 -3.33301 16 -9.16602 22 -17.499s9 -17.5 9 -27.5c0 -12.667 -4.66699 -23.5 -14 -32.5s-20.333 -13.5 -33 -13.5c-13.333 0 -24.666 4.5 -33.999 13.5s-14 19.833 -14 32.5
c0 11.333 1.5 23.166 4.5 35.499s7.83301 23.5 14.5 33.5c12.667 18.667 27.667 32.167 45 40.5s37 12.5 59 12.5c15.333 0 30.833 -3 46.5 -9s29.834 -14.5 42.501 -25.5s23 -24.167 31 -39.5s12 -33 12 -53v-294c0 -12 0.166992 -19.833 0.5 -23.5s0.5 -6.16699 0.5 -7.5
v0c0 -8.66699 2.66699 -15.667 8 -21s12.333 -8 21 -8c7.33301 0 13.666 2.5 18.999 7.5s8.33301 11.5 9 19.5h21zM213.999 68.002c4.66699 9.33301 7.66699 19.3311 9 29.998s2 20.667 2 30v185l-9 -7.5c-2.66699 -2.33301 -5.66699 -5.16602 -9 -8.49902
c-19.333 -14 -36 -26.833 -50 -38.5s-25.667 -23.667 -35 -36s-16.5 -25.5 -21.5 -39.5s-8.16699 -30 -9.5 -48v-15c0.666992 -25.333 7.5 -45.166 20.5 -59.499s31.5 -21.5 55.5 -21.5c10 0 19.667 2.66699 29 8c8 6 14 13 18 21zM215.999 650
c12 -12 18.001 -26.333 18.001 -43s-6 -31 -18 -43s-26.333 -18 -43 -18c-16 0 -30 6 -42 18c-12.667 11.333 -19 25.333 -19 42c0 18 6.33301 32.667 19 44c11.333 12 25.666 18 42.999 18c16.667 0 30.667 -6 42 -18zM199 581c7.33301 7.33301 11.001 16 11.001 26
s-3.33301 19 -10 27c-7.33301 6.66699 -16 10 -26 10s-18.667 -3.66699 -26 -11c-8 -7.33301 -12 -16.333 -12 -27c0 -10 3.66699 -18.667 11 -26c8 -6.66699 17 -10 27 -10c9.33301 0 17.666 3.66699 24.999 11z" />
    <glyph glyph-name="ae" unicode="&#xe6;" horiz-adv-x="531" 
d="M365 493c16.667 0 32.8291 -2.49609 48.4961 -7.49609s29.834 -13.167 42.501 -24.5s23.167 -25.833 31.5 -43.5s12.5 -38.834 12.5 -63.501v-101v-4v-24h-201v-90c0 -42 7.16699 -71.833 21.5 -89.5s32.166 -26.167 53.499 -25.5c12.667 0 25.334 1.66699 38.001 5
s23.667 9.66602 33 18.999s17 22 23 38s9 37 9 63h22v-13c0 -18.667 -2 -36.167 -6 -52.5s-11.167 -30.5 -21.5 -42.5s-23.333 -21.5 -39 -28.5s-34.834 -10.833 -57.501 -11.5s-45.667 5.16602 -69 17.499s-41.666 29.833 -54.999 52.5
c-11.333 -19.333 -27.333 -35.833 -48 -49.5s-41.667 -20.5 -63 -20.5c-27.333 0 -50.666 9.33301 -69.999 28c-11.333 10.667 -20.666 23.667 -27.999 39s-11.666 33.333 -12.999 54c-0.666992 3.33301 -1 7.66602 -1 12.999v2c1.33301 25.333 10.666 49.5 27.999 72.5
s40.666 43.5 69.999 61.5l49 33c13.333 9.33301 23.833 18.666 31.5 27.999s13.167 19.833 16.5 31.5s5 26.167 5 43.5c-4 22.667 -11.333 38.834 -22 48.501s-24 14.5 -40 14.5c-17.333 0 -31.5 -2 -42.5 -6s-19.833 -9 -26.5 -15s-11.667 -12.167 -15 -18.5
s-5.33301 -11.833 -6 -16.5c-1.33301 -2.66699 -2.16602 -7.16699 -2.49902 -13.5s2.83398 -9.5 9.50098 -9.5c16 0 27.333 -3.66699 34 -11s9.66699 -15.666 9 -24.999s-4 -17.666 -10 -24.999s-14 -11 -24 -11c-16.667 0 -28.667 4.83301 -36 14.5
s-11.666 21.167 -12.999 34.5s-0.166016 26.666 3.50098 39.999s7.5 23.333 11.5 30c12 19.333 27.5 33.166 46.5 41.499s39.167 12.5 60.5 12.5c17.333 0 34.666 -3.5 51.999 -10.5s32.666 -17.167 45.999 -30.5c14 16 30 27.667 48 35s36 11 54 11zM228.995 87.0039
c0.666992 1.33301 1.33398 3.33496 2.00098 6.00195l2 8c-0.666992 6 -1 12 -1 18v19v165c-2.66699 -2.66699 -5.66699 -4.83398 -9 -6.50098s-6.33301 -4.16699 -9 -7.5l-50 -37c-14 -10 -25.833 -20.333 -35.5 -31s-16.834 -22.167 -21.501 -34.5s-7.66699 -27.5 -9 -45.5
c-0.666992 -3.33301 -1 -6.16602 -1 -8.49902v-8.5c0.666992 -25.333 7.66699 -45 21 -59s32 -21 56 -21c8 0 15 1.5 21 4.5s11.333 6.66699 16 11s8.66699 9.16602 12 14.499s5.33301 9.66602 6 12.999zM431.995 333.006c0 24.667 -1.66699 45.834 -5 63.501
s-7.83301 31.667 -13.5 42s-12.667 17.5 -21 21.5s-17.5 6 -27.5 6c-10.667 0 -20 -2 -28 -6s-14.833 -11.167 -20.5 -21.5s-9.66699 -24.333 -12 -42s-3.5 -38.834 -3.5 -63.501v-80h131v80z" />
    <glyph glyph-name="ccedilla" unicode="&#xe7;" horiz-adv-x="325" 
d="M233 -93v4v-9v5zM158 -35c1.33301 0 3.00098 0.333008 5.00098 1c2 0 4.66699 0.166992 8 0.5s7.33301 -0.166992 12 -1.5c12 -2.66699 23.333 -8.16699 34 -16.5s16 -22.166 16 -41.499c-1.33301 -19.333 -8.33301 -35.666 -21 -48.999s-30.334 -20 -53.001 -20h-7.5
c-1.66699 0 -3.83398 0.333008 -6.50098 1c-14.667 2 -26.334 7.83301 -35.001 17.5s-14 19.5 -16 29.5s-0.5 19.333 4.5 28s12.833 13 23.5 13c6.66699 0 12.334 -2 17.001 -6s7 -9 7 -15c0 -10 -6 -16.667 -18 -20h-2c-4.66699 -1.33301 -7.66699 -4 -9 -8
s-0.333008 -8.66699 3 -14c4 -4.66699 8.83301 -8.5 14.5 -11.5s12.5 -4.5 20.5 -4.5c16.667 0 26.5 5.16699 29.5 15.5s4.83301 23.166 5.5 38.499c0.666992 4 0.833984 5.5 0.500977 4.5s-0.5 0.5 -0.5 4.5c0 14.667 -3 24.667 -9 30s-12.333 8.66602 -19 9.99902
c-8 0.666992 -17.333 -1 -28 -5l27 57l15 -1zM163.001 475c-20.667 -1.33301 -38.1699 -12.166 -52.5029 -32.499s-21.5 -50.833 -21.5 -91.5v-221c0 -20.667 1.83301 -38.167 5.5 -52.5s8.83398 -26.166 15.501 -35.499s14.5 -16 23.5 -20s18.833 -6 29.5 -6
c14.667 -0.666992 29 0.833008 43 4.5s26.5 10 37.5 19s19.833 21.667 26.5 38s10 37.5 10 63.5h23v-13c0 -18.667 -2.66699 -36.167 -8 -52.5s-13.5 -30.666 -24.5 -42.999s-25.333 -22 -43 -29s-39.167 -10.5 -64.5 -10.5c-15.333 0 -31.333 3 -48 9
s-31.667 14.833 -45 26.5s-24.5 26 -33.5 43s-13.5 35.833 -13.5 56.5v223c0 23.333 4.5 44 13.5 62s20.167 33.333 33.5 46s28.333 22.167 45 28.5s32.667 9.5 48 9.5c6 0 11.833 -0.166992 17.5 -0.5s11.5 -1.16602 17.5 -2.49902c2 0 5.33301 -1 10 -3
c0.666992 -0.666992 1.66699 -1 3 -1l8 -3c5.33301 -2 11.333 -4.66699 18 -8s12.834 -5.83301 18.501 -7.5s10.334 -1.33398 14.001 0.999023s5.5 8.16602 5.5 17.499h28v-169h-24c0.666992 15.333 -0.333008 30.666 -3 45.999c-2 12.667 -5.5 26 -10.5 40
s-12.167 26.667 -21.5 38l-9.5 7.5c-3 2.33301 -5.83301 4.83301 -8.5 7.5h-1h-1c-10 5.33301 -20 9.16602 -30 11.499s-20.333 3.5 -31 3.5z" />
    <glyph glyph-name="egrave" unicode="&#xe8;" horiz-adv-x="306" 
d="M152 496c16 0 32.001 -2.6709 48.001 -8.00391s30.333 -13.666 43 -24.999s22.834 -25.666 30.501 -42.999s11.5 -38 11.5 -62v-101v-3v-23h-198v-103c0 -41.333 7 -70.833 21 -88.5s31.333 -26.167 52 -25.5c12.667 0.666992 25.167 2.83398 37.5 6.50098
s23.166 9.83398 32.499 18.501s17.166 21 23.499 37s9.5 37 9.5 63h22v-14c0 -18 -2.16699 -35.167 -6.5 -51.5s-11.333 -30.5 -21 -42.5s-22.334 -21.5 -38.001 -28.5s-35.167 -10.833 -58.5 -11.5c-15.333 0 -31.333 3 -48 9s-31.667 15 -45 27s-24.5 26.167 -33.5 42.5
s-13.5 34.833 -13.5 55.5v23.5c0 11 -0.166992 23.833 -0.5 38.5s-0.5 30.5 -0.5 47.5s-0.166992 33.5 -0.5 49.5s-0.5 30.5 -0.5 43.5v29.5c0 24 4.16699 44.833 12.5 62.5s18.833 32 31.5 43s26.834 19.333 42.501 25s31.167 8.5 46.5 8.5zM217.001 256.996
l0.000976562 79.001c0 25.333 -1.5 46.5 -4.5 63.5s-7.33301 30.667 -13 41s-12.5 17.5 -20.5 21.5s-17.333 6 -28 6c-20.667 0 -36.334 -9.33301 -47.001 -28s-16 -53.334 -16 -104.001v-79h129zM237.002 555.997l-6.00098 -6.99902l-82 59
c-21.333 16.667 -32 29.667 -32 39c0 5.33301 2.33301 10.666 7 15.999c6 5.33301 12 8 18 8c10.667 0 20.334 -6.33301 29.001 -19z" />
    <glyph glyph-name="eacute" unicode="&#xe9;" horiz-adv-x="306" 
d="M151 496c16 0 31.998 -2.6709 47.998 -8.00391s30.333 -13.666 43 -24.999s22.834 -25.666 30.501 -42.999s11.5 -38 11.5 -62v-101v-3v-23h-198v-103c0 -41.333 7 -70.833 21 -88.5s31.667 -26.167 53 -25.5c12 0.666992 24.167 2.83398 36.5 6.50098
s23.333 9.83398 33 18.501s17.5 21 23.5 37s9 37 9 63h22v-14c0 -18 -2.16699 -35.167 -6.5 -51.5s-11.333 -30.5 -21 -42.5s-22.334 -21.5 -38.001 -28.5s-35.167 -10.833 -58.5 -11.5c-15.333 0 -31.166 3 -47.499 9s-31.333 15 -45 27s-25 26.167 -34 42.5
s-13.5 34.833 -13.5 55.5v23.5c0 11 -0.166992 23.833 -0.5 38.5s-0.5 30.5 -0.5 47.5s-0.166992 33.5 -0.5 49.5s-0.5 30.5 -0.5 43.5v29.5c0 24 4.16699 44.833 12.5 62.5s18.833 32 31.5 43s26.834 19.333 42.501 25s31.167 8.5 46.5 8.5zM215.998 256.996
l0.000976562 79.001c0 25.333 -1.5 46.5 -4.5 63.5s-7.33301 30.667 -13 41s-12.5 17.5 -20.5 21.5s-17.333 6 -28 6c-20.667 0 -36.334 -9.33301 -47.001 -28s-16 -53.334 -16 -104.001v-79h129zM181.999 651.997c9.33301 12.667 19.333 18.999 30 18.999
c5.33301 0 11 -2.66699 17 -8c4.66699 -5.33301 7 -10.666 7 -15.999c0 -9.33301 -10.667 -22.333 -32 -39l-81 -59l-7 7z" />
    <glyph glyph-name="ecircumflex" unicode="&#xea;" horiz-adv-x="307" 
d="M153 496c16 0 32.001 -2.6709 48.001 -8.00391s30.333 -13.666 43 -24.999s22.834 -25.666 30.501 -42.999s11.5 -38 11.5 -62v-101v-3v-23h-198v-103c0 -41.333 7 -70.833 21 -88.5s31.333 -26.167 52 -25.5c12.667 0.666992 25.167 2.83398 37.5 6.50098
s23.166 9.83398 32.499 18.501s17.166 21 23.499 37s9.5 37 9.5 63h22v-14c0 -18 -2.16699 -35.167 -6.5 -51.5s-11.333 -30.5 -21 -42.5s-22.334 -21.5 -38.001 -28.5s-35.167 -10.833 -58.5 -11.5c-15.333 0 -31.333 3 -48 9s-31.667 15 -45 27s-24.5 26.167 -33.5 42.5
s-13.5 34.833 -13.5 55.5v23.5c0 11 -0.166992 23.833 -0.5 38.5s-0.5 30.5 -0.5 47.5s-0.166992 33.5 -0.5 49.5s-0.5 30.5 -0.5 43.5v29.5c0 24 4.16699 44.833 12.5 62.5s18.833 32 31.5 43s26.834 19.333 42.501 25s31.167 8.5 46.5 8.5zM218.001 256.996
l0.000976562 79.001c0 25.333 -1.5 46.5 -4.5 63.5s-7.33301 30.667 -13 41s-12.5 17.5 -20.5 21.5s-17.333 6 -28 6c-20.667 0 -36.334 -9.33301 -47.001 -28s-16 -53.334 -16 -104.001v-79h129zM235.002 555.997h-13.001c-3.33301 4 -6 8 -8 12l-9 13
c-3.33301 4.66699 -6.66602 9.66699 -9.99902 15c-4 4.66699 -8 7.83398 -12 9.50098s-7.66699 2.5 -11 2.5c-2.66699 0 -6 -0.833008 -10 -2.5s-8 -4.83398 -12 -9.50098c-4.66699 -5.33301 -8.5 -10.333 -11.5 -15s-5.5 -9 -7.5 -13l-8 -12h-14l58 100h5h6z" />
    <glyph glyph-name="edieresis" unicode="&#xeb;" horiz-adv-x="307" 
d="M154 496c16 0 31.999 -2.6709 47.999 -8.00391s30.333 -13.666 43 -24.999s22.834 -25.666 30.501 -42.999s11.5 -38 11.5 -62v-101v-3v-23h-198v-103c0 -41.333 7 -70.833 21 -88.5s31.333 -26.167 52 -25.5c12.667 0.666992 25.167 2.83398 37.5 6.50098
s23.166 9.83398 32.499 18.501s17 21 23 37s9 37 9 63h23v-14c0 -18 -2.16699 -35.167 -6.5 -51.5s-11.333 -30.5 -21 -42.5s-22.5 -21.5 -38.5 -28.5s-35.333 -10.833 -58 -11.5c-15.333 0 -31.333 3 -48 9s-31.667 15 -45 27s-24.5 26.167 -33.5 42.5
s-13.5 34.833 -13.5 55.5v23.5c0 11 -0.166992 23.833 -0.5 38.5s-0.5 30.5 -0.5 47.5s-0.166992 33.5 -0.5 49.5s-0.5 30.5 -0.5 43.5v29.5c0 24 4.16699 44.833 12.5 62.5s18.833 32 31.5 43s26.834 19.333 42.501 25s31.167 8.5 46.5 8.5zM218.999 256.996v79.001
c0 25.333 -1.5 46.5 -4.5 63.5s-7.33301 30.667 -13 41s-12.5 17.5 -20.5 21.5s-17.333 6 -28 6c-20.667 0 -36.5 -9.33301 -47.5 -28s-16.5 -53.334 -16.5 -104.001v-79h130zM214.999 563.997c-8.66699 0 -15.834 2.83301 -21.501 8.5s-8.5 12.834 -8.5 21.501
c0 8 2.83301 14.833 8.5 20.5s12.834 8.5 21.501 8.5c8 0 15 -2.83301 21 -8.5s9 -12.5 9 -20.5c0 -8.66699 -3 -15.834 -9 -21.501s-13 -8.5 -21 -8.5zM116.999 563.997c-8 0 -14.833 2.83301 -20.5 8.5s-8.5 12.834 -8.5 21.501c0 8 2.83301 14.833 8.5 20.5
s12.5 8.5 20.5 8.5c8.66699 0 15.834 -2.83301 21.501 -8.5s8.5 -12.5 8.5 -20.5c0 -8.66699 -2.83301 -15.834 -8.5 -21.501s-12.834 -8.5 -21.501 -8.5z" />
    <glyph glyph-name="igrave" unicode="&#xec;" horiz-adv-x="158" 
d="M120 54c0 -9.33301 1.33203 -16.165 3.99902 -20.498s5.33398 -6.83301 8.00098 -7.5c4 -2 8.33301 -2 13 0v-26h-120v26c4.66699 -2 8.66699 -2 12 0c3.33301 0.666992 6.5 3.16699 9.5 7.5s4.5 11.166 4.5 20.499v381c0 8.66699 -1.5 15.167 -4.5 19.5
s-6.16699 7.16602 -9.5 8.49902s-7.33301 1.33301 -12 0v25h95v-434zM132.999 556.001l-6.00098 -6.99902l-81 59c-21.333 16.667 -32 29.667 -32 39c0 5.33301 2 10.666 6 15.999c6.66699 5.33301 12.334 8 17.001 8c10.667 0 21 -6.33301 31 -19z" />
    <glyph glyph-name="iacute" unicode="&#xed;" horiz-adv-x="152" 
d="M112 54c0 -9.33301 1.50098 -16.165 4.50098 -20.498s5.83301 -6.83301 8.5 -7.5c3.33301 -2 7.66602 -2 12.999 0v-26h-121v26c5.33301 -2 10 -2 14 0c2 0.666992 4.66699 3.16699 8 7.5s5 11.166 5 20.499v381c0 8.66699 -1.66699 15.167 -5 19.5
s-6 7.16602 -8 8.49902c-4 1.33301 -8.66699 1.33301 -14 0v25h95v-434zM79.001 652.001c8.66699 12.667 18.667 18.999 30 18.999c5.33301 0 11 -2.66699 17 -8c4.66699 -5.33301 7 -10.666 7 -15.999c0 -9.33301 -10.667 -22.333 -32 -39l-82 -59l-5 7z" />
    <glyph glyph-name="icircumflex" unicode="&#xee;" horiz-adv-x="162" 
d="M122 54c0 -9.33301 1.33301 -16.165 4 -20.498s5.66699 -6.83301 9 -7.5c3.33301 -2 7.33301 -2 12 0v-26h-119v26c4 -2 8 -2 12 0c3.33301 0.666992 6.33301 3.16699 9 7.5s4 11.166 4 20.499v381c0 8.66699 -1.33301 15.167 -4 19.5s-5.66699 7.16602 -9 8.49902
c-4 1.33301 -8 1.33301 -12 0v25h94v-434zM139 556.001h-14.002l-8 12l-8.5 13c-3 4.66699 -6.5 9.66699 -10.5 15c-4 4.66699 -8 7.83398 -12 9.50098s-7.66699 2.5 -11 2.5c-2.66699 0 -6 -0.833008 -10 -2.5s-8.33301 -4.83398 -13 -9.50098
c-3.33301 -5.33301 -6.66602 -10.333 -9.99902 -15l-9 -13c-1.33301 -4 -3.66602 -8 -6.99902 -12h-13l57 100h5h6z" />
    <glyph glyph-name="idieresis" unicode="&#xef;" horiz-adv-x="176" 
d="M130 54c0 -9.33301 1.33301 -16.165 4 -20.498s5.66699 -6.83301 9 -7.5c3.33301 -2 7.33301 -2 12 0v-26h-120v26c5.33301 -2 9.66602 -2 12.999 0c2.66699 0.666992 5.66699 3.16699 9 7.5s5 11.166 5 20.499v381c0 8.66699 -1.66699 15.167 -5 19.5
s-6.33301 7.16602 -9 8.49902c-3.33301 1.33301 -7.66602 1.33301 -12.999 0v25h95v-434zM134 564.001c-8.66699 0 -15.834 2.83301 -21.501 8.5s-8.5 12.834 -8.5 21.501c0 8 2.83301 14.833 8.5 20.5s12.834 8.5 21.501 8.5c8 0 14.833 -2.83301 20.5 -8.5
s8.5 -12.5 8.5 -20.5c0 -8.66699 -2.83301 -15.834 -8.5 -21.501s-12.5 -8.5 -20.5 -8.5zM36 564.001c-8 0 -14.833 2.83301 -20.5 8.5s-8.5 12.834 -8.5 21.501c0 8 2.83301 14.833 8.5 20.5s12.5 8.5 20.5 8.5c8.66699 0 15.834 -2.83301 21.501 -8.5s8.5 -12.5 8.5 -20.5
c0 -8.66699 -2.83301 -15.834 -8.5 -21.501s-12.834 -8.5 -21.501 -8.5z" />
    <glyph glyph-name="ntilde" unicode="&#xf1;" horiz-adv-x="364" 
d="M203 496c34.667 -1.33301 62.6641 -12.832 83.9971 -34.499s32 -56.834 32 -105.501v-146v-156c0 -13.333 2.16699 -21.5 6.5 -24.5s8.83301 -4.5 13.5 -4.5h3c0.666992 0 1.33398 0.333008 2.00098 1v-26h-119v26l1 -1h5c2.66699 0 6.16699 1.33301 10.5 4
s7.16602 9.33398 8.49902 20.001v284c0 9.33301 -0.166992 17.666 -0.5 24.999s-0.5 14 -0.5 20v1c-1.33301 33.333 -5.5 57 -12.5 71s-18.5 21.667 -34.5 23h-4c-20.667 0 -38.5 -8 -53.5 -24s-24.5 -43 -28.5 -81v-314c0 -13.333 2.33301 -21.5 7 -24.5
s8.66699 -4.5 12 -4.5h5c0.666992 0 1.33398 0.333008 2.00098 1v-26h-121v26c0.666992 -0.666992 1.33398 -1 2.00098 -1h5c4.66699 0 9.16699 1.5 13.5 4.5s6.5 11.167 6.5 24.5v382c0 12.667 -2.16699 20.667 -6.5 24s-8.83301 5 -13.5 5h-3h-2h-2v23h95v-39l7.5 11
c2.33301 3.33301 4.83301 6.33301 7.5 9c11.333 10 24 17.333 38 22h1c0 0.666992 0.333008 1 1 1c5.33301 1.33301 10.333 2.33301 15 3s9.33398 1 14.001 1h3zM84.9971 562.001c0 16.667 3.66895 30.999 11.002 42.999s20.666 18 39.999 18
c9.33301 0 19.333 -2.33301 30 -7s21 -9.5 31 -14.5s19.333 -9.16699 28 -12.5s16 -3.66602 22 -0.999023c3.33301 2 6 4.5 8 7.5s3.33301 5.83301 4 8.5c0.666992 3.33301 1 7 1 11h12c0 -17.333 -3.5 -32 -10.5 -44s-20.167 -18 -39.5 -18c-10 0 -20.167 2.5 -30.5 7.5
l-30.5 15c-10 5 -19.333 9.16699 -28 12.5s-16 3.33301 -22 0c-4 -2 -6.83301 -4.33301 -8.5 -7s-2.83398 -5.66699 -3.50098 -9c-0.666992 -2.66699 -1 -6 -1 -10h-13z" />
    <glyph glyph-name="ograve" unicode="&#xf2;" horiz-adv-x="316" 
d="M158 496c16 0 32 -2.66797 48 -8.00098s30.5 -13.666 43.5 -24.999s23.667 -26 32 -44s12.5 -39.333 12.5 -64v-227c0 -19.333 -4.16699 -37.333 -12.5 -54s-19 -31 -32 -43s-27.667 -21.667 -44 -29s-32.166 -11 -47.499 -11c-16.667 0 -33 3 -49 9s-30.5 15 -43.5 27
s-23.833 26.5 -32.5 43.5s-13 36.167 -13 57.5v225c0 25.333 4.16699 47 12.5 65s19.166 32.833 32.499 44.5s28 20.167 44 25.5s32.333 8 49 8zM224 332.999c0 25.333 -1.5 46.832 -4.5 64.499s-7.5 31.834 -13.5 42.501s-13 18.167 -21 22.5s-17.333 6.5 -28 6.5
c-21.333 0 -37.666 -9.83301 -48.999 -29.5s-17 -55.167 -17 -106.5v-178c0 -51.333 5.66699 -87.666 17 -108.999s27.666 -32 48.999 -32c20.667 0 37 10.667 49 32s18 57.666 18 108.999v178zM238 555.998l-6.00098 -6.99902l-82 59c-21.333 16.667 -32 29.667 -32 39
c0 5.33301 2.33301 10.666 7 15.999c6 5.33301 12 8 18 8c10.667 0 20.334 -6.33301 29.001 -19z" />
    <glyph glyph-name="oacute" unicode="&#xf3;" horiz-adv-x="316" 
d="M157 496c16 0 32 -2.66797 48 -8.00098s30.667 -13.666 44 -24.999s24 -26 32 -44s12 -39.333 12 -64v-227c0 -19.333 -4.16699 -37.333 -12.5 -54s-19 -31 -32 -43s-27.667 -21.667 -44 -29s-32.166 -11 -47.499 -11c-16.667 0 -33 3 -49 9s-30.5 15 -43.5 27
s-23.833 26.5 -32.5 43.5s-13 36.167 -13 57.5v225c0 25.333 4.16699 47 12.5 65s19.166 32.833 32.499 44.5s28 20.167 44 25.5s32.333 8 49 8zM223 332.999c0 25.333 -1.5 46.832 -4.5 64.499s-7.33301 31.834 -13 42.501s-12.667 18.167 -21 22.5s-17.833 6.5 -28.5 6.5
c-21.333 0 -37.666 -9.83301 -48.999 -29.5s-17 -55.167 -17 -106.5v-178c0 -51.333 5.66699 -87.666 17 -108.999s27.666 -32 48.999 -32s37.833 10.667 49.5 32s17.5 57.666 17.5 108.999v178zM183 651.998c9.33301 12.667 19.333 18.999 30 18.999
c5.33301 0 11 -2.66699 17 -8c4.66699 -5.33301 7 -10.666 7 -15.999c0 -9.33301 -10.667 -22.333 -32 -39l-81 -59l-7 7z" />
    <glyph glyph-name="ocircumflex" unicode="&#xf4;" horiz-adv-x="316" 
d="M159 496c16 0 32.001 -2.66797 48.001 -8.00098s30.5 -13.666 43.5 -24.999s23.667 -26 32 -44s12.5 -39.333 12.5 -64v-227c0 -19.333 -4.33301 -37.333 -13 -54s-19.334 -31 -32.001 -43s-27.167 -21.667 -43.5 -29s-32.166 -11 -47.499 -11c-16.667 0 -33 3 -49 9
s-30.5 15 -43.5 27s-23.833 26.5 -32.5 43.5s-13 36.167 -13 57.5v225c0 25.333 4.16699 47 12.5 65s19.166 32.833 32.499 44.5s28 20.167 44 25.5s32.333 8 49 8zM225.001 332.999c0 25.333 -1.66699 46.832 -5 64.499s-7.83301 31.834 -13.5 42.501
s-12.5 18.167 -20.5 22.5s-17.333 6.5 -28 6.5c-22 0 -38.5 -9.83301 -49.5 -29.5s-16.5 -55.167 -16.5 -106.5v-178c0 -51.333 5.5 -87.666 16.5 -108.999s27.5 -32 49.5 -32c20.667 0 37 10.667 49 32s18 57.666 18 108.999v178zM218.001 555.998h-13
c-3.33301 4 -6 8 -8 12l-9 13c-3.33301 4.66699 -6.66602 9.66699 -9.99902 15c-4 4.66699 -8 7.83398 -12 9.50098s-7.66699 2.5 -11 2.5s-6.83301 -0.833008 -10.5 -2.5s-7.83398 -4.83398 -12.501 -9.50098c-4 -5.33301 -7.5 -10.333 -10.5 -15l-8.5 -13
c-2 -4 -4.33301 -8 -7 -12h-14l58 100h5h6z" />
    <glyph glyph-name="otilde" unicode="&#xf5;" horiz-adv-x="321" 
d="M162 496c16 0 32.001 -2.66797 48.001 -8.00098s30.5 -13.666 43.5 -24.999s23.667 -26 32 -44s12.5 -39.333 12.5 -64v-227c0 -19.333 -4.33301 -37.333 -13 -54s-19.334 -31 -32.001 -43s-27.167 -21.667 -43.5 -29s-32.166 -11 -47.499 -11c-16.667 0 -33 3 -49 9
s-30.5 15 -43.5 27s-23.833 26.5 -32.5 43.5s-13 36.167 -13 57.5v225c0 25.333 4.16699 47 12.5 65s19.166 32.833 32.499 44.5s28 20.167 44 25.5s32.333 8 49 8zM227.001 332.999c0 25.333 -1.50098 46.832 -4.50098 64.499s-7.33301 31.834 -13 42.501
s-12.5 18.167 -20.5 22.5s-17.333 6.5 -28 6.5c-22 0 -38.667 -9.83301 -50 -29.5s-17 -55.167 -17 -106.5v-178c0 -51.333 5.66699 -87.666 17 -108.999s28 -32 50 -32c20.667 0 36.834 10.667 48.501 32s17.5 57.666 17.5 108.999v178zM67 561.998
c0 16.667 3.83301 30.999 11.5 42.999s20.834 18 39.501 18c9.33301 0 19.333 -2.33301 30 -7s21 -9.5 31 -14.5s19.333 -9.16699 28 -12.5s16 -3.66602 22 -0.999023c3.33301 2 6 4.5 8 7.5s3.33301 5.83301 4 8.5c0.666992 3.33301 1 7 1 11h12
c0 -17.333 -3.5 -32 -10.5 -44s-20.167 -18 -39.5 -18c-10 0 -20.167 2.5 -30.5 7.5l-30.5 15c-10 5 -19.333 9.16699 -28 12.5s-16 3.33301 -22 0c-4 -2 -6.83301 -4.33301 -8.5 -7s-2.83398 -5.66699 -3.50098 -9c-0.666992 -2.66699 -1 -6 -1 -10h-13z" />
    <glyph glyph-name="odieresis" unicode="&#xf6;" horiz-adv-x="318" 
d="M160 496c16 0 32.001 -2.66797 48.001 -8.00098s30.5 -13.666 43.5 -24.999s23.667 -26 32 -44s12.5 -39.333 12.5 -64v-227c0 -19.333 -4.33301 -37.333 -13 -54s-19.334 -31 -32.001 -43s-27.167 -21.667 -43.5 -29s-32.166 -11 -47.499 -11c-16.667 0 -33 3 -49 9
s-30.5 15 -43.5 27s-23.833 26.5 -32.5 43.5s-13 36.167 -13 57.5v225c0 25.333 4.16699 47 12.5 65s19.166 32.833 32.499 44.5s28 20.167 44 25.5s32.333 8 49 8zM226.001 332.999c0 25.333 -1.66699 46.832 -5 64.499s-7.83301 31.834 -13.5 42.501
s-12.5 18.167 -20.5 22.5s-17.333 6.5 -28 6.5c-22 0 -38.5 -9.83301 -49.5 -29.5s-16.5 -55.167 -16.5 -106.5v-178c0 -51.333 5.5 -87.666 16.5 -108.999s27.5 -32 49.5 -32c20.667 0 37 10.667 49 32s18 57.666 18 108.999v178zM208.001 563.998
c-8 0 -14.833 2.83301 -20.5 8.5s-8.5 12.834 -8.5 21.501c0 8 2.83301 14.833 8.5 20.5s12.5 8.5 20.5 8.5c8.66699 0 15.834 -2.83301 21.501 -8.5s8.5 -12.5 8.5 -20.5c0 -8.66699 -2.83301 -15.834 -8.5 -21.501s-12.834 -8.5 -21.501 -8.5zM111.001 563.998
c-8.66699 0 -15.834 2.83301 -21.501 8.5s-8.5 12.834 -8.5 21.501c0 8 2.83301 14.833 8.5 20.5s12.834 8.5 21.501 8.5s15.834 -2.83301 21.501 -8.5s8.5 -12.5 8.5 -20.5c0 -8.66699 -2.83301 -15.834 -8.5 -21.501s-12.834 -8.5 -21.501 -8.5z" />
    <glyph glyph-name="divide" unicode="&#xf7;" horiz-adv-x="383" 
d="M4 329h325v-31h-325v31zM206 432c0 -12 -3.83301 -21.833 -11.5 -29.5s-17.167 -11.5 -28.5 -11.5c-12 0 -22 3.83301 -30 11.5s-12 17.5 -12 29.5s4 21.833 12 29.5s18 11.5 30 11.5c11.333 0 20.833 -3.83301 28.5 -11.5s11.5 -17.5 11.5 -29.5zM206 206
c0 -12 -3.83301 -21.833 -11.5 -29.5s-17.167 -11.5 -28.5 -11.5c-12 0 -22 3.83301 -30 11.5s-12 17.5 -12 29.5c0 11.333 4 21 12 29s18 12 30 12c11.333 0 20.833 -4 28.5 -12s11.5 -17.667 11.5 -29z" />
    <glyph glyph-name="ugrave" unicode="&#xf9;" horiz-adv-x="358" 
d="M340 461l-1.00098 -0.000976562l-1 0.5c-0.666992 0.333008 -1.66699 0.5 -3 0.5c-4 0 -8.16699 -1.83301 -12.5 -5.5s-6.5 -11.834 -6.5 -24.501v-17.5v-43c0 -17.667 -0.166992 -37.834 -0.5 -60.501s-0.5 -45.834 -0.5 -69.501s-0.166992 -46.834 -0.5 -69.501
s-0.5 -42.834 -0.5 -60.501v-43.5v-18c0 -12.667 2.16699 -20.167 6.5 -22.5s8.5 -3.5 12.5 -3.5c2.66699 0 4.33398 0.333008 5.00098 1c0.666992 0 1 0.333008 1 1v-26h-95v37c-2 -4 -4.33301 -7.33301 -7 -10s-5.33398 -5.66699 -8.00098 -9
c-10 -9.33301 -22 -16.666 -36 -21.999c-0.666992 0 -1.16699 -0.166992 -1.5 -0.5s-0.833008 -0.5 -1.5 -0.5h-1c-7.33301 -2.66699 -16.666 -4 -27.999 -4h-3c-34.667 1.33301 -62.5 12.833 -83.5 34.5s-31.5 56.5 -31.5 104.5v145c0 20 0.166992 39.333 0.5 58
s0.5 35.334 0.5 50.001s0.166992 26.334 0.5 35.001s0.5 13.334 0.5 14.001c0 12.667 -2.16699 20.834 -6.5 24.501s-8.83301 5.5 -13.5 5.5c-1.33301 0 -2.33301 -0.166992 -3 -0.5s-1.33398 -0.5 -2.00098 -0.5h-2v25h121v-25h-2
c-0.666992 0 -1.33398 0.166992 -2.00098 0.5s-1.66699 0.5 -3 0.5c-3.33301 0 -7.16602 -1.5 -11.499 -4.5s-6.83301 -9.83301 -7.5 -20.5v-53c0 -21.333 -0.166992 -43.666 -0.5 -66.999s-0.5 -46.833 -0.5 -70.5v-65v-49.5v-23v-1c1.33301 -34 5.5 -58 12.5 -72
s18.833 -21.333 35.5 -22h3c20.667 0 38.5 8 53.5 24s24.167 43 27.5 81c0 32 0.166992 66.167 0.5 102.5s0.5 70.166 0.5 101.499s0.166992 57 0.5 77s0.5 30.667 0.5 32c0 12.667 -2.16699 20.834 -6.5 24.501s-8.5 5.5 -12.5 5.5
c-1.33301 0 -2.16602 -0.166992 -2.49902 -0.5s-0.833008 -0.5 -1.5 -0.5h-2v25h119v-25zM233.999 555.999l-6.00098 -6.99902l-81 59c-22 16.667 -33 29.667 -33 39c0 5.33301 2.66699 10.666 8 15.999s11 8 17 8c10.667 0 20.334 -6.33301 29.001 -19z" />
    <glyph glyph-name="uacute" unicode="&#xfa;" horiz-adv-x="359" 
d="M339 461l-0.99707 -0.00195312c-0.666992 0 -1.33398 0.166992 -2.00098 0.5s-1.66699 0.5 -3 0.5c-4 0 -8.16699 -1.83301 -12.5 -5.5s-6.5 -11.834 -6.5 -24.501v-17.5v-43c0 -17.667 -0.166992 -37.834 -0.5 -60.501s-0.5 -45.834 -0.5 -69.501
s-0.166992 -46.834 -0.5 -69.501s-0.5 -42.834 -0.5 -60.501v-43.5v-18c0 -12.667 2.16699 -20.167 6.5 -22.5s8.5 -3.5 12.5 -3.5c2.66699 0 4.33398 0.333008 5.00098 1c0.666992 0 1.33398 0.333008 2.00098 1v-26h-95v37c-2.66699 -4 -5.33398 -7.33301 -8.00098 -10
s-5.33398 -5.66699 -8.00098 -9c-10 -9.33301 -22 -16.666 -36 -21.999c-0.666992 0 -1.16699 -0.166992 -1.5 -0.5s-0.833008 -0.5 -1.5 -0.5h-1c-7.33301 -2.66699 -16.666 -4 -27.999 -4h-3c-34 1.33301 -61.667 12.833 -83 34.5s-32 56.5 -32 104.5v145
c0 20 0.166992 39.333 0.5 58s0.5 35.334 0.5 50.001s0.166992 26.334 0.5 35.001s0.5 13.334 0.5 14.001c0 12.667 -2.16699 20.834 -6.5 24.501s-8.83301 5.5 -13.5 5.5c-1.33301 0 -2.33301 -0.166992 -3 -0.5s-1.33398 -0.5 -2.00098 -0.5h-2v25h121v-25h-2
c-0.666992 0 -1.33398 0.166992 -2.00098 0.5s-1.66699 0.5 -3 0.5c-3.33301 0 -7.16602 -1.5 -11.499 -4.5s-6.83301 -9.83301 -7.5 -20.5v-53c0 -21.333 -0.166992 -43.666 -0.5 -66.999s-0.5 -46.833 -0.5 -70.5v-65v-49.5v-23v-1c1.33301 -34 5.5 -58 12.5 -72
s18.833 -21.333 35.5 -22h3c20.667 0 38.5 8 53.5 24s24.5 43 28.5 81v102.5v101.5c0 31.333 0.166992 57 0.5 77s0.5 30.667 0.5 32c0 12.667 -2.16699 20.834 -6.5 24.501s-8.5 5.5 -12.5 5.5c-0.666992 0 -1.33398 -0.166992 -2.00098 -0.5s-1.33398 -0.5 -2.00098 -0.5
h-2v25h120v-25zM196.003 651.998c9.33301 12.667 19.333 18.999 30 18.999c5.33301 0 11 -2.66699 17 -8c4.66699 -5.33301 7 -10.666 7 -15.999c0 -9.33301 -10.667 -22.333 -32 -39l-81 -59l-7 7z" />
    <glyph glyph-name="ucircumflex" unicode="&#xfb;" horiz-adv-x="359" 
d="M340 461l-0.99707 -0.00195312c-0.666992 0 -1.33398 0.166992 -2.00098 0.5s-1.66699 0.5 -3 0.5c-4 0 -8.16699 -1.83301 -12.5 -5.5s-6.5 -11.834 -6.5 -24.501v-17.5v-43c0 -17.667 -0.166992 -37.834 -0.5 -60.501s-0.5 -45.834 -0.5 -69.501
s-0.166992 -46.834 -0.5 -69.501s-0.5 -42.834 -0.5 -60.501v-43.5v-18c0 -12.667 2.16699 -20.167 6.5 -22.5s8.5 -3.5 12.5 -3.5c2.66699 0 4.33398 0.333008 5.00098 1c0.666992 0 1.33398 0.333008 2.00098 1v-26h-95v37c-2.66699 -4 -5.33398 -7.33301 -8.00098 -10
s-5.33398 -5.66699 -8.00098 -9c-10 -9.33301 -22 -16.666 -36 -21.999c-0.666992 0 -1.16699 -0.166992 -1.5 -0.5s-0.833008 -0.5 -1.5 -0.5h-1c-7.33301 -2.66699 -16.666 -4 -27.999 -4h-3c-34 1.33301 -61.667 12.833 -83 34.5s-32 56.5 -32 104.5v145
c0 20 0.166992 39.333 0.5 58s0.5 35.334 0.5 50.001s0.166992 26.334 0.5 35.001s0.5 13.334 0.5 14.001c0 12.667 -2.16699 20.834 -6.5 24.501s-8.83301 5.5 -13.5 5.5c-1.33301 0 -2.33301 -0.166992 -3 -0.5s-1.33398 -0.5 -2.00098 -0.5h-2v25h121v-25h-2
c-0.666992 0 -1.33398 0.166992 -2.00098 0.5s-1.66699 0.5 -3 0.5c-3.33301 0 -7.16602 -1.5 -11.499 -4.5s-6.83301 -9.83301 -7.5 -20.5v-53c0 -21.333 -0.166992 -43.666 -0.5 -66.999s-0.5 -46.833 -0.5 -70.5v-65v-49.5v-23v-1c1.33301 -34 5.5 -58 12.5 -72
s18.833 -21.333 35.5 -22h3c20.667 0 38.5 8 53.5 24s24.5 43 28.5 81v102.5v101.5c0 31.333 0.166992 57 0.5 77s0.5 30.667 0.5 32c0 12.667 -2.16699 20.834 -6.5 24.501s-8.5 5.5 -12.5 5.5c-0.666992 0 -1.33398 -0.166992 -2.00098 -0.5s-1.33398 -0.5 -2.00098 -0.5
h-2v25h120v-25zM247.003 555.998h-14l-8 12c-2 4 -4.66699 8.33301 -8 13l-11 15c-3.33301 4.66699 -7.16602 7.83398 -11.499 9.50098s-7.83301 2.5 -10.5 2.5c-3.33301 0 -6.83301 -0.833008 -10.5 -2.5s-7.83398 -4.83398 -12.501 -9.50098
c-4 -5.33301 -7.5 -10.333 -10.5 -15l-8.5 -13c-2 -4 -4.66699 -8 -8 -12h-13l57 100h6h5z" />
    <glyph glyph-name="udieresis" unicode="&#xfc;" horiz-adv-x="359" 
d="M340 461l-1.00098 -0.000976562l-1 0.5c-0.666992 0.333008 -1.66699 0.5 -3 0.5c-4 0 -8.16699 -1.83301 -12.5 -5.5s-6.5 -11.834 -6.5 -24.501v-17.5v-43c0 -17.667 -0.166992 -37.834 -0.5 -60.501s-0.5 -45.834 -0.5 -69.501s-0.166992 -46.834 -0.5 -69.501
s-0.5 -42.834 -0.5 -60.501v-43.5v-18c0 -12.667 2.16699 -20.167 6.5 -22.5s8.5 -3.5 12.5 -3.5c2.66699 0 4.33398 0.333008 5.00098 1c0.666992 0 1 0.333008 1 1v-26h-95v37c-2 -4 -4.33301 -7.33301 -7 -10s-5.33398 -5.66699 -8.00098 -9
c-10 -9.33301 -22 -16.666 -36 -21.999c-0.666992 0 -1.16699 -0.166992 -1.5 -0.5s-0.833008 -0.5 -1.5 -0.5h-1c-7.33301 -2.66699 -16.666 -4 -27.999 -4h-3c-34.667 1.33301 -62.5 12.833 -83.5 34.5s-31.5 56.5 -31.5 104.5v145c0 20 0.166992 39.333 0.5 58
s0.5 35.334 0.5 50.001s0.166992 26.334 0.5 35.001s0.5 13.334 0.5 14.001c0 12.667 -2.16699 20.834 -6.5 24.501s-8.83301 5.5 -13.5 5.5c-1.33301 0 -2.33301 -0.166992 -3 -0.5s-1.33398 -0.5 -2.00098 -0.5h-2v25h121v-25h-2
c-0.666992 0 -1.33398 0.166992 -2.00098 0.5s-1.66699 0.5 -3 0.5c-3.33301 0 -7.16602 -1.5 -11.499 -4.5s-6.83301 -9.83301 -7.5 -20.5v-53c0 -21.333 -0.166992 -43.666 -0.5 -66.999s-0.5 -46.833 -0.5 -70.5v-65v-49.5v-23v-1c1.33301 -34 5.5 -58 12.5 -72
s18.833 -21.333 35.5 -22h3c20.667 0 38.5 8 53.5 24s24.167 43 27.5 81c0 32 0.166992 66.167 0.5 102.5s0.5 70.166 0.5 101.499s0.166992 57 0.5 77s0.5 30.667 0.5 32c0 12.667 -2.16699 20.834 -6.5 24.501s-8.5 5.5 -12.5 5.5
c-1.33301 0 -2.16602 -0.166992 -2.49902 -0.5s-0.833008 -0.5 -1.5 -0.5h-2v25h119v-25zM229.999 563.999c-8.66699 0 -15.834 2.83301 -21.501 8.5s-8.5 12.834 -8.5 21.501c0 8 2.83301 14.833 8.5 20.5s12.834 8.5 21.501 8.5s15.834 -2.83301 21.501 -8.5
s8.5 -12.5 8.5 -20.5c0 -8.66699 -2.83301 -15.834 -8.5 -21.501s-12.834 -8.5 -21.501 -8.5zM131.999 563.999c-8 0 -14.833 2.83301 -20.5 8.5s-8.5 12.834 -8.5 21.501c0 8 2.83301 14.833 8.5 20.5s12.5 8.5 20.5 8.5c8.66699 0 15.834 -2.83301 21.501 -8.5
s8.5 -12.5 8.5 -20.5c0 -8.66699 -2.83301 -15.834 -8.5 -21.501s-12.834 -8.5 -21.501 -8.5z" />
    <glyph glyph-name="yacute" unicode="&#xfd;" horiz-adv-x="415" 
d="M410 488l-0.00390625 -25.999c-5.33301 2 -10.666 1.66699 -15.999 -1c-3.33301 -2 -7.5 -6.33301 -12.5 -13s-10.167 -18 -15.5 -34c-0.666992 -1.33301 -3 -9.33301 -7 -24l-15.5 -58l-22.5 -81.5l-26.5 -93.5l-26.5 -94.5l-24 -85l-19 -64.5
c-5.33301 -17.333 -9.33301 -28 -12 -32c-8 -18.667 -19.667 -34.834 -35 -48.501s-33.333 -21.167 -54 -22.5c-5.33301 0 -10.666 0.333008 -15.999 1s-11.333 2 -18 4c-9.33301 2.66699 -18.333 7.5 -27 14.5s-16 15.667 -22 26s-10 21.666 -12 33.999s-1 25.5 3 39.5v1v1
c0 1.33301 0.333008 2.33301 1 3c2.66699 12 9.16699 21 19.5 27s21.5 7.33301 33.5 4s21 -10.166 27 -20.499s7.66699 -21.5 5 -33.5c-3.33301 -11.333 -9.66602 -20 -18.999 -26s-19.666 -8 -30.999 -6c0 -22 9.33301 -35.667 28 -41c10 -3.33301 18.833 -1.5 26.5 5.5
s14.834 16.5 21.501 28.5c1.33301 2 5.33301 15.333 12 40s15 54 25 88l-20 72.5l-25 89.5l-25.5 92l-23 83c-7 24.667 -12.667 45.334 -17 62.001s-6.83301 25.667 -7.5 27c-5.33301 13.333 -10.666 23.166 -15.999 29.499s-10.333 9.83301 -15 10.5
c-6 2 -12 1.66699 -18 -1v23h101v-23c-6 0.666992 -10.333 0 -13 -2c-3.33301 -2 -5.33301 -6 -6 -12s1.66602 -15.333 6.99902 -28l5 -19.5l13 -50.5l18 -70l21 -79l21 -77.5l17 -64.5l33 117.5l30.5 112.5l22.5 85c6 22.667 9.33301 35 10 37
c3.33301 16 4.16602 27.333 2.49902 34s-4.5 11 -8.5 13c-4 2.66699 -9.33301 3 -16 1v26h138zM203.996 652.001c9.33301 12.667 19.333 18.999 30 18.999c5.33301 0 11 -2.66699 17 -8c5.33301 -5.33301 8 -10.666 8 -15.999c0 -9.33301 -11 -22.333 -33 -39l-81 -59l-6 7z
" />
    <glyph glyph-name="ydieresis" unicode="&#xff;" horiz-adv-x="412" 
d="M407 488l-0.00488281 -25.999c-5.33301 2 -10.333 1.66699 -15 -1c-4 -2 -8.5 -6.33301 -13.5 -13s-10.167 -18 -15.5 -34c-0.666992 -1.33301 -3 -9.33301 -7 -24l-15.5 -58l-22.5 -81.5l-26.5 -93.5l-26.5 -94.5l-24 -85l-19 -64.5
c-5.33301 -17.333 -9.33301 -28 -12 -32c-8 -18.667 -19.667 -34.834 -35 -48.501s-33.333 -21.167 -54 -22.5c-5.33301 0 -10.666 0.333008 -15.999 1s-11 2 -17 4c-10 2.66699 -19.167 7.5 -27.5 14.5s-15.5 15.667 -21.5 26s-10.167 21.666 -12.5 33.999
s-1.5 25.5 2.5 39.5c0 0.666992 0.166992 1 0.5 1s0.5 0.333008 0.5 1v3c2.66699 12 9.33398 21 20.001 27s22 7.33301 34 4s21 -10.166 27 -20.499s7.33301 -21.5 4 -33.5c-3.33301 -11.333 -9.66602 -20 -18.999 -26s-19.666 -8 -30.999 -6
c0.666992 -22 10 -35.667 28 -41c10 -3.33301 18.833 -1.5 26.5 5.5s14.834 16.5 21.501 28.5c1.33301 2 5.33301 15.333 12 40s15 54 25 88l-20 72.5l-25 89.5l-25.5 92l-23 83c-7 24.667 -12.667 45.334 -17 62.001s-6.83301 25.667 -7.5 27
c-5.33301 13.333 -10.666 23.166 -15.999 29.499s-10 9.83301 -14 10.5c-6.66699 2 -12.667 1.66699 -18 -1v23h100v-23c-6 0.666992 -10.333 0 -13 -2c-3.33301 -2 -5.33301 -6 -6 -12s1.66602 -15.333 6.99902 -28l5 -19.5l13 -50.5l18 -70l21 -79l21 -77.5l17 -64.5
l33 117.5l30.5 112.5l22.5 85c6 22.667 9.33301 35 10 37c4 16 5 27.333 3 34s-5 11 -9 13c-4 2.66699 -9.33301 3 -16 1v26h138zM258.995 564.001c-8.66699 0 -16 2.83301 -22 8.5s-9 12.834 -9 21.501c0 8 3 14.833 9 20.5s13.333 8.5 22 8.5
c8 0 14.833 -2.83301 20.5 -8.5s8.5 -12.5 8.5 -20.5c0 -8.66699 -2.83301 -15.834 -8.5 -21.501s-12.5 -8.5 -20.5 -8.5zM160.995 564.001c-8.66699 0 -15.834 2.83301 -21.501 8.5s-8.5 12.834 -8.5 21.501c0 8 2.83301 14.833 8.5 20.5s12.834 8.5 21.501 8.5
s15.834 -2.83301 21.501 -8.5s8.5 -12.5 8.5 -20.5c0 -8.66699 -2.83301 -15.834 -8.5 -21.501s-12.834 -8.5 -21.501 -8.5z" />
    <glyph glyph-name="OE" unicode="&#x152;" horiz-adv-x="448" 
d="M391 611c-0.666992 15.333 -3 29.001 -7 41.001c-2 10 -6.83301 19.333 -14.5 28s-18.5 13 -32.5 13h-75v-321h43c8 0 14.167 2.66699 18.5 8s7.5 11 9.5 17c2.66699 7.33301 4 16 4 26h24v-124h-24c0 9.33301 -1.33301 17.666 -4 24.999c-2 6 -5.16699 11.833 -9.5 17.5
s-10.5 8.5 -18.5 8.5h-43v-326h75c14 0 24.833 4 32.5 12s12.5 17.333 14.5 28c4 12 6.33301 25.667 7 41h26v-105h-250c-15.333 0 -31 3 -47 9s-30.5 14.667 -43.5 26s-23.5 25.333 -31.5 42s-12 35.667 -12 57v441c0 24.667 4 45.834 12 63.501s18.333 32.167 31 43.5
s27 19.666 43 24.999s31.667 8 47 8l1 1h250v-105h-26zM193 662.001c0 11.333 -3.16699 19.502 -9.5 24.502s-14 7 -23 6s-18.333 -5.5 -28 -13.5s-17.5 -18.667 -23.5 -32c-6.66699 -11.333 -9.66699 -24.333 -9 -39s1 -32.334 1 -53.001v-394v-40
c0 -12.667 1.66699 -24 5 -34c6 -18.667 13.833 -33.334 23.5 -44.001s19.167 -17.5 28.5 -20.5s17.5 -2.83301 24.5 0.5s10.5 9.33301 10.5 18v621z" />
    <glyph glyph-name="oe" unicode="&#x153;" horiz-adv-x="532" 
d="M368 494c16 0 31.833 -2.66699 47.5 -8s29.834 -13.5 42.501 -24.5s23.167 -25.333 31.5 -43s12.5 -38.834 12.5 -63.501v-101v-4v-24h-200v-91c0 -41.333 6.83301 -70.833 20.5 -88.5s31.834 -26.167 54.501 -25.5c12.667 0 25.167 1.66699 37.5 5
s23.166 9.66602 32.499 18.999s17 22 23 38s9 37 9 63h23v-13c0 -19.333 -2.16699 -37 -6.5 -53s-11.5 -30 -21.5 -42s-22.833 -21.5 -38.5 -28.5s-35.167 -10.833 -58.5 -11.5c-20 -0.666992 -39.833 3.5 -59.5 12.5s-36.834 21.5 -51.501 37.5
c-12.667 -14.667 -28.334 -26.667 -47.001 -36s-37 -14 -55 -14c-15.333 0 -31 3 -47 9s-30.333 14.5 -43 25.5s-23 24.833 -31 41.5s-12 35.667 -12 57v216c0 24.667 4 45.834 12 63.501s18.333 32 31 43s27 19.167 43 24.5s31.667 8 47 8c17.333 0 35 -3.16699 53 -9.5
s33.667 -16.5 47 -30.5c13.333 16.667 29.333 28.834 48 36.501s37.334 11.5 56.001 11.5zM230 327c0 25.333 -1.5 46.5 -4.5 63.5s-7.33301 30.667 -13 41s-12.5 17.666 -20.5 21.999s-17.667 6.5 -29 6.5c-10 0 -19 -2.16699 -27 -6.5s-14.667 -11.666 -20 -21.999
s-9.5 -24 -12.5 -41s-4.5 -38.167 -4.5 -63.5v-169c0 -51.333 5.5 -87.166 16.5 -107.499s26.833 -30.5 47.5 -30.5c21.333 0 37.833 10.167 49.5 30.5s17.5 56.166 17.5 107.499v169zM434 333c0 25.333 -1.66895 46.833 -5.00195 64.5s-7.83301 31.667 -13.5 42
s-12.667 17.5 -21 21.5s-17.5 6 -27.5 6c-10.667 0 -20.167 -2 -28.5 -6s-15.166 -11.167 -20.499 -21.5s-9.16602 -24.333 -11.499 -42s-3.5 -39.167 -3.5 -64.5v-79h131v79z" />
    <glyph glyph-name="Scaron" unicode="&#x160;" horiz-adv-x="278" 
d="M149 419c40 -57.333 69 -110.5 87 -159.5s22.667 -97.167 14 -144.5c-2.66699 -16 -6.66699 -31.167 -12 -45.5s-12.5 -26.833 -21.5 -37.5s-20.167 -19.667 -33.5 -27s-28.666 -11.333 -45.999 -12c-12 -0.666992 -22.833 1.83301 -32.5 7.5l-25.5 15
c-7.33301 4.33301 -13.333 6.16602 -18 5.49902s-7.33398 -7.66699 -8.00098 -21h-23v178h24c-2 -28.667 -1 -55 3 -79c2 -10 4.83301 -19.833 8.5 -29.5s8.5 -18.5 14.5 -26.5s13.333 -14.667 22 -20s19.334 -8.33301 32.001 -9c9.33301 -0.666992 19.166 2 29.499 8
s18.5 13.667 24.5 23c15.333 22.667 21.833 46.834 19.5 72.501s-9.16602 51.167 -20.499 76.5s-24.5 49 -39.5 71l-38.5 57c-39.333 56.667 -64.333 110.667 -75 162s-11.334 98.333 -2.00098 141c6 31.333 17.5 56 34.5 74s42.167 27 75.5 27
c11.333 0 21.666 -3.16699 30.999 -9.5l23.5 -16.5c6.33301 -4.66699 11.333 -6.66699 15 -6s5.83398 8 6.50098 22h26v-175h-26c1.33301 29.333 -0.333984 55.666 -5.00098 78.999c-2 10 -4.83301 19.667 -8.5 29s-8.16699 18 -13.5 26s-11.833 14.167 -19.5 18.5
s-17.167 6.5 -28.5 6.5s-22.333 -2.66699 -33 -8s-18.667 -12.333 -24 -21c-14.667 -22 -21.5 -44.667 -20.5 -68s5.83301 -46.166 14.5 -68.499s19.834 -43.333 33.501 -63zM149 758l-5 0.000976562h-5l-58 100h13c3.33301 -4 6.33301 -8.33301 9 -13l7.5 -12
c3 -4.66699 6.83301 -9.33398 11.5 -14.001c4 -5.33301 8 -8.83301 12 -10.5s7.33301 -2.5 10 -2.5c3.33301 0 7 0.833008 11 2.5s8 5.16699 12 10.5l10 14c3.33301 4.66699 6.33301 8.66699 9 12c2 4.66699 4.66699 9 8 13h13z" />
    <glyph glyph-name="scaron" unicode="&#x161;" horiz-adv-x="284" 
d="M198 6l-0.991211 -1.00098l-1 -1l-1 -1c-2 -0.666992 -3.66699 -1.33398 -5 -2.00098l-4 -2c-14.667 -6 -31.334 -9 -50.001 -9c-10 0 -20 2.5 -30 7.5s-18.667 9.16699 -26 12.5s-13.5 4.83301 -18.5 4.5s-7.5 -5.16602 -7.5 -14.499h-19v120h23
c-1.33301 -21.333 1 -39.666 7 -54.999c4.66699 -13.333 12.834 -25.833 24.501 -37.5s29.167 -17.5 52.5 -17.5c14.667 0 27 2.66699 37 8c18 8.66699 30.167 19 36.5 31s8.66602 24.5 6.99902 37.5s-6.5 25.833 -14.5 38.5s-18 24.334 -30 35.001l-25 19l-27 21
c-22.667 18.667 -40.834 35.5 -54.501 50.5s-24.334 29 -32.001 42s-12.834 25.333 -15.501 37s-4 24.167 -4 37.5c0 8 0.5 15.333 1.5 22s2.16699 12.667 3.5 18c2 11.333 5.33301 22.333 10 33s11.5 20.167 20.5 28.5s19.833 15.166 32.5 20.499s27.667 8 45 8
c10.667 0 21 -2.16699 31 -6.5s18.833 -8.33301 26.5 -12s13.834 -5.33398 18.501 -5.00098s7 5.5 7 15.5h19v-124h-26c1.33301 20 -0.666992 38 -6 54c-4.66699 14 -12.834 26.667 -24.501 38s-29.167 17 -52.5 17c-18 0 -32.667 -4 -44 -12
c-5.33301 -4.66699 -10.333 -11.5 -15 -20.5s-7.33398 -18.833 -8.00098 -29.5s1.16602 -22.167 5.49902 -34.5s12.5 -23.833 24.5 -34.5c1.33301 -2 3 -4 5 -6s4.33301 -3.66699 7 -5s4.66699 -2.66602 6 -3.99902l4 -4l22 -18c7.33301 -6 15.333 -12 24 -18
c18.667 -16 34.167 -30.5 46.5 -43.5s22.5 -25.167 30.5 -36.5s14 -22 18 -32s6.66699 -19.667 8 -29c6 -30.667 4.66699 -56.5 -4 -77.5s-20.334 -37.5 -35.001 -49.5h-1c0 -1.33301 -0.666992 -2 -2 -2l-3 -3l-6 -4c-2 -1.33301 -4 -2.33301 -6 -3
c-0.666992 0 -1 -0.333008 -1 -1c-0.666992 0 -1.33398 -0.166992 -2.00098 -0.5s-1.33398 -0.5 -2.00098 -0.5zM147.009 533.999h-5.00293h-6l-58 101h14c2.66699 -4.66699 5.33398 -9 8.00098 -13c2.66699 -3.33301 5.33398 -7.5 8.00098 -12.5
s6.33398 -9.83301 11.001 -14.5c4 -5.33301 8 -8.83301 12 -10.5s7.66699 -2.5 11 -2.5c2.66699 0 6.16699 0.833008 10.5 2.5s8.16602 5.16699 11.499 10.5l10 14.5c3.33301 5 6.33301 9.16699 9 12.5c2.66699 4 5.33398 8.33301 8.00098 13h14z" />
    </font>
</defs>
</svg>
