<?xml version="1.0" standalone="no"?> <!DOCTYPE svg PUBLIC "-//W3C//DTD SVG 1.0//EN" "http://www.w3.org/TR/2001/REC-SVG-20010904/DTD/svg10.dtd" > <svg xmlns="http://www.w3.org/2000/svg" width="100%" height="100%">
<defs >
<font id="robotocondensedbold" horiz-adv-x="1014" ><font-face
    font-family="Roboto Condensed"
    units-per-em="2048"
    panose-1="2 0 0 0 0 0 0 0 0 0"
    ascent="2146"
    descent="-555"
    alphabetic="0" />
<missing-glyph horiz-adv-x="449" />
<glyph unicode=" " glyph-name="space" horiz-adv-x="449" />
<glyph unicode="!" glyph-name="exclam" horiz-adv-x="506" d="M397 506H112V1456H397V506ZM395 0H115V258H395V0Z" />
<glyph unicode="&quot;" glyph-name="quotedbl" horiz-adv-x="602" d="M249 1297L175 1046H51V1560H249V1297ZM548 1297L474 1046H351L352 1293V1560H548V1297Z" />
<glyph unicode="#" glyph-name="numbersign" horiz-adv-x="1034" d="M538 410H402L343 0H170L229 410H44V576H253L296 874H107V1040H320L381 1456H553L493 1040H629L689 1456H862L802 1040H988V874H778L735 576H924V410H711L652 0H479L538 410ZM426 576H562L605
874H469L426 576Z" />
<glyph unicode="$" glyph-name="dollar" horiz-adv-x="1019" d="M651 381Q651 465 618 514T503 610Q309 696 218 793T126 1072Q126 1238 219 1346T470 1473V1685H614V1470Q763 1442 850 1322T938 1008H654Q654 1125 619 1188T527 1251Q468 1251 439 1201T410 1071Q410
995 442 946T560 849Q752 758 843 660T935 383Q935 212 843 108T595 -16V-215H450V-16Q289 4 184 119T79 456H363Q363 321 407 263T522 204Q585 204 618 253T651 381Z" />
<glyph unicode="%" glyph-name="percent" horiz-adv-x="1356" d="M90 1176Q90 1305 164 1391T374 1477Q511 1477 585 1392T659 1176V1099Q659 969 585 885T376 800Q240 800 165 885T90 1099V1176ZM276 1099Q276 1042 302 1003T376 963Q422 963 447 1002T473 1099V1176Q473
1234 447 1274T374 1314Q327 1314 302 1274T276 1176V1099ZM700 357Q700 485 775 571T985 657Q1122 657 1196 572T1270 357V280Q1270 150 1196 65T987 -20Q851 -20 776 65T700 280V357ZM887 280Q887 224 915 183T987 143Q1042 142 1063 179T1084 280V357Q1084 414
1058 454T985 494Q937 494 912 454T887 357V280ZM417 110L283 184L884 1322L1018 1248L417 110Z" />
<glyph unicode="&amp;" glyph-name="ampersand" horiz-adv-x="1221" d="M59 388Q59 506 116 591T292 770Q230 864 200 940T170 1097Q170 1268 268 1372T531 1477Q673 1477 763 1379T854 1140Q854 1043 811 963T693 823L612 758L842 454L848 455Q875 507 890 572T906
711H1114Q1114 573 1085 459T992 255L1186 0H864L800 84Q725 31 648 5T481 -21Q288 -21 174 92T59 388ZM498 206Q542 206 586 218T671 255L412 599L405 593Q370 545 358 500T345 406Q345 319 388 263T498 206ZM423 1100Q423 1059 440 1016T493 922L552 966Q602
1002 619 1039T636 1122Q636 1172 607 1210T530 1249Q478 1249 451 1207T423 1100Z" />
<glyph unicode="&apos;" glyph-name="quotesingle" horiz-adv-x="302" d="M242 1288L176 1007H53L52 1275V1560H242V1288Z" />
<glyph unicode="(" glyph-name="parenleft" horiz-adv-x="633" d="M109 591Q109 975 240 1249T537 1606H543L593 1463Q488 1365 416 1146T343 593V565Q343 232 415 13T593 -306L543 -447H537Q371 -365 240 -92T109 567V591Z" />
<glyph unicode=")" glyph-name="parenright" horiz-adv-x="632" d="M539 567Q539 192 402 -87T96 -447H90L38 -306Q142 -208 215 12T288 565V593Q288 925 215 1146T38 1465L90 1606H96Q265 1526 402 1245T539 591V567Z" />
<glyph unicode="*" glyph-name="asterisk" horiz-adv-x="825" d="M295 966L31 1058L84 1231L344 1104L325 1456H503L484 1098L737 1223L790 1048L522 955L698 686L554 579L405 873L255 588L112 691L295 966Z" />
<glyph unicode="+" glyph-name="plus" horiz-adv-x="995" d="M630 810H936V556H630V146H361V556H54V810H361V1206H630V810Z" />
<glyph unicode="," glyph-name="comma" horiz-adv-x="459" d="M358 2L213 -309H47L106 10V241H358V2Z" />
<glyph unicode="-" glyph-name="hyphen" horiz-adv-x="748" d="M617 511H120V739H617V511Z" />
<glyph unicode="." glyph-name="period" horiz-adv-x="543" d="M405 0H124V258H405V0Z" />
<glyph unicode="/" glyph-name="slash" horiz-adv-x="646" d="M192 -125H-12L420 1456H626L192 -125Z" />
<glyph unicode="0" glyph-name="zero" d="M933 571Q933 280 818 130T508 -21Q312 -21 196 129T80 571V884Q80 1174 195 1325T506 1477Q701 1477 817 1326T933 884V571ZM649 909Q649 1085 612 1166T509 1242H503Q436 1247 400 1166T364 909V548Q364 370 401 289T505
213H511Q577 207 613 288T649 548V909Z" />
<glyph unicode="1" glyph-name="one" horiz-adv-x="1019" d="M682 0H398V1159L128 1153V1358L682 1457V0Z" />
<glyph unicode="2" glyph-name="two" horiz-adv-x="1019" d="M943 0H83V193L480 696Q559 808 593 891T628 1042Q628 1135 592 1192T488 1249Q418 1249 381 1180T343 999H66L64 1004Q60 1202 176 1339T488 1477Q688 1477 800 1361T912 1045Q912 911 850 797T641
499L451 227H943V0Z" />
<glyph unicode="3" glyph-name="three" horiz-adv-x="1019" d="M340 853H482Q558 853 595 907T632 1058Q632 1143 595 1196T489 1249Q433 1249 393 1202T352 1079H77L75 1085Q70 1258 188 1367T481 1477Q679 1477 797 1369T915 1062Q915 963 864 879T724 747Q826
705 880 617T934 406Q934 207 807 93T480 -21Q305 -21 179 86T58 394L60 400H336Q336 316 380 261T489 206Q563 206 606 261T650 410Q650 526 608 579T482 633H340V853Z" />
<glyph unicode="4" glyph-name="four" horiz-adv-x="1019" d="M834 546H960V318H834V0H551V318H68L53 496L550 1456H834V546ZM311 546H551V1049L545 1050L530 1023L311 546Z" />
<glyph unicode="5" glyph-name="five" horiz-adv-x="1019" d="M110 644L182 1456H894V1223H414L383 880Q414 911 460 931T558 954Q740 957 837 829T935 467Q935 259 825 119T509 -21Q335 -21 209 90T86 393L88 398L364 413Q364 315 404 261T509 206Q584 206 618
277T652 465Q652 594 614 669T498 744Q439 744 407 712T363 627L110 644Z" />
<glyph unicode="6" glyph-name="six" horiz-adv-x="1019" d="M594 1477Q665 1477 723 1462T843 1415L795 1200Q742 1223 698 1234T595 1246Q491 1246 429 1152T369 884L373 880Q412 925 473 951T609 977Q774 977 866 838T959 482Q959 264 840 122T533 -21Q331
-21 206 135T80 563V863Q80 1146 224 1311T594 1477ZM532 753Q473 753 431 733T364 675V560Q364 389 409 297T533 205Q597 205 636 286T675 482Q675 603 635 678T532 753Z" />
<glyph unicode="7" glyph-name="seven" horiz-adv-x="1019" d="M941 1228Q744 975 680 742T586 140L573 0H288L302 140Q329 467 418 738T669 1228H55V1456H941V1228Z" />
<glyph unicode="8" glyph-name="eight" horiz-adv-x="1019" d="M910 1070Q910 960 861 876T725 745Q823 695 879 605T935 398Q935 195 818 87T510 -21Q319 -21 201 87T83 398Q83 515 139 605T294 745Q207 792 158 876T109 1070Q109 1263 219 1370T509 1477Q689
1477 799 1370T910 1070ZM651 419Q651 517 612 574T509 632Q444 632 406 575T368 419Q368 319 406 263T510 206Q574 206 612 262T651 419ZM624 1056Q624 1145 595 1197T509 1249Q453 1249 424 1198T395 1056Q395 964 424 912T510 859Q566 859 595 911T624 1056Z"
/>
<glyph unicode="9" glyph-name="nine" horiz-adv-x="1019" d="M449 206Q535 206 591 288T648 518V574Q608 516 555 486T441 456Q270 456 173 590T75 957Q75 1176 195 1326T500 1477Q691 1477 811 1323T931 892V536Q931 280 795 130T449 -21Q387 -21 318 -5T190
41L222 253Q277 229 330 218T449 206ZM495 670Q545 670 583 694T648 761V927Q648 1085 608 1166T503 1243H497Q436 1247 397 1161T358 957Q358 826 393 748T495 670Z" />
<glyph unicode=":" glyph-name="colon" horiz-adv-x="540" d="M408 0H127V258H408V0ZM408 823H127V1081H408V823Z" />
<glyph unicode=";" glyph-name="semicolon" horiz-adv-x="516" d="M399 823H118V1081H399V823ZM400 2L255 -309H89L148 10V241H400V2Z" />
<glyph unicode="&lt;" glyph-name="less" horiz-adv-x="898" d="M305 545V539L787 336V65L48 430V660L787 1024V754L305 545Z" />
<glyph unicode="=" glyph-name="equal" horiz-adv-x="1023" d="M892 756H120V984H892V756ZM892 323H120V552H892V323Z" />
<glyph unicode="&gt;" glyph-name="greater" horiz-adv-x="909" d="M593 543V549L106 755V1024L851 660V430L106 65V334L593 543Z" />
<glyph unicode="?" glyph-name="question" horiz-adv-x="898" d="M270 413Q271 549 309 615T457 774Q513 829 546 895T579 1048Q579 1140 542 1194T435 1248Q382 1248 343 1202T303 1069H27L25 1075Q22 1272 136 1374T435 1477Q635 1477 749 1362T864 1049Q864
924 800 818T640 639Q589 593 572 545T554 413H270ZM552 0H271V247H552V0Z" />
<glyph unicode="@" glyph-name="at" horiz-adv-x="1615" d="M1536 516Q1528 297 1421 138T1099 -21Q1027 -21 976 23T903 150Q865 65 810 24T680 -18Q552 -18 484 101T433 416Q455 668 560 820T816 972Q922 972 987 946T1129 866L1126 862H1131L1085 293Q1080
196 1095 161T1136 133L1142 132Q1238 127 1296 237T1363 516Q1376 866 1244 1062T836 1259Q570 1259 414 1049T246 478Q230 126 372 -79T779 -285Q854 -285 934 -266T1072 -216L1107 -364Q1047 -406 956 -429T776 -453Q423 -453 232 -204T56 478Q71 906 282 1160T840
1414Q1182 1414 1366 1173T1536 516ZM649 416Q641 289 664 222T740 155Q786 155 823 183T890 287V293L929 789Q910 794 892 797T854 801Q759 801 712 706T649 416Z" />
<glyph unicode="A" glyph-name="A" horiz-adv-x="1134" d="M765 309H381L303 0H16L426 1456H722L1131 0H844L765 309ZM439 538H707L576 1053H570L439 538Z" />
<glyph unicode="B" glyph-name="B" horiz-adv-x="1136" d="M110 0V1456H539Q764 1456 890 1356T1017 1058Q1017 954 971 874T833 753Q948 726 1003 636T1058 425Q1058 216 939 108T596 0H110ZM395 642V227H596Q686 227 730 277T775 426Q775 530 737 586T615 642H395ZM395
841H552Q639 843 685 891T732 1031Q732 1133 684 1180T539 1228H395V841Z" />
<glyph unicode="C" glyph-name="C" horiz-adv-x="1088" d="M1023 469L1026 463Q1028 223 912 101T570 -21Q344 -21 209 117T74 510V945Q74 1198 204 1337T554 1477Q786 1477 904 1353T1027 986L1024 980H750Q756 1123 711 1186T554 1249Q458 1249 407 1174T356
947V510Q356 356 410 281T570 206Q673 206 713 265T749 469H1023Z" />
<glyph unicode="D" glyph-name="D" horiz-adv-x="1151" d="M110 0V1456H550Q774 1456 920 1287T1066 850V605Q1066 338 920 169T550 0H110ZM395 1228V227H534Q653 227 717 330T782 605V852Q782 1022 718 1125T534 1228H395Z" />
<glyph unicode="E" glyph-name="E" horiz-adv-x="1008" d="M884 639H395V227H970V0H110V1456H968V1228H395V866H884V639Z" />
<glyph unicode="F" glyph-name="F" horiz-adv-x="1016" d="M889 605H395V0H110V1456H976V1228H395V832H889V605Z" />
<glyph unicode="G" glyph-name="G" horiz-adv-x="1179" d="M1074 216Q1015 122 897 51T598 -21Q364 -21 223 116T81 506V950Q81 1201 217 1339T579 1477Q821 1477 942 1359T1068 1019L1066 1013H799Q796 1136 745 1192T587 1249Q483 1249 424 1176T365 952V506Q365
353 424 280T598 206Q683 206 723 229T790 297V558H598V758H1074V216Z" />
<glyph unicode="H" glyph-name="H" horiz-adv-x="1241" d="M1131 0H847V603H395V0H110V1456H395V830H847V1456H1131V0Z" />
<glyph unicode="I" glyph-name="I" horiz-adv-x="534" d="M408 0H125V1456H408V0Z" />
<glyph unicode="J" glyph-name="J" horiz-adv-x="1015" d="M623 1456H906V444Q906 230 786 105T482 -21Q284 -21 169 91T57 421L60 427H337Q337 312 377 259T482 206Q540 206 581 269T623 444V1456Z" />
<glyph unicode="K" glyph-name="K" horiz-adv-x="1137" d="M519 605H395V0H110V1456H395V864H487L771 1456H1120L723 791L1153 0H807L519 605Z" />
<glyph unicode="L" glyph-name="L" horiz-adv-x="959" d="M395 227H927V0H110V1456H395V227Z" />
<glyph unicode="M" glyph-name="M" horiz-adv-x="1481" d="M474 1456L735 387H741L1005 1456H1376V0H1093V423L1117 989L1111 990L833 0H644L369 982L363 981L388 423V0H105V1456H474Z" />
<glyph unicode="N" glyph-name="N" horiz-adv-x="1241" d="M1129 0H846L401 931L395 929V0H110V1456H395L840 526L846 528V1456H1129V0Z" />
<glyph unicode="O" glyph-name="O" horiz-adv-x="1166" d="M1091 523Q1091 267 952 123T582 -21Q351 -21 213 123T75 523V931Q75 1186 213 1331T581 1477Q811 1477 951 1332T1091 931V523ZM808 933Q808 1089 750 1168T581 1248Q469 1248 413 1169T357 933V523Q357
365 414 286T582 207Q692 207 750 286T808 523V933Z" />
<glyph unicode="P" glyph-name="P" horiz-adv-x="1158" d="M395 522V0H110V1456H616Q834 1456 960 1327T1086 989Q1086 779 960 651T616 522H395ZM395 750H616Q707 750 755 817T803 987Q803 1091 756 1159T616 1228H395V750Z" />
<glyph unicode="Q" glyph-name="Q" horiz-adv-x="1241" d="M1097 523Q1097 410 1068 317T986 156L1202 -81L1026 -231L802 18Q753 -1 700 -11T588 -21Q357 -21 219 123T81 523V931Q81 1186 219 1331T587 1477Q817 1477 957 1332T1097 931V523ZM814 933Q814 1089
756 1168T587 1248Q475 1248 419 1169T363 933V523Q363 365 420 286T588 207Q698 207 756 286T814 523V933Z" />
<glyph unicode="R" glyph-name="R" horiz-adv-x="1162" d="M395 579V0H111V1455H586Q801 1455 923 1342T1046 1026Q1046 912 995 830T846 698Q958 660 1007 572T1057 352V249Q1057 189 1071 121T1120 21V0H826Q791 32 782 104T773 251V350Q773 459 729 519T601
579H395ZM395 806H585Q672 806 717 859T762 1010Q762 1110 717 1169T586 1228H395V806Z" />
<glyph unicode="S" glyph-name="S" horiz-adv-x="1109" d="M757 380Q757 465 713 514T558 612Q331 691 218 791T104 1073Q104 1252 236 1364T573 1477Q781 1477 911 1352T1037 1035L1035 1029H759Q759 1129 709 1191T568 1253Q483 1253 436 1202T388 1072Q388
1000 441 954T625 850Q832 780 936 673T1041 382Q1041 193 915 86T580 -21Q372 -21 220 100T72 449L74 455H351Q351 320 408 261T580 202Q670 202 713 250T757 380Z" />
<glyph unicode="T" glyph-name="T" horiz-adv-x="994" d="M967 1228H639V0H355V1228H29V1456H967V1228Z" />
<glyph unicode="U" glyph-name="U" horiz-adv-x="1176" d="M1082 1456V465Q1082 232 946 106T588 -21Q367 -21 231 106T94 465V1456H378V465Q378 332 433 269T588 206Q691 206 745 266T799 465V1456H1082Z" />
<glyph unicode="V" glyph-name="V" horiz-adv-x="1129" d="M549 372L560 316H566L577 369L820 1456H1119L712 0H416L9 1456H308L549 372Z" />
<glyph unicode="W" glyph-name="W" horiz-adv-x="1548" d="M1087 527H1093L1250 1456H1526L1245 0H980L775 892H769L566 0H302L21 1456H297L454 527H460L670 1456H874L1087 527Z" />
<glyph unicode="X" glyph-name="X" horiz-adv-x="1127" d="M558 947H564L762 1456H1091L738 734L1115 0H772L568 520H562L358 0H27L389 734L36 1456H363L558 947Z" />
<glyph unicode="Y" glyph-name="Y" horiz-adv-x="1124" d="M558 832H564L807 1456H1116L700 518V0H416V536L7 1456H318L558 832Z" />
<glyph unicode="Z" glyph-name="Z" horiz-adv-x="998" d="M386 227H945V0H66V143L612 1229H60V1456H936V1318L386 227Z" />
<glyph unicode="[" glyph-name="bracketleft" horiz-adv-x="530" d="M505 1478H393V-123H505V-339H106V1695H505V1478Z" />
<glyph unicode="\" glyph-name="backslash" horiz-adv-x="758" d="M0 1456H280L795 -125H513L0 1456Z" />
<glyph unicode="]" glyph-name="bracketright" horiz-adv-x="530" d="M21 1695H420V-339H21V-123H135V1478H21V1695Z" />
<glyph unicode="^" glyph-name="asciicircum" horiz-adv-x="785" d="M257 729H38L291 1456H497L750 729H531L397 1151L395 1159H389L388 1151L257 729Z" />
<glyph unicode="_" glyph-name="underscore" horiz-adv-x="793" d="M783 -220H8V0H783V-220Z" />
<glyph unicode="`" glyph-name="grave" horiz-adv-x="629" d="M549 1211H319L73 1471L76 1477H374L549 1211Z" />
<glyph unicode="a" glyph-name="a" horiz-adv-x="944" d="M619 0Q607 27 598 59T583 124Q543 58 486 19T352 -21Q218 -21 138 67T57 302Q57 461 159 549T464 637H571V725Q571 804 543 846T457 889Q409 889 385 855T361 756L86 757L83 763Q78 904 187 1003T476
1102Q645 1102 750 1004T856 723V285Q856 205 867 136T901 0H619ZM434 193Q477 193 513 216T571 275V474H464Q399 474 370 429T341 315Q341 261 366 227T434 193Z" />
<glyph unicode="b" glyph-name="b" horiz-adv-x="995" d="M940 458Q940 239 850 109T584 -21Q508 -21 452 14T355 116L338 0H92V1560H376V990Q414 1044 465 1073T582 1102Q758 1102 849 967T940 605V458ZM657 605Q657 732 626 803T509 874Q463 874 430 851T376
786V281Q396 244 429 226T510 207Q596 207 626 270T657 458V605Z" />
<glyph unicode="c" glyph-name="c" horiz-adv-x="910" d="M487 206Q545 206 574 249T604 373H862L865 367Q868 197 761 88T487 -21Q277 -21 165 116T52 470V609Q52 825 164 963T485 1102Q661 1102 764 989T865 684L863 679H604Q604 767 575 820T485 874Q400 874
368 802T336 609V470Q336 346 368 276T487 206Z" />
<glyph unicode="d" glyph-name="d" horiz-adv-x="995" d="M54 535Q54 790 148 946T413 1102Q476 1102 527 1072T618 986V1560H902V0H655L636 118Q594 50 539 15T412 -21Q241 -21 148 125T54 514V535ZM338 514Q338 369 371 288T485 207Q529 207 562 227T618 287V779Q595
824 562 849T487 874Q408 874 373 781T338 535V514Z" />
<glyph unicode="e" glyph-name="e" horiz-adv-x="938" d="M513 -21Q309 -21 189 113T69 451V603Q69 822 180 962T489 1102Q679 1102 783 975T887 629V455H352V451Q352 344 400 275T547 206Q627 206 677 224T796 284L868 103Q812 49 719 14T513 -21ZM489 874Q421
874 389 812T353 645H608V685Q608 775 580 824T489 874Z" />
<glyph unicode="f" glyph-name="f" horiz-adv-x="647" d="M156 0V876H23V1082H156V1202Q156 1384 250 1482T514 1581Q547 1581 580 1576T656 1560L632 1342Q612 1346 594 1349T550 1352Q496 1352 468 1313T440 1202V1082H614V876H440V0H156Z" />
<glyph unicode="g" glyph-name="g" horiz-adv-x="994" d="M54 591Q54 820 148 961T415 1102Q487 1102 542 1066T638 961L656 1082H903V21Q903 -192 780 -314T441 -437Q371 -437 292 -415T145 -354L195 -135Q252 -167 311 -183T439 -199Q529 -199 574 -143T619
22V84Q579 32 528 6T413 -21Q242 -21 148 110T54 458V591ZM338 458Q338 340 372 274T486 207Q530 207 563 225T619 278V790Q597 830 565 852T488 874Q408 874 373 797T338 591V458Z" />
<glyph unicode="h" glyph-name="h" horiz-adv-x="995" d="M368 953Q410 1024 469 1063T599 1102Q743 1102 825 988T907 634V0H622V636Q622 770 591 822T492 874Q452 874 421 857T368 808V0H84V1560H368V953Z" />
<glyph unicode="i" glyph-name="i" horiz-adv-x="495" d="M389 0H105V1082H389V0ZM389 1343H105V1560H389V1343Z" />
<glyph unicode="j" glyph-name="j" horiz-adv-x="487" d="M395 1082V-33Q395 -227 305 -332T55 -437Q20 -437 -9 -433T-73 -419L-61 -196Q-39 -202 -21 -205T19 -208Q63 -208 86 -164T110 -33V1082H395ZM389 1343H105V1560H389V1343Z" />
<glyph unicode="k" glyph-name="k" horiz-adv-x="963" d="M428 450H376V0H92V1560H376V674H423L606 1082H933L651 595L980 0H655L428 450Z" />
<glyph unicode="l" glyph-name="l" horiz-adv-x="495" d="M389 0H105V1560H389V0Z" />
<glyph unicode="m" glyph-name="m" horiz-adv-x="1507" d="M358 1082L369 944Q412 1020 477 1061T626 1102Q708 1102 769 1059T862 926Q904 1010 970 1056T1124 1102Q1258 1102 1335 992T1413 654V0H1128V654Q1128 779 1101 826T1017 874Q976 874 944 850T891
784Q892 765 893 747T894 708V0H611V654Q611 778 584 826T498 874Q459 874 429 855T376 800V0H93V1082H358Z" />
<glyph unicode="n" glyph-name="n" horiz-adv-x="995" d="M352 1082L364 933Q409 1013 474 1057T619 1102Q754 1102 831 998T909 671V0H624V671Q624 783 593 828T495 874Q457 874 425 854T371 799V0H87V1082H352Z" />
<glyph unicode="o" glyph-name="o" horiz-adv-x="995" d="M58 607Q58 825 173 963T497 1102Q705 1102 821 964T937 607V473Q937 253 821 116T498 -21Q289 -21 174 116T58 473V607ZM341 473Q341 348 376 277T498 206Q582 206 617 277T653 473V607Q653 729 618 801T497
874Q412 874 377 801T341 607V473Z" />
<glyph unicode="p" glyph-name="p" horiz-adv-x="995" d="M940 458Q940 242 846 111T583 -21Q517 -21 466 5T376 84V-416H92V1082H355L365 975Q404 1036 457 1069T581 1102Q752 1102 846 962T940 591V458ZM656 591Q656 719 620 796T507 874Q462 874 429 852T376
788V278Q396 242 428 224T508 206Q587 206 621 273T656 458V591Z" />
<glyph unicode="q" glyph-name="q" horiz-adv-x="995" d="M54 591Q54 820 148 961T413 1102Q484 1102 538 1067T634 965L654 1082H901V-416H616V83Q577 32 527 6T412 -21Q242 -21 148 110T54 458V591ZM338 458Q338 339 371 273T485 206Q529 206 562 224T616 277V792Q595
831 563 852T487 874Q408 874 373 797T338 591V458Z" />
<glyph unicode="r" glyph-name="r" horiz-adv-x="655" d="M603 823L496 826Q451 826 422 804T376 742V0H92V1082H357L368 937L373 935Q399 1013 445 1057T554 1102Q573 1102 594 1099T632 1090L603 823Z" />
<glyph unicode="s" glyph-name="s" horiz-adv-x="888" d="M563 283Q563 329 527 362T389 445Q226 506 145 583T63 783Q63 915 167 1008T444 1102Q624 1102 731 1006T834 761L831 755H557Q557 823 529 863T443 903Q397 903 365 872T333 797Q333 749 365 720T504
639Q674 581 756 502T838 293Q838 155 728 67T439 -21Q252 -21 143 88T39 334L41 340H301Q303 254 341 216T446 178Q503 178 533 206T563 283Z" />
<glyph unicode="t" glyph-name="t" horiz-adv-x="648" d="M430 1351V1082H580V876H430V333Q430 267 449 239T501 210Q527 210 545 212T585 221L607 5Q562 -9 521 -15T428 -21Q291 -21 219 63T146 332V876H18V1082H146V1351H430Z" />
<glyph unicode="u" glyph-name="u" horiz-adv-x="995" d="M641 125Q597 54 535 17T393 -21Q248 -21 167 88T85 428V1082H369V426Q369 311 397 259T480 207Q527 207 562 224T623 276V1082H908V0H658L641 125Z" />
<glyph unicode="v" glyph-name="v" horiz-adv-x="909" d="M439 408L452 326H458L472 408L597 1082H894L594 0H316L15 1082H312L439 408Z" />
<glyph unicode="w" glyph-name="w" horiz-adv-x="1280" d="M882 468L888 469L989 1082H1252L1030 0H793L642 583H636L485 0H248L24 1082H289L390 466H396L547 1082H731L882 468Z" />
<glyph unicode="x" glyph-name="x" horiz-adv-x="909" d="M451 741H457L571 1082H891L623 547L899 0H580L461 351H455L336 0H16L291 547L23 1082H342L451 741Z" />
<glyph unicode="y" glyph-name="y" horiz-adv-x="909" d="M440 444L442 433L600 1082H904L539 -163Q498 -280 430 -358T220 -437Q185 -437 158 -431T86 -413L119 -201Q136 -204 143 -205T160 -207Q222 -207 253 -175T299 -89L324 -9L5 1082H310L440 444Z" />
<glyph unicode="z" glyph-name="z" horiz-adv-x="883" d="M391 227H814V0H65V169L477 854H77V1082H807V917L391 227Z" />
<glyph unicode="{" glyph-name="braceleft" horiz-adv-x="586" d="M490 -366Q323 -311 252 -191T181 99V305Q181 403 147 458T44 514V716Q113 716 147 771T181 925V1132Q181 1303 252 1422T490 1597L543 1440Q481 1409 457 1331T433 1132V925Q433 821 392 741T268
615Q350 569 391 489T433 305V99Q433 -21 456 -99T543 -208L490 -366Z" />
<glyph unicode="|" glyph-name="bar" horiz-adv-x="467" d="M316 -270H153V1456H316V-270Z" />
<glyph unicode="}" glyph-name="braceright" horiz-adv-x="586" d="M42 -208Q104 -177 129 -99T154 99V305Q154 409 195 489T321 615Q236 659 195 739T154 925V1132Q154 1252 129 1330T42 1440L95 1597Q261 1542 332 1423T404 1132V925Q404 825 437 771T543 716V514Q471
514 438 459T404 305V99Q404 -71 333 -191T95 -366L42 -208Z" />
<glyph unicode="~" glyph-name="asciitilde" horiz-adv-x="1121" d="M1030 761Q1030 597 954 488T760 378Q689 378 629 410T504 512Q464 557 436 576T373 596Q335 596 309 545T282 418L89 444Q89 609 163 717T357 825Q426 825 489 792T615 693Q652 647 681 628T744
608Q781 608 808 660T836 789L1030 761Z" />
</font>
</defs>
</svg>
