<?xml version="1.0" standalone="no"?> <!DOCTYPE svg PUBLIC "-//W3C//DTD SVG 1.0//EN" "http://www.w3.org/TR/2001/REC-SVG-20010904/DTD/svg10.dtd" > <svg xmlns="http://www.w3.org/2000/svg" width="100%" height="100%">
<defs >
<font id="font___0" horiz-adv-x="1211" ><font-face
    font-family="Cambria"
    units-per-em="2048"
    panose-1="2 4 5 3 5 4 6 3 2 4"
    ascent="1946"
    descent="-455"
    alphabetic="0" />
<missing-glyph horiz-adv-x="1348" d="M567 487V509Q567 531 570 549T584 589T616 636T673 702Q696 727 715 750T747 799T768 853T776 917Q776 992 744 1033T649 1074Q617 1074 593 1064T551 1036T521 993T499 938H403V1068Q463 1098 531 1121T667 1144Q737 1144
786 1130T867 1090T912 1029T926 953Q926 915 919 884T893 823T845 757T771 677Q739 644 720 622T691 581T677 541T673 493V487H567ZM691 377V216H547V377H691ZM1055 93V1271H293V93H1055ZM1158 1364V0H190V1364H1158Z" />
<glyph unicode=" " glyph-name="null" horiz-adv-x="451" />
<glyph unicode="!" glyph-name="null" horiz-adv-x="585" d="M403 1365L338 416H241L192 1365H403ZM393 232V0H193V232H393Z" />
<glyph unicode="&quot;" glyph-name="null" horiz-adv-x="805" d="M340 1431L276 964H171L145 1431H340ZM678 1431L615 964H509L484 1431H678Z" />
<glyph unicode="#" glyph-name="null" horiz-adv-x="1268" d="M943 834L901 537H1110V423H884L826 0H691L751 423H444L386 0H251L310 423H110V537H325L368 834H160V949H384L442 1366H577L517 949H825L884 1366H1018L958 949H1158V834H943ZM502 834L460 537H767L809
834H502Z" />
<glyph unicode="$" glyph-name="null" horiz-adv-x="1036" d="M584 1344Q759 1343 913 1287V1071H814Q787 1162 731 1207T584 1256V775Q724 708 794 655T901 537T938 384Q938 221 847 133T578 30V-156H474V28Q385 30 285 49T112 95V315H212Q236 212 297 165T474
113V631L449 643Q318 706 255 753T158 860T124 998Q124 1074 152 1134T228 1237T342 1305T480 1338V1529H584V1344ZM480 815V1253Q394 1242 342 1188T289 1052Q289 971 333 918T480 815ZM578 592V116Q671 126 721 183T771 338Q771 424 725 483T578 592Z" />
<glyph unicode="%" glyph-name="null" horiz-adv-x="1822" d="M409 517Q256 517 181 623T105 942Q105 1090 145 1188T256 1334T420 1381Q507 1381 566 1350T661 1264T713 1131T729 960Q729 741 647 629T409 517ZM253 959Q253 765 293 677T420 589Q502 589 541
671T581 933Q581 1125 542 1217T419 1309Q356 1309 320 1267T268 1149T253 959ZM1426 1365L544 -96H397L1281 1365H1426ZM1397 -112Q1244 -112 1169 -6T1093 313Q1093 461 1133 559T1244 705T1408 752Q1495 752 1554 721T1649 635T1701 502T1717 331Q1717 112 1635
0T1397 -112ZM1241 330Q1241 136 1281 48T1408 -40Q1490 -40 1529 42T1569 304Q1569 496 1530 588T1407 680Q1344 680 1308 638T1256 520T1241 330Z" />
<glyph unicode="&amp;" glyph-name="null" horiz-adv-x="1408" d="M894 136Q792 54 697 19T485 -16Q364 -16 274 25T137 143T89 322Q89 404 119 470T217 600T401 730Q328 826 297 904T266 1065Q266 1158 314 1229T450 1341T647 1381Q714 1381 772 1368T874 1324T943
1246T968 1129Q968 1096 961 1066T940 1008T904 951T842 888T741 816T606 736Q656 669 756 550T957 320Q1024 389 1056 458T1089 600Q1089 652 1065 678T988 710V759H1273V710Q1273 696 1263 651Q1257 622 1248 593Q1239 565 1227 537Q1215 509 1200 482Q1185 453
1166 425Q1147 397 1125 369Q1102 340 1074 311Q1047 282 1016 253Q1065 196 1101 164T1166 119T1226 105Q1256 105 1283 119T1357 172L1403 115Q1343 53 1278 19T1152 -16Q1103 -16 1067 -3T992 40T894 136ZM550 804Q678 872 743 950T809 1113Q809 1170 788 1211T726
1274T635 1296Q576 1296 531 1271T460 1197T434 1082Q434 1021 459 957T550 804ZM456 658Q358 594 313 524T268 363Q268 280 302 220T395 129T528 99Q615 99 685 122T834 203Q802 239 742 309L577 506Q536 556 504 596L456 658Z" />
<glyph unicode="&apos;" glyph-name="null" horiz-adv-x="485" d="M358 1431L285 954H179L145 1431H358Z" />
<glyph unicode="(" glyph-name="null" horiz-adv-x="782" d="M739 -435Q569 -435 462 -384T294 -229T207 43T180 496Q180 780 206 948T293 1223T461 1382T739 1435V1353Q669 1353 615 1341Q554 1327 511 1287Q463 1243 433 1164Q398 1072 381 920Q363 759 363
504Q363 279 378 122T428 -136Q456 -220 498 -267Q535 -308 586 -329Q645 -353 739 -353V-435Z" />
<glyph unicode=")" glyph-name="null" horiz-adv-x="782" d="M43 1435Q213 1435 320 1384T488 1229T575 957T602 504Q602 220 576 52T489 -223T321 -382T43 -435V-353Q113 -353 167 -341Q228 -327 271 -287Q319 -243 349 -164Q384 -72 401 80Q419 241 419 496Q419
721 404 878T354 1136Q326 1220 284 1267Q247 1308 196 1329Q137 1353 43 1353V1435Z" />
<glyph unicode="*" glyph-name="null" horiz-adv-x="875" d="M797 920L732 809L475 990L504 677H372L402 990L144 809L78 920L364 1054L78 1187L144 1299L402 1118L372 1431H504L475 1118L732 1299L797 1187L512 1054L797 920Z" />
<glyph unicode="+" glyph-name="null" horiz-adv-x="1134" d="M640 516V137H493V516H124V655H493V1033H640V655H1010V516H640Z" />
<glyph unicode="," glyph-name="null" horiz-adv-x="420" d="M309 232Q323 162 323 94Q323 24 299 -34T223 -149T78 -276L24 -215Q75 -167 98 -129T131 -41T141 82Q141 158 134 232H309Z" />
<glyph unicode="-" glyph-name="null" horiz-adv-x="680" d="M572 449H108V604H572V449Z" />
<glyph unicode="." glyph-name="null" horiz-adv-x="420" d="M311 232V0H109V232H311Z" />
<glyph unicode="/" glyph-name="null" horiz-adv-x="1004" d="M941 1431L219 -430H62L786 1431H941Z" />
<glyph unicode="0" glyph-name="null" horiz-adv-x="1134" d="M556 -16Q340 -16 235 154T129 670Q129 854 161 988T252 1209T393 1339T572 1381Q791 1381 898 1212T1005 701Q1005 347 891 166T556 -16ZM324 700Q324 374 384 222T572 69Q693 69 751 212T810 657Q810
887 780 1029T697 1234T567 1296Q498 1296 452 1255T377 1137T336 950T324 700Z" />
<glyph unicode="1" glyph-name="null" horiz-adv-x="1134" d="M695 261Q695 203 701 174T724 126T772 97T850 81T974 73V0H235V73Q346 78 393 86T466 112T502 160T514 261V1072Q514 1112 500 1130T459 1149Q427 1149 368 1116T222 1025L178 1102L646 1381H701Q695
1285 695 1115V261Z" />
<glyph unicode="2" glyph-name="null" horiz-adv-x="1134" d="M702 160Q751 160 781 166T829 186T857 222T884 292H969L952 0H129V48Q172 153 245 263T452 522Q568 650 619 716Q675 788 702 840T742 939T754 1033Q754 1108 730 1165T657 1256T532 1289Q345 1289
280 1081H159V1273Q280 1330 385 1355T575 1381Q761 1381 856 1300T951 1063Q951 1010 941 966T908 878T847 784T763 683T604 511Q414 310 325 160H702Z" />
<glyph unicode="3" glyph-name="null" horiz-adv-x="1134" d="M159 1082V1272Q275 1327 376 1354T571 1381Q684 1381 769 1346T899 1246T944 1089Q944 1004 910 940T815 827T655 733V724Q716 713 772 687T873 618T943 518T970 384Q970 268 920 178T765 36T512
-16Q426 -16 327 3T144 55V267H264Q299 163 356 116T513 69Q643 69 709 140T776 350Q776 496 688 573T430 650H340V738Q475 746 567 790T705 903T750 1058Q750 1169 691 1229T519 1289Q425 1289 366 1238T279 1082H159Z" />
<glyph unicode="4" glyph-name="null" horiz-adv-x="1134" d="M516 49Q578 65 599 84T626 140T633 250V414H77V489L662 1372H805V511H826Q884 511 909 519T950 549T981 620H1057L1045 414H805V250Q805 183 809 152T824 103T855 73T922 49V0H516V49ZM242 511H633V760Q633
854 636 970T643 1146H633L242 525V511Z" />
<glyph unicode="5" glyph-name="null" horiz-adv-x="1134" d="M150 55V267H271Q301 165 361 117T518 69Q651 69 719 149T787 388Q787 494 751 563T654 664T512 695Q444 695 395 687T290 660L210 707V1365H761Q795 1365 810 1370T834 1387T855 1431H933L918 1199H343V760Q395
782 456 793T578 804Q697 804 789 756T931 618T981 410Q981 276 925 180T763 34T512 -16Q339 -16 150 55Z" />
<glyph unicode="6" glyph-name="null" horiz-adv-x="1134" d="M911 1326V1277Q757 1277 638 1211T441 1017T330 713L340 709Q424 769 505 797T682 825Q795 825 874 776T994 637T1034 427Q1034 297 984 198T830 41T572 -16Q353 -16 242 120T130 521Q130 699 186
854T345 1124T584 1306T870 1381L911 1326ZM613 720Q564 720 519 709T433 677T355 624Q343 613 337 601Q327 582 324 554T321 460Q321 269 385 169T579 69Q654 69 705 95T787 166T832 273T846 407Q846 555 785 637T613 720Z" />
<glyph unicode="7" glyph-name="null" horiz-adv-x="1134" d="M1026 1317L444 -7H299V42L838 1183V1198H398Q357 1198 333 1191T292 1169T264 1132T234 1041H148L168 1365H1026V1317Z" />
<glyph unicode="8" glyph-name="null" horiz-adv-x="1134" d="M792 721L794 708Q907 664 965 580T1023 376Q1023 259 967 170T805 33T556 -16Q423 -16 323 28T167 158T111 360Q111 447 141 511T219 616T342 692L340 705Q125 798 125 1024Q125 1127 181 1208T342
1335T574 1381Q718 1381 816 1341T963 1224T1013 1040Q1013 930 959 851T792 721ZM313 1033Q313 974 327 922T372 832T452 772T574 749Q657 749 713 781T797 876T825 1021Q825 1111 793 1173T703 1266T572 1296Q446 1296 380 1228T313 1033ZM302 377Q302 312 317
256T364 158T448 93T572 69Q654 69 712 102T801 202T832 358Q832 454 799 523T706 629T567 666Q493 666 443 643T361 581T316 490T302 377Z" />
<glyph unicode="9" glyph-name="null" horiz-adv-x="1134" d="M313 39V88Q453 88 555 150T720 333T804 652L794 656Q710 596 629 568T452 540Q339 540 260 589T140 728T100 938Q100 1028 130 1108T219 1249T366 1345T573 1381Q783 1381 893 1236T1003 819Q1003
570 922 388T695 104T354 -16L313 39ZM521 645Q559 645 593 651T661 670T725 702T782 744Q791 752 798 765T809 799T813 865Q813 1002 786 1099T702 1246T562 1296Q487 1296 435 1270T351 1199T303 1092T288 958Q288 809 349 727T521 645Z" />
<glyph unicode=":" glyph-name="null" horiz-adv-x="540" d="M370 903V669H170V903H370ZM370 232V0H170V232H370Z" />
<glyph unicode=";" glyph-name="null" horiz-adv-x="540" d="M358 232Q372 162 372 94Q372 24 348 -34T272 -149T127 -276L73 -215Q124 -167 147 -129T180 -41T190 82Q190 158 183 232H358ZM370 903V669H170V903H370Z" />
<glyph unicode="&lt;" glyph-name="null" horiz-adv-x="1134" d="M124 515V655L1010 1036V886L272 585L1010 284V134L124 515Z" />
<glyph unicode="=" glyph-name="null" horiz-adv-x="1134" d="M124 723V862H1010V723H124ZM124 308V447H1010V308H124Z" />
<glyph unicode="&gt;" glyph-name="null" horiz-adv-x="1134" d="M124 134V284L862 585L124 886V1036L1010 655V515L124 134Z" />
<glyph unicode="?" glyph-name="null" horiz-adv-x="865" d="M316 416V450Q316 491 321 516T338 569T377 637T453 737Q511 811 536 857T575 952T588 1063Q588 1140 567 1193T508 1274T420 1301Q341 1301 294 1254T228 1113H92V1277Q206 1335 285 1358T442 1381Q562
1381 640 1345T754 1247T790 1104Q790 1063 783 1029T760 961T722 894T671 824T571 706Q518 644 494 607T460 534T450 441V416H316ZM485 232V0H285V232H485Z" />
<glyph unicode="@" glyph-name="null" horiz-adv-x="1813" d="M1074 422L1061 423Q977 297 902 239T748 181Q683 181 636 214T566 310T542 455Q542 536 561 619T619 777T711 908T836 999T991 1034Q1050 1034 1098 1021T1190 980L1268 1034L1332 1019L1221 518Q1211
474 1207 445T1202 389Q1202 274 1298 274Q1369 274 1424 331T1509 490T1539 711Q1539 898 1479 1026T1298 1221T1007 1287Q796 1287 638 1193T393 923T307 524Q307 330 373 199T567 3T871 -63Q957 -63 1028 -51T1181 -13L1205 -103Q1141 -128 1052 -142T866 -156Q616
-156 454 -74T214 162T137 538Q137 711 197 865T373 1136T648 1317T996 1381Q1178 1381 1312 1331T1528 1192T1647 992T1684 748Q1684 582 1634 452T1493 252T1280 181Q1238 181 1200 191T1134 225T1088 285T1071 375Q1071 399 1074 422ZM1109 721Q1117 757 1119
783T1122 835Q1122 899 1095 927T1006 955Q971 955 940 944T875 906T813 837T759 733T722 600T708 462Q708 377 731 335T807 293Q849 293 890 323T978 414T1054 536T1101 684L1109 721Z" />
<glyph unicode="A" glyph-name="null" horiz-adv-x="1276" d="M796 0V49Q846 59 870 71T907 104T919 162Q919 196 911 235T888 324L851 453H385L351 355Q325 281 317 243T309 174Q309 114 339 86T433 49V0H6V49Q62 58 103 114T184 274L601 1381H759L1099 266Q1123
188 1141 147T1186 83T1257 49V0H796ZM412 540H830L640 1185L412 540Z" />
<glyph unicode="B" glyph-name="null" horiz-adv-x="1252" d="M121 0V49Q183 65 204 84T231 140T238 250V1115Q238 1184 233 1215T217 1264T186 1292T121 1316V1365H668Q827 1365 923 1331T1067 1231T1114 1059Q1114 972 1081 908T993 802T854 724V715Q990 674
1060 589T1130 385Q1130 249 1070 163T900 39T636 0H121ZM600 753Q752 753 832 826T913 1040Q913 1109 891 1154T829 1227T735 1265T618 1277Q580 1277 518 1275T425 1271V753H600ZM425 95Q498 88 588 88Q719 88 791 121T896 218T929 380Q929 477 894 540T784 634T580
665H425V95Z" />
<glyph unicode="C" glyph-name="null" horiz-adv-x="1152" d="M1042 1336V1059H943Q919 1146 882 1197T796 1271T678 1293Q575 1293 495 1225T368 1019T322 686Q322 490 360 352T472 143T654 72Q736 72 788 95T875 170T943 320H1042V34Q948 9 850 -3T633 -16Q379
-16 249 156T119 669Q119 883 186 1044T385 1293T698 1381Q789 1381 866 1372T1042 1336Z" />
<glyph unicode="D" glyph-name="null" horiz-adv-x="1355" d="M120 0V49Q166 61 186 72T217 100T233 149T238 250V1115Q238 1185 233 1216T217 1265T186 1292T120 1316V1365H558Q747 1365 867 1324T1071 1201T1195 1000T1236 712Q1236 543 1198 415T1085 199Q1021
123 928 74Q851 34 750 17T482 0H120ZM425 93Q465 89 543 89Q627 89 693 103T813 147T910 230T980 353T1019 508T1032 694Q1032 897 974 1027T809 1218T554 1278Q486 1278 425 1274V93Z" />
<glyph unicode="E" glyph-name="null" horiz-adv-x="1178" d="M1056 1365V1063H958Q943 1112 927 1149T894 1211T857 1251T808 1271T741 1277H425V753H639Q683 753 708 765T749 808T781 902H875V518H781Q767 578 750 608T710 652T639 665H425V88H736Q785 88 815
96T868 125T907 179T935 247T967 351H1066L1047 0H121V49Q183 65 204 84T231 140T238 250V1115Q238 1184 233 1215T217 1264T186 1292T121 1316V1365H1056Z" />
<glyph unicode="F" glyph-name="null" horiz-adv-x="1099" d="M1033 1365V1063H935Q913 1131 893 1173T850 1237T797 1268T718 1277H425V733H631Q675 733 700 747T741 796T773 901H867V479H773Q758 547 741 581T701 630T631 645H425V253Q425 193 432 157T455 100T498
69T565 49V0H121V49Q183 65 204 84T231 140T238 250V1115Q238 1184 233 1215T217 1264T186 1292T121 1316V1365H1033Z" />
<glyph unicode="G" glyph-name="null" horiz-adv-x="1251" d="M1078 5L1000 -16L927 62Q862 22 791 3T628 -16Q375 -16 247 157T119 673Q119 886 189 1047T390 1294T698 1381Q791 1381 877 1371T1068 1334V1059H969Q942 1149 905 1199T817 1271T686 1293Q577 1293
495 1223T368 1017T322 687Q322 491 360 352T475 143T662 72Q780 72 837 123T894 282V342Q894 432 885 472T851 534T772 570V619H1176V570Q1140 558 1122 543T1095 504T1082 448T1078 352V5Z" />
<glyph unicode="H" glyph-name="null" horiz-adv-x="1406" d="M1168 250Q1168 192 1171 163T1181 117T1198 88T1226 68T1284 49V0H865V49Q920 63 942 80T972 132T981 250V669H425V250Q425 183 429 152T444 103T475 73T542 49V0H121V49Q183 65 204 84T231 140T238
250V1115Q238 1184 233 1215T217 1264T186 1292T121 1316V1365H542V1316Q498 1305 479 1294T448 1267T431 1217T425 1115V761H981V1115Q981 1202 973 1234T944 1283T865 1316V1365H1284V1316Q1228 1302 1206 1285T1176 1232T1168 1115V250Z" />
<glyph unicode="I" glyph-name="null" horiz-adv-x="664" d="M426 250Q426 183 430 152T445 103T476 73T543 49V0H121V49Q183 65 204 84T231 140T238 250V1115Q238 1184 233 1215T217 1264T186 1292T121 1316V1365H543V1316Q499 1305 480 1294T449 1267T432 1217T426
1115V250Z" />
<glyph unicode="J" glyph-name="null" horiz-adv-x="628" d="M408 68Q408 -67 377 -151T271 -293T62 -392L29 -304Q117 -270 154 -236T205 -149T220 -9V1115Q220 1202 212 1234T184 1283T103 1316V1365H525V1316Q481 1305 462 1294T431 1267T414 1217T408 1115V68Z" />
<glyph unicode="K" glyph-name="null" horiz-adv-x="1289" d="M424 748H454Q492 748 523 760T594 805T713 928Q809 1035 844 1083Q888 1140 903 1179Q915 1208 915 1235Q915 1275 892 1293T829 1316V1365H1265V1316Q1233 1309 1202 1292T1139 1244T1043 1143L707
765L1071 236Q1129 152 1162 119T1225 70T1289 49V0H848V49Q885 52 902 63T919 96Q919 114 908 139T871 201L638 548Q597 610 578 630T537 659T478 669H425V250Q425 183 429 152T444 103T475 73T542 49V0H121V49Q183 65 204 84T231 140T238 250V1115Q238 1184 233
1215T217 1264T186 1292T121 1316V1365H542V1316Q498 1305 479 1294T448 1267T431 1217T425 1115L424 748Z" />
<glyph unicode="L" glyph-name="null" horiz-adv-x="1099" d="M425 92H687Q730 92 759 97T808 112T845 141T877 190T905 265T939 402H1040L1020 0H121V49Q183 65 204 84T231 140T238 250V1115Q238 1184 233 1215T217 1264T186 1292T121 1316V1365H542V1316Q498
1304 480 1295T449 1269T431 1220T425 1115V92Z" />
<glyph unicode="M" glyph-name="null" horiz-adv-x="1670" d="M1549 1316Q1505 1305 1486 1294T1455 1267T1438 1217T1432 1115V250Q1432 183 1436 152T1451 103T1482 73T1549 49V0H1132V49Q1189 63 1211 81T1241 134T1249 250V633Q1249 784 1253 938T1264 1150H1247L851
159H736L368 1166H351Q356 1105 360 945T365 616V250Q365 183 369 152T384 103T415 73T482 49V0H117V49Q179 65 200 84T227 140T234 250V1115Q234 1184 229 1215T213 1264T182 1292T117 1316V1365H474L825 392L1211 1365H1549V1316Z" />
<glyph unicode="N" glyph-name="null" horiz-adv-x="1394" d="M924 541Q960 481 984 436T1035 335H1048Q1043 396 1039 577T1035 905V1115Q1035 1184 1031 1216T1017 1265T988 1292T923 1316V1365H1283V1316Q1238 1304 1220 1294T1190 1268T1172 1220T1166 1115V-6H1041L484
928Q432 1015 410 1055T369 1134H352Q359 1057 362 856T365 454V250Q365 183 369 152T384 103T415 73T482 49V0H117V49Q179 65 200 84T227 140T234 250V1115Q234 1184 229 1215T213 1264T182 1292T117 1316V1365H430L924 541Z" />
<glyph unicode="O" glyph-name="null" horiz-adv-x="1338" d="M654 -16Q534 -16 436 23T267 146T158 360T119 671Q119 894 187 1054T381 1297T675 1381Q853 1381 974 1303T1157 1072T1219 700Q1219 466 1149 305T952 64T654 -16ZM325 699Q325 392 414 232T676
72Q785 72 861 141T975 345T1013 658Q1013 876 969 1019T847 1228T668 1293Q578 1293 514 1251T407 1132T345 944T325 699Z" />
<glyph unicode="P" glyph-name="null" horiz-adv-x="1163" d="M425 253Q425 194 431 159T451 104T488 72T560 49V0H121V49Q183 65 204 84T231 140T238 250V1115Q238 1184 233 1215T217 1264T186 1292T121 1316V1365H617Q851 1365 965 1276T1080 1003Q1080 899
1044 816T942 680T786 604T597 581Q486 581 425 585V253ZM425 668H541Q654 668 727 697T840 795T879 977Q879 1063 856 1120T793 1213T696 1262T574 1277Q475 1277 425 1273V668Z" />
<glyph unicode="Q" glyph-name="null" horiz-adv-x="1338" d="M832 9L867 -42Q894 -81 918 -112T969 -172T1021 -218T1068 -243T1110 -251Q1165 -251 1205 -231T1282 -174L1330 -236Q1252 -314 1185 -348T1047 -382Q990 -382 953 -371T880 -335T798 -259T694 -120L623
-15Q374 -3 247 172T119 671Q119 894 187 1054T381 1297T675 1381Q853 1381 974 1303T1157 1072T1219 700Q1219 422 1120 245T832 9ZM325 699Q325 392 414 232T676 72Q785 72 861 141T975 345T1013 658Q1013 876 969 1019T847 1228T668 1293Q578 1293 514 1251T407
1132T345 944T325 699Z" />
<glyph unicode="R" glyph-name="null" horiz-adv-x="1272" d="M426 593V253Q426 181 431 149T448 100T478 73T543 49V0H121V49Q183 65 204 84T231 140T238 250V1115Q238 1184 233 1215T217 1264T186 1292T121 1316V1365H616Q850 1365 966 1280T1082 1016Q1082
879 1007 783T780 633V625Q841 600 884 554T981 409L1071 245Q1110 173 1138 135T1195 77T1272 49V0H995Q957 53 923 114T856 238L768 405Q728 481 703 517T656 567T610 587T536 593H426ZM426 1273V679H539Q626 679 680 691T780 739T853 836T881 990Q881 1085 849
1148T750 1244T572 1277Q482 1277 426 1273Z" />
<glyph unicode="S" glyph-name="null" horiz-adv-x="1016" d="M212 311Q232 223 266 172T354 97T493 72Q610 72 672 133T735 311Q735 386 709 437T624 533T444 638Q327 696 259 751T158 872T124 1014Q124 1126 176 1208T330 1336T563 1381Q639 1381 711 1373T893
1337V1067H794Q771 1155 736 1204T654 1272T532 1292Q467 1292 416 1268T334 1196T304 1080Q304 1009 329 960T409 869T569 775Q697 711 767 656T877 531T917 366Q917 261 884 189T793 71T653 5T474 -16Q317 -16 112 37V311H212Z" />
<glyph unicode="T" glyph-name="null" horiz-adv-x="1214" d="M66 1365H1148V1017H1050Q1028 1103 1007 1153T961 1229T910 1266T827 1277H700V253Q700 194 706 159T726 104T763 72T835 49V0H378V49Q408 56 431 64T468 83T492 113T507 162T513 253V1277H387Q340
1277 310 1268T253 1231T206 1150T165 1017H66V1365Z" />
<glyph unicode="U" glyph-name="null" horiz-adv-x="1327" d="M1125 472Q1125 363 1105 284Q1086 209 1048 151Q1013 99 961 63T835 5T661 -16Q540 -16 454 11T311 99T229 244T204 457V1115Q204 1193 199 1220T185 1264T157 1291T90 1316V1365H510V1316Q454 1302
432 1285T402 1232T394 1115V407Q394 310 414 244T472 142T560 89T687 72Q757 72 810 96T898 171T947 294T960 490V1115Q960 1202 952 1234T924 1283T843 1316V1365H1242V1316Q1184 1301 1163 1283T1133 1231T1125 1115V472Z" />
<glyph unicode="V" glyph-name="null" horiz-adv-x="1236" d="M474 1365V1316Q428 1308 404 1296T368 1262T356 1203Q356 1169 364 1130T387 1041L621 225L908 1047Q914 1066 920 1087T930 1128T936 1163T938 1191Q938 1251 911 1278T817 1316V1365H1237V1316Q1196
1306 1171 1287T1122 1226T1062 1092L647 -16H516L179 1099Q152 1190 132 1228T88 1286T22 1316V1365H474Z" />
<glyph unicode="W" glyph-name="null" horiz-adv-x="1887" d="M941 1110L621 -7H459L168 1079Q150 1147 135 1190T105 1257T73 1294T22 1316V1365H450V1316Q388 1304 364 1280T339 1213Q339 1178 348 1130T373 1021L574 231L896 1365H1064L1325 230L1561 993Q1604
1132 1604 1191Q1604 1252 1579 1279T1494 1316V1365H1888V1316Q1858 1306 1840 1294T1806 1260T1770 1193T1724 1072L1360 -7H1217L941 1110Z" />
<glyph unicode="X" glyph-name="null" horiz-adv-x="1170" d="M481 1365V1316Q433 1309 412 1290T391 1238Q391 1210 410 1168T464 1068L609 825L752 1056Q784 1108 800 1139T822 1191T829 1234Q829 1265 811 1286T751 1316V1365H1122V1316Q1085 1304 1056 1281T993
1214T897 1075L671 725L925 307Q979 218 1002 183T1046 123T1090 80T1149 49V0H710V49Q756 57 778 74T800 127Q800 155 786 189T741 273L560 575L369 262Q321 183 321 132Q321 99 339 78T399 49V0H21V49Q58 60 82 75T128 115T177 176T263 305L499 673L217 1137Q177
1201 157 1230T119 1277T87 1302T55 1316V1365H481Z" />
<glyph unicode="Y" glyph-name="null" horiz-adv-x="1168" d="M482 573L206 1086Q156 1179 130 1219T78 1282T18 1316V1365H444V1316Q350 1305 350 1235Q350 1206 363 1170T412 1068L612 687L809 1035Q849 1106 865 1151T882 1235Q882 1271 861 1291T797 1316V1365H1176V1316Q1135
1301 1104 1275T1041 1203T947 1051L669 577V253Q669 196 675 161T695 105T732 72T804 49V0H347V49Q395 59 418 70T455 103T475 160T482 253V573Z" />
<glyph unicode="Z" glyph-name="null" horiz-adv-x="1101" d="M327 92H688Q755 92 787 104T841 143T879 218T920 367H1018V0H94V49L779 1273H416Q377 1273 355 1267T314 1247T279 1207T244 1136T207 1022H109V1365H1011V1317L327 92Z" />
<glyph unicode="[" glyph-name="null" horiz-adv-x="717" d="M674 -430H228V1431H674V1349H404V-348H674V-430Z" />
<glyph unicode="\" glyph-name="null" horiz-adv-x="1004" d="M218 1431L942 -430H786L63 1431H218Z" />
<glyph unicode="]" glyph-name="null" horiz-adv-x="717" d="M489 -430H43V-348H313V1349H43V1431H489V-430Z" />
<glyph unicode="^" glyph-name="null" horiz-adv-x="1134" d="M825 675L567 1244L309 675H157L495 1381H639L977 675H825Z" />
<glyph unicode="_" glyph-name="null" horiz-adv-x="759" d="M0 -241V-125H759V-241H0Z" />
<glyph unicode="`" glyph-name="null" horiz-adv-x="583" d="M238 1442L445 1122L379 1070L63 1392V1442H238Z" />
<glyph unicode="a" glyph-name="null" horiz-adv-x="1000" d="M675 143L660 147Q573 58 497 21T334 -16Q258 -16 200 13T111 96T80 220Q80 366 224 445T658 538V603Q658 707 638 767T575 855T460 883Q382 883 335 842T263 719H132V849Q228 899 292 922T420 959T550
973Q649 973 709 942T799 845T829 649V301Q829 227 830 197T836 140T851 99T880 72T944 49V0H670L675 143ZM658 456Q455 454 354 402T253 245Q253 188 276 155T334 110T417 97Q485 97 540 130T627 214T658 315V456Z" />
<glyph unicode="b" glyph-name="null" horiz-adv-x="1121" d="M349 799L353 798Q423 871 469 904T565 954T674 972Q781 972 857 918T975 754T1017 487Q1017 324 968 212T822 42T593 -16Q519 -16 454 -3T316 45L246 -16L177 0V1087Q177 1183 176 1221T168 1285T150
1327T119 1351T48 1369V1421L290 1431H349V799ZM349 360Q349 283 356 238T379 162T427 107T498 73T585 63Q705 63 767 161T829 455Q829 653 773 752T602 852Q545 852 505 835T426 780T368 707T349 625V360Z" />
<glyph unicode="c" glyph-name="null" horiz-adv-x="903" d="M842 933V724H715Q698 789 673 826T615 879T533 894Q463 894 409 849T324 712T292 487Q292 402 304 332T345 211T422 133T541 105Q610 105 669 132T793 227L850 161Q799 105 760 75T677 24T589 -6T494
-16Q305 -16 205 109T105 472Q105 620 161 734T318 911T551 973Q633 973 702 964T842 933Z" />
<glyph unicode="d" glyph-name="null" horiz-adv-x="1136" d="M772 1087Q772 1183 771 1221T763 1285T745 1327T714 1351T643 1369V1421L885 1431H944V273Q944 195 947 162T960 108T991 76T1067 52V0L831 -10H771L783 154L768 158Q705 91 659 58T560 4T447 -16Q283
-16 194 108T105 468Q105 632 163 746T319 917T541 973Q607 973 661 963T772 928V1087ZM772 593Q772 671 765 718T742 797T697 851T636 883T555 893Q427 893 360 791T293 496Q293 304 348 204T515 104Q559 104 588 111T645 135T702 181T744 234T765 289T772 369V593Z"
/>
<glyph unicode="e" glyph-name="null" horiz-adv-x="999" d="M896 170Q832 103 779 65T661 6T520 -16Q314 -16 209 107T104 472Q104 621 157 735T310 911T538 973Q639 973 710 941T823 854T889 714T916 493H286V475Q286 357 312 277T399 151T557 105Q639 105 704
135T835 235L896 170ZM728 576Q722 684 701 752T638 857T528 894Q425 894 364 812T291 576H728Z" />
<glyph unicode="f" glyph-name="null" horiz-adv-x="620" d="M611 855H372V250Q372 183 378 149T397 98T430 70T496 49V0H87V49Q131 61 150 72T179 100T195 149T200 250V855H79V906Q117 912 129 915T153 926T173 946T188 984T199 1056Q208 1165 238 1233T327 1349T452
1416T609 1436Q688 1436 743 1425V1244H644Q625 1303 600 1327T528 1352Q495 1352 473 1343T431 1315T399 1264T379 1185T372 1061V956H611V855Z" />
<glyph unicode="g" glyph-name="null" horiz-adv-x="1012" d="M994 855L809 862L800 851Q831 820 849 767T867 651Q867 488 767 400T481 311Q398 311 338 332Q262 274 262 218Q262 181 276 162T324 135T426 127H666Q772 127 839 94T934 6T963 -124Q963 -218 909
-291T753 -406T515 -447Q414 -447 331 -435T188 -395T96 -320T63 -203Q63 -140 105 -89T224 2Q177 21 150 58T123 145Q123 202 155 249T268 358Q196 400 159 472T121 636Q121 722 149 785T228 890T348 952T497 973Q569 973 640 956H994V855ZM300 652Q300 527 351
459T498 391Q549 391 585 410T643 464T676 542T687 636Q687 724 662 783T594 869T495 897Q400 897 350 834T300 652ZM325 -16Q274 -54 249 -96T223 -193Q223 -283 294 -325T513 -368Q603 -368 667 -344T766 -275T800 -170Q800 -142 793 -116T767 -68T711 -35T617
-22H468Q387 -22 325 -16Z" />
<glyph unicode="h" glyph-name="null" horiz-adv-x="1130" d="M365 799L369 798Q447 877 492 908T582 956T678 972Q733 972 776 959T851 920T904 855T935 763T945 627V250Q945 163 952 132T979 83T1058 49V0H664V49Q703 61 720 70T748 95T766 144T773 246V508Q773
641 760 711T707 817T596 852Q556 852 524 838T450 788T387 714T365 633V250Q365 182 368 153T382 105T412 73T476 49V0H80V49Q124 61 143 72T172 100T188 149T193 250V1087Q193 1183 192 1221T184 1285T166 1327T135 1351T64 1369V1421L305 1431H365V799Z" />
<glyph unicode="i" glyph-name="null" horiz-adv-x="569" d="M383 1348V1154H199V1348H383ZM97 49Q136 61 152 70T180 95T198 144T205 247V683Q205 747 203 786T189 848T153 883T83 903V956L316 965H377V250Q377 164 385 131T415 80T489 49V0H97V49Z" />
<glyph unicode="j" glyph-name="null" horiz-adv-x="545" d="M373 1348V1154H190V1348H373ZM368 19Q368 -121 339 -205T239 -347T39 -443L5 -355Q67 -331 99 -310T153 -260T185 -183T196 -60V683Q196 761 193 795T180 848T149 880T73 903V956L307 965H368V19Z" />
<glyph unicode="k" glyph-name="null" horiz-adv-x="1074" d="M364 557H396Q429 557 450 564Q475 573 505 594T590 667Q636 710 659 740T692 795Q700 816 700 837Q700 867 682 884T621 907V956H1052V907Q1006 898 954 866T847 782L617 564L905 188Q955 122 995
91T1084 49V0H700V49Q726 52 738 60T751 89Q751 104 746 118T723 158T661 245L542 405Q508 450 494 464T463 484T420 490H364V250Q364 164 372 131T402 80T476 49V0H79V49Q129 62 148 76T176 109T188 162T192 250V1087Q192 1183 191 1221T183 1285T165 1327T134
1351T63 1369V1421L304 1431H364V557Z" />
<glyph unicode="l" glyph-name="null" horiz-adv-x="556" d="M364 250Q364 164 372 131T402 80T476 49V0H79V49Q129 62 148 76T176 109T188 162T192 250V1087Q192 1183 191 1221T183 1285T165 1327T134 1351T63 1369V1421L304 1431H364V250Z" />
<glyph unicode="m" glyph-name="null" horiz-adv-x="1704" d="M367 802L381 798Q441 858 479 888T554 937T621 964T686 972Q786 972 849 926T936 785Q1011 861 1057 897T1152 952T1257 972Q1324 972 1372 953T1454 893T1503 791T1519 627V250Q1519 174 1524 145T1538
100T1567 73T1631 49V0H1238V49Q1277 61 1294 70T1322 95T1340 144T1347 246V508Q1347 593 1343 648T1329 737T1306 789T1275 822T1235 844T1174 852Q1134 852 1100 836T1025 782T966 706T948 615V250Q948 174 953 145T967 100T996 73T1060 49V0H667V49Q706 61
723 70T751 95T769 144T776 246V508Q776 597 771 653T756 743T729 798T695 830T655 846T603 852Q562 852 526 834T453 780T396 707T377 625V250Q377 193 380 163T389 116T406 89T434 69T490 49V0H98V49Q136 61 152 70T181 95T199 144T205 247V683Q205 747 203 786T189
848T153 883T83 903V956L317 965H378L367 802Z" />
<glyph unicode="n" glyph-name="null" horiz-adv-x="1143" d="M1071 0H677V49Q716 61 733 70T761 95T779 144T786 246V508Q786 578 782 635T769 728T746 785T714 820T671 843T608 852Q569 852 534 837T457 783T396 708T377 623V250Q377 164 385 131T415 80T489
49V0H97V49Q136 61 152 70T180 95T198 144T205 247V683Q205 747 203 786T189 848T153 883T83 903V956L317 965H378L367 802L381 798Q455 873 500 905T592 954T691 972Q745 972 787 960T862 921T916 857T947 764T958 627V250Q958 181 962 150T976 102T1005 74T1071
49V0Z" />
<glyph unicode="o" glyph-name="null" horiz-adv-x="1087" d="M532 -16Q324 -16 215 106T105 469Q105 634 162 748T320 917T548 973Q762 973 872 849T982 491Q982 325 927 211T771 41T532 -16ZM294 490Q294 284 359 174T547 63Q614 63 661 95T737 183T780 310T793
462Q793 609 761 706T672 848T544 894Q423 894 359 789T294 490Z" />
<glyph unicode="p" glyph-name="null" horiz-adv-x="1139" d="M368 30V-181Q368 -246 372 -278T388 -328T421 -359T491 -381V-430H83V-381Q119 -371 141 -361T176 -330T192 -274T196 -181V677Q196 749 194 779T186 830T169 863T138 885T73 903V956L308 965H369L356
802L371 798Q433 861 469 889T543 937T617 964T693 972Q858 972 946 849T1035 487Q1035 322 985 210T840 41T612 -16Q538 -16 478 -4T368 30ZM368 360Q368 264 380 212T422 128T494 79T604 63Q725 63 786 163T847 460Q847 852 618 852Q562 852 522 835T441 778T385
703T368 624V360Z" />
<glyph unicode="q" glyph-name="null" horiz-adv-x="1120" d="M1056 -430H648V-381Q696 -371 717 -359T750 -329T766 -279T771 -181V164Q717 103 671 67T567 7T446 -16Q281 -16 193 107T104 465Q104 631 161 745T322 916T560 973Q631 973 688 959T805 912L875
973L943 957V-181Q943 -240 947 -274T963 -329T997 -360T1056 -381V-430ZM771 596Q771 689 759 740T718 826T650 877T558 893Q429 893 361 789T292 496Q292 304 347 204T514 104Q556 104 585 111T643 136T701 182T744 234T764 289T771 369V596Z" />
<glyph unicode="r" glyph-name="null" horiz-adv-x="847" d="M367 790L381 787Q436 854 483 892T584 952T708 973Q766 973 813 967V737H700Q676 791 649 815T575 840Q539 840 504 819T435 758T390 683T377 600V250Q377 159 388 125T424 74T501 49V0H98V49Q136
61 152 70T181 95T199 144T205 247V683Q205 747 203 786T189 848T153 883T83 903V955L317 965H378L367 790Z" />
<glyph unicode="s" glyph-name="null" horiz-adv-x="880" d="M767 737H671Q649 797 619 831T551 880T458 894Q378 894 331 857T283 754Q283 708 302 678T361 622T502 553Q604 509 659 472T746 386T778 269Q778 190 751 136T675 48T559 -1T411 -16Q327 -16 248
-4T94 29V238H192Q219 146 272 105T418 63Q454 63 488 70T550 95T593 143T609 218Q609 269 589 301T527 359T379 431Q288 469 233 505T147 590T115 706Q115 788 159 848T288 941T485 973Q551 973 612 967T767 941V737Z" />
<glyph unicode="t" glyph-name="null" horiz-adv-x="693" d="M37 906Q87 914 118 934T166 985T194 1064T215 1203H357V956H680V855H357V410Q357 313 365 256T395 166T445 119T517 105Q557 105 592 121T661 169L706 115Q635 46 572 15T440 -16Q311 -16 248 60T185
300V855H37V906Z" />
<glyph unicode="u" glyph-name="null" horiz-adv-x="1131" d="M73 956H358V447Q358 330 367 269T394 177T445 125T536 104Q574 104 609 119T687 171T748 246T767 332V707Q767 764 764 793T754 839T738 868T711 888T654 907V956H939V273Q939 196 942 162T955 108T986
76T1061 52V0L832 -10H771L777 154L762 158Q679 68 604 26T452 -16Q361 -16 302 20T214 127T185 329V707Q185 791 179 822T154 872T73 907V956Z" />
<glyph unicode="v" glyph-name="null" horiz-adv-x="1032" d="M427 956V907Q381 896 362 886T334 860T324 817Q324 790 330 761T351 692L525 186L729 671Q749 719 757 750T765 808Q765 850 743 872T660 907V956H1034V907Q995 899 974 883T932 831T882 731L545
-10H427L156 737Q128 814 112 842T76 885T19 907V956H427Z" />
<glyph unicode="w" glyph-name="null" horiz-adv-x="1586" d="M798 747L536 -5H397L157 737Q134 809 119 838T86 882T29 907V956H424V907Q366 895 346 876T325 817Q325 790 331 761T349 692L506 182L763 956H904L1122 182L1298 671Q1312 709 1321 743T1330 808Q1330
850 1308 873T1231 907V956H1580V907Q1552 900 1538 893T1511 871T1481 826T1439 731L1150 -5H1015L798 747Z" />
<glyph unicode="x" glyph-name="null" horiz-adv-x="990" d="M520 577L650 742Q671 769 684 794T697 847Q697 870 680 885T627 907V956H954V907Q916 896 877 864T780 761L573 507L801 200Q850 134 889 99T967 49V0H565V49Q648 59 648 111Q648 132 641 151T615
195L470 397L316 197Q299 175 290 157T280 115Q280 88 298 71T357 49V0H23V49Q56 61 82 79T136 125T209 209L417 467L204 759Q160 819 134 846T86 887T42 907V956H434V907Q355 895 355 845Q355 822 365 799T398 748L520 577Z" />
<glyph unicode="y" glyph-name="null" horiz-adv-x="1032" d="M520 -82Q465 -206 413 -283T299 -399T150 -438Q95 -438 26 -425V-227H115Q127 -268 145 -284T197 -300Q227 -300 250 -289T299 -249T359 -163T437 -16L157 737Q130 810 114 839T78 883T20 907V956H427V907Q380
896 361 886T333 859T324 816Q324 789 330 760T351 692L529 191L729 671Q746 711 755 744T765 807Q765 850 742 872T660 907V956H1034V907Q995 899 974 883T932 831T882 731L520 -82Z" />
<glyph unicode="z" glyph-name="null" horiz-adv-x="931" d="M851 290V0H81V49L629 875H358Q308 875 279 857T224 797T174 684H87V956H845V906L298 81H561Q613 81 639 89T684 114T721 170T764 290H851Z" />
<glyph unicode="{" glyph-name="null" horiz-adv-x="793" d="M724 -432Q569 -432 479 -392T350 -273T311 -59V230Q311 319 289 368T221 438T95 458V540Q175 540 220 560T288 629T311 768V1057Q311 1191 350 1270T479 1390T724 1430H750V1349Q671 1349 632 1341T568
1315T527 1271T502 1196T493 1069V875Q493 774 476 707T413 590T290 508V490Q366 459 412 408T476 289T493 123V-71Q493 -150 502 -198T527 -273T567 -317T631 -342T750 -351V-432H724Z" />
<glyph unicode="|" glyph-name="null" horiz-adv-x="648" d="M401 -430H247V1431H401V-430Z" />
<glyph unicode="}" glyph-name="null" horiz-adv-x="793" d="M69 1430Q224 1430 314 1390T443 1271T482 1057V768Q482 678 505 629T573 560T698 540V458Q617 458 572 438T505 369T482 230V-59Q482 -193 443 -272T314 -392T69 -432H43V-351Q122 -351 161 -343T225
-317T266 -273T291 -198T300 -71V123Q300 224 317 291T380 408T503 490V508Q427 539 381 590T317 709T300 875V1069Q300 1148 291 1196T266 1271T226 1315T162 1340T43 1349V1430H69Z" />
<glyph unicode="~" glyph-name="null" horiz-adv-x="1134" d="M66 512Q132 623 174 669T261 738T365 762Q394 762 419 756T468 739T518 709T595 649Q663 592 702 571T784 550Q820 550 846 564T900 613T972 725L1068 658Q1005 551 964 505T877 434T772 408Q735
408 704 417T639 445T539 521Q485 565 457 583T403 611T350 620Q320 620 297 610T253 578T212 527T162 444L66 512Z" />
</font>
</defs>
</svg>
