<?xml version="1.0" standalone="no"?>
<!DOCTYPE svg PUBLIC "-//W3C//DTD SVG 1.1//EN" "http://www.w3.org/Graphics/SVG/1.1/DTD/svg11.dtd" >
<svg xmlns="http://www.w3.org/2000/svg">
<metadata></metadata>
<defs>
<font id="copperplate_gothic_boldRg" horiz-adv-x="1461" >
<font-face units-per-em="2048" ascent="1638" descent="-410" />
<missing-glyph horiz-adv-x="512" />
<glyph horiz-adv-x="0" />
<glyph horiz-adv-x="682" />
<glyph unicode=" "  horiz-adv-x="512" />
<glyph unicode="&#x09;" horiz-adv-x="512" />
<glyph unicode="&#xa0;" horiz-adv-x="512" />
<glyph unicode="!" horiz-adv-x="774" d="M177 1333v32h420v-32q-39 -7 -49.5 -21t-16.5 -67l-73 -615q-3 -24 -3 -45q0 -36 11 -49t52 -24v-32h-262v32q41 11 52 24.5t11 48.5q0 21 -3 45l-73 615q-6 53 -16.5 67t-49.5 21zM223 141q0 67 47.5 114.5t116.5 48.5q69 0 116.5 -48t47.5 -117q0 -67 -48.5 -115 t-115.5 -48q-68 0 -116 48.5t-48 116.5z" />
<glyph unicode="&#x22;" horiz-adv-x="1137" d="M96 1336v29h378v-29q-36 -7 -44 -18t-15 -61l-66 -348q-3 -15 -3 -34q0 -37 9.5 -49.5t47.5 -22.5v-29h-236v29q38 10 47.5 22.5t9.5 51.5q0 16 -3 32l-66 348q-7 50 -15.5 61t-43.5 18zM664 1336v29h378v-29q-35 -7 -43.5 -18t-15.5 -61l-66 -348q-3 -15 -3 -34 q0 -37 9.5 -49.5t47.5 -22.5v-29h-236v29q38 10 47.5 22.5t9.5 51.5q0 17 -3 32l-66 348q-7 50 -15.5 61t-43.5 18z" />
<glyph unicode="#" horiz-adv-x="1570" d="M52 239l66 340h34q3 -36 16 -49.5t44 -13.5h167l63 326h-166q-31 0 -49.5 -13.5t-35.5 -49.5h-34l66 341h34q3 -37 16 -51.5t44 -14.5h167l38 201q2 6 2 17q0 24 -10.5 35.5t-40.5 19.5l6 33h340l-7 -33q-37 -9 -54.5 -25.5t-23.5 -46.5l-39 -201h328l39 201q1 6 1 17 q0 24 -10.5 35.5t-40.5 19.5l6 33h340l-6 -33q-38 -9 -55.5 -25.5t-23.5 -46.5l-38 -201h166q31 0 50 15t35 51h32l-64 -341h-34q-3 35 -16.5 49t-43.5 14h-167l-63 -326h166q31 0 50 14t35 49h32l-64 -340h-34q-3 36 -16 50.5t-44 14.5h-166l-39 -201q-1 -5 -1 -16 q0 -25 10 -36t41 -21l-7 -34h-340l7 34q38 11 55 26.5t23 46.5l39 201h-328l-39 -201q-1 -5 -1 -16q0 -25 10 -36t41 -21l-6 -34h-340l6 34q39 11 56 26.5t23 46.5l39 201h-167q-30 0 -49 -14.5t-36 -50.5h-34zM590 516h328l64 326h-328z" />
<glyph unicode="$" d="M75 125l148 335l29 -13v-14q0 -54 63 -98q65 -45 165.5 -79t190.5 -42v341q-146 14 -219 30t-137 48q-92 46 -143 135q-47 82 -47 186q0 193 146.5 310t399.5 125v49q0 30 -14 46t-50 26v32h279v-32q-37 -10 -51 -26t-14 -46v-54q94 -7 192.5 -36t254.5 -95 q26 -11 41 -11q21 0 49 23l29 -15l-164 -321l-28 16q1 8 1 16q0 51 -128.5 115.5t-246.5 73.5v-313l36 -3q250 -22 381 -112q68 -47 107.5 -126.5t39.5 -169.5q0 -138 -79.5 -240t-230.5 -156q-124 -45 -254 -51v-65q0 -31 14 -47t50 -26v-32h-278v32q36 10 50 26t14 47v65 q-242 18 -491 143q-22 11 -35 11t-41 -22zM401 984q0 -36 25 -64t68 -40q60 -17 177 -26v301q-82 -6 -137 -24q-61 -20 -97 -60t-36 -87zM821 213q99 11 161 41q114 56 114 152q0 32 -20.5 59.5t-52.5 38.5q-56 20 -202 34v-325z" />
<glyph unicode="%" horiz-adv-x="1809" d="M68 1024q0 168 108 265q96 86 240 88q146 0 242 -88q108 -99 108 -270q0 -162 -108 -261q-96 -88 -241 -88t-241 88q-108 100 -108 266zM241 1023q0 -93 49 -151.5t127 -58.5q77 0 126.5 58.5t49.5 149.5q0 96 -48 154t-128 59q-78 0 -127 -58.5t-49 -152.5zM244 0v32 q51 8 80.5 31.5t98.5 112.5l788 1016q44 56 44 81q0 44 -60 60v32h355v-32q-51 -7 -74.5 -26.5t-95.5 -114.5l-804 -1040q-36 -47 -36 -68q0 -40 60 -52v-32h-356zM1043 342q0 168 108 265q96 86 240 88q146 0 242 -88q108 -99 108 -270q0 -162 -108 -261q-96 -88 -241 -88 t-241 88q-108 99 -108 266zM1216 341q0 -93 49 -151.5t127 -58.5q77 0 126.5 58.5t49.5 149.5q0 96 -48 154t-128 59q-78 0 -127 -58.5t-49 -152.5z" />
<glyph unicode="&#x26;" horiz-adv-x="1584" d="M60 389q0 257 304 406q-135 118 -135 258q0 163 156 259q127 77 291 77q184 0 322 -92q135 -90 135 -250q0 -89 -39.5 -151t-141.5 -134q104 -67 161 -190q96 166 188 247.5t229 120.5v-379h-32q-6 50 -30 50q-22 0 -66 -29t-77 -66q-59 -65 -82 -141q62 -63 107.5 -89.5 t93.5 -26.5q44 0 54 48h32v-315q-28 6 -176 15q-57 4 -141.5 53t-145.5 114q-203 -198 -482 -198q-218 0 -362 104q-163 117 -163 309zM337 444q0 -103 79.5 -169t203.5 -66q128 0 218 64q90 63 90 150q0 41 -27.5 90.5t-69.5 82.5q-92 75 -219 76q-112 0 -194 -65 q-81 -65 -81 -163zM477 1013q0 -74 58.5 -122.5t147.5 -48.5q77 0 134 37q73 48 73 132q0 77 -57 125t-150 49q-76 0 -133 -37q-73 -47 -73 -135z" />
<glyph unicode="'" horiz-adv-x="569" d="M96 1336v29h378v-29q-36 -7 -44 -18t-15 -61l-66 -348q-3 -15 -3 -34q0 -37 9.5 -49.5t47.5 -22.5v-29h-236v29q38 10 47.5 22.5t9.5 51.5q0 16 -3 32l-66 348q-7 50 -15.5 61t-43.5 18z" />
<glyph unicode="(" horiz-adv-x="683" d="M134 682q0 251 114 480t308 367l110 -91q-114 -132 -167 -248q-97 -207 -97 -508q0 -244 60.5 -416t203.5 -339l-110 -91q-129 92 -225 230q-197 284 -197 616z" />
<glyph unicode=")" horiz-adv-x="683" d="M16 -73q114 132 168 247q96 208 96 508q0 245 -60.5 417.5t-203.5 338.5l111 91q128 -92 224 -230q197 -284 197 -617q0 -251 -113.5 -479t-307.5 -367z" />
<glyph unicode="*" horiz-adv-x="1033" d="M96 1086l94 288l36 -11q-1 -10 -1 -17q0 -39 51.5 -72t173.5 -73q-4 156 -19.5 203.5t-65.5 59.5v38h303v-38q-50 -12 -66 -61t-19 -202q134 46 179.5 75.5t45.5 71.5q0 5 -1 15l36 12l94 -288l-36 -12q-27 44 -74 44q-59 0 -203 -44q78 -103 116 -138.5t70 -35.5 q14 0 38 10l22 -30l-245 -179l-22 31q24 30 24 52q0 53 -110 211q-110 -158 -110 -211q0 -22 24 -52l-22 -31l-246 178l23 31q25 -10 39 -10q56 0 184 173q-148 45 -204 45q-44 0 -73 -44z" />
<glyph unicode="+" horiz-adv-x="1570" d="M234 521v324h30q8 -36 23 -50t43 -14h357v356q0 28 -14 42.5t-50 23.5v30h324v-29q-36 -10 -50 -24t-14 -43v-356h357q28 0 42.5 14t23.5 50h30v-324h-30q-9 36 -23.5 50t-42.5 14h-357v-357q0 -28 14 -43t50 -24v-29h-324v30q36 8 50 23t14 43v357h-357q-28 0 -43 -14 t-24 -50h-29z" />
<glyph unicode="," horiz-adv-x="628" d="M150 142q0 74 40.5 118t107.5 44q90 0 138 -74q42 -67 42 -160q0 -220 -233 -384l-48 64q82 54 118 105t51 132q-48 -11 -70 -11q-66 0 -106 46t-40 120z" />
<glyph unicode="-" horiz-adv-x="455" d="M0 387v346h32q9 -36 25.5 -50.5t46.5 -14.5h246q31 0 47 14t26 51h32v-346h-32q-10 36 -26 50t-47 14h-246q-30 0 -46.5 -14.5t-25.5 -49.5h-32z" />
<glyph unicode="." horiz-adv-x="628" d="M150 141q0 67 47.5 114.5t116.5 48.5q69 0 116.5 -48t47.5 -117q0 -67 -48.5 -115t-115.5 -48q-68 0 -116 48.5t-48 116.5z" />
<glyph unicode="/" horiz-adv-x="1555" d="M68 0v32q52 8 81 31.5t98 112.5l788 1016q44 56 44 81q0 44 -60 60v32h468v-32q-51 -7 -74.5 -26.5t-95.5 -114.5l-804 -1040q-37 -47 -37 -68q0 -40 60 -52v-32h-468z" />
<glyph unicode="0" d="M84 683q0 244 112 422q88 141 240 218q126 64 293 66q269 0 447 -175q200 -197 200 -541q0 -108 -30 -219t-82 -193q-91 -144 -240 -219q-132 -66 -294 -66q-269 0 -446 176q-85 85 -132 192q-68 158 -68 339zM389 691q0 -194 87 -325q94 -141 254 -141q161 0 254 141 q87 131 87 319q0 203 -87 331q-93 139 -255 141q-159 0 -253 -141q-87 -131 -87 -325z" />
<glyph unicode="1" d="M441 872v363h32q11 -37 21 -48t31 -11q10 0 28 4l86 22v59q0 30 -14 46t-50 26v32h417v-32q-36 -10 -50 -25.5t-14 -46.5v-1156q0 -31 14 -47t50 -26v-32h-417v32q36 10 50 26t14 47v864l-94 -23q-33 -8 -47.5 -23t-24.5 -51h-32z" />
<glyph unicode="2" d="M82 0q0 128 29 211q59 168 220 285q83 60 271 146l169 77q119 55 171.5 113.5t52.5 138.5q0 91 -62.5 138.5t-181.5 47.5q-145 0 -270 -71q-121 -68 -121 -140q0 -17 16 -63l-22 -23l-266 287l24 22q38 -18 56 -18q16 0 28 7t49 40q220 191 543 191q232 0 371 -114 q141 -116 141 -309q0 -190 -135 -314q-89 -81 -239 -148l-154 -69q-24 -12 -109 -46q-104 -42 -146 -68.5t-78 -74.5h835q31 0 47 14t26 50h32v-374h-32q-10 36 -26 50t-47 14h-1063q-51 0 -69 -12t-27 -52h-32q-1 50 -1 64z" />
<glyph unicode="3" d="M43 106l160 369l30 -13q-5 -12 -5 -21q0 -54 55 -99q71 -58 203 -95.5t265 -37.5q126 0 216 41q114 52 114 163q0 96 -81 145t-239 49q-96 0 -132.5 -14t-46.5 -55h-32v335h32q12 -45 44.5 -58.5t127.5 -13.5q148 0 227 52q69 44 69 127q0 85 -77 131t-220 46 q-202 0 -355 -89q-74 -44 -74 -92q0 -19 13 -45l-25 -20l-230 283l25 20q37 -17 55 -17q20 0 54 23q251 169 561 169q216 0 364 -85q85 -49 133 -127q49 -81 49 -181q0 -179 -172 -280q227 -85 227 -302q0 -222 -195 -337q-171 -101 -428 -101q-273 0 -495 107 q-93 45 -120 45q-25 0 -68 -37z" />
<glyph unicode="4" d="M90 165v290l678 762q44 51 44 73q0 35 -51 43v32h535v-32q-36 -10 -50 -26t-14 -46v-806h75q31 0 47 14t26 49h32v-353h-32q-10 36 -26 50.5t-47 14.5h-75v-125q0 -31 14 -47t50 -26v-32h-417v32q36 10 50 26t14 47v125h-719q-58 0 -76.5 -11.5t-26.5 -53.5h-31zM416 455 h527v599z" />
<glyph unicode="5" d="M57 162l241 319l26 -18q-7 -26 -7 -44q0 -51 81 -102q168 -108 370 -108q151 0 238 63q94 69 94 189q0 111 -90.5 177t-242.5 66q-112 0 -211.5 -36t-99.5 -77q0 -14 14 -40l-24 -21l-352 354l21 24q8 -1 13 -1q48 0 48 61v289q0 33 -14.5 50t-49.5 26v32h1082 q31 0 46.5 14t26.5 51h32v-361h-32q-11 36 -26.5 49.5t-46.5 13.5h-779v-294q165 82 383 82q285 0 448 -133q151 -123 151 -325q0 -154 -91 -276q-156 -210 -531 -210q-242 0 -417 86q-43 21 -140 78q-42 25 -76 25q-19 0 -59 -23z" />
<glyph unicode="6" d="M96 669q0 319 197 516q204 204 529 204q114 0 206.5 -21t212.5 -74q42 -19 66 -19q17 0 33 13q13 11 19 15l27 -17l-176 -327l-28 14q5 26 5 39q0 40 -64 80q-54 34 -137 55t-161 21q-166 0 -284 -87q-77 -57 -114 -137.5t-47 -210.5q101 90 204.5 129.5t238.5 39.5 q218 0 374 -104q87 -58 138 -152q48 -91 48 -200q0 -214 -179 -344q-173 -126 -442 -126q-290 0 -453 146q-108 96 -162 246q-51 144 -51 301zM441 438q0 -99 80 -162q95 -75 250 -75t250 75q80 63 80 159q0 101 -80 164q-94 74 -252 75q-152 0 -248 -75q-80 -62 -80 -161z " />
<glyph unicode="7" d="M85 1077v353h32q10 -37 26 -51t47 -14h1080q31 0 47 14t26 51h32v-261l-614 -1012q-36 -59 -36 -76q0 -30 56 -49v-32h-489v32q43 12 71.5 38t66.5 87l611 983h-851q-31 0 -47 -13.5t-26 -49.5h-32z" />
<glyph unicode="8" d="M75 408q0 243 305 322q-246 97 -246 292q0 138 112 235q152 132 484 132q232 0 388 -70q91 -41 150 -118t59 -179q0 -195 -246 -292q305 -79 305 -321q0 -163 -129 -284q-158 -149 -526 -149q-251 0 -414 73q-104 47 -173 145q-69 100 -69 214zM381 413 q0 -95 93.5 -149.5t255.5 -54.5q176 0 275 66q75 51 75 136q0 98 -92 152t-260 55q-171 0 -272 -66q-75 -50 -75 -139zM422 1010q0 -76 83 -120t225 -44t225.5 44t83.5 118q0 79 -81.5 123t-229.5 44q-141 0 -223.5 -44.5t-82.5 -120.5z" />
<glyph unicode="9" d="M75 79l177 327l28 -14q-6 -25 -6 -39q0 -40 64 -80q53 -33 137 -54.5t160 -21.5q167 0 285 87q77 58 114.5 138t46.5 210q-101 -90 -204.5 -129.5t-239.5 -39.5q-217 0 -372 103q-88 59 -138 153q-48 91 -48 199q0 216 179 345q174 126 440 126q290 0 454 -146 q109 -96 162 -246q51 -144 51 -301q0 -319 -197 -516q-204 -204 -529 -204q-114 0 -205 20.5t-214 74.5q-42 19 -65 19q-17 0 -34 -13q-13 -11 -19 -15zM361 927q0 -98 80 -161q95 -75 249 -75q155 0 250 75q80 63 80 159q0 101 -80 164q-93 74 -250 75q-153 0 -249 -75 q-80 -62 -80 -162z" />
<glyph unicode=":" horiz-adv-x="628" d="M150 141q0 67 47.5 114.5t116.5 48.5q69 0 116.5 -48t47.5 -117q0 -67 -48.5 -115t-115.5 -48q-68 0 -116 48.5t-48 116.5zM150 981q0 67 47.5 114.5t116.5 48.5q69 0 116.5 -48t47.5 -117q0 -67 -48.5 -115t-115.5 -48q-68 0 -116 48.5t-48 116.5z" />
<glyph unicode=";" horiz-adv-x="628" d="M150 142q0 74 40.5 118t107.5 44q90 0 138 -74q42 -67 42 -160q0 -220 -233 -384l-48 64q82 54 118 105t51 132q-48 -11 -70 -11q-66 0 -106 46t-40 120zM150 981q0 67 47.5 114.5t116.5 48.5q69 0 116.5 -48t47.5 -117q0 -67 -48.5 -115t-115.5 -48q-68 0 -116 48.5 t-48 116.5z" />
<glyph unicode="&#x3c;" horiz-adv-x="1024" d="M68 562v243l887 461v-289l-580 -294l580 -295v-288z" />
<glyph unicode="=" horiz-adv-x="1570" d="M234 288v324h30q8 -35 23 -49t43 -14h910q28 0 42.5 13.5t23.5 49.5h30v-324h-30q-9 37 -23.5 51t-42.5 14h-910q-29 0 -43 -14t-24 -51h-29zM234 753v324h30q8 -36 23 -50t43 -14h910q28 0 42.5 14t23.5 50h30v-324h-30q-9 36 -23.5 50t-42.5 14h-910q-29 0 -43 -14 t-24 -50h-29z" />
<glyph unicode="&#x3e;" horiz-adv-x="1024" d="M69 100v288l580 295l-580 294v289l887 -461v-243z" />
<glyph unicode="?" horiz-adv-x="1000" d="M41 1232l26 18q30 -15 42 -15q23 0 86 41q94 62 167.5 87.5t158.5 25.5q138 0 231 -65q125 -87 125 -238q0 -79 -40 -151t-138 -168q-68 -67 -88.5 -105.5t-20.5 -99.5q0 -27 12 -39t46 -21v-32h-329v32q40 13 53 33.5t24 91.5q11 64 30.5 101.5t81.5 115.5 q56 70 75.5 108.5t19.5 80.5q0 65 -42.5 104.5t-113.5 39.5q-106 0 -181 -76q-35 -36 -35 -69q0 -11 9 -34l-27 -18zM336 141q0 67 47.5 114.5t116.5 48.5q69 0 116.5 -48t47.5 -117q0 -67 -48.5 -115t-115.5 -48q-68 0 -116 48.5t-48 116.5z" />
<glyph unicode="@" horiz-adv-x="1682" d="M109 668q0 219 112 390q120 183 343 269q154 59 320 59q300 0 504 -180q186 -163 186 -414q0 -227 -144 -358q-96 -87 -193 -87q-75 0 -121.5 26.5t-86.5 92.5q-59 -44 -144.5 -70t-175.5 -26q-123 0 -199 60q-84 68 -84 183q0 130 94 234q62 69 155.5 108t196.5 39 q140 0 244 -98l22 72h136l-114 -459q-3 -10 -3 -21q0 -45 62 -45q56 0 118 49q40 31 64 104.5t24 160.5q0 189 -132 314q-88 84 -206 128q-107 39 -212 39q-163 0 -319 -87q-158 -89 -236 -223q-63 -109 -63 -242q0 -149 77 -283q159 -276 532 -276q71 0 164 14.5t151 35.5 q24 8 24 31q0 7 -1 16l24 6l67 -234l-24 -6q-25 48 -54 48q-12 0 -35 -6q-204 -53 -341 -53q-295 0 -500 177q-232 199 -232 512zM581 644q-3 -65 42.5 -106t121.5 -41q130 0 214 61q84 62 84 143q0 79 -52 122t-149 44q-100 0 -172 -55q-84 -65 -89 -168z" />
<glyph unicode="A" horiz-adv-x="1666" d="M7 0v32q40 8 61 28t48 78l502 1049q24 50 24 80q0 46 -58 66v32h484v-32q-59 -17 -59 -59q0 -29 19 -66l520 -1052q33 -67 58 -91.5t67 -32.5v-32h-502v32q66 11 66 62q0 21 -20 62l-94 192h-620l-92 -192q-19 -40 -19 -63q0 -44 67 -61v-32h-452zM592 535h445l-221 486z " />
<glyph unicode="B" horiz-adv-x="1651" d="M123 0v32q36 10 50 26t14 47v1155q0 31 -14 47t-50 26v32h924q133 0 214 -20t142 -68q121 -95 121 -274q0 -200 -185 -288q230 -87 230 -322q0 -187 -134 -293q-68 -53 -157.5 -76.5t-221.5 -23.5h-933zM485 225h506q141 0 203 39q71 45 71 147q0 101 -71 147 q-61 39 -203 39h-506v-372zM485 822h523q119 0 166 35q53 40 53 124q0 86 -50 122.5t-169 36.5h-523v-318z" />
<glyph unicode="C" horiz-adv-x="1718" d="M91 683q0 248 145 431q218 275 659 275q162 0 278 -34t290 -134q83 -47 101 -47t46 26l26 -18l-190 -285l-27 18q2 16 2 27q0 29 -25 54.5t-89 61.5q-177 100 -375 100q-234 0 -373 -117q-164 -137 -164 -358t164 -358q139 -117 373 -117q198 0 375 100q64 36 89 61.5 t25 54.5q0 11 -2 26l27 19l190 -285l-26 -18q-28 26 -46 26t-101 -48q-172 -99 -289.5 -133.5t-279.5 -34.5q-323 0 -530 153q-122 89 -192 221q-81 151 -81 333z" />
<glyph unicode="D" horiz-adv-x="1717" d="M123 0v32q36 10 50 26t14 47v1155q0 31 -14 47t-50 26v32h761q250 0 384 -57q192 -83 284 -274q73 -150 73 -351q0 -353 -217 -538q-91 -78 -213 -111.5t-311 -33.5h-761zM485 225h374q179 0 269 49q193 105 193 409q0 220 -104 337q-58 65 -140 92.5t-218 27.5h-374 v-915z" />
<glyph unicode="E" horiz-adv-x="1556" d="M123 0v32q36 10 50 26t14 47v1155q0 31 -14 47t-50 26v32h1216q30 0 46 14.5t26 50.5h32v-353h-32q-10 35 -26 49t-46 14h-854v-324h554q30 0 46 14t26 50h32v-345h-32q-10 35 -26 49.5t-46 14.5h-554v-374h878q30 0 46 14t26 50h32v-353h-32q-10 36 -26 50t-46 14h-1240 z" />
<glyph unicode="F" horiz-adv-x="1490" d="M123 0v32q36 10 50 26t14 47v1155q0 31 -14 47t-50 26v32h1208q30 0 46 14t26 51h32v-353h-32q-10 36 -26 49.5t-46 13.5h-846v-326h553q31 0 47 14.5t26 50.5h32v-345h-32q-10 35 -26 49t-47 14h-553v-492q0 -31 14.5 -47.5t49.5 -25.5v-32h-426z" />
<glyph unicode="G" horiz-adv-x="1757" d="M91 683q0 328 234 522q222 184 590 184q117 0 220.5 -21.5t235.5 -72.5q68 -27 97 -27q21 0 49 23l28 -15l-160 -327l-29 15q-1 33 -9 47.5t-36 35.5q-61 46 -179 78.5t-223 32.5q-214 0 -355 -120q-159 -136 -159 -359q0 -216 155 -349q142 -122 374 -122q113 0 223 26 t190 71v186h-337q-31 0 -46.5 -14t-25.5 -50h-32v318h32q10 -37 25.5 -50.5t46.5 -13.5h648v-32q-36 -10 -50.5 -26t-14.5 -47v-280q0 -31 14 -47t51 -26v-25q-389 -222 -754 -222q-331 0 -540 157q-263 198 -263 550z" />
<glyph unicode="H" horiz-adv-x="1757" d="M123 0v32q36 10 50 26t14 46v1157q0 30 -14 46t-50 26v32h426v-32q-36 -9 -50 -25.5t-14 -46.5v-440h787v440q0 30 -14 46.5t-50 25.5v32h426v-32q-36 -10 -50 -26t-14 -46v-1157q0 -30 14 -46t50 -26v-32h-426v32q35 9 49.5 25.5t14.5 46.5v492h-787v-492 q0 -30 14.5 -46.5t49.5 -25.5v-32h-426z" />
<glyph unicode="I" horiz-adv-x="671" d="M123 0v32q36 10 50 26t14 47v1156q0 30 -14 46t-50 26v32h426v-32q-36 -9 -50 -25.5t-14 -46.5v-1156q0 -31 14.5 -47.5t49.5 -25.5v-32h-426z" />
<glyph unicode="J" horiz-adv-x="1238" d="M6 52l128 346l30 -11q-1 -12 -1 -20q0 -41 51 -76q54 -35 144.5 -59t173.5 -24q134 0 195 61q31 31 42 73.5t11 128.5v789q0 31 -14 47t-50 26v32h426v-32q-36 -10 -50 -26t-14 -47v-804q0 -198 -55 -286q-58 -93 -172 -143.5t-266 -50.5q-87 0 -151 11.5t-209 54.5 q-90 26 -128 26q-33 0 -61 -28z" />
<glyph unicode="K" horiz-adv-x="1642" d="M123 0v32q36 10 50 26t14 47v1156q0 30 -14 46t-50 26v32h426v-32q-36 -9 -50 -25.5t-14 -46.5v-478l562 459q39 32 39 51q0 29 -58 40v32h558v-32q-35 -7 -50 -16t-87 -68l-77 -64l-464 -373l526 -633q73 -88 105.5 -113.5t81.5 -33.5v-32h-533v32q53 11 53 38 q0 14 -48 74l-403 494l-205 -167v-366q0 -31 14.5 -47.5t49.5 -25.5v-32h-426z" />
<glyph unicode="L" horiz-adv-x="1449" d="M123 0v32q36 10 50 26t14 47v1155q0 31 -14 47t-50 26v32h426v-32q-36 -9 -50 -25.5t-14 -47.5v-1035h839q31 0 47 14t26 50h32v-353h-32q-10 36 -26 50t-47 14h-1201z" />
<glyph unicode="M" horiz-adv-x="1979" d="M123 0v32q36 10 50 26t14 47v1156q0 30 -14 46t-50 26v32h526v-32q-47 -12 -47 -55q0 -20 14 -46l372 -686l377 674q25 46 25 67q0 41 -50 46v32h516v-32q-36 -10 -50 -26t-14 -46v-1156q0 -31 14 -47t50 -26v-32h-426v32q35 9 49.5 25.5t14.5 47.5v838l-531 -924 l-503 924v-838q0 -31 14 -47t50 -26v-32h-401z" />
<glyph unicode="N" horiz-adv-x="1785" d="M123 0v32q36 10 50 26t14 47v1156q0 30 -14 46t-50 26v32h464v-32q-43 -11 -43 -46q0 -24 28 -53l753 -783v810q0 30 -14 46t-50 26v32h401v-32q-36 -10 -50 -26t-14 -46v-1156q0 -31 14 -47t50 -26v-32h-430v32q42 9 42 43q0 20 -49 70l-765 790v-830q0 -31 14 -47 t50 -26v-32h-401z" />
<glyph unicode="O" horiz-adv-x="1752" d="M91 683q0 205 105 375q201 325 677 331q357 0 566 -193q221 -202 221 -522q0 -196 -106 -366q-207 -332 -679 -332q-354 0 -563 193q-112 103 -170 247q-51 127 -51 267zM395 683q0 -222 154 -359q130 -116 327 -116t326 116q77 69 118 169q36 89 36 184q0 232 -154 365 q-131 114 -328 116q-195 0 -325 -116q-154 -137 -154 -359z" />
<glyph unicode="P" horiz-adv-x="1567" d="M123 0v32q36 10 50 26t14 46v1156q0 31 -14 47t-50 26v32h852q149 0 236.5 -20t154.5 -69q69 -51 108 -134q39 -86 39 -182q0 -138 -74 -242q-64 -89 -169.5 -126.5t-294.5 -37.5h-490v-450q0 -30 14.5 -46.5t49.5 -25.5v-32h-426zM485 779h455q136 0 191 29 q35 19 56.5 60.5t21.5 91.5q0 49 -21.5 90.5t-56.5 60.5q-54 29 -191 29h-455v-361z" />
<glyph unicode="Q" horiz-adv-x="1752" d="M91 683q0 205 106 374q206 332 679 332q355 0 563 -193q112 -103 170 -246q51 -127 51 -267q0 -301 -213 -507l106 -110q36 -38 48.5 -46.5t29.5 -8.5q14 0 46 13l21 -24l-292 -266l-22 24q20 33 20 49q0 18 -56 85l-118 144q-148 -60 -360 -60q-349 0 -558 193 q-112 103 -170 247q-51 127 -51 267zM395 683q0 -222 154 -359q130 -116 328 -116q94 0 184 32q-11 14 -19 24q-106 136 -250 170v28q72 56 164 56q66 0 131.5 -32t162.5 -111q106 132 106 309q0 221 -154 358q-129 116 -326 116q-198 0 -327 -116q-154 -138 -154 -359z" />
<glyph unicode="R" horiz-adv-x="1656" d="M123 0v32q36 10 50 26t14 46v1156q0 31 -14 47t-50 26v32h854q156 0 247.5 -18t159.5 -63q79 -52 118 -141q37 -86 37 -184q0 -334 -371 -391l265 -377q70 -99 102.5 -127.5t79.5 -31.5v-32h-494v32q51 8 51 36q0 18 -47 87l-276 402h-364v-453q0 -30 14.5 -46.5 t49.5 -25.5v-32h-426zM485 782h460q102 0 144 6t77 25q76 41 76 148t-76 148q-36 20 -76.5 25.5t-144.5 5.5h-460v-358z" />
<glyph unicode="S" horiz-adv-x="1475" d="M82 125l148 335l29 -14v-13q0 -45 43 -83q65 -58 201 -100t258 -42q133 0 227 45q52 25 83 66.5t31 86.5q0 68 -73 97q-51 20 -206 37l-154 16q-155 16 -219 30.5t-128 46.5q-91 45 -143 135q-47 81 -47 186q0 173 119 286q156 149 468 149q131 0 244 -26.5t282 -97.5 q58 -23 71 -23q21 0 49 23l28 -15l-163 -321l-28 16q1 10 1 16q0 34 -58 73q-178 124 -418 124q-106 0 -187 -26q-59 -20 -95.5 -60t-36.5 -87q0 -77 93 -105q48 -14 206 -30l157 -16q140 -15 226.5 -41t153.5 -73q68 -49 107.5 -129t39.5 -171q0 -144 -93 -256 q-84 -102 -261 -151q-132 -37 -283 -37q-271 0 -535 130q-56 26 -67 26q-13 0 -41 -22z" />
<glyph unicode="T" horiz-adv-x="1381" d="M14 1077v353h32q11 -37 26.5 -51t45.5 -14h1145q31 0 47 14t26 51h32v-353h-32q-10 36 -26 49.5t-47 13.5h-423v-1035q0 -31 14 -47t50 -26v-32h-426v32q36 10 50 26t14 47v1035h-424q-30 0 -46 -13.5t-26 -49.5h-32z" />
<glyph unicode="U" horiz-adv-x="1671" d="M96 1333v32h427v-32q-36 -9 -50.5 -25.5t-14.5 -47.5v-681q0 -118 13 -174.5t49 -94.5q96 -102 328 -102q233 0 329 102q35 38 48 94.5t13 174.5v681q0 31 -14 47t-50 26v32h402v-32q-36 -10 -50 -26t-14 -47v-765q0 -217 -80 -325q-144 -194 -595 -194q-326 0 -499 105 q-101 61 -140 166q-38 104 -38 248v765q0 31 -14 47t-50 26z" />
<glyph unicode="V" horiz-adv-x="1577" d="M-7 1333v32h485v-32q-66 -13 -66 -56q0 -28 23 -79l362 -802l362 802q23 51 23 79q0 43 -66 56v32h467v-32q-44 -6 -61 -25t-59 -110l-473 -1021q-30 -65 -30 -85q0 -51 63 -60v-32h-470v32q63 9 63 61q0 19 -30 84l-473 1021q-42 91 -59 110t-61 25z" />
<glyph unicode="W" horiz-adv-x="2311" d="M-20 1333v32h474v-32q-63 -14 -63 -59q0 -23 16 -66l270 -722l292 726q19 47 19 62q0 46 -67 59v32h496v-32q-68 -18 -68 -65q0 -16 17 -60l278 -725l269 713q21 53 21 79q0 44 -72 58v32h469v-32q-50 -14 -69 -36t-50 -101l-391 -1007q-28 -72 -28 -96q0 -49 71 -61v-32 h-445v32q70 11 70 67q0 19 -31 90l-301 772l-312 -788q-27 -60 -27 -76q0 -46 74 -65v-32h-439v32q67 13 67 68q0 15 -28 89l-391 1007q-29 75 -52.5 101.5t-68.5 35.5z" />
<glyph unicode="X" horiz-adv-x="1541" d="M7 0v32q46 5 71.5 26t102.5 118l412 520l-379 496q-74 97 -98.5 116.5t-78.5 24.5l-1 32h548v-32q-60 -16 -60 -61q0 -24 43 -80l214 -275l217 275q48 61 48 86q0 44 -69 55v32h533v-32q-48 -5 -68.5 -21.5t-105.5 -119.5l-393 -481l413 -535q68 -88 97.5 -112t81.5 -32 v-32h-541v32q60 12 60 52q0 21 -36 68l-263 338l-250 -327q-41 -53 -41 -75q0 -50 67 -56v-32h-524z" />
<glyph unicode="Y" horiz-adv-x="1460" d="M-27 1333v32h539v-32q-67 -11 -67 -62q0 -18 41 -79l246 -366l253 366q41 59 41 80q0 23 -18 39.5t-49 21.5v32h528v-32q-45 -6 -77.5 -33.5t-89.5 -107.5l-441 -621v-466q0 -31 14.5 -47t50.5 -26v-32h-429v32q36 10 51 26t15 47v466l-441 621q-57 80 -89.5 107.5 t-77.5 33.5z" />
<glyph unicode="Z" horiz-adv-x="1462" d="M82 0v70l794 1070h-683q-31 0 -47 -13.5t-26 -49.5h-32v353h32q11 -37 26.5 -51t46.5 -14h1176v-57l-803 -1083h710q30 0 46 14t26 50h32v-353h-32q-10 36 -26 50t-46 14h-1194z" />
<glyph unicode="[" horiz-adv-x="683" d="M134 -85q35 9 49.5 24.5t14.5 44.5v1396q0 29 -14.5 45t-49.5 25v25h430q32 0 48 14t27 50h27v-268h-27q-10 36 -26.5 50.5t-48.5 14.5h-147v-1306h134q42 0 59.5 13t28.5 52h27v-268h-27q-10 35 -27 49.5t-48 14.5l-430 -1v25z" />
<glyph unicode="\" horiz-adv-x="1555" d="M68 1333v32h467v-32q-60 -16 -60 -61q0 -24 44 -80l788 -1016q70 -89 99 -112.5t80 -31.5v-32h-468v32q60 12 60 52q0 21 -36 68l-804 1040q-72 95 -95.5 114.5t-74.5 26.5z" />
<glyph unicode="]" horiz-adv-x="683" d="M16 95h27q11 -39 28.5 -52t59.5 -13h134v1306h-147q-32 0 -48.5 -14.5t-26.5 -50.5h-27v268h27q11 -36 27 -50t48 -14h430v-25q-35 -9 -49.5 -25t-14.5 -45v-1396q0 -29 14.5 -44t49.5 -25v-25l-430 1q-31 0 -48 -14.5t-27 -49.5h-27v268z" />
<glyph unicode="^" horiz-adv-x="1024" d="M35 723l316 650h323l316 -650h-259l-219 453l-219 -453h-258z" />
<glyph unicode="_" horiz-adv-x="1024" d="M0 -119h1024v-174h-1024v174z" />
<glyph unicode="`" horiz-adv-x="1024" d="M246 1506v27h304v-27q-28 -3 -28 -19q0 -6 4 -15l66 -163q9 -22 19 -29t34 -7v-27h-217v27h5q20 0 20 16q0 9 -6 16l-142 174q-20 26 -59 27z" />
<glyph unicode="a" horiz-adv-x="1421" d="M5 0v28q38 6 56.5 23t43.5 67l409 828q23 47 23 82q0 41 -56 64v28h435v-28q-55 -22 -55 -68q0 -33 25 -81l424 -803q35 -66 55 -85.5t61 -27.5v-27h-457v27q65 11 65 61q0 31 -25 77l-62 115h-515l-58 -122q-21 -44 -21 -69q0 -48 64 -61v-28h-412zM509 437h357 l-183 359z" />
<glyph unicode="b" horiz-adv-x="1387" d="M98 0v28q35 9 49.5 26t14.5 48v916q0 31 -14 47t-50 27v28h784q206 0 302 -74q102 -78 102 -214q0 -80 -35.5 -131t-123.5 -99q83 -38 122 -76q73 -72 73 -194q0 -164 -124 -253q-110 -79 -303 -79h-797zM430 203h417q202 0 202 147t-202 147h-417v-294zM430 700h407 q96 0 136 24.5t40 84.5q0 59 -39.5 83.5t-136.5 24.5h-407v-217z" />
<glyph unicode="c" horiz-adv-x="1427" d="M73 560q0 197 114 348q179 236 549 236q137 0 243.5 -31t242.5 -111q62 -37 79 -37q14 0 38 17l23 -18l-169 -245l-22 16q1 12 2 15q1 9 1 13q0 49 -135 111q-128 59 -258 59q-182 0 -300 -96q-135 -108 -135 -277q0 -170 135 -278q119 -95 300 -95q142 0 283 71 q110 56 110 98q0 2 -3 28l22 17l169 -246l-23 -17q-24 17 -38 17q-17 0 -79 -37q-137 -80 -242 -111t-242 -31q-274 0 -447 131q-98 75 -156 188q-62 122 -62 265z" />
<glyph unicode="d" horiz-adv-x="1441" d="M98 0v28q35 9 49.5 26t14.5 48v916q0 31 -14 47t-50 27v28h657q205 0 323 -51q166 -72 239 -238q51 -116 51 -271q0 -287 -171 -435q-77 -66 -181.5 -95.5t-260.5 -29.5h-657zM430 203h286q197 0 286 90q93 94 93 267t-93 267q-46 47 -114 68.5t-172 21.5h-286v-714z" />
<glyph unicode="e" horiz-adv-x="1314" d="M98 0v28q35 9 49.5 26t14.5 48v916q0 31 -14 47t-50 27v28h1012q32 0 48.5 14t26.5 50h27v-332h-27q-10 37 -26.5 51t-48.5 14h-680v-246h422q31 0 47.5 14t27.5 50h27v-324h-27q-10 36 -26.5 50.5t-48.5 14.5h-422v-273h711q31 0 47.5 14t26.5 51h28v-332h-28 q-9 35 -26 49.5t-48 14.5h-1043z" />
<glyph unicode="f" horiz-adv-x="1248" d="M98 0v28q35 9 49.5 26t14.5 48v916q0 31 -14 47t-50 27v28h1004q32 0 48.5 14t26.5 50h27v-332h-27q-10 36 -26.5 50.5t-48.5 14.5h-672v-246h422q32 0 48 14t27 50h27v-324h-27q-10 36 -26.5 50.5t-48.5 14.5h-422v-374q0 -31 14 -47.5t50 -27.5v-27h-396z" />
<glyph unicode="g" horiz-adv-x="1474" d="M73 554q0 198 122 352q190 238 562 238q163 0 372 -72q83 -28 97 -28q17 0 40 16l24 -13l-133 -282l-24 12v6q0 37 -74 76q-137 73 -294 73q-181 0 -297 -99q-122 -104 -122 -280q0 -165 111 -264q114 -101 320 -101q196 0 331 73v171h-255q-32 0 -48.5 -14t-26.5 -50 h-27v296h27q10 -35 26.5 -49t48.5 -14h533v-29q-35 -10 -49.5 -29t-14.5 -54v-236q0 -31 14.5 -48t49.5 -27v-23q-324 -179 -646 -179q-278 0 -450 131q-93 72 -150 178q-67 126 -67 269z" />
<glyph unicode="h" horiz-adv-x="1486" d="M98 0v28q35 9 49.5 26t14.5 48v916q0 31 -14 47t-50 27v28h396v-28q-36 -10 -50 -26.5t-14 -47.5v-328h625v328q0 31 -13.5 47t-50.5 27v28h396v-28q-36 -10 -50 -26.5t-14 -47.5v-916q0 -31 14 -47.5t50 -27.5v-27h-396v28q35 9 49.5 26t14.5 48v385h-625v-385 q0 -31 14 -47.5t50 -27.5v-27h-396z" />
<glyph unicode="i" horiz-adv-x="593" d="M98 0v28q35 9 49.5 26t14.5 48v916q0 31 -14 47t-50 27v28h396v-28q-36 -10 -50 -26.5t-14 -47.5v-916q0 -31 14 -47.5t50 -27.5v-27h-396z" />
<glyph unicode="j" horiz-adv-x="1035" d="M5 30l99 305l26 -9q0 -36 22 -57q32 -31 112.5 -56t151.5 -25q107 0 158.5 48t51.5 148v634q0 31 -14 47t-50 27v28h396v-28q-36 -10 -50 -26.5t-14 -47.5v-639q0 -184 -62 -264q-51 -66 -151 -102.5t-227 -36.5q-140 0 -346 66q-19 6 -31 6q-23 0 -45 -26z" />
<glyph unicode="k" horiz-adv-x="1403" d="M98 0v28q35 9 49.5 26t14.5 48v916q0 31 -14 47t-50 27v28h396v-28q-36 -10 -50 -26.5t-14 -47.5v-367l421 336q47 37 47 65q0 30 -58 40v28h504v-27q-38 -6 -63.5 -23t-126.5 -105l-378 -301l416 -478q80 -93 114.5 -121t79.5 -38v-27h-490v27q55 13 55 40 q0 10 -6.5 19.5t-46.5 55.5l-309 369l-159 -130v-279q0 -31 14 -47.5t50 -27.5v-27h-396z" />
<glyph unicode="l" horiz-adv-x="1176" d="M98 0v28q35 9 49.5 26t14.5 48v916q0 31 -14 47t-50 27v28h396v-28q-36 -10 -50 -26.5t-14 -47.5v-815h627q32 0 48 14t27 51h27v-332h-27q-10 36 -26.5 50t-48.5 14h-959z" />
<glyph unicode="m" horiz-adv-x="1677" d="M98 0v28q35 9 49.5 26t14.5 48v916q0 31 -14 47.5t-50 26.5v28h473v-28q-47 -15 -47 -57q0 -41 34 -100l279 -471l281 464q48 79 48 112q0 41 -49 52v28h461v-28q-36 -10 -50 -26.5t-14 -47.5v-916q0 -31 14 -48t50 -27v-27h-396v28q35 9 49.5 26t14.5 48v634l-432 -701 l-408 701v-634q0 -31 14 -47.5t50 -27.5v-27h-372z" />
<glyph unicode="n" horiz-adv-x="1523" d="M98 0v28q35 9 49.5 26t14.5 48v916q0 31 -14 47t-50 27v28h430v-28q-44 -11 -44 -39q0 -24 32 -56l600 -596v617q0 31 -14 47.5t-50 26.5v28h372v-28q-36 -10 -50 -26.5t-14 -47.5v-916q0 -31 14 -47.5t50 -27.5v-27h-401v27q44 9 44 37q0 14 -12 29t-55 59l-594 586 v-636q0 -31 14.5 -48t49.5 -27v-27h-372z" />
<glyph unicode="o" horiz-adv-x="1460" d="M73 560q0 287 214 448q177 133 441 136q267 0 445 -136q213 -164 213 -457q0 -275 -213 -439q-176 -136 -443 -136t-443 136q-214 164 -214 448zM346 560q0 -156 101 -260q109 -112 283 -112q173 0 282 112q101 103 101 255q0 165 -101 266q-110 109 -283 111 q-173 0 -282 -111q-101 -104 -101 -261z" />
<glyph unicode="p" horiz-adv-x="1335" d="M98 0v28q35 9 49.5 26t14.5 48v916q0 31 -14 47t-50 27v28h730q217 0 327 -65q64 -38 100 -108t36 -157q0 -167 -114 -248.5t-349 -81.5h-398v-358q0 -31 14 -47.5t50 -27.5v-27h-396zM430 663h382q105 0 146 20q60 29 60 107t-60 107q-40 20 -146 20h-382v-254z" />
<glyph unicode="q" horiz-adv-x="1480" d="M73 560q0 283 214 448q177 136 443 136q267 0 443 -136q214 -165 214 -448q0 -252 -172 -413l100 -107q39 -41 67 -41h1q15 1 36 18l18 -20l-242 -222l-18 20q18 21 18 38t-46 70l-113 130q-134 -57 -307 -57q-266 0 -442 136q-214 165 -214 448zM346 560 q0 -156 101 -260q109 -112 282 -112q77 0 153 27q-111 138 -218 164v17q65 46 130 46q108 0 243 -113q77 97 77 233q0 155 -101 259q-108 111 -283 111q-174 0 -283 -111q-101 -104 -101 -261z" />
<glyph unicode="r" horiz-adv-x="1406" d="M98 0v28q35 9 49.5 26t14.5 48v916q0 31 -14 47t-50 27v28h734q143 0 218 -14.5t134 -52.5q121 -79 121 -258q0 -136 -74.5 -212.5t-240.5 -110.5l212 -296q58 -82 92.5 -111.5t78.5 -37.5v-27h-470v27q52 14 52 45q0 22 -32 67l-224 321h-269v-358q0 -31 14 -47.5 t50 -27.5v-27h-396zM430 663h404q92 0 136 20q62 27 62 107q0 71 -43.5 99t-154.5 28h-404v-254z" />
<glyph unicode="s" horiz-adv-x="1261" d="M66 76l115 274l25 -10v-8q0 -26 20 -44q50 -44 173 -76.5t243 -32.5q106 0 190 28q104 34 104 110q0 61 -72 85q-48 16 -173 27l-157 13q-127 10 -194 26t-117 47q-64 40 -100 109t-36 151q0 184 158 281q144 88 356 88q115 0 214.5 -25.5t237.5 -89.5q41 -19 57 -19 t41 22l24 -13l-135 -261l-24 13q0 33 -21 52q-57 51 -168 84t-225 33q-97 0 -172 -27q-108 -39 -108 -113q0 -49 52 -69.5t201 -32.5l158 -12q207 -16 315 -80q60 -36 99 -96q49 -75 49 -169q0 -171 -154 -270q-147 -95 -398 -95q-253 0 -489 107q-16 7 -27 7q-20 0 -37 -24 z" />
<glyph unicode="t" horiz-adv-x="1165" d="M16 852v332h28q9 -35 25.5 -49.5t48.5 -14.5h928q32 0 48.5 14t26.5 50h27v-332h-27q-10 36 -26.5 50.5t-48.5 14.5h-330v-815q0 -31 14 -47.5t50 -27.5v-27h-396v28q35 9 49.5 26t14.5 48v815h-330q-32 0 -48.5 -14.5t-26.5 -50.5h-27z" />
<glyph unicode="u" horiz-adv-x="1414" d="M76 1092v28h397v-28q-37 -10 -51 -26.5t-14 -47.5v-539q0 -94 16.5 -144t57.5 -82q82 -65 237 -65t237 65q40 32 56 82t16 144v539q0 31 -13.5 47t-50.5 27v28h373v-28q-36 -10 -50 -26.5t-14 -47.5v-593q0 -203 -80 -298q-129 -151 -486 -151q-239 0 -386 73 q-106 53 -145 151q-36 90 -36 225v593q0 31 -14 47t-50 27z" />
<glyph unicode="v" horiz-adv-x="1331" d="M-5 1092v28h449v-28q-64 -20 -64 -69q0 -22 25 -76l269 -593l271 593q24 51 24 76q0 50 -65 69v28h433v-28q-40 -13 -58 -32t-46 -78l-392 -825q-21 -44 -21 -67q0 -50 66 -63v-27h-439v27q65 13 65 63q0 23 -21 67l-392 825q-28 60 -45.5 78.5t-58.5 31.5z" />
<glyph unicode="w" horiz-adv-x="1965" d="M-16 1092v28h426v-28q-62 -20 -62 -63q0 -21 20 -72l210 -529l209 525q19 47 19 72q0 50 -67 67v28h498v-28q-65 -21 -65 -70q0 -22 17 -65l204 -529l204 534q13 35 13 61q0 28 -14 43t-51 26v28h436v-28q-49 -18 -71.5 -45.5t-56.5 -113.5l-300 -764q-16 -41 -16 -72 q0 -58 68 -70v-27h-434v27q64 18 64 73q0 14 -22 69l-233 609l-245 -609q-18 -45 -18 -74q0 -56 66 -68v-27h-417v27q60 15 60 68q0 27 -18 74l-296 764q-34 88 -57.5 117.5t-70.5 41.5z" />
<glyph unicode="x" horiz-adv-x="1300" d="M5 0v27q48 11 75 31.5t75 82.5l330 427l-290 388q-93 124 -164 136v28h512v-28q-65 -18 -65 -60q0 -25 31 -67l152 -203l140 190q41 56 41 81q0 45 -66 59v28h488v-28q-54 -11 -79.5 -31.5t-90.5 -104.5l-295 -376l331 -439q43 -57 80 -82.5t84 -31.5v-27h-515v27 q63 14 63 53q0 20 -33 64l-182 239l-183 -239q-27 -35 -27 -61q0 -36 65 -56v-27h-477z" />
<glyph unicode="y" horiz-adv-x="1226" d="M-22 1092v28h504v-28q-65 -17 -65 -61q0 -22 47 -88l163 -226l159 226q47 67 47 89q0 42 -64 60l-1 28h480v-28q-46 -10 -79.5 -38.5t-89.5 -105.5l-332 -457v-389q0 -31 14 -47.5t50 -27.5v-27h-396v27q36 10 50 26.5t14 48.5v389l-332 457q-56 77 -89.5 105.5 t-79.5 38.5z" />
<glyph unicode="z" horiz-adv-x="1247" d="M76 0v60l653 857h-543q-32 0 -48 -14t-27 -51h-27v332h27q10 -36 26.5 -50t48.5 -14h985v-49l-660 -868h568q32 0 48 14.5t27 50.5h27v-332h-28q-9 35 -25.5 49.5t-48.5 14.5h-1003z" />
<glyph unicode="{" horiz-adv-x="683" d="M-58 526v313h24q8 -37 19 -50.5t34 -13.5h62q39 0 49.5 30t12.5 142v374q0 58 56.5 106t124.5 48h232q42 0 59.5 13t26.5 51h27v-279h-27q-10 39 -27 52t-59 13h-82q-110 -10 -108 -144v-355q0 -45 -17.5 -75t-65.5 -68q48 -38 65.5 -68t17.5 -76v-354q-2 -134 108 -144 h82q42 0 59 13t27 52h27v-279h-27q-10 38 -27.5 51t-58.5 13h-232q-61 0 -116 42q-66 50 -65 112v373q-2 112 -12.5 142.5t-49.5 30.5h-62q-22 0 -33.5 -14t-19.5 -51h-24z" />
<glyph unicode="|" horiz-adv-x="1024" d="M366 -341v1706h292v-1706h-292z" />
<glyph unicode="}" horiz-adv-x="683" d="M14 106h27q10 -39 27 -52t59 -13h82q111 11 109 144v354q0 46 17.5 76t65.5 68q-48 38 -65.5 68t-17.5 75v355q2 133 -109 144h-82q-41 0 -58.5 -13t-27.5 -52h-27v279h27q10 -38 27 -51t59 -13h233q61 0 116 -42q65 -49 65 -112v-374q2 -112 12.5 -142t48.5 -30h62 q23 0 34 13.5t19 50.5h24v-313h-24q-8 38 -19 51.5t-34 13.5h-62q-38 0 -48.5 -30.5t-12.5 -142.5v-373q0 -57 -56.5 -105.5t-124.5 -48.5h-233q-41 0 -58.5 -13t-27.5 -51h-27v279z" />
<glyph unicode="~" horiz-adv-x="1365" d="M190 602q40 96 87 158q88 116 213 116q72 0 225 -68q127 -56 172 -56q78 0 150 129l142 -118q-48 -110 -93 -165q-88 -110 -209 -110q-39 0 -77.5 13t-201.5 82q-73 31 -117 31q-43 0 -76 -29t-73 -101z" />
<glyph unicode="&#xa1;" horiz-adv-x="774" d="M177 0v32q39 7 49.5 21t16.5 67l73 615q3 24 3 45q0 35 -11 48t-52 25v32h262v-32q-41 -11 -52 -24t-11 -49q0 -21 3 -45l73 -615q6 -53 16.5 -67t49.5 -21v-32h-420zM223 1224q0 68 47.5 116t116.5 49q68 0 116 -48.5t48 -118.5q0 -66 -48.5 -113.5t-115.5 -47.5 q-68 0 -116 48t-48 115z" />
<glyph unicode="&#xa2;" d="M118 686q0 226 146 386q155 171 442 194v53q0 32 -14 48.5t-50 26.5v27h273v-27q-36 -11 -50 -27t-14 -48v-52q112 -4 201.5 -36t260.5 -129q19 -11 33 -11t39 17l22 -18l-169 -245l-22 17q2 14 2 21q0 44 -61 78q-87 50 -151 70t-155 27v-744q139 10 258 70 q110 56 110 98q0 2 -3 28l22 17l169 -246l-23 -17q-23 17 -39 17q-14 0 -120 -61q-96 -55 -177 -80t-197 -36v-58q0 -32 14 -48.5t50 -26.5v-27h-273v27q36 11 50 27t14 48v59q-162 13 -286 76q-135 68 -215 197q-87 138 -87 308zM394 686q0 -169 134 -277q67 -54 178 -83 v720q-111 -29 -178 -83q-134 -109 -134 -277z" />
<glyph unicode="&#xa3;" d="M142 179q112 60 154.5 129.5t42.5 192.5q0 42 -5 109h-81q-31 0 -47 -14.5t-26 -50.5h-32v324h32q10 -36 26 -50t47 -14h56q-15 120 -15 175q0 162 104 262q73 69 187 108t246 39q183 0 319 -67q59 -29 152 -99q52 -39 84 -39q12 0 29 10l20 -25l-292 -211l-20 26 q18 12 18 33q0 36 -63 80q-88 60 -220 60q-129 0 -199.5 -53t-70.5 -149q0 -35 10 -150h228q31 0 47 14t26 50h32v-324h-32q-10 36 -26 50.5t-47 14.5h-206q7 -67 7 -108q0 -92 -22 -144t-89 -117q105 30 186 30q71 0 177 -26q87 -22 121 -22q47 0 86.5 27t39.5 61 q0 23 -21 41l22 23l288 -221l-19 -23q-22 12 -37 12q-25 0 -111 -58q-72 -48 -129 -68t-126 -20q-41 0 -73.5 4.5t-186.5 31.5q-55 10 -139 10q-199 0 -356 -81z" />
<glyph unicode="&#xa4;" horiz-adv-x="1570" d="M43 176l23 22q30 -17 49 -17q24 0 47 23l103 103q-109 156 -109 375t109 377l-103 102q-23 24 -47 24q-19 0 -49 -18l-23 23l235 234l23 -22q-18 -30 -18 -50q0 -24 23 -47l121 -120q155 81 359 81q203 0 357 -82l120 121q24 24 24 47q0 19 -18 50l23 22l235 -234 l-23 -23q-31 18 -49 18q-24 0 -48 -24l-101 -101q108 -155 108 -378q0 -220 -109 -376l102 -102q23 -23 47 -23q20 0 50 17l23 -22l-235 -235l-23 23q18 30 18 49q0 24 -24 47l-120 120q-160 -81 -357 -81q-202 0 -360 81l-120 -120q-23 -23 -23 -47q0 -19 18 -49l-23 -23z M429 683q0 -157 94 -260q101 -112 262 -112t262 112q94 102 94 255q0 162 -94 265q-99 109 -263 111q-160 0 -261 -111q-94 -103 -94 -260z" />
<glyph unicode="&#xa5;" d="M82 1333v32h540v-32q-67 -11 -67 -61q0 -11 4.5 -21.5t31.5 -61.5l143 -363l148 363q27 50 31.5 60.5t4.5 22.5q0 50 -67 61v32h527v-32q-45 -6 -85 -40t-82 -101l-98 -158h139q30 0 46.5 14.5t25.5 49.5h32v-340h-32q-9 44 -25.5 61.5t-46.5 17.5h-234l-119 -236h271 q31 0 47 14.5t25 49.5h32v-340h-32q-9 44 -25.5 61.5t-46.5 17.5h-290v-299q0 -31 14.5 -47t50.5 -26v-32h-429v32q37 10 51.5 26t14.5 47v299h-291q-31 0 -47 -17.5t-26 -61.5h-32v340h32q10 -36 26 -50t47 -14h272l-119 236h-235q-31 0 -47 -17.5t-26 -61.5h-32v340h32 q10 -36 26 -50t47 -14h139l-99 158q-42 67 -82 101t-85 40z" />
<glyph unicode="&#xa6;" horiz-adv-x="1024" d="M366 314h292v-655h-292v655zM366 649v716h292v-716h-292z" />
<glyph unicode="&#xa7;" horiz-adv-x="1374" d="M96 -12l174 266l22 -14q-9 -23 -9 -35q0 -37 76 -85q137 -87 371 -87q171 0 260 59q73 49 73 113q0 55 -63.5 82.5t-228.5 45.5l-197 20q-198 21 -298 89q-51 34 -80 91.5t-29 124.5q0 128 77 203q28 27 89 63q-77 40 -112 83q-53 66 -53 164q0 168 130.5 263.5 t361.5 95.5q107 0 204 -19t231 -66q33 -11 55 -11q12 0 39 25l23 -10l-137 -278l-23 11q6 23 6 33q0 29 -76 62q-74 32 -140.5 44t-169.5 12q-139 0 -214 -37q-83 -40 -83 -103q0 -45 47.5 -68t168.5 -36l192 -21q226 -24 345 -86q152 -79 152 -261q0 -89 -37 -158 t-106 -106q86 -60 114.5 -109t28.5 -136q0 -152 -111 -253q-135 -123 -438 -123q-155 0 -276 33.5t-259 115.5q-22 13 -35 13t-44 -23zM374 690q0 -58 65 -84q30 -12 153 -29l289 -42q96 38 130 67q51 44 51 105q0 59 -50.5 86.5t-186.5 43.5l-263 30q-188 -72 -188 -177z " />
<glyph unicode="&#xa8;" horiz-adv-x="1024" d="M183 1379q0 54 37 91.5t91 39.5q57 0 95 -38q38 -39 38 -95q0 -52 -38 -90t-93 -38q-53 0 -92 38q-38 37 -38 92zM580 1380q0 53 37.5 91t92.5 39q55 0 93 -38q38 -39 38 -90q0 -57 -38 -95t-95 -38q-53 0 -90.5 38.5t-37.5 92.5z" />
<glyph unicode="&#xa9;" horiz-adv-x="1808" d="M93 683q0 203 110 374q120 185 340 270q154 59 364 62q361 0 582 -189q124 -105 186 -257q51 -125 51 -269q0 -195 -111 -365q-122 -188 -339 -271q-162 -62 -367 -62q-359 0 -579 189q-123 106 -186 257q-51 124 -51 261zM233 682q0 -246 170 -410q185 -178 506 -178 q322 0 507 178q170 163 170 402q0 260 -170 419q-101 95 -217 134q-129 43 -292 44q-319 0 -504 -178q-170 -163 -170 -411zM432 683q0 212 164 333q123 91 317 91q91 0 161.5 -19.5t157.5 -69.5l20 -11q47 -27 56 -27q8 0 26 17l25 -18l-119 -179l-25 17q2 13 2 20 q0 25 -64 61q-103 58 -217 58q-136 0 -216 -67q-95 -79 -95 -206q0 -124 85 -198.5t226 -74.5q114 0 217 58q64 36 64 61q0 7 -2 20l25 17l119 -179l-25 -18q-17 18 -26 18t-56 -27q-99 -58 -171 -79.5t-168 -21.5q-194 0 -317 91q-164 121 -164 333z" />
<glyph unicode="&#xaa;" horiz-adv-x="1046" d="M193 513v258h23q8 -37 19.5 -50.5t33.5 -13.5h502q22 0 34 14t19 50h24v-258h-24q-8 37 -19 50.5t-34 13.5h-502q-22 0 -33.5 -13.5t-19.5 -50.5h-23zM194 1337l29 18q11 -11 18 -11q4 0 13 4q85 41 228 41q147 0 234.5 -58t87.5 -156v-300q0 -18 9.5 -25.5t38.5 -11.5 v-27h-169v63q-42 -45 -82.5 -62t-103.5 -17q-117 0 -208 58q-86 55 -86 146q0 89 86 145q89 58 212 58q61 0 100.5 -15t81.5 -56v52q0 53 -54 85t-143 32q-64 0 -127.5 -14t-63.5 -29q0 -2 9 -20l-29 -17zM322 994q0 -43 55 -73t134 -30q74 0 123.5 29.5t49.5 73.5 q0 49 -46.5 80t-124.5 32q-94 0 -149 -38q-42 -29 -42 -74z" />
<glyph unicode="&#xab;" horiz-adv-x="997" d="M123 580l194 403h173l-196 -403l196 -403h-173zM480 580l194 403h173l-197 -403l197 -403h-173z" />
<glyph unicode="&#xac;" horiz-adv-x="1024" d="M68 338v254h887v-592h-283v338h-604z" />
<glyph unicode="&#xad;" horiz-adv-x="455" d="M0 387v346h32q9 -36 25.5 -50.5t46.5 -14.5h246q31 0 47 14t26 51h32v-346h-32q-10 36 -26 50t-47 14h-246q-30 0 -46.5 -14.5t-25.5 -49.5h-32z" />
<glyph unicode="&#xae;" horiz-adv-x="1818" d="M93 683q0 203 110 374q120 185 340 270q154 59 364 62q361 0 582 -189q124 -105 186 -257q51 -125 51 -269q0 -195 -111 -365q-122 -188 -339 -271q-162 -62 -367 -62q-359 0 -579 189q-123 106 -186 257q-51 124 -51 261zM233 682q0 -246 170 -410q185 -178 506 -178 q322 0 507 178q170 163 170 402q0 260 -170 419q-101 95 -217 134q-129 43 -292 44q-319 0 -504 -178q-170 -163 -170 -411zM483 273v31q22 5 30 13t8 24v683q0 17 -7.5 24.5t-30.5 13.5v31l510 -1q94 0 149 -11t95 -38q95 -63 95 -198q0 -202 -214 -236l150 -213 q42 -59 60.5 -74.5t48.5 -16.5v-32h-305v32q30 3 30 15q0 6 -27 47l-160 234h-205v-260q0 -16 8 -24t30 -13v-31h-265zM710 748h265q95 0 127 17q41 23 41 82q0 58 -41 81q-32 17 -127 17h-265v-197z" />
<glyph unicode="&#xaf;" horiz-adv-x="1024" d="M0 1485v174h1024v-174h-1024z" />
<glyph unicode="&#xb0;" horiz-adv-x="945" d="M150 1080q0 70 29.5 136t80.5 109q92 77 213 79q138 0 235 -103q86 -91 86 -223q0 -133 -97 -228q-95 -91 -225 -91q-143 0 -239 105q-83 92 -83 216zM271 1081q0 -75 49 -134q59 -71 151 -71q81 0 141.5 60t60.5 140q0 87 -56 146q-61 64 -147 65q-76 0 -133 -55 q-66 -63 -66 -151z" />
<glyph unicode="&#xb1;" horiz-adv-x="1570" d="M234 134h30q8 -35 23 -49t43 -14h910q28 0 42.5 13.5t23.5 49.5h30v-324h-30q-9 37 -23.5 51t-42.5 14h-910q-29 0 -43 -14t-24 -51h-29v324zM234 521v324h30q8 -36 23 -50t43 -14h357v356q0 28 -14 42.5t-50 23.5v30h324v-29q-36 -10 -50 -24.5t-14 -42.5v-356h357 q28 0 42.5 14t23.5 50h30v-324h-30q-9 36 -23.5 50t-42.5 14h-357v-289q0 -28 14 -43t50 -24v-29h-324v30q36 8 50 23t14 43v289h-357q-28 0 -42.5 -14t-24.5 -50h-29z" />
<glyph unicode="&#xb2;" horiz-adv-x="969" d="M63 552q0 125 63 207q43 55 100.5 92.5t173.5 86.5l108 45q74 32 106.5 65t32.5 78q0 102 -148 102q-91 0 -171 -41q-73 -38 -73 -77q0 -8 11 -38l-22 -21l-180 179l24 20q26 -12 37 -12q12 0 45 26q143 115 351 115q152 0 243 -69q92 -70 92 -187q0 -93 -58.5 -160 t-184.5 -119l-99 -41q-9 -4 -70 -27q-103 -38 -131 -71h520q19 0 27 7.5t15 30.5h32v-234h-32q-7 22 -15 29.5t-27 7.5h-680q-32 0 -41.5 -6t-14.5 -31h-33q-1 34 -1 43z" />
<glyph unicode="&#xb3;" horiz-adv-x="969" d="M36 613l108 229l31 -12q-4 -10 -4 -16q0 -50 101 -90t226 -40q95 0 149.5 30.5t54.5 82.5q0 108 -195 108q-63 0 -84.5 -8t-27.5 -33h-32v211h32q8 -28 26.5 -35.5t82.5 -7.5q84 0 132 26t48 72q0 47 -47.5 72.5t-136.5 25.5q-97 0 -182.5 -31.5t-85.5 -67.5 q0 -11 10 -29l-26 -19l-156 177l25 19q26 -11 36 -11q12 0 31 12q163 101 363 101q140 0 237 -51q120 -63 120 -187q0 -106 -101 -164q135 -50 135 -179q0 -135 -128 -204q-112 -61 -277 -61q-176 0 -319 64q-59 26 -75 26q-14 0 -42 -24z" />
<glyph unicode="&#xb4;" horiz-adv-x="1024" d="M379 1246v27q24 0 34 7t19 29l66 163q4 9 4 15q0 16 -28 19v27h304v-27q-39 -1 -59 -27l-142 -174q-6 -7 -6 -16q0 -16 21 -16h4v-27h-217z" />
<glyph unicode="&#xb5;" horiz-adv-x="984" d="M-14 -284q0 48 18 134q61 293 64 647v439h269v-588q0 -150 31 -204q13 -21 39 -35.5t53 -14.5q42 0 79 25t85 86v731h267v-666q0 -104 16.5 -137.5t68.5 -33.5q24 0 56 11v-40l-261 -93q-7 -2 -12 -2q-44 0 -72 36q-17 24 -45 108q-58 -63 -88 -87q-76 -63 -171 -63 q-85 0 -134 38t-88 133q-1 -24 -1 -31q0 -60 13.5 -121.5t49.5 -167.5q23 -69 23 -110q0 -39 -26 -68q-38 -44 -100 -44q-61 0 -97.5 32t-36.5 86z" />
<glyph unicode="&#xb6;" horiz-adv-x="1307" d="M41 1010q0 114 69 200q48 60 105.5 92.5t138.5 45.5q101 17 123 17h775v-32q-38 -10 -51 -27t-13 -59v-1293q0 -42 13 -59t51 -27v-32h-255v1406h-165v-1406h-255v32q39 10 51.5 27t12.5 59v681h-181q-61 0 -136 22t-120 53q-163 113 -163 300z" />
<glyph unicode="&#xb8;" horiz-adv-x="1024" d="M290 -392l23 47q55 -16 102 -16q65 0 103 22.5t38 61.5q0 29 -21 49.5t-51 20.5q-45 0 -76 -35l-30 18l53 99q12 22 17 25.5t21 3.5q127 0 196 -41t69 -116q0 -72 -59 -118q-63 -49 -183 -49q-118 0 -202 28z" />
<glyph unicode="&#xb9;" horiz-adv-x="969" d="M293 1061v228h32l5 -14q6 -21 23 -21q5 0 16 3l50 11v29q0 16 -8.5 24t-32.5 13v31h281v-31q-24 -5 -32.5 -12.5t-8.5 -24.5v-682q0 -17 8.5 -24.5t32.5 -13.5v-31h-281v31q25 6 33 13.5t8 24.5v501l-51 -11q-21 -5 -28.5 -13t-14.5 -31h-32z" />
<glyph unicode="&#xba;" horiz-adv-x="1046" d="M195 513v258h23q8 -37 19.5 -50.5t33.5 -13.5h502q22 0 34 14t19 50h24v-258h-24q-8 37 -19 50.5t-34 13.5h-502q-22 0 -33.5 -13.5t-19.5 -50.5h-23zM203 1106q0 126 87.5 204t231.5 80q129 0 216 -66q104 -80 104 -223q0 -134 -104 -214q-86 -66 -215 -66 q-130 0 -216 66q-104 80 -104 219zM344 1106q0 -76 50.5 -124.5t128.5 -48.5q77 0 127.5 48.5t50.5 121.5q0 78 -49.5 126t-129.5 49q-78 0 -128 -48.5t-50 -123.5z" />
<glyph unicode="&#xbb;" horiz-adv-x="997" d="M150 177l196 403l-196 403h173l194 -403l-194 -403h-173zM507 177l196 403l-196 403h172l195 -403l-195 -403h-172z" />
<glyph unicode="&#xbc;" horiz-adv-x="2526" d="M293 1061v228h32l5 -14q6 -21 23 -21q5 0 16 3l50 11v29q0 16 -8.5 24t-32.5 13v31h281v-31q-24 -5 -32.5 -12.5t-8.5 -24.5v-682q0 -17 8.5 -24.5t32.5 -13.5v-31h-281v31q25 6 33 13.5t8 24.5v501l-51 -11q-21 -5 -28.5 -13t-14.5 -31h-32zM697 0v32q50 8 74.5 31.5 t78.5 112.5l609 1016q30 49 30 73t-22 43.5t-55 24.5v32h420v-32q-49 -7 -68 -24.5t-81 -116.5l-618 -1040q-25 -42 -25 -61q0 -24 20.5 -39.5t56.5 -19.5v-32h-420zM1625 98v180l436 452q27 28 27 38q0 15 -33 19v32h356v-31q-24 -6 -32.5 -13.5t-8.5 -23.5v-469h42 q18 0 26 7.5t15 30.5h32v-222h-32q-7 23 -15 30.5t-26 7.5h-42v-67q0 -17 8.5 -24.5t32.5 -13.5v-31h-281v31q25 6 33 13.5t8 24.5v67h-453q-36 0 -46 -6t-15 -32h-32zM1857 282h314v330z" />
<glyph unicode="&#xbd;" horiz-adv-x="2527" d="M293 1061v228h32l5 -14q7 -21 23 -21q5 0 16 3l50 11v29q0 17 -8.5 24t-32.5 13v31h281v-31q-25 -5 -33 -12.5t-8 -24.5v-682q0 -17 8.5 -24.5t32.5 -13.5v-31h-281v31q25 6 33 13.5t8 24.5v501l-51 -11q-21 -5 -28.5 -12.5t-14.5 -31.5h-32zM697 0v32q50 8 74.5 31.5 t78.5 112.5l609 1016q30 49 30 73t-22 43.5t-55 24.5v32h420v-32q-49 -7 -68 -24.5t-81 -116.5l-618 -1040q-25 -42 -25 -61q0 -24 20.5 -39.5t56.5 -19.5v-32h-420zM1620 6q0 124 64 206q42 55 99 92.5t174 86.5l108 46q74 31 106.5 64.5t32.5 77.5q0 103 -148 103 q-91 0 -170 -41q-74 -38 -74 -78q0 -7 11 -38l-22 -21l-180 179l24 21q27 -12 37 -12q12 0 45 27q143 114 351 114q152 0 243 -69q92 -70 92 -188q0 -93 -58.5 -160t-184.5 -119l-99 -41q-5 -2 -70 -26q-104 -40 -131 -71h520q19 0 27 7.5t15 29.5h32v-234h-32 q-7 23 -15 30.5t-27 7.5h-680q-32 0 -41.5 -6t-14.5 -32h-33q-1 35 -1 44z" />
<glyph unicode="&#xbe;" horiz-adv-x="2526" d="M36 613l108 229l31 -12q-4 -10 -4 -16q0 -50 101 -90t226 -40q95 0 149.5 30.5t54.5 82.5q0 108 -195 108q-63 0 -84.5 -8t-27.5 -33h-32v211h32q8 -28 26.5 -35.5t82.5 -7.5q85 0 132.5 26t47.5 72q0 47 -47.5 72.5t-136.5 25.5q-97 0 -182.5 -31.5t-85.5 -67.5 q0 -11 10 -29l-26 -19l-156 177l25 19q26 -11 36 -11q12 0 31 12q161 101 363 101q140 0 237 -51q120 -63 120 -187q0 -106 -101 -164q135 -50 135 -179q0 -135 -128 -204q-112 -61 -277 -61q-176 0 -319 64q-59 26 -75 26q-14 0 -42 -24zM697 0v32q50 9 74.5 32t78.5 112 l609 1016q30 49 30 73t-22 43.5t-55 24.5v32h420v-32q-50 -7 -68 -24.5t-81 -116.5l-618 -1040q-25 -42 -25 -61q0 -24 20.5 -39.5t56.5 -19.5v-32h-420zM1625 98v180l436 452q27 28 27 38q0 15 -33 19v32h356v-31q-24 -6 -32.5 -13.5t-8.5 -23.5v-469h42q18 0 26 7.5 t15 30.5h32v-222h-32q-7 23 -15 30.5t-26 7.5h-42v-67q0 -17 8 -24.5t33 -13.5v-31h-281v31q25 6 33 13.5t8 24.5v67h-453q-36 0 -46 -6t-15 -32h-32zM1857 282h314v330z" />
<glyph unicode="&#xbf;" horiz-adv-x="1000" d="M123 279q0 79 40 151t138 168q68 67 88.5 105.5t20.5 99.5q0 26 -12 38.5t-46 21.5v32h329v-32q-40 -13 -53 -33.5t-24 -91.5q-11 -64 -30.5 -101.5t-81.5 -115.5q-56 -70 -75.5 -108.5t-19.5 -80.5q0 -65 42.5 -104.5t113.5 -39.5q106 0 181 76q35 36 35 69q0 11 -9 34 l27 18l172 -252l-26 -18l-8 4q-22 11 -34 11q-23 0 -86 -41q-94 -62 -167.5 -87.5t-158.5 -25.5q-138 0 -231 65q-125 87 -125 238zM336 1226q0 67 48 114.5t116 48.5q68 0 116 -48.5t48 -116.5q0 -67 -48 -115t-116 -48q-69 0 -116.5 48t-47.5 117z" />
<glyph unicode="&#xc0;" horiz-adv-x="1666" d="M7 0v32q40 8 61 28t48 78l502 1049q24 50 24 80q0 46 -58 66v32h484v-32q-59 -17 -59 -59q0 -29 19 -66l520 -1052q33 -67 58 -91.5t67 -32.5v-32h-502v32q66 11 66 62q0 21 -20 62l-94 192h-620l-92 -192q-19 -40 -19 -63q0 -44 67 -61v-32h-452zM543 1738v27h304v-27 q-28 -3 -28 -19q0 -6 4 -15l66 -163q9 -22 19 -29t34 -7v-27h-217v27h5q20 0 20 16q0 9 -6 16l-142 173q-20 27 -59 28zM592 535h445l-221 486z" />
<glyph unicode="&#xc1;" horiz-adv-x="1666" d="M7 0v32q40 8 61 28t48 78l502 1049q24 50 24 80q0 46 -58 66v32h484v-32q-59 -17 -59 -59q0 -29 19 -66l520 -1052q33 -67 58 -91.5t67 -32.5v-32h-502v32q66 11 66 62q0 21 -20 62l-94 192h-620l-92 -192q-19 -40 -19 -63q0 -44 67 -61v-32h-452zM592 535h445l-221 486z M709 1478v27q24 0 34 7t19 29l66 163q4 9 4 15q0 16 -28 19v27h304v-27q-39 -1 -59 -28l-142 -173q-6 -7 -6 -16q0 -16 21 -16h4v-27h-217z" />
<glyph unicode="&#xc2;" horiz-adv-x="1666" d="M7 0v32q40 8 61 28t48 78l502 1049q24 50 24 80q0 46 -58 66v32h484v-32q-59 -17 -59 -59q0 -29 19 -66l520 -1052q33 -67 58 -91.5t67 -32.5v-32h-502v32q66 11 66 62q0 21 -20 62l-94 192h-620l-92 -192q-19 -40 -19 -63q0 -44 67 -61v-32h-452zM487 1478v27 q24 1 31 5.5t38 36.5l134 149q11 12 11 25q0 17 -33 17v27h316v-27q-30 -3 -30 -18q0 -11 16 -28l150 -167q16 -19 45 -20v-27h-287v27q31 2 31 15q0 4 -16 23l-84 103l-92 -106q-9 -9 -9 -18q0 -15 29 -17v-27h-250zM592 535h445l-221 486z" />
<glyph unicode="&#xc3;" horiz-adv-x="1666" d="M7 0v32q40 8 61 28t48 78l502 1049q24 50 24 80q0 46 -58 66v32h484v-32q-59 -17 -59 -59q0 -29 19 -66l520 -1052q33 -67 58 -91.5t67 -32.5v-32h-502v32q66 11 66 62q0 21 -20 62l-94 192h-620l-92 -192q-19 -40 -19 -63q0 -44 67 -61v-32h-452zM479 1621l14 17 q24 -8 34 -8q21 0 38 23q61 80 152 80q31 0 65 -13l149 -59q26 -10 51 -10q20 0 38 16t18 34q0 13 -17 33l21 15l145 -134l-16 -20q-29 9 -37 9q-13 0 -26 -17q-67 -91 -142 -91q-40 0 -85 17l-148 57q-22 8 -44 8q-20 0 -39 -16.5t-19 -33.5q0 -12 15 -31l-18 -14zM592 535 h445l-221 486z" />
<glyph unicode="&#xc4;" horiz-adv-x="1666" d="M7 0v32q41 8 61 27t48 79l502 1049q24 50 24 80q0 46 -58 66v32h484v-32q-59 -17 -59 -59q0 -29 19 -66l520 -1052q33 -67 58 -91.5t67 -32.5v-32h-502v32q66 11 66 62q0 21 -20 62l-94 192h-620l-92 -192q-19 -40 -19 -63q0 -44 67 -61v-32h-452zM497 1611q0 54 37 91.5 t91 39.5q58 0 95 -38q38 -39 38 -96q0 -51 -38 -89t-93 -38q-53 0 -92 38q-38 37 -38 92zM592 535h445l-221 486zM894 1612q0 54 37.5 91.5t92.5 38.5q55 0 93 -38q38 -39 38 -90q0 -57 -38 -95t-96 -38q-52 0 -89.5 38.5t-37.5 92.5z" />
<glyph unicode="&#xc5;" horiz-adv-x="1666" d="M7 0v32q40 8 61 28t48 78l502 1049q24 50 24 80q0 46 -58 66v32h484v-32q-59 -17 -59 -59q0 -29 19 -66l520 -1052q33 -67 58 -91.5t67 -32.5v-32h-502v32q66 11 66 62q0 21 -20 62l-94 192h-620l-92 -192q-19 -40 -19 -63q0 -44 67 -61v-32h-452zM592 535h445l-221 486z M598 1626q0 79 65.5 132.5t162.5 54.5q97 0 163 -55q67 -56 67 -134q0 -80 -67 -133q-69 -54 -162 -54q-95 0 -162 55q-67 56 -67 134zM726 1625q0 -35 29.5 -59.5t71.5 -24.5q41 0 71 24.5t30 58.5q0 37 -28 61t-73 24q-44 0 -72.5 -23.5t-28.5 -60.5z" />
<glyph unicode="&#xc6;" horiz-adv-x="2381" d="M-26 0v32q42 9 64 28t56 78l604 1049q33 56 33 85q0 42 -60 61v32h1493q31 0 47 14.5t26 50.5h32v-353h-32q-10 35 -26 49t-47 14h-853v-324h553q30 0 46 14t26 50h32v-345h-32q-10 36 -26 50t-46 14h-553v-374h877q31 0 47 14t26 50h32v-353h-32q-10 36 -26 50t-47 14 h-1239v32q36 10 50 26t14 47v243h-489l-112 -192q-26 -44 -26 -68q0 -40 60 -56v-32h-472zM632 535h381v605h-43z" />
<glyph unicode="&#xc7;" horiz-adv-x="1718" d="M91 683q0 248 145 431q218 275 659 275q162 0 278 -34t290 -134q83 -47 101 -47t46 26l26 -18l-190 -285l-27 18q2 16 2 27q0 29 -25 54.5t-89 61.5q-177 100 -375 100q-234 0 -373 -117q-164 -137 -164 -358t164 -358q139 -117 373 -117q198 0 375 100q64 36 89 61.5 t25 54.5q0 11 -2 26l27 19l190 -285l-26 -18q-28 26 -46 26t-101 -48q-172 -99 -289.5 -133.5t-279.5 -34.5q-323 0 -530 153q-122 89 -192 221q-81 151 -81 333zM617 -435l25 52q60 -16 112 -16q69 0 110 25t41 68q0 32 -23 55t-55 23q-48 0 -83 -39l-32 21l57 110 q13 25 18.5 29t22.5 4q137 0 212 -46t75 -130q0 -80 -64 -132q-68 -55 -196 -55q-132 0 -220 31z" />
<glyph unicode="&#xc8;" horiz-adv-x="1556" d="M123 0v32q36 10 50 26t14 47v1155q0 31 -14 47t-50 26v32h1216q30 0 46 14.5t26 50.5h32v-353h-32q-10 35 -26 49t-46 14h-854v-324h554q30 0 46 14t26 50h32v-345h-32q-10 35 -26 49.5t-46 14.5h-554v-374h878q30 0 46 14t26 50h32v-353h-32q-10 36 -26 50t-46 14h-1240 zM534 1738v27h304v-27q-28 -3 -28 -19q0 -6 4 -15l66 -163q9 -22 19 -29t34 -7v-27h-217v27h5q20 0 20 16q0 9 -6 16l-142 173q-20 27 -59 28z" />
<glyph unicode="&#xc9;" horiz-adv-x="1556" d="M123 0v32q36 10 50 26t14 47v1155q0 31 -14 47t-50 26v32h1216q30 0 46 14.5t26 50.5h32v-353h-32q-10 35 -26 49t-46 14h-854v-324h554q30 0 46 14t26 50h32v-345h-32q-10 35 -26 49.5t-46 14.5h-554v-374h878q30 0 46 14t26 50h32v-353h-32q-10 36 -26 50t-46 14h-1240 zM671 1478v27q24 0 34 7t19 29l66 163q4 9 4 15q0 16 -28 19v27h304v-27q-39 -1 -59 -28l-142 -173q-6 -7 -6 -16q0 -16 21 -16h4v-27h-217z" />
<glyph unicode="&#xca;" horiz-adv-x="1556" d="M123 0v32q36 10 50 26t14 47v1155q0 31 -14 47t-50 26v32h1216q30 0 46 14.5t26 50.5h32v-353h-32q-10 35 -26 49t-46 14h-854v-324h554q30 0 46 14t26 50h32v-345h-32q-10 35 -26 49.5t-46 14.5h-554v-374h878q30 0 46 14t26 50h32v-353h-32q-10 36 -26 50t-46 14h-1240 zM463 1478v27q24 1 31 5.5t38 36.5l134 149q11 12 11 25q0 17 -33 17v27h316v-27q-30 -3 -30 -18q0 -11 16 -28l150 -167q16 -19 45 -20v-27h-287v27q31 2 31 15q0 4 -16 23l-84 103l-92 -106q-9 -9 -9 -18q0 -15 29 -17v-27h-250z" />
<glyph unicode="&#xcb;" horiz-adv-x="1556" d="M123 0v32q36 10 50 26t14 47v1155q0 31 -14 47t-50 26v32h1216q30 0 46 14.5t26 50.5h32v-353h-32q-10 35 -26 49t-46 14h-854v-324h554q30 0 46 14t26 50h32v-345h-32q-10 35 -26 49.5t-46 14.5h-554v-374h878q30 0 46 14t26 50h32v-353h-32q-10 36 -26 50t-46 14h-1240 zM473 1611q0 54 37 91.5t91 39.5q57 0 95 -38q38 -39 38 -96q0 -51 -38 -89t-93 -38q-53 0 -92 38q-38 37 -38 92zM870 1612q0 53 37.5 91t92.5 39q55 0 93 -38q38 -39 38 -90q0 -57 -38 -95t-95 -38q-53 0 -90.5 38.5t-37.5 92.5z" />
<glyph unicode="&#xcc;" horiz-adv-x="672" d="M52 1738v27h304v-27q-28 -3 -28 -19q0 -6 4 -15l66 -163q9 -22 19 -29t34 -7v-27h-217v27h5q20 0 20 16q0 9 -6 16l-142 173q-20 27 -59 28zM123 0v32q36 10 50 26t14 47v1156q0 30 -14 46t-50 26v32h426v-32q-36 -9 -50 -25.5t-14 -46.5v-1156q0 -31 14.5 -47.5 t49.5 -25.5v-32h-426z" />
<glyph unicode="&#xcd;" horiz-adv-x="672" d="M123 0v32q36 10 50 26t14 47v1156q0 30 -14 46t-50 26v32h426v-32q-36 -9 -50 -25.5t-14 -46.5v-1156q0 -31 14.5 -47.5t49.5 -25.5v-32h-426zM220 1478v27q24 0 34 7t19 29l66 163q4 9 4 15q0 16 -28 19v27h304v-27q-39 -1 -59 -28l-142 -173q-6 -7 -6 -16q0 -16 21 -16 h4v-27h-217z" />
<glyph unicode="&#xce;" horiz-adv-x="671" d="M3 1478v27q24 1 31 5.5t38 36.5l134 149q11 12 11 25q0 17 -33 17v27h316v-27q-30 -3 -30 -18q0 -11 16 -28l150 -167q16 -19 45 -20v-27h-287v27q31 2 31 15q0 4 -16 23l-84 103l-92 -106q-9 -9 -9 -18q0 -15 29 -17v-27h-250zM123 0v32q36 10 50 26t14 47v1156 q0 30 -14 46t-50 26v32h426v-32q-36 -9 -50 -25.5t-14 -46.5v-1156q0 -31 14.5 -47.5t49.5 -25.5v-32h-426z" />
<glyph unicode="&#xcf;" horiz-adv-x="671" d="M41 1611q0 54 37 91.5t91 39.5q57 0 95 -38q38 -39 38 -96q0 -51 -38 -89t-93 -38q-53 0 -92 38q-38 37 -38 92zM123 0v32q36 10 50 26t14 47v1156q0 30 -14 46t-50 26v32h426v-32q-36 -9 -50 -25.5t-14 -46.5v-1156q0 -31 14.5 -47.5t49.5 -25.5v-32h-426zM370 1612 q0 53 37.5 91t92.5 39q55 0 93 -38q38 -39 38 -90q0 -57 -38 -95t-96 -38q-52 0 -89.5 38.5t-37.5 92.5z" />
<glyph unicode="&#xd0;" horiz-adv-x="1717" d="M17 543v327h32q11 -37 26.5 -50.5t46.5 -13.5h66v454q0 31 -14 47t-50 26v32h760q251 0 385 -57q192 -83 285 -274q72 -150 72 -351q0 -354 -217 -538q-91 -78 -213 -111.5t-312 -33.5h-760v32q36 10 50 26t14 47v503h-66q-31 0 -46.5 -14t-26.5 -51h-32zM486 225h373 q180 0 270 49q193 105 193 409q0 220 -104 337q-58 65 -140.5 92.5t-218.5 27.5h-373v-334h305q30 0 46 14.5t26 49.5h32v-327h-32q-10 36 -26 50.5t-46 14.5h-305v-383z" />
<glyph unicode="&#xd1;" horiz-adv-x="1785" d="M123 0v32q36 10 50 26t14 47v1156q0 30 -14 46t-50 26v32h464v-32q-43 -11 -43 -46q0 -24 28 -53l753 -783v810q0 30 -14 46t-50 26v32h401v-32q-36 -10 -50 -26t-14 -46v-1156q0 -31 14 -47t50 -26v-32h-430v32q42 9 42 43q0 20 -49 70l-765 790v-830q0 -31 14 -47 t50 -26v-32h-401zM552 1621l14 17q24 -8 34 -8q21 0 38 23q61 80 152 80q31 0 65 -13l149 -59q26 -10 51 -10q20 0 38 16t18 34q0 13 -17 33l21 15l145 -134l-16 -20q-29 9 -37 9q-13 0 -26 -17q-67 -91 -142 -91q-40 0 -85 17l-148 57q-22 8 -44 8q-20 0 -39 -16.5 t-19 -33.5q0 -12 15 -31l-18 -14z" />
<glyph unicode="&#xd2;" horiz-adv-x="1752" d="M91 683q0 205 105 375q201 325 677 331q357 0 566 -193q221 -202 221 -522q0 -196 -106 -366q-207 -332 -679 -332q-354 0 -563 193q-112 103 -170 247q-51 127 -51 267zM395 683q0 -222 154 -359q130 -116 327 -116t326 116q77 69 118 169q36 89 36 184q0 232 -154 365 q-131 114 -328 116q-195 0 -325 -116q-154 -137 -154 -359zM608 1738v27h304v-27q-28 -3 -28 -19q0 -6 4 -15l66 -163q9 -22 19 -29t34 -7v-27h-217v27h5q20 0 20 16q0 9 -6 16l-142 173q-20 27 -59 28z" />
<glyph unicode="&#xd3;" horiz-adv-x="1752" d="M91 683q0 205 105 375q201 325 677 331q357 0 566 -193q221 -202 221 -522q0 -196 -106 -366q-207 -332 -679 -332q-354 0 -563 193q-112 103 -170 247q-51 127 -51 267zM395 683q0 -222 154 -359q130 -116 327 -116t326 116q77 69 118 169q36 89 36 184q0 232 -154 365 q-131 114 -328 116q-195 0 -325 -116q-154 -137 -154 -359zM751 1478v27q24 0 34 7t19 29l66 163q4 9 4 15q0 16 -28 19v27h304v-27q-39 -1 -59 -28l-142 -173q-6 -7 -6 -16q0 -16 21 -16h4v-27h-217z" />
<glyph unicode="&#xd4;" horiz-adv-x="1752" d="M91 683q0 205 105 375q201 325 677 331q357 0 566 -193q221 -202 221 -522q0 -196 -106 -366q-207 -332 -679 -332q-354 0 -563 193q-112 103 -170 247q-51 127 -51 267zM395 683q0 -222 154 -359q130 -116 327 -116t326 116q77 69 118 169q36 89 36 184q0 232 -154 365 q-131 114 -328 116q-195 0 -325 -116q-154 -137 -154 -359zM537 1478v27q24 1 31 5.5t38 36.5l134 149q11 12 11 25q0 17 -33 17v27h316v-27q-30 -3 -30 -18q0 -11 16 -28l150 -167q16 -19 45 -20v-27h-287v27q31 2 31 15q0 4 -16 23l-84 103l-92 -106q-9 -9 -9 -18 q0 -15 29 -17v-27h-250z" />
<glyph unicode="&#xd5;" horiz-adv-x="1752" d="M91 683q0 205 105 375q201 325 677 331q357 0 566 -193q221 -202 221 -522q0 -196 -106 -366q-207 -332 -679 -332q-354 0 -563 193q-112 103 -170 247q-51 127 -51 267zM395 683q0 -222 154 -359q130 -116 327 -116t326 116q77 69 118 169q36 89 36 184q0 232 -154 365 q-131 114 -328 116q-195 0 -325 -116q-154 -137 -154 -359zM536 1621l14 17q24 -8 34 -8q21 0 38 23q61 80 152 80q31 0 65 -13l149 -59q26 -10 51 -10q20 0 38 16t18 34q0 13 -17 33l21 15l145 -134l-16 -20q-29 9 -37 9q-13 0 -26 -17q-67 -91 -142 -91q-40 0 -85 17 l-148 57q-22 8 -44 8q-20 0 -39 -16.5t-19 -33.5q0 -12 15 -31l-18 -14z" />
<glyph unicode="&#xd6;" horiz-adv-x="1752" d="M91 683q0 205 105 375q201 325 677 331q357 0 566 -193q221 -202 221 -522q0 -196 -106 -366q-207 -332 -679 -332q-354 0 -563 193q-112 103 -170 247q-51 127 -51 267zM395 683q0 -222 154 -359q130 -116 327 -116t326 116q77 69 118 169q36 89 36 184q0 232 -154 365 q-131 114 -328 116q-195 0 -325 -116q-154 -137 -154 -359zM547 1611q0 54 37 91.5t91 39.5q57 0 95 -38q38 -39 38 -96q0 -51 -38 -89t-93 -38q-53 0 -92 38q-38 37 -38 92zM944 1612q0 53 37.5 91t92.5 39q55 0 93 -38q38 -39 38 -90q0 -57 -38 -95t-96 -38 q-52 0 -89.5 38.5t-37.5 92.5z" />
<glyph unicode="&#xd7;" horiz-adv-x="1570" d="M257 384l21 21q31 -19 50 -19q22 0 42 20l277 277l-277 276q-20 20 -42 20q-19 0 -50 -18l-21 21l229 229l21 -21q-19 -32 -19 -50q0 -22 21 -42l276 -277l276 276q21 21 21 43q0 18 -19 50l21 21l229 -229l-20 -21q-32 19 -51 19q-21 0 -42 -21l-276 -276l276 -277 q21 -20 42 -20q18 0 51 19l20 -21l-229 -230l-21 21q19 31 19 50q0 22 -21 43l-276 276l-276 -276q-21 -21 -21 -43q0 -18 19 -50l-21 -21z" />
<glyph unicode="&#xd8;" horiz-adv-x="1752" d="M91 683q0 205 106 374q206 332 679 332q113 0 193 -14.5t181 -53.5l33 43q19 25 19 47q0 45 -58 52v39h400v-39q-49 -7 -78 -32.5t-113 -136.5l-50 -66q257 -214 257 -545q0 -205 -106 -374q-207 -333 -678 -333q-112 0 -191.5 14.5t-178.5 51.5l-34 -45q-25 -34 -25 -53 q0 -41 61 -42v-39h-401v39q52 11 90 43.5t111 129.5l45 59q-262 217 -262 549zM395 684q0 -188 124 -330l574 760q-106 43 -216 43q-199 0 -328 -115q-154 -138 -154 -358zM664 250q102 -42 210 -42q199 0 328 116q154 137 154 359q0 181 -120 325z" />
<glyph unicode="&#xd9;" horiz-adv-x="1671" d="M96 1333v32h427v-32q-36 -9 -50.5 -25.5t-14.5 -47.5v-681q0 -118 13 -174.5t49 -94.5q96 -102 328 -102q233 0 329 102q35 38 48 94.5t13 174.5v681q0 31 -14 47t-50 26v32h402v-32q-36 -10 -50 -26t-14 -47v-765q0 -217 -80 -325q-144 -194 -595 -194q-326 0 -499 105 q-101 61 -140 166q-38 104 -38 248v765q0 31 -14 47t-50 26zM575 1738v27h304v-27q-28 -3 -28 -19q0 -6 4 -15l66 -163q9 -22 19 -29t34 -7v-27h-217v27h5q20 0 20 16q0 9 -6 16l-142 173q-20 27 -59 28z" />
<glyph unicode="&#xda;" horiz-adv-x="1671" d="M96 1333v32h427v-32q-36 -9 -50.5 -25.5t-14.5 -47.5v-681q0 -118 13 -174.5t49 -94.5q96 -102 328 -102q233 0 329 102q35 38 48 94.5t13 174.5v681q0 31 -14 47t-50 26v32h402v-32q-36 -10 -50 -26t-14 -47v-765q0 -217 -80 -325q-144 -194 -595 -194q-326 0 -499 105 q-101 61 -140 166q-38 104 -38 248v765q0 31 -14 47t-50 26zM711 1478v27q24 0 34 7t19 29l66 163q4 9 4 15q0 16 -28 19v27h304v-27q-39 -1 -59 -28l-142 -173q-6 -7 -6 -16q0 -16 21 -16h4v-27h-217z" />
<glyph unicode="&#xdb;" horiz-adv-x="1671" d="M96 1333v32h427v-32q-36 -9 -50.5 -25.5t-14.5 -47.5v-681q0 -118 13 -174.5t49 -94.5q96 -102 328 -102q233 0 329 102q35 38 48 94.5t13 174.5v681q0 31 -14 47t-50 26v32h402v-32q-36 -10 -50 -26t-14 -47v-765q0 -217 -80 -325q-144 -194 -595 -194q-326 0 -499 105 q-101 61 -140 166q-38 104 -38 248v765q0 31 -14 47t-50 26zM504 1478v27q24 1 31 5.5t38 36.5l134 149q11 12 11 25q0 17 -33 17v27h316v-27q-30 -3 -30 -18q0 -11 16 -28l150 -167q16 -19 45 -20v-27h-287v27q31 2 31 15q0 4 -16 23l-84 103l-92 -106q-9 -9 -9 -18 q0 -15 29 -17v-27h-250z" />
<glyph unicode="&#xdc;" horiz-adv-x="1671" d="M96 1333v32h427v-32q-36 -9 -50.5 -25.5t-14.5 -47.5v-681q0 -118 13 -174.5t49 -94.5q96 -102 328 -102q233 0 329 102q35 38 48 94.5t13 174.5v681q0 31 -14 47t-50 26v32h402v-32q-36 -10 -50 -26t-14 -47v-765q0 -217 -80 -325q-144 -194 -595 -194q-326 0 -499 105 q-101 61 -140 166q-38 104 -38 248v765q0 31 -14 47t-50 26zM514 1611q0 54 37 91.5t91 39.5q58 0 95 -38q38 -39 38 -96q0 -51 -38 -89t-93 -38q-53 0 -92 38q-38 37 -38 92zM911 1612q0 53 37.5 91t92.5 39q55 0 93 -38q38 -39 38 -90q0 -57 -38 -95t-96 -38 q-52 0 -89.5 38.5t-37.5 92.5z" />
<glyph unicode="&#xdd;" horiz-adv-x="1460" d="M-27 1333v32h539v-32q-67 -11 -67 -62q0 -18 41 -79l246 -366l253 366q41 59 41 80q0 23 -18 39.5t-49 21.5v32h528v-32q-45 -6 -77.5 -33.5t-89.5 -107.5l-441 -621v-466q0 -31 14.5 -47t50.5 -26v-32h-429v32q36 10 51 26t15 47v466l-441 621q-57 80 -89.5 107.5 t-77.5 33.5zM599 1478v27q24 0 34 7t19 29l66 163q4 9 4 15q0 16 -28 19v27h304v-27q-39 -1 -59 -28l-142 -173q-6 -7 -6 -16q0 -16 21 -16h4v-27h-217z" />
<glyph unicode="&#xde;" horiz-adv-x="1465" d="M123 0v32q36 10 50 26t14 47v1156q0 30 -14 46t-50 26v32h426v-32q-36 -9 -50 -25.5t-14 -46.5v-100h388q149 0 236.5 -20t153.5 -69q70 -51 108 -135q39 -85 39 -182q0 -139 -74 -242q-63 -89 -169 -126.5t-294 -37.5h-388v-244q0 -31 14.5 -47.5t49.5 -25.5v-32h-426z M485 574h360q135 0 189 29q36 19 57 60.5t21 91.5t-21 91.5t-57 60.5q-53 29 -189 29h-360v-362z" />
<glyph unicode="&#xdf;" horiz-adv-x="2522" d="M66 76l115 274l25 -10v-8q0 -26 20 -44q50 -44 173 -76.5t243 -32.5q106 0 190 28q104 34 104 110q0 61 -72 85q-48 16 -173 27l-157 13q-127 10 -194 26t-117 47q-64 40 -100 109t-36 151q0 184 158 281q144 88 356 88q115 0 214.5 -25.5t237.5 -89.5q41 -19 57 -19 t41 22l24 -13l-135 -261l-24 13q0 33 -21 52q-57 51 -168 84t-225 33q-97 0 -172 -27q-108 -39 -108 -113q0 -49 52 -69.5t201 -32.5l158 -12q207 -16 315 -80q60 -36 99 -96q49 -75 49 -169q0 -171 -154 -270q-147 -95 -398 -95q-253 0 -489 107q-16 7 -27 7q-20 0 -37 -24 zM1327 76l115 274l26 -10q-1 -6 -1 -8q0 -26 20 -44q50 -44 173 -76.5t243 -32.5q106 0 190 28q104 34 104 110q0 61 -72 85q-48 16 -173 27l-157 13q-127 10 -194 26t-117 47q-64 40 -100 109t-36 151q0 184 158 281q144 88 356 88q115 0 214.5 -25.5t237.5 -89.5 q41 -19 57 -19t41 22l25 -13l-136 -261l-24 13q1 7 1 11q0 27 -40 56q-67 47 -168 74.5t-207 27.5q-97 0 -172 -27q-108 -39 -108 -113q0 -49 52 -69.5t202 -32.5l157 -12q207 -16 316 -80q59 -36 98 -96q49 -75 49 -169q0 -171 -153 -270q-148 -95 -398 -95 q-254 0 -489 107q-17 7 -28 7q-20 0 -37 -24z" />
<glyph unicode="&#xe0;" horiz-adv-x="1421" d="M5 0v28q38 6 56.5 23t43.5 67l409 828q23 47 23 82q0 41 -56 64v28h435v-28q-55 -22 -55 -68q0 -33 25 -81l424 -803q35 -66 55 -85.5t61 -27.5v-27h-457v27q65 11 65 61q0 31 -25 77l-62 115h-515l-58 -122q-21 -44 -21 -69q0 -48 64 -61v-28h-412zM413 1506v27h304v-27 q-28 -3 -28 -19q0 -6 4 -15l66 -163q9 -22 19 -29t34 -7v-27h-217v27h5q20 0 20 16q0 9 -6 16l-142 174q-20 26 -59 27zM509 437h357l-183 359z" />
<glyph unicode="&#xe1;" horiz-adv-x="1421" d="M5 0v28q38 6 56.5 23t43.5 67l409 828q23 47 23 82q0 41 -56 64v28h435v-28q-55 -22 -55 -68q0 -33 25 -81l424 -803q35 -66 55 -85.5t61 -27.5v-27h-457v27q65 11 65 61q0 31 -25 77l-62 115h-515l-58 -122q-21 -44 -21 -69q0 -48 64 -61v-28h-412zM509 437h357 l-183 359zM581 1246v27q24 0 34 7t19 29l66 163q4 9 4 15q0 16 -28 19v27h304v-27q-39 -1 -59 -27l-142 -174q-6 -7 -6 -16q0 -16 21 -16h4v-27h-217z" />
<glyph unicode="&#xe2;" horiz-adv-x="1421" d="M5 0v28q38 6 56.5 23t43.5 67l409 828q23 47 23 82q0 41 -56 64v28h435v-28q-55 -22 -55 -68q0 -33 25 -81l424 -803q35 -66 55 -85.5t61 -27.5v-27h-457v27q65 11 65 61q0 31 -25 77l-62 115h-515l-58 -122q-21 -44 -21 -69q0 -48 64 -61v-28h-412zM359 1246v27 q24 1 31 5.5t38 36.5l134 149q11 12 11 25q0 17 -33 17v27h316v-27q-30 -3 -30 -18q0 -11 16 -28l150 -167q16 -19 45 -20v-27h-287v27q31 3 31 15q0 4 -16 23l-84 103l-92 -106q-9 -9 -9 -18q0 -15 29 -17v-27h-250zM509 437h357l-183 359z" />
<glyph unicode="&#xe3;" horiz-adv-x="1421" d="M5 0v28q38 6 56.5 23t43.5 67l409 828q23 47 23 82q0 41 -56 64v28h435v-28q-55 -22 -55 -68q0 -33 25 -81l424 -803q35 -66 55 -85.5t61 -27.5v-27h-457v27q65 11 65 61q0 31 -25 77l-62 115h-515l-58 -122q-21 -44 -21 -69q0 -48 64 -61v-28h-412zM355 1389l14 17 q23 -8 34 -8q21 0 38 22q62 80 152 80q33 0 65 -13l149 -58q28 -11 51 -11q20 0 38 16t18 34q0 14 -17 33l21 16l145 -134l-16 -20q-29 9 -37 9q-13 0 -26 -17q-67 -92 -142 -92q-39 0 -85 18l-148 57q-20 7 -44 7q-20 0 -39 -16.5t-19 -33.5q0 -12 15 -30l-18 -15zM509 437 h357l-183 359z" />
<glyph unicode="&#xe4;" horiz-adv-x="1421" d="M5 0v28q38 6 56.5 23t43.5 67l409 828q23 47 23 82q0 41 -56 64v28h435v-28q-55 -22 -55 -68q0 -33 25 -81l424 -803q35 -66 55 -85.5t61 -27.5v-27h-457v27q65 11 65 61q0 31 -25 77l-62 115h-515l-58 -122q-21 -44 -21 -69q0 -48 64 -61v-28h-412zM373 1379 q0 54 37 91.5t91 39.5q57 0 95 -38q38 -39 38 -95q0 -52 -38 -90t-93 -38q-53 0 -92 38q-38 37 -38 92zM509 437h357l-183 359zM770 1380q0 53 37.5 91t92.5 39q55 0 93 -38q38 -39 38 -90q0 -57 -38 -95t-95 -38q-53 0 -90.5 38.5t-37.5 92.5z" />
<glyph unicode="&#xe5;" horiz-adv-x="1421" d="M5 0v28q38 6 56.5 23t43.5 67l409 828q23 47 23 82q0 41 -56 64v28h435v-28q-55 -22 -55 -68q0 -33 25 -81l424 -803q35 -66 55 -85.5t61 -27.5v-27h-457v27q65 11 65 61q0 31 -25 77l-62 115h-515l-58 -122q-21 -44 -21 -69q0 -48 64 -61v-28h-412zM473 1394 q0 79 65.5 132.5t162.5 54.5q97 0 163 -55q67 -56 67 -134q0 -80 -67 -133q-69 -54 -162 -54q-95 0 -162 55q-67 56 -67 134zM509 437h357l-183 359zM601 1393q0 -35 29.5 -59.5t71.5 -24.5q41 0 71 24.5t30 58.5q0 37 -28 61t-73 24q-44 0 -72.5 -23.5t-28.5 -60.5z" />
<glyph unicode="&#xe6;" horiz-adv-x="2090" d="M58 0v27q40 7 61 24t51 67l501 825q36 60 36 91q0 34 -56 58v28h1250q32 0 48.5 14t26.5 50h27v-332h-28q-9 36 -25.5 50.5t-48.5 14.5h-680v-246h421q31 0 48.5 14.5t26.5 49.5h27v-324h-27q-10 36 -26.5 50.5t-48.5 14.5h-421v-273h711q31 0 47.5 14.5t26.5 50.5h27 v-332h-27q-10 35 -26.5 49.5t-47.5 14.5h-1043v28q62 14 64 74v178h-406l-77 -127q-28 -46 -28 -69q0 -44 57 -57v-27h-441zM644 437h309v480h-33z" />
<glyph unicode="&#xe7;" horiz-adv-x="1427" d="M73 560q0 197 114 348q179 236 549 236q137 0 243.5 -31t242.5 -111q62 -37 79 -37q14 0 38 17l23 -18l-169 -245l-22 16q1 12 2 15q1 9 1 13q0 49 -135 111q-128 59 -258 59q-182 0 -300 -96q-135 -108 -135 -277q0 -170 135 -278q119 -95 300 -95q142 0 283 71 q110 56 110 98q0 2 -3 28l22 17l169 -246l-23 -17q-24 17 -38 17q-17 0 -79 -37q-137 -80 -242 -111t-242 -31q-274 0 -447 131q-98 75 -156 188q-62 122 -62 265zM482 -392l23 47q55 -16 102 -16q65 0 103 22.5t38 61.5q0 29 -21 49.5t-51 20.5q-45 0 -76 -35l-30 18l53 99 q12 22 17 25.5t21 3.5q127 0 196 -41t69 -116q0 -72 -59 -118q-63 -49 -183 -49q-118 0 -202 28z" />
<glyph unicode="&#xe8;" horiz-adv-x="1314" d="M98 0v28q35 9 49.5 26t14.5 48v916q0 31 -14 47t-50 27v28h1012q32 0 48.5 14t26.5 50h27v-332h-27q-10 37 -26.5 51t-48.5 14h-680v-246h422q31 0 47.5 14t27.5 50h27v-324h-27q-10 36 -26.5 50.5t-48.5 14.5h-422v-273h711q31 0 47.5 14t26.5 51h28v-332h-28 q-9 35 -26 49.5t-48 14.5h-1043zM403 1506v27h304v-27q-28 -3 -28 -19q0 -6 4 -15l66 -163q9 -22 19 -29t34 -7v-27h-217v27h5q20 0 20 16q0 9 -6 16l-142 174q-20 26 -59 27z" />
<glyph unicode="&#xe9;" horiz-adv-x="1314" d="M98 0v28q35 9 49.5 26t14.5 48v916q0 31 -14 47t-50 27v28h1012q32 0 48.5 14t26.5 50h27v-332h-27q-10 37 -26.5 51t-48.5 14h-680v-246h422q31 0 47.5 14t27.5 50h27v-324h-27q-10 36 -26.5 50.5t-48.5 14.5h-422v-273h711q31 0 47.5 14t26.5 51h28v-332h-28 q-9 35 -26 49.5t-48 14.5h-1043zM546 1246v27q24 0 34 7t19 29l66 163q4 9 4 15q0 16 -28 19v27h304v-27q-39 -1 -59 -27l-142 -174q-6 -7 -6 -16q0 -16 21 -16h4v-27h-217z" />
<glyph unicode="&#xea;" horiz-adv-x="1314" d="M98 0v28q35 9 49.5 26t14.5 48v916q0 31 -14 47t-50 27v28h1012q32 0 48.5 14t26.5 50h27v-332h-27q-10 37 -26.5 51t-48.5 14h-680v-246h422q31 0 47.5 14t27.5 50h27v-324h-27q-10 36 -26.5 50.5t-48.5 14.5h-422v-273h711q31 0 47.5 14t26.5 51h28v-332h-28 q-9 35 -26 49.5t-48 14.5h-1043zM338 1246v27q24 1 31 5.5t38 36.5l134 149q11 12 11 25q0 17 -33 17v27h316v-27q-30 -3 -30 -18q0 -11 16 -28l150 -167q16 -19 45 -20v-27h-287v27q31 3 31 15q0 4 -16 23l-84 103l-92 -106q-9 -9 -9 -18q0 -15 29 -17v-27h-250z" />
<glyph unicode="&#xeb;" horiz-adv-x="1314" d="M98 0v28q35 9 49.5 26t14.5 48v916q0 31 -14 47t-50 27v28h1012q32 0 48.5 14t26.5 50h27v-332h-27q-10 37 -26.5 51t-48.5 14h-680v-246h422q31 0 47.5 14t27.5 50h27v-324h-27q-10 36 -26.5 50.5t-48.5 14.5h-422v-273h711q31 0 47.5 14t26.5 51h28v-332h-28 q-9 35 -26 49.5t-48 14.5h-1043zM348 1379q0 54 37 91.5t91 39.5q57 0 95 -38q38 -39 38 -95q0 -52 -38 -90t-93 -38q-53 0 -92 38q-38 37 -38 92zM745 1380q0 53 37.5 91t92.5 39q55 0 93 -38q38 -39 38 -90q0 -57 -38 -95t-95 -38q-53 0 -90.5 38.5t-37.5 92.5z" />
<glyph unicode="&#xec;" horiz-adv-x="593" d="M15 1506v27h304v-27q-28 -3 -28 -19q0 -6 4 -15l66 -163q9 -22 19 -29t34 -7v-27h-217v27h5q20 0 20 16q0 9 -6 16l-142 174q-20 26 -59 27zM99 0v28q35 9 49.5 26t14.5 48v916q0 31 -14 47t-50 27v28h396v-28q-36 -10 -50 -26.5t-14 -47.5v-916q0 -31 14 -47.5t50 -27.5 v-27h-396z" />
<glyph unicode="&#xed;" horiz-adv-x="593" d="M98 0v28q35 9 49.5 26t14.5 48v916q0 31 -14 47t-50 27v28h396v-28q-36 -10 -50 -26.5t-14 -47.5v-916q0 -31 14 -47.5t50 -27.5v-27h-396zM178 1246v27q24 0 34 7t19 29l66 163q4 9 4 15q0 16 -28 19v27h304v-27q-39 -1 -59 -27l-142 -174q-6 -7 -6 -16q0 -16 21 -16h4 v-27h-217z" />
<glyph unicode="&#xee;" horiz-adv-x="592" d="M-22 1246v27q24 1 37 9t32 33l113 149q12 15 12 25q0 17 -34 17v27h316v-27q-30 -3 -30 -18q0 -8 16 -28l129 -167q16 -20 46 -20v-27h-280v27q32 3 31 15q0 6 -7 13q-7 8 -9 10l-70 110l-80 -113q-8 -12 -8 -18q0 -15 29 -17v-27h-243zM99 0v28q35 9 49.5 26t14.5 48 v916q0 31 -14 47t-50 27v28h396v-28q-36 -10 -50 -26.5t-14 -47.5v-916q0 -31 14.5 -48t49.5 -27v-27h-396z" />
<glyph unicode="&#xef;" horiz-adv-x="593" d="M1 1379q0 54 37 91.5t91 39.5q57 0 95 -38q38 -39 38 -95q0 -52 -38 -90t-93 -38q-53 0 -92 38q-38 37 -38 92zM98 0v28q35 9 49.5 26t14.5 48v916q0 31 -14 47t-50 27v28h396v-28q-36 -10 -50 -26.5t-14 -47.5v-916q0 -31 14 -47.5t50 -27.5v-27h-396zM330 1380 q0 53 37.5 91t92.5 39q55 0 93 -38q38 -39 38 -90q0 -57 -38 -95t-96 -38q-52 0 -89.5 38.5t-37.5 92.5z" />
<glyph unicode="&#xf0;" horiz-adv-x="1463" d="M27 438v299h32q9 -35 25.5 -49.5t46.5 -14.5h53v345q0 31 -14 47t-50 27v28h657q205 0 323 -51q166 -72 239 -238q51 -117 51 -271q0 -287 -171 -435q-77 -66 -181.5 -95.5t-260.5 -29.5h-657v28q35 9 49.5 26t14.5 48v400h-53q-30 0 -46.5 -14.5t-25.5 -49.5h-32z M452 203h286q197 0 286 90q93 94 93 267q0 172 -93 266q-46 48 -114 69.5t-172 21.5h-286v-244h209q31 0 47 14t26 50h32v-299h-32q-10 36 -26 50t-47 14h-209v-299z" />
<glyph unicode="&#xf1;" horiz-adv-x="1523" d="M98 0v28q35 9 49.5 26t14.5 48v916q0 31 -14 47t-50 27v28h430v-28q-44 -11 -44 -39q0 -24 32 -56l600 -596v617q0 31 -14 47.5t-50 26.5v28h372v-28q-36 -10 -50 -26.5t-14 -47.5v-916q0 -31 14 -47.5t50 -27.5v-27h-401v27q44 9 44 37q0 14 -12 29t-55 59l-594 586 v-636q0 -31 14.5 -48t49.5 -27v-27h-372zM421 1389l14 17q23 -8 34 -8q21 0 38 22q62 80 152 80q33 0 65 -13l149 -58q28 -11 51 -11q20 0 38 16t18 34q0 14 -17 33l21 16l145 -134l-16 -20q-29 9 -37 9q-13 0 -26 -17q-67 -92 -142 -92q-39 0 -85 18l-148 57q-20 7 -44 7 q-20 0 -39 -16.5t-19 -33.5q0 -12 15 -30l-18 -15z" />
<glyph unicode="&#xf2;" horiz-adv-x="1460" d="M73 560q0 287 214 448q177 133 441 136q267 0 445 -136q213 -164 213 -457q0 -275 -213 -439q-176 -136 -443 -136t-443 136q-214 164 -214 448zM346 560q0 -156 101 -260q109 -112 283 -112q173 0 282 112q101 103 101 255q0 165 -101 266q-110 109 -283 111 q-173 0 -282 -111q-101 -104 -101 -261zM455 1506v27h304v-27q-28 -3 -28 -19q0 -6 4 -15l66 -163q9 -22 19 -29t34 -7v-27h-217v27h5q20 0 20 16q0 9 -6 16l-142 174q-20 26 -59 27z" />
<glyph unicode="&#xf3;" horiz-adv-x="1460" d="M73 560q0 287 214 448q177 133 441 136q267 0 445 -136q213 -164 213 -457q0 -275 -213 -439q-176 -136 -443 -136t-443 136q-214 164 -214 448zM346 560q0 -156 101 -260q109 -112 283 -112q173 0 282 112q101 103 101 255q0 165 -101 266q-110 109 -283 111 q-173 0 -282 -111q-101 -104 -101 -261zM619 1246v27q24 0 34 7t19 29l66 163q4 9 4 15q0 16 -28 19v27h304v-27q-39 -1 -59 -27l-142 -174q-6 -7 -6 -16q0 -16 21 -16h4v-27h-217z" />
<glyph unicode="&#xf4;" horiz-adv-x="1460" d="M73 560q0 287 214 448q177 133 441 136q267 0 445 -136q213 -164 213 -457q0 -275 -213 -439q-176 -136 -443 -136t-443 136q-214 164 -214 448zM346 560q0 -156 101 -260q109 -112 283 -112q173 0 282 112q101 103 101 255q0 165 -101 266q-110 109 -283 111 q-173 0 -282 -111q-101 -104 -101 -261zM397 1246v27q24 1 31 5.5t38 36.5l134 149q11 12 11 25q0 17 -33 17v27h316v-27q-30 -3 -30 -18q0 -11 16 -28l150 -167q16 -19 45 -20v-27h-287v27q31 3 31 15q0 4 -16 23l-84 103l-92 -106q-9 -9 -9 -18q0 -15 29 -17v-27h-250z " />
<glyph unicode="&#xf5;" horiz-adv-x="1460" d="M73 560q0 287 214 448q177 133 441 136q267 0 445 -136q213 -164 213 -457q0 -275 -213 -439q-176 -136 -443 -136t-443 136q-214 164 -214 448zM346 560q0 -156 101 -260q109 -112 283 -112q173 0 282 112q101 103 101 255q0 165 -101 266q-110 109 -283 111 q-173 0 -282 -111q-101 -104 -101 -261zM389 1389l14 17q23 -8 34 -8q21 0 38 22q62 80 152 80q33 0 65 -13l149 -58q28 -11 51 -11q20 0 38 16t18 34q0 14 -17 33l21 16l145 -134l-16 -20q-29 9 -37 9q-13 0 -26 -17q-67 -92 -142 -92q-39 0 -85 18l-148 57q-20 7 -44 7 q-20 0 -39 -16.5t-19 -33.5q0 -12 15 -30l-18 -15z" />
<glyph unicode="&#xf6;" horiz-adv-x="1460" d="M73 560q0 287 214 448q177 133 441 136q267 0 445 -136q213 -164 213 -457q0 -275 -213 -439q-176 -136 -443 -136t-443 136q-214 164 -214 448zM346 560q0 -156 101 -260q109 -112 283 -112q173 0 282 112q101 103 101 255q0 165 -101 266q-110 109 -283 111 q-173 0 -282 -111q-101 -104 -101 -261zM408 1379q0 54 37 91.5t91 39.5q57 0 95 -38q38 -39 38 -95q0 -52 -38 -90t-93 -38q-53 0 -92 38q-38 37 -38 92zM805 1380q0 53 37.5 91t92.5 39q55 0 93 -38q38 -39 38 -90q0 -57 -38 -95t-95 -38q-53 0 -90.5 38.5t-37.5 92.5z " />
<glyph unicode="&#xf7;" horiz-adv-x="1570" d="M234 521v324h30q8 -36 23 -50t43 -14h910q28 0 42.5 14t23.5 50h30v-324h-30q-9 36 -23.5 50t-42.5 14h-910q-29 0 -43.5 -14t-23.5 -50h-29zM621 264q0 67 47.5 114.5t116.5 48.5q69 0 116.5 -48t47.5 -117q0 -67 -48.5 -115t-115.5 -48q-68 0 -116 48.5t-48 116.5z M621 1104q0 67 47.5 114.5t116.5 48.5q69 0 116.5 -48t47.5 -117q0 -67 -48.5 -115t-115.5 -48q-68 0 -116 48.5t-48 116.5z" />
<glyph unicode="&#xf8;" horiz-adv-x="1460" d="M73 559q0 284 214 449q176 136 445 136q149 0 296 -54l17 24q17 23 17 46q0 19 -17 35.5t-43 22.5v24h368v-24q-49 0 -76 -21.5t-92 -111.5l-47 -64q231 -161 231 -462q0 -283 -213 -447q-176 -136 -444 -136q-147 0 -291 51l-16 -21q-24 -33 -24 -52q0 -42 60 -54v-23 h-368v23q51 14 81.5 40.5t87.5 102.5l42 58q-84 69 -130 133q-98 136 -98 325zM346 561q0 -151 101 -261l443 602q-71 31 -152 31q-182 0 -291 -111q-101 -105 -101 -261zM574 217q79 -29 153 -29q177 0 285 112q101 103 101 260q0 153 -101 262z" />
<glyph unicode="&#xf9;" horiz-adv-x="1414" d="M76 1092v28h397v-28q-37 -10 -51 -26.5t-14 -47.5v-539q0 -94 16.5 -144t57.5 -82q82 -65 237 -65t237 65q40 32 56 82t16 144v539q0 31 -13.5 47t-50.5 27v28h373v-28q-36 -10 -50 -26.5t-14 -47.5v-593q0 -203 -80 -298q-129 -151 -486 -151q-239 0 -386 73 q-106 53 -145 151q-36 90 -36 225v593q0 31 -14 47t-50 27zM439 1506v27h304v-27q-28 -3 -28 -19q0 -6 4 -15l66 -163q9 -22 19 -29t34 -7v-27h-217v27h5q20 0 20 16q0 9 -6 16l-142 174q-20 26 -59 27z" />
<glyph unicode="&#xfa;" horiz-adv-x="1414" d="M76 1092v28h397v-28q-37 -10 -51 -26.5t-14 -47.5v-539q0 -94 16.5 -144t57.5 -82q82 -65 237 -65t237 65q40 32 56 82t16 144v539q0 31 -13.5 47t-50.5 27v28h373v-28q-36 -10 -50 -26.5t-14 -47.5v-593q0 -203 -80 -298q-129 -151 -486 -151q-239 0 -386 73 q-106 53 -145 151q-36 90 -36 225v593q0 31 -14 47t-50 27zM582 1246v27q24 0 34 7t19 29l66 163q4 9 4 15q0 16 -28 19v27h304v-27q-39 -1 -59 -27l-142 -174q-6 -7 -6 -16q0 -16 21 -16h4v-27h-217z" />
<glyph unicode="&#xfb;" horiz-adv-x="1414" d="M76 1092v28h397v-28q-37 -10 -51 -26.5t-14 -47.5v-539q0 -94 16.5 -144t57.5 -82q82 -65 237 -65t237 65q40 32 56 82t16 144v539q0 31 -13.5 47t-50.5 27v28h373v-28q-36 -10 -50 -26.5t-14 -47.5v-593q0 -203 -80 -298q-129 -151 -486 -151q-239 0 -386 73 q-106 53 -145 151q-36 90 -36 225v593q0 31 -14 47t-50 27zM374 1246v27q24 1 31 5.5t38 36.5l134 149q11 12 11 25q0 17 -33 17v27h316v-27q-30 -3 -30 -18q0 -11 16 -28l150 -167q16 -19 45 -20v-27h-287v27q31 3 31 15q0 4 -16 23l-84 103l-92 -106q-9 -9 -9 -18 q0 -15 29 -17v-27h-250z" />
<glyph unicode="&#xfc;" horiz-adv-x="1414" d="M76 1092v28h397v-28q-37 -10 -51 -26.5t-14 -47.5v-539q0 -94 16.5 -144t57.5 -82q82 -65 237 -65t237 65q40 32 56 82t16 144v539q0 31 -13.5 47t-50.5 27v28h373v-28q-36 -10 -50 -26.5t-14 -47.5v-593q0 -203 -80 -298q-129 -151 -486 -151q-239 0 -386 73 q-106 53 -145 151q-36 90 -36 225v593q0 31 -14 47t-50 27zM384 1379q0 54 37 91.5t91 39.5q57 0 95 -38q38 -39 38 -95q0 -52 -38 -90t-93 -38q-53 0 -92 38q-38 37 -38 92zM781 1380q0 53 37.5 91t92.5 39q55 0 93 -38q38 -39 38 -90q0 -57 -38 -95t-95 -38 q-53 0 -90.5 38.5t-37.5 92.5z" />
<glyph unicode="&#xfd;" horiz-adv-x="1226" d="M-22 1092v28h504v-28q-65 -17 -65 -61q0 -22 47 -88l163 -226l159 226q47 67 47 89q0 42 -64 60l-1 28h480v-28q-46 -10 -79.5 -38.5t-89.5 -105.5l-332 -457v-389q0 -31 14 -47.5t50 -27.5v-27h-396v27q36 10 50 26.5t14 48.5v389l-332 457q-56 77 -89.5 105.5 t-79.5 38.5zM495 1246v27q24 0 34 7t19 29l66 163q4 9 4 15q0 16 -28 19v27h304v-27q-39 -1 -59 -27l-142 -174q-6 -7 -6 -16q0 -16 21 -16h4v-27h-217z" />
<glyph unicode="&#xfe;" horiz-adv-x="1239" d="M98 0v28q35 9 49.5 26t14.5 48v916q0 31 -14 47t-50 27v28h396v-28q-36 -10 -50 -26.5t-14 -47.5v-76h295q218 0 328 -65q64 -38 100 -108t36 -157q0 -167 -114.5 -248.5t-349.5 -81.5h-295v-180q0 -31 14 -47.5t50 -27.5v-27h-396zM430 485h286q106 0 147 20 q60 30 60 107q0 78 -60 107q-40 20 -147 20h-286v-254z" />
<glyph unicode="&#xff;" horiz-adv-x="1226" d="M-22 1092v28h504v-28q-65 -17 -65 -61q0 -22 47 -88l163 -226l159 226q47 67 47 89q0 42 -64 60l-1 28h480v-28q-46 -10 -79.5 -38.5t-89.5 -105.5l-332 -457v-389q0 -31 14 -47.5t50 -27.5v-27h-396v27q36 10 50 26.5t14 48.5v389l-332 457q-56 77 -89.5 105.5 t-79.5 38.5zM284 1379q0 54 37 91.5t91 39.5q57 0 95 -38q38 -39 38 -95q0 -52 -38 -90t-93 -38q-53 0 -92 38q-38 37 -38 92zM681 1380q0 53 37.5 91t92.5 39q55 0 93 -38q38 -39 38 -90q0 -57 -38 -95t-95 -38q-53 0 -90.5 38.5t-37.5 92.5z" />
<glyph unicode="&#x152;" horiz-adv-x="2435" d="M91 682q0 200 106 367q121 190 354 272q146 52 313 52l202 -8h1152q30 0 46 14t26 51h32v-353h-32q-10 36 -25.5 49.5t-46.5 13.5h-854v-324h553q31 0 47 14t26 50h32v-345h-32q-10 36 -26 50t-47 14h-553v-374h878q31 0 46.5 14t25.5 50h32v-353h-32q-10 36 -25.5 50 t-46.5 14h-1176q-9 0 -53 -2q-117 -6 -157 -6q-332 0 -544 189q-112 100 -170 241q-51 124 -51 260zM395 682q0 -212 132 -341q131 -127 369 -127q73 0 170 11v915q-89 11 -166 11q-244 0 -373 -127q-132 -130 -132 -342z" />
<glyph unicode="&#x153;" horiz-adv-x="2007" d="M57 560q0 189 119 341q98 126 261 183q123 44 264 44l166 -8h954q32 0 48.5 14t26.5 50h27v-332h-27q-11 37 -27 51t-48 14h-683v-246h421q32 0 48.5 14t26.5 50h27v-324h-27q-10 36 -26.5 50.5t-48.5 14.5h-421v-273h710q32 0 48 14t27 51h27v-332h-27q-10 36 -26.5 50 t-48.5 14h-981q-19 0 -92 -5q-37 -3 -75 -3q-257 0 -424 127q-95 72 -152 179q-67 124 -67 262zM330 560q0 -169 118 -275q103 -93 280 -93q70 0 142 11v714q-70 11 -140 11q-179 0 -282 -93q-118 -107 -118 -275z" />
<glyph unicode="&#x178;" horiz-adv-x="1460" d="M-27 1333v32h539v-32q-67 -11 -67 -62q0 -18 41 -79l246 -366l253 366q41 59 41 80q0 23 -18 39.5t-49 21.5v32h528v-32q-45 -6 -77.5 -33.5t-89.5 -107.5l-441 -621v-466q0 -31 14.5 -47t50.5 -26v-32h-429v32q36 10 51 26t15 47v466l-441 621q-57 80 -89.5 107.5 t-77.5 33.5zM400 1611q0 54 37 91.5t92 39.5q57 0 94 -38q38 -39 38 -96q0 -51 -38 -89t-93 -38q-53 0 -92 38q-38 37 -38 92zM798 1612q0 54 37.5 91.5t92.5 38.5q55 0 93 -38q38 -39 38 -90q0 -57 -38 -95t-95 -38q-53 0 -90.5 38.5t-37.5 92.5z" />
<glyph unicode="&#x2c6;" horiz-adv-x="1024" d="M173 1246v27q24 1 31 5.5t38 36.5l134 149q11 12 11 25q0 17 -33 17v27h316v-27q-30 -3 -30 -18q0 -11 16 -28l150 -167q16 -19 45 -20v-27h-287v27q31 3 31 15q0 4 -16 23l-84 103l-92 -106q-9 -9 -9 -18q0 -15 29 -17v-27h-250z" />
<glyph unicode="&#x2dc;" horiz-adv-x="1024" d="M158 1389l14 17q23 -8 34 -8q21 0 38 22q62 80 152 80q33 0 65 -13l149 -58q28 -11 51 -11q20 0 38 16t18 34q0 14 -17 33l21 16l145 -134l-16 -20q-29 9 -37 9q-13 0 -26 -17q-67 -92 -142 -92q-39 0 -85 18l-148 57q-20 7 -44 7q-20 0 -39 -16.5t-19 -33.5 q0 -12 15 -30l-18 -15z" />
<glyph unicode="&#x2000;" horiz-adv-x="906" />
<glyph unicode="&#x2001;" horiz-adv-x="1813" />
<glyph unicode="&#x2002;" horiz-adv-x="906" />
<glyph unicode="&#x2003;" horiz-adv-x="1813" />
<glyph unicode="&#x2004;" horiz-adv-x="604" />
<glyph unicode="&#x2005;" horiz-adv-x="453" />
<glyph unicode="&#x2006;" horiz-adv-x="302" />
<glyph unicode="&#x2007;" horiz-adv-x="302" />
<glyph unicode="&#x2008;" horiz-adv-x="226" />
<glyph unicode="&#x2009;" horiz-adv-x="362" />
<glyph unicode="&#x200a;" horiz-adv-x="100" />
<glyph unicode="&#x2010;" horiz-adv-x="455" d="M0 387v346h32q9 -36 25.5 -50.5t46.5 -14.5h246q31 0 47 14t26 51h32v-346h-32q-10 36 -26 50t-47 14h-246q-30 0 -46.5 -14.5t-25.5 -49.5h-32z" />
<glyph unicode="&#x2011;" horiz-adv-x="455" d="M0 387v346h32q9 -36 25.5 -50.5t46.5 -14.5h246q31 0 47 14t26 51h32v-346h-32q-10 36 -26 50t-47 14h-246q-30 0 -46.5 -14.5t-25.5 -49.5h-32z" />
<glyph unicode="&#x2012;" horiz-adv-x="455" d="M0 387v346h32q9 -36 25.5 -50.5t46.5 -14.5h246q31 0 47 14t26 51h32v-346h-32q-10 36 -26 50t-47 14h-246q-30 0 -46.5 -14.5t-25.5 -49.5h-32z" />
<glyph unicode="&#x2013;" horiz-adv-x="1577" d="M87 390v340h32q10 -36 26 -50t47 -14h1193q30 0 46.5 14t25.5 50h32v-340h-32q-9 35 -25.5 49.5t-46.5 14.5h-1193q-31 0 -47 -14t-26 -50h-32z" />
<glyph unicode="&#x2014;" horiz-adv-x="1361" d="M0 390v340h32q10 -36 26 -50t47 -14h1152q30 0 46 14t26 50h32v-340h-32q-10 35 -26 49.5t-46 14.5h-1152q-31 0 -47 -14t-26 -50h-32z" />
<glyph unicode="&#x2018;" horiz-adv-x="628" d="M150 1006q0 219 232 383l48 -64q-81 -54 -117.5 -105t-50.5 -132q46 12 70 12q66 0 106 -46t40 -120t-40.5 -118t-107.5 -44q-90 0 -138 74q-42 66 -42 160z" />
<glyph unicode="&#x2019;" horiz-adv-x="628" d="M150 1227q0 74 40.5 118t107.5 44q81 0 130.5 -64.5t49.5 -169.5q0 -219 -233 -384l-48 65q82 53 118 104t51 133q-47 -12 -70 -12q-66 0 -106 46t-40 120z" />
<glyph unicode="&#x201a;" horiz-adv-x="628" d="M150 142q0 74 40.5 118t107.5 44q90 0 138 -74q42 -67 42 -160q0 -220 -233 -384l-48 64q82 54 118 105t51 132q-48 -11 -70 -11q-66 0 -106 46t-40 120z" />
<glyph unicode="&#x201c;" horiz-adv-x="1106" d="M150 1006q0 219 232 383l48 -64q-81 -54 -117.5 -105t-50.5 -132q46 12 70 12q66 0 106 -46t40 -120t-40.5 -118t-107.5 -44q-90 0 -138 74q-42 66 -42 160zM628 1006q0 219 232 383l48 -64q-81 -54 -117.5 -105t-51.5 -132q47 12 71 12q66 0 106 -45.5t40 -120.5 q0 -74 -40.5 -118t-107.5 -44q-90 0 -138 74q-42 66 -42 160z" />
<glyph unicode="&#x201d;" horiz-adv-x="1106" d="M150 1227q0 74 40.5 118t107.5 44q81 0 130.5 -64.5t49.5 -169.5q0 -219 -233 -384l-48 65q82 53 118 104t51 133q-47 -12 -70 -12q-66 0 -106 46t-40 120zM628 1227q0 74 40.5 118t107.5 44q81 0 130.5 -64.5t49.5 -169.5q0 -219 -233 -384l-48 65q82 53 118 104t51 133 q-47 -12 -70 -12q-66 0 -106 46t-40 120z" />
<glyph unicode="&#x201e;" horiz-adv-x="1106" d="M150 142q0 74 40.5 118t107.5 44q90 0 138 -74q42 -67 42 -160q0 -220 -233 -384l-48 64q82 54 118 105t51 132q-48 -11 -70 -11q-66 0 -106 46t-40 120zM628 142q0 74 40.5 118t107.5 44q90 0 138 -74q42 -67 42 -160q0 -219 -233 -384l-48 64q82 54 118 105t51 132 q-48 -11 -70 -11q-66 0 -106 46t-40 120z" />
<glyph unicode="&#x2022;" horiz-adv-x="1365" d="M401 693q0 121 84 202q84 83 204 83q113 0 196 -83q84 -83 84 -201t-84 -201q-82 -83 -200 -83t-200 83q-84 83 -84 200z" />
<glyph unicode="&#x2026;" horiz-adv-x="1884" d="M150 141q0 67 47.5 114.5t116.5 48.5q69 0 116.5 -48t47.5 -117q0 -67 -48.5 -115t-115.5 -48q-68 0 -116 48.5t-48 116.5zM778 141q0 67 47.5 114.5t116.5 48.5q69 0 116.5 -48t47.5 -117q0 -67 -48.5 -115t-115.5 -48q-68 0 -116 48.5t-48 116.5zM1406 141 q0 67 47.5 114.5t116.5 48.5q69 0 116.5 -48t47.5 -117q0 -67 -48.5 -115t-115.5 -48q-68 0 -116 48.5t-48 116.5z" />
<glyph unicode="&#x202f;" horiz-adv-x="362" />
<glyph unicode="&#x2039;" horiz-adv-x="640" d="M123 580l194 403h173l-196 -403l196 -403h-173z" />
<glyph unicode="&#x203a;" horiz-adv-x="640" d="M150 177l196 403l-196 403h173l194 -403l-194 -403h-173z" />
<glyph unicode="&#x205f;" horiz-adv-x="453" />
<glyph unicode="&#x20ac;" d="M65 352l45 266h32q7 -65 62 -65h22q-9 65 -9 128q0 46 3 81h-39q-56 0 -84 -64h-32l45 266h32q7 -65 62 -65h39q56 222 213 353q166 137 404 137q170 0 322 -82q85 -46 100 -46q18 0 46 26l26 -18l-220 -315l-27 18q2 16 2 27q0 25 -25 55q-85 102 -224 103 q-220 2 -306 -258h344q55 0 82 65h33l-45 -266h-32q-7 64 -63 64h-348q-5 -44 -5 -81q0 -62 12 -128h306q55 0 82 65h33l-45 -266h-32q-7 64 -63 64h-240q92 -210 287 -208q140 1 226 104q25 30 25 54q0 11 -2 27l27 18l220 -315l-26 -18q-28 26 -46 26q-15 0 -100 -46 q-152 -82 -324 -82q-225 0 -386 122q-154 116 -218 318h-75q-56 0 -84 -64h-32z" />
<glyph unicode="&#x2122;" horiz-adv-x="2083" d="M2 1190v211h32q6 -22 14 -29t26 -7h710q17 0 25 7t14 29h32v-211h-32q-6 21 -14 28t-25 7h-256v-573q0 -15 8 -22t32 -13v-30h-278v30q24 6 32 13t8 22v573h-256q-18 0 -26 -7t-14 -28h-32zM926 587v30q24 6 32 13t8 22v648q0 15 -8 22.5t-32 12.5v30h340v-30 q-29 -6 -29 -25q0 -10 8 -23l225 -375l227 368q15 24 15 34q0 19 -31 20v31h333v-30q-24 -5 -32 -12.5t-8 -22.5v-648q0 -15 8 -22t32 -13v-30h-277v30q23 6 31 13t8 22v447l-322 -508l-305 507v-446q0 -15 8 -22t32 -13v-30h-263z" />
<glyph unicode="&#x25fc;" horiz-adv-x="1120" d="M0 0v1120h1120v-1120h-1120z" />
</font>
</defs>
</svg>
