<?xml version="1.0" standalone="no"?>
<!DOCTYPE svg PUBLIC "-//W3C//DTD SVG 1.1//EN" "http://www.w3.org/Graphics/SVG/1.1/DTD/svg11.dtd" >
<svg>
<metadata>
Created by FontForge 20090914 at Thu Jun 13 11:10:10 2013
 By www-data
Digitized data (c) Copyright 1997 E+F Designstudios. ITC American Typewriter is a registered trademark of International Typeface Corporation.
</metadata>
<defs>
<font id="AmericanTypewriter-CondensedLight" horiz-adv-x="500" >
  <font-face 
    font-family="American Typewriter"
    font-weight="300"
    font-stretch="condensed"
    units-per-em="1000"
    panose-1="2 9 3 6 2 0 4 2 3 4"
    ascent="800"
    descent="-200"
    x-height="467"
    cap-height="670"
    bbox="-402 -250 790 827"
    underline-thickness="20"
    underline-position="-156"
    unicode-range="U+0008-U+FB02"
  />
<missing-glyph 
d="M63 0v763h375v-763h-375zM125 63h250v638h-250v-638z" />
    <glyph glyph-name="fi" unicode="fi" horiz-adv-x="501" 
d="M145 486l3.00195 -9.99902l1 -4c1.33301 -4.66699 11.333 -7 30 -7l150 1c17.333 0 32.666 0.666992 45.999 2c2 0 4.33301 0.333008 7 1h4c10.667 0 16 -6.66699 16 -20v-5c-0.666992 -2.66699 -1 -4.66699 -1 -6v-341c0 -30 0.333008 -46 1 -48
c3.33301 -18 13.333 -27 30 -27c8 0 14.333 0.333008 19 1h10c15.333 0 23 -4.33301 23 -13s-6 -13 -18 -13c-6.66699 0 -12.667 0.666992 -18 2c-25.333 2.66699 -48 4 -68 4c-19.333 0 -33.333 -0.666992 -42 -2l-26 -4c-4 -0.666992 -8.66699 -1 -14 -1
c-13.333 0 -20 4.66699 -20 14s6 14 18 14c6.66699 0 14.334 -0.333008 23.001 -1c0.666992 0 2.66699 -0.333008 6 -1h7c21.333 0 34.333 8 39 24c2 5.33301 3 23.333 3 54l1 219c0 44.667 0 65.667 0 63c-1.33301 35.333 -6.33301 55.333 -15 60
c-5.33301 3.33301 -16 5 -32 5h-145c-18 0 -28.333 -0.666992 -31 -2l-1.5 -1c-1 -0.666992 -1.83301 -1.33398 -2.5 -2.00098c-2.66699 -3.33301 -4 -10.666 -4 -21.999v-332c0 -38 5.66699 -59 17 -63c4.66699 -2 11.334 -3 20.001 -3h15c6 0.666992 11.667 1 17 1
c13.333 0 20 -4.33301 20 -13s-6.66699 -13 -20 -13h-10l-33 5c-8.66699 1.33301 -21 2 -37 2c-20.667 0 -46.334 -2.33301 -77.001 -7c-2.66699 -0.666992 -6.33398 -1 -11.001 -1c-12 0 -18 4.66699 -18 14s6.33301 14 19 14c-4 0 -1.66699 -0.333008 7 -1l13 -1
c3.33301 -0.666992 8.33301 -1 15 -1c16.667 0 26.834 3.66699 30.501 11s5.5 26 5.5 56v332c0 18 -4.66699 27 -14 27c0.666992 0 -9 -0.666992 -29 -2c-7.33301 -1.33301 -15.333 -2 -24 -2c-14 0 -21 4.66699 -21 14c0 8 5.33301 12 16 12c2 0 11 -0.666992 27 -2
s25 -2 27 -2c9.33301 0 15.166 1.83301 17.499 5.5s3.5 13.167 3.5 28.5c1.33301 117.333 54.333 176 159 176c39.333 0 71.666 -8.83301 96.999 -26.5s38 -40.167 38 -67.5c0 -28.667 -11.667 -43 -35 -43c-20 0 -30 10.667 -30 32c0 20.667 8 31 24 31
c4.66699 0 7 1.66699 7 5c0 9.33301 -9 19.333 -27 30c-21.333 12.667 -46.333 19 -75 19c-38.667 0 -69.667 -10.833 -93 -32.5s-36 -51.834 -38 -90.501z" />
    <glyph glyph-name="fl" unicode="fl" horiz-adv-x="501" 
d="M267 443l-37.0039 2.00098l-47 2h-18c-8 0 -13.5 -1.83301 -16.5 -5.5s-4.5 -10.834 -4.5 -21.501v-332c0 -38 5.66699 -59 17 -63c4.66699 -2 11.334 -3 20.001 -3h15c6 0.666992 11.667 1 17 1c13.333 0 20 -4.33301 20 -13s-6.66699 -13 -20 -13h-10l-33 5
c-8.66699 1.33301 -21 2 -37 2c-20.667 0 -46.334 -2.33301 -77.001 -7c-2.66699 -0.666992 -6.33398 -1 -11.001 -1c-12 0 -18 4.66699 -18 14s6.33301 14 19 14c-4 0 -1.66699 -0.333008 7 -1l13 -1c3.33301 -0.666992 8.33301 -1 15 -1
c16.667 0 26.834 3.66699 30.501 11s5.5 26 5.5 56v332c0 12 -1.16699 19.5 -3.5 22.5s-6.16602 4.5 -11.499 4.5c1.33301 0 -8 -0.666992 -28 -2c-7.33301 -1.33301 -15.333 -2 -24 -2c-14 0 -21 4.33301 -21 13s5.33301 13 16 13c2 0 11 -1 27 -3h10
c4.66699 -0.666992 8.33398 -1 11.001 -1c12.667 0 20.334 1.83301 23.001 5.5s4 14.167 4 31.5c0 54 13.833 96.333 41.5 127s65.834 46 114.501 46c26 0 53.333 -3.33301 82 -10c6 -0.666992 12.667 -2 20 -4c10.667 -2 17.167 -4.5 19.5 -7.5s3.5 -11.5 3.5 -25.5v-10
c-0.666992 -7.33301 -1 -22 -1 -44l1 -477c0 -30 0.333008 -46 1 -48c3.33301 -18 13.333 -27 30 -27c8 0 14.333 0.333008 19 1h10c15.333 0 23 -4.33301 23 -13s-6 -13 -18 -13c-6.66699 0 -12.667 0.666992 -18 2c-25.333 2.66699 -48 4 -68 4
c-19.333 0 -33.333 -0.666992 -42 -2l-26 -4c-4 -0.666992 -8.66699 -1 -14 -1c-13.333 0 -20 4.66699 -20 14s6 14 18 14c6.66699 0 14.334 -0.333008 23.001 -1c0.666992 0 2.66699 -0.333008 6 -1h7c21.333 0 34.333 7.66699 39 23c2 6 3 24.333 3 55l-1 509
c-0.666992 18 -6.66699 30.333 -18 37s-33 10 -65 10c-51.333 0 -88.5 -13.167 -111.5 -39.5s-34.5 -68.5 -34.5 -126.5c0 -12 1.16699 -19.167 3.5 -21.5s9.16602 -3.5 20.499 -3.5c8.66699 0 30.667 0.666992 66 2c10 0.666992 18.667 1.16699 26 1.5s11.333 0.5 12 0.5
c16.667 0 25 -4.33301 25 -13s-8.66699 -13 -26 -13h-4z" />
    <glyph glyph-name=".notdef" 
d="M63 0v763h375v-763h-375zM125 63h250v638h-250v-638z" />
    <glyph glyph-name="controlNULL" horiz-adv-x="0" 
 />
    <glyph glyph-name="controlNULL" horiz-adv-x="0" 
 />
    <glyph glyph-name="controlBS" horiz-adv-x="0" 
 />
    <glyph glyph-name="controlHT" unicode="&#x9;" horiz-adv-x="250" 
 />
    <glyph glyph-name="controlCR" unicode="&#xd;" horiz-adv-x="250" 
 />
    <glyph glyph-name="controlGS" horiz-adv-x="0" 
 />
    <glyph glyph-name="space" unicode=" " horiz-adv-x="250" 
 />
    <glyph glyph-name="exclam" unicode="!" horiz-adv-x="224" 
d="M130 634c-0.666992 -12 -1.66699 -37.333 -3 -76l-3 -105c-0.666992 -23.333 -1 -75.333 -1 -156c0 -59.333 0.333008 -98.333 1 -117c0.666992 -5.33301 1 -10.333 1 -15c0 -13.333 -5 -20 -15 -20c-9.33301 0 -14 6 -14 18v11l1 28l1 28v100
c0 7.33301 -0.333008 49 -1 125l-1 98l-2 92c0 17.333 2.33301 28 7 32c2.66699 2 6.66699 3 12 3c12 0 18 -8.33301 18 -25c0 2.66699 -0.333008 -4.33301 -1 -21zM150 38c0 -14.667 -3.66797 -26.833 -11.001 -36.5s-16.666 -14.5 -27.999 -14.5
c-10.667 0 -19.667 4.66699 -27 14s-11 20.333 -11 33c0 33.333 12.667 50 38 50c26 0 39 -15.333 39 -46z" />
    <glyph glyph-name="quotedbl" unicode="&#x22;" horiz-adv-x="261" 
d="M92 667l-4 -269h-21l-4 269h29zM197 667l-4 -269h-20l-4 269h28z" />
    <glyph glyph-name="numbersign" unicode="#" horiz-adv-x="600" 
d="M408 253h116l-4 -26h-117l-33 -227h-28l34 227h-175l-34 -227h-27l34 227h-120l4 26h120l26 174h-120l3 26h120l33 214h27l-32 -214h175l32 214h28l-32 -214h116l-4 -26h-116zM381 253l25 174h-175l-26 -174h176z" />
    <glyph glyph-name="dollar" unicode="$" 
d="M92 503c0 98.667 51.334 157.664 154.001 176.997l-1 98c0 11.333 0.333008 18.333 1 21c2 5.33301 7.33301 8 16 8c9.33301 0 13.666 -5.66699 12.999 -17l-1 -32v-78c48 -6.66699 86.5 -24 115.5 -52s43.5 -62 43.5 -102c0 -40.667 -14.667 -61 -44 -61
c-22.667 0 -34 12 -34 36c0 16 8.33301 28.333 25 37c8 4 12 10 12 18c0 22 -12 42.833 -36 62.5s-51.333 30.834 -82 33.501v-290l12 -3c51.333 -12.667 89 -31.667 113 -57c28 -29.333 42 -69.333 42 -120c0 -53.333 -15.167 -97.666 -45.5 -132.999
s-70.833 -56 -121.5 -62v-70l-1 -28c-0.666992 -13.333 -6 -20 -16 -20c-10.667 0 -16 7 -16 21c0 7.33301 0.333008 16.666 1 27.999l4 69c-52.667 2.66699 -97 20.834 -133 54.501s-54 73.834 -54 120.501c0 18 4.33301 33 13 45s19.667 18 33 18c22 0 33 -13.333 33 -40
c0 -16 -6.5 -26.667 -19.5 -32s-19.5 -12 -19.5 -20c0 -30 15 -57 45 -81s64 -36.667 102 -38v321l-12 3c-46 11.333 -80.333 29.333 -103 54c-26 28 -39 65 -39 111zM246.001 367.997v284.001c-82 -14.667 -123 -64.334 -123 -149.001c0 -72 41 -117 123 -135z
M274.001 328.998v-312.999c90.667 11.333 136 66.666 136 165.999c0 78.667 -45.333 127.667 -136 147z" />
    <glyph glyph-name="percent" unicode="%" horiz-adv-x="539" 
d="M246 501c0 -55.333 -9.16699 -98.8311 -27.5 -130.498s-43.833 -47.5 -76.5 -47.5c-31.333 0 -56.166 15.167 -74.499 45.5s-27.5 71.5 -27.5 123.5c0 53.333 9.66699 96.166 29 128.499s44.666 48.5 75.999 48.5c30.667 0 55.167 -15.333 73.5 -46
s27.5 -71.334 27.5 -122.001zM149 34.002l4.00098 12.002l225 605c4 10 8 15 12 15c6 0 9 -4 9 -12c0 -4.66699 -4.33301 -18.334 -13 -41.001l-215 -577c-2 -4.66699 -4.83301 -12.334 -8.5 -23.001s-7.83398 -16 -12.501 -16c-6 0 -9 4 -9 12c0 4 1 8.33301 3 13z
M499.001 172.004c0 -55.333 -9.00098 -98.832 -27.001 -130.499s-43.333 -47.5 -76 -47.5c-31.333 0 -56.166 15 -74.499 45s-27.5 71 -27.5 123c0 53.333 9.5 96.166 28.5 128.499s44.5 48.5 76.5 48.5c30.667 0 55 -15.167 73 -45.5s27 -70.833 27 -121.5zM62 490.005
c0 -45.333 7.16602 -81.333 21.499 -108s33.833 -40 58.5 -40c54 0 81 52.667 81 158c0 100 -25.667 150 -77 150c-25.333 0 -45.666 -14.5 -60.999 -43.5s-23 -67.833 -23 -116.5zM315.999 161.005c0 -45.333 7.16797 -81.499 21.501 -108.499s33.833 -40.5 58.5 -40.5
c54 0 81 53 81 159c0 47.333 -6.83301 84.166 -20.5 110.499s-32.834 39.5 -57.501 39.5c-25.333 0 -45.5 -14.5 -60.5 -43.5s-22.5 -67.833 -22.5 -116.5z" />
    <glyph glyph-name="ampersand" unicode="&#x26;" horiz-adv-x="647" 
d="M128 428c16 10.667 37.0059 19.333 63.0059 26c-37.333 24 -56 57.667 -56 101c0 33.333 10.167 60.666 30.5 81.999s45.833 32 76.5 32c27.333 0 49.833 -8.83301 67.5 -26.5s26.5 -40.5 26.5 -68.5c0 -16 -4 -29.167 -12 -39.5s-18.333 -15.5 -31 -15.5
c-10.667 0 -19.834 3.66699 -27.501 11s-11.5 16 -11.5 26c0 16.667 7.66699 25 23 25c8.66699 0 14.667 -4.66699 18 -14c0.666992 -5.33301 2 -8 4 -8c5.33301 0 8 7 8 21c0 17.333 -6.5 32.5 -19.5 45.5s-28.5 19.5 -46.5 19.5c-22 0 -40 -8.66699 -54 -26
s-21 -39.666 -21 -66.999c0 -26 6.16699 -47.167 18.5 -63.5s28.5 -24.5 48.5 -24.5c-4.66699 0 -1.33398 0.333008 9.99902 1c6.66699 0.666992 12.334 1 17.001 1c10.667 0 16 -4.33301 16 -13s-5.66699 -13 -17 -13h-18c-51.333 0 -92.5 -19 -123.5 -57
s-46.5 -88.333 -46.5 -151c0 -67.333 17.5 -120.666 52.5 -159.999s82.5 -59 142.5 -59c62.667 0 113.667 20.667 153 62s59 95 59 161c0 48.667 -10.333 87.667 -31 117s-48.334 44 -83.001 44c-28 0 -50.833 -10.667 -68.5 -32s-26.5 -49 -26.5 -83
c0 -24 4.5 -43.667 13.5 -59s20.5 -23 34.5 -23c7.33301 0 13.833 2.66699 19.5 8s8.5 11.333 8.5 18c0 5.33301 -2.33301 8.33301 -7 9l-5 1c-10.667 2 -16 9.33301 -16 22c0 18.667 9 28 27 28c9.33301 0 17.333 -4.33301 24 -13s10 -19.334 10 -32.001
c0 -19.333 -6 -35.666 -18 -48.999s-26.667 -20 -44 -20c-22.667 0 -41.334 10.167 -56.001 30.5s-22 46.166 -22 77.499c0 45.333 12 80.666 36 105.999s57.333 38 100 38c10.667 0 25.667 -0.666992 45 -2s39.666 -2 60.999 -2c78 0 117 39.667 117 119
c0 32.667 -7.83301 59.834 -23.5 81.501s-35.5 32.5 -59.5 32.5c-21.333 0 -39 -8.5 -53 -25.5s-21 -37.833 -21 -62.5c0 -14.667 3.33301 -27 10 -37s15 -15 25 -15c12.667 0 19 6 19 18c0 2.66699 -2.33301 6 -7 10s-7 9.33301 -7 16c0 14.667 7 22 21 22
c17.333 0 26 -11.667 26 -35c0 -16.667 -4.83301 -30.167 -14.5 -40.5s-22.167 -15.5 -37.5 -15.5c-19.333 0 -34.833 7.16699 -46.5 21.5s-17.5 33.5 -17.5 57.5c0 32.667 10 59.667 30 81s45 32 75 32c33.333 0 60.166 -12.833 80.499 -38.5s30.5 -59.167 30.5 -100.5
c0 -96 -43.333 -144 -130 -144c-20.667 0 -41.667 1 -63 3c50 -37.333 75 -92 75 -164c0 -74 -22.333 -134 -67 -180s-102.667 -69 -174 -69c-68.667 0 -123.834 22.5 -165.501 67.5s-62.5 104.833 -62.5 179.5c0 41.333 7.83301 79.5 23.5 114.5s37.167 61.5 64.5 79.5z
" />
    <glyph glyph-name="quotesingle" unicode="'" horiz-adv-x="155" 
d="M92 667l-4 -269h-21l-4 269h29z" />
    <glyph glyph-name="parenleft" unicode="(" horiz-adv-x="297" 
d="M241 655c-56.667 -39.333 -100.667 -93.499 -132 -162.499s-47 -145.833 -47 -230.5s15.667 -161.5 47 -230.5s75.333 -123.167 132 -162.5c10 -6.66699 15 -12.334 15 -17.001c0 -5.33301 -3.33301 -8 -10 -8c-2 0 -5 0.666992 -9 2
c-32.667 19.333 -63.667 46.333 -93 81c-77.333 90.667 -116 202.334 -116 335.001c0 82 16.667 158.667 50 230c35.333 77.333 85.333 137.333 150 180c8 5.33301 14 8 18 8c6.66699 0 10 -2.66699 10 -8c0 -4.66699 -5 -10.334 -15 -17.001z" />
    <glyph glyph-name="parenright" unicode=")" horiz-adv-x="297" 
d="M56 -131c56 39.333 99.832 93.667 131.499 163s47.5 146 47.5 230s-15.833 160.667 -47.5 230s-75.5 123.666 -131.5 162.999c-10 6.66699 -15 12.334 -15 17.001c0 5.33301 3.33301 8 10 8c2 0 4.66699 -0.833008 8 -2.5s8.33301 -4.83398 15 -9.50098
c32 -24 58 -47.667 78 -71c78 -91.333 117 -203 117 -335c0 -84 -17.167 -161.5 -51.5 -232.5s-82.166 -128.833 -143.499 -173.5c-11.333 -8 -19 -12 -23 -12c-6.66699 0 -10 2.66699 -10 8c0 4.66699 5 10.334 15 17.001z" />
    <glyph glyph-name="asterisk" unicode="*" horiz-adv-x="393" 
d="M188 570l-11.9971 86c0 14 7 21 21 21s21 -7 21 -21c0 -0.666992 -0.333008 -1.33398 -1 -2.00098l-1 -13l-10 -72c0 -4.66699 2 -7 6 -7c1.33301 0 2.66602 0.333008 3.99902 1l76 37c1.33301 0.666992 4 1 8 1c14 0 21 -6.66699 21 -20c0 -12 -5.33301 -18.667 -16 -20
l-13 -3l-70 -12c-4.66699 -0.666992 -7 -3 -7 -7c0 -2 1 -3.66699 3 -5l58 -61c3.33301 -3.33301 5 -8 5 -14c0 -14 -7 -21 -21 -21c-8 0 -13.667 3.33301 -17 10l-6 12l-34 63c-0.666992 2.66699 -2.66699 4 -6 4c-2.66699 0 -5 -1.33301 -7 -4l-40 -75
c-3.33301 -6.66699 -9 -10 -17 -10c-14 0 -21 7 -21 21c0 4.66699 1.66699 9.33398 5 14.001l9 9l50 52c1.33301 1.33301 2 3 2 5c0 4 -2 6.33301 -6 7l-71 12l-13 3c-10.667 1.33301 -16 8 -16 20c0 13.333 7.33301 20 22 20c3.33301 0 5.66602 -0.333008 6.99902 -1l12 -6
l64 -31c1.33301 -0.666992 2.66602 -1 3.99902 -1c4.66699 0 7 2.33301 7 7v1z" />
    <glyph glyph-name="plus" unicode="+" 
d="M33 315v25h204v185h26v-185h204v-25h-204v-185h-26v185h-204z" />
    <glyph glyph-name="comma" unicode="," horiz-adv-x="227" 
d="M126 -125c-12.667 -25.333 -23.333 -37.999 -32 -37.999c-7.33301 0 -11 3.33301 -11 10c0 3.33301 1.66699 7.66602 5 12.999c26 40.667 39 79.334 39 116.001c0 12 -3 18 -9 18c-0.666992 -0.666992 -3 -1.33398 -7 -2.00098h-7c-22.667 0 -34 13.667 -34 41
c0 13.333 3.83301 24.5 11.5 33.5s17.5 13.5 29.5 13.5c30.667 0 46 -27.667 46 -83c0 -39.333 -10.333 -80 -31 -122z" />
    <glyph glyph-name="hyphen" unicode="-" horiz-adv-x="167" 
d="M0 249c0 13.333 12.667 20 38 20h92c16 0 26.167 -1.5 30.5 -4.5s6.5 -8.16699 6.5 -15.5c0 -10 -4.66699 -16.333 -14 -19c-3.33301 -0.666992 -12 -1 -26 -1h-89c-16.667 0 -27.167 1.5 -31.5 4.5s-6.5 8.16699 -6.5 15.5z" />
    <glyph glyph-name="hyphen" unicode="&#x2010;" horiz-adv-x="167" 
d="M0 249c0 13.333 12.667 20 38 20h92c16 0 26.167 -1.5 30.5 -4.5s6.5 -8.16699 6.5 -15.5c0 -10 -4.66699 -16.333 -14 -19c-3.33301 -0.666992 -12 -1 -26 -1h-89c-16.667 0 -27.167 1.5 -31.5 4.5s-6.5 8.16699 -6.5 15.5z" />
    <glyph glyph-name="period" unicode="." horiz-adv-x="227" 
d="M152 38c0 -14.667 -3.66699 -26.833 -11 -36.5s-16.666 -14.5 -27.999 -14.5c-10.667 0 -19.667 4.66699 -27 14s-11 20.333 -11 33c0 33.333 12.667 50 38 50c11.333 0 20.666 -4.5 27.999 -13.5s11 -19.833 11 -32.5z" />
    <glyph glyph-name="slash" unicode="/" horiz-adv-x="427" 
d="M359 652c6 12 11.667 18 17 18c7.33301 0 11 -4.33301 11 -13c0 -6 -6.66699 -23.333 -20 -52l-336 -730c-6 -14 -12.667 -21 -20 -21s-11 4.66699 -11 14c0 4 1.66699 9.66699 5 17l7 15l6 14l96 205z" />
    <glyph glyph-name="zero" unicode="0" 
d="M449 344c0 -111.333 -17.8311 -198.5 -53.498 -261.5s-84.834 -94.5 -147.501 -94.5c-61.333 0 -109.5 30 -144.5 90s-52.5 142.333 -52.5 247c0 106 18.667 191.5 56 256.5s86.333 97.5 147 97.5c59.333 0 106.666 -30.5 141.999 -91.5s53 -142.167 53 -243.5z
M82.002 320c0 -94 15.166 -168.999 45.499 -224.999s70.833 -84 121.5 -84c53.333 0 94.833 29 124.5 87s44.5 139 44.5 243c0 82 -10 149.667 -30 203c-12.667 33.333 -31 60.166 -55 80.499s-49.667 30.5 -77 30.5c-53.333 0 -95.666 -30.167 -126.999 -90.5
s-47 -141.833 -47 -244.5z" />
    <glyph glyph-name="one" unicode="1" 
d="M192 26c25.333 0 40.999 6.99805 46.999 20.998c2.66699 6.66699 4 24.334 4 53.001v485c0 20.667 -1.33301 34.334 -4 41.001c-5.33301 11.333 -16.333 17 -33 17c-15.333 0 -34.333 -2 -57 -6c-11.333 -2 -20.666 -3 -27.999 -3c-13.333 0 -20 5.33301 -20 16
s10.333 16 31 16h9l10.5 -1c7 -0.666992 14.5 -1 22.5 -1c21.333 -0.666992 31.333 -1 30 -1c6 0 14.833 0.5 26.5 1.5s20.5 1.5 26.5 1.5c14 0 21 -8.66699 21 -26v-8c-1.33301 -28 -2 -45.333 -2 -52v-480c0 -26.667 1.33301 -44 4 -52c6 -15.333 19.667 -23 41 -23
c3.33301 0 8.33301 0.333008 15 1s11.667 1 15 1c10 0.666992 18.333 1 25 1c15.333 0 23 -5.66699 23 -17c0 -10.667 -7 -16 -21 -16c-2 0 -9.66699 1 -23 3l-46 7c-13.333 2 -28 3 -44 3c-34.667 0 -77.667 -3.66699 -129 -11c-9.33301 -1.33301 -15 -2 -17 -2
c-12 0 -18 5 -18 15c0 11.333 8.33301 17 25 17h15h10c6 -0.666992 11.667 -1 17 -1h24z" />
    <glyph glyph-name="two" unicode="2" 
d="M77 78c0 -0.666992 0.333008 -2.66797 1 -6.00098v-8c18 47.333 48.333 71 91 71c20.667 0 39.5 -5.83301 56.5 -17.5s39.167 -34.167 66.5 -67.5c21.333 -26 41 -39 59 -39c20.667 0 37.5 10.333 50.5 31s19.5 47 19.5 79c0 26.667 -3.66699 40 -11 40
c-1.33301 0 -2.66602 -0.666992 -3.99902 -2l-4 -4c-2.66699 -2.66699 -7 -4 -13 -4c-14.667 0 -22 8.66699 -22 26c0 8 3 15 9 21s13 9 21 9c13.333 0 25 -8.66699 35 -26s15 -38 15 -62c0 -37.333 -9.5 -68.5 -28.5 -93.5s-42.5 -37.5 -70.5 -37.5
c-26.667 0 -51.667 13 -75 39l-24 27c-30 34 -57.667 51 -83 51c-34 0 -58.667 -17 -74 -51c-1.33301 -4 -2 -6.66699 -2 -8c0 -2 2 -3.66699 6 -5c14 -4 21 -12.667 21 -26c0 -18 -8.33301 -27 -25 -27c-26 0 -39 25 -39 75c0 113.333 56.667 195.333 170 246l75 34
c18 8 34.667 20.667 50 38c26.667 30 40 68.333 40 115c0 48.667 -12.667 87.334 -38 116.001s-59 43 -101 43c-43.333 0 -80.333 -14.667 -111 -44s-46 -65.333 -46 -108c0 -10.667 1.33301 -16 4 -16c7.33301 3.33301 12.666 5 15.999 5c17.333 0 26 -10.667 26 -32
c0 -24.667 -11.333 -37 -34 -37c-26.667 0 -40 23.667 -40 71c0 52 17.667 95.833 53 131.5s79.333 53.5 132 53.5c51.333 0 92.5 -17 123.5 -51s46.5 -79 46.5 -135c0 -53.333 -14.333 -95.666 -43 -126.999c-16 -17.333 -30.667 -29.833 -44 -37.5
s-45 -21.834 -95 -42.501c-59.333 -24 -100.833 -55 -124.5 -93s-35.5 -76.333 -35.5 -115z" />
    <glyph glyph-name="three" unicode="3" 
d="M209 407l184 233.997c-26 -2 -61.667 -3 -107 -3h-132c-25.333 0 -39 -6.33301 -41 -19c-1.33301 -7.33301 -2 -23 -2 -47c0 -15.333 0.333008 -28.333 1 -39c1.33301 -21.333 2 -36.666 2 -45.999c0 -21.333 -5.33301 -32 -16 -32s-16 8 -16 24
c0 4.66699 0.333008 8 1 10l4 44v40l-1 32l-2 30c0 20 12.667 30 38 30c10 0 27 -0.333008 51 -1c21.333 -0.666992 38 -1 50 -1l148 2c5.33301 0.666992 12 1 20 1c19.333 0 29 -6.66699 29 -20c0 -6 -4.33301 -14.667 -13 -26l-133 -172
c-16 -20.667 -28.667 -35.667 -38 -45c20 6.66699 37 10 51 10c45.333 0 81.666 -17.5 108.999 -52.5s41 -81.5 41 -139.5c0 -68.667 -18.333 -124.667 -55 -168s-84 -65 -142 -65c-50 0 -92 16.5 -126 49.5s-51 73.833 -51 122.5c0 24 4.83301 44.167 14.5 60.5
s21.5 24.5 35.5 24.5c9.33301 0 17.166 -3.5 23.499 -10.5s9.5 -15.5 9.5 -25.5c0 -19.333 -7 -29 -21 -29c-3.33301 0 -7.16602 1 -11.499 3s-7.16602 3 -8.49902 3c-7.33301 0 -11 -10.667 -11 -32c0 -39.333 14 -73 42 -101s62 -42 102 -42
c49.333 0 89.666 19.333 120.999 58s47 88.334 47 149.001c0 50.667 -11.667 91.834 -35 123.501s-53.666 47.5 -90.999 47.5c-20.667 0 -42.334 -6 -65.001 -18c-5.33301 -2.66699 -9.66602 -4 -12.999 -4c-7.33301 0 -11 3.33301 -11 10c0 4.66699 6 14.667 18 30z" />
    <glyph glyph-name="four" unicode="4" 
d="M299 201l-224 -0.00195312c-22.667 0 -36.167 1.5 -40.5 4.5s-6.5 7.5 -6.5 13.5s7 20 21 42l245 387c13.333 21.333 24.666 32 33.999 32c12 0 18 -10.333 18 -31v-16c0 -0.666992 -0.333008 -4.66699 -1 -12s-1 -14.666 -1 -21.999l-1 -46
c-1.33301 -61.333 -2 -98.333 -2 -111v-200c0 -10 4 -15 12 -15h80l21 1c11.333 0.666992 17 -3.66602 17 -12.999s-5.66699 -14 -17 -14h-102c-7.33301 0 -11 -7.33301 -11 -22v-101c0 -20 1.33301 -33.333 4 -40c4.66699 -11.333 15 -17 31 -17h9
c6 0.666992 12.333 1.33398 19 2.00098h13c12 0 18 -4.33301 18 -13c0 -10 -5.66699 -15 -17 -15h-5c-3.33301 0.666992 -6 1 -8 1l-16 2l-34 5c-4.66699 0.666992 -13.667 1 -27 1c-28 0 -55 -2.33301 -81 -7c-7.33301 -1.33301 -11.666 -2 -12.999 -2
c-12.667 0 -19 5.33301 -19 16c0 8.66699 7.66699 13 23 13h6l13 -1h15c18 0 29.667 5.66699 35 17c4 7.33301 6 21.666 6 42.999v101c0 11.333 -4.66699 17 -14 17zM313 526.998c0 37.333 2.33301 77 7 119c-4.66699 -6 -11.334 -16 -20.001 -30l-12 -21l-9 -14l-203 -325
c-2 -2 -6.33301 -7.33301 -13 -16c-2 -2 -3 -4.33301 -3 -7c0 -4 7.33301 -6 22 -6h216c6.66699 0 10.834 1.5 12.501 4.5s2.5 11.167 2.5 24.5v271z" />
    <glyph glyph-name="five" unicode="5" 
d="M319 637l-177.003 -0.000976562l-30 -297c39.333 61.333 89.333 92 150 92c51.333 0 92.833 -19.667 124.5 -59s47.5 -90.333 47.5 -153c0 -66.667 -18.167 -121.834 -54.5 -165.501s-82.166 -65.5 -137.499 -65.5c-47.333 0 -88.5 17.167 -123.5 51.5
s-52.5 74.5 -52.5 120.5c0 23.333 4.66699 42.333 14 57s21.666 22 36.999 22c20.667 0 31 -11 31 -33c0 -22.667 -9.33301 -34 -28 -34c-3.33301 0 -6.66602 1 -9.99902 3l-6 3c-0.666992 0.666992 -1.33398 1 -2.00098 1c-6 0 -9 -8 -9 -24
c0 -39.333 14.667 -73.166 44 -101.499s64.333 -42.5 105 -42.5c48 0 86.833 19.5 116.5 58.5s44.5 89.833 44.5 152.5c0 56 -13.333 101 -40 135s-62 51 -106 51c-52.667 0 -97 -27.333 -133 -82c-7.33301 -10.667 -14.333 -16 -21 -16c-10.667 0 -16 6 -16 18
c0 -3.33301 0.333008 -0.666016 1 8.00098l1 13l27 287c1.33301 12.667 3.33301 20.5 6 23.5s9.33398 4.5 20.001 4.5h109h14c6.66699 -0.666992 11.334 -1 14.001 -1c6.66699 0 18.5 0.333008 35.5 1s33.167 1 48.5 1h3c10.667 0 17.5 -2 20.5 -6s5.16699 -13.667 6.5 -29
c0 -11.333 2.66699 -30.333 8 -57c2 -6 3 -11 3 -15c0 -10 -4.66699 -15 -14 -15c-6 0 -9.66699 2 -11 6s-2.66602 15.833 -3.99902 35.5s-2 27.167 -2 22.5c-1.33301 11.333 -3.66602 18.333 -6.99902 21c-4.66699 5.33301 -20.334 8 -47.001 8z" />
    <glyph glyph-name="six" unicode="6" 
d="M91 259c0 -14 0.331055 -27.332 0.998047 -39.999c8 66 24.667 114 50 144c32.667 38.667 74.667 58 126 58c50.667 0 91.667 -19 123 -57s47 -88 47 -150c0 -64.667 -17.167 -118.5 -51.5 -161.5s-77.5 -64.5 -129.5 -64.5c-60 0 -107.5 28.167 -142.5 84.5
s-52.5 132.833 -52.5 229.5c0 113.333 19.833 204.5 59.5 273.5s92.167 103.5 157.5 103.5c38.667 0 72.167 -14.333 100.5 -43s42.5 -62.334 42.5 -101.001c0 -44 -14.667 -66 -44 -66c-19.333 0 -29 11 -29 33c0 19.333 8.33301 29 25 29h3c2 -0.666992 4 -1 6 -1
c4.66699 0 7 4.33301 7 13c0 29.333 -11.167 55.333 -33.5 78s-47.833 34 -76.5 34c-31.333 0 -60.666 -11.167 -87.999 -33.5s-47.666 -51.833 -60.999 -88.5c-26.667 -74 -40 -165.333 -40 -274zM110.998 195.001c0 -54 13.5 -98.168 40.5 -132.501
s61.833 -51.5 104.5 -51.5c44.667 0 81 19 109 57s42 87.667 42 149c0 54.667 -12.667 98.334 -38 131.001s-59.333 49 -102 49c-46 0 -83.5 -18.667 -112.5 -56s-43.5 -86 -43.5 -146z" />
    <glyph glyph-name="seven" unicode="7" 
d="M344 471c38 52.667 57.666 99.666 58.999 140.999c-15.333 -44 -39 -66 -71 -66c-20.667 0 -44.667 17.833 -72 53.5s-49.333 53.5 -66 53.5c-26.667 0 -48.834 -15.833 -66.501 -47.5s-26.5 -71.167 -26.5 -118.5c0 -11.333 0.333008 -20.333 1 -27v-28
c0 -14.667 -4.66699 -22 -14 -22s-14 7.33301 -14 22c0 9.33301 0.333008 19.333 1 30l3 47c1.33301 28 2 42.667 2 44c0 15.333 -1 39 -3 71c-0.666992 10.667 -1 18.334 -1 23.001c0 16 4.66699 24 14 24s14 -6.33301 14 -19c0 -6 -0.666992 -13.667 -2 -23v-9
c-0.666992 -5.33301 -1 -9.66602 -1 -12.999v-16c24 57.333 55.667 86 95 86c26 0 52.5 -17.333 79.5 -52s48.5 -52 64.5 -52c20 0 35.667 14 47 42c1.33301 3.33301 2 6 2 8c0 3.33301 -2.33301 6.33301 -7 9c-6.66699 4 -10 10.333 -10 19c0 18.667 8 28 24 28
c20 0 30 -17 30 -51c0 -58.667 -22 -117.334 -66 -176.001l-50 -67c-33.333 -44.667 -56.666 -96 -69.999 -154c-8.66699 -38 -13 -82 -13 -132v-31l1 -47c0.666992 -17.333 -4.66602 -26 -15.999 -26c-10.667 0 -16 8.33301 -16 25v20c-0.666992 5.33301 -1 13 -1 23
c0 68.667 6.33301 127 19 175c15.333 57.333 43.333 114 84 170z" />
    <glyph glyph-name="eight" unicode="8" 
d="M139 360c12.667 8.66699 32.999 18.001 60.999 28.001c-37.333 13.333 -64 30.666 -80 51.999s-24 49.666 -24 84.999c0 44 14.833 80.667 44.5 110s66.834 44 111.501 44s81.5 -14.333 110.5 -43s43.5 -65 43.5 -109c0 -66 -34 -112.333 -102 -139
c90 -26.667 135 -91 135 -193c0 -61.333 -17.333 -111.166 -52 -149.499s-80 -57.5 -136 -57.5c-56.667 0 -102.5 19.333 -137.5 58s-52.5 89 -52.5 151c0 74 26 128.333 78 163zM126.999 526.001c0 -37.333 11.668 -67.667 35.001 -91s53.333 -35 90 -35
c36 0 65.333 11.833 88 35.5s34 54.5 34 92.5c0 37.333 -11.5 68 -34.5 92s-51.833 36 -86.5 36c-36.667 0 -66.834 -12.167 -90.501 -36.5s-35.5 -55.5 -35.5 -93.5zM92 198c0 -56 14.499 -101.165 43.499 -135.498s67.167 -51.5 114.5 -51.5s85.5 17.167 114.5 51.5
s43.5 79.166 43.5 134.499c0 54.667 -14.333 98 -43 130s-66.667 48 -114 48s-85.666 -16.333 -114.999 -49s-44 -75.334 -44 -128.001z" />
    <glyph glyph-name="nine" unicode="9" 
d="M409 407c0 14 -0.332031 27.666 -0.999023 40.999c-8 -66 -24.667 -114.333 -50 -145c-31.333 -38 -73.333 -57 -126 -57c-51.333 0 -92.5 18.833 -123.5 56.5s-46.5 87.834 -46.5 150.501c0 64.667 17.167 118.5 51.5 161.5s77.5 64.5 129.5 64.5
c60 0 107.5 -28.167 142.5 -84.5s52.5 -132.833 52.5 -229.5c0 -113.333 -19.833 -204.5 -59.5 -273.5s-92.167 -103.5 -157.5 -103.5c-38.667 0 -72.167 14.167 -100.5 42.5s-42.5 61.833 -42.5 100.5c0 20 4 36.167 12 48.5s18.667 18.5 32 18.5c19.333 0 29 -11 29 -33
c0 -20 -8 -30 -24 -30c-2 0 -3 0.166992 -3 0.5s-2.33301 0.833008 -7 1.5c-4.66699 0 -7 -4.33301 -7 -13c0 -29.333 11.167 -55.5 33.5 -78.5s47.833 -34.5 76.5 -34.5c31.333 0 60.666 11.167 87.999 33.5s47.666 51.833 60.999 88.5
c10.667 29.333 19.334 65.333 26.001 108c9.33301 58.667 14 114 14 166zM389.001 471.999c0 54 -13.5 98 -40.5 132s-61.833 51 -104.5 51c-44.667 0 -81 -18.833 -109 -56.5s-42 -87.167 -42 -148.5c0 -54.667 12.667 -98.5 38 -131.5s59.333 -49.5 102 -49.5
c46 0 83.5 18.833 112.5 56.5s43.5 86.5 43.5 146.5z" />
    <glyph glyph-name="colon" unicode=":" horiz-adv-x="227" 
d="M152 430c0 -14 -3.83105 -26.001 -11.498 -36.001s-16.834 -15 -27.501 -15s-19.667 4.66699 -27 14s-11 20.333 -11 33c0 14.667 3.66699 26.834 11 36.501s16.333 14.5 27 14.5c11.333 0 20.666 -4.5 27.999 -13.5s11 -20.167 11 -33.5zM152.002 37.999
c0 -14.667 -3.66699 -26.833 -11 -36.5s-16.666 -14.5 -27.999 -14.5c-10.667 0 -19.667 4.66699 -27 14s-11 20.333 -11 33c0 33.333 12.667 50 38 50c11.333 0 20.666 -4.5 27.999 -13.5s11 -19.833 11 -32.5z" />
    <glyph glyph-name="semicolon" unicode=";" horiz-adv-x="227" 
d="M126 -125c-12.667 -25.333 -23.333 -37.999 -32 -37.999c-7.33301 0 -11 3.33301 -11 10c0 3.33301 1.66699 7.66602 5 12.999c26 40.667 39 79.334 39 116.001c0 12 -3 18 -9 18c-0.666992 -0.666992 -3 -1.33398 -7 -2.00098h-7c-22.667 0 -34 13.667 -34 41
c0 13.333 3.83301 24.5 11.5 33.5s17.5 13.5 29.5 13.5c30.667 0 46 -27.667 46 -83c0 -39.333 -10.333 -80 -31 -122zM152.001 430.001c0 -14 -3.83105 -26.001 -11.498 -36.001s-16.834 -15 -27.501 -15s-19.667 4.66699 -27 14s-11 20.333 -11 33
c0 14.667 3.66699 26.834 11 36.501s16.333 14.5 27 14.5c11.333 0 20.666 -4.5 27.999 -13.5s11 -20.167 11 -33.5z" />
    <glyph glyph-name="less" unicode="&#x3c;" 
d="M33 340l434 189v-28l-403 -174l403 -174v-27l-434 188v26z" />
    <glyph glyph-name="equal" unicode="=" 
d="M33 399v25h434v-25h-434zM33 263v25h434v-25h-434z" />
    <glyph glyph-name="greater" unicode="&#x3e;" 
d="M467 314l-434 -188v27l403 174l-403 174v28l434 -189v-26z" />
    <glyph glyph-name="question" unicode="?" horiz-adv-x="455" 
d="M196 170l0.00488281 20.999c0 44 5.83301 76.833 17.5 98.5s35.167 44.167 70.5 67.5c39.333 26 65.666 49 78.999 69s20 46.333 20 79c0 44.667 -13 80.667 -39 108s-60 41 -102 41c-40.667 0 -75.334 -14 -104.001 -42s-43 -61.667 -43 -101c0 -42.667 12 -64 36 -64
c4 0 6 1.33301 6 4v3c-0.666992 0.666992 -1 1.33398 -1 2.00098c-2.66699 6 -4 11.667 -4 17c0 18 9.33301 27 28 27c20 0 30 -11.667 30 -35c0 -14.667 -5 -26.834 -15 -36.501s-22.333 -14.5 -37 -14.5c-20.667 0 -37.667 8.83301 -51 26.5s-20 40.167 -20 67.5
c0 49.333 16.5 90.333 49.5 123s74.5 49 124.5 49c51.333 0 93.166 -16.167 125.499 -48.5s48.5 -74.166 48.5 -125.499c0 -42.667 -10.667 -77.667 -32 -105c-12.667 -16 -28.334 -30.333 -47.001 -43l-40 -27c-28.667 -19.333 -47.334 -37.333 -56.001 -54
s-13 -42.334 -13 -77.001c0 -3.33301 0.333008 -8.66602 1 -15.999v-15v-8c0 -16 -5 -24 -15 -24c-11.333 0 -17 11 -17 33zM253.005 37.999c0 -14.667 -3.66699 -26.833 -11 -36.5s-16.666 -14.5 -27.999 -14.5c-10.667 0 -19.667 4.66699 -27 14s-11 20.333 -11 33
c0 33.333 12.667 50 38 50c11.333 0 20.666 -4.5 27.999 -13.5s11 -19.833 11 -32.5z" />
    <glyph glyph-name="at" unicode="@" horiz-adv-x="733" 
d="M492 406l16.9971 85h23l-44 -226c-4 -20.667 -6 -37.667 -6 -51c0 -36.667 17 -55 51 -55c36 0 67.667 21.667 95 65s41 93.666 41 150.999c0 80 -27.667 145.833 -83 197.5s-125.666 77.5 -210.999 77.5c-89.333 0 -164.666 -30.5 -225.999 -91.5
s-92 -136.167 -92 -225.5c0 -66.667 17.5 -127.167 52.5 -181.5s81.833 -93.5 140.5 -117.5c40.667 -16.667 88.334 -25 143.001 -25c65.333 0 128 13.333 188 40c6 2.66699 19.667 9.33398 41 20.001l10 -21c-40 -21.333 -80.667 -37 -122 -47
c-38 -9.33301 -77 -14 -117 -14c-105.333 0 -191.833 32.5 -259.5 97.5s-101.5 148.167 -101.5 249.5c0 95.333 33.167 175.833 99.5 241.5s147.833 98.5 244.5 98.5c90.667 0 166 -28.333 226 -85s90 -127.667 90 -213c0 -64 -16 -120 -48 -168s-69.333 -72 -112 -72
c-47.333 0 -71 25.667 -71 77c-31.333 -51.333 -73 -77 -125 -77c-41.333 0 -75 15.167 -101 45.5s-39 69.5 -39 117.5c0 58.667 16.833 107.667 50.5 147s75.167 59 124.5 59c62 0 102.333 -33 121 -99zM336.997 159c40.667 0 74 18.3311 100 54.998s39 84.334 39 143.001
v6c0 36.667 -9.5 65.667 -28.5 87s-44.5 32 -76.5 32c-41.333 0 -76.5 -17.667 -105.5 -53s-43.5 -78.333 -43.5 -129c0 -41.333 10.667 -75.166 32 -101.499s49 -39.5 83 -39.5z" />
    <glyph glyph-name="A" unicode="A" horiz-adv-x="556" 
d="M364 250l-170.998 0.000976562c-9.33301 0 -15.666 -1.5 -18.999 -4.5s-6.33301 -9.83301 -9 -20.5l-38 -143c-4 -15.333 -6 -25.333 -6 -30c0 -18 9.33301 -27 28 -27c6 0 10.833 0.166992 14.5 0.5l16.5 1.5h14c14 0 21 -4.33301 21 -13
c0 -11.333 -7.33301 -17 -22 -17c-9.33301 0 -17 0.666992 -23 2c-31.333 4 -59 6 -83 6c-7.33301 0 -18.5 -1.16699 -33.5 -3.5s-26.167 -3.5 -33.5 -3.5c-13.333 0 -20 5.33301 -20 16c0 9.33301 6.66699 14 20 14h4c2 -0.666992 3.33301 -1 4 -1
c13.333 -2 21.333 -3 24 -3c17.333 0 31.333 19.333 42 58l156 562c6 22.667 15.667 34 29 34c12 0 21 -10.333 27 -31l160 -564c6.66699 -23.333 12.667 -38.833 18 -46.5s12.666 -11.5 21.999 -11.5h10l10 2c3.33301 0.666992 7.33301 1 12 1c12 0 18 -5 18 -15
c0 -10.667 -6.66699 -16 -20 -16l-17 2c-33.333 4 -58.333 6 -75 6c-10 0 -20 -0.666992 -30 -2c-4.66699 0 -12.334 -1 -23.001 -3s-19 -3 -25 -3c-14 0 -21 5.33301 -21 16c0 10 7.33301 15 22 15h10c5.33301 -0.666992 9.66602 -1.16699 12.999 -1.5
s7.33301 -0.833008 12 -1.5h5c20.667 0 31 8.66699 31 26c0 5.33301 -2 15.333 -6 30l-40 145c-3.33301 11.333 -6.33301 18.166 -9 20.499s-9 3.5 -19 3.5zM368.002 313.001l-91 327l-91 -333c-3.33301 -12 -5 -20 -5 -24c0 -6.66699 4.33301 -10 13 -10h161
c13.333 0 20 3.33301 20 10c0 3.33301 -0.333008 6.33301 -1 9l-2 8z" />
    <glyph glyph-name="B" unicode="B" horiz-adv-x="551" 
d="M467 506c0 -76.667 -36.998 -124.332 -110.998 -142.999c90 -14 135 -72.667 135 -176c0 -60 -16.333 -106.667 -49 -140s-78 -50 -136 -50c-8.66699 0 -27.334 1 -56.001 3c-38.667 2.66699 -68.334 4 -89.001 4c-33.333 0 -64.666 -2 -93.999 -6
c-4.66699 -0.666992 -11 -1 -19 -1c-12.667 0 -19 4.66699 -19 14c0 10 7 15 21 15h10c4 -0.666992 8.66699 -1.33398 14 -2.00098s9.66602 -1 12.999 -1c18 0 29.333 8.33301 34 25c1.33301 5.33301 2 21 2 47v505c0 29.333 -12 44 -36 44
c-4 0 -9.83301 -0.333008 -17.5 -1s-13.5 -1 -17.5 -1c-14 0 -21 5 -21 15c0 8.66699 6 13 18 13c5.33301 0 13.333 -0.666992 24 -2c6.66699 -0.666992 19.167 -2 37.5 -4s32.5 -3 42.5 -3c28 0 63 1.33301 105 4c21.333 1.33301 40 2 56 2c48 0 85.5 -14.167 112.5 -42.5
s40.5 -67.833 40.5 -118.5zM156.002 599.002l-1 -20.999l1 -174c0 -14.667 3.33301 -23.667 10 -27c4.66699 -2.66699 15.667 -4 33 -4h79c50 0 86.667 9.33301 110 28c29.333 23.333 44 59 44 107c0 91.333 -45.333 137 -136 137c-18 0 -36 -0.666992 -54 -2
c-21.333 -0.666992 -46 -3.66699 -74 -9c-7.33301 -4.66699 -11.333 -16.334 -12 -35.001zM155.002 277.003l1 -195v-17c0 -22 18.667 -35.333 56 -40c8 -1.33301 34.333 -2 79 -2c64 0 108.667 17.667 134 53c21.333 30 32 66.667 32 110c0 63.333 -16.667 108 -50 134
c-26 20 -69.667 30 -131 30h-73c-22.667 0 -36.167 -2.5 -40.5 -7.5s-6.5 -12.833 -6.5 -23.5v-21c-0.666992 -7.33301 -1 -14.333 -1 -21z" />
    <glyph glyph-name="C" unicode="C" horiz-adv-x="505" 
d="M261 680c64.667 0 113.001 -36.6689 145.001 -110.002c-0.666992 15.333 -1.33398 28 -2.00098 38l-2 28c-0.666992 2.66699 -1 6.33398 -1 11.001c0 18.667 5.33301 28 16 28c11.333 0 17 -7.66699 17 -23v-11c-2 -20 -3 -48.667 -3 -86c0 -33.333 1 -66.333 3 -99
c2.66699 -44 4 -62.333 4 -55c0 -13.333 -5 -20 -15 -20c-11.333 0 -17 9.33301 -17 28v30c0 46 -4.83301 83.833 -14.5 113.5s-26.5 53.834 -50.5 72.501s-50.333 28 -79 28c-54.667 0 -98.5 -28.667 -131.5 -86s-49.5 -133.666 -49.5 -228.999
c0 -99.333 16.833 -178.333 50.5 -237s79.167 -88 136.5 -88c47.333 0 85.5 18 114.5 54s43.5 84.667 43.5 146v22c0 15.333 5.33301 23 16 23s16 -9.33301 16 -28c0 -72.667 -17.5 -131.334 -52.5 -176.001s-80.833 -67 -137.5 -67c-67.333 0 -121 32.167 -161 96.5
s-60 151.166 -60 260.499c0 98.667 19.833 179.334 59.5 242.001s91.167 94 154.5 94z" />
    <glyph glyph-name="D" unicode="D" horiz-adv-x="559" 
d="M90 25c22 0 33 15.999 33 47.999v520c0 18.667 -2.66699 31.334 -8 38.001s-15.666 10 -30.999 10h-12l-14 -2c-2 -0.666992 -4.66699 -1 -8 -1c-14 0 -21 5.33301 -21 16c0 10 6.33301 15 19 15c6 0 11 -0.333008 15 -1c28.667 -4.66699 59.334 -7 92.001 -7
c15.333 0 31.666 1 48.999 3l35 4c12 1.33301 25.667 2 41 2c72 0 128.667 -29.833 170 -89.5s62 -141.5 62 -245.5c0 -105.333 -20.5 -188 -61.5 -248s-97.833 -90 -170.5 -90c-20.667 0 -40 1 -58 3c-42.667 4.66699 -69.667 7 -81 7c-20 0 -46.333 -2.66699 -79 -8
c-8 -1.33301 -12.667 -2 -14 -2c-12.667 0 -19 5.33301 -19 16s6.66699 16 20 16c4 0 7.33301 -0.333008 10 -1c17.333 -2 27.666 -3 30.999 -3zM156 157.999v-35l1 -29c1.33301 -33.333 7.83301 -53.5 19.5 -60.5s44.834 -10.5 99.501 -10.5
c65.333 0 115.166 26 149.499 78s51.5 127.667 51.5 227c0 210 -67 315 -201 315c-54 0 -87 -4 -99 -12s-18.667 -30 -20 -66l-2 -49z" />
    <glyph glyph-name="E" unicode="E" horiz-adv-x="533" 
d="M449 628l-1.00293 -31v-46l1 -68l3 -58c0 -14.667 -5 -22 -15 -22c-10.667 0 -16 12.333 -16 37v6l2 59c0.666992 20 1 33.333 1 40c0 34.667 -1.66699 56 -5 64c-6.66699 18.667 -24 28 -52 28h-25l-122 -1c-28.667 0 -46.667 -3.5 -54 -10.5s-11 -23.833 -11 -50.5
v-185c0 -11.333 1.83301 -18.333 5.5 -21s13.5 -4 29.5 -4h63c24 0 40 4.5 48 13.5s12 26.833 12 53.5v18c0 4.66699 -0.333008 11.667 -1 21s-1 16.333 -1 21c0 13.333 4.66699 20 14 20c10 0 15 -7 15 -21c0 -6.66699 -0.333008 -16.5 -1 -29.5s-2 -33.167 -4 -60.5
c-1.33301 -23.333 -2 -40 -2 -50c0 -28 1.66699 -67 5 -117l2 -30v-10c0 -17.333 -5 -26 -15 -26s-15 7.33301 -15 22c0 6.66699 0.166992 11.667 0.5 15s0.833008 17.333 1.5 42s1 37.667 1 39c0 21.333 -4 35.833 -12 43.5s-23.667 11.5 -47 11.5h-66
c-14.667 0 -23.834 -2.33301 -27.501 -7s-5.5 -16.667 -5.5 -36v-194c0 -34.667 2.5 -56.334 7.5 -65.001s17.5 -13 37.5 -13h184c29.333 0 47.333 8.66699 54 26c3.33301 8 5 29.333 5 64c0 -3.33301 -0.333008 7 -1 31l-2 68c0 20 5 30 15 30s14.667 -7 14 -21l-1 -30v-40
l-1 -45v-40c0.666992 -7.33301 1 -17.333 1 -30c0 -19.333 -4.33301 -31.666 -13 -36.999c-6 -3.33301 -16.333 -5 -31 -5h-3c-16.667 0 -43.334 0.666992 -80.001 2l-82 3c-36.667 1.33301 -63 2 -79 2c-31.333 0 -68 -2 -110 -6c-6.66699 -0.666992 -12.667 -1 -18 -1
c-15.333 0 -23 4.66699 -23 14s7 14 21 14c4.66699 0 8.33398 -0.333008 11.001 -1l15 -2c2 -0.666992 5.33301 -1 10 -1c18.667 0 30.334 10 35.001 30c1.33301 6 2 23.667 2 53v476c0 21.333 -1.33301 35.333 -4 42c-4.66699 12 -16 18 -34 18
c-7.33301 0 -12.666 -0.333008 -15.999 -1c-6.66699 -1.33301 -13.667 -2 -21 -2c-12 0 -18 5 -18 15s5.66699 15 17 15c7.33301 0 13 -0.333008 17 -1c32 -5.33301 75.333 -8 130 -8c24.667 0 61.834 2 111.501 6s86.834 6 111.501 6c21.333 0 32 -13 32 -39v-3z" />
    <glyph glyph-name="F" unicode="F" horiz-adv-x="496" 
d="M358 640h-130.003c-34 0 -54.667 -3 -62 -9s-11 -23.333 -11 -52v-199c0 -14.667 2 -24 6 -28s13.333 -6 28 -6h76c36.667 0 55 21.667 55 65c0 8 -0.333008 20.333 -1 37s-1 29 -1 37c0 13.333 5.33301 20 16 20c9.33301 0 14 -7 14 -21c0 -8 -0.333008 -16.333 -1 -25
l-4 -51c-2.66699 -34 -4 -59.667 -4 -77c0 -18 2.33301 -60.333 7 -127c0.666992 -9.33301 1 -15.666 1 -18.999c0 -14.667 -5 -22 -15 -22c-10.667 0 -16 9 -16 27v7c0.666992 3.33301 1 6 1 8c0 9.33301 0.333008 19.666 1 30.999c0.666992 8 1 14.667 1 20
c0 26.667 -3.66699 44.5 -11 53.5s-21.666 13.5 -42.999 13.5h-75c-16.667 0 -26.667 -2 -30 -6s-5 -14.333 -5 -31v-200c0 -22 2 -36.667 6 -44c5.33301 -12 17 -18 35 -18h9l17 2h10c17.333 0 26 -4.66699 26 -14c0 -10 -6.33301 -15 -19 -15
c-7.33301 0 -13 0.333008 -17 1c-32.667 5.33301 -63 8 -91 8c-12.667 0 -23.667 -0.666992 -33 -2l-36 -5c-4.66699 -0.666992 -9.33398 -1 -14.001 -1c-13.333 0 -20 5 -20 15c0 8.66699 6.66699 13 20 13c4 0 10 -0.333008 18 -1s14 -1 18 -1
c18.667 0 30.334 6.33301 35.001 19c2.66699 6 4 20.333 4 43v495c0 20.667 -1 34.667 -3 42c-4.66699 14 -14.667 21 -30 21c-4 0 -8.66699 -0.333008 -14 -1l-15 -2c-2.66699 -0.666992 -6.66699 -1 -12 -1c-14 0 -21 5.33301 -21 16c0 9.33301 6.33301 14 19 14
c2.66699 0 9.33398 -0.666992 20.001 -2c31.333 -4 86 -6 164 -6c42.667 0 73.334 0.666992 92.001 2l84 6h8c14 0 23.833 -2 29.5 -6s8.5 -12.667 8.5 -26v-9c-2.66699 -21.333 -4 -49 -4 -83v-9c0 -18 1 -45.333 3 -82c0.666992 -12.667 1 -20 1 -22
c0 -18.667 -5.33301 -28 -16 -28c-11.333 0 -17 11.333 -17 34c0 3.33301 0.333008 9 1 17c2.66699 33.333 4 63 4 89c0 44 -3.33301 70.833 -10 80.5s-25.667 14.5 -57 14.5z" />
    <glyph glyph-name="G" unicode="G" horiz-adv-x="558" 
d="M429 103c-20.667 -40 -39.9961 -66.9951 -57.9961 -80.9951c-29.333 -23.333 -63.666 -35 -102.999 -35c-67.333 0 -121 30.333 -161 91s-60 141.667 -60 243c0 103.333 21.667 189 65 257s97.666 102 162.999 102c51.333 0 93 -22.333 125 -67
c9.33301 -12.667 18 -29.334 26 -50.001v23v21l-1 25c0 0.666992 -0.333008 1.66699 -1 3v4c0 20 5 30 15 30c10.667 0 16 -8 16 -24c0 -2.66699 -0.333008 -8.33398 -1 -17.001l-2 -25c-4 -50 -6 -81 -6 -93c0 -11.333 1.16699 -28.333 3.5 -51s3.5 -39.667 3.5 -51
c0 -14 -5.33301 -21 -16 -21s-16 7.33301 -16 22c0 5.33301 0.333008 9.66602 1 12.999v18c0 63.333 -13.333 114.666 -40 153.999s-61.334 59 -104.001 59c-57.333 0 -104.5 -31.333 -141.5 -94s-55.5 -142.334 -55.5 -239.001c0 -92.667 17.333 -167 52 -223
s80.667 -84 138 -84c48 0 85.333 18.333 112 55s40 87.667 40 153c0 25.333 -0.666992 41.333 -2 48c-4.66699 18.667 -15.334 28 -32.001 28c-0.666992 0 -11.667 -0.666992 -33 -2c-2.66699 -0.666992 -6.66699 -1 -12 -1c-14 0 -21 5.33301 -21 16
c0 8.66699 6.33301 13 19 13c6.66699 0 11.667 -0.333008 15 -1c34.667 -3.33301 61 -5 79 -5c17.333 0 42.666 1.33301 75.999 4c3.33301 0.666992 7.33301 1 12 1c14 0 21 -5 21 -15s-5.66699 -15 -17 -15c-4 0 -10.333 0.666992 -19 2s-15.334 2 -20.001 2
c-18 0 -29.667 -9 -35 -27c-2 -7.33301 -3 -24 -3 -50v-63l2 -94c0 -8 0.333008 -17.667 1 -29v-17c0 -16 -5 -24 -15 -24c-10.667 0 -16 9 -16 27v9z" />
    <glyph glyph-name="H" unicode="H" horiz-adv-x="595" 
d="M422 339h-235.001c-16.667 0 -26.167 -1.5 -28.5 -4.5s-3.5 -11.5 -3.5 -25.5v-219c0 -36.667 4.66699 -57.667 14 -63c4 -2.66699 10.667 -4 20 -4c8 0 15.667 0.666992 23 2c4 0.666992 9.66699 1 17 1c12 0 18 -4.66699 18 -14s-6 -14 -18 -14
c-3.33301 0 -9.66602 0.666992 -18.999 2c-27.333 4 -51.666 6 -72.999 6c-24 0 -45.333 -1.66699 -64 -5c-16 -1.33301 -24.667 -2 -26 -2c-12 0 -18 4.66699 -18 14s6 14 18 14c4.66699 0 8.33398 -0.333008 11.001 -1c17.333 -1.33301 26.666 -2 27.999 -2
c16.667 0 27.667 7 33 21c2.66699 8 4 23 4 45v477c0 26 -0.666992 42.333 -2 49c-4.66699 17.333 -16 26 -34 26c-4 0 -10.167 -0.5 -18.5 -1.5s-14.5 -1.5 -18.5 -1.5c-12.667 0 -19 5.33301 -19 16c0 10 5 15 15 15c5.33301 0 11.666 -1 18.999 -3
c19.333 -5.33301 46 -8 80 -8c17.333 0 40 2.33301 68 7c8 1.33301 14.667 2 20 2c10.667 0 16 -4.66699 16 -14c0 -10 -5.66699 -15 -17 -15c-1.33301 0 -3.33301 0.333008 -6 1h-6c-10.667 2 -20 3 -28 3c-14 0 -23.667 -5.5 -29 -16.5s-8 -31.5 -8 -61.5v-174
c0 -13.333 1 -21.5 3 -24.5s7.66699 -4.5 17 -4.5h236c13.333 0 21.5 1.5 24.5 4.5s4.5 11.167 4.5 24.5v180c0 25.333 -1.66699 42.333 -5 51c-5.33301 14.667 -18.333 22 -39 22h-7l-16 -3h-7c-13.333 0 -20 5 -20 15c0 8.66699 4.66699 13 14 13c3.33301 0 9 -1 17 -3
c18.667 -4.66699 44.667 -7 78 -7c23.333 0 50 3 80 9c3.33301 0.666992 8 1 14 1c11.333 0 17 -4.66699 17 -14c0 -10 -6.33301 -15 -19 -15c-4 0 -10 0.666992 -18 2s-14 2 -18 2c-18 0 -29.667 -8.66699 -35 -26c-2.66699 -9.33301 -4 -26 -4 -50v-466
c0 -45.333 6.33301 -70.333 19 -75c4.66699 -1.33301 11.334 -2 20.001 -2c4 0 9.5 0.333008 16.5 1s12.5 1 16.5 1c13.333 0 20 -5.33301 20 -16c0 -9.33301 -5.66699 -14 -17 -14c-6 0 -14 1.33301 -24 4c-16 2.66699 -38 4 -66 4c-10.667 0 -26.334 -1.33301 -47.001 -4
s-36 -4 -46 -4c-12 0 -18 5 -18 15s6 15 18 15c-2.66699 0 1 -0.333008 11 -1c14.667 -1.33301 24.334 -2 29.001 -2c24 0 36 16.333 36 49v241c0 11.333 -0.833008 18.333 -2.5 21s-6.83398 4 -15.501 4z" />
    <glyph glyph-name="I" unicode="I" horiz-adv-x="279" 
d="M123 74l-0.000976562 510c0 21.333 -1.33301 35 -4 41c-4.66699 12 -15.667 18 -33 18c-3.33301 0 -10.333 -0.666992 -21 -2h-14c-14.667 0 -22 5 -22 15c0 9.33301 5.66699 14 17 14c1.33301 0 7.33301 -0.666992 18 -2c20 -4.66699 44.667 -7 74 -7
c22.667 0 47.667 2.33301 75 7c8 1.33301 14.667 2 20 2c13.333 0 20 -5 20 -15s-8.66699 -15 -26 -15h-7l-19 2h-7c-18 0 -29.667 -6.33301 -35 -19c-2.66699 -7.33301 -4 -22 -4 -44l1 -504c0.666992 -16.667 2.33398 -28 5.00098 -34c4 -10.667 13 -16 27 -16h11l20 2h11
c14.667 0 22 -5 22 -15s-6 -15 -18 -15c-18 0 -36.333 2.33301 -55 7c-6 0.666992 -18.333 1 -37 1c-27.333 0 -52.333 -2 -75 -6c-7.33301 -1.33301 -14.333 -2 -21 -2c-11.333 0 -17 4.66699 -17 14c0 10 7.33301 15 22 15h8l14 -1c2.66699 -0.666992 6.66699 -1 12 -1
c14.667 0 24.667 3.5 30 10.5s8 20.167 8 39.5z" />
    <glyph glyph-name="J" unicode="J" horiz-adv-x="477" 
d="M319 95c15.333 32.667 23 85.667 23 159v327c0 34.667 -4.66699 54.334 -14 59.001c-4 2 -10.333 3 -19 3c-4.66699 0 -11.334 -0.333008 -20.001 -1s-15 -1 -19 -1c-12 0 -18 5 -18 15c0 9.33301 5.66699 14 17 14c3.33301 0 8.66602 -0.666992 15.999 -2
c26.667 -4.66699 50.334 -7 71.001 -7c14.667 0 37 2.33301 67 7c8.66699 1.33301 14.334 2 17.001 2c12.667 0 19 -4.66699 19 -14s-5.66699 -14 -17 -14h-2l-17 2h-10c-26 0 -39 -21 -39 -63v-327c0 -86 -9.66699 -146 -29 -180
c-15.333 -26.667 -37.333 -47.834 -66 -63.501s-59.334 -23.5 -92.001 -23.5c-47.333 0 -86.5 15.833 -117.5 47.5s-46.5 71.834 -46.5 120.501c0 35.333 8.33301 64.5 25 87.5s37.334 34.5 62.001 34.5c14.667 0 26.834 -4.5 36.501 -13.5s14.5 -20.167 14.5 -33.5
c0 -10.667 -3.16699 -19.834 -9.5 -27.501s-13.833 -11.5 -22.5 -11.5c-18 0 -27 9.66699 -27 29c0 5.33301 1.66699 11 5 17l2 8c0 2.66699 -2.33301 4 -7 4c-13.333 0 -25.166 -9.33301 -35.499 -28s-15.5 -40.667 -15.5 -66c0 -41.333 12.667 -75.333 38 -102
s57.666 -40 96.999 -40c28.667 0 55.167 7.5 79.5 22.5s42.166 34.833 53.499 59.5z" />
    <glyph glyph-name="K" unicode="K" horiz-adv-x="605" 
d="M446 89l-157.002 319.999l-134 -144v-170c0 -25.333 1 -41 3 -47c4 -16.667 15 -25 33 -25c4 0 10.167 0.333008 18.5 1s14.5 1 18.5 1c14 0 21 -4.66699 21 -14s-6.66699 -14 -20 -14c-2.66699 0 -9.66699 0.666992 -21 2l-34 4c-17.333 2 -30 3 -38 3
c-10 0 -24.5 -1.5 -43.5 -4.5s-33.167 -4.5 -42.5 -4.5c-13.333 0 -20 5.33301 -20 16c0 8.66699 6.33301 13 19 13h10c8.66699 -1.33301 16.334 -2 23.001 -2c19.333 0 31.666 7.33301 36.999 22c2.66699 7.33301 4 23.333 4 48v489c0 40 -11.333 60 -34 60
c-4.66699 0 -11.334 -0.333008 -20.001 -1l-13 -1c-2.66699 -0.666992 -6 -1 -10 -1c-11.333 0 -17 5 -17 15c0 9.33301 5.66699 14 17 14l15 -2c30 -4 56.333 -6 79 -6c22 0 46.667 2 74 6c9.33301 1.33301 15.666 2 18.999 2c12.667 0 19 -5 19 -15
c0 -8.66699 -7 -13 -21 -13h-20c-4.66699 0.666992 -10.334 1 -17.001 1c-17.333 0 -28.666 -6.33301 -33.999 -19c-3.33301 -8 -5 -22.667 -5 -44v-280l268 295c12.667 14 19 25 19 33c0 10.667 -7.66699 16 -23 16c-6 0 -15.667 -1 -29 -3h-7
c-3.33301 -0.666992 -5.66602 -1 -6.99902 -1c-13.333 0 -20 5.33301 -20 16c0 9.33301 5.66699 14 17 14c6 0 11 -0.333008 15 -1c28 -4.66699 51 -7 69 -7s42 2.33301 72 7c8.66699 1.33301 14.334 2 17.001 2c13.333 0 20 -5 20 -15c0 -9.33301 -5.66699 -14 -17 -14
c-1.33301 0.666992 -5.66602 1.33398 -12.999 2.00098h-8c-15.333 0 -37.666 -16 -66.999 -48l-130 -141c-8.66699 -9.33301 -13 -17 -13 -23c0 -4.66699 2.33301 -12 7 -22l10 -22l145 -297c12.667 -26 23.167 -43.5 31.5 -52.5s18.5 -13.5 30.5 -13.5
c1.33301 0 3.66602 0.333008 6.99902 1h8c10.667 1.33301 17.334 2 20.001 2c14 0 21 -5 21 -15s-6.33301 -15 -19 -15c-3.33301 0 -9 0.666992 -17 2c-27.333 4.66699 -52 7 -74 7c-14 0 -26 -0.666992 -36 -2c-0.666992 0 -13 -1.66699 -37 -5
c-9.33301 -1.33301 -15.333 -2 -18 -2c-14.667 0 -22 5.33301 -22 16c0 9.33301 7.66699 14 23 14c5.33301 0 9.33301 -0.333008 12 -1l15 -2h13c18.667 0 28 6 28 18c0 4 -1.33301 8.66699 -4 14l-8 16z" />
    <glyph glyph-name="L" unicode="L" horiz-adv-x="487" 
d="M398 -1l-36.9971 1.99902l-92 3c-40.667 1.33301 -69.334 2 -86.001 2c-50.667 0 -91.334 -2.66699 -122.001 -8c-4 -0.666992 -8.33301 -1 -13 -1c-12.667 0 -19 5.33301 -19 16c0 9.33301 6.66699 14 20 14h10l18 -2c2.66699 -0.666992 6.66699 -1 12 -1
c16.667 0 27 7.66699 31 23c2 6.66699 3 21.334 3 44.001v469c0 49.333 -6.66699 76 -20 80c-4.66699 1.33301 -10.667 2 -18 2s-15.666 -0.666992 -24.999 -2h-10c-14.667 0 -22 5.33301 -22 16c0 9.33301 7.33301 14 22 14c4 0 7.66699 -0.333008 11 -1l43 -8
c7.33301 -1.33301 18.333 -2 33 -2c28 0 54.333 2.66699 79 8c10.667 1.33301 17 2 19 2c12 0 18 -4.66699 18 -14c0 -10.667 -7.33301 -16 -22 -16h-12c-8.66699 1.33301 -16.334 2 -23.001 2c-20.667 0 -33.334 -9.33301 -38.001 -28c-2 -7.33301 -3 -25.333 -3 -54v-468
c0 -32 4 -50.667 12 -56c4.66699 -4 22 -6 52 -6h137c31.333 0 50.666 6 57.999 18c6 8.66699 9 31.667 9 69c0 34.667 -0.333008 58 -1 70s-1 23 -1 33c0 21.333 5.66699 32 17 32c10 0 15 -7.33301 15 -22c0 -9.33301 -1 -23 -3 -41c-2.66699 -22 -4 -41.667 -4 -59
c0 -35.333 1 -62.333 3 -81c1.33301 -12.667 2 -22 2 -28c0 -14.667 -6.33301 -22 -19 -22c-9.33301 0 -20.666 0.333008 -33.999 1z" />
    <glyph glyph-name="M" unicode="M" horiz-adv-x="699" 
d="M181 625l169.005 -590l157 578c2 8 5.16699 19.5 9.5 34.5s12.166 22.5 23.499 22.5c6.66699 0 16.667 -0.833008 30 -2.5s23.333 -2.5 30 -2.5c4.66699 0 12.334 0.666992 23.001 2s20 2 28 2c12.667 0 19 -5 19 -15s-6 -15 -18 -15c-4 0 -9 0.666992 -15 2
c-9.33301 2 -17.333 3 -24 3c-18.667 0 -30.334 -9.66699 -35.001 -29c-2 -8 -3 -25.333 -3 -52l1 -492c1.33301 -31.333 14.333 -47 39 -47h13c12 1.33301 19.667 2 23 2c12.667 0 19 -5 19 -15c0 -9.33301 -6 -14 -18 -14c-6.66699 0 -14.334 0.666992 -23.001 2l-14 2
c-18 2.66699 -35.333 4 -52 4c-21.333 0 -44 -2 -68 -6c-16 -2.66699 -25 -4 -27 -4c-13.333 0 -20 5.33301 -20 16c0 9.33301 8.33301 14 25 14c6.66699 0 12 -0.333008 16 -1h8c3.33301 -0.666992 5.66602 -1 6.99902 -1c18 0 29 4.33301 33 13c4 6.66699 6 20 6 40l1 508
c0 20.667 0.333008 40 1 58l-169 -607c-1.33301 -5.33301 -3 -11.333 -5 -18c-4.66699 -18.667 -12 -28 -22 -28s-17.333 9.33301 -22 28l-6 22l-172 595l5 -521c0.666992 -42 2.66699 -67.5 6 -76.5s13 -13.5 29 -13.5c4 0 10.333 0.5 19 1.5s15 1.5 19 1.5
c13.333 0 20 -5 20 -15s-5.66699 -15 -17 -15c-6.66699 0 -15.667 1 -27 3c-19.333 3.33301 -39.333 5 -60 5c-26.667 0 -50 -1.66699 -70 -5c-12 -2 -20.667 -3 -26 -3c-11.333 0 -17 4.66699 -17 14c0 10 7.33301 15 22 15c6 0 14 -0.333008 24 -1
c3.33301 -0.666992 7.66602 -1 12.999 -1c13.333 0 22.333 3.66699 27 11s7 21 7 41v483c0 30.667 -0.666992 48.667 -2 54c-4 21.333 -15 32 -33 32c-5.33301 0 -12.333 -0.666992 -21 -2s-15 -2 -19 -2c-12.667 0 -19 5 -19 15c0 9.33301 6 14 18 14
c6 0 14.833 -0.666992 26.5 -2s20.5 -2 26.5 -2s15.667 0.666992 29 2s21.333 2 24 2c11.333 0 18.666 -7.66699 21.999 -23z" />
    <glyph glyph-name="N" unicode="N" horiz-adv-x="605" 
d="M431 51l-275.998 593v-555c0 -22 1.33301 -36.667 4 -44c5.33301 -14 16.666 -21 33.999 -21c4.66699 0 11.5 0.5 20.5 1.5s15.833 1.5 20.5 1.5c12 0 18 -5.33301 18 -16c0 -9.33301 -5.66699 -14 -17 -14c-6 0 -12.333 0.666992 -19 2c-26.667 5.33301 -53.667 8 -81 8
c-22.667 0 -46.334 -2.66699 -71.001 -8c-6 -1.33301 -12.667 -2 -20 -2c-10.667 0 -16 4.66699 -16 14c0 10.667 6.66699 16 20 16c2 0 7.66699 -0.666992 17 -2h8c4 -0.666992 6.66699 -1 8 -1c18.667 0 31 6 37 18c3.33301 7.33301 5 22 5 44v507c0 34 -11 51 -33 51
c-8 0 -14.5 -0.5 -19.5 -1.5s-11.833 -1.5 -20.5 -1.5c-12.667 0 -19 4.66699 -19 14c0 10 7 15 21 15c3.33301 0 10.666 -0.666992 21.999 -2c16.667 -2 28.334 -3 35.001 -3c10 0 19.333 1 28 3c12 1.33301 19 2 21 2c10 0 18 -6.66699 24 -20l10 -22l201 -433
c10.667 -21.333 26 -54 46 -98l24 -54l-1 21c-2 42 -3 104.667 -3 188v341c0 33.333 -11 50 -33 50c-4 0 -10.667 -0.666992 -20 -2c-4.66699 -1.33301 -11 -2 -19 -2c-12.667 0 -19 5 -19 15s6.33301 15 19 15c-0.666992 0 12.666 -1.66699 39.999 -5
c16.667 -2 35.334 -3 56.001 -3c16.667 0 29 0.666992 37 2l22 4c10.667 1.33301 17 2 19 2c12.667 0 19 -5.33301 19 -16c0 -10 -6 -15 -18 -15c-3.33301 0 -10.333 0.666992 -21 2c-2 0 -5 0.333008 -9 1h-7c-22.667 0 -34 -17.333 -34 -52l1 -456
c0 -15.333 0.666992 -42.333 2 -81v-22c0 -26.667 -6.66699 -40 -20 -40c-11.333 0 -20 7.66699 -26 23l-9 22z" />
    <glyph glyph-name="O" unicode="O" horiz-adv-x="527" 
d="M480 334c0 -104.667 -19.999 -188.668 -59.999 -252.001s-93.333 -95 -160 -95c-64.667 0 -116.334 31.333 -155.001 94s-58 146.334 -58 251.001c0 102 20.5 185.5 61.5 250.5s93.5 97.5 157.5 97.5c64.667 0 116.5 -31.667 155.5 -95s58.5 -147 58.5 -251z
M81.001 328.999c0 -97.333 16.166 -174.334 48.499 -231.001s76.5 -85 132.5 -85c54.667 0 98.834 28.5 132.501 85.5s50.5 132.167 50.5 225.5c0 99.333 -16.333 179 -49 239s-76 90 -130 90c-54.667 0 -99.167 -30.167 -133.5 -90.5s-51.5 -138.166 -51.5 -233.499z" />
    <glyph glyph-name="P" unicode="P" horiz-adv-x="489" 
d="M85 24c19.333 0 31 7 35 21c2 5.33301 3 20.333 3 45v474c0 28 -0.666992 44.667 -2 50c-4 19.333 -14.667 29 -32 29c-4 0 -10.333 -0.666992 -19 -2s-15 -2 -19 -2c-13.333 0 -20 5 -20 15s6.33301 15 19 15c2 0 7.66699 -0.666992 17 -2c28.667 -4 54.667 -6 78 -6
c18 0 45.167 1.5 81.5 4.5s63.5 4.5 81.5 4.5c48 0 85.667 -16.5 113 -49.5s41 -78.167 41 -135.5c0 -50 -10.667 -91.333 -32 -124c-16.667 -24.667 -36 -42.167 -58 -52.5s-51.667 -15.5 -89 -15.5h-81c-23.333 0 -36.666 -1.5 -39.999 -4.5s-5.66602 -9.5 -6.99902 -19.5
v-191c0 -18.667 2 -31.667 6 -39c5.33301 -10 16.333 -15 33 -15c4 0 8.33301 0.333008 13 1l14 2c2.66699 0.666992 6.66699 1 12 1c16 0 24 -5.33301 24 -16c0 -10 -6.33301 -15 -19 -15c-4.66699 0 -13.334 1 -26.001 3c-22 3.33301 -46.333 5 -73 5
c-22 0 -42 -1.66699 -60 -5c-10.667 -2 -20.667 -3 -30 -3c-12.667 0 -19 5 -19 15c0 9.33301 6.66699 14 20 14c9.33301 0 16.666 -0.333008 21.999 -1c2.66699 -0.666992 7 -1 13 -1zM155 358c0 -19.333 2.33203 -31.001 6.99902 -35.001s18 -6 40 -6h80
c58.667 0 98.334 18 119.001 54c17.333 30 26 66.667 26 110c0 40.667 -7.66699 75.334 -23 104.001c-22 40.667 -58.667 60 -110 58l-55 -2c-38 -1.33301 -61.5 -5.5 -70.5 -12.5s-13.5 -24.5 -13.5 -52.5v-218z" />
    <glyph glyph-name="Q" unicode="Q" horiz-adv-x="531" 
d="M483 334c0 -77.333 -11.666 -144.998 -34.999 -202.998s-55.666 -98.667 -96.999 -122v-72c0 -36.667 4 -62.334 12 -77.001s22 -22 42 -22c36 0 54.667 27 56 81c0.666992 24 1 34.333 1 31c2 10 6.33301 15 13 15c9.33301 0 14 -8.33301 14 -25
c0 -86 -28.667 -129 -86 -129c-30.667 0 -52.334 9.83301 -65.001 29.5s-19 53.167 -19 100.5v55c-18.667 -6 -37.667 -9 -57 -9c-65.333 0 -117.5 31.167 -156.5 93.5s-58.5 146.166 -58.5 251.499c0 102 20.5 185.5 61.5 250.5s93.833 97.5 158.5 97.5
c65.333 0 117.666 -31.5 156.999 -94.5s59 -146.833 59 -251.5zM81.001 329.002c0 -151.333 36.666 -251.333 109.999 -300c-14.667 16.667 -22 42.334 -22 77.001c0 27.333 8.5 50.666 25.5 69.999s37.833 29 62.5 29c62.667 0 94 -49.667 94 -149v-14
c28 18.667 51.167 54.5 69.5 107.5s27.5 111.5 27.5 175.5c0 99.333 -16.5 178.833 -49.5 238.5s-76.833 89.5 -131.5 89.5c-55.333 0 -100.166 -30 -134.499 -90s-51.5 -138 -51.5 -234zM267 9.00195c13.333 0 30.668 4.66699 52.001 14v30c0 83.333 -20.667 125 -62 125
c-18.667 0 -34.334 -8 -47.001 -24s-19 -35.333 -19 -58c0 -26 7 -47 21 -63s32.333 -24 55 -24z" />
    <glyph glyph-name="R" unicode="R" horiz-adv-x="575" 
d="M472 507c0 -85.333 -36 -137 -108 -155c30.667 -10 52.334 -25.5 65.001 -46.5s19.334 -52.5 20.001 -94.5l2 -129c0 -39.333 11.333 -59 34 -59c8 0 15 0.333008 21 1l19 2c2 0 4.33301 0.333008 7 1h6c11.333 0 17 -5 17 -15s-5 -15 -15 -15h-33l-37 -1
c-18.667 -0.666992 -31.334 6.33301 -38.001 21s-10.667 44 -12 88l-3 116c-1.33301 46.667 -11.333 78 -30 94s-55.334 24 -110.001 24h-80c-20 0 -32 -2.33301 -36 -7s-6 -18.667 -6 -42v-202c0 -21.333 1.66699 -36 5 -44c5.33301 -13.333 16.666 -20 33.999 -20
c4 0 10 0.5 18 1.5s14 1.5 18 1.5c12.667 0 19 -5 19 -15s-6.33301 -15 -19 -15c-8.66699 0 -15.667 0.333008 -21 1c-32 4 -60 6 -84 6c-18 0 -36.333 -1.66699 -55 -5c-7.33301 -1.33301 -15 -2 -23 -2c-12.667 0 -19 5 -19 15c0 9.33301 6.66699 14 20 14
c8 0 15 -0.666992 21 -2h8c3.33301 -0.666992 5.66602 -1 6.99902 -1c18.667 0 30.334 7 35.001 21c2.66699 6.66699 4 21.667 4 45v498c0 18.667 -1.66699 31.667 -5 39c-4.66699 10.667 -14.667 16 -30 16h-12c-6.66699 -0.666992 -11.5 -1.16699 -14.5 -1.5
s-6.83301 -0.5 -11.5 -0.5c-14 0 -21 5.33301 -21 16c0 9.33301 6 14 18 14c2 0 9 -1 21 -3c34.667 -6 63.334 -9 86.001 -9c19.333 0 45.333 2 78 6c27.333 3.33301 52.333 5 75 5c110 0 165 -54 165 -162zM155 585l0.000976562 -178.001
c0 -20.667 2.16699 -33.334 6.5 -38.001s16.166 -7 35.499 -7h103c48.667 0 83.667 11.333 105 34s32 59.334 32 110.001c0 91.333 -48.333 137 -145 137c-48.667 0 -78 -1 -88 -3c-32.667 -7.33301 -49 -25.666 -49 -54.999z" />
    <glyph glyph-name="S" unicode="S" horiz-adv-x="475" 
d="M244 -13c-66 0 -119.001 35.0029 -159.001 105.003l2 -38v-20c0 -20.667 -5.33301 -31 -16 -31c-10 0 -15 9.66699 -15 29c0 3.33301 0.333008 5.66602 1 6.99902l3 50c1.33301 22 2 43 2 63c0 28.667 -1.33301 57 -4 85c-0.666992 6.66699 -1 15.334 -1 26.001
c0 13.333 5 20 15 20s15 -10 15 -30v-8c-0.666992 -6 -1 -13.667 -1 -23c0 -65.333 13.667 -116.5 41 -153.5s65 -55.5 113 -55.5c44.667 0 80.334 15.333 107.001 46s40 71.667 40 123c0 65.333 -25.333 108.666 -76 129.999c-23.333 10 -50.333 18.667 -81 26
c-61.333 15.333 -104 35.5 -128 60.5s-36 61.833 -36 110.5s15.5 89.334 46.5 122.001s69.833 49 116.5 49c66 0 111.667 -33.333 137 -100c0.666992 7.33301 1 15 1 23c0 8.66699 -0.333008 15 -1 19v13c-0.666992 5.33301 -1 8.66602 -1 9.99902
c0 15.333 5.33301 23 16 23c10 0 15 -7.33301 15 -22c0 -12.667 -1.16699 -31.334 -3.5 -56.001s-3.5 -43.334 -3.5 -56.001c0 -20 1.66699 -47.333 5 -82c1.33301 -14 2 -22 2 -24c0 -14 -5.66699 -21 -17 -21c-9.33301 0 -14 8.33301 -14 25v31
c0 58.667 -12.167 105 -36.5 139s-57.833 51 -100.5 51c-36.667 0 -67 -14.167 -91 -42.5s-36 -63.5 -36 -105.5c0 -37.333 10.333 -66 31 -86s56.5 -36.333 107.5 -49s87.333 -25.5 109 -38.5s38.834 -32.167 51.501 -57.5c14 -27.333 21 -58 21 -92
c0 -56 -16.833 -102.5 -50.5 -139.5s-75.834 -55.5 -126.501 -55.5z" />
    <glyph glyph-name="T" unicode="T" horiz-adv-x="487" 
d="M225 99v500.999c0 17.333 -2.66699 28.666 -8 33.999s-17 8 -35 8h-31c-5.33301 0.666992 -14 1 -26 1c-26.667 0 -42.667 -3.16699 -48 -9.5s-8 -24.166 -8 -53.499c0 -19.333 1 -47.333 3 -84c1.33301 -24.667 2 -40 2 -46c0.666992 -3.33301 1 -7.66602 1 -12.999
c0 -18 -6 -27 -18 -27c-11.333 0 -17 7.66699 -17 23c0 4.66699 0.333008 11.667 1 21c1.33301 18.667 2 53.667 2 105c0 20 -0.666992 42 -2 66c0 1.33301 -0.333008 4.33301 -1 9v9c0 18 10 27 30 27c12.667 0 29.667 -0.666992 51 -2c26 -2 43 -3.33301 51 -4
c31.333 -1.33301 56.333 -2 75 -2c43.333 0 93 2 149 6c9.33301 0.666992 16.333 1 21 1c12.667 0 21 -2.33301 25 -7s6 -13 6 -25c0 -8 -0.333008 -14 -1 -18c-1.33301 -20 -2 -44 -2 -72c0 -16 0.666992 -44.667 2 -86v-25c0 -16.667 -5.66699 -25 -17 -25
s-17 8.66699 -17 26c0 8 0.333008 16.333 1 25l5 67c1.33301 18 2 37 2 57c0 23.333 -1.33301 38 -4 44c-4.66699 8.66699 -16.667 13 -36 13h-5h-21c-9.33301 -0.666992 -16.333 -1 -21 -1c-37.333 0 -59 -2.5 -65 -7.5s-9.66699 -16.833 -11 -35.5l-1 -17v-483
c0 -26 1.33301 -42.667 4 -50c5.33301 -15.333 18 -23 38 -23h13c6 0.666992 12.667 1 20 1c14.667 0 22 -5 22 -15s-6.33301 -15 -19 -15c-6 0 -14 1 -24 3c-20 4 -43.667 6 -71 6c-21.333 0 -46.333 -2.66699 -75 -8c-3.33301 -0.666992 -9 -1 -17 -1
c-12.667 0 -19 5 -19 15s8 15 24 15c4 0 10.167 -0.333008 18.5 -1s14.5 -1 18.5 -1c17.333 0 28.333 8.66699 33 26c1.33301 6 2 22 2 48z" />
    <glyph glyph-name="U" unicode="U" horiz-adv-x="574" 
d="M103 266l0.0078125 330.001c0 23.333 -4 37.666 -12 42.999c-4.66699 2.66699 -11.667 4 -21 4c-4 0 -7 -0.333008 -9 -1l-14 -1h-7c-14 0 -21 5 -21 15c0 9.33301 5.66699 14 17 14c5.33301 0 9.66602 -0.333008 12.999 -1c26 -5.33301 50.333 -8 73 -8
c19.333 0 42.666 2.33301 69.999 7c8 1.33301 14.667 2 20 2c12.667 0 19 -4.66699 19 -14c0 -10 -6.33301 -15 -19 -15c2.66699 0 -3 0.333008 -17 1c-11.333 0.666992 -18.333 1 -21 1c-18.667 0 -30.334 -7.66699 -35.001 -23c-2.66699 -8 -4 -24 -4 -48v-325
c0 -50.667 1.33301 -84.667 4 -102c6 -38 20 -68.333 42 -91c26.667 -27.333 62 -41 106 -41c62 0 105.667 25 131 75c14 27.333 21 80.333 21 159v325c0 24 -1.33301 40 -4 48c-4.66699 15.333 -16 23 -34 23h-3c-5.33301 0 -11.666 -0.333008 -18.999 -1
c-12.667 -0.666992 -18.334 -1 -17.001 -1c-12.667 0 -19 4.66699 -19 14c0 10 6.33301 15 19 15c5.33301 0 12 -0.666992 20 -2c27.333 -4.66699 50.666 -7 69.999 -7c23.333 0 47.666 2.66699 72.999 8c3.33301 0.666992 7.66602 1 12.999 1c11.333 0 17 -4.66699 17 -14
c0 -10 -7 -15 -21 -15h-6c-4 0.666992 -9 1 -15 1c-2 0.666992 -5 1 -9 1c-14.667 0 -24.334 -4.66699 -29.001 -14c-2.66699 -6 -4 -17 -4 -33v-330c0 -75.333 -4.33301 -127.5 -13 -156.5s-23.334 -53.833 -44.001 -74.5c-32 -32 -74.333 -48 -127 -48
c-73.333 0 -125.333 29 -156 87c-18.667 35.333 -28 99.333 -28 192z" />
    <glyph glyph-name="V" unicode="V" horiz-adv-x="517" 
d="M121 582l139.002 -545l140 548c4 15.333 6 26.333 6 33c0 16.667 -10 25 -30 25c-4.66699 0 -14.334 -0.666992 -29.001 -2c-3.33301 -0.666992 -7.66602 -1 -12.999 -1c-12 0 -18 4.66699 -18 14c0 10 6.33301 15 19 15c5.33301 0 12.333 -0.666992 21 -2
c22 -3.33301 43.667 -5 65 -5c20 0 41 2 63 6c7.33301 1.33301 13 2 17 2c10.667 0 16 -5 16 -15c0 -9.33301 -6.33301 -14 -19 -14c-6 0 -11 0.333008 -15 1h-11c-12.667 0 -22.334 -7 -29.001 -21c-2 -4.66699 -5.66699 -17 -11 -37l-147 -561
c-6 -23.333 -14.333 -35 -25 -35c-11.333 0 -20.333 12.667 -27 38l-145 549c-1.33301 6 -3.33301 14.333 -6 25c-7.33301 28 -18.333 42 -33 42c-4 0 -9.33301 -0.5 -16 -1.5s-11.667 -1.5 -15 -1.5c-12 0 -18 4.66699 -18 14c0 10 6.66699 15 20 15h6
c2.66699 -0.666992 4.66699 -1 6 -1c14.667 -2 26 -3.33301 34 -4c11.333 -1.33301 22.666 -2 33.999 -2c20.667 0 42.667 2 66 6c4 0.666992 8.66699 1 14 1c11.333 0 17 -4.66699 17 -14c0 -10 -6.66699 -15 -20 -15c-4 0 -9.5 0.5 -16.5 1.5s-12.5 1.5 -16.5 1.5
c-20 0 -30 -7 -30 -21c0 -8 2.33301 -21 7 -39z" />
    <glyph glyph-name="W" unicode="W" horiz-adv-x="655" 
d="M109 587l90.0039 -546.002l108 595c4.66699 26.667 12.334 40 23.001 40s18.334 -14 23.001 -42l99 -598l89 534c3.33301 20 5 34.333 5 43c0 21.333 -10 32 -30 32c-7.33301 0 -15.333 -0.833008 -24 -2.5s-14.334 -2.5 -17.001 -2.5c-13.333 0 -20 5.33301 -20 16
c0 8.66699 7.33301 13 22 13c6.66699 0 19 -1 37 -3c8 -1.33301 14.167 -2.16602 18.5 -2.49902s13.833 -0.5 28.5 -0.5c22.667 0 41.667 1.66699 57 5c10.667 1.33301 17 2 19 2c12 0 18 -5 18 -15c0 -9.33301 -7.33301 -14 -22 -14
c-2.66699 0 -6.83398 0.333008 -12.501 1s-9.83398 1 -12.501 1c-10.667 0 -18.167 -4.16699 -22.5 -12.5s-8.83301 -26.833 -13.5 -55.5l-79 -457l-12 -73c-0.666992 -4 -1.33398 -8.33301 -2.00098 -13c-4 -25.333 -12.333 -38 -25 -38c-13.333 0 -22.333 14 -27 42
l-99 576l-103 -576c-5.33301 -28 -14.333 -42 -27 -42c-11.333 0 -18.333 7.66699 -21 23l-6 33l-6 40c-0.666992 4.66699 -5.33398 31.334 -14.001 80.001l-74 417c-3.33301 20 -5.66602 31.667 -6.99902 35c-4.66699 12.667 -13 19 -25 19h-13
c-2.66699 -0.666992 -6.33398 -1 -11.001 -1c-14 0 -21 5 -21 15c0 8.66699 6.33301 13 19 13c4 0 8.66699 -0.333008 14 -1c9.33301 -0.666992 19.666 -2 30.999 -4h24c10 0 25 1 45 3s35 3 45 3c11.333 0 17 -5 17 -15s-6 -14.667 -18 -14l-15 1h-24
c-20.667 0 -31 -8.66699 -31 -26c0 1.33301 0.333008 -3 1 -13z" />
    <glyph glyph-name="X" unicode="X" horiz-adv-x="577" 
d="M122 83l149.997 270.997l-132 237c-12 20.667 -18.667 32.334 -20 35.001c-9.33301 12.667 -20 19 -32 19c-2 0 -6.33301 -0.666992 -13 -2c-14.667 -1.33301 -21.667 -2 -21 -2c-16 0 -24 4.66699 -24 14c0 10 7.33301 15 22 15h9l37 -5c14.667 -2 30 -3 46 -3
c11.333 0 32 2 62 6c10 1.33301 17.667 2 23 2c13.333 0 20 -4.66699 20 -14s-7.33301 -14 -22 -14l-13 1l-26 2c-19.333 0 -29 -5.66699 -29 -17c0 -5.33301 3.66699 -14.666 11 -27.999l120 -221l124 235c3.33301 6.66699 5 12.334 5 17.001c0 10 -8 15 -24 15
c-6.66699 0 -17 -1 -31 -3c-4.66699 -0.666992 -9.66699 -1 -15 -1c-12 0 -18 4.66699 -18 14s5.66699 14 17 14c5.33301 0 12.333 -0.333008 21 -1l32 -2l38 -3h10c8.66699 0 21.334 0.833008 38.001 2.5s29.334 2.5 38.001 2.5c12.667 0 19 -4.33301 19 -13
c0 -10 -5.33301 -15 -16 -15c-4 0 -10.167 0.666992 -18.5 2s-14.5 2 -18.5 2c-11.333 0 -20.166 -3.16699 -26.499 -9.5s-16.833 -23.166 -31.5 -50.499l-127 -231l152 -278c18.667 -34.667 35.334 -52 50.001 -52c4 0 9.83301 0.5 17.5 1.5s13.5 1.5 17.5 1.5
c16 0 24 -5.33301 24 -16c0 -9.33301 -5.66699 -14 -17 -14c-8 0 -18.667 0.666992 -32 2c-16.667 2 -27.334 3 -32.001 3c-12 0.666992 -24 1 -36 1h-26c-19.333 -0.666992 -30.666 -1.33398 -33.999 -2.00098l-23 -2h-3c-12.667 0 -19 4.66699 -19 14s7.66699 14 23 14
c3.33301 0 6 -0.333008 8 -1l19 -2h7c2.66699 -0.666992 5 -1 7 -1c17.333 0 26 5.66699 26 17c0 5.33301 -5.66699 19 -17 41l-128 246l-143 -263l-6 -12c-2 -4 -3 -7.66699 -3 -11c0 -10.667 9.33301 -16 28 -16h12l17 2h13c14.667 0 22 -4.66699 22 -14
c0 -10 -6 -15 -18 -15c-10.667 0 -27 1.33301 -49 4s-39 4 -51 4c-20.667 0 -40 -1.66699 -58 -5c-10.667 -2 -18.667 -3 -24 -3c-13.333 0 -20 5 -20 15c0 9.33301 7 14 21 14h5l15 -2h10c19.333 0 39.666 19.333 60.999 58z" />
    <glyph glyph-name="Y" unicode="Y" horiz-adv-x="517" 
d="M133 578l120.999 -266.001l139 298c4 8.66699 6 15 6 19c0 9.33301 -7 14 -21 14c-5.33301 0 -9.66602 -0.333008 -12.999 -1c-16 -1.33301 -27.333 -2 -34 -2c-13.333 0 -20 5 -20 15c0 9.33301 6.66699 14 20 14c-0.666992 0 6 -0.666992 20 -2
c28 -2.66699 48.667 -4 62 -4c10 0 24.667 1.16699 44 3.5s33.666 3.5 42.999 3.5c11.333 0 17 -4.33301 17 -13c0 -10.667 -8.66699 -16 -26 -16h-11c-10.667 1.33301 -17.667 2 -21 2c-7.33301 0 -12.833 -2 -16.5 -6s-9.5 -14.333 -17.5 -31l-13 -27l-130 -267
c-10 -21.333 -15 -44.333 -15 -69l1 -177c0.666992 -14.667 2.66699 -24.667 6 -30c4 -8 13 -12 27 -12c4 0 11.333 0.666992 22 2c2 0 4.66699 0.333008 8 1h7c15.333 0 23 -5.33301 23 -16c0 -10 -7.33301 -15 -22 -15h-6c-2.66699 0.666992 -4.66699 1 -6 1l-35 6
c-17.333 1.33301 -29 2 -35 2c-7.33301 0 -23.666 -1 -48.999 -3c-42 -3.33301 -59 -5 -51 -5c-12.667 0 -19 5 -19 15c0 9.33301 7 14 21 14c2.66699 0 8.66699 -0.666992 18 -2h16c21.333 0 34 6.66699 38 20c2.66699 8.66699 4 23.334 4 44.001v175
c0 16 -5.33301 35.333 -16 58l-139 294c-8.66699 16.667 -18.667 25 -30 25c-1.33301 0 -7.33301 -0.666992 -18 -2h-5c-2 -0.666992 -3.66699 -1 -5 -1c-14.667 0 -22 5 -22 15s6.33301 15 19 15c3.33301 0 9 -0.666992 17 -2c20.667 -3.33301 41.334 -5 62.001 -5
c13.333 0 22.666 0.666992 27.999 2l32 4c5.33301 0.666992 11.333 1 18 1c15.333 0 23 -5 23 -15c0 -9.33301 -6.33301 -14 -19 -14c-5.33301 0 -13.333 0.5 -24 1.5s-18.667 1.5 -24 1.5c-13.333 0 -20 -4.33301 -20 -13c0 -4 1.33301 -8.33301 4 -13l7 -16z" />
    <glyph glyph-name="Z" unicode="Z" horiz-adv-x="470" 
d="M331 641l-202 1.00098c-25.333 0 -41 -8 -47 -24c-2 -6.66699 -3 -27.667 -3 -63v-71l1 -25c0.666992 -13.333 -4.33301 -20 -15 -20c-10 0 -15 7 -15 21c0 13.333 0.666992 31.666 2 54.999c1.33301 26.667 2 45.334 2 56.001l1 62c0 14 2.5 23.667 7.5 29
s14.833 8 29.5 8s26 -0.333008 34 -1c16 -1.33301 36.333 -2 61 -2h75c48.667 0 80.667 0.666992 96 2c8 0.666992 19 1 33 1c24 0 36 -6.66699 36 -20c0 -8.66699 -8 -25 -24 -49c-9.33301 -13.333 -20.666 -31.333 -33.999 -54l-34 -56l-229 -388
c-6.66699 -11.333 -11.667 -20.5 -15 -27.5s-6.83301 -13.833 -10.5 -20.5s-5.5 -11.667 -5.5 -15c0 -8.66699 8.66699 -13 26 -13h234c26.667 0 42.667 2.33301 48 7s8 18.667 8 42v47c0 12 -0.333008 32 -1 60v29c0 26 5.33301 39 16 39s16 -8 16 -24
c0 -7.33301 -0.333008 -16.666 -1 -27.999c-1.33301 -22.667 -2 -47.334 -2 -74.001c0 -10.667 0.5 -26.334 1.5 -47.001s1.5 -36 1.5 -46c0 -16.667 -3 -27 -9 -31c-3.33301 -2.66699 -10 -4 -20 -4s-24.333 0.5 -43 1.5s-32.334 1.5 -41.001 1.5l-73 1l-83 -1
c-10 0 -25.833 -0.5 -47.5 -1.5s-38.167 -1.5 -49.5 -1.5c-18 0 -27 6.66699 -27 20c0 8.66699 12.333 34 37 76l234 399l69 114c7.33301 10 11 17.667 11 23c0 7.33301 -7 11.333 -21 12c3.33301 0 -6 0 -28 0z" />
    <glyph glyph-name="bracketleft" unicode="[" horiz-adv-x="297" 
d="M140 667c10 0 20.332 0.334961 30.999 1.00195l33 2h10c20 0 30 -5.33301 30 -16s-7 -16 -21 -16c-6.66699 0 -15.667 1 -27 3c-23.333 4 -42.333 6 -57 6c-16.667 0 -27.667 -5.66699 -33 -17c-3.33301 -6.66699 -5 -20.334 -5 -41.001v-654
c0 -20.667 1.66699 -34.334 5 -41.001c5.33301 -11.333 16.333 -17 33 -17c14.667 0 33.667 2 57 6c11.333 2 20.333 3 27 3c14 0 21 -5.33301 21 -16s-10 -16 -30 -16h-10l-33 2c-11.333 0.666992 -21.666 1 -30.999 1c-4 0 -9.66699 -0.333008 -17 -1s-12 -1 -14 -1
c-10.667 -0.666992 -18 -1 -22 -1c-14 0 -21 8.66699 -21 26c0 4 0.333008 7 1 9c1.33301 28 2 45 2 51v644c0 6 -0.666992 23 -2 51c-0.666992 2 -1 5 -1 9c0 17.333 7 26 21 26c4 0 11.333 -0.333008 22 -1c2 0 6.66699 -0.333008 14 -1s13 -1 17 -1z" />
    <glyph glyph-name="backslash" unicode="\" 
d="M24 750h28l399 -833h-27z" />
    <glyph glyph-name="bracketright" unicode="]" horiz-adv-x="297" 
d="M230 635c-1.33301 -12 -2.00098 -29.002 -2.00098 -51.002v-644c0 -22 0.666992 -39 2 -51c0 -0.666992 0.333008 -2 1 -4v-5c0 -17.333 -7.33301 -26 -22 -26c-3.33301 0 -10.333 0.333008 -21 1c-2 0 -6.66699 0.333008 -14 1s-13 1 -17 1
c-9.33301 0 -19.666 -0.333008 -30.999 -1l-33 -2h-10c-20 0 -30 5.33301 -30 16s6.66699 16 20 16c7.33301 0 16.666 -1 27.999 -3c23.333 -4 42 -6 56 -6c16.667 0 27.667 5.66699 33 17c3.33301 6.66699 5 20.334 5 41.001v654c0 20.667 -1.66699 34.334 -5 41.001
c-5.33301 11.333 -16.333 17 -33 17c-14 0 -32.667 -2 -56 -6c-11.333 -2 -20.666 -3 -27.999 -3c-13.333 0 -20 5.33301 -20 16s10 16 30 16h10l33 -2c10.667 -0.666992 21 -1 31 -1c4 0 9.66699 0.333008 17 1s12 1 14 1c10.667 0.666992 17.667 1 21 1
c14.667 0 22 -8.66699 22 -26v-5c-0.666992 -2 -1 -3.33301 -1 -4z" />
    <glyph glyph-name="asciicircum" unicode="^" 
d="M249 646l-174 -257h-33l190 278h36l190 -278h-34z" />
    <glyph glyph-name="underscore" unicode="_" 
d="M0 -108v24h500v-24h-500z" />
    <glyph glyph-name="grave" unicode="`" 
d="M276 551l-85.001 59c-7.33301 4 -11 9.33301 -11 16c0 10 4.66699 15 14 15c4 0 9.66699 -2.33301 17 -7l13 -10l74 -54c2.66699 -2.66699 5.33398 -4.66699 8.00098 -6c9.33301 -7.33301 14 -13.333 14 -18c0 -8 -4.33301 -12 -13 -12c-2.66699 0 -7 2 -13 6z" />
    <glyph glyph-name="a" unicode="a" horiz-adv-x="420" 
d="M294 69l0.00195312 21.999c-16.667 -37.333 -35.334 -64 -56.001 -80s-47.334 -24 -80.001 -24c-36.667 0 -66 11.667 -88 35s-33 54.333 -33 93c0 82.667 43.333 128.334 130 137.001c50.667 5.33301 83.5 13.833 98.5 25.5s22.5 34.834 22.5 69.501
c0 33.333 -9 59.333 -27 78s-43 28 -75 28c-26.667 0 -49.834 -8 -69.501 -24s-29.5 -34.667 -29.5 -56c0 -5.33301 1.33301 -8 4 -8l6 3c4 2 8 3 12 3c18.667 0 28 -10.667 28 -32c0 -10.667 -3.5 -19.667 -10.5 -27s-15.833 -11 -26.5 -11c-12 0 -22 5.5 -30 16.5
s-12 24.833 -12 41.5c0 33.333 12.333 61.333 37 84s55.334 34 92.001 34c54 0 91.667 -19.333 113 -58c13.333 -24 20 -67.333 20 -130v-209c0 -46.667 11 -70 33 -70c24 0 36 28 36 84v14c-0.666992 7.33301 -1 13.666 -1 18.999l-1 2c0 14 5 21 15 21s15 -7.66699 15 -23
c0 -55.333 -4.33301 -92.5 -13 -111.5s-25.667 -28.5 -51 -28.5c-39.333 0 -59 27.333 -59 82zM294.002 213.999v58c-18.667 -21.333 -46 -34 -82 -38l-42 -5c-70 -8 -105 -45 -105 -111c0 -32 9 -58 27 -78s41.667 -30 71 -30c54 0 91.333 26.333 112 79
c12.667 32 19 73.667 19 125z" />
    <glyph glyph-name="b" unicode="b" horiz-adv-x="433" 
d="M117 622l-0.00292969 -240.999c31.333 64 73 96 125 96c44.667 0 81 -22.333 109 -67s42 -102.334 42 -173.001c0 -75.333 -14.5 -135.833 -43.5 -181.5s-67.5 -68.5 -115.5 -68.5c-48.667 0 -88.334 28 -119.001 84c2 -24.667 3 -41.667 3 -51
c0 -14.667 -1.16699 -23.834 -3.5 -27.501s-6.16602 -5.5 -11.499 -5.5c-10 0 -15 9.66699 -15 29c0 0.666992 0.666992 22.334 2 65.001c0.666992 21.333 1 37.333 1 48v442c0 25.333 -1 41.666 -3 48.999c-5.33301 18 -16.666 27 -33.999 27
c-4 0 -7.33301 -0.333008 -10 -1h-7c-3.33301 -0.666992 -5.66602 -1 -6.99902 -1c-10 0 -15 4.33301 -15 13s5 13 15 13c4 0 11 -0.666992 21 -2s17.667 -1.66602 23 -0.999023c10.667 1.33301 20.334 2 29.001 2c10 0 15 -9 15 -27v-6
c-0.666992 -4.66699 -1 -9.66699 -1 -15zM131.997 87.001c9.33301 -22.667 23.5 -41.165 42.5 -55.498s38.833 -21.5 59.5 -21.5c39.333 0 71 21 95 63s36 97.667 36 167c0 63.333 -11.167 114.666 -33.5 153.999s-51.833 59 -88.5 59c-45.333 0 -80 -26.667 -104 -80
c-17.333 -38.667 -26 -89.334 -26 -152.001c0 -58 6.33301 -102.667 19 -134z" />
    <glyph glyph-name="c" unicode="c" horiz-adv-x="396" 
d="M213 10c30.667 0 56.501 10.168 77.501 30.501s33.167 47.5 36.5 81.5l2 21c0.666992 8.66699 5 13 13 13c9.33301 0 14 -6 14 -18c0 -41.333 -14 -76.833 -42 -106.5s-61.667 -44.5 -101 -44.5c-51.333 0 -93 22.167 -125 66.5s-48 102.166 -48 173.499
c0 73.333 16.167 133.333 48.5 180s74.166 70 125.499 70c38.667 0 71.167 -13.667 97.5 -41s39.5 -61.333 39.5 -102c0 -48 -15.333 -72 -46 -72c-23.333 0 -35 12 -35 36c0 20 7.33301 30 22 30c5.33301 0 11.333 -2.66699 18 -8c1.33301 -2 3 -3 5 -3
c4.66699 0 7 5.33301 7 16c0 35.333 -10.167 64.166 -30.5 86.499s-46.166 33.5 -77.499 33.5c-44.667 0 -80 -21.167 -106 -63.5s-39 -99.166 -39 -170.499c0 -63.333 13.167 -114 39.5 -152s61.166 -57 104.499 -57z" />
    <glyph glyph-name="d" unicode="d" horiz-adv-x="447" 
d="M203 477c27.333 0 49.833 -7.99805 67.5 -23.998s34.167 -42.667 49.5 -80v219c0 18.667 -1 31 -3 37c-4 11.333 -13.333 17 -28 17c-6 0 -10.667 -0.333008 -14 -1c-10 -2 -17.333 -3 -22 -3c-12.667 0 -19 5 -19 15c0 9.33301 5.66699 14 17 14c2 0 8.33301 -1 19 -3h9
c4 -0.666992 7.33301 -1 10 -1c5.33301 0 12.833 0.666992 22.5 2s16.834 2 21.501 2c11.333 0 16.666 -6.66699 15.999 -20l-1 -17l-1 -34v-511c0 -24.667 0.666992 -40.334 2 -47.001c4.66699 -16.667 15.334 -25 32.001 -25c9.33301 0 16.333 0.666992 21 2
c9.33301 1.33301 15.333 2 18 2c11.333 0 17 -5 17 -15c0 -8.66699 -5 -13 -15 -13h-6c-3.33301 0.666992 -6 1 -8 1c-4 0.666992 -13.333 1 -28 1s-24.334 -0.333008 -29.001 -1h-11c-14 0 -21 7.33301 -21 22v4l1 8v16v24c-31.333 -54 -70.333 -81 -117 -81
c-48.667 0 -88 22.667 -118 68s-45 104.666 -45 177.999c0 71.333 15.333 129.833 46 175.5s69.667 68.5 117 68.5zM69 233.002c0 -68 12 -122.166 36 -162.499s56.333 -60.5 97 -60.5c30.667 0 56.334 12.167 77.001 36.5s32.667 56.5 36 96.5c2 23.333 3 52.666 3 87.999
c0 60.667 -5.66699 107 -17 139c-20 55.333 -52.333 83 -97 83c-40.667 0 -73.334 -20.333 -98.001 -61s-37 -93.667 -37 -159z" />
    <glyph glyph-name="e" unicode="e" horiz-adv-x="401" 
d="M70 241l-0.000976562 -15c0 -67.333 12.167 -120.166 36.5 -158.499s58.166 -57.5 101.499 -57.5c27.333 0 51.333 8.66699 72 26s35 41.333 43 72c3.33301 11.333 6 27 8 47c1.33301 12 6 18 14 18c9.33301 0 14 -6 14 -18c0 -44.667 -15.333 -83.834 -46 -117.501
s-66 -50.5 -106 -50.5c-50 0 -90.333 21.5 -121 64.5s-46 99.833 -46 170.5c0 76 15.5 137.5 46.5 184.5s71.5 70.5 121.5 70.5c44.667 0 81.334 -18.833 110.001 -56.5s43 -86.167 43 -145.5c0 -16 -1.16699 -25.667 -3.5 -29s-9.16602 -5 -20.499 -5h-267zM207.999 453
c-38.667 0 -70.168 -17.001 -94.501 -51.001s-38.166 -79.333 -41.499 -136h250c7.33301 0.666992 11 4.33398 11 11.001c0 52.667 -11.5 95.167 -34.5 127.5s-53.167 48.5 -90.5 48.5z" />
    <glyph glyph-name="f" unicode="f" horiz-adv-x="284" 
d="M117 88l0.00195312 341c0 11.333 -3 16.666 -9 15.999l-27 -2l-22 -1h-12c-12 0 -18 4.66699 -18 14c0 8.66699 6 13 18 13h13l25 -2c16.667 -1.33301 24.667 -2 24 -2c5.33301 0 8.33301 3 9 9l2 60c1.33301 43.333 11.166 77.833 29.499 103.5s42.833 38.5 73.5 38.5
c19.333 0 35.666 -6.33301 48.999 -19s20 -28.334 20 -47.001c0 -24.667 -10.333 -37 -31 -37c-19.333 0 -29 11 -29 33c0 12.667 4 20.334 12 23.001l6 2c2 2 3 3.33301 3 4c0 2.66699 -2.83301 6.16699 -8.5 10.5s-13.167 6.5 -22.5 6.5c-51.333 0 -77 -58.667 -77 -176
c0 -7.33301 2.66699 -11 8 -11h1l18 1c4 0 11.667 0.666992 23 2c2 0 5 0.333008 9 1h8c14 0 21 -4.66699 21 -14c0 -8.66699 -7 -13 -21 -13h-16c-6 0.666992 -14 1.33398 -24 2.00098h-20c-5.33301 0 -8 -5 -8 -15v-341c0 -38 5.66699 -59 17 -63
c4.66699 -2 11.334 -3 20.001 -3h15c6 0.666992 11.667 1 17 1c13.333 0 20 -4.33301 20 -13s-6.66699 -13 -20 -13h-10l-33 5c-8.66699 1.33301 -21 2 -37 2c-20.667 0 -46.334 -2.33301 -77.001 -7c-2.66699 -0.666992 -6.33398 -1 -11.001 -1c-12 0 -18 4.66699 -18 14
s6.33301 14 19 14c-4 0 -1.66699 -0.333008 7 -1l13 -1c3.33301 -0.666992 8.33301 -1 15 -1c16.667 0 26.834 3.66699 30.501 11s5.5 26 5.5 56z" />
    <glyph glyph-name="g" unicode="g" horiz-adv-x="431" 
d="M43 168c0 34.667 18.9971 61.667 56.9971 81c-6 20 -9 41.333 -9 64c0 46 12.833 84.833 38.5 116.5s57.5 47.5 95.5 47.5c26.667 0 54.334 -12 83.001 -36c-1.33301 13.333 -2 20.666 -2 21.999c0 23.333 6.33301 42.333 19 57s29.334 22 50.001 22
c18.667 0 33.667 -6 45 -18s17 -27.333 17 -46c0 -31.333 -12 -47 -36 -47c-18.667 0 -28 9.33301 -28 28s8.33301 28 25 28c2 0 3.33301 -0.333008 4 -1h3c2.66699 0 4 1 4 3c0 3.33301 -1.33301 7 -4 11c-6.66699 12.667 -16.334 19 -29.001 19
s-23.5 -5.83301 -32.5 -17.5s-13.5 -25.167 -13.5 -40.5c0 -13.333 2.66699 -28.666 8 -45.999l13 -43c4 -13.333 6 -29.333 6 -48c0 -47.333 -12.667 -86 -38 -116s-57.666 -45 -96.999 -45c-46 0 -82.667 21.333 -110 64c-26.667 -12 -40 -32.333 -40 -61
c0 -39.333 33 -61 99 -65l71 -4c111.333 -6 167 -52.333 167 -139c0 -46 -16.667 -82.333 -50 -109s-78.666 -40 -135.999 -40c-62 0 -110.167 12.5 -144.5 37.5s-51.5 60.167 -51.5 105.5c0 61.333 30.667 105 92 131c-50.667 16 -76 44.333 -76 85zM118.997 309
c0 -36 9.33301 -65.332 28 -87.999s42.667 -34 72 -34c32.667 0 59.167 12.833 79.5 38.5s30.5 59.167 30.5 100.5c0 36.667 -9.83301 67 -29.5 91s-44.167 36 -73.5 36c-31.333 0 -57 -13.333 -77 -40s-30 -61.334 -30 -104.001zM54.9971 -46.999
c0 -37.333 15.001 -66.835 45.001 -88.502s70.667 -32.5 122 -32.5c49.333 0 88.166 11.333 116.499 34s42.5 53.334 42.5 92.001c0 76.667 -55.667 115 -167 115c-50 0 -89 -10.667 -117 -32s-42 -50.666 -42 -87.999z" />
    <glyph glyph-name="h" unicode="h" horiz-adv-x="487" 
d="M131 372c24.667 70 68.6592 105.002 131.992 105.002c51.333 0 87.666 -21.667 108.999 -65c11.333 -22.667 17 -70.667 17 -144l1 -190c0.666992 -24 2.33398 -38.667 5.00098 -44c4.66699 -10 16.334 -15 35.001 -15h8c6 0.666992 12.333 1 19 1
c12 0 18 -4.33301 18 -13c0 -7.33301 -5 -11 -15 -11c-3.33301 0 -10.333 0.666992 -21 2c-26.667 3.33301 -50.334 5 -71.001 5c-14 0 -23.667 -0.333008 -29 -1l-32 -4c-2 0 -5.33301 -0.333008 -10 -1h-7c-12.667 0 -19 3.66699 -19 11c0 10.667 7.66699 16 23 16h4
l23 -2h6c15.333 0 25 4.66699 29 14c2 5.33301 3.66699 17.666 5 36.999l2 37v150c0 61.333 -4 104.666 -12 129.999c-13.333 42 -43 63 -89 63c-45.333 0 -80.666 -22.667 -105.999 -68c-16.667 -30 -25 -73.667 -25 -131v-158c0 -29.333 1 -47 3 -53
c4.66699 -15.333 17.334 -23 38.001 -23c4 0 7.33301 0.166992 10 0.5s6.33398 0.833008 11.001 1.5h9c12.667 0 19 -4.66699 19 -14c0 -7.33301 -5.33301 -11 -16 -11c-2 0 -8 0.666992 -18 2l-31 4c-5.33301 0.666992 -16.666 1 -33.999 1c-22 0 -45.667 -2 -71 -6
c-8.66699 -1.33301 -15 -2 -19 -2c-11.333 0 -17 4 -17 12c0 10 6.66699 15 20 15h7c3.33301 -0.666992 6.33301 -1 9 -1c8 -1.33301 13.667 -2 17 -2c15.333 0 25.333 4.33301 30 13c2.66699 6 4.33398 18 5.00098 36l1 28v474c0 33.333 -2.16699 54 -6.5 62
s-16.166 12 -35.499 12c-6 0 -12.667 -0.666992 -20 -2c-4 -0.666992 -8.33301 -1 -13 -1c-13.333 0 -20 4.66699 -20 14c0 8.66699 5.66699 13 17 13h10c4.66699 0 11.334 -0.333008 20.001 -1s15.334 -1 20.001 -1c4 0 10.333 0.666992 19 2s15 2 19 2
c11.333 0 17 -8.66699 17 -26v-273z" />
    <glyph glyph-name="i" unicode="i" horiz-adv-x="245" 
d="M145 437c-0.666992 -4.66699 -1.00195 -11.333 -1.00195 -20v-320c0 -28.667 0.333008 -44.667 1 -48c3.33301 -18 13.666 -27 30.999 -27c7.33301 0 13.333 0.333008 18 1h10c16 0 24 -4.33301 24 -13s-6.33301 -13 -19 -13c-6.66699 0 -12.667 0.666992 -18 2
c-25.333 2.66699 -48 4 -68 4c-18.667 0 -32.334 -0.666992 -41.001 -2l-26 -4c-4 -0.666992 -8.66699 -1 -14 -1c-13.333 0 -20 4.66699 -20 14s5.66699 14 17 14c6.66699 0 14.334 -0.333008 23.001 -1c1.33301 0 3.33301 -0.333008 6 -1h7c21.333 0 34.333 8 39 24
c2 5.33301 3 23.333 3 54v299c0 16 -3 27 -9 33s-17.333 9 -34 9c-11.333 0 -18.666 -0.333008 -21.999 -1h-8c-3.33301 -0.666992 -5.66602 -1 -6.99902 -1c-10.667 0 -16 4.66699 -16 14s7 14 21 14h12l15 -3h8c4 -0.666992 6.66699 -1 8 -1c4.66699 0 13.334 1 26.001 3
c2 0 4.66699 0.333008 8 1h8c12 0 18 -7.66699 18 -23v-7zM152.998 579.001c0 -25.333 -11 -38 -33 -38c-20 0 -30 12 -30 36s10.667 36 32 36c20.667 0 31 -11.333 31 -34z" />
    <glyph glyph-name="j" unicode="j" horiz-adv-x="228" 
d="M33 -169c34 0 57.666 12.332 70.999 36.999s20 68.334 20 131.001v387c0 22 -0.333008 34 -1 36c-2 14 -9 21 -21 21c-4.66699 0 -10 -0.333008 -16 -1l-18 -2h-8c-12.667 0 -19 4.66699 -19 14c0 8.66699 6 13 18 13h10c17.333 -2.66699 28.333 -4 33 -4
c1.33301 0 3.66602 0.333008 6.99902 1h8c11.333 2 18 3 20 3c11.333 0 17 -9.66699 17 -29c0 -17.333 -0.333008 -32 -1 -44c-1.33301 -23.333 -2 -56.333 -2 -99v-299c0 -66.667 -6.66699 -112 -20 -136c-19.333 -34.667 -51.666 -52 -96.999 -52
c-27.333 0 -50.166 7.83301 -68.499 23.5s-27.5 35.167 -27.5 58.5c0 31.333 11.667 47 35 47c18 0 27 -10 27 -30c0 -12 -5.33301 -21.333 -16 -28c-6.66699 -2.66699 -10 -5.66699 -10 -9c0 -10 6 -19 18 -27s25.667 -12 41 -12zM155.999 577.999
c0 -25.333 -10 -38 -30 -38s-30 11.667 -30 35c0 10.667 3 19.667 9 27s13.333 11 22 11c19.333 0 29 -11.667 29 -35z" />
    <glyph glyph-name="k" unicode="k" horiz-adv-x="463" 
d="M190 260l-58.999 -65.999v-96c0 -26.667 0.666992 -43 2 -49c4 -18 14.333 -27 31 -27c8.66699 0 16.334 0.333008 23.001 1c0.666992 0 2.33398 0.333008 5.00098 1h5c15.333 0 23 -4.33301 23 -13c0 -9.33301 -6 -14 -18 -14c-6.66699 0 -12.667 0.666992 -18 2
c-21.333 3.33301 -44.333 5 -69 5c-14 0 -27.667 -1 -41 -3l-26 -4c-4 -0.666992 -8.66699 -1 -14 -1c-13.333 0 -20 4.66699 -20 14s6 14 18 14c4 0 10 -0.333008 18 -1s14 -1 18 -1c19.333 0 31 9 35 27c0.666992 3.33301 1 20.666 1 51.999v501c0 16 -2.83301 27 -8.5 33
s-15.834 9 -30.501 9h-3c-10 0 -16 -0.333008 -18 -1h-12c-11.333 0 -17 4.66699 -17 14s6.66699 14 20 14h5c2.66699 -0.666992 4.66699 -1 6 -1l16 -2c5.33301 -0.666992 10.666 -1 15.999 -1c10 0 18.667 0.666992 26 2s11.666 2 12.999 2c9.33301 0 14 -8 14 -24v-423
l158 181c11.333 12.667 17 22 17 28c0 8 -5.33301 12 -16 12h-2l-28 -2h-11c-10.667 0 -16 4.33301 -16 13s6.66699 13 20 13h12l33 -5c8.66699 -1.33301 21 -2 37 -2c17.333 0 38.333 1.66699 63 5c4.66699 0.666992 10.334 1 17.001 1c12 0 18 -4.33301 18 -13
s-7 -13 -21 -13c-5.33301 0 -9.66602 0.333008 -12.999 1l-10 2h-6c-18 0 -34 -8.33301 -48 -25l-10 -12l-80 -88c-7.33301 -8.66699 -11 -13.667 -11 -15c0 -3.33301 2 -8 6 -14l12 -22l103 -193c11.333 -21.333 18.666 -34 21.999 -38c10 -13.333 22 -20 36 -20
c1.33301 0 2.66602 0.333008 3.99902 1h4l16 4c1.33301 0.666992 3.66602 1 6.99902 1c12.667 0 19 -4.66699 19 -14s-5.66699 -14 -17 -14c-1.33301 0 -6.66602 0.666992 -15.999 2c-23.333 3.33301 -47 5 -71 5c-8.66699 0 -21.667 -1 -39 -3s-30.333 -3 -39 -3
c-11.333 0 -17 4.66699 -17 14c0 8 5.66699 12 17 12c3.33301 0 8 -0.333008 14 -1s10.667 -1 14 -1h10c16 0 24 4.66699 24 14c0 4.66699 -5.33301 16.667 -16 36l-107 195c-4 6.66699 -7.66699 10 -11 10s-7.33301 -2.66699 -12 -8z" />
    <glyph glyph-name="l" unicode="l" horiz-adv-x="231" 
d="M131 641l-0.00195312 -542.999c0 -27.333 0.333008 -43 1 -47c3.33301 -19.333 12.666 -29 27.999 -29c7.33301 0 14.333 0.333008 21 1c0.666992 0 2.33398 0.333008 5.00098 1h5c16 0 24 -4.33301 24 -13c0 -9.33301 -6.33301 -14 -19 -14
c-6.66699 0 -12.667 0.666992 -18 2c-24 2.66699 -45.333 4 -64 4c-18 0 -31.333 -0.666992 -40 -2l-26 -4c-4 -0.666992 -8.66699 -1 -14 -1c-13.333 0 -20 4.66699 -20 14s6 14 18 14c4 0 10 -0.333008 18 -1s14 -1 18 -1c19.333 0 31 9 35 27
c0.666992 3.33301 1 20.666 1 51.999v501c0 16.667 -2.66699 28 -8 34s-15.333 9 -30 9h-12c-5.33301 -0.666992 -8.66602 -1 -9.99902 -1c-3.33301 -0.666992 -7.66602 -1 -12.999 -1c-10.667 0 -16 4.66699 -16 14s6.33301 14 19 14h6c2.66699 -0.666992 4.66699 -1 6 -1
l16 -2l16 -2l21 3c11.333 1.33301 16 2 14 2c12.667 0 19 -7.66699 19 -23v-3c-0.666992 -2 -1 -3.33301 -1 -4z" />
    <glyph glyph-name="m" unicode="m" horiz-adv-x="715" 
d="M141 414l-1.00488 -23.001c27.333 57.333 66.666 86 117.999 86c62.667 0 100.334 -35.667 113.001 -107c24 71.333 66.667 107 128 107c23.333 0 44.333 -5.5 63 -16.5s31.667 -25.167 39 -42.5c10.667 -26 16 -69.333 16 -130l1 -209
c0.666992 -18.667 2.33398 -31.334 5.00098 -38.001c4.66699 -12.667 14.334 -19 29.001 -19c2.66699 0 4.66699 0.333008 6 1l17 2h11c15.333 0 23 -4.66699 23 -14s-6 -14 -18 -14c1.33301 0 -3 0.333008 -13 1c-43.333 3.33301 -68 5 -74 5
c-24 0 -48.667 -1.33301 -74 -4c-3.33301 -0.666992 -7.33301 -1 -12 -1c-12.667 0 -19 5 -19 15c0 8 5.33301 12 16 12c4 0 10.333 -0.333008 19 -1s15.334 -1 20.001 -1c18.667 0 30.334 12.333 35.001 37c1.33301 7.33301 2 27 2 59v167c0 64 -6.83301 108 -20.5 132
s-38.5 36 -74.5 36c-24 0 -45.5 -7.66699 -64.5 -23s-32.167 -35.666 -39.5 -60.999c-9.33301 -33.333 -14 -76 -14 -128l1 -177c0 -28 11.667 -42 35 -42h7l16 2c1.33301 0 2.66602 0.333008 3.99902 1h4c14.667 0 22 -4.66699 22 -14s-6 -14 -18 -14
c-1.33301 0 -9.16602 1 -23.499 3s-32.5 3 -54.5 3c-22.667 0 -47.334 -1.66699 -74.001 -5l-16 -2c-12 0 -18 5 -18 15c0 8.66699 4.66699 13 14 13c4 0 10 -0.333008 18 -1s14 -1 18 -1c18.667 0 30.334 10.667 35.001 32c2 8.66699 3 27 3 55v193
c0 100 -31.333 150 -94 150c-48 0 -80.667 -23.667 -98 -71c-10 -27.333 -15 -62.333 -15 -105v-159c0 -44.667 1.66699 -71.667 5 -81s13.666 -14 30.999 -14c6.66699 0 11.834 0.166992 15.501 0.5s7.5 0.833008 11.5 1.5h7c10.667 0 16 -4.33301 16 -13
c0 -9.33301 -5.66699 -14 -17 -14c-3.33301 0 -9.66602 0.666992 -18.999 2c-18.667 2.66699 -35 4 -49 4c-19.333 0 -47 -2.33301 -83 -7c-5.33301 -0.666992 -10.666 -1 -15.999 -1c-12.667 0 -19 4.66699 -19 14s7.33301 14 22 14h5l12 -2h5
c2.66699 -0.666992 4.33398 -1 5.00098 -1c21.333 0 34.333 12 39 36c1.33301 6.66699 2 27.667 2 63v248c0 23.333 -1 39 -3 47c-5.33301 18 -16 27 -32 27c-4.66699 0 -9.33398 -0.333008 -14.001 -1c-8.66699 -1.33301 -16.334 -2 -23.001 -2
c-13.333 0 -20 4.33301 -20 13c0 9.33301 6.66699 14 20 14h8c10.667 -1.33301 20 -2 28 -2c9.33301 0 16 0.333008 20 1c8 1.33301 15.667 2 23 2c12 0 18 -8 18 -24v-7c0 0.666992 -0.333008 -6.66602 -1 -21.999z" />
    <glyph glyph-name="n" unicode="n" horiz-adv-x="497" 
d="M145 437c-1.33301 -22.667 -2.00293 -40.334 -2.00293 -53.001c30.667 62 73.667 93 129 93c46.667 0 81 -19 103 -57c16 -27.333 24 -71 24 -131v-209c0 -20 2 -33.667 6 -41c5.33301 -11.333 16.333 -17 33 -17c4 0 9.66699 0.333008 17 1s13 1 17 1
c12 0 18 -4.33301 18 -13c0 -10 -6 -15 -18 -15c-1.33301 0 -8 0.666992 -20 2c4 0 -6.33301 1 -31 3c-16.667 1.33301 -29 2 -37 2h-9c-15.333 0 -33.333 -1 -54 -3c-6.66699 -0.666992 -13 -1 -19 -1c-13.333 0 -20 4.66699 -20 14c0 8.66699 6 13 18 13h5
c2 -0.666992 3.33301 -1 4 -1l15 -2c2 -0.666992 5 -1 9 -1c14.667 0 25 6 31 18s9 33.333 9 64v186c0 56.667 -8.16699 98 -24.5 124s-42.166 39 -77.499 39c-48 0 -83 -21.333 -105 -64c-14.667 -28 -22 -66 -22 -114l1 -195c0.666992 -21.333 2.33398 -35 5.00098 -41
c5.33301 -11.333 16.333 -17 33 -17c6 0 12 0.666992 18 2c3.33301 0.666992 7.66602 1 12.999 1c10.667 0 16 -4.33301 16 -13s-5.33301 -13 -16 -13c-5.33301 0 -11.666 0.666992 -18.999 2c-15.333 2.66699 -35 4 -59 4h-4c-16 0 -36 -1.66699 -60 -5
c-9.33301 -1.33301 -17.666 -2 -24.999 -2c-11.333 0 -17 5 -17 15c0 8.66699 5.66699 13 17 13c4 0 9.83301 -0.5 17.5 -1.5s13.5 -1.5 17.5 -1.5c18 0 29 10.333 33 31c1.33301 6 2 23.333 2 52v247c0 30.667 -0.666992 49.334 -2 56.001c-4.66699 22.667 -16 34 -34 34
c4 0 -3.33301 -0.666992 -22 -2c-2.66699 -0.666992 -7 -1 -13 -1c-11.333 0 -17 4.33301 -17 13c0 9.33301 5.66699 14 17 14h9c10 -2 22.667 -3 38 -3c6 0 13 0.666992 21 2c2 0 4.66699 0.333008 8 1h6c11.333 0 17 -8.33301 17 -25c0 -4 0 -5.66699 0 -5z" />
    <glyph glyph-name="o" unicode="o" horiz-adv-x="423" 
d="M383 230c0 -70.667 -16.167 -128.832 -48.5 -174.499s-73.5 -68.5 -123.5 -68.5c-50.667 0 -91.834 22.167 -123.501 66.5s-47.5 102.166 -47.5 173.499c0 72.667 16.333 132.5 49 179.5s74.334 70.5 125.001 70.5c48.667 0 89 -23.5 121 -70.5s48 -105.833 48 -176.5z
M69 227.002c0 -65.333 12.832 -117.834 38.499 -157.501s59.834 -59.5 102.501 -59.5s77.5 20.833 104.5 62.5s40.5 95.834 40.5 162.501c0 63.333 -13.167 115.5 -39.5 156.5s-59.833 61.5 -100.5 61.5c-43.333 0 -78.5 -20.833 -105.5 -62.5s-40.5 -96.167 -40.5 -163.5z
" />
    <glyph glyph-name="p" unicode="p" horiz-adv-x="431" 
d="M118 402l-0.999023 -29c24.667 69.333 66 104 124 104c45.333 0 81.666 -21.5 108.999 -64.5s41 -100.167 41 -171.5c0 -77.333 -14.167 -139 -42.5 -185s-66.166 -69 -113.499 -69c-51.333 0 -90.666 27.333 -117.999 82v-187c0 -28.667 10.333 -43 31 -43h7
c4.66699 0 9.66699 0.333008 15 1l15 1c10.667 0 16 -4.66699 16 -14c0 -8.66699 -5.33301 -13 -16 -13c-4.66699 0 -8.33398 0.333008 -11.001 1c-22 3.33301 -46.333 5 -73 5c-20.667 0 -42 -1.66699 -64 -5c-8.66699 -1.33301 -14.334 -2 -17.001 -2
c-12 0 -18 4.66699 -18 14s5 14 15 14c5.33301 0 10.333 -0.333008 15 -1c1.33301 0 4.66602 -0.333008 9.99902 -1h12c22.667 0 34.667 13.333 36 40l1 22v486c0 30 -4 47.667 -12 53c-4 2.66699 -10.667 4 -20 4c-3.33301 0 -10.333 -0.666992 -21 -2
c-5.33301 -0.666992 -12.333 -1 -21 -1c-10 0 -15 4.66699 -15 14s5.33301 14 16 14c2 0 7 -0.666992 15 -2s18 -2 30 -2c4.66699 0 11.334 0.5 20.001 1.5s15.334 1.5 20.001 1.5c11.333 0 17 -8.33301 17 -25v-9c-0.666992 -8 -1.33398 -18.667 -2.00098 -32zM140.001 382
c-16 -35.333 -23.998 -84.666 -23.998 -147.999c0 -64.667 5.66699 -114 17 -148c7.33301 -22.667 20.166 -41 38.499 -55s38.166 -21 59.499 -21c40 0 71.833 20.167 95.5 60.5s35.5 94.833 35.5 163.5c0 69.333 -10.5 123.166 -31.5 161.499s-50.833 57.5 -89.5 57.5
c-46 0 -79.667 -23.667 -101 -71z" />
    <glyph glyph-name="q" unicode="q" horiz-adv-x="420" 
d="M316 -71l0.000976562 136.001c-32.667 -52 -72.667 -78 -120 -78c-48.667 0 -86.834 21.167 -114.501 63.5s-41.5 100.166 -41.5 173.499c0 76 14.667 137.167 44 183.5s68.333 69.5 117 69.5c57.333 0 96.666 -34 117.999 -102l-3 38l-2 33v13c0 12 5.33301 18 16 18
s16 -8.33301 16 -25v-10c-1.33301 -24 -2 -33 -2 -27v-28l-1 -36v-421c0 -32.667 0.666992 -52 2 -58c4 -22.667 15.333 -34 34 -34h3l12 3c2.66699 0.666992 5.66699 1 9 1c12 0 18 -4.66699 18 -14c0 -8.66699 -5.33301 -13 -16 -13c0.666992 0 -5 0.666992 -17 2
c-16.667 4 -39 6 -67 6c-16 0 -35 -1.66699 -57 -5c-8 -2 -14 -3 -18 -3c-11.333 0 -17 4.66699 -17 14c0 8.66699 7.33301 13 22 13h9l13 -1c0.666992 0 1.66699 -0.333008 3 -1h3c18.667 0 30.334 11 35.001 33c1.33301 7.33301 2 26 2 56zM306.001 100.001
c6 23.333 9 65.334 9 126.001v19c0 55.333 -4.33301 97.333 -13 126c-16.667 54.667 -50 82 -100 82c-41.333 0 -73.833 -20.333 -97.5 -61s-35.5 -96.334 -35.5 -167.001c0 -67.333 11.5 -120 34.5 -158s54.833 -57 95.5 -57c55.333 0 91 30 107 90z" />
    <glyph glyph-name="r" unicode="r" horiz-adv-x="372" 
d="M146 441c-1.33301 -17.333 -2.00195 -33.332 -2.00195 -47.999c28.667 56 64.334 84 107.001 84c28.667 0 52.667 -10.833 72 -32.5s29 -48.834 29 -81.501c0 -21.333 -4.66699 -39.333 -14 -54s-21 -22 -35 -22c-21.333 0 -32 11.333 -32 34c0 18.667 8 28 24 28
c4.66699 0 9 -1 13 -3c2 -2 3.66699 -3 5 -3c6.66699 0 10 9.33301 10 28c0 22.667 -7 42.167 -21 58.5s-30.667 24.5 -50 24.5c-22 0 -42.333 -9.16699 -61 -27.5s-31 -40.833 -37 -67.5c-6.66699 -30.667 -10 -73 -10 -127v-118c0 -40.667 2.16699 -66.167 6.5 -76.5
s14.833 -15.5 31.5 -15.5c1.33301 0 3 0.333008 5 1h5l11 1h6c16 0 24 -4.33301 24 -13c0 -9.33301 -5.33301 -14 -16 -14c-5.33301 0 -11.333 0.666992 -18 2c-16.667 3.33301 -38 5 -64 5c-10.667 0 -26 -1.33301 -46 -4s-34.333 -4 -43 -4c-12 0 -18 4.33301 -18 13
c0 10 7.33301 15 22 15c-1.33301 0 0.333984 -0.333008 5.00098 -1l18 -2h7c17.333 0 28.333 8 33 24c2.66699 8 4 23.667 4 47l-1 312c-1.33301 26 -9.66602 39 -24.999 39c-0.666992 0 -6.33398 -0.333008 -17.001 -1l-16 -1c-2.66699 -0.666992 -6.33398 -1 -11.001 -1
c-12 0 -18 4.66699 -18 14c0 8.66699 7 13 21 13h8l19 -2c2.66699 -0.666992 6.33398 -1 11.001 -1s11 0.666992 19 2l12 2c4 0.666992 8.33301 1 13 1c9.33301 0 14 -6.33301 14 -19v-9z" />
    <glyph glyph-name="s" unicode="s" horiz-adv-x="383" 
d="M198 -13c-52 0 -91 25.002 -117 75.002l2 -42v-8c0 -14.667 -5 -22 -15 -22c-9.33301 0 -14 6.66699 -14 20c0 11.333 0.833008 28.166 2.5 50.499s2.5 39.166 2.5 50.499c0 14.667 -0.666992 29 -2 43l-3 31v9c-0.666992 3.33301 -1 5.66602 -1 6.99902
c0 13.333 4.66699 20 14 20c10.667 0 16 -9 16 -27c0 -5.33301 -0.333008 -9.33301 -1 -12v-18c-0.666992 -2.66699 -1 -6.66699 -1 -12c0 -42.667 10.667 -77 32 -103s49.666 -39 84.999 -39c31.333 0 57.5 11 78.5 33s31.5 49.333 31.5 82s-8.5 56.167 -25.5 70.5
s-47.5 24.5 -91.5 30.5c-47.333 6 -80.5 17.5 -99.5 34.5s-28.5 43.833 -28.5 80.5c0 39.333 11.667 71.833 35 97.5s53 38.5 89 38.5c50 0 85.333 -26.333 106 -79c0 14 -0.666992 28.667 -2 44c-0.666992 2.66699 -1 6.66699 -1 12c0 11.333 4.66699 17 14 17
c8 0 12 -5.66699 12 -17v-12c-2 -30 -3 -53.333 -3 -70v-36c0.666992 -16 1.33398 -26.667 2.00098 -32v-11c0 -12 -4.33301 -18 -13 -18c-9.33301 0 -14 6.66699 -14 20v15l1 6c0 42.667 -9 76.167 -27 100.5s-43 36.5 -75 36.5c-27.333 0 -50.166 -10.167 -68.499 -30.5
s-27.5 -45.833 -27.5 -76.5c0 -29.333 7 -50.166 21 -62.499s40.667 -21.833 80 -28.5c47.333 -8 78.666 -16 93.999 -24c34 -18.667 51 -52 51 -100c0 -42 -13.167 -76.5 -39.5 -103.5s-59.5 -40.5 -99.5 -40.5z" />
    <glyph glyph-name="t" unicode="t" horiz-adv-x="293" 
d="M146 464l25 2l20 2h7c12.667 0 19 -4.66699 19 -14c0 -8.66699 -5.66699 -13 -17 -13h-17c-8.66699 0.666992 -16.667 1 -24 1h-18c-16 0 -25.667 -2 -29 -6s-5 -10.667 -5 -20v-248c0 -59.333 4.5 -100.5 13.5 -123.5s25.167 -34.5 48.5 -34.5c38.667 0 58 34 58 102v78
c0 13.333 4.33301 20 13 20c6 0 9.66699 -1.83301 11 -5.5s2 -14.167 2 -31.5v-57c0 -86 -28.667 -129 -86 -129c-40 0 -66.333 22 -79 66c-5.33301 18.667 -8 57 -8 115v248c0 17.333 -4.66699 26 -14 26c-2 0 -6 -0.333008 -12 -1l-18 -2h-13c-10 0 -15 4.33301 -15 13
c0 9.33301 6.66699 14 20 14c6 0 11.5 -0.333008 16.5 -1s9.5 -1 13.5 -1c16.667 0 25 14 25 42v42c0 18.667 1.66699 30 5 34c2 2 5.33301 3 10 3c8 0 12 -6 12 -18v-61c0 -20 1 -32 3 -36s8 -6 18 -6h15z" />
    <glyph glyph-name="u" unicode="u" horiz-adv-x="497" 
d="M369 89c-21.333 -68 -68.002 -102 -140.002 -102c-54 0 -91.667 20 -113 60c-12.667 25.333 -19 73.666 -19 144.999v169v53c-3.33301 20 -14 30 -32 30h-8c-4 -0.666992 -7.33301 -1 -10 -1c-8 -1.33301 -13.333 -2 -16 -2c-12.667 0 -19 5 -19 15
c0 7.33301 5.33301 11 16 11c4.66699 0 11.5 -0.333008 20.5 -1s15.833 -1 20.5 -1s11.5 0.333008 20.5 1s15.833 1 20.5 1c10 0 15 -4.33301 15 -13v-58l-1 -30v-174c0 -64 5 -107 15 -129c16 -35.333 47.667 -53 95 -53c26 0 49.833 7.33301 71.5 22
s36.834 33.334 45.501 56.001c12 32 18 81 18 147v111c0 42.667 -2 69.5 -6 80.5s-13.333 16.5 -28 16.5c-4 0 -10.167 -0.333008 -18.5 -1s-14.5 -1 -18.5 -1c-12.667 0 -19 4.66699 -19 14c0 8 6.33301 12 19 12c4.66699 0 8.33398 -0.333008 11.001 -1
c12 -0.666992 23.667 -1 35 -1h18c4.66699 0 9 0.333008 13 1l6 1c12 0 18 -6.66699 18 -20v-18l-2 -30l-1 -37v-277c0 -42.667 11 -64 33 -64c4 0 7.33301 0.333008 10 1l30 2c11.333 0 17 -4 17 -12c0 -9.33301 -5.66699 -14 -17 -14c-4 0 -9 0.666992 -15 2
c-3.33301 -0 -8.33301 0.333008 -15 1s-11.667 1 -15 1c-6 0 -11 -0.333008 -15 -1l-11 -2h-10c-12.667 0 -19 8.33301 -19 25v65z" />
    <glyph glyph-name="v" unicode="v" horiz-adv-x="423" 
d="M106 382l104.998 -363.998l6 21l13 47l9 30l80 262c5.33301 17.333 8 30.666 8 39.999c0 15.333 -9.66699 23 -29 23h-7l-15 -2h-5c-16 0 -24 4.33301 -24 13c0 9.33301 6.66699 14 20 14c6.66699 0 11.334 -0.333008 14.001 -1l29 -3c12.667 -1.33301 21 -2 25 -2
c8.66699 0 21.334 0.833008 38.001 2.5s29.334 2.5 38.001 2.5c12.667 0 19 -4.33301 19 -13c0 -9.33301 -5.33301 -14 -16 -14h-1l-16 1h-4c-13.333 0 -24 -7.33301 -32 -22c-1.33301 -3.33301 -5.66602 -17 -12.999 -41l-114 -368c-5.33301 -17.333 -13 -26 -23 -26
c-12 0 -22 13.667 -30 41l-108 365c-6 21.333 -9.33301 32.666 -10 33.999c-6 13.333 -14.333 20 -25 20c3.33301 0 1 -0.333008 -7 -1l-12 -1c-2.66699 -0.666992 -6 -1 -10 -1c-10.667 0 -16 4.66699 -16 14s6 14 18 14c3.33301 0 7 -0.333008 11 -1l24 -4
c12 -2 25.333 -3 40 -3c13.333 0 33.333 2 60 6c9.33301 1.33301 15.666 2 18.999 2c12 0 18 -4.66699 18 -14s-5.66699 -14 -17 -14c-6 0 -11.333 0.333008 -16 1s-12.334 1 -23.001 1c-20 0 -30 -6.66699 -30 -20c0 -5.33301 3 -18.333 9 -39z" />
    <glyph glyph-name="w" unicode="w" horiz-adv-x="567" 
d="M377 95c6.66699 -30.667 12.0029 -58 16.0029 -82l3 18l7 37l4 24l63 324c0 1.33301 0.333008 3.33301 1 6v4c0 10.667 -7 16 -21 16c-5.33301 0 -10.333 -0.333008 -15 -1h-14c-4 -0.666992 -9 -1 -15 -1c-12.667 0 -19 4.33301 -19 13c0 9.33301 6 14 18 14l19 -2
c32 -3.33301 55.333 -5 70 -5c7.33301 0 20.333 1.33301 39 4c4.66699 0.666992 12 1 22 1c12.667 0 19 -4.33301 19 -13s-4.66699 -13 -14 -13c-0.666992 0 -2.33398 0.333008 -5.00098 1h-7c-4.66699 1.33301 -11.334 2 -20.001 2c-11.333 0 -19.333 -5 -24 -15
c-2 -3.33301 -4.66699 -13.333 -8 -30l-74 -352c-0.666992 -6 -2.33398 -15 -5.00098 -27c-3.33301 -22 -11.333 -33 -24 -33c-8 0 -13.333 2.66699 -16 8s-6.66699 20 -12 44l-81 381l-5 -24l-5 -29l-6 -25l-68 -303c-4.66699 -20 -7.33398 -30.667 -8.00098 -32
c-4.66699 -13.333 -12 -20 -22 -20c-12.667 0 -20.667 9 -24 27l-7 37l-70 348c-6 30 -15 45 -27 45c-6 0 -10.833 -0.333008 -14.5 -1s-8.16699 -1 -13.5 -1c-14 0 -21 4 -21 12c0 10 6.33301 15 19 15c8.66699 0 15.667 -0.666992 21 -2
c22.667 -2.66699 41.334 -4 56.001 -4c10 0 26.667 1.33301 50 4c11.333 1.33301 20.333 2 27 2c10.667 0 16 -4.33301 16 -13s-5.33301 -13 -16 -13h-16l-18 1h-11c-17.333 0 -26 -7 -26 -21c0 -6 0.666992 -12.333 2 -19l59 -308c2.66699 -11.333 6.33398 -32 11.001 -62
l3 -24l90 410c1.33301 6.66699 3.66602 16.5 6.99902 29.5s9 19.5 17 19.5c8.66699 0 14.667 -9 18 -27c0.666992 -2.66699 2 -9 4 -19z" />
    <glyph glyph-name="x" unicode="x" horiz-adv-x="457" 
d="M96 70l115.008 177.999l-93 140c-0.666992 1.33301 -5 8.5 -13 21.5s-14 21.167 -18 24.5c-6.66699 6.66699 -15.667 10 -27 10h-19c-10.667 0 -16 3.66699 -16 11c0 8 5 12 15 12c6 0 11 -0.333008 15 -1c24.667 -4 43 -6 55 -6c15.333 0 36.666 1.66699 63.999 5l17 2
c12.667 0 19 -4.33301 19 -13c0 -10.667 -6.33301 -15.667 -19 -15l-40 2c-15.333 0.666992 -23 -3.66602 -23 -12.999c0 -5.33301 1.16699 -9.5 3.5 -12.5s6.83301 -9.5 13.5 -19.5l80 -125l95 145c2 4 3 8 3 12c0 9.33301 -8 14 -24 14c-6.66699 0 -12 -0.333008 -16 -1
h-17c-11.333 0 -17 4 -17 12c0 9.33301 5.66699 14 17 14c5.33301 0 10.333 -0.333008 15 -1c23.333 -3.33301 42.666 -5 57.999 -5c19.333 0 38.666 1.33301 57.999 4l15 2c11.333 0 17 -4.66699 17 -14s-5.66699 -14 -17 -14c-2.66699 0 -6.83398 0.5 -12.501 1.5
s-9.83398 1.5 -12.501 1.5c-11.333 0 -27.666 -16 -48.999 -48l-97 -146l129 -200c11.333 -16.667 22 -25 32 -25h12c2.66699 0.666992 6 1 10 1c12.667 0 19 -4.66699 19 -14s-5 -14 -15 -14c-5.33301 0 -12.333 0.666992 -21 2c-11.333 2 -18.666 3 -21.999 3
c-12.667 1.33301 -21.334 2 -26.001 2c-3.33301 0 -12.333 -0.666992 -27 -2c-10 -0.666992 -21 -1.66699 -33 -3c-5.33301 -0.666992 -11 -1 -17 -1c-12.667 0 -19 4.66699 -19 14c0 8.66699 9.66699 13 29 13c3.33301 0 8.66602 -0.333008 15.999 -1h9
c14.667 0 22 4.33301 22 13c0 6.66699 -5 17.667 -15 33l-99 154l-102 -161c-7.33301 -11.333 -11 -20 -11 -26c0 -9.33301 11 -14 33 -14c0.666992 0 1.66699 0.333008 3 1l14 1h6c16.667 0 25 -4.66699 25 -14c0 -8.66699 -5.66699 -13 -17 -13
c-8.66699 0 -21.834 1.16699 -39.501 3.5s-30.834 3.5 -39.501 3.5c-15.333 0 -35.333 -2 -60 -6c-8 -1.33301 -13 -2 -15 -2c-10 0 -15 4.66699 -15 14s6.33301 14 19 14h10h4c1.33301 -0.666992 2.33301 -1 3 -1c17.333 0 32.666 11.667 45.999 35z" />
    <glyph glyph-name="y" unicode="y" horiz-adv-x="417" 
d="M107 387l102.004 -370.001l112 366c6 19.333 9 32.666 9 39.999c0 13.333 -7.66699 20 -23 20c-4 0 -10 -0.333008 -18 -1s-14 -1 -18 -1c-14.667 0 -22 4.66699 -22 14c0 8 5 12 15 12c6.66699 0 13.334 -0.666992 20.001 -2c-2.66699 0 4.66602 -0.666992 21.999 -2
s25.666 -2 24.999 -2h4c5.33301 0 13.166 0.5 23.499 1.5s18.166 1.5 23.499 1.5c10.667 2 19.334 3 26.001 3c10.667 0 16 -4.33301 16 -13s-4.66699 -13 -14 -13c-0.666992 0 -2.33398 0.333008 -5.00098 1h-8c-1.33301 0.666992 -3.33301 1 -6 1
c-12 0 -21.667 -8 -29 -24l-13 -40l-111 -353c-18.667 -60 -37 -107 -55 -141c-27.333 -52 -62 -78 -104 -78c-26.667 0 -49.334 9 -68.001 27s-28 40.333 -28 67c0 36.667 13.333 55 40 55c18.667 0 28 -10.667 28 -32c0 -20.667 -8.66699 -31 -26 -31h-3
c-2 0.666992 -3.66699 1 -5 1c-3.33301 0 -5 -1.66699 -5 -5c0 -14.667 6.83301 -28.167 20.5 -40.5s29.5 -18.5 47.5 -18.5c33.333 0 63.333 27.667 90 83c14 28.667 21 51.334 21 68.001c0 8 -1.33301 16.333 -4 25l-6 20l-110 378c-8 26.667 -19 40 -33 40h-18
c-4.66699 0 -8.16699 1.33301 -10.5 4s-3.5 5.33398 -3.5 8.00098c0 7.33301 4.66699 11 14 11c4 0 7.66699 -0.333008 11 -1c18 -3.33301 33.667 -5 47 -5c9.33301 0 23 1 41 3s31.667 3 41 3c12.667 0 19 -4.33301 19 -13s-6.33301 -13 -19 -13
c-4 0 -10.333 0.333008 -19 1s-15 1 -19 1c-16 0 -24 -6 -24 -18c0 -2.66699 0.666992 -8 2 -16z" />
    <glyph glyph-name="z" unicode="z" horiz-adv-x="405" 
d="M72 79l249.999 349.002c3.33301 3.33301 5 6.33301 5 9c0 3.33301 -3.66699 5 -11 5c-1.33301 0 -5 0.333008 -11 1l-174 -1c-22 -1.33301 -35.667 -4.66602 -41 -9.99902s-8 -18.333 -8 -39v-5l2 -77c0 -13.333 -4.33301 -20 -13 -20
c-9.33301 0 -13.666 6.33301 -12.999 19l1 24c1.33301 26.667 1.33301 50.667 0 72c-0.666992 12.667 -1 22.667 -1 30c0 13.333 2.66699 21.833 8 25.5s14.666 5.5 27.999 5.5c10 0 30.667 -0.666992 62 -2c16 -0.666992 35.667 -1 59 -1s50.333 0.666992 81 2
c15.333 0.666992 26 1 32 1c18.667 0 28 -7 28 -21c0 -6.66699 -7 -20 -21 -40l-253 -357c-6 -8.66699 -9 -14.334 -9 -17.001c0 -4 4 -6.66699 12 -8h12l16 -1h185c14.667 0 23.334 6.66699 26.001 20c0.666992 2.66699 1 15.667 1 39v49c-0.666992 18 -1 29 -1 33
c0 21.333 5 32 15 32c9.33301 0 14 -7.33301 14 -22c0 -6.66699 -0.5 -17 -1.5 -31s-1.5 -24.333 -1.5 -31v-66c0.666992 -4.66699 1 -11.334 1 -20.001c0 -14 -3.66699 -22.667 -11 -26c-4.66699 -2.66699 -12.334 -4 -23.001 -4h-16c-38 2 -85.333 3 -142 3
c-19.333 0 -38.666 -0.333008 -57.999 -1l-28 -1c-22.667 0 -34 7.66699 -34 23c0 9.33301 6.33301 22.666 19 39.999c2 2 6.66699 8.33301 14 19z" />
    <glyph glyph-name="braceleft" unicode="{" 
d="M251 356c0 -31.333 -4.5 -54.833 -13.5 -70.5s-25.167 -28.167 -48.5 -37.5c41.333 -16.667 62 -53.667 62 -111v-193c0 -38.667 6.83301 -65.834 20.5 -81.501s37.834 -24.5 72.501 -26.5v-20c-50 0 -83.667 14.333 -101 43c-12.667 21.333 -19 57.333 -19 108v174
c0 30 -4 51.833 -12 65.5s-23.333 24.834 -46 33.501v17c22 7.33301 37.167 18.333 45.5 33s12.5 36.667 12.5 66v194c0 88.667 37.667 133 113 133h7v-20c-34.667 -3.33301 -58.834 -12.333 -72.501 -27s-20.5 -39.667 -20.5 -75v-205z" />
    <glyph glyph-name="bar" unicode="|" 
d="M237 -250v1000h26v-1000h-26z" />
    <glyph glyph-name="braceright" unicode="}" 
d="M250 143c0 30.667 4.66797 53.8301 14.001 69.4971s25.666 28.167 48.999 37.5c-42 16.667 -63 54 -63 112v193c0 38.667 -6.66699 65.834 -20 81.501s-37.333 24.5 -72 26.5v20c51.333 -0.666992 85 -15 101 -43c12 -20.667 18 -57 18 -109v-173
c0 -30 4.16699 -52 12.5 -66s23.833 -25 46.5 -33v-18c-22 -7.33301 -37.333 -18.166 -46 -32.499s-13 -36.166 -13 -65.499v-194c0 -88.667 -37.667 -133 -113 -133h-6v20c34.667 2.66699 58.667 11.5 72 26.5s20 40.167 20 75.5v205z" />
    <glyph glyph-name="asciitilde" unicode="~" horiz-adv-x="667" 
d="M221 682c-38.667 0 -73.668 -27.333 -105.001 -82l-21 13c36.667 64 79 96 127 96c26 0 65 -13.667 117 -41c48 -25.333 83.333 -38 106 -38c38 0 73.333 27 106 81l20 -13c-35.333 -63.333 -77.666 -95 -126.999 -95c-25.333 0 -71.333 17 -138 51
c-36.667 18.667 -65 28 -85 28z" />
    <glyph glyph-name="nonbreakingspace" unicode="&#xa0;" horiz-adv-x="250" 
 />
    <glyph glyph-name="exclamdown" unicode="&#xa1;" horiz-adv-x="224" 
d="M96 -94l3.00098 104c1.33301 46 2 98.333 2 157c0 30.667 -0.666992 69.334 -2 116.001v15c0 14 4.66699 21 14 21c10 0 15 -6.33301 15 -19c0 -4.66699 -0.333008 -8.33398 -1 -11.001v-28l-1 -28c-0.666992 -18.667 -1 -52 -1 -100c0 -4.66699 0.333008 -19.667 1 -45
c0.666992 -29.333 1 -56 1 -80l1 -98l2 -92c0 -23.333 -6.33301 -35 -19 -35c-12 0 -18 8.33301 -18 25c0 8.66699 0.166992 15.667 0.5 21s1.16602 31 2.49902 77zM73.001 426c0 14 3.83105 26 11.498 36s16.834 15 27.501 15s19.667 -4.66699 27 -14s11 -20.333 11 -33
c0 -34 -12.667 -51 -38 -51c-11.333 0 -20.666 4.5 -27.999 13.5s-11 20.167 -11 33.5z" />
    <glyph glyph-name="cent" unicode="&#xa2;" 
d="M92 347c0 68.667 14.3311 125.505 42.998 170.505s66.667 71.167 114 78.5v86c0 22.667 5 34 15 34c8.66699 0 13 -9.66699 13 -29v-4l-1 -87c37.333 -2.66699 67.833 -17.334 91.5 -44.001s35.5 -59.334 35.5 -98.001c0 -48 -15.333 -72 -46 -72
c-23.333 0 -35 12 -35 36c0 20 7.66699 30 23 30c5.33301 0 10.333 -1.83301 15 -5.5s7.66699 -5.5 9 -5.5c4.66699 0 7 6 7 18c0 32.667 -9.5 60 -28.5 82s-43.167 34 -72.5 36v-443c62.667 7.33301 97.334 44.666 104.001 111.999l2 21c0.666992 8.66699 5 13 13 13
c9.33301 0 14 -6 14 -18c0 -39.333 -12.667 -73.5 -38 -102.5s-57 -45.167 -95 -48.5v-3c0 -28 0.333008 -50.667 1 -68v-13c0 -15.333 -1.16699 -25 -3.5 -29s-6.16602 -6 -11.499 -6c-9.33301 0 -14 6.66699 -14 20c0 10.667 0.333008 26.667 1 48s1 37.333 1 48v4
c-48 5.33301 -86.167 29.666 -114.5 72.999s-42.5 98.666 -42.5 165.999zM249.998 554.005l-1.00195 17.999c-39.333 -6.66699 -70.166 -30.667 -92.499 -72s-33.5 -95 -33.5 -161c0 -58.667 11.333 -106.667 34 -144s53.334 -58.666 92.001 -63.999l1 27v396z" />
    <glyph glyph-name="sterling" unicode="&#xa3;" 
d="M177 498c0 -42 8.33398 -85.9951 25.001 -131.995h152c10 0 15 -4.66699 15 -14c0 -10.667 -5.33301 -15.667 -16 -15l-22 1h-119c20 -50.667 30 -103.334 30 -158.001c0 -26 -3.33301 -52 -10 -78l7 -8c48.667 -55.333 90.667 -83 126 -83c21.333 0 39 12.167 53 36.5
s21 54.833 21 91.5c0 72.667 -22 109 -66 109c-30 0 -48 -22.667 -54 -68c-1.33301 -10.667 -5.33301 -16 -12 -16c-8 0 -12 5.66699 -12 17c0 25.333 7.66699 46.666 23 63.999s34.333 26 57 26c28.667 0 51.667 -11.833 69 -35.5s26 -55.167 26 -94.5
c0 -42.667 -9.66699 -78.834 -29 -108.501s-43 -44.5 -71 -44.5c-30.667 0 -67.667 17.667 -111 53l-39 32c-12 -25.333 -28.667 -45.833 -50 -61.5s-43.333 -23.5 -66 -23.5c-26.667 0 -49.5 10 -68.5 30s-28.5 44.333 -28.5 73c0 25.333 7.66699 47.166 23 65.499
s34 27.5 56 27.5c30.667 0 70.667 -20.667 120 -62c5.33301 20.667 8 42 8 64c0 48.667 -11.333 99.334 -34 152.001h-83c-2 -0.666992 -4.33301 -1 -7 -1c-16.667 0 -25 5.33301 -25 16c0 10 6.33301 15 19 15h12c6.66699 -0.666992 13 -1 19 -1l55 -1
c-16 41.333 -24 83 -24 125c0 54.667 12.667 99.667 38 135s57.333 53 96 53c32.667 0 60.667 -14.167 84 -42.5s35 -62.5 35 -102.5c0 -36.667 -11.667 -55 -35 -55c-18.667 0 -28 9.33301 -28 28c0 11.333 4.66699 19.666 14 24.999l10 7
c4.66699 3.33301 7 9.66602 7 18.999c0 26.667 -8.33301 49.5 -25 68.5s-36.667 28.5 -60 28.5c-30.667 0 -55.834 -14.833 -75.501 -44.5s-29.5 -67.167 -29.5 -112.5zM103.001 11.0049c18.667 0 37 7.66797 55 23.001s30.667 34.666 38 57.999c-44 46 -78.333 69 -103 69
c-15.333 0 -28.333 -7 -39 -21s-16 -31.333 -16 -52s6.5 -38.667 19.5 -54s28.167 -23 45.5 -23z" />
    <glyph glyph-name="currency" unicode="&#xa4;" horiz-adv-x="667" 
d="M101 94l-16.999 17l87 88c-38.667 44.667 -58 93.667 -58 147c0 51.333 18.333 99.333 55 144l-88 88l17 17l88 -88c43.333 38.667 92.666 58 147.999 58c56 0 105.333 -19 148 -57l88 87l17 -17l-87 -88c36 -44 54 -92.333 54 -145c0 -54 -18.667 -102 -56 -144l90 -90
l-18 -17l-89 89c-43.333 -37.333 -92.333 -56 -147 -56c-52.667 0 -101 18 -145 54zM527.001 345c0 54 -18.833 100.166 -56.5 138.499s-83.5 57.5 -137.5 57.5c-53.333 0 -99 -19.167 -137 -57.5s-57 -84.166 -57 -137.499c0 -54 19 -100 57 -138s83.667 -57 137 -57
s99 19 137 57s57 83.667 57 137z" />
    <glyph glyph-name="yen" unicode="&#xa5;" 
d="M140 574l61.0039 -150.999h92l75 183c3.33301 8 5 14.333 5 19c0 9.33301 -5.66699 14 -17 14c-5.33301 0 -9.66602 -0.333008 -12.999 -1l-17 -1c-2.66699 -0.666992 -6.33398 -1 -11.001 -1c-12.667 0 -19 5 -19 15c0 9.33301 6 14 18 14
c0.666992 0 6.33398 -0.666992 17.001 -2c21.333 -2.66699 39.666 -4 54.999 -4c8.66699 0 21.334 1.16699 38.001 3.5s29 3.5 37 3.5c10 0 15 -4.33301 15 -13c0 -10.667 -7.33301 -16 -22 -16h-10c-9.33301 1.33301 -15.333 2 -18 2c-6.66699 0 -11.5 -1.83301 -14.5 -5.5
s-8.16699 -14.167 -15.5 -31.5l-12 -27l-65 -152h117c10.667 0 16 -3.66699 16 -11c0 -10.667 -5.33301 -15.667 -16 -15l-22 1h-105l-46 -108l173 -1c10.667 0 16 -3.66699 16 -11c0 -9.33301 -5.33301 -14 -16 -14h-178l1 -199c0.666992 -14.667 2 -24.667 4 -30
c4 -8.66699 12.333 -13 25 -13c3.33301 0 9.66602 0.666992 18.999 2c2.66699 0.666992 7 1 13 1c13.333 0 20 -5 20 -15s-6.33301 -15 -19 -15c-3.33301 0 -7 0.333008 -11 1l-30 5c-12 2 -22.333 3 -31 3c-12 0 -26.333 -1 -43 -3c-32.667 -4 -47.334 -6 -44.001 -6
c-11.333 0 -17 5 -17 15c0 9.33301 6 14 18 14c3.33301 0 8.33301 -0.333008 15 -1s11.667 -1 15 -1c18 0 29.333 7 34 21c2 6 3 20.667 3 44v177l-138 1h-10c-4 -0.666992 -7 -1 -9 -1h-7c-16.667 0 -25 5 -25 15c0 8 7.66699 12 23 12h7l19 -1h136
c-2 8 -5.33301 17.333 -10 28l-33 80h-110c-1.33301 -0.666992 -3.66602 -1 -6.99902 -1c-16.667 0 -25 5.33301 -25 16c0 7.33301 7.66699 11 23 11h7l19 -1h83l-79 189c-6.66699 16 -15.667 24 -27 24c-5.33301 0 -10.333 -0.333008 -15 -1c-2 -0.666992 -5 -1 -9 -1
c-12.667 0 -19 4.66699 -19 14c0 10 5.66699 15 17 15c2 0 6.66699 -0.666992 14 -2c17.333 -3.33301 35 -5 53 -5c8 0 16.667 0.666992 26 2c3.33301 0 10.666 1 21.999 3c9.33301 1.33301 16.666 2 21.999 2c13.333 0 20 -5 20 -15c0 -9.33301 -5.66699 -14 -17 -14
c-4.66699 0 -11.334 0.5 -20.001 1.5s-15.334 1.5 -20.001 1.5c-12.667 0 -19 -4 -19 -12c0 -4.66699 1 -9.33398 3 -14.001l6 -15zM282.004 398.001h-71l35 -88z" />
    <glyph glyph-name="section" unicode="&#xa7;" 
d="M66 307c0 26.667 8.33398 52.333 25.001 77s39.334 44.334 68.001 59.001c-36 27.333 -54 62.333 -54 105c0 37.333 14.333 68.666 43 93.999s63.667 38 105 38c40 0 74.333 -11.5 103 -34.5s43 -50.5 43 -82.5c0 -14.667 -3.83301 -27 -11.5 -37s-17.167 -15 -28.5 -15
c-22.667 0 -34 13.333 -34 40c0 19.333 7.33301 29.333 22 30c8 0.666992 12 3.66699 12 9c0 10 -6.66699 21.333 -20 34c-24 23.333 -53.667 35 -89 35c-33.333 0 -61.333 -10.833 -84 -32.5s-34 -48.167 -34 -79.5c0 -22 6 -40.333 18 -55s34.333 -31 67 -49l97 -54
c37.333 -20.667 64 -38.667 80 -54c26.667 -25.333 40 -56.333 40 -93c0 -51.333 -31.333 -98 -94 -140c46 -34.667 69 -75 69 -121c0 -42 -15.833 -77.167 -47.5 -105.5s-70.5 -42.5 -116.5 -42.5c-45.333 0 -84.833 14.167 -118.5 42.5s-50.5 61.833 -50.5 100.5
c0 18 4.5 33.333 13.5 46s20.167 19 33.5 19c9.33301 0 17.5 -4 24.5 -12s10.5 -17.667 10.5 -29c0 -22 -8.66699 -33 -26 -33h-2c-2.66699 0.666992 -5 1 -7 1c-5.33301 0 -8 -4.33301 -8 -13c0 -26.667 12.667 -49.667 38 -69s55.666 -29 90.999 -29
c37.333 0 69.166 11.833 95.499 35.5s39.5 52.5 39.5 86.5c0 46.667 -32 88 -96 124l-106 60c-74 42 -111 90 -111 144zM406.001 238.999c0 44 -33.667 84.334 -101 121.001l-112 61c-7.33301 4 -12.333 6 -15 6c-7.33301 0 -19 -7.33301 -35 -22
c-13.333 -12 -23.333 -22.667 -30 -32c-13.333 -19.333 -20 -40.333 -20 -63c0 -44.667 31.667 -84.667 95 -120l98 -55l14 -7c8.66699 -5.33301 14.667 -8 18 -8c10 0 26 11.333 48 34c26.667 27.333 40 55.666 40 84.999z" />
    <glyph glyph-name="dieresis" unicode="&#xa8;" 
d="M213 590c0 -25.333 -11 -38 -33 -38c-20 0 -30 12 -30 36c0 24.667 10.667 37 32 37c20.667 0 31 -11.667 31 -35zM350 590c0 -25.333 -11.333 -38 -34 -38c-19.333 0 -29 12 -29 36c0 24.667 10.667 37 32 37c20.667 0 31 -11.667 31 -35z" />
    <glyph glyph-name="copyright" unicode="&#xa9;" horiz-adv-x="800" 
d="M400 680c96 0 177.833 -33.833 245.5 -101.5s101.5 -149.5 101.5 -245.5c0 -95.333 -34 -176.833 -102 -244.5s-149.667 -101.5 -245 -101.5s-177 33.833 -245 101.5s-102 149.167 -102 244.5c0 96 34 177.833 102 245.5s149.667 101.5 245 101.5zM400 9
c89.333 0 165.666 31.667 228.999 95s95 139.666 95 228.999c0 90 -31.667 166.667 -95 230s-139.666 95 -228.999 95s-165.666 -31.833 -228.999 -95.5s-95 -140.167 -95 -229.5s31.667 -165.666 95 -228.999s139.666 -95 228.999 -95zM401 545
c37.333 0 65.668 -17.668 85.001 -53.001l-1 6l-2 17v7c0 12.667 4.33301 19 13 19c9.33301 0 14 -5.33301 14 -16v-7c-1.33301 -10 -2 -26.667 -2 -50c0 -38.667 1.33301 -65.667 4 -81v-11c0 -9.33301 -4 -14 -12 -14c-9.33301 0 -14 6.66699 -14 20v18
c0 81.333 -28.333 122 -85 122c-32 0 -57.667 -16.667 -77 -50s-29 -77.666 -29 -132.999c0 -57.333 9.83301 -103 29.5 -137s46.5 -51 80.5 -51c28 0 50.5 10.333 67.5 31s25.5 48.667 25.5 84v13c1.33301 11.333 5.66602 17 12.999 17c8.66699 0 13 -7 13 -21
c0 -43.333 -11 -78.5 -33 -105.5s-50.667 -40.5 -86 -40.5c-42 0 -75.5 19.333 -100.5 58s-37.5 90.667 -37.5 156c0 59.333 12.5 107.833 37.5 145.5s57.167 56.5 96.5 56.5z" />
    <glyph glyph-name="ordfeminine" unicode="&#xaa;" horiz-adv-x="333" 
d="M255 388c-24.667 0 -38.002 16.334 -40.002 49.001c-20.667 -32.667 -47.667 -49 -81 -49c-23.333 0 -42.166 7.16699 -56.499 21.5s-21.5 33.166 -21.5 56.499c0 50 27.667 77.667 83 83c31.333 2.66699 51.333 7.16699 60 13.5s13 19.166 13 38.499
c0 38.667 -20 58 -60 58c-15.333 0 -29 -4.5 -41 -13.5s-18 -18.833 -18 -29.5l1 -1c0.666992 0.666992 2.33398 1.66699 5.00098 3h5c14 0 21 -7.33301 21 -22c0 -17.333 -8.66699 -26 -26 -26c-20 0 -30 12.333 -30 37c0 20.667 8 37.834 24 51.501s35.667 20.5 59 20.5
c31.333 0 53.5 -8.5 66.5 -25.5s19.5 -45.833 19.5 -86.5v-121c0 -25.333 5.66699 -38 17 -38c12.667 0 19 15 19 45v5l-1 16c0 10.667 4.33301 16 13 16c8 0 12 -6.66699 12 -20c0 -26 -1.66699 -44 -5 -54c-6 -18.667 -18.667 -28 -38 -28zM306.998 320.001h-280v27h280
v-27zM214.998 523.001l-0.000976562 26c-9.33301 -8.66699 -25 -14.334 -47 -17.001l-26 -3c-41.333 -4.66699 -62 -25 -62 -61c0 -17.333 5.33301 -31.666 16 -42.999s24.334 -17 41.001 -17c52 0 78 38.333 78 115z" />
    <glyph glyph-name="guillemotleft" unicode="&#xab;" horiz-adv-x="322" 
d="M143 345l-71 -94l78 -103c4 -5.33301 6 -10 6 -14c0 -6.66699 -3.66699 -10 -11 -10c-3.33301 0 -9.33301 5.33301 -18 16l-72 89c-2 2 -4 4.66699 -6 8c-6 6 -9 10.667 -9 14s3 8.33301 9 15c1.33301 1.33301 3.33301 4 6 8l72 88c8.66699 10.667 14.667 16 18 16
c7.33301 0 11 -3.33301 11 -10c0 -2.66699 -2 -7 -6 -13zM243 345l-71 -94l78 -103c4 -5.33301 6 -10 6 -14c0 -6.66699 -3.66699 -10 -11 -10c-3.33301 0 -9.33301 5.33301 -18 16l-72 89c-2 2 -4 4.66699 -6 8c-6 6 -9 10.667 -9 14s3 8.33301 9 15
c1.33301 1.33301 3.33301 4 6 8l72 88c8.66699 10.667 14.667 16 18 16c7.33301 0 11 -3.33301 11 -10c0 -2.66699 -2 -7 -6 -13z" />
    <glyph glyph-name="logicalnot" unicode="&#xac;" 
d="M467 0h-27v242h-407v25h434v-267z" />
    <glyph glyph-name="softhyphen" unicode="&#xad;" horiz-adv-x="549" 
d="M46 205v62h457v-62h-457z" />
    <glyph glyph-name="softhyphen" unicode="&#x2212;" horiz-adv-x="549" 
d="M46 205v62h457v-62h-457z" />
    <glyph glyph-name="registered" unicode="&#xae;" 
d="M430 557c0 -49.333 -17.668 -91.666 -53.001 -126.999s-77.666 -53 -126.999 -53s-91.666 17.667 -126.999 53s-53 77.666 -53 126.999c0 50 17.667 92.5 53 127.5s77.666 52.5 126.999 52.5c50 0 92.5 -17.5 127.5 -52.5s52.5 -77.5 52.5 -127.5zM86.999 557
c0 -44.667 16 -83 48 -115s70.333 -48 115 -48c45.333 0 83.833 16 115.5 48s47.5 70.333 47.5 115c0 45.333 -15.833 84 -47.5 116s-70.167 48 -115.5 48c-44.667 0 -83 -16 -115 -48s-48 -70.667 -48 -116zM315.999 617c0 -24.667 -9.66504 -42 -28.998 -52
c13.333 -7.33301 20.333 -22.666 21 -45.999l1 -42c0 -11.333 2.66699 -17 8 -17c1.33301 0 3.66602 0.333008 6.99902 1h11c5.33301 0 8 -2.33301 8 -7c0 -5.33301 -2.33301 -8 -7 -8h-12l-12 -1c-12 -0.666992 -18.333 12.333 -19 39l-1 38
c-0.666992 18 -5.66699 29 -15 33c-6 2 -15.667 3 -29 3h-26c-6 0 -9.16699 -0.333008 -9.5 -1s-0.5 -2.33398 -0.5 -5.00098l-1 -7v-66c0 -12.667 3.33301 -19 10 -19c0.666992 0 1.66699 0.333008 3 1h2h7c6 0 9 -2.66699 9 -8c0 -4.66699 -3 -7 -9 -7h-7
c-9.33301 1.33301 -18.333 2 -27 2c-8 0 -14 -0.666992 -18 -2h-9c-6 0 -9 2.66699 -9 8c0 4.66699 3.33301 7 10 7h7c1.33301 -0.666992 3 -1 5 -1c6.66699 0 10 6.33301 10 19v164c0 10 -3 15 -9 15c-3.33301 0 -6 -0.333008 -8 -1h-4c-6.66699 0 -10 2.66699 -10 8
s3 8 9 8c1.33301 0 3.66602 -0.333008 6.99902 -1c18 -2 27.333 -3 28 -3c6 0 14.5 0.666992 25.5 2s19.5 2 25.5 2c38 0 57 -18.667 57 -56zM211.001 642l-0.000976562 -58.999l1 -5c0 -4 3.33301 -6 10 -6h34c28 0 42 14.667 42 44c0 28 -15 42 -45 42
c-1.33301 0 -6.66602 -0.333008 -15.999 -1l-14 -1c-8 -0.666992 -12 -5.33398 -12 -14.001z" />
    <glyph glyph-name="macron" unicode="&#xaf;" 
d="M359 599c0 -8 -6.66699 -12 -20 -12h-181c-11.333 0 -17 4.33301 -17 13c0 7.33301 6.33301 11 19 11h179c13.333 0 20 -4 20 -12z" />
    <glyph glyph-name="macron" unicode="&#x2c9;" 
d="M359 599c0 -8 -6.66699 -12 -20 -12h-181c-11.333 0 -17 4.33301 -17 13c0 7.33301 6.33301 11 19 11h179c13.333 0 20 -4 20 -12z" />
    <glyph glyph-name="degree" unicode="&#xb0;" 
d="M250 421c-36.667 0 -67.834 12.5 -93.501 37.5s-38.5 55.167 -38.5 90.5s12.833 65.5 38.5 90.5s56.834 37.5 93.501 37.5s67.834 -12.5 93.501 -37.5s38.5 -55.167 38.5 -90.5s-12.833 -65.5 -38.5 -90.5s-56.834 -37.5 -93.501 -37.5zM250 655
c-30 0 -55.5 -10.333 -76.5 -31s-31.5 -45.667 -31.5 -75s10.5 -54.333 31.5 -75s46.5 -31 76.5 -31s55.5 10.333 76.5 31s31.5 45.667 31.5 75s-10.5 54.333 -31.5 75s-46.5 31 -76.5 31z" />
    <glyph glyph-name="plusminus" unicode="&#xb1;" 
d="M32 337v25h205v186h26v-186h205v-25h-205v-187h-26v187h-205zM32 78v25h436v-25h-436z" />
    <glyph glyph-name="acute" unicode="&#xb4;" 
d="M309 610l-9.00098 -7l-94 -63c-6 -4 -10.333 -6 -13 -6c-8.66699 0 -13 4 -13 12c0 4.66699 4.66699 10.667 14 18c2.66699 1.33301 5.33398 3.33301 8.00098 6l74 54l14 10c6.66699 4.66699 11.667 7 15 7c10 0 15 -5 15 -15c0 -6.66699 -3.66699 -12 -11 -16z" />
    <glyph glyph-name="mu" unicode="&#xb5;" 
d="M89 -163l-27 -0.000976562v641h27v-285c0 -45.333 4.83301 -79.666 14.5 -102.999s26.667 -42.833 51 -58.5s52.833 -23.5 85.5 -23.5c49.333 0 89.333 18.5 120 55.5s46 84.833 46 143.5v271h27v-478h-26v109c-16 -35.333 -32.667 -61.333 -50 -78
c-32 -30.667 -71.667 -46 -119 -46c-63.333 0 -113 28 -149 84v-232z" />
    <glyph glyph-name="mu" unicode="&#x3bc;" 
d="M89 -163l-27 -0.000976562v641h27v-285c0 -45.333 4.83301 -79.666 14.5 -102.999s26.667 -42.833 51 -58.5s52.833 -23.5 85.5 -23.5c49.333 0 89.333 18.5 120 55.5s46 84.833 46 143.5v271h27v-478h-26v109c-16 -35.333 -32.667 -61.333 -50 -78
c-32 -30.667 -71.667 -46 -119 -46c-63.333 0 -113 28 -149 84v-232z" />
    <glyph glyph-name="paragraph" unicode="&#xb6;" horiz-adv-x="511" 
d="M246 -104h-26.002v413h-17c-54.667 0 -99.5 16.667 -134.5 50s-52.5 76 -52.5 128c0 36.667 9.83301 70 29.5 100s44.834 50.833 75.501 62.5s66.334 17.5 107.001 17.5h215v-23h-49v-748h-25v748h-123v-748z" />
    <glyph glyph-name="periodcentered" unicode="&#xb7;" horiz-adv-x="85" 
d="M85 357c0 -16 -4.16797 -29.332 -12.501 -39.999s-18.5 -16 -30.5 -16c-11.333 0 -21.166 5 -29.499 15s-12.5 22 -12.5 36c0 16 4 29.333 12 40s18 16 30 16s22.167 -4.83301 30.5 -14.5s12.5 -21.834 12.5 -36.501z" />
    <glyph glyph-name="periodcentered" unicode="&#x2219;" horiz-adv-x="85" 
d="M85 357c0 -16 -4.16797 -29.332 -12.501 -39.999s-18.5 -16 -30.5 -16c-11.333 0 -21.166 5 -29.499 15s-12.5 22 -12.5 36c0 16 4 29.333 12 40s18 16 30 16s22.167 -4.83301 30.5 -14.5s12.5 -21.834 12.5 -36.501z" />
    <glyph glyph-name="cedilla" unicode="&#xb8;" 
d="M231 -36l15.999 37.001h23l-19 -46c10 2 19.667 3 29 3c18.667 0 33.667 -5 45 -15s17 -23.333 17 -40c0 -18.667 -7 -34 -21 -46s-31.667 -18 -53 -18c-13.333 0 -27.666 3.66699 -42.999 11c-18 8.66699 -27 19 -27 31c0 8.66699 3.66699 13 11 13
c2.66699 0 5.33398 -1.33301 8.00098 -4l9 -9c12.667 -13.333 27.334 -20 44.001 -20c11.333 0 21.166 4.16699 29.499 12.5s12.5 18.166 12.5 29.499c0 22 -12 33 -36 33c-10.667 0 -20.667 -1.66699 -30 -5c-6.66699 -1.33301 -10.334 -2 -11.001 -2
c-8 0 -12 3.66699 -12 11c0 3.33301 2.66699 11.333 8 24z" />
    <glyph glyph-name="ordmasculine" unicode="&#xba;" horiz-adv-x="333" 
d="M276 533c0 -42 -10.332 -76.667 -30.999 -104s-47 -41 -79 -41c-32.667 0 -59 13.167 -79 39.5s-30 60.833 -30 103.5s10.5 78 31.5 106s47.5 42 79.5 42c31.333 0 57.166 -13.833 77.499 -41.5s30.5 -62.5 30.5 -104.5zM307.001 320h-280v27h280v-27zM81.001 531
c0 -36.667 7.83301 -66.332 23.5 -88.999s36.167 -34 61.5 -34s46 11.833 62 35.5s24 54.5 24 92.5c0 35.333 -7.83301 64.666 -23.5 87.999s-35.834 35 -60.501 35c-25.333 0 -46.166 -11.833 -62.499 -35.5s-24.5 -54.5 -24.5 -92.5z" />
    <glyph glyph-name="guillemotright" unicode="&#xbb;" horiz-adv-x="322" 
d="M180 157l70 94l-77 104c-4 4 -6 8.33301 -6 13c0 6.66699 3.33301 10 10 10c4 0 10.333 -5.33301 19 -16l71 -88c3.33301 -4 5.33301 -6.66699 6 -8c6 -8 9 -13 9 -15c0 -4.66699 -5 -12 -15 -22l-71 -89c-8.66699 -10.667 -15 -16 -19 -16
c-6.66699 0 -10 3.33301 -10 10c0 4 2 8.66699 6 14zM80 157l70 94l-77 104c-4 4 -6 8.33301 -6 13c0 6.66699 3.33301 10 10 10c4 0 10.333 -5.33301 19 -16l71 -88c3.33301 -4 5.33301 -6.66699 6 -8c6 -8 9 -13 9 -15c0 -4.66699 -5 -12 -15 -22l-71 -89
c-8.66699 -10.667 -15 -16 -19 -16c-6.66699 0 -10 3.33301 -10 10c0 4 2 8.66699 6 14z" />
    <glyph glyph-name="questiondown" unicode="&#xbf;" horiz-adv-x="455" 
d="M259 293v-2.99902l-1 -18c-2.66699 -46 -9 -79 -19 -99c-10.667 -22 -33.334 -44.333 -68.001 -67c-40 -26.667 -66.667 -49.834 -80 -69.501s-20 -45.834 -20 -78.501c0 -44 13.167 -79.667 39.5 -107s60.5 -41 102.5 -41c40 0 74.333 14 103 42s43 61.333 43 100
c0 43.333 -11.667 65 -35 65c-4 0 -6 -1.66699 -6 -5c0 -0.666992 0.333008 -2 1 -4c2 -5.33301 3 -11 3 -17c0 -18.667 -9 -28 -27 -28c-20 0 -30 11.667 -30 35c0 14.667 5 26.834 15 36.501s22.333 14.5 37 14.5c20.667 0 37.667 -8.66699 51 -26s20 -39.666 20 -66.999
c0 -49.333 -16.5 -90.5 -49.5 -123.5s-74.5 -49.5 -124.5 -49.5c-51.333 0 -93.166 16.167 -125.499 48.5s-48.5 74.166 -48.5 125.499c0 42.667 10.667 77.667 32 105c12 15.333 27.667 29.666 47 42.999c4.66699 3.33301 18 12.333 40 27
c28 18.667 46.333 36.334 55 53.001s13 43 13 79v30c-0.666992 2 -1 4.66699 -1 8c0 16 5 24 15 24c12 0 18 -11 18 -33zM202 426.001c0 14 3.83203 26 11.499 36s16.834 15 27.501 15s19.667 -4.66699 27 -14s11 -20.333 11 -33c0 -34 -12.667 -51 -38 -51
c-26 0 -39 15.667 -39 47z" />
    <glyph glyph-name="Agrave" unicode="&#xc0;" horiz-adv-x="556" 
d="M364 250l-170.998 0.000976562c-9.33301 0 -15.666 -1.5 -18.999 -4.5s-6.33301 -9.83301 -9 -20.5l-38 -143c-4 -15.333 -6 -25.333 -6 -30c0 -18 9.33301 -27 28 -27c6 0 10.833 0.166992 14.5 0.5l16.5 1.5h14c14 0 21 -4.33301 21 -13
c0 -11.333 -7.33301 -17 -22 -17c-9.33301 0 -17 0.666992 -23 2c-31.333 4 -59 6 -83 6c-7.33301 0 -18.5 -1.16699 -33.5 -3.5s-26.167 -3.5 -33.5 -3.5c-13.333 0 -20 5.33301 -20 16c0 9.33301 6.66699 14 20 14h4c2 -0.666992 3.33301 -1 4 -1
c13.333 -2 21.333 -3 24 -3c17.333 0 31.333 19.333 42 58l156 562c6 22.667 15.667 34 29 34c12 0 21 -10.333 27 -31l160 -564c6.66699 -23.333 12.667 -38.833 18 -46.5s12.666 -11.5 21.999 -11.5h10l10 2c3.33301 0.666992 7.33301 1 12 1c12 0 18 -5 18 -15
c0 -10.667 -6.66699 -16 -20 -16l-17 2c-33.333 4 -58.333 6 -75 6c-10 0 -20 -0.666992 -30 -2c-4.66699 0 -12.334 -1 -23.001 -3s-19 -3 -25 -3c-14 0 -21 5.33301 -21 16c0 10 7.33301 15 22 15h10c5.33301 -0.666992 9.66602 -1.16699 12.999 -1.5
s7.33301 -0.833008 12 -1.5h5c20.667 0 31 8.66699 31 26c0 5.33301 -2 15.333 -6 30l-40 145c-3.33301 11.333 -6.33301 18.166 -9 20.499s-9 3.5 -19 3.5zM315.002 720.001l-11.001 7.99902l-85 58c-7.33301 4.66699 -11 10.334 -11 17.001c0 10 4.66699 15 14 15
c4 0 9.66699 -2.66699 17 -8l13 -10l74 -54c2.66699 -2 5.33398 -3.66699 8.00098 -5c9.33301 -7.33301 14 -13.333 14 -18c0 -8 -4.33301 -12 -13 -12c-5.33301 0 -12 3 -20 9zM368.001 313l-91 327l-91 -333c-3.33301 -12 -5 -20 -5 -24c0 -6.66699 4.33301 -10 13 -10
h161c13.333 0 20 3.33301 20 10c0 3.33301 -0.333008 6.33301 -1 9l-2 8z" />
    <glyph glyph-name="Aacute" unicode="&#xc1;" horiz-adv-x="556" 
d="M364 250l-170.998 0.000976562c-9.33301 0 -15.666 -1.5 -18.999 -4.5s-6.33301 -9.83301 -9 -20.5l-38 -143c-4 -15.333 -6 -25.333 -6 -30c0 -18 9.33301 -27 28 -27c6 0 10.833 0.166992 14.5 0.5l16.5 1.5h14c14 0 21 -4.33301 21 -13
c0 -11.333 -7.33301 -17 -22 -17c-9.33301 0 -17 0.666992 -23 2c-31.333 4 -59 6 -83 6c-7.33301 0 -18.5 -1.16699 -33.5 -3.5s-26.167 -3.5 -33.5 -3.5c-13.333 0 -20 5.33301 -20 16c0 9.33301 6.66699 14 20 14h4c2 -0.666992 3.33301 -1 4 -1
c13.333 -2 21.333 -3 24 -3c17.333 0 31.333 19.333 42 58l156 562c6 22.667 15.667 34 29 34c12 0 21 -10.333 27 -31l160 -564c6.66699 -23.333 12.667 -38.833 18 -46.5s12.666 -11.5 21.999 -11.5h10l10 2c3.33301 0.666992 7.33301 1 12 1c12 0 18 -5 18 -15
c0 -10.667 -6.66699 -16 -20 -16l-17 2c-33.333 4 -58.333 6 -75 6c-10 0 -20 -0.666992 -30 -2c-4.66699 0 -12.334 -1 -23.001 -3s-19 -3 -25 -3c-14 0 -21 5.33301 -21 16c0 10 7.33301 15 22 15h10c5.33301 -0.666992 9.66602 -1.16699 12.999 -1.5
s7.33301 -0.833008 12 -1.5h5c20.667 0 31 8.66699 31 26c0 5.33301 -2 15.333 -6 30l-40 145c-3.33301 11.333 -6.33301 18.166 -9 20.499s-9 3.5 -19 3.5zM337.002 786.001l-9.00098 -5.99902l-87 -60c-8 -6 -14.667 -9 -20 -9c-8.66699 0 -13 4 -13 12
c0 4.66699 4.66699 10.667 14 18c2.66699 1.33301 5.33398 3 8.00098 5l74 54l14 10.5c6.66699 5 11.667 7.5 15 7.5c10 0 15 -5 15 -15c0 -6.66699 -3.66699 -12.334 -11 -17.001zM368.001 313.002l-91 327l-91 -333c-3.33301 -12 -5 -20 -5 -24
c0 -6.66699 4.33301 -10 13 -10h161c13.333 0 20 3.33301 20 10c0 3.33301 -0.333008 6.33301 -1 9l-2 8z" />
    <glyph glyph-name="Acircumflex" unicode="&#xc2;" horiz-adv-x="556" 
d="M364 250l-170.998 0.000976562c-9.33301 0 -15.666 -1.5 -18.999 -4.5s-6.33301 -9.83301 -9 -20.5l-38 -143c-4 -15.333 -6 -25.333 -6 -30c0 -18 9.33301 -27 28 -27c6 0 10.833 0.166992 14.5 0.5l16.5 1.5h14c14 0 21 -4.33301 21 -13
c0 -11.333 -7.33301 -17 -22 -17c-9.33301 0 -17 0.666992 -23 2c-31.333 4 -59 6 -83 6c-7.33301 0 -18.5 -1.16699 -33.5 -3.5s-26.167 -3.5 -33.5 -3.5c-13.333 0 -20 5.33301 -20 16c0 9.33301 6.66699 14 20 14h4c2 -0.666992 3.33301 -1 4 -1
c13.333 -2 21.333 -3 24 -3c17.333 0 31.333 19.333 42 58l156 562c6 22.667 15.667 34 29 34c12 0 21 -10.333 27 -31l160 -564c6.66699 -23.333 12.667 -38.833 18 -46.5s12.666 -11.5 21.999 -11.5h10l10 2c3.33301 0.666992 7.33301 1 12 1c12 0 18 -5 18 -15
c0 -10.667 -6.66699 -16 -20 -16l-17 2c-33.333 4 -58.333 6 -75 6c-10 0 -20 -0.666992 -30 -2c-4.66699 0 -12.334 -1 -23.001 -3s-19 -3 -25 -3c-14 0 -21 5.33301 -21 16c0 10 7.33301 15 22 15h10c5.33301 -0.666992 9.66602 -1.16699 12.999 -1.5
s7.33301 -0.833008 12 -1.5h5c20.667 0 31 8.66699 31 26c0 5.33301 -2 15.333 -6 30l-40 145c-3.33301 11.333 -6.33301 18.166 -9 20.499s-9 3.5 -19 3.5zM358.002 723.001l-82 59l-78 -59c-10 -7.33301 -17.667 -11 -23 -11c-8 0 -12 3.66699 -12 11c0 4 2.33301 8 7 12
l12 10l77 63c8 6.66699 13.667 10 17 10s8.33301 -2.66699 15 -8l83 -65c6 -4.66699 9.66699 -7.66699 11 -9c4.66699 -4 7 -8 7 -12c0 -8 -4 -12 -12 -12c-4.66699 0 -12 3.66699 -22 11zM368.002 313.001l-91 327l-91 -333c-3.33301 -12 -5 -20 -5 -24
c0 -6.66699 4.33301 -10 13 -10h161c13.333 0 20 3.33301 20 10c0 3.33301 -0.333008 6.33301 -1 9l-2 8z" />
    <glyph glyph-name="Atilde" unicode="&#xc3;" horiz-adv-x="556" 
d="M364 250l-170.998 0.000976562c-9.33301 0 -15.666 -1.5 -18.999 -4.5s-6.33301 -9.83301 -9 -20.5l-38 -143c-4 -15.333 -6 -25.333 -6 -30c0 -18 9.33301 -27 28 -27c6 0 10.833 0.166992 14.5 0.5l16.5 1.5h14c14 0 21 -4.33301 21 -13
c0 -11.333 -7.33301 -17 -22 -17c-9.33301 0 -17 0.666992 -23 2c-31.333 4 -59 6 -83 6c-7.33301 0 -18.5 -1.16699 -33.5 -3.5s-26.167 -3.5 -33.5 -3.5c-13.333 0 -20 5.33301 -20 16c0 9.33301 6.66699 14 20 14h4c2 -0.666992 3.33301 -1 4 -1
c13.333 -2 21.333 -3 24 -3c17.333 0 31.333 19.333 42 58l156 562c6 22.667 15.667 34 29 34c12 0 21 -10.333 27 -31l160 -564c6.66699 -23.333 12.667 -38.833 18 -46.5s12.666 -11.5 21.999 -11.5h10l10 2c3.33301 0.666992 7.33301 1 12 1c12 0 18 -5 18 -15
c0 -10.667 -6.66699 -16 -20 -16l-17 2c-33.333 4 -58.333 6 -75 6c-10 0 -20 -0.666992 -30 -2c-4.66699 0 -12.334 -1 -23.001 -3s-19 -3 -25 -3c-14 0 -21 5.33301 -21 16c0 10 7.33301 15 22 15h10c5.33301 -0.666992 9.66602 -1.16699 12.999 -1.5
s7.33301 -0.833008 12 -1.5h5c20.667 0 31 8.66699 31 26c0 5.33301 -2 15.333 -6 30l-40 145c-3.33301 11.333 -6.33301 18.166 -9 20.499s-9 3.5 -19 3.5zM399.002 780.001c0 -4 -1.66895 -8.33301 -5.00195 -13l-9 -13c-14 -20.667 -30.333 -31 -49 -31
c-11.333 0 -31.333 5.33301 -60 16l-27 10c-14.667 5.33301 -24 8 -28 8c-8 0 -21.333 -8.33301 -40 -25c-8 -7.33301 -14 -11 -18 -11s-6 1.66699 -6 5c0 8 7.66699 20.667 23 38c13.333 14.667 27.333 22 42 22c12 0 40 -8.33301 84 -25l5 -2
c12.667 -4.66699 21.334 -7 26.001 -7c10.667 0 26.334 9.33301 47.001 28c4 3.33301 7.33301 5 10 5c3.33301 0 5 -1.66699 5 -5zM368 313.001l-91 327l-91 -333c-3.33301 -12 -5 -20 -5 -24c0 -6.66699 4.33301 -10 13 -10h161c13.333 0 20 3.33301 20 10
c0 3.33301 -0.333008 6.33301 -1 9l-2 8z" />
    <glyph glyph-name="Adieresis" unicode="&#xc4;" horiz-adv-x="556" 
d="M364 248l-13.998 0.999023h-157c-9.33301 0 -15.666 -1.5 -18.999 -4.5s-6.33301 -9.83301 -9 -20.5l-42 -160c-1.33301 -5.33301 -2 -9.66602 -2 -12.999c0 -18.667 9.33301 -28 28 -28c4.66699 0 12 0.5 22 1.5s17.667 1.5 23 1.5c14 0 21 -4.66699 21 -14
c0 -11.333 -7.33301 -17 -22 -17c-4.66699 0 -12.334 0.666992 -23.001 2c-37.333 4.66699 -65 7 -83 7c-7.33301 0 -18.5 -1.16699 -33.5 -3.5s-26.167 -3.5 -33.5 -3.5c-13.333 0 -20 5 -20 15c0 9.33301 6.66699 14 20 14h8c13.333 -2 21.333 -3 24 -3
c17.333 0 31.333 19.333 42 58l156 562c6 22.667 15.667 34 29 34c12 0 21 -10.333 27 -31l160 -565c6.66699 -23.333 12.667 -38.833 18 -46.5s12.666 -11.5 21.999 -11.5c0.666992 0 2 0.333008 4 1h6c4 0.666992 7.33301 1 10 1c6.66699 1.33301 10.667 2 12 2
c12 0 18 -5 18 -15c0 -10.667 -6.66699 -16 -20 -16c-6.66699 0 -12.334 0.333008 -17.001 1c-28.667 4 -53.667 6 -75 6c-14.667 0 -24.5 -0.166992 -29.5 -0.5s-13 -1.5 -24 -3.5s-19.167 -3 -24.5 -3c-14 0 -21 5.33301 -21 16c0 9.33301 7.33301 14 22 14
c4 0 9.83301 -0.333008 17.5 -1s13.5 -1 17.5 -1h5c20.667 0 31 8.33301 31 25c0 5.33301 -2 15.333 -6 30l-40 146c-2.66699 10 -5.5 16.167 -8.5 18.5s-9.5 3.83301 -19.5 4.5zM233.002 766.999c0 -14 -3.83105 -25.833 -11.498 -35.5s-16.834 -14.5 -27.501 -14.5
s-19.667 4.66699 -27 14s-11 20.333 -11 33c0 33.333 12.667 50 38 50c11.333 0 20.666 -4.5 27.999 -13.5s11 -20.167 11 -33.5zM400.004 766.999c0 -14 -3.83105 -25.833 -11.498 -35.5s-16.834 -14.5 -27.501 -14.5s-19.667 4.66699 -27 14s-11 20.333 -11 33
c0 33.333 12.667 50 38 50c11.333 0 20.666 -4.5 27.999 -13.5s11 -20.167 11 -33.5zM368.006 311.999l-91 327l-91 -333c-3.33301 -12 -5 -20 -5 -24c0 -6.66699 4.33301 -10 13 -10h161c13.333 0 20 3.33301 20 10c0 3.33301 -0.333008 6.33301 -1 9l-2 8z" />
    <glyph glyph-name="Aring" unicode="&#xc5;" horiz-adv-x="556" 
d="M364 248l-13.998 0.999023h-157c-9.33301 0 -15.666 -1.5 -18.999 -4.5s-6.33301 -9.83301 -9 -20.5l-42 -160c-1.33301 -5.33301 -2 -9.66602 -2 -12.999c0 -18.667 9.33301 -28 28 -28c4.66699 0 12 0.5 22 1.5s17.667 1.5 23 1.5c14 0 21 -4.66699 21 -14
c0 -11.333 -7.33301 -17 -22 -17c-4.66699 0 -12.334 0.666992 -23.001 2c-37.333 4.66699 -65 7 -83 7c-7.33301 0 -18.5 -1.16699 -33.5 -3.5s-26.167 -3.5 -33.5 -3.5c-13.333 0 -20 5 -20 15c0 9.33301 6.66699 14 20 14h8c13.333 -2 21.333 -3 24 -3
c17.333 0 31.333 19.333 42 58l156 562c6 22.667 15.667 34 29 34c12 0 21 -10.333 27 -31l160 -565c6.66699 -23.333 12.667 -38.833 18 -46.5s12.666 -11.5 21.999 -11.5c0.666992 0 2 0.333008 4 1h6c4 0.666992 7.33301 1 10 1c6.66699 1.33301 10.667 2 12 2
c12 0 18 -5 18 -15c0 -10.667 -6.66699 -16 -20 -16c-6.66699 0 -12.334 0.333008 -17.001 1c-28.667 4 -53.667 6 -75 6c-14.667 0 -24.5 -0.166992 -29.5 -0.5s-13 -1.5 -24 -3.5s-19.167 -3 -24.5 -3c-14 0 -21 5.33301 -21 16c0 9.33301 7.33301 14 22 14
c4 0 9.83301 -0.333008 17.5 -1s13.5 -1 17.5 -1h5c20.667 0 31 8.33301 31 25c0 5.33301 -2 15.333 -6 30l-40 146c-2.66699 10 -5.5 16.167 -8.5 18.5s-9.5 3.83301 -19.5 4.5zM332.002 767.999c0 -16.667 -5.16699 -30.668 -15.5 -42.001s-23.166 -17 -38.499 -17
s-28 5.33301 -38 16s-15 24.334 -15 41.001s5.16699 30.5 15.5 41.5s23.166 16.5 38.499 16.5s28 -5.33301 38 -16s15 -24 15 -40zM368.002 311.998l-91 327l-91 -333c-3.33301 -12 -5 -20 -5 -24c0 -6.66699 4.33301 -10 13 -10h161c13.333 0 20 3.33301 20 10
c0 3.33301 -0.333008 6.33301 -1 9l-2 8zM251.002 766.998c0 -20.667 9 -31 27 -31s27 10.333 27 31c0 20 -9 30 -27 30s-27 -10 -27 -30z" />
    <glyph glyph-name="AE" unicode="&#xc6;" horiz-adv-x="839" 
d="M459 587l-0.000976562 -225.999h114c36 0 54 17 54 51c0 8.66699 -0.333008 18 -1 28l-2 29v16c0 16.667 5.33301 25 16 25c10 0 14.667 -6.66699 14 -20l-1 -27l-3 -56c-1.33301 -19.333 -1.66602 -37.666 -0.999023 -54.999l2 -121l2 -26
c0.666992 -8.66699 1 -11.334 1 -8.00098c0 -21.333 -5.33301 -32 -16 -32c-10 0 -15 8.66699 -15 26v25c2 21.333 3 33.666 3 36.999v22c0 29.333 -3.5 47.166 -10.5 53.499s-27.167 9.5 -60.5 9.5h-96v-262c0 -31.333 10.333 -47 31 -47h16l18 -1h145
c33.333 0 54.5 4.16699 63.5 12.5s14.167 29.833 15.5 64.5l1 31c0 1.33301 -1 21.333 -3 60c-0.666992 12.667 -1 22 -1 28c0 17.333 5.33301 26 16 26c9.33301 0 14 -9.33301 14 -28v-20c-1.33301 -37.333 -2 -54 -2 -50l1 -24v-33c0 -6.66699 0.333008 -16.667 1 -30
s1 -23.333 1 -30c0 -24.667 -13 -37 -39 -37c-4.66699 0 -17 0.666992 -37 2c-8.66699 0.666992 -34.667 1.66699 -78 3c-40.667 1.33301 -75.667 2 -105 2c-58.667 0 -101.667 -1.33301 -129 -4c-20.667 -2 -32.667 -3 -36 -3c-13.333 0 -20 4.66699 -20 14
c0 10 6.33301 15 19 15c5.33301 0 13 -0.666992 23 -2s17.667 -2 23 -2c20 0 30 17.333 30 52v263h-133c-18 0 -29 -1.33301 -33 -4s-9.66699 -10.667 -17 -24l-145 -256c-4 -6 -6 -10.667 -6 -14c0 -10 8.66699 -15 26 -15c5.33301 0 12.833 0.333008 22.5 1
s17.167 1 22.5 1c14 0 21 -4.66699 21 -14c0 -10.667 -7 -16 -21 -16c-4.66699 0 -13 0.666992 -25 2c-20 4.66699 -39.333 7 -58 7c-26 0 -52.333 -2.33301 -79 -7c-7.33301 -1.33301 -13.333 -2 -18 -2c-11.333 0 -17 5.33301 -17 16c0 9.33301 6.33301 14 19 14
c4 0 7 -0.333008 9 -1l14 -2h9c14 0 26 6 36 18c4 4 11.667 16 23 36l331 574c6.66699 12 18.667 18 36 18c12.667 0 31.5 -0.666992 56.5 -2s43.833 -2 56.5 -2c52 0 107.333 1.33301 166 4h9c11.333 0 19.166 -2 23.499 -6s6.5 -12.667 6.5 -26v-24
c-0.666992 -2.66699 -1 -15.667 -1 -39v-35v-39l1 -43c0 -3.33301 0.333008 -8.33301 1 -15v-12c0 -17.333 -5 -26 -15 -26c-11.333 0 -17 10.667 -17 32c0 6.66699 0.666992 20.334 2 41.001s2 45.667 2 75c0 34 -2.33301 55.667 -7 65c-8 16 -27.333 24 -58 24h-67l-87 1
c-27.333 0 -43.666 -2.66699 -48.999 -8s-8 -21.333 -8 -48zM309.999 361.001h117v213c0 14.667 0.666992 32 2 52l1 15l-143 -257l-4 -12c0 -7.33301 9 -11 27 -11z" />
    <glyph glyph-name="Ccedilla" unicode="&#xc7;" horiz-adv-x="505" 
d="M267 -13l-11 -0.00488281l-11 -54c14 6 27 9 39 9c21.333 0 38.666 -6.16699 51.999 -18.5s20 -28.166 20 -47.499c0 -25.333 -9.5 -47.333 -28.5 -66s-41.5 -28 -67.5 -28c-22.667 0 -42.334 6.33301 -59.001 19c-10.667 8 -16 15.333 -16 22c0 4 1.66699 7.33301 5 10
s6 4 8 4c2.66699 0 5.33398 -1 8.00098 -3l12 -10c12 -10 27 -15 45 -15c16 0 29.667 6.33301 41 19s17 27.667 17 45c0 12 -3.66699 22 -11 30s-16.666 12 -27.999 12c-8 0 -18 -2.16699 -30 -6.5s-19 -6.5 -21 -6.5c-8.66699 0 -13 4.33301 -13 13
c0 0.666992 1.33301 7.66699 4 21l11 54c-57.333 10.667 -102.666 47.667 -135.999 111s-50 144.333 -50 243s19.833 179.334 59.5 242.001s91.167 94 154.5 94c64.667 0 113 -36.667 145 -110c-0.666992 15.333 -1.33398 28 -2.00098 38l-2 28
c-0.666992 2.66699 -1 6.33398 -1 11.001c0 18.667 5.33301 28 16 28c11.333 0 17 -7.66699 17 -23v-11c-2 -20 -3 -48.667 -3 -86c0 -33.333 1 -66.333 3 -99c2.66699 -44 4 -62.333 4 -55c0 -13.333 -5 -20 -15 -20c-11.333 0 -17 9.33301 -17 28v30
c0 46 -4.83301 83.833 -14.5 113.5s-26.5 53.834 -50.5 72.501s-50.333 28 -79 28c-54.667 0 -98.5 -28.667 -131.5 -86s-49.5 -133.666 -49.5 -228.999c0 -99.333 16.833 -178.333 50.5 -237s79.167 -88 136.5 -88c47.333 0 85.5 18 114.5 54s43.5 84.667 43.5 146v22
c0 15.333 5.33301 23 16 23s16 -9 16 -27c0 -72.667 -17.5 -131.5 -52.5 -176.5s-81.167 -67.5 -138.5 -67.5z" />
    <glyph glyph-name="Egrave" unicode="&#xc8;" horiz-adv-x="533" 
d="M449 628l-1.00293 -31v-46l1 -68l3 -58c0 -14.667 -5 -22 -15 -22c-10.667 0 -16 12.333 -16 37v6l2 59c0.666992 20 1 33.333 1 40c0 34.667 -1.66699 56 -5 64c-6.66699 18.667 -24 28 -52 28h-25l-122 -1c-28.667 0 -46.667 -3.5 -54 -10.5s-11 -23.833 -11 -50.5
v-185c0 -11.333 1.83301 -18.333 5.5 -21s13.5 -4 29.5 -4h63c24 0 40 4.5 48 13.5s12 26.833 12 53.5v18c0 4.66699 -0.333008 11.667 -1 21s-1 16.333 -1 21c0 13.333 4.66699 20 14 20c10 0 15 -7 15 -21c0 -6.66699 -0.333008 -16.5 -1 -29.5s-2 -33.167 -4 -60.5
c-1.33301 -23.333 -2 -40 -2 -50c0 -28 1.66699 -67 5 -117l2 -30v-10c0 -17.333 -5 -26 -15 -26s-15 7.33301 -15 22c0 6.66699 0.166992 11.667 0.5 15s0.833008 17.333 1.5 42s1 37.667 1 39c0 21.333 -4 35.833 -12 43.5s-23.667 11.5 -47 11.5h-66
c-14.667 0 -23.834 -2.33301 -27.501 -7s-5.5 -16.667 -5.5 -36v-194c0 -34.667 2.5 -56.334 7.5 -65.001s17.5 -13 37.5 -13h184c29.333 0 47.333 8.66699 54 26c3.33301 8 5 29.333 5 64c0 -3.33301 -0.333008 7 -1 31l-2 68c0 20 5 30 15 30s14.667 -7 14 -21l-1 -30v-40
l-1 -45v-40c0.666992 -7.33301 1 -17.333 1 -30c0 -19.333 -4.33301 -31.666 -13 -36.999c-6 -3.33301 -16.333 -5 -31 -5h-3c-16.667 0 -43.334 0.666992 -80.001 2l-82 3c-36.667 1.33301 -63 2 -79 2c-31.333 0 -68 -2 -110 -6c-6.66699 -0.666992 -12.667 -1 -18 -1
c-15.333 0 -23 4.66699 -23 14s7 14 21 14c4.66699 0 8.33398 -0.333008 11.001 -1l15 -2c2 -0.666992 5.33301 -1 10 -1c18.667 0 30.334 10 35.001 30c1.33301 6 2 23.667 2 53v476c0 21.333 -1.33301 35.333 -4 42c-4.66699 12 -16 18 -34 18
c-7.33301 0 -12.666 -0.333008 -15.999 -1c-6.66699 -1.33301 -13.667 -2 -21 -2c-12 0 -18 5 -18 15s5.66699 15 17 15c7.33301 0 13 -0.333008 17 -1c32 -5.33301 75.333 -8 130 -8c24.667 0 61.834 2 111.501 6s86.834 6 111.501 6c21.333 0 32 -13 32 -39v-3z
M285.997 720l-11.001 8l-85 58c-6.66699 4 -10 9.66699 -10 17c0 10 4.66699 15 14 15c4.66699 0 10 -2.66699 16 -8c3.33301 -2.66699 8 -6 14 -10l73 -54c2.66699 -2 5.33398 -3.66699 8.00098 -5c9.33301 -6.66699 14 -12.667 14 -18c0 -8 -4.33301 -12 -13 -12
c-5.33301 0 -12 3 -20 9z" />
    <glyph glyph-name="Eacute" unicode="&#xc9;" horiz-adv-x="533" 
d="M449 628l-1.00293 -31v-46l1 -68l3 -58c0 -14.667 -5 -22 -15 -22c-10.667 0 -16 12.333 -16 37v6l2 59c0.666992 20 1 33.333 1 40c0 34.667 -1.66699 56 -5 64c-6.66699 18.667 -24 28 -52 28h-25l-122 -1c-28.667 0 -46.667 -3.5 -54 -10.5s-11 -23.833 -11 -50.5
v-185c0 -11.333 1.83301 -18.333 5.5 -21s13.5 -4 29.5 -4h63c24 0 40 4.5 48 13.5s12 26.833 12 53.5v18c0 4.66699 -0.333008 11.667 -1 21s-1 16.333 -1 21c0 13.333 4.66699 20 14 20c10 0 15 -7 15 -21c0 -6.66699 -0.333008 -16.5 -1 -29.5s-2 -33.167 -4 -60.5
c-1.33301 -23.333 -2 -40 -2 -50c0 -28 1.66699 -67 5 -117l2 -30v-10c0 -17.333 -5 -26 -15 -26s-15 7.33301 -15 22c0 6.66699 0.166992 11.667 0.5 15s0.833008 17.333 1.5 42s1 37.667 1 39c0 21.333 -4 35.833 -12 43.5s-23.667 11.5 -47 11.5h-66
c-14.667 0 -23.834 -2.33301 -27.501 -7s-5.5 -16.667 -5.5 -36v-194c0 -34.667 2.5 -56.334 7.5 -65.001s17.5 -13 37.5 -13h184c29.333 0 47.333 8.66699 54 26c3.33301 8 5 29.333 5 64c0 -3.33301 -0.333008 7 -1 31l-2 68c0 20 5 30 15 30s14.667 -7 14 -21l-1 -30v-40
l-1 -45v-40c0.666992 -7.33301 1 -17.333 1 -30c0 -19.333 -4.33301 -31.666 -13 -36.999c-6 -3.33301 -16.333 -5 -31 -5h-3c-16.667 0 -43.334 0.666992 -80.001 2l-82 3c-36.667 1.33301 -63 2 -79 2c-31.333 0 -68 -2 -110 -6c-6.66699 -0.666992 -12.667 -1 -18 -1
c-15.333 0 -23 4.66699 -23 14s7 14 21 14c4.66699 0 8.33398 -0.333008 11.001 -1l15 -2c2 -0.666992 5.33301 -1 10 -1c18.667 0 30.334 10 35.001 30c1.33301 6 2 23.667 2 53v476c0 21.333 -1.33301 35.333 -4 42c-4.66699 12 -16 18 -34 18
c-7.33301 0 -12.666 -0.333008 -15.999 -1c-6.66699 -1.33301 -13.667 -2 -21 -2c-12 0 -18 5 -18 15s5.66699 15 17 15c7.33301 0 13 -0.333008 17 -1c32 -5.33301 75.333 -8 130 -8c24.667 0 61.834 2 111.501 6s86.834 6 111.501 6c21.333 0 32 -13 32 -39v-3z
M321.997 786l-10.001 -6l-86 -60c-8 -6 -14.667 -9 -20 -9c-8.66699 0 -13 4 -13 12c0 5.33301 4.66699 11.333 14 18c2.66699 1.33301 5.33398 3 8.00098 5l73 54l13.5 10.5c6.33301 5 11.833 7.5 16.5 7.5c9.33301 0 14 -5 14 -15c0 -7.33301 -3.33301 -13 -10 -17z" />
    <glyph glyph-name="Ecircumflex" unicode="&#xca;" horiz-adv-x="533" 
d="M449 628l-1.00293 -31v-46l1 -68l3 -58c0 -14.667 -5 -22 -15 -22c-10.667 0 -16 12.333 -16 37v6l2 59c0.666992 20 1 33.333 1 40c0 34.667 -1.66699 56 -5 64c-6.66699 18.667 -24 28 -52 28h-25l-122 -1c-28.667 0 -46.667 -3.5 -54 -10.5s-11 -23.833 -11 -50.5
v-185c0 -11.333 1.83301 -18.333 5.5 -21s13.5 -4 29.5 -4h63c24 0 40 4.5 48 13.5s12 26.833 12 53.5v18c0 4.66699 -0.333008 11.667 -1 21s-1 16.333 -1 21c0 13.333 4.66699 20 14 20c10 0 15 -7 15 -21c0 -6.66699 -0.333008 -16.5 -1 -29.5s-2 -33.167 -4 -60.5
c-1.33301 -23.333 -2 -40 -2 -50c0 -28 1.66699 -67 5 -117l2 -30v-10c0 -17.333 -5 -26 -15 -26s-15 7.33301 -15 22c0 6.66699 0.166992 11.667 0.5 15s0.833008 17.333 1.5 42s1 37.667 1 39c0 21.333 -4 35.833 -12 43.5s-23.667 11.5 -47 11.5h-66
c-14.667 0 -23.834 -2.33301 -27.501 -7s-5.5 -16.667 -5.5 -36v-194c0 -34.667 2.5 -56.334 7.5 -65.001s17.5 -13 37.5 -13h184c29.333 0 47.333 8.66699 54 26c3.33301 8 5 29.333 5 64c0 -3.33301 -0.333008 7 -1 31l-2 68c0 20 5 30 15 30s14.667 -7 14 -21l-1 -30v-40
l-1 -45v-40c0.666992 -7.33301 1 -17.333 1 -30c0 -19.333 -4.33301 -31.666 -13 -36.999c-6 -3.33301 -16.333 -5 -31 -5h-3c-16.667 0 -43.334 0.666992 -80.001 2l-82 3c-36.667 1.33301 -63 2 -79 2c-31.333 0 -68 -2 -110 -6c-6.66699 -0.666992 -12.667 -1 -18 -1
c-15.333 0 -23 4.66699 -23 14s7 14 21 14c4.66699 0 8.33398 -0.333008 11.001 -1l15 -2c2 -0.666992 5.33301 -1 10 -1c18.667 0 30.334 10 35.001 30c1.33301 6 2 23.667 2 53v476c0 21.333 -1.33301 35.333 -4 42c-4.66699 12 -16 18 -34 18
c-7.33301 0 -12.666 -0.333008 -15.999 -1c-6.66699 -1.33301 -13.667 -2 -21 -2c-12 0 -18 5 -18 15s5.66699 15 17 15c7.33301 0 13 -0.333008 17 -1c32 -5.33301 75.333 -8 130 -8c24.667 0 61.834 2 111.501 6s86.834 6 111.501 6c21.333 0 32 -13 32 -39v-3z
M335.997 723l-82 59l-78 -59c-10 -7.33301 -17.667 -11 -23 -11c-8 0 -12 3.66699 -12 11c0 4 2.33301 8 7 12l12 10l77 63c8 6.66699 13.667 10 17 10s8.33301 -2.66699 15 -8l83 -65c6 -4.66699 9.66699 -7.66699 11 -9c4.66699 -4 7 -8 7 -12c0 -8 -4 -12 -12 -12
c-4.66699 0 -12 3.66699 -22 11z" />
    <glyph glyph-name="Edieresis" unicode="&#xcb;" horiz-adv-x="533" 
d="M449 628l-1.00293 -31v-46l1 -68l3 -58c0 -14.667 -5 -22 -15 -22c-10.667 0 -16 12.333 -16 37v6l2 59c0.666992 20 1 33.333 1 40c0 34.667 -1.66699 56 -5 64c-6.66699 18.667 -24 28 -52 28h-25l-122 -1c-28.667 0 -46.667 -3.5 -54 -10.5s-11 -23.833 -11 -50.5
v-185c0 -11.333 1.83301 -18.333 5.5 -21s13.5 -4 29.5 -4h63c24 0 40 4.5 48 13.5s12 26.833 12 53.5v18c0 4.66699 -0.333008 11.667 -1 21s-1 16.333 -1 21c0 13.333 4.66699 20 14 20c10 0 15 -7 15 -21c0 -6.66699 -0.333008 -16.5 -1 -29.5s-2 -33.167 -4 -60.5
c-1.33301 -23.333 -2 -40 -2 -50c0 -28 1.66699 -67 5 -117l2 -30v-10c0 -17.333 -5 -26 -15 -26s-15 7.33301 -15 22c0 6.66699 0.166992 11.667 0.5 15s0.833008 17.333 1.5 42s1 37.667 1 39c0 21.333 -4 35.833 -12 43.5s-23.667 11.5 -47 11.5h-66
c-14.667 0 -23.834 -2.33301 -27.501 -7s-5.5 -16.667 -5.5 -36v-194c0 -34.667 2.5 -56.334 7.5 -65.001s17.5 -13 37.5 -13h184c29.333 0 47.333 8.66699 54 26c3.33301 8 5 29.333 5 64c0 -3.33301 -0.333008 7 -1 31l-2 68c0 20 5 30 15 30s14.667 -7 14 -21l-1 -30v-40
l-1 -45v-40c0.666992 -7.33301 1 -17.333 1 -30c0 -19.333 -4.33301 -31.666 -13 -36.999c-6 -3.33301 -16.333 -5 -31 -5h-3c-16.667 0 -43.334 0.666992 -80.001 2l-82 3c-36.667 1.33301 -63 2 -79 2c-31.333 0 -68 -2 -110 -6c-6.66699 -0.666992 -12.667 -1 -18 -1
c-15.333 0 -23 4.66699 -23 14s7 14 21 14c4.66699 0 8.33398 -0.333008 11.001 -1l15 -2c2 -0.666992 5.33301 -1 10 -1c18.667 0 30.334 10 35.001 30c1.33301 6 2 23.667 2 53v476c0 21.333 -1.33301 35.333 -4 42c-4.66699 12 -16 18 -34 18
c-7.33301 0 -12.666 -0.333008 -15.999 -1c-6.66699 -1.33301 -13.667 -2 -21 -2c-12 0 -18 5 -18 15s5.66699 15 17 15c7.33301 0 13 -0.333008 17 -1c32 -5.33301 75.333 -8 130 -8c24.667 0 61.834 2 111.501 6s86.834 6 111.501 6c21.333 0 32 -13 32 -39v-3z
M204.997 768c0 -14.667 -3.83301 -26.833 -11.5 -36.5s-17.167 -14.5 -28.5 -14.5c-10.667 0 -19.667 4.66699 -27 14s-11 20.333 -11 33c0 14.667 3.66699 26.667 11 36s16.333 14 27 14c11.333 0 20.833 -4.33301 28.5 -13s11.5 -19.667 11.5 -33zM397.997 768.001
c0 -14.667 -3.66699 -26.833 -11 -36.5s-16.666 -14.5 -27.999 -14.5c-10.667 0 -19.667 4.66699 -27 14s-11 20.333 -11 33c0 33.333 12.667 50 38 50c11.333 0 20.666 -4.5 27.999 -13.5s11 -19.833 11 -32.5z" />
    <glyph glyph-name="Igrave" unicode="&#xcc;" horiz-adv-x="279" 
d="M123 74l-0.000976562 510c0 21.333 -1.33301 35 -4 41c-4.66699 12 -15.667 18 -33 18c-3.33301 0 -10.333 -0.666992 -21 -2h-14c-14.667 0 -22 5 -22 15c0 9.33301 5.66699 14 17 14c1.33301 0 7.33301 -0.666992 18 -2c20 -4.66699 44.667 -7 74 -7
c22.667 0 47.667 2.33301 75 7c8 1.33301 14.667 2 20 2c13.333 0 20 -5 20 -15s-8.66699 -15 -26 -15h-7l-19 2h-7c-18 0 -29.667 -6.33301 -35 -19c-2.66699 -7.33301 -4 -22 -4 -44l1 -504c0.666992 -16.667 2.33398 -28 5.00098 -34c4 -10.667 13 -16 27 -16h11l20 2h11
c14.667 0 22 -5 22 -15s-6 -15 -18 -15c-18 0 -36.333 2.33301 -55 7c-6 0.666992 -18.333 1 -37 1c-27.333 0 -52.333 -2 -75 -6c-7.33301 -1.33301 -14.333 -2 -21 -2c-11.333 0 -17 4.66699 -17 14c0 10 7.33301 15 22 15h8l14 -1c2.66699 -0.666992 6.66699 -1 12 -1
c14.667 0 24.667 3.5 30 10.5s8 20.167 8 39.5zM177.999 720l-11 7.99902l-85 58c-7.33301 4.66699 -11 10.334 -11 17.001c0 10 4.66699 15 14 15c4 0 9.66699 -2.66699 17 -8l13 -10l74 -54c2 -1.33301 4.66699 -3 8 -5c8.66699 -7.33301 13 -13.333 13 -18
c0 -8 -4 -12 -12 -12c-5.33301 0 -12 3 -20 9z" />
    <glyph glyph-name="Iacute" unicode="&#xcd;" horiz-adv-x="279" 
d="M123 74l-0.000976562 510c0 21.333 -1.33301 35 -4 41c-4.66699 12 -15.667 18 -33 18c-3.33301 0 -10.333 -0.666992 -21 -2h-14c-14.667 0 -22 5 -22 15c0 9.33301 5.66699 14 17 14c1.33301 0 7.33301 -0.666992 18 -2c20 -4.66699 44.667 -7 74 -7
c22.667 0 47.667 2.33301 75 7c8 1.33301 14.667 2 20 2c13.333 0 20 -5 20 -15s-8.66699 -15 -26 -15h-7l-19 2h-7c-18 0 -29.667 -6.33301 -35 -19c-2.66699 -7.33301 -4 -22 -4 -44l1 -504c0.666992 -16.667 2.33398 -28 5.00098 -34c4 -10.667 13 -16 27 -16h11l20 2h11
c14.667 0 22 -5 22 -15s-6 -15 -18 -15c-18 0 -36.333 2.33301 -55 7c-6 0.666992 -18.333 1 -37 1c-27.333 0 -52.333 -2 -75 -6c-7.33301 -1.33301 -14.333 -2 -21 -2c-11.333 0 -17 4.66699 -17 14c0 10 7.33301 15 22 15h8l14 -1c2.66699 -0.666992 6.66699 -1 12 -1
c14.667 0 24.667 3.5 30 10.5s8 20.167 8 39.5zM199.999 786l-10.001 -6l-86 -60c-8 -6 -14.667 -9 -20 -9c-8.66699 0 -13 4 -13 12c0 5.33301 4.66699 11.333 14 18c2.66699 1.33301 5.33398 3 8.00098 5l73 54l13.5 10.5c6.33301 5 11.833 7.5 16.5 7.5
c9.33301 0 14 -5 14 -15c0 -7.33301 -3.33301 -13 -10 -17z" />
    <glyph glyph-name="Icircumflex" unicode="&#xce;" horiz-adv-x="279" 
d="M123 74l-0.000976562 510c0 21.333 -1.33301 35 -4 41c-4.66699 12 -15.667 18 -33 18c-3.33301 0 -10.333 -0.666992 -21 -2h-14c-14.667 0 -22 5 -22 15c0 9.33301 5.66699 14 17 14c1.33301 0 7.33301 -0.666992 18 -2c20 -4.66699 44.667 -7 74 -7
c22.667 0 47.667 2.33301 75 7c8 1.33301 14.667 2 20 2c13.333 0 20 -5 20 -15s-8.66699 -15 -26 -15h-7l-19 2h-7c-18 0 -29.667 -6.33301 -35 -19c-2.66699 -7.33301 -4 -22 -4 -44l1 -504c0.666992 -16.667 2.33398 -28 5.00098 -34c4 -10.667 13 -16 27 -16h11l20 2h11
c14.667 0 22 -5 22 -15s-6 -15 -18 -15c-18 0 -36.333 2.33301 -55 7c-6 0.666992 -18.333 1 -37 1c-27.333 0 -52.333 -2 -75 -6c-7.33301 -1.33301 -14.333 -2 -21 -2c-11.333 0 -17 4.66699 -17 14c0 10 7.33301 15 22 15h8l14 -1c2.66699 -0.666992 6.66699 -1 12 -1
c14.667 0 24.667 3.5 30 10.5s8 20.167 8 39.5zM220.999 723l-82.999 59l-77 -59c-9.33301 -7.33301 -17 -11 -23 -11c-8 0 -12 3.66699 -12 11c0 4 2.33301 8 7 12l12 10l77 63c8 6.66699 13.667 10 17 10s8.33301 -2.66699 15 -8l83 -65
c6 -4.66699 9.66699 -7.66699 11 -9c4.66699 -4.66699 7 -8.66699 7 -12c0 -2 -1.33301 -4.5 -4 -7.5s-5.33398 -4.5 -8.00098 -4.5c-4.66699 0 -12 3.66699 -22 11z" />
    <glyph glyph-name="Idieresis" unicode="&#xcf;" horiz-adv-x="325" 
d="M146 74l0.999023 34v476c0 21.333 -1.33301 35 -4 41c-4.66699 12 -15.667 18 -33 18c-4 0 -11.333 -0.666992 -22 -2h-14c-14.667 0 -22 5 -22 15c0 9.33301 5.66699 14 17 14c10 0 25.333 -1.5 46 -4.5s36.334 -4.5 47.001 -4.5c23.333 0 48 2.33301 74 7
c7.33301 1.33301 14 2 20 2c13.333 0 20 -5 20 -15s-8.33301 -15 -25 -15h-8l-19 2h-6c-18 0 -29.667 -6.33301 -35 -19c-2.66699 -7.33301 -4 -22 -4 -44v-504c0 -19.333 2.33301 -32.5 7 -39.5s13.334 -10.5 26.001 -10.5h10l20 2h11c14.667 0 22 -5 22 -15
s-6 -15 -18 -15c-17.333 0 -35.333 2.33301 -54 7c-6.66699 0.666992 -19.334 1 -38.001 1c-28 0 -53 -2 -75 -6c-7.33301 -1.33301 -14.333 -2 -21 -2c-11.333 0 -17 4.66699 -17 14c0 10 7.33301 15 22 15h8l14 -1c2.66699 -0.666992 6.66699 -1 12 -1
c16 0 26.667 4.66699 32 14c3.33301 6.66699 5.33301 18.667 6 36zM105.999 768c0 -14 -3.83105 -26 -11.498 -36s-16.834 -15 -27.501 -15s-19.667 4.66699 -27 14s-11 20.333 -11 33c0 33.333 12.667 50 38 50c11.333 0 20.666 -4.5 27.999 -13.5s11 -19.833 11 -32.5z
M299.001 768c0 -14.667 -3.66699 -26.833 -11 -36.5s-16.666 -14.5 -27.999 -14.5c-10.667 0 -19.667 4.66699 -27 14s-11 20.333 -11 33c0 33.333 12.667 50 38 50c11.333 0 20.666 -4.5 27.999 -13.5s11 -19.833 11 -32.5z" />
    <glyph glyph-name="Ntilde" unicode="&#xd1;" horiz-adv-x="605" 
d="M431 51l-275.998 593v-555c0 -22 1.33301 -36.667 4 -44c5.33301 -14 16.666 -21 33.999 -21c4.66699 0 11.5 0.5 20.5 1.5s15.833 1.5 20.5 1.5c12 0 18 -5.33301 18 -16c0 -9.33301 -5.66699 -14 -17 -14c-6 0 -12.333 0.666992 -19 2c-26.667 5.33301 -53.667 8 -81 8
c-22.667 0 -46.334 -2.66699 -71.001 -8c-6 -1.33301 -12.667 -2 -20 -2c-10.667 0 -16 4.66699 -16 14c0 10.667 6.66699 16 20 16c2 0 7.66699 -0.666992 17 -2h8c4 -0.666992 6.66699 -1 8 -1c18.667 0 31 6 37 18c3.33301 7.33301 5 22 5 44v507c0 34 -11 51 -33 51
c-8 0 -14.5 -0.5 -19.5 -1.5s-11.833 -1.5 -20.5 -1.5c-12.667 0 -19 4.66699 -19 14c0 10 7 15 21 15c3.33301 0 10.666 -0.666992 21.999 -2c16.667 -2 28.334 -3 35.001 -3c10 0 19.333 1 28 3c12 1.33301 19 2 21 2c10 0 18 -6.66699 24 -20l10 -22l201 -433
c10.667 -21.333 26 -54 46 -98l24 -54l-1 21c-2 42 -3 104.667 -3 188v341c0 33.333 -11 50 -33 50c-4 0 -10.667 -0.666992 -20 -2c-4.66699 -1.33301 -11 -2 -19 -2c-12.667 0 -19 5 -19 15s6.33301 15 19 15c-0.666992 0 12.666 -1.66699 39.999 -5
c16.667 -2 35.334 -3 56.001 -3c16.667 0 29 0.666992 37 2l22 4c10.667 1.33301 17 2 19 2c12.667 0 19 -5.33301 19 -16c0 -10 -6 -15 -18 -15c-3.33301 0 -10.333 0.666992 -21 2c-2 0 -5 0.333008 -9 1h-7c-22.667 0 -34 -17.333 -34 -52l1 -456
c0 -15.333 0.666992 -42.333 2 -81v-22c0 -26.667 -6.66699 -40 -20 -40c-11.333 0 -20 7.66699 -26 23l-9 22zM425.002 780c0 -4 -1.66895 -8.33301 -5.00195 -13l-9 -13c-14 -20.667 -30.333 -31 -49 -31c-11.333 0 -31.333 5.33301 -60 16l-27 10
c-14.667 5.33301 -24 8 -28 8c-8 0 -21.333 -8.33301 -40 -25c-8 -7.33301 -14 -11 -18 -11s-6 1.66699 -6 5c0 8 7.66699 20.667 23 38c13.333 14.667 27.333 22 42 22c12 0 40 -8.33301 84 -25l5 -2c12.667 -4.66699 21.334 -7 26.001 -7
c10.667 0 26.334 9.33301 47.001 28c4 3.33301 7.33301 5 10 5c3.33301 0 5 -1.66699 5 -5z" />
    <glyph glyph-name="Ograve" unicode="&#xd2;" horiz-adv-x="527" 
d="M480 334c0 -104.667 -19.999 -188.668 -59.999 -252.001s-93.333 -95 -160 -95c-64.667 0 -116.334 31.333 -155.001 94s-58 146.334 -58 251.001c0 102 20.5 185.5 61.5 250.5s93.5 97.5 157.5 97.5c64.667 0 116.5 -31.667 155.5 -95s58.5 -147 58.5 -251z
M300.001 719.999l-11.001 8l-85 58c-6.66699 4 -10 9.66699 -10 17c0 10 4.66699 15 14 15c4.66699 0 10 -2.66699 16 -8c3.33301 -2.66699 8 -6 14 -10l73 -54c2.66699 -2 5.33398 -3.66699 8.00098 -5c9.33301 -6.66699 14 -12.667 14 -18c0 -8 -4.33301 -12 -13 -12
c-5.33301 0 -12 3 -20 9zM81 328.999c0 -97.333 16.166 -174.334 48.499 -231.001s76.5 -85 132.5 -85c54.667 0 98.834 28.5 132.501 85.5s50.5 132.167 50.5 225.5c0 99.333 -16.333 179 -49 239s-76 90 -130 90c-54.667 0 -99.167 -30.167 -133.5 -90.5
s-51.5 -138.166 -51.5 -233.499z" />
    <glyph glyph-name="Oacute" unicode="&#xd3;" horiz-adv-x="527" 
d="M480 334c0 -104.667 -19.999 -188.668 -59.999 -252.001s-93.333 -95 -160 -95c-64.667 0 -116.334 31.333 -155.001 94s-58 146.334 -58 251.001c0 102 20.5 185.5 61.5 250.5s93.5 97.5 157.5 97.5c64.667 0 116.5 -31.667 155.5 -95s58.5 -147 58.5 -251z
M323.001 785.999l-9.99902 -6.00098l-76 -52l-10 -8c-7.33301 -6 -14.333 -9 -21 -9c-8 0 -12 4 -12 12c0 5.33301 4.66699 11.333 14 18l7 5l74 54c3.33301 2.66699 8.16602 6.33398 14.499 11.001s11.5 7 15.5 7c9.33301 0 14 -5 14 -15c0 -6 -3.33301 -11.667 -10 -17z
M81.002 328.998c0 -97.333 16.166 -174.334 48.499 -231.001s76.5 -85 132.5 -85c54.667 0 98.834 28.5 132.501 85.5s50.5 132.167 50.5 225.5c0 99.333 -16.333 179 -49 239s-76 90 -130 90c-54.667 0 -99.167 -30.167 -133.5 -90.5s-51.5 -138.166 -51.5 -233.499z" />
    <glyph glyph-name="Ocircumflex" unicode="&#xd4;" horiz-adv-x="527" 
d="M480 334c0 -104.667 -19.999 -188.668 -59.999 -252.001s-93.333 -95 -160 -95c-64.667 0 -116.334 31.333 -155.001 94s-58 146.334 -58 251.001c0 102 20.5 185.5 61.5 250.5s93.5 97.5 157.5 97.5c64.667 0 116.5 -31.667 155.5 -95s58.5 -147 58.5 -251z
M344.001 722.999l-83 59l-78 -59c-10 -7.33301 -17.667 -11 -23 -11c-7.33301 0 -11 3.66699 -11 11c0 5.33301 2.33301 9.33301 7 12l12 10l77 63c8 6.66699 13.667 10 17 10s8.33301 -2.66699 15 -8l83 -65c6 -4.66699 9.66699 -7.66699 11 -9c4 -4 6 -8 6 -12
c0 -8 -3.66699 -12 -11 -12c-4.66699 0 -12 3.66699 -22 11zM81.001 328.999c0 -97.333 16.166 -174.334 48.499 -231.001s76.5 -85 132.5 -85c54.667 0 98.834 28.5 132.501 85.5s50.5 132.167 50.5 225.5c0 99.333 -16.333 179 -49 239s-76 90 -130 90
c-54.667 0 -99.167 -30.167 -133.5 -90.5s-51.5 -138.166 -51.5 -233.499z" />
    <glyph glyph-name="Otilde" unicode="&#xd5;" horiz-adv-x="527" 
d="M480 334c0 -104.667 -19.999 -188.668 -59.999 -252.001s-93.333 -95 -160 -95c-64.667 0 -116.334 31.333 -155.001 94s-58 146.334 -58 251.001c0 102 20.5 185.5 61.5 250.5s93.5 97.5 157.5 97.5c64.667 0 116.5 -31.667 155.5 -95s58.5 -147 58.5 -251z
M384.001 779.999c0 -4 -1.66699 -8.33301 -5 -13l-9 -13c-14 -20.667 -30 -31 -48 -31c-12.667 0 -33 5.33301 -61 16l-26 10c-14 5.33301 -23.333 8 -28 8c-8 0 -16 -3.5 -24 -10.5l-23 -19.5c-4.66699 -4 -8.66699 -6 -12 -6c-4 0 -6 1.66699 -6 5
c0 8 7.66699 20.667 23 38c13.333 14.667 27.333 22 42 22c13.333 0 41.666 -8.33301 84.999 -25c15.333 -6 25.333 -9 30 -9c10.667 0 26.334 9.33301 47.001 28c4 3.33301 7.33301 5 10 5c3.33301 0 5 -1.66699 5 -5zM81.001 328.999
c0 -97.333 16.166 -174.334 48.499 -231.001s76.5 -85 132.5 -85c54.667 0 98.834 28.5 132.501 85.5s50.5 132.167 50.5 225.5c0 99.333 -16.333 179 -49 239s-76 90 -130 90c-54.667 0 -99.167 -30.167 -133.5 -90.5s-51.5 -138.166 -51.5 -233.499z" />
    <glyph glyph-name="Odieresis" unicode="&#xd6;" horiz-adv-x="527" 
d="M480 334c0 -104.667 -19.999 -188.668 -59.999 -252.001s-93.333 -95 -160 -95c-64.667 0 -116.334 31.333 -155.001 94s-58 146.334 -58 251.001c0 102 20.5 185.5 61.5 250.5s93.5 97.5 157.5 97.5c64.667 0 116.5 -31.667 155.5 -95s58.5 -147 58.5 -251z
M205.001 766.999c0 -14 -3.83105 -25.833 -11.498 -35.5s-16.834 -14.5 -27.501 -14.5s-19.667 4.66699 -27 14s-11 20.333 -11 33c0 33.333 12.667 50 38 50c11.333 0 20.666 -4.5 27.999 -13.5s11 -20.167 11 -33.5zM399.003 766.999
c0 -14 -3.83105 -25.833 -11.498 -35.5s-17.167 -14.5 -28.5 -14.5c-10.667 0 -19.667 4.66699 -27 14s-11 20.333 -11 33c0 14.667 3.66699 26.667 11 36s16.666 14 27.999 14s20.666 -4.5 27.999 -13.5s11 -20.167 11 -33.5zM81.0049 328.999
c0 -97.333 16.166 -174.334 48.499 -231.001s76.5 -85 132.5 -85c54.667 0 98.834 28.5 132.501 85.5s50.5 132.167 50.5 225.5c0 99.333 -16.333 179 -49 239s-76 90 -130 90c-54.667 0 -99.167 -30.167 -133.5 -90.5s-51.5 -138.166 -51.5 -233.499z" />
    <glyph glyph-name="Oslash" unicode="&#xd8;" horiz-adv-x="529" 
d="M438 689l-34.002 -68.999c22.667 -25.333 41.334 -61.333 56.001 -108c15.333 -48.667 23 -99.334 23 -152.001c0 -108.667 -21.667 -198 -65 -268s-98.333 -105 -165 -105c-52.667 0 -95.667 19.667 -129 59l-39 -83c-5.33301 -12 -11.666 -18 -18.999 -18
c-11.333 0 -17 5 -17 15c0 3.33301 1 6.66602 3 9.99902l5 9l46 92c-38 68.667 -57 147 -57 235c0 104.667 21.167 193.334 63.5 266.001s94.166 109 155.499 109c4.66699 0 8.66699 -0.333008 12 -1l54 -11l42 -24l7 -5l31 64c6.66699 14 13.334 21 20.001 21
c10 0 15 -5 15 -15c0 -3.33301 -1 -7 -3 -11zM245.998 15.001c58.667 0 107 33.5 145 100.5s57 151.833 57 254.5c0 100 -19.667 174 -59 222l-1 1l-250 -518c31.333 -40 67.333 -60 108 -60zM112.998 114.001l5.00098 -10.999l249 509
c-24.667 26.667 -55.334 40 -92.001 40c-57.333 0 -104 -32.833 -140 -98.5s-54 -150.5 -54 -254.5c0 -76.667 10.667 -138.334 32 -185.001z" />
    <glyph glyph-name="Ugrave" unicode="&#xd9;" horiz-adv-x="574" 
d="M103 266l0.0078125 330.001c0 23.333 -4 37.666 -12 42.999c-4.66699 2.66699 -11.667 4 -21 4c-4 0 -7 -0.333008 -9 -1l-14 -1h-7c-14 0 -21 5 -21 15c0 9.33301 5.66699 14 17 14c5.33301 0 9.66602 -0.333008 12.999 -1c26 -5.33301 50.333 -8 73 -8
c19.333 0 42.666 2.33301 69.999 7c8 1.33301 14.667 2 20 2c12.667 0 19 -4.66699 19 -14c0 -10 -6.33301 -15 -19 -15c2.66699 0 -3 0.333008 -17 1c-11.333 0.666992 -18.333 1 -21 1c-18.667 0 -30.334 -7.66699 -35.001 -23c-2.66699 -8 -4 -24 -4 -48v-325
c0 -50.667 1.33301 -84.667 4 -102c6 -38 20 -68.333 42 -91c26.667 -27.333 62 -41 106 -41c62 0 105.667 25 131 75c14 27.333 21 80.333 21 159v325c0 24 -1.33301 40 -4 48c-4.66699 15.333 -16 23 -34 23h-3c-5.33301 0 -11.666 -0.333008 -18.999 -1
c-12.667 -0.666992 -18.334 -1 -17.001 -1c-12.667 0 -19 4.66699 -19 14c0 10 6.33301 15 19 15c5.33301 0 12 -0.666992 20 -2c27.333 -4.66699 50.666 -7 69.999 -7c23.333 0 47.666 2.66699 72.999 8c3.33301 0.666992 7.66602 1 12.999 1c11.333 0 17 -4.66699 17 -14
c0 -10 -7 -15 -21 -15h-6c-4 0.666992 -9 1 -15 1c-2 0.666992 -5 1 -9 1c-14.667 0 -24.334 -4.66699 -29.001 -14c-2.66699 -6 -4 -17 -4 -33v-330c0 -75.333 -4.33301 -127.5 -13 -156.5s-23.334 -53.833 -44.001 -74.5c-32 -32 -74.333 -48 -127 -48
c-73.333 0 -125.333 29 -156 87c-18.667 35.333 -28 99.333 -28 192zM324.008 720.001l-11.001 8l-85 58c-6.66699 4 -10 9.66699 -10 17c0 10 4.66699 15 14 15c4.66699 0 10 -2.66699 16 -8c3.33301 -2.66699 8 -6 14 -10l73 -54c2.66699 -2 5.33398 -3.66699 8.00098 -5
c9.33301 -6.66699 14 -12.667 14 -18c0 -8 -4.33301 -12 -13 -12c-5.33301 0 -12 3 -20 9z" />
    <glyph glyph-name="Uacute" unicode="&#xda;" horiz-adv-x="574" 
d="M103 266l0.0078125 330.001c0 23.333 -4 37.666 -12 42.999c-4.66699 2.66699 -11.667 4 -21 4c-4 0 -7 -0.333008 -9 -1l-14 -1h-7c-14 0 -21 5 -21 15c0 9.33301 5.66699 14 17 14c5.33301 0 9.66602 -0.333008 12.999 -1c26 -5.33301 50.333 -8 73 -8
c19.333 0 42.666 2.33301 69.999 7c8 1.33301 14.667 2 20 2c12.667 0 19 -4.66699 19 -14c0 -10 -6.33301 -15 -19 -15c2.66699 0 -3 0.333008 -17 1c-11.333 0.666992 -18.333 1 -21 1c-18.667 0 -30.334 -7.66699 -35.001 -23c-2.66699 -8 -4 -24 -4 -48v-325
c0 -50.667 1.33301 -84.667 4 -102c6 -38 20 -68.333 42 -91c26.667 -27.333 62 -41 106 -41c62 0 105.667 25 131 75c14 27.333 21 80.333 21 159v325c0 24 -1.33301 40 -4 48c-4.66699 15.333 -16 23 -34 23h-3c-5.33301 0 -11.666 -0.333008 -18.999 -1
c-12.667 -0.666992 -18.334 -1 -17.001 -1c-12.667 0 -19 4.66699 -19 14c0 10 6.33301 15 19 15c5.33301 0 12 -0.666992 20 -2c27.333 -4.66699 50.666 -7 69.999 -7c23.333 0 47.666 2.66699 72.999 8c3.33301 0.666992 7.66602 1 12.999 1c11.333 0 17 -4.66699 17 -14
c0 -10 -7 -15 -21 -15h-6c-4 0.666992 -9 1 -15 1c-2 0.666992 -5 1 -9 1c-14.667 0 -24.334 -4.66699 -29.001 -14c-2.66699 -6 -4 -17 -4 -33v-330c0 -75.333 -4.33301 -127.5 -13 -156.5s-23.334 -53.833 -44.001 -74.5c-32 -32 -74.333 -48 -127 -48
c-73.333 0 -125.333 29 -156 87c-18.667 35.333 -28 99.333 -28 192zM346.008 786.001l-8.99902 -6.00098l-87 -60c-8 -6 -14.667 -9 -20 -9c-8.66699 0 -13 4 -13 12c0 4.66699 4.66699 10.667 14 18c1.33301 0.666992 4 2.33398 8 5.00098l74 54
c3.33301 2.66699 8.16602 6.33398 14.499 11.001s11.5 7 15.5 7c9.33301 0 14 -5 14 -15c0 -6.66699 -3.66699 -12.334 -11 -17.001z" />
    <glyph glyph-name="Ucircumflex" unicode="&#xdb;" horiz-adv-x="574" 
d="M103 266l0.0078125 330.001c0 23.333 -4 37.666 -12 42.999c-4.66699 2.66699 -11.667 4 -21 4c-4 0 -7 -0.333008 -9 -1l-14 -1h-7c-14 0 -21 5 -21 15c0 9.33301 5.66699 14 17 14c5.33301 0 9.66602 -0.333008 12.999 -1c26 -5.33301 50.333 -8 73 -8
c19.333 0 42.666 2.33301 69.999 7c8 1.33301 14.667 2 20 2c12.667 0 19 -4.66699 19 -14c0 -10 -6.33301 -15 -19 -15c2.66699 0 -3 0.333008 -17 1c-11.333 0.666992 -18.333 1 -21 1c-18.667 0 -30.334 -7.66699 -35.001 -23c-2.66699 -8 -4 -24 -4 -48v-325
c0 -50.667 1.33301 -84.667 4 -102c6 -38 20 -68.333 42 -91c26.667 -27.333 62 -41 106 -41c62 0 105.667 25 131 75c14 27.333 21 80.333 21 159v325c0 24 -1.33301 40 -4 48c-4.66699 15.333 -16 23 -34 23h-3c-5.33301 0 -11.666 -0.333008 -18.999 -1
c-12.667 -0.666992 -18.334 -1 -17.001 -1c-12.667 0 -19 4.66699 -19 14c0 10 6.33301 15 19 15c5.33301 0 12 -0.666992 20 -2c27.333 -4.66699 50.666 -7 69.999 -7c23.333 0 47.666 2.66699 72.999 8c3.33301 0.666992 7.66602 1 12.999 1c11.333 0 17 -4.66699 17 -14
c0 -10 -7 -15 -21 -15h-6c-4 0.666992 -9 1 -15 1c-2 0.666992 -5 1 -9 1c-14.667 0 -24.334 -4.66699 -29.001 -14c-2.66699 -6 -4 -17 -4 -33v-330c0 -75.333 -4.33301 -127.5 -13 -156.5s-23.334 -53.833 -44.001 -74.5c-32 -32 -74.333 -48 -127 -48
c-73.333 0 -125.333 29 -156 87c-18.667 35.333 -28 99.333 -28 192zM368.008 723.001l-83 59.001l-78 -59c-10 -7.33301 -17.667 -11 -23 -11c-7.33301 0 -11 3.66699 -11 11c0 5.33301 2.33301 9.33301 7 12l12 10l77 63c8 6.66699 13.667 10 17 10
s8.33301 -2.66699 15 -8l82 -65c4 -2.66699 8 -5.83398 12 -9.50098s6 -7.5 6 -11.5c0 -8 -3.66699 -12 -11 -12c-4.66699 0 -12 3.66699 -22 11z" />
    <glyph glyph-name="Udieresis" unicode="&#xdc;" horiz-adv-x="574" 
d="M103 266l0.0078125 330.001c0 23.333 -4 37.666 -12 42.999c-4.66699 2.66699 -11.667 4 -21 4c-4 0 -7 -0.333008 -9 -1l-14 -1h-7c-14 0 -21 5 -21 15c0 9.33301 5.66699 14 17 14c5.33301 0 9.66602 -0.333008 12.999 -1c26 -5.33301 50.333 -8 73 -8
c19.333 0 42.666 2.33301 69.999 7c8 1.33301 14.667 2 20 2c12.667 0 19 -4.66699 19 -14c0 -10 -6.33301 -15 -19 -15c2.66699 0 -3 0.333008 -17 1c-11.333 0.666992 -18.333 1 -21 1c-18.667 0 -30.334 -7.66699 -35.001 -23c-2.66699 -8 -4 -24 -4 -48v-325
c0 -50.667 1.33301 -84.667 4 -102c6 -38 20 -68.333 42 -91c26.667 -27.333 62 -41 106 -41c62 0 105.667 25 131 75c14 27.333 21 80.333 21 159v325c0 24 -1.33301 40 -4 48c-4.66699 15.333 -16 23 -34 23h-3c-5.33301 0 -11.666 -0.333008 -18.999 -1
c-12.667 -0.666992 -18.334 -1 -17.001 -1c-12.667 0 -19 4.66699 -19 14c0 10 6.33301 15 19 15c5.33301 0 12 -0.666992 20 -2c27.333 -4.66699 50.666 -7 69.999 -7c23.333 0 47.666 2.66699 72.999 8c3.33301 0.666992 7.66602 1 12.999 1c11.333 0 17 -4.66699 17 -14
c0 -10 -7 -15 -21 -15h-6c-4 0.666992 -9 1 -15 1c-2 0.666992 -5 1 -9 1c-14.667 0 -24.334 -4.66699 -29.001 -14c-2.66699 -6 -4 -17 -4 -33v-330c0 -75.333 -4.33301 -127.5 -13 -156.5s-23.334 -53.833 -44.001 -74.5c-32 -32 -74.333 -48 -127 -48
c-73.333 0 -125.333 29 -156 87c-18.667 35.333 -28 99.333 -28 192zM229.008 767.001c0 -14 -3.83105 -25.833 -11.498 -35.5s-16.834 -14.5 -27.501 -14.5s-19.667 4.66699 -27 14s-11 20.333 -11 33c0 33.333 12.667 50 38 50c11.333 0 20.666 -4.5 27.999 -13.5
s11 -20.167 11 -33.5zM422.01 768.001c0 -14.667 -3.66699 -26.834 -11 -36.501s-16.666 -14.5 -27.999 -14.5c-10.667 0 -19.667 4.5 -27 13.5s-11 19.833 -11 32.5c0 14.667 3.66699 26.834 11 36.501s16.333 14.5 27 14.5c11.333 0 20.666 -4.5 27.999 -13.5
s11 -19.833 11 -32.5z" />
    <glyph glyph-name="germandbls" unicode="&#xdf;" horiz-adv-x="507" 
d="M310 -13c-47.333 0 -82.666 23.999 -105.999 71.999c0 -5.33301 0.833008 -13.333 2.5 -24s2.5 -18.667 2.5 -24c0 -12.667 -4.33301 -19 -13 -19s-13 6 -13 18v15c0 1.33301 0.666992 15.666 2 42.999l2 47v10c0 -7.33301 -0.666992 11 -2 55v10
c0 12.667 4.33301 19 13 19s13 -5.66699 13 -17c0 3.33301 -0.333008 -0.666992 -1 -12c-2 -24 -3 -42.333 -3 -55c0 -34.667 9.16699 -62.5 27.5 -83.5s42.5 -31.5 72.5 -31.5c37.333 0 68.5 15.333 93.5 46s37.5 69.334 37.5 116.001c0 74 -33.667 120.333 -101 139
c-32 8.66699 -52.833 17 -62.5 25s-14.5 21 -14.5 39c0 16 3.83301 28.5 11.5 37.5s23.5 19.5 47.5 31.5c45.333 22.667 68 56.667 68 102c0 31.333 -10 57 -30 77s-45.667 30 -77 30c-28.667 0 -54.5 -8.83301 -77.5 -26.5s-37.833 -40.167 -44.5 -67.5
c-9.33301 -37.333 -14 -88.333 -14 -153v-340c0 -40 -4 -62.667 -12 -68c-3.33301 -2 -8.33301 -3 -15 -3c-6 0 -12.333 0.333008 -19 1c-2.66699 0.666992 -7 1 -13 1c-4.66699 0 -14.334 -0.666992 -29.001 -2c-3.33301 -0.666992 -7.33301 -1 -12 -1
c-11.333 0 -17 4.66699 -17 14c0 8.66699 6.33301 13 19 13c4 0 7 -0.333008 9 -1l13 -2c4 -0.666992 9.33301 -1 16 -1c22 0 33 16.333 33 49v339c0 16 -0.666992 26 -2 30c-3.33301 6.66699 -11 10 -23 10h-13c-4 0 -9.5 -0.5 -16.5 -1.5s-12.5 -1.5 -16.5 -1.5
c-11.333 0 -17 4.66699 -17 14c0 8.66699 5 13 15 13h6c3.33301 -0.666992 6 -1 8 -1c2 -2 13.333 -3 34 -3h2c16.667 0 25.667 8.66699 27 26c6 62 20 106.333 42 133c30 35.333 70 53 120 53c39.333 0 71.333 -12 96 -36s37 -55.333 37 -94
c0 -30.667 -6.5 -55.334 -19.5 -74.001s-35.833 -36 -68.5 -52c-26 -12.667 -39 -27 -39 -43c0 -19.333 13.333 -32.666 40 -39.999c45.333 -12.667 76.333 -26.667 93 -42c30 -27.333 45 -67.666 45 -120.999c0 -54.667 -14.833 -99.667 -44.5 -135s-67.167 -53 -112.5 -53
z" />
    <glyph glyph-name="agrave" unicode="&#xe0;" horiz-adv-x="420" 
d="M213 551l-85.001 59c-7.33301 4 -11 9.33301 -11 16c0 10 4.66699 15 14 15c4 0 9.66699 -2.33301 17 -7l13 -10l74 -54c2.66699 -2.66699 5.33398 -4.66699 8.00098 -6c9.33301 -7.33301 14 -13.333 14 -18c0 -8 -4.33301 -12 -13 -12c-2.66699 0 -7 2 -13 6z
M293.999 69l0.00195312 21.999c-16.667 -37.333 -35.334 -64 -56.001 -80s-47.334 -24 -80.001 -24c-36.667 0 -66 11.667 -88 35s-33 54.333 -33 93c0 82.667 43.333 128.334 130 137.001c50.667 5.33301 83.5 13.833 98.5 25.5s22.5 34.834 22.5 69.501
c0 33.333 -9 59.333 -27 78s-43 28 -75 28c-26.667 0 -49.834 -8 -69.501 -24s-29.5 -35 -29.5 -57c0 -4 1.66699 -6 5 -6c0.666992 0 2.5 0.833008 5.5 2.5s7.16699 2.5 12.5 2.5c18 0 27 -10.667 27 -32c0 -10.667 -3.5 -19.667 -10.5 -27s-15.833 -11 -26.5 -11
c-12 0 -22 5.5 -30 16.5s-12 24.833 -12 41.5c0 33.333 12.333 61.333 37 84s55.334 34 92.001 34c54 0 91.667 -19.333 113 -58c13.333 -24 20 -67.333 20 -130v-209c0 -46.667 11 -70 33 -70c24 0 36 28 36 84v14c-0.666992 7.33301 -1 13.666 -1 18.999l-1 2
c0 14 5 21 15 21s15 -7.66699 15 -23c0 -55.333 -4.33301 -92.5 -13 -111.5s-25.667 -28.5 -51 -28.5c-39.333 0 -59 27.333 -59 82zM294.001 213.999v58c-18.667 -21.333 -46 -34 -82 -38l-42 -5c-70 -8 -105 -45 -105 -111c0 -32 9 -58 27 -78s41.667 -30 71 -30
c54 0 91.333 26.333 112 79c12.667 32 19 73.667 19 125z" />
    <glyph glyph-name="aacute" unicode="&#xe1;" horiz-adv-x="420" 
d="M246 610l-9.00098 -7l-94 -63c-6 -4 -10.333 -6 -13 -6c-8.66699 0 -13 4 -13 12c0 4.66699 4.66699 10.667 14 18c2.66699 1.33301 5.33398 3.33301 8.00098 6l74 54l14 10c6.66699 4.66699 11.667 7 15 7c10 0 15 -5 15 -15c0 -6.66699 -3.66699 -12 -11 -16z
M293.999 69l0.00195312 21.999c-16.667 -37.333 -35.334 -64 -56.001 -80s-47.334 -24 -80.001 -24c-36.667 0 -66 11.667 -88 35s-33 54.333 -33 93c0 82.667 43.333 128.334 130 137.001c50.667 5.33301 83.5 13.833 98.5 25.5s22.5 34.834 22.5 69.501
c0 33.333 -9 59.333 -27 78s-43 28 -75 28c-26.667 0 -49.834 -8 -69.501 -24s-29.5 -35 -29.5 -57c0 -4 1.66699 -6 5 -6c0.666992 0 2.5 0.833008 5.5 2.5s7.16699 2.5 12.5 2.5c18 0 27 -10.667 27 -32c0 -10.667 -3.5 -19.667 -10.5 -27s-15.833 -11 -26.5 -11
c-12 0 -22 5.5 -30 16.5s-12 24.833 -12 41.5c0 33.333 12.333 61.333 37 84s55.334 34 92.001 34c54 0 91.667 -19.333 113 -58c13.333 -24 20 -67.333 20 -130v-209c0 -46.667 11 -70 33 -70c24 0 36 28 36 84v14c-0.666992 7.33301 -1 13.666 -1 18.999l-1 2
c0 14 5 21 15 21s15 -7.66699 15 -23c0 -55.333 -4.33301 -92.5 -13 -111.5s-25.667 -28.5 -51 -28.5c-39.333 0 -59 27.333 -59 82zM294.001 213.999v58c-18.667 -21.333 -46 -34 -82 -38l-42 -5c-70 -8 -105 -45 -105 -111c0 -32 9 -58 27 -78s41.667 -30 71 -30
c54 0 91.333 26.333 112 79c12.667 32 19 73.667 19 125z" />
    <glyph glyph-name="acircumflex" unicode="&#xe2;" horiz-adv-x="420" 
d="M281 546l-83.002 60l-78 -59c-10.667 -8 -18.334 -12 -23.001 -12c-7.33301 0 -11 4 -11 12c0 4.66699 2.33301 8.66699 7 12l12 9l77 63c8.66699 7.33301 14.334 11 17.001 11c3.33301 0 8.33301 -2.66699 15 -8l83 -66c6.66699 -5.33301 10.334 -8.33301 11.001 -9
c4 -2.66699 6 -6.66699 6 -12c0 -3.33301 -1.16699 -6 -3.5 -8s-4.83301 -3 -7.5 -3c-5.33301 0 -12.666 3.33301 -21.999 10zM293.998 69l0.00195312 21.999c-16.667 -37.333 -35.334 -64 -56.001 -80s-47.334 -24 -80.001 -24c-36.667 0 -66 11.667 -88 35
s-33 54.333 -33 93c0 82.667 43.333 128.334 130 137.001c50.667 5.33301 83.5 13.833 98.5 25.5s22.5 34.834 22.5 69.501c0 33.333 -9 59.333 -27 78s-43 28 -75 28c-26.667 0 -49.834 -8 -69.501 -24s-29.5 -35 -29.5 -57c0 -4 1.66699 -6 5 -6
c0.666992 0 2.5 0.833008 5.5 2.5s7.16699 2.5 12.5 2.5c18 0 27 -10.667 27 -32c0 -10.667 -3.5 -19.667 -10.5 -27s-15.833 -11 -26.5 -11c-12 0 -22 5.5 -30 16.5s-12 24.833 -12 41.5c0 33.333 12.333 61.333 37 84s55.334 34 92.001 34c54 0 91.667 -19.333 113 -58
c13.333 -24 20 -67.333 20 -130v-209c0 -46.667 11 -70 33 -70c24 0 36 28 36 84v14c-0.666992 7.33301 -1 13.666 -1 18.999l-1 2c0 14 5 21 15 21s15 -7.66699 15 -23c0 -55.333 -4.33301 -92.5 -13 -111.5s-25.667 -28.5 -51 -28.5c-39.333 0 -59 27.333 -59 82z
M294 213.999v58c-18.667 -21.333 -46 -34 -82 -38l-42 -5c-70 -8 -105 -45 -105 -111c0 -32 9 -58 27 -78s41.667 -30 71 -30c54 0 91.333 26.333 112 79c12.667 32 19 73.667 19 125z" />
    <glyph glyph-name="atilde" unicode="&#xe3;" horiz-adv-x="420" 
d="M321 616c0 -4.66699 -1.66699 -9.33203 -5 -13.999l-9 -13c-14 -20.667 -30 -31 -48 -31c-12.667 0 -33 5.33301 -61 16l-26 10c-14 5.33301 -23.333 8 -28 8c-8.66699 0 -22.334 -8.33301 -41.001 -25c-8.66699 -7.33301 -14.667 -11 -18 -11c-4 0 -6 2 -6 6
c0 7.33301 7.66699 19.666 23 36.999c14 15.333 28 23 42 23c10 0 38.333 -8.66699 85 -26c14.667 -5.33301 24.667 -8 30 -8c10.667 0 26.334 9.33301 47.001 28c4 3.33301 7.33301 5 10 5c3.33301 0 5 -1.66699 5 -5zM294 69.002l0.00195312 21.999
c-16.667 -37.333 -35.334 -64 -56.001 -80s-47.334 -24 -80.001 -24c-36.667 0 -66 11.667 -88 35s-33 54.333 -33 93c0 82.667 43.333 128.334 130 137.001c50.667 5.33301 83.5 13.833 98.5 25.5s22.5 34.834 22.5 69.501c0 33.333 -9 59.333 -27 78s-43 28 -75 28
c-26.667 0 -49.834 -8 -69.501 -24s-29.5 -35 -29.5 -57c0 -4 1.66699 -6 5 -6c0.666992 0 2.5 0.833008 5.5 2.5s7.16699 2.5 12.5 2.5c18 0 27 -10.667 27 -32c0 -10.667 -3.5 -19.667 -10.5 -27s-15.833 -11 -26.5 -11c-12 0 -22 5.5 -30 16.5s-12 24.833 -12 41.5
c0 33.333 12.333 61.333 37 84s55.334 34 92.001 34c54 0 91.667 -19.333 113 -58c13.333 -24 20 -67.333 20 -130v-209c0 -46.667 11 -70 33 -70c24 0 36 28 36 84v14c-0.666992 7.33301 -1 13.666 -1 18.999l-1 2c0 14 5 21 15 21s15 -7.66699 15 -23
c0 -55.333 -4.33301 -92.5 -13 -111.5s-25.667 -28.5 -51 -28.5c-39.333 0 -59 27.333 -59 82zM294.002 214.001v58c-18.667 -21.333 -46 -34 -82 -38l-42 -5c-70 -8 -105 -45 -105 -111c0 -32 9 -58 27 -78s41.667 -30 71 -30c54 0 91.333 26.333 112 79
c12.667 32 19 73.667 19 125z" />
    <glyph glyph-name="adieresis" unicode="&#xe4;" horiz-adv-x="420" 
d="M294 69l0.00195312 21.999c-16.667 -37.333 -35.334 -64 -56.001 -80s-47.334 -24 -80.001 -24c-36.667 0 -66 11.667 -88 35s-33 54.333 -33 93c0 82.667 43.333 128.334 130 137.001c50.667 5.33301 83.5 13.833 98.5 25.5s22.5 34.834 22.5 69.501
c0 33.333 -9 59.333 -27 78s-43 28 -75 28c-26.667 0 -49.834 -8 -69.501 -24s-29.5 -34.667 -29.5 -56c0 -5.33301 1.33301 -8 4 -8l6 3c4 2 8 3 12 3c18.667 0 28 -10.667 28 -32c0 -10.667 -3.5 -19.667 -10.5 -27s-15.833 -11 -26.5 -11c-12 0 -22 5.5 -30 16.5
s-12 24.833 -12 41.5c0 33.333 12.333 61.333 37 84s55.334 34 92.001 34c54 0 91.667 -19.333 113 -58c13.333 -24 20 -67.333 20 -130v-209c0 -46.667 11 -70 33 -70c24 0 36 28 36 84v14c-0.666992 7.33301 -1 13.666 -1 18.999l-1 2c0 14 5 21 15 21s15 -7.66699 15 -23
c0 -55.333 -4.33301 -92.5 -13 -111.5s-25.667 -28.5 -51 -28.5c-39.333 0 -59 27.333 -59 82zM151.002 589.999c0 -25.333 -11 -38 -33 -38c-19.333 0 -29 12 -29 36c0 24.667 10.333 37 31 37s31 -11.667 31 -35zM288.002 589.999c0 -25.333 -11.333 -38 -34 -38
c-19.333 0 -29 12 -29 36c0 24.667 10.667 37 32 37c20.667 0 31 -11.667 31 -35zM294.002 213.999v58c-18.667 -21.333 -46 -34 -82 -38l-42 -5c-70 -8 -105 -45 -105 -111c0 -32 9 -58 27 -78s41.667 -30 71 -30c54 0 91.333 26.333 112 79c12.667 32 19 73.667 19 125z
" />
    <glyph glyph-name="aring" unicode="&#xe5;" horiz-adv-x="420" 
d="M294 69l0.00195312 21.999c-16.667 -37.333 -35.334 -64 -56.001 -80s-47.334 -24 -80.001 -24c-36.667 0 -66 11.667 -88 35s-33 54.333 -33 93c0 82.667 43.333 128.334 130 137.001c50.667 5.33301 83.5 13.833 98.5 25.5s22.5 34.834 22.5 69.501
c0 33.333 -9 59.333 -27 78s-43 28 -75 28c-26.667 0 -49.834 -8 -69.501 -24s-29.5 -34.667 -29.5 -56c0 -5.33301 1.33301 -8 4 -8l6 3c4 2 8 3 12 3c18.667 0 28 -10.667 28 -32c0 -10.667 -3.5 -19.667 -10.5 -27s-15.833 -11 -26.5 -11c-12 0 -22 5.5 -30 16.5
s-12 24.833 -12 41.5c0 33.333 12.333 61.333 37 84s55.334 34 92.001 34c54 0 91.667 -19.333 113 -58c13.333 -24 20 -67.333 20 -130v-209c0 -46.667 11 -70 33 -70c24 0 36 28 36 84v14c-0.666992 7.33301 -1 13.666 -1 18.999l-1 2c0 14 5 21 15 21s15 -7.66699 15 -23
c0 -55.333 -4.33301 -92.5 -13 -111.5s-25.667 -28.5 -51 -28.5c-39.333 0 -59 27.333 -59 82zM248.002 587.999c0 -16.667 -5.49902 -30.501 -16.499 -41.501s-24.5 -16.5 -40.5 -16.5c-15.333 0 -28.166 5.5 -38.499 16.5s-15.5 24.833 -15.5 41.5
c0 16 5.16699 29.5 15.5 40.5s23.166 16.5 38.499 16.5s28.666 -5.66699 39.999 -17s17 -24.666 17 -39.999zM294.003 213.998v58c-18.667 -21.333 -46 -34 -82 -38l-42 -5c-70 -8 -105 -45 -105 -111c0 -32 9 -58 27 -78s41.667 -30 71 -30c54 0 91.333 26.333 112 79
c12.667 32 19 73.667 19 125zM161.003 587.998c0 -24 10.333 -36 31 -36s31 12 31 36c0 23.333 -10 35 -30 35c-21.333 0 -32 -11.667 -32 -35z" />
    <glyph glyph-name="ae" unicode="&#xe6;" horiz-adv-x="651" 
d="M320 241v-19.999c0 -64.667 12.333 -116 37 -154s58 -57 100 -57c34 0 62.167 13 84.5 39s35.166 60.667 38.499 104c1.33301 13.333 6.33301 20 15 20c8 0 12 -5.66699 12 -17c0 -45.333 -15 -84.833 -45 -118.5s-65.333 -50.5 -106 -50.5c-51.333 0 -91.333 22 -120 66
c-11.333 17.333 -20.333 41 -27 71c-10.667 -51.333 -28.667 -87 -54 -107s-54.333 -30 -87 -30c-40 0 -72.5 12.5 -97.5 37.5s-37.5 57.5 -37.5 97.5c0 76.667 34.333 123 103 139c19.333 4 48 6 86 6h71v31c0 103.333 -36.333 155 -109 155c-26 0 -49 -7.66699 -69 -23
s-30 -33.333 -30 -54c0 -6 1.33301 -9 4 -9c2 0.666992 3.66699 1.66699 5 3c5.33301 1.33301 9.33301 2 12 2c19.333 0 29 -11 29 -33c0 -24.667 -12 -37 -36 -37c-28 0 -42 18 -42 54c0 34.667 12 63.5 36 86.5s54.333 34.5 91 34.5c72.667 0 115.334 -44 128.001 -132
c22 88 70.667 132 146 132c46 0 83 -18.833 111 -56.5s42 -87.834 42 -150.501c0 -19.333 -6.33301 -29 -19 -29h-272zM294 212.001c0 10 -0.332031 19.666 -0.999023 28.999h-92c-92.667 0 -139 -40.333 -139 -121c0 -32.667 9.83301 -59.167 29.5 -79.5
s45.167 -30.5 76.5 -30.5c25.333 0 48.166 7.33301 68.499 22s34.5 34 42.5 58c10 30.667 15 71.334 15 122.001zM329.001 335c-4 -16.667 -6.66797 -39.332 -8.00098 -67.999h251c6.66699 0 10 4 10 12c0 51.333 -11.667 93.166 -35 125.499s-53.666 48.5 -90.999 48.5
c-29.333 0 -55.833 -11 -79.5 -33s-39.5 -50.333 -47.5 -85z" />
    <glyph glyph-name="ccedilla" unicode="&#xe7;" horiz-adv-x="396" 
d="M212 -13l-9 -0.000976562l-13 -32c15.333 2 25.333 3 30 3c18 0 32.667 -5 44 -15s17 -23.333 17 -40c0 -18.667 -7 -34 -21 -46s-31.667 -18 -53 -18s-39.333 5.66699 -54 17c-10.667 8 -16 16.333 -16 25c0 8 3.66699 12 11 12c3.33301 0 5.83301 -0.666992 7.5 -2
s5.16699 -4.66602 10.5 -9.99902c12 -12 26.333 -18 43 -18c12 0 22.333 4 31 12s13 17.333 13 28c0 21.333 -12.667 32 -38 32c-4.66699 0 -11.5 -1 -20.5 -3s-15.833 -3 -20.5 -3c-8 0 -12 3.66699 -12 11c0 3.33301 2.66699 11.333 8 24l11 26
c-44 11.333 -78.5 37.833 -103.5 79.5s-37.5 94.167 -37.5 157.5c0 73.333 16.167 133.333 48.5 180s74.166 70 125.499 70c38.667 0 71.167 -13.667 97.5 -41s39.5 -61.333 39.5 -102c0 -48 -15.333 -72 -46 -72c-23.333 0 -35 12 -35 36c0 20 7.33301 30 22 30
c5.33301 0 11.333 -2.66699 18 -8c1.33301 -2 3 -3 5 -3c4.66699 0 7 5.33301 7 16c0 35.333 -10.167 64.166 -30.5 86.499s-46.166 33.5 -77.499 33.5c-44.667 0 -80 -21.167 -106 -63.5s-39 -99.166 -39 -170.499c0 -63.333 13.167 -114 39.5 -152s61.166 -57 104.499 -57
c30.667 0 56.5 10.167 77.5 30.5s33.167 47.5 36.5 81.5l2 21c0.666992 8.66699 5 13 13 13c9.33301 0 14 -6 14 -18c0 -41.333 -14.167 -76.833 -42.5 -106.5s-62.166 -44.5 -101.499 -44.5z" />
    <glyph glyph-name="egrave" unicode="&#xe8;" horiz-adv-x="401" 
d="M70 241l-0.000976562 -15c0 -67.333 12.167 -120.166 36.5 -158.499s58.166 -57.5 101.499 -57.5c27.333 0 51.333 8.66699 72 26s35 41.333 43 72c3.33301 11.333 6 27 8 47c1.33301 12 6 18 14 18c9.33301 0 14 -6 14 -18c0 -44.667 -15.333 -83.834 -46 -117.501
s-66 -50.5 -106 -50.5c-50 0 -90.333 21.5 -121 64.5s-46 99.833 -46 170.5c0 76 15.5 137.5 46.5 184.5s71.5 70.5 121.5 70.5c44.667 0 81.334 -18.833 110.001 -56.5s43 -86.167 43 -145.5c0 -16 -1.16699 -25.667 -3.5 -29s-9.16602 -5 -20.499 -5h-267zM232.999 551
l-85.001 59c-6.66699 4 -10 9.33301 -10 16c0 10 4.66699 15 14 15c4.66699 0 10.5 -2.66699 17.5 -8s11.167 -8.33301 12.5 -9l73 -54c2.66699 -2.66699 5.33398 -4.66699 8.00098 -6c9.33301 -6.66699 14 -12.667 14 -18c0 -8 -4.33301 -12 -13 -12c-2.66699 0 -7 2 -13 6
zM207.998 453c-38.667 0 -70.168 -17.001 -94.501 -51.001s-38.166 -79.333 -41.499 -136h250c7.33301 0.666992 11 4.33398 11 11.001c0 52.667 -11.5 95.167 -34.5 127.5s-53.167 48.5 -90.5 48.5z" />
    <glyph glyph-name="eacute" unicode="&#xe9;" horiz-adv-x="401" 
d="M70 241l-0.000976562 -15c0 -67.333 12.167 -120.166 36.5 -158.499s58.166 -57.5 101.499 -57.5c27.333 0 51.333 8.66699 72 26s35 41.333 43 72c3.33301 11.333 6 27 8 47c1.33301 12 6 18 14 18c9.33301 0 14 -6 14 -18c0 -44.667 -15.333 -83.834 -46 -117.501
s-66 -50.5 -106 -50.5c-50 0 -90.333 21.5 -121 64.5s-46 99.833 -46 170.5c0 76 15.5 137.5 46.5 184.5s71.5 70.5 121.5 70.5c44.667 0 81.334 -18.833 110.001 -56.5s43 -86.167 43 -145.5c0 -16 -1.16699 -25.667 -3.5 -29s-9.16602 -5 -20.499 -5h-267zM259.999 610
l-10.001 -7l-93 -63c-6 -4 -10.333 -6 -13 -6c-8.66699 0 -13 4 -13 12c0 5.33301 4.66699 11.333 14 18c2.66699 1.33301 5.33398 3.33301 8.00098 6l73 54c1.33301 0.666992 6 4 14 10c6 4.66699 11.333 7 16 7c9.33301 0 14 -5 14 -15c0 -6.66699 -3.33301 -12 -10 -16z
M207.998 453c-38.667 0 -70.168 -17.001 -94.501 -51.001s-38.166 -79.333 -41.499 -136h250c7.33301 0.666992 11 4.33398 11 11.001c0 52.667 -11.5 95.167 -34.5 127.5s-53.167 48.5 -90.5 48.5z" />
    <glyph glyph-name="ecircumflex" unicode="&#xea;" horiz-adv-x="401" 
d="M70 241l-0.000976562 -15c0 -67.333 12.167 -120.166 36.5 -158.499s58.166 -57.5 101.499 -57.5c27.333 0 51.333 8.66699 72 26s35 41.333 43 72c3.33301 11.333 6 27 8 47c1.33301 12 6 18 14 18c9.33301 0 14 -6 14 -18c0 -44.667 -15.333 -83.834 -46 -117.501
s-66 -50.5 -106 -50.5c-50 0 -90.333 21.5 -121 64.5s-46 99.833 -46 170.5c0 76 15.5 137.5 46.5 184.5s71.5 70.5 121.5 70.5c44.667 0 81.334 -18.833 110.001 -56.5s43 -86.167 43 -145.5c0 -16 -1.16699 -25.667 -3.5 -29s-9.16602 -5 -20.499 -5h-267zM287.999 546
l-83.002 60l-78 -59c-10.667 -8 -18.334 -12 -23.001 -12c-7.33301 0 -11 4 -11 12c0 4.66699 2.33301 8.66699 7 12l12 9l77 63c8.66699 7.33301 14.334 11 17.001 11c3.33301 0 8.33301 -2.66699 15 -8l83 -66c6.66699 -5.33301 10.334 -8.33301 11.001 -9
c4 -2.66699 6 -6.66699 6 -12c0 -3.33301 -1.16699 -6 -3.5 -8s-4.83301 -3 -7.5 -3c-5.33301 0 -12.666 3.33301 -21.999 10zM207.997 453c-38.667 0 -70.168 -17.001 -94.501 -51.001s-38.166 -79.333 -41.499 -136h250c7.33301 0.666992 11 4.33398 11 11.001
c0 52.667 -11.5 95.167 -34.5 127.5s-53.167 48.5 -90.5 48.5z" />
    <glyph glyph-name="edieresis" unicode="&#xeb;" horiz-adv-x="401" 
d="M70 241l-0.000976562 -15c0 -67.333 12.167 -120.166 36.5 -158.499s58.166 -57.5 101.499 -57.5c27.333 0 51.333 8.66699 72 26s35 41.333 43 72c3.33301 11.333 6 27 8 47c1.33301 12 6 18 14 18c9.33301 0 14 -6 14 -18c0 -44.667 -15.333 -83.834 -46 -117.501
s-66 -50.5 -106 -50.5c-50 0 -90.333 21.5 -121 64.5s-46 99.833 -46 170.5c0 76 15.5 137.5 46.5 184.5s71.5 70.5 121.5 70.5c44.667 0 81.334 -18.833 110.001 -56.5s43 -86.167 43 -145.5c0 -16 -1.16699 -25.667 -3.5 -29s-9.16602 -5 -20.499 -5h-267zM169.999 590
c0 -25.333 -11 -38 -33 -38c-19.333 0 -29 12 -29 36c0 24.667 10.333 37 31 37s31 -11.667 31 -35zM306.999 590c0 -25.333 -11 -38 -33 -38c-20 0 -30 12 -30 36c0 24.667 10.667 37 32 37c20.667 0 31 -11.667 31 -35zM207.999 453
c-38.667 0 -70.168 -17.001 -94.501 -51.001s-38.166 -79.333 -41.499 -136h250c7.33301 0.666992 11 4.33398 11 11.001c0 52.667 -11.5 95.167 -34.5 127.5s-53.167 48.5 -90.5 48.5z" />
    <glyph glyph-name="igrave" unicode="&#xec;" horiz-adv-x="245" 
d="M145 437c-0.666992 -4.66699 -1.00195 -11.333 -1.00195 -20v-320c0 -28.667 0.333008 -44.667 1 -48c3.33301 -18 13.666 -27 30.999 -27c7.33301 0 13.333 0.333008 18 1h10c16 0 24 -4.33301 24 -13s-6.33301 -13 -19 -13c-6.66699 0 -12.667 0.666992 -18 2
c-25.333 2.66699 -48 4 -68 4c-18.667 0 -32.334 -0.666992 -41.001 -2l-26 -4c-4 -0.666992 -8.66699 -1 -14 -1c-13.333 0 -20 4.66699 -20 14s5.66699 14 17 14c6.66699 0 14.334 -0.333008 23.001 -1c1.33301 0 3.33301 -0.333008 6 -1h7c21.333 0 34.333 8 39 24
c2 5.33301 3 23.333 3 54v299c0 16 -3 27 -9 33s-17.333 9 -34 9c-11.333 0 -18.666 -0.333008 -21.999 -1h-8c-3.33301 -0.666992 -5.66602 -1 -6.99902 -1c-10.667 0 -16 4.66699 -16 14s7 14 21 14h12l15 -3h8c4 -0.666992 6.66699 -1 8 -1c4.66699 0 13.334 1 26.001 3
c2 0 4.66699 0.333008 8 1h8c12 0 18 -7.66699 18 -23v-7zM129.998 551.001l-85.001 59c-6.66699 4 -10 9.33301 -10 16c0 10 4.66699 15 14 15c4.66699 0 10.5 -2.66699 17.5 -8s11.167 -8.33301 12.5 -9l73 -54c2.66699 -2.66699 5.33398 -4.66699 8.00098 -6
c9.33301 -6.66699 14 -12.667 14 -18c0 -8 -4.33301 -12 -13 -12c-2.66699 0 -7 2 -13 6z" />
    <glyph glyph-name="iacute" unicode="&#xed;" horiz-adv-x="245" 
d="M145 437c-0.666992 -4.66699 -1.00195 -11.333 -1.00195 -20v-320c0 -28.667 0.333008 -44.667 1 -48c3.33301 -18 13.666 -27 30.999 -27c7.33301 0 13.333 0.333008 18 1h10c16 0 24 -4.33301 24 -13s-6.33301 -13 -19 -13c-6.66699 0 -12.667 0.666992 -18 2
c-25.333 2.66699 -48 4 -68 4c-18.667 0 -32.334 -0.666992 -41.001 -2l-26 -4c-4 -0.666992 -8.66699 -1 -14 -1c-13.333 0 -20 4.66699 -20 14s5.66699 14 17 14c6.66699 0 14.334 -0.333008 23.001 -1c1.33301 0 3.33301 -0.333008 6 -1h7c21.333 0 34.333 8 39 24
c2 5.33301 3 23.333 3 54v299c0 16 -3 27 -9 33s-17.333 9 -34 9c-11.333 0 -18.666 -0.333008 -21.999 -1h-8c-3.33301 -0.666992 -5.66602 -1 -6.99902 -1c-10.667 0 -16 4.66699 -16 14s7 14 21 14h12l15 -3h8c4 -0.666992 6.66699 -1 8 -1c4.66699 0 13.334 1 26.001 3
c2 0 4.66699 0.333008 8 1h8c12 0 18 -7.66699 18 -23v-7zM162.998 610.001l-8.99902 -7l-87 -59c-10.667 -6.66699 -17.334 -10 -20.001 -10c-8.66699 0 -13 4 -13 12c0 4.66699 4.66699 10.667 14 18c2 0.666992 4.66699 2.66699 8 6l74 54l14 10
c6.66699 4.66699 12 7 16 7c9.33301 0 14 -5 14 -15c0 -6.66699 -3.66699 -12 -11 -16z" />
    <glyph glyph-name="icircumflex" unicode="&#xee;" horiz-adv-x="245" 
d="M145 437c-0.666992 -4.66699 -1.00195 -11.333 -1.00195 -20v-320c0 -28.667 0.333008 -44.667 1 -48c3.33301 -18 13.666 -27 30.999 -27c7.33301 0 13.333 0.333008 18 1h10c16 0 24 -4.33301 24 -13s-6.33301 -13 -19 -13c-6.66699 0 -12.667 0.666992 -18 2
c-25.333 2.66699 -48 4 -68 4c-18.667 0 -32.334 -0.666992 -41.001 -2l-26 -4c-4 -0.666992 -8.66699 -1 -14 -1c-13.333 0 -20 4.66699 -20 14s5.66699 14 17 14c6.66699 0 14.334 -0.333008 23.001 -1c1.33301 0 3.33301 -0.333008 6 -1h7c21.333 0 34.333 8 39 24
c2 5.33301 3 23.333 3 54v299c0 16 -3 27 -9 33s-17.333 9 -34 9c-11.333 0 -18.666 -0.333008 -21.999 -1h-8c-3.33301 -0.666992 -5.66602 -1 -6.99902 -1c-10.667 0 -16 4.66699 -16 14s7 14 21 14h12l15 -3h8c4 -0.666992 6.66699 -1 8 -1c4.66699 0 13.334 1 26.001 3
c2 0 4.66699 0.333008 8 1h8c12 0 18 -7.66699 18 -23v-7zM194.998 546.001l-83 59.999l-78 -59c-10.667 -8 -18.334 -12 -23.001 -12c-7.33301 0 -11 4 -11 12c0 4.66699 2.33301 8.66699 7 12l12 9l77 63c8.66699 7.33301 14.334 11 17.001 11
c3.33301 0 8.33301 -2.66699 15 -8l82 -66c3.33301 -2 7.16602 -4.66699 11.499 -8s6.5 -7.66602 6.5 -12.999c0 -3.33301 -1.16699 -6 -3.5 -8s-4.83301 -3 -7.5 -3c-5.33301 0 -12.666 3.33301 -21.999 10z" />
    <glyph glyph-name="idieresis" unicode="&#xef;" horiz-adv-x="245" 
d="M145 437c-0.666992 -4.66699 -1 -11.333 -1 -20v-320c0 -28.667 0.333008 -44.667 1 -48c3.33301 -18 13.666 -27 30.999 -27c7.33301 0 13.333 0.333008 18 1h10c16 0 24 -4.33301 24 -13s-6.33301 -13 -19 -13c-6 0 -12 0.666992 -18 2c-25.333 2.66699 -48 4 -68 4
c-18.667 0 -32.334 -0.666992 -41.001 -2l-26 -4c-4 -0.666992 -8.66699 -1 -14 -1c-13.333 0 -20 4.66699 -20 14s5.66699 14 17 14c6.66699 0 14.334 -0.333008 23.001 -1c1.33301 0 3.33301 -0.333008 6 -1h7c21.333 0 34.333 8 39 24c2 5.33301 3 23.333 3 54v299
c0 16 -3 27 -9 33s-17.333 9 -34 9c-11.333 0 -18.666 -0.333008 -21.999 -1h-8c-3.33301 -0.666992 -5.33301 -1 -6 -1c-11.333 0 -17 4.66699 -17 14s7 14 21 14h12l15 -3h9c3.33301 -0.666992 5.66602 -1 6.99902 -1c4.66699 0 13.334 1 26.001 3c2 0 5 0.333008 9 1h7
c12 0 18 -7.66699 18 -23v-7zM74 590.001c0 -25.333 -11 -38 -33 -38c-20 0 -30 12 -30 36c0 24.667 10.667 37 32 37c20.667 0 31 -11.667 31 -35zM210 590.001c0 -25.333 -11 -38 -33 -38c-19.333 0 -29 12 -29 36c0 24.667 10.333 37 31 37s31 -11.667 31 -35z" />
    <glyph glyph-name="ntilde" unicode="&#xf1;" horiz-adv-x="497" 
d="M145 437c-1.33301 -22.667 -2.00293 -40.334 -2.00293 -53.001c30.667 62 73.667 93 129 93c46.667 0 81 -19 103 -57c16 -27.333 24 -71 24 -131v-209c0 -20 2 -33.667 6 -41c5.33301 -11.333 16.333 -17 33 -17c4 0 9.66699 0.333008 17 1s13 1 17 1
c12 0 18 -4.33301 18 -13c0 -10 -6 -15 -18 -15c-1.33301 0 -8 0.666992 -20 2c4 0 -6.33301 1 -31 3c-16.667 1.33301 -29 2 -37 2h-9c-15.333 0 -33.333 -1 -54 -3c-6.66699 -0.666992 -13 -1 -19 -1c-13.333 0 -20 4.66699 -20 14c0 8.66699 6 13 18 13h5
c2 -0.666992 3.33301 -1 4 -1l15 -2c2 -0.666992 5 -1 9 -1c14.667 0 25 6 31 18s9 33.333 9 64v186c0 56.667 -8.16699 98 -24.5 124s-42.166 39 -77.499 39c-48 0 -83 -21.333 -105 -64c-14.667 -28 -22 -66 -22 -114l1 -195c0.666992 -21.333 2.33398 -35 5.00098 -41
c5.33301 -11.333 16.333 -17 33 -17c6 0 12 0.666992 18 2c3.33301 0.666992 7.66602 1 12.999 1c10.667 0 16 -4.33301 16 -13s-5.33301 -13 -16 -13c-5.33301 0 -11.666 0.666992 -18.999 2c-15.333 2.66699 -35 4 -59 4h-4c-16 0 -36 -1.66699 -60 -5
c-9.33301 -1.33301 -17.666 -2 -24.999 -2c-11.333 0 -17 5 -17 15c0 8.66699 5.66699 13 17 13c4 0 9.83301 -0.5 17.5 -1.5s13.5 -1.5 17.5 -1.5c18 0 29 10.333 33 31c1.33301 6 2 23.333 2 52v247c0 30.667 -0.666992 49.334 -2 56.001c-4.66699 22.667 -16 34 -34 34
c4 0 -3.33301 -0.666992 -22 -2c-2.66699 -0.666992 -7 -1 -13 -1c-11.333 0 -17 4.33301 -17 13c0 9.33301 5.66699 14 17 14h9c10 -2 22.667 -3 38 -3c6 0 13 0.666992 21 2c2 0 4.66699 0.333008 8 1h6c11.333 0 17 -8.33301 17 -25c0 -4 0 -5.66699 0 -5zM379.997 616
c0 -4.66699 -1.66699 -9.33203 -5 -13.999l-9 -13c-14 -20.667 -30 -31 -48 -31c-12.667 0 -33 5.33301 -61 16l-26 10c-14 5.33301 -23.333 8 -28 8c-8.66699 0 -22.334 -8.33301 -41.001 -25c-8.66699 -7.33301 -14.667 -11 -18 -11c-4 0 -6 2 -6 6
c0 7.33301 7.66699 19.666 23 36.999c14 15.333 28 23 42 23c10 0 38.333 -8.66699 85 -26c14.667 -5.33301 24.667 -8 30 -8c10.667 0 26.334 9.33301 47.001 28c4 3.33301 7.33301 5 10 5c3.33301 0 5 -1.66699 5 -5z" />
    <glyph glyph-name="ograve" unicode="&#xf2;" horiz-adv-x="423" 
d="M383 230c0 -70.667 -16.167 -128.832 -48.5 -174.499s-73.5 -68.5 -123.5 -68.5c-50.667 0 -91.834 22.167 -123.501 66.5s-47.5 102.166 -47.5 173.499c0 72.667 16.333 132.5 49 179.5s74.334 70.5 125.001 70.5c48.667 0 89 -23.5 121 -70.5s48 -105.833 48 -176.5z
M249 544.002l-10.998 6.99902l-85 59c-7.33301 4 -11 9.33301 -11 16c0 10 4.66699 15 14 15c4 0 9.66699 -2.33301 17 -7c1.33301 -1.33301 5.66602 -4.66602 12.999 -9.99902l74 -54c3.33301 -3.33301 6 -5.33301 8 -6c8.66699 -7.33301 13 -13.333 13 -18
c0 -8 -4 -12 -12 -12c-2.66699 0 -9.33398 3.33301 -20.001 10zM69.002 227.001c0 -65.333 12.832 -117.834 38.499 -157.501s59.834 -59.5 102.501 -59.5s77.5 20.833 104.5 62.5s40.5 95.834 40.5 162.501c0 63.333 -13.167 115.5 -39.5 156.5s-59.833 61.5 -100.5 61.5
c-43.333 0 -78.5 -20.833 -105.5 -62.5s-40.5 -96.167 -40.5 -163.5z" />
    <glyph glyph-name="oacute" unicode="&#xf3;" horiz-adv-x="423" 
d="M383 230c0 -70.667 -16.167 -128.832 -48.5 -174.499s-73.5 -68.5 -123.5 -68.5c-50.667 0 -91.834 22.167 -123.501 66.5s-47.5 102.166 -47.5 173.499c0 72.667 16.333 132.5 49 179.5s74.334 70.5 125.001 70.5c48.667 0 89 -23.5 121 -70.5s48 -105.833 48 -176.5z
M271 610.002l-10.001 -7l-93 -63c-6 -4 -10.333 -6 -13 -6c-8.66699 0 -13 4 -13 12c0 5.33301 4.66699 11.333 14 18c2.66699 1.33301 5.33398 3.33301 8.00098 6l73 54c1.33301 0.666992 6 4 14 10c6 4.66699 11.333 7 16 7c9.33301 0 14 -5 14 -15
c0 -6.66699 -3.33301 -12 -10 -16zM68.999 227.002c0 -65.333 12.832 -117.834 38.499 -157.501s59.834 -59.5 102.501 -59.5s77.5 20.833 104.5 62.5s40.5 95.834 40.5 162.501c0 63.333 -13.167 115.5 -39.5 156.5s-59.833 61.5 -100.5 61.5
c-43.333 0 -78.5 -20.833 -105.5 -62.5s-40.5 -96.167 -40.5 -163.5z" />
    <glyph glyph-name="ocircumflex" unicode="&#xf4;" horiz-adv-x="423" 
d="M383 230c0 -70.667 -16.167 -128.832 -48.5 -174.499s-73.5 -68.5 -123.5 -68.5c-50.667 0 -91.834 22.167 -123.501 66.5s-47.5 102.166 -47.5 173.499c0 72.667 16.333 132.5 49 179.5s74.334 70.5 125.001 70.5c48.667 0 89 -23.5 121 -70.5s48 -105.833 48 -176.5z
M292 546.002l-83.001 60l-77 -59c-10.667 -8 -18.334 -12 -23.001 -12c-8 0 -12 4 -12 12c0 3.33301 2.33301 7.33301 7 12l12 9l77 63c8.66699 7.33301 14.334 11 17.001 11c3.33301 0 8.33301 -2.66699 15 -8l83 -66c6.66699 -5.33301 10.334 -8.33301 11.001 -9
c4.66699 -3.33301 7 -7.33301 7 -12c0 -2.66699 -1.33301 -5.16699 -4 -7.5s-5.33398 -3.5 -8.00098 -3.5c-5.33301 0 -12.666 3.33301 -21.999 10zM68.999 227.002c0 -65.333 12.832 -117.834 38.499 -157.501s59.834 -59.5 102.501 -59.5s77.5 20.833 104.5 62.5
s40.5 95.834 40.5 162.501c0 63.333 -13.167 115.5 -39.5 156.5s-59.833 61.5 -100.5 61.5c-43.333 0 -78.5 -20.833 -105.5 -62.5s-40.5 -96.167 -40.5 -163.5z" />
    <glyph glyph-name="otilde" unicode="&#xf5;" horiz-adv-x="423" 
d="M383 230c0 -70.667 -16.167 -128.832 -48.5 -174.499s-73.5 -68.5 -123.5 -68.5c-50.667 0 -91.834 22.167 -123.501 66.5s-47.5 102.166 -47.5 173.499c0 72.667 16.333 132.5 49 179.5s74.334 70.5 125.001 70.5c48.667 0 89 -23.5 121 -70.5s48 -105.833 48 -176.5z
M333 616.002c0 -4 -2 -8.66699 -6 -14l-8 -13c-12.667 -20.667 -29 -31 -49 -31c-11.333 0 -31.333 5.33301 -60 16l-27 10c-14.667 5.33301 -24 8 -28 8c-7.33301 0 -22 -9.33301 -44 -28c-6 -5.33301 -10.667 -8 -14 -8c-4.66699 0 -7 2 -7 6c0 6.66699 7.66699 19 23 37
c13.333 15.333 27.333 23 42 23c9.33301 0 37.666 -8.66699 84.999 -26c14.667 -5.33301 25 -8 31 -8c10.667 0 26.334 9.33301 47.001 28c4 3.33301 7 5 9 5c4 0 6 -1.66699 6 -5zM69 227.002c0 -65.333 12.832 -117.834 38.499 -157.501s59.834 -59.5 102.501 -59.5
s77.5 20.833 104.5 62.5s40.5 95.834 40.5 162.501c0 63.333 -13.167 115.5 -39.5 156.5s-59.833 61.5 -100.5 61.5c-43.333 0 -78.5 -20.833 -105.5 -62.5s-40.5 -96.167 -40.5 -163.5z" />
    <glyph glyph-name="odieresis" unicode="&#xf6;" horiz-adv-x="423" 
d="M383 230c0 -70.667 -16.167 -128.832 -48.5 -174.499s-73.5 -68.5 -123.5 -68.5c-50.667 0 -91.834 22.167 -123.501 66.5s-47.5 102.166 -47.5 173.499c0 72.667 16.333 132.5 49 179.5s74.334 70.5 125.001 70.5c48.667 0 89 -23.5 121 -70.5s48 -105.833 48 -176.5z
M173 590.002c0 -25.333 -11 -38 -33 -38c-19.333 0 -29 12 -29 36c0 24.667 10.333 37 31 37s31 -11.667 31 -35zM310 590.002c0 -25.333 -11.333 -38 -34 -38c-19.333 0 -29 12 -29 36c0 24.667 10.667 37 32 37c20.667 0 31 -11.667 31 -35zM69 227.002
c0 -65.333 12.832 -117.834 38.499 -157.501s59.834 -59.5 102.501 -59.5s77.5 20.833 104.5 62.5s40.5 95.834 40.5 162.501c0 63.333 -13.167 115.5 -39.5 156.5s-59.833 61.5 -100.5 61.5c-43.333 0 -78.5 -20.833 -105.5 -62.5s-40.5 -96.167 -40.5 -163.5z" />
    <glyph glyph-name="divide" unicode="&#xf7;" 
d="M221 519c0 20 9.66699 30 29 30s29 -10 29 -30c0 -19.333 -9.66699 -29 -29 -29s-29 9.66699 -29 29zM221 136c0 19.333 9.66699 29 29 29s29 -9.66699 29 -29c0 -20 -9.66699 -30 -29 -30s-29 10 -29 30zM33 315v25h434v-25h-434z" />
    <glyph glyph-name="oslash" unicode="&#xf8;" horiz-adv-x="425" 
d="M219 477c25.333 0 52 -8.66797 80 -26.001l26 58c6 14 13 21 21 21c7.33301 0 11 -3 11 -9c0 -4.66699 -2.33301 -11.667 -7 -21l-32 -66c44.667 -50.667 67 -115.334 67 -194.001c0 -72.667 -16.833 -133 -50.5 -181s-76.167 -72 -127.5 -72
c-28.667 0 -57.667 9.66699 -87 29l-21 -47c-8.66699 -20 -16.667 -30 -24 -30c-8.66699 0 -13 3.33301 -13 10c0 0.666992 1.33301 3.66699 4 9c0.666992 2.66699 3 8.33398 7 17.001l27 59c-40 48.667 -60 109.334 -60 182.001c0 74 17.167 136 51.5 186
s76.833 75 127.5 75zM287 428.999c-18.667 16 -40.667 24 -66 24c-44.667 0 -81.167 -22.667 -109.5 -68s-42.5 -104 -42.5 -176c0 -64 14 -114 42 -150l4 6c10 19.333 38.667 79 86 179zM136 48.999l-5 -12.001c24.667 -18 49.667 -27 75 -27c44 0 80 22 108 66
s42 100.667 42 170c0 68.667 -16.333 123.334 -49 164.001l-6 -11c-54 -99.333 -109 -216 -165 -350z" />
    <glyph glyph-name="ugrave" unicode="&#xf9;" horiz-adv-x="497" 
d="M369 89c-21.333 -68 -68.002 -102 -140.002 -102c-54 0 -91.667 20 -113 60c-12.667 25.333 -19 73.666 -19 144.999v169v53c-3.33301 20 -14 30 -32 30h-8c-4 -0.666992 -7.33301 -1 -10 -1c-8 -1.33301 -13.333 -2 -16 -2c-12.667 0 -19 5 -19 15
c0 7.33301 5.33301 11 16 11c4.66699 0 11.5 -0.333008 20.5 -1s15.833 -1 20.5 -1s11.5 0.333008 20.5 1s15.833 1 20.5 1c10 0 15 -4.33301 15 -13v-58l-1 -30v-174c0 -64 5 -107 15 -129c16 -35.333 47.667 -53 95 -53c26 0 49.833 7.33301 71.5 22
s36.834 33.334 45.501 56.001c12 32 18 81 18 147v111c0 42.667 -2 69.5 -6 80.5s-13.333 16.5 -28 16.5c-4 0 -10.167 -0.333008 -18.5 -1s-14.5 -1 -18.5 -1c-12.667 0 -19 4.66699 -19 14c0 8 6.33301 12 19 12c4.66699 0 8.33398 -0.333008 11.001 -1
c12 -0.666992 23.667 -1 35 -1h18c4.66699 0 9 0.333008 13 1l6 1c12 0 18 -6.66699 18 -20v-18l-2 -30l-1 -37v-277c0 -42.667 11 -64 33 -64c4 0 7.33301 0.333008 10 1l30 2c11.333 0 17 -4 17 -12c0 -9.33301 -5.66699 -14 -17 -14c-4 0 -9 0.666992 -15 2
c-3.33301 -0 -8.33301 0.333008 -15 1s-11.667 1 -15 1c-6 0 -11 -0.333008 -15 -1l-11 -2h-10c-12.667 0 -19 8.33301 -19 25v65zM261.998 551l-85.001 59c-7.33301 4 -11 9.33301 -11 16c0 10 4.66699 15 14 15c4 0 9.66699 -2.33301 17 -7l13 -10l74 -54
c2.66699 -2.66699 5.33398 -4.66699 8.00098 -6c9.33301 -7.33301 14 -13.333 14 -18c0 -8 -4.33301 -12 -13 -12c-2.66699 0 -7 2 -13 6z" />
    <glyph glyph-name="uacute" unicode="&#xfa;" horiz-adv-x="497" 
d="M369 89c-21.333 -68 -68.002 -102 -140.002 -102c-54 0 -91.667 20 -113 60c-12.667 25.333 -19 73.666 -19 144.999v169v53c-3.33301 20 -14 30 -32 30h-8c-4 -0.666992 -7.33301 -1 -10 -1c-8 -1.33301 -13.333 -2 -16 -2c-12.667 0 -19 5 -19 15
c0 7.33301 5.33301 11 16 11c4.66699 0 11.5 -0.333008 20.5 -1s15.833 -1 20.5 -1s11.5 0.333008 20.5 1s15.833 1 20.5 1c10 0 15 -4.33301 15 -13v-58l-1 -30v-174c0 -64 5 -107 15 -129c16 -35.333 47.667 -53 95 -53c26 0 49.833 7.33301 71.5 22
s36.834 33.334 45.501 56.001c12 32 18 81 18 147v111c0 42.667 -2 69.5 -6 80.5s-13.333 16.5 -28 16.5c-4 0 -10.167 -0.333008 -18.5 -1s-14.5 -1 -18.5 -1c-12.667 0 -19 4.66699 -19 14c0 8 6.33301 12 19 12c4.66699 0 8.33398 -0.333008 11.001 -1
c12 -0.666992 23.667 -1 35 -1h18c4.66699 0 9 0.333008 13 1l6 1c12 0 18 -6.66699 18 -20v-18l-2 -30l-1 -37v-277c0 -42.667 11 -64 33 -64c4 0 7.33301 0.333008 10 1l30 2c11.333 0 17 -4 17 -12c0 -9.33301 -5.66699 -14 -17 -14c-4 0 -9 0.666992 -15 2
c-3.33301 -0 -8.33301 0.333008 -15 1s-11.667 1 -15 1c-6 0 -11 -0.333008 -15 -1l-11 -2h-10c-12.667 0 -19 8.33301 -19 25v65zM294.998 610l-9.00098 -7l-94 -63c-6 -4 -10.333 -6 -13 -6c-8.66699 0 -13 4 -13 12c0 4.66699 4.66699 10.667 14 18
c2.66699 1.33301 5.33398 3.33301 8.00098 6l74 54l14 10c6.66699 4.66699 11.667 7 15 7c10 0 15 -5 15 -15c0 -6.66699 -3.66699 -12 -11 -16z" />
    <glyph glyph-name="ucircumflex" unicode="&#xfb;" horiz-adv-x="497" 
d="M369 89c-21.333 -68 -68.002 -102 -140.002 -102c-54 0 -91.667 20 -113 60c-12.667 25.333 -19 73.666 -19 144.999v169v53c-3.33301 20 -14 30 -32 30h-8c-4 -0.666992 -7.33301 -1 -10 -1c-8 -1.33301 -13.333 -2 -16 -2c-12.667 0 -19 5 -19 15
c0 7.33301 5.33301 11 16 11c4.66699 0 11.5 -0.333008 20.5 -1s15.833 -1 20.5 -1s11.5 0.333008 20.5 1s15.833 1 20.5 1c10 0 15 -4.33301 15 -13v-58l-1 -30v-174c0 -64 5 -107 15 -129c16 -35.333 47.667 -53 95 -53c26 0 49.833 7.33301 71.5 22
s36.834 33.334 45.501 56.001c12 32 18 81 18 147v111c0 42.667 -2 69.5 -6 80.5s-13.333 16.5 -28 16.5c-4 0 -10.167 -0.333008 -18.5 -1s-14.5 -1 -18.5 -1c-12.667 0 -19 4.66699 -19 14c0 8 6.33301 12 19 12c4.66699 0 8.33398 -0.333008 11.001 -1
c12 -0.666992 23.667 -1 35 -1h18c4.66699 0 9 0.333008 13 1l6 1c12 0 18 -6.66699 18 -20v-18l-2 -30l-1 -37v-277c0 -42.667 11 -64 33 -64c4 0 7.33301 0.333008 10 1l30 2c11.333 0 17 -4 17 -12c0 -9.33301 -5.66699 -14 -17 -14c-4 0 -9 0.666992 -15 2
c-3.33301 -0 -8.33301 0.333008 -15 1s-11.667 1 -15 1c-6 0 -11 -0.333008 -15 -1l-11 -2h-10c-12.667 0 -19 8.33301 -19 25v65zM322.998 546l-83.001 60l-77 -59c-10.667 -8 -18.334 -12 -23.001 -12c-8 0 -12 4 -12 12c0 3.33301 2.33301 7.33301 7 12l12 9l77 63
c8.66699 7.33301 14.334 11 17.001 11c3.33301 0 8.33301 -2.66699 15 -8l83 -66c6.66699 -5.33301 10.334 -8.33301 11.001 -9c4.66699 -3.33301 7 -7.33301 7 -12c0 -2.66699 -1.33301 -5.16699 -4 -7.5s-5.33398 -3.5 -8.00098 -3.5
c-5.33301 0 -12.666 3.33301 -21.999 10z" />
    <glyph glyph-name="udieresis" unicode="&#xfc;" horiz-adv-x="497" 
d="M369 89c-21.333 -68 -68.002 -102 -140.002 -102c-54 0 -91.667 20 -113 60c-12.667 25.333 -19 73.666 -19 144.999v169v53c-3.33301 20 -14 30 -32 30h-8c-4 -0.666992 -7.33301 -1 -10 -1c-8 -1.33301 -13.333 -2 -16 -2c-12.667 0 -19 5 -19 15
c0 7.33301 5.33301 11 16 11c4.66699 0 11.5 -0.333008 20.5 -1s15.833 -1 20.5 -1s11.5 0.333008 20.5 1s15.833 1 20.5 1c10 0 15 -4.33301 15 -13v-58l-1 -30v-174c0 -64 5 -107 15 -129c16 -35.333 47.667 -53 95 -53c26 0 49.833 7.33301 71.5 22
s36.834 33.334 45.501 56.001c12 32 18 81 18 147v111c0 42.667 -2 69.5 -6 80.5s-13.333 16.5 -28 16.5c-4 0 -10.167 -0.333008 -18.5 -1s-14.5 -1 -18.5 -1c-12.667 0 -19 4.66699 -19 14c0 8 6.33301 12 19 12c4.66699 0 8.33398 -0.333008 11.001 -1
c12 -0.666992 23.667 -1 35 -1h18c4.66699 0 9 0.333008 13 1l6 1c12 0 18 -6.66699 18 -20v-18l-2 -30l-1 -37v-277c0 -42.667 11 -64 33 -64c4 0 7.33301 0.333008 10 1l30 2c11.333 0 17 -4 17 -12c0 -9.33301 -5.66699 -14 -17 -14c-4 0 -9 0.666992 -15 2
c-3.33301 -0 -8.33301 0.333008 -15 1s-11.667 1 -15 1c-6 0 -11 -0.333008 -15 -1l-11 -2h-10c-12.667 0 -19 8.33301 -19 25v65zM199.998 590c0 -25.333 -11 -38 -33 -38c-19.333 0 -29 12 -29 36c0 24.667 10.333 37 31 37s31 -11.667 31 -35zM336.998 590
c0 -25.333 -11 -38 -33 -38c-19.333 0 -29 12 -29 36c0 24.667 10.333 37 31 37s31 -11.667 31 -35z" />
    <glyph glyph-name="ydieresis" unicode="&#xff;" horiz-adv-x="417" 
d="M107 387l102.004 -370.001l112 366c6 19.333 9 32.666 9 39.999c0 13.333 -7.66699 20 -23 20c-4 0 -10 -0.333008 -18 -1s-14 -1 -18 -1c-14.667 0 -22 4.66699 -22 14c0 8 5 12 15 12c6.66699 0 13.334 -0.666992 20.001 -2c-2.66699 0 4.66602 -0.666992 21.999 -2
s25.666 -2 24.999 -2h4c5.33301 0 13.166 0.5 23.499 1.5s18.166 1.5 23.499 1.5c10.667 2 19.334 3 26.001 3c10.667 0 16 -4.33301 16 -13s-4.66699 -13 -14 -13c-0.666992 0 -2.33398 0.333008 -5.00098 1h-8c-1.33301 0.666992 -3.33301 1 -6 1
c-12 0 -21.667 -8 -29 -24l-13 -40l-111 -353c-18.667 -60 -37 -107 -55 -141c-27.333 -52 -62 -78 -104 -78c-26.667 0 -49.334 9 -68.001 27s-28 40.333 -28 67c0 36.667 13.333 55 40 55c18.667 0 28 -10.667 28 -32c0 -20.667 -8.66699 -31 -26 -31h-3
c-2 0.666992 -3.66699 1 -5 1c-3.33301 0 -5 -1.66699 -5 -5c0 -14.667 6.83301 -28.167 20.5 -40.5s29.5 -18.5 47.5 -18.5c33.333 0 63.333 27.667 90 83c14 28.667 21 51.334 21 68.001c0 8 -1.33301 16.333 -4 25l-6 20l-110 378c-8 26.667 -19 40 -33 40h-18
c-4.66699 0 -8.16699 1.33301 -10.5 4s-3.5 5.33398 -3.5 8.00098c0 7.33301 4.66699 11 14 11c4 0 7.66699 -0.333008 11 -1c18 -3.33301 33.667 -5 47 -5c9.33301 0 23 1 41 3s31.667 3 41 3c12.667 0 19 -4.33301 19 -13s-6.33301 -13 -19 -13
c-4 0 -10.333 0.333008 -19 1s-15 1 -19 1c-16 0 -24 -6 -24 -18c0 -2.66699 0.666992 -8 2 -16zM177.004 589.999c0 -25.333 -11.333 -38 -34 -38c-19.333 0 -29 12 -29 36c0 24.667 10.667 37 32 37c20.667 0 31 -11.667 31 -35zM313.004 589.999
c0 -25.333 -11 -38 -33 -38c-19.333 0 -29 12 -29 36c0 24.667 10.333 37 31 37s31 -11.667 31 -35z" />
    <glyph glyph-name="dotlessi" unicode="&#x131;" horiz-adv-x="245" 
d="M145 437c-0.666992 -4.66699 -1.00195 -11.333 -1.00195 -20v-320c0 -28.667 0.333008 -44.667 1 -48c3.33301 -18 13.666 -27 30.999 -27c7.33301 0 13.333 0.333008 18 1h10c16 0 24 -4.33301 24 -13s-6.33301 -13 -19 -13c-6.66699 0 -12.667 0.666992 -18 2
c-25.333 2.66699 -48 4 -68 4c-18.667 0 -32.334 -0.666992 -41.001 -2l-26 -4c-4 -0.666992 -8.66699 -1 -14 -1c-13.333 0 -20 4.66699 -20 14s5.66699 14 17 14c6.66699 0 14.334 -0.333008 23.001 -1c1.33301 0 3.33301 -0.333008 6 -1h7c21.333 0 34.333 8 39 24
c2 5.33301 3 23.333 3 54v299c0 16 -3 27 -9 33s-17.333 9 -34 9c-11.333 0 -18.666 -0.333008 -21.999 -1h-8c-3.33301 -0.666992 -5.66602 -1 -6.99902 -1c-10.667 0 -16 4.66699 -16 14s7 14 21 14h12l15 -3h8c4 -0.666992 6.66699 -1 8 -1c4.66699 0 13.334 1 26.001 3
c2 0 4.66699 0.333008 8 1h8c12 0 18 -7.66699 18 -23v-7z" />
    <glyph glyph-name="OE" unicode="&#x152;" horiz-adv-x="853" 
d="M453 156l-0.00292969 20.9961c-15.333 -60 -35.333 -103.333 -60 -130c-36.667 -40 -79.667 -60 -129 -60c-63.333 0 -115.333 32.5 -156 97.5s-61 148.167 -61 249.5c0 104 20.333 187.667 61 251s94.334 95 161.001 95c72.667 0 125 -35.333 157 -106
c11.333 -24 20.333 -53 27 -87v24c0 24.667 -2 63.334 -6 116.001v12c0 20 8.66699 30 26 30h19c0.666992 0 21.334 -0.333008 62.001 -1l77 -1c14.667 0 50.334 1.33301 107.001 4h10c12.667 0 20.667 -3 24 -9c2 -3.33301 3 -11.666 3 -24.999v-35l-1 -43
c0 -0.666992 0.333008 -20.334 1 -59.001l1 -56c0.666992 -4.66699 1 -9.66699 1 -15c0 -14.667 -5 -22 -15 -22s-15 11.667 -15 35c0 10 0.333008 22 1 36l2 42c0.666992 14 1 24.667 1 32c0 35.333 -2.66699 58 -8 68c-8.66699 15.333 -29.667 23 -63 23h-144
c-18 0 -30 -1.33301 -36 -4c-11.333 -4 -18 -13.333 -20 -28c-0.666992 -6.66699 -1 -16 -1 -28v-192c0 -11.333 2.33301 -18.333 7 -21s13 -4 25 -4h75c36 0 54 16 54 48c0 -1.33301 -1 17.667 -3 57v17c0 16.667 5 25 15 25s14.667 -6.33301 14 -19l-1 -18v-25l-2 -49
c-0.666992 -16 -1 -32.333 -1 -49c0 -17.333 0.333008 -33.666 1 -48.999l2 -47l1 -39l1 -24c0 -17.333 -5 -26 -15 -26s-15 9.33301 -15 28c0 10 0.5 25.167 1.5 45.5s1.5 35.5 1.5 45.5c0 37.333 -13 56 -39 56h-90c-14.667 0 -23.667 -2 -27 -6s-5 -15 -5 -33v-235
c0 -20.667 2.66699 -33.167 8 -37.5s21 -6.83301 47 -7.5l50 -1c2 0 18 0.333008 48 1h51c36.667 0.666992 59.167 6 67.5 16s12.5 37.667 12.5 83c0 6.66699 -0.5 21 -1.5 43s-1.5 39.667 -1.5 53v6c0 16.667 5.33301 25 16 25c8.66699 0 13 -8.66699 13 -26v-17
c-1.33301 -42.667 -2 -67.667 -2 -75c0 -1.33301 0.333008 -14 1 -38l1 -36c0 -4 0.333008 -9.33301 1 -16v-10c0 -22 -10.333 -33 -31 -33l-263 -3h-19c-20.667 0 -31 8.33301 -31 25c0 9.33301 0.666992 21 2 35c2 18.667 3 30.334 3 35.001
c1.33301 22.667 2 44.334 2 65.001zM80.9971 328.996c0 -94.667 17.167 -171.001 51.5 -229.001s79.166 -87 134.499 -87s99.5 28.833 132.5 86.5s49.5 135.5 49.5 233.5c0 98.667 -16.167 176.667 -48.5 234s-76.166 86 -131.499 86c-57.333 0 -103 -29.167 -137 -87.5
s-51 -137.166 -51 -236.499z" />
    <glyph glyph-name="oe" unicode="&#x153;" horiz-adv-x="717" 
d="M645 241h-260c0.666992 -66.667 8.66699 -116.334 24 -149.001c25.333 -54.667 63.333 -82 114 -82c34 0 61.667 12.167 83 36.5s34.333 58.5 39 102.5c2 16 7 24 15 24c9.33301 0 14 -5.66699 14 -17c0 -43.333 -15.5 -82.333 -46.5 -117s-65.833 -52 -104.5 -52
c-57.333 0 -100.333 26.667 -129 80c-10.667 20 -19.667 45.333 -27 76c-12.667 -48.667 -29.667 -85 -51 -109c-28 -31.333 -63 -47 -105 -47c-51.333 0 -92.666 22.333 -123.999 67s-47 103.334 -47 176.001c0 73.333 16.167 132.833 48.5 178.5s74.166 68.5 125.499 68.5
c58 0 101.667 -29.333 131 -88c8 -15.333 15.667 -38.666 23 -69.999c23.333 105.333 75 158 155 158c44.667 0 81.5 -18.833 110.5 -56.5s43.5 -85.5 43.5 -143.5c0 -16.667 -1.5 -26.834 -4.5 -30.501s-12.167 -5.5 -27.5 -5.5zM69 226
c0 -65.333 12.833 -117.668 38.5 -157.001s60.167 -59 103.5 -59c42 0 76.5 21.167 103.5 63.5s40.5 96.833 40.5 163.5c0 62.667 -13.5 114.334 -40.5 155.001s-61.167 61 -102.5 61c-42.667 0 -77.167 -20.833 -103.5 -62.5s-39.5 -96.5 -39.5 -164.5zM524 452.998
c-38.667 0 -70.333 -16.667 -95 -50s-38.667 -79 -42 -137h243c12 0 18 4.66699 18 14c0 50.667 -11.667 92.167 -35 124.5s-53 48.5 -89 48.5z" />
    <glyph glyph-name="Ydieresis" unicode="&#x178;" horiz-adv-x="517" 
d="M133 578l120.999 -266.001l139 298c4 8.66699 6 15 6 19c0 9.33301 -7 14 -21 14c-5.33301 0 -9.66602 -0.333008 -12.999 -1c-16 -1.33301 -27.333 -2 -34 -2c-13.333 0 -20 5 -20 15c0 9.33301 6.66699 14 20 14c-0.666992 0 6 -0.666992 20 -2
c28 -2.66699 48.667 -4 62 -4c10 0 24.667 1.16699 44 3.5s33.666 3.5 42.999 3.5c11.333 0 17 -4.33301 17 -13c0 -10.667 -8.66699 -16 -26 -16h-11c-10.667 1.33301 -17.667 2 -21 2c-7.33301 0 -12.833 -2 -16.5 -6s-9.5 -14.333 -17.5 -31l-13 -27l-130 -267
c-10 -21.333 -15 -44.333 -15 -69l1 -177c0.666992 -14.667 2.66699 -24.667 6 -30c4 -8 13 -12 27 -12c4 0 11.333 0.666992 22 2c2 0 4.66699 0.333008 8 1h7c15.333 0 23 -5.33301 23 -16c0 -10 -7.33301 -15 -22 -15h-6c-2.66699 0.666992 -4.66699 1 -6 1l-35 6
c-17.333 1.33301 -29 2 -35 2c-7.33301 0 -23.666 -1 -48.999 -3c-42 -3.33301 -59 -5 -51 -5c-12.667 0 -19 5 -19 15c0 9.33301 7 14 21 14c2.66699 0 8.66699 -0.666992 18 -2h16c21.333 0 34 6.66699 38 20c2.66699 8.66699 4 23.334 4 44.001v175
c0 16 -5.33301 35.333 -16 58l-139 294c-8.66699 16.667 -18.667 25 -30 25c-1.33301 0 -7.33301 -0.666992 -18 -2h-5c-2 -0.666992 -3.66699 -1 -5 -1c-14.667 0 -22 5 -22 15s6.33301 15 19 15c3.33301 0 9 -0.666992 17 -2c20.667 -3.33301 41.334 -5 62.001 -5
c13.333 0 22.666 0.666992 27.999 2l32 4c5.33301 0.666992 11.333 1 18 1c15.333 0 23 -5 23 -15c0 -9.33301 -6.33301 -14 -19 -14c-5.33301 0 -13.333 0.5 -24 1.5s-18.667 1.5 -24 1.5c-13.333 0 -20 -4.33301 -20 -13c0 -4 1.33301 -8.33301 4 -13l7 -16z
M199.999 767.999c0 -14.667 -3.66699 -26.833 -11 -36.5s-16.666 -14.5 -27.999 -14.5c-10.667 0 -19.667 4.66699 -27 14s-11 20.333 -11 33c0 33.333 12.667 50 38 50c11.333 0 20.666 -4.5 27.999 -13.5s11 -19.833 11 -32.5zM393.999 768
c0 -14.667 -3.83301 -26.833 -11.5 -36.5s-17.167 -14.5 -28.5 -14.5c-10.667 0 -19.667 4.66699 -27 14s-11 20.333 -11 33c0 14.667 3.66699 26.667 11 36s16.333 14 27 14c11.333 0 20.833 -4.33301 28.5 -13s11.5 -19.667 11.5 -33z" />
    <glyph glyph-name="florin" unicode="&#x192;" 
d="M367 478h-86.0029l-83 -482c-15.333 -94.667 -58 -142 -128 -142c-42 0 -63 18.333 -63 55c0 13.333 3.83301 24.666 11.5 33.999s16.834 14 27.501 14c16 0 24 -9 24 -27c0 -15.333 -5.66699 -25 -17 -29l-6 -2c-2.66699 -0.666992 -4 -2.33398 -4 -5.00098
c0 -10.667 10.333 -16 31 -16c34.667 0 60 15.667 76 47c11.333 22 22 66.333 32 133c2.66699 19.333 5.66699 38 9 56l64 364h-62c-1.33301 -0.666992 -3.66602 -1 -6.99902 -1c-16.667 0 -25 5.33301 -25 16c0 7.33301 7.66699 11 23 11h7l19 -1h49l4 22
c6.66699 37.333 16.667 85 30 143c18 51.333 53.333 77 106 77c44.667 0 67 -18 67 -54c0 -13.333 -3.66699 -24.666 -11 -33.999s-16.666 -14 -27.999 -14c-16 0 -24 8.66699 -24 26c0 16 6 26 18 30l6 2c2 1.33301 3 3 3 5c0 11.333 -10.333 17 -31 17
c-34 0 -59 -16 -75 -48c-14.667 -29.333 -25 -70.666 -31 -123.999l-1 -9c0 -2 -1 -8 -3 -18c0 4 -1 -3 -3 -21h103c11.333 0 17 -3.66699 17 -11c0 -10.667 -5.66699 -15.667 -17 -15z" />
    <glyph glyph-name="circumflex" unicode="&#x2c6;" 
d="M330 546l-82.0029 60l-78 -59c-10.667 -8 -18.334 -12 -23.001 -12c-8 0 -12 4 -12 12c0 3.33301 2.33301 7.33301 7 12l12 9l77 63c8.66699 7.33301 14.334 11 17.001 11c3.33301 0 8.33301 -2.66699 15 -8l83 -66c6.66699 -5.33301 10.334 -8.33301 11.001 -9
c4.66699 -2.66699 7 -6.66699 7 -12c0 -3.33301 -1.16699 -6 -3.5 -8s-5.16602 -3 -8.49902 -3c-5.33301 0 -12.666 3.33301 -21.999 10z" />
    </font>
</defs>
</svg>
