<?xml version="1.0" standalone="no"?>
<!DOCTYPE svg PUBLIC "-//W3C//DTD SVG 1.1//EN" "http://www.w3.org/Graphics/SVG/1.1/DTD/svg11.dtd" >
<svg>
<metadata>
Created by FontForge 20110222 at Mon Mar  7 11:02:41 2011
 By www-data
Copyright (c) 1800 Justus Erich W.
</metadata>
<defs>
<font id="Justus-Versalitas" horiz-adv-x="556" >
  <font-face 
    font-family="Justus"
    font-weight="400"
    font-stretch="normal"
    units-per-em="1000"
    panose-1="2 0 5 3 0 0 0 0 0 0"
    ascent="800"
    descent="-200"
    x-height="512"
    cap-height="715"
    bbox="-30 -261 1051 949"
    underline-thickness="50"
    underline-position="-75"
    unicode-range="U+0020-2122"
  />
    <missing-glyph />
    <glyph glyph-name="space" unicode=" " horiz-adv-x="278" 
 />
    <glyph glyph-name="exclam" unicode="!" horiz-adv-x="296" 
d="M162 193h-28q-3 66 -29 244.5t-26 206.5q0 34 17 55.5t52 21.5t52 -21.5t17 -55.5q0 -28 -26 -206t-29 -245zM217 62q0 -28 -20.5 -48t-48.5 -20t-48.5 20t-20.5 48t20.5 49t48.5 21t48.5 -21t20.5 -49z" />
    <glyph glyph-name="quotedbl" unicode="&#x22;" horiz-adv-x="464" 
d="M285 436l-19 182q-4 34 -4 44q0 65 45 65t45 -65q0 -10 -4 -44l-19 -182q-3 -33 -22 -33t-22 33zM135 436l-19 182q-4 34 -4 44q0 65 45 65t45 -65q0 -10 -4 -44l-19 -182q-3 -33 -22 -33t-22 33z" />
    <glyph glyph-name="numbersign" unicode="#" 
d="M492 267v-60h-111l-29 -207h-62l29 207h-128l-29 -207h-62l29 207h-102v60h111l22 160h-108v60h117l29 207h62l-29 -207h128l29 207h62l-29 -207h108v-60h-117l-22 -160h102zM350 427h-128l-22 -160h128z" />
    <glyph glyph-name="dollar" unicode="$" 
d="M262 706v94h42v-94q37 -2 74 -13t68.5 -38t31.5 -64q0 -23 -12.5 -38t-35.5 -15q-27 0 -38.5 14.5t-13.5 35.5t-5 42t-19.5 35.5t-49.5 15.5v-250q115 -54 157.5 -98t42.5 -125q0 -96 -51 -147t-149 -71v-96h-42v94q-38 2 -72 10t-66.5 23.5t-52 45t-19.5 69.5
q0 31 14 50t42 19q27 0 39.5 -16t12.5 -39q0 -11 -2 -30.5t-2 -28.5q0 -33 33.5 -51.5t72.5 -20.5v291q-115 49 -153 98.5t-38 123.5q0 73 61.5 123t129.5 51zM262 448v233q-107 -16 -107 -103q0 -46 23.5 -73t83.5 -57zM304 296v-274q59 10 96.5 42t37.5 84q0 46 -29 81
t-105 67z" />
    <glyph glyph-name="percent" unicode="%" horiz-adv-x="1000" 
d="M633 142q0 -50 25 -89.5t72 -39.5q54 0 77 42t23 101q0 53 -22.5 95.5t-71.5 42.5q-52 0 -77.5 -47.5t-25.5 -104.5zM567 156q0 72 51 117.5t123 45.5q69 0 112 -45.5t43 -114.5q0 -73 -49 -122t-122 -49q-74 0 -116 46.5t-42 121.5zM104 543q0 72 51 117.5t123 45.5
q69 0 112 -45.5t43 -114.5q0 -73 -49 -122t-122 -49q-74 0 -116 46.5t-42 121.5zM170 529q0 -50 25 -89.5t72 -39.5q54 0 77 42t23 101q0 53 -22.5 95.5t-71.5 42.5q-52 0 -77.5 -47.5t-25.5 -104.5zM251 -18l448 730h46l-449 -730h-45z" />
    <glyph glyph-name="ampersand" unicode="&#x26;" horiz-adv-x="592" 
d="M214 381l9 -14l13 11q37 37 37 75q0 46 -38 46q-19 0 -31 -13.5t-12 -36.5q0 -31 22 -68zM316 361h202v-18h-12q-65 0 -78 -65q-22 -111 -50 -154l13 -16q40 -48 67 -48q23 0 36.5 20.5t13.5 46.5q0 44 -15 72l16 7l6 -14q17 -37 17 -82q0 -51 -29.5 -86.5t-76.5 -35.5
q-60 0 -104 53l-15 -12q-50 -41 -113 -41q-70 0 -114 46.5t-44 107.5q0 56 24 89.5t71 66.5l21 15l-8 15q-18 33 -18 76q0 51 34 85.5t82 34.5q37 0 58 -18.5t21 -49.5q0 -50 -62 -92l-25 -17l128 -197q36 68 36 142q0 23 -20 37t-51 14h-11v18zM310 64l-149 229l-11 -7
q-42 -31 -42 -77q0 -45 44 -112t83 -67q25 0 58 20z" />
    <glyph glyph-name="quoteright" unicode="&#x2019;" horiz-adv-x="260" 
d="M62 403l-11 20q110 77 110 159q0 9 -2 19q-17 -12 -39 -12q-28 0 -48.5 20t-20.5 48t20.5 49t48.5 21q44 0 66.5 -37.5t22.5 -83.5q0 -60 -44.5 -116.5t-102.5 -86.5z" />
    <glyph glyph-name="parenleft" unicode="(" horiz-adv-x="407" 
d="M397 -235l-15 -26q-141 78 -217 202.5t-76 291.5t76 291.5t217 202.5l15 -26q-66 -37 -108.5 -86.5t-63 -113t-27.5 -124t-7 -144.5t7 -144.5t27.5 -124t63 -113t108.5 -86.5z" />
    <glyph glyph-name="parenright" unicode=")" horiz-adv-x="407" 
d="M10 701l15 26q141 -78 217 -202.5t76 -291.5t-76 -291.5t-217 -202.5l-15 26q66 37 108.5 86.5t63 113t27.5 124t7 144.5t-7 144.5t-27.5 124t-63 113t-108.5 86.5z" />
    <glyph glyph-name="asterisk" unicode="*" horiz-adv-x="389" 
d="M27 580q0 18 12 32t29 14q28 0 60 -32t56 -37q-2 30 -18 65t-16 49q0 18 12.5 31t31.5 13q20 0 34.5 -12t14.5 -32q0 -8 -19.5 -52.5t-18.5 -61.5q24 5 56 37t60 32q17 0 29 -14t12 -32q0 -24 -13.5 -37t-36.5 -13q-12 0 -35 6t-35 6q-9 0 -29 -6q17 -19 44.5 -35.5
t43 -30t15.5 -32.5t-13.5 -33t-32.5 -14q-28 0 -40.5 24t-19 58.5t-16.5 46.5q-10 -12 -16.5 -46.5t-19 -58.5t-40.5 -24q-19 0 -32.5 14t-13.5 33t15.5 32.5t43 30t44.5 35.5q-18 6 -28 6q-11 0 -35 -6t-35 -6q-23 0 -36.5 13t-13.5 37z" />
    <glyph glyph-name="plus" unicode="+" horiz-adv-x="600" 
d="M267 284v218h66v-218h218v-66h-218v-218h-66v218h-218v66h218z" />
    <glyph glyph-name="comma" unicode="," horiz-adv-x="278" 
d="M81 -192l-11 20q110 77 110 159q0 9 -2 19q-17 -12 -39 -12q-28 0 -48.5 20t-20.5 48t20.5 49t48.5 21q44 0 66.5 -37.5t22.5 -83.5q0 -60 -44.5 -116.5t-102.5 -86.5z" />
    <glyph glyph-name="hyphen" unicode="-" horiz-adv-x="389" 
d="M340 206h-291v60h291v-60z" />
    <glyph glyph-name="period" unicode="." horiz-adv-x="278" 
d="M208 62q0 -28 -20.5 -48t-48.5 -20t-48.5 20t-20.5 48t20.5 49t48.5 21t48.5 -21t20.5 -49z" />
    <glyph glyph-name="slash" unicode="/" horiz-adv-x="426" 
d="M-9 -12l376 739h68l-376 -739h-68z" />
    <glyph glyph-name="zero" unicode="0" 
d="M522 347q0 -90 -24.5 -169t-81.5 -134.5t-138 -55.5t-138 55.5t-81.5 134.5t-24.5 169t24.5 169t81.5 134.5t138 55.5t138 -55.5t81.5 -134.5t24.5 -169zM402 347q0 174 -27.5 251t-96.5 77t-96.5 -77t-27.5 -251t27.5 -251t96.5 -77t96.5 77t27.5 251z" />
    <glyph glyph-name="one" unicode="1" 
d="M115 476l-19 21q153 101 206 218h49v-690h109v-25h-333v25h110v551h-2q-35 -43 -120 -100z" />
    <glyph glyph-name="two" unicode="2" 
d="M181 316l-19 -22q-116 73 -116 197q0 100 69.5 157.5t171.5 57.5q92 0 150 -54.5t58 -145.5q0 -62 -41.5 -122t-102.5 -106q-155 -116 -214 -182h212q56 0 89 30.5t47 72.5l24 -9l-75 -190h-419l-3 24l158 144q46 42 72.5 69t62 71.5t53 90t17.5 93.5q0 73 -35 122.5
t-105 49.5t-114.5 -50t-44.5 -121q0 -115 105 -177z" />
    <glyph glyph-name="three" unicode="3" 
d="M126 592l-42 -94l-25 12l73 184h343l3 -24l-234 -217l2 -2q25 5 65 5q20 0 41 -4.5t47 -19t46 -38t34 -66.5t14 -98q0 -110 -63 -176t-172 -66q-160 0 -207 153l30 10q16 -62 58.5 -97t105.5 -35q41 0 68 18.5t39.5 52t16.5 64.5t4 71q0 61 -8 101.5t-23 60t-31.5 26.5
t-40.5 7q-40 0 -64 -14t-86 -71l-20 21l249 236h-223z" />
    <glyph glyph-name="four" unicode="4" 
d="M278 0v224h-261v33l237 328q66 91 85 130h47v-455h83v88h36v-213h-36v89h-83v-224h-108zM59 260h219v303h-2z" />
    <glyph glyph-name="five" unicode="5" 
d="M68 309l84 385h176q50 0 77 13t42 55l26 -9q-17 -74 -55.5 -117.5t-118.5 -43.5h-138l-39 -176l2 -2q56 70 156 70q94 0 154.5 -62t60.5 -182q0 -114 -64.5 -183t-170.5 -69q-178 0 -225 197l31 5q14 -77 59.5 -124t110.5 -47q139 0 139 206q0 34 -1.5 58.5t-9 56.5
t-20.5 52.5t-38 35t-60 14.5q-60 0 -98 -39.5t-53 -100.5z" />
    <glyph glyph-name="six" unicode="6" 
d="M165 246q0 -227 118 -227q57 0 82.5 48t25.5 154q0 31 -1 53.5t-7 55t-17 53t-32 35.5t-51 15q-118 0 -118 -187zM505 238q0 -42 -10.5 -82t-33.5 -79.5t-68 -64t-106 -24.5q-236 0 -236 333q0 71 13 134.5t42 122t84 93.5t130 35q71 0 119.5 -34t48.5 -100
q0 -21 -12 -35t-34 -14q-30 0 -41.5 17.5t-14.5 53.5q-3 45 -16 63t-52 18q-45 0 -77 -29.5t-47.5 -76.5t-21.5 -90t-6 -85h-1h2q57 81 149 81q66 0 110 -35t61.5 -86t17.5 -116z" />
    <glyph glyph-name="seven" unicode="7" 
d="M59 489l81 205h421q-126 -168 -187 -329.5t-72 -364.5h-125q55 284 272 592h-319l-47 -114z" />
    <glyph glyph-name="eight" unicode="8" 
d="M40 184q0 63 40 112t102 70q-47 20 -78 58.5t-31 85.5q0 89 64.5 142.5t155.5 53.5q75 0 134.5 -41.5t59.5 -114.5q0 -110 -116 -148v-2q67 -24 106 -74.5t39 -120.5q0 -99 -69 -158t-168 -59q-106 0 -165 46q-74 59 -74 150zM432 154q0 24 -8 45t-18.5 37t-31 32
t-35.5 25.5t-43.5 22.5t-42.5 18.5t-44 16.5q-51 -26 -71 -68t-20 -104q0 -72 43.5 -116t124.5 -44q61 0 103.5 37.5t42.5 97.5zM157 566q0 -28 11.5 -50t34.5 -37t42.5 -25t50.5 -21.5t45 -18.5q74 40 74 136q0 58 -33.5 91.5t-91.5 33.5q-54 0 -93.5 -29t-39.5 -80z" />
    <glyph glyph-name="nine" unicode="9" 
d="M390 300h-1q-57 -81 -149 -81q-66 0 -110 35t-61.5 86t-17.5 116q0 42 10.5 82t33.5 79.5t68 64t106 24.5q236 0 236 -333q0 -71 -13 -134.5t-42 -122t-84 -93.5t-130 -35q-71 0 -119.5 34t-48.5 100q0 21 12 35t34 14q30 0 41.5 -17.5t14.5 -53.5q3 -45 16 -63t52 -18
q45 0 77 29.5t47.5 76.5t21.5 90t6 85zM165 473q0 -31 1 -53.5t7 -55t17 -53t32 -35.5t51 -15q118 0 118 187q0 227 -118 227q-57 0 -82.5 -48t-25.5 -154z" />
    <glyph glyph-name="colon" unicode=":" horiz-adv-x="278" 
d="M208 62q0 -28 -20.5 -48t-48.5 -20t-48.5 20t-20.5 48t20.5 49t48.5 21t48.5 -21t20.5 -49zM208 391q0 -28 -20.5 -48t-48.5 -20t-48.5 20t-20.5 48t20.5 49t48.5 21t48.5 -21t20.5 -49z" />
    <glyph glyph-name="semicolon" unicode=";" horiz-adv-x="278" 
d="M81 -192l-11 20q110 77 110 159q0 9 -2 19q-17 -12 -39 -12q-28 0 -48.5 20t-20.5 48t20.5 49t48.5 21q44 0 66.5 -37.5t22.5 -83.5q0 -60 -44.5 -116.5t-102.5 -86.5zM208 391q0 -28 -20.5 -48t-48.5 -20t-48.5 20t-20.5 48t20.5 49t48.5 21t48.5 -21t20.5 -49z" />
    <glyph glyph-name="less" unicode="&#x3c;" horiz-adv-x="600" 
d="M551 514v-33l-457 -213l457 -212v-68l-502 229v68z" />
    <glyph glyph-name="equal" unicode="=" horiz-adv-x="600" 
d="M551 384v-66h-502v66h502zM551 184v-66h-502v66h502z" />
    <glyph glyph-name="greater" unicode="&#x3e;" horiz-adv-x="600" 
d="M49 -12v74l457 205l-457 212v35l502 -229v-68z" />
    <glyph glyph-name="question" unicode="?" horiz-adv-x="444" 
d="M202 263v-78h-30v79q0 64 46 85q59 26 77.5 60.5t18.5 112.5q0 44 -3 72t-11.5 53t-26 37t-45.5 12q-24 0 -42 -12.5t-18 -35.5q0 -12 11 -32t11 -37q0 -21 -17 -36.5t-38 -15.5q-27 0 -43 18.5t-16 46.5q0 60 50 94.5t112 34.5q84 0 131 -54.5t47 -140.5q0 -40 -7.5 -69
t-23 -49t-38.5 -35.5t-53.5 -30.5t-69.5 -34q-13 -6 -17.5 -15t-4.5 -30zM256 62q0 -28 -20.5 -48t-48.5 -20t-48.5 20t-20.5 48t20.5 49t48.5 21t48.5 -21t20.5 -49z" />
    <glyph glyph-name="at" unicode="@" horiz-adv-x="800" 
d="M326 298q0 -92 65 -92q39 0 82 67t43 158q0 68 -47 68q-46 0 -94.5 -57.5t-48.5 -143.5zM536 493l9 42h74l-68 -269q-6 -26 -6 -35q0 -8 2.5 -15.5t13 -15.5t27.5 -8q61 0 100.5 70.5t39.5 148.5q0 47 -21 95.5t-59 90t-98 68t-130 26.5q-129 0 -214.5 -95t-85.5 -266
q0 -120 87.5 -210t222.5 -90q65 0 110.5 12.5t100.5 37.5l14 -31q-130 -61 -224 -61q-80 0 -148.5 23t-114 60t-77.5 84t-46.5 94t-14.5 92q0 169 114 277.5t276 108.5q148 0 249 -90.5t101 -224.5q0 -58 -22.5 -115.5t-69.5 -99t-107 -41.5q-86 0 -92 76h-2
q-36 -42 -65.5 -59t-65.5 -17q-40 0 -69 33.5t-29 90.5q0 27 8 61t25 70.5t41 66.5t59.5 49.5t76.5 19.5q62 0 76 -54h2z" />
    <glyph glyph-name="A" unicode="A" horiz-adv-x="667" 
d="M89 25l236 702h20l231 -702h92v-25h-322v25h104l-68 224h-186l-73 -224h105v-25h-223v25h84zM373 280l-79 256h-2l-86 -256h167z" />
    <glyph glyph-name="B" unicode="B" horiz-adv-x="667" 
d="M242 375v-350h96q88 0 122 45t34 130q0 175 -140 175h-112zM242 690v-284h84q61 0 87.5 29.5t26.5 104.5q0 70 -22 110t-83 40h-93zM128 25v665h-94v25h342q104 0 144 -44t40 -119q0 -129 -154 -161v-2q102 -12 155 -56t53 -141q0 -107 -59.5 -149.5t-170.5 -42.5h-350
v25h94z" />
    <glyph glyph-name="C" unicode="C" horiz-adv-x="722" 
d="M646 669v-188h-30q-13 101 -58.5 158t-141.5 57q-57 0 -99 -20t-65.5 -50.5t-37.5 -77t-18 -90.5t-4 -100q0 -51 3 -90.5t15 -89t33.5 -82t61 -55t94.5 -22.5q98 0 153.5 68t62.5 170h30v-198q-130 -71 -249 -71q-159 0 -247.5 102t-88.5 268q0 163 95 266t255 103
q111 0 236 -58z" />
    <glyph glyph-name="D" unicode="D" horiz-adv-x="796" 
d="M232 690v-665h169q106 0 157.5 94.5t51.5 237.5q0 333 -205 333h-173zM118 25v665h-92v25h399q153 0 232 -95.5t79 -262.5q0 -72 -16 -133.5t-50 -113t-96 -81t-146 -29.5h-402v25h92z" />
    <glyph glyph-name="E" unicode="E" horiz-adv-x="704" 
d="M128 25v665h-94v25h572l6 -220h-26q-6 35 -12 59.5t-15.5 45.5t-19.5 34.5t-27.5 24.5t-35.5 16.5t-48 9t-61 4.5t-77 1h-48v-310h54q82 0 103 31t20 120h30v-340h-30q0 36 -1 55.5t-5.5 40.5t-12 30.5t-21.5 18t-33.5 11t-49.5 2.5h-54v-324h151q109 0 158 53t66 167h27
l-9 -245h-601v25h94z" />
    <glyph glyph-name="F" unicode="F" horiz-adv-x="611" 
d="M128 25v664h-94v26h572l6 -220h-26q-6 35 -12 59.5t-15.5 45.5t-19.5 34.5t-27.5 24.5t-35.5 16.5t-48 9t-61 4.5t-77 1h-48v-310h54q82 0 103 31t20 120h30v-340h-30q0 36 -1 55.5t-5.5 40.5t-12 30.5t-21.5 18t-33.5 11t-49.5 2.5h-54v-321h94v-28h-302v25h94z" />
    <glyph glyph-name="G" unicode="G" horiz-adv-x="778" 
d="M455 318v25h297v-25h-84v-259q-134 -71 -272 -71q-159 0 -247.5 102t-88.5 268q0 163 95 266t255 103q111 0 236 -58v-200h-24q-12 100 -74.5 163.5t-150.5 63.5q-205 0 -205 -338q0 -51 3 -90.5t15 -89t33.5 -82t61 -55t94.5 -22.5q75 0 118 32t43 93v174h-105z" />
    <glyph glyph-name="H" unicode="H" horiz-adv-x="778" 
d="M544 380v310h-90v25h298v-25h-94v-665h94v-25h-298v25h90v330h-310v-330h90v-25h-298v25h94v665h-94v25h298v-25h-90v-310h310z" />
    <glyph glyph-name="I" unicode="I" horiz-adv-x="370" 
d="M128 25v665h-94v25h302v-25h-94v-665h94v-25h-302v25h94z" />
    <glyph glyph-name="J" unicode="J" horiz-adv-x="463" 
d="M143 690v25h294v-25h-90v-563q0 -63 -41 -101t-133 -38q-55 0 -101 29t-46 83q0 30 15.5 49.5t48.5 19.5q19 0 34.5 -15t15.5 -37q0 -21 -10 -35t-20.5 -23t-10.5 -16q0 -24 53 -24q27 0 44 8t24.5 23.5t10 30t2.5 36.5v573h-90z" />
    <glyph glyph-name="K" unicode="K" horiz-adv-x="704" 
d="M128 25v665h-94v25h300v-25h-92v-279h70l169 279h-90v25h216v-25h-90l-129 -214l237 -451h84v-25h-297v25h78l-178 355h-70v-355h90v-25h-298v25h94z" />
    <glyph glyph-name="L" unicode="L" horiz-adv-x="667" 
d="M128 25v665h-94v25h299v-25h-91v-665h166q91 0 138.5 49t70.5 190h24v-264h-607v25h94z" />
    <glyph glyph-name="M" unicode="M" horiz-adv-x="944" 
d="M123 25v665h-97v25h230l218 -556l224 556h220v-25h-97v-665h97v-25h-317v25h112v648h-2l-274 -685h-15l-267 685h-2v-648h108v-25h-235v25h97z" />
    <glyph glyph-name="N" unicode="N" horiz-adv-x="759" 
d="M118 25v665h-92v25h229l354 -509h2v484h-108v25h230v-25h-92v-697l-19 -5l-472 679h-2v-642h110v-25h-232v25h92z" />
    <glyph glyph-name="O" unicode="O" horiz-adv-x="778" 
d="M60 357q0 69 19.5 133t58 118t103.5 86.5t148 32.5t148 -32.5t103.5 -86.5t58 -118t19.5 -133t-19.5 -133t-58 -117.5t-103.5 -86t-148 -32.5t-148 32.5t-103.5 86t-58 117.5t-19.5 133zM586 357q0 59 -3.5 103t-16 91t-33 76.5t-57.5 49t-87 19.5t-87 -19.5t-57.5 -49
t-33 -76.5t-16 -91t-3.5 -103q0 -75 7 -128t26 -104.5t60.5 -78.5t103.5 -27t103.5 27t60.5 78.5t26 104.5t7 128z" />
    <glyph glyph-name="P" unicode="P" horiz-adv-x="593" 
d="M242 690v-340h79q83 0 107 39.5t24 135.5q0 78 -28 121.5t-96 43.5h-86zM128 25v665h-94v25h330q208 0 208 -199q0 -98 -52.5 -147.5t-135.5 -49.5h-142v-294h90v-25h-298v25h94z" />
    <glyph glyph-name="Q" unicode="Q" horiz-adv-x="778" 
d="M525 -166v-25h-115q-33 0 -64 18.5t-31 57.5q0 55 -14 83.5t-59 50.5q-56 27 -95 73.5t-56.5 98.5t-24 91.5t-6.5 74.5q0 69 19.5 133t58 118t103.5 86.5t148 32.5t148 -32.5t103.5 -86.5t58 -118t19.5 -133t-19.5 -133t-58 -117.5t-103.5 -86t-148 -32.5q-42 0 -73 7
l-2 -2q43 -9 69.5 -29.5t35.5 -69.5q5 -29 19.5 -42t31.5 -15.5t55 -2.5zM192 357q0 -75 7 -128t26 -104.5t60.5 -78.5t103.5 -27t103.5 27t60.5 78.5t26 104.5t7 128q0 59 -3.5 103t-16 91t-33 76.5t-57.5 49t-87 19.5t-87 -19.5t-57.5 -49t-33 -76.5t-16 -91t-3.5 -103z
" />
    <glyph glyph-name="R" unicode="R" horiz-adv-x="648" 
d="M128 25v665h-94v25h293q107 0 162 -35.5t55 -136.5q0 -81 -44.5 -116.5t-126.5 -45.5v-2q62 -7 94.5 -16t59 -29.5t36.5 -55.5t13 -95q4 -88 17.5 -123t56.5 -35h25v-25h-73q-37 0 -60.5 7t-38.5 18t-23 37t-11.5 51.5t-6.5 74.5q-6 102 -35.5 137.5t-121.5 35.5h-63
v-336h90v-25h-298v25h94zM242 690v-298h70q118 0 118 150q0 73 -31.5 110.5t-104.5 37.5h-52z" />
    <glyph glyph-name="S" unicode="S" 
d="M54 33l-7 202h28q5 -89 63.5 -152.5t143.5 -63.5q68 0 116.5 35.5t48.5 103.5q0 53 -40 88t-97 56t-114 44.5t-97 69t-40 113.5q0 91 66.5 144.5t159.5 53.5q92 0 185 -43l6 -157h-27q-36 169 -175 169q-57 0 -97 -30.5t-40 -86.5q0 -42 28.5 -71.5t70.5 -45t92 -36.5
t92 -44t70.5 -68.5t28.5 -108.5q0 -98 -75.5 -157.5t-174.5 -59.5q-116 0 -215 45z" />
    <glyph glyph-name="T" unicode="T" horiz-adv-x="704" 
d="M295 25v659h-86q-49 0 -82 -31t-47 -73.5t-16 -93.5h-30v229h636v-229h-30q-3 81 -39 139.5t-106 58.5h-86v-659h110v-25h-334v25h110z" />
    <glyph glyph-name="U" unicode="U" horiz-adv-x="778" 
d="M118 202v488h-92v25h305v-25h-99v-475q0 -52 7 -84.5t27 -58t58 -36.5t98 -11q69 0 112 13t63 42t26.5 60.5t6.5 82.5v467h-108v25h222v-25h-84v-478q0 -57 -9.5 -93t-36.5 -66.5t-82 -44.5t-141 -14q-89 0 -144.5 13t-83 42t-36.5 63t-9 90z" />
    <glyph glyph-name="V" unicode="V" horiz-adv-x="648" 
d="M312 -12l-234 702h-82v25h304v-25h-103l167 -526h2l177 526h-103v25h212v-25h-74l-244 -702h-22z" />
    <glyph glyph-name="W" unicode="W" horiz-adv-x="1000" 
d="M278 -12l-216 702h-78v25h300v-25h-102l148 -505h2l144 505h-96v25h322v-25h-102l131 -505h2l167 505h-96v25h212v-25h-84l-238 -702h-22l-175 655h-2l-195 -655h-22z" />
    <glyph glyph-name="X" unicode="X" horiz-adv-x="722" 
d="M306 342l-190 348h-90v25h328v-25h-106l126 -240l147 240h-84v25h205v-25h-84l-168 -270l214 -395h92v-25h-324v25h102l-152 287l-176 -287h105v-25h-225v25h84z" />
    <glyph glyph-name="Y" unicode="Y" horiz-adv-x="593" 
d="M252 25v335l-187 330h-84v25h319v-25h-104l158 -292l149 292h-102v25h211v-25h-78l-168 -328v-337h92v-25h-301v25h95z" />
    <glyph glyph-name="Z" unicode="Z" horiz-adv-x="704" 
d="M102 500v215h521l-431 -690h192q66 0 111.5 17.5t70.5 51.5t36.5 73t14.5 92h24v-259h-595l430 690h-184q-46 0 -79.5 -17t-51.5 -45.5t-26.5 -60t-8.5 -67.5h-24z" />
    <glyph glyph-name="bracketleft" unicode="[" horiz-adv-x="333" 
d="M322 -249h-203v964h203v-25h-113v-914h113v-25z" />
    <glyph glyph-name="backslash" unicode="\" horiz-adv-x="426" 
d="M59 727l376 -739h-68l-376 739h68z" />
    <glyph glyph-name="bracketright" unicode="]" horiz-adv-x="333" 
d="M11 -249v25h113v914h-113v25h203v-964h-203z" />
    <glyph glyph-name="asciicircum" unicode="^" horiz-adv-x="600" 
d="M147 329h-72l193 365h64l193 -365h-72l-153 287z" />
    <glyph glyph-name="underscore" unicode="_" horiz-adv-x="500" 
d="M500 -125h-500v50h500v-50z" />
    <glyph glyph-name="quoteleft" unicode="&#x2018;" horiz-adv-x="260" 
d="M198 727l11 -20q-110 -77 -110 -159q0 -9 2 -19q17 12 39 12q28 0 48.5 -20t20.5 -48t-20.5 -49t-48.5 -21q-44 0 -66.5 37.5t-22.5 83.5q0 60 44.5 116.5t102.5 86.5z" />
    <glyph glyph-name="a" unicode="a" horiz-adv-x="574" 
d="M9 0v25h78l180 499h39l182 -499h77v-25h-269v25h90l-55 152h-160l-54 -152h84v-25h-192zM322 202l-70 196h-2l-70 -196h142z" />
    <glyph glyph-name="b" unicode="b" horiz-adv-x="574" 
d="M119 25v462h-86v25h293q72 0 107.5 -30.5t35.5 -86.5q0 -49 -29.5 -76.5t-73.5 -37.5v-2q144 -9 144 -135q0 -72 -44.5 -108t-123.5 -36h-309v25h86zM215 263v-238h75q112 0 112 123q0 59 -24.5 87t-81.5 28h-81zM215 487v-199h68q46 0 65 25t19 75q0 99 -88 99h-64z" />
    <glyph glyph-name="c" unicode="c" horiz-adv-x="574" 
d="M493 189v-151q-88 -50 -187 -50q-118 0 -185 70.5t-67 197.5t67 197.5t185 70.5q111 0 187 -39v-141h-30q-2 71 -41 113t-110 42q-84 0 -117 -58.5t-33 -184.5t33 -184.5t117 -58.5q41 0 72 16.5t47.5 44t24 56.5t7.5 59h30z" />
    <glyph glyph-name="d" unicode="d" horiz-adv-x="648" 
d="M33 0v25h86v462h-86v25h310q117 0 184 -68.5t67 -187.5t-67 -187.5t-184 -68.5h-310zM215 25h109q83 0 122.5 62.5t39.5 168.5t-39.5 168.5t-122.5 62.5h-109v-462z" />
    <glyph glyph-name="e" unicode="e" horiz-adv-x="574" 
d="M33 0v25h86v462h-86v25h449l6 -161h-30q-11 136 -128 136h-115v-210h53q45 0 59.5 24.5t14.5 83.5h24v-247h-24q0 73 -14.5 93.5t-73.5 20.5h-39v-227h93q88 0 125.5 38t46.5 119h30l-6 -182h-471z" />
    <glyph glyph-name="f" unicode="f" horiz-adv-x="536" 
d="M33 0v25h86v462h-86v25h449l6 -161h-30q-11 136 -128 136h-115v-210h53q45 0 59.5 24.5t14.5 83.5h24v-247h-24q0 73 -14.5 93.5t-73.5 20.5h-39v-227h89v-25h-271z" />
    <glyph glyph-name="g" unicode="g" horiz-adv-x="630" 
d="M493 485v-151h-30q0 68 -39.5 116.5t-111.5 48.5q-80 0 -115 -59.5t-35 -183.5q2 -124 34.5 -183.5t106.5 -59.5q50 0 84 26q29 22 29 44v140h-82v25h248v-25h-70v-180q-90 -55 -202 -55q-120 0 -188 70.5t-68 197.5t68 197.5t190 70.5q111 0 181 -39z" />
    <glyph glyph-name="h" unicode="h" horiz-adv-x="648" 
d="M33 0v25h86v462h-86v25h260v-25h-78v-210h218v210h-78v25h260v-25h-86v-462h86v-25h-260v25h78v227h-218v-227h78v-25h-260z" />
    <glyph glyph-name="i" unicode="i" horiz-adv-x="334" 
d="M33 0v25h86v462h-86v25h268v-25h-86v-462h86v-25h-268z" />
    <glyph glyph-name="j" unicode="j" horiz-adv-x="388" 
d="M82 487v25h268v-25h-86v-379q0 -120 -128 -120q-66 0 -97.5 26t-31.5 66q0 22 14.5 38t34.5 16q47 0 47 -50q0 -23 -14 -36t-14 -17q0 -18 45 -18q29 0 38.5 17.5t9.5 56.5v400h-86z" />
    <glyph glyph-name="k" unicode="k" horiz-adv-x="612" 
d="M33 0v25h86v462h-86v25h265v-25h-83v-199h44l139 199h-63v25h180v-25h-82l-106 -152l197 -310h76v-25h-263v25h67l-145 238h-44v-238h83v-25h-265z" />
    <glyph glyph-name="l" unicode="l" horiz-adv-x="536" 
d="M33 0v25h86v462h-86v25h276v-25h-94v-462h121q40 0 67.5 13.5t42 40.5t21 51.5t12.5 62.5h24v-193h-470z" />
    <glyph glyph-name="m" unicode="m" horiz-adv-x="778" 
d="M478 0v25h87v439h-2l-190 -470h-30l-194 470h-2v-439h90v-25h-204v25h84v462h-84v25h199l158 -387l159 387h196v-25h-84v-462h84v-25h-267z" />
    <glyph glyph-name="n" unicode="n" horiz-adv-x="630" 
d="M33 0v25h86v462h-86v25h199l246 -348h2v323h-90v25h207v-25h-87v-493h-30l-329 468h-2v-437h90v-25h-206z" />
    <glyph glyph-name="o" unicode="o" horiz-adv-x="612" 
d="M54 256q0 127 67 197.5t185 70.5t185 -70.5t67 -197.5t-67 -197.5t-185 -70.5t-185 70.5t-67 197.5zM168 256q0 -123 32.5 -183t105.5 -60t105.5 60t32.5 183t-32.5 183t-105.5 60t-105.5 -60t-32.5 -183z" />
    <glyph glyph-name="p" unicode="p" 
d="M33 0v25h86v462h-86v25h296q159 0 159 -138q0 -73 -37.5 -108.5t-114.5 -35.5h-121v-205h95v-25h-277zM215 487v-232h63q108 0 108 117q0 53 -21 84t-76 31h-74z" />
    <glyph glyph-name="q" unicode="q" horiz-adv-x="612" 
d="M54 256q0 127 67 197.5t185 70.5t185 -70.5t67 -197.5t-67 -197.5t-185 -70.5q-18 0 -24 2l-2 -2q42 -13 50 -47q7 -32 17.5 -43.5t32.5 -11.5q12 0 39 3v-25q-54 -9 -81 -9q-43 0 -68 12.5t-29 46.5q-2 13 -3 25t-3.5 22.5t-5.5 18.5t-9.5 14.5t-15.5 10.5
q-72 26 -111 90.5t-39 160.5zM168 256q0 -123 32.5 -183t105.5 -60t105.5 60t32.5 183t-32.5 183t-105.5 60t-105.5 -60t-32.5 -183z" />
    <glyph glyph-name="r" unicode="r" horiz-adv-x="593" 
d="M215 283h61q84 0 84 107q0 43 -19 70t-60 27h-66v-204zM33 0v25h86v462h-86v25h281q72 0 110 -24.5t38 -90.5q0 -106 -112 -120v-2q64 0 96 -27t36 -98q5 -77 15.5 -101t47.5 -24h26v-25h-90q-54 0 -74.5 30.5t-20.5 107.5q0 67 -22.5 93.5t-73.5 26.5h-75v-233h86v-25
h-268z" />
    <glyph glyph-name="s" unicode="s" horiz-adv-x="462" 
d="M56 31v138h30q6 -73 45.5 -114.5t93.5 -41.5q49 0 76 29t27 68q0 36 -16 56t-52 32l-109 40q-38 14 -64 46.5t-26 82.5q0 71 44.5 114t122.5 43q86 0 146 -30l6 -121h-33q-6 55 -35 90.5t-85 35.5q-43 0 -68.5 -26.5t-25.5 -62.5q0 -31 17 -49t56 -32l95 -34
q105 -38 105 -134q0 -75 -47 -124t-136 -49q-102 0 -167 43z" />
    <glyph glyph-name="t" unicode="t" horiz-adv-x="500" 
d="M111 0v25h91v462h-47q-59 0 -85 -39.5t-26 -101.5h-30v166h472v-166h-30q0 62 -26 101.5t-85 39.5h-47v-462h91v-25h-278z" />
    <glyph glyph-name="u" unicode="u" horiz-adv-x="630" 
d="M35 487v25h264v-25h-87v-346q0 -68 35.5 -95t102.5 -27q69 0 101.5 30.5t32.5 105.5v332h-86v25h197v-25h-81v-329q0 -95 -43.5 -132.5t-148.5 -37.5q-118 0 -162 36t-44 124v339h-81z" />
    <glyph glyph-name="v" unicode="v" horiz-adv-x="574" 
d="M7 487v25h265v-25h-84l135 -369h2l128 369h-87v25h201v-25h-81l-179 -493h-38l-189 493h-73z" />
    <glyph glyph-name="w" unicode="w" horiz-adv-x="852" 
d="M567 -6l-139 448h-2l-139 -448h-35l-161 493h-77v25h265v-25h-86l109 -343h2l108 343h-86v25h274v-25h-86l106 -349h2l114 349h-84v25h186v-25h-72l-164 -493h-35z" />
    <glyph glyph-name="x" unicode="x" 
d="M280 0v25h89l-119 193l-136 -193h90v-25h-204v25h75l157 220l-152 242h-64v25h263v-25h-85l99 -159l114 159h-78v25h192v-25h-78l-134 -185l174 -277h73v-25h-276z" />
    <glyph glyph-name="y" unicode="y" 
d="M146 0v25h88v225l-147 237h-74v25h275v-25h-87l121 -203l113 203h-87v25h195v-25h-75l-138 -245v-217h88v-25h-272z" />
    <glyph glyph-name="z" unicode="z" 
d="M75 353v159h420v-5l-332 -482h135q78 0 118.5 38.5t44.5 127.5h30v-191h-452v6l328 481h-132q-64 0 -95 -29.5t-35 -104.5h-30z" />
    <glyph glyph-name="braceleft" unicode="{" horiz-adv-x="333" 
d="M119 -92v198q0 56 -21.5 84t-83.5 43q62 15 83.5 43t21.5 84v198q0 94 48 125.5t152 31.5v-19q-62 -7 -86 -38.5t-24 -92.5v-188q0 -63 -19 -96t-72 -47v-2q53 -14 72 -47t19 -96v-188q0 -61 24 -92.5t86 -38.5v-19q-104 0 -152 31.5t-48 125.5z" />
    <glyph glyph-name="bar" unicode="|" horiz-adv-x="222" 
d="M78 -214v1000h66v-1000h-66z" />
    <glyph glyph-name="braceright" unicode="}" horiz-adv-x="333" 
d="M214 106v-198q0 -94 -48 -125.5t-152 -31.5v19q62 7 86 38.5t24 92.5v188q0 63 19 96t72 47v2q-53 14 -72 47t-19 96v188q0 61 -24 92.5t-86 38.5v19q104 0 152 -31.5t48 -125.5v-198q0 -56 21 -84t83 -42l1 -2q-62 -14 -83.5 -42t-21.5 -84z" />
    <glyph glyph-name="asciitilde" unicode="~" horiz-adv-x="600" 
d="M495 320l36 -49q-20 -27 -33 -42t-38 -29.5t-54 -14.5q-42 0 -102 33q-59 33 -115 33q-52 0 -84 -69l-36 49q45 86 125 86q39 0 111 -32q79 -34 102 -34q19 0 36 11.5t27 23.5t25 34z" />
    <glyph glyph-name="exclamdown" unicode="&#xa1;" horiz-adv-x="296" 
d="M134 308h28q3 -66 29 -244.5t26 -206.5q0 -34 -17 -55.5t-52 -21.5t-52 21.5t-17 55.5q0 28 26 206t29 245zM79 440q0 28 20.5 48t48.5 20t48.5 -20t20.5 -48t-20.5 -49t-48.5 -21t-48.5 21t-20.5 49z" />
    <glyph glyph-name="cent" unicode="&#xa2;" 
d="M286 -117v106q-102 6 -160 79t-58 180q0 98 60 169t158 82v108h36v-105q67 -1 124.5 -41t57.5 -105q0 -50 -56 -50q-27 0 -36.5 14t-9.5 42q0 58 -19.5 85t-60.5 30v-458q73 0 111.5 36t63.5 108l22 -8q-57 -160 -197 -167v-105h-36zM286 24v451q-104 -18 -104 -230
q0 -191 104 -221z" />
    <glyph glyph-name="sterling" unicode="&#xa3;" 
d="M32 353v31h117q-7 34 -7 65q0 100 70.5 178.5t169.5 78.5q46 0 88 -24.5t42 -67.5q0 -20 -14.5 -34t-34.5 -14q-24 0 -39 17t-21 37.5t-23 37.5t-45 17q-35 0 -63 -26.5t-28 -80.5t33 -184h170v-31h-163q8 -40 8 -65q0 -102 -93 -220q49 -12 131 -12q87 0 136.5 37
t49.5 108v35h30v-69q0 -31 -8.5 -62t-28 -62.5t-58.5 -51t-92 -19.5q-110 0 -181 74q-57 -52 -110 -52q-21 0 -36 11.5t-15 32.5q0 52 71 52q27 0 82 -19q26 40 26 97q0 46 -39 185h-125z" />
    <glyph glyph-name="yen" unicode="&#xa5;" 
d="M237 25v197h-150v31h150v100h-150v31h138l-155 285h-84v25h291v-25h-100l141 -283l144 283h-84v25h192v-25h-78l-147 -285h141v-31h-147v-100h147v-31h-147v-197h98v-25h-301v25h101z" />
    <glyph glyph-name="florin" unicode="&#x192;" 
d="M136 349l4 31h95l16 85q17 94 70.5 167.5t132.5 73.5q37 0 66 -22t29 -61q0 -23 -13 -40.5t-35 -17.5q-19 0 -33.5 11.5t-14.5 32.5q0 13 8 28.5t8 21.5q0 10 -9.5 16t-21.5 6q-60 0 -86 -176l-19 -125h95l-4 -31h-94q-17 -118 -32 -197t-36.5 -149.5t-47.5 -110.5
t-62.5 -62.5t-84.5 -22.5q-37 0 -62.5 24.5t-25.5 60.5q0 24 13.5 40t37.5 16q20 0 32.5 -12.5t12.5 -30.5q0 -14 -8 -31.5t-8 -22.5q0 -9 8.5 -14t18.5 -5q35 0 58 48.5t44 183.5l44 285h-96z" />
    <glyph glyph-name="section" unicode="&#xa7;" 
d="M71 456q0 117 63.5 194t171.5 77q68 0 118.5 -37.5t50.5 -97.5q0 -54 -50 -54q-28 0 -40 15t-12 36q0 12 4.5 29t4.5 25q0 26 -22 39.5t-52 13.5q-57 0 -92 -31.5t-35 -87.5q0 -33 17.5 -62.5t46 -54t63 -50.5t68.5 -58.5t62.5 -70.5t46 -93t17.5 -121
q0 -122 -66.5 -204.5t-185.5 -82.5q-75 0 -128.5 39.5t-53.5 112.5q0 22 15 37.5t37 15.5q25 0 37.5 -16.5t12.5 -41.5q0 -9 -1 -24.5t-1 -23.5q0 -36 24.5 -52t62.5 -16q62 0 103.5 35.5t41.5 98.5q0 39 -24.5 74.5t-61 62t-79 62.5t-79 74.5t-61 100.5t-24.5 137zM113 473
q0 -51 18 -94t46.5 -73.5t62.5 -58t68.5 -54t63 -55t46.5 -68t18 -86.5q0 -20 -2 -44h2q9 19 13 48q5 30 5 54q0 57 -17.5 104t-45 79t-61.5 60.5t-67.5 54.5t-61 52.5t-45 62.5t-17.5 78q0 30 13 82l-2 2q-37 -67 -37 -144z" />
    <glyph glyph-name="currency" unicode="&#xa4;" 
d="M71 96l-44 44l57 57q-54 55 -54 150t54 150l-57 57l44 44l56 -56q63 52 151 52t151 -52l56 56l44 -44l-57 -57q54 -55 54 -150t-54 -150l57 -57l-44 -44l-56 56q-63 -52 -151 -52t-151 52zM96 347q0 -77 53.5 -132t128.5 -55t128.5 55t53.5 132t-53.5 132t-128.5 55
t-128.5 -55t-53.5 -132z" />
    <glyph glyph-name="quotesingle" unicode="'" horiz-adv-x="260" 
d="M108 436l-19 182q-4 34 -4 44q0 65 45 65t45 -65q0 -10 -4 -44l-19 -182q-3 -33 -22 -33t-22 33z" />
    <glyph glyph-name="quotedblleft" unicode="&#x201c;" horiz-adv-x="464" 
d="M195 727l11 -20q-110 -77 -110 -159q0 -9 2 -19q17 12 39 12q28 0 48.5 -20t20.5 -48t-20.5 -49t-48.5 -21q-44 0 -66.5 37.5t-22.5 83.5q0 60 44.5 116.5t102.5 86.5zM405 727l11 -20q-110 -77 -110 -159q0 -9 2 -19q17 12 39 12q28 0 48.5 -20t20.5 -48t-20.5 -49
t-48.5 -21q-44 0 -66.5 37.5t-22.5 83.5q0 60 44.5 116.5t102.5 86.5z" />
    <glyph glyph-name="guillemotleft" unicode="&#xab;" horiz-adv-x="426" 
d="M205 64l-173 157v34l167 153l23 -21l-94 -153l100 -149zM371 64l-173 157v34l167 153l23 -21l-94 -153l100 -149z" />
    <glyph glyph-name="guilsinglleft" unicode="&#x2039;" horiz-adv-x="278" 
d="M214 64l-173 157v34l167 153l23 -21l-94 -153l100 -149z" />
    <glyph glyph-name="guilsinglright" unicode="&#x203a;" horiz-adv-x="278" 
d="M64 408l173 -157v-34l-167 -153l-23 21l94 153l-100 149z" />
    <glyph glyph-name="endash" unicode="&#x2013;" horiz-adv-x="500" 
d="M0 209v54h500v-54h-500z" />
    <glyph glyph-name="dagger" unicode="&#x2020;" horiz-adv-x="462" 
d="M20 436q0 18 11.5 33t34.5 15q18 0 72 -16q52 -16 75 -16q-1 36 -20 107t-19 108q0 28 14.5 44t42.5 16t42.5 -16t14.5 -44q0 -37 -19 -108t-20 -107q22 0 75.5 16t71.5 16q23 0 34.5 -15t11.5 -33t-11.5 -33t-34.5 -15q-19 0 -72 16t-75 17q0 -81 22.5 -239t22.5 -237
q0 -89 -63 -89t-63 89q0 79 22.5 237t22.5 239q-20 0 -75 -17q-54 -16 -72 -16q-23 0 -34.5 15t-11.5 33z" />
    <glyph glyph-name="daggerdbl" unicode="&#x2021;" horiz-adv-x="462" 
d="M231 -144q-28 0 -42.5 16t-14.5 44q0 37 19 108t20 107q-22 0 -75.5 -16t-71.5 -16q-23 0 -34.5 15t-11.5 33t11.5 33t34.5 15q19 0 72 -16t75 -17q1 19 -8.5 63.5t-9.5 66.5q0 26 10.5 71t7.5 58q-20 0 -75 -17q-54 -16 -72 -16q-23 0 -34.5 15t-11.5 33t11.5 33
t34.5 15q18 0 72 -16q52 -16 75 -16q-1 36 -20 107t-19 108q0 28 14.5 44t42.5 16t42.5 -16t14.5 -44q0 -37 -19 -108t-20 -107q22 0 75.5 16t71.5 16q23 0 34.5 -15t11.5 -33t-11.5 -33t-34.5 -15q-19 0 -72 16t-75 17q-3 -13 7.5 -58t10.5 -71q0 -22 -9.5 -66.5
t-8.5 -63.5q22 1 75 17t72 16q23 0 34.5 -15t11.5 -33t-11.5 -33t-34.5 -15q-18 0 -71.5 16t-75.5 16q1 -36 20 -107t19 -108q0 -28 -14.5 -44t-42.5 -16z" />
    <glyph glyph-name="periodcentered" unicode="&#xb7;" horiz-adv-x="278" 
d="M79 308q0 25 17.5 42.5t42.5 17.5t42.5 -17.5t17.5 -42.5t-17.5 -42.5t-42.5 -17.5t-42.5 17.5t-17.5 42.5z" />
    <glyph glyph-name="paragraph" unicode="&#xb6;" horiz-adv-x="593" 
d="M491 698v-550q0 -194 -104 -272q-83 -60 -188 -60q-38 0 -63.5 10.5t-36.5 27t-14.5 28.5t-3.5 22q0 24 14.5 37.5t38.5 13.5q19 0 30.5 -8t11.5 -22q0 -5 -6 -27t-6 -25q0 -11 7.5 -20t24.5 -9q18 0 42 17.5t40 57.5q21 55 21 229v142q-92 2 -149 24q-53 21 -88.5 73
t-35.5 117q0 60 30 108t82 71q64 29 176 29h255v-14h-78zM405 148v550h-91v-550q0 -162 -20.5 -231t-93.5 -87q48 2 84.5 16.5t58 41.5t35 54t19 68.5t7 68.5t1.5 69z" />
    <glyph glyph-name="bullet" unicode="&#x2022;" horiz-adv-x="500" 
d="M71 357q0 74 52.5 126.5t126.5 52.5t126.5 -52.5t52.5 -126.5t-52.5 -126t-126.5 -52t-126.5 52t-52.5 126z" />
    <glyph glyph-name="quotesinglbase" unicode="&#x201a;" horiz-adv-x="260" 
d="M62 -192l-11 20q110 77 110 159q0 9 -2 19q-17 -12 -39 -12q-28 0 -48.5 20t-20.5 48t20.5 49t48.5 21q44 0 66.5 -37.5t22.5 -83.5q0 -60 -44.5 -116.5t-102.5 -86.5z" />
    <glyph glyph-name="quotedblbase" unicode="&#x201e;" horiz-adv-x="464" 
d="M269 -192l-11 20q110 77 110 159q0 9 -2 19q-17 -12 -39 -12q-28 0 -48.5 20t-20.5 48t20.5 49t48.5 21q44 0 66.5 -37.5t22.5 -83.5q0 -60 -44.5 -116.5t-102.5 -86.5zM59 -192l-11 20q110 77 110 159q0 9 -2 19q-17 -12 -39 -12q-28 0 -48.5 20t-20.5 48t20.5 49
t48.5 21q44 0 66.5 -37.5t22.5 -83.5q0 -60 -44.5 -116.5t-102.5 -86.5z" />
    <glyph glyph-name="quotedblright" unicode="&#x201d;" horiz-adv-x="464" 
d="M269 403l-11 20q110 77 110 159q0 9 -2 19q-17 -12 -39 -12q-28 0 -48.5 20t-20.5 48t20.5 49t48.5 21q44 0 66.5 -37.5t22.5 -83.5q0 -60 -44.5 -116.5t-102.5 -86.5zM59 403l-11 20q110 77 110 159q0 9 -2 19q-17 -12 -39 -12q-28 0 -48.5 20t-20.5 48t20.5 49t48.5 21
q44 0 66.5 -37.5t22.5 -83.5q0 -60 -44.5 -116.5t-102.5 -86.5z" />
    <glyph glyph-name="guillemotright" unicode="&#xbb;" horiz-adv-x="426" 
d="M221 408l173 -157v-34l-167 -153l-23 21l94 153l-100 149zM55 408l173 -157v-34l-167 -153l-23 21l94 153l-100 149z" />
    <glyph glyph-name="ellipsis" unicode="&#x2026;" horiz-adv-x="1000" 
d="M236 62q0 -28 -20.5 -48t-48.5 -20t-48.5 20t-20.5 48t20.5 49t48.5 21t48.5 -21t20.5 -49zM569 62q0 -28 -20.5 -48t-48.5 -20t-48.5 20t-20.5 48t20.5 49t48.5 21t48.5 -21t20.5 -49zM902 62q0 -28 -20.5 -48t-48.5 -20t-48.5 20t-20.5 48t20.5 49t48.5 21t48.5 -21
t20.5 -49z" />
    <glyph glyph-name="perthousand" unicode="&#x2030;" horiz-adv-x="1000" 
d="M343 148q0 70 41.5 117t109.5 47q62 0 100 -42.5t38 -106.5q0 -69 -41 -122t-111 -53q-63 0 -100 48t-37 112zM403 145q0 -27 7 -55.5t27 -52.5t50 -24t50 24.5t27.5 53.5t7.5 57q0 139 -83 139q-45 0 -65.5 -41t-20.5 -101zM32 542q0 70 41.5 117t109.5 47
q62 0 100 -42.5t38 -106.5q0 -69 -41 -122t-111 -53q-63 0 -100 48t-37 112zM92 539q0 -27 7 -55.5t27 -52.5t50 -24t50 24.5t27.5 53.5t7.5 57q0 139 -83 139q-44 0 -65 -41t-21 -101zM679 148q0 70 41.5 117t109.5 47q62 0 100 -42.5t38 -106.5q0 -69 -41 -122t-111 -53
q-63 0 -100 48t-37 112zM739 145q0 -27 7 -55.5t27 -52.5t50 -24t50 24.5t27.5 53.5t7.5 57q0 139 -83 139q-45 0 -65.5 -41t-20.5 -101zM83 -21l447 736h46l-447 -736h-46z" />
    <glyph glyph-name="questiondown" unicode="&#xbf;" horiz-adv-x="444" 
d="M242 238v78h30v-79q0 -64 -46 -85q-59 -26 -77.5 -60.5t-18.5 -112.5q0 -44 3 -72t11.5 -53t26 -37t45.5 -12q24 0 42 12.5t18 35.5q0 11 -11 31t-11 38q0 21 17 36.5t38 15.5q27 0 43 -18.5t16 -46.5q0 -60 -50 -94.5t-112 -34.5q-84 0 -131 54.5t-47 140.5q0 40 7.5 69
t23 49t38.5 35.5t53.5 30.5t69.5 34q13 6 17.5 15t4.5 30zM188 440q0 28 20.5 48t48.5 20t48.5 -20t20.5 -48t-20.5 -49t-48.5 -21t-48.5 21t-20.5 49z" />
    <glyph glyph-name="grave" unicode="`" horiz-adv-x="278" 
d="M215 563h-46l-156 97q-26 17 -26 37q0 17 12.5 29t27.5 12q19 0 49 -30z" />
    <glyph glyph-name="acute" unicode="&#xb4;" horiz-adv-x="278" 
d="M109 563h-46l139 145q30 30 49 30q15 0 27.5 -12t12.5 -29q0 -20 -26 -37z" />
    <glyph glyph-name="circumflex" unicode="&#x2c6;" horiz-adv-x="278" 
d="M-19 563l123 170h70l123 -170h-39l-119 104l-119 -104h-39z" />
    <glyph glyph-name="tilde" unicode="&#x2dc;" horiz-adv-x="278" 
d="M2 586h-32q8 47 33.5 80t68.5 33q29 0 83 -23t73 -23q18 0 31 13.5t17 33.5h32q-8 -47 -33.5 -80t-68.5 -33q-29 0 -83 23t-73 23q-18 0 -31 -13.5t-17 -33.5z" />
    <glyph glyph-name="macron" unicode="&#xaf;" horiz-adv-x="278" 
d="M0 604v60h278v-60h-278z" />
    <glyph glyph-name="dieresis" unicode="&#xa8;" horiz-adv-x="278" 
d="M185 629q0 23 15.5 38.5t38.5 15.5t38.5 -15.5t15.5 -38.5t-15.5 -38.5t-38.5 -15.5t-38.5 15.5t-15.5 38.5zM-15 629q0 23 15.5 38.5t38.5 15.5t38.5 -15.5t15.5 -38.5t-15.5 -38.5t-38.5 -15.5t-38.5 15.5t-15.5 38.5z" />
    <glyph glyph-name="cedilla" unicode="&#xb8;" horiz-adv-x="278" 
d="M88 -97l43 97h37l-27 -64q17 5 34 5q32 0 56 -18.5t24 -54.5q0 -88 -127 -88q-38 0 -83 17l13 30q30 -11 63 -11q56 0 56 39q0 23 -13 33.5t-31 10.5q-19 0 -31 -5z" />
    <glyph glyph-name="emdash" unicode="&#x2014;" horiz-adv-x="1000" 
d="M130 209v54h740v-54h-740z" />
    <glyph glyph-name="AE" unicode="&#xc6;" horiz-adv-x="1000" 
d="M430 280v410h-2l-208 -410h210zM57 25l334 665h-90v25h601l6 -220h-26q-6 35 -12 59.5t-15.5 45.5t-19.5 34.5t-27.5 24.5t-35.5 16.5t-48 9t-61 4.5t-77 1h-48v-310h54q82 0 103 31t20 120h30v-340h-30q0 36 -1 55.5t-5.5 40.5t-12 30.5t-21.5 18t-33.5 11t-49.5 2.5
h-54v-324h151q109 0 158 53t66 167h27l-9 -245h-597v25h96v224h-225l-113 -224h99v-25h-212v25h78z" />
    <glyph glyph-name="ordfeminine" unicode="&#xaa;" horiz-adv-x="361" 
d="M284 629v-153q0 -36 10.5 -45t40.5 -8v-19h-49q-32 0 -48.5 7.5t-23.5 32.5q-33 -46 -104 -46q-45 0 -64.5 22t-19.5 65q0 24 8 41t24.5 26t28.5 12.5t32 7.5l27 6q39 9 66 20q0 52 -8.5 70.5t-36.5 18.5q-26 0 -38 -9t-13 -35q0 -18 -7.5 -25t-28.5 -7q-30 0 -30 23
q0 39 34.5 55.5t80.5 16.5q119 0 119 -77zM212 571l-62 -17q-25 -8 -35.5 -25.5t-10.5 -51.5q0 -54 37 -54q34 0 52.5 32t18.5 68v48z" />
    <glyph glyph-name="Oslash" unicode="&#xd8;" horiz-adv-x="778" 
d="M207 183l354 387q-42 126 -172 126q-50 0 -87 -19.5t-57.5 -49t-33 -76.5t-16 -91t-3.5 -103q0 -109 15 -174zM571 533l-354 -386q40 -128 172 -128q62 0 103.5 27t60.5 78.5t26 104.5t7 128q0 110 -15 176zM54 16l83 91q-77 102 -77 250q0 69 19.5 133t58 118
t103.5 86.5t148 32.5q143 0 230 -94l81 88l24 -21l-84 -91q78 -102 78 -252q0 -69 -19.5 -133t-58 -117.5t-103.5 -86t-148 -32.5q-142 0 -231 94l-81 -88z" />
    <glyph glyph-name="OE" unicode="&#x152;" horiz-adv-x="1111" 
d="M60 357q0 67 19 129.5t57 116t103.5 86t149.5 32.5q48 0 102 -3q105 -3 108 -3h414l6 -220h-26q-6 35 -12 59.5t-15.5 45.5t-19.5 34.5t-27.5 24.5t-35.5 16.5t-48 9t-61 4.5t-77 1h-48v-310h54q82 0 103 31t20 120h30v-340h-30q0 36 -1 55.5t-5.5 40.5t-12 30.5
t-21.5 18t-33.5 11t-49.5 2.5h-54v-324h151q109 0 158 53t66 167h27l-9 -245h-448q-58 0 -110 -3l-102 -3q-81 0 -144.5 31.5t-101 84t-57 115.5t-19.5 132zM541 219v284q0 99 -32 143t-120 44q-50 0 -87 -19t-57.5 -49t-33 -76t-16 -89t-3.5 -100t3.5 -100t16 -89t33 -75.5
t57.5 -48.5t87 -19q87 0 119.5 43.5t32.5 150.5z" />
    <glyph glyph-name="ordmasculine" unicode="&#xba;" horiz-adv-x="373" 
d="M34 552q0 64 42 109t111 45t110.5 -45t41.5 -109q0 -63 -41.5 -108.5t-110.5 -45.5t-111 45.5t-42 108.5zM112 552q0 -68 17 -101.5t58 -33.5q40 0 57 33.5t17 101.5q0 71 -16.5 103t-57.5 32t-58 -33t-17 -102z" />
    <glyph glyph-name="ae" unicode="&#xe6;" horiz-adv-x="834" 
d="M90 25l241 462h-78v25h489l6 -161h-30q-11 136 -128 136h-115v-210h53q45 0 59.5 24.5t14.5 83.5h24v-247h-24q0 73 -14.5 93.5t-73.5 20.5h-39v-227h93q88 0 125.5 38t46.5 119h30l-6 -182h-471v25h86v159h-172l-83 -159h90v-25h-200v25h76zM379 209v278h-18l-141 -278
h159z" />
    <glyph glyph-name="oslash" unicode="&#xf8;" horiz-adv-x="612" 
d="M178 142l246 268q-30 89 -118 89q-73 0 -105.5 -60t-32.5 -183q0 -68 10 -114zM435 370l-247 -266q30 -91 118 -91q73 0 105.5 60t32.5 183q0 66 -9 114zM58 12l54 59q-58 70 -58 185q0 127 67 197.5t185 70.5q106 0 171 -57l53 57l24 -24l-53 -58q57 -69 57 -186
q0 -127 -67 -197.5t-185 -70.5q-107 0 -171 58l-53 -58z" />
    <glyph glyph-name="oe" unicode="&#x153;" horiz-adv-x="870" 
d="M509 487v-210h55q45 0 59.5 24.5t14.5 83.5h24v-247h-24q0 73 -14.5 93.5t-73.5 20.5h-41v-227h95q88 0 125.5 38t46.5 119h30l-6 -182h-381q-27 0 -56 -3l-57 -3q-118 0 -185 70.5t-67 195.5q0 120 67.5 189t184.5 69q30 0 62 -3q9 0 27 -1.5t24 -1.5h359l6 -161h-30
q-11 136 -128 136h-117zM419 160v196q0 70 -26.5 103.5t-86.5 33.5q-79 0 -108.5 -56.5t-29.5 -176.5q0 -126 29.5 -183.5t108.5 -57.5q59 0 86 35t27 106z" />
    <glyph glyph-name="germandbls" unicode="&#xdf;" horiz-adv-x="924" 
d="M56 31v138h30q6 -73 45.5 -114.5t93.5 -41.5q49 0 76 29t27 68q0 36 -16 56t-52 32l-109 40q-38 14 -64 46.5t-26 82.5q0 71 44.5 114t122.5 43q86 0 146 -30l6 -121h-33q-6 55 -35 90.5t-85 35.5q-43 0 -68.5 -26.5t-25.5 -62.5q0 -31 17 -49t56 -32l95 -34
q105 -38 105 -134q0 -75 -47 -124t-136 -49q-102 0 -167 43zM518 31v138h30q6 -73 45.5 -114.5t93.5 -41.5q49 0 76 29t27 68q0 36 -16 56t-52 32l-109 40q-38 14 -64 46.5t-26 82.5q0 71 44.5 114t122.5 43q86 0 146 -30l6 -121h-33q-6 55 -35 90.5t-85 35.5
q-43 0 -68.5 -26.5t-25.5 -62.5q0 -31 17 -49t56 -32l95 -34q105 -38 105 -134q0 -75 -47 -124t-136 -49q-102 0 -167 43z" />
    <glyph glyph-name="divide" unicode="&#xf7;" horiz-adv-x="600" 
d="M551 218h-502v66h502v-66zM369 56q0 -28 -20.5 -48t-48.5 -20t-48.5 20t-20.5 48t20.5 49t48.5 21t48.5 -21t20.5 -49zM369 444q0 -28 -20.5 -48t-48.5 -20t-48.5 20t-20.5 48t20.5 49t48.5 21t48.5 -21t20.5 -49z" />
    <glyph glyph-name="threequarters" unicode="&#xbe;" horiz-adv-x="834" 
d="M686 424h33v-268h54v50h24v-128h-24v53h-54v-131h-72v131h-169v20l153 197q43 55 55 76zM647 320h-2l-125 -164h127v164zM630 715h46l-447 -736h-46zM100 700h224l4 -13l-152 -131l1 -2q17 3 42 3q53 0 86 -35t33 -101q0 -67 -41 -106t-114 -39q-55 0 -86.5 23.5
t-49.5 68.5l21 13q10 -38 37 -59t66 -21q50 0 66.5 34t16.5 95q0 20 -0.5 30.5t-3.5 26.5t-9 24t-18 14.5t-30 6.5q-28 0 -46 -9.5t-54 -41.5l-16 22l159 129v2h-139l-27 -50l-18 7z" />
    <glyph glyph-name="onequarter" unicode="&#xbc;" horiz-adv-x="834" 
d="M617 0v131h-169v20l153 197q43 55 55 76h33v-268h54v50h24v-128h-24v53h-54v-131h-72zM490 156h127v164h-2zM153 -21l447 736h46l-447 -736h-46zM69 282v19h68v310h-1q-21 -23 -75 -56l-13 16q99 61 134 135h33v-405h70v-19h-216z" />
    <glyph glyph-name="onesuperior" unicode="&#xb9;" horiz-adv-x="361" 
d="M87 282v19h68v310h-1q-21 -23 -75 -56l-13 16q99 61 134 135h33v-405h70v-19h-216z" />
    <glyph glyph-name="multiply" unicode="&#xd7;" horiz-adv-x="600" 
d="M254 251l-182 182l46 46l182 -183l182 183l46 -46l-183 -182l183 -182l-46 -46l-182 183l-182 -183l-46 46z" />
    <glyph glyph-name="registered" unicode="&#xae;" horiz-adv-x="490" 
d="M59 544q0 77 54.5 131.5t131.5 54.5t131.5 -55t54.5 -131q0 -77 -54.5 -131.5t-131.5 -54.5t-131.5 54.5t-54.5 131.5zM193 452v188h-31v4h52q4 0 13 0.5t14 0.5q36 0 51 -12q18 -14 18 -35q0 -7 -3 -14.5t-14.5 -17t-30.5 -11.5v-1q44 -8 51 -32q2 -8 3.5 -27.5
t2.5 -25.5q4 -19 16 -19q9 0 15 6l2 -3q-9 -7 -24 -7q-21 0 -29 10t-10 32l-2 26q-3 37 -39 37h-28v-99h31v-4h-89v4h31zM220 640v-85h25q34 0 34 43q0 26 -11 34.5t-30 8.5q-14 0 -18 -1zM69 544q0 -73 51.5 -124.5t124.5 -51.5t124.5 51.5t51.5 124.5t-51.5 124.5
t-124.5 51.5t-124.5 -51.5t-51.5 -124.5z" />
    <glyph glyph-name="Thorn" unicode="&#xde;" horiz-adv-x="593" 
d="M242 540v-334h79q83 0 107 39.5t24 135.5q0 76 -28 117.5t-96 41.5h-86zM128 25v665h-94v25h301v-25h-93v-119h122q208 0 208 -199q0 -98 -52.5 -147.5t-135.5 -49.5h-142v-150h93v-25h-301v25h94z" />
    <glyph glyph-name="brokenbar" unicode="&#xa6;" horiz-adv-x="222" 
d="M78 -89v250h66v-250h-66zM78 411v250h66v-250h-66z" />
    <glyph glyph-name="Eth" unicode="&#xd0;" horiz-adv-x="796" 
d="M26 376v42h92v272h-92v25h399q153 0 232 -95.5t79 -262.5q0 -72 -16 -133.5t-50 -113t-96 -81t-146 -29.5h-402v25h92v351h-92zM232 376v-351h169q106 0 157.5 94.5t51.5 237.5q0 333 -205 333h-173v-272h159v-42h-159z" />
    <glyph glyph-name="onehalf" unicode="&#xbd;" horiz-adv-x="834" 
d="M153 -21l447 736h46l-447 -736h-46zM69 282v19h68v310h-1q-21 -23 -75 -56l-13 16q99 61 134 135h33v-405h70v-19h-216zM578 190l-17 -14q-76 46 -76 119q0 60 45 94.5t112 34.5q61 0 99.5 -33t38.5 -87q0 -25 -9 -47.5t-31 -45t-34.5 -33.5t-46 -34.5t-38.5 -27.5
q-58 -43 -72 -56h131q69 0 88 59l18 -5l-49 -114h-269q-5 0 -5 10q0 1 2 3l101 88q40 34 62 56t45 61t23 77q0 43 -22 70.5t-66 27.5q-43 0 -71 -28t-28 -69q0 -69 69 -106z" />
    <glyph glyph-name="ccedilla" unicode="&#xe7;" horiz-adv-x="574" 
d="M493 189v-151q-84 -49 -182 -50l-22 -52q17 5 34 5q32 0 56 -18.5t24 -54.5q0 -88 -127 -88q-38 0 -83 17l13 30q30 -11 63 -11q56 0 56 39q0 23 -13 33.5t-31 10.5q-19 0 -31 -5l-14 9l39 85q-104 11 -162.5 80.5t-58.5 187.5q0 127 67 197.5t185 70.5q111 0 187 -39
v-141h-30q-2 71 -41 113t-110 42q-84 0 -117 -58.5t-33 -184.5t33 -184.5t117 -58.5q41 0 72 16.5t47.5 44t24 56.5t7.5 59h30z" />
    <glyph glyph-name="eth" unicode="&#xf0;" horiz-adv-x="648" 
d="M33 0v25h86v251h-86v31h86v180h-86v25h310q117 0 184 -68.5t67 -187.5t-67 -187.5t-184 -68.5h-310zM215 25h109q83 0 122.5 62.5t39.5 168.5t-39.5 168.5t-122.5 62.5h-109v-180h130v-31h-130v-251z" />
    <glyph glyph-name="plusminus" unicode="&#xb1;" horiz-adv-x="600" 
d="M267 334v168h66v-168h218v-66h-218v-169h-66v169h-218v66h218zM49 0v66h502v-66h-502z" />
    <glyph glyph-name="Ccedilla" unicode="&#xc7;" horiz-adv-x="722" 
d="M645 257v-198q-130 -71 -249 -71h-1l-22 -52q17 5 34 5q32 0 56 -18.5t24 -54.5q0 -88 -127 -88q-38 0 -83 17l13 30q30 -11 63 -11q56 0 56 39q0 23 -13 33.5t-31 10.5q-19 0 -31 -5l-14 9l39 85q-142 12 -220.5 113.5t-78.5 256.5q0 163 95 266t255 103q111 0 236 -58
v-188h-30q-13 101 -58.5 158t-141.5 57q-57 0 -99 -20t-65.5 -50.5t-37.5 -77t-18 -90.5t-4 -100q0 -51 3 -90.5t15 -89t33.5 -82t61 -55t94.5 -22.5q98 0 153.5 68t62.5 170h30z" />
    <glyph glyph-name="thorn" unicode="&#xfe;" 
d="M33 0v25h86v462h-86v25h268v-25h-86v-55h114q159 0 159 -139q0 -143 -150 -143h-123v-125h86v-25h-268zM215 407v-232h63q108 0 108 117q0 53 -21 84t-76 31h-74z" />
    <glyph glyph-name="copyright" unicode="&#xa9;" horiz-adv-x="833" 
d="M570 276v-128h-9q-11 13 -26 13q-8 0 -44 -11t-67 -11q-81 0 -141 59q-69 69 -69 163q0 92 61.5 158.5t152.5 66.5q28 0 58.5 -11.5t39.5 -11.5q15 0 27 12h9v-120h-7q-13 57 -42 90t-91 33q-36 0 -63 -14.5t-41 -35.5t-22.5 -52.5t-10.5 -57t-2 -57.5q0 -119 36 -166
t103 -47q38 0 64 10t41 32.5t21.5 38.5t14.5 47h7zM45 358q0 154 109 263t263 109t263 -109t109 -263t-109 -263t-263 -109t-263 109t-109 263zM65 358q0 -146 103.5 -249t248.5 -103t248.5 103t103.5 249t-103.5 249t-248.5 103t-248.5 -103t-103.5 -249z" />
    <glyph glyph-name="logicalnot" unicode="&#xac;" horiz-adv-x="600" 
d="M485 106v212h-436v66h502v-278h-66z" />
    <glyph glyph-name="twosuperior" unicode="&#xb2;" horiz-adv-x="361" 
d="M123 472l-17 -14q-76 46 -76 119q0 60 45 94.5t112 34.5q61 0 99.5 -33t38.5 -87q0 -25 -9 -47.5t-31 -45t-34.5 -33.5t-46 -34.5t-38.5 -27.5q-58 -43 -72 -56h131q69 0 88 59l18 -5l-49 -114h-269q-5 0 -5 10q0 1 2 3l101 88q40 34 62 56t45 61t23 77q0 43 -22 70.5
t-66 27.5q-43 0 -71 -28t-28 -69q0 -69 69 -106z" />
    <glyph glyph-name="threesuperior" unicode="&#xb3;" horiz-adv-x="361" 
d="M88 700h224l4 -13l-153 -131l2 -2q17 3 42 3q53 0 86 -35t33 -101q0 -67 -41 -106t-114 -39q-55 0 -86.5 23.5t-49.5 68.5l21 13q21 -80 106 -80q34 0 52.5 20t23 45t4.5 64q0 20 -0.5 30.5t-3.5 26.5t-9 24t-18 14.5t-30 6.5q-28 0 -46 -9.5t-54 -41.5l-16 22l159 129v2
h-139l-27 -50l-18 7z" />
    <glyph glyph-name="trademark" unicode="&#x2122;" horiz-adv-x="990" 
d="M167 366v330h-49q-53 0 -70 -69h-18v88h346v-88h-18q-17 69 -70 69h-49v-330q0 -28 50 -36v-19h-172v19q50 8 50 36zM666 311l-150 302h-2v-236q0 -21 10.5 -32t42.5 -15v-19h-129v19q31 4 41.5 15t10.5 31v269q-10 22 -29 36t-41 15v19h121l154 -309l162 309h103v-19
q-32 -2 -44 -15t-12 -40v-275q0 -28 50 -36v-19h-172v19q50 8 50 36v247h-3l-152 -302h-11z" />
    <glyph glyph-name="degree" unicode="&#xb0;" horiz-adv-x="400" 
d="M57 563q0 60 41.5 101.5t101.5 41.5t101.5 -41.5t41.5 -101.5t-41.5 -101.5t-101.5 -41.5t-101.5 41.5t-41.5 101.5zM105 563q0 -39 28 -67t67 -28t67 28t28 67t-28 67t-67 28t-67 -28t-28 -67z" />
    <glyph glyph-name="Aacute" unicode="&#xc1;" horiz-adv-x="667" 
d="M89 25l236 702h20l231 -702h92v-25h-322v25h104l-68 224h-186l-73 -224h105v-25h-223v25h84zM373 280l-79 256h-2l-86 -256h167zM304 754h-46l139 145q30 30 49 30q15 0 27.5 -12t12.5 -29q0 -20 -26 -37z" />
    <glyph glyph-name="Acircumflex" unicode="&#xc2;" horiz-adv-x="667" 
d="M89 25l236 702h20l231 -702h92v-25h-322v25h104l-68 224h-186l-73 -224h105v-25h-223v25h84zM373 280l-79 256h-2l-86 -256h167zM176 754l123 170h70l123 -170h-39l-119 104l-119 -104h-39z" />
    <glyph glyph-name="Adieresis" unicode="&#xc4;" horiz-adv-x="667" 
d="M89 25l236 702h20l231 -702h92v-25h-322v25h104l-68 224h-186l-73 -224h105v-25h-223v25h84zM373 280l-79 256h-2l-86 -256h167zM380 820q0 23 15.5 38.5t38.5 15.5t38.5 -15.5t15.5 -38.5t-15.5 -38.5t-38.5 -15.5t-38.5 15.5t-15.5 38.5zM180 820q0 23 15.5 38.5
t38.5 15.5t38.5 -15.5t15.5 -38.5t-15.5 -38.5t-38.5 -15.5t-38.5 15.5t-15.5 38.5z" />
    <glyph glyph-name="Agrave" unicode="&#xc0;" horiz-adv-x="667" 
d="M89 25l236 702h20l231 -702h92v-25h-322v25h104l-68 224h-186l-73 -224h105v-25h-223v25h84zM373 280l-79 256h-2l-86 -256h167zM410 754h-46l-156 97q-26 17 -26 37q0 17 12.5 29t27.5 12q19 0 49 -30z" />
    <glyph glyph-name="Aring" unicode="&#xc5;" horiz-adv-x="667" 
d="M234 849q0 41 29.5 70.5t70.5 29.5t70.5 -29.5t29.5 -70.5t-29.5 -70.5t-70.5 -29.5t-70.5 29.5t-29.5 70.5zM270 849q0 -26 19 -45t45 -19t45 19t19 45t-19 45t-45 19t-45 -19t-19 -45zM89 25l236 702h20l231 -702h92v-25h-322v25h104l-68 224h-186l-73 -224h105v-25
h-223v25h84zM373 280l-79 256h-2l-86 -256h167z" />
    <glyph glyph-name="Atilde" unicode="&#xc3;" horiz-adv-x="667" 
d="M89 25l236 702h20l231 -702h92v-25h-322v25h104l-68 224h-186l-73 -224h105v-25h-223v25h84zM373 280l-79 256h-2l-86 -256h167zM197 777h-32q8 47 33.5 80t68.5 33q29 0 83 -23t73 -23q18 0 31 13.5t17 33.5h32q-8 -47 -33.5 -80t-68.5 -33q-29 0 -83 23t-73 23
q-18 0 -31 -13.5t-17 -33.5z" />
    <glyph glyph-name="Eacute" unicode="&#xc9;" horiz-adv-x="704" 
d="M128 25v665h-94v25h572l6 -220h-26q-6 35 -12 59.5t-15.5 45.5t-19.5 34.5t-27.5 24.5t-35.5 16.5t-48 9t-61 4.5t-77 1h-48v-310h54q82 0 103 31t20 120h30v-340h-30q0 36 -1 55.5t-5.5 40.5t-12 30.5t-21.5 18t-33.5 11t-49.5 2.5h-54v-324h151q109 0 158 53t66 167h27
l-9 -245h-601v25h94zM322 754h-46l139 145q30 30 49 30q15 0 27.5 -12t12.5 -29q0 -20 -26 -37z" />
    <glyph glyph-name="Ecircumflex" unicode="&#xca;" horiz-adv-x="704" 
d="M128 25v665h-94v25h572l6 -220h-26q-6 35 -12 59.5t-15.5 45.5t-19.5 34.5t-27.5 24.5t-35.5 16.5t-48 9t-61 4.5t-77 1h-48v-310h54q82 0 103 31t20 120h30v-340h-30q0 36 -1 55.5t-5.5 40.5t-12 30.5t-21.5 18t-33.5 11t-49.5 2.5h-54v-324h151q109 0 158 53t66 167h27
l-9 -245h-601v25h94zM194 754l123 170h70l123 -170h-39l-119 104l-119 -104h-39z" />
    <glyph glyph-name="Edieresis" unicode="&#xcb;" horiz-adv-x="704" 
d="M128 25v665h-94v25h572l6 -220h-26q-6 35 -12 59.5t-15.5 45.5t-19.5 34.5t-27.5 24.5t-35.5 16.5t-48 9t-61 4.5t-77 1h-48v-310h54q82 0 103 31t20 120h30v-340h-30q0 36 -1 55.5t-5.5 40.5t-12 30.5t-21.5 18t-33.5 11t-49.5 2.5h-54v-324h151q109 0 158 53t66 167h27
l-9 -245h-601v25h94zM398 832q0 23 15.5 38.5t38.5 15.5t38.5 -15.5t15.5 -38.5t-15.5 -38.5t-38.5 -15.5t-38.5 15.5t-15.5 38.5zM198 832q0 23 15.5 38.5t38.5 15.5t38.5 -15.5t15.5 -38.5t-15.5 -38.5t-38.5 -15.5t-38.5 15.5t-15.5 38.5z" />
    <glyph glyph-name="Egrave" unicode="&#xc8;" horiz-adv-x="704" 
d="M128 25v665h-94v25h572l6 -220h-26q-6 35 -12 59.5t-15.5 45.5t-19.5 34.5t-27.5 24.5t-35.5 16.5t-48 9t-61 4.5t-77 1h-48v-310h54q82 0 103 31t20 120h30v-340h-30q0 36 -1 55.5t-5.5 40.5t-12 30.5t-21.5 18t-33.5 11t-49.5 2.5h-54v-324h151q109 0 158 53t66 167h27
l-9 -245h-601v25h94zM428 754h-46l-156 97q-26 17 -26 37q0 17 12.5 29t27.5 12q19 0 49 -30z" />
    <glyph glyph-name="Iacute" unicode="&#xcd;" horiz-adv-x="370" 
d="M128 25v665h-94v25h302v-25h-94v-665h94v-25h-302v25h94zM155 754h-46l139 145q30 30 49 30q15 0 27.5 -12t12.5 -29q0 -20 -26 -37z" />
    <glyph glyph-name="Icircumflex" unicode="&#xce;" horiz-adv-x="370" 
d="M128 25v665h-94v25h302v-25h-94v-665h94v-25h-302v25h94zM27 754l123 170h70l123 -170h-39l-119 104l-119 -104h-39z" />
    <glyph glyph-name="Idieresis" unicode="&#xcf;" horiz-adv-x="370" 
d="M128 25v665h-94v25h302v-25h-94v-665h94v-25h-302v25h94zM231 832q0 23 15.5 38.5t38.5 15.5t38.5 -15.5t15.5 -38.5t-15.5 -38.5t-38.5 -15.5t-38.5 15.5t-15.5 38.5zM31 832q0 23 15.5 38.5t38.5 15.5t38.5 -15.5t15.5 -38.5t-15.5 -38.5t-38.5 -15.5t-38.5 15.5
t-15.5 38.5z" />
    <glyph glyph-name="Igrave" unicode="&#xcc;" horiz-adv-x="370" 
d="M128 25v665h-94v25h302v-25h-94v-665h94v-25h-302v25h94zM261 754h-46l-156 97q-26 17 -26 37q0 17 12.5 29t27.5 12q19 0 49 -30z" />
    <glyph glyph-name="Ntilde" unicode="&#xd1;" horiz-adv-x="759" 
d="M118 25v665h-92v25h229l354 -509h2v484h-108v25h230v-25h-92v-697l-19 -5l-472 679h-2v-642h110v-25h-232v25h92zM243 777h-32q8 47 33.5 80t68.5 33q29 0 83 -23t73 -23q18 0 31 13.5t17 33.5h32q-8 -47 -33.5 -80t-68.5 -33q-29 0 -83 23t-73 23q-18 0 -31 -13.5
t-17 -33.5z" />
    <glyph glyph-name="Oacute" unicode="&#xd3;" horiz-adv-x="778" 
d="M60 357q0 69 19.5 133t58 118t103.5 86.5t148 32.5t148 -32.5t103.5 -86.5t58 -118t19.5 -133t-19.5 -133t-58 -117.5t-103.5 -86t-148 -32.5t-148 32.5t-103.5 86t-58 117.5t-19.5 133zM586 357q0 59 -3.5 103t-16 91t-33 76.5t-57.5 49t-87 19.5t-87 -19.5t-57.5 -49
t-33 -76.5t-16 -91t-3.5 -103q0 -75 7 -128t26 -104.5t60.5 -78.5t103.5 -27t103.5 27t60.5 78.5t26 104.5t7 128zM359 754h-46l139 145q30 30 49 30q15 0 27.5 -12t12.5 -29q0 -20 -26 -37z" />
    <glyph glyph-name="Ocircumflex" unicode="&#xd4;" horiz-adv-x="778" 
d="M60 357q0 69 19.5 133t58 118t103.5 86.5t148 32.5t148 -32.5t103.5 -86.5t58 -118t19.5 -133t-19.5 -133t-58 -117.5t-103.5 -86t-148 -32.5t-148 32.5t-103.5 86t-58 117.5t-19.5 133zM586 357q0 59 -3.5 103t-16 91t-33 76.5t-57.5 49t-87 19.5t-87 -19.5t-57.5 -49
t-33 -76.5t-16 -91t-3.5 -103q0 -75 7 -128t26 -104.5t60.5 -78.5t103.5 -27t103.5 27t60.5 78.5t26 104.5t7 128zM231 754l123 170h70l123 -170h-39l-119 104l-119 -104h-39z" />
    <glyph glyph-name="Odieresis" unicode="&#xd6;" horiz-adv-x="778" 
d="M60 357q0 69 19.5 133t58 118t103.5 86.5t148 32.5t148 -32.5t103.5 -86.5t58 -118t19.5 -133t-19.5 -133t-58 -117.5t-103.5 -86t-148 -32.5t-148 32.5t-103.5 86t-58 117.5t-19.5 133zM586 357q0 59 -3.5 103t-16 91t-33 76.5t-57.5 49t-87 19.5t-87 -19.5t-57.5 -49
t-33 -76.5t-16 -91t-3.5 -103q0 -75 7 -128t26 -104.5t60.5 -78.5t103.5 -27t103.5 27t60.5 78.5t26 104.5t7 128zM435 832q0 23 15.5 38.5t38.5 15.5t38.5 -15.5t15.5 -38.5t-15.5 -38.5t-38.5 -15.5t-38.5 15.5t-15.5 38.5zM235 832q0 23 15.5 38.5t38.5 15.5t38.5 -15.5
t15.5 -38.5t-15.5 -38.5t-38.5 -15.5t-38.5 15.5t-15.5 38.5z" />
    <glyph glyph-name="Ograve" unicode="&#xd2;" horiz-adv-x="778" 
d="M60 357q0 69 19.5 133t58 118t103.5 86.5t148 32.5t148 -32.5t103.5 -86.5t58 -118t19.5 -133t-19.5 -133t-58 -117.5t-103.5 -86t-148 -32.5t-148 32.5t-103.5 86t-58 117.5t-19.5 133zM586 357q0 59 -3.5 103t-16 91t-33 76.5t-57.5 49t-87 19.5t-87 -19.5t-57.5 -49
t-33 -76.5t-16 -91t-3.5 -103q0 -75 7 -128t26 -104.5t60.5 -78.5t103.5 -27t103.5 27t60.5 78.5t26 104.5t7 128zM465 754h-46l-156 97q-26 17 -26 37q0 17 12.5 29t27.5 12q19 0 49 -30z" />
    <glyph glyph-name="Otilde" unicode="&#xd5;" horiz-adv-x="778" 
d="M60 357q0 69 19.5 133t58 118t103.5 86.5t148 32.5t148 -32.5t103.5 -86.5t58 -118t19.5 -133t-19.5 -133t-58 -117.5t-103.5 -86t-148 -32.5t-148 32.5t-103.5 86t-58 117.5t-19.5 133zM586 357q0 59 -3.5 103t-16 91t-33 76.5t-57.5 49t-87 19.5t-87 -19.5t-57.5 -49
t-33 -76.5t-16 -91t-3.5 -103q0 -75 7 -128t26 -104.5t60.5 -78.5t103.5 -27t103.5 27t60.5 78.5t26 104.5t7 128zM252 777h-32q8 47 33.5 80t68.5 33q29 0 83 -23t73 -23q18 0 31 13.5t17 33.5h32q-8 -47 -33.5 -80t-68.5 -33q-29 0 -83 23t-73 23q-18 0 -31 -13.5
t-17 -33.5z" />
    <glyph glyph-name="Scaron" unicode="&#x160;" 
d="M243 754l-123 170h39l119 -104l119 104h39l-123 -170h-70zM54 33l-7 202h28q5 -89 63.5 -152.5t143.5 -63.5q68 0 116.5 35.5t48.5 103.5q0 53 -40 88t-97 56t-114 44.5t-97 69t-40 113.5q0 91 66.5 144.5t159.5 53.5q92 0 185 -43l6 -157h-27q-36 169 -175 169
q-57 0 -97 -30.5t-40 -86.5q0 -42 28.5 -71.5t70.5 -45t92 -36.5t92 -44t70.5 -68.5t28.5 -108.5q0 -98 -75.5 -157.5t-174.5 -59.5q-116 0 -215 45z" />
    <glyph glyph-name="Uacute" unicode="&#xda;" horiz-adv-x="778" 
d="M118 202v488h-92v25h305v-25h-99v-475q0 -52 7 -84.5t27 -58t58 -36.5t98 -11q69 0 112 13t63 42t26.5 60.5t6.5 82.5v467h-108v25h222v-25h-84v-478q0 -57 -9.5 -93t-36.5 -66.5t-82 -44.5t-141 -14q-89 0 -144.5 13t-83 42t-36.5 63t-9 90zM359 754h-46l139 145
q30 30 49 30q15 0 27.5 -12t12.5 -29q0 -20 -26 -37z" />
    <glyph glyph-name="Ucircumflex" unicode="&#xdb;" horiz-adv-x="778" 
d="M118 202v488h-92v25h305v-25h-99v-475q0 -52 7 -84.5t27 -58t58 -36.5t98 -11q69 0 112 13t63 42t26.5 60.5t6.5 82.5v467h-108v25h222v-25h-84v-478q0 -57 -9.5 -93t-36.5 -66.5t-82 -44.5t-141 -14q-89 0 -144.5 13t-83 42t-36.5 63t-9 90zM231 754l123 170h70
l123 -170h-39l-119 104l-119 -104h-39z" />
    <glyph glyph-name="Udieresis" unicode="&#xdc;" horiz-adv-x="778" 
d="M118 202v488h-92v25h305v-25h-99v-475q0 -52 7 -84.5t27 -58t58 -36.5t98 -11q69 0 112 13t63 42t26.5 60.5t6.5 82.5v467h-108v25h222v-25h-84v-478q0 -57 -9.5 -93t-36.5 -66.5t-82 -44.5t-141 -14q-89 0 -144.5 13t-83 42t-36.5 63t-9 90zM435 832q0 23 15.5 38.5
t38.5 15.5t38.5 -15.5t15.5 -38.5t-15.5 -38.5t-38.5 -15.5t-38.5 15.5t-15.5 38.5zM235 832q0 23 15.5 38.5t38.5 15.5t38.5 -15.5t15.5 -38.5t-15.5 -38.5t-38.5 -15.5t-38.5 15.5t-15.5 38.5z" />
    <glyph glyph-name="Ugrave" unicode="&#xd9;" horiz-adv-x="778" 
d="M118 202v488h-92v25h305v-25h-99v-475q0 -52 7 -84.5t27 -58t58 -36.5t98 -11q69 0 112 13t63 42t26.5 60.5t6.5 82.5v467h-108v25h222v-25h-84v-478q0 -57 -9.5 -93t-36.5 -66.5t-82 -44.5t-141 -14q-89 0 -144.5 13t-83 42t-36.5 63t-9 90zM465 754h-46l-156 97
q-26 17 -26 37q0 17 12.5 29t27.5 12q19 0 49 -30z" />
    <glyph glyph-name="Yacute" unicode="&#xdd;" horiz-adv-x="593" 
d="M252 25v335l-187 330h-84v25h319v-25h-104l158 -292l149 292h-102v25h211v-25h-78l-168 -328v-337h92v-25h-301v25h95zM267 754h-46l139 145q30 30 49 30q15 0 27.5 -12t12.5 -29q0 -20 -26 -37z" />
    <glyph glyph-name="Ydieresis" unicode="&#x178;" horiz-adv-x="593" 
d="M252 25v335l-187 330h-84v25h319v-25h-104l158 -292l149 292h-102v25h211v-25h-78l-168 -328v-337h92v-25h-301v25h95zM343 820q0 23 15.5 38.5t38.5 15.5t38.5 -15.5t15.5 -38.5t-15.5 -38.5t-38.5 -15.5t-38.5 15.5t-15.5 38.5zM143 820q0 23 15.5 38.5t38.5 15.5
t38.5 -15.5t15.5 -38.5t-15.5 -38.5t-38.5 -15.5t-38.5 15.5t-15.5 38.5z" />
    <glyph glyph-name="Zcaron" unicode="&#x17d;" horiz-adv-x="704" 
d="M317 754l-123 170h39l119 -104l119 104h39l-123 -170h-70zM102 500v215h521l-431 -690h192q66 0 111.5 17.5t70.5 51.5t36.5 73t14.5 92h24v-259h-595l430 690h-184q-46 0 -79.5 -17t-51.5 -45.5t-26.5 -60t-8.5 -67.5h-24z" />
    <glyph glyph-name="aacute" unicode="&#xe1;" horiz-adv-x="574" 
d="M9 0v25h78l180 499h39l182 -499h77v-25h-269v25h90l-55 152h-160l-54 -152h84v-25h-192zM322 202l-70 196h-2l-70 -196h142zM257 578h-46l139 145q30 30 49 30q15 0 27.5 -12t12.5 -29q0 -20 -26 -37z" />
    <glyph glyph-name="acircumflex" unicode="&#xe2;" horiz-adv-x="574" 
d="M9 0v25h78l180 499h39l182 -499h77v-25h-269v25h90l-55 152h-160l-54 -152h84v-25h-192zM322 202l-70 196h-2l-70 -196h142zM129 578l123 170h70l123 -170h-39l-119 104l-119 -104h-39z" />
    <glyph glyph-name="adieresis" unicode="&#xe4;" horiz-adv-x="574" 
d="M9 0v25h78l180 499h39l182 -499h77v-25h-269v25h90l-55 152h-160l-54 -152h84v-25h-192zM322 202l-70 196h-2l-70 -196h142zM333 644q0 23 15.5 38.5t38.5 15.5t38.5 -15.5t15.5 -38.5t-15.5 -38.5t-38.5 -15.5t-38.5 15.5t-15.5 38.5zM133 644q0 23 15.5 38.5t38.5 15.5
t38.5 -15.5t15.5 -38.5t-15.5 -38.5t-38.5 -15.5t-38.5 15.5t-15.5 38.5z" />
    <glyph glyph-name="agrave" unicode="&#xe0;" horiz-adv-x="574" 
d="M9 0v25h78l180 499h39l182 -499h77v-25h-269v25h90l-55 152h-160l-54 -152h84v-25h-192zM322 202l-70 196h-2l-70 -196h142zM363 578h-46l-156 97q-26 17 -26 37q0 17 12.5 29t27.5 12q19 0 49 -30z" />
    <glyph glyph-name="aring" unicode="&#xe5;" horiz-adv-x="574" 
d="M187 661q0 41 29.5 70.5t70.5 29.5t70.5 -29.5t29.5 -70.5t-29.5 -70.5t-70.5 -29.5t-70.5 29.5t-29.5 70.5zM223 661q0 -26 19 -45t45 -19t45 19t19 45t-19 45t-45 19t-45 -19t-19 -45zM9 0v25h78l180 499h39l182 -499h77v-25h-269v25h90l-55 152h-160l-54 -152h84v-25
h-192zM322 202l-70 196h-2l-70 -196h142z" />
    <glyph glyph-name="atilde" unicode="&#xe3;" horiz-adv-x="574" 
d="M9 0v25h78l180 499h39l182 -499h77v-25h-269v25h90l-55 152h-160l-54 -152h84v-25h-192zM322 202l-70 196h-2l-70 -196h142zM150 601h-32q8 47 33.5 80t68.5 33q29 0 83 -23t73 -23q18 0 31 13.5t17 33.5h32q-8 -47 -33.5 -80t-68.5 -33q-29 0 -83 23t-73 23
q-18 0 -31 -13.5t-17 -33.5z" />
    <glyph glyph-name="eacute" unicode="&#xe9;" horiz-adv-x="574" 
d="M33 0v25h86v462h-86v25h449l6 -161h-30q-11 136 -128 136h-115v-210h53q45 0 59.5 24.5t14.5 83.5h24v-247h-24q0 73 -14.5 93.5t-73.5 20.5h-39v-227h93q88 0 125.5 38t46.5 119h30l-6 -182h-471zM257 578h-46l139 145q30 30 49 30q15 0 27.5 -12t12.5 -29
q0 -20 -26 -37z" />
    <glyph glyph-name="ecircumflex" unicode="&#xea;" horiz-adv-x="574" 
d="M33 0v25h86v462h-86v25h449l6 -161h-30q-11 136 -128 136h-115v-210h53q45 0 59.5 24.5t14.5 83.5h24v-247h-24q0 73 -14.5 93.5t-73.5 20.5h-39v-227h93q88 0 125.5 38t46.5 119h30l-6 -182h-471zM129 578l123 170h70l123 -170h-39l-119 104l-119 -104h-39z" />
    <glyph glyph-name="edieresis" unicode="&#xeb;" horiz-adv-x="574" 
d="M33 0v25h86v462h-86v25h449l6 -161h-30q-11 136 -128 136h-115v-210h53q45 0 59.5 24.5t14.5 83.5h24v-247h-24q0 73 -14.5 93.5t-73.5 20.5h-39v-227h93q88 0 125.5 38t46.5 119h30l-6 -182h-471zM333 644q0 23 15.5 38.5t38.5 15.5t38.5 -15.5t15.5 -38.5t-15.5 -38.5
t-38.5 -15.5t-38.5 15.5t-15.5 38.5zM133 644q0 23 15.5 38.5t38.5 15.5t38.5 -15.5t15.5 -38.5t-15.5 -38.5t-38.5 -15.5t-38.5 15.5t-15.5 38.5z" />
    <glyph glyph-name="egrave" unicode="&#xe8;" horiz-adv-x="574" 
d="M33 0v25h86v462h-86v25h449l6 -161h-30q-11 136 -128 136h-115v-210h53q45 0 59.5 24.5t14.5 83.5h24v-247h-24q0 73 -14.5 93.5t-73.5 20.5h-39v-227h93q88 0 125.5 38t46.5 119h30l-6 -182h-471zM363 578h-46l-156 97q-26 17 -26 37q0 17 12.5 29t27.5 12q19 0 49 -30z
" />
    <glyph glyph-name="iacute" unicode="&#xed;" horiz-adv-x="334" 
d="M33 0v25h86v462h-86v25h268v-25h-86v-462h86v-25h-268zM137 578h-46l139 145q30 30 49 30q15 0 27.5 -12t12.5 -29q0 -20 -26 -37z" />
    <glyph glyph-name="icircumflex" unicode="&#xee;" horiz-adv-x="334" 
d="M33 0v25h86v462h-86v25h268v-25h-86v-462h86v-25h-268zM9 578l123 170h70l123 -170h-39l-119 104l-119 -104h-39z" />
    <glyph glyph-name="idieresis" unicode="&#xef;" horiz-adv-x="334" 
d="M33 0v25h86v462h-86v25h268v-25h-86v-462h86v-25h-268zM213 644q0 23 15.5 38.5t38.5 15.5t38.5 -15.5t15.5 -38.5t-15.5 -38.5t-38.5 -15.5t-38.5 15.5t-15.5 38.5zM13 644q0 23 15.5 38.5t38.5 15.5t38.5 -15.5t15.5 -38.5t-15.5 -38.5t-38.5 -15.5t-38.5 15.5
t-15.5 38.5z" />
    <glyph glyph-name="igrave" unicode="&#xec;" horiz-adv-x="334" 
d="M33 0v25h86v462h-86v25h268v-25h-86v-462h86v-25h-268zM243 578h-46l-156 97q-26 17 -26 37q0 17 12.5 29t27.5 12q19 0 49 -30z" />
    <glyph glyph-name="ntilde" unicode="&#xf1;" horiz-adv-x="630" 
d="M33 0v25h86v462h-86v25h199l246 -348h2v323h-90v25h207v-25h-87v-493h-30l-329 468h-2v-437h90v-25h-206zM178 601h-32q8 47 33.5 80t68.5 33q29 0 83 -23t73 -23q18 0 31 13.5t17 33.5h32q-8 -47 -33.5 -80t-68.5 -33q-29 0 -83 23t-73 23q-18 0 -31 -13.5t-17 -33.5z
" />
    <glyph glyph-name="oacute" unicode="&#xf3;" horiz-adv-x="612" 
d="M54 256q0 127 67 197.5t185 70.5t185 -70.5t67 -197.5t-67 -197.5t-185 -70.5t-185 70.5t-67 197.5zM168 256q0 -123 32.5 -183t105.5 -60t105.5 60t32.5 183t-32.5 183t-105.5 60t-105.5 -60t-32.5 -183zM276 578h-46l139 145q30 30 49 30q15 0 27.5 -12t12.5 -29
q0 -20 -26 -37z" />
    <glyph glyph-name="ocircumflex" unicode="&#xf4;" horiz-adv-x="612" 
d="M54 256q0 127 67 197.5t185 70.5t185 -70.5t67 -197.5t-67 -197.5t-185 -70.5t-185 70.5t-67 197.5zM168 256q0 -123 32.5 -183t105.5 -60t105.5 60t32.5 183t-32.5 183t-105.5 60t-105.5 -60t-32.5 -183zM148 578l123 170h70l123 -170h-39l-119 104l-119 -104h-39z" />
    <glyph glyph-name="odieresis" unicode="&#xf6;" horiz-adv-x="612" 
d="M54 256q0 127 67 197.5t185 70.5t185 -70.5t67 -197.5t-67 -197.5t-185 -70.5t-185 70.5t-67 197.5zM168 256q0 -123 32.5 -183t105.5 -60t105.5 60t32.5 183t-32.5 183t-105.5 60t-105.5 -60t-32.5 -183zM352 644q0 23 15.5 38.5t38.5 15.5t38.5 -15.5t15.5 -38.5
t-15.5 -38.5t-38.5 -15.5t-38.5 15.5t-15.5 38.5zM152 644q0 23 15.5 38.5t38.5 15.5t38.5 -15.5t15.5 -38.5t-15.5 -38.5t-38.5 -15.5t-38.5 15.5t-15.5 38.5z" />
    <glyph glyph-name="ograve" unicode="&#xf2;" horiz-adv-x="612" 
d="M54 256q0 127 67 197.5t185 70.5t185 -70.5t67 -197.5t-67 -197.5t-185 -70.5t-185 70.5t-67 197.5zM168 256q0 -123 32.5 -183t105.5 -60t105.5 60t32.5 183t-32.5 183t-105.5 60t-105.5 -60t-32.5 -183zM382 578h-46l-156 97q-26 17 -26 37q0 17 12.5 29t27.5 12
q19 0 49 -30z" />
    <glyph glyph-name="otilde" unicode="&#xf5;" horiz-adv-x="612" 
d="M54 256q0 127 67 197.5t185 70.5t185 -70.5t67 -197.5t-67 -197.5t-185 -70.5t-185 70.5t-67 197.5zM168 256q0 -123 32.5 -183t105.5 -60t105.5 60t32.5 183t-32.5 183t-105.5 60t-105.5 -60t-32.5 -183zM169 601h-32q8 47 33.5 80t68.5 33q29 0 83 -23t73 -23
q18 0 31 13.5t17 33.5h32q-8 -47 -33.5 -80t-68.5 -33q-29 0 -83 23t-73 23q-18 0 -31 -13.5t-17 -33.5z" />
    <glyph glyph-name="scaron" unicode="&#x161;" horiz-adv-x="462" 
d="M196 578l-123 170h39l119 -104l119 104h39l-123 -170h-70zM56 31v138h30q6 -73 45.5 -114.5t93.5 -41.5q49 0 76 29t27 68q0 36 -16 56t-52 32l-109 40q-38 14 -64 46.5t-26 82.5q0 71 44.5 114t122.5 43q86 0 146 -30l6 -121h-33q-6 55 -35 90.5t-85 35.5
q-43 0 -68.5 -26.5t-25.5 -62.5q0 -31 17 -49t56 -32l95 -34q105 -38 105 -134q0 -75 -47 -124t-136 -49q-102 0 -167 43z" />
    <glyph glyph-name="uacute" unicode="&#xfa;" horiz-adv-x="630" 
d="M35 487v25h264v-25h-87v-346q0 -68 35.5 -95t102.5 -27q69 0 101.5 30.5t32.5 105.5v332h-86v25h197v-25h-81v-329q0 -95 -43.5 -132.5t-148.5 -37.5q-118 0 -162 36t-44 124v339h-81zM285 578h-46l139 145q30 30 49 30q15 0 27.5 -12t12.5 -29q0 -20 -26 -37z" />
    <glyph glyph-name="ucircumflex" unicode="&#xfb;" horiz-adv-x="630" 
d="M35 487v25h264v-25h-87v-346q0 -68 35.5 -95t102.5 -27q69 0 101.5 30.5t32.5 105.5v332h-86v25h197v-25h-81v-329q0 -95 -43.5 -132.5t-148.5 -37.5q-118 0 -162 36t-44 124v339h-81zM157 578l123 170h70l123 -170h-39l-119 104l-119 -104h-39z" />
    <glyph glyph-name="udieresis" unicode="&#xfc;" horiz-adv-x="630" 
d="M35 487v25h264v-25h-87v-346q0 -68 35.5 -95t102.5 -27q69 0 101.5 30.5t32.5 105.5v332h-86v25h197v-25h-81v-329q0 -95 -43.5 -132.5t-148.5 -37.5q-118 0 -162 36t-44 124v339h-81zM361 644q0 23 15.5 38.5t38.5 15.5t38.5 -15.5t15.5 -38.5t-15.5 -38.5t-38.5 -15.5
t-38.5 15.5t-15.5 38.5zM161 644q0 23 15.5 38.5t38.5 15.5t38.5 -15.5t15.5 -38.5t-15.5 -38.5t-38.5 -15.5t-38.5 15.5t-15.5 38.5z" />
    <glyph glyph-name="ugrave" unicode="&#xf9;" horiz-adv-x="630" 
d="M35 487v25h264v-25h-87v-346q0 -68 35.5 -95t102.5 -27q69 0 101.5 30.5t32.5 105.5v332h-86v25h197v-25h-81v-329q0 -95 -43.5 -132.5t-148.5 -37.5q-118 0 -162 36t-44 124v339h-81zM391 578h-46l-156 97q-26 17 -26 37q0 17 12.5 29t27.5 12q19 0 49 -30z" />
    <glyph glyph-name="yacute" unicode="&#xfd;" 
d="M146 0v25h88v225l-147 237h-74v25h275v-25h-87l121 -203l113 203h-87v25h195v-25h-75l-138 -245v-217h88v-25h-272zM248 578h-46l139 145q30 30 49 30q15 0 27.5 -12t12.5 -29q0 -20 -26 -37z" />
    <glyph glyph-name="ydieresis" unicode="&#xff;" 
d="M146 0v25h88v225l-147 237h-74v25h275v-25h-87l121 -203l113 203h-87v25h195v-25h-75l-138 -245v-217h88v-25h-272zM324 644q0 23 15.5 38.5t38.5 15.5t38.5 -15.5t15.5 -38.5t-15.5 -38.5t-38.5 -15.5t-38.5 15.5t-15.5 38.5zM124 644q0 23 15.5 38.5t38.5 15.5
t38.5 -15.5t15.5 -38.5t-15.5 -38.5t-38.5 -15.5t-38.5 15.5t-15.5 38.5z" />
    <glyph glyph-name="zcaron" unicode="&#x17e;" 
d="M243 578l-123 170h39l119 -104l119 104h39l-123 -170h-70zM75 353v159h420v-5l-332 -482h135q78 0 118.5 38.5t44.5 127.5h30v-191h-452v6l328 481h-132q-64 0 -95 -29.5t-35 -104.5h-30z" />
  </font>
</defs>
</svg>
