<?xml version="1.0" standalone="no"?>
<!DOCTYPE svg PUBLIC "-//W3C//DTD SVG 1.1//EN" "http://www.w3.org/Graphics/SVG/1.1/DTD/svg11.dtd" >
<svg xmlns="http://www.w3.org/2000/svg">
<metadata>
This is a custom SVG webfont generated by Font Squirrel.
Copyright   : Copyright 19901998 Bitstream Inc  All rights reserved
</metadata>
<defs>
<font id="FuturaMdCnBTMedium" horiz-adv-x="788" >
<font-face units-per-em="2048" ascent="1556" descent="-492" />
<missing-glyph horiz-adv-x="395" />
<glyph unicode=" "  horiz-adv-x="395" />
<glyph unicode="&#x09;" horiz-adv-x="395" />
<glyph unicode="&#xa0;" horiz-adv-x="395" />
<glyph unicode="!" horiz-adv-x="557" d="M164 94q0 48 33.5 81.5t81.5 33.5q47 0 79.5 -33.5t32.5 -81.5q0 -47 -32.5 -79.5t-79.5 -32.5q-48 0 -81.5 32.5t-33.5 79.5zM188 356v1104h181v-1104h-181z" />
<glyph unicode="&#x22;" horiz-adv-x="590" d="M94 881v553h117v-553h-117zM377 881v553h119v-553h-119z" />
<glyph unicode="#" horiz-adv-x="1575" d="M104 467l43 123h320l96 272h-342l43 123h344l168 471h146l-166 -471h260l168 471h143l-164 -471h307l-43 -123h-311l-94 -272h330l-43 -123h-332l-166 -469h-145l168 469h-265l-168 -469h-143l166 469h-320zM614 590h263l96 272h-264z" />
<glyph unicode="$" d="M53 201l162 90q20 -69 54.5 -100t90.5 -31q83 0 127.5 55t44.5 156q0 86 -31.5 142.5t-127.5 125.5q-36 26 -116 78t-105 80q-53 56 -76 122t-23 160q0 151 52.5 246t156.5 133v213h82v-196q13 1 27 1.5t41 0.5h22v194h82v-207q64 -13 112.5 -61.5t92.5 -145.5l-162 -81 q-15 64 -51.5 96.5t-93.5 32.5q-83 0 -125.5 -49t-42.5 -144q0 -83 30.5 -137.5t135.5 -126.5q27 -20 77 -53q114 -79 140 -109q53 -61 77.5 -129t24.5 -156q0 -150 -55.5 -253.5t-159.5 -145.5v-213h-82v193q-2 -1 -6 -1q-35 -4 -49 -4q-7 0 -17.5 1.5t-15.5 1.5v-191h-84 v205q-73 20 -124.5 71t-84.5 136z" />
<glyph unicode="%" horiz-adv-x="1573" d="M76 1047q0 254 56 340t202 86q145 0 201.5 -87t56.5 -339q0 -255 -56 -340.5t-202 -85.5t-202 85.5t-56 340.5zM223 1047q0 -182 24 -238.5t87 -56.5q62 0 85 55t23 240t-23 239.5t-85 54.5q-63 0 -87 -54.5t-24 -239.5zM387 -18l664 1497h127l-664 -1497h-127zM973 408 q0 253 56 338t202 85t202 -86t56 -337q0 -254 -56 -340t-202 -86t-202 86t-56 340zM1122 408q0 -185 23.5 -240t85.5 -55q63 0 86.5 56.5t23.5 238.5t-23.5 238t-86.5 56q-62 0 -85.5 -53t-23.5 -241z" />
<glyph unicode="&#x26;" horiz-adv-x="1042" d="M80 379q0 104 50.5 204.5t160.5 211.5q-61 98 -93 196t-32 185q0 137 81.5 221t217.5 84q130 0 217.5 -84t87.5 -207q0 -96 -61 -198t-191 -220l217 -352l137 188l136 -96l-179 -244l164 -268h-221l-76 123q-67 -71 -137.5 -105t-146.5 -34q-144 0 -238 112t-94 283z M260 385q0 -96 49.5 -157.5t124.5 -61.5q46 0 88 27t84 83l-225 367q-62 -66 -91.5 -129t-29.5 -129zM344 1180q0 -53 19 -112t65 -148q87 83 125.5 149t38.5 129q0 58 -33.5 92.5t-89.5 34.5q-58 0 -91.5 -38.5t-33.5 -106.5z" />
<glyph unicode="'" horiz-adv-x="305" d="M94 881v553h117v-553h-117z" />
<glyph unicode="(" horiz-adv-x="559" d="M117 588q0 264 49 517.5t149 504.5l172 -56q-91 -225 -136.5 -465.5t-45.5 -500.5q0 -259 45.5 -498.5t136.5 -466.5l-172 -55q-100 251 -149 504t-49 516z" />
<glyph unicode=")" horiz-adv-x="559" d="M70 -375q91 227 136.5 466.5t45.5 498.5q0 260 -45.5 500.5t-136.5 465.5l172 56q100 -251 150 -505.5t50 -516.5q0 -261 -49.5 -513.5t-150.5 -506.5z" />
<glyph unicode="*" horiz-adv-x="780" d="M96 1036l197 113l-197 115l49 84l197 -113v225h98v-225l195 113l49 -86l-197 -113l197 -113l-49 -84l-195 113v-227h-98v225l-197 -111z" />
<glyph unicode="+" horiz-adv-x="1706" d="M254 553v117h541v551h118v-551h539v-117h-539v-553h-118v553h-541z" />
<glyph unicode="," horiz-adv-x="395" d="M53 -287l133 531l154 -47l-186 -514z" />
<glyph unicode="-" horiz-adv-x="559" d="M76 410v161h407v-161h-407z" />
<glyph unicode="." horiz-adv-x="395" d="M84 92q0 48 32.5 81.5t80.5 33.5q47 0 80.5 -33.5t33.5 -81.5q0 -47 -33 -79.5t-81 -32.5t-80.5 32.5t-32.5 79.5z" />
<glyph unicode="/" horiz-adv-x="567" d="M0 -190l422 1669h145l-422 -1669h-145z" />
<glyph unicode="0" d="M63 729q0 239 11 360.5t37 182.5q43 109 110.5 158t173.5 49t172.5 -49t110.5 -158q25 -63 36 -184t11 -359q0 -237 -11 -357.5t-36 -183.5q-44 -109 -110.5 -157.5t-172.5 -48.5t-173.5 48.5t-110.5 157.5q-26 61 -37 182t-11 359zM254 731q0 -362 30.5 -469.5 t110.5 -107.5q79 0 109.5 105t30.5 472q0 368 -30.5 473t-109.5 105q-80 0 -110.5 -107.5t-30.5 -470.5z" />
<glyph unicode="1" d="M143 1284v176h363v-1460h-182v1284h-181z" />
<glyph unicode="2" d="M33 0l389 774q51 103 76.5 188.5t25.5 155.5q0 97 -32.5 144t-100.5 47q-75 0 -107 -62t-32 -211v-51h-184q-2 14 -2 29v45q0 209 84 314.5t251 105.5q151 0 237.5 -96t86.5 -265q0 -99 -33.5 -204.5t-113.5 -251.5l-261 -476h379v-186h-663z" />
<glyph unicode="3" d="M43 346v35h172q0 -6 -1 -17.5t-1 -17.5q0 -93 39 -140.5t115 -47.5q80 0 117.5 60t37.5 192q0 167 -50 220.5t-193 53.5h-29v159q11 0 25 -0.5t38 -0.5q113 0 153 50.5t40 213.5q0 109 -30.5 161t-94.5 52q-74 0 -107 -56.5t-37 -193.5h-167q-1 10 -1.5 23t-0.5 38 q0 175 75.5 262t227.5 87q164 0 243.5 -98t79.5 -300q0 -140 -42.5 -217.5t-131.5 -97.5q104 -19 149.5 -96t45.5 -238q0 -236 -86.5 -343t-276.5 -107q-155 0 -232 90.5t-77 273.5z" />
<glyph unicode="4" d="M41 397v187l412 876h168v-899h104v-164h-104v-397h-185v397h-395zM178 561h262v578z" />
<glyph unicode="5" d="M14 51l49 174q47 -34 95 -50.5t98 -16.5q130 0 195 89.5t65 266.5q0 134 -67 201t-199 67q-52 0 -91 -5t-75 -15l96 698h510v-180h-356l-57 -356q29 5 52.5 7.5t41.5 2.5q149 0 240 -117t91 -311q0 -247 -110.5 -385.5t-308.5 -138.5q-72 0 -138.5 17t-130.5 52z" />
<glyph unicode="6" d="M68 473q0 199 67.5 411.5t259.5 575.5h215q-124 -216 -202.5 -366.5t-126.5 -262.5q37 38 78 56t87 18q146 0 210.5 -103.5t64.5 -342.5q0 -245 -80 -362t-248 -117q-164 0 -244.5 122.5t-80.5 370.5zM248 449q0 -153 35.5 -223t113.5 -70q76 0 111 70t35 225 q0 160 -34.5 225t-115.5 65q-76 0 -110.5 -68.5t-34.5 -223.5z" />
<glyph unicode="7" d="M70 1286v174h696l-487 -1460h-201l434 1286h-442z" />
<glyph unicode="8" d="M74 424q0 174 40.5 254.5t137.5 114.5q-90 40 -126 110t-36 223q0 184 73 268.5t230 84.5q159 0 232 -85t73 -268q0 -153 -36 -223t-125 -110q96 -34 136 -114t40 -255q0 -124 -10 -182.5t-33 -102.5q-41 -76 -112.5 -116.5t-164.5 -40.5q-73 0 -133.5 25.5t-103.5 74.5 q-45 50 -63.5 118.5t-18.5 223.5zM260 436q0 -161 30 -221.5t103 -60.5t103 57.5t30 206.5q0 161 -30 222.5t-103 61.5q-71 0 -102 -61.5t-31 -204.5zM270 1096q0 -127 28 -177.5t95 -50.5t96 52t29 176q0 121 -29 172t-96 51t-95 -48.5t-28 -174.5z" />
<glyph unicode="9" d="M68 1001q0 246 79.5 363t247.5 117q163 0 243.5 -123.5t80.5 -372.5q0 -198 -67 -409t-261 -576h-213q139 245 209.5 380t120.5 249q-38 -38 -78.5 -56t-87.5 -18q-145 0 -209.5 103.5t-64.5 342.5zM246 1010q0 -162 33.5 -226.5t113.5 -64.5q78 0 113 69.5t35 223.5 q0 152 -36.5 222.5t-115.5 70.5q-75 0 -109 -69.5t-34 -225.5z" />
<glyph unicode=":" horiz-adv-x="557" d="M164 92q0 48 33.5 81.5t81.5 33.5q47 0 79.5 -33.5t32.5 -81.5q0 -47 -32.5 -79.5t-79.5 -32.5q-48 0 -81.5 32.5t-33.5 79.5zM164 610q0 48 33.5 81.5t81.5 33.5q47 0 79.5 -33.5t32.5 -81.5q0 -47 -32.5 -79.5t-79.5 -32.5q-48 0 -81.5 32.5t-33.5 79.5z" />
<glyph unicode=";" horiz-adv-x="557" d="M135 -287l133 531l154 -47l-186 -514zM195 610q0 48 32.5 81.5t79.5 33.5q48 0 81.5 -33.5t33.5 -81.5q0 -47 -33.5 -79.5t-81.5 -32.5q-47 0 -79.5 32.5t-32.5 79.5z" />
<glyph unicode="&#x3c;" horiz-adv-x="1706" d="M264 559v103l1178 483v-127l-1000 -408l1000 -405v-129z" />
<glyph unicode="=" horiz-adv-x="1706" d="M254 360v117h1198v-117h-1198zM254 743v117h1198v-117h-1198z" />
<glyph unicode="&#x3e;" horiz-adv-x="1706" d="M264 76v129l1000 405l-1000 408v127l1178 -483v-103z" />
<glyph unicode="?" horiz-adv-x="561" d="M14 1112v31q0 180 61 258t201 78q142 0 199 -72.5t57 -259.5q0 -295 -38.5 -382.5t-140.5 -90.5l-1 -312h-174v433h6q104 0 140 46t36 234q0 146 -19.5 198t-68.5 52q-51 0 -71.5 -44.5t-20.5 -168.5h-166zM147 94q0 48 34 81.5t81 33.5q48 0 81.5 -33.5t33.5 -81.5 q0 -47 -33.5 -79.5t-81.5 -32.5t-81.5 32.5t-33.5 79.5z" />
<glyph unicode="@" horiz-adv-x="2048" d="M113 522q0 163 50.5 309t149.5 269q146 176 349.5 267t453.5 91q165 0 311 -43.5t248 -124.5q129 -99 195.5 -230t66.5 -282q0 -169 -62.5 -308.5t-182.5 -236.5q-69 -55 -148.5 -83.5t-163.5 -28.5q-99 0 -148.5 39t-49.5 116q0 3 1 11t1 12q-51 -87 -127 -132.5 t-170 -45.5q-153 0 -233.5 85t-80.5 247q0 230 137 389t332 159q91 0 153.5 -39.5t96.5 -117.5l58 121h110l-141 -568q-6 -24 -9 -44t-3 -36q0 -44 27.5 -67t82.5 -23q45 0 100 24t103 64q89 76 139.5 196.5t50.5 254.5q0 266 -195.5 428t-518.5 162q-168 0 -312.5 -52 t-259.5 -153q-140 -122 -211 -282.5t-71 -354.5q0 -173 60.5 -304t186.5 -230q101 -81 240 -124.5t295 -43.5q172 0 334.5 48.5t296.5 139.5l45 -66q-147 -109 -313 -165t-347 -56q-191 0 -348 46.5t-276 138.5q-153 117 -228 272t-75 352zM713 446q0 -110 51 -169.5 t145 -59.5q102 0 183.5 70.5t109.5 185.5l60 242q-17 90 -72 140t-135 50q-146 0 -244 -131.5t-98 -327.5z" />
<glyph unicode="A" horiz-adv-x="901" d="M16 0l342 1460h185l342 -1460h-199l-70 287h-333l-68 -287h-199zM319 451h263l-131 632z" />
<glyph unicode="B" horiz-adv-x="889" d="M117 0v1460h270q214 0 310 -88t96 -282q0 -146 -47 -225.5t-150 -112.5q115 -27 167 -105.5t52 -226.5q0 -216 -100 -318t-312 -102h-286zM313 186h66q136 0 186.5 52t50.5 184q0 133 -54.5 191.5t-180.5 58.5h-68v-486zM313 834h72q111 0 163 55t52 172q0 123 -48.5 174 t-166.5 51h-72v-452z" />
<glyph unicode="C" horiz-adv-x="780" d="M84 717q0 376 118.5 569t350.5 193q51 0 96 -10t86 -29v-187q-42 21 -80.5 31t-72.5 10q-157 0 -229 -137.5t-72 -437.5q0 -280 68.5 -414.5t211.5 -134.5q41 0 83 13.5t91 41.5v-192q-49 -26 -99 -38.5t-106 -12.5q-224 0 -335 183t-111 552z" />
<glyph unicode="D" horiz-adv-x="1014" d="M131 0v1460h260q298 0 419.5 -163.5t121.5 -565.5q0 -403 -121.5 -567t-419.5 -164h-260zM330 188h102q166 0 233.5 120t67.5 425q0 304 -67 423.5t-234 119.5h-102v-1088z" />
<glyph unicode="E" horiz-adv-x="786" d="M125 0v1460h584v-176h-387v-434h354v-174h-354v-494h387v-182h-584z" />
<glyph unicode="F" horiz-adv-x="786" d="M131 0v1460h598v-176h-401v-436h368v-174h-368v-674h-197z" />
<glyph unicode="G" horiz-adv-x="1004" d="M80 729q0 404 100.5 577t329.5 173q162 0 261 -76.5t136 -231.5l-174 -84q-21 107 -76 159t-145 52q-128 0 -180.5 -122.5t-52.5 -442.5q0 -317 52.5 -441t180.5 -124q114 0 171.5 94t57.5 281q0 28 -0.5 42.5t-1.5 26.5h-209v172h394q3 -46 4.5 -90t1.5 -84 q0 -321 -104.5 -474.5t-321.5 -153.5q-224 0 -324 174t-100 573z" />
<glyph unicode="H" horiz-adv-x="1008" d="M131 0v1460h197v-555h352v555h197v-1460h-197v721h-352v-721h-197z" />
<glyph unicode="I" horiz-adv-x="461" d="M131 0v1460h197v-1460h-197z" />
<glyph unicode="J" horiz-adv-x="621" d="M-18 45v201q47 -40 89 -59t83 -19q74 0 108.5 49t34.5 154v1089h197v-1083q0 -203 -74.5 -300t-229.5 -97q-55 0 -106.5 16t-101.5 49z" />
<glyph unicode="K" horiz-adv-x="891" d="M121 0v1460h196v-692l345 692h204l-348 -694l348 -766h-211l-338 750v-750h-196z" />
<glyph unicode="L" horiz-adv-x="772" d="M131 0v1460h197v-1278h422v-182h-619z" />
<glyph unicode="M" horiz-adv-x="1145" d="M72 0l125 1460h178l198 -1011l203 1011h172l127 -1460h-182l-59 1024l-195 -1024h-133l-195 1024l-59 -1024h-180z" />
<glyph unicode="N" horiz-adv-x="1014" d="M129 0v1460h182l387 -1014v1014h187v-1460h-185l-385 1022v-1022h-186z" />
<glyph unicode="O" horiz-adv-x="1006" d="M88 729q0 401 97.5 575.5t318.5 174.5q220 0 317 -173.5t97 -576.5q0 -401 -97 -574t-317 -173q-221 0 -318.5 173t-97.5 574zM287 733q0 -310 50.5 -437.5t168.5 -127.5q117 0 165 121t48 444q0 315 -49 439t-166 124q-118 0 -167.5 -125t-49.5 -438z" />
<glyph unicode="P" horiz-adv-x="897" d="M131 0v1460h240q133 0 207 -19t129 -63q64 -52 99.5 -138t35.5 -191q0 -200 -116.5 -304t-340.5 -104q-24 0 -36 0.5t-21 1.5v-643h-197zM328 819h73q132 0 188 55t56 183q0 123 -59.5 177t-198.5 54h-59v-469z" />
<glyph unicode="Q" horiz-adv-x="1006" d="M88 731q0 400 97.5 574t318.5 174q220 0 317 -173.5t97 -574.5q0 -221 -27 -370.5t-80 -225.5l119 -164l-117 -84l-106 148q-49 -26 -100.5 -38.5t-106.5 -12.5q-219 0 -315.5 173t-96.5 574zM283 733q0 -307 49.5 -435t165.5 -128q18 0 42.5 5t53.5 15l-129 179l117 84 l104 -144q20 56 28.5 160t8.5 289q0 297 -50.5 417.5t-168.5 120.5q-121 0 -171 -124t-50 -439z" />
<glyph unicode="R" horiz-adv-x="891" d="M131 0v1460h238q237 0 337.5 -88t100.5 -293q0 -162 -69 -252.5t-206 -107.5l347 -719h-211l-334 713h-6v-713h-197zM328 825h61q120 0 169.5 56t49.5 198q0 118 -47.5 163.5t-177.5 45.5h-55v-463z" />
<glyph unicode="S" d="M57 1094q0 165 105 275t260 110q68 0 131 -16t125 -50v-196q-57 40 -111.5 59.5t-107.5 19.5q-93 0 -149 -54.5t-56 -145.5q0 -126 215 -298q20 -16 31 -24q125 -101 177 -194t52 -213q0 -168 -107 -276.5t-274 -108.5q-61 0 -124 18t-130 55v201q70 -43 129 -63.5 t111 -20.5q90 0 143 52.5t53 140.5q0 129 -203 295l-36 30q-130 107 -182 198.5t-52 205.5z" />
<glyph unicode="T" horiz-adv-x="780" d="M20 1278v182h740v-182h-271v-1278h-198v1278h-271z" />
<glyph unicode="U" horiz-adv-x="1008" d="M119 389v1071h194v-1087q0 -105 47 -155t144 -50t143.5 50t46.5 155v1087h195v-1071q0 -212 -92.5 -309.5t-292.5 -97.5t-292.5 97.5t-92.5 309.5z" />
<glyph unicode="V" horiz-adv-x="848" d="M20 1460h199l205 -991l205 991h198l-321 -1460h-166z" />
<glyph unicode="W" horiz-adv-x="1235" d="M31 1460h194l142 -999l170 999h161l172 -999l140 999h194l-243 -1460h-162l-181 1036l-182 -1036h-160z" />
<glyph unicode="X" horiz-adv-x="784" d="M23 0l268 743l-254 717h196l160 -479l158 479h197l-254 -717l268 -743h-207l-162 508l-164 -508h-206z" />
<glyph unicode="Y" d="M16 1460h203l123 -407q12 -40 25.5 -100.5t25.5 -133.5q10 64 22.5 121t28.5 111l123 409h205l-278 -839v-621h-203v621z" />
<glyph unicode="Z" horiz-adv-x="784" d="M18 0l474 1286h-404v174h672l-469 -1278h428v-182h-701z" />
<glyph unicode="[" horiz-adv-x="559" d="M141 -383v1944h375v-160h-194v-1624h194v-160h-375z" />
<glyph unicode="\" horiz-adv-x="567" d="M0 1479h143l422 -1669h-143z" />
<glyph unicode="]" horiz-adv-x="559" d="M43 -223h193v1624h-193v160h373v-1944h-373v160z" />
<glyph unicode="^" horiz-adv-x="2048" d="M422 901l520 557h162l520 -557h-158l-442 438l-442 -438h-160z" />
<glyph unicode="_" horiz-adv-x="1024" d="M0 -365h1024v-118h-1024v118z" />
<glyph unicode="`" horiz-adv-x="1024" d="M289 1460h178l164 -346h-105z" />
<glyph unicode="a" horiz-adv-x="801" d="M72 492q0 250 63.5 378.5t188.5 128.5q63 0 110.5 -27t83.5 -85v94h180v-981h-180v96q-37 -59 -84.5 -86.5t-109.5 -27.5q-124 0 -188 129t-64 381zM254 492q0 -188 31.5 -265t103.5 -77t103.5 77.5t31.5 264.5q0 188 -31 263.5t-104 75.5t-104 -75.5t-31 -263.5z" />
<glyph unicode="b" horiz-adv-x="801" d="M102 0v1550h181v-665q36 58 83.5 85t110.5 27q129 0 190.5 -123.5t61.5 -384.5q0 -260 -61.5 -383.5t-190.5 -123.5q-62 0 -109.5 27.5t-84.5 86.5v-96h-181zM276 489q0 -188 31.5 -263.5t104.5 -75.5t104 75.5t31 263.5q0 189 -31 264.5t-104 75.5t-104.5 -75.5 t-31.5 -264.5z" />
<glyph unicode="c" horiz-adv-x="522" d="M59 489q0 251 71 380.5t208 129.5q42 0 81 -9.5t77 -28.5v-173q-25 24 -49 35t-50 11q-78 0 -116.5 -88t-38.5 -265q0 -163 37.5 -243t113.5 -80q27 0 52.5 10.5t50.5 32.5v-185q-38 -18 -74 -27t-74 -9q-148 0 -218.5 123.5t-70.5 385.5z" />
<glyph unicode="d" horiz-adv-x="801" d="M72 489q0 261 61 384.5t191 123.5q63 0 110.5 -27t83.5 -85v665h180v-1550h-180v96q-37 -59 -84.5 -86.5t-109.5 -27.5q-130 0 -191 123.5t-61 383.5zM254 489q0 -188 31 -263.5t104 -75.5t104 75.5t31 263.5q0 189 -31 264.5t-104 75.5t-104 -75.5t-31 -264.5z" />
<glyph unicode="e" horiz-adv-x="741" d="M61 496q0 253 76.5 378t231.5 125q165 0 238 -113.5t73 -371.5v-57h-449v-29q0 -154 35 -223.5t111 -69.5q61 0 92.5 48t34.5 144l166 1v-13q0 -155 -78 -244t-213 -89q-165 0 -241.5 122.5t-76.5 391.5zM231 598h275v25q0 121 -32 175t-103 54q-69 0 -104.5 -64.5 t-35.5 -189.5z" />
<glyph unicode="f" horiz-adv-x="446" d="M27 842v139h98v344q0 114 56.5 180t154.5 66q23 0 52 -5.5t65 -17.5v-164q-20 7 -37 10t-31 3q-41 0 -59.5 -23.5t-18.5 -75.5v-317h135v-139h-135v-842h-182v842h-98z" />
<glyph unicode="g" horiz-adv-x="801" d="M72 492q0 260 61 383.5t191 123.5q63 0 110.5 -27t83.5 -85v94h180v-1004q0 -203 -74.5 -287.5t-248.5 -84.5q-143 0 -219 72.5t-76 207.5v31h171q3 -80 33.5 -119t92.5 -39q75 0 108 47t33 154v139q-37 -58 -84.5 -86t-109.5 -28q-130 0 -191 123.5t-61 384.5zM254 492 q0 -189 31 -264.5t104 -75.5t104 75.5t31 264.5q0 188 -31 263.5t-104 75.5t-104 -75.5t-31 -263.5z" />
<glyph unicode="h" horiz-adv-x="817" d="M113 0v1550h180v-667q31 53 82.5 80.5t122.5 27.5q108 0 160.5 -60t52.5 -183v-748h-181v659q0 100 -26 136t-90 36q-60 0 -90.5 -37.5t-30.5 -111.5v-682h-180z" />
<glyph unicode="i" horiz-adv-x="410" d="M90 1274q0 49 33 83t82 34q48 0 81 -34t33 -83q0 -48 -33.5 -81.5t-80.5 -33.5q-49 0 -82 33t-33 82zM115 0v981h180v-981h-180z" />
<glyph unicode="j" horiz-adv-x="410" d="M90 1274q0 49 33 83t82 34q48 0 81 -34t33 -83q0 -48 -33.5 -81.5t-80.5 -33.5q-49 0 -82 33t-33 82zM115 -395v1376h180v-1376h-180z" />
<glyph unicode="k" horiz-adv-x="784" d="M119 0v1550h180v-1005l260 436h193l-271 -451l283 -530h-195l-270 516v-516h-180z" />
<glyph unicode="l" horiz-adv-x="410" d="M115 0v1550h180v-1550h-180z" />
<glyph unicode="m" horiz-adv-x="1229" d="M113 0v981h178v-98q34 54 84 81t117 27q66 0 113.5 -28.5t84.5 -90.5q40 60 94 89.5t123 29.5q108 0 160.5 -60t52.5 -183v-748h-180v659q0 100 -26 136t-91 36q-59 0 -90 -37.5t-31 -111.5v-682h-178v659q0 98 -26 135t-88 37q-58 0 -87.5 -37.5t-29.5 -111.5v-682h-180 z" />
<glyph unicode="n" horiz-adv-x="817" d="M113 0v981h178v-98q36 54 87.5 81t119.5 27q108 0 160.5 -60t52.5 -183v-748h-181v659q0 100 -26 136t-90 36q-60 0 -90.5 -37.5t-30.5 -111.5v-682h-180z" />
<glyph unicode="o" horiz-adv-x="784" d="M61 492q0 248 84.5 377.5t245.5 129.5t245.5 -129.5t84.5 -377.5q0 -250 -84.5 -380t-245.5 -130t-245.5 130t-84.5 380zM244 494q0 -180 35.5 -263.5t111.5 -83.5q77 0 113.5 84t36.5 263q0 178 -36.5 262t-113.5 84q-76 0 -111.5 -83.5t-35.5 -262.5z" />
<glyph unicode="p" horiz-adv-x="801" d="M102 -395v1376h181v-94q36 58 83.5 85t110.5 27q129 0 190.5 -123.5t61.5 -383.5q0 -261 -61.5 -384.5t-190.5 -123.5q-62 0 -109.5 28t-84.5 86v-493h-181zM276 492q0 -189 31.5 -264.5t104.5 -75.5t104 75.5t31 264.5q0 188 -31 263.5t-104 75.5t-104.5 -75.5 t-31.5 -263.5z" />
<glyph unicode="q" horiz-adv-x="801" d="M72 492q0 260 61 383.5t191 123.5q62 0 109.5 -27.5t84.5 -86.5v96h180v-1376h-180v491q-37 -59 -84.5 -86.5t-109.5 -27.5q-129 0 -190.5 124t-61.5 386zM254 492q0 -189 31 -264.5t104 -75.5t104 75.5t31 264.5q0 188 -31 263.5t-104 75.5t-104 -75.5t-31 -263.5z" />
<glyph unicode="r" horiz-adv-x="555" d="M115 0v981h174v-143q37 78 95 117.5t142 43.5v-190h-30q-105 0 -154 -52.5t-49 -164.5v-592h-178z" />
<glyph unicode="s" horiz-adv-x="559" d="M57 18v189q38 -33 75.5 -49.5t76.5 -16.5q57 0 93 34t36 87q0 63 -99 157q-13 13 -20 19q-96 91 -129 151t-33 132q0 124 76 202t197 78q40 0 78.5 -10t76.5 -30v-185q-29 34 -63.5 50t-79.5 16q-50 0 -82.5 -32t-32.5 -81q0 -65 95 -152q19 -17 28 -26 q89 -82 123.5 -148t34.5 -147q0 -125 -76 -199.5t-203 -74.5q-41 0 -84 9t-88 27z" />
<glyph unicode="t" horiz-adv-x="449" d="M25 848v133h98v266h180v-266h135v-133h-135v-848h-180v848h-98z" />
<glyph unicode="u" horiz-adv-x="817" d="M109 289v692h180v-702q0 -68 30 -103t89 -35q58 0 88 35t30 103v702h183v-692q0 -162 -71.5 -234.5t-229.5 -72.5t-228.5 72.5t-70.5 234.5z" />
<glyph unicode="v" horiz-adv-x="672" d="M18 981h187l102 -512q9 -45 16 -101.5t13 -123.5q9 81 16.5 137t14.5 86l100 514h186l-245 -981h-144z" />
<glyph unicode="w" horiz-adv-x="1010" d="M35 981h176l94 -503q7 -40 13 -89t14 -120q7 72 13.5 122t12.5 86l88 504h117l90 -504q10 -52 23 -188l2 -20q5 60 12 114t15 94l92 504h178l-230 -981h-127l-88 482q-6 38 -12.5 88.5t-13.5 121.5q-6 -63 -12.5 -117t-14.5 -94l-88 -481h-127z" />
<glyph unicode="x" horiz-adv-x="670" d="M14 0l226 520l-193 461h189l98 -283l100 283h187l-191 -461l225 -520h-190l-131 342l-129 -342h-191z" />
<glyph unicode="y" horiz-adv-x="672" d="M27 981h186l115 -643l155 643h179l-396 -1376h-186l151 481z" />
<glyph unicode="z" horiz-adv-x="676" d="M27 0l364 823h-342v158h600l-366 -819h338v-162h-594z" />
<glyph unicode="{" horiz-adv-x="1024" d="M172 467v127q8 0 23 -1t22 -1q134 0 189 61.5t55 214.5v244q0 153 22.5 215.5t77.5 97.5q42 28 102 40t160 12h35v-127q-8 0 -23 1t-22 1q-121 0 -164 -47t-43 -197v-242q0 -166 -43.5 -235.5t-154.5 -100.5q111 -30 154.5 -99.5t43.5 -235.5v-242q0 -149 43.5 -195.5 t169.5 -46.5h39v-125h-35q-99 0 -159.5 12t-102.5 40q-55 36 -77.5 100t-22.5 213v244q0 152 -55 213t-189 61q-7 0 -22 -1t-23 -1z" />
<glyph unicode="|" horiz-adv-x="1024" d="M449 -483v2048h126v-2048h-126z" />
<glyph unicode="}" horiz-adv-x="1024" d="M166 -289q8 0 23 -1t22 -1q120 0 163.5 47.5t43.5 198.5v240q0 166 43.5 235.5t154.5 99.5q-111 31 -154.5 100.5t-43.5 235.5v242q0 149 -44 196.5t-169 47.5h-39v125h35q100 0 161 -12.5t103 -39.5q54 -35 76 -98t22 -215v-244q0 -152 55.5 -214t190.5 -62q7 0 22 1 t23 1v-127q-8 0 -23 1t-22 1q-135 0 -190.5 -62t-55.5 -214v-242q0 -153 -22 -216.5t-76 -99.5q-39 -26 -97.5 -37.5t-160.5 -11.5h-41v125z" />
<glyph unicode="~" horiz-adv-x="1706" d="M178 461v133q105 73 202 109t185 36q56 0 116.5 -12.5t174.5 -52.5q14 -5 44 -16q158 -58 245 -58q84 0 174.5 37t210.5 121v-131q-101 -72 -197.5 -108t-189.5 -36q-43 0 -90.5 9t-100.5 26q-30 10 -87 31q-202 72 -302 72q-83 0 -173.5 -37.5t-211.5 -122.5z" />
<glyph d="M-12 815l32 76h89q24 288 142 438t320 150q52 0 98 -10t87 -29v-172q-44 21 -82.5 31t-75.5 10q-135 0 -212 -108t-85 -310h344l-33 -76h-315q0 -23 -1 -55t-1 -41q0 -18 0.5 -36t1.5 -38h240l-35 -76h-201q11 -205 81 -310t196 -105q40 0 83.5 14t94.5 43v-178 q-49 -26 -100 -38.5t-107 -12.5q-201 0 -311.5 147.5t-128.5 439.5h-99l35 76h59v62v55v53h-116z" />
<glyph unicode="&#x20ac;" d="M-12 815l32 76h89q24 288 142 438t320 150q52 0 98 -10t87 -29v-172q-44 21 -82.5 31t-75.5 10q-135 0 -212 -108t-85 -310h344l-33 -76h-315q0 -23 -1 -55t-1 -41q0 -18 0.5 -36t1.5 -38h240l-35 -76h-201q11 -205 81 -310t196 -105q40 0 83.5 14t94.5 43v-178 q-49 -26 -100 -38.5t-107 -12.5q-201 0 -311.5 147.5t-128.5 439.5h-99l35 76h59v62v55v53h-116z" />
<glyph unicode="&#xa0;" />
<glyph unicode="&#xa1;" horiz-adv-x="557" d="M164 1366q0 47 33.5 80t81.5 33q47 0 79.5 -32.5t32.5 -80.5t-32.5 -81.5t-79.5 -33.5q-48 0 -81.5 33.5t-33.5 81.5zM188 0v1104h181v-1104h-181z" />
<glyph unicode="&#xa2;" d="M154 727q0 233 59.5 359.5t179.5 148.5v192h92l1 -192q23 -5 50.5 -15t55.5 -24v-170q-25 23 -49 34t-49 11q-79 0 -118.5 -89t-39.5 -265q0 -164 37.5 -244t113.5 -80q28 0 54 11t51 32v-184q-26 -13 -53 -21.5t-53 -11.5l-1 -192h-92v194q-124 20 -181.5 141.5 t-57.5 364.5z" />
<glyph unicode="&#xa3;" d="M33 61q23 92 68 138.5t112 46.5q12 0 24 -1.5t25 -4.5q16 31 23.5 67t7.5 78q0 37 -7 78.5t-22 87.5h-172v88h135q-69 164 -98 270.5t-29 192.5q0 175 92.5 276t253.5 101q142 0 227 -81.5t85 -217.5v-9l-160 -69v14q0 97 -38.5 146t-115.5 49q-73 0 -115 -54t-42 -149 q0 -68 28 -170.5t103 -298.5h186v-88h-165q8 -35 13 -72.5t5 -75.5q0 -61 -12 -110t-37 -88q11 -6 30 -17q65 -34 88 -34q25 0 43.5 19t26.5 54l160 -53q-35 -101 -84.5 -146.5t-124.5 -45.5q-70 0 -162.5 47t-120.5 47q-25 0 -43.5 -16.5t-34.5 -53.5z" />
<glyph unicode="&#xa4;" d="M-12 815l32 76h89q24 288 142 438t320 150q52 0 98 -10t87 -29v-172q-44 21 -82.5 31t-75.5 10q-135 0 -212 -108t-85 -310h344l-33 -76h-315q0 -23 -1 -55t-1 -41q0 -18 0.5 -36t1.5 -38h240l-35 -76h-201q11 -205 81 -310t196 -105q40 0 83.5 14t94.5 43v-178 q-49 -26 -100 -38.5t-107 -12.5q-201 0 -311.5 147.5t-128.5 439.5h-99l35 76h59v62v55v53h-116z" />
<glyph unicode="&#xa5;" horiz-adv-x="834" d="M12 651v76h281l-57 172h-224v76h199l-160 485h174l156 -502q14 -46 23 -98.5t14 -111.5q3 53 13 106.5t28 112.5l151 493h172l-157 -485h198v-76h-225l-57 -172h282v-76h-309l-8 -30v-621h-178v621l-11 30h-305z" />
<glyph unicode="&#xa6;" horiz-adv-x="1024" d="M449 -350v758h126v-758h-126zM449 674v758h126v-758h-126z" />
<glyph unicode="&#xa7;" horiz-adv-x="780" d="M70 565q0 118 46.5 204.5t137.5 137.5q-69 49 -103 116.5t-34 154.5q0 136 77 218.5t203 82.5q136 0 212.5 -86.5t76.5 -241.5q0 -6 -1 -19t-1 -20h-172v10q0 99 -27 148t-82 49q-52 0 -81 -34.5t-29 -96.5q0 -118 155 -215q39 -25 60 -39q111 -76 160 -164t49 -209 q0 -119 -46 -198t-139 -119q79 -68 113.5 -134.5t34.5 -150.5q0 -151 -79.5 -240.5t-215.5 -89.5q-144 0 -216.5 87.5t-72.5 263.5v14h172v-10q0 -97 29 -146t86 -49t88 42t31 120q0 67 -30.5 112.5t-147.5 120.5q-155 99 -204.5 179.5t-49.5 201.5zM260 580q0 -99 37 -155 t100 -56q66 0 97.5 52t31.5 161q0 92 -35 145t-94 53q-62 0 -99.5 -54t-37.5 -146z" />
<glyph unicode="&#xa8;" horiz-adv-x="1024" d="M252 1274q0 44 31.5 76t74.5 32q45 0 77 -32t32 -76t-32 -75.5t-77 -31.5q-44 0 -75 31t-31 76zM555 1274q0 44 31.5 76t75.5 32t76 -32t32 -76t-32 -75.5t-76 -31.5q-45 0 -76 31t-31 76z" />
<glyph unicode="&#xa9;" horiz-adv-x="1706" d="M119 725q0 145 56.5 279.5t162.5 242.5q102 104 234 158.5t280 54.5q151 0 285 -55t239 -160q102 -102 156.5 -236t54.5 -284q0 -151 -54 -283t-157 -233q-109 -106 -244.5 -162.5t-279.5 -56.5q-146 0 -278 55.5t-238 161.5q-106 105 -161.5 238.5t-55.5 279.5zM207 725 q0 -127 49 -244t141 -211q93 -92 209.5 -141t245.5 -49t248.5 50t214.5 142q91 90 138.5 205.5t47.5 247.5q0 130 -49 249t-139 210q-92 92 -210 140t-251 48q-132 0 -247.5 -47.5t-205.5 -138.5q-93 -95 -142.5 -214t-49.5 -247zM465 721q0 208 107.5 332.5t287.5 124.5 q137 0 230 -74.5t104 -192.5h-129q-15 77 -70.5 120.5t-138.5 43.5q-117 0 -182.5 -92.5t-65.5 -259.5q0 -160 66.5 -252t181.5 -92q87 0 145.5 48.5t73.5 133.5h129q-11 -127 -109 -207t-245 -80q-176 0 -280.5 121t-104.5 326z" />
<glyph unicode="&#xaa;" horiz-adv-x="600" d="M53 1118q0 176 48.5 266.5t142.5 90.5q47 0 82.5 -20t62.5 -60v65h135v-686h-135v68q-27 -41 -62.5 -60.5t-82.5 -19.5q-94 0 -142.5 91t-48.5 265zM190 1118q0 -131 24 -185t79 -54q54 0 77 54t23 185q0 133 -23 185.5t-77 52.5q-55 0 -79 -53.5t-24 -184.5z" />
<glyph unicode="&#xab;" horiz-adv-x="721" d="M39 489l235 437l115 -64l-205 -373l205 -372l-115 -62zM332 489l237 437l113 -64l-203 -373l203 -372l-113 -62z" />
<glyph unicode="&#xac;" horiz-adv-x="1706" d="M254 741v117h1198v-502h-115v385h-1083z" />
<glyph unicode="&#xad;" horiz-adv-x="559" d="M76 410v161h407v-161h-407z" />
<glyph unicode="&#xae;" horiz-adv-x="1706" d="M119 725q0 147 57 282t164 242q101 103 232 157t280 54q150 0 284 -55.5t240 -161.5q102 -102 156.5 -235.5t54.5 -282.5q0 -151 -54.5 -283t-158.5 -233q-109 -106 -243.5 -162.5t-278.5 -56.5q-145 0 -278.5 56t-239.5 163q-105 104 -160 237t-55 279zM207 725 q0 -127 49 -244t141 -211q91 -92 208 -141t245 -49q131 0 249.5 48.5t213.5 141.5q91 90 139.5 206t48.5 245q0 133 -48 251.5t-138 209.5q-94 93 -211.5 141.5t-251.5 48.5q-132 0 -247 -47t-204 -137q-94 -95 -144 -214t-50 -249zM561 317v840h311q178 0 264.5 -57 t86.5 -174q0 -89 -53 -148.5t-144 -75.5l188 -385h-157l-176 365h-179v-365h-141zM702 774h148q123 0 175 33t52 108q0 79 -54.5 114.5t-176.5 35.5h-144v-291z" />
<glyph unicode="&#xaf;" horiz-adv-x="1024" d="M291 1202v148h442v-148h-442z" />
<glyph unicode="&#xb0;" horiz-adv-x="674" d="M55 1171q0 119 82.5 201t200.5 82q117 0 200 -83t83 -200q0 -116 -83.5 -199t-201.5 -83t-199.5 82t-81.5 200zM135 1171q0 -84 59.5 -143t143.5 -59t142.5 59t58.5 143t-58.5 142.5t-142.5 58.5t-143.5 -58.5t-59.5 -142.5z" />
<glyph unicode="&#xb1;" horiz-adv-x="1706" d="M254 41v117h1198v-117h-1198zM254 719v117h541v344h118v-344h539v-117h-539v-344h-118v344h-541z" />
<glyph unicode="&#xb2;" horiz-adv-x="520" d="M23 584l256 465q33 59 50 111t17 95q0 57 -21.5 85t-66.5 28q-49 0 -70.5 -37t-21.5 -125v-30h-121q-1 7 -1.5 16t-0.5 27q0 126 55.5 188.5t165.5 62.5q101 0 158 -57t57 -158q0 -59 -22 -122t-76 -152l-172 -285h250v-112h-436z" />
<glyph unicode="&#xb3;" horiz-adv-x="520" d="M29 791v22h112v-22q0 -56 25.5 -84.5t75.5 -28.5q53 0 77.5 36t24.5 115q0 101 -32.5 132.5t-127.5 31.5h-18v97h41q75 0 101 30t26 127q0 65 -20.5 96t-61.5 31q-50 0 -71 -33t-24 -116h-112v37q0 105 49 156.5t150 51.5q108 0 161.5 -58.5t53.5 -178.5 q0 -85 -28.5 -131.5t-86.5 -59.5q68 -10 97.5 -55.5t29.5 -142.5q0 -142 -56.5 -206.5t-181.5 -64.5q-103 0 -153.5 54t-50.5 164z" />
<glyph unicode="&#xb4;" horiz-adv-x="1024" d="M393 1114l164 346h178l-237 -346h-105z" />
<glyph unicode="&#xb5;" horiz-adv-x="1128" d="M-111 -426l316 1495h157l-126 -595q-8 -33 -11.5 -67t-3.5 -71q0 -109 57 -168t160 -59q125 0 208 101t128 308l121 551h156l-162 -754q-12 -52 -17.5 -84t-5.5 -51q0 -32 18.5 -48.5t53.5 -16.5q9 0 17.5 0.5t17.5 1.5l-27 -125q-21 -5 -44 -7.5t-48 -2.5 q-70 0 -104.5 35t-40.5 112q-41 -70 -117 -108.5t-172 -38.5q-87 0 -152.5 34t-109.5 103l-113 -545h-156z" />
<glyph unicode="&#xb6;" horiz-adv-x="1024" d="M76 1130q0 157 107.5 253t285.5 96h479v-78h-125v-1401h-94v1401h-182v-1401h-96v782q-173 8 -274 102.5t-101 245.5z" />
<glyph unicode="&#xb7;" horiz-adv-x="395" d="M84 729q0 48 32.5 81.5t80.5 33.5q47 0 80.5 -33.5t33.5 -81.5q0 -47 -33 -80t-81 -33t-80.5 32.5t-32.5 80.5z" />
<glyph unicode="&#xb8;" horiz-adv-x="1024" d="M283 -315q63 -22 113.5 -32.5t88.5 -10.5q45 0 67.5 19t22.5 56q0 42 -27.5 61t-88.5 19q-5 0 -17 -1t-18 -1v205h86v-94h12q93 0 142 -47.5t49 -139.5q0 -95 -53.5 -145.5t-153.5 -50.5q-46 0 -103 11t-120 32v119z" />
<glyph unicode="&#xb9;" horiz-adv-x="520" d="M94 1354v106h240v-876h-121v770h-119z" />
<glyph unicode="&#xba;" horiz-adv-x="588" d="M47 1118q0 175 63 266t183 91q121 0 184.5 -91.5t63.5 -265.5t-63.5 -265t-184.5 -91t-183.5 90.5t-62.5 265.5zM182 1120q0 -126 27 -184.5t84 -58.5q58 0 85.5 58.5t27.5 184.5t-27.5 184t-85.5 58q-57 0 -84 -58t-27 -184z" />
<glyph unicode="&#xbb;" horiz-adv-x="721" d="M39 117l203 372l-203 373l113 64l237 -437l-237 -434zM332 117l205 372l-205 373l114 64l236 -437l-236 -434z" />
<glyph unicode="&#xbc;" horiz-adv-x="1335" d="M90 1360v98h227v-817h-114v719h-113zM156 -18l886 1497h138l-887 -1497h-137zM866 223v105l258 489h107v-504h65v-90h-65v-223h-117v223h-248zM952 313h164v324z" />
<glyph unicode="&#xbd;" horiz-adv-x="1335" d="M90 1360v98h227v-817h-114v719h-113zM156 -18l886 1497h138l-887 -1497h-137zM860 0l246 434q32 56 47.5 104t15.5 89q0 54 -20.5 80t-63.5 26q-46 0 -67 -35.5t-21 -117.5v-29h-114q-1 7 -1.5 16t-0.5 27q0 116 53 174.5t158 58.5q95 0 149.5 -53.5t54.5 -146.5 q0 -55 -20.5 -113t-71.5 -143l-164 -267h238v-104h-418z" />
<glyph unicode="&#xbe;" horiz-adv-x="1335" d="M27 836v18h108v-18q0 -54 24 -80.5t72 -26.5q51 0 75 34t24 107q0 94 -31.5 124t-122.5 30h-18v90q8 -1 16 -1.5t23 -0.5q72 0 97 28.5t25 119.5q0 62 -19 91t-60 29q-47 0 -68 -32.5t-23 -108.5h-106v35q0 98 47.5 146t142.5 48q104 0 154.5 -54.5t50.5 -166.5 q0 -79 -27 -122.5t-83 -55.5q66 -10 94.5 -53t28.5 -133q0 -132 -55 -192t-175 -60q-98 0 -146 50.5t-48 154.5zM156 -18l886 1497h138l-887 -1497h-137zM866 223v105l258 489h107v-504h65v-90h-65v-223h-117v223h-248zM952 313h164v324z" />
<glyph unicode="&#xbf;" horiz-adv-x="561" d="M27 313q0 294 39 381.5t141 90.5v313h174v-432h-6q-103 0 -139.5 -47t-36.5 -236q0 -145 19.5 -196.5t68.5 -51.5q50 0 71 42t21 149v20h166v-31q0 -180 -61 -257.5t-201 -77.5q-141 0 -198.5 73t-57.5 260zM184 1364q0 48 33 81.5t80 33.5q48 0 81.5 -33.5t33.5 -81.5 q0 -47 -33.5 -80t-81.5 -33t-80.5 32.5t-32.5 80.5z" />
<glyph unicode="&#xc0;" horiz-adv-x="901" d="M16 0l342 1460h185l342 -1460h-199l-70 287h-333l-68 -287h-199zM319 451h263l-131 632zM228 1939h178l164 -346h-105z" />
<glyph unicode="&#xc1;" horiz-adv-x="901" d="M16 0l342 1460h185l342 -1460h-199l-70 287h-333l-68 -287h-199zM319 451h263l-131 632zM332 1593l164 346h178l-237 -346h-105z" />
<glyph unicode="&#xc2;" horiz-adv-x="901" d="M16 0l342 1460h185l342 -1460h-199l-70 287h-333l-68 -287h-199zM319 451h263l-131 632zM213 1591l152 348h172l152 -348h-105l-133 211l-133 -211h-105z" />
<glyph unicode="&#xc3;" horiz-adv-x="901" d="M16 0l342 1460h185l342 -1460h-199l-70 287h-333l-68 -287h-199zM319 451h263l-131 632zM211 1628q16 110 54 164.5t100 54.5q12 0 29 -3.5t38 -10.5l70 -25q12 -3 20.5 -4.5t16.5 -1.5q29 0 46.5 18t25.5 56h80q-19 -117 -57 -171.5t-101 -54.5q-13 1 -26 3t-30 8 l-66 24q-13 5 -25.5 7.5t-24.5 3.5q-27 0 -43.5 -16.5t-26.5 -51.5h-80z" />
<glyph unicode="&#xc4;" horiz-adv-x="901" d="M16 0l342 1460h185l342 -1460h-199l-70 287h-333l-68 -287h-199zM319 451h263l-131 632zM191 1753q0 44 31.5 76t74.5 32q45 0 77 -32t32 -76t-32 -75.5t-77 -31.5q-44 0 -75 31t-31 76zM494 1753q0 44 31.5 76t75.5 32t76 -32t32 -76t-32 -75.5t-76 -31.5q-45 0 -76 31 t-31 76z" />
<glyph unicode="&#xc5;" horiz-adv-x="901" d="M16 0l342 1460h185l342 -1460h-199l-70 287h-333l-68 -287h-199zM227 1747q0 94 65 158.5t159 64.5t159.5 -65t65.5 -158t-65.5 -158t-159.5 -65q-93 0 -158.5 65.5t-65.5 157.5zM319 451h263l-131 632zM344 1747q0 -45 32 -77t77 -32q44 0 76 32t32 77q0 46 -31 77 t-77 31t-77.5 -31t-31.5 -77z" />
<glyph unicode="&#xc6;" horiz-adv-x="1202" d="M16 0l349 1460h548l39 -176h-344l90 -434h312l32 -174h-309l98 -490h345l34 -186h-524l-59 287h-344l-68 -287h-199zM319 451h277l-133 690z" />
<glyph unicode="&#xc7;" horiz-adv-x="780" d="M84 717q0 376 118.5 569t350.5 193q51 0 96 -10t86 -29v-187q-42 21 -80.5 31t-72.5 10q-157 0 -229 -137.5t-72 -437.5q0 -280 68.5 -414.5t211.5 -134.5q41 0 83 13.5t91 41.5v-192q-49 -26 -99 -38.5t-106 -12.5q-224 0 -335 183t-111 552zM256 -315 q63 -22 113.5 -32.5t88.5 -10.5q45 0 67.5 19t22.5 56q0 42 -27.5 61t-88.5 19q-5 0 -17 -1t-18 -1v205h86v-94h12q93 0 142 -47.5t49 -139.5q0 -95 -53.5 -145.5t-153.5 -50.5q-46 0 -103 11t-120 32v119z" />
<glyph unicode="&#xc8;" horiz-adv-x="786" d="M125 0v1460h584v-176h-387v-434h354v-174h-354v-494h387v-182h-584zM191 1939h178l164 -346h-105z" />
<glyph unicode="&#xc9;" horiz-adv-x="786" d="M125 0v1460h584v-176h-387v-434h354v-174h-354v-494h387v-182h-584zM295 1593l164 346h178l-237 -346h-105z" />
<glyph unicode="&#xca;" horiz-adv-x="786" d="M125 0v1460h584v-176h-387v-434h354v-174h-354v-494h387v-182h-584zM176 1591l152 348h172l152 -348h-105l-133 211l-133 -211h-105z" />
<glyph unicode="&#xcb;" horiz-adv-x="786" d="M125 0v1460h584v-176h-387v-434h354v-174h-354v-494h387v-182h-584zM154 1753q0 44 31.5 76t74.5 32q45 0 77 -32t32 -76t-32 -75.5t-77 -31.5q-44 0 -75 31t-31 76zM457 1753q0 44 31.5 76t75.5 32t76 -32t32 -76t-32 -75.5t-76 -31.5q-45 0 -76 31t-31 76z" />
<glyph unicode="&#xcc;" horiz-adv-x="461" d="M131 0v1460h197v-1460h-197zM8 1939h178l164 -346h-105z" />
<glyph unicode="&#xcd;" horiz-adv-x="461" d="M131 0v1460h197v-1460h-197zM112 1593l164 346h178l-237 -346h-105z" />
<glyph unicode="&#xce;" horiz-adv-x="461" d="M131 0v1460h197v-1460h-197zM-7 1591l152 348h172l152 -348h-105l-133 211l-133 -211h-105z" />
<glyph unicode="&#xcf;" horiz-adv-x="461" d="M131 0v1460h197v-1460h-197zM-29 1753q0 44 31.5 76t74.5 32q45 0 77 -32t32 -76t-32 -75.5t-77 -31.5q-44 0 -75 31t-31 76zM274 1753q0 44 31.5 76t75.5 32t76 -32t32 -76t-32 -75.5t-76 -31.5q-45 0 -76 31t-31 76z" />
<glyph unicode="&#xd0;" horiz-adv-x="1022" d="M0 731v162h141v567h260q298 0 419.5 -163.5t121.5 -565.5q0 -403 -121.5 -567t-419.5 -164h-260v731h-141zM338 188h102q167 0 234 120t67 425q0 304 -67 423.5t-234 119.5h-102v-383h180v-162h-180v-543z" />
<glyph unicode="&#xd1;" horiz-adv-x="1014" d="M129 0v1460h182l387 -1014v1014h187v-1460h-185l-385 1022v-1022h-186zM272 1628q16 110 54 164.5t100 54.5q12 0 29 -3.5t38 -10.5l70 -25q12 -3 20.5 -4.5t16.5 -1.5q29 0 46.5 18t25.5 56h80q-19 -117 -57 -171.5t-101 -54.5q-13 1 -26 3t-30 8l-66 24 q-13 5 -25.5 7.5t-24.5 3.5q-27 0 -43.5 -16.5t-26.5 -51.5h-80z" />
<glyph unicode="&#xd2;" horiz-adv-x="1006" d="M88 729q0 401 97.5 575.5t318.5 174.5q220 0 317 -173.5t97 -576.5q0 -401 -97 -574t-317 -173q-221 0 -318.5 173t-97.5 574zM287 733q0 -310 50.5 -437.5t168.5 -127.5q117 0 165 121t48 444q0 315 -49 439t-166 124q-118 0 -167.5 -125t-49.5 -438zM281 1939h178 l164 -346h-105z" />
<glyph unicode="&#xd3;" horiz-adv-x="1006" d="M88 729q0 401 97.5 575.5t318.5 174.5q220 0 317 -173.5t97 -576.5q0 -401 -97 -574t-317 -173q-221 0 -318.5 173t-97.5 574zM287 733q0 -310 50.5 -437.5t168.5 -127.5q117 0 165 121t48 444q0 315 -49 439t-166 124q-118 0 -167.5 -125t-49.5 -438zM385 1593l164 346 h178l-237 -346h-105z" />
<glyph unicode="&#xd4;" horiz-adv-x="1006" d="M88 729q0 401 97.5 575.5t318.5 174.5q220 0 317 -173.5t97 -576.5q0 -401 -97 -574t-317 -173q-221 0 -318.5 173t-97.5 574zM287 733q0 -310 50.5 -437.5t168.5 -127.5q117 0 165 121t48 444q0 315 -49 439t-166 124q-118 0 -167.5 -125t-49.5 -438zM266 1591l152 348 h172l152 -348h-105l-133 211l-133 -211h-105z" />
<glyph unicode="&#xd5;" horiz-adv-x="1006" d="M88 729q0 401 97.5 575.5t318.5 174.5q220 0 317 -173.5t97 -576.5q0 -401 -97 -574t-317 -173q-221 0 -318.5 173t-97.5 574zM287 733q0 -310 50.5 -437.5t168.5 -127.5q117 0 165 121t48 444q0 315 -49 439t-166 124q-118 0 -167.5 -125t-49.5 -438zM264 1628 q16 110 54 164.5t100 54.5q12 0 29 -3.5t38 -10.5l70 -25q12 -3 20.5 -4.5t16.5 -1.5q29 0 46.5 18t25.5 56h80q-19 -117 -57 -171.5t-101 -54.5q-13 1 -26 3t-30 8l-66 24q-13 5 -25.5 7.5t-24.5 3.5q-27 0 -43.5 -16.5t-26.5 -51.5h-80z" />
<glyph unicode="&#xd6;" horiz-adv-x="1006" d="M88 729q0 401 97.5 575.5t318.5 174.5q220 0 317 -173.5t97 -576.5q0 -401 -97 -574t-317 -173q-221 0 -318.5 173t-97.5 574zM287 733q0 -310 50.5 -437.5t168.5 -127.5q117 0 165 121t48 444q0 315 -49 439t-166 124q-118 0 -167.5 -125t-49.5 -438zM244 1753 q0 44 31.5 76t74.5 32q45 0 77 -32t32 -76t-32 -75.5t-77 -31.5q-44 0 -75 31t-31 76zM547 1753q0 44 31.5 76t75.5 32t76 -32t32 -76t-32 -75.5t-76 -31.5q-45 0 -76 31t-31 76z" />
<glyph unicode="&#xd7;" horiz-adv-x="1706" d="M301 135l475 475l-475 477l80 82l477 -477l475 477l82 -82l-475 -477l475 -475l-82 -82l-475 475l-477 -475z" />
<glyph unicode="&#xd8;" horiz-adv-x="1006" d="M41 25l113 194q-34 108 -50 232t-16 280q0 400 97.5 574t318.5 174q94 0 165.5 -34.5t129.5 -107.5l78 136l75 -43l-102 -181q34 -90 51 -213.5t17 -292.5q0 -411 -96.5 -585t-317.5 -174q-99 0 -172 35.5t-129 111.5l-86 -149zM287 733q0 -69 3 -135t9 -129l383 668 q-23 80 -67 118.5t-111 38.5q-118 0 -167.5 -124t-49.5 -437zM324 340q23 -85 68 -126.5t114 -41.5q117 0 165 120t48 441q0 77 -3 146t-9 129z" />
<glyph unicode="&#xd9;" horiz-adv-x="1008" d="M119 389v1071h194v-1087q0 -105 47 -155t144 -50t143.5 50t46.5 155v1087h195v-1071q0 -212 -92.5 -309.5t-292.5 -97.5t-292.5 97.5t-92.5 309.5zM281 1939h178l164 -346h-105z" />
<glyph unicode="&#xda;" horiz-adv-x="1008" d="M119 389v1071h194v-1087q0 -105 47 -155t144 -50t143.5 50t46.5 155v1087h195v-1071q0 -212 -92.5 -309.5t-292.5 -97.5t-292.5 97.5t-92.5 309.5zM385 1593l164 346h178l-237 -346h-105z" />
<glyph unicode="&#xdb;" horiz-adv-x="1008" d="M119 389v1071h194v-1087q0 -105 47 -155t144 -50t143.5 50t46.5 155v1087h195v-1071q0 -212 -92.5 -309.5t-292.5 -97.5t-292.5 97.5t-92.5 309.5zM266 1591l152 348h172l152 -348h-105l-133 211l-133 -211h-105z" />
<glyph unicode="&#xdc;" horiz-adv-x="1008" d="M119 389v1071h194v-1087q0 -105 47 -155t144 -50t143.5 50t46.5 155v1087h195v-1071q0 -212 -92.5 -309.5t-292.5 -97.5t-292.5 97.5t-92.5 309.5zM244 1753q0 44 31.5 76t74.5 32q45 0 77 -32t32 -76t-32 -75.5t-77 -31.5q-44 0 -75 31t-31 76zM547 1753q0 44 31.5 76 t75.5 32t76 -32t32 -76t-32 -75.5t-76 -31.5q-45 0 -76 31t-31 76z" />
<glyph unicode="&#xdd;" d="M16 1460h203l123 -407q12 -40 25.5 -100.5t25.5 -133.5q10 64 22.5 121t28.5 111l123 409h205l-278 -839v-621h-203v621zM276 1593l164 346h178l-237 -346h-105z" />
<glyph unicode="&#xde;" horiz-adv-x="897" d="M131 0v1460h197v-295l42 2q11 1 23 1.5t35 0.5q194 0 304 -109.5t110 -303.5q0 -200 -116.5 -303t-340.5 -103q-23 0 -34.5 0.5t-22.5 1.5v-352h-197zM328 528h73q133 0 188.5 54.5t55.5 181.5q0 123 -59.5 177t-198.5 54h-59v-467z" />
<glyph unicode="&#xdf;" horiz-adv-x="778" d="M106 0v1262q0 143 71.5 218.5t207.5 75.5q153 0 217 -81.5t64 -286.5q0 -128 -32 -183t-114 -81q107 -15 147 -99t40 -350q0 -287 -61.5 -385t-225.5 -98h-33v159q79 4 107 56.5t28 234.5q0 270 -30.5 335t-114.5 65h-12v145q72 4 100.5 46t28.5 153q0 124 -23 167.5 t-82 43.5q-52 0 -78 -35t-26 -105v-1257h-179z" />
<glyph unicode="&#xe0;" horiz-adv-x="801" d="M72 492q0 250 63.5 378.5t188.5 128.5q63 0 110.5 -27t83.5 -85v94h180v-981h-180v96q-37 -59 -84.5 -86.5t-109.5 -27.5q-124 0 -188 129t-64 381zM254 492q0 -188 31.5 -265t103.5 -77t103.5 77.5t31.5 264.5q0 188 -31 263.5t-104 75.5t-104 -75.5t-31 -263.5z M211 1460h178l164 -346h-105z" />
<glyph unicode="&#xe1;" horiz-adv-x="801" d="M72 492q0 250 63.5 378.5t188.5 128.5q63 0 110.5 -27t83.5 -85v94h180v-981h-180v96q-37 -59 -84.5 -86.5t-109.5 -27.5q-124 0 -188 129t-64 381zM254 492q0 -188 31.5 -265t103.5 -77t103.5 77.5t31.5 264.5q0 188 -31 263.5t-104 75.5t-104 -75.5t-31 -263.5z M315 1114l164 346h178l-237 -346h-105z" />
<glyph unicode="&#xe2;" horiz-adv-x="801" d="M72 492q0 250 63.5 378.5t188.5 128.5q63 0 110.5 -27t83.5 -85v94h180v-981h-180v96q-37 -59 -84.5 -86.5t-109.5 -27.5q-124 0 -188 129t-64 381zM254 492q0 -188 31.5 -265t103.5 -77t103.5 77.5t31.5 264.5q0 188 -31 263.5t-104 75.5t-104 -75.5t-31 -263.5z M196 1112l152 348h172l152 -348h-105l-133 211l-133 -211h-105z" />
<glyph unicode="&#xe3;" horiz-adv-x="801" d="M72 492q0 250 63.5 378.5t188.5 128.5q63 0 110.5 -27t83.5 -85v94h180v-981h-180v96q-37 -59 -84.5 -86.5t-109.5 -27.5q-124 0 -188 129t-64 381zM254 492q0 -188 31.5 -265t103.5 -77t103.5 77.5t31.5 264.5q0 188 -31 263.5t-104 75.5t-104 -75.5t-31 -263.5z M194 1149q16 110 54 164.5t100 54.5q12 0 29 -3.5t38 -10.5l70 -25q12 -3 20.5 -4.5t16.5 -1.5q29 0 46.5 18t25.5 56h80q-19 -117 -57 -171.5t-101 -54.5q-13 1 -26 3t-30 8l-66 24q-13 5 -25.5 7.5t-24.5 3.5q-27 0 -43.5 -16.5t-26.5 -51.5h-80z" />
<glyph unicode="&#xe4;" horiz-adv-x="801" d="M72 492q0 250 63.5 378.5t188.5 128.5q63 0 110.5 -27t83.5 -85v94h180v-981h-180v96q-37 -59 -84.5 -86.5t-109.5 -27.5q-124 0 -188 129t-64 381zM254 492q0 -188 31.5 -265t103.5 -77t103.5 77.5t31.5 264.5q0 188 -31 263.5t-104 75.5t-104 -75.5t-31 -263.5z M174 1274q0 44 31.5 76t74.5 32q45 0 77 -32t32 -76t-32 -75.5t-77 -31.5q-44 0 -75 31t-31 76zM477 1274q0 44 31.5 76t75.5 32t76 -32t32 -76t-32 -75.5t-76 -31.5q-45 0 -76 31t-31 76z" />
<glyph unicode="&#xe5;" horiz-adv-x="801" d="M72 492q0 250 63.5 378.5t188.5 128.5q63 0 110.5 -27t83.5 -85v94h180v-981h-180v96q-37 -59 -84.5 -86.5t-109.5 -27.5q-124 0 -188 129t-64 381zM207 1284q0 94 64.5 158.5t158.5 64.5t159.5 -65t65.5 -158t-65.5 -158t-159.5 -65q-92 0 -157.5 65.5t-65.5 157.5z M254 492q0 -188 31.5 -265t103.5 -77t103.5 77.5t31.5 264.5q0 188 -31 263.5t-104 75.5t-104 -75.5t-31 -263.5zM322 1284q0 -44 32 -76t76 -32q45 0 77 32t32 76q0 46 -32 77.5t-77 31.5q-46 0 -77 -31.5t-31 -77.5z" />
<glyph unicode="&#xe6;" horiz-adv-x="1130" d="M51 330q0 146 67 229.5t183 83.5q45 0 85.5 -14.5t76.5 -44.5v75q0 96 -38 140.5t-118 44.5q-41 0 -86.5 -15t-95.5 -45v170q52 23 103 34t104 11q73 0 126 -30.5t87 -91.5q42 63 94.5 92.5t122.5 29.5q165 0 238 -113.5t73 -371.5v-57h-448v-27q0 -152 35 -222.5 t110 -70.5q60 0 92 48t35 142l166 1v-13q0 -154 -77.5 -241.5t-213.5 -87.5q-91 0 -150 37.5t-98 119.5q-31 -77 -86 -117t-131 -40q-121 0 -188.5 90.5t-67.5 253.5zM223 324q0 -89 33.5 -138t93.5 -49t90.5 51.5t30.5 151.5q0 78 -32.5 123t-88.5 45q-59 0 -93 -49.5 t-34 -134.5zM625 598h274v25q0 121 -32 175t-103 54q-67 0 -103 -58.5t-36 -168.5v-27z" />
<glyph unicode="&#xe7;" horiz-adv-x="522" d="M59 489q0 251 71 380.5t208 129.5q42 0 81 -9.5t77 -28.5v-173q-25 24 -49 35t-50 11q-78 0 -116.5 -88t-38.5 -265q0 -163 37.5 -243t113.5 -80q27 0 52.5 10.5t50.5 32.5v-185q-38 -18 -74 -27t-74 -9q-148 0 -218.5 123.5t-70.5 385.5zM99 -315q63 -22 113.5 -32.5 t88.5 -10.5q45 0 67.5 19t22.5 56q0 42 -27.5 61t-88.5 19q-5 0 -17 -1t-18 -1v205h86v-94h12q93 0 142 -47.5t49 -139.5q0 -95 -53.5 -145.5t-153.5 -50.5q-46 0 -103 11t-120 32v119z" />
<glyph unicode="&#xe8;" horiz-adv-x="741" d="M61 496q0 253 76.5 378t231.5 125q165 0 238 -113.5t73 -371.5v-57h-449v-29q0 -154 35 -223.5t111 -69.5q61 0 92.5 48t34.5 144l166 1v-13q0 -155 -78 -244t-213 -89q-165 0 -241.5 122.5t-76.5 391.5zM231 598h275v25q0 121 -32 175t-103 54q-69 0 -104.5 -64.5 t-35.5 -189.5zM148 1460h178l164 -346h-105z" />
<glyph unicode="&#xe9;" horiz-adv-x="741" d="M61 496q0 253 76.5 378t231.5 125q165 0 238 -113.5t73 -371.5v-57h-449v-29q0 -154 35 -223.5t111 -69.5q61 0 92.5 48t34.5 144l166 1v-13q0 -155 -78 -244t-213 -89q-165 0 -241.5 122.5t-76.5 391.5zM231 598h275v25q0 121 -32 175t-103 54q-69 0 -104.5 -64.5 t-35.5 -189.5zM252 1114l164 346h178l-237 -346h-105z" />
<glyph unicode="&#xea;" horiz-adv-x="741" d="M61 496q0 253 76.5 378t231.5 125q165 0 238 -113.5t73 -371.5v-57h-449v-29q0 -154 35 -223.5t111 -69.5q61 0 92.5 48t34.5 144l166 1v-13q0 -155 -78 -244t-213 -89q-165 0 -241.5 122.5t-76.5 391.5zM231 598h275v25q0 121 -32 175t-103 54q-69 0 -104.5 -64.5 t-35.5 -189.5zM133 1112l152 348h172l152 -348h-105l-133 211l-133 -211h-105z" />
<glyph unicode="&#xeb;" horiz-adv-x="741" d="M61 496q0 253 76.5 378t231.5 125q165 0 238 -113.5t73 -371.5v-57h-449v-29q0 -154 35 -223.5t111 -69.5q61 0 92.5 48t34.5 144l166 1v-13q0 -155 -78 -244t-213 -89q-165 0 -241.5 122.5t-76.5 391.5zM231 598h275v25q0 121 -32 175t-103 54q-69 0 -104.5 -64.5 t-35.5 -189.5zM111 1274q0 44 31.5 76t74.5 32q45 0 77 -32t32 -76t-32 -75.5t-77 -31.5q-44 0 -75 31t-31 76zM414 1274q0 44 31.5 76t75.5 32t76 -32t32 -76t-32 -75.5t-76 -31.5q-45 0 -76 31t-31 76z" />
<glyph unicode="&#xec;" horiz-adv-x="410" d="M115 0v981h180v-981h-180zM-18 1460h178l164 -346h-105z" />
<glyph unicode="&#xed;" horiz-adv-x="410" d="M115 0v981h180v-981h-180zM86 1114l164 346h178l-237 -346h-105z" />
<glyph unicode="&#xee;" horiz-adv-x="410" d="M115 0v981h180v-981h-180zM-33 1112l152 348h172l152 -348h-105l-133 211l-133 -211h-105z" />
<glyph unicode="&#xef;" horiz-adv-x="410" d="M115 0v981h180v-981h-180zM-55 1274q0 44 31.5 76t74.5 32q45 0 77 -32t32 -76t-32 -75.5t-77 -31.5q-44 0 -75 31t-31 76zM248 1274q0 44 31.5 76t75.5 32t76 -32t32 -76t-32 -75.5t-76 -31.5q-45 0 -76 31t-31 76z" />
<glyph unicode="&#xf0;" horiz-adv-x="784" d="M61 463q0 223 82.5 352t221.5 129q31 0 63 -12.5t66 -38.5q-26 70 -63 143.5t-85 149.5l-172 -78l-49 86l162 78q-26 39 -58.5 81.5t-74.5 92.5l127 76q36 -42 72.5 -89t74.5 -100l168 80l55 -88l-166 -80q122 -185 179 -375t57 -409q0 -235 -84.5 -357t-245.5 -122 q-160 0 -245 123.5t-85 357.5zM244 465q0 -162 35.5 -238.5t111.5 -76.5t113 77t37 238t-37 239t-113 78t-111.5 -76.5t-35.5 -240.5z" />
<glyph unicode="&#xf1;" horiz-adv-x="817" d="M113 0v981h178v-98q36 54 87.5 81t119.5 27q108 0 160.5 -60t52.5 -183v-748h-181v659q0 100 -26 136t-90 36q-60 0 -90.5 -37.5t-30.5 -111.5v-682h-180zM170 1149q16 110 54 164.5t100 54.5q12 0 29 -3.5t38 -10.5l70 -25q12 -3 20.5 -4.5t16.5 -1.5q29 0 46.5 18 t25.5 56h80q-19 -117 -57 -171.5t-101 -54.5q-13 1 -26 3t-30 8l-66 24q-13 5 -25.5 7.5t-24.5 3.5q-27 0 -43.5 -16.5t-26.5 -51.5h-80z" />
<glyph unicode="&#xf2;" horiz-adv-x="784" d="M61 492q0 248 84.5 377.5t245.5 129.5t245.5 -129.5t84.5 -377.5q0 -250 -84.5 -380t-245.5 -130t-245.5 130t-84.5 380zM244 494q0 -180 35.5 -263.5t111.5 -83.5q77 0 113.5 84t36.5 263q0 178 -36.5 262t-113.5 84q-76 0 -111.5 -83.5t-35.5 -262.5zM170 1460h178 l164 -346h-105z" />
<glyph unicode="&#xf3;" horiz-adv-x="784" d="M61 492q0 248 84.5 377.5t245.5 129.5t245.5 -129.5t84.5 -377.5q0 -250 -84.5 -380t-245.5 -130t-245.5 130t-84.5 380zM244 494q0 -180 35.5 -263.5t111.5 -83.5q77 0 113.5 84t36.5 263q0 178 -36.5 262t-113.5 84q-76 0 -111.5 -83.5t-35.5 -262.5zM274 1114l164 346 h178l-237 -346h-105z" />
<glyph unicode="&#xf4;" horiz-adv-x="784" d="M61 492q0 248 84.5 377.5t245.5 129.5t245.5 -129.5t84.5 -377.5q0 -250 -84.5 -380t-245.5 -130t-245.5 130t-84.5 380zM244 494q0 -180 35.5 -263.5t111.5 -83.5q77 0 113.5 84t36.5 263q0 178 -36.5 262t-113.5 84q-76 0 -111.5 -83.5t-35.5 -262.5zM155 1112l152 348 h172l152 -348h-105l-133 211l-133 -211h-105z" />
<glyph unicode="&#xf5;" horiz-adv-x="784" d="M61 492q0 248 84.5 377.5t245.5 129.5t245.5 -129.5t84.5 -377.5q0 -250 -84.5 -380t-245.5 -130t-245.5 130t-84.5 380zM244 494q0 -180 35.5 -263.5t111.5 -83.5q77 0 113.5 84t36.5 263q0 178 -36.5 262t-113.5 84q-76 0 -111.5 -83.5t-35.5 -262.5zM153 1149 q16 110 54 164.5t100 54.5q12 0 29 -3.5t38 -10.5l70 -25q12 -3 20.5 -4.5t16.5 -1.5q29 0 46.5 18t25.5 56h80q-19 -117 -57 -171.5t-101 -54.5q-13 1 -26 3t-30 8l-66 24q-13 5 -25.5 7.5t-24.5 3.5q-27 0 -43.5 -16.5t-26.5 -51.5h-80z" />
<glyph unicode="&#xf6;" horiz-adv-x="784" d="M61 492q0 248 84.5 377.5t245.5 129.5t245.5 -129.5t84.5 -377.5q0 -250 -84.5 -380t-245.5 -130t-245.5 130t-84.5 380zM244 494q0 -180 35.5 -263.5t111.5 -83.5q77 0 113.5 84t36.5 263q0 178 -36.5 262t-113.5 84q-76 0 -111.5 -83.5t-35.5 -262.5zM133 1274 q0 44 31.5 76t74.5 32q45 0 77 -32t32 -76t-32 -75.5t-77 -31.5q-44 0 -75 31t-31 76zM436 1274q0 44 31.5 76t75.5 32t76 -32t32 -76t-32 -75.5t-76 -31.5q-45 0 -76 31t-31 76z" />
<glyph unicode="&#xf7;" horiz-adv-x="1706" d="M254 553v117h1198v-117h-1198zM739 250q0 48 34 81.5t81 33.5t81 -34t34 -81t-33.5 -81t-81.5 -34t-81.5 33.5t-33.5 81.5zM739 971q0 47 34 80.5t81 33.5q48 0 81.5 -33.5t33.5 -80.5q0 -48 -33.5 -81.5t-81.5 -33.5q-49 0 -82 33.5t-33 81.5z" />
<glyph unicode="&#xf8;" horiz-adv-x="784" d="M61 492q0 251 85 380t249 129q48 0 86.5 -10.5t69.5 -32.5l43 95l68 -31l-52 -117q55 -63 83 -167t28 -246q0 -249 -83.5 -380.5t-240.5 -131.5q-54 0 -97 12t-79 37l-37 -82l-69 30l47 111q-52 68 -76.5 164t-24.5 240zM244 494q0 -61 3.5 -109.5t10.5 -87.5l223 500 q-16 22 -37.5 32.5t-52.5 10.5q-76 0 -111.5 -83.5t-35.5 -262.5zM295 201q19 -29 42 -42.5t54 -13.5q76 0 113 85.5t37 263.5q0 63 -5.5 114.5t-17.5 96.5z" />
<glyph unicode="&#xf9;" horiz-adv-x="817" d="M109 289v692h180v-702q0 -68 30 -103t89 -35q58 0 88 35t30 103v702h183v-692q0 -162 -71.5 -234.5t-229.5 -72.5t-228.5 72.5t-70.5 234.5zM187 1460h178l164 -346h-105z" />
<glyph unicode="&#xfa;" horiz-adv-x="817" d="M109 289v692h180v-702q0 -68 30 -103t89 -35q58 0 88 35t30 103v702h183v-692q0 -162 -71.5 -234.5t-229.5 -72.5t-228.5 72.5t-70.5 234.5zM291 1114l164 346h178l-237 -346h-105z" />
<glyph unicode="&#xfb;" horiz-adv-x="817" d="M109 289v692h180v-702q0 -68 30 -103t89 -35q58 0 88 35t30 103v702h183v-692q0 -162 -71.5 -234.5t-229.5 -72.5t-228.5 72.5t-70.5 234.5zM172 1112l152 348h172l152 -348h-105l-133 211l-133 -211h-105z" />
<glyph unicode="&#xfc;" horiz-adv-x="817" d="M109 289v692h180v-702q0 -68 30 -103t89 -35q58 0 88 35t30 103v702h183v-692q0 -162 -71.5 -234.5t-229.5 -72.5t-228.5 72.5t-70.5 234.5zM150 1274q0 44 31.5 76t74.5 32q45 0 77 -32t32 -76t-32 -75.5t-77 -31.5q-44 0 -75 31t-31 76zM453 1274q0 44 31.5 76t75.5 32 t76 -32t32 -76t-32 -75.5t-76 -31.5q-45 0 -76 31t-31 76z" />
<glyph unicode="&#xfd;" horiz-adv-x="672" d="M27 981h186l115 -643l155 643h179l-396 -1376h-186l151 481zM217 1114l164 346h178l-237 -346h-105z" />
<glyph unicode="&#xfe;" horiz-adv-x="801" d="M102 -395v1945h181v-663q36 58 83.5 85t110.5 27q129 0 190.5 -124t61.5 -383q0 -261 -61.5 -384.5t-190.5 -123.5q-62 0 -109.5 28t-84.5 86v-493h-181zM276 492q0 -189 31.5 -264.5t104.5 -75.5q72 0 103.5 76.5t31.5 263.5q0 186 -31.5 262.5t-103.5 76.5 q-73 0 -104.5 -75.5t-31.5 -263.5z" />
<glyph unicode="&#xff;" horiz-adv-x="672" d="M27 981h186l115 -643l155 643h179l-396 -1376h-186l151 481zM76 1274q0 44 31.5 76t74.5 32q45 0 77 -32t32 -76t-32 -75.5t-77 -31.5q-44 0 -75 31t-31 76zM379 1274q0 44 31.5 76t75.5 32t76 -32t32 -76t-32 -75.5t-76 -31.5q-45 0 -76 31t-31 76z" />
<glyph unicode="&#x131;" horiz-adv-x="410" d="M115 0v981h180v-981h-180z" />
<glyph unicode="&#x152;" horiz-adv-x="1341" d="M88 731q0 395 93 571.5t300 176.5q82 0 140 -35.5t104 -112.5v131h539v-176h-387v-436h354v-174h-354v-494h387v-182h-539v123q-44 -69 -108 -104t-144 -35q-201 0 -293 177.5t-92 569.5zM283 733q0 -310 48 -435.5t161 -125.5t159.5 121t46.5 440q0 313 -47.5 437 t-161.5 124q-113 0 -159.5 -123t-46.5 -438z" />
<glyph unicode="&#x153;" horiz-adv-x="1202" d="M63 489q0 249 83 378.5t241 129.5q76 0 131.5 -28.5t93.5 -87.5q37 61 92.5 90.5t133.5 29.5q164 0 237.5 -114t73.5 -373v-57h-449v-27q0 -152 35.5 -223.5t110.5 -71.5q60 0 92 49t35 143l166 1v-13q0 -155 -78 -244t-213 -89q-84 0 -139.5 29t-92.5 91 q-38 -61 -94.5 -90.5t-134.5 -29.5q-158 0 -241 129.5t-83 377.5zM231 494q0 -183 36.5 -269t113.5 -86t113 86t36 269q0 180 -36 265t-113 85t-113.5 -85t-36.5 -265zM700 598h275v25q0 122 -32.5 176.5t-102.5 54.5q-67 0 -103.5 -59.5t-36.5 -169.5v-27z" />
<glyph unicode="&#x178;" d="M16 1460h203l123 -407q12 -40 25.5 -100.5t25.5 -133.5q10 64 22.5 121t28.5 111l123 409h205l-278 -839v-621h-203v621zM135 1753q0 44 31.5 76t74.5 32q45 0 77 -32t32 -76t-32 -75.5t-77 -31.5q-44 0 -75 31t-31 76zM438 1753q0 44 31.5 76t75.5 32t76 -32t32 -76 t-32 -75.5t-76 -31.5q-45 0 -76 31t-31 76z" />
<glyph unicode="&#x2c6;" horiz-adv-x="1024" d="M274 1112l152 348h172l152 -348h-105l-133 211l-133 -211h-105z" />
<glyph unicode="&#x2dc;" horiz-adv-x="1024" d="M272 1149q16 110 54 164.5t100 54.5q12 0 29 -3.5t38 -10.5l70 -25q12 -3 20.5 -4.5t16.5 -1.5q29 0 46.5 18t25.5 56h80q-19 -117 -57 -171.5t-101 -54.5q-13 1 -26 3t-30 8l-66 24q-13 5 -25.5 7.5t-24.5 3.5q-27 0 -43.5 -16.5t-26.5 -51.5h-80z" />
<glyph unicode="&#x2000;" horiz-adv-x="985" />
<glyph unicode="&#x2001;" horiz-adv-x="1970" />
<glyph unicode="&#x2002;" horiz-adv-x="985" />
<glyph unicode="&#x2003;" horiz-adv-x="1970" />
<glyph unicode="&#x2004;" horiz-adv-x="656" />
<glyph unicode="&#x2005;" horiz-adv-x="492" />
<glyph unicode="&#x2006;" horiz-adv-x="328" />
<glyph unicode="&#x2007;" horiz-adv-x="328" />
<glyph unicode="&#x2008;" horiz-adv-x="246" />
<glyph unicode="&#x2009;" horiz-adv-x="394" />
<glyph unicode="&#x200a;" horiz-adv-x="109" />
<glyph unicode="&#x2010;" horiz-adv-x="559" d="M76 410v161h407v-161h-407z" />
<glyph unicode="&#x2011;" horiz-adv-x="559" d="M76 410v161h407v-161h-407z" />
<glyph unicode="&#x2012;" horiz-adv-x="559" d="M76 410v161h407v-161h-407z" />
<glyph unicode="&#x2013;" horiz-adv-x="1024" d="M0 430v121h1024v-121h-1024z" />
<glyph unicode="&#x2014;" horiz-adv-x="2048" d="M0 430v121h2048v-121h-2048z" />
<glyph unicode="&#x2018;" horiz-adv-x="422" d="M68 1036l186 514l100 -30l-133 -531z" />
<glyph unicode="&#x2019;" horiz-adv-x="422" d="M68 1020l133 530l153 -47l-186 -512z" />
<glyph unicode="&#x201a;" horiz-adv-x="422" d="M68 -287l133 531l153 -47l-186 -514z" />
<glyph unicode="&#x201c;" horiz-adv-x="672" d="M68 1036l186 514l100 -30l-133 -531zM315 1036l187 514l100 -30l-133 -531z" />
<glyph unicode="&#x201d;" horiz-adv-x="672" d="M68 1020l133 530l153 -47l-186 -512zM315 1020l134 530l153 -47l-186 -512z" />
<glyph unicode="&#x201e;" horiz-adv-x="672" d="M68 -287l133 531l153 -47l-186 -514zM315 -287l134 531l153 -47l-186 -514z" />
<glyph unicode="&#x2022;" horiz-adv-x="1208" d="M307 762q0 123 87 209t210 86q122 0 208.5 -86.5t86.5 -208.5t-87.5 -209.5t-209.5 -87.5q-123 0 -209 87t-86 210z" />
<glyph unicode="&#x2026;" horiz-adv-x="2048" d="M227 92q0 48 32.5 81.5t80.5 33.5q47 0 80.5 -33.5t33.5 -81.5q0 -47 -33 -79.5t-81 -32.5t-80.5 32.5t-32.5 79.5zM909 92q0 48 32.5 81.5t80.5 33.5q47 0 80.5 -33.5t33.5 -81.5q0 -47 -33 -79.5t-81 -32.5t-80.5 32.5t-32.5 79.5zM1593 92q0 48 32.5 81.5t80.5 33.5 q47 0 80.5 -33.5t33.5 -81.5q0 -47 -33 -79.5t-81 -32.5t-80.5 32.5t-32.5 79.5z" />
<glyph unicode="&#x202f;" horiz-adv-x="394" />
<glyph unicode="&#x2039;" horiz-adv-x="471" d="M59 489l238 437l113 -64l-203 -373l203 -372l-113 -62z" />
<glyph unicode="&#x203a;" horiz-adv-x="471" d="M59 117l205 372l-205 373l115 64l236 -437l-236 -434z" />
<glyph unicode="&#x205f;" horiz-adv-x="492" />
<glyph unicode="&#x2122;" horiz-adv-x="1706" d="M254 1389v67h440v-67h-172v-467h-94v467h-174zM819 922v534h129l160 -405l149 405h132v-534h-82v458l-172 -458h-54l-180 458v-458h-82z" />
<glyph unicode="&#xe000;" horiz-adv-x="980" d="M0 980h980v-980h-980v980z" />
<glyph unicode="&#xfb01;" horiz-adv-x="856" d="M536 1274q0 49 33 83t82 34q48 0 81 -34t33 -83q0 -48 -33.5 -81.5t-80.5 -33.5q-49 0 -82 33t-33 82zM561 0v981h180v-981h-180zM27 842v139h98v344q0 114 56.5 180t154.5 66q23 0 52 -5.5t65 -17.5v-164q-20 7 -37 10t-31 3q-41 0 -59.5 -23.5t-18.5 -75.5v-317h135 v-139h-135v-842h-182v842h-98z" />
<glyph unicode="&#xfb02;" horiz-adv-x="856" d="M561 0v1550h180v-1550h-180zM27 842v139h98v344q0 114 56.5 180t154.5 66q23 0 52 -5.5t65 -17.5v-164q-20 7 -37 10t-31 3q-41 0 -59.5 -23.5t-18.5 -75.5v-317h135v-139h-135v-842h-182v842h-98z" />
<glyph unicode="&#xfb03;" horiz-adv-x="1302" d="M982 1274q0 49 33 83t82 34q48 0 81 -34t33 -83q0 -48 -33.5 -81.5t-80.5 -33.5q-49 0 -82 33t-33 82zM1007 0v981h180v-981h-180zM473 842v139h98v344q0 114 56.5 180t154.5 66q23 0 52 -5.5t65 -17.5v-164q-20 7 -37 10t-31 3q-41 0 -59.5 -23.5t-18.5 -75.5v-317h135 v-139h-135v-842h-182v842h-98zM27 842v139h98v344q0 114 56.5 180t154.5 66q23 0 52 -5.5t65 -17.5v-164q-20 7 -37 10t-31 3q-41 0 -59.5 -23.5t-18.5 -75.5v-317h135v-139h-135v-842h-182v842h-98z" />
<glyph unicode="&#xfb04;" horiz-adv-x="1302" d="M1007 0v1550h180v-1550h-180zM473 842v139h98v344q0 114 56.5 180t154.5 66q23 0 52 -5.5t65 -17.5v-164q-20 7 -37 10t-31 3q-41 0 -59.5 -23.5t-18.5 -75.5v-317h135v-139h-135v-842h-182v842h-98zM27 842v139h98v344q0 114 56.5 180t154.5 66q23 0 52 -5.5t65 -17.5 v-164q-20 7 -37 10t-31 3q-41 0 -59.5 -23.5t-18.5 -75.5v-317h135v-139h-135v-842h-182v842h-98z" />
</font>
</defs>
</svg>
