<?xml version="1.0" standalone="no"?>
<!DOCTYPE svg PUBLIC "-//W3C//DTD SVG 1.1//EN" "http://www.w3.org/Graphics/SVG/1.1/DTD/svg11.dtd" >
<svg>
<metadata>
Created by FontForge 20090914 at Mon Aug 19 11:48:03 2013
 By www-data
Digitized data copyright (C) 1992 - 1997 The Monotype Corporation. Portions copyright Microsoft corporation.  All rights reserved.
</metadata>
<defs>
<font id="Rockwell-Italic" horiz-adv-x="575" >
  <font-face 
    font-family="Rockwell"
    font-weight="400"
    font-style="italic"
    font-stretch="normal"
    units-per-em="2048"
    panose-1="2 6 6 3 3 5 5 9 4 3"
    ascent="1638"
    descent="-410"
    x-height="968"
    cap-height="1391"
    bbox="-407 -562 2275 1869"
    underline-thickness="102"
    underline-position="-109"
    slope="-13"
    unicode-range="U+0020-U+F002"
  />
<missing-glyph horiz-adv-x="1536" 
d="M256 0v1280h1024v-1280h-1024zM288 32h960v1216h-960v-1216z" />
    <glyph glyph-name=".notdef" horiz-adv-x="1536" 
d="M256 0v1280h1024v-1280h-1024zM288 32h960v1216h-960v-1216z" />
    <glyph glyph-name="space" unicode=" " horiz-adv-x="512" 
 />
    <glyph glyph-name="exclam" unicode="!" 
d="M309 370h-100l91 588l101 433h193l-93 -401zM105 235h241l-56 -235h-241z" />
    <glyph glyph-name="quotedbl" unicode="&#x22;" horiz-adv-x="854" 
d="M646 831l31 296c8 80 16.667 137.333 26 172s25.5 62.667 48.5 84s50.5 32 82.5 32c52 0 78 -23.667 78 -71c0 -27.333 -27.667 -100 -83 -218l-139 -295h-44zM276 831l31 296c8 80 16.667 137.333 26 172s25.5 62.667 48.5 84s50.167 32 81.5 32
c52.667 0 79 -23.667 79 -71c0 -27.333 -28 -100 -84 -218l-138 -295h-44z" />
    <glyph glyph-name="numbersign" unicode="#" horiz-adv-x="1366" 
d="M596 1021h396l81 391h147l-81 -391h185v-147h-216l-73 -353h289v-147h-320l-81 -391h-147l81 391h-396l-81 -391h-147l81 391h-185v147h216l73 353h-289v147h320l81 391h147zM565 874l-73 -353h396l73 353h-396z" />
    <glyph glyph-name="dollar" unicode="$" horiz-adv-x="981" 
d="M308 0c-74 19.333 -135.666 58.998 -184.999 118.998s-74 125 -74 195c0 24.667 2.66699 57.334 8 98.001h175c-5.33301 -29.333 -8 -52.666 -8 -69.999c0 -92.667 39.667 -157.667 119 -195l117 498c-143.333 95.333 -215 212.333 -215 351c0 94 31.333 180.333 94 259
s160.667 120.667 294 126l8 34h138l-12 -48c74.667 -18.667 132 -53.5 172 -104.5s60 -107.5 60 -169.5c0 -34.667 -6.33301 -75.334 -19 -122.001h-160c10 34.667 15 70 15 106c0 78 -33.667 128.333 -101 151l-111 -477c5.33301 -4 11.666 -8.33301 18.999 -13
c158.667 -98 238 -216.667 238 -356c0 -109.333 -39.5 -203.166 -118.5 -281.499s-185.167 -117.5 -318.5 -117.5l-38 -159h-138zM505.001 835.998l94.001 398.997c-64.667 -7.33301 -112.334 -32.166 -143.001 -74.499s-46 -88.166 -46 -137.499
c0 -71.333 31.667 -133.666 95 -186.999zM579.002 562.995l-102.001 -434.002c70.667 8.66699 126.334 36.334 167.001 83.001s61 98.334 61 155.001c0 76 -42 141.333 -126 196z" />
    <glyph glyph-name="percent" unicode="%" horiz-adv-x="2048" 
d="M294 957c0 67.333 15.167 139.667 45.5 217s74.5 136.833 132.5 178.5s123.667 62.5 197 62.5c85.333 0 149.5 -25.333 192.5 -76s64.5 -120.667 64.5 -210c0 -118 -32.833 -222.833 -98.5 -314.5s-156.167 -137.5 -271.5 -137.5c-86.667 0 -152 25.667 -196 77
s-66 119 -66 203zM445 953.001c0 -54 12.5 -94.332 37.5 -120.999s54.167 -40 87.5 -40c60 0 110.333 38.167 151 114.5s61 159.166 61 248.499c0 39.333 -10.333 73.333 -31 102s-52 43 -94 43c-58 0 -107.833 -38.167 -149.5 -114.5s-62.5 -153.833 -62.5 -232.5z
M290 0.00195312l1428 1391h133l-1428 -1391h-133zM1227 258.002c0 122 34.333 228.335 103 319.002s160 136 274 136c84 0 147.333 -25.167 190 -75.5s64 -119.833 64 -208.5c0 -114.667 -32 -218.334 -96 -311.001s-155 -139 -273 -139c-86.667 0 -152 25.667 -196 77
s-66 118.666 -66 201.999zM1378 254.004c0 -55.333 12.5 -96.166 37.5 -122.499s54.167 -39.5 87.5 -39.5c60 0 110.167 38.167 150.5 114.5s60.5 159.166 60.5 248.499c0 40 -10.167 74.167 -30.5 102.5s-51.5 42.5 -93.5 42.5c-66.667 0 -118.667 -42.167 -156 -126.5
s-56 -157.5 -56 -219.5z" />
    <glyph glyph-name="ampersand" unicode="&#x26;" horiz-adv-x="1280" 
d="M1043 715l261.001 -0.000976562l-37 -158h-118c-61.333 -136.667 -132.333 -244.667 -213 -324l35 -70h198l-39 -163h-268l-56 110c-108.667 -88 -228 -132 -358 -132c-129.333 0 -228.833 38.5 -298.5 115.5s-104.5 170.5 -104.5 280.5
c0 212.667 131.667 379.667 395 501c-38.667 94.667 -58 171.334 -58 230.001c0 84 30 156.333 90 217s136.333 91 229 91c87.333 0 157 -23.333 209 -70s78 -107 78 -181c0 -144 -108.667 -265 -326 -363l200 -412c69.333 82.667 129.666 192 180.999 328zM599.001 938.999
c141.333 60.667 212.001 133.667 212.001 219c0 36.667 -10.833 64.334 -32.5 83.001s-47.834 28 -78.501 28c-34.667 0 -67 -13.333 -97 -40s-45 -68.334 -45 -125.001c0 -44 13.667 -99 41 -165zM511.002 725.999c-176.667 -82.667 -265 -192.667 -265 -330
c0 -70.667 23.333 -130.5 70 -179.5s105.667 -73.5 177 -73.5c84.667 0 166 36.667 244 110z" />
    <glyph glyph-name="quotesingle" unicode="'" horiz-adv-x="449" 
d="M259 831l31 296c8 80 16.667 137.333 26 172s25.5 62.667 48.5 84s50.167 32 81.5 32c52.667 0 79 -23.667 79 -71c0 -27.333 -28 -100 -84 -218l-138 -295h-44z" />
    <glyph glyph-name="parenleft" unicode="(" horiz-adv-x="768" 
d="M919 1413l-30 -131.002c-216 -82 -366.333 -228.667 -451 -440s-127 -418.333 -127 -621c0 -203.333 68.667 -378.333 206 -525l-32 -139c-106 67.333 -191 168.333 -255 303s-96 287 -96 457c0 250.667 63.167 475.834 189.5 675.501s324.833 339.834 595.5 420.501z
" />
    <glyph glyph-name="parenright" unicode=")" horiz-adv-x="768" 
d="M-147 -443l31.001 131c216.667 82 367.167 228.833 451.5 440.5s126.5 418.167 126.5 619.5c0 204 -68.667 379.333 -206 526l32 139c104 -66 188.5 -166.5 253.5 -301.5s97.5 -287.833 97.5 -458.5c0 -250.667 -63.333 -476 -190 -676s-325.334 -340 -596.001 -420z" />
    <glyph glyph-name="asterisk" unicode="*" horiz-adv-x="1067" 
d="M837 1374l-36.998 -164.998c-57.333 -72 -95.333 -148 -114 -228c95.333 12.667 175 41.667 239 87l175 15l15 -185l-172 -18c-64.667 25.333 -136.667 38 -216 38c-7.33301 0 -16.333 -0.333008 -27 -1c45.333 -90.667 94.666 -155.334 147.999 -194.001l69 -159
l-168 -72l-72 160c2 17.333 3 33 3 47c0 70.667 -14 137 -42 199c-65.333 -58 -111.333 -127 -138 -207l-133 -115l-122 137l129 115c64.667 12 137 49.667 217 113c-76.667 42 -155.334 65.333 -236.001 70l-148 89l92 161l152 -88
c39.333 -68.667 99.333 -128.667 180 -180c6.66699 29.333 10 67 10 113c0 45.333 -5.66699 92.666 -17 141.999l36 165z" />
    <glyph glyph-name="plus" unicode="+" horiz-adv-x="1366" 
d="M181 776h470v469h156v-469h470v-157h-470v-470h-156v470h-470v157z" />
    <glyph glyph-name="comma" unicode="," 
d="M109 235h240.999l-48 -205c-22.667 -96 -58.667 -169.833 -108 -221.5s-121.666 -80.5 -216.999 -86.5l20 86c98.667 12.667 160.667 76.667 186 192h-130z" />
    <glyph glyph-name="hyphen" unicode="-" horiz-adv-x="788" 
d="M118 573h577l-42 -177h-577z" />
    <glyph glyph-name="hyphen" unicode="&#xad;" horiz-adv-x="788" 
d="M118 573h577l-42 -177h-577z" />
    <glyph glyph-name="period" unicode="." 
d="M108 235h241l-56 -235h-241z" />
    <glyph glyph-name="slash" unicode="/" horiz-adv-x="897" 
d="M932 1415h179l-1042 -1437h-179z" />
    <glyph glyph-name="zero" unicode="0" horiz-adv-x="1087" 
d="M110 401c0 174.667 32.168 345.333 96.501 512s139.166 292 224.499 376s184.333 126 297 126c110 0 194.333 -40.333 253 -121s88 -187.334 88 -320.001c0 -106 -15.167 -219 -45.5 -339s-75.333 -234.667 -135 -344s-127.167 -188.666 -202.5 -237.999
s-151 -74 -227 -74c-98 0 -180.667 37.667 -248 113s-101 178.333 -101 309zM288.001 365.999c0 -75.333 15.499 -134.166 46.499 -176.499s73.833 -63.5 128.5 -63.5c120.667 0 222.834 108.833 306.501 326.5s125.5 409.5 125.5 575.5c0 160.667 -59.667 241 -179 241
c-126 0 -228.833 -113.333 -308.5 -340s-119.5 -414.334 -119.5 -563.001z" />
    <glyph glyph-name="one" unicode="1" horiz-adv-x="1087" 
d="M387 163l250 1065h-160l38 163h341l-288 -1228h146l-38 -163h-487l38 163h160z" />
    <glyph glyph-name="two" unicode="2" horiz-adv-x="1087" 
d="M744 479l165.999 0.00292969l-113 -479h-768c12.667 85.333 41.167 171.166 85.5 257.499s101 163.333 170 231s160.5 144.5 274.5 230.5c104.667 78.667 178.167 146.167 220.5 202.5s63.5 118.166 63.5 185.499c0 48 -15.5 87 -46.5 117s-69.167 45 -114.5 45
c-75.333 0 -140 -38.833 -194 -116.5s-90.667 -170.167 -110 -277.5h-174c30.667 170 87.834 302.5 171.501 397.5s189.167 142.5 316.5 142.5c93.333 0 172 -28 236 -84s96 -134 96 -234c0 -64.667 -13.667 -126.5 -41 -185.5s-63.5 -110 -108.5 -153
s-111.833 -96.5 -200.5 -160.5c-124 -88.667 -217.333 -165.334 -280 -230.001s-109.667 -133 -141 -205h417z" />
    <glyph glyph-name="three" unicode="3" horiz-adv-x="1087" 
d="M99 459h175.002c-4.66699 -38 -7 -65.333 -7 -82c0 -68 18 -126.5 54 -175.5s92.333 -73.5 169 -73.5c90.667 0 160.667 32 210 96s74 133 74 207c0 72 -25.167 127 -75.5 165s-109.833 57 -178.5 57c-16 0 -36 -1 -60 -3l36 152c125.333 0 221.666 24.833 288.999 74.5
s101 120.5 101 212.5c0 60 -17.833 105.167 -53.5 135.5s-80.167 45.5 -133.5 45.5c-121.333 0 -206.666 -84 -255.999 -252h-169c23.333 116 72.333 211.167 147 285.5s170 111.5 286 111.5c104.667 0 190.667 -30.167 258 -90.5s101 -139.166 101 -236.499
c0 -86.667 -26.333 -164.334 -79 -233.001s-128.334 -114.334 -227.001 -137.001c134.667 -56 202 -154 202 -294c0 -122.667 -42.333 -227.5 -127 -314.5s-199.334 -130.5 -344.001 -130.5c-128 0 -226.833 37.333 -296.5 112s-104.5 166.667 -104.5 276
c0 30.667 3 61.334 9 92.001z" />
    <glyph glyph-name="four" unicode="4" horiz-adv-x="1087" 
d="M586 382h-474c-3.33301 58 -22.333 112 -57 162l799 858h153l-208 -884h208l-31 -136h-209l-51 -219h132l-39 -163h-441l38 163h129zM618 518l137 584l-543 -584h406z" />
    <glyph glyph-name="five" unicode="5" horiz-adv-x="1087" 
d="M113 443l174.998 0.000976562c-8 -36.667 -12 -70.667 -12 -102c0 -68 17 -120.667 51 -158s79.667 -56 137 -56c92 0 168.333 47.167 229 141.5s91 188.833 91 283.5c0 55.333 -16.667 101.833 -50 139.5s-78.666 56.5 -135.999 56.5c-79.333 0 -151 -36.333 -215 -109
c-32.667 36 -72 66.333 -118 91l166 661h683l-83 -353h-166l43 184h-368l-95 -381c60.667 40 124.334 60 191.001 60c94 0 173 -34 237 -102s96 -157.667 96 -269c0 -137.333 -45.667 -263.5 -137 -378.5s-214 -172.5 -368 -172.5c-120 0 -210.5 36.167 -271.5 108.5
s-91.5 155.166 -91.5 248.499c0 31.333 4 67 12 107z" />
    <glyph glyph-name="six" unicode="6" horiz-adv-x="1087" 
d="M1094 995l-155 0.00292969c6 36 9 67.667 9 95c0 49.333 -14 91.666 -42 126.999s-71 53 -129 53c-164 0 -284.667 -162 -362 -486c58.667 57.333 128 86 208 86c100.667 0 183 -36.333 247 -109s96 -164.334 96 -275.001c0 -81.333 -18.833 -164.333 -56.5 -249
s-92.167 -148.834 -163.5 -192.501s-146.333 -65.5 -225 -65.5c-108.667 0 -195.167 39.833 -259.5 119.5s-96.5 179.167 -96.5 298.5c0 146.667 29.167 310.5 87.5 491.5s131 314 218 399s188.167 127.5 303.5 127.5c93.333 0 171.5 -28.333 234.5 -85
s94.5 -136.667 94.5 -240c0 -33.333 -3 -65 -9 -95zM363 560.003c-12 -62.667 -17.999 -124.001 -17.999 -184.001c0 -76 15.833 -136.5 47.5 -181.5s78.167 -67.5 139.5 -67.5c79.333 0 143.166 38 191.499 114s72.5 159 72.5 249c0 60.667 -18.5 113.834 -55.5 159.501
s-87.167 68.5 -150.5 68.5c-92 0 -167.667 -52.667 -227 -158z" />
    <glyph glyph-name="seven" unicode="7" horiz-adv-x="1087" 
d="M524 163l143 -0.000976562l-38 -163h-476l38 163h138c64.667 216 157 422.333 277 619s222 343.334 306 440.001h-499l-42 -181h-166l82 350h864l-36 -150c-123.333 -145.333 -241.5 -321.833 -354.5 -529.5s-191.833 -390.5 -236.5 -548.5z" />
    <glyph glyph-name="eight" unicode="8" horiz-adv-x="1087" 
d="M402 754c-79.333 59.333 -119.001 140.001 -119.001 242.001c0 107.333 36.5 204 109.5 290s176.167 129 309.5 129c106.667 0 191.834 -30.167 255.501 -90.5s95.5 -141.5 95.5 -243.5c0 -94.667 -23.667 -174.667 -71 -240s-111.333 -111 -192 -137
c96.667 -55.333 145 -145.333 145 -270c0 -123.333 -43.833 -230 -131.5 -320s-200.167 -135 -337.5 -135c-103.333 0 -191.333 30.167 -264 90.5s-109 147.5 -109 261.5c0 100 27.5 187.167 82.5 261.5s130.5 128.166 226.5 161.499zM451.999 989.001
c0 -58.667 15.5 -105.332 46.5 -139.999s75.5 -52 133.5 -52c74.667 0 135.167 30.167 181.5 90.5s69.5 125.166 69.5 194.499c0 58.667 -16.667 104.5 -50 137.5s-78 49.5 -134 49.5c-75.333 0 -135.333 -28.5 -180 -85.5s-67 -121.833 -67 -194.5zM279.999 329.003
c0 -65.333 17.832 -115.501 53.499 -150.501s82.834 -52.5 141.501 -52.5c82 0 148.5 33.333 199.5 100s76.5 141.334 76.5 224.001c0 61.333 -18.833 109.833 -56.5 145.5s-87.5 53.5 -149.5 53.5c-82.667 0 -147.5 -33.333 -194.5 -100s-70.5 -140 -70.5 -220z" />
    <glyph glyph-name="nine" unicode="9" horiz-adv-x="1087" 
d="M111 401l161.001 0.00195312c-6 -26.667 -9 -54 -9 -82c0 -130 55.333 -195 166 -195c158 0 279.667 161.333 365 484c-66 -55.333 -137 -83 -213 -83c-100.667 0 -182 37 -244 111s-93 165.667 -93 275c0 133.333 41.667 250.666 125 351.999s187.666 152 312.999 152
c112 0 200 -38.833 264 -116.5s96 -180.834 96 -309.501c0 -146 -30.5 -312.333 -91.5 -499s-136 -318.5 -225 -395.5s-186.167 -115.5 -291.5 -115.5c-84 0 -160.333 26.833 -229 80.5s-103 134.5 -103 242.5c0 31.333 3 64.333 9 99zM849.001 841.002c12 56 18 113 18 171
c0 90.667 -18.333 156 -55 196s-84 60 -142 60c-80.667 0 -144.167 -37.333 -190.5 -112s-69.5 -156.667 -69.5 -246c0 -74.667 19.333 -132.5 58 -173.5s86.334 -61.5 143.001 -61.5c101.333 0 180.666 55.333 237.999 166z" />
    <glyph glyph-name="colon" unicode=":" 
d="M277 968h242l-56 -236h-241zM106 235h241l-56 -235h-241z" />
    <glyph glyph-name="semicolon" unicode=";" 
d="M278 968h241l-56 -236h-241zM106 235h240.999l-48 -205c-22.667 -96 -58.667 -169.833 -108 -221.5s-121.666 -80.5 -216.999 -86.5l20 86c98.667 12.667 160.667 76.667 186 192h-130z" />
    <glyph glyph-name="less" unicode="&#x3c;" horiz-adv-x="1366" 
d="M1277 167l-1096 459v142l1096 460v-170l-882 -361l882 -360v-170z" />
    <glyph glyph-name="equal" unicode="=" horiz-adv-x="1366" 
d="M181 1011h1096v-157h-1096v157zM181 540h1096v-156h-1096v156z" />
    <glyph glyph-name="greater" unicode="&#x3e;" horiz-adv-x="1366" 
d="M181 1228l1096 -460v-142l-1096 -459v170l882 360l-882 361v170z" />
    <glyph glyph-name="question" unicode="?" horiz-adv-x="938" 
d="M426 367h-95.9971l83 429c39.333 -9.33301 75.666 -14 108.999 -14c87.333 0 157.333 31 210 93s79 132.333 79 211c0 48.667 -14.5 90 -43.5 124s-72.5 51 -130.5 51c-118.667 0 -199 -67 -241 -201h-153c29.333 124.667 82.166 214.667 158.499 270s163.5 83 261.5 83
c106 0 187.5 -30 244.5 -90s85.5 -138 85.5 -234c0 -126.667 -42.333 -233.167 -127 -319.5s-183.334 -129.5 -296.001 -129.5c-12.667 0 -30.667 1 -54 3zM231.003 235h242l-56 -235h-241z" />
    <glyph glyph-name="at" unicode="@" horiz-adv-x="2068" 
d="M1206 138c-96.667 -110.667 -199.002 -165.999 -307.002 -165.999c-98 0 -182.833 41.333 -254.5 124s-107.5 190.667 -107.5 324c0 98.667 24.333 199.167 73 301.5s113.667 184.166 195 245.499s165 92 251 92c126.667 0 227.334 -61.333 302.001 -184l34 155h179
l-144 -671c-20 -93.333 -30 -145.333 -30 -156c0 -18.667 7.33301 -34.167 22 -46.5s30 -18.5 46 -18.5c35.333 0 85.5 22.333 150.5 67s120.833 111.667 167.5 201s70 184.333 70 285c0 184.667 -68.667 336 -206 454s-307 177 -509 177
c-246.667 0 -447.334 -83.5 -602.001 -250.5s-232 -370.167 -232 -609.5c0 -248 76.667 -438.333 230 -571s363.666 -199 630.999 -199c156.667 0 296.5 26.333 419.5 79s217.833 127 284.5 223h181c-52.667 -110.667 -154.667 -213.334 -306 -308.001
s-343.666 -142 -576.999 -142c-325.333 0 -575.166 82.5 -749.499 247.5s-261.5 382.5 -261.5 652.5c0 184.667 43.667 361.167 131 529.5s205 292.833 353 373.5s317 121 507 121c256 0 462.333 -76 619 -228s235 -336 235 -552c0 -185.333 -62.667 -351.166 -188 -497.499
s-263.666 -219.5 -414.999 -219.5c-124 0 -188 55.667 -192 167zM721.998 403.001c0 -83.333 21.001 -151.334 63.001 -204.001s92 -79 150 -79c91.333 0 175.166 50.333 251.499 151s114.5 218.334 114.5 353.001c0 87.333 -21.833 156.833 -65.5 208.5
s-99.167 77.5 -166.5 77.5c-101.333 0 -184.5 -55.5 -249.5 -166.5s-97.5 -224.5 -97.5 -340.5z" />
    <glyph glyph-name="A" unicode="A" horiz-adv-x="1323" 
d="M917 487h-488l-172 -324h151l-38 -163h-495l38 163h128l600 1065h-154l38 163h679l-38 -163h-144l124 -1065h129l-38 -163h-492l39 163h164zM902 650l-52 578h-34l-299 -578h385z" />
    <glyph glyph-name="B" unicode="B" horiz-adv-x="1153" 
d="M132 163l250 1065h-134l39 163h344c130.667 0 228.167 -7.83301 292.5 -23.5s117.333 -50.334 159 -104.001s62.5 -119.167 62.5 -196.5c0 -89.333 -26.667 -164.833 -80 -226.5s-130.333 -103.834 -231 -126.501c64 -24 114.667 -64.167 152 -120.5
s56 -119.166 56 -188.499c0 -67.333 -17.5 -131.5 -52.5 -192.5s-78.333 -106.833 -130 -137.5s-109 -50.834 -172 -60.501s-157.167 -14.5 -282.5 -14.5h-427l38 163h116zM485 806.002l86 0.00195312c99.333 0 172 6.16699 218 18.5s84.5 38.666 115.5 78.999
s46.5 88.833 46.5 145.5c0 46 -11 83.667 -33 113s-49.667 47.666 -83 54.999s-90.333 11 -171 11h-80zM334 163.004l110.999 0.00195312c92.667 0 156 2.16699 190 6.5s66.833 16.166 98.5 35.499s58 49.166 79 89.499s31.5 85.5 31.5 135.5
c0 56 -13.167 101.833 -39.5 137.5s-58.166 57.5 -95.499 65.5s-101 12 -191 12h-73z" />
    <glyph glyph-name="C" unicode="C" horiz-adv-x="1473" 
d="M1230 413l133 -120c-168.667 -210 -381.334 -315 -638.001 -315c-119.333 0 -224 24.167 -314 72.5s-160.5 119.666 -211.5 213.999s-76.5 198.166 -76.5 311.499c0 133.333 35.333 263.833 106 391.5s173.334 233.834 308.001 318.501s291.334 127 470.001 127
c171.333 0 305 -47 401 -141l28 119h164l-89 -383h-164c-35.333 157.333 -154 236 -356 236c-122.667 0 -234.334 -33 -335.001 -99s-179.5 -154.167 -236.5 -264.5s-85.5 -220.5 -85.5 -330.5c0 -115.333 38.333 -211.666 115 -288.999s174 -116 292 -116
c174 0 337 89.333 489 268z" />
    <glyph glyph-name="D" unicode="D" horiz-adv-x="1450" 
d="M130 163l250 1065h-141l38 163h332c144 0 254.333 -5.33301 331 -16s152.667 -40.167 228 -88.5s134.666 -114 177.999 -197s65 -173.5 65 -271.5c0 -137.333 -28 -263 -84 -377s-125.333 -204 -208 -270s-179.167 -111 -289.5 -135s-276.166 -36 -497.499 -36h-358
l38 163h118zM332 163l86 0.00195312c181.333 0 322 17.5 422 52.5s184.833 113 254.5 234s104.5 247.167 104.5 378.5c0 93.333 -23.833 173.666 -71.5 240.999s-106.5 110.666 -176.5 129.999s-168 29 -294 29h-75z" />
    <glyph glyph-name="E" unicode="E" horiz-adv-x="1174" 
d="M127 163l249 1065h-132l38 163h1003l-98 -419h-165l60 256h-504l-100 -427h433l-36 -163h-435l-111 -475h517l65 266h163l-100 -429h-1012l38 163h127z" />
    <glyph glyph-name="F" unicode="F" horiz-adv-x="1067" 
d="M112 163l250 1065h-136l38 163h998l-98 -419h-165l60 256h-495l-100 -425h424l-38 -163h-424l-111 -477h149l-38 -163h-477l38 163h125z" />
    <glyph glyph-name="G" unicode="G" horiz-adv-x="1599" 
d="M981 507l37.999 162.999h517c-51.333 -232 -148 -405.333 -290 -520s-307 -172 -495 -172c-187.333 0 -337.5 57.333 -450.5 172s-169.5 255.667 -169.5 423c0 113.333 32.667 236.833 98 370.5s169.5 245.334 312.5 335.001s309.167 134.5 498.5 134.5
c190.667 0 335.334 -52.333 434.001 -157l32 135h160l-88 -375h-160c-61.333 154.667 -192.333 232 -393 232c-189.333 0 -350.333 -67.333 -483 -202s-199 -295.667 -199 -483c0 -134 39.5 -236.167 118.5 -306.5s180.167 -105.5 303.5 -105.5
c117.333 0 222.5 32.333 315.5 97s159.5 151 199.5 259h-299z" />
    <glyph glyph-name="H" unicode="H" horiz-adv-x="1386" 
d="M125 163l249 1065h-135l38 163h465l-39 -163h-127l-97 -416h579l97 416h-135l38 163h435l-38 -163h-98l-250 -1065h133l-38 -163h-460l38 163h125l115 486h-579l-114 -486h131l-39 -163h-453l38 163h121z" />
    <glyph glyph-name="I" unicode="I" horiz-adv-x="598" 
d="M128 163l250 1065h-116l38 163h422l-38 -163h-105l-249 -1065h126l-38 -163h-438l38 163h110z" />
    <glyph glyph-name="J" unicode="J" horiz-adv-x="598" 
d="M-267 -437l44 187c102 0 176.833 28.167 224.5 84.5s90.5 165.833 128.5 328.5l249 1065h-119l38 163h429l-38 -163h-108l-243 -1039c-58.667 -250 -134 -417.5 -226 -502.5s-218.333 -126.167 -379 -123.5z" />
    <glyph glyph-name="K" unicode="K" horiz-adv-x="1217" 
d="M124 163l250 1065h-131l38 163h466l-38 -163h-133l-250 -1065h124l-38 -163h-446l38 163h120zM471 724l578 504h-149l38 163h476l-39 -163h-92l-586 -514l338 -551h120l-39 -163h-468l38 163h129z" />
    <glyph glyph-name="L" unicode="L" horiz-adv-x="1004" 
d="M125 163l250 1065h-146l38 163h495l-39 -163h-146l-250 -1065h459l97 412h165l-135 -575h-964l38 163h138z" />
    <glyph glyph-name="M" unicode="M" horiz-adv-x="1706" 
d="M124 163l250 1065h-127l38 163h417l129 -964l581 964h429l-38 -163h-125l-250 -1065h139l-38 -163h-434l38 163h130l244 1065l-751 -1235h-41l-170 1235l-254 -1065h123l-40 -163h-406l38 163h118z" />
    <glyph glyph-name="N" unicode="N" horiz-adv-x="1430" 
d="M128 163l249 1065h-154l39 163h403l361 -1105l221 942h-142l38 163h441l-38 -163h-134l-291 -1240h-199l-388 1202l-241 -1027h135l-39 -163h-435l38 163h136z" />
    <glyph glyph-name="O" unicode="O" horiz-adv-x="1599" 
d="M133 540c0 124 29.502 252.832 88.502 386.499s154.167 248.167 285.5 343.5s286.333 143 465 143c185.333 0 329.666 -52 432.999 -156s155 -239.667 155 -407c0 -130 -32.5 -262.167 -97.5 -396.5s-161.333 -247.166 -289 -338.499s-279.834 -137 -456.501 -137
c-197.333 0 -344 56 -440 168s-144 243.333 -144 394zM345.002 530.999c0 -97.333 31.667 -185.168 95 -263.501s158.666 -117.5 285.999 -117.5c122.667 0 230.667 36.333 324 109s165.833 166.167 217.5 280.5s77.5 222.5 77.5 324.5c0 103.333 -34 192.5 -102 267.5
s-161.333 112.5 -280 112.5c-116.667 0 -225.167 -37.333 -325.5 -112s-174.166 -167.667 -221.499 -279s-71 -218.666 -71 -321.999z" />
    <glyph glyph-name="P" unicode="P" horiz-adv-x="1110" 
d="M129 163l250.001 1065h-134l38 163h375c91.333 0 161.166 -3.83301 209.499 -11.5s97.5 -27.5 147.5 -59.5s89.5 -75.833 118.5 -131.5s43.5 -117.167 43.5 -184.5c0 -99.333 -26 -189 -78 -269s-121.5 -134 -208.5 -162s-203.833 -42 -350.5 -42h-123l-86 -368h159
l-35 -163h-492l38 163h128zM455.001 693h108.999c99.333 0 174.833 7.5 226.5 22.5s95.667 48.667 132 101s54.5 116.5 54.5 192.5c0 56 -13.833 101.833 -41.5 137.5s-60.667 58.167 -99 67.5s-96.166 14 -173.499 14h-82z" />
    <glyph glyph-name="Q" unicode="Q" horiz-adv-x="1599" 
d="M852 -12l112.997 -42c82.667 -32 151.334 -48 206.001 -48c26.667 0 55.667 2.33301 87 7l-122 -167c-24 -2 -42.333 -3 -55 -3c-66.667 0 -156.667 32 -270 96c-66 38 -119.5 64.333 -160.5 79s-85.167 22 -132.5 22c-69.333 0 -127.666 -17.667 -174.999 -53l-45 69
c36.667 38.667 86.334 64.667 149.001 78c-209.333 102.667 -314 277 -314 523c0 130.667 33 263 99 397s162 245.333 288 334s276.667 133 452 133c192.667 0 338.834 -53.833 438.501 -161.5s149.5 -241.5 149.5 -401.5c0 -192 -64.333 -374.833 -193 -548.5
s-300.334 -278.167 -515.001 -313.5zM344.997 531c0 -97.333 31.668 -185.168 95.001 -263.501s158.666 -117.5 285.999 -117.5c180 0 328.167 77.333 444.5 232s174.5 315.334 174.5 482.001c0 103.333 -34 192.5 -102 267.5s-161.667 112.5 -281 112.5
c-116.667 0 -225 -37.5 -325 -112.5s-173.667 -168.167 -221 -279.5s-71 -218.333 -71 -321z" />
    <glyph glyph-name="R" unicode="R" horiz-adv-x="1194" 
d="M125 163l250 1065h-134l38 163h408c115.333 0 194.166 -2.5 236.499 -7.5s86.333 -20.5 132 -46.5s81.334 -62.667 107.001 -110s38.5 -103 38.5 -167c0 -103.333 -32.333 -190.166 -97 -260.499s-156 -113.833 -274 -130.5l120 -506h151l-39 -163h-267l-148 658h-204
l-116 -495h131l-38 -163h-449l38 163h116zM481 820.999h107c112.667 0 193.167 5.33301 241.5 16s88 35 119 73s46.5 85 46.5 141c0 48 -12.167 86.5 -36.5 115.5s-54 46.5 -89 52.5s-102.167 9 -201.5 9h-91z" />
    <glyph glyph-name="S" unicode="S" horiz-adv-x="1067" 
d="M0 0l89 382.002h169l-29 -125c70.667 -80 158 -120 262 -120c72 0 132.333 20.833 181 62.5s73 92.5 73 152.5c0 52.667 -16.333 98.5 -49 137.5s-96.667 90.5 -192 154.5c-100.667 68.667 -170.834 132.5 -210.501 191.5s-59.5 127.5 -59.5 205.5
c0 111.333 38.833 201.166 116.5 269.499s177.167 102.5 298.5 102.5c120 0 218 -39 294 -117l21 95h168l-88 -377h-168l25 106c-26 40.667 -62.833 73.667 -110.5 99s-96.834 38 -147.501 38c-64.667 0 -118.667 -17.667 -162 -53s-65 -82.333 -65 -141
c0 -43.333 14 -83.833 42 -121.5s82.667 -83.834 164 -138.501c84 -56 144.833 -100.833 182.5 -134.5s68.167 -74.667 91.5 -123s35 -102.833 35 -163.5c0 -122 -43.167 -219.833 -129.5 -293.5s-197.166 -110.5 -332.499 -110.5c-109.333 0 -203.666 32 -282.999 96
l-17 -74h-169z" />
    <glyph glyph-name="T" unicode="T" horiz-adv-x="1194" 
d="M415 163l250 1065h-296l-80 -352h-169l121 515h1128l-121 -515h-165l82 352h-298l-250 -1065h130l-38 -163h-456l36 163h126z" />
    <glyph glyph-name="U" unicode="U" horiz-adv-x="1300" 
d="M274 1391l448.001 0.000976562l-39 -163h-121l-167 -713c-22.667 -96 -34 -159 -34 -189c0 -58.667 22 -104.667 66 -138s97.667 -50 161 -50c72 0 129.833 14.333 173.5 43s77.334 69 101.001 121s47.5 128.667 71.5 230l163 696h-122l38 163h441l-38 -163h-117
l-167 -713c-33.333 -141.333 -69.333 -246.833 -108 -316.5s-96.334 -123.834 -173.001 -162.501s-168.334 -58 -275.001 -58c-140 0 -244 30.667 -312 92s-102 139.333 -102 234c0 52 12.333 130 37 234l161 690h-124z" />
    <glyph glyph-name="V" unicode="V" horiz-adv-x="1386" 
d="M374 -14l-60 1242h-156l38 163h471l-38 -163h-122l46 -918l637 918h-174l38 163h500l-39 -163h-120l-859 -1242h-162z" />
    <glyph glyph-name="W" unicode="W" horiz-adv-x="2028" 
d="M328 -14l-26 1242h-151l38 163h475l-39 -163h-132l20 -883l518 883h-157l38 163h555l-38 -163h-130l19 -883l515 883h-137l38 163h427l-39 -163h-96l-718 -1242h-172l-25 1046l-606 -1046h-177z" />
    <glyph glyph-name="X" unicode="X" horiz-adv-x="1300" 
d="M588 718l-184 510h-138l38 163h427l-38 -163h-105l131 -371l354 371h-142l38 163h436l-38 -163h-93l-496 -524l202 -541h118l-39 -163h-435l39 163h132l-147 401l-379 -401h134l-38 -163h-434l38 163h93z" />
    <glyph glyph-name="Y" unicode="Y" horiz-adv-x="1174" 
d="M488 626l-209 602h-145l38 163h459l-39 -163h-130l162 -459l425 459h-168l39 163h480l-38 -163h-116l-556 -602l-109 -463h141l-38 -163h-477l39 163h133z" />
    <glyph glyph-name="Z" unicode="Z" horiz-adv-x="1153" 
d="M-18 0l39 163l905 1065h-461l-60 -256h-166l98 419h878l-38 -163l-908 -1065h521l66 280h165l-104 -443h-935z" />
    <glyph glyph-name="bracketleft" unicode="[" horiz-adv-x="641" 
d="M395 -273l-34 -136h-424l424 1800h424l-32 -136h-246l-358 -1528h246z" />
    <glyph glyph-name="backslash" unicode="\" horiz-adv-x="897" 
d="M377 1415l378 -1437h-153l-378 1437h153z" />
    <glyph glyph-name="bracketright" unicode="]" horiz-adv-x="641" 
d="M-120 -273h246l358 1528h-246l34 136h424l-424 -1800h-424z" />
    <glyph glyph-name="asciicircum" unicode="^" horiz-adv-x="874" 
d="M240 590h-185l353 801h145l355 -801h-181l-247 597z" />
    <glyph glyph-name="underscore" unicode="_" horiz-adv-x="1024" 
d="M-52 -154h1048v-102h-1048v102z" />
    <glyph glyph-name="grave" unicode="`" horiz-adv-x="682" 
d="M670 1125h-140l-380 286h357z" />
    <glyph glyph-name="a" unicode="a" horiz-adv-x="1087" 
d="M846 163l121 0.000976562l-35 -163h-295l31 135c-92.667 -100.667 -197 -151 -313 -151c-75.333 0 -142.833 25.667 -202.5 77s-89.5 119.666 -89.5 204.999c0 97.333 39.333 177.833 118 241.5s176 95.5 292 95.5c90 0 180 -23.667 270 -71l25 108
c8.66699 37.333 13 64 13 80c0 42 -16.667 74.167 -50 96.5s-74 33.5 -122 33.5c-94.667 0 -174 -46 -238 -138l-152 69c39.333 60.667 97 111.5 173 152.5s159 61.5 249 61.5c101.333 0 180 -22 236 -66s84 -101 84 -171c0 -43.333 -7.33301 -98.333 -22 -165zM714 400.001
l-43.001 20.002c-66.667 29.333 -128 44 -184 44c-73.333 0 -132.333 -18.833 -177 -56.5s-67 -82.834 -67 -135.501c0 -44.667 15.5 -79.834 46.5 -105.501s71.833 -38.5 122.5 -38.5c78.667 0 167.334 42.333 266.001 127z" />
    <glyph glyph-name="b" unicode="b" horiz-adv-x="1260" 
d="M121 163l250 1065h-136l39 163h316l-126 -539c96 95.333 206.333 143 331 143c112 0 204.5 -37.667 277.5 -113s109.5 -175.666 109.5 -300.999c0 -167.333 -51 -308.666 -153 -423.999s-230.333 -173 -385 -173c-141.333 0 -255.333 59.667 -342 179l-38 -163h-291
l38 163h110zM370 402.998c0 -81.333 23.166 -145.167 69.499 -191.5s105.833 -69.5 178.5 -69.5c108 0 198.5 43.333 271.5 130s109.5 186 109.5 298c0 84 -23.667 148.5 -71 193.5s-107.666 67.5 -180.999 67.5c-108.667 0 -198.667 -45.667 -270 -137
s-107 -188.333 -107 -291z" />
    <glyph glyph-name="c" unicode="c" horiz-adv-x="1024" 
d="M767 293l133 -97c-112 -149.333 -254 -224 -426 -224c-122 0 -221.167 38.667 -297.5 116s-114.5 172.333 -114.5 285c0 158 53 301.167 159 429.5s231.667 192.5 377 192.5c112 0 201.333 -36.333 268 -109l20 82h160l-69 -291h-160c-10.667 54 -36.5 95.333 -77.5 124
s-87.167 43 -138.5 43c-93.333 0 -174 -45.167 -242 -135.5s-102 -195.166 -102 -314.499c0 -80.667 21 -145.834 63 -195.501s102 -74.5 180 -74.5c99.333 0 188.333 56.333 267 169z" />
    <glyph glyph-name="d" unicode="d" horiz-adv-x="1237" 
d="M974 163l135 -0.000976562l-39 -163h-315l28 119c-92 -90 -200 -135 -324 -135c-119.333 0 -214.333 40.5 -285 121.5s-106 184.5 -106 310.5c0 152.667 53.5 287.334 160.5 404.001s231.833 175 374.5 175c138 0 253 -57.667 345 -173l96 406h-151l38 163h331z
M255 418.999c0 -82 23.168 -148.167 69.501 -198.5s107.166 -75.5 182.499 -75.5c101.333 0 188.833 43.5 262.5 130.5s110.5 188.167 110.5 303.5c0 84 -25.5 147.5 -76.5 190.5s-111.5 64.5 -181.5 64.5c-100 0 -186.167 -43 -258.5 -129s-108.5 -181.333 -108.5 -286z
" />
    <glyph glyph-name="e" unicode="e" horiz-adv-x="1130" 
d="M1044 440l-760.001 -0.00292969c-4.66699 -19.333 -7 -37.666 -7 -54.999c0 -80 23 -142.333 69 -187s103.667 -67 173 -67c96.667 0 178.667 46 246 138l189 -81c-38 -63.333 -97 -115.166 -177 -155.499s-165.333 -60.5 -256 -60.5
c-139.333 0 -247.666 40.333 -324.999 121s-116 184 -116 310c0 100.667 25.5 196 76.5 286s119.167 163.5 204.5 220.5s178.666 85.5 279.999 85.5c122.667 0 222.834 -40.167 300.501 -120.5s116.5 -185.166 116.5 -314.499c0 -42 -4.66699 -82 -14 -120zM872.999 575.997
c2 20.667 3 37.333 3 50c0 53.333 -21.167 101.833 -63.5 145.5s-98.5 65.5 -168.5 65.5c-71.333 0 -135.833 -23.5 -193.5 -70.5s-101.167 -110.5 -130.5 -190.5h553z" />
    <glyph glyph-name="f" unicode="f" 
d="M302 163l139 0.000976562l-38 -163h-428l38 163h108l150 642h-143l39 162h143l16 69c32 137.333 74.333 234.833 127 292.5s119.334 86.5 200.001 86.5c64.667 0 129.667 -20.667 195 -62l-73 -125c-38 24.667 -72.667 37 -104 37c-40.667 0 -72.834 -15.333 -96.501 -46
s-48.167 -99.334 -73.5 -206.001l-11 -46h127l-38 -162h-127z" />
    <glyph glyph-name="g" unicode="g" horiz-adv-x="1237" 
d="M992 968h315.999l-39 -163h-134l-162 -693c-32.667 -139.333 -68.334 -245.833 -107.001 -319.5s-96.667 -133.5 -174 -179.5s-175.666 -69 -294.999 -69c-186 0 -328.333 54.333 -427 163l97 135c96.667 -101.333 210 -152 340 -152
c104.667 0 186.334 32.333 245.001 97s105.334 173 140.001 325c-97.333 -93.333 -205 -140 -323 -140c-116 0 -210.833 40 -284.5 120s-110.5 183.667 -110.5 311c0 146.667 53.5 280 160.5 400s233.5 180 379.5 180c143.333 0 256.666 -59.333 339.999 -178zM260.999 410
c0 -80.667 23 -146.834 69 -198.501s107.333 -77.5 184 -77.5c111.333 0 202 47.333 272 142s105 194.667 105 300c0 64.667 -23 121.834 -69 171.501s-108.667 74.5 -188 74.5c-105.333 0 -193.833 -41.667 -265.5 -125s-107.5 -179 -107.5 -287z" />
    <glyph glyph-name="h" unicode="h" horiz-adv-x="1130" 
d="M875 163h143.999l-38 -163h-326l127 537c22 96 33 154.333 33 175c0 66.667 -34.667 100 -104 100c-65.333 0 -162.333 -43.333 -291 -130l-122 -519h144l-38 -163h-441l38 163h116l250 1065h-128l38 163h309l-126 -537c122.667 86 228.334 129 317.001 129
c72 0 127.167 -23 165.5 -69s57.5 -97.667 57.5 -155c0 -43.333 -13.667 -123 -41 -239z" />
    <glyph glyph-name="i" unicode="i" 
d="M376 1301c0 31.333 11 58.168 33 80.501s48.333 33.5 79 33.5c32 0 58.667 -11.333 80 -34s32 -49.334 32 -80.001c0 -31.333 -10.833 -58.166 -32.5 -80.499s-48.167 -33.5 -79.5 -33.5c-30 0 -56.167 11.167 -78.5 33.5s-33.5 49.166 -33.5 80.499zM139 163.002
l151 642h-133l38 163h314l-189 -805h141l-38 -163h-429l38 163h107z" />
    <glyph glyph-name="j" unicode="j" 
d="M370 1301c0 31.333 10.833 58.1641 32.5 80.4971s48.167 33.5 79.5 33.5s57.833 -11.167 79.5 -33.5s32.5 -49.166 32.5 -80.499s-11 -58.166 -33 -80.499s-48.333 -33.5 -79 -33.5c-31.333 0 -57.833 11.333 -79.5 34s-32.5 49.334 -32.5 80.001zM200 967.998
l314.001 -0.00195312l-195 -834c-41.333 -176 -74.833 -295.167 -100.5 -357.5s-64.834 -111.5 -117.501 -147.5s-119 -54 -199 -54c-33.333 0 -64.666 4 -93.999 12l35 149l18 -2c11.333 -0.666992 19.666 -1 24.999 -1c42 0 80 13.833 114 41.5
s58.167 63.334 72.5 107.001s37.833 134.834 70.5 273.501l152 650h-133z" />
    <glyph glyph-name="k" unicode="k" horiz-adv-x="1067" 
d="M127 163l250 1065h-140l39 163h318l-206 -875l424 307h-153l34 145h484l-34 -145h-97l-452 -330l218 -330h156l-38 -163h-218l-324 493l-80 -330h148l-39 -163h-443l38 163h115z" />
    <glyph glyph-name="l" unicode="l" 
d="M132 163l250 1065h-130l38 163h311l-288 -1228h132l-39 -163h-423l38 163h111z" />
    <glyph glyph-name="m" unicode="m" horiz-adv-x="1729" 
d="M198 968h306.999l-28 -118c126 88.667 236.333 133 331 133c50.667 0 95 -15 133 -45s64 -68.667 78 -116c134.667 107.333 254.334 161 359.001 161c74.667 0 131.167 -23.5 169.5 -70.5s57.5 -97.833 57.5 -152.5c0 -42.667 -10.667 -109 -32 -199l-93 -398h143
l-38 -163h-324l136 583c14 58.667 21 100.667 21 126c0 68.667 -33.667 103 -101 103c-72 0 -171.333 -44.333 -298 -133l-120 -516h146l-38 -163h-327l139 594c14 58 21 96.333 21 115c0 30 -10 54.5 -30 73.5s-43.333 28.5 -70 28.5c-70.667 0 -171.667 -44 -303 -132
l-121 -516h145l-39 -163h-438l38 163h113l150 642h-125z" />
    <glyph glyph-name="n" unicode="n" horiz-adv-x="1130" 
d="M187 968l308.001 0.000976562l-26 -113c120.667 85.333 225.667 128 315 128c71.333 0 126.166 -23.333 164.499 -70s57.5 -96.667 57.5 -150c0 -44.667 -9 -105.334 -27 -182.001l-98 -418h143l-39 -163h-323l139 593c14.667 63.333 22 103 22 119
c0 29.333 -9.66699 53.5 -29 72.5s-43 28.5 -71 28.5c-74 0 -172 -42.667 -294 -128l-123 -522h145l-38 -163h-441l38 163h115l151 642h-127z" />
    <glyph glyph-name="o" unicode="o" horiz-adv-x="1153" 
d="M70 390c0 99.333 23.332 194.833 69.999 286.5s116.5 167.667 209.5 228s197.5 90.5 313.5 90.5c134.667 0 238.334 -39.333 311.001 -118s109 -178 109 -298c0 -94.667 -23.167 -191.667 -69.5 -291s-117.5 -176.833 -213.5 -232.5s-197.667 -83.5 -305 -83.5
c-124 0 -225.833 36.833 -305.5 110.5s-119.5 176.167 -119.5 307.5zM271.999 408c0 -174.667 81 -261.999 243 -261.999c113.333 0 204.333 43.5 273 130.5s103 187.5 103 301.5c0 73.333 -23.5 132.166 -70.5 176.499s-109.167 66.5 -186.5 66.5
c-109.333 0 -197 -42 -263 -126s-99 -179.667 -99 -287z" />
    <glyph glyph-name="p" unicode="p" horiz-adv-x="1237" 
d="M182 -274l151.999 0.000976562l-39 -163h-448l38 163h116l253 1079h-139l38 163h320l-28 -123c98.667 92 207.334 138 326.001 138c110 0 202.167 -40.333 276.5 -121s111.5 -185.334 111.5 -314.001c0 -154 -51.833 -288.5 -155.5 -403.5s-230.167 -172.5 -379.5 -172.5
c-143.333 0 -258.333 56 -345 168zM344.999 391.001c0 -82 23.834 -146 71.501 -192s108.167 -69 181.5 -69c109.333 0 199 42.5 269 127.5s105 183.5 105 295.5c0 84 -23.833 149.167 -71.5 195.5s-108.834 69.5 -183.501 69.5c-108 0 -197 -46 -267 -138
s-105 -188.333 -105 -289z" />
    <glyph glyph-name="q" unicode="q" horiz-adv-x="1237" 
d="M879 -274l123.999 -0.00195312l-38 -163h-429l38 163h124l91 387c-94 -94 -203.667 -141 -329 -141c-114 0 -208.667 39.833 -284 119.5s-113 183.834 -113 312.501c0 152.667 55.167 287.334 165.5 404.001s235.5 175 375.5 175c140.667 0 256.334 -59.333 347.001 -178
l38 163h305l-38 -163h-124zM256.999 398.998c0 -81.333 22.832 -146.332 68.499 -194.999s105.834 -73 180.501 -73c106 0 195.333 46.167 268 138.5s109 194.166 109 305.499c0 70.667 -24.5 129.167 -73.5 175.5s-110.5 69.5 -184.5 69.5
c-99.333 0 -185.5 -40.833 -258.5 -122.5s-109.5 -181.167 -109.5 -298.5z" />
    <glyph glyph-name="r" unicode="r" horiz-adv-x="811" 
d="M307 163l160 0.000976562l-39 -163h-469l38 163h127l149 642h-150l40 163h314l-64 -274c60.667 101.333 125.5 174.833 194.5 220.5s150.167 68.5 243.5 68.5h43l-42 -178c-18 2 -33.333 3 -46 3c-84.667 0 -158 -19.5 -220 -58.5s-111.333 -91.833 -148 -158.5
s-67 -151.334 -91 -254.001z" />
    <glyph glyph-name="s" unicode="s" horiz-adv-x="874" 
d="M20 270h163.999c0 -45.333 20 -80.333 60 -105s92.333 -37 157 -37c59.333 0 105.166 12 137.499 36s48.5 53.333 48.5 88c0 32.667 -14 61.167 -42 85.5s-77.333 50.166 -148 77.499c-71.333 28 -125.333 53 -162 75s-67 52.333 -91 91s-36 79.667 -36 123
c0 74.667 31 139.834 93 195.501s147.333 83.5 256 83.5c101.333 0 184.666 -28 249.999 -84l20 69h161l-63 -269h-162c-1.33301 49.333 -23.666 84.333 -66.999 105s-90.666 31 -141.999 31c-53.333 0 -95.166 -10.667 -125.499 -32s-45.5 -48 -45.5 -80
c0 -26 9 -47.5 27 -64.5s52.333 -35.167 103 -54.5c144 -55.333 239 -108 285 -158s69 -110.333 69 -181c0 -84 -32.5 -151.833 -97.5 -203.5s-160.5 -77.5 -286.5 -77.5c-117.333 0 -200.333 26.333 -249 79l-14 -63h-164z" />
    <glyph glyph-name="t" unicode="t" horiz-adv-x="598" 
d="M472 968h137.001l-38 -163h-137l-107 -456c-19.333 -82.667 -29 -134 -29 -154c0 -45.333 24 -68 72 -68c33.333 0 83.666 18.667 150.999 56l-39 -166c-61.333 -30 -121 -45 -179 -45c-54.667 0 -99 17.667 -133 53s-51 85 -51 149c0 43.333 18 139.333 54 288l80 343
h-110l38 163h110l46 192l221 172z" />
    <glyph glyph-name="u" unicode="u" horiz-adv-x="1130" 
d="M859 163h121.999l-38 -163h-304l27 112c-119.333 -85.333 -225.333 -128 -318 -128c-69.333 0 -124.333 22.667 -165 68s-61 94 -61 146c0 39.333 11 105.333 33 198l95 409h-120l39 163h301l-124 -525c-24.667 -106 -37 -171.333 -37 -196
c0 -28.667 9.83301 -52 29.5 -70s44.167 -27 73.5 -27c70.667 0 169.334 47 296.001 141l120 514h-144l38 163h325z" />
    <glyph glyph-name="v" unicode="v" horiz-adv-x="981" 
d="M246 -16l-51 821h-112l38 163h379l-38 -163h-95l34 -579l391 579h-128l38 163h389l-39 -163h-85l-558 -821h-163z" />
    <glyph glyph-name="w" unicode="w" horiz-adv-x="1516" 
d="M226 -16l-30 821h-114l38 163h357l-38 -163h-88l22 -570l365 570h-123l38 163h424l-39 -163h-104l21 -570l368 570h-116l38 163h361l-38 -163h-80l-520 -821h-158l-23 639l-406 -639h-155z" />
    <glyph glyph-name="x" unicode="x" horiz-adv-x="1044" 
d="M436 505l-169 306h-100l38 157h364l-39 -145h-94l120 -215l247 215h-123l38 145h399l-38 -157h-81l-375 -327l180 -327h86l-38 -157h-364l38 145h109l-128 233l-263 -233h133l-39 -145h-411l38 157h86z" />
    <glyph glyph-name="y" unicode="y" horiz-adv-x="1044" 
d="M81 -274l192 280l-45 799h-111l39 163h380l-38 -163h-101l34 -568l393 568h-133l38 163h396l-38 -163h-91l-850 -1242h-287l38 163h184z" />
    <glyph glyph-name="z" unicode="z" horiz-adv-x="854" 
d="M-53 0l38 163l665 662h-330l-48 -202h-155l80 345h703l-38 -166l-665 -655h364l49 208h154l-84 -355h-733z" />
    <glyph glyph-name="braceleft" unicode="{" horiz-adv-x="682" 
d="M100 556c48 1.33301 87.998 13.3311 119.998 35.998s54.5 55.667 67.5 99s19.5 121 19.5 233c0 143.333 8 243 24 299s46.667 98 92 126s112 42 200 42h56v-149h-31c-66.667 0 -112 -11.167 -136 -33.5s-36 -75.5 -36 -159.5c0 -148 -3.33301 -251.667 -10 -311
s-25 -110 -55 -152s-78 -78 -144 -108c70 -26.667 122.333 -69.834 157 -129.501s52 -157.5 52 -293.5c0 -125.333 1.83301 -204.666 5.5 -237.999s16.334 -58.666 38.001 -75.999s64.5 -26 128.5 -26h31v-149h-56c-65.333 0 -116.666 6.33301 -153.999 19
s-69.833 36.5 -97.5 71.5s-45.334 78.333 -53.001 130s-11.5 133.834 -11.5 246.501c0 112 -6.5 189.667 -19.5 233s-35.667 76.333 -68 99s-72.166 34.667 -119.499 36v155z" />
    <glyph glyph-name="bar" unicode="|" horiz-adv-x="1079" 
d="M507 1415h157v-1871h-157v1871z" />
    <glyph glyph-name="braceright" unicode="}" horiz-adv-x="682" 
d="M666 401c-48 -1.33301 -88.001 -13.332 -120.001 -35.999s-54.5 -55.834 -67.5 -99.501s-19.5 -121.167 -19.5 -232.5c0 -143.333 -8 -243.166 -24 -299.499s-46.667 -98.333 -92 -126s-112 -41.5 -200 -41.5h-56v148h31c66.667 0 112 11.167 136 33.5s36 75.5 36 159.5
c0 148.667 3.33301 252.667 10 312s25 109.833 55 151.5s78 77.5 144 107.5c-70 26.667 -122.333 70 -157 130s-52 157.667 -52 293c0 125.333 -2 204.833 -6 238.5s-16.833 59.167 -38.5 76.5s-64.167 26 -127.5 26h-31v149h56c65.333 0 116.666 -6.33301 153.999 -19
s69.833 -36.5 97.5 -71.5s45.334 -78.333 53.001 -130s11.5 -133.834 11.5 -246.501c0 -112 6.33301 -189.667 19 -233s35.334 -76.5 68.001 -99.5s72.667 -34.833 120 -35.5v-155z" />
    <glyph glyph-name="asciitilde" unicode="~" horiz-adv-x="1194" 
d="M1191 668c-103.333 -85.333 -201.001 -128 -293.001 -128c-42 0 -82.5 6.16699 -121.5 18.5s-102.5 38.833 -190.5 79.5c-84.667 40 -149 60 -193 60c-90 0 -189.333 -46.667 -298 -140v169c104.667 85.333 206.334 128 305.001 128c62 0 159.667 -31.333 293 -94
c90.667 -42 158.667 -63 204 -63c86 0 184 46.333 294 139v-169z" />
    <glyph glyph-name="uni00A0" unicode="&#xa0;" horiz-adv-x="512" 
 />
    <glyph glyph-name="exclamdown" unicode="&#xa1;" 
d="M467 732h-241l55 236h242zM262 598h101l-91 -589l-102 -432h-193l94 400z" />
    <glyph glyph-name="cent" unicode="&#xa2;" horiz-adv-x="1024" 
d="M744 970c46 -17.333 86.666 -45.333 121.999 -84l20 84h160l-69 -293h-158c-14.667 72 -57 122 -127 150l-258 -696c22 -4.66699 44 -7 66 -7c101.333 0 190.333 56.333 267 169l134 -97c-111.333 -149.333 -253.333 -224 -426 -224c-32.667 0 -64.667 3 -96 9l-158 -424
h-86l166 443c-74.667 32.667 -133.167 82 -175.5 148s-63.5 140 -63.5 222c0 158 52.333 301.667 157 431s231.334 194 380.001 194c22.667 0 45.667 -1.66699 69 -5l151 408h82zM360.999 163l253 680c-8 0.666992 -14 1 -18 1c-88 0 -166.5 -44.5 -235.5 -133.5
s-103.5 -196.167 -103.5 -321.5c0 -104.667 34.667 -180 104 -226z" />
    <glyph glyph-name="sterling" unicode="&#xa3;" horiz-adv-x="938" 
d="M343 760c-16 93.333 -24.0029 168.335 -24.0029 225.002c0 132.667 37.833 237.5 113.5 314.5s170.5 115.5 284.5 115.5c84.667 0 155.167 -22.833 211.5 -68.5s84.5 -108.5 84.5 -188.5c0 -36.667 -7 -78.334 -21 -125.001h-180c16.667 46 25 85 25 117
c0 34.667 -12.5 63.5 -37.5 86.5s-55.833 34.5 -92.5 34.5c-52 0 -98.833 -22 -140.5 -66s-62.5 -111.667 -62.5 -203c0 -33.333 4 -78.333 12 -135c8 -60 12.667 -95.667 14 -107h273l-33 -149h-230c-1.33301 -82 -7.16602 -150.5 -17.499 -205.5
s-31.833 -116.167 -64.5 -183.5c51.333 -40 100.333 -60 147 -60c71.333 0 126.333 56.333 165 169h121c-57.333 -234.667 -160.666 -352 -309.999 -352c-75.333 0 -144.333 36 -207 108c-55.333 -72 -117.666 -108 -186.999 -108c-46 0 -84.5 16.667 -115.5 50
s-46.5 74.666 -46.5 123.999c0 51.333 16.5 96 49.5 134s75.167 57 126.5 57s102 -17.333 152 -52c12.667 61.333 19 121 19 179c0 36 -2.33301 82.667 -7 140h-246l35 149h189zM305.997 163.002c-40.667 47.333 -77.666 71 -110.999 71c-22 0 -40.833 -7.5 -56.5 -22.5
s-23.5 -34.833 -23.5 -59.5c0 -21.333 6.66699 -39 20 -53s30 -21 50 -21c43.333 0 83.666 28.333 120.999 85z" />
    <glyph glyph-name="currency" unicode="&#xa4;" horiz-adv-x="1366" 
d="M229 1091l104 106.999l132 -131c76 57.333 163.333 86 262 86c95.333 0 184 -28.667 266 -86l131 131l104 -107l-130 -130c57.333 -83.333 86 -172.666 86 -267.999c0 -94.667 -28.667 -181 -86 -259l130 -129l-104 -105l-131 129c-83.333 -58.667 -173 -88 -269 -88
c-94.667 0 -181 29.333 -259 88l-130 -129l-106 105l131 129c-57.333 88 -86 178 -86 270c0 91.333 28.667 177 86 257zM729 1004c-84 0 -156.167 -30 -216.5 -90s-90.5 -132.333 -90.5 -217s30.167 -157 90.5 -217s132.5 -90 216.5 -90c84.667 0 157.167 30 217.5 90
s90.5 132.333 90.5 217c0 88 -30.5 161.167 -91.5 219.5s-133.167 87.5 -216.5 87.5z" />
    <glyph glyph-name="yen" unicode="&#xa5;" horiz-adv-x="1174" 
d="M842 769h352l-26 -117h-433l-24 -26l-41 -173h452l-26 -117h-453l-41 -173h141l-39 -163h-476l38 163h134l41 173h-404l26 117h405l41 173l-9 26h-391l26 117h324l-159 459h-145l38 163h458l-38 -163h-130l161 -459l426 459h-168l38 163h481l-38 -163h-116z" />
    <glyph glyph-name="brokenbar" unicode="&#xa6;" horiz-adv-x="1079" 
d="M507 1415h157v-778h-157v778zM507 322h157v-778h-157v778z" />
    <glyph glyph-name="section" unicode="&#xa7;" horiz-adv-x="918" 
d="M-27 -120l155.001 53.001c0 -64.667 21 -117.5 63 -158.5s102 -61.5 180 -61.5c65.333 0 116.333 15.167 153 45.5s55 67.833 55 112.5c0 38 -16.667 76.5 -50 115.5s-100 94.833 -200 167.5c-124 89.333 -205.167 158 -243.5 206s-57.5 104 -57.5 168
c0 128.667 89.667 238 269 328c-72.667 68 -109 147.333 -109 238c0 96 36 173.5 108 232.5s160.667 88.5 266 88.5c115.333 0 208.166 -28.5 278.499 -85.5s105.5 -132.167 105.5 -225.5c0 -8 -0.666992 -19 -2 -33l-151 -51c0.666992 17.333 1 28 1 32
c0 58 -19.667 108 -59 150s-95 63 -167 63c-71.333 0 -124.333 -17.167 -159 -51.5s-52 -70.833 -52 -109.5c0 -42 16.167 -80 48.5 -114s95.5 -80.667 189.5 -140c121.333 -76 202.5 -138.833 243.5 -188.5s61.5 -109.167 61.5 -178.5c0 -72 -25.833 -138 -77.5 -198
s-121.5 -108 -209.5 -144c90.667 -85.333 136 -174.333 136 -267c0 -96 -38 -172 -114 -228s-165.333 -84 -268 -84c-108 0 -200 29.667 -276 89s-115.333 135.666 -118 228.999zM516.001 227.001c151.333 57.333 226.997 131.666 226.997 222.999
c0 28.667 -11.5 58.334 -34.5 89.001s-71.167 70 -144.5 118c-89.333 58 -145.666 96.333 -168.999 115c-59.333 -22 -106.333 -52.667 -141 -92s-52 -82.666 -52 -129.999c0 -34 10.833 -66 32.5 -96s75.834 -76 162.501 -138
c48.667 -34.667 88.334 -64.334 119.001 -89.001z" />
    <glyph glyph-name="dieresis" unicode="&#xa8;" horiz-adv-x="682" 
d="M617 1254c0 31.333 11 58 33 80s48.333 33 79 33c32 0 58.667 -11.167 80 -33.5s32 -48.5 32 -78.5c0 -30.667 -10.833 -57.167 -32.5 -79.5s-48.167 -33.5 -79.5 -33.5c-30.667 0 -57 11 -79 33s-33 48.333 -33 79zM201 1255c0 29.333 10.5 55.333 31.5 78
s47.833 34 80.5 34c31.333 0 57.833 -11 79.5 -33s32.5 -48.333 32.5 -79c0 -31.333 -11 -58 -33 -80s-48.333 -33 -79 -33c-32 0 -58.667 11.167 -80 33.5s-32 48.833 -32 79.5z" />
    <glyph glyph-name="copyright" unicode="&#xa9;" horiz-adv-x="1516" 
d="M809 1413c126.667 0 249.5 -32.168 368.5 -96.501s213 -156.666 282 -276.999s103.5 -247.5 103.5 -381.5c0 -208 -73.5 -385.833 -220.5 -533.5s-324.833 -221.5 -533.5 -221.5s-386.667 73.833 -534 221.5s-221 325.5 -221 533.5c0 135.333 34.333 262.333 103 381
s162 210.667 280 276s242 98 372 98zM809 1287c-105.333 0 -207.667 -26.833 -307 -80.5s-178 -130.5 -236 -230.5s-87 -206 -87 -318c0 -173.333 61.5 -321.5 184.5 -444.5s271.5 -184.5 445.5 -184.5s322.333 61.5 445 184.5s184 271.167 184 444.5
c0 174 -61.667 322.333 -185 445s-271.333 184 -444 184zM1051 534.999l123.001 -36.001c-18.667 -84 -61.334 -150.5 -128.001 -199.5s-144.667 -73.5 -234 -73.5c-131.333 0 -230.5 41.333 -297.5 124s-100.5 184.667 -100.5 306c0 131.333 35.833 235 107.5 311
s170.5 114 296.5 114c94 0 169.333 -22.5 226 -67.5s95 -101.167 115 -168.5l-119 -29c-40.667 102.667 -115.667 154 -225 154c-84 0 -149.167 -29.833 -195.5 -89.5s-69.5 -135.5 -69.5 -227.5c0 -98 23 -174.167 69 -228.5s107.333 -81.5 184 -81.5
c56.667 0 108.667 16.833 156 50.5s78 80.834 92 141.501z" />
    <glyph glyph-name="ordfeminine" unicode="&#xaa;" horiz-adv-x="705" 
d="M692 902h85.999l-20 -86h-194l21 86c-60 -64 -128.333 -96 -205 -96c-50.667 0 -94.834 16 -132.501 48s-56.5 72.333 -56.5 121c0 58 25.333 106.333 76 145s114 58 190 58c58.667 0 117.334 -14.333 176.001 -43l16 64c6 22.667 9 39 9 49c0 52 -37.667 78 -113 78
c-61.333 0 -112.666 -27.667 -153.999 -83l-98 41c63.333 86 153.666 129 270.999 129c66.667 0 118.334 -13.167 155.001 -39.5s55 -61.5 55 -105.5c0 -20.667 -5.33301 -52.667 -16 -96zM612.999 1056c-54 25.333 -102.999 38.001 -146.999 38.001
c-47.333 0 -85.5 -11.333 -114.5 -34s-43.5 -49.667 -43.5 -81c0 -28.667 10.5 -50.334 31.5 -65.001s46.5 -22 76.5 -22c53.333 0 111.666 25.667 174.999 77z" />
    <glyph glyph-name="guillemotleft" unicode="&#xab;" horiz-adv-x="938" 
d="M39 520l353 448h204l-378 -482l153 -486h-167zM461 520l354 448h203l-378 -482l154 -486h-168z" />
    <glyph glyph-name="logicalnot" unicode="&#xac;" horiz-adv-x="1366" 
d="M181 1011h1096v-627h-157v470h-939v157z" />
    <glyph glyph-name="registered" unicode="&#xae;" horiz-adv-x="1516" 
d="M809 1413c126.667 0 249.5 -32.168 368.5 -96.501s213 -156.666 282 -276.999s103.5 -247.5 103.5 -381.5c0 -208 -73.5 -385.833 -220.5 -533.5s-324.833 -221.5 -533.5 -221.5s-386.667 73.833 -534 221.5s-221 325.5 -221 533.5c0 135.333 34.333 262.333 103 381
s162 210.667 280 276s242 98 372 98zM809 1287c-105.333 0 -207.667 -26.833 -307 -80.5s-178 -130.5 -236 -230.5s-87 -206 -87 -318c0 -173.333 61.5 -321.5 184.5 -444.5s271.5 -184.5 445.5 -184.5s322.333 61.5 445 184.5s184 271.167 184 444.5
c0 174 -61.667 322.333 -185 445s-271.333 184 -444 184zM477.999 240.999l0.000976562 811h279c80.667 0 143 -5.33301 187 -16s81.667 -35 113 -73s47 -81.667 47 -131c0 -56.667 -20.5 -107.5 -61.5 -152.5s-97.833 -70.5 -170.5 -76.5c50 -14 113 -82 189 -204l99 -158
h-160l-72 128c-54.667 96 -96.334 156 -125.001 180s-67.667 36 -117 36h-77v-344h-131zM609 696.999h158.999c131.333 0 197 41.333 197 124c0 44 -15.667 75.167 -47 93.5s-84.666 27.5 -159.999 27.5h-149v-245z" />
    <glyph glyph-name="uni00AF" unicode="&#xaf;" horiz-adv-x="1024" 
d="M207 1647h1048v-102h-1048v102z" />
    <glyph glyph-name="degree" unicode="&#xb0;" horiz-adv-x="811" 
d="M541 1415c94.667 0 176 -33.833 244 -101.5s102 -149.167 102 -244.5c0 -94.667 -33.833 -176 -101.5 -244s-149.167 -102 -244.5 -102s-176.833 34 -244.5 102s-101.5 149.333 -101.5 244c0 96 33.833 177.667 101.5 245s149.167 101 244.5 101zM541 1285
c-58 0 -108.333 -20.5 -151 -61.5s-64 -92.167 -64 -153.5c0 -59.333 21.167 -110 63.5 -152s92.833 -63 151.5 -63c59.333 0 110 21.167 152 63.5s63 92.833 63 151.5c0 61.333 -21.333 112.5 -64 153.5s-93 61.5 -151 61.5z" />
    <glyph glyph-name="plusminus" unicode="&#xb1;" horiz-adv-x="1366" 
d="M181 945h470v470h156v-470h470v-157h-470v-469h-156v469h-470v157zM181 137h1096v-157h-1096v157z" />
    <glyph glyph-name="twosuperior" unicode="&#xb2;" horiz-adv-x="662" 
d="M553 938h122.001l-70 -258h-477c11.333 71.333 40.833 135 88.5 191s125.5 119 233.5 189c69.333 45.333 113.166 82.333 131.499 111s27.5 55.667 27.5 81c0 24.667 -8.5 43.5 -25.5 56.5s-35.833 19.5 -56.5 19.5c-38 0 -72.833 -18.5 -104.5 -55.5
s-53.167 -85.833 -64.5 -146.5h-127c36.667 192.667 132.667 289 288 289c59.333 0 107.166 -15.833 143.499 -47.5s54.5 -71.5 54.5 -119.5c0 -50 -14.667 -93.667 -44 -131s-83 -81.333 -161 -132c-139.333 -90.667 -212.666 -160 -219.999 -208h217z" />
    <glyph glyph-name="threesuperior" unicode="&#xb3;" horiz-adv-x="662" 
d="M166 928l127.002 0.000976562c-2.66699 -22.667 -4 -38.667 -4 -48c0 -80.667 39.667 -121 119 -121c51.333 0 90.166 15.667 116.499 47s39.5 64.666 39.5 99.999c0 71.333 -47.667 107 -143 107c-8.66699 0 -23.667 -0.666992 -45 -2l25 91
c152.667 0 229 46.667 229 140c0 57.333 -32.667 86 -98 86c-68 0 -115.333 -42.667 -142 -128h-123c14 64.667 44.5 116.667 91.5 156s106.167 59 177.5 59c63.333 0 116.5 -16 159.5 -48s64.5 -74.667 64.5 -128c0 -45.333 -15.833 -86 -47.5 -122
s-71.834 -58.333 -120.501 -67c30 -6.66699 55.667 -24.167 77 -52.5s32 -59.166 32 -92.499c0 -65.333 -26.333 -120.833 -79 -166.5s-123.667 -68.5 -213 -68.5c-76 0 -136.5 19.167 -181.5 57.5s-67.5 87.166 -67.5 146.499c0 15.333 2 33.333 6 54z" />
    <glyph glyph-name="acute" unicode="&#xb4;" horiz-adv-x="682" 
d="M337 1125l165 286h357l-382 -286h-140z" />
    <glyph glyph-name="uni00B5" unicode="&#xb5;" horiz-adv-x="1130" 
d="M255 968l179.999 -0.00292969l-93 -405c-30.667 -133.333 -46 -221.666 -46 -264.999c0 -49.333 17.5 -90.166 52.5 -122.499s81.833 -48.5 140.5 -48.5c60.667 0 121.334 20.833 182.001 62.5s109 141.834 145 300.501l109 478h178l-226 -968h-162l20 84
c-88 -72.667 -177.667 -109 -269 -109c-94.667 0 -172.667 41.667 -234 125l-134 -534h-178z" />
    <glyph glyph-name="paragraph" unicode="&#xb6;" horiz-adv-x="1110" 
d="M446 -434v997c-123.333 5.33301 -221.5 45.5 -294.5 120.5s-109.5 171.5 -109.5 289.5c0 118.667 38.333 218 115 298s196 120 358 120h633v-173h-144v-1652h-170v1652h-223v-1652h-165z" />
    <glyph glyph-name="cedilla" unicode="&#xb8;" horiz-adv-x="682" 
d="M270 18l-49.999 -115.001c44.667 -4.66699 79.667 -20.167 105 -46.5s38 -57.833 38 -94.5c0 -62.667 -29.833 -112.5 -89.5 -149.5s-136.5 -55.5 -230.5 -55.5c-46 0 -97.667 4.66699 -155 14l33 87c28 -3.33301 55.333 -5 82 -5c58 0 102.5 8.33301 133.5 25
s46.5 39.334 46.5 68.001c0 20.667 -8.33301 37 -25 49s-36.334 18 -59.001 18h-25l94 205h102z" />
    <glyph glyph-name="onesuperior" unicode="&#xb9;" horiz-adv-x="662" 
d="M334 777l143 530h-94l26 96h225l-170 -626h87l-26 -97h-312l26 97h95z" />
    <glyph glyph-name="ordmasculine" unicode="&#xba;" horiz-adv-x="748" 
d="M192 1050c0 98 37.168 183 111.501 255s165.5 108 273.5 108c91.333 0 159.666 -24.5 204.999 -73.5s68 -106.167 68 -171.5c0 -106 -36.167 -194 -108.5 -264s-163.5 -105 -273.5 -105c-80 0 -146 22 -198 66s-78 105.667 -78 185zM323.001 1050
c0 -98 52.667 -146.999 158 -146.999c72.667 0 131.667 26 177 78s68 112.333 68 181c0 43.333 -15 78.5 -45 105.5s-70.667 40.5 -122 40.5c-68 0 -124.333 -24.333 -169 -73s-67 -110.334 -67 -185.001z" />
    <glyph glyph-name="guillemotright" unicode="&#xbb;" horiz-adv-x="938" 
d="M901 448l-354 -448h-203l378 482l-154 486h168zM479 448l-354 -448h-203l378 482l-154 486h167z" />
    <glyph glyph-name="onequarter" unicode="&#xbc;" horiz-adv-x="2048" 
d="M310 777l144 530h-94l26 96h225l-170 -626h87l-26 -97h-312l26 97h94zM118 0l1428 1391h133l-1429 -1391h-132zM1327 195h-278c0 33.333 -11.333 63 -34 89l478 444h110l-121 -451h121l-21 -82h-124l-27 -99h78l-27 -96h-284l27 96h76zM1350 277l70 260l-280 -260h210z
" />
    <glyph glyph-name="onehalf" unicode="&#xbd;" horiz-adv-x="2048" 
d="M315 777l144 530h-94l26 96h225l-170 -626h87l-26 -97h-312l26 97h94zM111 0l1428 1391h133l-1429 -1391h-132zM1429 257l122.997 0.00195312l-70 -257h-477c11.333 71.333 40.833 135 88.5 191s125.5 119 233.5 189c68.667 45.333 112.334 82.166 131.001 110.499
s28 55.166 28 80.499s-8.5 44.333 -25.5 57s-35.833 19 -56.5 19c-43.333 0 -80.166 -21.167 -110.499 -63.5s-50.166 -88.166 -59.499 -137.499h-126c36.667 192.667 132.667 289 288 289c59.333 0 107.166 -15.833 143.499 -47.5s54.5 -71.5 54.5 -119.5
c0 -50.667 -14.667 -94.5 -44 -131.5s-83 -80.833 -161 -131.5c-139.333 -90.667 -212.666 -160.334 -219.999 -209.001h217z" />
    <glyph glyph-name="threequarters" unicode="&#xbe;" horiz-adv-x="2048" 
d="M217 928l127.002 0.000976562c-2.66699 -22.667 -4 -38.667 -4 -48c0 -80.667 39.667 -121 119 -121c51.333 0 90.166 15.667 116.499 47s39.5 64.666 39.5 99.999c0 71.333 -47.667 107 -143 107c-8.66699 0 -23.667 -0.666992 -45 -2l25 91
c152.667 0 229 46.667 229 140c0 57.333 -32.667 86 -98 86c-68 0 -115.333 -42.667 -142 -128h-123c14 64.667 44.5 116.667 91.5 156s106.167 59 177.5 59c63.333 0 116.5 -16 159.5 -48s64.5 -74.667 64.5 -128c0 -45.333 -15.833 -86 -47.5 -122
s-71.834 -58.333 -120.501 -67c30 -6.66699 55.667 -24.167 77 -52.5s32 -59.166 32 -92.499c0 -65.333 -26.333 -120.833 -79 -166.5s-123.667 -68.5 -213 -68.5c-76 0 -136.5 19.167 -181.5 57.5s-67.5 87.166 -67.5 146.499c0 15.333 2 33.333 6 54zM213.002 0.000976562
l1428 1391h132l-1428 -1391h-132zM1410 195.001h-277.999c-0.666992 33.333 -12.334 63 -35.001 89l478 444h111l-122 -451h122l-22 -82h-123l-27 -99h78l-28 -96h-283l26 96h76zM1432 277.001l71 260l-280 -260h209z" />
    <glyph glyph-name="questiondown" unicode="&#xbf;" horiz-adv-x="938" 
d="M747 744h-241l56 236h241zM553 612h95.9971l-83 -428c-39.333 9.33301 -75.666 14 -108.999 14c-93.333 0 -165 -32.833 -215 -98.5s-75 -134.167 -75 -205.5c0 -49.333 14.667 -90.833 44 -124.5s73 -50.5 131 -50.5c118 0 198.333 66.667 241 200h153
c-29.333 -124.667 -82.166 -214.5 -158.499 -269.5s-163.5 -82.5 -261.5 -82.5c-106 0 -187.5 30 -244.5 90s-85.5 137.667 -85.5 233c0 126.667 42.333 233.167 127 319.5s183.334 129.5 296.001 129.5c12 0 30 -0.666992 54 -2z" />
    <glyph glyph-name="Agrave" unicode="&#xc0;" horiz-adv-x="1323" 
d="M917 487h-488l-172 -324h151l-38 -163h-495l38 163h128l600 1065h-154l38 163h679l-38 -163h-144l124 -1065h129l-38 -163h-492l39 163h164zM902 650l-52 578h-34l-299 -578h385zM1044 1516h-140l-380 286h357z" />
    <glyph glyph-name="Aacute" unicode="&#xc1;" horiz-adv-x="1323" 
d="M917 487h-488l-172 -324h151l-38 -163h-495l38 163h128l600 1065h-154l38 163h679l-38 -163h-144l124 -1065h129l-38 -163h-492l39 163h164zM902 650l-52 578h-34l-299 -578h385zM773 1516l165 286h357l-382 -286h-140z" />
    <glyph glyph-name="Acircumflex" unicode="&#xc2;" horiz-adv-x="1323" 
d="M917 487h-488l-172 -324h151l-38 -163h-495l38 163h128l600 1065h-154l38 163h679l-38 -163h-144l124 -1065h129l-38 -163h-492l39 163h164zM902 650l-52 578h-34l-299 -578h385zM568 1483l245 306h262l97 -306h-137l-122 159l-207 -159h-138z" />
    <glyph glyph-name="Atilde" unicode="&#xc3;" horiz-adv-x="1323" 
d="M917 487h-488l-172 -324h151l-38 -163h-495l38 163h128l600 1065h-154l38 163h679l-38 -163h-144l124 -1065h129l-38 -163h-492l39 163h164zM902 650l-52 578h-34l-299 -578h385zM1131 1765l112.999 0.000976562c0.666992 -16.667 1 -30.667 1 -42
c0 -72.667 -16.167 -131.334 -48.5 -176.001s-75.5 -67 -129.5 -67c-46 0 -118.333 31 -217 93c-33.333 21.333 -59.666 32 -78.999 32c-45.333 0 -69.333 -36.667 -72 -110h-116c0 95.333 18.667 164.333 56 207s82.333 64 135 64c38.667 0 97 -23.333 175 -70
c60.667 -36.667 99.667 -55 117 -55c41.333 0 63 41.333 65 124z" />
    <glyph glyph-name="Adieresis" unicode="&#xc4;" horiz-adv-x="1323" 
d="M917 487h-488l-172 -324h151l-38 -163h-495l38 163h128l600 1065h-154l38 163h679l-38 -163h-144l124 -1065h129l-38 -163h-492l39 163h164zM902 650l-52 578h-34l-299 -578h385zM983 1611c0 31.333 11 58 33 80s48.333 33 79 33c32 0 58.667 -11.167 80 -33.5
s32 -48.5 32 -78.5c0 -30.667 -10.833 -57.167 -32.5 -79.5s-48.167 -33.5 -79.5 -33.5c-30.667 0 -57 11 -79 33s-33 48.333 -33 79zM567 1612c0 29.333 10.5 55.333 31.5 78s47.833 34 80.5 34c31.333 0 57.833 -11 79.5 -33s32.5 -48.333 32.5 -79
c0 -31.333 -11 -58 -33 -80s-48.333 -33 -79 -33c-32 0 -58.667 11.167 -80 33.5s-32 48.833 -32 79.5z" />
    <glyph glyph-name="Aring" unicode="&#xc5;" horiz-adv-x="1323" 
d="M803 1391c-88 40.667 -132 107.666 -132 200.999c0 60 21.5 111.667 64.5 155s94.5 65 154.5 65c61.333 0 113.333 -21.5 156 -64.5s64 -94.5 64 -154.5c0 -93.333 -44 -160.666 -132 -201.999h226l-38 -163h-144l124 -1065h129l-38 -163h-492l39 163h164l-31 324h-488
l-172 -324h151l-38 -163h-495l38 163h128l600 1065h-154l38 163h278zM770 1592c0 -32.667 11.665 -60.834 34.998 -84.501s52 -35.5 86 -35.5c32.667 0 60.834 11.667 84.501 35s35.5 52 35.5 86c0 32.667 -11.667 60.834 -35 84.501s-51.666 35.5 -84.999 35.5
s-61.833 -11.833 -85.5 -35.5s-35.5 -52.167 -35.5 -85.5zM901.998 649.999l-52 578h-34l-299 -578h385z" />
    <glyph glyph-name="AE" unicode="&#xc6;" horiz-adv-x="1985" 
d="M1012 633h-353l-348 -470h144l-38 -163h-499l38 163h144l784 1065h-181l38 163h1317l-98 -419h-165l57 256h-498l-102 -433h444l-38 -162h-444l-110 -470h518l62 263h168l-102 -426h-1047l38 163h161zM1050 795l102 433h-54l-321 -433h273z" />
    <glyph glyph-name="Ccedilla" unicode="&#xc7;" horiz-adv-x="1473" 
d="M717 -22l-30.001 -57c55.333 -4.66699 97.166 -21.334 125.499 -50.001s42.5 -61.334 42.5 -98.001c0 -64 -29.667 -119.333 -89 -166s-146 -70 -260 -70c-59.333 0 -120.666 5.33301 -183.999 16l50 113c38 -3.33301 71.667 -5 101 -5c51.333 0 91.666 8 120.999 24
s44 35.667 44 59c0 22 -10.667 38.667 -32 50s-45 17 -71 17c-6 0 -14.333 -0.333008 -25 -1l93 178c-151.333 24 -269.166 91 -353.499 201s-126.5 239 -126.5 387c0 133.333 35.333 263.833 106 391.5s173.334 233.834 308.001 318.501s291.334 127 470.001 127
c171.333 0 305 -47 401 -141l28 119h164l-89 -383h-164c-35.333 157.333 -154 236 -356 236c-122.667 0 -234.334 -33 -335.001 -99s-179.5 -154.167 -236.5 -264.5s-85.5 -220.5 -85.5 -330.5c0 -115.333 38.333 -211.666 115 -288.999s174 -116 292 -116
c174 0 337 89.333 489 268l133 -120c-168 -210 -383.333 -315 -646 -315z" />
    <glyph glyph-name="Egrave" unicode="&#xc8;" horiz-adv-x="1174" 
d="M127 163l249 1065h-132l38 163h1003l-98 -419h-165l60 256h-504l-100 -427h433l-36 -163h-435l-111 -475h517l65 266h163l-100 -429h-1012l38 163h127zM1054 1516h-140l-380 286h357z" />
    <glyph glyph-name="Eacute" unicode="&#xc9;" horiz-adv-x="1174" 
d="M127 163l249 1065h-132l38 163h1003l-98 -419h-165l60 256h-504l-100 -427h433l-36 -163h-435l-111 -475h517l65 266h163l-100 -429h-1012l38 163h127zM701 1516l165 286h357l-382 -286h-140z" />
    <glyph glyph-name="Ecircumflex" unicode="&#xca;" horiz-adv-x="1174" 
d="M127 163l249 1065h-132l38 163h1003l-98 -419h-165l60 256h-504l-100 -427h433l-36 -163h-435l-111 -475h517l65 266h163l-100 -429h-1012l38 163h127zM494 1483l245 306h262l97 -306h-137l-122 159l-207 -159h-138z" />
    <glyph glyph-name="Edieresis" unicode="&#xcb;" horiz-adv-x="1174" 
d="M127 163l249 1065h-132l38 163h1003l-98 -419h-165l60 256h-504l-100 -427h433l-36 -163h-435l-111 -475h517l65 266h163l-100 -429h-1012l38 163h127zM933 1611c0 31.333 11 58 33 80s48.333 33 79 33c32 0 58.667 -11.167 80 -33.5s32 -48.5 32 -78.5
c0 -30.667 -10.833 -57.167 -32.5 -79.5s-48.167 -33.5 -79.5 -33.5c-30.667 0 -57 11 -79 33s-33 48.333 -33 79zM517 1612c0 29.333 10.5 55.333 31.5 78s47.833 34 80.5 34c31.333 0 57.833 -11 79.5 -33s32.5 -48.333 32.5 -79c0 -31.333 -11 -58 -33 -80
s-48.333 -33 -79 -33c-32 0 -58.667 11.167 -80 33.5s-32 48.833 -32 79.5z" />
    <glyph glyph-name="Igrave" unicode="&#xcc;" horiz-adv-x="598" 
d="M128 163l250 1065h-116l38 163h422l-38 -163h-105l-249 -1065h126l-38 -163h-438l38 163h110zM694 1516h-140l-380 286h357z" />
    <glyph glyph-name="Iacute" unicode="&#xcd;" horiz-adv-x="598" 
d="M128 163l250 1065h-116l38 163h422l-38 -163h-105l-249 -1065h126l-38 -163h-438l38 163h110zM425 1516l165 286h357l-382 -286h-140z" />
    <glyph glyph-name="Icircumflex" unicode="&#xce;" horiz-adv-x="598" 
d="M128 163l250 1065h-116l38 163h422l-38 -163h-105l-249 -1065h126l-38 -163h-438l38 163h110zM206 1483l245 306h262l97 -306h-137l-122 159l-207 -159h-138z" />
    <glyph glyph-name="Idieresis" unicode="&#xcf;" horiz-adv-x="598" 
d="M128 163l250 1065h-116l38 163h422l-38 -163h-105l-249 -1065h126l-38 -163h-438l38 163h110zM645 1611c0 31.333 11 58 33 80s48.333 33 79 33c32 0 58.667 -11.167 80 -33.5s32 -48.5 32 -78.5c0 -30.667 -10.833 -57.167 -32.5 -79.5s-48.167 -33.5 -79.5 -33.5
c-30.667 0 -57 11 -79 33s-33 48.333 -33 79zM229 1612c0 29.333 10.5 55.333 31.5 78s47.833 34 80.5 34c31.333 0 57.833 -11 79.5 -33s32.5 -48.333 32.5 -79c0 -31.333 -11 -58 -33 -80s-48.333 -33 -79 -33c-32 0 -58.667 11.167 -80 33.5s-32 48.833 -32 79.5z" />
    <glyph glyph-name="Eth" unicode="&#xd0;" horiz-adv-x="1450" 
d="M239 629h-182l31 133h183l109 466h-141l38 163h332c144 0 254.333 -5.33301 331 -16s152.667 -40.167 228 -88.5s134.666 -114 177.999 -197s65 -173.5 65 -271.5c0 -137.333 -28 -263 -84 -377s-125.333 -204 -208 -270s-179.167 -111 -289.5 -135
s-276.166 -36 -497.499 -36h-358l38 163h118zM441 629l-109 -465.998h86c181.333 0 322 17.5 422 52.5s184.833 113 254.5 234s104.5 247.167 104.5 378.5c0 93.333 -23.833 173.666 -71.5 240.999s-106.5 110.666 -176.5 129.999s-168 29 -294 29h-75l-109 -466h311
l-30 -133h-313z" />
    <glyph glyph-name="Ntilde" unicode="&#xd1;" horiz-adv-x="1430" 
d="M128 163l249 1065h-154l39 163h403l361 -1105l221 942h-142l38 163h441l-38 -163h-134l-291 -1240h-199l-388 1202l-241 -1027h135l-39 -163h-435l38 163h136zM1172 1765l112.999 0.000976562c0.666992 -16.667 1 -30.667 1 -42
c0 -72.667 -16.167 -131.334 -48.5 -176.001s-75.5 -67 -129.5 -67c-46 0 -118.333 31 -217 93c-33.333 21.333 -59.666 32 -78.999 32c-45.333 0 -69.333 -36.667 -72 -110h-116c0 95.333 18.667 164.333 56 207s82.333 64 135 64c38.667 0 97 -23.333 175 -70
c60.667 -36.667 99.667 -55 117 -55c41.333 0 63 41.333 65 124z" />
    <glyph glyph-name="Ograve" unicode="&#xd2;" horiz-adv-x="1599" 
d="M133 540c0 124 29.502 252.832 88.502 386.499s154.167 248.167 285.5 343.5s286.333 143 465 143c185.333 0 329.666 -52 432.999 -156s155 -239.667 155 -407c0 -130 -32.5 -262.167 -97.5 -396.5s-161.333 -247.166 -289 -338.499s-279.834 -137 -456.501 -137
c-197.333 0 -344 56 -440 168s-144 243.333 -144 394zM345.002 530.999c0 -97.333 31.667 -185.168 95 -263.501s158.666 -117.5 285.999 -117.5c122.667 0 230.667 36.333 324 109s165.833 166.167 217.5 280.5s77.5 222.5 77.5 324.5c0 103.333 -34 192.5 -102 267.5
s-161.333 112.5 -280 112.5c-116.667 0 -225.167 -37.333 -325.5 -112s-174.166 -167.667 -221.499 -279s-71 -218.666 -71 -321.999zM1194 1516h-140l-380 286h357z" />
    <glyph glyph-name="Oacute" unicode="&#xd3;" horiz-adv-x="1599" 
d="M133 540c0 124 29.502 252.832 88.502 386.499s154.167 248.167 285.5 343.5s286.333 143 465 143c185.333 0 329.666 -52 432.999 -156s155 -239.667 155 -407c0 -130 -32.5 -262.167 -97.5 -396.5s-161.333 -247.166 -289 -338.499s-279.834 -137 -456.501 -137
c-197.333 0 -344 56 -440 168s-144 243.333 -144 394zM345.002 530.999c0 -97.333 31.667 -185.168 95 -263.501s158.666 -117.5 285.999 -117.5c122.667 0 230.667 36.333 324 109s165.833 166.167 217.5 280.5s77.5 222.5 77.5 324.5c0 103.333 -34 192.5 -102 267.5
s-161.333 112.5 -280 112.5c-116.667 0 -225.167 -37.333 -325.5 -112s-174.166 -167.667 -221.499 -279s-71 -218.666 -71 -321.999zM877.002 1516l165 286h357l-382 -286h-140z" />
    <glyph glyph-name="Ocircumflex" unicode="&#xd4;" horiz-adv-x="1599" 
d="M133 540c0 124 29.502 252.832 88.502 386.499s154.167 248.167 285.5 343.5s286.333 143 465 143c185.333 0 329.666 -52 432.999 -156s155 -239.667 155 -407c0 -130 -32.5 -262.167 -97.5 -396.5s-161.333 -247.166 -289 -338.499s-279.834 -137 -456.501 -137
c-197.333 0 -344 56 -440 168s-144 243.333 -144 394zM345.002 530.999c0 -97.333 31.667 -185.168 95 -263.501s158.666 -117.5 285.999 -117.5c122.667 0 230.667 36.333 324 109s165.833 166.167 217.5 280.5s77.5 222.5 77.5 324.5c0 103.333 -34 192.5 -102 267.5
s-161.333 112.5 -280 112.5c-116.667 0 -225.167 -37.333 -325.5 -112s-174.166 -167.667 -221.499 -279s-71 -218.666 -71 -321.999zM706.002 1483l245 306h262l97 -306h-137l-122 159l-207 -159h-138z" />
    <glyph glyph-name="Otilde" unicode="&#xd5;" horiz-adv-x="1599" 
d="M133 540c0 124 29.502 252.832 88.502 386.499s154.167 248.167 285.5 343.5s286.333 143 465 143c185.333 0 329.666 -52 432.999 -156s155 -239.667 155 -407c0 -130 -32.5 -262.167 -97.5 -396.5s-161.333 -247.166 -289 -338.499s-279.834 -137 -456.501 -137
c-197.333 0 -344 56 -440 168s-144 243.333 -144 394zM345.002 530.999c0 -97.333 31.667 -185.168 95 -263.501s158.666 -117.5 285.999 -117.5c122.667 0 230.667 36.333 324 109s165.833 166.167 217.5 280.5s77.5 222.5 77.5 324.5c0 103.333 -34 192.5 -102 267.5
s-161.333 112.5 -280 112.5c-116.667 0 -225.167 -37.333 -325.5 -112s-174.166 -167.667 -221.499 -279s-71 -218.666 -71 -321.999zM1257 1765l112.999 0.000976562c0.666992 -16.667 1 -30.667 1 -42c0 -72.667 -16.167 -131.334 -48.5 -176.001s-75.5 -67 -129.5 -67
c-46 0 -118.333 31 -217 93c-33.333 21.333 -59.666 32 -78.999 32c-45.333 0 -69.333 -36.667 -72 -110h-116c0 95.333 18.667 164.333 56 207s82.333 64 135 64c38.667 0 97 -23.333 175 -70c60.667 -36.667 99.667 -55 117 -55c41.333 0 63 41.333 65 124z" />
    <glyph glyph-name="Odieresis" unicode="&#xd6;" horiz-adv-x="1599" 
d="M133 540c0 124 29.502 252.832 88.502 386.499s154.167 248.167 285.5 343.5s286.333 143 465 143c185.333 0 329.666 -52 432.999 -156s155 -239.667 155 -407c0 -130 -32.5 -262.167 -97.5 -396.5s-161.333 -247.166 -289 -338.499s-279.834 -137 -456.501 -137
c-197.333 0 -344 56 -440 168s-144 243.333 -144 394zM345.002 530.999c0 -97.333 31.667 -185.168 95 -263.501s158.666 -117.5 285.999 -117.5c122.667 0 230.667 36.333 324 109s165.833 166.167 217.5 280.5s77.5 222.5 77.5 324.5c0 103.333 -34 192.5 -102 267.5
s-161.333 112.5 -280 112.5c-116.667 0 -225.167 -37.333 -325.5 -112s-174.166 -167.667 -221.499 -279s-71 -218.666 -71 -321.999zM1121 1611c0 31.333 11 58 33 80s48.333 33 79 33c32 0 58.667 -11.167 80 -33.5s32 -48.5 32 -78.5
c0 -30.667 -10.833 -57.167 -32.5 -79.5s-48.167 -33.5 -79.5 -33.5c-30.667 0 -57 11 -79 33s-33 48.333 -33 79zM705.002 1612c0 29.333 10.5 55.333 31.5 78s47.833 34 80.5 34c31.333 0 57.833 -11 79.5 -33s32.5 -48.333 32.5 -79c0 -31.333 -11 -58 -33 -80
s-48.333 -33 -79 -33c-32 0 -58.667 11.167 -80 33.5s-32 48.833 -32 79.5z" />
    <glyph glyph-name="multiply" unicode="&#xd7;" horiz-adv-x="1366" 
d="M222 301l396 396l-396 396l111 111l396 -396l396 396l111 -111l-396 -396l396 -396l-111 -111l-396 396l-396 -396z" />
    <glyph glyph-name="Oslash" unicode="&#xd8;" horiz-adv-x="1599" 
d="M1420 1241c93.333 -100.667 139.997 -231.333 139.997 -392c0 -128.667 -32.167 -260 -96.5 -394s-160.666 -247 -288.999 -339s-280.5 -138 -456.5 -138c-135.333 0 -250.333 28.667 -345 86l-83 -91l-97 91l80 88c-93.333 102 -140 234.667 -140 398
c0 127.333 32.333 258 97 392s160.334 246 287.001 336s277.667 135 453 135c138.667 0 255.334 -29.333 350.001 -88l83 93l97 -86zM410.997 306.001l778.999 872.999c-61.333 43.333 -137.666 65 -228.999 65c-176 0 -322.667 -75.167 -440 -225.5
s-176 -309.166 -176 -476.499c0 -92 22 -170.667 66 -236zM1281 1085l-778 -873c60.667 -41.333 135.334 -62 224.001 -62c121.333 0 228.666 36.167 321.999 108.5s166 165.833 218 280.5s78 222.667 78 324c0 80 -21.333 154 -64 222z" />
    <glyph glyph-name="Ugrave" unicode="&#xd9;" horiz-adv-x="1300" 
d="M274 1391l448.001 0.000976562l-39 -163h-121l-167 -713c-22.667 -96 -34 -159 -34 -189c0 -58.667 22 -104.667 66 -138s97.667 -50 161 -50c72 0 129.833 14.333 173.5 43s77.334 69 101.001 121s47.5 128.667 71.5 230l163 696h-122l38 163h441l-38 -163h-117
l-167 -713c-33.333 -141.333 -69.333 -246.833 -108 -316.5s-96.334 -123.834 -173.001 -162.501s-168.334 -58 -275.001 -58c-140 0 -244 30.667 -312 92s-102 139.333 -102 234c0 52 12.333 130 37 234l161 690h-124zM1056 1516h-140l-380 286h357z" />
    <glyph glyph-name="Uacute" unicode="&#xda;" horiz-adv-x="1300" 
d="M274 1391l448.001 0.000976562l-39 -163h-121l-167 -713c-22.667 -96 -34 -159 -34 -189c0 -58.667 22 -104.667 66 -138s97.667 -50 161 -50c72 0 129.833 14.333 173.5 43s77.334 69 101.001 121s47.5 128.667 71.5 230l163 696h-122l38 163h441l-38 -163h-117
l-167 -713c-33.333 -141.333 -69.333 -246.833 -108 -316.5s-96.334 -123.834 -173.001 -162.501s-168.334 -58 -275.001 -58c-140 0 -244 30.667 -312 92s-102 139.333 -102 234c0 52 12.333 130 37 234l161 690h-124zM751.001 1516l165 286h357l-382 -286h-140z" />
    <glyph glyph-name="Ucircumflex" unicode="&#xdb;" horiz-adv-x="1300" 
d="M274 1391l448.001 0.000976562l-39 -163h-121l-167 -713c-22.667 -96 -34 -159 -34 -189c0 -58.667 22 -104.667 66 -138s97.667 -50 161 -50c72 0 129.833 14.333 173.5 43s77.334 69 101.001 121s47.5 128.667 71.5 230l163 696h-122l38 163h441l-38 -163h-117
l-167 -713c-33.333 -141.333 -69.333 -246.833 -108 -316.5s-96.334 -123.834 -173.001 -162.501s-168.334 -58 -275.001 -58c-140 0 -244 30.667 -312 92s-102 139.333 -102 234c0 52 12.333 130 37 234l161 690h-124zM557.001 1483l245 306h262l97 -306h-137l-122 159
l-207 -159h-138z" />
    <glyph glyph-name="Udieresis" unicode="&#xdc;" horiz-adv-x="1300" 
d="M274 1391l448.001 0.000976562l-39 -163h-121l-167 -713c-22.667 -96 -34 -159 -34 -189c0 -58.667 22 -104.667 66 -138s97.667 -50 161 -50c72 0 129.833 14.333 173.5 43s77.334 69 101.001 121s47.5 128.667 71.5 230l163 696h-122l38 163h441l-38 -163h-117
l-167 -713c-33.333 -141.333 -69.333 -246.833 -108 -316.5s-96.334 -123.834 -173.001 -162.501s-168.334 -58 -275.001 -58c-140 0 -244 30.667 -312 92s-102 139.333 -102 234c0 52 12.333 130 37 234l161 690h-124zM996.001 1611c0 31.333 11 58 33 80s48.333 33 79 33
c32 0 58.667 -11.167 80 -33.5s32 -48.5 32 -78.5c0 -30.667 -10.833 -57.167 -32.5 -79.5s-48.167 -33.5 -79.5 -33.5c-30.667 0 -57 11 -79 33s-33 48.333 -33 79zM580.001 1612c0 29.333 10.5 55.333 31.5 78s47.833 34 80.5 34c31.333 0 57.833 -11 79.5 -33
s32.5 -48.333 32.5 -79c0 -31.333 -11 -58 -33 -80s-48.333 -33 -79 -33c-32 0 -58.667 11.167 -80 33.5s-32 48.833 -32 79.5z" />
    <glyph glyph-name="Yacute" unicode="&#xdd;" horiz-adv-x="1174" 
d="M488 626l-209 602h-145l38 163h459l-39 -163h-130l162 -459l425 459h-168l39 163h480l-38 -163h-116l-556 -602l-109 -463h141l-38 -163h-477l39 163h133zM707 1516l165 286h357l-382 -286h-140z" />
    <glyph glyph-name="Thorn" unicode="&#xde;" horiz-adv-x="1110" 
d="M129 163l250 1065h-134l38 163h472l-38 -163h-136l-24 -102h38c92 0 162.167 -3.83301 210.5 -11.5s97.5 -27.667 147.5 -60s89.5 -76.333 118.5 -132s43.5 -116.834 43.5 -183.501c0 -99.333 -26 -189 -78 -269s-121.5 -134 -208.5 -162s-203.833 -42 -350.5 -42h-123
l-24 -103h159l-35 -163h-492l38 163h128zM393 427.001l108.998 -0.000976562c99.333 0 174.833 7.66699 226.5 23s95.5 49 131.5 101s54 116 54 192c0 56.667 -13.667 102.834 -41 138.501s-60.166 58.167 -98.499 67.5s-96.166 14 -173.499 14h-82z" />
    <glyph glyph-name="germandbls" unicode="&#xdf;" horiz-adv-x="1260" 
d="M310 163l121 -0.00390625l-39 -163h-421l38 163h117l184 785c26.667 115.333 57 202.333 91 261s83.667 104.834 149 138.501s142.666 50.5 231.999 50.5c124.667 0 223.167 -31.5 295.5 -94.5s108.5 -140.5 108.5 -232.5c0 -67.333 -20.5 -129.666 -61.5 -186.999
s-99.833 -98.666 -176.5 -123.999c147.333 -62 221 -172 221 -330c0 -124.667 -45.167 -230.167 -135.5 -316.5s-203.166 -129.5 -338.499 -129.5c-58.667 0 -120 12 -184 36l42 149c34.667 -14.667 78.334 -22 131.001 -22c94.667 0 168.5 30.5 221.5 91.5
s79.5 130.833 79.5 209.5c0 76.667 -25.833 136.334 -77.5 179.001s-117.167 64 -196.5 64h-24l33 139c90 0 159.167 22.5 207.5 67.5s72.5 100.167 72.5 165.5c0 59.333 -21.333 107.5 -64 144.5s-98.334 55.5 -167.001 55.5c-53.333 0 -98.833 -11.5 -136.5 -34.5
s-64.5 -51.667 -80.5 -86s-33.667 -92.5 -53 -174.5z" />
    <glyph glyph-name="agrave" unicode="&#xe0;" horiz-adv-x="1087" 
d="M846 163l121 0.000976562l-35 -163h-295l31 135c-92.667 -100.667 -197 -151 -313 -151c-75.333 0 -142.833 25.667 -202.5 77s-89.5 119.666 -89.5 204.999c0 97.333 39.333 177.833 118 241.5s176 95.5 292 95.5c90 0 180 -23.667 270 -71l25 108
c8.66699 37.333 13 64 13 80c0 42 -16.667 74.167 -50 96.5s-74 33.5 -122 33.5c-94.667 0 -174 -46 -238 -138l-152 69c39.333 60.667 97 111.5 173 152.5s159 61.5 249 61.5c101.333 0 180 -22 236 -66s84 -101 84 -171c0 -43.333 -7.33301 -98.333 -22 -165zM714 400.001
l-43.001 20.002c-66.667 29.333 -128 44 -184 44c-73.333 0 -132.333 -18.833 -177 -56.5s-67 -82.834 -67 -135.501c0 -44.667 15.5 -79.834 46.5 -105.501s71.833 -38.5 122.5 -38.5c78.667 0 167.334 42.333 266.001 127zM898.999 1125h-140l-380 286h357z" />
    <glyph glyph-name="aacute" unicode="&#xe1;" horiz-adv-x="1087" 
d="M846 163l121 0.000976562l-35 -163h-295l31 135c-92.667 -100.667 -197 -151 -313 -151c-75.333 0 -142.833 25.667 -202.5 77s-89.5 119.666 -89.5 204.999c0 97.333 39.333 177.833 118 241.5s176 95.5 292 95.5c90 0 180 -23.667 270 -71l25 108
c8.66699 37.333 13 64 13 80c0 42 -16.667 74.167 -50 96.5s-74 33.5 -122 33.5c-94.667 0 -174 -46 -238 -138l-152 69c39.333 60.667 97 111.5 173 152.5s159 61.5 249 61.5c101.333 0 180 -22 236 -66s84 -101 84 -171c0 -43.333 -7.33301 -98.333 -22 -165zM714 400.001
l-43.001 20.002c-66.667 29.333 -128 44 -184 44c-73.333 0 -132.333 -18.833 -177 -56.5s-67 -82.834 -67 -135.501c0 -44.667 15.5 -79.834 46.5 -105.501s71.833 -38.5 122.5 -38.5c78.667 0 167.334 42.333 266.001 127zM586.999 1125l165 286h357l-382 -286h-140z" />
    <glyph glyph-name="acircumflex" unicode="&#xe2;" horiz-adv-x="1087" 
d="M846 163l121 0.000976562l-35 -163h-295l31 135c-92.667 -100.667 -197 -151 -313 -151c-75.333 0 -142.833 25.667 -202.5 77s-89.5 119.666 -89.5 204.999c0 97.333 39.333 177.833 118 241.5s176 95.5 292 95.5c90 0 180 -23.667 270 -71l25 108
c8.66699 37.333 13 64 13 80c0 42 -16.667 74.167 -50 96.5s-74 33.5 -122 33.5c-94.667 0 -174 -46 -238 -138l-152 69c39.333 60.667 97 111.5 173 152.5s159 61.5 249 61.5c101.333 0 180 -22 236 -66s84 -101 84 -171c0 -43.333 -7.33301 -98.333 -22 -165zM714 400.001
l-43.001 20.002c-66.667 29.333 -128 44 -184 44c-73.333 0 -132.333 -18.833 -177 -56.5s-67 -82.834 -67 -135.501c0 -44.667 15.5 -79.834 46.5 -105.501s71.833 -38.5 122.5 -38.5c78.667 0 167.334 42.333 266.001 127zM377.999 1105l245 306h262l97 -306h-137
l-122 159l-207 -159h-138z" />
    <glyph glyph-name="atilde" unicode="&#xe3;" horiz-adv-x="1087" 
d="M846 163l121 0.000976562l-35 -163h-295l31 135c-92.667 -100.667 -197 -151 -313 -151c-75.333 0 -142.833 25.667 -202.5 77s-89.5 119.666 -89.5 204.999c0 97.333 39.333 177.833 118 241.5s176 95.5 292 95.5c90 0 180 -23.667 270 -71l25 108
c8.66699 37.333 13 64 13 80c0 42 -16.667 74.167 -50 96.5s-74 33.5 -122 33.5c-94.667 0 -174 -46 -238 -138l-152 69c39.333 60.667 97 111.5 173 152.5s159 61.5 249 61.5c101.333 0 180 -22 236 -66s84 -101 84 -171c0 -43.333 -7.33301 -98.333 -22 -165zM714 400.001
l-43.001 20.002c-66.667 29.333 -128 44 -184 44c-73.333 0 -132.333 -18.833 -177 -56.5s-67 -82.834 -67 -135.501c0 -44.667 15.5 -79.834 46.5 -105.501s71.833 -38.5 122.5 -38.5c78.667 0 167.334 42.333 266.001 127zM906.999 1397l112.999 0.000976562
c0.666992 -16.667 1 -30.667 1 -42c0 -72.667 -16.167 -131.334 -48.5 -176.001s-75.5 -67 -129.5 -67c-46 0 -118.333 31 -217 93c-33.333 21.333 -59.666 32 -78.999 32c-45.333 0 -69.333 -36.667 -72 -110h-116c0 95.333 18.667 164.333 56 207s82.333 64 135 64
c38.667 0 97 -23.333 175 -70c60.667 -36.667 99.667 -55 117 -55c41.333 0 63 41.333 65 124z" />
    <glyph glyph-name="adieresis" unicode="&#xe4;" horiz-adv-x="1087" 
d="M846 163l121 0.000976562l-35 -163h-295l31 135c-92.667 -100.667 -197 -151 -313 -151c-75.333 0 -142.833 25.667 -202.5 77s-89.5 119.666 -89.5 204.999c0 97.333 39.333 177.833 118 241.5s176 95.5 292 95.5c90 0 180 -23.667 270 -71l25 108
c8.66699 37.333 13 64 13 80c0 42 -16.667 74.167 -50 96.5s-74 33.5 -122 33.5c-94.667 0 -174 -46 -238 -138l-152 69c39.333 60.667 97 111.5 173 152.5s159 61.5 249 61.5c101.333 0 180 -22 236 -66s84 -101 84 -171c0 -43.333 -7.33301 -98.333 -22 -165zM714 400.001
l-43.001 20.002c-66.667 29.333 -128 44 -184 44c-73.333 0 -132.333 -18.833 -177 -56.5s-67 -82.834 -67 -135.501c0 -44.667 15.5 -79.834 46.5 -105.501s71.833 -38.5 122.5 -38.5c78.667 0 167.334 42.333 266.001 127zM810.999 1254c0 31.333 11 58 33 80
s48.333 33 79 33c32 0 58.667 -11.167 80 -33.5s32 -48.5 32 -78.5c0 -30.667 -10.833 -57.167 -32.5 -79.5s-48.167 -33.5 -79.5 -33.5c-30.667 0 -57 11 -79 33s-33 48.333 -33 79zM394.999 1255c0 29.333 10.5 55.333 31.5 78s47.833 34 80.5 34
c31.333 0 57.833 -11 79.5 -33s32.5 -48.333 32.5 -79c0 -31.333 -11 -58 -33 -80s-48.333 -33 -79 -33c-32 0 -58.667 11.167 -80 33.5s-32 48.833 -32 79.5z" />
    <glyph glyph-name="aring" unicode="&#xe5;" horiz-adv-x="1087" 
d="M846 163l121 0.000976562l-35 -163h-295l31 135c-92.667 -100.667 -197 -151 -313 -151c-75.333 0 -142.833 25.667 -202.5 77s-89.5 119.666 -89.5 204.999c0 97.333 39.333 177.833 118 241.5s176 95.5 292 95.5c90 0 180 -23.667 270 -71l25 108
c8.66699 37.333 13 64 13 80c0 42 -16.667 74.167 -50 96.5s-74 33.5 -122 33.5c-94.667 0 -174 -46 -238 -138l-152 69c39.333 60.667 97 111.5 173 152.5s159 61.5 249 61.5c101.333 0 180 -22 236 -66s84 -101 84 -171c0 -43.333 -7.33301 -98.333 -22 -165zM714 400.001
l-43.001 20.002c-66.667 29.333 -128 44 -184 44c-73.333 0 -132.333 -18.833 -177 -56.5s-67 -82.834 -67 -135.501c0 -44.667 15.5 -79.834 46.5 -105.501s71.833 -38.5 122.5 -38.5c78.667 0 167.334 42.333 266.001 127zM540.999 1254
c0 54.667 19.5 101.666 58.5 140.999s85.833 59 140.5 59s101.5 -19.5 140.5 -58.5s58.5 -85.833 58.5 -140.5c0 -55.333 -19.5 -102.333 -58.5 -141s-85.833 -58 -140.5 -58s-101.5 19.333 -140.5 58s-58.5 85.334 -58.5 140.001zM618.999 1254
c0 -32.667 12 -60.832 36 -84.499s52.333 -35.5 85 -35.5s61 11.667 85 35s36 52 36 86c0 33.333 -11.833 61.666 -35.5 84.999s-52.167 35 -85.5 35c-34.667 0 -63.5 -12 -86.5 -36s-34.5 -52.333 -34.5 -85z" />
    <glyph glyph-name="ae" unicode="&#xe6;" horiz-adv-x="1772" 
d="M1683 443l-764.999 0.00195312c-2 -26.667 -3 -50 -3 -70c0 -66.667 21.833 -123.834 65.5 -171.501s103.167 -71.5 178.5 -71.5c102 0 185 46 249 138l187 -84c-99.333 -141.333 -243.333 -212 -432 -212c-186 0 -313.667 70.667 -383 212
c-52 -61.333 -114.833 -112 -188.5 -152s-145.167 -60 -214.5 -60c-92.667 0 -167.5 28.833 -224.5 86.5s-85.5 126.5 -85.5 206.5c0 93.333 39.667 173.166 119 239.499s180 99.5 302 99.5c84 0 174.333 -23.667 271 -71l21 102l7 24c8 30 12 52.667 12 68
c0 37.333 -16 67.5 -48 90.5s-74.667 34.5 -128 34.5c-102.667 0 -183.667 -45.667 -243 -137l-154 65c98 143.333 242.333 215 433 215c135.333 0 228.666 -41 279.999 -123c96 82 207.333 123 334 123c136 0 240.833 -40.833 314.5 -122.5s110.5 -180.5 110.5 -296.5
c0 -44.667 -5 -89 -15 -133zM1512 578.002c1.33301 22.667 2 39.667 2 51c0 58 -20.5 108.333 -61.5 151s-97.167 64 -168.5 64c-76.667 0 -143.5 -24.833 -200.5 -74.5s-98.5 -113.5 -124.5 -191.5h553zM728.001 400.002c-78 46 -155 69 -231 69
c-66.667 0 -124.834 -19.333 -174.501 -58s-74.5 -89 -74.5 -151c0 -49.333 16.5 -86.333 49.5 -111s70.833 -37 113.5 -37c80.667 0 174.334 44 281.001 132z" />
    <glyph glyph-name="ccedilla" unicode="&#xe7;" horiz-adv-x="1024" 
d="M456 -27l-30.999 -70.001c45.333 -4.66699 80.5 -20.167 105.5 -46.5s37.5 -57.833 37.5 -94.5c0 -62 -29.667 -111.667 -89 -149s-136.333 -56 -231 -56c-44 0 -95.667 4.66699 -155 14l33 87c28.667 -3.33301 56 -5 82 -5c58 0 102.5 8.33301 133.5 25
s46.5 39.334 46.5 68.001c0 20.667 -8.33301 37 -25 49s-36 18 -58 18h-25l79 173c-87.333 21.333 -158.666 67.5 -213.999 138.5s-83 153.833 -83 248.5c0 158 53 301.167 159 429.5s231.667 192.5 377 192.5c109.333 0 198.666 -36.333 267.999 -109l20 82h160l-69 -291
h-160c-10.667 54 -36.5 95.333 -77.5 124s-87.167 43 -138.5 43c-93.333 0 -174 -45.167 -242 -135.5s-102 -195.166 -102 -314.499c0 -80.667 21 -145.834 63 -195.501s102 -74.5 180 -74.5c99.333 0 188.333 56.333 267 169l133 -97
c-56.667 -75.333 -123.834 -132.333 -201.501 -171s-158.5 -56 -242.5 -52z" />
    <glyph glyph-name="egrave" unicode="&#xe8;" horiz-adv-x="1130" 
d="M1044 440l-760.001 -0.00292969c-4.66699 -19.333 -7 -37.666 -7 -54.999c0 -80 23 -142.333 69 -187s103.667 -67 173 -67c96.667 0 178.667 46 246 138l189 -81c-38 -63.333 -97 -115.166 -177 -155.499s-165.333 -60.5 -256 -60.5
c-139.333 0 -247.666 40.333 -324.999 121s-116 184 -116 310c0 100.667 25.5 196 76.5 286s119.167 163.5 204.5 220.5s178.666 85.5 279.999 85.5c122.667 0 222.834 -40.167 300.501 -120.5s116.5 -185.166 116.5 -314.499c0 -42 -4.66699 -82 -14 -120zM872.999 575.997
c2 20.667 3 37.333 3 50c0 53.333 -21.167 101.833 -63.5 145.5s-98.5 65.5 -168.5 65.5c-71.333 0 -135.833 -23.5 -193.5 -70.5s-101.167 -110.5 -130.5 -190.5h553zM924.999 1125h-140l-380 286h357z" />
    <glyph glyph-name="eacute" unicode="&#xe9;" horiz-adv-x="1130" 
d="M1044 440l-760.001 -0.00292969c-4.66699 -19.333 -7 -37.666 -7 -54.999c0 -80 23 -142.333 69 -187s103.667 -67 173 -67c96.667 0 178.667 46 246 138l189 -81c-38 -63.333 -97 -115.166 -177 -155.499s-165.333 -60.5 -256 -60.5
c-139.333 0 -247.666 40.333 -324.999 121s-116 184 -116 310c0 100.667 25.5 196 76.5 286s119.167 163.5 204.5 220.5s178.666 85.5 279.999 85.5c122.667 0 222.834 -40.167 300.501 -120.5s116.5 -185.166 116.5 -314.499c0 -42 -4.66699 -82 -14 -120zM872.999 575.997
c2 20.667 3 37.333 3 50c0 53.333 -21.167 101.833 -63.5 145.5s-98.5 65.5 -168.5 65.5c-71.333 0 -135.833 -23.5 -193.5 -70.5s-101.167 -110.5 -130.5 -190.5h553zM530.999 1125l165 286h357l-382 -286h-140z" />
    <glyph glyph-name="ecircumflex" unicode="&#xea;" horiz-adv-x="1130" 
d="M1044 440l-760.001 -0.00292969c-4.66699 -19.333 -7 -37.666 -7 -54.999c0 -80 23 -142.333 69 -187s103.667 -67 173 -67c96.667 0 178.667 46 246 138l189 -81c-38 -63.333 -97 -115.166 -177 -155.499s-165.333 -60.5 -256 -60.5
c-139.333 0 -247.666 40.333 -324.999 121s-116 184 -116 310c0 100.667 25.5 196 76.5 286s119.167 163.5 204.5 220.5s178.666 85.5 279.999 85.5c122.667 0 222.834 -40.167 300.501 -120.5s116.5 -185.166 116.5 -314.499c0 -42 -4.66699 -82 -14 -120zM872.999 575.997
c2 20.667 3 37.333 3 50c0 53.333 -21.167 101.833 -63.5 145.5s-98.5 65.5 -168.5 65.5c-71.333 0 -135.833 -23.5 -193.5 -70.5s-101.167 -110.5 -130.5 -190.5h553zM386.999 1105l245 306h262l97 -306h-137l-122 159l-207 -159h-138z" />
    <glyph glyph-name="edieresis" unicode="&#xeb;" horiz-adv-x="1130" 
d="M1044 440l-760.001 -0.00292969c-4.66699 -19.333 -7 -37.666 -7 -54.999c0 -80 23 -142.333 69 -187s103.667 -67 173 -67c96.667 0 178.667 46 246 138l189 -81c-38 -63.333 -97 -115.166 -177 -155.499s-165.333 -60.5 -256 -60.5
c-139.333 0 -247.666 40.333 -324.999 121s-116 184 -116 310c0 100.667 25.5 196 76.5 286s119.167 163.5 204.5 220.5s178.666 85.5 279.999 85.5c122.667 0 222.834 -40.167 300.501 -120.5s116.5 -185.166 116.5 -314.499c0 -42 -4.66699 -82 -14 -120zM872.999 575.997
c2 20.667 3 37.333 3 50c0 53.333 -21.167 101.833 -63.5 145.5s-98.5 65.5 -168.5 65.5c-71.333 0 -135.833 -23.5 -193.5 -70.5s-101.167 -110.5 -130.5 -190.5h553zM819.999 1254c0 31.333 11 58 33 80s48.333 33 79 33c32 0 58.667 -11.167 80 -33.5s32 -48.5 32 -78.5
c0 -30.667 -10.833 -57.167 -32.5 -79.5s-48.167 -33.5 -79.5 -33.5c-30.667 0 -57 11 -79 33s-33 48.333 -33 79zM403.999 1255c0 29.333 10.5 55.333 31.5 78s47.833 34 80.5 34c31.333 0 57.833 -11 79.5 -33s32.5 -48.333 32.5 -79c0 -31.333 -11 -58 -33 -80
s-48.333 -33 -79 -33c-32 0 -58.667 11.167 -80 33.5s-32 48.833 -32 79.5z" />
    <glyph glyph-name="igrave" unicode="&#xec;" 
d="M139 163l151 642h-133l38 163h314l-189 -805h141l-38 -163h-429l38 163h107zM617 1125h-140l-380 286h357z" />
    <glyph glyph-name="iacute" unicode="&#xed;" 
d="M139 163l151 642h-133l38 163h314l-189 -805h141l-38 -163h-429l38 163h107zM253 1125l165 286h357l-382 -286h-140z" />
    <glyph glyph-name="icircumflex" unicode="&#xee;" 
d="M139 163l151 642h-133l38 163h314l-189 -805h141l-38 -163h-429l38 163h107zM110 1105l245 306h262l97 -306h-137l-122 159l-207 -159h-138z" />
    <glyph glyph-name="idieresis" unicode="&#xef;" 
d="M139 163l151 642h-133l38 163h314l-189 -805h141l-38 -163h-429l38 163h107zM539 1254c0 31.333 11 58 33 80s48.333 33 79 33c32 0 58.667 -11.167 80 -33.5s32 -48.5 32 -78.5c0 -30.667 -10.833 -57.167 -32.5 -79.5s-48.167 -33.5 -79.5 -33.5
c-30.667 0 -57 11 -79 33s-33 48.333 -33 79zM123 1255c0 29.333 10.5 55.333 31.5 78s47.833 34 80.5 34c31.333 0 57.833 -11 79.5 -33s32.5 -48.333 32.5 -79c0 -31.333 -11 -58 -33 -80s-48.333 -33 -79 -33c-32 0 -58.667 11.167 -80 33.5s-32 48.833 -32 79.5z" />
    <glyph glyph-name="eth" unicode="&#xf0;" horiz-adv-x="1173" 
d="M839 1318l201 73l32 -82l-180 -64c134.667 -200.667 202 -397.667 202 -591c0 -180.667 -53.5 -339.5 -160.5 -476.5s-253.5 -205.5 -439.5 -205.5c-124 0 -224.5 38.833 -301.5 116.5s-115.5 176.5 -115.5 296.5c0 171.333 57.167 315.833 171.5 433.5
s249.5 176.5 405.5 176.5c72 0 142.333 -22.667 211 -68c-28 86 -69.667 174 -125 264l-299 -106l-30 78l281 102c-32 44.667 -65.333 86.667 -100 126h183c18.667 -18 40 -42.333 64 -73zM629 825c-101.333 0 -185.832 -42.332 -253.499 -126.999
s-101.5 -184.334 -101.5 -299.001c0 -82.667 22.667 -146.167 68 -190.5s104.333 -66.5 177 -66.5c115.333 0 206 45 272 135s99 186 99 288c0 78.667 -22.333 141.667 -67 189s-109.334 71 -194.001 71z" />
    <glyph glyph-name="ntilde" unicode="&#xf1;" horiz-adv-x="1130" 
d="M187 968l308.001 0.000976562l-26 -113c120.667 85.333 225.667 128 315 128c71.333 0 126.166 -23.333 164.499 -70s57.5 -96.667 57.5 -150c0 -44.667 -9 -105.334 -27 -182.001l-98 -418h143l-39 -163h-323l139 593c14.667 63.333 22 103 22 119
c0 29.333 -9.66699 53.5 -29 72.5s-43 28.5 -71 28.5c-74 0 -172 -42.667 -294 -128l-123 -522h145l-38 -163h-441l38 163h115l151 642h-127zM934.001 1397l112.999 0.000976562c0.666992 -16.667 1 -30.667 1 -42c0 -72.667 -16.167 -131.334 -48.5 -176.001
s-75.5 -67 -129.5 -67c-46 0 -118.333 31 -217 93c-33.333 21.333 -59.666 32 -78.999 32c-45.333 0 -69.333 -36.667 -72 -110h-116c0 95.333 18.667 164.333 56 207s82.333 64 135 64c38.667 0 97 -23.333 175 -70c60.667 -36.667 99.667 -55 117 -55
c41.333 0 63 41.333 65 124z" />
    <glyph glyph-name="ograve" unicode="&#xf2;" horiz-adv-x="1153" 
d="M70 390c0 99.333 23.332 194.833 69.999 286.5s116.5 167.667 209.5 228s197.5 90.5 313.5 90.5c134.667 0 238.334 -39.333 311.001 -118s109 -178 109 -298c0 -94.667 -23.167 -191.667 -69.5 -291s-117.5 -176.833 -213.5 -232.5s-197.667 -83.5 -305 -83.5
c-124 0 -225.833 36.833 -305.5 110.5s-119.5 176.167 -119.5 307.5zM271.999 408c0 -174.667 81 -261.999 243 -261.999c113.333 0 204.333 43.5 273 130.5s103 187.5 103 301.5c0 73.333 -23.5 132.166 -70.5 176.499s-109.167 66.5 -186.5 66.5
c-109.333 0 -197 -42 -263 -126s-99 -179.667 -99 -287zM904.999 1125h-140l-380 286h357z" />
    <glyph glyph-name="oacute" unicode="&#xf3;" horiz-adv-x="1153" 
d="M70 390c0 99.333 23.332 194.833 69.999 286.5s116.5 167.667 209.5 228s197.5 90.5 313.5 90.5c134.667 0 238.334 -39.333 311.001 -118s109 -178 109 -298c0 -94.667 -23.167 -191.667 -69.5 -291s-117.5 -176.833 -213.5 -232.5s-197.667 -83.5 -305 -83.5
c-124 0 -225.833 36.833 -305.5 110.5s-119.5 176.167 -119.5 307.5zM271.999 408c0 -174.667 81 -261.999 243 -261.999c113.333 0 204.333 43.5 273 130.5s103 187.5 103 301.5c0 73.333 -23.5 132.166 -70.5 176.499s-109.167 66.5 -186.5 66.5
c-109.333 0 -197 -42 -263 -126s-99 -179.667 -99 -287zM571.999 1125l165 286h357l-382 -286h-140z" />
    <glyph glyph-name="ocircumflex" unicode="&#xf4;" horiz-adv-x="1153" 
d="M70 390c0 99.333 23.332 194.833 69.999 286.5s116.5 167.667 209.5 228s197.5 90.5 313.5 90.5c134.667 0 238.334 -39.333 311.001 -118s109 -178 109 -298c0 -94.667 -23.167 -191.667 -69.5 -291s-117.5 -176.833 -213.5 -232.5s-197.667 -83.5 -305 -83.5
c-124 0 -225.833 36.833 -305.5 110.5s-119.5 176.167 -119.5 307.5zM271.999 408c0 -174.667 81 -261.999 243 -261.999c113.333 0 204.333 43.5 273 130.5s103 187.5 103 301.5c0 73.333 -23.5 132.166 -70.5 176.499s-109.167 66.5 -186.5 66.5
c-109.333 0 -197 -42 -263 -126s-99 -179.667 -99 -287zM397.999 1105l245 306h262l97 -306h-137l-122 159l-207 -159h-138z" />
    <glyph glyph-name="otilde" unicode="&#xf5;" horiz-adv-x="1153" 
d="M70 390c0 99.333 23.332 194.833 69.999 286.5s116.5 167.667 209.5 228s197.5 90.5 313.5 90.5c134.667 0 238.334 -39.333 311.001 -118s109 -178 109 -298c0 -94.667 -23.167 -191.667 -69.5 -291s-117.5 -176.833 -213.5 -232.5s-197.667 -83.5 -305 -83.5
c-124 0 -225.833 36.833 -305.5 110.5s-119.5 176.167 -119.5 307.5zM271.999 408c0 -174.667 81 -261.999 243 -261.999c113.333 0 204.333 43.5 273 130.5s103 187.5 103 301.5c0 73.333 -23.5 132.166 -70.5 176.499s-109.167 66.5 -186.5 66.5
c-109.333 0 -197 -42 -263 -126s-99 -179.667 -99 -287zM940.999 1397l112.999 0.000976562c0.666992 -16.667 1 -30.667 1 -42c0 -72.667 -16.167 -131.334 -48.5 -176.001s-75.5 -67 -129.5 -67c-46 0 -118.333 31 -217 93c-33.333 21.333 -59.666 32 -78.999 32
c-45.333 0 -69.333 -36.667 -72 -110h-116c0 95.333 18.667 164.333 56 207s82.333 64 135 64c38.667 0 97 -23.333 175 -70c60.667 -36.667 99.667 -55 117 -55c41.333 0 63 41.333 65 124z" />
    <glyph glyph-name="odieresis" unicode="&#xf6;" horiz-adv-x="1153" 
d="M70 390c0 99.333 23.332 194.833 69.999 286.5s116.5 167.667 209.5 228s197.5 90.5 313.5 90.5c134.667 0 238.334 -39.333 311.001 -118s109 -178 109 -298c0 -94.667 -23.167 -191.667 -69.5 -291s-117.5 -176.833 -213.5 -232.5s-197.667 -83.5 -305 -83.5
c-124 0 -225.833 36.833 -305.5 110.5s-119.5 176.167 -119.5 307.5zM271.999 408c0 -174.667 81 -261.999 243 -261.999c113.333 0 204.333 43.5 273 130.5s103 187.5 103 301.5c0 73.333 -23.5 132.166 -70.5 176.499s-109.167 66.5 -186.5 66.5
c-109.333 0 -197 -42 -263 -126s-99 -179.667 -99 -287zM840.999 1254c0 31.333 11 58 33 80s48.333 33 79 33c32 0 58.667 -11.167 80 -33.5s32 -48.5 32 -78.5c0 -30.667 -10.833 -57.167 -32.5 -79.5s-48.167 -33.5 -79.5 -33.5c-30.667 0 -57 11 -79 33
s-33 48.333 -33 79zM424.999 1255c0 29.333 10.5 55.333 31.5 78s47.833 34 80.5 34c31.333 0 57.833 -11 79.5 -33s32.5 -48.333 32.5 -79c0 -31.333 -11 -58 -33 -80s-48.333 -33 -79 -33c-32 0 -58.667 11.167 -80 33.5s-32 48.833 -32 79.5z" />
    <glyph glyph-name="divide" unicode="&#xf7;" horiz-adv-x="1366" 
d="M729 1214c26.667 0 49.667 -9.5 69 -28.5s29 -42.167 29 -69.5s-9.66699 -50.5 -29 -69.5s-42.333 -28.5 -69 -28.5s-49.667 9.5 -69 28.5s-29 42.167 -29 69.5s9.66699 50.5 29 69.5s42.333 28.5 69 28.5zM181 776h1096v-157h-1096v157zM729 376
c26 0 48.833 -9.16699 68.5 -27.5s29.5 -41.5 29.5 -69.5c0 -27.333 -9.66699 -50.5 -29 -69.5s-42.333 -28.5 -69 -28.5s-49.667 9.5 -69 28.5s-29 42.167 -29 69.5s9.66699 50.333 29 69s42.333 28 69 28z" />
    <glyph glyph-name="oslash" unicode="&#xf8;" horiz-adv-x="1153" 
d="M976 875c71.333 -76.667 106.999 -175.333 106.999 -296c0 -94.667 -23.167 -191.667 -69.5 -291s-117.5 -176.833 -213.5 -232.5s-197.667 -83.5 -305 -83.5c-97.333 0 -182 23.333 -254 70l-81 -92l-64 55l80 91c-70.667 72 -106 169.667 -106 293
c0 162 56.333 303.5 169 424.5s253.334 181.5 422.001 181.5c98.667 0 182 -21.667 250 -65l79 90l64 -52zM307.999 246.001l474 538c-42.667 24.667 -92 37 -148 37c-106.667 0 -193.667 -41.333 -261 -124s-101 -181.667 -101 -297c0 -64 12 -115.333 36 -154z
M845.999 727.001l-477.999 -542c41.333 -26 90.666 -39 147.999 -39c112.667 0 203.5 43.333 272.5 130s103.5 187 103.5 301c0 58 -15.333 108 -46 150z" />
    <glyph glyph-name="ugrave" unicode="&#xf9;" horiz-adv-x="1130" 
d="M859 163h121.999l-38 -163h-304l27 112c-119.333 -85.333 -225.333 -128 -318 -128c-69.333 0 -124.333 22.667 -165 68s-61 94 -61 146c0 39.333 11 105.333 33 198l95 409h-120l39 163h301l-124 -525c-24.667 -106 -37 -171.333 -37 -196
c0 -28.667 9.83301 -52 29.5 -70s44.167 -27 73.5 -27c70.667 0 169.334 47 296.001 141l120 514h-144l38 163h325zM875.999 1125h-140l-380 286h357z" />
    <glyph glyph-name="uacute" unicode="&#xfa;" horiz-adv-x="1130" 
d="M859 163h121.999l-38 -163h-304l27 112c-119.333 -85.333 -225.333 -128 -318 -128c-69.333 0 -124.333 22.667 -165 68s-61 94 -61 146c0 39.333 11 105.333 33 198l95 409h-120l39 163h301l-124 -525c-24.667 -106 -37 -171.333 -37 -196
c0 -28.667 9.83301 -52 29.5 -70s44.167 -27 73.5 -27c70.667 0 169.334 47 296.001 141l120 514h-144l38 163h325zM569.999 1125l165 286h357l-382 -286h-140z" />
    <glyph glyph-name="ucircumflex" unicode="&#xfb;" horiz-adv-x="1130" 
d="M859 163h121.999l-38 -163h-304l27 112c-119.333 -85.333 -225.333 -128 -318 -128c-69.333 0 -124.333 22.667 -165 68s-61 94 -61 146c0 39.333 11 105.333 33 198l95 409h-120l39 163h301l-124 -525c-24.667 -106 -37 -171.333 -37 -196
c0 -28.667 9.83301 -52 29.5 -70s44.167 -27 73.5 -27c70.667 0 169.334 47 296.001 141l120 514h-144l38 163h325zM398.999 1105l245 306h262l97 -306h-137l-122 159l-207 -159h-138z" />
    <glyph glyph-name="udieresis" unicode="&#xfc;" horiz-adv-x="1130" 
d="M859 163h121.999l-38 -163h-304l27 112c-119.333 -85.333 -225.333 -128 -318 -128c-69.333 0 -124.333 22.667 -165 68s-61 94 -61 146c0 39.333 11 105.333 33 198l95 409h-120l39 163h301l-124 -525c-24.667 -106 -37 -171.333 -37 -196
c0 -28.667 9.83301 -52 29.5 -70s44.167 -27 73.5 -27c70.667 0 169.334 47 296.001 141l120 514h-144l38 163h325zM796.999 1254c0 31.333 11 58 33 80s48.333 33 79 33c32 0 58.667 -11.167 80 -33.5s32 -48.5 32 -78.5c0 -30.667 -10.833 -57.167 -32.5 -79.5
s-48.167 -33.5 -79.5 -33.5c-30.667 0 -57 11 -79 33s-33 48.333 -33 79zM380.999 1255c0 29.333 10.5 55.333 31.5 78s47.833 34 80.5 34c31.333 0 57.833 -11 79.5 -33s32.5 -48.333 32.5 -79c0 -31.333 -11 -58 -33 -80s-48.333 -33 -79 -33
c-32 0 -58.667 11.167 -80 33.5s-32 48.833 -32 79.5z" />
    <glyph glyph-name="yacute" unicode="&#xfd;" horiz-adv-x="1044" 
d="M81 -274l192 280l-45 799h-111l39 163h380l-38 -163h-101l34 -568l393 568h-133l38 163h396l-38 -163h-91l-850 -1242h-287l38 163h184zM549 1125l165 286h357l-382 -286h-140z" />
    <glyph glyph-name="thorn" unicode="&#xfe;" horiz-adv-x="1237" 
d="M252 1391h322.999l-130 -546c98.667 92 207.334 138 326.001 138c108 0 199.667 -40.5 275 -121.5s113 -185.5 113 -313.5c0 -154 -51.833 -288.5 -155.5 -403.5s-230.167 -172.5 -379.5 -172.5c-143.333 0 -258.333 56 -345 168l-97 -414h152l-39 -163h-448l38 163h116
l352 1502h-139zM344.999 391c0 -82 23.834 -146 71.501 -192s108.167 -69 181.5 -69c109.333 0 199 42.5 269 127.5s105 183.5 105 295.5c0 84 -23.833 149.167 -71.5 195.5s-108.834 69.5 -183.501 69.5c-108 0 -197 -46 -267 -138s-105 -188.333 -105 -289z" />
    <glyph glyph-name="ydieresis" unicode="&#xff;" horiz-adv-x="1044" 
d="M81 -274l192 280l-45 799h-111l39 163h380l-38 -163h-101l34 -568l393 568h-133l38 163h396l-38 -163h-91l-850 -1242h-287l38 163h184zM775 1254c0 31.333 11 58 33 80s48.333 33 79 33c32 0 58.667 -11.167 80 -33.5s32 -48.5 32 -78.5
c0 -30.667 -10.833 -57.167 -32.5 -79.5s-48.167 -33.5 -79.5 -33.5c-30.667 0 -57 11 -79 33s-33 48.333 -33 79zM359 1255c0 29.333 10.5 55.333 31.5 78s47.833 34 80.5 34c31.333 0 57.833 -11 79.5 -33s32.5 -48.333 32.5 -79c0 -31.333 -11 -58 -33 -80
s-48.333 -33 -79 -33c-32 0 -58.667 11.167 -80 33.5s-32 48.833 -32 79.5z" />
    <glyph glyph-name="dotlessi" unicode="&#x131;" 
d="M139 163l151 642h-133l38 163h314l-189 -805h141l-38 -163h-429l38 163h107z" />
    <glyph glyph-name="OE" unicode="&#x152;" horiz-adv-x="2048" 
d="M1785 427l167.998 0.00292969l-103 -427h-917c-177.333 0 -319.333 15.667 -426 47s-194.667 93.333 -264 186s-104 204 -104 334c0 99.333 22.333 201.666 67 306.999s103.834 195.166 177.501 269.499s154.5 129.166 242.5 164.499s171.833 58 251.5 68
s200.834 15 363.501 15h918l-98 -419h-165l57 256h-510l-100 -430h448l-38 -163h-448l-111 -472h529zM1241 1228l-89 -0.000976562c-128 0 -232.833 -8.83301 -314.5 -26.5s-157.667 -52.5 -228 -104.5s-130.333 -126.833 -180 -224.5s-74.5 -199.167 -74.5 -304.5
c0 -133.333 41.833 -234.166 125.5 -302.499s218.167 -102.5 403.5 -102.5h108z" />
    <glyph glyph-name="oe" unicode="&#x153;" horiz-adv-x="1898" 
d="M1815 444l-762.999 0.00195312c-4 -30 -6 -55.333 -6 -76c0 -63.333 22 -118.833 66 -166.5s102 -71.5 174 -71.5c92 0 176 46.667 252 140l188 -80c-105.333 -145.333 -250.333 -218 -435 -218c-77.333 0 -149.166 16 -215.499 48s-116.833 75 -151.5 129
c-121.333 -118 -262 -177 -422 -177c-134.667 0 -240.834 39.5 -318.501 118.5s-116.5 180.167 -116.5 303.5c0 95.333 25 190.5 75 285.5s121.5 171.333 214.5 229s193.5 86.5 301.5 86.5c165.333 0 286.666 -56.667 363.999 -170c100 113.333 229 170 387 170
c140.667 0 245.667 -42.833 315 -128.5s104 -188.834 104 -309.501c0 -40.667 -4.33301 -78.334 -13 -113.001zM1643 579.002c1.33301 30 2 46 2 48c0 56 -20.333 106.5 -61 151.5s-98 67.5 -172 67.5c-146.667 0 -254.667 -89 -324 -267h555zM263.001 412.002
c0 -80.667 22.5 -146.166 67.5 -196.499s109.167 -75.5 192.5 -75.5c112.667 0 202.5 45.333 269.5 136s100.5 191 100.5 301c0 68 -21.167 126 -63.5 174s-102.5 72 -180.5 72c-113.333 0 -206 -44.333 -278 -133s-108 -181.334 -108 -278.001z" />
    <glyph glyph-name="Scaron" unicode="&#x160;" horiz-adv-x="1067" 
d="M0 0l89 382.002h169l-29 -125c70.667 -80 158 -120 262 -120c72 0 132.333 20.833 181 62.5s73 92.5 73 152.5c0 52.667 -16.333 98.5 -49 137.5s-96.667 90.5 -192 154.5c-100.667 68.667 -170.834 132.5 -210.501 191.5s-59.5 127.5 -59.5 205.5
c0 111.333 38.833 201.166 116.5 269.499s177.167 102.5 298.5 102.5c120 0 218 -39 294 -117l21 95h168l-88 -377h-168l25 106c-26 40.667 -62.833 73.667 -110.5 99s-96.834 38 -147.501 38c-64.667 0 -118.667 -17.667 -162 -53s-65 -82.333 -65 -141
c0 -43.333 14 -83.833 42 -121.5s82.667 -83.834 164 -138.501c84 -56 144.833 -100.833 182.5 -134.5s68.167 -74.667 91.5 -123s35 -102.833 35 -163.5c0 -122 -43.167 -219.833 -129.5 -293.5s-197.166 -110.5 -332.499 -110.5c-109.333 0 -203.666 32 -282.999 96
l-17 -74h-169zM1095 1789l-245 -306h-262l-97 306h137l122 -159l207 159h138z" />
    <glyph glyph-name="scaron" unicode="&#x161;" horiz-adv-x="874" 
d="M20 270h163.999c0 -45.333 20 -80.333 60 -105s92.333 -37 157 -37c59.333 0 105.166 12 137.499 36s48.5 53.333 48.5 88c0 32.667 -14 61.167 -42 85.5s-77.333 50.166 -148 77.499c-71.333 28 -125.333 53 -162 75s-67 52.333 -91 91s-36 79.667 -36 123
c0 74.667 31 139.834 93 195.501s147.333 83.5 256 83.5c101.333 0 184.666 -28 249.999 -84l20 69h161l-63 -269h-162c-1.33301 49.333 -23.666 84.333 -66.999 105s-90.666 31 -141.999 31c-53.333 0 -95.166 -10.667 -125.499 -32s-45.5 -48 -45.5 -80
c0 -26 9 -47.5 27 -64.5s52.333 -35.167 103 -54.5c144 -55.333 239 -108 285 -158s69 -110.333 69 -181c0 -84 -32.5 -151.833 -97.5 -203.5s-160.5 -77.5 -286.5 -77.5c-117.333 0 -200.333 26.333 -249 79l-14 -63h-164zM925.999 1411l-245 -306h-262l-97 306h137
l122 -159l207 159h138z" />
    <glyph glyph-name="Ydieresis" unicode="&#x178;" horiz-adv-x="1174" 
d="M488 626l-209 602h-145l38 163h459l-39 -163h-130l162 -459l425 459h-168l39 163h480l-38 -163h-116l-556 -602l-109 -463h141l-38 -163h-477l39 163h133zM927 1611c0 31.333 11 58 33 80s48.333 33 79 33c32 0 58.667 -11.167 80 -33.5s32 -48.5 32 -78.5
c0 -30.667 -10.833 -57.167 -32.5 -79.5s-48.167 -33.5 -79.5 -33.5c-30.667 0 -57 11 -79 33s-33 48.333 -33 79zM511 1612c0 29.333 10.5 55.333 31.5 78s47.833 34 80.5 34c31.333 0 57.833 -11 79.5 -33s32.5 -48.333 32.5 -79c0 -31.333 -11 -58 -33 -80
s-48.333 -33 -79 -33c-32 0 -58.667 11.167 -80 33.5s-32 48.833 -32 79.5z" />
    <glyph glyph-name="florin" unicode="&#x192;" horiz-adv-x="1130" 
d="M-1 -405l41.999 154.999c66 -14.667 116.667 -22 152 -22s63 9.33301 83 28s37 60 51 124l226 1042h-200l30 140h201l31 133c18 80.667 37.333 139.334 58 176.001s51.334 66 92.001 88s88.667 33 144 33c60.667 0 133 -12.667 217 -38l-42 -153
c-66.667 16 -117.667 24 -153 24c-42 0 -71.833 -10.333 -89.5 -31s-34.167 -63.667 -49.5 -129l-24 -103h204l-31 -140h-205l-242 -1092c-22 -98 -54.167 -166 -96.5 -204s-98.833 -57 -169.5 -57c-66.667 0 -143 8.66699 -229 26z" />
    <glyph glyph-name="circumflex" unicode="&#x2c6;" horiz-adv-x="682" 
d="M175 1105l245 306h262l97 -306h-137l-122 159l-207 -159h-138z" />
    <glyph glyph-name="caron" unicode="&#x2c7;" horiz-adv-x="682" 
d="M830 1411l-245 -306h-262l-97 306h137l122 -159l207 159h138z" />
    <glyph glyph-name="macron" unicode="&#x2c9;" horiz-adv-x="682" 
d="M173 1186l35 147h664l-35 -147h-664z" />
    <glyph glyph-name="breve" unicode="&#x2d8;" horiz-adv-x="682" 
d="M722 1399h100c-22.667 -86.667 -62.5 -155.5 -119.5 -206.5s-120.167 -76.5 -189.5 -76.5s-125.833 25.667 -169.5 77s-65.5 120 -65.5 206h106c3.33301 -46 18.5 -81.667 45.5 -107s59.5 -38 97.5 -38c39.333 0 77 14 113 42s63.333 62.333 82 103z" />
    <glyph glyph-name="dotaccent" unicode="&#x2d9;" horiz-adv-x="682" 
d="M389 1255c0 29.333 10.5 55.333 31.5 78s47.833 34 80.5 34c31.333 0 57.833 -11 79.5 -33s32.5 -48.333 32.5 -79c0 -31.333 -11 -58 -33 -80s-48.333 -33 -79 -33c-32 0 -58.667 11.167 -80 33.5s-32 48.833 -32 79.5z" />
    <glyph glyph-name="ring" unicode="&#x2da;" horiz-adv-x="682" 
d="M322 1254c0 54.667 19.5 101.666 58.5 140.999s85.833 59 140.5 59s101.5 -19.5 140.5 -58.5s58.5 -85.833 58.5 -140.5c0 -55.333 -19.5 -102.333 -58.5 -141s-85.833 -58 -140.5 -58s-101.5 19.333 -140.5 58s-58.5 85.334 -58.5 140.001zM400 1254
c0 -32.667 12 -60.832 36 -84.499s52.333 -35.5 85 -35.5s61 11.667 85 35s36 52 36 86c0 33.333 -11.833 61.666 -35.5 84.999s-52.167 35 -85.5 35c-34.667 0 -63.5 -12 -86.5 -36s-34.5 -52.333 -34.5 -85z" />
    <glyph glyph-name="ogonek" unicode="&#x2db;" horiz-adv-x="682" 
d="M117 0l160.001 -0.000976562c-55.333 -76 -83 -138.333 -83 -187c0 -54.667 30.333 -82 91 -82c20 0 46 3.66699 78 11l-47 -138c-52.667 -24.667 -105.334 -37 -158.001 -37c-105.333 0 -158 48.667 -158 146c0 86.667 39 182.334 117 287.001z" />
    <glyph glyph-name="tilde" unicode="&#x2dc;" horiz-adv-x="682" 
d="M736 1397l112.999 0.000976562c0.666992 -16.667 1 -30.667 1 -42c0 -72.667 -16.167 -131.334 -48.5 -176.001s-75.5 -67 -129.5 -67c-46 0 -118.333 31 -217 93c-33.333 21.333 -59.666 32 -78.999 32c-45.333 0 -69.333 -36.667 -72 -110h-116
c0 95.333 18.667 164.333 56 207s82.333 64 135 64c38.667 0 97 -23.333 175 -70c60.667 -36.667 99.667 -55 117 -55c41.333 0 63 41.333 65 124z" />
    <glyph glyph-name="hungarumlaut" unicode="&#x2dd;" horiz-adv-x="682" 
d="M168 1125l165 286h357l-382 -286h-140zM590 1125l165 286h357l-382 -286h-140z" />
    <glyph glyph-name="pi" unicode="&#x3c0;" horiz-adv-x="1280" 
d="M173 914l33 149h1103l-36 -150h-121l-214 -913h-201l213 913l-420 1l-213 -914h-203l215 914h-156z" />
    <glyph glyph-name="endash" unicode="&#x2013;" horiz-adv-x="1024" 
d="M-11 585h1048v-145h-1048v145z" />
    <glyph glyph-name="emdash" unicode="&#x2014;" horiz-adv-x="2048" 
d="M-1 585h2072v-145h-2072v145z" />
    <glyph glyph-name="quoteleft" unicode="&#x2018;" 
d="M478 878h-240.999l48 205c22.667 96 58.667 169.833 108 221.5s121.666 80.5 216.999 86.5l-20 -86c-98 -11.333 -160 -75.333 -186 -192h129z" />
    <glyph glyph-name="quoteright" unicode="&#x2019;" 
d="M357 1391h240.999l-48 -206c-22.667 -96 -58.667 -169.667 -108 -221s-121.666 -80 -216.999 -86l20 90c98.667 11.333 160.667 74 186 188h-130z" />
    <glyph glyph-name="quotesinglbase" unicode="&#x201a;" 
d="M109 235h240.999l-48 -205c-22.667 -96 -58.667 -169.833 -108 -221.5s-121.666 -80.5 -216.999 -86.5l20 90c98.667 11.333 160.667 74 186 188h-130z" />
    <glyph glyph-name="quotedblleft" unicode="&#x201c;" horiz-adv-x="1004" 
d="M464 878h-240.999l48 205c22.667 96 58.667 169.833 108 221.5s121.666 80.5 216.999 86.5l-20 -86c-98 -11.333 -160 -75.333 -186 -192h129zM911.001 878h-242.001l49 205c22 96 57.833 169.833 107.5 221.5s121.834 80.5 216.501 86.5l-20 -86
c-98 -11.333 -160 -75.333 -186 -192h130z" />
    <glyph glyph-name="quotedblright" unicode="&#x201d;" horiz-adv-x="1004" 
d="M353 1391h240.999l-48 -206c-22.667 -96 -58.667 -169.667 -108 -221s-121.666 -80 -216.999 -86l20 90c98.667 11.333 160.667 74 186 188h-130zM798.999 1391h241l-48 -206c-22.667 -96 -58.667 -169.667 -108 -221s-121.666 -80 -216.999 -86l20 90
c99.333 11.333 161.666 74 186.999 188h-130z" />
    <glyph glyph-name="quotedblbase" unicode="&#x201e;" horiz-adv-x="1004" 
d="M105 235h240.999l-48 -205c-22.667 -96 -58.667 -169.833 -108 -221.5s-121.666 -80.5 -216.999 -86.5l20 86c98.667 12.667 160.667 76.667 186 192h-130zM550.999 235h241l-48 -205c-22 -96 -57.833 -169.833 -107.5 -221.5s-122.167 -80.5 -217.5 -86.5l21 86
c98 12.667 160 76.667 186 192h-130z" />
    <glyph glyph-name="dagger" unicode="&#x2020;" horiz-adv-x="1004" 
d="M1084 960l-41.998 -180.997h-208c-51.333 33.333 -119.333 51.333 -204 54c-13.333 -68 -20 -127.333 -20 -178c0 -56.667 6.66699 -103.334 20 -140.001l-287 -952h-98l177 952c55.333 66 101.666 172 138.999 318c-104.667 0 -194.334 -18 -269.001 -54h-192l42 181
h192c58 -40.667 139 -61 243 -61c12 52 18 106.333 18 163c0 51.333 -6 90.666 -18 117.999l53 233h204l-54 -233c-64.667 -76 -109.667 -169.667 -135 -281c90 1.33301 166.667 21.666 230 60.999h209z" />
    <glyph glyph-name="daggerdbl" unicode="&#x2021;" horiz-adv-x="1004" 
d="M1053 968l-41.998 -178.002h-198c-44.667 36.667 -107.667 56.334 -189 59.001c-14 -62 -21 -121.333 -21 -178s7 -115.667 21 -177c-82 -98.667 -139.667 -220 -173 -364c86 2.66699 159 20.334 219 53.001h199l-43 -183h-202c-45.333 43.333 -106.333 65 -183 65h-5
c-8 -42 -12 -83.333 -12 -124c0 -45.333 6 -89.666 18 -132.999l-56 -245h-196l58 245c50.667 62 92 147.667 124 257c-84.667 -4 -159.667 -25.667 -225 -65h-195l43 183h195c57.333 -34.667 122.666 -52.334 195.999 -53.001c12 38.667 18 98.334 18 179.001
c0 56 -8.33301 117.667 -25 185c83.333 97.333 141.666 215.666 174.999 354.999c-92 -3.33301 -166 -23 -222 -59h-195l42 178h193c45.333 -33.333 111 -51.666 197 -54.999c9.33301 48.667 14 95 14 139c0 36 -4.66699 78.667 -14 128l55 233h195l-55 -233
c-61.333 -88.667 -104.333 -177.667 -129 -267c96 5.33301 169.333 23.666 220 54.999h198z" />
    <glyph glyph-name="bullet" unicode="&#x2022;" horiz-adv-x="725" 
d="M410 946c67.333 0 126 -23.833 176 -71.5s75 -107.5 75 -179.5c0 -68.667 -24.667 -127.5 -74 -176.5s-108.333 -73.5 -177 -73.5c-69.333 0 -128.5 24.5 -177.5 73.5s-73.5 107.833 -73.5 176.5c0 69.333 24.667 128.5 74 177.5s108.333 73.5 177 73.5z" />
    <glyph glyph-name="ellipsis" unicode="&#x2026;" horiz-adv-x="2048" 
d="M111 0l55 235h242l-56 -235h-241zM794 0l55 235h241l-55 -235h-241zM1476 0l56 235h241l-56 -235h-241z" />
    <glyph glyph-name="perthousand" unicode="&#x2030;" horiz-adv-x="2218" 
d="M32 957c0 115.333 33.333 220.5 100 315.5s158.334 142.5 275.001 142.5c85.333 0 149.333 -25.333 192 -76s64 -120.667 64 -210c0 -118 -32.833 -222.833 -98.5 -314.5s-155.834 -137.5 -270.501 -137.5c-80.667 0 -144.5 24 -191.5 72s-70.5 117.333 -70.5 208z
M182 953c0 -54.667 12.5 -95.166 37.5 -121.499s54.5 -39.5 88.5 -39.5c60 0 110.167 38.167 150.5 114.5s60.5 159.166 60.5 248.499c0 39.333 -10.167 73.333 -30.5 102s-51.5 43 -93.5 43c-58 0 -108 -38.167 -150 -114.5s-63 -153.833 -63 -232.5zM-21 0.000976562
l1428 1391h133l-1428 -1391h-133zM852 258.001c0 113.333 33.167 217.5 99.5 312.5s158.833 142.5 277.5 142.5c83.333 0 146.5 -25.167 189.5 -75.5s64.5 -119.833 64.5 -208.5c0 -117.333 -32.833 -221.666 -98.5 -312.999s-156.167 -137 -271.5 -137
c-86 0 -151 25.667 -195 77s-66 118.666 -66 201.999zM1002 254.001c0 -54.667 12.501 -95.334 37.501 -122.001s54.5 -40 88.5 -40c62.667 0 113.5 39.833 152.5 119.5s58.5 160.834 58.5 243.501c0 41.333 -10.667 75.833 -32 103.5s-52 41.5 -92 41.5
c-66.667 0 -118.834 -42.167 -156.501 -126.5s-56.5 -157.5 -56.5 -219.5zM1644 258.001c0 113.333 33.166 217.5 99.499 312.5s158.833 142.5 277.5 142.5c80 0 142.333 -24 187 -72s67 -118.667 67 -212c0 -117.333 -32.667 -221.666 -98 -312.999
s-155.666 -137 -270.999 -137c-86.667 0 -152 25.667 -196 77s-66 118.666 -66 201.999zM1795 254.001c0 -54.667 12.333 -95.334 37 -122.001s54 -40 88 -40c62.667 0 113.5 39.833 152.5 119.5s58.5 160.834 58.5 243.501c0 41.333 -10.5 75.833 -31.5 103.5
s-51.833 41.5 -92.5 41.5c-58 0 -107.833 -38 -149.5 -114s-62.5 -153.333 -62.5 -232z" />
    <glyph glyph-name="guilsinglleft" unicode="&#x2039;" horiz-adv-x="532" 
d="M54 519l354 449h203l-378 -483l150 -477h-167z" />
    <glyph glyph-name="guilsinglright" unicode="&#x203a;" horiz-adv-x="532" 
d="M482 457l-354 -449h-203l378 483l-150 477h167z" />
    <glyph glyph-name="Euro" unicode="&#x20ac;" horiz-adv-x="1087" 
d="M1253 1391l-59.002 -363.004h-131c-5.33301 78.667 -31 138.334 -77 179.001s-107 61 -183 61c-84 0 -161.333 -32.167 -232 -96.5s-128 -155.166 -172 -272.499h463l-22 -141h-480c-8.66699 -45.333 -14 -86.333 -16 -123h479l-22 -141h-459
c10 -113.333 40.333 -203.166 91 -269.499s112.334 -99.5 185.001 -99.5c70.667 0 130.667 18.167 180 54.5s99.333 91.833 150 166.5l113 -94c-55.333 -92.667 -118.5 -161.667 -189.5 -207s-158.833 -68 -263.5 -68c-123.333 0 -224.166 46 -302.499 138
s-124.833 218.333 -139.5 379h-105l23 141h80c5.33301 54 10.666 95 15.999 123h-104l22 141h117c54.667 160.667 135.5 286.834 242.5 378.501s226.167 137.5 357.5 137.5c124.667 0 218.334 -39.667 281.001 -119l20 95h137z" />
    <glyph glyph-name="trademark" unicode="&#x2122;" horiz-adv-x="2048" 
d="M610 577v693h-264v121h666v-121h-266v-693h-136zM1103 577v814h200l206 -651l199 651h196v-814h-124v683l-210 -683h-123l-219 693v-693h-125z" />
    <glyph glyph-name="uni2126" unicode="&#x2126;" horiz-adv-x="1621" 
d="M-2 165l133 0.00292969c31.333 0 123 -3 275 -9c-156 115.333 -234 272.666 -234 471.999c0 208 71.667 405.833 215 593.5s337.333 281.5 582 281.5c164 0 294.333 -49.167 391 -147.5s145 -235.833 145 -412.5c0 -96 -17.667 -194.167 -53 -294.5
s-93.5 -194.333 -174.5 -282s-190.5 -159.5 -328.5 -215.5c114 8 191.333 12 232 12h153l-48 -163h-582l43 171c130.667 50.667 238 120.167 322 208.5s143.5 181 178.5 278s52.5 193.5 52.5 289.5c0 128 -29.5 226.333 -88.5 295s-142.833 103 -251.5 103
c-119.333 0 -220.5 -34.333 -303.5 -103s-152.5 -168.834 -208.5 -300.501s-84 -256.834 -84 -375.501c0 -175.333 65.667 -307.333 197 -396l-45 -170h-568z" />
    <glyph glyph-name="partialdiff" unicode="&#x2202;" horiz-adv-x="1012" 
d="M435 1138l-134.999 59.999c42.667 100 97.167 173.833 163.5 221.5s131.833 71.5 196.5 71.5c98.667 0 177 -46.333 235 -139s87 -234.667 87 -426c0 -167.333 -24.333 -325.166 -73 -473.499s-123.167 -265 -223.5 -350s-205.166 -127.5 -314.499 -127.5
c-90 0 -163.5 30.5 -220.5 91.5s-85.5 145.833 -85.5 254.5c0 112.667 30.667 216.334 92 311.001s152.166 166.667 272.499 216s266.166 74.666 437.499 75.999c-1.33301 166.667 -20.333 281.5 -57 344.5s-86 94.5 -148 94.5c-95.333 0 -171 -75 -227 -225z
M863.001 795.999c-160.667 -8 -279.833 -30.332 -357.5 -66.999s-140.5 -96.334 -188.5 -179.001s-72 -165 -72 -247c0 -58.667 17.833 -105.167 53.5 -139.5s74.5 -51.5 116.5 -51.5c96 0 189 56.5 279 169.5s146.333 284.5 169 514.5z" />
    <glyph glyph-name="uni2206" unicode="&#x2206;" horiz-adv-x="1259" 
d="M1189 0h-1200l628 1387zM953 82l-399 967l-440 -967h839z" />
    <glyph glyph-name="product" unicode="&#x220f;" horiz-adv-x="1685" 
d="M207 1415h1362v-1871h-191v1697h-980v-1697h-191v1871z" />
    <glyph glyph-name="summation" unicode="&#x2211;" horiz-adv-x="1460" 
d="M185 1415h1237v-164h-988l607 -748l-649 -795h1040v-164h-1264v190l620 762l-603 744v175z" />
    <glyph glyph-name="fraction" unicode="&#x2215;" horiz-adv-x="662" 
d="M-407 0l1428 1391h133l-1428 -1391h-133z" />
    <glyph glyph-name="periodcentered" unicode="&#x2219;" horiz-adv-x="598" 
d="M196 580l55 235h241l-55 -235h-241z" />
    <glyph glyph-name="radical" unicode="&#x221a;" horiz-adv-x="1131" 
d="M1014 1869h74l-312 -1947l-496 1021l-198 -91l-34 64l301 151l405 -823z" />
    <glyph glyph-name="infinity" unicode="&#x221e;" horiz-adv-x="1195" 
d="M601 789c78 100 140.333 163.833 187 191.5s95.334 41.5 146.001 41.5c73.333 0 139.666 -26.167 198.999 -78.5s89 -133.166 89 -242.499c0 -124.667 -31 -211.834 -93 -261.501s-127 -74.5 -195 -74.5c-58.667 0 -111.167 16.667 -157.5 50s-104.833 94.333 -175.5 183
c-90.667 -114 -186.667 -171 -288 -171c-74.667 0 -134.5 27.5 -179.5 82.5s-67.5 116.5 -67.5 184.5c0 62 21.167 122 63.5 180s103.5 87 183.5 87c101.333 0 197.333 -57.333 288 -172zM670 695c54.667 -84.667 101.832 -142.167 141.499 -172.5s79.5 -45.5 119.5 -45.5
c46 0 87.5 17 124.5 51s55.5 88.333 55.5 163c0 69.333 -17.167 123 -51.5 161s-78.166 57 -131.499 57c-37.333 0 -73.333 -13.167 -108 -39.5s-84.667 -84.5 -150 -174.5zM531.998 694c-81.333 104.667 -154.667 157 -220 157c-40.667 0 -73.334 -14.333 -98.001 -43
s-37 -65.667 -37 -111s13 -82.833 39 -112.5s58.667 -44.5 98 -44.5c66.667 0 139.334 51.333 218.001 154z" />
    <glyph glyph-name="integral" unicode="&#x222b;" horiz-adv-x="555" 
d="M245 606c0 408 19.499 662.501 58.499 763.501s98.167 151.5 177.5 151.5c33.333 0 62.166 -10.333 86.499 -31s36.5 -46.334 36.5 -77.001c0 -28.667 -8.33301 -53 -25 -73s-39 -30 -67 -30c-23.333 0 -48.666 12 -75.999 36c-15.333 13.333 -28.666 20 -39.999 20
c-26.667 0 -40 -21.333 -40 -64c0 -28 3 -76.333 9 -145c24.667 -273.333 37 -501 37 -683c0 -424.667 -15.5 -703.5 -46.5 -836.5s-95.167 -199.5 -192.5 -199.5c-37.333 0 -66.5 11.333 -87.5 34s-31.5 51.667 -31.5 87c0 30 8.5 54 25.5 72s38.5 27 64.5 27
c26.667 0 50 -11 70 -33c18.667 -20.667 34.667 -31 48 -31c26 0 39 20.333 39 61c0 27.333 -3 67.333 -9 120c-24.667 210.667 -37 487.667 -37 831z" />
    <glyph glyph-name="approxequal" unicode="&#x2248;" horiz-adv-x="1366" 
d="M1277 903c-103.333 -85.333 -201.001 -127.999 -293.001 -127.999c-42 0 -82.5 6.16699 -121.5 18.5s-102.5 39.166 -190.5 80.499c-84.667 39.333 -149 59 -193 59c-90 0 -189.333 -46.667 -298 -140v169c104.667 85.333 206.334 128 305.001 128
c62 0 159.667 -31.333 293 -94c90.667 -42 158.667 -63 204 -63c88.667 0 186.667 46.333 294 139v-169zM1277 433.001c-103.333 -86 -201 -129 -293 -129c-40.667 0 -80.334 6 -119.001 18s-103 39 -193 81c-84.667 40 -149 60 -193 60c-90 0 -189.333 -47 -298 -141v170
c104.667 85.333 206.334 128 305.001 128c62 0 159.667 -31.333 293 -94c90.667 -42.667 158.667 -64 204 -64c88.667 0 186.667 46.667 294 140v-169z" />
    <glyph glyph-name="notequal" unicode="&#x2260;" horiz-adv-x="1366" 
d="M919 1011h358v-157h-419l-123 -314h542v-156h-603l-207 -528h-135l206 528h-357v156h419l123 314h-542v157h603l207 528h135z" />
    <glyph glyph-name="lessequal" unicode="&#x2264;" horiz-adv-x="1366" 
d="M1277 370l-1096 459v142l1096 459v-169l-882 -361l882 -360v-170zM181 121h1096v-157h-1096v157z" />
    <glyph glyph-name="greaterequal" unicode="&#x2265;" horiz-adv-x="1366" 
d="M181 1430l1096 -459v-142l-1096 -459v170l882 360l-882 361v169zM181 121h1096v-157h-1096v157z" />
    <glyph glyph-name="lozenge" unicode="&#x25ca;" horiz-adv-x="1012" 
d="M600 1422l418 -713l-418 -709h-111l-391 709l391 713h111zM546 1325l-340 -616l340 -615l359 615z" />
    <glyph glyph-name="uniF001" unicode="&#xf001;" horiz-adv-x="1130" 
d="M1068 968l-189 -805.001h130l-38 -163h-416l38 163h105l149 642h-396l-150 -642h131l-39 -163h-416l38 163h106l150 642h-150l39 163h149l11 47c40 172 90.167 281.667 150.5 329s122.833 71 187.5 71c65.333 0 128.333 -22.333 189 -67l-74 -128
c-39.333 28 -73.333 42 -102 42c-36 0 -67.667 -14.667 -95 -44s-56 -112.666 -86 -249.999h578zM1036 1414c30.667 0 57.167 -10.833 79.5 -32.5s33.5 -48.5 33.5 -80.5c0 -30.667 -11 -57.167 -33 -79.5s-48.667 -33.5 -80 -33.5s-58 11.167 -80 33.5s-33 48.833 -33 79.5
c0 32.667 11.333 59.667 34 81s49 32 79 32z" />
    <glyph glyph-name="uniF002" unicode="&#xf002;" horiz-adv-x="1130" 
d="M1159 1391l-287 -1228h130l-38 -163h-416l39 163h103l250 1065h-177c-36.667 21.333 -70 32 -100 32c-44 0 -78 -17.167 -102 -51.5s-47 -100.166 -69 -197.499l-10 -43h144l-39 -163h-143l-151 -642h129l-38 -163h-416l38 163h107l150 642h-150l39 163h149l10 43
c22.667 96 46 170.333 70 223s60 96 108 130s102 51 162 51c36.667 0 74 -8 112 -24h396z" />
    <glyph glyph-name=".null" horiz-adv-x="0" 
 />
    <glyph glyph-name="nonmarkingreturn" horiz-adv-x="512" 
 />
    </font>
</defs>
</svg>
