<?xml version="1.0" standalone="no"?>
<!DOCTYPE svg PUBLIC "-//W3C//DTD SVG 1.1//EN" "http://www.w3.org/Graphics/SVG/1.1/DTD/svg11.dtd" >
<svg>
<metadata>
Created by FontForge 20090914 at Thu Feb  6 09:58:03 2014
 By www-data
Generated by Fontographer 3.5
</metadata>
<defs>
<font id="Mariah" horiz-adv-x="0" >
  <font-face 
    font-family="Mariah"
    font-weight="5"
    font-stretch="normal"
    units-per-em="1000"
    panose-1="0 0 0 0 0 0 0 0 0 0"
    ascent="800"
    descent="-200"
    x-height="338.998"
    cap-height="700"
    bbox="-29.0029 -341.999 1404 901.001"
    underline-thickness="20"
    underline-position="-190"
    unicode-range="U+0020-U+F002"
  />
<missing-glyph horiz-adv-x="800" 
d="M50 0v800h700v-800h-700zM700 50v700h-600v-700h600z" />
    <glyph glyph-name=".notdef" horiz-adv-x="800" 
d="M50 0v800h700v-800h-700zM700 50v700h-600v-700h600z" />
    <glyph glyph-name="space" unicode=" " horiz-adv-x="500" 
 />
    <glyph glyph-name="space" unicode="&#xa0;" horiz-adv-x="500" 
 />
    <glyph glyph-name="exclam" unicode="!" horiz-adv-x="278" 
d="M326 682c-18 -63.333 -41.667 -126.667 -71 -190c-1.33301 -4 -4.33301 -14 -9 -30c-9.33301 -33.333 -16.333 -60.5 -21 -81.5s-9 -41.5 -13 -61.5s-6 -35 -6 -45l1 -83c0.666992 -5.33301 -3.5 -9.83301 -12.5 -13.5s-17.5 -6.5 -25.5 -8.5s-13.667 -3 -17 -3h-10
c-18.667 0 -28 3.33301 -28 10c0 34 0.333008 56.833 1 68.5s4 41.167 10 88.5l6 27l5 29l14 66c-12.667 2.66699 -19 8.66699 -19 18c0 6.66699 3 20.667 9 42l12 43l3 9l19 52l23 46c10 21.333 18.667 34.5 26 39.5s24 7.5 50 7.5c36.667 0 55 -7 55 -21
c0 -0.666992 -0.666992 -3.66699 -2 -9zM214 58.999c0 -18.667 -5.66895 -34.6689 -17.002 -48.002s-26 -22.666 -44 -27.999c-7.33301 -2 -14.333 -3 -21 -3c-14.667 0 -27.167 4.5 -37.5 13.5s-16.5 20.5 -18.5 34.5c-1.33301 6.66699 0.333984 14.334 5.00098 23.001
s14.667 22 30 40c12 14 25 26 39 36c6 4.66699 12.333 7 19 7c18.667 0 32.334 -11.667 41.001 -35c3.33301 -10 5 -20 5 -30c0 -4.66699 -0.333008 -8 -1 -10z" />
    <glyph glyph-name="quotedbl" unicode="&#x22;" horiz-adv-x="445" 
d="M457 660c0 -10.667 -1.99902 -20.5 -5.99902 -29.5s-13 -23.833 -27 -44.5c-8 -11.333 -19 -25 -33 -41l-30 -32c-16 -14.667 -32 -27.167 -48 -37.5s-35 -19.5 -57 -27.5l29.5 62l24.5 49c9.33301 27.333 18.666 52.666 27.999 75.999
c19.333 47.333 33.833 71.833 43.5 73.5s17.167 2.5 22.5 2.5c15.333 0 28 -4.66699 38 -14s15 -21.666 15 -36.999zM292.001 660c0 -10.667 -2 -20.501 -6 -29.501s-13 -23.833 -27 -44.5c-8 -11.333 -19 -25 -33 -41l-30 -32c-16 -14.667 -32 -27.167 -48 -37.5
s-35 -19.5 -57 -27.5l19 45c8.66699 20.667 20.334 42.667 35.001 66c12.667 44 25.167 79.333 37.5 106s26.833 41.667 43.5 45c3.33301 0.666992 7.66602 1 12.999 1c15.333 0 28 -4.66699 38 -14s15 -21.666 15 -36.999z" />
    <glyph glyph-name="numbersign" unicode="#" horiz-adv-x="581" 
d="M547 502l-15 -70h-112l-35 -167h111l-15 -69h-111l-42 -196h-69l41 196h-84l-42 -196h-69l41 196h-111l14 69h113l35 167h-111l14 70h112l41 196h69l-40 -196h83l42 196h69l-40 -196h111zM351 432h-85l-34 -167h83z" />
    <glyph glyph-name="dollar" unicode="$" horiz-adv-x="520" 
d="M533 649c0 -17.333 -6.49902 -31.4971 -19.499 -42.4971s-37.5 -21.833 -73.5 -32.5c-11.333 -2.66699 -25.666 -4 -42.999 -4l4 5l5 5c7.33301 8 17.666 15.333 30.999 22c-9.33301 0.666992 -16.333 1 -21 1s-9.33398 0.333008 -14.001 1c-8 0 -15.833 -1 -23.5 -3
s-13.834 -3.66699 -18.501 -5l-13 -76l-1 -9l-8 -74c-1.33301 -6 -2.66602 -12.333 -3.99902 -19s-2 -11.334 -2 -14.001c0 -6.66699 5.66699 -14 17 -22s21.666 -15 30.999 -21c8 -3.33301 14.667 -8 20 -14c38.667 -30.667 64.334 -60.667 77.001 -90
c16.667 -37.333 25 -68.333 25 -93c0 -31.333 -11.167 -57.5 -33.5 -78.5s-58.166 -39.833 -107.499 -56.5l-22 -7c-36 -8.66699 -58 -16.334 -66 -23.001s-12 -21.334 -12 -44.001l3 -20c1.33301 -4 -0.333984 -6.83301 -5.00098 -8.5s-9.66699 -2.5 -15 -2.5
c-16.667 0 -27.334 6.66699 -32.001 20l9 39c0.666992 2 1 4 1 6v5c0 2.66699 -0.666992 6.66699 -2 12l-21 -5l-43 3c-31.333 0 -53.666 4.33301 -66.999 13s-22 23.334 -26 44.001c12 -2 18.667 -3 20 -3c6 -0.666992 13.333 -1 22 -1h23.5h14.5h12
c29.333 0 48.666 1.66699 57.999 5l7 2l9 3l8 29l7 30l13 66l4 24l5 37l5 27l2 18l1 7l1 10l-13 7l-24 17c-14 8 -26.5 15.833 -37.5 23.5s-19.167 14.167 -24.5 19.5c-31.333 31.333 -49 63 -53 95c-0.666992 4.66699 -1 11.667 -1 21c0 49.333 24.333 91 73 125
c24.667 18 50.334 29.333 77.001 34c16 2 29.833 4 41.5 6s17.5 5.66699 17.5 11c0 0.666992 -0.666992 5.66699 -2 15s-2 15.666 -2 18.999c0 23.333 8.33301 35 25 35c10.667 0 16.667 -5.33301 18 -16l3 -31l2 -19l52 4c24 2.66699 51 4 81 4
c6.66699 0 12.5 -3.5 17.5 -10.5s7.5 -15.5 7.5 -25.5zM316.001 588.003l-39 -11l-21 -7c-24 -10.667 -36 -28.667 -36 -54c0 -22 10.333 -43.667 31 -65c9.33301 -11.333 23.333 -21.333 42 -30l10 73l9 65l2 13zM370.001 244.003
c-6.66699 11.333 -12.501 19.666 -17.501 24.999s-10.167 9.16602 -15.5 11.499s-9 3.5 -11 3.5c-6 0 -9.66699 -2.33301 -11 -7l-8 -48c-5.33301 -39.333 -8.66602 -66.666 -9.99902 -81.999s-2 -30.666 -2 -45.999v-15l6 2l18 10c24.667 12 43 24.667 55 38
s18 28.333 18 45s-7.33301 37.667 -22 63z" />
    <glyph glyph-name="percent" unicode="%" horiz-adv-x="966" 
d="M963 263c-4 -46.667 -14.501 -86.834 -31.501 -120.501s-40.833 -63.5 -71.5 -89.5c-24 -20 -48.667 -34.833 -74 -44.5s-51.666 -14.5 -78.999 -14.5c-5.33301 0 -10.833 0.333008 -16.5 1s-10.167 1 -13.5 1c-38 6 -65.5 15 -82.5 27s-28.5 30.333 -34.5 55
c-1.33301 4.66699 -2 8 -2 10c-1.33301 6.66699 -2 13.667 -2 21c0 20 4.33301 45 13 75c3.33301 12.667 8 24.334 14 35.001l22 35c25.333 40.667 51 70.5 77 89.5s60.667 33.833 104 44.5l16 3l33 6c10 2 20 3 30 3c30 0 54 -10 72 -30s27 -48.667 27 -86
c0 -9.33301 -0.333008 -16.333 -1 -21zM748.999 659c-13.333 -32.667 -28.334 -65.0029 -45.001 -97.0029s-42.667 -78.667 -78 -140l-33 -55l-96 -153c-44.667 -70 -69.334 -109.333 -74.001 -118c-8 -14.667 -24 -50.667 -48 -108l-9 -26
c-3.33301 -8 -7.5 -14.167 -12.5 -18.5s-10.333 -7.5 -16 -9.5s-10.5 -3 -14.5 -3c-10.667 0 -19.667 3.33301 -27 10c-2.66699 2 -4 5.33301 -4 10c0 10 6.66699 29 20 57s40.333 78.667 81 152c11.333 23.333 23.333 44 36 62l13 23l76 126
c36 59.333 59.5 99.833 70.5 121.5s28.5 61.834 52.5 120.501l12 37c0.666992 2.66699 2.33398 5.33398 5.00098 8.00098l27 24c16.667 14.667 32.334 20.334 47.001 17.001c13.333 -3.33301 20 -12 20 -26c0 -4 -1 -8.66699 -3 -14zM513.998 572.997
c0 -45.333 -9.66602 -86.335 -28.999 -123.002c-16.667 -31.333 -41.334 -60.666 -74.001 -87.999c-46.667 -38.667 -97 -58 -151 -58h-12c-4 0 -10.667 0.666992 -20 2c-36.667 5.33301 -63.667 14.166 -81 26.499s-29.333 30.5 -36 54.5c-2 8 -3 17.667 -3 29
c0 22.667 4 48.334 12 77.001c3.33301 12.667 15.333 36 36 70c26 41.333 52 71.333 78 90s61 33.334 105 44.001l15 3l33 7c10 2 19.333 3 28 3c30 0 54.167 -10.167 72.5 -30.5s27.5 -48.833 27.5 -85.5c0 -9.33301 -0.333008 -16.333 -1 -21zM900.999 221.995
c0 14.667 -1.33496 27.334 -4.00195 38.001c-11.333 42 -36.666 63 -75.999 63c-8.66699 0 -17.667 -1.33301 -27 -4s-19 -7 -29 -13c-33.333 -18 -55.666 -40.667 -66.999 -68c-8 -17.333 -14 -34.333 -18 -51s-6 -31 -6 -43c0 -12.667 1.33301 -23.334 4 -32.001
c12 -42 33.333 -63 64 -63c20 0 45.333 8.33301 76 25c55.333 32 83 81.333 83 148zM452.997 530.995v14.001c-0.666992 4 -2.33398 12.333 -5.00098 25c-5.33301 20 -14.666 35.333 -27.999 46s-29 16 -47 16c-19.333 0 -38 -5.33301 -56 -16
s-32.167 -21.334 -42.5 -32.001s-18.833 -23 -25.5 -37c-16 -34 -24 -65 -24 -93c0 -13.333 1.33301 -24.333 4 -33c12 -42 33 -63 63 -63c20 0 45.667 8.66699 77 26c56 32 84 81 84 147z" />
    <glyph glyph-name="ampersand" unicode="&#x26;" horiz-adv-x="642" 
d="M611 75l-0.999023 -12.999c-2 -12.667 -7 -24 -15 -34c-5.33301 -7.33301 -14 -11.666 -26 -12.999h-8h-5c-16 0 -32.5 1.5 -49.5 4.5s-38.167 7.83301 -63.5 14.5l-36 12l-10 3l-11 5l-20 -9c-50.667 -24.667 -94.5 -42.834 -131.5 -54.501s-68.5 -17.5 -94.5 -17.5
c-25.333 0 -50.666 5.33301 -75.999 16c-15.333 6 -23 15 -23 27c0 8.66699 3.33301 18.167 10 28.5s17.667 22.5 33 36.5l55 48l68 58l-14 18c-26 39.333 -39 83.666 -39 132.999c0 20.667 2.66699 46 8 76c12 68.667 42.667 131 92 187c38.667 44 76.5 75.667 113.5 95
s79.5 29 127.5 29c74 0 111 -27.667 111 -83c0 -14 -3 -31.833 -9 -53.5s-18.333 -51.5 -37 -89.5c-14.667 -28 -31.334 -54.667 -50.001 -80s-45 -56.333 -79 -93c-28 -29.333 -65.667 -65.333 -113 -108l-20 -17l-19 -16c14 -12.667 28.167 -23.667 42.5 -33
s31.166 -18.333 50.499 -27c14 9.33301 29.333 20.333 46 33c12 8.66699 26.333 19.667 43 33l30 23l5 20l16 8l15 8l16 9l15 6l36 -1l10 -7c1.33301 -10.667 2 -18 2 -22v-11c-1.33301 -4.66699 -2 -8 -2 -10l-2 -13l-38 -30l-49 -36l-51 -34
c14 -3.33301 26.667 -5.33301 38 -6s26.333 -1 45 -1l57 -9zM517.001 626.001c0 18 -4.5 29.499 -13.5 34.499s-28.5 7.5 -58.5 7.5c-20.667 -2 -42.667 -8.83301 -66 -20.5s-47.333 -28.167 -72 -49.5c-28.667 -26 -53.5 -62.833 -74.5 -110.5s-31.5 -92.167 -31.5 -133.5
c0 -40.667 10.333 -77.667 31 -111l15 -21l20 21l22 22l30 35c34 36.667 60.667 67.334 80 92.001c15.333 19.333 31 41.333 47 66c22 34.667 39 65 51 91c10 21.333 16 40 18 56l1 5zM318.001 88l-26.001 17c-18 12 -35.333 27.667 -52 47l-31 -26l-29 -24l-78 -62l7 -10
c12 -1.33301 21.333 -2 28 -2c23.333 0 46.833 3.33301 70.5 10s50.834 18 81.501 34l18 11z" />
    <glyph glyph-name="quotesingle" unicode="'" horiz-adv-x="250" 
d="M292 660c0 -10.667 -2 -20.5 -6 -29.5s-13 -23.833 -27 -44.5c-8 -11.333 -19 -25 -33 -41l-30 -32c-16 -14.667 -32 -27.167 -48 -37.5s-35 -19.5 -57 -27.5l54 114l40 101c14.667 29.333 26 44.666 34 45.999s14.667 2 20 2c15.333 0 28 -4.66699 38 -14
s15 -21.666 15 -36.999z" />
    <glyph glyph-name="parenleft" unicode="(" horiz-adv-x="293" 
d="M366 732c0.666992 -4 1.00195 -8.66895 1.00195 -14.002c0 -13.333 -12 -40.333 -36 -81l-89 -148c-16.667 -28 -30 -63 -40 -105c-12.667 -53.333 -19 -116.666 -19 -189.999c0 -47.333 1.16699 -88.833 3.5 -124.5s6.5 -66.834 12.5 -93.501l13 -67
c1.33301 -11.333 -1.83398 -20.833 -9.50098 -28.5s-18.5 -11.5 -32.5 -11.5c-22.667 2.66699 -40.334 23.334 -53.001 62.001c-14.667 46 -22 118.333 -22 217l3 53c4.66699 45.333 12 89.333 22 132s21 78.334 33 107.001c55.333 133.333 95.333 220.333 120 261
c22 36.667 44.333 55 67 55c17.333 0 26 -8 26 -24z" />
    <glyph glyph-name="parenright" unicode=")" horiz-adv-x="285" 
d="M285 483l-2.99707 -54.9951c-4.66699 -44.667 -12 -88.5 -22 -131.5s-21 -78.833 -33 -107.5c-56 -134 -95.5 -220.167 -118.5 -258.5s-45.833 -57.5 -68.5 -57.5c-6 -0.666992 -11.833 1.16602 -17.5 5.49902s-8.83398 9.83301 -9.50098 16.5v23l126 222
c16.667 31.333 30 67.666 40 108.999c12.667 53.333 19 115.666 19 186.999c0 49.333 -1.16699 90.666 -3.5 123.999s-6.5 64 -12.5 92c-6.66699 24 -11.334 46.667 -14.001 68c-2 10 1 19 9 27s18 12 30 12c23.333 0 42.166 -21.833 56.499 -65.5
s21.5 -113.834 21.5 -210.501z" />
    <glyph glyph-name="asterisk" unicode="*" horiz-adv-x="381" 
d="M426 557c3.33301 -5.33301 5.00293 -11.333 5.00293 -18c0 -11.333 -4.33301 -20.5 -13 -27.5s-16 -10.5 -22 -10.5s-12.667 0.666992 -20 2c-14 3.33301 -24.5 5.66602 -31.5 6.99902s-14.167 2 -21.5 2h-9c-6 -1.33301 -10.333 -2 -13 -2l-5 -1l-7 -2l1 -4l6 -16
c4.66699 -13.333 8.33398 -22.833 11.001 -28.5l8 -16.5c6 -11.333 10.667 -20.666 14 -27.999c6.66699 -14 10 -24 10 -30c0 -6.66699 -6 -14.667 -18 -24c-9.33301 14.667 -18.666 31 -27.999 49s-18.333 37.333 -27 58l-7 21l-3 6l-7 -10l-6 -10
c-6.66699 -10 -14 -22.333 -22 -37c-4.66699 -8.66699 -11.667 -22.667 -21 -42l-14 -32c-13.333 9.33301 -20 19 -20 29c0 5.33301 2 13 6 23s9.66699 22.667 17 38l18 37l3 4l4 7l5 8l-18 -6l-42 -11c-7.33301 -4.66699 -13.333 -8 -18 -10s-13.334 -5.33301 -26.001 -10
c-4.66699 1.33301 -7.66699 3 -9 5c-1.33301 2.66699 -2 6.33398 -2 11.001c0 9.33301 4.66699 18.333 14 27s24.666 16.334 45.999 23.001l38 13l5 1l9 2l11 3l-5 11l-6 8l-24 46c-14.667 25.333 -22 46 -22 62c0 7.33301 0.833008 13.5 2.5 18.5s5.5 11.833 11.5 20.5
c13.333 -3.33301 21.833 -7.83301 25.5 -13.5s11.167 -25.834 22.5 -60.501c4 -14 10.333 -31 19 -51l9 -20l1 -3l6 14l6 10l5 9l21 37c5.33301 10 9.66602 17.167 12.999 21.5s7.66602 8.5 12.999 12.5s11.333 6 18 6c9.33301 0 16.666 -3.83301 21.999 -11.5
s8 -14.167 8 -19.5c0 -12.667 -8.66699 -27.334 -26 -44.001l-13 -12l-23 -22l-4 -4l-4 -4l9 3l6 1l7 1c17.333 2.66699 27.333 4 30 4c6 0.666992 13.667 1 23 1c24.667 0 40.667 -7 48 -21z" />
    <glyph glyph-name="plus" unicode="+" horiz-adv-x="421" 
d="M500 296l-0.999023 -8.99902l-7 -4l-7 -9l-9 -8l-8 -8l-12 -1l-3 2l-9 4c-12 4.66699 -22.333 7 -31 7h-30l-18 -1l1 -27l4 -71l8 -17l-31 -36h-10c-18.667 8 -36.334 18.333 -53.001 31l-4 16l1 15l3 85c-12 -1.33301 -19.667 -2.33301 -23 -3
c-2 -0.666992 -8 -3 -18 -7l-4 -2l-23 -10l-17 -8l-36 31v10c3.33301 8.66699 6.33301 15 9 19c2 3.33301 9.33301 13.333 22 30l16 4l15 3l61 8l1 51v8l-1 35l17 17l28 4l9 -1c9.33301 -2 18.333 -9 27 -21c1.33301 -2 3.33301 -5.33301 6 -10l1 -12l-2 -3l-4 -9
c-6 -12.667 -9 -23.334 -9 -32.001c0 -3.33301 0.333008 -7.33301 1 -12s1 -9 1 -13l75 -2h8l35 1l17 -17z" />
    <glyph glyph-name="comma" unicode="," horiz-adv-x="249" 
d="M201 66c0 -10 -1.99609 -19.501 -5.99609 -28.501s-13.333 -24.167 -28 -45.5c-12 -19.333 -32.667 -43.666 -62 -72.999c-16 -14.667 -32 -27.167 -48 -37.5s-35 -19.5 -57 -27.5c7.33301 14.667 15.666 28.5 24.999 41.5s24.666 31.833 45.999 56.5
c2.66699 3.33301 5.33398 8.33301 8.00098 15c5.33301 12.667 8.33301 20.667 9 24c-20 9.33301 -30 23.666 -30 42.999c0 17.333 8.33301 34.666 25 51.999c7.33301 8.66699 15.166 15.334 23.499 20.001s16.166 7.83398 23.499 9.50098s13.666 2.5 18.999 2.5
c14.667 0 27 -4.66699 37 -14s15 -22 15 -38z" />
    <glyph glyph-name="hyphen" unicode="-" horiz-adv-x="362" 
d="M403 286c3.33301 -11.333 5 -19.999 5 -25.999c0 -14.667 -4.33301 -24.334 -13 -29.001l-41 7c-6 0.666992 -12.667 1.16699 -20 1.5s-16.333 0.5 -27 0.5h-29c-18.667 0 -37.334 -1.66699 -56.001 -5c-4.66699 -0.666992 -22.334 -5 -53.001 -13l-25 -5
c-7.33301 10.667 -11 20 -11 28c0 22.667 27.333 41.667 82 57l18 4c18.667 4.66699 36.334 7 53.001 7h7l47 -2c20 0 34.833 -2.16699 44.5 -6.5s15.834 -10.5 18.501 -18.5z" />
    <glyph glyph-name="period" unicode="." horiz-adv-x="235" 
d="M186 59c0 -18.667 -5.66797 -34.6689 -17.001 -48.002s-26 -22.666 -44 -27.999c-7.33301 -2 -14.333 -3 -21 -3c-15.333 0 -28.166 4.33301 -38.499 13s-16.166 20.334 -17.499 35.001c0 9.33301 3.16699 18.833 9.5 28.5s15.333 21.5 27 35.5s24.167 25.667 37.5 35
c7.33301 4.66699 13.666 7 18.999 7c18.667 0 32.667 -11.667 42 -35c2 -8 3 -12.667 3 -14c0.666992 -4 1 -9.33301 1 -16c0 -4.66699 -0.333008 -8 -1 -10z" />
    <glyph glyph-name="slash" unicode="/" horiz-adv-x="298" 
d="M335 694c1.33301 -5.33301 1.99902 -9.33594 1.99902 -12.0029c0 -11.333 -3.16699 -25.666 -9.5 -42.999s-20.833 -52 -43.5 -104l-49 -159l-49 -154l-26.5 -84.5c-9 -28.333 -14.167 -46.166 -15.5 -53.499l-17.5 -68c-5.66699 -21.333 -10.5 -37.666 -14.5 -48.999
c-8 -20.667 -22.333 -31 -43 -31c-9.33301 0 -18.333 3.33301 -27 10c-4 3.33301 -6 8 -6 14c0 8 3 21 9 39s17 46.333 33 85l39 147l18 67c6.66699 24 15 51 25 81c28 94 47 159.667 57 197c8 30.667 14.667 59 20 85c0.666992 2 2.66699 4.66699 6 8l26 25
c7.33301 7.33301 14.833 12 22.5 14s13.5 3 17.5 3c12.667 0 21.334 -5.66699 26.001 -17z" />
    <glyph glyph-name="zero" unicode="0" horiz-adv-x="562" 
d="M590 337c-12 -79.333 -37.501 -147.001 -76.501 -203.001s-84.5 -94.333 -136.5 -115c-16 -6.66699 -33 -11.667 -51 -15s-35 -5 -51 -5c-46 0 -85.667 12 -119 36s-55.666 56 -66.999 96c-8 28 -12 58.333 -12 91c0 32 3.33301 72.667 10 122c0 13.333 1 25.333 3 36
s6 25.334 12 44.001l4 16l46 159c12 40.667 21.167 66.5 27.5 77.5s15.5 18.5 27.5 22.5h15l6 -8l-4 -17c-2 -6 -3 -16 -3 -30c27.333 19.333 57 32.5 89 39.5s60 10.5 84 10.5c64 0 114 -22 150 -66s54 -108 54 -192c0 -27.333 -2.66699 -60.333 -8 -99zM496.999 421.999
c0 66 -13.167 116.333 -39.5 151s-61.5 52 -105.5 52c-18 0 -37.333 -3 -58 -9s-37.5 -12.5 -50.5 -19.5s-24.833 -16.167 -35.5 -27.5c-8 -27.333 -14.5 -54.333 -19.5 -81s-9.66699 -56.834 -14 -90.501s-6.5 -62.167 -6.5 -85.5v-26c1.33301 -7.33301 2 -12.333 2 -15
c0 -30 2 -54 6 -72s10.5 -37.667 19.5 -59s23.167 -38.666 42.5 -51.999s41 -20 65 -20c22 0 44 6 66 18c36.667 19.333 67.167 58 91.5 116s36.5 131.333 36.5 220z" />
    <glyph glyph-name="one" unicode="1" horiz-adv-x="562" 
d="M474 671c0 -55.333 -3.66602 -109.167 -10.999 -161.5s-20.333 -117.5 -39 -195.5c-12 -56.667 -28.333 -118 -49 -184c-9.33301 -31.333 -15.833 -54 -19.5 -68s-6.33398 -25.667 -8.00098 -35s-6 -16.666 -13 -21.999s-18.5 -10 -34.5 -14c-8 -2 -15.667 -3 -23 -3
c-4.66699 0 -11 0.666992 -19 2l13 52l19 69c28 115.333 47.667 207.166 59 275.499s17 135.5 17 201.5c-24 -10 -47.167 -22.833 -69.5 -38.5s-49.833 -38.5 -82.5 -68.5l-28 -26l-22 16c14.667 18 28 33.667 40 47s29 30.333 51 51l31 30l19 17l26 24l23 19l39 36
c7.33301 7.33301 18 11 32 11c2.66699 0 8 -0.666992 16 -2c16 -6 27 -17 33 -33z" />
    <glyph glyph-name="two" unicode="2" horiz-adv-x="563" 
d="M563 65c0 -8 -2.66602 -15.168 -7.99902 -21.501s-14 -11.166 -26 -14.499l-79 -25l-72 -14c-15.333 -2.66699 -32.333 -4 -51 -4c-10 0 -27 0.333008 -51 1s-39.667 1 -47 1l-41 3c-20.667 3.33301 -35.667 6.33301 -45 9s-17 5.66699 -23 9
c-15.333 8 -23 20.333 -23 37c0 10 3.66699 19.667 11 29l47 57l32 32l29 29l69 70l44 46c20.667 21.333 37 39.333 49 54c10 12 18 23.333 24 34c20.667 33.333 31 63 31 89c0 23.333 -7.83301 42.333 -23.5 57s-39.167 25 -70.5 31c-17.333 3.33301 -32 5.33301 -44 6
s-26.333 1 -43 1c-31.333 0 -51.833 -2.66699 -61.5 -8s-20.834 -19 -33.501 -41l-20 -38l-4 -8c-12.667 19.333 -19 40.333 -19 63c0 18 3.5 35.167 10.5 51.5s18 31.666 33 45.999s32.667 23 53 26s61.833 4.5 124.5 4.5c20 -2 37 -4.5 51 -7.5s28 -7.83301 42 -14.5
c35.333 -15.333 60.333 -31.333 75 -48s22 -38.334 22 -65.001c0 -18 -2.33301 -36.667 -7 -56c-8 -42 -35.333 -93.667 -82 -155c-12 -15.333 -24 -29.666 -36 -42.999c-16 -18.667 -35 -39 -57 -61c-50 -50.667 -86.667 -92.667 -110 -126l9 -4l9 -3
c19.333 -6.66699 46 -12 80 -16c20 -3.33301 38 -5.66602 54 -6.99902s29.333 -2 40 -2h13c6 0 11.667 0.666992 17 2l90 16c10 4 16 -3.33301 18 -22z" />
    <glyph glyph-name="three" unicode="3" horiz-adv-x="565" 
d="M529 164c-23.333 -24.667 -50.6631 -46.332 -81.9961 -64.999c-34.667 -21.333 -81 -43.333 -139 -66l-28 -11c-21.333 -6.66699 -39.333 -11.667 -54 -15s-27.334 -5 -38.001 -5c-12.667 0 -23 2.5 -31 7.5s-14.667 12.833 -20 23.5l32 13l70 30
c40 20 69.333 36.333 88 49s42 31 70 55c21.333 16.667 32 33.334 32 50.001c0 14 -8 25.667 -24 35c-28.667 18 -51.834 28.167 -69.501 30.5s-30.167 4.66602 -37.5 6.99902s-16.333 6.33301 -27 12s-16 15.167 -16 28.5c0 9.33301 3.33301 18.666 10 27.999
c4 6 11.667 16.333 23 31c7.33301 10 15 19.333 23 28l57 65c23.333 25.333 37.333 41.5 42 48.5s9 17.167 13 30.5c-24 7.33301 -48 11 -72 11c-10.667 0 -22 -1 -34 -3l-19 -2l-36 -5l-50 -6c-4.66699 -0.666992 -9.5 -1.16699 -14.5 -1.5s-8.5 -0.5 -10.5 -0.5
c-20.667 0 -35.334 10 -44.001 30c-4 9.33301 -6 18 -6 26c0 14.667 5.16699 27.167 15.5 37.5s23.166 15.5 38.499 15.5h85l92 -5h4c12.667 -1.33301 24.167 -2.66602 34.5 -3.99902s24.5 -4 42.5 -8c52.667 -12 79 -35 79 -69c0 -13.333 -5 -27 -15 -41
c-11.333 -18 -21.833 -32.833 -31.5 -44.5s-26.167 -29.834 -49.5 -54.501l-18 -19l-34 -33c-8.66699 -9.33301 -14 -21 -16 -35c6 -3.33301 15.833 -8 29.5 -14s21.167 -9.33301 22.5 -10l3 -2l54 -21l28 -12c40 -18 60 -42.333 60 -73c0 -11.333 -2.5 -22.333 -7.5 -33
s-13.167 -22 -24.5 -34z" />
    <glyph glyph-name="four" unicode="4" horiz-adv-x="563" 
d="M545 276c2 -12.667 -0.99707 -22.666 -8.99707 -29.999s-26.333 -16 -55 -26l-31 -12l-3 -15l-8 -49l-9 -64l1 -61c0.666992 -4 -2 -8.33301 -8 -13s-17 -9.66699 -33 -15l-13 -3c-2 19.333 -3 38.333 -3 57c0 27.333 1.33301 50 4 68s4.66699 32 6 42l3 20l3 17l-24 -5
c-46.667 -9.33301 -86 -14 -118 -14c-24 0 -44.5 1.66699 -61.5 5s-33.833 8.66602 -50.5 15.999c-4.66699 14.667 -7 29.334 -7 44.001c0 16.667 3.33301 40.334 10 71.001l13 75l6 29c8 39.333 15.667 73.666 23 102.999c5.33301 21.333 14 51 26 89l-1 6
c-0.666992 4.66699 -1.33398 9 -2.00098 13v10c0 12 4 22 12 30c24 22 44.333 36.833 61 44.5s30 10.167 40 7.5c7.33301 -2 12.666 -6.16699 15.999 -12.5s4 -12.5 2 -18.5l-47 -91c-4.66699 -8.66699 -9.33398 -19 -14.001 -31l-29 -79
c-22 -58.667 -35.5 -98.5 -40.5 -119.5l-12 -49.5c-3 -12 -4.5 -21 -4.5 -27c0 -10.667 3.66699 -17.167 11 -19.5s23.333 -3.5 48 -3.5l72 -4l82 1v12l1 3l3 64l2 36l1 14c7.33301 58.667 12.5 94.834 15.5 108.501s7.83301 20.5 14.5 20.5c9.33301 -2 18 -3 26 -3
c16.667 0 26.334 -0.333008 29.001 -1c6 -1.33301 9 -5.66602 9 -12.999c0 -4.66699 -1.33301 -11.334 -4 -20.001c-4.66699 -14 -8 -24.333 -10 -31s-4.33301 -16.834 -7 -30.501s-5 -26.834 -7 -39.501l-6 -38l-2 -20l-5 -28l-1 -12l-1 -6v-10l37 10l34 17
c4 0 6.66699 -0.333008 8 -1c3.33301 -4.66699 5.66602 -10.667 6.99902 -18z" />
    <glyph glyph-name="five" unicode="5" horiz-adv-x="567" 
d="M525 659c-5.33301 -15.333 -13.4951 -26.499 -24.4951 -33.499s-30.5 -12.5 -58.5 -16.5l-30 -4l-15 -2l-87 -12c-28.667 0 -46.334 -3.66699 -53.001 -11s-13 -30.666 -19 -69.999c-1.33301 -9.33301 -2 -16.333 -2 -21c0 -15.333 3.66699 -31.333 11 -48
c47.333 -16.667 91.666 -37.667 132.999 -63c35.333 -18.667 62.666 -36.667 81.999 -54c56.667 -44.667 85 -87 85 -127c0 -40.667 -29 -77 -87 -109c-41.333 -23.333 -76 -39.333 -104 -48c-32.667 -11.333 -61.5 -20 -86.5 -26s-45.833 -9 -62.5 -9
c-16 0 -30.5 2.16699 -43.5 6.5s-28.5 11.833 -46.5 22.5c-4 2 -12.667 8 -26 18c0 14.667 3.66699 23 11 25l92 14c20.667 2.66699 44.5 9 71.5 19s61.333 25.5 103 46.5s62.5 43.5 62.5 67.5c0 11.333 -4.33301 21.666 -13 30.999c-6 6.66699 -12.333 13 -19 19
c-8.66699 8 -16.334 14.333 -23.001 19c-28.667 20 -49.167 33.667 -61.5 41s-35.5 18.666 -69.5 33.999l-23 11c-30.667 16.667 -51.834 32 -63.501 46s-17.5 32 -17.5 54c0 11.333 1 24 3 38c0 11.333 4.33301 28 13 50c18.667 50.667 28.667 77 30 79
c8 14.667 32.667 25 74 31l40 6l18 3c22.667 2.66699 44.5 5 65.5 7s43.5 3 67.5 3h63c3.33301 0 6.33301 -2.16699 9 -6.5s4 -9.83301 4 -16.5c0 -4 -1 -8.66699 -3 -14z" />
    <glyph glyph-name="six" unicode="6" horiz-adv-x="563" 
d="M532 62c-15.333 -24 -35.6689 -42.167 -61.002 -54.5s-55.666 -18.5 -90.999 -18.5c-28 0 -56.333 3.66699 -85 11c-56 13.333 -99.667 37.166 -131 71.499s-52.333 82.166 -63 143.499c-2 12.667 -3.66699 25 -5 37s-2 24 -2 36c0 95.333 38 185 114 269l29 30
c10.667 10.667 17.667 17.334 21 20.001c71.333 56 115.166 89.333 131.499 100s28.833 14.334 37.5 11.001c10 -4.66699 15 -11 15 -19c0 -16 -19 -43 -57 -81c-8 -6.66699 -19.167 -18.167 -33.5 -34.5l-38.5 -44.5c-22 -26 -41 -50.833 -57 -74.5
s-28.333 -44.5 -37 -62.5c-32 -68.667 -48 -126.334 -48 -173.001c0 -32.667 7.83301 -60 23.5 -82s38.834 -39.667 69.501 -53c13.333 -5.33301 28.5 -9.33301 45.5 -12s34.167 -4 51.5 -4c29.333 0 52.5 8.16699 69.5 24.5s25.5 36.833 25.5 61.5
c0 6.66699 -1.16699 14.5 -3.5 23.5s-6.16602 19.333 -11.499 31s-13.666 26.5 -24.999 44.5c-34 56 -66.333 94 -97 114c-20.667 14 -33.334 22.333 -38.001 25s-8.66699 4.66699 -12 6c-1.33301 2 -2.33301 3.66699 -3 5c-0.666992 0.666992 -1.66699 4.33398 -3 11.001
c22 0 42 -3.33301 60 -10s46.333 -22.667 85 -48c24 -14.667 44.667 -30.667 62 -48c61.333 -59.333 92 -115 92 -167c0 -31.333 -10 -61 -30 -89z" />
    <glyph glyph-name="seven" unicode="7" horiz-adv-x="565" 
d="M521 395c-7.33301 -25.333 -23.999 -67.667 -49.999 -127l-29 -58l-6 -12l-59 -107l-16 -30l-35 -61c-15.333 -28 -32.333 -42 -51 -42c-6.66699 0 -13 1.33301 -19 4c12 48 26.667 93 44 135c0.666992 2 28.667 69.667 84 203c21.333 52.667 36 93.5 44 122.5
s12 59.5 12 91.5c-9.33301 9.33301 -18.833 16.166 -28.5 20.499s-26.5 9.16602 -50.5 14.499l-71 14l-40 8l-34 6l-57 14l-18 26c-9.33301 13.333 -15.833 23.833 -19.5 31.5s-5.5 14.834 -5.5 21.501s3 14.667 9 24c51.333 -8 96.166 -16.5 134.499 -25.5
s73 -18.5 104 -28.5s55.833 -19.667 74.5 -29c38 -18 64.5 -35.167 79.5 -51.5s22.5 -38.166 22.5 -65.499c0 -11.333 -1.66699 -25.333 -5 -42s-8 -35.667 -14 -57z" />
    <glyph glyph-name="eight" unicode="8" horiz-adv-x="562" 
d="M566 532c-10.667 -28 -26.168 -55.667 -46.501 -83s-52.5 -62.333 -96.5 -105l-30 -29l11 -8l17 -13l29 -27c38 -38 57 -77.667 57 -119c0 -56.667 -32.667 -101.334 -98 -134.001c-14 -6.66699 -28.5 -11.5 -43.5 -14.5s-30.833 -4.5 -47.5 -4.5c-21.333 0 -41 4 -59 12
s-34.667 19.333 -50 34c-28.667 28.667 -43 58 -43 88c0 42 27.333 88.333 82 139l24 23l8 7l-19 11c-37.333 22.667 -65.5 48 -84.5 76s-28.5 57 -28.5 87c0 48.667 24.333 91.334 73 128.001c4.66699 4 10.167 7.66699 16.5 11s11.166 5.66602 14.499 6.99902
c6 -4.66699 9.66699 -10 11 -16l-22 -45c-8 -14 -12 -30 -12 -48c0 -19.333 5.16699 -40 15.5 -62s26.166 -44 47.499 -66l11.5 -11c3.66699 -3.33301 8.5 -7.33301 14.5 -12l15 11l10 9l55 58l19 21c38.667 46 63.667 78.5 75 97.5s17 39.167 17 60.5
c0 7.33301 -0.333008 13.333 -1 18c-15.333 16.667 -33.166 28.667 -53.499 36s-52.5 11 -96.5 11h-41c-11.333 0 -20.333 -0.666992 -27 -2l-58 -11c-4 -2 -7.66699 -1.66699 -11 1c-4 2.66699 -9.66699 9 -17 19c14.667 12.667 29.334 23.167 44.001 31.5s32 16.5 52 24.5
c18.667 6 37.167 10.167 55.5 12.5s38.833 3.5 61.5 3.5c48.667 0 87.834 -15.5 117.501 -46.5s44.5 -68.833 44.5 -113.5c0 -10.667 -1 -21.667 -3 -33s-5.33301 -22.666 -10 -33.999zM392.999 212l-20 23c-3.33301 3.33301 -9 8.33301 -17 15l-13 10
c-14.667 -11.333 -36.667 -35.666 -66 -72.999c-6 -7.33301 -11 -14 -15 -20l-13 -22c-4.66699 -8.66699 -7 -18.334 -7 -29.001c0 -31.333 16.333 -53.666 49 -66.999c10 -4 21 -6 33 -6c12.667 0 24.667 2.33301 36 7c42.667 16 64 43.667 64 83
c0 25.333 -10.333 51.666 -31 78.999z" />
    <glyph glyph-name="nine" unicode="9" horiz-adv-x="565" 
d="M550 455l-24.0049 -107.999c-5.33301 -21.333 -10.666 -40.333 -15.999 -57c-2.66699 -8.66699 -8.66699 -26.667 -18 -54l-3 -8l-43 -107c-20 -51.333 -37.833 -87.333 -53.5 -108s-31.5 -31 -47.5 -31c-6.66699 0 -13.667 1.66699 -21 5
s-9.66602 7.66602 -6.99902 12.999l60 112c8.66699 15.333 16.5 34.833 23.5 58.5s14.667 59 23 106s12.5 85.833 12.5 116.5v10v13l-24 -13c-34.667 -20.667 -67.667 -35.334 -99 -44.001s-61.666 -13 -90.999 -13c-33.333 0 -59.666 8.33301 -78.999 25s-29 36.667 -29 60
c0 8 2.16699 17.833 6.5 29.5s12 24.834 23 39.501s28.833 33.667 53.5 57c10.667 10.667 22.5 21 35.5 31s28.5 20.667 46.5 32c84 52.667 146.333 79 187 79c18.667 0 34.667 -5 48 -15s20 -21.667 20 -35c0 -2 -0.666992 -5 -2 -9l-131 -42
c-17.333 -5.33301 -37.166 -15.166 -59.499 -29.499s-46.166 -33.833 -71.499 -58.5c-21.333 -20.667 -36 -37 -44 -49s-12 -23.333 -12 -34c0 -23.333 10.333 -35 31 -35c7.33301 0 15.333 1.33301 24 4s22.667 8 42 16c26 10 66.333 38.333 121 85l22 20l51 56
c4 6 10.333 9 19 9c2 0 6.66699 -0.833008 14 -2.5s13.166 -5.83398 17.499 -12.501s6.5 -17 6.5 -31c0 -16.667 -4 -43.667 -12 -81z" />
    <glyph glyph-name="colon" unicode=":" horiz-adv-x="258" 
d="M244 328c0.666992 -3.33301 0.99707 -7.99805 0.99707 -13.998c0 -8.66699 -1 -16.667 -3 -24c-10 -40 -34.333 -62.667 -73 -68c-20 -2 -36.333 2.66699 -49 14s-19 25.666 -19 42.999c0 7.33301 3 15 9 23s17.667 19.667 35 35c15.333 12 24 18.667 26 20
c8.66699 4 15.334 7.16699 20.001 9.5s9 3.5 13 3.5c8.66699 0 16.834 -3.83301 24.501 -11.5s12.834 -17.834 15.501 -30.501zM204.997 89.002c1.33301 -8 2.00293 -13.666 2.00293 -16.999c0 -7.33301 -1 -15 -3 -23c-4.66699 -18 -13.334 -32.667 -26.001 -44
s-28 -18.333 -46 -21c-19.333 -2.66699 -35.666 1.66602 -48.999 12.999s-20 25.666 -20 42.999c0 6.66699 3.16699 14.334 9.5 23.001s17.833 20 34.5 34c10.667 8.66699 17.667 14 21 16c7.33301 4.66699 14.166 8.66699 20.499 12s12.166 5 17.499 5
c9.33301 0 17.666 -3.66699 24.999 -11s12 -17.333 14 -30z" />
    <glyph glyph-name="semicolon" unicode=";" horiz-adv-x="288" 
d="M270 328c1.33301 -6.66699 2 -12.3301 2 -16.9971c0 -6.66699 -1 -13.667 -3 -21c-10 -40 -34 -62.667 -72 -68c-20 -2 -36.667 2.66699 -50 14s-20 25.666 -20 42.999c0 6.66699 3.16699 14.167 9.5 22.5s18.166 20.166 35.499 35.499
c14.667 11.333 29.334 21 44.001 29c6.66699 2.66699 11.667 4 15 4c8.66699 0 16.667 -3.83301 24 -11.5s12.333 -17.834 15 -30.501zM242 66.0039c0 -10 -2.16895 -20.0029 -6.50195 -30.0029s-13.166 -24.667 -26.499 -44c-6 -10 -14 -20.667 -24 -32
s-22.833 -24.666 -38.5 -39.999s-31.5 -28 -47.5 -38s-35 -19.333 -57 -28c8 16.667 16.333 31.167 25 43.5s24 30.5 46 54.5c2 2 4 5.66699 6 11c4.66699 10 8.33398 19.333 11.001 28c-20 9.33301 -30 24 -30 44c0 9.33301 1.83301 18 5.5 26s9.66699 16.333 18 25
s16.666 15.334 24.999 20.001s16 7.83398 23 9.50098s13.5 2.5 19.5 2.5c14.667 0 26.834 -4.83301 36.501 -14.5s14.5 -22.167 14.5 -37.5z" />
    <glyph glyph-name="less" unicode="&#x3c;" horiz-adv-x="777" 
d="M783 49l-52.001 -35.998h-16h-14c-14 0 -30 3.33301 -48 10c-57.333 21.333 -90 32.666 -98 33.999c-35.333 7.33301 -97.666 27.666 -186.999 60.999c-30 10.667 -71.667 27 -125 49l-26 16c-12.667 8.66699 -23.334 16.5 -32.001 23.5s-16 13.5 -22 19.5
c-32 30 -48 50.667 -48 62c0 10 36 40.667 108 92l124 79c48.667 32.667 106.334 63.667 173.001 93c72 32 139 54.667 201 68l47 -16c0.666992 -4 1 -10.333 1 -19v-19c-1.33301 -6 -2 -10 -2 -12l-17 -19c-5.33301 0.666992 -9.33301 1 -12 1
c-40.667 0 -101.5 -14.5 -182.5 -43.5s-147.5 -59.5 -199.5 -91.5l-36 -24l-81 -48l-8 -6l-15 -13c-8 -8 -17.333 -15 -28 -21c-6.66699 -4 -10 -6.33301 -10 -7s1.33301 -2 4 -4c16.667 -10.667 28 -18.667 34 -24l16 -13l7 -5l514 -142l19 -10z" />
    <glyph glyph-name="equal" unicode="=" horiz-adv-x="421" 
d="M476 376l-1.00195 -9.00098l-7 -8l-7 -9l-9 -8l-8 -8l-12 -1l-3 2l-9 4c-4 2 -10.833 3.33301 -20.5 4s-21.167 1 -34.5 1c-12 0 -23 -0.166992 -33 -0.5s-19 -0.833008 -27 -1.5h-21l-25 -1h-20c-9.33301 0 -18 -1.33301 -26 -4l-4 -2l-23 -10l-17 -8l-30 25v10
c8 18.667 18.333 36.334 31 53.001l16 4l15 3c14.667 2.66699 30.334 5.16699 47.001 7.5s32.334 3.5 47.001 3.5h8l109 -3h8l35 1l17 -17zM475.998 213.999l-1.00195 -9l-7 -8l-7 -9l-9 -8l-8 -8l-12 -1l-3 2l-9 4c-12 4.66699 -22.333 7 -31 7h-30h-58h-21l-25 -1
c-10 -0.666992 -15.667 -1.33398 -17 -2.00098c-5.33301 -1.33301 -13 -4 -23 -8l-4 -2l-23 -10l-17 -8l-36 31v10c8 18.667 18.333 36.334 31 53.001l16 4l15 3c14.667 2.66699 30.334 5.16699 47.001 7.5s32.334 3.5 47.001 3.5h8l113 -7h8l35 1l17 -17z" />
    <glyph glyph-name="greater" unicode="&#x3e;" horiz-adv-x="777" 
d="M765 226c-4 -4 -15.668 -11 -35.001 -21c-13.333 -6.66699 -22.666 -12 -27.999 -16l-59 -31c-47.333 -19.333 -84.333 -34 -111 -44c-80.667 -30.667 -138.667 -49.667 -174 -57c-11.333 -2 -40 -13 -86 -33c-16.667 -7.33301 -31.667 -11 -45 -11h-14h-16l-52 36l11 35
l52 10l504 160c15.333 4.66699 23 9 23 13c0 3.33301 -2.33301 8 -7 14s-13 14.667 -25 26l-15 13l-8 6l-81 48l-36 24c-52 32 -117.5 63 -196.5 93s-137.833 45 -176.5 45c-5.33301 -0.666992 -9.33301 -1 -12 -1l-17 19c-0.666992 8 -1.16699 14.833 -1.5 20.5
s-0.5 10.5 -0.5 14.5c0 6.66699 0.333008 11.667 1 15l47 16c60 -13.333 125.333 -36.333 196 -69c60 -28 116.333 -59.667 169 -95l124 -79c2.66699 -2 25.667 -17.333 69 -46c30 -20 45 -35.333 45 -46c0 -11.333 -15 -31 -45 -59z" />
    <glyph glyph-name="question" unicode="?" horiz-adv-x="460" 
d="M496 553c4 -18 6 -33.6631 6 -46.9961c0 -24.667 -7 -47.167 -21 -67.5s-39.667 -45.5 -77 -75.5l-25 -19c-41.333 -34.667 -70.5 -62.834 -87.5 -84.501s-30.167 -46.834 -39.5 -75.501c-4.66699 0 -8 0.666992 -10 2c-14.667 6 -22 15.333 -22 28
c0 11.333 5.83301 26.5 17.5 45.5s31.167 44.5 58.5 76.5l6 7l18 18l35 34l22.5 25.5c7.66699 9 14.167 18.167 19.5 27.5c10.667 17.333 16 36.333 16 57c0 25.333 -7.83301 47.833 -23.5 67.5s-37.167 32.167 -64.5 37.5c-10.667 1.33301 -18.667 2 -24 2
c-26.667 0 -53 -7 -79 -21c-21.333 -12 -36.333 -23.833 -45 -35.5s-13 -26.167 -13 -43.5v-20v-8c0 -4.66699 -2 -9.33398 -6 -14.001s-8.66699 -7 -14 -7c-4 0 -7.33301 1.33301 -10 4c-5.33301 3.33301 -10 12.333 -14 27c-1.33301 6 -2.33301 10.667 -3 14
c-0.666992 4 -1 10 -1 18c0 15.333 1.33301 28.666 4 39.999l6 26c25.333 80 76.666 120 153.999 120c12 0 25 -1 39 -3c48 -6.66699 87.333 -23.667 118 -51s50.334 -62.333 59.001 -105zM293 59.0039c-2 -18 -8.50098 -33.832 -19.501 -47.499
s-24.833 -23.167 -41.5 -28.5c-7.33301 -2 -14.333 -3 -21 -3c-15.333 0 -28.5 4.5 -39.5 13.5s-16.5 21.167 -16.5 36.5c0 6.66699 2.16699 14.167 6.5 22.5s13.833 21.166 28.5 38.499c10.667 13.333 23.334 25.333 38.001 36c7.33301 4.66699 13.666 7 18.999 7
c18.667 0 32.334 -11.667 41.001 -35c4 -9.33301 6 -19.333 6 -30c0 -4.66699 -0.333008 -8 -1 -10z" />
    <glyph glyph-name="at" unicode="@" horiz-adv-x="800" 
d="M721 351c0 -52.667 -14.6689 -100.665 -44.002 -143.998c-34 -50 -76.667 -75 -128 -75c-26.667 0 -46.5 5.5 -59.5 16.5s-19.5 26.833 -19.5 47.5c-16 -19.333 -33.5 -34.833 -52.5 -46.5s-38.833 -17.5 -59.5 -17.5c-18.667 0 -36 5.66699 -52 17
c-24.667 18 -37 45.667 -37 83c0 49.333 16 99 48 149c36.667 56.667 79.667 85 129 85c22.667 0 39.834 -4.66699 51.501 -14s18.5 -20.666 20.5 -33.999l10 37h62l-58 -227c-4 -14 -6 -25.667 -6 -35c0 -11.333 3 -20.333 9 -27s15.667 -10 29 -10
c40.667 0 73.667 22 99 66c22.667 38.667 34 81.334 34 128.001c0 58.667 -24.333 113.334 -73 164.001c-55.333 57.333 -124.666 86 -207.999 86c-80 0 -145.333 -28 -196 -84c-52.667 -58.667 -79 -137.334 -79 -236.001c0 -70.667 25.333 -132.334 76 -185.001
c54.667 -56.667 125 -85 211 -85c62.667 0 122.667 15.333 180 46l13 -19c-28.667 -16.667 -60.167 -29.334 -94.5 -38.001s-67.833 -13 -100.5 -13c-110.667 0 -198.667 35 -264 105c-55.333 59.333 -83 125.666 -83 198.999c0 98 32.833 178.167 98.5 240.5
s145.167 93.5 238.5 93.5c86.667 0 159.167 -25.833 217.5 -77.5s87.5 -116.834 87.5 -195.501zM505.998 372.002c0 42.667 -14 64 -42 64c-28.667 0 -56.667 -16.333 -84 -49c-32.667 -39.333 -49 -87.333 -49 -144c0 -25.333 5.5 -43.833 16.5 -55.5
s26.5 -17.5 46.5 -17.5c22.667 0 46 18.333 70 55c28 42 42 91 42 147z" />
    <glyph glyph-name="A" unicode="A" horiz-adv-x="512" 
d="M506 390c0 -19.333 -8.33301 -29.0049 -25 -29.0049v-35l-1 -34l-1 -44l-1 -38l-1 -20l-2 -61l-2 -61l-1 -11l-3 -48c-6 -12 -17.333 -19 -34 -21c0 26.667 -0.666992 48.667 -2 66c-3.33301 30 -5.66602 54.333 -6.99902 73l-1 12l-6 67l-2 12l-4 62l-2 20l-5 45l-27 -7
l-23 -9l-46 -13l-50 -16l-27 -10l-25 -8l-6 -28l-6 -26l-12 -56l-26 -118l-13 -62c-1.33301 -13.333 -12.666 -23.333 -33.999 -30c-4.66699 -2 -10.334 -2.33301 -17.001 -1c-9.33301 3.33301 -13.333 8.33301 -12 15l5 28.5
c1.33301 7.66699 2.66602 14.334 3.99902 20.001s3.66602 17.834 6.99902 36.501c8.66699 52.667 16.334 101.667 23.001 147l2 10l9 47l-8 -4c-8.66699 -4.66699 -16 -7 -22 -7c-8.66699 0 -13.667 3.66699 -15 11l1 25l1 10l5 28c3.33301 16 7.83301 26.333 13.5 31
s18.167 7 37.5 7c1.33301 0.666992 2 1.66699 2 3c4 10 6 26.667 6 50c0 6.66699 0.333008 12.334 1 17.001c3.33301 15.333 6.33301 30.333 9 45l5 33c7.33301 36.667 15 67.5 23 92.5s17 48.167 27 69.5l-10 23l33 8l17 14l36 10c13.333 4.66699 24.666 7 33.999 7
c16.667 0 25 -8 25 -24c0 -9.33301 -4 -16.666 -12 -21.999l15 -5l23 -9l17 -6c30 -12 47.833 -21.333 53.5 -28s10.834 -24.667 15.501 -54l7 -50l2 -17l2 -35l3 -44c0 -21.333 0.666992 -33.333 2 -36c2 -3.33301 8.66699 -5.66602 20 -6.99902
c3.33301 -3.33301 5 -7 5 -11zM401 391.995c0 13.333 -0.831055 27.502 -2.49805 42.502s-4.83398 36.167 -9.50098 63.5c-8.66699 46 -15.334 73.5 -20.001 82.5s-19.334 19.167 -44.001 30.5l-21 11l-25 -61l-9 -23l-7 -23l-8 -32l-12 -39l-4 -18l-8 -28l-9 -27l47 4
c38 3.33301 62.333 5.66602 73 6.99902s30.334 4.66602 59.001 9.99902z" />
    <glyph glyph-name="B" unicode="B" horiz-adv-x="555" 
d="M539 489c-26.667 -26.667 -60.832 -50.666 -102.499 -71.999s-96.167 -41 -163.5 -59l-18 -5l-16 -3l16 -3l17 -3c17.333 -3.33301 35.666 -7.5 54.999 -12.5s41.333 -11.833 66 -20.5c32 -12.667 57.167 -24.667 75.5 -36s34.5 -25 48.5 -41
c18 -21.333 27 -43.666 27 -66.999c0 -36.667 -20.333 -66.334 -61 -89.001c-8.66699 -5.33301 -20.167 -10.666 -34.5 -15.999s-32.5 -11.333 -54.5 -18c-44.667 -12 -98 -21 -160 -27l-36 -2c-1.33301 -7.33301 -3 -12.333 -5 -15
c-4.66699 -6.66699 -9.83398 -11.5 -15.501 -14.5s-11.834 -4.5 -18.501 -4.5c-8.66699 0 -16 2.5 -22 7.5s-9.66699 12.167 -11 21.5c-5.33301 -2 -10 -3 -14 -3c-15.333 0 -26.666 6.66699 -33.999 20l10 11c12.667 8 25.334 12 38.001 12c4.66699 24 8 45.667 10 65
s3 47 3 83l1 24l2 32l2 26l3 29l-10 4c-12 6 -18 14 -18 24c0 5.33301 2 9.66602 6 12.999l12 5l15 10v37v31l2 73c0 10.667 0.166992 22.5 0.5 35.5s0.5 20.5 0.5 22.5l29 25l13 11l-22 3l-16 1l-11 1l-23 2l-23 3c-4 0.666992 -7.33301 3.66699 -10 9
s-3.66699 11.333 -3 18c4 16 14 27.667 30 35s47.333 13.666 94 18.999l125 13c4 0.666992 8 1 12 1h12h24c34 0 59.333 -1.83301 76 -5.5s33.667 -9.83398 51 -18.501c21.333 -8.66699 38 -22 50 -40s18 -37.333 18 -58c0 -33.333 -14 -64.666 -42 -93.999z
M468.002 488.001c10 13.333 15 27 15 41c0 30.667 -17.5 51.334 -52.5 62.001s-75.167 16 -120.5 16l-33 -1c-8 -22 -14.333 -44.333 -19 -67s-8.66699 -52.334 -12 -89.001l-3 -41l-1 -14c16 0 32.5 2 49.5 6s35.5 9.33301 55.5 16c33.333 11.333 59.5 23 78.5 35
s33.167 24 42.5 36zM449.002 149.001c14 12 21.002 26.001 21.002 42.001c0 24 -15 45 -45 63c-16 9.33301 -35 17.333 -57 24s-57 14 -105 22l-31 6l-3 -20l-1 -6l-5 -30l-5 -31l-4 -35l-5 -38l-7 -61l-4 -26c13.333 1.33301 24.166 2.66602 32.499 3.99902
s20.166 3.66602 35.499 6.99902l53 15c15.333 4.66699 31.333 10.334 48 17.001c20 8.66699 36.167 16.5 48.5 23.5s23.5 14.833 33.5 23.5z" />
    <glyph glyph-name="C" unicode="C" horiz-adv-x="564" 
d="M591 122c0 -8.66699 -3.33496 -17.665 -10.002 -26.998s-19.667 -21 -39 -35l-42 -31l-5 -3c-42.667 -26 -99.334 -39 -170.001 -39c-60 0 -111.5 16.667 -154.5 50s-73.167 80 -90.5 140c-5.33301 18.667 -8.66602 33.834 -9.99902 45.501s-2.16602 20.667 -2.49902 27
s-0.5 11.833 -0.5 16.5c0 24.667 3 52 9 82c21.333 106.667 62 191.667 122 255c56.667 59.333 125 93.666 205 102.999c19.333 2 36.666 3 51.999 3c40.667 0 69.5 -9.5 86.5 -28.5s28.5 -54.5 34.5 -106.5c1.33301 -12 2 -20.667 2 -26c0 -21.333 -3.66699 -44 -11 -68
c-12.667 -38.667 -26 -65.667 -40 -81c-9.33301 -11.333 -20.333 -17 -33 -17c-13.333 0 -24 5.66699 -32 17c-12 15.333 -18 33 -18 53c0 16 2.66699 32 8 48s15 37.333 29 64l12 16c2.66699 4.66699 4 11.334 4 20.001c0 2.66699 -0.833008 9 -2.5 19
s-8.66699 19.167 -21 27.5s-29.166 12.5 -50.499 12.5c-18 0 -39.667 -3.83301 -65 -11.5s-48.666 -23.834 -69.999 -48.501c-24 -27.333 -45.333 -66 -64 -116l-21 -69c-13.333 -53.333 -20 -103.333 -20 -150c0 -72 16.833 -126.5 50.5 -163.5s80.167 -55.5 139.5 -55.5
c38.667 0 72.667 7.66699 102 23c14.667 7.33301 27.667 15.166 39 23.499s20 15.833 26 22.5l28 32c5.33301 1.33301 10.5 -0.333984 15.5 -5.00098s7.5 -11 7.5 -19z" />
    <glyph glyph-name="D" unicode="D" horiz-adv-x="569" 
d="M441 104l-15.9971 -13.001c3.33301 -8 5 -13.333 5 -16c0 -9.33301 -16 -20 -48 -32l-58 -25l-34 -11c-40.667 -10.667 -73.334 -16 -98.001 -16c-12.667 0 -28 1.66699 -46 5c0 8.66699 2.33301 15 7 19s15 8.66699 31 14c35.333 8 70.5 21 105.5 39
s68.333 39.833 100 65.5s55.667 56 72 91s24.5 70.833 24.5 107.5c0 48.667 -12.667 94.334 -38 137.001c-27.333 45.333 -66.333 82 -117 110c-19.333 12 -41.333 21.667 -66 29l-4 -21l-3 -17l-14 -94l-7 -31l-18 -96l-11 -65l-14 -74
c-10.667 -54 -17.834 -88.333 -21.501 -103s-7.16699 -24 -10.5 -28c-6 -10.667 -12 -16.334 -18 -17.001c-5.33301 -1.33301 -10 0.333984 -14 5.00098s-6 9.33398 -6 14.001c0 16.667 1 32.167 3 46.5s5 31.5 9 51.5l6 119l9 114
c4.66699 52.667 9.66699 105.334 15 158.001c2 18 3.33301 27.333 4 28l28 16l3 2l10 7l-41 18c-20 8.66699 -31 13.667 -33 15c-13.333 7.33301 -20 14.333 -20 21c0 4.66699 3.33301 13 10 25c5.33301 7.33301 15 11 29 11c12 0 25.5 -1.66699 40.5 -5s37.5 -10 67.5 -20
l134 -44c9.33301 -4.66699 16.333 -8.33398 21 -11.001c8.66699 -6.66699 15 -11.334 19 -14.001c48 -36 84.5 -76 109.5 -120s37.5 -89.333 37.5 -136c0 -46 -11.833 -90.833 -35.5 -134.5s-59.834 -85.167 -108.501 -124.5z" />
    <glyph glyph-name="E" unicode="E" horiz-adv-x="557" 
d="M570 129c2 -3.33301 3.00098 -6.99902 3.00098 -10.999c0 -8 -5.5 -17.5 -16.5 -28.5s-28.5 -24.5 -52.5 -40.5c-9.33301 -6 -19.5 -11.167 -30.5 -15.5s-27 -9.83301 -48 -16.5s-41.167 -11.667 -60.5 -15s-41.666 -5 -66.999 -5l-5 -1l-78 1h-24
c-24 0 -39.833 1.66699 -47.5 5s-18.167 12.333 -31.5 27c-2.66699 4 -4.66699 9.33301 -6 16s-2 16.334 -2 29.001v42c0 14 0.333008 27.667 1 41l9 134c3.33301 35.333 9 78.666 17 129.999l19 117c8.66699 50.667 18.834 83.667 30.501 99s39.5 30 83.5 44l22 6l27 4
l30 5l8 1c5.33301 0.666992 10.5 1.16699 15.5 1.5s11.167 0.5 18.5 0.5h12h6l48 -3c32 0 52 -4 60 -12s12 -26.333 12 -55c0 -14 -1.83301 -25 -5.5 -33s-6.83398 -11.667 -9.50098 -11l-53 15c-8 2.66699 -20.5 5 -37.5 7s-32.167 3 -45.5 3
c-18 0 -36.167 -0.5 -54.5 -1.5s-38.166 -4.5 -59.499 -10.5l-4 -14l-2 -9l-2 -11l-8 -42l-15 -65l-9 -53l-1 -5l-3 -18c27.333 8.66699 54.666 15.667 81.999 21c43.333 9.33301 71.666 14 84.999 14l6 1l49 3c24.667 0 40.667 -0.666992 48 -2s12 -6.5 14 -15.5
s3.83301 -17.833 5.5 -26.5s2.5 -16.334 2.5 -23.001c0 -14 -7.33301 -21 -22 -21c-4 0 -10.333 0.666992 -19 2l-26 4l-58 1l-37 -1h-25l-59 -5l-57 -9l-2 -12l-2 -12l-5 -31l-5 -28l-4 -28l-7 -45l-6 -43l-3 -16l-1 -10l-2 -14l30 -4c24 -4 48.667 -7.16699 74 -9.5
s52 -3.5 80 -3.5c36 0 63.833 2.16699 83.5 6.5s37.5 10.5 53.5 18.5c32.667 19.333 53 34 61 44c5.33301 6.66699 12.666 4 21.999 -8z" />
    <glyph glyph-name="F" unicode="F" horiz-adv-x="483" 
d="M535 382c0 -12 -3.16895 -22.501 -9.50195 -31.501s-12.166 -13.167 -17.499 -12.5l-53 5c-4.66699 0.666992 -11.5 1.16699 -20.5 1.5s-23.167 0.5 -42.5 0.5c-28 0 -53 -0.166992 -75 -0.5s-48.667 -2.16602 -80 -5.49902l-26 -4l-2 -15l-1 -12l-6 -58l-11 -91l-7 -70
l-1 -13l-5 -64c0 -13.333 -3.66699 -25.333 -11 -36c-5.33301 -10 -13.666 -15 -24.999 -15c-6.66699 0 -12.834 2 -18.501 6s-9.66699 11 -12 21s-3.5 30.333 -3.5 61v59v15l5 74l1 23l4 45l1 17l3 40c-8 -1.33301 -14.333 -2 -19 -2c-4 0 -10 0.666992 -18 2l-16 3
c2.66699 8.66699 6 15 10 19c10 18 26 29.333 48 34l3 16l2 24l2 29l2 18l2 20l4 31l5 50c5.33301 42.667 18.333 73 39 91s62.334 33.333 125.001 46c3.33301 0.666992 8 1.5 14 2.5s12.667 1.83301 20 2.5l65 -4c44 0 72 -4.33301 84 -13s18 -28.334 18 -59.001
c0 -13.333 -1.66699 -25.166 -5 -35.499s-7.66602 -14.833 -12.999 -13.5l-61 20c-8 2.66699 -18.167 5.16699 -30.5 7.5s-26.833 3.5 -43.5 3.5h-15h-7l-34 -3l-47 -4l-3 -14l-2 -9l-9 -53l-10 -63l-6 -28l-4 -25l-1 -10l-2 -13c23.333 8.66699 44.666 15.667 63.999 21
s42.333 10 69 14l32 4l68 4c32 0 53.833 -3.5 65.5 -10.5s17.5 -21.167 17.5 -42.5z" />
    <glyph glyph-name="G" unicode="G" horiz-adv-x="661" 
d="M644 486c-11.333 -10 -21.8311 -17.166 -31.498 -21.499s-18.5 -6.5 -26.5 -6.5c-8.66699 0 -14 2.66699 -16 8l-11 33c-2.66699 9.33301 -5.16699 17 -7.5 23s-6.16602 15 -11.499 27l-27 52c-24 37.333 -57 56 -99 56c-20.667 0 -40.834 -5 -60.501 -15
s-38.834 -25.333 -57.501 -46c-56.667 -66.667 -91.334 -143.334 -104.001 -230.001c-4 -29.333 -6 -55 -6 -77c0 -36 5.5 -71.5 16.5 -106.5s31.333 -63.833 61 -86.5s62.167 -34 97.5 -34c29.333 0 55.666 8.33301 78.999 25c14.667 10 32.334 25.667 53.001 47
c6.66699 6.66699 13.5 14.834 20.5 24.501s16.833 24.167 29.5 43.5l18 27l9 16c7.33301 1.33301 13.666 1.66602 18.999 0.999023c20 0 34 -2.16699 42 -6.5s12 -12.833 12 -25.5c0 -6.66699 -1.33301 -15.667 -4 -27s-6.33398 -24.666 -11.001 -39.999
c-1.33301 -3.33301 -3.33301 -11 -6 -23l-14 -68l-9 -47l-10 -56c-11.333 -56 -17 -90.333 -17 -103c0 -53.333 -3.16699 -86.5 -9.5 -99.5s-22.166 -23.167 -47.499 -30.5c-7.33301 -4 -16 -5.33301 -26 -4c-12 2 -18 7.66699 -18 17l7 56l9 77l3 36l4 44l3 56l1 21
c0.666992 3.33301 1 12.833 1 28.5s0.333008 28.167 1 37.5c-2.66699 -2 -4.66699 -5 -6 -9c-17.333 -22 -37.833 -39.5 -61.5 -52.5s-51.5 -21.833 -83.5 -26.5c-14 -2 -28 -3 -42 -3c-67.333 0 -121.333 21 -162 63c-42.667 44 -64 102 -64 174
c0 145.333 36 263.666 108 354.999c65.333 83.333 142 125 230 125c20.667 0 41.834 -2.66699 63.501 -8s42 -13.333 61 -24s36.167 -24.667 51.5 -42l2 -4l39 -55c20.667 -30.667 31 -51.334 31 -62.001c0 -9.33301 -7.66699 -20.666 -23 -33.999z" />
    <glyph glyph-name="H" unicode="H" horiz-adv-x="610" 
d="M628 696c0 -59.333 -3.66797 -121.333 -11.001 -186c-3.33301 -26.667 -12.333 -91.334 -27 -194.001l-13 -74l-5 -25l-20 -115l-24 -122c-6 -12.667 -16 -19 -30 -19c-8 -0.666992 -14.667 1.33301 -20 6s-7.33301 10.334 -6 17.001c2 19.333 3.83301 33 5.5 41
s4.5 20 8.5 36l9 93c8.66699 77.333 13 126.666 13 147.999l1 8l1 16c-29.333 0 -55.833 -1.66699 -79.5 -5s-57.167 -11.333 -100.5 -24l-31 -10l-29 -9l-15 -4l-38 -11l-2 -8l-2 -7l-3 -20l-3 -19l-3 -22l-3 -33l-6 -64l-1 -61c0 -16 -3.33301 -28.667 -10 -38
s-15.667 -14 -27 -14c-6.66699 0 -12 1.66699 -16 5c-8.66699 4.66699 -14.5 12.334 -17.5 23.001s-4.5 30.667 -4.5 60l-1 43v5l1 17l1 24l2 24l2 16v48l-8 5c-16 11.333 -24 23.666 -24 36.999c0 12.667 6.33301 24.334 19 35.001l23 14l6 53l8 69l8 49l27 164
c4 14 15.333 23.667 34 29c8.66699 3.33301 17.334 4.33301 26.001 3c14 0 25.5 -4.33301 34.5 -13s12.833 -17 11.5 -25s-3.33301 -17.5 -6 -28.5s-5 -21.167 -7 -30.5l-15 -82l-6 -30l-9 -47l-6 -31l-5 -26l-1 -5l-5 -18l66 12c72.667 10.667 125.667 16 159 16
c8 0 15.333 -0.166992 22 -0.5s20 -1.83301 40 -4.5l3 11l1 7l4 50l5 69l3 66l1 16c2 17.333 3.5 33.333 4.5 48s1.5 25.667 1.5 33c0 8 3.5 15 10.5 21s17.833 9.66699 32.5 11c13.333 2 24.333 0.333008 33 -5s13 -11.333 13 -18z" />
    <glyph glyph-name="I" unicode="I" horiz-adv-x="263" 
d="M319 680c-3.33301 -12.667 -7.83203 -28.499 -13.499 -47.499s-11.5 -36.833 -17.5 -53.5c-2.66699 -6.66699 -5.66699 -17.667 -9 -33c-8 -34.667 -16 -71.667 -24 -111c-3.33301 -14.667 -6 -27 -8 -37s-3.66699 -20 -5 -30
c-9.33301 -48.667 -17.333 -93.834 -24 -135.501s-10 -76.167 -10 -103.5c0 -46.667 0.5 -75.667 1.5 -87s2.16699 -22 3.5 -32c1.33301 -3.33301 -1.33398 -6.83301 -8.00098 -10.5s-16.834 -7 -30.501 -10s-24.167 -4.5 -31.5 -4.5c-12.667 0 -21 6 -25 18
s-6 33.333 -6 64l-1 79v13c0 24 1 47 3 69s5 50 9 84c6.66699 47.333 14 91 22 131c-12.667 2.66699 -19 8.66699 -19 18c0 4.66699 3.33301 18.667 10 42l11 43l3 8l19 53l23 45c8 17.333 14 28.333 18 33c8.66699 10 27.334 15 56.001 15c23.333 0 38.5 -1.33301 45.5 -4
s9.5 -8 7.5 -16z" />
    <glyph glyph-name="J" unicode="J" horiz-adv-x="389" 
d="M420 605c-7.33301 -82.667 -13.9971 -140.998 -19.9971 -174.998s-17 -79.333 -33 -136l-2 -9l-52 -150c-24.667 -72.667 -42.334 -115 -53.001 -127s-38 -20.333 -82 -25c-4.66699 -0.666992 -10 -1 -16 -1h-14h-11h-10c-4.66699 1.33301 -8.33398 2 -11.001 2l-12 20
c-28.667 48 -47 88.333 -55 121l-11 64c-2 9.33301 -3.33301 18 -4 26s-1 16.333 -1 25c0 17.333 3 30 9 38s16 13 30 15c15.333 2 27.833 -1 37.5 -9s18.167 -23 25.5 -45l7 -23l4 -13c6 -18 9 -30 9 -36c0 -8 -5.66699 -16.667 -17 -26
c-2.66699 -2.66699 -4 -6.33398 -4 -11.001c0 -8 3.66699 -16.333 11 -25c5.33301 -6.66699 12.666 -13.334 21.999 -20.001c2.66699 -2.66699 6.33398 -4 11.001 -4c8.66699 0 18.667 9.5 30 28.5s24.666 50.167 39.999 93.5c4 10.667 8 23.667 12 39s9.66699 40 17 74
l13 63l1 8l13 130l3.5 30.5c1 9 1.5 19.167 1.5 30.5c0 20.667 -3.33301 34.667 -10 42s-19 11.666 -37 12.999c14 22 32.667 40 56 54c15.333 9.33301 29.833 16.5 43.5 21.5s24.167 7.5 31.5 7.5c14.667 0 23 -7.83301 25 -23.5s3.16699 -26.667 3.5 -33
s0.5 -13.166 0.5 -20.499v-17c-1.33301 -8 -2 -13.667 -2 -17z" />
    <glyph glyph-name="K" unicode="K" horiz-adv-x="652" 
d="M646 130c12 -10 18.0068 -19.3262 18.0068 -27.9932c0 -12 -14 -28.667 -42 -50l-41 -31c-22 -13.333 -41.5 -21.833 -58.5 -25.5s-28 -5.83398 -33 -6.50098s-12.167 -1 -21.5 -1c-30 0 -56 12 -78 36s-50 69.667 -84 137l-18 36c-16 34 -27.5 59.167 -34.5 75.5
s-14.167 34.833 -21.5 55.5l-9 -48l-1 -20l-3 -37l-6 -74l-4 -49l-3 -30c-2.66699 -30.667 -4.66699 -49 -6 -55c-4 -20 -13.667 -30 -29 -30c-6.66699 0 -13.334 0.666992 -20.001 2c-12 3.33301 -21.667 5.66602 -29 6.99902s-12.833 5.33301 -16.5 12
s-5.5 17.667 -5.5 33c0 32.667 10 97.667 30 195c1.33301 4.66699 2.66602 9.66699 3.99902 15c4.66699 24 7 69.667 7 137c0 48 0.833008 80.833 2.5 98.5s3.16699 32.5 4.5 44.5c0 14.667 -0.166992 28.167 -0.5 40.5s-0.5 23.833 -0.5 34.5
c0 19.333 1.5 31.666 4.5 36.999s11.5 12 25.5 20l24 9c5.33301 2 11 3.16699 17 3.5s10.667 0.833008 14 1.5c17.333 0 26.666 -4.66699 27.999 -14v-46l-2 -54l-1 -20l-7 -80l-5 -54v-9l-2 -8l-1 -16c50.667 34 104 80.667 160 140l29 34l5 5l47 64
c16 23.333 24 40.666 24 51.999s-7 21.333 -21 30c1.33301 1.33301 5.66602 3.66602 12.999 6.99902c11.333 6 19.666 10 24.999 12c10 4.66699 20.667 7.66699 32 9s20.666 -2.33398 27.999 -11.001s11 -21.667 11 -39c0 -14 -6.66699 -31 -20 -51s-38.333 -49 -75 -87
l-43 -42c-16.667 -15.333 -34.667 -30.333 -54 -45l-7 -6l-48 -36l-5 -4l-18 -13c17.333 -62.667 41.333 -121 72 -175l20 -33c26.667 -42 48.334 -71.167 65.001 -87.5s34 -24.5 52 -24.5c12.667 0 29 3.66699 49 11c7.33301 2.66699 14.666 6.66699 21.999 12
s15.666 12.333 24.999 21c3.33301 2 5.66602 3.66699 6.99902 5c2.66699 3.33301 4.33398 5.66602 5.00098 6.99902z" />
    <glyph glyph-name="L" unicode="L" horiz-adv-x="450" 
d="M475 91c0 -20.667 -5 -34.9961 -15 -42.9961s-34 -17.667 -72 -29l-73 -20l-72 -13l-12 -1l-56 -5c-5.33301 0 -12.833 -0.5 -22.5 -1.5s-14.834 -1.5 -15.501 -1.5c-15.333 0 -26.166 3.16699 -32.499 9.5s-9.5 19.166 -9.5 38.499c0 15.333 1.33301 34.333 4 57
c5.33301 36 9.33301 65.5 12 88.5s6.5 46.5 11.5 70.5s8.83301 43.667 11.5 59l10 50l8 40c-10 10 -15 19.333 -15 28c0 7.33301 3 25 9 53l11 47l4 14c7.33301 31.333 15 55.666 23 72.999c16 38 27.5 62.333 34.5 73s16.333 17.834 28 21.501s23.167 5.5 34.5 5.5
c26.667 0 40 -10.667 40 -32c0 -28 -3.33301 -54.333 -10 -79l-32 -135l-44 -145c-18.667 -58.667 -30.834 -101.834 -36.501 -129.501s-8.5 -58.5 -8.5 -92.5c5.33301 -6 11 -10.167 17 -12.5s14.333 -3.5 25 -3.5c12 0 39.333 2.66699 82 8
c30.667 2.66699 55.334 8 74.001 16l71 25c4.66699 1.33301 8.5 -0.833984 11.5 -6.50098s4.5 -14.834 4.5 -27.501z" />
    <glyph glyph-name="M" unicode="M" horiz-adv-x="686" 
d="M727 648c-5.33301 -55.333 -12.833 -109.333 -22.5 -162s-26.167 -126.667 -49.5 -222l-28 -114l-3 -13c-7.33301 -26.667 -12.833 -48.834 -16.5 -66.501s-5.5 -31.834 -5.5 -42.501c0 -5.33301 -3 -10.333 -9 -15s-16.167 -9.33398 -30.5 -14.001
s-27.5 -6.33398 -39.5 -5.00098l5 42l4 36l3 25l5 44l9 81l6 61l7 55l22 168l-9 -10l-5 -7l-28 -40c-19.333 -28 -34.666 -49.333 -45.999 -64s-21.666 -26 -30.999 -34c-45.333 -42 -82.666 -63 -111.999 -63c-40.667 0 -76.667 40 -108 120l-3 11l-19 -90l-4 -29l-7 -50
l-10 -76l-12 -79c0 -49.333 -3.33301 -78.666 -10 -87.999s-27.334 -16 -62.001 -20l-13 -1c0 38.667 1.33301 76.334 4 113.001s7.66699 93.334 15 170.001l18 179c7.33301 78 12.333 125.333 15 142l4 25l5 39c3.33301 2.66699 9.5 6.66699 18.5 12l20.5 12
c27.333 12.667 44.333 19 51 19c6 0 10.167 -2.66699 12.5 -8s5.16602 -17 8.49902 -35l20 -83l2 -6l24 -85c8.66699 -26.667 19 -46.667 31 -60s25.667 -20 41 -20c10.667 0 22.667 4.33301 36 13c7.33301 4.66699 14.166 9.83398 20.499 15.501s13.5 12.5 21.5 20.5
c22.667 23.333 41.334 43.333 56.001 60c11.333 13.333 27.333 33.333 48 60c15.333 20 26.666 34 33.999 42s14.666 14.667 21.999 20c16.667 13.333 30.334 22.833 41.001 28.5s20 8.5 28 8.5c10 0 17.333 -3 22 -9c2.66699 -3.33301 3.66699 -7 3 -11z" />
    <glyph glyph-name="N" unicode="N" horiz-adv-x="620" 
d="M645 703c0 -88 -2.99805 -158.998 -8.99805 -212.998c-0.666992 -8.66699 -9.33398 -66 -26.001 -172c-0.666992 -10 -2.16699 -21.333 -4.5 -34s-4.16602 -22.334 -5.49902 -29.001c-21.333 -118 -32.333 -178 -33 -180
c-8.66699 -42.667 -20.334 -67.334 -35.001 -74.001c-4.66699 -2 -12.5 -5.16699 -23.5 -9.5s-20.167 -6.5 -27.5 -6.5c-20.667 0 -55.334 62 -104.001 186l-47 126l-20 56l-30 85l-2 8l-17 36c-6 -14.667 -13.333 -35.667 -22 -63l-22 -70l-16 -58l-19 -68
c-12 -41.333 -20.167 -70.666 -24.5 -87.999s-7.83301 -32.666 -10.5 -45.999c-10.667 -52 -21 -88.833 -31 -110.5s-22 -32.5 -36 -32.5c-6 0 -13 2 -21 6c5.33301 48.667 10.666 90.667 15.999 126c0.666992 6 9.66699 58 27 156l16 96l7 44l14 68l12 65
c6 31.333 10.5 56.666 13.5 75.999s4.5 33.666 4.5 42.999l1 29c0 8 7.66699 16.667 23 26c18.667 11.333 39.667 17 63 17c20.667 0 34 -5.66699 40 -17c4 -8 12.667 -42.667 26 -104c2.66699 -11.333 5.66699 -22.333 9 -33l38 -114l12 -36l37 -110
c26 -72 51 -123 75 -153c8.66699 14 15.334 28.833 20.001 44.5s12 48.834 22 99.501c23.333 112 35 182.333 35 211c0 97.333 3.16699 159 9.5 185s18.833 40.333 37.5 43c6 1.33301 12.333 0.666016 19 -2.00098s9.66699 -5.66699 9 -9z" />
    <glyph glyph-name="O" unicode="O" horiz-adv-x="653" 
d="M661 343c-21.333 -108 -62.501 -192.166 -123.501 -252.499s-134.833 -90.5 -221.5 -90.5c-69.333 0 -124.333 16.667 -165 50s-61 79 -61 137c0 12 1 24.667 3 38c8 56.667 22.667 110 44 160l16 39c-7.33301 -6 -17 -9 -29 -9l-13 1c-7.33301 1.33301 -11 7 -11 17
c0 2 0.666992 5 2 9c6 12.667 14 23.334 24 32.001c18 16 31 31 39 45s16.333 36.333 25 67l3 12l13 50c5.33301 25.333 10.333 41.333 15 48s13.334 12 26.001 16c5.33301 2 10 2 14 0s6 -4.66699 6 -8v-11c0 -6.66699 -0.333008 -12.334 -1 -17.001s-2.66699 -11 -6 -19
l25 14c25.333 13.333 47.333 22.833 66 28.5s38.667 8.5 60 8.5c8 0 17.667 -0.5 29 -1.5s27 -2.83301 47 -5.5c60 -8 106.167 -31.833 138.5 -71.5s48.5 -95.5 48.5 -167.5c0 -36.667 -4.33301 -76.334 -13 -119.001zM562.999 423.001
c0 67.333 -15.334 119.832 -46.001 157.499s-71 56.5 -121 56.5c-19.333 0 -39.666 -3 -60.999 -9c-43.333 -12.667 -70.833 -26.834 -82.5 -42.501s-23.834 -54.5 -36.501 -116.5l-23 -123l-3 -18c-4 -25.333 -6 -48.666 -6 -69.999c0 -22.667 2 -44 6 -64
c2 -11.333 4.83301 -22.666 8.5 -33.999s7.83398 -22.666 12.501 -33.999c10.667 -23.333 26.5 -41.5 47.5 -54.5s45.5 -19.5 73.5 -19.5c26.667 0 54.667 7 84 21c41.333 22 75.333 62.333 102 121c30 65.333 45 141.666 45 228.999z" />
    <glyph glyph-name="P" unicode="P" horiz-adv-x="484" 
d="M483 523c9.33301 -17.333 16.501 -35.001 21.501 -53.001s7.5 -35.667 7.5 -53c0 -41.333 -13.5 -78.166 -40.5 -110.499s-65.167 -55.5 -114.5 -69.5c-8.66699 -3.33301 -19.334 -6.5 -32.001 -9.5s-26.167 -6 -40.5 -9s-25.5 -5.16699 -33.5 -6.5
c-24 -5.33301 -39.667 -9 -47 -11l-3 -28c-1.33301 -13.333 -2.33301 -27.166 -3 -41.499s-1 -26.166 -1 -35.499c0 -14 0.333008 -23.667 1 -29l6 -57c0.666992 -9.33301 -13.666 -16.333 -42.999 -21c-10 -2 -18 -3 -24 -3c-14 0 -23.167 4.83301 -27.5 14.5
s-6.5 28.834 -6.5 57.501c-0.666992 9.33301 -1.33398 22.666 -2.00098 39.999s-1 29.666 -1 36.999c0 24.667 0.833008 44.5 2.5 59.5s4.83398 26.167 9.50098 33.5l11 124.5c3.33301 38.333 7.33301 70.833 12 97.5c7.33301 45.333 14.666 79.666 21.999 102.999
c5.33301 16 14 35.667 26 59l-21 13l-32 18c-3.33301 2 -5 6 -5 12s1.66699 11.833 5 17.5s7.33301 10.167 12 13.5c16.667 13.333 37 20 61 20c21.333 0 45.333 -4.83301 72 -14.5s58 -25.5 94 -47.5c50 -32 88 -72.333 114 -121zM397.001 374.999
c0.666992 4.66699 1.00098 11.665 1.00098 20.998c0 50.667 -25 96.334 -75 137.001c-16.667 13.333 -41.667 28.333 -75 45c-2.66699 -14.667 -5 -26.667 -7 -36c-13.333 -63.333 -22 -108 -26 -134s-8.33301 -59.667 -13 -101c-1.33301 -14 -3.33301 -33 -6 -57
c41.333 4.66699 72.666 10.334 93.999 17.001c64 22 99.667 58 107 108z" />
    <glyph glyph-name="Q" unicode="Q" horiz-adv-x="653" 
d="M674 416c-2 -12.667 -4.49707 -26.3291 -7.49707 -40.9961s-6.83301 -31 -11.5 -49c-41.333 -127.333 -115.666 -219.333 -222.999 -276l9 -6l6 -5c7.33301 -7.33301 21.666 -20 42.999 -38l36 -31l53 -38l46 -30c2 -1.33301 3 -4 3 -8
c0 -8.66699 -4.66699 -17.334 -14 -26.001c-5.33301 -4 -10.833 -7.16699 -16.5 -9.5s-10.834 -3.5 -15.501 -3.5c-12.667 0 -31.334 9.33301 -56.001 28l-50 41l-12 8l-42 32l-17 15l-26 20l-8 6l-9 7c-13.333 -4 -25 -6.83301 -35 -8.5s-20.667 -2.5 -32 -2.5
c-146.667 0 -220 61.667 -220 185c0 23.333 2.33301 46.666 7 69.999l11 43c10 -4.66699 15.667 -8 17 -10c2 -3.33301 3 -12 3 -26v-39l2 -28c5.33301 -36 18 -64 38 -84s52.667 -37 98 -51c14 -4.66699 29.667 -7 47 -7c7.33301 0 13 0.333008 17 1
c-18.667 8.66699 -37 21 -55 37s-36 35.667 -54 59c-22.667 30 -39.167 65 -49.5 105s-15.5 84.333 -15.5 133c0 81.333 20.333 148.166 61 200.499s97.334 89.166 170.001 110.499c19.333 5.33301 37.666 9 54.999 11s33.666 3 48.999 3c66 0 116.5 -18.5 151.5 -55.5
s52.5 -91.833 52.5 -164.5c0 -24 -2 -50 -6 -78zM576.003 373.005c4.66699 27.333 6.99414 53.667 6.99414 79c0 57.333 -12 101.833 -36 133.5s-57.333 50.5 -100 56.5c-6 0 -12.167 0.333008 -18.5 1s-11.166 1 -14.499 1c-35.333 0 -63.666 -9.66699 -84.999 -29
s-39.166 -52.166 -53.499 -98.499s-21.5 -91.833 -21.5 -136.5c0 -76.667 24.333 -150 73 -220c22.667 -31.333 44.334 -54.333 65.001 -69c50.667 26 91.334 62.167 122.001 108.5s51.334 104.166 62.001 173.499z" />
    <glyph glyph-name="R" unicode="R" horiz-adv-x="506" 
d="M566 -135l-55.9951 27.999c-62 32 -114.5 69.667 -157.5 113s-84.5 100.666 -124.5 171.999l-17 34l-1 -10l-2 -32v-19v-14c0 -11.333 -0.166992 -21.333 -0.5 -30s-0.5 -16.334 -0.5 -23.001l4 -37c1.33301 -12.667 2 -21.334 2 -26.001
c0 -10.667 -2.5 -17.667 -7.5 -21s-14.667 -6.66602 -29 -9.99902s-25.5 -5 -33.5 -5c-11.333 0 -19 4 -23 12s-6 21.333 -6 40v50l6 59l4 36l1 19l5 48l-3 2l-10 10l-11 15c-3.33301 7.33301 -2.33301 14.333 3 21c3.33301 4 8.66602 7 15.999 9h9l9 83l6 66l1 7l3 22
c5.33301 39.333 10.166 66.166 14.499 80.499s12.166 30.166 23.499 47.499l-17 11l-4 2l-31 18c-3.33301 2 -5 6 -5 12c0 6.66699 1 12.167 3 16.5s6.66699 9.33301 14 15s16.166 10.334 26.499 14.001s21.833 5.5 34.5 5.5c18 0 39.333 -3.66699 64 -11
s55 -19.666 91 -36.999c11.333 -5.33301 22.333 -11.666 33 -18.999s21.667 -16 33 -26c55.333 -50 83 -95 83 -135c0 -50 -45.667 -98 -137 -144c-13.333 -7.33301 -25 -13.333 -35 -18s-28.667 -12 -56 -22l-26 -10c22.667 -45.333 47 -86.666 73 -123.999
s57.333 -75.666 94 -114.999c27.333 -30 51.666 -54.667 72.999 -74l15 -14l37 -31c14.667 -12.667 22 -25 22 -37c0 -8.66699 -3.33301 -16.667 -10 -24zM423.005 412.999c15.333 13.333 22.998 28.3311 22.998 44.998c0 14 -6 28.333 -18 43s-31.333 29.334 -58 44.001
c-8 4.66699 -20.667 10.334 -38 17.001s-31.666 11.667 -42.999 15l-28 8l-1 -9l-2 -7c-1.33301 -4.66699 -3.16602 -11.667 -5.49902 -21s-3.83301 -17.333 -4.5 -24l-5 -22l-6 -41c-6 -28 -9.66699 -47 -11 -57c-4.66699 -24.667 -7 -52 -7 -82l4 -2
c8 1.33301 15 3.33301 21 6l38 13l18 7l34 13c23.333 10 40.5 18.5 51.5 25.5s23.5 16.5 37.5 28.5z" />
    <glyph glyph-name="S" unicode="S" horiz-adv-x="488" 
d="M515 103c-1.33301 -6.66699 -4.99805 -14.0029 -10.998 -22.0029s-16.667 -18 -32 -30c-8.66699 -6 -19.334 -16 -32.001 -30l-29.5 -33.5c-7 -8.33301 -19.167 -17.5 -36.5 -27.5s-35.666 -19 -54.999 -27c-6.66699 -3.33301 -14.167 -6.66602 -22.5 -9.99902
s-17.166 -6.33301 -26.499 -9c-61.333 -16 -102.333 -24 -123 -24c-13.333 0 -24.166 2 -32.499 6s-18.166 11.333 -29.499 22s-17 21.334 -17 32.001c0 7.33301 2.66699 12.666 8 15.999l39 24l51 23l3 2l62 22l26 8l36 10l51 14l11 3l14 6c12 4.66699 18 13.334 18 26.001
c0 10.667 -4.33301 20.667 -13 30l-18 20l-14 10l-87 57c-31.333 20 -62 44 -92 72c-43.333 39.333 -65 87.666 -65 144.999c0 44 13.333 85.667 40 125c29.333 42.667 71.666 79 126.999 109l38 16l87 25c22 6 44.333 10 67 12c9.33301 0 17.666 -3.66699 24.999 -11
s11 -16.666 11 -27.999c0 -17.333 -8.5 -32.666 -25.5 -45.999s-47.833 -28.333 -92.5 -45c-8 -2.66699 -19.167 -5.66699 -33.5 -9s-27.5 -5.66602 -39.5 -6.99902l12 28c-16.667 1.33301 -33.334 -2 -50.001 -10s-33.334 -22.333 -50.001 -43s-25 -42.334 -25 -65.001
s7.16699 -45.834 21.5 -69.501s37.166 -48.5 68.499 -74.5l13 -10c16.667 -13.333 44 -33.5 82 -60.5s63.333 -51 76 -72s19 -47.833 19 -80.5l-2 -18l8 8l23 22c3.33301 3.33301 7.5 1.83301 12.5 -4.5s6.5 -15.166 4.5 -26.499z" />
    <glyph glyph-name="T" unicode="T" horiz-adv-x="426" 
d="M502 649c0 -17.333 -4.33203 -28.332 -12.999 -32.999s-28.667 -7 -60 -7h-57l-53 -4l7 -7l8 -5l28 -26l-13 -65l-12 -62l-11 -49l-14 -74l-8 -40l-13 -75c-5.33301 -28 -9.33301 -50 -12 -66s-4.66699 -29.667 -6 -41c-5.33301 -48 -9.83301 -77.833 -13.5 -89.5
s-11.5 -19.5 -23.5 -23.5c-5.33301 -1.33301 -8.66602 -2 -9.99902 -2c-14 0 -21 6 -21 18c0 0.666992 1.66699 30 5 88c1.33301 23.333 2 51.333 2 84c4 38.667 7.33301 69 10 91l13 89l19 131l5 35l10 85l-14 -3l-10 -1l-21 -3l-42 -10
c-12.667 -2.66699 -27.334 -5 -44.001 -7s-32.334 -4 -47.001 -6c-0.666992 4 -1 9.66699 -1 17c0 10 2 20 6 30c13.333 39.333 23 61.666 29 66.999s25.667 8 59 8l57 4l8 1h99c70.667 0 114 -2.5 130 -7.5s24 -18.833 24 -41.5z" />
    <glyph glyph-name="U" unicode="U" horiz-adv-x="575" 
d="M597 714c0 -64.667 -4.66992 -137.834 -14.0029 -219.501s-25.666 -188.834 -48.999 -321.501l-16 -135l17 2c6.66699 0 12.834 -1 18.501 -3s7.5 -8.33301 5.5 -19c-1.33301 -7.33301 -7.16602 -13.5 -17.499 -18.5s-25.833 -7.5 -46.5 -7.5h-14
c-4.66699 0.666992 -8 1 -10 1c-9.33301 2 -16.5 9 -21.5 21s-7.5 33.667 -7.5 65v8c-28 -31.333 -67 -59 -117 -83c-10.667 -4.66699 -21 -8.16699 -31 -10.5s-20.667 -3.5 -32 -3.5c-42 0 -76 17.333 -102 52c-28 37.333 -42 90 -42 158c0 94.667 2 163.334 6 206.001
s11.667 94 23 154l26 122h23c22.667 -4.66699 38.167 -10.5 46.5 -17.5s12.5 -19.833 12.5 -38.5c0 -19.333 -4.5 -46.833 -13.5 -82.5s-15.833 -64.167 -20.5 -85.5c-1.33301 -5.33301 -3 -12.833 -5 -22.5s-4 -20.5 -6 -32.5c-8 -67.333 -12 -121 -12 -161
c0 -29.333 1.33301 -52.666 4 -69.999s6.66699 -33 12 -47c18 -42.667 47.333 -64 88 -64c16 0 32.667 4.66699 50 14c32 18 59.667 57 83 117c28 72.667 51.667 179 71 319l6 56c0 63.333 2.83301 103 8.5 119s19.167 28 40.5 36c7.33301 2 13 3 17 3
c12.667 0 19 -3.66699 19 -11z" />
    <glyph glyph-name="V" unicode="V" horiz-adv-x="548" 
d="M627 677l-16.001 -62.999l-17 -61c-12 -40.667 -22.667 -75.167 -32 -103.5s-19.666 -56.833 -30.999 -85.5c-23.333 -58 -42.5 -103 -57.5 -135s-26.5 -54.333 -34.5 -67l-54 -84c-9.33301 -15.333 -14 -26 -14 -32c0 -1.33301 2 -6.66602 6 -15.999
c-5.33301 -9.33301 -12.333 -16.666 -21 -21.999c-7.33301 -6.66699 -15.5 -12 -24.5 -16s-17 -6.66699 -24 -8s-13 -2 -18 -2h-10.5c-10 0 -17.667 1.33301 -23 4c-12 4.66699 -18 13.667 -18 27c0 4.66699 1.83301 10.167 5.5 16.5s8.16699 10.5 13.5 12.5l-15 47l-21 69
c-24 77.333 -43.667 145.666 -59 204.999c-12 46.667 -21 87.5 -27 122.5s-11 66.833 -15 95.5s-6 50.667 -6 66c0 20.667 2.66699 36.167 8 46.5s15.666 21.5 30.999 33.5c4 2.66699 9 5.66699 15 9c2 1.33301 5.5 2.66602 10.5 3.99902s9.16699 2 12.5 2
c8 0 15.333 -2.33301 22 -7s10 -10.334 10 -17.001l11 -157c0 -20.667 3 -47.167 9 -79.5s17 -81.833 33 -148.5c18.667 -78 32.334 -128.333 41.001 -151l4 -14l7 -20l33 58c45.333 80.667 84 170.667 116 270c9.33301 26 15.833 44.667 19.5 56s7.16699 24 10.5 38
c12 46 24.5 78.833 37.5 98.5s28.5 29.5 46.5 29.5c5.33301 0 11.666 -1 18.999 -3c12.667 -4.66699 18.334 -10.667 17.001 -18z" />
    <glyph glyph-name="W" unicode="W" horiz-adv-x="767" 
d="M795 429c-3.33301 -18 -6.33105 -31.833 -8.99805 -41.5s-8.66699 -29.167 -18 -58.5c-12.667 -45.333 -25 -81.666 -37 -108.999c-34 -83.333 -58.333 -137.833 -73 -163.5s-28.667 -40.167 -42 -43.5c-21.333 -6 -36.666 -9 -45.999 -9c-10.667 0 -19 4 -25 12
s-14 24.333 -24 49l-22 57l-2 4l-16 58l-11 42l-1 3l-4 13l-4 -7l-3 -7l-3 -9l-13 -28l-27 -55l-2 -4l-36 -62c-18 -30 -31 -49.5 -39 -58.5s-16.333 -14.5 -25 -16.5s-17.167 -4.16699 -25.5 -6.5s-15.166 -3.5 -20.499 -3.5c-16 0 -28.333 17 -37 51
c-2.66699 11.333 -10 45.666 -22 102.999c-2 12 -3.33301 21.333 -4 28c-5.33301 34 -9 59.667 -11 77l-5 36l-5 44l-7 42l-7 50l-5 2l-5 4c-16.667 12.667 -27.667 28.5 -33 47.5s-8 53.167 -8 102.5c0 34 2.16699 59.667 6.5 77s11.666 32 21.999 44s24.166 18 41.499 18
c23.333 0 42.333 -10.333 57 -31c5.33301 -7.33301 10.5 -15.333 15.5 -24s7.5 -20.334 7.5 -35.001c0 -10.667 -0.333008 -20.667 -1 -30c-3.33301 -32.667 -5.66602 -56.667 -6.99902 -72s-2 -29 -2 -41c0 -18 1.33301 -39.333 4 -64s8 -64 16 -118
c4 -26.667 8 -50.167 12 -70.5s9 -43.166 15 -68.499l5 -14l6 -20c36 34 65.167 75.833 87.5 125.5s43.166 122.5 62.499 218.5l7 40c7.33301 58 15.166 95.333 23.499 112s23.833 26 46.5 28c12.667 0 23.5 -2.5 32.5 -7.5s13.167 -10.5 12.5 -16.5l-24 -167
c-1.33301 -10.667 -2.33301 -19.334 -3 -26.001s-1 -17 -1 -31c0 -39.333 3.66699 -85 11 -137c4.66699 -34.667 15 -70 31 -106l14 26c7.33301 12.667 12 21.667 14 27c18.667 36 35.5 71.833 50.5 107.5s27.167 68.834 36.5 99.501
c13.333 44.667 22.666 78.667 27.999 102s8 44 8 62l7 91c0 14 10 22.667 30 26c2 0.666992 4 1 6 1h5c18 0 27 -15 27 -45c0 -32 -11 -106.667 -33 -224z" />
    <glyph glyph-name="X" unicode="X" horiz-adv-x="570" 
d="M640 653c0 -21.333 -2.33105 -37.334 -6.99805 -48.001s-18.334 -32 -41.001 -64l-60 -84l-60 -80l-20 -26l-28 -33l-11 -15l-8 -9c5.33301 -14 11.833 -28.167 19.5 -42.5s17.5 -31.166 29.5 -50.499l20 -34l20 -29l48 -71c17.333 -24.667 34 -47 50 -67
c-9.33301 -8.66699 -20.333 -13 -33 -13c-21.333 0 -47 16 -77 48l-14 17l-37 43l-34 46l-20 27l-10 17l-26 43l-8 -11l-6 -5l-26 -32c-14 -17.333 -32.667 -39 -56 -65c-26 -30.667 -42.667 -52.667 -50 -66c-16.667 -24.667 -29.167 -41.667 -37.5 -51
s-15.833 -14 -22.5 -14c-3.33301 0 -8.33301 1.5 -15 4.5s-11.334 7.33301 -14.001 13s-2.66699 11.167 0 16.5c10 17.333 17.667 30 23 38l35 50l19 28l18 24l25 36l18 23l24 32l9 12l23 32l-6 8l-8 12l-18 26l-18 27l-47 75l-46 85c-24 44 -36 74.667 -36 92
c0 13.333 6.66699 29.333 20 48c19.333 26.667 37.333 40 54 40s34.667 -15 54 -45l8 -16l-5 -9c-8 -17.333 -12 -29 -12 -35s7.33301 -25 22 -57l27 -55l5 -10l8 -17l23 -43l26 -45l4 -8l5 -9l17 25l14 20l16 24l21 31l13 18c26 40 44.167 70.167 54.5 90.5
s18.833 42.833 25.5 67.5l-38 8c17.333 19.333 36 35 56 47c9.33301 6.66699 17.333 12 24 16c2 1.33301 6.83301 3.5 14.5 6.5s14.167 4.5 19.5 4.5c12 0 22.167 -5.33301 30.5 -16s12.5 -26 12.5 -46z" />
    <glyph glyph-name="Y" unicode="Y" horiz-adv-x="558" 
d="M610 577c-10.667 -20.667 -17.668 -34.001 -21.001 -40.001l-26 -38c-10.667 -17.333 -32.667 -46 -66 -86c-26.667 -32.667 -45.834 -57.834 -57.501 -75.501s-24.167 -39.5 -37.5 -65.5c-8.66699 -17.333 -15.334 -31.5 -20.001 -42.5s-8.66699 -21.333 -12 -31
s-6.66602 -20.5 -9.99902 -32.5s-6 -22.5 -8 -31.5s-4.16699 -19.833 -6.5 -32.5s-3.5 -22.667 -3.5 -30c0 -15.333 7 -32 21 -50c4 -4.66699 2.33301 -13.334 -5 -26.001l-24 -13c-17.333 -5.33301 -31.333 -8 -42 -8c-40 0 -60 21.333 -60 64c0 18.667 2 35.5 6 50.5
l10 37.5l10 31l3 6l19 55l5 15l12 37c-15.333 14 -28.666 28.5 -39.999 43.5s-24.333 36.167 -39 63.5l-49 110c-19.333 42.667 -32.666 75.334 -39.999 98.001s-11 41.334 -11 56.001c0 10 2.33301 19.667 7 29c13.333 24.667 32 37 56 37
c6.66699 0 14.334 -1.66699 23.001 -5l18 -13c9.33301 -9.33301 14.666 -18.166 15.999 -26.499s2 -37.166 2 -86.499c0 -11.333 2.83301 -27.333 8.5 -48s16.834 -51.667 33.501 -93l12 -28c7.33301 -16.667 17 -35.667 29 -57l8 -13l6 -8l31 56l48 81
c3.33301 6 7.33301 12.833 12 20.5s8.66699 13.834 12 18.501c35.333 58 63.166 100.667 83.499 128s43.833 54.333 70.5 81c12.667 -2.66699 22.5 -8.33398 29.5 -17.001s10.5 -20.334 10.5 -35.001c0 -20 -8 -48.667 -24 -86z" />
    <glyph glyph-name="Z" unicode="Z" horiz-adv-x="684" 
d="M709 134c0 -28.667 -11.3359 -52.9971 -34.0029 -72.9971s-67.334 -43.333 -134.001 -70c-33.333 -14 -70 -25 -110 -33c-18 -3.33301 -36.667 -6.33301 -56 -9s-38 -4 -56 -4c-131.333 0 -204.833 4.5 -220.5 13.5s-23.5 21.5 -23.5 37.5c0 11.333 4.33301 22.333 13 33
c21.333 28 46.666 58.667 75.999 92l140 153l118 126c8.66699 8.66699 17.334 18 26.001 28l26 31c10.667 13.333 18.5 25.833 23.5 37.5s7.5 21.5 7.5 29.5c0 10.667 -3.5 17.167 -10.5 19.5s-15.5 4.66602 -25.5 6.99902l-28 6.5l-54 11l-12 1
c-34.667 6 -68.667 10.667 -102 14s-71.666 5 -114.999 5h-46c4 18.667 10.667 37 20 55c13.333 27.333 21 42.333 23 45c10 16 24 24 42 24c8.66699 0 18.834 -0.833008 30.501 -2.5l38.5 -5.5l83 -12l15 -3c24 -4 41.833 -7.16699 53.5 -9.5s35.834 -7.83301 72.501 -16.5
c48.667 -13.333 83.667 -27.5 105 -42.5s32 -34.5 32 -58.5c0 -30.667 -20.333 -75.334 -61 -134.001c-13.333 -20.667 -31 -44.667 -53 -72c-24.667 -31.333 -51.667 -63.333 -81 -96c-25.333 -28.667 -51 -56 -77 -82l-92 -89l-41 -37
c20.667 -6.66699 45.167 -11.834 73.5 -15.501s60.166 -5.5 95.499 -5.5c55.333 0 98.833 4.33301 130.5 13s68.834 26 111.501 52c18.667 10.667 35.334 22.667 50.001 36h26z" />
    <glyph glyph-name="bracketleft" unicode="[" horiz-adv-x="463" 
d="M461 693c0 -6.66699 -3.33301 -14.332 -10 -22.999s-14 -12.667 -22 -12c0 -0.666992 -3.33301 -0.833984 -10 -0.500977s-15.334 0.5 -26.001 0.5c-17.333 0 -34.166 -3.66699 -50.499 -11s-26.166 -14 -29.499 -20l-17 -53c0 -12 -1.33301 -26.333 -4 -43
s-6 -30 -10 -40c0 -26.667 -7 -73.667 -21 -141s-21 -108.333 -21 -123c0 -16 -1.33301 -31.667 -4 -47c-7.33301 -42.667 -11 -71.334 -11 -86.001c-6.66699 -20.667 -11.5 -39.5 -14.5 -56.5s-4.5 -33.167 -4.5 -48.5c0 -6.66699 8.16699 -10.834 24.5 -12.501
s27.5 -3.5 33.5 -5.5c4 0 17 3 39 9s38.667 9 50 9c8 0 12 -4 12 -12c0 -2.66699 -2.33301 -8.83398 -7 -18.501s-7.33398 -17.834 -8.00098 -24.501c-8 -8 -26.667 -14 -56 -18s-53 -6 -71 -6c-28.667 0 -48.834 2.5 -60.501 7.5s-21.5 12.833 -29.5 23.5
c0 16.667 0.833008 33 2.5 49l5.5 52c2.66699 12 6.33398 44 11.001 96c2 25.333 4.33301 43.666 7 54.999l15 134.5c4 35.667 8.66699 64.5 14 86.5c2.66699 28 5.16699 52.333 7.5 73s5.5 37.334 9.5 50.001c0.666992 1.33301 5.66699 22 15 62
c5.33301 23.333 12.333 42.333 21 57s20.334 25.334 35.001 32.001l49 15c4 2.66699 18.167 6.83398 42.5 12.501s41.833 8.5 52.5 8.5c5.33301 0 12 -0.666992 20 -2s13 -2.66602 15 -3.99902c1.33301 -0.666992 2.66602 -3.66699 3.99902 -9s2 -10.666 2 -15.999z" />
    <glyph glyph-name="backslash" unicode="\" horiz-adv-x="298" 
d="M304 -54c-7.33301 -6.66699 -16.667 -10.0029 -28 -10.0029c-8 0 -16 2.66699 -24 8s-14 13 -18 23c-1.33301 2.66699 -3.33301 9 -6 19c-6 21.333 -14.667 54 -26 98c-1.33301 6.66699 -4.66602 19 -9.99902 37l-32 101l-49 154l-49 159
c-20 46 -33.833 79.833 -41.5 101.5s-11.5 37.167 -11.5 46.5v6c1.33301 2.66699 2 4.33398 2 5.00098c4.66699 11.333 13.667 17 27 17c4.66699 0 9 -1 13 -3c10 -2 18.667 -6.66699 26 -14c12.667 -11.333 21 -19.166 25 -23.499s6.33301 -7.5 7 -9.5
c4 -22 10.833 -51.167 20.5 -87.5s28.5 -101.166 56.5 -194.499c7.33301 -22.667 15.666 -50.667 24.999 -84l18 -64l38 -145c28.667 -68.667 43 -110.667 43 -126c0 -5.33301 -2 -10 -6 -14z" />
    <glyph glyph-name="bracketright" unicode="]" horiz-adv-x="463" 
d="M330 693c0 -16.667 -1.33105 -36.667 -3.99805 -60s-4 -37 -4 -41c-2.66699 -12 -6.33398 -44 -11.001 -96c-2 -25.333 -4.33301 -43.666 -7 -54.999l-15 -134.5c-4 -35.667 -8.66699 -64.5 -14 -86.5c-2.66699 -28 -5.16699 -52.333 -7.5 -73s-5.5 -37.334 -9.5 -50.001
c-7.33301 -28 -12.333 -48.667 -15 -62c-5.33301 -23.333 -12.333 -42.333 -21 -57s-20.334 -25.334 -35.001 -32.001c-16.667 -4.66699 -33 -9.66699 -49 -15c-4 -2.66699 -18.167 -6.83398 -42.5 -12.501s-41.833 -8.5 -52.5 -8.5c-5.33301 0 -12 0.666992 -20 2
s-13 2.66602 -15 3.99902c-1.33301 0.666992 -2.66602 3.66699 -3.99902 9s-2 10.666 -2 15.999c0 6.66699 3.16699 14.667 9.5 24s13.833 14.333 22.5 15c1.33301 -0.666992 3 -1.66699 5 -3c5.33301 -0.666992 15.666 -1 30.999 -1c17.333 0 34.166 3.66699 50.499 11
s26.166 14 29.499 20l17 53c0 12 1.33301 26.333 4 43s6 30 10 40c0 26.667 7 73.667 21 141s21 108.333 21 123c0 16 1.33301 31.667 4 47c7.33301 42.667 11 71.334 11 86.001c6.66699 20.667 11.5 39.5 14.5 56.5s4.5 33.167 4.5 48.5
c0 6.66699 -8.16699 10.834 -24.5 12.501s-27.5 3.5 -33.5 5.5c-4 0 -17 -3 -39 -9s-38.667 -9 -50 -9c-8 0 -12 4 -12 12c0 2.66699 2.33301 8.83398 7 18.501s7.33398 17.834 8.00098 24.501c8 8 26.667 14 56 18s53 6 71 6c28.667 0 48.834 -2.5 60.501 -7.5
s21.5 -12.833 29.5 -23.5z" />
    <glyph glyph-name="asciicircum" unicode="^" horiz-adv-x="348" 
d="M327 358c-3.33301 0 -10.668 -0.667969 -22.001 -2.00098s-19.333 -2 -24 -2c-6.66699 0 -10.334 1 -11.001 3c-3.33301 9.33301 -13.666 29.666 -30.999 60.999c-14.667 26.667 -26.334 47 -35.001 61c-4 7.33301 -8.33301 11 -13 11c-6 0 -10 -0.333008 -12 -1
c-4 -1.33301 -7.5 -4.16602 -10.5 -8.49902s-16.833 -20.166 -41.5 -47.499c-11.333 -12.667 -17.666 -20.334 -18.999 -23.001s-5.16602 -8.16699 -11.499 -16.5l-18 -23.5c-5.66699 -7.33301 -10.834 -11 -15.501 -11h-14c-12 0 -20 1 -24 3s-5.66699 4.66699 -5 8
c0 6 4.33301 16.333 13 31c6.66699 11.333 14 21.666 22 30.999l37.5 44.5c9.66699 11.667 16.167 20.167 19.5 25.5c6 8.66699 13.333 17.5 22 26.5s15 14.167 19 15.5c2 0.666992 7.33301 3.83398 16 9.50098s16.334 8.83398 23.001 9.50098c21.333 0 34 -1 38 -3
c3.33301 -2 7.5 -8 12.5 -18l15.5 -30l66 -122l7.5 -15c2.33301 -4.66699 3.5 -8 3.5 -10c0 -4.66699 -2.66699 -7 -8 -7z" />
    <glyph glyph-name="underscore" unicode="_" horiz-adv-x="500" 
d="M500 -200h-500v50h500v-50z" />
    <glyph glyph-name="grave" unicode="`" 
d="M481 459c0 -7.33301 -2.66797 -13 -8.00098 -17c-7.33301 -3.33301 -12 -5.33301 -14 -6l-80 27l-31 16c-4 0.666992 -11 4 -21 10c-25.333 15.333 -44.666 25.333 -57.999 30c-4 10.667 -10 20.667 -18 30c0 16 0.666992 24.667 2 26
c5.33301 6.66699 11.333 11.167 18 13.5s15 3.5 25 3.5c4.66699 -8.66699 14 -20.667 28 -36s34 -32 60 -50c13.333 -8.66699 26 -15.667 38 -21c32 -13.333 51.667 -22 59 -26z" />
    <glyph glyph-name="a" unicode="a" horiz-adv-x="518" 
d="M550 117c-2.66699 -9.33301 -8.33203 -19.0049 -16.999 -29.0049c-3.33301 -4 -14 -15.667 -32 -35c-7.33301 -7.33301 -17.333 -15.5 -30 -24.5s-26.334 -17.5 -41.001 -25.5s-29 -12 -43 -12c-32.667 0 -54.334 15 -65.001 45c-2 10 -3 23 -3 39v18l1 26l-5 -6l-23 -26
c-24 -27.333 -44.833 -48.166 -62.5 -62.499s-35.167 -25.5 -52.5 -33.5c-34 -13.333 -59 -20 -75 -20c-26.667 0 -47.5 6.5 -62.5 19.5s-21.167 29.167 -18.5 48.5c1.33301 8.66699 2.83301 15.834 4.5 21.501s3.83398 12.167 6.50098 19.5l11 28l-20 -17
c-2.66699 -2.66699 -7.33398 -4 -14.001 -4c-6 1.33301 -9.66699 5 -11 11c-2 5.33301 -1.66699 11.666 1 18.999s8.33398 15.333 17.001 24l31 30l13 13l45 41l14 15c35.333 30.667 69.666 55.5 102.999 74.5s62.833 33 88.5 42s46.5 13.5 62.5 13.5
c20 0 34.333 -6.33301 43 -19c4.66699 -7.33301 3.66699 -13 -3 -17c-12 -8 -23.667 -13 -35 -15s-28.333 -8 -51 -18c-18.667 -8 -44.667 -23 -78 -45c-22.667 -16 -39.667 -28.667 -51 -38s-22.666 -20 -33.999 -32c-28.667 -33.333 -47 -61.666 -55 -84.999
c-1.33301 -5.33301 -2 -9.66602 -2 -12.999c0 -18 9 -28 27 -30c10.667 0 21.334 2.5 32.001 7.5s26.334 15.5 47.001 31.5l24.5 21.5c6.33301 5.66699 13.166 12.834 20.499 21.501l21 24c32.667 43.333 52 68.333 58 75c19.333 23.333 36 35 50 35
c4.66699 0 8.66699 -0.333008 12 -1c23.333 -3.33301 35 -17 35 -41c0 -4 -0.333008 -7.33301 -1 -10c-4 -20 -10.667 -40.333 -20 -61l-9 -28c-4 -23.333 -6 -39.666 -6 -48.999s2 -18 6 -26s11.333 -10.667 22 -8c8 4 15.167 8.5 21.5 13.5s16.5 14.167 30.5 27.5l13 11
c13.333 16.667 22.666 27.167 27.999 31.5s10.666 5.83301 15.999 4.5c4 -0.666992 7.83301 -2.66699 11.5 -6s4.83398 -8.33301 3.50098 -15z" />
    <glyph glyph-name="b" unicode="b" horiz-adv-x="522" 
d="M551 126c4.66699 -4.66699 7.00293 -9.34082 7.00293 -14.0078c0 -11.333 -10.667 -23.666 -32 -36.999c-24 -12.667 -45 -19 -63 -19c-34 0 -62 20 -84 60l-9 24l-3 -14c-10.667 -49.333 -29.834 -88.166 -57.501 -116.499s-57.834 -42.5 -90.501 -42.5
c-40.667 0 -70 20 -88 60c-14 29.333 -23.333 64.666 -28 105.999l-3 34l-3 -3l-10 -8c-9.33301 -8 -15.666 -14 -18.999 -18l-10 -13l-27 -34c-4 -5.33301 -8.33301 -5 -13 1l-9 14c-2.66699 6 -4 11.667 -4 17s5.33301 13 16 23l36 34c4 3.33301 8.66699 7.83301 14 13.5
l16 17.5l10 14l6 7v73c0 24.667 0.333008 49.334 1 74.001c0 80 11.333 148 34 204c18.667 46.667 43 81.334 73 104.001c10 8.66699 17.833 14.834 23.5 18.501s11.667 6.83398 18 9.50098s12.166 4 17.499 4c22 0 36.333 -15 43 -45c0.666992 -6 1.5 -11.5 2.5 -16.5
s1.5 -11.5 1.5 -19.5c0 -19.333 -4.66699 -54.666 -14 -105.999c-4 -21.333 -11.5 -47 -22.5 -77s-25.833 -64 -44.5 -102l-21 -38l-18 -32c-3.33301 -8 -5.83301 -18.833 -7.5 -32.5s-2.5 -40.167 -2.5 -79.5c0 -17.333 0.333008 -29.666 1 -36.999
c6.66699 -48.667 22 -73 46 -73c10 0 20 2.33301 30 7c9.33301 3.33301 19.166 12 29.499 26s20.166 33 29.499 57l11 35c-5.33301 3.33301 -10.333 8.33301 -15 15c-8.66699 12.667 -13 26.334 -13 41.001c0 22.667 10 40.334 30 53.001
c11.333 7.33301 22.666 11 33.999 11c20.667 0 35.334 -9.66699 44.001 -29c1.33301 -4 2.33301 -9.83301 3 -17.5s1 -13.5 1 -17.5c-2 -18 -6.66699 -31 -14 -39c0 -4.66699 0.333008 -9.5 1 -14.5s1.66699 -9.83301 3 -14.5c14.667 -46 33 -69 55 -69
c8 0 17.167 2.16699 27.5 6.5s22.833 11.166 37.5 20.499c6.66699 4 14.334 2 23.001 -6zM254.003 551.993c3.33301 12 4.99902 20.665 4.99902 25.998c0 8.66699 -3.33301 14.667 -10 18c-6 2.66699 -10.167 1.33398 -12.5 -3.99902s-4.16602 -10.333 -5.49902 -15
c-5.33301 -13.333 -8.33301 -21.666 -9 -24.999l-15 -59l-4 -19l-16 -79l-3 -23l-4 -27l30 75l24 67l4 12z" />
    <glyph glyph-name="c" unicode="c" horiz-adv-x="407" 
d="M427 116c2 -4 2.99609 -8 2.99609 -12c0 -6.66699 -5.16699 -15.167 -15.5 -25.5s-26.5 -23.833 -48.5 -40.5c-7.33301 -6 -14.333 -10.667 -21 -14c-10 -6 -20 -10.667 -30 -14c-19.333 -7.33301 -41.333 -11 -66 -11c-15.333 0 -32.666 2 -51.999 6
c-36.667 6.66699 -63.667 17 -81 31s-28.666 33.667 -33.999 59c-2 8 -3 16.667 -3 26v9l3 17l-16 -17l-31 -32c-3.33301 0.666992 -5.66602 1.66699 -6.99902 3c-5.33301 4 -8.66602 8 -9.99902 12c-3.33301 4 -6.66602 8.33301 -9.99902 13c0 5.33301 13.333 21 40 47
l88 85c56.667 54.667 104.667 93.667 144 117c31.333 18.667 58.333 28 81 28c13.333 0 23.833 -1.83301 31.5 -5.5s14.5 -9.16699 20.5 -16.5c4 -5.33301 6 -10.666 6 -15.999c0 -8.66699 -4 -17 -12 -25c-12 -12 -23 -20.667 -33 -26l-26 -16l-23 -14l-47 -28l-12 -7
l-53 -30c-24.667 -14.667 -37 -36.334 -37 -65.001c0 -28 11.667 -51 35 -69c15.333 -13.333 36.666 -20 63.999 -20h14c4 0.666992 7 1 9 1c22 2 37 5.16699 45 9.5s23.333 17.833 46 40.5c7.33301 6 12 9.33301 14 10c3.33301 2 6.33301 3 9 3
c7.33301 0 12.333 -4.33301 15 -13z" />
    <glyph glyph-name="d" unicode="d" horiz-adv-x="528" 
d="M549 129c2 -3.33301 3.00195 -7.33691 3.00195 -12.0039c0 -8.66699 -4.33301 -17.667 -13 -27l-28 -29l-2 -2c-33.333 -30 -61 -45 -83 -45c-23.333 0 -46.666 16.667 -69.999 50c-8 10.667 -16.333 25.5 -25 44.5s-15.667 39.167 -21 60.5l-5 18l-3 17l-20 -47
l-21.5 -41c-3.66699 -6.66699 -7.16699 -12.334 -10.5 -17.001c-25.333 -40 -47.833 -68.667 -67.5 -86s-38.5 -26 -56.5 -26c-6.66699 0 -13 1 -19 3c-35.333 8.66699 -53 34.334 -53 77.001c0 16.667 1.66699 32.667 5 48l4 15l-13 -14c-13.333 -14 -22 -22.5 -26 -25.5
s-8.66699 -4.16699 -14 -3.5c-4.66699 0.666992 -8.33398 3.33398 -11.001 8.00098s-3.33398 9.33398 -2.00098 14.001c2.66699 8 6.66699 15.667 12 23l13 13l35 39l6 5l49 59l14 16c42 44.667 73.667 75.334 95 92.001s45.333 29.667 72 39l2 10l1 10l4 24l5 30l11.5 50.5
c4.33301 19 9.83301 37.5 16.5 55.5c4 13.333 7.66699 24.333 11 33s6.66602 16.334 9.99902 23.001c14.667 32 24.5 52.167 29.5 60.5s11.833 15.833 20.5 22.5c5.33301 4 11 6 17 6c10.667 0 18.334 -3.5 23.001 -10.5s7.33398 -13.5 8.00098 -19.5s1 -16.667 1 -32v-33
c0 -12 -2.33301 -28.167 -7 -48.5l-14 -60.5c-4.66699 -20 -15 -55.333 -31 -106l-21 -59l-2 -6l-6 -34l8 -61l8 -47l3 -18l4 -18c4.66699 -22.667 8 -37 10 -43s5 -12.667 9 -20c8 -16 19 -24 33 -24s28 6.66699 42 20c11.333 10 18.333 16.333 21 19
c7.33301 6.66699 11.666 11 12.999 13c2 3.33301 5.33301 5 10 5c5.33301 0 10.666 -2.66699 15.999 -8zM293.002 267.996l-1.00098 14.9971l-1 14l-1 18l-1 18l-35 -41l-2 -3l-30 -41l-28 -40l-5 -7l-5 -9c-28.667 -53.333 -43 -88.666 -43 -105.999
c0 -8.66699 2.66699 -19 8 -31c12 6.66699 20.833 12.834 26.5 18.501s14.834 18.834 27.501 39.501l30 47l7 11l31 56l13 25z" />
    <glyph glyph-name="e" unicode="e" horiz-adv-x="350" 
d="M393 130c4.66699 -6 -12.6709 -28.6699 -52.0039 -68.0029c-42.667 -42 -78 -67.333 -106 -76c-20 -6.66699 -39.667 -10 -59 -10c-31.333 0 -58.166 9 -80.499 27s-35.833 40.667 -40.5 68c-1.33301 9.33301 -2 16.333 -2 21c0 14 3.33301 29.333 10 46l-47 -49
c-3.33301 -4 -7 -4.66699 -11 -2c-3.33301 2.66699 -6.33301 6.83398 -9 12.501s-4 10.5 -4 14.5c0 10 5.66699 20.667 17 32s24.333 21.666 39 30.999c48.667 43.333 86.667 75.333 114 96c82 62.667 137.667 91.334 167 86.001c15.333 -2.66699 26.333 -8 33 -16
s10 -17.667 10 -29c0 -10.667 -2.33301 -21.667 -7 -33s-9.66699 -21.666 -15 -30.999c-14 -22.667 -36.667 -44 -68 -64s-70.666 -36.667 -117.999 -50l-23 -7c-1.33301 -6 0.333984 -16.333 5.00098 -31c12.667 -41.333 36 -62 70 -62
c8.66699 0 16.334 0.833008 23.001 2.5s15.334 4.83398 26.001 9.50098c22.667 10 41 23.333 55 40c3.33301 3.33301 13.333 14 30 32c12.667 14 21.667 21 27 21c3.33301 0 8.66602 -3.66699 15.999 -11zM315.995 287.997c2 11.333 -1.66602 17 -10.999 17
c-8 0 -19.333 -4.66699 -34 -14s-31 -21.666 -49 -36.999l-41 -38c-6 -4.66699 -11.833 -12 -17.5 -22s-9.83398 -18 -12.501 -24c27.333 6.66699 53.333 16.667 78 30s45.667 29.666 63 48.999c14.667 16.667 22.667 29.667 24 39z" />
    <glyph glyph-name="f" unicode="f" horiz-adv-x="364" 
d="M385 120c4 -6 6.00195 -11.332 6.00195 -15.999c0 -6.66699 -7.66699 -17.334 -23 -32.001l-19 -19c-8 -5.33301 -14.667 -8.5 -20 -9.5s-10.333 -1.5 -15 -1.5c-14.667 0 -28.334 5.66699 -41.001 17c-6 -8 -9.83301 -16 -11.5 -24s-4.16699 -29.333 -7.5 -64l-5 -36
c-8 -50.667 -16 -86.667 -24 -108c-10 -37.333 -19.333 -64 -28 -80s-20 -28.333 -34 -37c-11.333 -6.66699 -23.333 -10 -36 -10c-14.667 0 -27.834 4.83301 -39.501 14.5s-19.667 22.834 -24 39.501s-6.5 40.667 -6.5 72v62c0 20 0.333008 39.667 1 59
c0 18 2.5 42.5 7.5 73.5l13.5 80.5l8 48l1 10l-22 -22l-37 -39c-6.66699 0 -12.334 3.66699 -17.001 11s-7 13 -7 17c0 5.33301 15.667 23.333 47 54c4.66699 4 9.66699 9 15 15c8.66699 10 15.334 18 20.001 24l9 15l4 6l-1 44c0 117.333 12.667 215 38 293
c20.667 64 46.334 105.667 77.001 125c9.33301 5.33301 18.333 8 27 8c20.667 0 33.667 -11.333 39 -34c3.33301 -12.667 5 -27.667 5 -45c0 -8.66699 -0.333008 -15 -1 -19c-8.66699 -72.667 -17.167 -125.834 -25.5 -159.501s-25.166 -81.167 -50.499 -142.5l-8 -21
l-6 -13l-7 -43l-6 -46c-3.33301 -19.333 -6.5 -38.666 -9.5 -57.999s-6.16699 -43.333 -9.5 -72l-3 -18l-13 -115c-1.33301 -13.333 -2.5 -25.5 -3.5 -36.5s-1.5 -22.5 -1.5 -34.5c0 -26 8.33301 -47.667 25 -65c9.33301 14 15.666 27.167 18.999 39.5
s7.66602 38.166 12.999 77.499l3 23l8 69l4 22c9.33301 38 17.5 63.667 24.5 77s16.5 20 28.5 20c7.33301 0 16 -2 26 -6l28 -10c1.33301 -0.666992 3 -0.666992 5 0c4.66699 1.33301 11 6.83301 19 16.5s16 14.5 24 14.5c6 0 11.667 -3.66699 17 -11zM209.002 582.001
c-8 -26 -14.167 -52.001 -18.5 -78.001s-6.5 -55 -6.5 -87v-30l12 32c12 34.667 20.667 62.834 26 84.501s8 38.5 8 50.5c0 18.667 -7 28 -21 28z" />
    <glyph glyph-name="g" unicode="g" horiz-adv-x="371" 
d="M406 138c0 -19.333 -3.50195 -34.501 -10.502 -45.501s-26.167 -30.833 -57.5 -59.5l-11 -9l-5 -4l-36 -27l-18 -13.5c-7.33301 -5.66699 -13 -10.5 -17 -14.5l8 -6l6 -6c9.33301 -7.33301 19.833 -18.166 31.5 -32.499s22.5 -31 32.5 -50s15 -39.167 15 -60.5
c0 -32.667 -11.667 -61.167 -35 -85.5s-57.333 -41.166 -102 -50.499c-8 -1.33301 -16.667 -2.66602 -26 -3.99902s-18 -2 -26 -2h-12c-5.33301 1.33301 -9.33301 2 -12 2c-33.333 3.33301 -59.666 14 -78.999 32s-29 39.333 -29 64c0 10.667 2.33301 22.334 7 35.001
s10.834 25 18.501 37s19.834 27 36.501 45l24 25c10.667 10 22 19.667 34 29l8 7l7 7c-8 2 -17 5.66699 -27 11c-55.333 30.667 -83 72.334 -83 125.001v11c1.33301 5.33301 2 9.33301 2 12l2 10c-5.33301 -10 -13 -17.667 -23 -23
c-9.33301 -6.66699 -19.333 -9.33398 -30 -8.00098c0 18 2.83301 31.5 8.5 40.5s21.167 24.833 46.5 47.5l30 27c6.66699 28.667 16.667 56 30 82c17.333 34 36.666 61.667 57.999 83s43.833 36.666 67.5 45.999s42.5 14 56.5 14c9.33301 0 19.166 -2.5 29.499 -7.5
s15.5 -14.167 15.5 -27.5c0 -4.66699 -1.66699 -10.334 -5 -17.001c-5.33301 -7.33301 -9.66602 -13 -12.999 -17c-5.33301 -6.66699 -10.333 -12.334 -15 -17.001l-37 -34l-6 -5l-9 -7l-37 -28l-16 -12c-48.667 -44 -73 -85 -73 -123c0 -37.333 23 -79 69 -125l20 -18l8 6
l9 5l34 27l27 19l11 8l27 25l25 27l21 26c6.66699 4 15 5.33301 25 4zM236.998 -125.001l-20.001 23.002l-14 15l-8 6l-21 -14c-26 -20.667 -45.667 -38.167 -59 -52.5s-24.666 -29.833 -33.999 -46.5c-8 -12 -12 -24.333 -12 -37c0 -22.667 10.333 -38.334 31 -47.001
c12 -5.33301 24.667 -8 38 -8c10.667 0 23 2 37 6c29.333 6 51.833 16.167 67.5 30.5s23.5 31.166 23.5 50.499c0 22 -9.66699 46.667 -29 74z" />
    <glyph glyph-name="h" unicode="h" horiz-adv-x="532" 
d="M562 131c6.66699 1.33301 10.665 2 11.998 2c6 0 9 -2.33301 9 -7c0 -10 -13.333 -27.667 -40 -53s-55.667 -47.333 -87 -66c-24 -14 -45.333 -21 -64 -21c-23.333 0 -44.166 10.833 -62.499 32.5s-34.833 55.834 -49.5 102.501l-17 56
c-13.333 -15.333 -30.666 -39.333 -51.999 -72c-26.667 -40.667 -43 -70.667 -49 -90c-14.667 -42.667 -33.334 -64 -56.001 -64c-10 0 -21.667 3.66699 -35 11c-9.33301 4.66699 -15.666 12.5 -18.999 23.5s-5 28.167 -5 51.5l2 85l-14 -15l-7 -7
c-11.333 -10.667 -17.666 -15.334 -18.999 -14.001c-13.333 2 -18.666 10.667 -15.999 26c2.66699 7.33301 7 15 13 23l53 54l7 48c8 53.333 15.5 96.833 22.5 130.5s14.167 63.5 21.5 89.5c13.333 44.667 28.666 84 45.999 118c10.667 20.667 24 43 40 67s33.5 41 52.5 51
s38.5 15 58.5 15c17.333 0 32.666 -3 45.999 -9s21.5 -12.167 24.5 -18.5s4.5 -13.833 4.5 -22.5c0 -10.667 -3.16699 -26.667 -9.5 -48l-16.5 -57c-9.33301 -30.667 -25 -65.334 -47 -104.001c-24 -42.667 -54.333 -87.667 -91 -135
c-10 -12.667 -16.667 -21.334 -20 -26.001c-10.667 -13.333 -20.667 -24.666 -30 -33.999l-20 -22l-19 -117c-3.33301 -24 -5.5 -42.333 -6.5 -55s-1.5 -29 -1.5 -49c12 31.333 35.667 77.333 71 138c46.667 80.667 82.334 125.334 107.001 134.001
c14.667 4.66699 22.334 7 23.001 7c5.33301 1.33301 9.66602 2 12.999 2c17.333 0 30.166 -13.333 38.499 -40s12.5 -78 12.5 -154c0 -34 10.333 -51 31 -51c17.333 0 41.333 12.333 72 37c12 10.667 24 20 36 28c14.667 10 27 16.333 37 19zM335.998 650
c-5.33301 1.33301 -9.33203 2.00098 -11.999 2.00098c-26.667 0 -53.667 -28.667 -81 -86c-8.66699 -18 -28.334 -70 -59.001 -156l-19 -57.5c-6 -19 -9 -37.167 -9 -54.5c23.333 21.333 44.833 46 64.5 74s38.5 59.333 56.5 94c24 44.667 39.333 74 46 88
c16.667 35.333 25 60.666 25 75.999c0 11.333 -4 18 -12 20z" />
    <glyph glyph-name="i" unicode="i" horiz-adv-x="458" 
d="M312 603c2 -4.66699 3.33301 -10.668 4 -18.001s1 -11.666 1 -12.999c0 -16 -4 -31.667 -12 -47c-10.667 -18 -27 -30.667 -49 -38c-7.33301 -2.66699 -14.666 -4 -21.999 -4c-14 0 -26 4.66699 -36 14s-16 20.666 -18 33.999c-4 15.333 4.33301 37 25 65
c6 7.33301 11.833 13.833 17.5 19.5s12.667 10.834 21 15.501s16.166 7 23.499 7c21.333 0 36.333 -11.667 45 -35zM497 111.999c-1.33301 -6.66699 -4.16699 -12.8291 -8.5 -18.4961s-14.5 -17.167 -30.5 -34.5c-4 -4.66699 -15.333 -14.334 -34 -29.001
c-26.667 -22.667 -52.334 -38.667 -77.001 -48c-16 -6.66699 -31 -11.834 -45 -15.501s-25.667 -5.5 -35 -5.5c-22.667 0 -41.334 9.66699 -56.001 29s-30.667 54 -48 104c-5.33301 14 -10.5 30.333 -15.5 49s-9.16699 37.667 -12.5 57l-20 -17l-45 -42l-30 -34
c-9.33301 -10.667 -16 -16.667 -20 -18c-10.667 -3.33301 -18.667 -1.33301 -24 6c-2.66699 5.33301 -4 9.66602 -4 12.999c0 7.33301 3.66699 14.666 11 21.999l30 29l7 6l30 32l63 64l13 14c22 22.667 39 34 51 34c4 0 8.5 -0.833008 13.5 -2.5
s9.83301 -3.16699 14.5 -4.5c19.333 -6 30.666 -12.5 33.999 -19.5s5 -28.5 5 -64.5c0.666992 -8 2 -17.167 4 -27.5l7 -35.5l8 -26c16.667 -54.667 40.334 -82 71.001 -82c13.333 0 27.5 6 42.5 18s24.833 20 29.5 24c9.33301 8 15 13 17 15
c10.667 13.333 18.834 22 24.501 26s10.834 5.33301 15.501 4c12 -2 16.667 -9.33301 14 -22z" />
    <glyph glyph-name="j" unicode="j" horiz-adv-x="437" 
d="M342 642c0.666992 -2.66699 1.00098 -7.00098 1.00098 -13.001c0 -13.333 -2.66699 -26.166 -8 -38.499s-14 -24.5 -26 -36.5c-14.667 -15.333 -32.334 -25.666 -53.001 -30.999c-6.66699 -1.33301 -11.667 -2 -15 -2c-31.333 0 -47 17.333 -47 52
c0 10 2.33301 20.167 7 30.5s13.667 23.5 27 39.5s30.333 28.333 51 37c5.33301 2.66699 11.666 4 18.999 4c11.333 0 21.333 -3.83301 30 -11.5s13.334 -17.834 14.001 -30.501zM467.001 114.999c-2 -6.66699 -5.50098 -13.165 -10.501 -19.498s-15.5 -17.833 -31.5 -34.5
c-5.33301 -6 -10.666 -11.333 -15.999 -16l-23 -18l-30 -24c-20.667 -14 -36.167 -23.833 -46.5 -29.5s-21.833 -10.5 -34.5 -14.5l-2 -15l-2 -17c-8 -51.333 -16 -88.333 -24 -111c-12.667 -38.667 -23 -66.167 -31 -82.5s-18.333 -29.666 -31 -39.999
s-26.667 -15.5 -42 -15.5c-29.333 0 -51 14.333 -65 43c-8 18 -12 36.333 -12 55c0 36.667 13.333 76.667 40 120c9.33301 15.333 21.166 30.166 35.499 44.499s30.166 26.833 47.499 37.5l1 13l1 9l1 10l5 47l2 17l4 56c2.66699 27.333 4 51.166 4 71.499v49.5
c-22 -14.667 -46 -33.334 -72 -56.001l-36 -32c-7.33301 -6.66699 -12.333 -11.667 -15 -15c-27.333 -30 -44.666 -48.167 -51.999 -54.5s-14.333 -8.83301 -21 -7.5c-4 0.666992 -7.33301 2 -10 4c-5.33301 4.66699 -7.33301 10.334 -6 17.001
c2 8.66699 6 15.334 12 20.001l43 42l3 3l109 106l44 44l2 2c20 22.667 33.667 34 41 34c4 0 10.333 -1.5 19 -4.5s14.167 -6.83301 16.5 -11.5s3.5 -17.667 3.5 -39v-37v-37l-2 -48c0 -24.667 -1.33301 -53 -4 -85s-4 -52.667 -4 -62v-10l-2 -15
c9.33301 3.33301 20 8.16602 32 14.499s23 13.166 33 20.499c22.667 15.333 41.334 31.333 56.001 48c18.667 20.667 31.334 33.667 38.001 39s13 7.33301 19 6c11.333 -2.66699 15.666 -10 12.999 -22zM183 -64.999c-20 -12.667 -37.167 -29.167 -51.5 -49.5
s-25.5 -44.833 -33.5 -73.5c-3.33301 -12 -5.5 -21.667 -6.5 -29s-1.5 -15.666 -1.5 -24.999c0 -19.333 5.33301 -33 16 -41c3.33301 -2.66699 7.33301 -4 12 -4c5.33301 0 10.166 2.66699 14.499 8s7.83301 12 10.5 20c0.666992 1.33301 4.33398 13.666 11.001 36.999l3 13
l9 50l4 15l4 26l6 30l1 13z" />
    <glyph glyph-name="k" unicode="k" horiz-adv-x="510" 
d="M539 106c0 -6 -2.49902 -12.1729 -7.49902 -18.5059s-15.833 -17.166 -32.5 -32.499l-44 -38l-3 -3l-24 -13c-14.667 -5.33301 -27.334 -8 -38.001 -8c-27.333 0 -56 23 -86 69c-4.66699 6.66699 -10.667 14 -18 22s-17.666 17.667 -30.999 29l-17 -26l-5 -8l-38 -58
c-12.667 -17.333 -24.667 -31.666 -36 -42.999s-22.666 -20 -33.999 -26c-7.33301 -4 -14.333 -6 -21 -6c-9.33301 0 -17.833 3.5 -25.5 10.5s-12.334 15.833 -14.001 26.5s-2.5 21.334 -2.5 32.001c0 7.33301 1 18.333 3 33s4.66699 33 8 55l3 17l4 14l4 15l-22 -20l-5 -6
c-14 -16 -23 -25.5 -27 -28.5s-9 -4.16699 -15 -3.5c-4.66699 1.33301 -8.33398 3.66602 -11.001 6.99902s-3.33398 7 -2.00098 11c3.33301 12.667 9 23.667 17 33l38 39l8 8c0.666992 0.666992 3.33398 4.33398 8.00098 11.001c16.667 22.667 28 43.5 34 62.5
s12 53.167 18 102.5l2 23l11 63l7 50l5 34l15 87l19 87c6 4.66699 12.667 7 20 7c14 0 27 -7.33301 39 -22c5.33301 -7.33301 9.5 -16.833 12.5 -28.5s4.5 -26.167 4.5 -43.5c0 -18 -2.66699 -45 -8 -81l-7 -35c-4.66699 -28.667 -11.334 -53.667 -20.001 -75l-2 -6l-17 -49
l-4 -15l-4 -10c-3.33301 -9.33301 -9.33301 -29.5 -18 -60.5s-15.667 -57.5 -21 -79.5l-9 -35l-2 -8l-14 -73c-4.66699 -23.333 -7 -39.333 -7 -48c0 -8 2.66699 -16.667 8 -26l24 30l25 51c6.66699 14.667 12 27.334 16 38.001c2 6 3.33301 10.333 4 13v34l2 28
c2.66699 12 8 21.667 16 29s17 11 27 11c5.33301 0 11.333 -1.66699 18 -5l16 23c13.333 20 23.333 36.167 30 48.5s12.334 24.5 17.001 36.5l21 58c5.33301 6 12 9 20 9c7.33301 0 14.333 -3 21 -9s10 -16 10 -30c0 -11.333 -2.16699 -24.166 -6.5 -38.499
s-11.5 -30.166 -21.5 -47.499l-33 -57l-7 -11l-10 -12c16 -14.667 30.333 -30 43 -46s28.334 -39 47.001 -69c4 -8.66699 10 -16.334 18 -23.001c4.66699 -4.66699 10.334 -7 17.001 -7c12.667 0 24 8.33301 34 25l12 15c5.33301 6.66699 9.66602 11.667 12.999 15s7 5 11 5
c2.66699 0 6 -1.33301 10 -4c7.33301 -7.33301 10.666 -15.666 9.99902 -24.999z" />
    <glyph glyph-name="l" unicode="l" horiz-adv-x="419" 
d="M439 122c6 -6 8.99512 -12.0039 8.99512 -18.0039s-3.33301 -13 -10 -21s-17.334 -16.667 -32.001 -26l-38 -27c-26.667 -18.667 -42 -28.667 -46 -30c-33.333 -12.667 -63.666 -19 -90.999 -19c-77.333 0 -120.666 47.667 -129.999 143l-1 25l1 23l-20 -20
c-13.333 -12 -22.666 -22 -27.999 -30c-20.667 -23.333 -37 -35 -49 -35c-4.66699 0 -8.66699 1.33301 -12 4c-5.33301 4 -4.16602 12.167 3.50098 24.5s21.834 28.166 42.501 47.499c5.33301 3.33301 18 16.333 38 39c10.667 12 18.334 21 23.001 27l19 233
c9.33301 64.667 21.333 114.334 36 149.001c12 29.333 30 55 54 77c15.333 15.333 32.666 23 51.999 23c12 0 22.5 -3.5 31.5 -10.5s14.833 -16.167 17.5 -27.5s4 -23.666 4 -36.999c0 -17.333 -4.33301 -49.666 -13 -96.999
c-5.33301 -29.333 -14.666 -61.666 -27.999 -96.999c-15.333 -40 -35.666 -82.333 -60.999 -127l-18 -32c0 -12.667 0.333008 -25 1 -37s2 -24 4 -36c14 -104 44.667 -156 92 -156c18 0 39 6 63 18c4 2 16 11.333 36 28l31 26
c3.33301 4.66699 9.66602 3.33398 18.999 -3.99902zM248.995 599.996c-7.33301 0 -13.999 -3.16797 -19.999 -9.50098s-11 -17.5 -15 -33.5l-19 -78c-4.66699 -22 -8.83398 -44.667 -12.501 -68s-6.83398 -45 -9.50098 -65c12.667 17.333 27.334 44.333 44.001 81
s25 58.334 25 65.001c5.33301 12.667 9 22.667 11 30c7.33301 22.667 11 40.667 11 54c0 16 -5 24 -15 24z" />
    <glyph glyph-name="m" unicode="m" horiz-adv-x="882" 
d="M920 132c-3.33301 -19.333 -10.001 -35.9971 -20.001 -49.9971s-29 -31.333 -57 -52c-35.333 -26 -64 -39 -86 -39c-14.667 0 -27.5 4.5 -38.5 13.5s-21.833 23.5 -32.5 43.5l-7 14l-15 32c-19.333 38.667 -43.333 58 -72 58c-18 0 -37.333 -9.33301 -58 -28
c-10.667 -10.667 -22.667 -25.5 -36 -44.5s-24.666 -35.833 -33.999 -50.5l-10 -20l-24 -44l-2 -3c-6.66699 -9.33301 -17 -14 -31 -14c-7.33301 0 -13.333 2.33301 -18 7s-6.66699 9.66699 -6 15l9 59c1.33301 2.66699 2.5 8.5 3.5 17.5s2.66699 25.167 5 48.5
s3.66602 38.666 3.99902 45.999s0.5 16.333 0.5 27s-0.833008 21.334 -2.5 32.001s-4.5 23 -8.5 37l-42 -47l-15 -18l-27 -32l-40 -51c-8 -10.667 -20 -28.334 -36 -53.001l-21 -35l-12 -17l-24 -1c-25.333 0 -38 8 -38 24c0 10.667 4.33301 26 13 46l4 13
c18 53.333 27 92.333 27 117c0 16 -3 33 -9 51l-14 -16l-10 -11l-46 -46l-12 -13l-33.5 -33c-11 -10.667 -18.167 -18.667 -21.5 -24c-1.33301 -2 -4 -3 -8 -3s-11.667 1 -23 3c0 8.66699 0.833008 15.5 2.5 20.5s4.83398 11.5 9.50098 19.5l40 40l46 51l25 30l63 71
c12 15.333 20.833 25.666 26.5 30.999s12.5 9.66602 20.5 12.999c18.667 7.33301 33.334 11 44.001 11c16 0 24.667 -4.66699 26 -14s2.16602 -16.5 2.49902 -21.5s0.5 -10.833 0.5 -17.5v-20c-1.33301 -6 -2 -10 -2 -12l-8 -71l-1 -4l-2 -14l-5 -18l14 18l19 27l19 25
l17 21l14 19c7.33301 9.33301 15.666 18 24.999 26l5 6l36 35c14.667 14.667 26.667 24.5 36 29.5s18.333 7.5 27 7.5c12 0 18.667 -4.16699 20 -12.5s2 -16.166 2 -23.499c0 -4 -0.666992 -10 -2 -18l-12 -75c-3.33301 -16.667 -7.5 -34.167 -12.5 -52.5
s-10.833 -36.833 -17.5 -55.5l-9 -27c18.667 25.333 38.334 47.666 59.001 66.999l41 36c34 24.667 62 37 84 37c38 0 67.667 -38 89 -114l8 -27l6 -36l5 -25l6 -21c2 -5.33301 6.66699 -8 14 -8c8.66699 0 18.667 4.16699 30 12.5s21.333 16 30 23s15.667 13.5 21 19.5
c20.667 23.333 36 35 46 35c4.66699 0 10 -1 16 -3z" />
    <glyph glyph-name="n" unicode="n" horiz-adv-x="698" 
d="M732 131c0 -20.667 -5.33496 -38.001 -16.002 -52.001s-32.167 -32.5 -64.5 -55.5s-57.5 -34.5 -75.5 -34.5c-23.333 0 -42.666 19 -57.999 57l-20 46c-18.667 39.333 -43.334 59 -74.001 59c-21.333 0 -42.666 -9.66699 -63.999 -29c-10 -9.33301 -19.667 -20 -29 -32
c-14.667 -18.667 -29.667 -40.667 -45 -66l-12 -18l-22 -40l-2 -4c-11.333 -16 -27.666 -23 -48.999 -21c-12 0 -21.5 4.33301 -28.5 13s-9.83301 19 -8.5 31c8.66699 37.333 19.334 77 32.001 119c4 12 8 34.667 12 68l4 29l2 21l1 16l1 12l-25 -17
c-38 -25.333 -66.333 -46.333 -85 -63l-53 -51c-19.333 -22 -33.333 -33 -42 -33c-4 0 -9 1 -15 3c1.33301 19.333 7 34.666 17 45.999c6 6.66699 19.333 20.334 40 41.001l7 8l54 55l67 63l63 56c20.667 18.667 38.667 31.334 54 38.001c6.66699 2.66699 12 4 16 4
c17.333 0 26 -7.33301 26 -22c0.666992 -4 1 -9.33301 1 -16c0 -8.66699 -0.666992 -17.334 -2 -26.001l-10 -51.5c-2.66699 -13.667 -6 -28.5 -10 -44.5c-0.666992 -2.66699 -5.33398 -18.667 -14.001 -48l-9 -30l-9 -26l11 12l25 32l2 3l18 18c8 8 15.5 14.833 22.5 20.5
l21.5 17.5c32.667 24.667 60 37 82 37c38.667 0 68.334 -39.333 89.001 -118l7 -28l11 -60c4 -20.667 11.333 -29.334 22 -26.001c8.66699 2.66699 17 6.83398 25 12.501s17.333 12.834 28 21.501l14 12l34 35c7.33301 6.66699 13 10 17 10
c1.33301 0 6.66602 -1.33301 15.999 -4z" />
    <glyph glyph-name="o" unicode="o" horiz-adv-x="459" 
d="M464 213c-7.33301 -35.333 -18.833 -66.335 -34.5 -93.002s-36.5 -50.667 -62.5 -72c-48 -40 -97.667 -60 -149 -60c-11.333 0 -22.666 1 -33.999 3c-42.667 6.66699 -73.334 18.667 -92.001 36s-28 42.333 -28 75c0 8.66699 0.333008 15.334 1 20.001l2 16l-14 -15
l-2 -2c-14.667 -17.333 -24.334 -27.666 -29.001 -30.999s-9.66699 -4.33301 -15 -3c-8 2 -12 7 -12 15c0 6.66699 3 16 9 28c1.33301 2.66699 7.33301 9.33398 18 20.001l49 49c7.33301 4.66699 14.333 12 21 22s11.834 19.5 15.501 28.5s9.5 25.833 17.5 50.5l10 19
c7.33301 16 15.333 28.667 24 38c23.333 25.333 43.5 43.666 60.5 54.999s31.833 17 44.5 17c10 0 18.5 -2.83301 25.5 -8.5s10.5 -13.167 10.5 -22.5c0 -4.66699 -1.66699 -10.334 -5 -17.001l48 11c12 1.33301 20.667 2 26 2c32 0 57 -9.66699 75 -29
s27 -48.666 27 -87.999c0 -20 -2.33301 -41.333 -7 -64zM405 175.998c1.33301 5.33301 2.33398 11.8311 3.00098 19.498s1 14.5 1 20.5c0 28.667 -5.83301 51.334 -17.5 68.001s-27.834 27.334 -48.501 32.001c-8 2 -16 3 -24 3c-10.667 0 -19.667 -1.5 -27 -4.5
s-14 -7.83301 -20 -14.5c-10.667 -13.333 -16.667 -20.666 -18 -21.999c-6 -6.66699 -11 -11.334 -15 -14.001c-16 -9.33301 -26.167 -16.833 -30.5 -22.5s-9.5 -18.834 -15.5 -39.501c-2.66699 -11.333 -5.16699 -23.166 -7.5 -35.499s-3.5 -22.833 -3.5 -31.5
c0 -7.33301 1.33301 -17 4 -29c11.333 -42.667 32.333 -64 63 -64c19.333 0 44.666 8.66699 75.999 26c44.667 24.667 71.334 60.667 80.001 108z" />
    <glyph glyph-name="p" unicode="p" horiz-adv-x="573" 
d="M608 131c-2 -22.667 -9.49707 -41.5 -22.4971 -56.5s-39.833 -35.167 -80.5 -60.5c-24.667 -14.667 -53.167 -26.167 -85.5 -34.5s-67.166 -12.5 -104.499 -12.5c-16.667 0 -34.667 1 -54 3c-6 0 -12.167 0.666992 -18.5 2l-32.5 7l-2 -12l-2 -6l-2 -8l-11 -40l-18 -66
l-11 -33l-12 -41c-14.667 -46.667 -25.334 -75.167 -32.001 -85.5s-18 -15.5 -34 -15.5c-19.333 0 -32.5 7 -39.5 21s-10.5 42.333 -10.5 85v81v4l8 89l2 19l8 72l9 89l-14 -15l-29 -30c-1.33301 -1.33301 -4 -2 -8 -2c-8.66699 2 -14 4.66699 -16 8
s-2.16699 8.16602 -0.5 14.499s5.16699 14.166 10.5 23.499c2.66699 4 6.16699 8.33301 10.5 13s17.833 18.334 40.5 41.001c8 9.33301 17 23 27 41c12.667 23.333 25.667 52.333 39 87l30 84l15 59c1.33301 4 6 15.667 14 35c3.33301 10.667 10.333 16 21 16
c7.33301 0 14.666 -3 21.999 -9c13.333 -10 20 -21.667 20 -35c0 -18 -16.667 -73.333 -50 -166c-8.66699 -25.333 -16.334 -51.333 -23.001 -78c-10 -40.667 -20 -87 -30 -139c-13.333 -71.333 -25.333 -154.666 -36 -249.999l-6 -69l33 130
c11.333 42.667 20.333 75.334 27 98.001c9.33301 31.333 17.666 57.666 24.999 78.999c28 86 50.667 147.667 68 185c14.667 31.333 30.334 54.333 47.001 69c26.667 24 56 36 88 36c10.667 0 23.334 -1.66699 38.001 -5s30 -10 46 -20c42 -27.333 63 -63.666 63 -108.999
c0 -36.667 -14.667 -76.667 -44 -120l-21 -26l-4 -3l-46 -38l-3 -3l-19 -17c16.667 0 31.667 2.5 45 7.5s31.666 15.667 54.999 32s41 31.166 53 44.499c21.333 22 35 33 41 33c3.33301 0 8.66602 -1 15.999 -3zM416.003 207c-2.66699 12 -6.00098 21.5 -10.001 28.5
s-9.66699 14.5 -17 22.5s-16.333 12 -27 12c-16.667 0 -30.667 -8.66699 -42 -26c-5.33301 -8.66699 -11.666 -20 -18.999 -34c-10 -18.667 -19 -38.334 -27 -59.001c-11.333 -30 -19.166 -54.167 -23.499 -72.5s-6.5 -35.166 -6.5 -50.499c8 -1.33301 14.333 -2 19 -2
c14 0 27.667 3 41 9s30.666 17.333 51.999 34c42.667 34.667 64 71.667 64 111c0 4.66699 -0.5 9.66699 -1.5 15s-1.83301 9.33301 -2.5 12z" />
    <glyph glyph-name="q" unicode="q" horiz-adv-x="522" 
d="M540 119c2.66699 -5.33301 4.00391 -9.66602 4.00391 -12.999c0 -7.33301 -4 -15.833 -12 -25.5s-22.333 -22.834 -43 -39.501c-13.333 -10 -27.666 -23.667 -42.999 -41c-9.33301 -9.33301 -19 -21 -29 -35l3 -8l3 -12l18 -79c4 -27.333 6 -51 6 -71
c0 -37.333 -6.16699 -65 -18.5 -83s-30.5 -28 -54.5 -30c-30.667 0 -53.667 7.33301 -69 22s-23 39.334 -23 74.001v29c2 9.33301 3.83301 18.833 5.5 28.5s3.83398 20 6.50098 31s9.66699 33.5 21 67.5l15 46l25 65l5 16l2 4l6 22c-10 -10 -20.333 -19 -31 -27
c-6.66699 -4.66699 -18.667 -12.334 -36 -23.001l-26 -15l-3 -1l-50 -21c-22 -9.33301 -45 -14 -69 -14c-26 0 -48 9 -66 27s-27 41 -27 69c0 10.667 0.833008 21.334 2.5 32.001s7.5 22 17.5 34l-23 -23l-30 -32l-17 -4c-4.66699 1.33301 -8.33398 4.16602 -11.001 8.49902
s-3.33398 9.16602 -2.00098 14.499c0.666992 4 2.5 8.16699 5.5 12.5s5.16699 7.83301 6.5 10.5l53 50l6 7l71 60l3 3c23.333 18.667 44.666 34.5 63.999 47.5s36.666 23.5 51.999 31.5c29.333 14.667 55.666 25.334 78.999 32.001s42.333 10 57 10
c30 -2.66699 51 -5.5 63 -8.5s19 -6.83301 21 -11.5c4 -8 2.66699 -12.667 -4 -14l-67 -19c-10.667 -2.66699 -22.834 -7 -36.501 -13s-31.167 -16 -52.5 -30c-5.33301 -2.66699 -12.166 -6.83398 -20.499 -12.501l-18.5 -12.5c-18.667 -15.333 -33.5 -28.5 -44.5 -39.5
s-19.667 -21.333 -26 -31s-12.5 -21.167 -18.5 -34.5s-10 -24.833 -12 -34.5s-3 -16.167 -3 -19.5c0 -14 4 -24.667 12 -32s18 -9.66602 30 -6.99902c11.333 1.33301 23.5 6 36.5 14l44.5 28c10 6.66699 22.5 17.5 37.5 32.5s37.167 38.833 66.5 71.5l12 15
c18.667 26 32.667 39 42 39c5.33301 0 12.666 -2 21.999 -6c17.333 -6.66699 26 -15 26 -25c0 -10.667 -9 -26 -27 -46l-24 -31l-5 -4l-7 -6l-8 -26l-5 -20l-2 -6l-11 -46l-7 -26c6 12 11.5 20.5 16.5 25.5s18.167 16.5 39.5 34.5l29 28l20 22c2.66699 2.66699 6 4 10 4
c7.33301 0 13 -3.33301 17 -10zM407.004 -125l-12 54l-9 -32c-11.333 -44.667 -17 -79 -17 -103c0 -21.333 5 -42 15 -62c23.333 16.667 35 39 35 67c0 18.667 -4 44 -12 76z" />
    <glyph glyph-name="r" unicode="r" horiz-adv-x="393" 
d="M415 119c4.66699 -7.33301 7.00195 -12.668 7.00195 -16.001c0 -9.33301 -19 -31.333 -57 -66c-7.33301 -6.66699 -17.5 -14.167 -30.5 -22.5s-26.833 -16.166 -41.5 -23.499c-22.667 -11.333 -41.167 -19.5 -55.5 -24.5s-28.5 -7.5 -42.5 -7.5
c-27.333 0 -41 9.66699 -41 29c0 6 1 13 3 21l8 26l18 44l3 10l10 24c9.33301 28 14 51.667 14 71c0 30 -12 48 -36 54l-19 -19l-29 -27l-55 -55c-18.667 -22.667 -31.5 -37 -38.5 -43s-14.167 -8.33301 -21.5 -7c-4.66699 0.666992 -8.33398 2.66699 -11.001 6
s-3.33398 7 -2.00098 11c2.66699 10 6 18.333 10 25l47 46c8 8 16.667 17.667 26 29c12 14.667 25 32 39 52l16 20l-7 6c-10.667 10.667 -16 19.334 -16 26.001c0 7.33301 9 17 27 29l34 21c9.33301 4 18.666 6 27.999 6c20 0 38.333 -9.16699 55 -27.5
s27.334 -43.5 32.001 -75.5c1.33301 -9.33301 2 -17 2 -23c0 -14.667 -1.33301 -30.334 -4 -47.001s-7.66699 -38 -15 -64l-4 -11l-18 -62l-2 -6l-6 -25l28 9c40 16 69 35 87 57c11.333 14.667 24 28 38 40c1.33301 2 4 2.33301 8 1c4.66699 -1.33301 8.66699 -5 12 -11z
" />
    <glyph glyph-name="s" unicode="s" horiz-adv-x="282" 
d="M311 130c0 -16.667 -4.33496 -30.335 -13.002 -41.002c-3.33301 -4 -13 -13.333 -29 -28l-35 -33c-6 -4.66699 -13 -9.66699 -21 -15c-5.33301 -3.33301 -8.66602 -5.33301 -9.99902 -6l-2 -4c-4.66699 -7.33301 -8.33398 -13.666 -11.001 -18.999
c-5.33301 -13.333 -18 -20 -38 -20c-8 0 -15.667 2 -23 6c-16 8.66699 -27.167 21.667 -33.5 39s-9.5 30 -9.5 38c0 11.333 12.333 17 37 17c6 0 15.667 3.33301 29 10l5 20c5.33301 22 9 39.333 11 52s3 25.667 3 39c0 14 -2 28 -6 42l-24 -19
c-24.667 -20 -43.334 -36 -56.001 -48s-21.667 -21.667 -27 -29c-10 -14 -21 -27 -33 -39c-7.33301 -7.33301 -14.666 -4.66602 -21.999 8.00098c-4 8 -6 13 -6 15c0 7.33301 15.333 26.333 46 57l44 50l19 25l21 28c12.667 16 22.834 31.167 30.501 45.5
s13.834 28.833 18.501 43.5h14c28.667 0 47 -8.5 55 -25.5s12 -54.5 12 -112.5c0 -32.667 -10.333 -77.667 -31 -135l-4 -13l-2 -6l29 26l35 35c7.33301 2.66699 16.333 1.66699 27 -3z" />
    <glyph glyph-name="t" unicode="t" horiz-adv-x="326" 
d="M343 117c5.33301 -7.33301 8.00391 -13.001 8.00391 -17.001c0 -5.33301 -10.333 -17.333 -31 -36l-26 -26l-11 -9l-16 -15c-18.667 -15.333 -36 -28.333 -52 -39c-12.667 -8.66699 -24.334 -14.834 -35.001 -18.501s-21.667 -5.5 -33 -5.5c-32.667 0 -49 19 -49 57
c0 12 0.5 24.167 1.5 36.5s3.16699 31.5 6.5 57.5l1 16l3 17l11 46l12 52c-17.333 -27.333 -26.333 -41.666 -27 -42.999c-3.33301 -5.33301 -8 -11.333 -14 -18c-31.333 -40 -51.833 -64.5 -61.5 -73.5s-17.834 -12.5 -24.501 -10.5
c-10.667 2.66699 -14.667 8.66699 -12 18c3.33301 13.333 9.33301 25 18 35c1.33301 1.33301 14.333 15.666 39 42.999c5.33301 6 13.833 18.333 25.5 37s22.167 36.334 31.5 53.001l22 39c7.33301 13.333 12.666 24 15.999 32l3 5l11 25l14 36l7 13l4 14l7 17h-51h-20
l-45 1c-33.333 0 -55 2.33301 -65 7s-15 15 -15 31c0 14.667 4.83301 23.667 14.5 27s32.5 5 68.5 5h72h58l2 5l6 14l16 45c6.66699 28 12 45.167 16 51.5s11.667 9.5 23 9.5c16 0 23.333 -5.66699 22 -17l-10 -43c-1.33301 -6 -2.66602 -12.5 -3.99902 -19.5
s-2 -15.5 -2 -25.5l-2 -16l-1 -4l19 -2c14 -2.66699 22.833 -5.5 26.5 -8.5s6.5 -9.66699 8.5 -20s3 -17.166 3 -20.499c0 -18.667 -13 -28 -39 -28c-3.33301 0 -11 0.666992 -23 2l-9 2c-13.333 -54.667 -26 -122.667 -38 -204l-1 -16l-12 -89
c-2 -14 -3.33301 -26.333 -4 -37s-1 -21 -1 -31c0 -14 1.33301 -27.333 4 -40l22 10c13.333 7.33301 25.166 15.333 35.499 24s20.166 18.667 29.499 30s16.333 19.333 21 24s8.66699 7 12 7c4 0 8.66699 -4 14 -12z" />
    <glyph glyph-name="u" unicode="u" horiz-adv-x="452" 
d="M452 70l-3.99805 -3.00098l-12 -14l-14 -11c-26.667 -18.667 -49.334 -28 -68.001 -28c-28.667 0 -51.334 21.333 -68.001 64l-9 20c-12 -16.667 -25 -31 -39 -43s-33 -25.333 -57 -40c-21.333 -12 -39.333 -18 -54 -18c-26 0 -43 17 -51 51l-6 38l-3 55l-17 -20
c-13.333 -14.667 -22.5 -23.834 -27.5 -27.501s-10.167 -5.16699 -15.5 -4.5c-11.333 3.33301 -15.666 9.66602 -12.999 18.999c2 8 5.66699 16 11 24l2 3l22 23c4 4 8.5 10.333 13.5 19s11.167 20.667 18.5 36c14 31.333 22.333 54.833 25 70.5s5.5 31.167 8.5 46.5
s9.83301 23 20.5 23c5.33301 0 14.833 -1.66699 28.5 -5l38.5 -9l11 -3c-6 -12.667 -10.667 -23.5 -14 -32.5s-6.66602 -18.833 -9.99902 -29.5c-6 -22 -10.333 -39.167 -13 -51.5s-4 -24.833 -4 -37.5c0 -14.667 -0.333008 -28 -1 -40s-0.666992 -20 0 -24
c4 -25.333 14 -38 30 -38c5.33301 0 10.333 1.33301 15 4c10.667 5.33301 19.167 11.333 25.5 18s19.5 23.667 39.5 51c9.33301 12.667 19 29.334 29 50.001c4.66699 10.667 7 16.334 7 17.001c1.33301 4 2.66602 10 3.99902 18l11 1c21.333 0 34.666 -1.33301 39.999 -4
s8 -11.334 8 -26.001c0 -5.33301 -0.5 -13 -1.5 -23l-2.5 -25v-22c2 -20 4.16699 -34.667 6.5 -44s5.83301 -17.666 10.5 -24.999c1.33301 -2 5 -3.66699 11 -5l18 16l14 9l22 18l12 10c1.33301 1.33301 4.5 1.5 9.5 0.5s8.5 -4.16699 10.5 -9.5s3 -9.33301 3 -12
c0 -3.33301 -1 -6.66602 -3 -9.99902z" />
    <glyph glyph-name="v" unicode="v" horiz-adv-x="373" 
d="M421 365c-4.66699 -29.333 -11.334 -55.665 -20.001 -78.998s-23 -53 -43 -89c-28 -48 -49.667 -82.667 -65 -104s-37 -47 -65 -77c-21.333 -22.667 -39.666 -34 -54.999 -34c-22 0 -44.333 23.667 -67 71c-6.66699 12.667 -14.334 34.334 -23.001 65.001l-8 24l-8 -8
l-8 -9l-15 -16l-15 -17c-12.667 8.66699 -19 17.334 -19 26.001c0 9.33301 10.667 26.666 32 51.999c5.33301 6.66699 9.5 14.167 12.5 22.5s5.5 20.5 7.5 36.5c6 62.667 10.333 97 13 103c1.33301 2 10 5.5 26 10.5s28.833 8.5 38.5 10.5s18.5 3 26.5 3
c7.33301 0 13 -0.333008 17 -1c-10 -28 -15 -56 -15 -84c0 -22.667 2.83301 -50.334 8.5 -83.001s11 -55.167 16 -67.5s12.833 -24.166 23.5 -35.499c16.667 9.33301 30.667 21.166 42 35.499s27 40.166 47 77.499c10.667 18.667 20.5 37.167 29.5 55.5s15.5 34.5 19.5 48.5
l16 52c0.666992 3.33301 3.83398 6.16602 9.50098 8.49902s16.167 3.5 31.5 3.5z" />
    <glyph glyph-name="w" unicode="w" horiz-adv-x="523" 
d="M531 404c11.333 0 17.001 -5.66602 17.001 -16.999c0 -15.333 -13 -66 -39 -152c-8.66699 -27.333 -25.667 -70.333 -51 -129l-18 -38c-16 -28 -28 -47 -36 -57s-16.333 -18.333 -25 -25s-17.667 -10 -27 -10c-24 0 -41.333 15 -52 45c-4 10.667 -8.5 24.5 -13.5 41.5
s-8.5 32.5 -10.5 46.5l-4 47c-10.667 -20 -21.667 -39.167 -33 -57.5l-41.5 -65c-16.333 -25 -29 -42.333 -38 -52s-16.833 -14.5 -23.5 -14.5c-5.33301 0 -10.833 2.16699 -16.5 6.5s-9.66699 10.333 -12 18s-4.83301 23.167 -7.5 46.5l-8 60l-1 6l-3 29l-1 23l-23 -26
c-16.667 -18.667 -28.167 -30.5 -34.5 -35.5s-12.833 -6.83301 -19.5 -5.5c-10.667 3.33301 -14.667 10 -12 20c2 9.33301 5.33301 17 10 23l26 27c19.333 20.667 36.666 53 51.999 97l5 23l13 64c10 16.667 34 25 72 25l21 -3c-10 -26 -17.667 -52.667 -23 -80
s-8 -57.333 -8 -90c0 -21.333 0.166992 -41.5 0.5 -60.5s3.83301 -35.5 10.5 -49.5c16 16.667 29.333 33.167 40 49.5s27 46.166 49 89.499c14 27.333 25.833 52.833 35.5 76.5s18.167 46.834 25.5 69.501c6.66699 4.66699 14.334 7.66699 23.001 9
c3.33301 1.33301 7.66602 2 12.999 2c10 0 14.333 -3 13 -9l-6 -51l-4 -79l-1 -17l-1 -67c0 -28.667 1.5 -48.334 4.5 -59.001s10.167 -20.667 21.5 -30c13.333 15.333 24.5 31.333 33.5 48s23.167 50 42.5 100c14 35.333 23.5 61.333 28.5 78s8.5 30.667 10.5 42
c5.33301 34 9 53.667 11 59s7 8 15 8z" />
    <glyph glyph-name="x" unicode="x" horiz-adv-x="474" 
d="M496 127c3.33301 -4.66699 5.00391 -8.33398 5.00391 -11.001c0 -6 -3.16699 -13.333 -9.5 -22s-19.166 -23 -38.499 -43l-9 -7c-41.333 -34.667 -77.333 -52 -108 -52c-26.667 0 -53.334 12.333 -80.001 37c-12.667 10.667 -24.334 24.667 -35.001 42l-12 27l-5 -4
l-14 -9c-20 -14.667 -34.5 -27.5 -43.5 -38.5s-18.5 -23.5 -28.5 -37.5c-6.66699 -8.66699 -10.334 -14 -11.001 -16c-6 -1.33301 -11.333 -1.33301 -16 0c-9.33301 4 -14 10.333 -14 19c0 6 2.16699 12.167 6.5 18.5s9.33301 12.5 15 18.5s9.83398 10.667 12.501 14l37 36
l2 2l49 34l-4 29c-4 26.667 -7.33301 43.834 -10 51.501s-8.33398 16.5 -17.001 26.5l-23 -21c-16.667 -15.333 -33 -31.666 -49 -48.999c-12 -13.333 -21.667 -25 -29 -35c-9.33301 -16.667 -20.333 -31.334 -33 -44.001c-2.66699 -2.66699 -6.33398 -4 -11.001 -4
c-7.33301 0 -12.833 3.66699 -16.5 11s-5.5 12.333 -5.5 15c0 8 14.667 25.667 44 53l41 46l19 23c13.333 15.333 20.333 23.333 21 24l5 3l41 39l40 33c5.33301 4 11 6 17 6c19.333 0 34 -12 44 -36c1.33301 -3.33301 3.66602 -10 6.99902 -20s5.33301 -17 6 -21l8 -51
l1 -4l1 -9l1 -12c29.333 18 52 38.333 68 61s27.333 41.5 34 56.5s10 27.5 10 37.5c0 12.667 -6.33301 20.667 -19 24c6 3.33301 18.333 6 37 8c18 0 31 -2.66699 39 -8s11 -12.666 9 -21.999c-1.33301 -12 -5 -22.667 -11 -32
c-14.667 -27.333 -27.334 -47.833 -38.001 -61.5s-29 -32.167 -55 -55.5c-17.333 -15.333 -38.666 -31.333 -63.999 -48c2 -9.33301 3.66699 -16 5 -20c0.666992 -0.666992 3.33398 -6.66699 8.00098 -18c19.333 -38 37 -57 53 -57c12 0 31.333 11.333 58 34l13 13l21 24
c3.33301 4 6.33301 6.33301 9 7c9.33301 5.33301 16.666 3.66602 21.999 -5.00098z" />
    <glyph glyph-name="y" unicode="y" horiz-adv-x="454" 
d="M479 131c0 -20.667 -4.50586 -37.335 -13.5059 -50.002s-33.167 -35.334 -72.5 -68.001l-31 -21.5c-11.333 -7.66699 -23.333 -15.167 -36 -22.5l-3 -15l-4 -13l-8 -34c-20.667 -76 -42.667 -131.667 -66 -167c-20 -30.667 -43.667 -49.334 -71 -56.001
c-2.66699 -0.666992 -6 -1 -10 -1c-11.333 0 -20 3.66699 -26 11s-8.33301 16.666 -7 27.999c0.666992 8.66699 2.66699 17.5 6 26.5s10 25.167 20 48.5c5.33301 13.333 14.833 32 28.5 56s32.834 55.333 57.501 94l7 11l9 12l6 26l8 32l18 76l3 17l4 20
c-4.66699 -6 -13.167 -16.333 -25.5 -31s-22.5 -26.334 -30.5 -35.001c-16 -15.333 -29.667 -27.333 -41 -36s-25.666 -18.667 -42.999 -30c-13.333 -8 -25 -12 -35 -12c-22.667 0 -37.667 17.333 -45 52c-4.66699 14 -7 26.333 -7 37l-3 55l-15 -16l-2 -2
c-16 -18.667 -26 -29.5 -30 -32.5s-8.66699 -3.83301 -14 -2.5c-8 2 -12 7 -12 15s3.33301 17.667 10 29c2.66699 4.66699 7 10.5 13 17.5s16.333 18.167 31 33.5c12.667 12.667 24.667 32 36 58l26 74c0 2 6.66699 3 20 3h22c15.333 0 25.833 -1.33301 31.5 -4
s7.83398 -5 6.50098 -7l-22 -56c-2.66699 -5.33301 -4.83398 -12.166 -6.50098 -20.499s-4.16699 -21.5 -7.5 -39.5l-3 -26c-1.33301 -8.66699 -2 -16 -2 -22v-13c0 -7.33301 0.333008 -12.666 1 -15.999c3.33301 -20 13 -30 29 -30c4 0 9.5 1.33301 16.5 4
s14.167 7.33398 21.5 14.001c10 8.66699 23.667 22.334 41 41.001c8 8 18.5 22.833 31.5 44.5s26.5 47.5 40.5 77.5c2.66699 4.66699 5.66699 13 9 25l11 40c2 6 5.66699 9 11 9c6.66699 -0.666992 12.667 -1 18 -1c12.667 -1.33301 20.334 -2.66602 23.001 -3.99902
c5.33301 -2.66699 8 -8.66699 8 -18s-15.667 -76.666 -47 -201.999l-18 -66l-3 -12l-4 -15l40 33c10.667 8.66699 18.334 15.667 23.001 21s11 13 19 23c12.667 14 21.834 23.333 27.501 28s11.167 7 16.5 7c2.66699 0 7.33398 -0.666992 14.001 -2z" />
    <glyph glyph-name="z" unicode="z" horiz-adv-x="399" 
d="M430 131c0 -14 -2.33203 -25.6719 -6.99902 -35.0049s-15 -21.666 -31 -36.999l-35 -32l-18 -18l-20 -17c-11.333 -10 -21.5 -19.833 -30.5 -29.5l-26.5 -29.5l5 -7l4 -8l9 -15c10 -24 15 -47.667 15 -71c0 -27.333 -6.66699 -52.5 -20 -75.5
s-32.666 -41.833 -57.999 -56.5c-16.667 -9.33301 -33 -16.166 -49 -20.499s-31.333 -6.5 -46 -6.5c-15.333 0 -28 5.33301 -38 16s-15 24 -15 40c0 4 1.33301 11.333 4 22c6.66699 16.667 12.334 29.334 17.001 38.001s15 25 31 49c6 8.66699 12.5 17.5 19.5 26.5
s16.5 19.833 28.5 32.5l9 9l6 6l-8 15c-10 22 -15 40.333 -15 55c0 20.667 17.667 63.334 53 128.001c5.33301 9.33301 9 20.166 11 32.499s3 22.5 3 30.5c0 14.667 -2.66699 26.334 -8 35.001c-11.333 17.333 -25 26 -41 26c-6.66699 0 -12.334 -2.33301 -17.001 -7
l-49 -43l-40 -39c-5.33301 -5.33301 -9.33301 -9.66602 -12 -12.999c-16.667 -20 -28.834 -33 -36.501 -39s-14.167 -8.33301 -19.5 -7c-5.33301 0.666992 -9.5 3 -12.5 7s-3.83301 8.66699 -2.5 14c1.33301 8 5 14.667 11 20l34 36l14 13c30.667 28.667 56 65 76 109l20 37
c15.333 28 35.666 42 60.999 42c18 0 35.333 -7.66699 52 -23c40.667 -38.667 61 -80.667 61 -126c0 -32.667 -10.667 -67.667 -32 -105l-7 -10l-27 -44c-14 -22 -21 -40 -21 -54c0 -11.333 5.33301 -24 16 -38l11 13l8 11l11 11l18 19l25 29l19 19l54 56
c8 8 14.333 12 19 12c6 -1.33301 11.667 -2.33301 17 -3zM222.001 -174.005c-2.66699 19.333 -10.6709 38 -24.0039 56l-2 -3l-30 -29l-9 -12c-25.333 -32.667 -41.166 -54 -47.499 -64s-9.83301 -20.333 -10.5 -31c-1.33301 -12 2 -21.667 10 -29s18.667 -11 32 -11
c8.66699 0 16.834 1.5 24.501 4.5s14.834 7.5 21.501 13.5c12.667 10 21.834 21.333 27.501 34s8.5 28.667 8.5 48v14c-0.666992 4 -1 7 -1 9z" />
    <glyph glyph-name="braceleft" unicode="{" horiz-adv-x="333" 
d="M364 724l-8 -59.999h-40c-20.667 0 -35.834 -5.16699 -45.501 -15.5s-15.5 -23.166 -17.5 -38.499l-24 -170c-5.33301 -36.667 -20.666 -67 -45.999 -91c-17.333 -16 -34.333 -26.333 -51 -31c14 -5.33301 26.333 -14.333 37 -27c17.333 -20 26 -44.333 26 -73v-15v-12
c-1.33301 -6 -2 -10.333 -2 -13l-18 -127l-3 -39c0 -10.667 3.83301 -20.334 11.5 -29.001s19.834 -13 36.501 -13h40l-9 -60h-63c-28.667 0 -51.834 7.33301 -69.501 22s-26.5 36.334 -26.5 65.001v20.5c0 6.33301 0.666992 14.166 2 23.499l17 123l4 46
c0 22 -6.16699 40.833 -18.5 56.5s-28.5 23.5 -48.5 23.5l8 54c22.667 0 43 10 61 30s29 45 33 75l23 164c4.66699 35.333 19.167 62.666 43.5 81.999s52.5 29 84.5 29h63z" />
    <glyph glyph-name="bar" unicode="|" horiz-adv-x="222" 
d="M149 -14h-75v668h75v-668z" />
    <glyph glyph-name="braceright" unicode="}" horiz-adv-x="333" 
d="M294 344l-8 -53.999c-22.667 0 -43 -10 -61 -30s-29 -45 -33 -75l-23 -164c-4.66699 -35.333 -19.167 -62.666 -43.5 -81.999s-52.5 -29 -84.5 -29h-63l8 60h40c20.667 0 35.834 5.16699 45.501 15.5s15.5 23.166 17.5 38.499l24 170c5.33301 36.667 20.666 67 45.999 91
c17.333 16 34.333 26.333 51 31c-14 5.33301 -26.333 14.333 -37 27c-17.333 20 -26 44.333 -26 73v18.5c0 6.33301 0.666992 13.5 2 21.5l18 127l3 39c0 10.667 -3.33301 19.667 -10 27c-8.66699 10 -21.334 15 -38.001 15h-40l9 60h63
c28.667 0 51.834 -7.33301 69.501 -22s26.5 -36.334 26.5 -65.001v-17c0 -4.66699 -0.333008 -9.66699 -1 -15s-1 -9.33301 -1 -12l-17 -123l-4 -46c0 -22 6.16699 -40.833 18.5 -56.5s28.5 -23.5 48.5 -23.5z" />
    <glyph glyph-name="asciitilde" unicode="~" horiz-adv-x="600" 
d="M531 298c-24.667 -34.667 -40.333 -55.334 -47 -62.001c-20.667 -20.667 -44.334 -31 -71.001 -31c-34.667 0 -76 12.5 -124 37.5s-81.333 37.5 -100 37.5c-22.667 0 -41 -7.66699 -55 -23c-8.66699 -9.33301 -18.334 -25.666 -29.001 -48.999l-36 48
c16.667 31.333 31.667 54.333 45 69c23.333 25.333 50 38 80 38c24 0 61.333 -14.833 112 -44.5s84.334 -44.5 101.001 -44.5c17.333 0 34 7.66699 50 23c10.667 10 23.334 26.333 38.001 49z" />
    <glyph glyph-name="exclamdown" unicode="&#xa1;" horiz-adv-x="278" 
d="M251 360c1.33301 -6.66699 -0.332031 -14.332 -4.99902 -22.999s-14.667 -22 -30 -40c-12 -14 -25 -26 -39 -36c-6 -4.66699 -12.333 -7 -19 -7c-18.667 0 -32.334 11.667 -41.001 35c-3.33301 10 -5 20 -5 30c0.666992 4.66699 1 8 1 10c0 18.667 5.66699 34.667 17 48
s26 22.666 44 27.999c7.33301 2 14.333 3 21 3c14.667 0 27.167 -4.5 37.5 -13.5s16.5 -20.5 18.5 -34.5zM213.002 212.002c0 -34 -0.332031 -56.832 -0.999023 -68.499s-4 -41.167 -10 -88.5l-6 -27l-5 -29l-14 -66c12.667 -2.66699 19 -8.66699 19 -18
c0 -6.66699 -3 -20.667 -9 -42l-12 -43l-3 -9l-19 -52l-23 -46c-10 -21.333 -18.667 -34.5 -26 -39.5s-24 -7.5 -50 -7.5c-36.667 0 -55 7 -55 21c0 0.666992 0.666992 3.66699 2 9c18 63.333 41.667 126.666 71 189.999c1.33301 4 4.33301 14 9 30
c9.33301 33.333 16.333 60.5 21 81.5s9 41.5 13 61.5s6 35 6 45l-1 83c-0.666992 5.33301 3.5 9.83301 12.5 13.5s19.167 6.5 30.5 8.5s18.666 3 21.999 3c18.667 0 28 -3.33301 28 -10z" />
    <glyph glyph-name="cent" unicode="&#xa2;" horiz-adv-x="494" 
d="M453 144c4 -4 6.00098 -8.99805 6.00098 -14.998c0 -8.66699 -2.83301 -18.5 -8.5 -29.5s-16.167 -26.167 -31.5 -45.5c-18 -22 -35.833 -38.167 -53.5 -48.5s-36.167 -15.5 -55.5 -15.5c-7.33301 0 -13 0.333008 -17 1l-3 -39c0 -28 -1 -45.167 -3 -51.5
s-6.66699 -10.666 -14 -12.999s-14 -3.5 -20 -3.5c-10.667 0 -16 9.33301 -16 28c0 5.33301 0.5 13.666 1.5 24.999s1.5 18.333 1.5 21c0 4 -0.166992 9.16699 -0.5 15.5s-0.5 14.166 -0.5 23.499c-51.333 11.333 -93.333 40.333 -126 87c-24 34 -36 70.333 -36 109
c0 38 12.833 73.333 38.5 106s63.167 59 112.5 79l17.5 7.5c7 3 13.5 5.16699 19.5 6.5l2 27c0 28.667 2 47.334 6 56.001s13 14 27 16c5.33301 1.33301 11 0.666016 17 -2.00098s9 -7.33398 9 -14.001l-4 -37l-3 -27l15 6c23.333 12 42.333 18 57 18
c19.333 0 36.333 -10 51 -30c4 -6 7 -12.5 9 -19.5s3 -13.167 3 -18.5c0 -20 -8 -32.667 -24 -38l-46 4c-8 0 -15.833 -0.166992 -23.5 -0.5s-20.5 -2.16602 -38.5 -5.49902c-10 -46.667 -16.5 -82.5 -19.5 -107.5s-4.5 -53.167 -4.5 -84.5l-2 -41v-27l17 -1
c27.333 0 56.333 15.333 87 46c4 4.66699 8.66699 10.667 14 18s9.33301 12.666 12 15.999c2 3.33301 5.66699 5 11 5s10.666 -2.33301 15.999 -7zM264.001 311.002c-27.333 -3.33301 -49.667 -15 -67 -35s-26 -43.667 -26 -71c0 -16.667 3.33301 -32.667 10 -48
c12 -32 32.667 -55.333 62 -70l8 58c4.66699 34 8 65.333 10 94s3 52.667 3 72z" />
    <glyph glyph-name="sterling" unicode="&#xa3;" horiz-adv-x="558" 
d="M555 65c7.33301 -7.33301 10.9961 -15.333 10.9961 -24c0 -11.333 -5.33301 -21.666 -16 -30.999l-110 15c-10.667 1.33301 -19.334 2 -26.001 2c-29.333 0 -67.666 -8.33301 -114.999 -25l-53 -17c-16 -6 -29.333 -9 -40 -9c-17.333 0 -28.833 10.833 -34.5 32.5
s-8.5 63.834 -8.5 126.501l1 36c0 29.333 2.33301 58.833 7 88.5s11.334 61.167 20.001 94.5l-3 -1l-16 -3c-11.333 -2 -20 -3.83301 -26 -5.5l-19 -5.5l-42 -15c-7.33301 -2 -11.833 0.5 -13.5 7.5s-2.5 11.833 -2.5 14.5c0 7.33301 2.83301 14.833 8.5 22.5
s12.167 13.167 19.5 16.5c11.333 5.33301 25.666 8 42.999 8l41 4l6 2l11 2l6 28c11.333 43.333 24.5 81.5 39.5 114.5s31.667 62.5 50 88.5s34.333 46.167 48 60.5s30.834 28.833 51.501 43.5c12.667 9.33301 24.334 14 35.001 14c20 0 34.667 -15.667 44 -47
c3.33301 -15.333 5 -28.333 5 -39c0 -29.333 -8 -53.666 -24 -72.999c-0.666992 6.66699 -1.66699 11.667 -3 15c-2 5.33301 -5.5 12 -10.5 20s-10.333 14 -16 18s-10.834 6 -15.501 6c-3.33301 0 -6 -1 -8 -3l-21 -27c-3.33301 -4.66699 -9.66602 -14.334 -18.999 -29.001
c-19.333 -28.667 -32.666 -50.834 -39.999 -66.501s-15.333 -38.834 -24 -69.501l-7 -23l-6 -19l12 3h7l10 3l40 11l59 13l3 -13c0 -21.333 -4.83301 -35.166 -14.5 -41.499s-31.167 -9.5 -64.5 -9.5c-15.333 0 -29.666 -2 -42.999 -6l-8 -3l-9 -4l-5.5 -31.5
c-1.66699 -9.66699 -3.16699 -20.834 -4.5 -33.501c-4 -39.333 -6 -73.333 -6 -102c0 -37.333 3 -73 9 -107c20.667 0 39.5 0.666992 56.5 2s38.833 4 65.5 8c2.66699 0.666992 8.66699 0.666992 18 0s26.666 -2.16699 51.999 -4.5s45.333 -6.33301 60 -12
s26.334 -12.5 35.001 -20.5z" />
    <glyph glyph-name="currency" unicode="&#xa4;" horiz-adv-x="556" 
d="M526 46l-38 -38l-56 55c-43.333 -36.667 -94.666 -55 -153.999 -55s-110.666 18.333 -153.999 55l-56 -55l-38 38l54 54c-18 20.667 -31.5 44.5 -40.5 71.5s-13.5 55.167 -13.5 84.5c0 30 4.16699 58 12.5 84s22.166 50 41.499 72l-54 54l38 38l56 -55
c43.333 36.667 94.666 55 153.999 55s110.666 -18.333 153.999 -55l56 55l38 -38l-54 -54c18 -20.667 31.5 -44.5 40.5 -71.5s13.5 -55.167 13.5 -84.5c0 -30 -4.16699 -58 -12.5 -84s-22.166 -50 -41.499 -72zM470 256c0 54 -18.5 100.5 -55.5 139.5
s-82.5 58.5 -136.5 58.5c-53.333 0 -98.666 -19.667 -135.999 -59s-56 -85.666 -56 -138.999c0 -54 18.5 -100.5 55.5 -139.5s82.5 -58.5 136.5 -58.5c53.333 0 98.666 19.667 135.999 59s56 85.666 56 138.999z" />
    <glyph glyph-name="yen" unicode="&#xa5;" horiz-adv-x="478" 
d="M477 703l-0.00292969 -18c0 -44 -3.33301 -66.333 -10 -67c-4.66699 -25.333 -11.667 -47.333 -21 -66l-27 -46c0 -18.667 -13.667 -45.334 -41 -80.001c-40 -50.667 -61.667 -79.334 -65 -86.001c16.667 0 30.334 2 41.001 6c17.333 6.66699 30.666 10.667 39.999 12
c12 0 23.167 0.666992 33.5 2s21.166 3 32.499 5c4 0 6 -4 6 -12c0 -10 -7.33301 -20.333 -22 -31c-9.33301 -6.66699 -18.666 -13 -27.999 -19c0 -4 -8.33301 -7 -25 -9c-64.667 -8 -100.667 -13 -108 -15c-7.33301 -15.333 -13.666 -29.666 -18.999 -42.999
s-9.33301 -27.333 -12 -42l10 2l19 -1c17.333 0 31.333 2 42 6c18 6.66699 31.333 10.667 40 12c13.333 0 27 1 41 3s22 3 24 3c4 0 6 -3.66699 6 -11c0 -10 -7.33301 -20.333 -22 -31c-9.33301 -6.66699 -18.666 -13 -27.999 -19c0 -4.66699 -25 -9.66699 -75 -15
s-76 -10.333 -78 -15l-14 -37c-7.33301 -22.667 -11 -41.334 -11 -56.001c0 -4 2.16699 -8.5 6.5 -13.5s6.5 -9.16699 6.5 -12.5c0 -6.66699 -9.66699 -16 -29 -28s-33 -18 -41 -18c-16 0 -28.167 2.16699 -36.5 6.5s-12.5 10.166 -12.5 17.499s3.5 23.333 10.5 48
s12.5 37.334 16.5 38.001c1.33301 0.666992 3.33301 7.33398 6 20.001s5 20.334 7 23.001c-28 0 -49.333 -1.66699 -64 -5s-27 -6.33301 -37 -9l-52 -6c-8 0 -12 3 -12 9c0 11.333 4.66699 24 14 38c13.333 19.333 30.333 29 51 29c25.333 -2 41.333 -3 48 -3
c8 0 18.667 1.33301 32 4c30.667 6 46.334 9 47.001 9c2 6 3.83301 14.5 5.5 25.5s2.5 25.5 2.5 43.5c0 6.66699 -2.33301 10 -7 10c-25.333 0 -48 -2.33301 -68 -7l-30 -8l-52 -6c-8 0 -12 3 -12 9c0 12 4.66699 24.667 14 38c13.333 19.333 30.333 29 51 29
c8.66699 0 15.667 -0.333008 21 -1l16 -2c12 0 22.333 1.66699 31 5c-10.667 25.333 -22.667 48.333 -36 69c-17.333 27.333 -26 42.666 -26 45.999c-8 24 -15.333 47.667 -22 71s-10 44.666 -10 63.999c-4.66699 2 -7.66699 9.16699 -9 21.5s-2 31.5 -2 57.5
c9.33301 16.667 16.5 26.834 21.5 30.501s12.833 5.5 23.5 5.5c2.66699 0 6.66699 1.33301 12 4c12.667 6 20.334 9 23.001 9c3.33301 0 10.166 -5.16699 20.499 -15.5s15.5 -17.166 15.5 -20.499c0 -11.333 -0.666992 -30.833 -2 -58.5s-2 -43.834 -2 -48.501
c0 -24.667 4.16699 -53 12.5 -85l25.5 -98c0 -8 3.33301 -16.5 10 -25.5s13.667 -13.5 21 -13.5c4.66699 0 14.167 11.833 28.5 35.5s24.5 35.5 30.5 35.5c6 13.333 15.667 32.333 29 57c16.667 30.667 27.667 47.334 33 50.001c2 6.66699 12 26.667 30 60
c12 22.667 23 46.334 33 71.001c8 11.333 20.333 30.666 37 57.999c9.33301 15.333 17.333 23 24 23c2 0 5.33301 -3.33301 10 -10c2.66699 -3.33301 5 -6 7 -8z" />
    <glyph glyph-name="section" unicode="&#xa7;" horiz-adv-x="478" 
d="M479 621c4.66699 -24.667 -5.99902 -45.332 -31.999 -61.999l-5 -4c-4.66699 -2 -8 -3 -10 -3c-5.33301 -1.33301 -9 -2 -11 -2c-6 0 -9.33301 1.66699 -10 5c-10 29.333 -25 50.333 -45 63c-14.667 9.33301 -32 14 -52 14c-7.33301 0 -13.333 -0.333008 -18 -1
s-8.66699 -1.66699 -12 -3c-5.33301 -1.33301 -12.666 -4.33301 -21.999 -9c-4 -2 -10.333 -6 -19 -12c-18.667 -10.667 -28 -23.667 -28 -39c0 -9.33301 3.66699 -18 11 -26s37.666 -25 90.999 -51c17.333 -8.66699 43.333 -21 78 -37
c26.667 -13.333 46.5 -29.333 59.5 -48s19.5 -39 19.5 -61c0 -26.667 -8.16699 -54.5 -24.5 -83.5s-40.5 -60.833 -72.5 -95.5l15 -7c26 -17.333 39 -43 39 -77c0 -41.333 -17 -78.333 -51 -111c-12.667 -14.667 -41.334 -29.334 -86.001 -44.001
c-4.66699 -2.66699 -9 -5.33398 -13 -8.00098c-2.66699 -0.666992 -12.334 -1 -29.001 -1l-30 1c-34.667 3.33301 -67.334 9.66602 -98.001 18.999l-13 4c-10 3.33301 -19.333 7.33301 -28 12c-12.667 6.66699 -20.667 12.667 -24 18c-2 9.33301 3.33301 19.666 16 30.999
c4.66699 4 17.667 13.333 39 28l6 4h31l26 -26l7 -2l22 -5l30 -8l17 -4c22.667 -3.33301 36.334 -6.33301 41.001 -9c2 -1.33301 5.33301 -1.33301 10 0c4.66699 0 9.66699 1 15 3c3.33301 1.33301 7.33301 3.33301 12 6c20 11.333 30 28 30 50
c0 3.33301 -0.666992 7.33301 -2 12s-3 9.33398 -5 14.001c-13.333 24.667 -49.333 49.334 -108 74.001c-19.333 8 -47.666 18 -84.999 30c-19.333 10.667 -34.5 23.667 -45.5 39s-16.5 33 -16.5 53c0 19.333 5.16699 40.833 15.5 64.5s26.833 49.5 49.5 77.5
c17.333 22 35.333 37.667 54 47c-20 12.667 -35 28.167 -45 46.5s-15 36.833 -15 55.5c0 30.667 12 57.667 36 81c12.667 14.667 41 29.334 85 44.001c24.667 6.66699 47 10 67 10c30.667 0 58.667 -8.33301 84 -25c2.66699 -1.33301 7 -4.33301 13 -9
c1.33301 -1.33301 4 -3.66602 8 -6.99902l15 -12c6 -4.66699 10.333 -9.33398 13 -14.001zM402.001 284.002c0.666992 2.66699 1 6.33105 1 10.998c0 16.667 -4.66699 33.5 -14 50.5s-22.666 30.167 -39.999 39.5l-89 49c-10.667 -1.33301 -18.667 -5.33301 -24 -12l-35 -43
c-12 -12.667 -20 -26.667 -24 -42s-6 -29.666 -6 -42.999c0 -32 13.333 -53 40 -63l123 -49l3 2c20 22 31.333 34.667 34 38c17.333 20.667 27.666 41.334 30.999 62.001z" />
    <glyph glyph-name="dieresis" unicode="&#xa8;" 
d="M488 492c0 -12.667 -3.66504 -21.002 -10.998 -25.002c-12.667 -7.33301 -21 -13.666 -25 -18.999c-2 2 -9.33301 3 -22 3l-17 -3c-10.667 6 -17.834 11.833 -21.501 17.5s-5.5 12.834 -5.5 21.501c0 3.33301 1.5 7.33301 4.5 12l10.5 16c4 6 10 11.333 18 16
s14.333 7 19 7c8 0 14.667 -1 20 -3c3.33301 -1.33301 8.33301 -4 15 -8c7.33301 0 11.666 -3 12.999 -9s2 -14.667 2 -26zM341.002 491.998c0 -12.667 -3.66504 -21.002 -10.998 -25.002c-12.667 -7.33301 -21 -13.666 -25 -18.999c-2 2 -9.33301 3 -22 3l-17 -3
c-10.667 6 -17.834 11.833 -21.501 17.5s-5.5 12.834 -5.5 21.501c0 3.33301 1.5 7.33301 4.5 12l10.5 16c4 6 10 11.333 18 16s14.333 7 19 7c8 0 14.667 -1 20 -3c3.33301 -1.33301 8.33301 -4 15 -8c7.33301 0 11.666 -3 12.999 -9s2 -14.667 2 -26z" />
    <glyph glyph-name="copyright" unicode="&#xa9;" horiz-adv-x="800" 
d="M753 329c0 -98 -34.333 -181.333 -103 -250s-152 -103 -250 -103s-181.333 34.333 -250 103s-103 152 -103 250s34.333 181.333 103 250s152 103 250 103s181.333 -34.333 250 -103s103 -152 103 -250zM679 329c0 80 -27.167 147.833 -81.5 203.5
s-120.166 83.5 -197.499 83.5c-76.667 0 -142.334 -28 -197.001 -84s-82 -123.667 -82 -203c0 -80 27.167 -147.833 81.5 -203.5s120.166 -83.5 197.499 -83.5c76.667 0 142.334 28 197.001 84s82 123.667 82 203zM586 264c-8.66699 -46 -28.999 -82.668 -60.999 -110.001
s-69.667 -41 -113 -41c-62.667 0 -113.334 20.333 -152.001 61s-58 92.334 -58 155.001c0 64.667 18.667 117 56 157s87.666 60 150.999 60c46 0 85.333 -12.833 118 -38.5s52 -61.5 58 -107.5h-63c-5.33301 26 -18.166 46.833 -38.499 62.5s-44.833 23.5 -73.5 23.5
c-43.333 0 -76.5 -14.333 -99.5 -43s-34.5 -66.667 -34.5 -114c0 -42 12.5 -78.5 37.5 -109.5s57.833 -46.5 98.5 -46.5c29.333 0 54 8.33301 74 25s32 38.667 36 66h64z" />
    <glyph glyph-name="ordfeminine" unicode="&#xaa;" horiz-adv-x="311" 
d="M409 556c-1.33301 -4.66699 -3.66895 -9.16602 -7.00195 -13.499s-10.333 -12 -21 -23s-25 -21.5 -43 -31.5c-8.66699 -4.66699 -17.667 -7 -27 -7c-19.333 0 -32.333 9 -39 27c-1.33301 8 -2 15.667 -2 23v11l1 15l-3 -3l-14 -16
c-14.667 -16.667 -27.167 -29.167 -37.5 -37.5s-20.833 -14.833 -31.5 -19.5c-20 -8 -35 -12 -45 -12c-15.333 0 -27.5 4 -36.5 12s-12.833 17.333 -11.5 28l6 25l7 17l-12 -10c-1.33301 -1.33301 -4.33301 -2.33301 -9 -3c-4 1.33301 -6 3.66602 -6 6.99902
c-2.66699 7.33301 1 16 11 26l18 18l8 7l27 25l8 9l23 19c11.333 8.66699 24.333 17.334 39 26.001c38.667 22 69 33 91 33c12 0 20.667 -3.66699 26 -11c2.66699 -4.66699 1 -8.83398 -5 -12.501s-12.667 -6.16699 -20 -7.5s-17 -4.66602 -29 -9.99902l-47 -27
c-23.333 -17.333 -40.333 -31.333 -51 -42c-16.667 -20 -27.667 -37 -33 -51c-2 -7.33301 -1.66699 -13.5 1 -18.5s7.33398 -7.5 14.001 -7.5s13.334 1.5 20.001 4.5s16 9.16699 28 18.5l27 26l12 14c25.333 33.333 41 52.666 47 57.999s13.667 8 23 8
c8.66699 0 15 -2.83301 19 -8.5s5.33301 -13.167 4 -22.5l-12 -36l-6 -17c-2 -14 -3 -24 -3 -30s1.16699 -11.167 3.5 -15.5s6.83301 -5.83301 13.5 -4.5c5.33301 2.66699 10.5 6.16699 15.5 10.5s10.167 9.16602 15.5 14.499l8 6c8 10 13.667 16.333 17 19
s6.33301 3.66699 9 3c7.33301 -1.33301 10.333 -5.66602 9 -12.999z" />
    <glyph glyph-name="registered" unicode="&#xae;" horiz-adv-x="800" 
d="M753 329c0 -98 -34.333 -181.333 -103 -250s-152 -103 -250 -103s-181.333 34.333 -250 103s-103 152 -103 250s34.333 181.333 103 250s152 103 250 103s181.333 -34.333 250 -103s103 -152 103 -250zM679 329c0 80 -27.167 147.833 -81.5 203.5
s-120.166 83.5 -197.499 83.5c-76.667 0 -142.334 -28 -197.001 -84s-82 -123.667 -82 -203c0 -80 27.167 -147.833 81.5 -203.5s120.166 -83.5 197.499 -83.5c76.667 0 142.334 28 197.001 84s82 123.667 82 203zM571 125h-68l-107 178h-64v-178h-66v408h153
c47.333 0 82.833 -9.5 106.5 -28.5s35.5 -48.167 35.5 -87.5c0 -34 -9.5 -60.167 -28.5 -78.5s-44.167 -29.5 -75.5 -33.5zM495 421c0 22.667 -9.33301 38.666 -28 47.999c-13.333 6.66699 -33.333 10 -60 10h-75v-122h64c34 0 57 2.66699 69 8
c20 8.66699 30 27.334 30 56.001z" />
    <glyph glyph-name="macron" unicode="&#xaf;" 
d="M487 490c0 -8.66699 -4.33008 -14.501 -12.9971 -17.501s-29 -4.5 -61 -4.5l-39 3c-2.66699 0 -10.334 -1.33301 -23.001 -4s-25 -4 -37 -4c-9.33301 0 -25.333 1 -48 3s-40.334 3 -53.001 3l-30 -3c-6 1.33301 -10 2.33301 -12 3
c-4.66699 1.33301 -7 3.66602 -7 6.99902c0 8.66699 6 20.334 18 35.001c7.33301 9.33301 14.666 14 21.999 14l94 -2c14 0 30 1 48 3s31.333 3 40 3l44 -2l40 2c4 0 7.16699 -2.16699 9.5 -6.5s4.83301 -15.166 7.5 -32.499z" />
    <glyph glyph-name="acute" unicode="&#xb4;" 
d="M471 549c-4 -4.66699 -7.33496 -9.16602 -10.002 -13.499s-5.33398 -9.83301 -8.00098 -16.5c-13.333 -4.66699 -32.333 -14.334 -57 -29.001c-11.333 -6.66699 -18.666 -10.334 -21.999 -11.001c-2.66699 -0.666992 -7.66699 -3.16699 -15 -7.5
s-12.666 -7.16602 -15.999 -8.49902c-8 -4.66699 -24.667 -10.667 -50 -18c-10 -3.33301 -20 -6.33301 -30 -9l-9 3c-8.66699 4 -13 10.667 -13 20c6 4 25.667 12.667 59 26c12.667 5.33301 25.334 12.333 38.001 21c26 18 46 34.667 60 50l28 36
c9.33301 0 17.5 -1.16699 24.5 -3.5s13.167 -6.83301 18.5 -13.5c1.33301 -1.33301 2 -10 2 -26z" />
    <glyph glyph-name="mu" unicode="&#xb5;" horiz-adv-x="451" 
d="M470 88c0 -5.33301 -4.66602 -12.9971 -13.999 -22.9971c-6.66699 -7.33301 -12.667 -12 -18 -14l-33 -20c-15.333 -9.33301 -31 -14 -47 -14c-22.667 0 -39.667 9.33301 -51 28l-26 64c-2 0 -10.5 -9.5 -25.5 -28.5s-23.833 -29.167 -26.5 -30.5
c-12.667 -10.667 -25 -20.334 -37 -29.001c-24.667 -18 -42.667 -27 -54 -27c-8 0 -13 2.66699 -15 8c-0.666992 -14.667 -1.5 -24.5 -2.5 -29.5s-2.83301 -10.5 -5.5 -16.5c0 -52 -5.33301 -110.333 -16 -175l-16 -56c-7.33301 -22.667 -15.333 -40.334 -24 -53.001
c0 -9.33301 -7 -14 -21 -14c-13.333 0 -21.5 3 -24.5 9s-6.66699 20.167 -11 42.5s-6.5 34.166 -6.5 35.499c0 21.333 1.66699 42.5 5 63.5s10 45.5 20 73.5c2 2.66699 5 10.5 9 23.5s9.66699 24.167 17 33.5c1.33301 11.333 8 25 20 41s17.667 26.333 17 31l-25 110
c0 6.66699 -0.333008 10.667 -1 12l-2 2c-2 0 -7.66699 -6.66699 -17 -20l-15.5 -22c-4.33301 -6 -8.83301 -9 -13.5 -9c-3.33301 0 -7 1 -11 3c-2 1.33301 -4.33301 2.66602 -7 3.99902c2 5.33301 3 16.666 3 33.999c0 5.33301 2.83301 8.83301 8.5 10.5l15.5 4.5
c9.33301 6 20.666 24.333 33.999 55l24 58c6 6 11.167 18.167 15.5 36.5s8.5 36.833 12.5 55.5c3.33301 2 7.66602 3 12.999 3c6 0 16 -1.33301 30 -4s22.667 -4 26 -4c12.667 0 19 -7.33301 19 -22c0 -6.66699 -4 -15.667 -12 -27c-11.333 -16 -19.666 -34.667 -24.999 -56
c-1.33301 -9.33301 -2.33301 -20.333 -3 -33s-1 -20 -1 -22v-10c0 -1.33301 -0.5 -8.5 -1.5 -21.5s-1.5 -26.167 -1.5 -39.5c0 -10 0.833008 -18.333 2.5 -25s4.5 -10 8.5 -10c2.66699 0 9.33398 2 20.001 6l30 11c0 0.666992 10.667 14.334 32 41.001
c16 20 31.667 42.333 47 67c6 8.66699 11.667 21.667 17 39c2.66699 8 10.667 12 24 12s21.166 -3.83301 23.499 -11.5s3.5 -29.5 3.5 -65.5c1.33301 -19.333 3 -36.666 5 -51.999c4.66699 -30 14.667 -45 30 -45c6 0 14.667 5 26 15l36 31
c4.66699 0 8.5 -3.83301 11.5 -11.5s4.5 -15.167 4.5 -22.5z" />
    <glyph glyph-name="periodcentered" unicode="&#xb7;" horiz-adv-x="235" 
d="M216 374c0 -18.667 -5.66797 -34.6689 -17.001 -48.002s-26 -22.666 -44 -27.999c-7.33301 -2 -14.333 -3 -21 -3c-15.333 0 -28.166 4.33301 -38.499 13s-16.166 20.334 -17.499 35.001c0 9.33301 3.16699 18.833 9.5 28.5s15.333 21.5 27 35.5s24.167 25.667 37.5 35
c7.33301 4.66699 13.666 7 18.999 7c18.667 0 32.667 -11.667 42 -35c2 -8 3 -12.667 3 -14c0.666992 -4 1 -9.33301 1 -16c0 -4.66699 -0.333008 -8 -1 -10z" />
    <glyph glyph-name="periodcentered" unicode="&#x2219;" horiz-adv-x="235" 
d="M216 374c0 -18.667 -5.66797 -34.6689 -17.001 -48.002s-26 -22.666 -44 -27.999c-7.33301 -2 -14.333 -3 -21 -3c-15.333 0 -28.166 4.33301 -38.499 13s-16.166 20.334 -17.499 35.001c0 9.33301 3.16699 18.833 9.5 28.5s15.333 21.5 27 35.5s24.167 25.667 37.5 35
c7.33301 4.66699 13.666 7 18.999 7c18.667 0 32.667 -11.667 42 -35c2 -8 3 -12.667 3 -14c0.666992 -4 1 -9.33301 1 -16c0 -4.66699 -0.333008 -8 -1 -10z" />
    <glyph glyph-name="cedilla" unicode="&#xb8;" 
d="M207 122c0 -6 -4.33594 -14.334 -13.0029 -25.001c-5.33301 -24.667 -13 -48.334 -23 -71.001c-21.333 -48.667 -32.666 -77 -33.999 -85c-10 -14.667 -18.667 -31.5 -26 -50.5s-12.666 -28.5 -15.999 -28.5c-6 0 -13 2 -21 6s-12 9.33301 -12 16
c0 10.667 2.33301 22.334 7 35.001s10 25.667 16 39c0.666992 4.66699 2 9.83398 4 15.501s5 11.5 9 17.5s9.83301 21 17.5 45s13.834 41 18.501 51c7.33301 12 13.333 21.333 18 28c9.33301 12.667 21 19 35 19c13.333 0 20 -4 20 -12z" />
    <glyph glyph-name="ordmasculine" unicode="&#xba;" horiz-adv-x="275" 
d="M344 569c-8 -41.333 -26.6699 -74.168 -56.0029 -98.501s-59.666 -36.5 -90.999 -36.5c-4.66699 0 -11.667 0.666992 -21 2c-48 6.66699 -72 29 -72 67c0.666992 4.66699 1 8.33398 1 11.001l1 10l-8 -9c-9.33301 -10.667 -15.666 -17.334 -18.999 -20.001
c-2.66699 -2.66699 -5.66699 -3.33398 -9 -2.00098c-4.66699 0.666992 -7 3.66699 -7 9c0 3.33301 1.66699 9 5 17l7 7c10 10.667 21.333 22 34 34l12 14c2 2.66699 4.5 6.83398 7.5 12.501s7.16699 17.167 12.5 34.5l6 11c4 9.33301 8.66699 17 14 23
c15.333 16.667 27.666 28 36.999 34s18 9 26 9c6.66699 0.666992 12.334 -1.66602 17.001 -6.99902c2.66699 -3.33301 4.33398 -7 5.00098 -11l-3 -10l29 6c4 0.666992 9.33301 1 16 1c40.667 0 61 -23 61 -69c0 -10.667 -1.66699 -23.667 -5 -39zM308.997 546.998
c1.33301 6 2.00098 14.001 2.00098 24.001c0 16.667 -3.5 30.167 -10.5 40.5s-14.167 16.333 -21.5 18s-12 2.5 -14 2.5h-7c-13.333 0 -23 -3.66699 -29 -11l-20 -22c-8.66699 -5.33301 -14.5 -9.83301 -17.5 -13.5s-6.33301 -12.5 -10 -26.5s-5.5 -26.333 -5.5 -37
c0 -4.66699 0.666992 -10.334 2 -17.001c6 -25.333 18.333 -38 37 -38c11.333 0 26.666 5 45.999 15c26.667 14 42.667 35.667 48 65z" />
    <glyph glyph-name="questiondown" unicode="&#xbf;" horiz-adv-x="460" 
d="M381 360c0 -9.33301 -1.99902 -18 -5.99902 -26s-13.667 -21 -29 -39c-10.667 -13.333 -23.334 -25.333 -38.001 -36c-7.33301 -4.66699 -13.666 -7 -18.999 -7c-18.667 0 -32.334 11.667 -41.001 35c-4 9.33301 -6 19.333 -6 30c0.666992 4.66699 1 8 1 10
c2 18 8.5 33.833 19.5 47.5s24.833 23.167 41.5 28.5c7.33301 2 14.333 3 21 3c15.333 0 28.5 -4.33301 39.5 -13s16.5 -19.667 16.5 -33zM416.001 -108c1.33301 -6 2.33105 -10.6709 2.99805 -14.0039c0.666992 -4 1 -10 1 -18c0 -15.333 -1.33301 -28.666 -4 -39.999
l-6 -26c-25.333 -80 -76.666 -120 -153.999 -120c-12 0 -25 1 -39 3c-48 6.66699 -87.333 23.667 -118 51s-50.334 62.333 -59.001 105c-4 18 -6 33.667 -6 47c0 24.667 7 47.167 21 67.5s39.667 45.5 77 75.5l25 19c41.333 34.667 70.5 62.834 87.5 84.501
s30.167 46.834 39.5 75.501c4.66699 0 8 -0.666992 10 -2c14.667 -6 22 -15.333 22 -28c0 -11.333 -5.83301 -26.5 -17.5 -45.5s-31.167 -44.5 -58.5 -76.5l-6 -7l-18 -18l-35 -34l-22.5 -25.5c-7.66699 -9 -14.167 -18.167 -19.5 -27.5
c-10.667 -17.333 -16 -36.333 -16 -57c0 -25.333 7.83301 -47.833 23.5 -67.5s37.167 -32.167 64.5 -37.5c5.33301 -1.33301 13.333 -2 24 -2c26.667 0 51.834 6.5 75.501 19.5s39.834 25.333 48.501 37s13 26.167 13 43.5v20v8c0 4.66699 2 9.33398 6 14.001
s8.66699 7 14 7c4 0 7.33301 -1.33301 10 -4c5.33301 -3.33301 10 -12.333 14 -27z" />
    <glyph glyph-name="Agrave" unicode="&#xc0;" horiz-adv-x="512" 
d="M506 390c0 -19.333 -8.33301 -29.0049 -25 -29.0049v-35l-1 -34l-1 -44l-1 -38l-1 -20l-2 -61l-2 -61l-1 -11l-3 -48c-6 -12 -17.333 -19 -34 -21c0 26.667 -0.666992 48.667 -2 66c-3.33301 30 -5.66602 54.333 -6.99902 73l-1 12l-6 67l-2 12l-4 62l-2 20l-5 45l-27 -7
l-23 -9l-46 -13l-50 -16l-27 -10l-25 -8l-6 -28l-6 -26l-12 -56l-26 -118l-13 -62c-1.33301 -13.333 -12.666 -23.333 -33.999 -30c-4.66699 -2 -10.334 -2.33301 -17.001 -1c-9.33301 3.33301 -13.333 8.33301 -12 15l5 28.5
c1.33301 7.66699 2.66602 14.334 3.99902 20.001s3.66602 17.834 6.99902 36.501c8.66699 52.667 16.334 101.667 23.001 147l2 10l9 47l-8 -4c-8.66699 -4.66699 -16 -7 -22 -7c-8.66699 0 -13.667 3.66699 -15 11l1 25l1 10l5 28c3.33301 16 7.83301 26.333 13.5 31
s18.167 7 37.5 7c1.33301 0.666992 2 1.66699 2 3c4 10 6 26.667 6 50c0 6.66699 0.333008 12.334 1 17.001c3.33301 15.333 6.33301 30.333 9 45l5 33c7.33301 36.667 15 67.5 23 92.5s17 48.167 27 69.5l-10 23l33 8l17 14l36 10c13.333 4.66699 24.666 7 33.999 7
c16.667 0 25 -8 25 -24c0 -9.33301 -4 -16.666 -12 -21.999l15 -5l23 -9l17 -6c30 -12 47.833 -21.333 53.5 -28s10.834 -24.667 15.501 -54l7 -50l2 -17l2 -35l3 -44c0 -21.333 0.666992 -33.333 2 -36c2 -3.33301 8.66699 -5.66602 20 -6.99902
c3.33301 -3.33301 5 -7 5 -11zM401 391.995c0 13.333 -0.831055 27.502 -2.49805 42.502s-4.83398 36.167 -9.50098 63.5c-8.66699 46 -15.334 73.5 -20.001 82.5s-19.334 19.167 -44.001 30.5l-21 11l-25 -61l-9 -23l-7 -23l-8 -32l-12 -39l-4 -18l-8 -28l-9 -27l47 4
c38 3.33301 62.333 5.66602 73 6.99902s30.334 4.66602 59.001 9.99902zM457.002 767.997c0 -7.33301 -2.66797 -13 -8.00098 -17c-7.33301 -3.33301 -12 -5.33301 -14 -6l-80 27l-31 16c-4 0.666992 -11 4 -21 10c-25.333 15.333 -44.666 25.333 -57.999 30
c-4 10.667 -10 20.667 -18 30c0 16 0.666992 24.667 2 26c5.33301 6.66699 11.333 11.167 18 13.5s15 3.5 25 3.5c4.66699 -8.66699 14 -20.667 28 -36s34 -32 60 -50c13.333 -8.66699 26 -15.667 38 -21c32 -13.333 51.667 -22 59 -26z" />
    <glyph glyph-name="Aacute" unicode="&#xc1;" horiz-adv-x="512" 
d="M506 390c0 -19.333 -8.33301 -29.0049 -25 -29.0049v-35l-1 -34l-1 -44l-1 -38l-1 -20l-2 -61l-2 -61l-1 -11l-3 -48c-6 -12 -17.333 -19 -34 -21c0 26.667 -0.666992 48.667 -2 66c-3.33301 30 -5.66602 54.333 -6.99902 73l-1 12l-6 67l-2 12l-4 62l-2 20l-5 45l-27 -7
l-23 -9l-46 -13l-50 -16l-27 -10l-25 -8l-6 -28l-6 -26l-12 -56l-26 -118l-13 -62c-1.33301 -13.333 -12.666 -23.333 -33.999 -30c-4.66699 -2 -10.334 -2.33301 -17.001 -1c-9.33301 3.33301 -13.333 8.33301 -12 15l5 28.5
c1.33301 7.66699 2.66602 14.334 3.99902 20.001s3.66602 17.834 6.99902 36.501c8.66699 52.667 16.334 101.667 23.001 147l2 10l9 47l-8 -4c-8.66699 -4.66699 -16 -7 -22 -7c-8.66699 0 -13.667 3.66699 -15 11l1 25l1 10l5 28c3.33301 16 7.83301 26.333 13.5 31
s18.167 7 37.5 7c1.33301 0.666992 2 1.66699 2 3c4 10 6 26.667 6 50c0 6.66699 0.333008 12.334 1 17.001c3.33301 15.333 6.33301 30.333 9 45l5 33c7.33301 36.667 15 67.5 23 92.5s17 48.167 27 69.5l-10 23l33 8l17 14l36 10c13.333 4.66699 24.666 7 33.999 7
c16.667 0 25 -8 25 -24c0 -9.33301 -4 -16.666 -12 -21.999l15 -5l23 -9l17 -6c30 -12 47.833 -21.333 53.5 -28s10.834 -24.667 15.501 -54l7 -50l2 -17l2 -35l3 -44c0 -21.333 0.666992 -33.333 2 -36c2 -3.33301 8.66699 -5.66602 20 -6.99902
c3.33301 -3.33301 5 -7 5 -11zM401 391.995c0 13.333 -0.831055 27.502 -2.49805 42.502s-4.83398 36.167 -9.50098 63.5c-8.66699 46 -15.334 73.5 -20.001 82.5s-19.334 19.167 -44.001 30.5l-21 11l-25 -61l-9 -23l-7 -23l-8 -32l-12 -39l-4 -18l-8 -28l-9 -27l47 4
c38 3.33301 62.333 5.66602 73 6.99902s30.334 4.66602 59.001 9.99902zM429.002 854.997c-4 -4.66699 -7.33496 -9.16602 -10.002 -13.499s-5.33398 -9.83301 -8.00098 -16.5c-13.333 -4.66699 -32.333 -14.334 -57 -29.001
c-11.333 -6.66699 -18.666 -10.334 -21.999 -11.001c-2.66699 -0.666992 -7.66699 -3.16699 -15 -7.5s-12.666 -7.16602 -15.999 -8.49902c-8 -4.66699 -24.667 -10.667 -50 -18c-10 -3.33301 -20 -6.33301 -30 -9l-9 3c-8.66699 4 -13 10.667 -13 20
c6 4 25.667 12.667 59 26c12.667 5.33301 25.334 12.333 38.001 21c26 18 46 34.667 60 50l28 36c9.33301 0 17.5 -1.16699 24.5 -3.5s13.167 -6.83301 18.5 -13.5c1.33301 -1.33301 2 -10 2 -26z" />
    <glyph glyph-name="Acircumflex" unicode="&#xc2;" horiz-adv-x="512" 
d="M506 390c0 -19.333 -8.33301 -29.0049 -25 -29.0049v-35l-1 -34l-1 -44l-1 -38l-1 -20l-2 -61l-2 -61l-1 -11l-3 -48c-6 -12 -17.333 -19 -34 -21c0 26.667 -0.666992 48.667 -2 66c-3.33301 30 -5.66602 54.333 -6.99902 73l-1 12l-6 67l-2 12l-4 62l-2 20l-5 45l-27 -7
l-23 -9l-46 -13l-50 -16l-27 -10l-25 -8l-6 -28l-6 -26l-12 -56l-26 -118l-13 -62c-1.33301 -13.333 -12.666 -23.333 -33.999 -30c-4.66699 -2 -10.334 -2.33301 -17.001 -1c-9.33301 3.33301 -13.333 8.33301 -12 15l5 28.5
c1.33301 7.66699 2.66602 14.334 3.99902 20.001s3.66602 17.834 6.99902 36.501c8.66699 52.667 16.334 101.667 23.001 147l2 10l9 47l-8 -4c-8.66699 -4.66699 -16 -7 -22 -7c-8.66699 0 -13.667 3.66699 -15 11l1 25l1 10l5 28c3.33301 16 7.83301 26.333 13.5 31
s18.167 7 37.5 7c1.33301 0.666992 2 1.66699 2 3c4 10 6 26.667 6 50c0 6.66699 0.333008 12.334 1 17.001c3.33301 15.333 6.33301 30.333 9 45l5 33c7.33301 36.667 15 67.5 23 92.5s17 48.167 27 69.5l-10 23l33 8l17 14l36 10c13.333 4.66699 24.666 7 33.999 7
c16.667 0 25 -8 25 -24c0 -9.33301 -4 -16.666 -12 -21.999l15 -5l23 -9l17 -6c30 -12 47.833 -21.333 53.5 -28s10.834 -24.667 15.501 -54l7 -50l2 -17l2 -35l3 -44c0 -21.333 0.666992 -33.333 2 -36c2 -3.33301 8.66699 -5.66602 20 -6.99902
c3.33301 -3.33301 5 -7 5 -11zM401 391.995c0 13.333 -0.831055 27.502 -2.49805 42.502s-4.83398 36.167 -9.50098 63.5c-8.66699 46 -15.334 73.5 -20.001 82.5s-19.334 19.167 -44.001 30.5l-21 11l-25 -61l-9 -23l-7 -23l-8 -32l-12 -39l-4 -18l-8 -28l-9 -27l47 4
c38 3.33301 62.333 5.66602 73 6.99902s30.334 4.66602 59.001 9.99902zM445.002 759.997c0 -6 -2.00293 -8.99805 -6.00293 -8.99805c-4.66699 0 -12.334 3 -23.001 9c-26.667 14.667 -47 23.334 -61 26.001l-21 13c-13.333 8 -23 12 -29 12c-3.33301 0 -9 -2.66699 -17 -8
c-21.333 -14.667 -34.5 -22.834 -39.5 -24.501s-11.833 -5.33398 -20.5 -11.001l-25 -16.5c-6.66699 0 -11.5 2.66699 -14.5 8s-4.5 10.333 -4.5 15c0 2 1.83301 5.66699 5.5 11s6.16699 9.33301 7.5 12c4.66699 4.66699 19.334 15 44.001 31c12 8 21.333 15.333 28 22
c7.33301 2 15.333 6 24 12s15.334 9 20.001 9c6.66699 0 21.334 -6.66699 44.001 -20c18 -10.667 33 -18.334 45 -23.001c5.33301 -2 10.333 -5 15 -9s9.83398 -7.83301 15.501 -11.5s9.16699 -8.5 10.5 -14.5s2 -17 2 -33z" />
    <glyph glyph-name="Atilde" unicode="&#xc3;" horiz-adv-x="512" 
d="M506 390c0 -19.333 -8.33301 -29.0049 -25 -29.0049v-35l-1 -34l-1 -44l-1 -38l-1 -20l-2 -61l-2 -61l-1 -11l-3 -48c-6 -12 -17.333 -19 -34 -21c0 26.667 -0.666992 48.667 -2 66c-3.33301 30 -5.66602 54.333 -6.99902 73l-1 12l-6 67l-2 12l-4 62l-2 20l-5 45l-27 -7
l-23 -9l-46 -13l-50 -16l-27 -10l-25 -8l-6 -28l-6 -26l-12 -56l-26 -118l-13 -62c-1.33301 -13.333 -12.666 -23.333 -33.999 -30c-4.66699 -2 -10.334 -2.33301 -17.001 -1c-9.33301 3.33301 -13.333 8.33301 -12 15l5 28.5
c1.33301 7.66699 2.66602 14.334 3.99902 20.001s3.66602 17.834 6.99902 36.501c8.66699 52.667 16.334 101.667 23.001 147l2 10l9 47l-8 -4c-8.66699 -4.66699 -16 -7 -22 -7c-8.66699 0 -13.667 3.66699 -15 11l1 25l1 10l5 28c3.33301 16 7.83301 26.333 13.5 31
s18.167 7 37.5 7c1.33301 0.666992 2 1.66699 2 3c4 10 6 26.667 6 50c0 6.66699 0.333008 12.334 1 17.001c3.33301 15.333 6.33301 30.333 9 45l5 33c7.33301 36.667 15 67.5 23 92.5s17 48.167 27 69.5l-10 23l33 8l17 14l36 10c13.333 4.66699 24.666 7 33.999 7
c16.667 0 25 -8 25 -24c0 -9.33301 -4 -16.666 -12 -21.999l15 -5l23 -9l17 -6c30 -12 47.833 -21.333 53.5 -28s10.834 -24.667 15.501 -54l7 -50l2 -17l2 -35l3 -44c0 -21.333 0.666992 -33.333 2 -36c2 -3.33301 8.66699 -5.66602 20 -6.99902
c3.33301 -3.33301 5 -7 5 -11zM401 391.995c0 13.333 -0.831055 27.502 -2.49805 42.502s-4.83398 36.167 -9.50098 63.5c-8.66699 46 -15.334 73.5 -20.001 82.5s-19.334 19.167 -44.001 30.5l-21 11l-25 -61l-9 -23l-7 -23l-8 -32l-12 -39l-4 -18l-8 -28l-9 -27l47 4
c38 3.33301 62.333 5.66602 73 6.99902s30.334 4.66602 59.001 9.99902zM492.002 836.997c0 -7.33301 -0.500977 -13.334 -1.50098 -18.001s-3.16699 -8 -6.5 -10c0 -5.33301 -13 -13 -39 -23s-45 -15 -57 -15c-8.66699 -0.666992 -20.334 -3.16699 -35.001 -7.5
s-23 -6.5 -25 -6.5c-10.667 0 -18.334 9 -23.001 27s-11.667 27 -21 27c-6 0 -13 -2 -21 -6l-24 -12c-6 -1.33301 -17.333 -6.16602 -34 -14.499s-26.667 -12.5 -30 -12.5c-5.33301 0 -8 2.33301 -8 7l3 23c4.66699 6 9.5 10.667 14.5 14s10.167 5 15.5 5
c6.66699 6.66699 23 15.667 49 27s42 17 48 17c2 0.666992 4.33301 1.66699 7 3c4.66699 2 11 3 19 3c16 0 26.167 -2.5 30.5 -7.5l13.5 -15.5l-3 -29c0 -5.33301 4 -8 12 -8c3.33301 0 9.33301 1.5 18 4.5s17.334 5.83301 26.001 8.5s19.334 7.5 32.001 14.5
s22.334 10.5 29.001 10.5c7.33301 0 11 -2 11 -6z" />
    <glyph glyph-name="Adieresis" unicode="&#xc4;" horiz-adv-x="512" 
d="M506 390c0 -19.333 -8.33301 -29.0049 -25 -29.0049v-35l-1 -34l-1 -44l-1 -38l-1 -20l-2 -61l-2 -61l-1 -11l-3 -48c-6 -12 -17.333 -19 -34 -21c0 26.667 -0.666992 48.667 -2 66c-3.33301 30 -5.66602 54.333 -6.99902 73l-1 12l-6 67l-2 12l-4 62l-2 20l-5 45l-27 -7
l-23 -9l-46 -13l-50 -16l-27 -10l-25 -8l-6 -28l-6 -26l-12 -56l-26 -118l-13 -62c-1.33301 -13.333 -12.666 -23.333 -33.999 -30c-4.66699 -2 -10.334 -2.33301 -17.001 -1c-9.33301 3.33301 -13.333 8.33301 -12 15l5 28.5
c1.33301 7.66699 2.66602 14.334 3.99902 20.001s3.66602 17.834 6.99902 36.501c8.66699 52.667 16.334 101.667 23.001 147l2 10l9 47l-8 -4c-8.66699 -4.66699 -16 -7 -22 -7c-8.66699 0 -13.667 3.66699 -15 11l1 25l1 10l5 28c3.33301 16 7.83301 26.333 13.5 31
s18.167 7 37.5 7c1.33301 0.666992 2 1.66699 2 3c4 10 6 26.667 6 50c0 6.66699 0.333008 12.334 1 17.001c3.33301 15.333 6.33301 30.333 9 45l5 33c7.33301 36.667 15 67.5 23 92.5s17 48.167 27 69.5l-10 23l33 8l17 14l36 10c13.333 4.66699 24.666 7 33.999 7
c16.667 0 25 -8 25 -24c0 -9.33301 -4 -16.666 -12 -21.999l15 -5l23 -9l17 -6c30 -12 47.833 -21.333 53.5 -28s10.834 -24.667 15.501 -54l7 -50l2 -17l2 -35l3 -44c0 -21.333 0.666992 -33.333 2 -36c2 -3.33301 8.66699 -5.66602 20 -6.99902
c3.33301 -3.33301 5 -7 5 -11zM401 391.995c0 13.333 -0.831055 27.502 -2.49805 42.502s-4.83398 36.167 -9.50098 63.5c-8.66699 46 -15.334 73.5 -20.001 82.5s-19.334 19.167 -44.001 30.5l-21 11l-25 -61l-9 -23l-7 -23l-8 -32l-12 -39l-4 -18l-8 -28l-9 -27l47 4
c38 3.33301 62.333 5.66602 73 6.99902s30.334 4.66602 59.001 9.99902zM455.002 809.997c0 -12.667 -3.66504 -21.002 -10.998 -25.002c-12.667 -7.33301 -21 -13.666 -25 -18.999c-2 2 -9.33301 3 -22 3l-17 -3c-10.667 6 -17.834 11.833 -21.501 17.5
s-5.5 12.834 -5.5 21.501c0 3.33301 1.5 7.33301 4.5 12l10.5 16c4 6 10 11.333 18 16s14.333 7 19 7c8 0 14.667 -1 20 -3c3.33301 -1.33301 8.33301 -4 15 -8c7.33301 0 11.666 -3 12.999 -9s2 -14.667 2 -26zM308.004 809.995
c0 -12.667 -3.66504 -21.002 -10.998 -25.002c-12.667 -7.33301 -21 -13.666 -25 -18.999c-2 2 -9.33301 3 -22 3l-17 -3c-10.667 6 -17.834 11.833 -21.501 17.5s-5.5 12.834 -5.5 21.501c0 3.33301 1.5 7.33301 4.5 12l10.5 16c4 6 10 11.333 18 16s14.333 7 19 7
c8 0 14.667 -1 20 -3c3.33301 -1.33301 8.33301 -4 15 -8c7.33301 0 11.666 -3 12.999 -9s2 -14.667 2 -26z" />
    <glyph glyph-name="Aring" unicode="&#xc5;" horiz-adv-x="512" 
d="M506 390c0 -19.333 -8.33301 -29.0049 -25 -29.0049v-35l-1 -34l-1 -44l-1 -38l-1 -20l-2 -61l-2 -61l-1 -11l-3 -48c-6 -12 -17.333 -19 -34 -21c0 26.667 -0.666992 48.667 -2 66c-3.33301 30 -5.66602 54.333 -6.99902 73l-1 12l-6 67l-2 12l-4 62l-2 20l-5 45l-27 -7
l-23 -9l-46 -13l-50 -16l-27 -10l-25 -8l-6 -28l-6 -26l-12 -56l-26 -118l-13 -62c-1.33301 -13.333 -12.666 -23.333 -33.999 -30c-4.66699 -2 -10.334 -2.33301 -17.001 -1c-9.33301 3.33301 -13.333 8.33301 -12 15l5 28.5
c1.33301 7.66699 2.66602 14.334 3.99902 20.001s3.66602 17.834 6.99902 36.501c8.66699 52.667 16.334 101.667 23.001 147l2 10l9 47l-8 -4c-8.66699 -4.66699 -16 -7 -22 -7c-8.66699 0 -13.667 3.66699 -15 11l1 25l1 10l5 28c3.33301 16 7.83301 26.333 13.5 31
s18.167 7 37.5 7c1.33301 0.666992 2 1.66699 2 3c4 10 6 26.667 6 50c0 6.66699 0.333008 12.334 1 17.001c3.33301 15.333 6.33301 30.333 9 45l5 33c7.33301 36.667 15 67.5 23 92.5s17 48.167 27 69.5l-10 23l33 8l17 14l36 10c13.333 4.66699 24.666 7 33.999 7
c16.667 0 25 -8 25 -24c0 -9.33301 -4 -16.666 -12 -21.999l15 -5l23 -9l17 -6c30 -12 47.833 -21.333 53.5 -28s10.834 -24.667 15.501 -54l7 -50l2 -17l2 -35l3 -44c0 -21.333 0.666992 -33.333 2 -36c2 -3.33301 8.66699 -5.66602 20 -6.99902
c3.33301 -3.33301 5 -7 5 -11zM401 391.995c0 13.333 -0.831055 27.502 -2.49805 42.502s-4.83398 36.167 -9.50098 63.5c-8.66699 46 -15.334 73.5 -20.001 82.5s-19.334 19.167 -44.001 30.5l-21 11l-25 -61l-9 -23l-7 -23l-8 -32l-12 -39l-4 -18l-8 -28l-9 -27l47 4
c38 3.33301 62.333 5.66602 73 6.99902s30.334 4.66602 59.001 9.99902zM397.002 826.997c0 -6.66699 -1.5 -13.001 -4.5 -19.001s-4.5 -12 -4.5 -18c0 -8.66699 -4.33301 -18 -13 -28c-5.33301 -6.66699 -11 -10.667 -17 -12c-11.333 -5.33301 -21.333 -9.33301 -30 -12
s-16.334 -4 -23.001 -4s-12.334 1 -17.001 3c-11.333 5.33301 -17.666 8 -18.999 8c-9.33301 2.66699 -17.833 7.33398 -25.5 14.001s-11.5 14.667 -11.5 24c0 10 2.66699 20.333 8 31c2.66699 5.33301 5.33398 8.66602 8.00098 9.99902c24 37.333 52.333 56 85 56
c10.667 0 19.5 -1.33301 26.5 -4s17.833 -10 32.5 -22c3.33301 -9.33301 5 -14.666 5 -15.999v-11zM355.002 817.996c0 8.66699 -2.16602 14.167 -6.49902 16.5s-11.5 3.5 -21.5 3.5c-14 0 -26.333 -5 -37 -15s-16 -22 -16 -36c3.33301 -7.33301 11.666 -11 24.999 -11
c6 0 14.833 1.16699 26.5 3.5s19.5 6.5 23.5 12.5s6 14.667 6 26z" />
    <glyph glyph-name="AE" unicode="&#xc6;" horiz-adv-x="512" 
d="M858 129c2 -3.33301 2.99707 -7.00391 2.99707 -11.0039c0 -8 -5.5 -17.5 -16.5 -28.5s-28.5 -24.5 -52.5 -40.5c-9.33301 -6 -19.5 -11.167 -30.5 -15.5s-27 -9.83301 -48 -16.5s-41.167 -11.667 -60.5 -15s-41.666 -5 -66.999 -5l-5 -1l-78 1h-24
c-24 0 -39.833 1.66699 -47.5 5s-18.167 12.333 -31.5 27c-2.66699 4 -4.66699 9.33301 -6 16s-2 16.334 -2 29.001v42c0 14 0.333008 27.667 1 41l9 134l5 51l-2 3l-28 -7l-25 -9l-48 -13l-53 -16l-29 -10l-26 -8l-11 -28l-11 -26l-21 -56l-47 -118l-16 -40
c-3.33301 -8.66699 -6.33301 -17.834 -9 -27.501s-15.334 -17.834 -38.001 -24.501c-5.33301 -2 -11.333 -2.33301 -18 -1c-8.66699 3.33301 -11.667 8.33301 -9 15l9 25c5.33301 14.667 8.66602 23.667 9.99902 27c0.666992 1.33301 3 7.66602 7 18.999
c13.333 37.333 31.333 91 54 161l4 10l17 47l-9 -4c-9.33301 -4.66699 -17 -7 -23 -7c-4 0 -7.33301 1 -10 3s-3.66699 4.66699 -3 8l5 25l3 10l10 28c6 16.667 12.167 27.167 18.5 31.5s19.5 6.5 39.5 6.5c2.66699 4 4.66699 8.66699 6 14c4 12.667 7.66699 25.667 11 39
c1.33301 5.33301 2.66602 11 3.99902 17l17 45l11 33c14 36.667 27 67.334 39 92.001s25 48 39 70l-5 23l34 8l19 14l38 10c14 4.66699 26 7 36 7c16.667 0 23.334 -8 20.001 -24c-1.33301 -9.33301 -6.66602 -16.666 -15.999 -21.999l14 -5l22 -9l16 -6
c6 -2.66699 11.667 -5.66699 17 -9c4.66699 2.66699 9.33398 5.66699 14.001 9c2.66699 1.33301 11 4.33301 25 9l21 6l27 4l29 5l8 1c5.33301 0.666992 10.5 1.16699 15.5 1.5s11.167 0.5 18.5 0.5h12h6l48 -3c32.667 0 53.834 -4.16699 63.501 -12.5
s14.5 -26.5 14.5 -54.5c1.33301 -13.333 0.5 -24.166 -2.5 -32.499s-5.83301 -12.166 -8.5 -11.499c-9.33301 3.33301 -18.333 6 -27 8s-17.334 4.33301 -26.001 7s-21.667 5 -39 7s-32.666 3 -45.999 3c-25.333 0 -46.166 -0.666992 -62.499 -2
s-33.166 -4.66602 -50.499 -9.99902l-3 -14l-1 -9l-1 -11l-4 -42l-10 -65l-4 -53l-1 -5l-1 -18c25.333 8.66699 52 15.667 80 21c42.667 9.33301 70.667 14 84 14l6 1l49 3c24.667 0 40.667 -0.666992 48 -2s12 -5.33301 14 -12c9.33301 -29.333 14 -48.333 14 -57
c0 -11.333 -6.66699 -17 -20 -17c-4 0 -11 0.833008 -21 2.5s-18.333 2.83398 -25 3.50098l-58 1l-37 -1h-25l-59 -5l-56 -9l-1 -12l-1 -12l-2 -31l-3 -28l-1 -28l-3 -45l-8 -43l-3 -16l-1 -10l-2 -14l30 -4c24 -4 48.667 -7.16699 74 -9.5s52 -3.5 80 -3.5
c36 0 63.833 2.16699 83.5 6.5s37.5 10.5 53.5 18.5c32.667 19.333 53 34 61 44c5.33301 6.66699 12.666 4 21.999 -8zM414.997 497.996c0 45.333 -1.83398 72.668 -5.50098 82.001s-16.5 19.666 -38.5 30.999l-19 11l-36 -61l-13 -23l-11 -23l-14 -32l-18 -39l-8 -18
l-13 -28l-13 -27l47 4c36.667 0 64.334 1.66699 83.001 5c20.667 5.33301 38 9.33301 52 12c2 18 3.66699 36 5 54s2 35.333 2 52z" />
    <glyph glyph-name="Ccedilla" unicode="&#xc7;" horiz-adv-x="564" 
d="M591 122c0 -8.66699 -3.33789 -17.668 -10.0049 -27.001s-19.667 -21 -39 -35l-42 -31l-5 -3c-18.667 -11.333 -41.667 -20.666 -69 -27.999s-56 -11 -86 -11c-6 -26.667 -18.667 -60.667 -38 -102c-10 -22 -16 -38.333 -18 -49c-10 -14.667 -18.667 -31.5 -26 -50.5
s-12.666 -28.5 -15.999 -28.5c-6 0 -13 2 -21 6s-12 9.33301 -12 16c0 10.667 2.33301 22.334 7 35.001s10 25.667 16 39c0.666992 4.66699 2 9.83398 4 15.501s5 11.5 9 17.5s9.83301 21 17.5 45s13.834 41 18.501 51l5 8c-52 7.33301 -95.5 26.833 -130.5 58.5
s-60.167 74.5 -75.5 128.5c-5.33301 18.667 -8.66602 33.834 -9.99902 45.501s-2.16602 20.667 -2.49902 27s-0.5 11.833 -0.5 16.5c0 24.667 3 52 9 82c21.333 106.667 62 191.667 122 255c56.667 59.333 125 93.666 205 102.999c19.333 2 36.666 3 51.999 3
c40.667 0 69.5 -9.5 86.5 -28.5s28.5 -54.5 34.5 -106.5c1.33301 -12 2 -20.667 2 -26c0 -21.333 -3.66699 -44 -11 -68c-12.667 -38.667 -26 -65.667 -40 -81c-9.33301 -11.333 -20.333 -17 -33 -17c-13.333 0 -24 5.66699 -32 17c-12 15.333 -18 33 -18 53
c0 16 2.66699 32 8 48s15 37.333 29 64l12 16c2.66699 4.66699 4 11.334 4 20.001c0 2.66699 -0.833008 9 -2.5 19s-8.66699 19.167 -21 27.5s-29.166 12.5 -50.499 12.5c-18 0 -39.667 -3.83301 -65 -11.5s-48.666 -23.834 -69.999 -48.501
c-24 -27.333 -45.333 -66 -64 -116l-21 -69c-13.333 -53.333 -20 -103.333 -20 -150c0 -72 16.833 -126.5 50.5 -163.5s80.167 -55.5 139.5 -55.5c38.667 0 72.667 7.66699 102 23c14.667 7.33301 27.667 15.166 39 23.499s20 15.833 26 22.5l28 32
c5.33301 1.33301 10.5 -0.333984 15.5 -5.00098s7.5 -11 7.5 -19z" />
    <glyph glyph-name="Egrave" unicode="&#xc8;" horiz-adv-x="557" 
d="M570 129c2 -3.33301 3.00098 -6.99902 3.00098 -10.999c0 -8 -5.5 -17.5 -16.5 -28.5s-28.5 -24.5 -52.5 -40.5c-9.33301 -6 -19.5 -11.167 -30.5 -15.5s-27 -9.83301 -48 -16.5s-41.167 -11.667 -60.5 -15s-41.666 -5 -66.999 -5l-5 -1l-78 1h-24
c-24 0 -39.833 1.66699 -47.5 5s-18.167 12.333 -31.5 27c-2.66699 4 -4.66699 9.33301 -6 16s-2 16.334 -2 29.001v42c0 14 0.333008 27.667 1 41l9 134c3.33301 35.333 9 78.666 17 129.999l19 117c8.66699 50.667 18.834 83.667 30.501 99s39.5 30 83.5 44l22 6l27 4
l30 5l8 1c5.33301 0.666992 10.5 1.16699 15.5 1.5s11.167 0.5 18.5 0.5h12h6l48 -3c32 0 52 -4 60 -12s12 -26.333 12 -55c0 -14 -1.83301 -25 -5.5 -33s-6.83398 -11.667 -9.50098 -11l-53 15c-8 2.66699 -20.5 5 -37.5 7s-32.167 3 -45.5 3
c-18 0 -36.167 -0.5 -54.5 -1.5s-38.166 -4.5 -59.499 -10.5l-4 -14l-2 -9l-2 -11l-8 -42l-15 -65l-9 -53l-1 -5l-3 -18c27.333 8.66699 54.666 15.667 81.999 21c43.333 9.33301 71.666 14 84.999 14l6 1l49 3c24.667 0 40.667 -0.666992 48 -2s12 -6.5 14 -15.5
s3.83301 -17.833 5.5 -26.5s2.5 -16.334 2.5 -23.001c0 -14 -7.33301 -21 -22 -21c-4 0 -10.333 0.666992 -19 2l-26 4l-58 1l-37 -1h-25l-59 -5l-57 -9l-2 -12l-2 -12l-5 -31l-5 -28l-4 -28l-7 -45l-6 -43l-3 -16l-1 -10l-2 -14l30 -4c24 -4 48.667 -7.16699 74 -9.5
s52 -3.5 80 -3.5c36 0 63.833 2.16699 83.5 6.5s37.5 10.5 53.5 18.5c32.667 19.333 53 34 61 44c5.33301 6.66699 12.666 4 21.999 -8zM460.001 762.001c0 -7.33301 -2.66797 -13 -8.00098 -17c-7.33301 -3.33301 -12 -5.33301 -14 -6l-80 27l-31 16
c-4 0.666992 -11 4 -21 10c-25.333 15.333 -44.666 25.333 -57.999 30c-4 10.667 -10 20.667 -18 30c0 16 0.666992 24.667 2 26c5.33301 6.66699 11.333 11.167 18 13.5s15 3.5 25 3.5c4.66699 -8.66699 14 -20.667 28 -36s34 -32 60 -50
c13.333 -8.66699 26 -15.667 38 -21c32 -13.333 51.667 -22 59 -26z" />
    <glyph glyph-name="Eacute" unicode="&#xc9;" horiz-adv-x="557" 
d="M570 129c2 -3.33301 3.00098 -6.99902 3.00098 -10.999c0 -8 -5.5 -17.5 -16.5 -28.5s-28.5 -24.5 -52.5 -40.5c-9.33301 -6 -19.5 -11.167 -30.5 -15.5s-27 -9.83301 -48 -16.5s-41.167 -11.667 -60.5 -15s-41.666 -5 -66.999 -5l-5 -1l-78 1h-24
c-24 0 -39.833 1.66699 -47.5 5s-18.167 12.333 -31.5 27c-2.66699 4 -4.66699 9.33301 -6 16s-2 16.334 -2 29.001v42c0 14 0.333008 27.667 1 41l9 134c3.33301 35.333 9 78.666 17 129.999l19 117c8.66699 50.667 18.834 83.667 30.501 99s39.5 30 83.5 44l22 6l27 4
l30 5l8 1c5.33301 0.666992 10.5 1.16699 15.5 1.5s11.167 0.5 18.5 0.5h12h6l48 -3c32 0 52 -4 60 -12s12 -26.333 12 -55c0 -14 -1.83301 -25 -5.5 -33s-6.83398 -11.667 -9.50098 -11l-53 15c-8 2.66699 -20.5 5 -37.5 7s-32.167 3 -45.5 3
c-18 0 -36.167 -0.5 -54.5 -1.5s-38.166 -4.5 -59.499 -10.5l-4 -14l-2 -9l-2 -11l-8 -42l-15 -65l-9 -53l-1 -5l-3 -18c27.333 8.66699 54.666 15.667 81.999 21c43.333 9.33301 71.666 14 84.999 14l6 1l49 3c24.667 0 40.667 -0.666992 48 -2s12 -6.5 14 -15.5
s3.83301 -17.833 5.5 -26.5s2.5 -16.334 2.5 -23.001c0 -14 -7.33301 -21 -22 -21c-4 0 -10.333 0.666992 -19 2l-26 4l-58 1l-37 -1h-25l-59 -5l-57 -9l-2 -12l-2 -12l-5 -31l-5 -28l-4 -28l-7 -45l-6 -43l-3 -16l-1 -10l-2 -14l30 -4c24 -4 48.667 -7.16699 74 -9.5
s52 -3.5 80 -3.5c36 0 63.833 2.16699 83.5 6.5s37.5 10.5 53.5 18.5c32.667 19.333 53 34 61 44c5.33301 6.66699 12.666 4 21.999 -8zM453.001 846.001c-4 -4.66699 -7.33496 -9.16602 -10.002 -13.499s-5.33398 -9.83301 -8.00098 -16.5
c-13.333 -4.66699 -32.333 -14.334 -57 -29.001c-11.333 -6.66699 -18.666 -10.334 -21.999 -11.001c-2.66699 -0.666992 -7.66699 -3.16699 -15 -7.5s-12.666 -7.16602 -15.999 -8.49902c-8 -4.66699 -24.667 -10.667 -50 -18c-10 -3.33301 -20 -6.33301 -30 -9l-9 3
c-8.66699 4 -13 10.667 -13 20c6 4 25.667 12.667 59 26c12.667 5.33301 25.334 12.333 38.001 21c26 18 46 34.667 60 50l28 36c9.33301 0 17.5 -1.16699 24.5 -3.5s13.167 -6.83301 18.5 -13.5c1.33301 -1.33301 2 -10 2 -26z" />
    <glyph glyph-name="Ecircumflex" unicode="&#xca;" horiz-adv-x="557" 
d="M570 129c2 -3.33301 3.00098 -6.99902 3.00098 -10.999c0 -8 -5.5 -17.5 -16.5 -28.5s-28.5 -24.5 -52.5 -40.5c-9.33301 -6 -19.5 -11.167 -30.5 -15.5s-27 -9.83301 -48 -16.5s-41.167 -11.667 -60.5 -15s-41.666 -5 -66.999 -5l-5 -1l-78 1h-24
c-24 0 -39.833 1.66699 -47.5 5s-18.167 12.333 -31.5 27c-2.66699 4 -4.66699 9.33301 -6 16s-2 16.334 -2 29.001v42c0 14 0.333008 27.667 1 41l9 134c3.33301 35.333 9 78.666 17 129.999l19 117c8.66699 50.667 18.834 83.667 30.501 99s39.5 30 83.5 44l22 6l27 4
l30 5l8 1c5.33301 0.666992 10.5 1.16699 15.5 1.5s11.167 0.5 18.5 0.5h12h6l48 -3c32 0 52 -4 60 -12s12 -26.333 12 -55c0 -14 -1.83301 -25 -5.5 -33s-6.83398 -11.667 -9.50098 -11l-53 15c-8 2.66699 -20.5 5 -37.5 7s-32.167 3 -45.5 3
c-18 0 -36.167 -0.5 -54.5 -1.5s-38.166 -4.5 -59.499 -10.5l-4 -14l-2 -9l-2 -11l-8 -42l-15 -65l-9 -53l-1 -5l-3 -18c27.333 8.66699 54.666 15.667 81.999 21c43.333 9.33301 71.666 14 84.999 14l6 1l49 3c24.667 0 40.667 -0.666992 48 -2s12 -6.5 14 -15.5
s3.83301 -17.833 5.5 -26.5s2.5 -16.334 2.5 -23.001c0 -14 -7.33301 -21 -22 -21c-4 0 -10.333 0.666992 -19 2l-26 4l-58 1l-37 -1h-25l-59 -5l-57 -9l-2 -12l-2 -12l-5 -31l-5 -28l-4 -28l-7 -45l-6 -43l-3 -16l-1 -10l-2 -14l30 -4c24 -4 48.667 -7.16699 74 -9.5
s52 -3.5 80 -3.5c36 0 63.833 2.16699 83.5 6.5s37.5 10.5 53.5 18.5c32.667 19.333 53 34 61 44c5.33301 6.66699 12.666 4 21.999 -8zM499.001 760.001c0 -6 -2.00293 -8.99805 -6.00293 -8.99805c-4.66699 0 -12.334 3 -23.001 9c-26.667 14.667 -47 23.334 -61 26.001
l-21 13c-13.333 8 -23 12 -29 12c-3.33301 0 -9 -2.66699 -17 -8c-21.333 -14.667 -34.5 -22.834 -39.5 -24.501s-11.833 -5.33398 -20.5 -11.001l-25 -16.5c-6.66699 0 -11.5 2.66699 -14.5 8s-4.5 10.333 -4.5 15c0 2 1.83301 5.66699 5.5 11s6.16699 9.33301 7.5 12
c4.66699 4.66699 19.334 15 44.001 31c12 8 21.333 15.333 28 22c7.33301 2 15.333 6 24 12s15.334 9 20.001 9c6.66699 0 21.334 -6.66699 44.001 -20c18 -10.667 33 -18.334 45 -23.001c5.33301 -2 10.333 -5 15 -9s9.83398 -7.83301 15.501 -11.5
s9.16699 -8.5 10.5 -14.5s2 -17 2 -33z" />
    <glyph glyph-name="Edieresis" unicode="&#xcb;" horiz-adv-x="557" 
d="M570 129c2 -3.33301 3.00098 -6.99902 3.00098 -10.999c0 -8 -5.5 -17.5 -16.5 -28.5s-28.5 -24.5 -52.5 -40.5c-9.33301 -6 -19.5 -11.167 -30.5 -15.5s-27 -9.83301 -48 -16.5s-41.167 -11.667 -60.5 -15s-41.666 -5 -66.999 -5l-5 -1l-78 1h-24
c-24 0 -39.833 1.66699 -47.5 5s-18.167 12.333 -31.5 27c-2.66699 4 -4.66699 9.33301 -6 16s-2 16.334 -2 29.001v42c0 14 0.333008 27.667 1 41l9 134c3.33301 35.333 9 78.666 17 129.999l19 117c8.66699 50.667 18.834 83.667 30.501 99s39.5 30 83.5 44l22 6l27 4
l30 5l8 1c5.33301 0.666992 10.5 1.16699 15.5 1.5s11.167 0.5 18.5 0.5h12h6l48 -3c32 0 52 -4 60 -12s12 -26.333 12 -55c0 -14 -1.83301 -25 -5.5 -33s-6.83398 -11.667 -9.50098 -11l-53 15c-8 2.66699 -20.5 5 -37.5 7s-32.167 3 -45.5 3
c-18 0 -36.167 -0.5 -54.5 -1.5s-38.166 -4.5 -59.499 -10.5l-4 -14l-2 -9l-2 -11l-8 -42l-15 -65l-9 -53l-1 -5l-3 -18c27.333 8.66699 54.666 15.667 81.999 21c43.333 9.33301 71.666 14 84.999 14l6 1l49 3c24.667 0 40.667 -0.666992 48 -2s12 -6.5 14 -15.5
s3.83301 -17.833 5.5 -26.5s2.5 -16.334 2.5 -23.001c0 -14 -7.33301 -21 -22 -21c-4 0 -10.333 0.666992 -19 2l-26 4l-58 1l-37 -1h-25l-59 -5l-57 -9l-2 -12l-2 -12l-5 -31l-5 -28l-4 -28l-7 -45l-6 -43l-3 -16l-1 -10l-2 -14l30 -4c24 -4 48.667 -7.16699 74 -9.5
s52 -3.5 80 -3.5c36 0 63.833 2.16699 83.5 6.5s37.5 10.5 53.5 18.5c32.667 19.333 53 34 61 44c5.33301 6.66699 12.666 4 21.999 -8zM464.001 801.001c0 -12.667 -3.66504 -21.002 -10.998 -25.002c-12.667 -7.33301 -21 -13.666 -25 -18.999c-2 2 -9.33301 3 -22 3
l-17 -3c-10.667 6 -17.834 11.833 -21.501 17.5s-5.5 12.834 -5.5 21.501c0 3.33301 1.5 7.33301 4.5 12l10.5 16c4 6 10 11.333 18 16s14.333 7 19 7c8 0 14.667 -1 20 -3c3.33301 -1.33301 8.33301 -4 15 -8c7.33301 0 11.666 -3 12.999 -9s2 -14.667 2 -26z
M317.003 800.999c0 -12.667 -3.66504 -21.002 -10.998 -25.002c-12.667 -7.33301 -21 -13.666 -25 -18.999c-2 2 -9.33301 3 -22 3l-17 -3c-10.667 6 -17.834 11.833 -21.501 17.5s-5.5 12.834 -5.5 21.501c0 3.33301 1.5 7.33301 4.5 12l10.5 16c4 6 10 11.333 18 16
s14.333 7 19 7c8 0 14.667 -1 20 -3c3.33301 -1.33301 8.33301 -4 15 -8c7.33301 0 11.666 -3 12.999 -9s2 -14.667 2 -26z" />
    <glyph glyph-name="Igrave" unicode="&#xcc;" horiz-adv-x="263" 
d="M319 680c-3.33301 -12.667 -7.83203 -28.499 -13.499 -47.499s-11.5 -36.833 -17.5 -53.5c-2.66699 -6.66699 -5.66699 -17.667 -9 -33c-8 -34.667 -16 -71.667 -24 -111c-3.33301 -14.667 -6 -27 -8 -37s-3.66699 -20 -5 -30
c-9.33301 -48.667 -17.333 -93.834 -24 -135.501s-10 -76.167 -10 -103.5c0 -46.667 0.5 -75.667 1.5 -87s2.16699 -22 3.5 -32c1.33301 -3.33301 -1.33398 -6.83301 -8.00098 -10.5s-16.834 -7 -30.501 -10s-24.167 -4.5 -31.5 -4.5c-12.667 0 -21 6 -25 18
s-6 33.333 -6 64l-1 79v13c0 24 1 47 3 69s5 50 9 84c6.66699 47.333 14 91 22 131c-12.667 2.66699 -19 8.66699 -19 18c0 4.66699 3.33301 18.667 10 42l11 43l3 8l19 53l23 45c8 17.333 14 28.333 18 33c8.66699 10 27.334 15 56.001 15c23.333 0 38.5 -1.33301 45.5 -4
s9.5 -8 7.5 -16zM430.001 768.001c0 -7.33301 -2.66797 -13 -8.00098 -17c-7.33301 -3.33301 -12 -5.33301 -14 -6l-80 27l-31 16c-4 0.666992 -11 4 -21 10c-25.333 15.333 -44.666 25.333 -57.999 30c-4 10.667 -10 20.667 -18 30c0 16 0.666992 24.667 2 26
c5.33301 6.66699 11.333 11.167 18 13.5s15 3.5 25 3.5c4.66699 -8.66699 14 -20.667 28 -36s34 -32 60 -50c13.333 -8.66699 26 -15.667 38 -21c32 -13.333 51.667 -22 59 -26z" />
    <glyph glyph-name="Iacute" unicode="&#xcd;" horiz-adv-x="263" 
d="M319 680c-3.33301 -12.667 -7.83203 -28.499 -13.499 -47.499s-11.5 -36.833 -17.5 -53.5c-2.66699 -6.66699 -5.66699 -17.667 -9 -33c-8 -34.667 -16 -71.667 -24 -111c-3.33301 -14.667 -6 -27 -8 -37s-3.66699 -20 -5 -30
c-9.33301 -48.667 -17.333 -93.834 -24 -135.501s-10 -76.167 -10 -103.5c0 -46.667 0.5 -75.667 1.5 -87s2.16699 -22 3.5 -32c1.33301 -3.33301 -1.33398 -6.83301 -8.00098 -10.5s-16.834 -7 -30.501 -10s-24.167 -4.5 -31.5 -4.5c-12.667 0 -21 6 -25 18
s-6 33.333 -6 64l-1 79v13c0 24 1 47 3 69s5 50 9 84c6.66699 47.333 14 91 22 131c-12.667 2.66699 -19 8.66699 -19 18c0 4.66699 3.33301 18.667 10 42l11 43l3 8l19 53l23 45c8 17.333 14 28.333 18 33c8.66699 10 27.334 15 56.001 15c23.333 0 38.5 -1.33301 45.5 -4
s9.5 -8 7.5 -16zM393.001 843.001c-4 -4.66699 -7.33496 -9.16602 -10.002 -13.499s-5.33398 -9.83301 -8.00098 -16.5c-13.333 -4.66699 -32.333 -14.334 -57 -29.001c-11.333 -6.66699 -18.666 -10.334 -21.999 -11.001c-2.66699 -0.666992 -7.66699 -3.16699 -15 -7.5
s-12.666 -7.16602 -15.999 -8.49902c-8 -4.66699 -24.667 -10.667 -50 -18c-10 -3.33301 -20 -6.33301 -30 -9l-9 3c-8.66699 4 -13 10.667 -13 20c6 4 25.667 12.667 59 26c12.667 5.33301 25.334 12.333 38.001 21c26 18 46 34.667 60 50l28 36
c9.33301 0 17.5 -1.16699 24.5 -3.5s13.167 -6.83301 18.5 -13.5c1.33301 -1.33301 2 -10 2 -26z" />
    <glyph glyph-name="Icircumflex" unicode="&#xce;" horiz-adv-x="263" 
d="M319 680c-3.33301 -12.667 -7.83203 -28.499 -13.499 -47.499s-11.5 -36.833 -17.5 -53.5c-2.66699 -6.66699 -5.66699 -17.667 -9 -33c-8 -34.667 -16 -71.667 -24 -111c-3.33301 -14.667 -6 -27 -8 -37s-3.66699 -20 -5 -30
c-9.33301 -48.667 -17.333 -93.834 -24 -135.501s-10 -76.167 -10 -103.5c0 -46.667 0.5 -75.667 1.5 -87s2.16699 -22 3.5 -32c1.33301 -3.33301 -1.33398 -6.83301 -8.00098 -10.5s-16.834 -7 -30.501 -10s-24.167 -4.5 -31.5 -4.5c-12.667 0 -21 6 -25 18
s-6 33.333 -6 64l-1 79v13c0 24 1 47 3 69s5 50 9 84c6.66699 47.333 14 91 22 131c-12.667 2.66699 -19 8.66699 -19 18c0 4.66699 3.33301 18.667 10 42l11 43l3 8l19 53l23 45c8 17.333 14 28.333 18 33c8.66699 10 27.334 15 56.001 15c23.333 0 38.5 -1.33301 45.5 -4
s9.5 -8 7.5 -16zM421.001 760.001c0 -6 -2.00293 -8.99805 -6.00293 -8.99805c-4.66699 0 -12.334 3 -23.001 9c-26.667 14.667 -47 23.334 -61 26.001l-21 13c-13.333 8 -23 12 -29 12c-3.33301 0 -9 -2.66699 -17 -8c-21.333 -14.667 -34.5 -22.834 -39.5 -24.501
s-11.833 -5.33398 -20.5 -11.001l-25 -16.5c-6.66699 0 -11.5 2.66699 -14.5 8s-4.5 10.333 -4.5 15c0 2 1.83301 5.66699 5.5 11s6.16699 9.33301 7.5 12c4.66699 4.66699 19.334 15 44.001 31c12 8 21.333 15.333 28 22c7.33301 2 15.333 6 24 12s15.334 9 20.001 9
c6.66699 0 21.334 -6.66699 44.001 -20c18 -10.667 33 -18.334 45 -23.001c5.33301 -2 10.333 -5 15 -9s9.83398 -7.83301 15.501 -11.5s9.16699 -8.5 10.5 -14.5s2 -17 2 -33z" />
    <glyph glyph-name="Idieresis" unicode="&#xcf;" horiz-adv-x="263" 
d="M319 680c-3.33301 -12.667 -7.83203 -28.499 -13.499 -47.499s-11.5 -36.833 -17.5 -53.5c-2.66699 -6.66699 -5.66699 -17.667 -9 -33c-8 -34.667 -16 -71.667 -24 -111c-3.33301 -14.667 -6 -27 -8 -37s-3.66699 -20 -5 -30
c-9.33301 -48.667 -17.333 -93.834 -24 -135.501s-10 -76.167 -10 -103.5c0 -46.667 0.5 -75.667 1.5 -87s2.16699 -22 3.5 -32c1.33301 -3.33301 -1.33398 -6.83301 -8.00098 -10.5s-16.834 -7 -30.501 -10s-24.167 -4.5 -31.5 -4.5c-12.667 0 -21 6 -25 18
s-6 33.333 -6 64l-1 79v13c0 24 1 47 3 69s5 50 9 84c6.66699 47.333 14 91 22 131c-12.667 2.66699 -19 8.66699 -19 18c0 4.66699 3.33301 18.667 10 42l11 43l3 8l19 53l23 45c8 17.333 14 28.333 18 33c8.66699 10 27.334 15 56.001 15c23.333 0 38.5 -1.33301 45.5 -4
s9.5 -8 7.5 -16zM431.001 804.001c0 -12.667 -3.66504 -21.002 -10.998 -25.002c-12.667 -7.33301 -21 -13.666 -25 -18.999c-2 2 -9.33301 3 -22 3l-17 -3c-10.667 6 -17.834 11.833 -21.501 17.5s-5.5 12.834 -5.5 21.501c0 3.33301 1.5 7.33301 4.5 12l10.5 16
c4 6 10 11.333 18 16s14.333 7 19 7c8 0 14.667 -1 20 -3c3.33301 -1.33301 8.33301 -4 15 -8c7.33301 0 11.666 -3 12.999 -9s2 -14.667 2 -26zM284.003 803.999c0 -12.667 -3.66504 -21.002 -10.998 -25.002c-12.667 -7.33301 -21 -13.666 -25 -18.999
c-2 2 -9.33301 3 -22 3l-17 -3c-10.667 6 -17.834 11.833 -21.501 17.5s-5.5 12.834 -5.5 21.501c0 3.33301 1.5 7.33301 4.5 12l10.5 16c4 6 10 11.333 18 16s14.333 7 19 7c8 0 14.667 -1 20 -3c3.33301 -1.33301 8.33301 -4 15 -8c7.33301 0 11.666 -3 12.999 -9
s2 -14.667 2 -26z" />
    <glyph glyph-name="Ntilde" unicode="&#xd1;" horiz-adv-x="620" 
d="M645 703c0 -88 -2.99805 -158.998 -8.99805 -212.998c-0.666992 -8.66699 -9.33398 -66 -26.001 -172c-0.666992 -10 -2.16699 -21.333 -4.5 -34s-4.16602 -22.334 -5.49902 -29.001c-21.333 -118 -32.333 -178 -33 -180
c-8.66699 -42.667 -20.334 -67.334 -35.001 -74.001c-4.66699 -2 -12.5 -5.16699 -23.5 -9.5s-20.167 -6.5 -27.5 -6.5c-20.667 0 -55.334 62 -104.001 186l-47 126l-20 56l-30 85l-2 8l-17 36c-6 -14.667 -13.333 -35.667 -22 -63l-22 -70l-16 -58l-19 -68
c-12 -41.333 -20.167 -70.666 -24.5 -87.999s-7.83301 -32.666 -10.5 -45.999c-10.667 -52 -21 -88.833 -31 -110.5s-22 -32.5 -36 -32.5c-6 0 -13 2 -21 6c5.33301 48.667 10.666 90.667 15.999 126c0.666992 6 9.66699 58 27 156l16 96l7 44l14 68l12 65
c6 31.333 10.5 56.666 13.5 75.999s4.5 33.666 4.5 42.999l1 29c0 8 7.66699 16.667 23 26c18.667 11.333 39.667 17 63 17c20.667 0 34 -5.66699 40 -17c4 -8 12.667 -42.667 26 -104c2.66699 -11.333 5.66699 -22.333 9 -33l38 -114l12 -36l37 -110
c26 -72 51 -123 75 -153c8.66699 14 15.334 28.833 20.001 44.5s12 48.834 22 99.501c23.333 112 35 182.333 35 211c0 97.333 3.16699 159 9.5 185s18.833 40.333 37.5 43c6 1.33301 12.333 0.666016 19 -2.00098s9.66699 -5.66699 9 -9zM588.002 807.002
c0 -7.33301 -0.500977 -13.334 -1.50098 -18.001s-3.16699 -8 -6.5 -10c0 -5.33301 -13 -13 -39 -23s-45 -15 -57 -15c-8.66699 -0.666992 -20.334 -3.16699 -35.001 -7.5s-23 -6.5 -25 -6.5c-10.667 0 -18.334 9 -23.001 27s-11.667 27 -21 27c-6 0 -13 -2 -21 -6l-24 -12
c-6 -1.33301 -17.333 -6.16602 -34 -14.499s-26.667 -12.5 -30 -12.5c-5.33301 0 -8 2.33301 -8 7l3 23c4.66699 6 9.5 10.667 14.5 14s10.167 5 15.5 5c6.66699 6.66699 23 15.667 49 27s42 17 48 17c2 0.666992 4.33301 1.66699 7 3c4.66699 2 11 3 19 3
c16 0 26.167 -2.5 30.5 -7.5l13.5 -15.5l-3 -29c0 -5.33301 4 -8 12 -8c3.33301 0 9.33301 1.5 18 4.5s17.334 5.83301 26.001 8.5s19.334 7.5 32.001 14.5s22.334 10.5 29.001 10.5c7.33301 0 11 -2 11 -6z" />
    <glyph glyph-name="Ograve" unicode="&#xd2;" horiz-adv-x="653" 
d="M661 343c-21.333 -108 -62.501 -192.166 -123.501 -252.499s-134.833 -90.5 -221.5 -90.5c-69.333 0 -124.333 16.667 -165 50s-61 79 -61 137c0 12 1 24.667 3 38c8 56.667 22.667 110 44 160l16 39c-7.33301 -6 -17 -9 -29 -9l-13 1c-7.33301 1.33301 -11 7 -11 17
c0 2 0.666992 5 2 9c6 12.667 14 23.334 24 32.001c18 16 31 31 39 45s16.333 36.333 25 67l3 12l13 50c5.33301 25.333 10.333 41.333 15 48s13.334 12 26.001 16c5.33301 2 10 2 14 0s6 -4.66699 6 -8v-11c0 -6.66699 -0.333008 -12.334 -1 -17.001s-2.66699 -11 -6 -19
l25 14c25.333 13.333 47.333 22.833 66 28.5s38.667 8.5 60 8.5c8 0 17.667 -0.5 29 -1.5s27 -2.83301 47 -5.5c60 -8 106.167 -31.833 138.5 -71.5s48.5 -95.5 48.5 -167.5c0 -36.667 -4.33301 -76.334 -13 -119.001zM562.999 423.001
c0 67.333 -15.334 119.832 -46.001 157.499s-71 56.5 -121 56.5c-19.333 0 -39.666 -3 -60.999 -9c-43.333 -12.667 -70.833 -26.834 -82.5 -42.501s-23.834 -54.5 -36.501 -116.5l-23 -123l-3 -18c-4 -25.333 -6 -48.666 -6 -69.999c0 -22.667 2 -44 6 -64
c2 -11.333 4.83301 -22.666 8.5 -33.999s7.83398 -22.666 12.501 -33.999c10.667 -23.333 26.5 -41.5 47.5 -54.5s45.5 -19.5 73.5 -19.5c26.667 0 54.667 7 84 21c41.333 22 75.333 62.333 102 121c30 65.333 45 141.666 45 228.999zM540.998 759
c0 -7.33301 -2.66797 -13 -8.00098 -17c-7.33301 -3.33301 -12 -5.33301 -14 -6l-80 27l-31 16c-4 0.666992 -11 4 -21 10c-25.333 15.333 -44.666 25.333 -57.999 30c-4 10.667 -10 20.667 -18 30c0 16 0.666992 24.667 2 26c5.33301 6.66699 11.333 11.167 18 13.5
s15 3.5 25 3.5c4.66699 -8.66699 14 -20.667 28 -36s34 -32 60 -50c13.333 -8.66699 26 -15.667 38 -21c32 -13.333 51.667 -22 59 -26z" />
    <glyph glyph-name="Oacute" unicode="&#xd3;" horiz-adv-x="653" 
d="M661 343c-21.333 -108 -62.501 -192.166 -123.501 -252.499s-134.833 -90.5 -221.5 -90.5c-69.333 0 -124.333 16.667 -165 50s-61 79 -61 137c0 12 1 24.667 3 38c8 56.667 22.667 110 44 160l16 39c-7.33301 -6 -17 -9 -29 -9l-13 1c-7.33301 1.33301 -11 7 -11 17
c0 2 0.666992 5 2 9c6 12.667 14 23.334 24 32.001c18 16 31 31 39 45s16.333 36.333 25 67l3 12l13 50c5.33301 25.333 10.333 41.333 15 48s13.334 12 26.001 16c5.33301 2 10 2 14 0s6 -4.66699 6 -8v-11c0 -6.66699 -0.333008 -12.334 -1 -17.001s-2.66699 -11 -6 -19
l25 14c25.333 13.333 47.333 22.833 66 28.5s38.667 8.5 60 8.5c8 0 17.667 -0.5 29 -1.5s27 -2.83301 47 -5.5c60 -8 106.167 -31.833 138.5 -71.5s48.5 -95.5 48.5 -167.5c0 -36.667 -4.33301 -76.334 -13 -119.001zM562.999 423.001
c0 67.333 -15.334 119.832 -46.001 157.499s-71 56.5 -121 56.5c-19.333 0 -39.666 -3 -60.999 -9c-43.333 -12.667 -70.833 -26.834 -82.5 -42.501s-23.834 -54.5 -36.501 -116.5l-23 -123l-3 -18c-4 -25.333 -6 -48.666 -6 -69.999c0 -22.667 2 -44 6 -64
c2 -11.333 4.83301 -22.666 8.5 -33.999s7.83398 -22.666 12.501 -33.999c10.667 -23.333 26.5 -41.5 47.5 -54.5s45.5 -19.5 73.5 -19.5c26.667 0 54.667 7 84 21c41.333 22 75.333 62.333 102 121c30 65.333 45 141.666 45 228.999zM512.998 855
c-4 -4.66699 -7.33496 -9.16602 -10.002 -13.499s-5.33398 -9.83301 -8.00098 -16.5c-13.333 -4.66699 -32.333 -14.334 -57 -29.001c-11.333 -6.66699 -18.666 -10.334 -21.999 -11.001c-2.66699 -0.666992 -7.66699 -3.16699 -15 -7.5s-12.666 -7.16602 -15.999 -8.49902
c-8 -4.66699 -24.667 -10.667 -50 -18c-10 -3.33301 -20 -6.33301 -30 -9l-9 3c-8.66699 4 -13 10.667 -13 20c6 4 25.667 12.667 59 26c12.667 5.33301 25.334 12.333 38.001 21c26 18 46 34.667 60 50l28 36c9.33301 0 17.5 -1.16699 24.5 -3.5
s13.167 -6.83301 18.5 -13.5c1.33301 -1.33301 2 -10 2 -26z" />
    <glyph glyph-name="Ocircumflex" unicode="&#xd4;" horiz-adv-x="653" 
d="M661 343c-21.333 -108 -62.501 -192.166 -123.501 -252.499s-134.833 -90.5 -221.5 -90.5c-69.333 0 -124.333 16.667 -165 50s-61 79 -61 137c0 12 1 24.667 3 38c8 56.667 22.667 110 44 160l16 39c-7.33301 -6 -17 -9 -29 -9l-13 1c-7.33301 1.33301 -11 7 -11 17
c0 2 0.666992 5 2 9c6 12.667 14 23.334 24 32.001c18 16 31 31 39 45s16.333 36.333 25 67l3 12l13 50c5.33301 25.333 10.333 41.333 15 48s13.334 12 26.001 16c5.33301 2 10 2 14 0s6 -4.66699 6 -8v-11c0 -6.66699 -0.333008 -12.334 -1 -17.001s-2.66699 -11 -6 -19
l25 14c25.333 13.333 47.333 22.833 66 28.5s38.667 8.5 60 8.5c8 0 17.667 -0.5 29 -1.5s27 -2.83301 47 -5.5c60 -8 106.167 -31.833 138.5 -71.5s48.5 -95.5 48.5 -167.5c0 -36.667 -4.33301 -76.334 -13 -119.001zM562.999 423.001
c0 67.333 -15.334 119.832 -46.001 157.499s-71 56.5 -121 56.5c-19.333 0 -39.666 -3 -60.999 -9c-43.333 -12.667 -70.833 -26.834 -82.5 -42.501s-23.834 -54.5 -36.501 -116.5l-23 -123l-3 -18c-4 -25.333 -6 -48.666 -6 -69.999c0 -22.667 2 -44 6 -64
c2 -11.333 4.83301 -22.666 8.5 -33.999s7.83398 -22.666 12.501 -33.999c10.667 -23.333 26.5 -41.5 47.5 -54.5s45.5 -19.5 73.5 -19.5c26.667 0 54.667 7 84 21c41.333 22 75.333 62.333 102 121c30 65.333 45 141.666 45 228.999zM552.998 760
c0 -6 -2.00293 -8.99805 -6.00293 -8.99805c-4.66699 0 -12.334 3 -23.001 9c-26.667 14.667 -47 23.334 -61 26.001l-21 13c-13.333 8 -23 12 -29 12c-3.33301 0 -9 -2.66699 -17 -8c-21.333 -14.667 -34.5 -22.834 -39.5 -24.501s-11.833 -5.33398 -20.5 -11.001
l-25 -16.5c-6.66699 0 -11.5 2.66699 -14.5 8s-4.5 10.333 -4.5 15c0 2 1.83301 5.66699 5.5 11s6.16699 9.33301 7.5 12c4.66699 4.66699 19.334 15 44.001 31c12 8 21.333 15.333 28 22c7.33301 2 15.333 6 24 12s15.334 9 20.001 9c6.66699 0 21.334 -6.66699 44.001 -20
c18 -10.667 33 -18.334 45 -23.001c5.33301 -2 10.333 -5 15 -9s9.83398 -7.83301 15.501 -11.5s9.16699 -8.5 10.5 -14.5s2 -17 2 -33z" />
    <glyph glyph-name="Otilde" unicode="&#xd5;" horiz-adv-x="653" 
d="M661 343c-21.333 -108 -62.501 -192.166 -123.501 -252.499s-134.833 -90.5 -221.5 -90.5c-69.333 0 -124.333 16.667 -165 50s-61 79 -61 137c0 12 1 24.667 3 38c8 56.667 22.667 110 44 160l16 39c-7.33301 -6 -17 -9 -29 -9l-13 1c-7.33301 1.33301 -11 7 -11 17
c0 2 0.666992 5 2 9c6 12.667 14 23.334 24 32.001c18 16 31 31 39 45s16.333 36.333 25 67l3 12l13 50c5.33301 25.333 10.333 41.333 15 48s13.334 12 26.001 16c5.33301 2 10 2 14 0s6 -4.66699 6 -8v-11c0 -6.66699 -0.333008 -12.334 -1 -17.001s-2.66699 -11 -6 -19
l25 14c25.333 13.333 47.333 22.833 66 28.5s38.667 8.5 60 8.5c8 0 17.667 -0.5 29 -1.5s27 -2.83301 47 -5.5c60 -8 106.167 -31.833 138.5 -71.5s48.5 -95.5 48.5 -167.5c0 -36.667 -4.33301 -76.334 -13 -119.001zM562.999 423.001
c0 67.333 -15.334 119.832 -46.001 157.499s-71 56.5 -121 56.5c-19.333 0 -39.666 -3 -60.999 -9c-43.333 -12.667 -70.833 -26.834 -82.5 -42.501s-23.834 -54.5 -36.501 -116.5l-23 -123l-3 -18c-4 -25.333 -6 -48.666 -6 -69.999c0 -22.667 2 -44 6 -64
c2 -11.333 4.83301 -22.666 8.5 -33.999s7.83398 -22.666 12.501 -33.999c10.667 -23.333 26.5 -41.5 47.5 -54.5s45.5 -19.5 73.5 -19.5c26.667 0 54.667 7 84 21c41.333 22 75.333 62.333 102 121c30 65.333 45 141.666 45 228.999zM590.998 834
c0 -7.33301 -0.500977 -13.334 -1.50098 -18.001s-3.16699 -8 -6.5 -10c0 -5.33301 -13 -13 -39 -23s-45 -15 -57 -15c-8.66699 -0.666992 -20.334 -3.16699 -35.001 -7.5s-23 -6.5 -25 -6.5c-10.667 0 -18.334 9 -23.001 27s-11.667 27 -21 27c-6 0 -13 -2 -21 -6l-24 -12
c-6 -1.33301 -17.333 -6.16602 -34 -14.499s-26.667 -12.5 -30 -12.5c-5.33301 0 -8 2.33301 -8 7l3 23c4.66699 6 9.5 10.667 14.5 14s10.167 5 15.5 5c6.66699 6.66699 23 15.667 49 27s42 17 48 17c2 0.666992 4.33301 1.66699 7 3c4.66699 2 11 3 19 3
c16 0 26.167 -2.5 30.5 -7.5l13.5 -15.5l-3 -29c0 -5.33301 4 -8 12 -8c3.33301 0 9.33301 1.5 18 4.5s17.334 5.83301 26.001 8.5s19.334 7.5 32.001 14.5s22.334 10.5 29.001 10.5c7.33301 0 11 -2 11 -6z" />
    <glyph glyph-name="Odieresis" unicode="&#xd6;" horiz-adv-x="653" 
d="M661 343c-21.333 -108 -62.501 -192.166 -123.501 -252.499s-134.833 -90.5 -221.5 -90.5c-69.333 0 -124.333 16.667 -165 50s-61 79 -61 137c0 12 1 24.667 3 38c8 56.667 22.667 110 44 160l16 39c-7.33301 -6 -17 -9 -29 -9l-13 1c-7.33301 1.33301 -11 7 -11 17
c0 2 0.666992 5 2 9c6 12.667 14 23.334 24 32.001c18 16 31 31 39 45s16.333 36.333 25 67l3 12l13 50c5.33301 25.333 10.333 41.333 15 48s13.334 12 26.001 16c5.33301 2 10 2 14 0s6 -4.66699 6 -8v-11c0 -6.66699 -0.333008 -12.334 -1 -17.001s-2.66699 -11 -6 -19
l25 14c25.333 13.333 47.333 22.833 66 28.5s38.667 8.5 60 8.5c8 0 17.667 -0.5 29 -1.5s27 -2.83301 47 -5.5c60 -8 106.167 -31.833 138.5 -71.5s48.5 -95.5 48.5 -167.5c0 -36.667 -4.33301 -76.334 -13 -119.001zM562.999 423.001
c0 67.333 -15.334 119.832 -46.001 157.499s-71 56.5 -121 56.5c-19.333 0 -39.666 -3 -60.999 -9c-43.333 -12.667 -70.833 -26.834 -82.5 -42.501s-23.834 -54.5 -36.501 -116.5l-23 -123l-3 -18c-4 -25.333 -6 -48.666 -6 -69.999c0 -22.667 2 -44 6 -64
c2 -11.333 4.83301 -22.666 8.5 -33.999s7.83398 -22.666 12.501 -33.999c10.667 -23.333 26.5 -41.5 47.5 -54.5s45.5 -19.5 73.5 -19.5c26.667 0 54.667 7 84 21c41.333 22 75.333 62.333 102 121c30 65.333 45 141.666 45 228.999zM544.998 810
c0 -12.667 -3.66504 -21.002 -10.998 -25.002c-12.667 -7.33301 -21 -13.666 -25 -18.999c-2 2 -9.33301 3 -22 3l-17 -3c-10.667 6 -17.834 11.833 -21.501 17.5s-5.5 12.834 -5.5 21.501c0 3.33301 1.5 7.33301 4.5 12l10.5 16c4 6 10 11.333 18 16s14.333 7 19 7
c8 0 14.667 -1 20 -3c3.33301 -1.33301 8.33301 -4 15 -8c7.33301 0 11.666 -3 12.999 -9s2 -14.667 2 -26zM398 809.998c0 -12.667 -3.66504 -21.002 -10.998 -25.002c-12.667 -7.33301 -21 -13.666 -25 -18.999c-2 2 -9.33301 3 -22 3l-17 -3
c-10.667 6 -17.834 11.833 -21.501 17.5s-5.5 12.834 -5.5 21.501c0 3.33301 1.5 7.33301 4.5 12l10.5 16c4 6 10 11.333 18 16s14.333 7 19 7c8 0 14.667 -1 20 -3c3.33301 -1.33301 8.33301 -4 15 -8c7.33301 0 11.666 -3 12.999 -9s2 -14.667 2 -26z" />
    <glyph glyph-name=".null" unicode="&#xd7;" 
 />
    <glyph glyph-name=".null" unicode="&#x141;" 
 />
    <glyph glyph-name=".null" unicode="&#xfd;" 
 />
    <glyph glyph-name="Oslash" unicode="&#xd8;" horiz-adv-x="653" 
d="M661 343c-21.333 -108 -62.502 -192.167 -123.502 -252.5s-134.833 -90.5 -221.5 -90.5c-22 0 -42.167 1 -60.5 3s-34.833 6 -49.5 12l-8 -12c-14 -20.667 -30.667 -31 -50 -31c-8.66699 0 -17 3.33301 -25 10c-3.33301 3.33301 -3.33301 9.66602 0 18.999s12 25 26 47
c-39.333 34 -59 80.667 -59 140c0 11.333 1 23.666 3 36.999c8 56.667 22.667 110 44 160l16 39c-7.33301 -6 -17 -9 -29 -9l-13 1c-7.33301 1.33301 -11 7 -11 17c0 2 0.666992 5 2 9c6 12.667 14 23.334 24 32.001c18 16 31 31 39 45s16.333 36.333 25 67l3 12l13 50
c5.33301 25.333 10.333 41.333 15 48s13.334 12 26.001 16c5.33301 2 10 2 14 0s6 -4.66699 6 -8v-11c0 -6.66699 -0.333008 -12.334 -1 -17.001s-2.66699 -11 -6 -19l25 14c25.333 13.333 47.333 22.833 66 28.5s38.667 8.5 60 8.5c8 0 17.667 -0.5 29 -1.5
s27 -2.83301 47 -5.5l20 -4c0.666992 1.33301 4.66699 5 12 11c10.667 8.66699 20.334 16 29.001 22c8 7.33301 17.667 12 29 14c5.33301 2 10 3 14 3c14 0 21.667 -5.66699 23 -17c0 -6.66699 -1.83301 -14.167 -5.5 -22.5s-11.5 -22.166 -23.5 -41.499
c59.333 -39.333 89 -107 89 -203c0 -18 -1 -36.667 -3 -56s-5.33301 -40.666 -10 -63.999zM468.998 620c-20.667 11.333 -45.333 17 -74 17c-18.667 0 -38.667 -3 -60 -9c-43.333 -12.667 -70.833 -26.834 -82.5 -42.501s-23.834 -54.5 -36.501 -116.5l-23 -123l-3 -18
c-4 -25.333 -6 -48.666 -6 -69.999c0 -22.667 1.83301 -43.5 5.5 -62.5s8.83398 -37.5 15.501 -55.5l68 127l82 148zM562.999 423c0 32 -3.33301 60.1689 -10 84.502s-16.667 46.166 -30 65.499l-2 -2l-91 -159l-91 -154l-58 -100c-8 -14 -14.667 -26.667 -20 -38l-18 -37
c24 -20.667 53.667 -31 89 -31c26.667 0 54.667 7 84 21c41.333 22 75.333 62.333 102 121c30 65.333 45 141.666 45 228.999z" />
    <glyph glyph-name="Ugrave" unicode="&#xd9;" horiz-adv-x="575" 
d="M597 714c0 -64.667 -4.66992 -137.834 -14.0029 -219.501s-25.666 -188.834 -48.999 -321.501l-16 -135l17 2c6.66699 0 12.834 -1 18.501 -3s7.5 -8.33301 5.5 -19c-1.33301 -7.33301 -7.16602 -13.5 -17.499 -18.5s-25.833 -7.5 -46.5 -7.5h-14
c-4.66699 0.666992 -8 1 -10 1c-9.33301 2 -16.5 9 -21.5 21s-7.5 33.667 -7.5 65v8c-28 -31.333 -67 -59 -117 -83c-10.667 -4.66699 -21 -8.16699 -31 -10.5s-20.667 -3.5 -32 -3.5c-42 0 -76 17.333 -102 52c-28 37.333 -42 90 -42 158c0 94.667 2 163.334 6 206.001
s11.667 94 23 154l26 122h23c22.667 -4.66699 38.167 -10.5 46.5 -17.5s12.5 -19.833 12.5 -38.5c0 -19.333 -4.5 -46.833 -13.5 -82.5s-15.833 -64.167 -20.5 -85.5c-1.33301 -5.33301 -3 -12.833 -5 -22.5s-4 -20.5 -6 -32.5c-8 -67.333 -12 -121 -12 -161
c0 -29.333 1.33301 -52.666 4 -69.999s6.66699 -33 12 -47c18 -42.667 47.333 -64 88 -64c16 0 32.667 4.66699 50 14c32 18 59.667 57 83 117c28 72.667 51.667 179 71 319l6 56c0 63.333 2.83301 103 8.5 119s19.167 28 40.5 36c7.33301 2 13 3 17 3
c12.667 0 19 -3.66699 19 -11zM465.997 723c0 -7.33301 -2.66797 -13 -8.00098 -17c-7.33301 -3.33301 -12 -5.33301 -14 -6l-80 27l-31 16c-4 0.666992 -11 4 -21 10c-25.333 15.333 -44.666 25.333 -57.999 30c-4 10.667 -10 20.667 -18 30c0 16 0.666992 24.667 2 26
c5.33301 6.66699 11.333 11.167 18 13.5s15 3.5 25 3.5c4.66699 -8.66699 14 -20.667 28 -36s34 -32 60 -50c13.333 -8.66699 26 -15.667 38 -21c32 -13.333 51.667 -22 59 -26z" />
    <glyph glyph-name="Uacute" unicode="&#xda;" horiz-adv-x="575" 
d="M597 714c0 -64.667 -4.66992 -137.834 -14.0029 -219.501s-25.666 -188.834 -48.999 -321.501l-16 -135l17 2c6.66699 0 12.834 -1 18.501 -3s7.5 -8.33301 5.5 -19c-1.33301 -7.33301 -7.16602 -13.5 -17.499 -18.5s-25.833 -7.5 -46.5 -7.5h-14
c-4.66699 0.666992 -8 1 -10 1c-9.33301 2 -16.5 9 -21.5 21s-7.5 33.667 -7.5 65v8c-28 -31.333 -67 -59 -117 -83c-10.667 -4.66699 -21 -8.16699 -31 -10.5s-20.667 -3.5 -32 -3.5c-42 0 -76 17.333 -102 52c-28 37.333 -42 90 -42 158c0 94.667 2 163.334 6 206.001
s11.667 94 23 154l26 122h23c22.667 -4.66699 38.167 -10.5 46.5 -17.5s12.5 -19.833 12.5 -38.5c0 -19.333 -4.5 -46.833 -13.5 -82.5s-15.833 -64.167 -20.5 -85.5c-1.33301 -5.33301 -3 -12.833 -5 -22.5s-4 -20.5 -6 -32.5c-8 -67.333 -12 -121 -12 -161
c0 -29.333 1.33301 -52.666 4 -69.999s6.66699 -33 12 -47c18 -42.667 47.333 -64 88 -64c16 0 32.667 4.66699 50 14c32 18 59.667 57 83 117c28 72.667 51.667 179 71 319l6 56c0 63.333 2.83301 103 8.5 119s19.167 28 40.5 36c7.33301 2 13 3 17 3
c12.667 0 19 -3.66699 19 -11zM503.997 813c-4 -4.66699 -7.33496 -9.16602 -10.002 -13.499s-5.33398 -9.83301 -8.00098 -16.5c-13.333 -4.66699 -32.333 -14.334 -57 -29.001c-11.333 -6.66699 -18.666 -10.334 -21.999 -11.001
c-2.66699 -0.666992 -7.66699 -3.16699 -15 -7.5s-12.666 -7.16602 -15.999 -8.49902c-8 -4.66699 -24.667 -10.667 -50 -18c-10 -3.33301 -20 -6.33301 -30 -9l-9 3c-8.66699 4 -13 10.667 -13 20c6 4 25.667 12.667 59 26c12.667 5.33301 25.334 12.333 38.001 21
c26 18 46 34.667 60 50l28 36c9.33301 0 17.5 -1.16699 24.5 -3.5s13.167 -6.83301 18.5 -13.5c1.33301 -1.33301 2 -10 2 -26z" />
    <glyph glyph-name="Ucircumflex" unicode="&#xdb;" horiz-adv-x="575" 
d="M597 714c0 -64.667 -4.66992 -137.834 -14.0029 -219.501s-25.666 -188.834 -48.999 -321.501l-16 -135l17 2c6.66699 0 12.834 -1 18.501 -3s7.5 -8.33301 5.5 -19c-1.33301 -7.33301 -7.16602 -13.5 -17.499 -18.5s-25.833 -7.5 -46.5 -7.5h-14
c-4.66699 0.666992 -8 1 -10 1c-9.33301 2 -16.5 9 -21.5 21s-7.5 33.667 -7.5 65v8c-28 -31.333 -67 -59 -117 -83c-10.667 -4.66699 -21 -8.16699 -31 -10.5s-20.667 -3.5 -32 -3.5c-42 0 -76 17.333 -102 52c-28 37.333 -42 90 -42 158c0 94.667 2 163.334 6 206.001
s11.667 94 23 154l26 122h23c22.667 -4.66699 38.167 -10.5 46.5 -17.5s12.5 -19.833 12.5 -38.5c0 -19.333 -4.5 -46.833 -13.5 -82.5s-15.833 -64.167 -20.5 -85.5c-1.33301 -5.33301 -3 -12.833 -5 -22.5s-4 -20.5 -6 -32.5c-8 -67.333 -12 -121 -12 -161
c0 -29.333 1.33301 -52.666 4 -69.999s6.66699 -33 12 -47c18 -42.667 47.333 -64 88 -64c16 0 32.667 4.66699 50 14c32 18 59.667 57 83 117c28 72.667 51.667 179 71 319l6 56c0 63.333 2.83301 103 8.5 119s19.167 28 40.5 36c7.33301 2 13 3 17 3
c12.667 0 19 -3.66699 19 -11zM495.997 733c0 -6 -2.00293 -8.99805 -6.00293 -8.99805c-4.66699 0 -12.334 3 -23.001 9c-26.667 14.667 -47 23.334 -61 26.001l-21 13c-13.333 8 -23 12 -29 12c-3.33301 0 -9 -2.66699 -17 -8
c-21.333 -14.667 -34.5 -22.834 -39.5 -24.501s-11.833 -5.33398 -20.5 -11.001l-25 -16.5c-6.66699 0 -11.5 2.66699 -14.5 8s-4.5 10.333 -4.5 15c0 2 1.83301 5.66699 5.5 11s6.16699 9.33301 7.5 12c4.66699 4.66699 19.334 15 44.001 31c12 8 21.333 15.333 28 22
c7.33301 2 15.333 6 24 12s15.334 9 20.001 9c6.66699 0 21.334 -6.66699 44.001 -20c18 -10.667 33 -18.334 45 -23.001c5.33301 -2 10.333 -5 15 -9s9.83398 -7.83301 15.501 -11.5s9.16699 -8.5 10.5 -14.5s2 -17 2 -33z" />
    <glyph glyph-name="Udieresis" unicode="&#xdc;" horiz-adv-x="575" 
d="M597 714c0 -64.667 -4.66992 -137.834 -14.0029 -219.501s-25.666 -188.834 -48.999 -321.501l-16 -135l17 2c6.66699 0 12.834 -1 18.501 -3s7.5 -8.33301 5.5 -19c-1.33301 -7.33301 -7.16602 -13.5 -17.499 -18.5s-25.833 -7.5 -46.5 -7.5h-14
c-4.66699 0.666992 -8 1 -10 1c-9.33301 2 -16.5 9 -21.5 21s-7.5 33.667 -7.5 65v8c-28 -31.333 -67 -59 -117 -83c-10.667 -4.66699 -21 -8.16699 -31 -10.5s-20.667 -3.5 -32 -3.5c-42 0 -76 17.333 -102 52c-28 37.333 -42 90 -42 158c0 94.667 2 163.334 6 206.001
s11.667 94 23 154l26 122h23c22.667 -4.66699 38.167 -10.5 46.5 -17.5s12.5 -19.833 12.5 -38.5c0 -19.333 -4.5 -46.833 -13.5 -82.5s-15.833 -64.167 -20.5 -85.5c-1.33301 -5.33301 -3 -12.833 -5 -22.5s-4 -20.5 -6 -32.5c-8 -67.333 -12 -121 -12 -161
c0 -29.333 1.33301 -52.666 4 -69.999s6.66699 -33 12 -47c18 -42.667 47.333 -64 88 -64c16 0 32.667 4.66699 50 14c32 18 59.667 57 83 117c28 72.667 51.667 179 71 319l6 56c0 63.333 2.83301 103 8.5 119s19.167 28 40.5 36c7.33301 2 13 3 17 3
c12.667 0 19 -3.66699 19 -11zM487.997 744c0 -12.667 -3.66504 -21.002 -10.998 -25.002c-12.667 -7.33301 -21 -13.666 -25 -18.999c-2 2 -9.33301 3 -22 3l-17 -3c-10.667 6 -17.834 11.833 -21.501 17.5s-5.5 12.834 -5.5 21.501c0 3.33301 1.5 7.33301 4.5 12l10.5 16
c4 6 10 11.333 18 16s14.333 7 19 7c8 0 14.667 -1 20 -3c3.33301 -1.33301 8.33301 -4 15 -8c7.33301 0 11.666 -3 12.999 -9s2 -14.667 2 -26zM340.999 743.998c0 -12.667 -3.66504 -21.002 -10.998 -25.002c-12.667 -7.33301 -21 -13.666 -25 -18.999
c-2 2 -9.33301 3 -22 3l-17 -3c-10.667 6 -17.834 11.833 -21.501 17.5s-5.5 12.834 -5.5 21.501c0 3.33301 1.5 7.33301 4.5 12l10.5 16c4 6 10 11.333 18 16s14.333 7 19 7c8 0 14.667 -1 20 -3c3.33301 -1.33301 8.33301 -4 15 -8c7.33301 0 11.666 -3 12.999 -9
s2 -14.667 2 -26z" />
    <glyph glyph-name="germandbls" unicode="&#xdf;" horiz-adv-x="398" 
d="M399 596c0 -14.667 -1.66797 -28.0049 -5.00098 -40.0049l-33 -63c-19.333 -24 -48.333 -49.667 -87 -77c-0.666992 -3.33301 -2.66699 -7 -6 -11s-5 -8.33301 -5 -13c0 -14.667 7.66699 -28 23 -40l23 -18c10.667 -12 18.334 -22 23.001 -30
c9.33301 -14.667 14 -31 14 -49c0 -8 -0.833008 -17.333 -2.5 -28s-2.5 -17.667 -2.5 -21c-5.33301 -26 -21 -54.667 -47 -86c-23.333 -28 -38.666 -42 -45.999 -42c-5.33301 -8.66699 -20.666 -21.667 -45.999 -39c-28.667 -20 -50.334 -30 -65.001 -30
c-3.33301 0 -6.33301 0.333008 -9 1l-16 6c0 4 -4.66699 9 -14 15c-4.66699 3.33301 -7 6.33301 -7 9c0 4 7 9 21 15c36 16 57.667 28.667 65 38c26.667 32 43 55.333 49 70c10.667 25.333 16 54.333 16 87c0 19.333 -2 31.666 -6 36.999c-7.33301 10.667 -13 21.667 -17 33
c-16.667 14.667 -27.834 26.167 -33.501 34.5s-8.5 17.833 -8.5 28.5c0 15.333 6.66699 29.333 20 42l50 49c21.333 31.333 35 52 41 62c10 16 15 34 15 54c0 16 -1.83301 27 -5.5 33s-11.167 9 -22.5 9c-16.667 0 -34.334 -7.83301 -53.001 -23.5
s-31.334 -31.5 -38.001 -47.5c-12.667 -16 -22.5 -37.833 -29.5 -65.5s-14.833 -69.167 -23.5 -124.5c-6.66699 -9.33301 -14 -36.333 -22 -81c-2.66699 -16 -8.5 -53.667 -17.5 -113l-27.5 -181c0 -8.66699 -1.33301 -19.667 -4 -33c-6 -30.667 -9 -50.334 -9 -59.001
c0 -11.333 -2 -30.666 -6 -57.999c-6.66699 -42.667 -10 -65.667 -10 -69c-2.66699 -20.667 -6.83398 -34.667 -12.501 -42s-13.167 -11 -22.5 -11c-8.66699 0 -15 3.33301 -19 10s-7.33301 15.334 -10 26.001c0 24.667 2.66699 61.334 8 110.001s8 85.334 8 110.001
c2 6.66699 5 26.5 9 59.5s6 53.833 6 62.5c2 10 10.667 62.667 26 158c5.33301 32.667 8 50.334 8 53.001c0 16.667 3.33301 42 10 76c3.33301 17.333 5 31 5 41c0 3.33301 1.33301 9.33301 4 18c8 26 12 43.333 12 52l27 80c10.667 26 29.334 49 56.001 69
c16.667 14.667 29 25 37 31c14 10.667 29 17.334 45 20.001c2.66699 2.66699 7.33398 4.33398 14.001 5.00098s14.334 1 23.001 1c7.33301 0 15 -0.5 23 -1.5s12.333 -1.5 13 -1.5l22 -6c19.333 -5.33301 36 -17.333 50 -36c8.66699 -8 14.5 -16.333 17.5 -25
s4.5 -22 4.5 -40z" />
    <glyph glyph-name="agrave" unicode="&#xe0;" horiz-adv-x="518" 
d="M550 117c-2.66699 -9.33301 -8.33203 -19.0049 -16.999 -29.0049c-3.33301 -4 -14 -15.667 -32 -35c-7.33301 -7.33301 -17.333 -15.5 -30 -24.5s-26.334 -17.5 -41.001 -25.5s-29 -12 -43 -12c-32.667 0 -54.334 15 -65.001 45c-2 10 -3 23 -3 39v18l1 26l-5 -6l-23 -26
c-24 -27.333 -44.833 -48.166 -62.5 -62.499s-35.167 -25.5 -52.5 -33.5c-34 -13.333 -59 -20 -75 -20c-26.667 0 -47.5 6.5 -62.5 19.5s-21.167 29.167 -18.5 48.5c1.33301 8.66699 2.83301 15.834 4.5 21.501s3.83398 12.167 6.50098 19.5l11 28l-20 -17
c-2.66699 -2.66699 -7.33398 -4 -14.001 -4c-6 1.33301 -9.66699 5 -11 11c-2 5.33301 -1.66699 11.666 1 18.999s8.33398 15.333 17.001 24l31 30l13 13l45 41l14 15c35.333 30.667 69.666 55.5 102.999 74.5s62.833 33 88.5 42s46.5 13.5 62.5 13.5
c20 0 34.333 -6.33301 43 -19c4.66699 -7.33301 3.66699 -13 -3 -17c-12 -8 -23.667 -13 -35 -15s-28.333 -8 -51 -18c-18.667 -8 -44.667 -23 -78 -45c-22.667 -16 -39.667 -28.667 -51 -38s-22.666 -20 -33.999 -32c-28.667 -33.333 -47 -61.666 -55 -84.999
c-1.33301 -5.33301 -2 -9.66602 -2 -12.999c0 -18 9 -28 27 -30c10.667 0 21.334 2.5 32.001 7.5s26.334 15.5 47.001 31.5l24.5 21.5c6.33301 5.66699 13.166 12.834 20.499 21.501l21 24c32.667 43.333 52 68.333 58 75c19.333 23.333 36 35 50 35
c4.66699 0 8.66699 -0.333008 12 -1c23.333 -3.33301 35 -17 35 -41c0 -4 -0.333008 -7.33301 -1 -10c-4 -20 -10.667 -40.333 -20 -61l-9 -28c-4 -23.333 -6 -39.666 -6 -48.999s2 -18 6 -26s11.333 -10.667 22 -8c8 4 15.167 8.5 21.5 13.5s16.5 14.167 30.5 27.5l13 11
c13.333 16.667 22.666 27.167 27.999 31.5s10.666 5.83301 15.999 4.5c4 -0.666992 7.83301 -2.66699 11.5 -6s4.83398 -8.33301 3.50098 -15zM481.002 458.995c0 -7.33301 -2.66797 -13 -8.00098 -17c-7.33301 -3.33301 -12 -5.33301 -14 -6l-80 27l-31 16
c-4 0.666992 -11 4 -21 10c-25.333 15.333 -44.666 25.333 -57.999 30c-4 10.667 -10 20.667 -18 30c0 16 0.666992 24.667 2 26c5.33301 6.66699 11.333 11.167 18 13.5s15 3.5 25 3.5c4.66699 -8.66699 14 -20.667 28 -36s34 -32 60 -50
c13.333 -8.66699 26 -15.667 38 -21c32 -13.333 51.667 -22 59 -26z" />
    <glyph glyph-name="aacute" unicode="&#xe1;" horiz-adv-x="518" 
d="M550 117c-2.66699 -9.33301 -8.33203 -19.0049 -16.999 -29.0049c-3.33301 -4 -14 -15.667 -32 -35c-7.33301 -7.33301 -17.333 -15.5 -30 -24.5s-26.334 -17.5 -41.001 -25.5s-29 -12 -43 -12c-32.667 0 -54.334 15 -65.001 45c-2 10 -3 23 -3 39v18l1 26l-5 -6l-23 -26
c-24 -27.333 -44.833 -48.166 -62.5 -62.499s-35.167 -25.5 -52.5 -33.5c-34 -13.333 -59 -20 -75 -20c-26.667 0 -47.5 6.5 -62.5 19.5s-21.167 29.167 -18.5 48.5c1.33301 8.66699 2.83301 15.834 4.5 21.501s3.83398 12.167 6.50098 19.5l11 28l-20 -17
c-2.66699 -2.66699 -7.33398 -4 -14.001 -4c-6 1.33301 -9.66699 5 -11 11c-2 5.33301 -1.66699 11.666 1 18.999s8.33398 15.333 17.001 24l31 30l13 13l45 41l14 15c35.333 30.667 69.666 55.5 102.999 74.5s62.833 33 88.5 42s46.5 13.5 62.5 13.5
c20 0 34.333 -6.33301 43 -19c4.66699 -7.33301 3.66699 -13 -3 -17c-12 -8 -23.667 -13 -35 -15s-28.333 -8 -51 -18c-18.667 -8 -44.667 -23 -78 -45c-22.667 -16 -39.667 -28.667 -51 -38s-22.666 -20 -33.999 -32c-28.667 -33.333 -47 -61.666 -55 -84.999
c-1.33301 -5.33301 -2 -9.66602 -2 -12.999c0 -18 9 -28 27 -30c10.667 0 21.334 2.5 32.001 7.5s26.334 15.5 47.001 31.5l24.5 21.5c6.33301 5.66699 13.166 12.834 20.499 21.501l21 24c32.667 43.333 52 68.333 58 75c19.333 23.333 36 35 50 35
c4.66699 0 8.66699 -0.333008 12 -1c23.333 -3.33301 35 -17 35 -41c0 -4 -0.333008 -7.33301 -1 -10c-4 -20 -10.667 -40.333 -20 -61l-9 -28c-4 -23.333 -6 -39.666 -6 -48.999s2 -18 6 -26s11.333 -10.667 22 -8c8 4 15.167 8.5 21.5 13.5s16.5 14.167 30.5 27.5l13 11
c13.333 16.667 22.666 27.167 27.999 31.5s10.666 5.83301 15.999 4.5c4 -0.666992 7.83301 -2.66699 11.5 -6s4.83398 -8.33301 3.50098 -15zM486.002 548.995c-4 -4.66699 -7.33496 -9.16602 -10.002 -13.499s-5.33398 -9.83301 -8.00098 -16.5
c-13.333 -4.66699 -32.333 -14.334 -57 -29.001c-11.333 -6.66699 -18.666 -10.334 -21.999 -11.001c-2.66699 -0.666992 -7.66699 -3.16699 -15 -7.5s-12.666 -7.16602 -15.999 -8.49902c-8 -4.66699 -24.667 -10.667 -50 -18c-10 -3.33301 -20 -6.33301 -30 -9l-9 3
c-8.66699 4 -13 10.667 -13 20c6 4 25.667 12.667 59 26c12.667 5.33301 25.334 12.333 38.001 21c26 18 46 34.667 60 50l28 36c9.33301 0 17.5 -1.16699 24.5 -3.5s13.167 -6.83301 18.5 -13.5c1.33301 -1.33301 2 -10 2 -26z" />
    <glyph glyph-name="acircumflex" unicode="&#xe2;" horiz-adv-x="518" 
d="M550 117c-2.66699 -9.33301 -8.33203 -19.0049 -16.999 -29.0049c-3.33301 -4 -14 -15.667 -32 -35c-7.33301 -7.33301 -17.333 -15.5 -30 -24.5s-26.334 -17.5 -41.001 -25.5s-29 -12 -43 -12c-32.667 0 -54.334 15 -65.001 45c-2 10 -3 23 -3 39v18l1 26l-5 -6l-23 -26
c-24 -27.333 -44.833 -48.166 -62.5 -62.499s-35.167 -25.5 -52.5 -33.5c-34 -13.333 -59 -20 -75 -20c-26.667 0 -47.5 6.5 -62.5 19.5s-21.167 29.167 -18.5 48.5c1.33301 8.66699 2.83301 15.834 4.5 21.501s3.83398 12.167 6.50098 19.5l11 28l-20 -17
c-2.66699 -2.66699 -7.33398 -4 -14.001 -4c-6 1.33301 -9.66699 5 -11 11c-2 5.33301 -1.66699 11.666 1 18.999s8.33398 15.333 17.001 24l31 30l13 13l45 41l14 15c35.333 30.667 69.666 55.5 102.999 74.5s62.833 33 88.5 42s46.5 13.5 62.5 13.5
c20 0 34.333 -6.33301 43 -19c4.66699 -7.33301 3.66699 -13 -3 -17c-12 -8 -23.667 -13 -35 -15s-28.333 -8 -51 -18c-18.667 -8 -44.667 -23 -78 -45c-22.667 -16 -39.667 -28.667 -51 -38s-22.666 -20 -33.999 -32c-28.667 -33.333 -47 -61.666 -55 -84.999
c-1.33301 -5.33301 -2 -9.66602 -2 -12.999c0 -18 9 -28 27 -30c10.667 0 21.334 2.5 32.001 7.5s26.334 15.5 47.001 31.5l24.5 21.5c6.33301 5.66699 13.166 12.834 20.499 21.501l21 24c32.667 43.333 52 68.333 58 75c19.333 23.333 36 35 50 35
c4.66699 0 8.66699 -0.333008 12 -1c23.333 -3.33301 35 -17 35 -41c0 -4 -0.333008 -7.33301 -1 -10c-4 -20 -10.667 -40.333 -20 -61l-9 -28c-4 -23.333 -6 -39.666 -6 -48.999s2 -18 6 -26s11.333 -10.667 22 -8c8 4 15.167 8.5 21.5 13.5s16.5 14.167 30.5 27.5l13 11
c13.333 16.667 22.666 27.167 27.999 31.5s10.666 5.83301 15.999 4.5c4 -0.666992 7.83301 -2.66699 11.5 -6s4.83398 -8.33301 3.50098 -15zM511.002 447.995c0 -6 -2.00293 -8.99805 -6.00293 -8.99805c-4.66699 0 -12.334 3 -23.001 9
c-26.667 14.667 -47 23.334 -61 26.001l-21 13c-13.333 8 -23 12 -29 12c-3.33301 0 -9 -2.66699 -17 -8c-21.333 -14.667 -34.5 -22.834 -39.5 -24.501s-11.833 -5.33398 -20.5 -11.001l-25 -16.5c-6.66699 0 -11.5 2.66699 -14.5 8s-4.5 10.333 -4.5 15
c0 2 1.83301 5.66699 5.5 11s6.16699 9.33301 7.5 12c4.66699 4.66699 19.334 15 44.001 31c12 8 21.333 15.333 28 22c7.33301 2 15.333 6 24 12s15.334 9 20.001 9c6.66699 0 21.334 -6.66699 44.001 -20c18 -10.667 33 -18.334 45 -23.001c5.33301 -2 10.333 -5 15 -9
s9.83398 -7.83301 15.501 -11.5s9.16699 -8.5 10.5 -14.5s2 -17 2 -33z" />
    <glyph glyph-name="atilde" unicode="&#xe3;" horiz-adv-x="518" 
d="M550 117c-2.66699 -9.33301 -8.33203 -19.0049 -16.999 -29.0049c-3.33301 -4 -14 -15.667 -32 -35c-7.33301 -7.33301 -17.333 -15.5 -30 -24.5s-26.334 -17.5 -41.001 -25.5s-29 -12 -43 -12c-32.667 0 -54.334 15 -65.001 45c-2 10 -3 23 -3 39v18l1 26l-5 -6l-23 -26
c-24 -27.333 -44.833 -48.166 -62.5 -62.499s-35.167 -25.5 -52.5 -33.5c-34 -13.333 -59 -20 -75 -20c-26.667 0 -47.5 6.5 -62.5 19.5s-21.167 29.167 -18.5 48.5c1.33301 8.66699 2.83301 15.834 4.5 21.501s3.83398 12.167 6.50098 19.5l11 28l-20 -17
c-2.66699 -2.66699 -7.33398 -4 -14.001 -4c-6 1.33301 -9.66699 5 -11 11c-2 5.33301 -1.66699 11.666 1 18.999s8.33398 15.333 17.001 24l31 30l13 13l45 41l14 15c35.333 30.667 69.666 55.5 102.999 74.5s62.833 33 88.5 42s46.5 13.5 62.5 13.5
c20 0 34.333 -6.33301 43 -19c4.66699 -7.33301 3.66699 -13 -3 -17c-12 -8 -23.667 -13 -35 -15s-28.333 -8 -51 -18c-18.667 -8 -44.667 -23 -78 -45c-22.667 -16 -39.667 -28.667 -51 -38s-22.666 -20 -33.999 -32c-28.667 -33.333 -47 -61.666 -55 -84.999
c-1.33301 -5.33301 -2 -9.66602 -2 -12.999c0 -18 9 -28 27 -30c10.667 0 21.334 2.5 32.001 7.5s26.334 15.5 47.001 31.5l24.5 21.5c6.33301 5.66699 13.166 12.834 20.499 21.501l21 24c32.667 43.333 52 68.333 58 75c19.333 23.333 36 35 50 35
c4.66699 0 8.66699 -0.333008 12 -1c23.333 -3.33301 35 -17 35 -41c0 -4 -0.333008 -7.33301 -1 -10c-4 -20 -10.667 -40.333 -20 -61l-9 -28c-4 -23.333 -6 -39.666 -6 -48.999s2 -18 6 -26s11.333 -10.667 22 -8c8 4 15.167 8.5 21.5 13.5s16.5 14.167 30.5 27.5l13 11
c13.333 16.667 22.666 27.167 27.999 31.5s10.666 5.83301 15.999 4.5c4 -0.666992 7.83301 -2.66699 11.5 -6s4.83398 -8.33301 3.50098 -15zM498.002 524.995c0 -7.33301 -0.500977 -13.334 -1.50098 -18.001s-3.16699 -8 -6.5 -10c0 -5.33301 -13 -13 -39 -23
s-45 -15 -57 -15c-8.66699 -0.666992 -20.334 -3.16699 -35.001 -7.5s-23 -6.5 -25 -6.5c-10.667 0 -18.334 9 -23.001 27s-11.667 27 -21 27c-6 0 -13 -2 -21 -6l-24 -12c-6 -1.33301 -17.333 -6.16602 -34 -14.499s-26.667 -12.5 -30 -12.5c-5.33301 0 -8 2.33301 -8 7
l3 23c4.66699 6 9.5 10.667 14.5 14s10.167 5 15.5 5c6.66699 6.66699 23 15.667 49 27s42 17 48 17c2 0.666992 4.33301 1.66699 7 3c4.66699 2 11 3 19 3c16 0 26.167 -2.5 30.5 -7.5l13.5 -15.5l-3 -29c0 -5.33301 4 -8 12 -8c3.33301 0 9.33301 1.5 18 4.5
s17.334 5.83301 26.001 8.5s19.334 7.5 32.001 14.5s22.334 10.5 29.001 10.5c7.33301 0 11 -2 11 -6z" />
    <glyph glyph-name="adieresis" unicode="&#xe4;" horiz-adv-x="518" 
d="M550 117c-2.66699 -9.33301 -8.33203 -19.0049 -16.999 -29.0049c-3.33301 -4 -14 -15.667 -32 -35c-7.33301 -7.33301 -17.333 -15.5 -30 -24.5s-26.334 -17.5 -41.001 -25.5s-29 -12 -43 -12c-32.667 0 -54.334 15 -65.001 45c-2 10 -3 23 -3 39v18l1 26l-5 -6l-23 -26
c-24 -27.333 -44.833 -48.166 -62.5 -62.499s-35.167 -25.5 -52.5 -33.5c-34 -13.333 -59 -20 -75 -20c-26.667 0 -47.5 6.5 -62.5 19.5s-21.167 29.167 -18.5 48.5c1.33301 8.66699 2.83301 15.834 4.5 21.501s3.83398 12.167 6.50098 19.5l11 28l-20 -17
c-2.66699 -2.66699 -7.33398 -4 -14.001 -4c-6 1.33301 -9.66699 5 -11 11c-2 5.33301 -1.66699 11.666 1 18.999s8.33398 15.333 17.001 24l31 30l13 13l45 41l14 15c35.333 30.667 69.666 55.5 102.999 74.5s62.833 33 88.5 42s46.5 13.5 62.5 13.5
c20 0 34.333 -6.33301 43 -19c4.66699 -7.33301 3.66699 -13 -3 -17c-12 -8 -23.667 -13 -35 -15s-28.333 -8 -51 -18c-18.667 -8 -44.667 -23 -78 -45c-22.667 -16 -39.667 -28.667 -51 -38s-22.666 -20 -33.999 -32c-28.667 -33.333 -47 -61.666 -55 -84.999
c-1.33301 -5.33301 -2 -9.66602 -2 -12.999c0 -18 9 -28 27 -30c10.667 0 21.334 2.5 32.001 7.5s26.334 15.5 47.001 31.5l24.5 21.5c6.33301 5.66699 13.166 12.834 20.499 21.501l21 24c32.667 43.333 52 68.333 58 75c19.333 23.333 36 35 50 35
c4.66699 0 8.66699 -0.333008 12 -1c23.333 -3.33301 35 -17 35 -41c0 -4 -0.333008 -7.33301 -1 -10c-4 -20 -10.667 -40.333 -20 -61l-9 -28c-4 -23.333 -6 -39.666 -6 -48.999s2 -18 6 -26s11.333 -10.667 22 -8c8 4 15.167 8.5 21.5 13.5s16.5 14.167 30.5 27.5l13 11
c13.333 16.667 22.666 27.167 27.999 31.5s10.666 5.83301 15.999 4.5c4 -0.666992 7.83301 -2.66699 11.5 -6s4.83398 -8.33301 3.50098 -15zM503.002 491.995c0 -12.667 -3.66504 -21.002 -10.998 -25.002c-12.667 -7.33301 -21 -13.666 -25 -18.999
c-2 2 -9.33301 3 -22 3l-17 -3c-10.667 6 -17.834 11.833 -21.501 17.5s-5.5 12.834 -5.5 21.501c0 3.33301 1.5 7.33301 4.5 12l10.5 16c4 6 10 11.333 18 16s14.333 7 19 7c8 0 14.667 -1 20 -3c3.33301 -1.33301 8.33301 -4 15 -8c7.33301 0 11.666 -3 12.999 -9
s2 -14.667 2 -26zM356.004 491.993c0 -12.667 -3.66504 -21.002 -10.998 -25.002c-12.667 -7.33301 -21 -13.666 -25 -18.999c-2 2 -9.33301 3 -22 3l-17 -3c-10.667 6 -17.834 11.833 -21.501 17.5s-5.5 12.834 -5.5 21.501c0 3.33301 1.5 7.33301 4.5 12l10.5 16
c4 6 10 11.333 18 16s14.333 7 19 7c8 0 14.667 -1 20 -3c3.33301 -1.33301 8.33301 -4 15 -8c7.33301 0 11.666 -3 12.999 -9s2 -14.667 2 -26z" />
    <glyph glyph-name="aring" unicode="&#xe5;" horiz-adv-x="518" 
d="M550 117c-2.66699 -9.33301 -8.33203 -19.0049 -16.999 -29.0049c-3.33301 -4 -14 -15.667 -32 -35c-7.33301 -7.33301 -17.333 -15.5 -30 -24.5s-26.334 -17.5 -41.001 -25.5s-29 -12 -43 -12c-32.667 0 -54.334 15 -65.001 45c-2 10 -3 23 -3 39v18l1 26l-5 -6l-23 -26
c-24 -27.333 -44.833 -48.166 -62.5 -62.499s-35.167 -25.5 -52.5 -33.5c-34 -13.333 -59 -20 -75 -20c-26.667 0 -47.5 6.5 -62.5 19.5s-21.167 29.167 -18.5 48.5c1.33301 8.66699 2.83301 15.834 4.5 21.501s3.83398 12.167 6.50098 19.5l11 28l-20 -17
c-2.66699 -2.66699 -7.33398 -4 -14.001 -4c-6 1.33301 -9.66699 5 -11 11c-2 5.33301 -1.66699 11.666 1 18.999s8.33398 15.333 17.001 24l31 30l13 13l45 41l14 15c35.333 30.667 69.666 55.5 102.999 74.5s62.833 33 88.5 42s46.5 13.5 62.5 13.5
c20 0 34.333 -6.33301 43 -19c4.66699 -7.33301 3.66699 -13 -3 -17c-12 -8 -23.667 -13 -35 -15s-28.333 -8 -51 -18c-18.667 -8 -44.667 -23 -78 -45c-22.667 -16 -39.667 -28.667 -51 -38s-22.666 -20 -33.999 -32c-28.667 -33.333 -47 -61.666 -55 -84.999
c-1.33301 -5.33301 -2 -9.66602 -2 -12.999c0 -18 9 -28 27 -30c10.667 0 21.334 2.5 32.001 7.5s26.334 15.5 47.001 31.5l24.5 21.5c6.33301 5.66699 13.166 12.834 20.499 21.501l21 24c32.667 43.333 52 68.333 58 75c19.333 23.333 36 35 50 35
c4.66699 0 8.66699 -0.333008 12 -1c23.333 -3.33301 35 -17 35 -41c0 -4 -0.333008 -7.33301 -1 -10c-4 -20 -10.667 -40.333 -20 -61l-9 -28c-4 -23.333 -6 -39.666 -6 -48.999s2 -18 6 -26s11.333 -10.667 22 -8c8 4 15.167 8.5 21.5 13.5s16.5 14.167 30.5 27.5l13 11
c13.333 16.667 22.666 27.167 27.999 31.5s10.666 5.83301 15.999 4.5c4 -0.666992 7.83301 -2.66699 11.5 -6s4.83398 -8.33301 3.50098 -15zM436.002 520.995c0 -6.66699 -1.5 -13.001 -4.5 -19.001s-4.5 -12 -4.5 -18c0 -8.66699 -4.33301 -18 -13 -28
c-5.33301 -6.66699 -11 -10.667 -17 -12c-11.333 -5.33301 -21.333 -9.33301 -30 -12s-16.334 -4 -23.001 -4s-12.334 1 -17.001 3c-11.333 5.33301 -17.666 8 -18.999 8c-9.33301 2.66699 -17.833 7.33398 -25.5 14.001s-11.5 14.667 -11.5 24c0 10 2.66699 20.333 8 31
c2.66699 5.33301 5.33398 8.66602 8.00098 9.99902c24 37.333 52.333 56 85 56c10.667 0 19.5 -1.33301 26.5 -4s17.833 -10 32.5 -22c3.33301 -9.33301 5 -14.666 5 -15.999v-11zM394.002 511.994c0 8.66699 -2.16602 14.167 -6.49902 16.5s-11.5 3.5 -21.5 3.5
c-14 0 -26.333 -5 -37 -15s-16 -22 -16 -36c3.33301 -7.33301 11.666 -11 24.999 -11c6 0 14.833 1.16699 26.5 3.5s19.5 6.5 23.5 12.5s6 14.667 6 26z" />
    </font>
</defs>
</svg>
