<?xml version="1.0" standalone="no"?>
<!DOCTYPE svg PUBLIC "-//W3C//DTD SVG 1.1//EN" "http://www.w3.org/Graphics/SVG/1.1/DTD/svg11.dtd" >
<svg>
<metadata>
Created by FontForge 20110222 at Mon Mar  7 04:12:11 2011
 By www-data
(c)1992 by James M. Harris. All rights reserved. $15 shareware.
</metadata>
<defs>
<font id="BelleroseLight" horiz-adv-x="115" >
  <font-face 
    font-family="Bellerose"
    font-weight="400"
    font-stretch="normal"
    units-per-em="950"
    panose-1="0 0 0 0 0 0 0 0 0 0"
    ascent="760"
    descent="-190"
    x-height="409"
    cap-height="680"
    bbox="-193 -279 722 878"
    underline-thickness="0"
    underline-position="0"
    unicode-range="U+0020-2026"
  />
    <missing-glyph />
    <glyph glyph-name="exclam" unicode="!" 
d="M30 56h56v-56h-56v56zM30 680h55v-567h-55v567z" />
    <glyph glyph-name="dollar" unicode="$" horiz-adv-x="424" 
d="M226 46q56 6 92 47t36 97q0 53 -30 90.5t-77 49.5l-21 5v-289zM198 45v298l-29 7q-57 15 -92.5 61.5t-35.5 105.5q0 67 45.5 116.5t111.5 55.5v59h28v-58q42 -3 79.5 -27t58.5 -59l-48 -27q-29 52 -90 57v-242l35 -9q65 -17 106.5 -71t41.5 -122q0 -77 -52.5 -134
t-130.5 -65v-99h-28v98q-67 5 -117.5 47.5t-65.5 105.5l52 15q10 -46 46 -77t85 -36zM198 399v235q-44 -6 -73 -40t-29 -77q0 -41 25 -73t62 -41z" />
    <glyph glyph-name="ampersand" unicode="&#x26;" horiz-adv-x="555" 
d="M400 95l-186 298q-61 -24 -95 -71.5t-34 -101.5q0 -77 53 -127.5t125 -50.5t137 53zM430 49q-75 -62 -167 -62q-65 0 -117.5 31.5t-84 84t-31.5 117.5q0 72 41.5 132t113.5 88l-24 38q-19 29 -19 64q0 48 35 84t85 36t85 -35t35 -85q0 -38 -20 -67.5t-55 -43.5l-41 -17
l174 -278q29 37 45 75l34 -45q-18 -43 -49 -79l55 -87h-65zM237 462l50 20q40 18 40 60q0 26 -18 45.5t-47 19.5q-25 0 -45 -18t-20 -47q0 -19 10 -33z" />
    <glyph glyph-name="parenleft" unicode="(" horiz-adv-x="160" 
d="M161 721q-91 -211 -91 -410q0 -83 25 -178.5t64 -160.5l-33 -22q-25 37 -47.5 96.5t-35.5 127.5t-13 137q0 99 27.5 209t75.5 215z" />
    <glyph glyph-name="parenright" unicode=")" horiz-adv-x="152" 
d="M1 721l28 14q47 -98 75 -208.5t28 -215.5q0 -102 -28 -201.5t-68 -159.5l-33 22q25 41 44.5 97.5t32 120t12.5 121.5q0 199 -91 410z" />
    <glyph glyph-name="comma" unicode="," 
d="M85 -52l-31 52h-24v55h55v-107z" />
    <glyph glyph-name="hyphen" unicode="-" horiz-adv-x="247" 
d="M217 235v-55h-187v55h187z" />
    <glyph glyph-name="period" unicode="." 
d="M30 55h55v-55h-55v55z" />
    <glyph glyph-name="slash" unicode="/" horiz-adv-x="382" 
d="M382 694l-339 -707h-43l339 707h43z" />
    <glyph glyph-name="zero" unicode="0" horiz-adv-x="737" 
d="M368 694q97 0 178 -47.5t128.5 -128t47.5 -177.5t-47.5 -178t-128.5 -128.5t-178 -47.5t-177.5 47.5t-128 128.5t-47.5 178q0 71 27 136t76.5 114.5t114 76t135.5 26.5zM368 639q-80 0 -149 -39.5t-109 -109.5t-40 -149q0 -81 40 -150t109 -109t149 -40q81 0 150 40
t109 109t40 150q0 79 -40 149t-109 109.5t-150 39.5z" />
    <glyph glyph-name="one" unicode="1" 
d="M30 0v680h55v-680h-55z" />
    <glyph glyph-name="two" unicode="2" horiz-adv-x="374" 
d="M125 55h220v-55h-315l258 446q16 30 16 60q0 52 -36 85.5t-83 33.5q-36 0 -63 -17.5t-43 -47.5l-48 26q24 45 63.5 69.5t90.5 24.5q74 0 124 -50t50 -124q0 -46 -22 -85z" />
    <glyph glyph-name="three" unicode="3" horiz-adv-x="432" 
d="M224 424q82 -9 137.5 -70.5t55.5 -144.5q0 -88 -63 -152t-153 -64q-56 0 -106 29t-80 77l47 28q13 -23 34 -41t49.5 -28t55.5 -10q67 0 114 47t47 114t-47 114t-114 47q-44 0 -80 -21l152 276h-229v55h321z" />
    <glyph glyph-name="four" unicode="4" horiz-adv-x="470" 
d="M300 517l-236 -311h236v311zM300 151h-260l-40 62l355 467v-474h100v-55h-100v-151h-55v151z" />
    <glyph glyph-name="five" unicode="5" horiz-adv-x="431" 
d="M15 90l43 33q49 -75 139 -75q72 0 118 50t46 114q0 72 -49 118t-115 46q-80 0 -128 -60l-43 25v339h315v-55h-260v-227q53 33 116 33q91 0 155 -64t64 -155t-65 -155t-154 -64q-56 0 -103.5 26t-78.5 71z" />
    <glyph glyph-name="six" unicode="6" horiz-adv-x="420" 
d="M210 328q-38 0 -70 -19t-51 -51t-19 -70t19 -70t51 -51t70 -19t70 19t51 51t19 70t-19 70t-51 51t-70 19zM255 680h63l-167 -306q27 9 59 9q42 0 77.5 -15t61.5 -41t41 -61.5t15 -77.5q0 -51 -26 -97t-72 -72t-97 -26t-97 26t-72 72t-26 97t25 96z" />
    <glyph glyph-name="seven" unicode="7" horiz-adv-x="366" 
d="M113 0h-58l218 624h-243v55h321z" />
    <glyph glyph-name="eight" unicode="8" horiz-adv-x="432" 
d="M119 370q-73 51 -73 140q0 72 50 121t120 49q46 0 85.5 -22.5t62 -62t22.5 -85.5q0 -89 -73 -140q48 -26 76 -72.5t28 -103.5q0 -53 -27 -100t-74 -74t-100 -27t-100 27t-74 74t-27 100q0 56 28.5 103t75.5 73zM216 625q-35 0 -61.5 -17t-40 -43.5t-13.5 -54.5
q0 -53 36 -84t79 -31q53 0 84 36t31 79q0 35 -17 61.5t-43.5 40t-54.5 13.5zM216 340q-64 0 -105 -43.5t-41 -102.5q0 -64 43.5 -105t102.5 -41q43 0 76.5 20.5t51.5 54t18 71.5q0 64 -43.5 105t-102.5 41z" />
    <glyph glyph-name="nine" unicode="9" horiz-adv-x="420" 
d="M210 345q38 0 70 19t51 51t19 70t-19 70t-51 51t-70 19t-70 -19t-51 -51t-19 -70t19 -70t51 -51t70 -19zM168 0h-63l164 299q-27 -9 -59 -9q-51 0 -97 26t-72 72t-26 97t26 97t72 72t97 26q42 0 77.5 -15t61.5 -41t41 -61.5t15 -77.5q0 -51 -25 -96z" />
    <glyph glyph-name="colon" unicode=":" 
d="M30 55h55v-55h-55v55zM30 409h55v-55h-55v55z" />
    <glyph glyph-name="semicolon" unicode=";" 
d="M85 -52l-31 52h-24v55h55v-107zM30 409h55v-55h-55v55z" />
    <glyph glyph-name="question" unicode="?" horiz-adv-x="366" 
d="M66 554l-51 21q21 47 65 76t96 29q73 0 124 -51t51 -124q0 -64 -42 -113.5t-104 -59.5v-219h-55v272h26q49 0 84.5 34.5t35.5 85.5q0 49 -33.5 84.5t-86.5 35.5q-34 0 -64.5 -18.5t-45.5 -52.5zM150 56h56v-56h-56v56z" />
    <glyph glyph-name="A" unicode="A" horiz-adv-x="470" 
d="M141 247h244v270q0 36 -17.5 64t-45.5 43t-59 15q-54 0 -88 -37t-34 -85v-270zM141 192v-192h-55v192h-71l33 55h38v270q0 47 24 88t65 65t88 24t88 -24t65 -65t24 -88v-517h-55v192h-244z" />
    <glyph glyph-name="B" unicode="B" horiz-adv-x="492" 
d="M358 435q53 -30 86 -83.5t33 -119.5q0 -63 -31 -116.5t-84.5 -84.5t-116.5 -31h-147v409h-83l33 56h50v215h181q56 0 95.5 -39.5t39.5 -96.5q0 -69 -56 -109zM153 464h126q36 0 58 24.5t22 55.5q0 36 -23.5 58.5t-56.5 22.5h-126v-161zM153 409v-354h92q76 0 126.5 53
t50.5 124q0 51 -24.5 91t-65.5 63t-87 23h-92z" />
    <glyph glyph-name="C" unicode="C" horiz-adv-x="669" 
d="M655 132q-48 -66 -123.5 -105.5t-163.5 -39.5q-97 0 -177.5 47.5t-128 128.5t-47.5 178q0 71 27 136t76.5 114.5t114 76t135.5 26.5q88 0 163 -38.5t123 -106.5l-44 -31q-25 35 -64 63.5t-83.5 43t-94.5 14.5q-80 0 -149 -39.5t-109 -109.5t-40 -149q0 -81 40 -150
t109 -109t149 -40q74 0 137.5 33t104.5 89z" />
    <glyph glyph-name="D" unicode="D" horiz-adv-x="535" 
d="M180 55q78 0 143.5 38t103.5 104t38 143q0 58 -23 111.5t-60 90.5t-90.5 60t-111.5 23h-28v-570h28zM48 680h132q72 0 133.5 -26.5t107.5 -72.5t72.5 -107.5t26.5 -133.5q0 -92 -45.5 -170.5t-124 -124t-170.5 -45.5h-83v625h-82z" />
    <glyph glyph-name="E" unicode="E" horiz-adv-x="440" 
d="M153 55h257v-55h-312v409h-83l33 55h50v216h312v-55h-257v-161h163v-55h-163v-354z" />
    <glyph glyph-name="F" unicode="F" horiz-adv-x="440" 
d="M153 0h-55v409h-83l33 56h50v215h312v-55h-257v-160h163v-56h-163v-409z" />
    <glyph glyph-name="G" unicode="G" horiz-adv-x="735" 
d="M368 694q88 0 163 -38.5t123 -106.5l-44 -31q-25 35 -64 63.5t-83.5 43t-94.5 14.5q-80 0 -149 -39.5t-109 -109.5t-40 -149q0 -81 40 -150t109 -109t149 -40q101 0 179 58.5t107 150.5h-283l36 55h313q-8 -89 -56.5 -162t-125.5 -115t-170 -42q-97 0 -177.5 47.5
t-128 128.5t-47.5 178q0 71 27 136t76.5 114.5t114 76t135.5 26.5z" />
    <glyph glyph-name="H" unicode="H" horiz-adv-x="478" 
d="M448 0h-55v409h-240v-409h-55v409h-83l33 56h50v215h55v-215h240v215h55v-680z" />
    <glyph glyph-name="I" unicode="I" 
d="M30 0v680h55v-680h-55z" />
    <glyph glyph-name="J" unicode="J" horiz-adv-x="338" 
d="M54 90q35 -35 84 -35q53 0 84 36t31 79v510h55v-510q0 -70 -49 -120t-121 -50q-73 0 -123 52z" />
    <glyph glyph-name="K" unicode="K" horiz-adv-x="456" 
d="M441 0h-62l-223 410l-71 -105v-305h-55v680h55v-275l185 275h66l-146 -218z" />
    <glyph glyph-name="L" unicode="L" horiz-adv-x="302" 
d="M272 0h-242v680h55v-625h187v-55z" />
    <glyph glyph-name="M" unicode="M" horiz-adv-x="562" 
d="M281 418l251 275v-693h-55v551l-196 -214l-196 214v-551h-55v693z" />
    <glyph glyph-name="N" unicode="N" horiz-adv-x="397" 
d="M85 484v-484h-55v693l282 -498v485h55v-693z" />
    <glyph glyph-name="O" unicode="O" horiz-adv-x="737" 
d="M368 694q97 0 178 -47.5t128.5 -128t47.5 -177.5t-47.5 -178t-128.5 -128.5t-178 -47.5t-177.5 47.5t-128 128.5t-47.5 178q0 71 27 136t76.5 114.5t114 76t135.5 26.5zM368 639q-80 0 -149 -39.5t-109 -109.5t-40 -149q0 -81 40 -150t109 -109t149 -40q81 0 150 40
t109 109t40 150q0 79 -40 149t-109 109.5t-150 39.5z" />
    <glyph glyph-name="P" unicode="P" horiz-adv-x="491" 
d="M152 249h81q84 0 136 56t52 132q0 56 -27 99t-70 66t-91 23h-81v-376zM233 680q65 0 121.5 -32.5t89 -89t32.5 -121.5q0 -101 -71 -172t-172 -71h-81v-194h-55v625h-82l33 55h185z" />
    <glyph glyph-name="Q" unicode="Q" horiz-adv-x="737" 
d="M562 44q-87 -57 -194 -57q-71 0 -136 27.5t-114 76.5t-76 114.5t-27 135.5q0 71 27 136.5t76.5 115t114 76t135.5 26.5q97 0 178 -47.5t128.5 -128.5t47.5 -178q0 -157 -116 -263l55 -74l-44 -33zM573 123q45 42 69.5 98.5t24.5 119.5q0 79 -40 149t-109 109.5t-150 39.5
q-80 0 -149 -39.5t-109 -109.5t-40 -149q0 -81 40 -150t109 -109t149 -40q89 0 161 47l-78 105l45 34z" />
    <glyph glyph-name="R" unicode="R" horiz-adv-x="475" 
d="M152 249h65q84 0 136 56t52 132q0 56 -27 99t-70 66t-91 23h-65v-376zM217 680q65 0 121.5 -32.5t89 -89t32.5 -121.5q0 -55 -25 -106t-69 -85t-96 -46l170 -200h-73l-164 194h-51v-194h-55v625h-82l33 55h169z" />
    <glyph glyph-name="S" unicode="S" horiz-adv-x="425" 
d="M68 158q12 -51 52 -82t90 -31q62 0 103.5 42.5t41.5 102.5q0 53 -30 90.5t-77 49.5l-78 20q-57 15 -92.5 61.5t-35.5 105.5q0 72 50.5 122.5t122.5 50.5q46 0 86.5 -23.5t63.5 -62.5l-48 -27q-33 58 -102 58q-49 0 -83.5 -35.5t-34.5 -82.5q0 -41 25 -73t62 -41l78 -20
q65 -17 106.5 -71t41.5 -122q0 -84 -59 -142t-141 -58q-69 0 -123 43t-71 110z" />
    <glyph glyph-name="T" unicode="T" horiz-adv-x="355" 
d="M205 625v-625h-55v625h-135v55h325v-55h-135z" />
    <glyph glyph-name="U" unicode="U" horiz-adv-x="414" 
d="M329 680h55v-503q0 -47 -24 -88t-65 -65t-88 -24t-88 24t-65 65t-24 88v503h55v-503q0 -47 34.5 -84.5t87.5 -37.5q48 0 85 34t37 88v503z" />
    <glyph glyph-name="V" unicode="V" horiz-adv-x="492" 
d="M246 151l188 529h58l-246 -693l-246 693h58z" />
    <glyph glyph-name="W" unicode="W" horiz-adv-x="710" 
d="M355 512l120 -354l177 522h58l-235 -693l-120 354l-120 -354l-235 693h58l177 -522z" />
    <glyph glyph-name="X" unicode="X" horiz-adv-x="428" 
d="M184 378l-135 302h60l105 -235l105 235h60l-135 -302l169 -378h-60l-139 311l-139 -311h-60z" />
    <glyph glyph-name="Y" unicode="Y" horiz-adv-x="375" 
d="M160 303l-160 377h60l128 -301l127 301h60l-160 -377v-303h-55v303z" />
    <glyph glyph-name="Z" unicode="Z" horiz-adv-x="362" 
d="M317 680l-224 -625h239v-55h-317l223 625h-214v55h293z" />
    <glyph glyph-name="backslash" unicode="\" horiz-adv-x="382" 
d="M0 694h43l339 -707h-43z" />
    <glyph glyph-name="grave" unicode="`" horiz-adv-x="323" 
d="M293 733l-13 -23l-250 110l30 56z" />
    <glyph glyph-name="a" unicode="a" horiz-adv-x="477" 
d="M387 55q-65 -67 -156 -67q-88 0 -152 64t-64 152q0 90 64 153t152 63q91 0 156 -67l60 56v-409zM231 365q-68 0 -114.5 -46.5t-46.5 -114.5t46.5 -114.5t114.5 -46.5q67 0 114 47t47 114t-47 114t-114 47z" />
    <glyph glyph-name="b" unicode="b" horiz-adv-x="530" 
d="M299 365q-67 0 -114 -47t-47 -114t47 -114t114 -47q68 0 114.5 46.5t46.5 114.5t-46.5 114.5t-114.5 46.5zM83 625h-68l30 55h93v-332q65 72 161 72q90 0 153 -63t63 -153q0 -88 -63 -152t-153 -64q-91 0 -156 67l-60 -55v625z" />
    <glyph glyph-name="c" unicode="c" horiz-adv-x="412" 
d="M397 342l-43 -34q-49 57 -123 57q-68 0 -114.5 -46.5t-46.5 -114.5t46.5 -114.5t114.5 -46.5q73 0 120 54l44 -34q-31 -36 -73 -55.5t-91 -19.5q-88 0 -152 64t-64 152q0 90 64 153t152 63q51 0 93 -20t73 -58z" />
    <glyph glyph-name="d" unicode="d" horiz-adv-x="477" 
d="M231 420q96 0 161 -72v332h55v-680l-60 55q-65 -67 -156 -67q-88 0 -152 64t-64 152q0 90 64 153t152 63zM231 365q-68 0 -114.5 -46.5t-46.5 -114.5t46.5 -114.5t114.5 -46.5q67 0 114 47t47 114t-47 114t-114 47z" />
    <glyph glyph-name="e" unicode="e" horiz-adv-x="437" 
d="M373 129l48 -27q-27 -51 -78 -82.5t-112 -31.5q-88 0 -152 64t-64 152q0 90 64 153t152 63q56 0 105.5 -28t76.5 -71l-279 -246q42 -32 97 -32q46 0 83.5 23t58.5 63zM97 114l239 212q-45 39 -105 39q-68 0 -114.5 -46.5t-46.5 -114.5q0 -49 27 -90z" />
    <glyph glyph-name="f" unicode="f" horiz-adv-x="249" 
d="M90 353h-75v55h75v123q0 41 20 75t54 54t75 20q48 0 88 -29l-37 -41q-22 15 -51 15q-39 0 -66.5 -27.5t-27.5 -66.5v-123h74v-55h-74v-353h-55v353z" />
    <glyph glyph-name="g" unicode="g" horiz-adv-x="477" 
d="M94 -153q48 -65 133 -65q68 0 116.5 46.5t48.5 118.5v113q-65 -72 -161 -72q-88 0 -152 64t-64 152q0 90 64 153t152 63q91 0 156 -67l60 56v-462q0 -92 -65 -156t-155 -64q-108 0 -175 86zM231 365q-68 0 -114.5 -46.5t-46.5 -114.5t46.5 -114.5t114.5 -46.5
q67 0 114 47t47 114t-47 114t-114 47z" />
    <glyph glyph-name="h" unicode="h" horiz-adv-x="386" 
d="M301 257q0 47 -31.5 77.5t-76.5 30.5t-76.5 -31.5t-31.5 -76.5v-257h-55v680h55v-301q46 41 108 41q69 0 116 -47t47 -116v-257h-55v257z" />
    <glyph glyph-name="i" unicode="i" 
d="M30 409h55v-409h-55v409zM30 569h55v-60h-55v60z" />
    <glyph glyph-name="j" unicode="j" 
d="M-151 -191q30 -33 77 -33q42 0 73 29t31 75v529h55v-529q0 -66 -46.5 -112.5t-112.5 -46.5q-72 0 -119 53zM30 569h55v-55h-55v55z" />
    <glyph glyph-name="k" unicode="k" horiz-adv-x="310" 
d="M295 0h-67l-143 205v-205h-55v680h55v-461l117 190h65l-121 -196z" />
    <glyph glyph-name="l" unicode="l" 
d="M30 0v680h55v-680h-55z" />
    <glyph glyph-name="m" unicode="m" horiz-adv-x="641" 
d="M611 0h-55v261q0 47 -31 75.5t-73 28.5q-41 0 -72.5 -28.5t-31.5 -75.5v-261h-55v261q0 47 -31 75.5t-73 28.5q-41 0 -72.5 -28.5t-31.5 -75.5v-261h-55v409l46 -36q47 47 113 47q40 0 76 -19t56 -50q48 69 131 69q35 0 63.5 -13t49 -33.5t33.5 -49t13 -63.5v-261z" />
    <glyph glyph-name="n" unicode="n" horiz-adv-x="386" 
d="M30 0v409l47 -38q47 49 116 49t116 -47t47 -116v-257h-55v257q0 47 -31.5 77.5t-76.5 30.5t-76.5 -31.5t-31.5 -76.5v-257h-55z" />
    <glyph glyph-name="o" unicode="o" horiz-adv-x="462" 
d="M231 420q90 0 153 -63t63 -153q0 -88 -63 -152t-153 -64q-88 0 -152 64t-64 152q0 90 64 153t152 63zM231 365q-68 0 -114.5 -46.5t-46.5 -114.5t46.5 -114.5t114.5 -46.5q67 0 114 47t47 114t-47 114t-114 47z" />
    <glyph glyph-name="p" unicode="p" horiz-adv-x="477" 
d="M246 -12q-96 0 -161 72v-332h-55v681l60 -56q65 67 156 67q90 0 153 -63t63 -153q0 -88 -63 -152t-153 -64zM246 43q68 0 114.5 46.5t46.5 114.5t-46.5 114.5t-114.5 46.5q-67 0 -114 -47t-47 -114t47 -114t114 -47z" />
    <glyph glyph-name="q" unicode="q" horiz-adv-x="477" 
d="M231 43q67 0 114 47t47 114t-47 114t-114 47q-68 0 -114.5 -46.5t-46.5 -114.5t46.5 -114.5t114.5 -46.5zM447 -217h68l-30 -55h-93v332q-65 -72 -161 -72q-88 0 -152 64t-64 152q0 90 64 153t152 63q91 0 156 -67l60 56v-626z" />
    <glyph glyph-name="r" unicode="r" horiz-adv-x="259" 
d="M244 410l-25 -49q-12 4 -29 4q-46 0 -75.5 -31t-29.5 -74v-260h-55v409l46 -37q46 48 114 48q30 0 54 -10z" />
    <glyph glyph-name="s" unicode="s" horiz-adv-x="272" 
d="M63 87q20 -40 66 -40q31 0 52 21t21 52q0 25 -14.5 44.5t-36.5 25.5l-48 14q-36 11 -58 39.5t-22 64.5q0 45 31.5 76.5t76.5 31.5q32 0 59.5 -18t39.5 -48l-50 -21q-12 32 -49 32q-23 0 -38 -16t-15 -37q0 -40 39 -51l48 -14q41 -11 66.5 -45t25.5 -78q0 -36 -17 -65
t-46 -46t-65 -17t-66 18.5t-48 50.5z" />
    <glyph glyph-name="t" unicode="t" horiz-adv-x="232" 
d="M89 354h-74v55h74v115l55 27v-142h73v-55h-73v-354h-55v354z" />
    <glyph glyph-name="u" unicode="u" horiz-adv-x="386" 
d="M356 409v-409l-47 38q-47 -49 -116 -49t-116 47t-47 116v257h55v-257q0 -45 32.5 -76.5t75.5 -31.5q47 0 77.5 32.5t30.5 75.5v257h55z" />
    <glyph glyph-name="v" unicode="v" horiz-adv-x="360" 
d="M300 409h60l-180 -422l-180 422h60l120 -280z" />
    <glyph glyph-name="w" unicode="w" horiz-adv-x="520" 
d="M260 221l-90 -234l-170 422h59l110 -272l91 237l91 -237l110 272h59l-170 -422z" />
    <glyph glyph-name="x" unicode="x" horiz-adv-x="332" 
d="M198 236l134 -236h-63l-103 181l-103 -181h-63l135 236l-99 173h63l67 -118l67 118h63z" />
    <glyph glyph-name="y" unicode="y" horiz-adv-x="386" 
d="M54 -190l43 32q32 -48 93 -48q50 0 80.5 33t30.5 78v125q-46 -41 -108 -41q-69 0 -116 47t-47 116v257h55v-257q0 -45 32.5 -76.5t75.5 -31.5q47 0 77.5 32.5t30.5 75.5v257h55v-504q0 -69 -48.5 -117.5t-117.5 -48.5q-86 0 -136 71z" />
    <glyph glyph-name="z" unicode="z" horiz-adv-x="313" 
d="M103 55h180v-55h-268l175 354h-172v55h260z" />
    <glyph glyph-name="asciitilde" unicode="~" horiz-adv-x="338" 
d="M308 795q-31 -30 -90 -30q-15 0 -50 18t-50 18q-54 0 -88 -32v43q34 32 88 32q15 0 50 -18t50 -18q59 0 90 30v-43z" />
    <glyph glyph-name="Adieresis" unicode="&#xc4;" horiz-adv-x="470" 
d="M141 247h244v270q0 36 -17.5 64t-45.5 43t-59 15q-54 0 -88 -37t-34 -85v-270zM141 192v-192h-55v192h-71l33 55h38v270q0 47 24 88t65 65t88 24t88 -24t65 -65t24 -88v-517h-55v192h-244zM159 812h64v-64h-64v64zM302 812h64v-64h-64v64z" />
    <glyph glyph-name="Aring" unicode="&#xc5;" horiz-adv-x="470" 
d="M141 247h244v270q0 36 -17.5 64t-45.5 43t-59 15q-54 0 -88 -37t-34 -85v-270zM141 192v-192h-55v192h-71l33 55h38v270q0 47 24 88t65 65t88 24t88 -24t65 -65t24 -88v-517h-55v192h-244zM263 878q16 0 28.5 -5t23.5 -16t16 -23.5t5 -28.5q0 -30 -21.5 -51.5
t-51.5 -21.5q-29 0 -51 22t-22 51q0 30 21.5 51.5t51.5 21.5zM263 849q-18 0 -31 -13t-13 -31t13 -31t31 -13t31 13t13 31t-13 31t-31 13z" />
    <glyph glyph-name="Eacute" unicode="&#xc9;" horiz-adv-x="440" 
d="M153 55h257v-55h-312v409h-83l33 55h50v216h312v-55h-257v-161h163v-55h-163v-354zM118 733l233 143l30 -56l-250 -110z" />
    <glyph glyph-name="Ntilde" unicode="&#xd1;" horiz-adv-x="397" 
d="M85 484v-484h-55v693l282 -498v485h55v-693zM338 795q-31 -30 -90 -30q-15 0 -50 18t-50 18q-54 0 -88 -32v43q34 32 88 32q15 0 50 -18t50 -18q59 0 90 30v-43z" />
    <glyph glyph-name="Odieresis" unicode="&#xd6;" horiz-adv-x="737" 
d="M368 694q97 0 178 -47.5t128.5 -128t47.5 -177.5t-47.5 -178t-128.5 -128.5t-178 -47.5t-177.5 47.5t-128 128.5t-47.5 178q0 71 27 136t76.5 114.5t114 76t135.5 26.5zM368 639q-80 0 -149 -39.5t-109 -109.5t-40 -149q0 -81 40 -150t109 -109t149 -40q81 0 150 40
t109 109t40 150q0 79 -40 149t-109 109.5t-150 39.5zM263 812h64v-64h-64v64zM406 812h64v-64h-64v64z" />
    <glyph glyph-name="Udieresis" unicode="&#xdc;" horiz-adv-x="414" 
d="M329 680h55v-503q0 -47 -24 -88t-65 -65t-88 -24t-88 24t-65 65t-24 88v503h55v-503q0 -47 34.5 -84.5t87.5 -37.5q48 0 85 34t37 88v503zM102 812h64v-64h-64v64zM245 812h64v-64h-64v64z" />
    <glyph glyph-name="aacute" unicode="&#xe1;" horiz-adv-x="477" 
d="M387 55q-65 -67 -156 -67q-88 0 -152 64t-64 152q0 90 64 153t152 63q91 0 156 -67l60 56v-409zM231 365q-68 0 -114.5 -46.5t-46.5 -114.5t46.5 -114.5t114.5 -46.5q67 0 114 47t47 114t-47 114t-114 47zM92 491l233 143l30 -56l-250 -110z" />
    <glyph glyph-name="agrave" unicode="&#xe0;" horiz-adv-x="477" 
d="M387 55q-65 -67 -156 -67q-88 0 -152 64t-64 152q0 90 64 153t152 63q91 0 156 -67l60 56v-409zM231 365q-68 0 -114.5 -46.5t-46.5 -114.5t46.5 -114.5t114.5 -46.5q67 0 114 47t47 114t-47 114t-114 47zM372 491l-13 -23l-250 110l30 56z" />
    <glyph glyph-name="acircumflex" unicode="&#xe2;" horiz-adv-x="477" 
d="M387 55q-65 -67 -156 -67q-88 0 -152 64t-64 152q0 90 64 153t152 63q91 0 156 -67l60 56v-409zM231 365q-68 0 -114.5 -46.5t-46.5 -114.5t46.5 -114.5t114.5 -46.5q67 0 114 47t47 114t-47 114t-114 47zM373 474l-138 71l-140 -71v51l140 71l138 -71v-51z" />
    <glyph glyph-name="adieresis" unicode="&#xe4;" horiz-adv-x="477" 
d="M387 55q-65 -67 -156 -67q-88 0 -152 64t-64 152q0 90 64 153t152 63q91 0 156 -67l60 56v-409zM231 365q-68 0 -114.5 -46.5t-46.5 -114.5t46.5 -114.5t114.5 -46.5q67 0 114 47t47 114t-47 114t-114 47zM133 568h64v-64h-64v64zM276 568h64v-64h-64v64z" />
    <glyph glyph-name="atilde" unicode="&#xe3;" horiz-adv-x="477" 
d="M387 55q-65 -67 -156 -67q-88 0 -152 64t-64 152q0 90 64 153t152 63q91 0 156 -67l60 56v-409zM231 365q-68 0 -114.5 -46.5t-46.5 -114.5t46.5 -114.5t114.5 -46.5q67 0 114 47t47 114t-47 114t-114 47zM372 527q-31 -30 -90 -30q-15 0 -50 18t-50 18q-54 0 -88 -32v43
q34 32 88 32q15 0 50 -18t50 -18q59 0 90 30v-43z" />
    <glyph glyph-name="aring" unicode="&#xe5;" horiz-adv-x="477" 
d="M387 55q-65 -67 -156 -67q-88 0 -152 64t-64 152q0 90 64 153t152 63q91 0 156 -67l60 56v-409zM231 365q-68 0 -114.5 -46.5t-46.5 -114.5t46.5 -114.5t114.5 -46.5q67 0 114 47t47 114t-47 114t-114 47zM235 616q16 0 28.5 -5t23.5 -16t16 -23.5t5 -28.5
q0 -30 -21.5 -51.5t-51.5 -21.5q-29 0 -51 22t-22 51q0 30 21.5 51.5t51.5 21.5zM235 587q-18 0 -31 -13t-13 -31t13 -31t31 -13t31 13t13 31t-13 31t-31 13z" />
    <glyph glyph-name="eacute" unicode="&#xe9;" horiz-adv-x="437" 
d="M373 129l48 -27q-27 -51 -78 -82.5t-112 -31.5q-88 0 -152 64t-64 152q0 90 64 153t152 63q56 0 105.5 -28t76.5 -71l-279 -246q42 -32 97 -32q46 0 83.5 23t58.5 63zM97 114l239 212q-45 39 -105 39q-68 0 -114.5 -46.5t-46.5 -114.5q0 -49 27 -90zM80 491l233 143
l30 -56l-250 -110z" />
    <glyph glyph-name="egrave" unicode="&#xe8;" horiz-adv-x="437" 
d="M373 129l48 -27q-27 -51 -78 -82.5t-112 -31.5q-88 0 -152 64t-64 152q0 90 64 153t152 63q56 0 105.5 -28t76.5 -71l-279 -246q42 -32 97 -32q46 0 83.5 23t58.5 63zM97 114l239 212q-45 39 -105 39q-68 0 -114.5 -46.5t-46.5 -114.5q0 -49 27 -90zM360 491l-13 -23
l-250 110l30 56z" />
    <glyph glyph-name="ecircumflex" unicode="&#xea;" horiz-adv-x="437" 
d="M373 129l48 -27q-27 -51 -78 -82.5t-112 -31.5q-88 0 -152 64t-64 152q0 90 64 153t152 63q56 0 105.5 -28t76.5 -71l-279 -246q42 -32 97 -32q46 0 83.5 23t58.5 63zM97 114l239 212q-45 39 -105 39q-68 0 -114.5 -46.5t-46.5 -114.5q0 -49 27 -90zM372 474l-138 71
l-140 -71v51l140 71l138 -71v-51z" />
    <glyph glyph-name="edieresis" unicode="&#xeb;" horiz-adv-x="437" 
d="M373 129l48 -27q-27 -51 -78 -82.5t-112 -31.5q-88 0 -152 64t-64 152q0 90 64 153t152 63q56 0 105.5 -28t76.5 -71l-279 -246q42 -32 97 -32q46 0 83.5 23t58.5 63zM97 114l239 212q-45 39 -105 39q-68 0 -114.5 -46.5t-46.5 -114.5q0 -49 27 -90zM133 568h64v-64h-64
v64zM276 568h64v-64h-64v64z" />
    <glyph glyph-name="iacute" unicode="&#xed;" 
d="M30 409h55v-409h-55v409zM-78 491l233 143l30 -56l-250 -110z" />
    <glyph glyph-name="igrave" unicode="&#xec;" 
d="M30 409h55v-409h-55v409zM200 491l-13 -23l-250 110l30 56z" />
    <glyph glyph-name="icircumflex" unicode="&#xee;" 
d="M30 409h55v-409h-55v409zM195 474l-138 71l-140 -71v51l140 71l138 -71v-51z" />
    <glyph glyph-name="idieresis" unicode="&#xef;" 
d="M30 409h55v-409h-55v409zM-45 568h64v-64h-64v64zM98 568h64v-64h-64v64z" />
    <glyph glyph-name="ntilde" unicode="&#xf1;" horiz-adv-x="386" 
d="M30 0v409l47 -38q47 49 116 49t116 -47t47 -116v-257h-55v257q0 47 -31.5 77.5t-76.5 30.5t-76.5 -31.5t-31.5 -76.5v-257h-55zM330 527q-31 -30 -90 -30q-15 0 -50 18t-50 18q-54 0 -88 -32v43q34 32 88 32q15 0 50 -18t50 -18q59 0 90 30v-43z" />
    <glyph glyph-name="oacute" unicode="&#xf3;" horiz-adv-x="462" 
d="M231 420q90 0 153 -63t63 -153q0 -88 -63 -152t-153 -64q-88 0 -152 64t-64 152q0 90 64 153t152 63zM231 365q-68 0 -114.5 -46.5t-46.5 -114.5t46.5 -114.5t114.5 -46.5q67 0 114 47t47 114t-47 114t-114 47zM86 491l233 143l30 -56l-250 -110z" />
    <glyph glyph-name="ograve" unicode="&#xf2;" horiz-adv-x="462" 
d="M231 420q90 0 153 -63t63 -153q0 -88 -63 -152t-153 -64q-88 0 -152 64t-64 152q0 90 64 153t152 63zM231 365q-68 0 -114.5 -46.5t-46.5 -114.5t46.5 -114.5t114.5 -46.5q67 0 114 47t47 114t-47 114t-114 47zM372 491l-13 -23l-250 110l30 56z" />
    <glyph glyph-name="ocircumflex" unicode="&#xf4;" horiz-adv-x="462" 
d="M231 420q90 0 153 -63t63 -153q0 -88 -63 -152t-153 -64q-88 0 -152 64t-64 152q0 90 64 153t152 63zM231 365q-68 0 -114.5 -46.5t-46.5 -114.5t46.5 -114.5t114.5 -46.5q67 0 114 47t47 114t-47 114t-114 47zM370 474l-138 71l-140 -71v51l140 71l138 -71v-51z" />
    <glyph glyph-name="odieresis" unicode="&#xf6;" horiz-adv-x="462" 
d="M231 420q90 0 153 -63t63 -153q0 -88 -63 -152t-153 -64q-88 0 -152 64t-64 152q0 90 64 153t152 63zM231 365q-68 0 -114.5 -46.5t-46.5 -114.5t46.5 -114.5t114.5 -46.5q67 0 114 47t47 114t-47 114t-114 47zM129 568h64v-64h-64v64zM272 568h64v-64h-64v64z" />
    <glyph glyph-name="otilde" unicode="&#xf5;" horiz-adv-x="462" 
d="M231 420q90 0 153 -63t63 -153q0 -88 -63 -152t-153 -64q-88 0 -152 64t-64 152q0 90 64 153t152 63zM231 365q-68 0 -114.5 -46.5t-46.5 -114.5t46.5 -114.5t114.5 -46.5q67 0 114 47t47 114t-47 114t-114 47zM370 527q-31 -30 -90 -30q-15 0 -50 18t-50 18
q-54 0 -88 -32v43q34 32 88 32q15 0 50 -18t50 -18q59 0 90 30v-43z" />
    <glyph glyph-name="uacute" unicode="&#xfa;" horiz-adv-x="386" 
d="M356 409v-409l-47 38q-47 -49 -116 -49t-116 47t-47 116v257h55v-257q0 -45 32.5 -76.5t75.5 -31.5q47 0 77.5 32.5t30.5 75.5v257h55zM57 491l233 143l30 -56l-250 -110z" />
    <glyph glyph-name="ugrave" unicode="&#xf9;" horiz-adv-x="386" 
d="M356 409v-409l-47 38q-47 -49 -116 -49t-116 47t-47 116v257h55v-257q0 -45 32.5 -76.5t75.5 -31.5q47 0 77.5 32.5t30.5 75.5v257h55zM330 491l-13 -23l-250 110l30 56z" />
    <glyph glyph-name="ucircumflex" unicode="&#xfb;" horiz-adv-x="386" 
d="M356 409v-409l-47 38q-47 -49 -116 -49t-116 47t-47 116v257h55v-257q0 -45 32.5 -76.5t75.5 -31.5q47 0 77.5 32.5t30.5 75.5v257h55zM331 474l-138 71l-140 -71v51l140 71l138 -71v-51z" />
    <glyph glyph-name="udieresis" unicode="&#xfc;" horiz-adv-x="386" 
d="M356 409v-409l-47 38q-47 -49 -116 -49t-116 47t-47 116v257h55v-257q0 -45 32.5 -76.5t75.5 -31.5q47 0 77.5 32.5t30.5 75.5v257h55zM89 568h64v-64h-64v64zM232 568h64v-64h-64v64z" />
    <glyph glyph-name="degree" unicode="&#xb0;" horiz-adv-x="176" 
d="M88 680q16 0 28.5 -5t23.5 -16t16 -23.5t5 -28.5q0 -30 -21.5 -51.5t-51.5 -21.5q-29 0 -51 22t-22 51q0 30 21.5 51.5t51.5 21.5zM88 651q-18 0 -31 -13t-13 -31t13 -31t31 -13t31 13t13 31t-13 31t-31 13z" />
    <glyph glyph-name="sterling" unicode="&#xa3;" horiz-adv-x="384" 
d="M133 276h-103v55h74q-7 14 -21.5 41t-25.5 44q-22 38 -22 83q0 47 22.5 85t60.5 60.5t85 22.5q69 0 121 -50l-39 -39q-34 34 -82 34q-51 0 -82 -34t-31 -79q0 -33 14 -56q19 -34 61 -112h140v-55h-112q53 -108 53 -144q0 -39 -36 -77v0h144v-55h-324v55h51
q53 0 81.5 26.5t28.5 50.5q0 17 -29 85q-9 21 -29 59z" />
    <glyph glyph-name="bullet" unicode="&#x2022;" horiz-adv-x="208" 
d="M104 488q26 0 45.5 -12t31.5 -31.5t12 -45.5q0 -37 -26 -63t-63 -26t-63 26t-26 63t26 63t63 26z" />
    <glyph glyph-name="acute" unicode="&#xb4;" horiz-adv-x="323" 
d="M30 733l233 143l30 -56l-250 -110z" />
    <glyph glyph-name="dieresis" unicode="&#xa8;" horiz-adv-x="267" 
d="M30 812h64v-64h-64v64zM173 812h64v-64h-64v64z" />
    <glyph glyph-name="questiondown" unicode="&#xbf;" horiz-adv-x="366" 
d="M300 126l51 -21q-13 -30 -37 -54t-56.5 -37.5t-67.5 -13.5q-71 0 -123 52t-52 123q0 64 41 113t105 60v219h55v-272h-26q-48 0 -84 -33.5t-36 -86.5q0 -48 34.5 -84t85.5 -36q35 0 65.5 19t44.5 52zM216 624h-56v56h56v-56z" />
    <glyph glyph-name="exclamdown" unicode="&#xa1;" 
d="M30 624v56h56v-56h-56zM30 0v567h55v-567h-55z" />
    <glyph glyph-name="ellipsis" unicode="&#x2026;" horiz-adv-x="351" 
d="M30 55h55v-55h-55v55zM148 55h55v-55h-55v55zM266 55h55v-55h-55v55z" />
    <glyph glyph-name="Agrave" unicode="&#xc0;" horiz-adv-x="470" 
d="M141 247h244v270q0 36 -17.5 64t-45.5 43t-59 15q-54 0 -88 -37t-34 -85v-270zM141 192v-192h-55v192h-71l33 55h38v270q0 47 24 88t65 65t88 24t88 -24t65 -65t24 -88v-517h-55v192h-244zM408 733l-13 -23l-250 110l30 56z" />
    <glyph glyph-name="Atilde" unicode="&#xc3;" horiz-adv-x="470" 
d="M141 247h244v270q0 36 -17.5 64t-45.5 43t-59 15q-54 0 -88 -37t-34 -85v-270zM141 192v-192h-55v192h-71l33 55h38v270q0 47 24 88t65 65t88 24t88 -24t65 -65t24 -88v-517h-55v192h-244zM400 795q-31 -30 -90 -30q-15 0 -50 18t-50 18q-54 0 -88 -32v43q34 32 88 32
q15 0 50 -18t50 -18q59 0 90 30v-43z" />
    <glyph glyph-name="Otilde" unicode="&#xd5;" horiz-adv-x="737" 
d="M368 694q97 0 178 -47.5t128.5 -128t47.5 -177.5t-47.5 -178t-128.5 -128.5t-178 -47.5t-177.5 47.5t-128 128.5t-47.5 178q0 71 27 136t76.5 114.5t114 76t135.5 26.5zM368 639q-80 0 -149 -39.5t-109 -109.5t-40 -149q0 -81 40 -150t109 -109t149 -40q81 0 150 40
t109 109t40 150q0 79 -40 149t-109 109.5t-150 39.5zM508 795q-31 -30 -90 -30q-15 0 -50 18t-50 18q-54 0 -88 -32v43q34 32 88 32q15 0 50 -18t50 -18q59 0 90 30v-43z" />
    <glyph glyph-name="endash" unicode="&#x2013;" horiz-adv-x="340" 
d="M310 235v-55h-280v55h280z" />
    <glyph glyph-name="emdash" unicode="&#x2014;" horiz-adv-x="534" 
d="M504 235v-55h-474v55h474z" />
    <glyph glyph-name="quotedblleft" unicode="&#x201c;" horiz-adv-x="194" 
d="M86 732v-108h-56v56h24zM164 732v-108h-56v56h24z" />
    <glyph glyph-name="quotedblright" unicode="&#x201d;" horiz-adv-x="194" 
d="M86 586l-32 52h-24v56h56v-108zM164 586l-32 52h-24v56h56v-108z" />
    <glyph glyph-name="quoteleft" unicode="&#x2018;" 
d="M86 732v-108h-56v56h24z" />
    <glyph glyph-name="quoteright" unicode="&#x2019;" 
d="M86 586l-32 52h-24v56h56v-108z" />
    <glyph glyph-name="ydieresis" unicode="&#xff;" horiz-adv-x="386" 
d="M54 -190l43 32q32 -48 93 -48q50 0 80.5 33t30.5 78v125q-46 -41 -108 -41q-69 0 -116 47t-47 116v257h55v-257q0 -45 32.5 -76.5t75.5 -31.5q47 0 77.5 32.5t30.5 75.5v257h55v-504q0 -69 -48.5 -117.5t-117.5 -48.5q-86 0 -136 71zM89 568h64v-64h-64v64zM232 568h64
v-64h-64v64z" />
    <glyph glyph-name="Ydieresis" unicode="&#x178;" horiz-adv-x="375" 
d="M160 303l-160 377h60l128 -301l127 301h60l-160 -377v-303h-55v303zM85 812h64v-64h-64v64zM228 812h64v-64h-64v64z" />
    <glyph glyph-name="Acircumflex" unicode="&#xc2;" horiz-adv-x="470" 
d="M141 247h244v270q0 36 -17.5 64t-45.5 43t-59 15q-54 0 -88 -37t-34 -85v-270zM141 192v-192h-55v192h-71l33 55h38v270q0 47 24 88t65 65t88 24t88 -24t65 -65t24 -88v-517h-55v192h-244zM401 730l-138 71l-140 -71v51l140 71l138 -71v-51z" />
    <glyph glyph-name="Ecircumflex" unicode="&#xca;" horiz-adv-x="440" 
d="M153 55h257v-55h-312v409h-83l33 55h50v216h312v-55h-257v-161h163v-55h-163v-354zM394 730l-138 71l-140 -71v51l140 71l138 -71v-51z" />
    <glyph glyph-name="Aacute" unicode="&#xc1;" horiz-adv-x="470" 
d="M141 247h244v270q0 36 -17.5 64t-45.5 43t-59 15q-54 0 -88 -37t-34 -85v-270zM141 192v-192h-55v192h-71l33 55h38v270q0 47 24 88t65 65t88 24t88 -24t65 -65t24 -88v-517h-55v192h-244zM118 733l233 143l30 -56l-250 -110z" />
    <glyph glyph-name="Edieresis" unicode="&#xcb;" horiz-adv-x="440" 
d="M153 55h257v-55h-312v409h-83l33 55h50v216h312v-55h-257v-161h163v-55h-163v-354zM153 812h64v-64h-64v64zM296 812h64v-64h-64v64z" />
    <glyph glyph-name="Egrave" unicode="&#xc8;" horiz-adv-x="440" 
d="M153 55h257v-55h-312v409h-83l33 55h50v216h312v-55h-257v-161h163v-55h-163v-354zM388 733l-13 -23l-250 110l30 56z" />
    <glyph glyph-name="Iacute" unicode="&#xcd;" 
d="M30 0v680h55v-680h-55zM-82 733l233 143l30 -56l-250 -110z" />
    <glyph glyph-name="Icircumflex" unicode="&#xce;" 
d="M30 0v680h55v-680h-55zM196 730l-138 71l-140 -71v51l140 71l138 -71v-51z" />
    <glyph glyph-name="Idieresis" unicode="&#xcf;" 
d="M30 0v680h55v-680h-55zM-45 812h64v-64h-64v64zM98 812h64v-64h-64v64z" />
    <glyph glyph-name="Igrave" unicode="&#xcc;" 
d="M30 0v680h55v-680h-55zM196 733l-13 -23l-250 110l30 56z" />
    <glyph glyph-name="Oacute" unicode="&#xd3;" horiz-adv-x="737" 
d="M368 694q97 0 178 -47.5t128.5 -128t47.5 -177.5t-47.5 -178t-128.5 -128.5t-178 -47.5t-177.5 47.5t-128 128.5t-47.5 178q0 71 27 136t76.5 114.5t114 76t135.5 26.5zM368 639q-80 0 -149 -39.5t-109 -109.5t-40 -149q0 -81 40 -150t109 -109t149 -40q81 0 150 40
t109 109t40 150q0 79 -40 149t-109 109.5t-150 39.5zM218 733l233 143l30 -56l-250 -110z" />
    <glyph glyph-name="Ocircumflex" unicode="&#xd4;" horiz-adv-x="737" 
d="M368 694q97 0 178 -47.5t128.5 -128t47.5 -177.5t-47.5 -178t-128.5 -128.5t-178 -47.5t-177.5 47.5t-128 128.5t-47.5 178q0 71 27 136t76.5 114.5t114 76t135.5 26.5zM368 639q-80 0 -149 -39.5t-109 -109.5t-40 -149q0 -81 40 -150t109 -109t149 -40q81 0 150 40
t109 109t40 150q0 79 -40 149t-109 109.5t-150 39.5zM506 730l-138 71l-140 -71v51l140 71l138 -71v-51z" />
    <glyph glyph-name="Ograve" unicode="&#xd2;" horiz-adv-x="737" 
d="M368 694q97 0 178 -47.5t128.5 -128t47.5 -177.5t-47.5 -178t-128.5 -128.5t-178 -47.5t-177.5 47.5t-128 128.5t-47.5 178q0 71 27 136t76.5 114.5t114 76t135.5 26.5zM368 639q-80 0 -149 -39.5t-109 -109.5t-40 -149q0 -81 40 -150t109 -109t149 -40q81 0 150 40
t109 109t40 150q0 79 -40 149t-109 109.5t-150 39.5zM518 733l-13 -23l-250 110l30 56z" />
    <glyph glyph-name="Uacute" unicode="&#xda;" horiz-adv-x="414" 
d="M329 680h55v-503q0 -47 -24 -88t-65 -65t-88 -24t-88 24t-65 65t-24 88v503h55v-503q0 -47 34.5 -84.5t87.5 -37.5q48 0 85 34t37 88v503zM68 733l233 143l30 -56l-250 -110z" />
    <glyph glyph-name="Ucircumflex" unicode="&#xdb;" horiz-adv-x="414" 
d="M329 680h55v-503q0 -47 -24 -88t-65 -65t-88 -24t-88 24t-65 65t-24 88v503h55v-503q0 -47 34.5 -84.5t87.5 -37.5q48 0 85 34t37 88v503zM345 730l-138 71l-140 -71v51l140 71l138 -71v-51z" />
    <glyph glyph-name="Ugrave" unicode="&#xd9;" horiz-adv-x="414" 
d="M329 680h55v-503q0 -47 -24 -88t-65 -65t-88 -24t-88 24t-65 65t-24 88v503h55v-503q0 -47 34.5 -84.5t87.5 -37.5q48 0 85 34t37 88v503zM344 733l-13 -23l-250 110l30 56z" />
    <glyph glyph-name="circumflex" unicode="&#x2c6;" horiz-adv-x="338" 
d="M308 730l-138 71l-140 -71v51l140 71l138 -71v-51z" />
    <glyph glyph-name="tilde" unicode="&#x2dc;" horiz-adv-x="338" 
d="M308 795q-31 -30 -90 -30q-15 0 -50 18t-50 18q-54 0 -88 -32v43q34 32 88 32q15 0 50 -18t50 -18q59 0 90 30v-43z" />
  </font>
</defs>
</svg>
