<?xml version="1.0" standalone="no"?> <!DOCTYPE svg PUBLIC "-//W3C//DTD SVG 1.0//EN" "http://www.w3.org/TR/2001/REC-SVG-20010904/DTD/svg10.dtd" > <svg xmlns="http://www.w3.org/2000/svg" width="100%" height="100%">
<defs >
<font id="gooddog" horiz-adv-x="317" ><font-face
    font-family="GoodDog"
    units-per-em="1000"
    panose-1="2 0 0 0 0 0 0 0 0 0"
    ascent="839"
    descent="-175"
    alphabetic="0" />
<missing-glyph horiz-adv-x="185" />
<glyph unicode=" " glyph-name="space" horiz-adv-x="185" />
<glyph unicode="!" glyph-name="exclam" horiz-adv-x="231" d="M103 120Q111 115 123 115Q121 101 126 77T129 37T108 9Q71 -13 49 11T17 80Q17 110 46 124T103 120ZM89 166Q76 171 70 179T63 198T63 218T67 242T71 264Q100 483 144 612Q151 633 173 638T214 634T230
607Q224 530 187 385T141 174Q141 145 89 166Z" />
<glyph unicode="&quot;" glyph-name="quotedbl" horiz-adv-x="293" d="M211 465Q211 549 224 607Q228 625 255 636Q285 649 288 627Q292 599 292 565T290 507T283 441T276 380Q273 370 251 368T219 380Q215 390 213 402T211 421T210 444T211 465ZM29 469Q29 470
27 534T29 599Q31 620 52 631T86 627Q111 593 114 551T108 450T98 364Q98 357 86 354T59 353T41 368Q29 400 29 469Z" />
<glyph unicode="#" glyph-name="numbersign" horiz-adv-x="491" d="M263 183Q250 177 237 179T213 180T198 168Q192 141 201 87T203 10Q196 -8 169 3T134 35Q127 54 120 95T105 153Q98 168 65 158T21 163Q13 182 13 192T26 212T53 225T84 236T110 247Q102 263
108 282T113 316T95 331Q92 331 83 318T65 311Q30 323 21 336Q12 364 26 385Q36 396 71 412T115 444Q123 455 124 474T124 511T124 548Q130 582 165 584T218 563Q233 545 221 502T223 444Q242 430 274 437T322 464Q342 484 350 541T376 617Q386 631 399 637T430
632Q435 628 446 625T463 618T470 607Q472 590 449 544T445 479Q448 476 466 465T489 444Q493 437 490 426T480 410Q470 405 448 401T415 390Q397 380 399 345T391 291Q397 288 401 281T406 272Q435 267 456 251T460 212Q450 199 423 198T391 188Q378 168 385 114T386
40Q371 11 322 60Q313 68 308 83T302 110T300 145T297 178Q297 188 285 188T263 183ZM263 262Q287 256 298 275T309 321T307 370Q288 365 270 367T233 367T208 351Q173 285 213 257Q218 252 235 258T263 262Z" />
<glyph unicode="$" glyph-name="dollar" horiz-adv-x="305" d="M30 135Q8 154 20 172T54 190Q65 192 78 182T101 164T116 162Q130 181 133 210T135 266T136 323Q90 341 58 370T26 440Q26 458 38 464Q81 519 171 538Q192 545 195 549T195 562T198 592Q204 604 217
606T234 600Q246 586 240 571T238 538Q240 532 250 526T271 515T293 504T304 490T296 472Q288 464 263 468T226 468Q204 454 201 421T210 370Q218 358 238 345T273 318T292 284Q303 222 281 170Q272 149 235 131T187 96Q172 74 179 51T163 5Q157 -4 143 2T128 17Q124
43 127 51T130 69T120 96Q114 108 79 116T30 135ZM187 206Q187 202 185 195T182 183T187 174Q200 170 213 175T226 194Q234 222 222 254Q211 280 194 268Q187 260 187 206ZM120 448Q94 435 101 413Q103 405 112 398T128 390Q142 388 147 401T149 432T140 460Q136
463 134 462T128 455T120 448Z" />
<glyph unicode="%" glyph-name="percent" horiz-adv-x="620" d="M120 367Q117 368 107 371T93 375T82 379T69 383T59 388T48 394T38 401T29 410Q4 440 10 473T43 526Q138 593 198 565Q242 544 258 490T246 391Q212 339 120 367ZM106 454Q102 429 128 420T174 425Q183
432 185 438T185 455T183 468Q183 470 181 472T175 478T169 483Q148 487 129 481T106 454ZM163 151Q186 219 225 281T330 427T421 546Q434 564 445 567T479 560Q487 552 488 536T485 511Q460 458 415 391T332 272T254 150T196 15Q174 12 162 12T144 22T136 57Q136
72 140 86T152 122T163 151ZM325 142Q331 156 345 175T362 202Q367 207 385 217T412 238Q430 257 480 257Q527 249 562 211T595 124Q581 114 561 98T526 68T490 42T451 21T411 13T366 23Q335 37 323 72T325 142ZM416 115Q410 100 415 89T435 83Q441 87 454 94T474
106T492 120T503 135T503 151Q487 180 458 163T416 115Z" />
<glyph unicode="&amp;" glyph-name="ampersand" horiz-adv-x="277" d="M258 421Q261 377 228 361Q217 351 201 352T176 368Q172 372 172 387T172 413Q166 426 152 425T131 413Q112 390 126 355T172 308Q180 305 182 293T180 275Q178 271 175 267T168 261T161 256T152
253T143 250T133 248T124 247T112 246T101 245Q94 238 94 230Q97 221 105 214T121 205T131 204Q176 226 212 221Q240 216 232 189Q225 166 211 138T190 86T183 31Q184 16 166 4T131 -3Q123 -3 116 5T105 23Q105 48 116 76T127 129Q125 141 98 145T64 155Q32 181
19 219Q9 245 37 273T64 320Q63 323 59 339T53 363T50 383T50 407T56 428Q70 453 101 477Q113 483 147 484T187 499Q198 524 197 553T209 607Q220 625 249 619T277 589Q274 559 268 531T259 479T258 421Z" />
<glyph unicode="&apos;" glyph-name="quotesingle" horiz-adv-x="121" d="M107 472Q106 463 108 446T111 419T107 398Q100 388 84 385T62 390Q47 407 39 427T31 475T31 516T38 567T46 610Q47 621 55 628T73 638T94 639T112 632T119 614Q122 584 121 569T114 521T107 472Z" />
<glyph unicode="(" glyph-name="parenleft" horiz-adv-x="331" d="M310 628Q344 594 325 580Q303 560 242 518T151 445Q125 418 116 382T107 316T117 242Q118 238 121 221T125 198T130 178T136 155T143 135T153 114T165 96T180 78Q186 74 198 77T216 81T228 73Q235
58 230 43T214 20Q161 -4 146 1Q142 2 131 4T114 8T103 15Q-13 191 16 373Q16 379 18 387T24 407T30 426Q88 542 262 633Q288 652 310 628Z" />
<glyph unicode=")" glyph-name="parenright" horiz-adv-x="312" d="M120 640Q140 645 160 635Q239 550 298 379Q325 298 298 231Q250 115 81 9Q51 -9 17 9Q10 15 11 27T17 49Q37 71 86 108T165 181T204 261Q219 337 181 415T76 556Q55 578 71 605T120 640Z" />
<glyph unicode="*" glyph-name="asterisk" horiz-adv-x="416" d="M256 640Q270 640 281 631T288 608Q266 546 256 489Q266 485 285 487T313 490T340 496T367 503Q393 512 409 497T407 460Q388 438 339 433T274 420Q292 399 311 379T360 330T400 291Q400 284 393
277Q369 264 342 277Q323 285 306 298T266 335T234 367Q227 349 214 308T188 238T155 187Q147 176 125 177T108 197Q113 226 139 290T166 392Q111 382 58 356Q40 349 22 356Q-2 375 15 392Q31 416 79 429T144 456Q113 500 44 532Q40 533 39 536T39 546T40 554Q40
571 57 583T90 586Q111 573 145 547T191 514Q195 510 196 518Q197 534 198 536Q200 543 206 576T222 625T256 640Z" />
<glyph unicode="+" glyph-name="plus" horiz-adv-x="323" d="M140 363Q140 376 135 394T124 425T121 453T135 481Q153 495 190 495Q203 493 212 484T222 467Q225 455 225 420T236 370Q243 361 271 363T314 359Q331 346 323 327Q303 308 250 302Q248 301 243 299T235
293T231 287Q231 274 234 251T239 215T236 180Q233 169 215 168T186 176Q165 190 157 227T140 276Q125 288 112 287T73 282T30 280Q11 286 13 300T30 319Q84 339 135 345Q141 347 140 357Q140 361 140 363Z" />
<glyph unicode="," glyph-name="comma" horiz-adv-x="146" d="M138 144Q159 129 136 30T81 -87Q65 -96 55 -87T41 -55T34 -8T31 43T29 81Q25 116 45 136T92 156T138 144Z" />
<glyph unicode="-" glyph-name="hyphen" horiz-adv-x="359" d="M79 326Q109 326 161 322T244 316T330 321Q337 325 345 322T358 312Q357 302 359 296T355 284T347 274T337 266T325 261T313 256T302 252Q175 216 41 252Q33 254 29 257T24 262L23 265Q19 289 36
307T79 326Z" />
<glyph unicode="." glyph-name="period" horiz-adv-x="159" d="M138 144Q160 130 160 81T129 14Q91 -7 63 17T30 81Q27 108 38 126T67 150T105 155T138 144Z" />
<glyph unicode="/" glyph-name="slash" horiz-adv-x="383" d="M182 434Q192 453 208 493T236 557T271 605T323 636Q352 644 372 625T376 575Q358 544 306 453T227 315T165 192T106 49Q102 31 92 22T59 3Q34 -8 15 5T1 42Q12 93 34 148T76 242T131 341T182 434Z" />
<glyph unicode="0" glyph-name="zero" horiz-adv-x="435" d="M330 94Q287 51 239 38T139 50Q36 111 21 231Q10 326 80 405T246 501Q285 508 325 488T393 432Q434 380 434 316T406 196T330 94ZM278 182Q351 283 314 343Q288 386 255 386Q212 386 177 352T137 276Q132
237 150 201T204 150Q241 128 278 182Z" />
<glyph unicode="1" glyph-name="one" horiz-adv-x="164" d="M105 -1Q66 -1 50 32Q28 88 28 152T39 295T50 419Q50 440 72 462T121 473Q167 452 159 413Q129 258 138 97Q140 89 154 69T159 32Q157 30 153 25T146 18T140 12T132 7T125 3T116 0T105 -1Z" />
<glyph unicode="2" glyph-name="two" horiz-adv-x="419" d="M69 31Q41 35 37 65T46 113Q72 160 145 226T239 318Q243 321 240 327T235 335T228 342L222 347Q210 353 184 353T145 359Q120 371 93 355T38 353Q8 376 20 435Q26 453 40 461T68 470T101 468T128 465Q240
465 292 435Q295 433 304 428T317 421T331 412T344 403T355 392T362 379T364 364T362 347Q344 292 303 247T198 154Q169 125 192 125Q237 118 266 117T318 112T393 95Q399 95 407 88T416 72Q420 50 407 31T375 7Q320 1 282 1T225 3T158 15T69 31Z" />
<glyph unicode="3" glyph-name="three" horiz-adv-x="338" d="M250 71Q199 46 141 48T34 76Q10 92 19 118T54 151Q78 159 130 148T209 146Q219 146 228 156Q231 159 229 161Q219 187 185 206T118 235T65 267T59 321Q71 341 116 363T169 391Q152 401 116 401T64
411Q38 434 54 465T104 496Q110 495 131 494T160 491T187 488T215 482T240 474T265 461Q287 447 292 430T287 395T263 363T229 330T199 301Q204 298 211 288T224 276Q264 268 294 246T335 191Q355 123 250 71Z" />
<glyph unicode="4" glyph-name="four" horiz-adv-x="368" d="M163 144Q118 144 81 167T32 225Q6 282 29 358T108 472Q124 482 139 474T158 452Q166 423 142 367T128 280Q136 254 170 240T224 240Q247 258 256 298T267 374T285 441T340 477Q364 460 367 433T361
380T342 321T335 265Q337 255 337 246T337 229T332 213T326 199T318 184T310 169Q300 143 296 129T289 87T295 43Q297 36 291 30T274 18T259 7Q231 -14 204 23Q192 36 197 79T199 139Q199 146 194 147T179 146T163 144Z" />
<glyph unicode="5" glyph-name="five" horiz-adv-x="396" d="M363 438Q376 438 385 430T395 410Q399 390 384 374T353 358Q196 387 151 297Q171 288 218 279T287 260Q326 250 339 222Q368 187 344 142Q305 73 238 34T95 1Q65 4 57 32T62 86Q73 101 78 107T95 121T118
123Q123 123 128 109T137 95Q209 77 269 166Q242 195 200 202T106 209T24 217Q16 221 12 237T15 264Q23 272 37 284T57 302Q68 315 89 346T127 396T165 424Q180 432 209 435T250 443Q274 449 287 448T325 443T363 438Z" />
<glyph unicode="6" glyph-name="six" horiz-adv-x="384" d="M233 3Q158 -9 99 29T21 135Q-10 254 63 365T260 506Q303 516 327 494Q344 477 325 466Q322 464 317 462Q90 353 101 193Q113 195 161 207T230 222T289 219T357 193Q380 175 379 141T357 87Q306 13 233
3ZM235 79Q252 83 258 85T272 92T281 106T281 130Q278 154 227 151Q223 151 221 151Q190 148 171 135T157 99Q166 61 235 79Z" />
<glyph unicode="7" glyph-name="seven" horiz-adv-x="401" d="M255 501Q336 526 393 491Q398 486 400 481T402 470T400 460T397 449T393 439Q382 415 357 364T318 282T291 206T275 121Q275 119 277 112T281 100T280 91Q263 65 235 49T193 50Q173 82 172 118T183
192T214 263T251 338T280 409Q232 409 151 385T55 357Q34 353 16 372T9 414Q14 428 26 444T50 460Q124 460 255 501Z" />
<glyph unicode="8" glyph-name="eight" horiz-adv-x="433" d="M170 7Q68 -10 10 23Q14 67 38 100T114 178T178 233Q166 249 141 271T99 309T69 351T61 404Q160 478 345 455Q349 485 365 505T408 522Q425 522 431 501T429 463Q403 364 295 258Q359 194 358 132Q357
101 339 78T290 41T232 20T170 7ZM253 113Q267 131 266 146T254 171T230 174Q215 169 205 164T189 156T177 146T168 134T158 116T144 93Q169 75 202 82T253 113ZM227 303Q253 313 268 338T268 378Q256 392 240 392T214 389T178 370Q168 361 173 344T196 313T227
303Z" />
<glyph unicode="9" glyph-name="nine" horiz-adv-x="304" d="M21 300Q6 353 31 399T107 472Q125 481 156 486T221 492T279 479T304 437Q296 371 262 242T218 43Q218 34 213 27T202 16T185 7T171 0Q156 -3 136 7T118 33Q123 65 163 210Q175 252 170 252Q119 222
79 230T21 300ZM155 330Q170 339 195 372T206 412Q174 424 141 402T103 347Q102 326 119 322T155 330Z" />
<glyph unicode=":" glyph-name="colon" horiz-adv-x="159" d="M138 144Q160 130 159 81T129 14Q91 -7 63 17T29 81Q25 116 45 136T92 156T138 144ZM138 441Q160 428 159 385T127 323Q85 304 60 322T29 379Q25 414 45 434T92 453T138 441Z" />
<glyph unicode=";" glyph-name="semicolon" horiz-adv-x="157" d="M137 144Q158 129 135 30T80 -87Q64 -96 54 -87T40 -55T33 -8T30 43T28 81Q24 116 44 136T91 156T137 144ZM137 441Q159 428 158 385T126 323Q84 304 59 322T28 379Q24 414 44 434T91 453T137 441Z" />
<glyph unicode="&lt;" glyph-name="less" horiz-adv-x="457" d="M362 543Q394 543 408 522T405 482Q376 450 322 428T217 381T141 317Q183 292 232 269T343 219T438 176Q457 165 457 147Q460 116 429 98T367 91Q360 96 349 106T334 119Q212 187 52 256Q48 258
35 262T12 274T0 293Q0 337 38 373Q84 410 189 457T339 543Q341 545 344 545T353 544T362 543Z" />
<glyph unicode="=" glyph-name="equal" horiz-adv-x="274" d="M234 451Q262 456 272 430Q285 391 234 377Q138 342 54 372Q41 377 31 393T28 420Q44 451 77 456T159 455T234 451ZM166 262Q177 253 204 267T245 267Q251 264 257 275Q259 280 261 278Q276 262 272
245T250 220Q221 190 179 179T95 181T33 236Q26 258 42 276T81 299Q118 299 166 262Z" />
<glyph unicode="&gt;" glyph-name="greater" horiz-adv-x="387" d="M170 510Q294 469 370 397Q386 385 386 370T376 342T348 319Q302 290 215 220T75 119Q48 104 28 126T27 171Q39 191 83 215Q113 230 161 268T227 319Q230 321 238 325T251 331T263 338T270 346T270
354Q251 387 215 406T143 432T68 454T5 497Q-2 507 13 526T44 545Q64 549 85 544T133 526T170 510Z" />
<glyph unicode="?" glyph-name="question" horiz-adv-x="330" d="M96 159Q55 187 37 238T33 334Q42 361 68 381T123 411T180 443T222 494Q190 511 123 532T23 571Q6 579 10 601T33 634Q83 644 106 634Q124 627 170 611T248 580T310 542Q336 516 329 503Q319 463
285 432T207 372T145 314Q132 295 141 263T159 208T149 159Q142 152 125 152T96 159ZM62 77Q76 86 120 86Q141 83 149 67T149 33Q139 11 110 3T62 9Q41 24 41 43T62 77Z" />
<glyph unicode="@" glyph-name="at" horiz-adv-x="502" d="M166 14Q156 18 146 23T128 32T110 45T95 57T79 71T65 84T49 100T35 114Q28 125 17 162Q5 214 17 258Q80 478 187 585Q254 652 362 637Q406 631 437 605T482 543T501 464T497 385Q492 362 475 348T433
321T397 298Q387 290 382 254T370 206Q355 171 318 146T238 121T170 154Q146 187 161 254Q178 329 216 383T314 437Q329 437 345 426T370 404T395 371Q399 366 401 363Q409 356 415 362T427 380Q451 448 414 529Q392 576 337 579T248 546Q124 422 100 215Q94 163
129 124T218 62Q250 49 279 66Q282 61 287 60T296 60T306 64Q312 68 316 68T318 58Q316 25 289 11T230 -1T166 14ZM244 236Q240 202 253 193Q263 183 273 189T288 201T296 215Q336 286 305 341Q249 293 244 236Z" />
<glyph unicode="A" glyph-name="A" horiz-adv-x="402" d="M121 443Q126 459 140 526T176 623Q184 635 209 639T243 628Q262 588 278 540T302 455T325 359T347 267Q347 260 360 253T378 240Q388 223 378 213Q361 176 383 115T401 28Q398 7 369 2T324 15Q310 34
302 91T266 164Q238 180 200 176T135 150Q123 141 115 118T104 72T91 28T66 3T18 10Q12 38 17 68T36 136T54 195Q85 336 121 443ZM176 353Q174 340 167 321T155 289T148 262T157 245Q174 233 210 235T252 258Q256 273 256 290T255 319T246 353T236 381T221 414T207
443Q184 415 176 353Z" />
<glyph unicode="B" glyph-name="B" horiz-adv-x="397" d="M78 447Q73 468 77 488T79 528T61 558Q57 561 42 562T22 571Q8 594 24 616T56 639Q66 639 91 639T131 640T166 638T203 631T235 618Q244 613 300 593T376 545Q385 527 380 515Q367 504 342 482T296 443T252
413Q245 413 238 404Q233 398 240 396Q296 385 338 358T393 290Q414 217 325 128Q267 70 216 37T108 0Q92 -1 79 10T73 38Q77 46 92 61T108 81Q110 100 110 120T109 157T105 197T99 233T93 273T86 311Q85 318 80 330T72 352T69 373T78 396Q87 407 78 447ZM163 511Q162
503 165 486T167 460Q198 457 224 474T257 515Q261 523 253 528T226 540T201 549Q184 558 176 546T163 511ZM188 217Q189 209 191 186T197 148T206 119Q211 123 234 141T265 168T286 192T303 225T303 260Q299 281 274 299T224 322T180 311Q175 294 175 285T181
252T188 217Z" />
<glyph unicode="C" glyph-name="C" horiz-adv-x="450" d="M12 257Q24 340 68 400T191 479Q252 493 336 469Q354 463 367 447T369 411Q363 400 354 395T329 387T307 382Q287 376 250 384T198 387Q141 367 121 310T120 191T197 102T316 93Q325 96 340 105T366 121T391
132T414 128Q441 106 447 85T431 44Q334 -27 181 20Q106 44 70 73Q-4 135 12 257Z" />
<glyph unicode="D" glyph-name="D" horiz-adv-x="380" d="M77 51Q57 58 43 77T35 114Q38 118 53 129T69 151Q72 270 47 500Q47 505 43 511T32 525T22 538Q20 540 20 544T21 553T22 559Q27 582 48 589T90 593Q160 593 212 559Q286 509 340 436Q388 367 379 295T324
161T212 68Q137 29 77 51ZM158 134Q184 129 210 146T251 186Q263 204 269 215T285 245T297 278T301 309T295 343Q277 395 235 437T139 485Q139 438 145 286T158 134Z" />
<glyph unicode="E" glyph-name="E" horiz-adv-x="359" d="M38 381Q38 396 32 426T26 480T38 520Q80 581 164 588T310 547Q324 537 313 519T278 496Q261 494 219 505T153 506Q131 496 128 469T129 416T125 363Q144 352 173 352T226 354T271 349T305 312Q289 284
256 279T189 273T139 256Q128 244 124 223T120 188T125 141T130 100Q163 94 197 103T273 130T338 155Q341 158 356 146Q363 122 354 103T324 76Q306 70 272 56T216 35T165 21T107 16Q100 17 84 17T58 21T47 35Q35 73 38 145T33 256Q32 261 25 272T16 289T19 307Q19
310 27 316Q31 319 33 321Q37 330 38 339T39 364T38 381Z" />
<glyph unicode="F" glyph-name="F" horiz-adv-x="348" d="M56 411Q28 521 33 594Q33 602 39 611T51 621Q119 645 194 639T334 598Q373 578 312 539Q279 524 224 547T142 566Q140 533 139 514T144 463T154 411T167 360T179 310Q191 309 214 311T258 315T298 316T329
305T340 275Q339 254 310 249T247 242T206 224Q196 209 200 185T213 143T232 101T248 59Q256 36 242 19T206 1T170 9Q142 37 127 111T88 214Q83 219 78 218T61 214T42 214Q27 218 19 229T19 256Q25 264 48 277T74 301Q78 310 76 328T72 356T64 383T56 411Z" />
<glyph unicode="G" glyph-name="G" horiz-adv-x="394" d="M28 132Q6 247 31 346T143 506Q199 544 260 543T373 506Q388 494 384 480T364 458Q343 444 292 454T220 458Q200 453 184 435T160 400T143 358Q123 305 117 256T126 156T191 84Q208 76 227 80T253 98Q278
146 277 162Q275 177 263 185Q234 200 234 204Q218 229 237 246T287 271Q330 284 369 261T388 194Q388 192 378 188T368 180Q368 160 359 126T349 84Q347 70 328 53T306 31Q295 23 273 20T244 12Q176 -17 109 19T28 132Z" />
<glyph unicode="H" glyph-name="H" horiz-adv-x="392" d="M32 263Q31 269 27 284T24 306Q25 313 30 331T37 360Q38 382 34 434T33 522T53 589Q63 606 90 609T142 600Q169 577 166 555Q163 538 155 506T142 452T138 405T150 358Q161 343 197 337T241 348Q256 389
255 465T258 587Q262 610 283 620T326 626T354 608Q369 552 368 518T361 424T356 330Q357 323 372 307T389 279Q390 270 380 260T368 246Q358 196 375 102T392 -25Q353 -33 328 -19T292 29T276 96T264 173T249 239Q242 259 220 265T178 267T154 254Q132 231 146
146T148 24Q110 23 86 38T53 83T40 140T36 206T32 263Z" />
<glyph unicode="I" glyph-name="I" horiz-adv-x="161" d="M29 173Q29 199 28 257T27 350T30 434T40 527Q46 567 79 578T149 565Q166 548 160 536Q135 465 131 385T133 204T138 52Q137 41 115 37T73 43Q65 47 59 52T48 64T40 76T34 91T31 106T30 124T29 140T29
157T29 173Z" />
<glyph unicode="J" glyph-name="J" horiz-adv-x="383" d="M16 207Q16 270 30 294Q61 326 103 318Q125 314 130 290T122 241Q114 226 112 203T118 157T151 125Q172 116 197 122T228 149Q239 181 241 216T242 278T229 345T212 407T188 474T166 536Q159 556 170 575Q177
588 202 591T233 604Q239 598 258 594T277 580Q282 540 296 488T322 394T344 305T351 212T330 125Q284 20 98 52Q70 57 53 72T28 112T18 157T16 207Z" />
<glyph unicode="K" glyph-name="K" horiz-adv-x="349" d="M34 242Q15 384 15 594Q15 611 34 625T76 640Q105 641 116 623T124 579T120 525T126 478Q135 458 173 492Q189 502 219 532T270 571Q290 578 315 560T334 524Q311 484 239 444T149 386Q143 380 152 363T180
323T202 293Q212 282 254 243T318 174T348 113Q351 102 335 90T299 76T260 86Q236 106 184 173T129 245Q118 190 156 42Q160 29 159 8T152 -22Q142 -43 123 -48T82 -43Q74 -40 67 -31T59 -11Q59 50 34 242Z" />
<glyph unicode="L" glyph-name="L" horiz-adv-x="430" d="M20 182Q20 388 59 602Q65 632 108 637T156 609Q165 555 159 486T141 362T125 237T134 110Q184 110 204 110T265 117T332 136Q367 161 394 148Q442 100 428 85Q397 49 348 35T254 23T152 22T54 0Q32 14
23 37T13 81T16 134T20 182Z" />
<glyph unicode="M" glyph-name="M" horiz-adv-x="602" d="M557 0Q516 -8 508 0Q479 57 467 135T445 292T411 428Q390 394 366 324T328 224Q325 219 327 207T328 190Q316 166 293 153T245 151Q230 155 218 168T206 195Q195 295 162 307Q151 311 150 299T150 269T148
239Q139 226 142 176T143 112Q139 84 96 76T36 88Q17 108 15 138T19 194T36 257T50 316Q57 365 65 462T80 609Q84 637 120 640T167 623Q191 590 205 550T233 454T255 370L260 364Q266 358 269 356T274 355Q288 375 302 408T325 470T350 529T381 579T423 608T484
609Q516 516 544 328T601 49Q607 32 593 18T557 0Z" />
<glyph unicode="N" glyph-name="N" horiz-adv-x="339" d="M31 64Q23 73 23 85Q29 132 34 271T56 487Q59 501 85 501T121 491Q152 450 185 354T249 216Q256 235 258 253T259 302T257 339Q257 371 239 450T228 573Q231 594 263 597T302 581Q319 536 328 478T338
383T339 275Q339 260 339 253Q339 150 298 109Q285 94 261 93T224 105Q210 121 196 143T174 181T151 225T130 265Q117 230 119 167T113 68Q108 49 79 47T31 64Z" />
<glyph unicode="O" glyph-name="O" horiz-adv-x="404" d="M27 284Q47 354 104 409T230 471T361 404Q418 327 400 235T306 92Q256 58 203 57T104 87Q57 122 35 175T27 284ZM131 223Q141 178 166 151T230 141Q277 163 295 212T301 316Q294 343 262 354T202 360Q178
356 152 302T131 223Z" />
<glyph unicode="P" glyph-name="P" horiz-adv-x="475" d="M31 412Q37 490 53 520Q55 525 58 529Q53 531 40 534T20 540Q5 557 10 581T31 612Q146 658 269 630T474 507Q477 479 473 454T462 408T437 368T405 335T364 305T322 280T274 258T227 240T179 222T136 207Q133
181 143 130T147 52Q138 26 111 10T53 2Q48 5 31 25Q11 181 31 412ZM141 435Q141 423 135 394T130 347T147 324Q205 304 275 349T363 462Q321 494 292 512T219 542T136 545Q134 545 139 541T151 528T158 512Q158 498 150 473T141 435Z" />
<glyph unicode="Q" glyph-name="Q" horiz-adv-x="423" d="M126 181Q66 235 43 268Q33 283 19 341Q2 407 53 493Q66 510 84 524T127 555T165 580Q176 591 192 598T230 612T263 624Q320 652 350 629Q372 614 374 588T346 556Q374 502 391 458T419 360T417 256T365
166Q390 93 388 62Q387 44 380 29Q376 14 359 5T326 5Q304 21 297 68T272 127Q256 136 204 147T126 181ZM170 254Q208 213 228 216Q236 217 243 224Q249 229 248 233T243 248T238 263Q238 276 239 283T245 299T263 312Q274 319 287 314T308 304T327 287Q330 284
331 283Q349 348 325 413T248 512Q218 531 184 509T130 445T112 366Q116 308 170 254Z" />
<glyph unicode="R" glyph-name="R" horiz-adv-x="410" d="M23 325Q23 350 42 425T47 537Q46 540 43 551T40 569T39 584T41 599T52 609Q144 660 243 627T398 503Q445 429 302 335Q335 159 398 37Q405 23 392 12T359 0T326 8Q289 39 271 92T238 202T192 292Q182
304 154 303T119 287Q105 242 123 157T143 51Q144 37 121 28T76 22Q58 28 47 51Q35 82 30 122T23 182T22 260T23 325ZM139 455Q138 453 133 440T127 421T124 405T124 390T134 383Q177 373 223 385T302 426Q313 431 320 441T321 460Q285 535 177 547Q160 549 153
534T144 491T139 455Z" />
<glyph unicode="S" glyph-name="S" horiz-adv-x="441" d="M45 421Q40 428 31 437T17 453T8 467T5 482T13 497Q38 528 70 550T142 585T215 606T297 623T373 639Q393 644 412 634T438 606Q446 588 431 573T395 552Q363 540 284 529T166 497Q143 484 149 470Q168
442 200 413T263 364T327 318T381 268T412 210T411 137Q397 86 355 53T258 8T146 1T40 28Q1 48 14 89T67 148Q83 151 95 131T116 109Q122 108 145 106T182 98Q198 91 216 91T242 94T275 108T302 120Q334 145 313 186Q275 235 180 303T45 421Z" />
<glyph unicode="T" glyph-name="T" horiz-adv-x="432" d="M177 2Q161 -4 150 7T138 31Q133 121 150 288T167 528Q167 535 164 538T154 540T142 537T129 532T118 528Q112 527 78 512T26 504Q1 515 3 542T31 582Q85 609 132 622T219 636T308 637T415 639Q417 639
419 636T425 627T429 620Q436 599 423 582T386 556Q346 548 330 548T279 547Q243 371 235 51Q235 26 177 2Z" />
<glyph unicode="U" glyph-name="U" horiz-adv-x="480" d="M116 71Q63 127 40 203T20 355T48 510Q57 538 87 552T147 552Q168 529 162 505Q135 443 128 372T143 233T219 133Q251 116 276 123T319 157T349 215T364 278Q373 335 372 366T365 453T359 541Q355 571
405 587Q415 590 447 598Q447 590 457 586T467 578Q479 491 480 427T465 286T405 148Q373 102 321 70T214 33T116 71Z" />
<glyph unicode="V" glyph-name="V" horiz-adv-x="407" d="M214 0Q179 0 175 15Q166 46 137 93T101 162Q91 193 64 257T23 372T13 471Q16 484 34 499T72 516T101 501Q116 468 142 360T205 201Q237 272 266 414T313 609Q318 624 342 634T388 638T406 604Q385 463
318 221Q295 144 278 34Q274 20 256 10T214 0Z" />
<glyph unicode="W" glyph-name="W" horiz-adv-x="609" d="M111 59Q49 143 28 251T27 467Q36 497 69 511T121 499Q137 474 137 439T131 373T132 305Q135 293 138 271T145 235T155 205T174 174Q201 204 228 275T278 373Q304 404 331 404T380 381T418 326T446 263Q446
258 450 250T459 236T467 232Q492 262 499 303T500 380T493 461T498 541Q506 557 530 567T571 567Q591 551 600 525T609 479T606 424T603 373Q603 279 561 169Q535 120 519 107Q498 90 478 89T442 98T412 126T388 164Q350 239 325 274Q311 255 294 219T262 155T227
99T178 61T111 59Z" />
<glyph unicode="X" glyph-name="X" horiz-adv-x="497" d="M18 119Q7 122 5 137T8 160Q31 184 74 212T153 269T206 333Q174 371 122 448T39 562Q21 584 35 607T74 636T117 635Q152 610 180 571T239 479T289 400Q310 413 341 449T394 499Q443 524 482 505Q496 491
488 473Q471 440 416 397T342 327Q357 301 391 246T450 148T493 67Q497 59 497 53T495 40T488 30T477 20T465 12T451 4Q436 -4 419 2T394 25Q358 118 258 249Q235 236 202 208T145 158T87 123T18 119Z" />
<glyph unicode="Y" glyph-name="Y" horiz-adv-x="361" d="M92 -61Q75 -54 72 -34T74 2Q78 28 107 119T132 253Q125 306 72 423T11 597Q8 620 39 634T87 634Q111 613 125 566T152 468T186 393Q202 414 227 502T286 615Q302 627 322 627T354 616T359 588Q277 385
245 316Q231 274 258 239Q267 230 254 198Q249 194 229 187T204 167Q165 -12 156 -43Q152 -55 135 -62T92 -61Z" />
<glyph unicode="Z" glyph-name="Z" horiz-adv-x="538" d="M129 5Q121 5 98 3T62 0T35 9T14 39Q14 69 48 91Q58 100 88 125T131 162T170 197T210 235T244 273T277 316T303 358T325 406T338 456Q340 469 327 474T291 483T257 491Q218 507 131 502T14 519Q-10 536
8 565T54 600Q87 608 121 609T192 606T257 596T328 581T395 566Q470 540 465 496Q458 440 428 382T368 288T281 193T204 109Q274 101 356 110T508 103Q533 95 537 72T526 30T485 10Q402 10 308 8T129 5Z" />
<glyph unicode="[" glyph-name="bracketleft" horiz-adv-x="521" d="M501 586Q524 573 521 555T496 522T456 507Q420 508 339 521T213 535Q199 379 139 151Q139 148 139 141T138 129T139 120T143 111T151 106Q266 89 377 123Q399 126 405 101T405 55Q402 48 397
43T383 34T370 29T354 24L343 21Q153 -30 21 43Q19 43 17 49T12 63T4 77Q26 101 26 117Q62 234 88 388Q94 423 87 495T88 603Q148 633 223 638T367 630T501 586Z" />
<glyph unicode="\" glyph-name="backslash" horiz-adv-x="413" d="M310 209Q314 202 354 143T407 53Q420 19 405 6T365 -1T325 24Q283 74 251 118T183 222T134 308T75 422T18 535Q-3 566 0 594T37 633Q45 633 55 635T71 639T83 640T92 635T96 621Q109 577 126
536T170 445T211 371T263 284T310 209Z" />
<glyph unicode="]" glyph-name="bracketright" horiz-adv-x="443" d="M314 623Q340 626 364 626T412 620T440 598T432 555Q342 406 387 156Q389 151 394 136T402 113T406 93T405 70T393 50Q376 33 359 33Q331 30 285 20T207 4T135 -1T61 16Q30 33 36 57T67 94Q94
109 162 107T258 123Q270 130 270 146T265 188T258 224Q256 273 272 375T286 533Q244 530 164 534T61 538Q44 538 28 556T11 594Q14 617 35 627T78 639Q114 641 193 629T314 623Z" />
<glyph unicode="^" glyph-name="asciicircum" horiz-adv-x="311" d="M187 640Q201 640 207 637Q217 624 263 518T311 404Q307 404 302 396T291 390Q287 392 274 393T251 397T239 402Q212 469 178 515Q170 499 163 487T145 463T130 445T108 423T85 400Q74 392 58
392T29 399Q8 408 26 433Q41 454 65 487T103 539T135 586T167 640H187Z" />
<glyph unicode="_" glyph-name="underscore" horiz-adv-x="185" />
<glyph unicode="`" glyph-name="grave" horiz-adv-x="165" d="M144 568Q146 559 149 547T155 527T160 509T163 493T164 481T164 470T160 462T153 456T141 453Q130 452 121 457T106 469T93 488Q82 504 72 517T54 542T31 576Q15 601 39 622T91 640Q126 636 144 568Z" />
<glyph unicode="a" glyph-name="a" horiz-adv-x="354" d="M258 -21Q250 -16 242 -1T226 15Q212 17 184 21T139 28T100 39T62 59T35 91Q16 120 20 162T44 231Q67 262 98 280T157 305T211 311T252 310L268 309Q276 319 276 344T261 372Q246 379 221 375T185 368T150
355T112 340Q86 331 74 368T72 416Q110 442 162 455T265 456T338 399Q352 370 353 335T349 271T334 204T323 136Q315 10 294 -17Q280 -36 258 -21ZM240 100Q243 114 249 135T258 169T262 200T253 238Q237 232 205 227T151 217T111 195T92 147Q92 127 128 111T198
94T240 100Z" />
<glyph unicode="b" glyph-name="b" horiz-adv-x="401" d="M76 3Q63 6 50 35Q46 68 44 163T29 312Q28 315 22 328T13 351T13 370Q16 375 24 383T34 396Q36 418 34 490T39 585Q45 612 71 631T118 627Q137 607 138 579T132 525T122 468T133 412Q192 409 242 394T335
345T395 260Q411 215 388 166T322 87Q256 40 197 16T76 3ZM149 103Q208 107 258 140T306 223Q305 255 275 282T202 321T123 328Q123 176 149 103Z" />
<glyph unicode="c" glyph-name="c" horiz-adv-x="378" d="M14 260Q30 355 97 414Q99 416 113 429T132 445T150 460T170 476T189 488T211 499T232 506T254 510T276 508T299 501Q322 491 312 462Q303 435 284 421T234 394T187 370Q113 313 109 250Q105 194 130 157Q137
145 149 137T170 125T197 116T222 107Q245 98 268 111T314 142T354 161Q369 162 374 153T377 130T370 105T360 85Q301 -5 140 41Q71 61 37 123T14 260Z" />
<glyph unicode="d" glyph-name="d" horiz-adv-x="370" d="M14 224Q14 280 52 315T156 380T245 430Q258 441 263 482T274 536Q285 555 304 566T341 570Q375 553 370 531Q295 327 346 31Q346 24 332 16T307 7Q288 5 277 19T258 51T240 70Q231 70 212 69T181 68T154
71T125 84Q124 85 107 96T87 109T69 123T51 139T37 156T24 176T18 198T14 224ZM115 238Q121 200 156 174T230 161Q225 194 232 251T240 329Q192 329 150 305T115 238Z" />
<glyph unicode="e" glyph-name="e" horiz-adv-x="339" d="M22 282Q20 357 69 403T191 439Q251 431 295 381T339 269Q330 241 257 198T173 144Q168 143 161 136T157 123Q169 101 187 92T227 87T268 98T312 118Q338 98 329 65T288 26Q286 26 266 23T241 19T219 17T193
16T171 20T146 28Q26 82 22 282ZM131 231Q221 235 239 294Q255 329 213 347T138 349Q118 338 112 310T112 257T131 231Z" />
<glyph unicode="f" glyph-name="f" horiz-adv-x="359" d="M35 410Q44 491 113 556Q139 581 176 597T249 616T317 601T359 541Q361 527 351 517T327 508Q315 509 287 516T248 523T206 518Q165 504 143 474T119 406T124 331T149 257Q155 258 225 288T321 311Q335
310 340 296T340 268Q333 250 296 235T223 206T186 180Q181 156 213 117T250 61Q259 43 231 32T182 29Q157 45 132 90T85 149Q82 150 62 149T31 151Q21 150 16 162T13 186Q17 193 37 205T57 232Q56 251 44 313T35 410Z" />
<glyph unicode="g" glyph-name="g" horiz-adv-x="327" d="M68 425Q102 454 141 471T224 491T307 474Q331 462 327 444Q308 405 299 363T289 272T290 189T298 96T307 10Q312 -41 304 -76T262 -131Q203 -165 131 -139T37 -47Q28 -20 55 -6T98 -9Q103 -14 125 -41T166
-80T209 -89Q216 -87 228 -62Q237 -32 234 24T227 110T212 197Q212 199 213 205Q218 227 211 226Q209 225 205 223Q140 184 91 204Q61 216 34 265Q15 307 23 351T68 425ZM132 398Q96 367 102 326Q112 257 140 257Q157 256 168 267T193 306T209 341Q218 356 219
379T212 417Q206 429 191 427T160 417T132 398Z" />
<glyph unicode="h" glyph-name="h" horiz-adv-x="338" d="M36 296Q39 319 35 357T31 427T45 484Q51 500 72 506T115 504Q128 496 128 463Q127 456 124 427T120 387T118 352T117 312T120 277T128 238Q159 293 201 324T294 334Q312 258 319 225T334 130T336 21Q335
3 307 -4T265 1Q242 29 240 72T237 162T220 242Q158 180 111 80Q105 70 88 63T57 59Q55 60 49 61T37 64T28 68T24 75Q24 184 36 296Z" />
<glyph unicode="i" glyph-name="i" horiz-adv-x="185" d="M42 253Q42 332 60 367Q70 386 93 392T138 389Q154 382 162 369T160 341Q142 316 140 271T134 214Q125 191 132 144T134 74Q134 71 131 66T125 61Q58 42 46 79Q38 105 37 133T39 199T42 253ZM67 479Q56
495 62 519T81 552Q104 566 131 564T171 543Q183 525 172 498T144 461Q127 451 106 455T67 479Z" />
<glyph unicode="j" glyph-name="j" horiz-adv-x="194" d="M40 526Q15 575 45 602Q66 621 95 621T139 598Q154 577 151 549T128 506Q104 489 79 494T40 526ZM71 433Q77 452 111 452T155 425Q157 413 151 389T147 353Q148 325 153 270T160 180T161 97T148 13T113
-59T51 -124Q15 -152 -37 -138T-105 -76Q-112 -56 -101 -41T-69 -20Q-55 -16 -46 -23T-30 -44T-17 -64Q-1 -72 7 -72Q35 -53 51 -19T71 39T79 108Q83 150 74 216T60 325T71 433Z" />
<glyph unicode="k" glyph-name="k" horiz-adv-x="378" d="M21 394Q23 421 18 468T11 542T21 610Q28 627 53 635T102 637Q115 624 115 615Q115 574 110 476T106 322Q108 318 112 317T123 317L129 318Q136 323 157 340T190 365T219 380T255 386T291 372Q308 360
302 345T278 322Q271 317 232 295T174 255Q240 205 372 84Q390 61 359 39Q346 22 324 21T291 34Q269 56 244 77T183 128T133 169Q133 169 124 173Q117 173 120 160Q117 140 124 97T129 34Q127 16 110 7T74 0T52 12Q29 66 21 138T13 258T21 394Z" />
<glyph unicode="l" glyph-name="l" horiz-adv-x="198" d="M57 368Q58 393 53 429T42 492T38 552T52 608Q61 627 84 636T127 636T150 598Q151 593 148 578T145 558Q145 535 146 491T147 411T145 344Q143 308 147 241T149 121T125 25Q115 3 92 0T47 10Q36 17 32
33T32 65Q45 110 50 156T55 273T57 368Z" />
<glyph unicode="m" glyph-name="m" horiz-adv-x="606" d="M19 296Q12 354 33 392T109 415Q129 409 134 393T135 357T130 316T138 281Q153 295 169 321T195 369T223 411T260 435T312 430Q327 415 332 411Q336 395 340 356T352 296Q360 304 373 320T396 348T420
373T447 394T475 408T506 414T541 406Q552 399 556 387T560 356T561 331Q590 118 536 -22Q529 -47 498 -52T441 -41Q438 -41 436 -36T434 -22T436 -7Q482 118 456 291Q456 305 441 292Q434 287 431 281Q381 198 337 78Q324 52 289 42T233 58Q218 89 229 159T228
266Q211 237 180 166T124 58Q108 36 76 36T34 58Q18 98 20 173T19 296Z" />
<glyph unicode="n" glyph-name="n" horiz-adv-x="360" d="M44 217Q44 233 41 270T39 334T48 382Q57 405 88 404T127 377Q131 363 125 337T118 301Q120 299 123 293Q126 288 127 289Q129 292 136 305T146 322T156 338T168 353T179 365T193 377T207 384T224 389T241
390T262 386Q278 361 288 334T304 268T311 213T315 145T317 86Q327 42 304 35Q240 18 236 44Q230 82 227 164T215 289Q187 258 160 187T118 90Q106 70 82 69T48 90Q42 107 41 127T42 176T44 217Z" />
<glyph unicode="o" glyph-name="o" horiz-adv-x="282" d="M106 131Q56 161 35 217T31 331Q40 364 66 400T95 444Q115 482 155 478T227 440Q260 402 276 342Q303 241 207 140Q191 123 159 121T106 131ZM138 230Q172 222 188 245T197 304T163 369Q152 381 125 350Q88
309 93 271Q97 239 138 230Z" />
<glyph unicode="p" glyph-name="p" horiz-adv-x="344" d="M41 344Q42 350 35 363T32 385Q45 396 46 428T64 472Q85 487 106 488T142 472Q150 464 151 444T156 422Q192 418 222 411T283 389T331 349T344 289Q340 251 323 226T277 187T222 166T159 150T102 135Q90
62 92 25T116 -85Q116 -88 120 -93T129 -106T138 -119Q150 -144 118 -150T64 -146Q59 -144 54 -141T46 -134T39 -125T34 -116T30 -104T26 -92T24 -79T22 -67T21 -53T19 -41Q14 -3 13 36T15 116T22 190T32 269T41 344ZM147 339Q127 319 118 273T125 217Q156 203
199 226T249 296Q255 331 215 339Q197 347 178 348T147 339Z" />
<glyph unicode="q" glyph-name="q" horiz-adv-x="384" d="M130 451Q160 465 197 462T256 433Q271 456 302 456T342 437Q358 401 350 343T327 228T309 97T333 -47Q343 -70 368 -70T401 -54Q402 -52 405 -44T411 -32T417 -18T425 -6T434 5T444 12T456 15T470 13Q483
7 490 1T501 -11T502 -26T498 -42T488 -62T477 -85Q457 -133 400 -149T297 -144Q267 -131 248 -102T225 -40Q225 -27 227 6T228 63T220 104Q213 115 203 113T175 105T148 104Q137 111 114 115T81 127Q75 134 59 151T35 179T22 203Q-4 262 18 325Q28 368 57 401T130
451ZM139 361Q97 319 101 259T153 172Q170 161 190 165T220 190Q227 205 230 225T234 257T235 296T234 329Q234 350 213 368T166 383Q160 381 156 379T146 369T139 361Z" />
<glyph unicode="r" glyph-name="r" horiz-adv-x="323" d="M45 310Q43 325 35 348T21 387T17 423T35 456Q72 488 107 457T135 376Q154 379 173 394T204 425T236 449T281 451Q291 447 294 446T305 440T316 433T321 425T323 414T316 401Q297 374 247 333T175 260Q167
249 166 224T160 190Q141 161 170 125Q185 106 182 75T160 25Q145 3 118 2T75 20Q58 31 60 65Q64 154 45 310Z" />
<glyph unicode="s" glyph-name="s" horiz-adv-x="345" d="M210 447Q219 443 246 433T287 416T317 397T342 366Q348 355 342 338T326 315Q305 302 269 322T203 359T129 355Q110 342 128 316T166 283Q270 246 324 196Q344 172 342 140T321 79Q295 35 236 10T115
-3T25 68Q15 88 32 107T72 129Q85 130 97 109T118 84Q153 64 200 82T247 142Q247 152 232 165T201 186Q190 191 152 206T98 230T59 257T25 300Q7 337 40 378T125 440T210 447Z" />
<glyph unicode="t" glyph-name="t" horiz-adv-x="397" d="M167 447Q168 456 174 492T182 549Q186 583 223 588T288 573Q301 560 293 539Q254 454 254 335Q262 336 282 338Q371 350 390 334Q401 323 395 302Q392 292 385 285T366 273T344 265T316 261T290 260T261
259T237 260Q232 226 245 56T257 -141Q256 -156 247 -165T222 -175Q204 -175 195 -169T180 -143Q171 -118 162 55T136 257Q115 241 90 232T41 228T7 258Q3 268 11 281T32 302Q45 309 89 318T148 345Q157 356 160 372T164 413T167 447Z" />
<glyph unicode="u" glyph-name="u" horiz-adv-x="367" d="M26 358Q26 363 26 383T28 412T34 433T51 453Q77 465 106 457T136 423Q136 401 134 361T132 289T136 227Q138 221 140 207T145 183T151 159T159 137T169 121T181 113T196 117Q261 161 276 248T246 408Q237
422 232 436T228 464T241 483Q289 503 326 459T366 363Q372 260 340 170T231 47Q180 24 143 38T82 85T45 168T27 266T26 358Z" />
<glyph unicode="v" glyph-name="v" horiz-adv-x="430" d="M78 252Q33 335 12 394Q3 420 23 436T71 451T109 435Q132 407 157 335T205 232Q223 262 239 302T264 368T289 448T312 521Q325 553 362 552T429 526Q432 520 428 507T424 491Q421 487 411 477T398 460Q344
263 256 95Q247 78 222 70T180 79Q172 86 165 94T150 113T137 130T125 150T115 169T105 191T96 210T87 232T78 252Z" />
<glyph unicode="w" glyph-name="w" horiz-adv-x="609" d="M112 441Q132 417 133 378T129 305T132 229Q135 219 139 192T150 147T167 115Q181 97 201 126Q212 142 233 189T275 257Q295 276 310 277T347 261Q368 241 395 184T451 109Q463 102 479 132Q501 169 505
217T505 301T513 379Q518 396 539 400T581 392T604 353Q616 246 599 167T513 41Q450 0 388 30Q366 40 341 80T309 121T291 102T260 55T224 19Q191 0 154 0T93 24Q53 77 35 145T18 279T25 416Q29 449 62 456T112 441Z" />
<glyph unicode="x" glyph-name="x" horiz-adv-x="471" d="M88 470Q126 470 149 450T179 403T199 343T229 293Q246 302 269 322T312 359T352 388T393 398T430 372Q446 346 441 331T414 299T368 270T322 237T296 195Q287 151 363 92Q381 74 411 37T460 -18Q489 -47
447 -69Q413 -87 381 -79Q353 -69 328 -40T286 17T245 72T192 104Q181 106 170 94T147 61T125 31Q106 3 67 3T15 31Q5 58 18 85T54 131T97 176T119 226Q120 256 101 293T61 368T40 439Q35 452 51 461T88 470Z" />
<glyph unicode="y" glyph-name="y" horiz-adv-x="346" d="M39 396Q39 400 37 414T35 434T37 450T44 465Q59 488 90 489T133 465Q147 437 146 385T148 297Q152 284 165 299Q167 301 168 302Q173 313 188 349T212 401T238 440T277 475Q291 480 310 481T340 469T341
435Q329 412 301 364T258 286T227 211T208 124Q204 72 172 -1T102 -122Q74 -156 23 -157T-47 -122Q-82 -52 -42 -28Q-24 -17 -3 -30T22 -67Q43 -51 55 -40T74 -12T84 12T91 46T99 89Q105 120 83 169T59 237Q56 264 49 316T39 396Z" />
<glyph unicode="z" glyph-name="z" horiz-adv-x="473" d="M80 457Q115 451 169 447T254 439T326 416T405 363Q408 354 406 341T399 320Q375 296 331 259T254 187T196 114Q256 100 315 99T437 85Q460 80 469 66T464 31Q449 4 416 -2T350 3Q296 21 250 15T149 20Q30
50 51 91T109 173T193 257T263 330Q246 350 235 355T205 357T172 356Q157 358 116 355T59 359Q49 359 36 366T20 386Q12 417 33 439T80 457Z" />
<glyph unicode="{" glyph-name="braceleft" horiz-adv-x="445" d="M353 623Q359 622 385 624T418 617Q469 568 429 542Q400 528 364 529T297 540T232 550T169 531Q172 511 187 489T217 449T244 412T252 371T223 326Q220 321 215 285T196 234Q192 230 176 218T152
198T134 179T121 155T121 131Q128 105 150 93T199 82T256 84T310 83Q324 83 303 52Q292 35 283 29Q209 -20 94 12Q50 25 13 83Q4 102 3 121T7 156T21 189T41 221T64 254T83 288Q84 291 82 294T74 301T63 307T48 313T34 320Q1 343 7 369Q10 373 27 384T45 412Q65
412 78 417T88 434Q86 449 63 489T51 552Q65 579 86 598T133 625T183 638T241 639T297 633T353 623Z" />
<glyph unicode="|" glyph-name="bar" horiz-adv-x="183" d="M139 367Q139 331 145 281T156 195T161 114T149 32Q146 18 123 7T76 2T48 37Q27 273 27 346Q27 414 48 569Q48 592 65 611T107 638Q137 647 163 624T181 580Q139 485 139 367Z" />
<glyph unicode="}" glyph-name="braceright" horiz-adv-x="314" d="M43 622Q46 628 50 632T60 638T70 640T82 639T93 636T105 632T115 627Q119 626 151 614T193 598T226 582T266 558T298 531Q320 508 312 478Q304 446 275 429T204 399T144 372Q160 360 195 355T247
339T250 296Q246 285 235 277T208 259T183 243Q184 242 197 233T214 221T229 210T244 196T256 183T267 167T273 152T276 134T273 115T264 94Q245 60 213 35T142 2T67 17Q57 37 67 55Q76 68 95 75T131 86T157 99T163 127Q159 147 133 165T85 202T62 243Q62 249 73
266T82 291Q77 304 52 325T19 358Q10 374 20 390T48 416Q76 435 135 456T207 483Q191 507 157 517T87 537T34 569Q29 576 29 583T29 595T36 609T43 622Z" />
<glyph unicode="~" glyph-name="asciitilde" horiz-adv-x="385" d="M81 579Q100 598 113 608T144 628T182 637T221 623Q237 613 244 582T258 540Q268 526 275 524T290 528T304 544T324 566T352 586Q370 592 379 579T382 552Q342 491 317 472T245 450Q225 449 209
462T186 497Q179 518 172 528T156 536Q134 529 120 513T99 484T76 464T29 462Q20 465 19 480T25 505T39 527T50 544T61 558T81 579Z" />
</font>
</defs>
</svg>
